<svg id="Layer_1" data-name="Layer 1" xmlns="http://www.w3.org/2000/svg" xmlns:xlink="http://www.w3.org/1999/xlink" viewBox="0 0 449 399"><defs><style>.cls-1,.cls-4,.cls-6,.cls-8{fill:none;}.cls-2{clip-path:url(#clip-path);}.cls-3{fill:#fff;}.cls-4,.cls-6,.cls-8{stroke:#464747;}.cls-4,.cls-6,.cls-8,.cls-9{stroke-miterlimit:10;}.cls-4{stroke-width:1.4px;}.cls-5{fill:#f69437;}.cls-6{stroke-width:2px;}.cls-7{fill:#464747;}.cls-8{stroke-width:1.5px;}.cls-9{fill:#b9b9b9;stroke:#fff;stroke-width:0.5px;}.cls-10{fill:#fefefe;}.cls-11{clip-path:url(#clip-path-2);}.cls-12{fill:#934c16;opacity:0.36;}.cls-13{fill:#493636;}.cls-14{fill:#bc896f;}.cls-15{fill:#b18070;}.cls-16{fill:url(#radial-gradient);}.cls-17{fill:url(#radial-gradient-2);}.cls-18{fill:#050505;}.cls-19{fill:url(#radial-gradient-3);}.cls-20{fill:url(#radial-gradient-4);}.cls-21{fill:url(#radial-gradient-5);}.cls-22{fill:#4b3838;}</style><clipPath id="clip-path"><rect class="cls-1" x="-72" width="566" height="399"/></clipPath><clipPath id="clip-path-2"><circle class="cls-1" cx="224" cy="199" r="65"/></clipPath><radialGradient id="radial-gradient" cx="206.11" cy="172.14" r="13.58" gradientTransform="translate(0 0.53)" gradientUnits="userSpaceOnUse"><stop offset="0" stop-color="#3192c3"/><stop offset="1" stop-color="#3192c3"/></radialGradient><radialGradient id="radial-gradient-2" cx="239.29" cy="172.14" r="13.58" xlink:href="#radial-gradient"/><radialGradient id="radial-gradient-3" cx="222.16" cy="179.99" r="2.75" xlink:href="#radial-gradient"/><radialGradient id="radial-gradient-4" cx="222.84" cy="170.51" r="1.96" xlink:href="#radial-gradient"/><radialGradient id="radial-gradient-5" cx="225.88" cy="179.71" r="1.51" xlink:href="#radial-gradient"/></defs><title>0.4 image</title><g class="cls-2"><circle class="cls-3" cx="224.5" cy="199.5" r="222"/><path class="cls-4" d="M224,376.5c-3.93,0-7.85,0-11.78,0a5.6,5.6,0,0,1-4.72-2.28q-7.38-9.27-14.84-18.47a4.85,4.85,0,0,1-1-4.36q2.71-11.83,5.43-23.65a4.51,4.51,0,0,1,2.55-3.22L218,315.78l3.89-1.85a4.72,4.72,0,0,1,4.25,0l22,10.47a5,5,0,0,1,2.85,3.52q2.72,11.75,5.41,23.51a4.85,4.85,0,0,1-1,4.32q-7.55,9.38-15.09,18.77a5.07,5.07,0,0,1-4.17,2Zm-.05-.73H236a4.44,4.44,0,0,0,3.66-1.75q7.5-9.35,15-18.69a4.33,4.33,0,0,0,.88-3.9q-2.62-11.33-5.2-22.67a5.08,5.08,0,0,0-2.85-3.82q-10.85-5.13-21.66-10.32a4.18,4.18,0,0,0-3.82,0q-11,5.28-22,10.53a3.85,3.85,0,0,0-2.2,2.73c-.28,1.21-.56,2.42-.83,3.63q-2.32,10.11-4.63,20.22a3.92,3.92,0,0,0,.84,3.49q7.46,9.27,14.9,18.55a4.9,4.9,0,0,0,4.13,2C216.14,375.75,220,375.77,224,375.77Z"/><path class="cls-5" d="M223.71,327.2c-.15-1.22-.29-2.21-.4-3.2a1.64,1.64,0,0,1,.05-.85,1.11,1.11,0,0,1,.65-.53.53.53,0,0,1,.64.51,18.55,18.55,0,0,1-.1,1.92c-.05.67-.15,1.35-.18,2a3,3,0,0,0,.18.89c0,.15.19.28.22.43.15.91.8,1,1.58,1.15a15.87,15.87,0,0,1,9.12,4.41,1.92,1.92,0,0,0,2.07.47A4.62,4.62,0,0,0,239.6,333c.49-.51,1-1,1.49-1.52a.92.92,0,0,1,.53-.3,1,1,0,0,1,.75.24,1,1,0,0,1,0,.79,1,1,0,0,1-.43.44c-.77.5-1.58,1-2.33,1.48a5.35,5.35,0,0,0-1,1,7.57,7.57,0,0,0-.57,1,.79.79,0,0,0,0,.91,16.74,16.74,0,0,1,2.7,9.64,9.17,9.17,0,0,1-.14,1.15,1.34,1.34,0,0,0,.47,1.23c1,1,2.32,1,3.59,1.17a14.2,14.2,0,0,1,1.48.19c.6.14.85.5.74.95s-.56.62-1.13.45a15.28,15.28,0,0,1-2.32-.84,4.28,4.28,0,0,0-3,0,1.07,1.07,0,0,0-.58.64A16,16,0,0,1,236,357.7a33.69,33.69,0,0,1-3,2.42,1.55,1.55,0,0,0-.68,1,3.79,3.79,0,0,0,.63,2.67c.39.61.81,1.21,1.2,1.82a2.51,2.51,0,0,1,.32.7.69.69,0,0,1-.37.9.71.71,0,0,1-.91-.35,1.94,1.94,0,0,1-.24-.48c-.27-.78-.57-1.55-.77-2.34a4.31,4.31,0,0,0-1.84-2.23,1,1,0,0,0-.82,0,16.44,16.44,0,0,1-10.83.07,1.53,1.53,0,0,0-1.34.14,3.94,3.94,0,0,0-1.75,2.35c-.22.67-.44,1.35-.67,2a2.3,2.3,0,0,1-.25.52.7.7,0,0,1-.92.32.67.67,0,0,1-.34-.86,2.12,2.12,0,0,1,.28-.61c.46-.74.92-1.48,1.42-2.19a4.38,4.38,0,0,0,.5-1.94,1.41,1.41,0,0,0-.77-1.62,16.06,16.06,0,0,1-6.37-7.71,2.33,2.33,0,0,0-2.94-1.62,19.88,19.88,0,0,0-2.07.66,12.16,12.16,0,0,1-1.43.44c-.56.11-.93-.13-1-.52a.84.84,0,0,1,.79-.88,23.7,23.7,0,0,1,2.59-.29,4.13,4.13,0,0,0,1.77-.56,2,2,0,0,0,1.13-2.28,15.6,15.6,0,0,1,2.38-10,1.43,1.43,0,0,0,.12-1.34,3.92,3.92,0,0,0-1.67-2c-.64-.4-1.31-.77-1.95-1.18a1.49,1.49,0,0,1-.6-.55,1.13,1.13,0,0,1,0-.84.56.56,0,0,1,.81-.17,3.25,3.25,0,0,1,.74.53c.68.66,1.32,1.37,2,2a3.58,3.58,0,0,0,1,.54c.28.12.58.17.87.27a.87.87,0,0,0,1-.32,16.51,16.51,0,0,1,4.88-3.45,16.94,16.94,0,0,1,5.16-1.42,1.11,1.11,0,0,0,1-.85C223.32,328.07,223.57,327.56,223.71,327.2Zm-.84,6.14h0a4.61,4.61,0,0,0,0-.68,1,1,0,0,0-1.2-.9,14.44,14.44,0,0,0-7.58,3.72.83.83,0,0,0,0,1.31,7.08,7.08,0,0,0,.63.46c1.64,1.15,3.26,2.32,4.91,3.46a1.74,1.74,0,0,0,2.86-1.34C222.63,337.37,222.74,335.36,222.87,333.34Zm15.57,12.91h0c0-.55-.05-1.1-.1-1.64a13.82,13.82,0,0,0-1.83-5.76.87.87,0,0,0-1.46-.25c-.4.33-.77.69-1.16,1-1.23,1.1-2.47,2.18-3.67,3.3a1.78,1.78,0,0,0,.7,3.2c2.09.64,4.2,1.24,6.31,1.85a.84.84,0,0,0,1.18-.86C238.46,346.84,238.45,346.55,238.45,346.26ZM230,349a1.72,1.72,0,0,0-1.72,1,2,2,0,0,0,.05,1.64l2.38,5.76c.39.94.89,1.08,1.72.48a14.52,14.52,0,0,0,5-6.24c.41-1,.13-1.42-.9-1.58s-1.78-.3-2.67-.45ZM209.55,346c0,.31,0,.61,0,.92,0,.91.46,1.26,1.34,1l6.08-1.77a1.79,1.79,0,0,0,1.42-1.3,1.89,1.89,0,0,0-.71-1.94c-1.56-1.38-3.1-2.78-4.65-4.17-.73-.65-1.28-.56-1.74.3A14,14,0,0,0,209.55,346Zm10.37,4.72a1.75,1.75,0,0,0-2.14-1.7c-2.28.37-4.55.76-6.82,1.12-.41.07-.61.23-.53.65a2.94,2.94,0,0,0,.11.52,14.31,14.31,0,0,0,5.28,6.65c.65.45,1.14.29,1.45-.45.79-1.91,1.58-3.81,2.36-5.72A9,9,0,0,0,219.92,350.76Zm4.25,9.94c1.28-.24,2.55-.43,3.81-.71,1-.23,1.2-.73.7-1.62-1-1.81-2-3.61-3-5.42a1.84,1.84,0,0,0-1.66-1.14,1.86,1.86,0,0,0-1.67,1.13c-1,1.82-2,3.64-3,5.46-.45.81-.25,1.36.65,1.55C221.34,360.25,222.74,360.45,224.17,360.7Zm3.07-19.53a8.4,8.4,0,0,0,1.12-.51c.6-.38,1.16-.81,1.74-1.23,1.13-.8,2.27-1.6,3.39-2.42.71-.52.79-1.13.2-1.66a14.33,14.33,0,0,0-7.68-3.62c-.61-.09-1,.3-.94.92.12,2.19.24,4.38.37,6.57A2,2,0,0,0,227.24,341.17Zm-3.47,2a1.85,1.85,0,0,0-1.78.76,3.11,3.11,0,0,0-1,2,3,3,0,0,0,3,3.14,2.94,2.94,0,1,0-.2-5.87Z"/><path class="cls-6" d="M357.31,262.09c0,1.37.72,2.92,0,4.31-3.38,6.51-16,6.82-23.12,3.59-2.34-1.06-5.82-4.52-5.82-11,0-6.13,0-8.07,0-14.2,0-4.18,1.1-5.8,5-7.24a25,25,0,0,1,19.6.58,8.11,8.11,0,0,1,4.33,4.32c2.1,4.88,4.38,9.69,6.53,14.55a2,2,0,0,0,2,1.41c3.7.21,7.4.56,11.09.9a3.43,3.43,0,0,1,3.33,3.46,3.49,3.49,0,0,1-3.3,3.56c-5,.11-10,.13-15,0-.93,0-2-1-2.72-1.72a13.19,13.19,0,0,1-1.64-2.55Z"/><path class="cls-6" d="M331.62,217.06c0-6.16,6.38-10.49,12.77-8.63a9,9,0,0,1,6.72,10.72c-.64,3.79-1.61,7.46-3.88,10.64-3.45,4.83-8.11,4.81-11.58,0A26.31,26.31,0,0,1,331.62,217.06Z"/><path class="cls-7" d="M361.87,231.29v14.48c-1.11-1.86-2.3-3.57-2.17-5.88.17-3.06.07-6.14,0-9.2,0-1.26.49-1.72,1.72-1.72q16.64,0,33.27,0c1.32,0,1.82.53,1.82,1.84q0,11.79,0,23.58c0,1.23-.44,1.73-1.71,1.73q-13.65-.05-27.29,0c-1.41,0-1.9-.63-2-2h28.69V231.29Z"/><path class="cls-5" d="M380.89,235.68c-.3,1.18-.53,2.11-.77,3q-1.26,5.07-2.51,10.14c-.19.78-.32,1.76-1.44,1.51s-.85-1.12-.64-1.95c1.06-4.15,2.06-8.32,3.17-12.46a2.21,2.21,0,0,1,1.23-1.13C380.11,234.76,380.59,235.41,380.89,235.68Z"/><path class="cls-7" d="M384.23,262.26c1.74,0,3.24-.09,4.73,0,.52,0,1,.66,1.48,1-.5.36-1,1-1.49,1-2,.12-4.07,0-6.28,0,.3-2.87-.37-5.23-3.09-6.91h4.66Z"/><path class="cls-5" d="M370.35,242.58c.93,1.26,1.88,2.38,2.61,3.61.26.44,0,1.18,0,1.79-.54-.17-1.28-.17-1.6-.54a33.88,33.88,0,0,1-3-4,1.92,1.92,0,0,1,0-1.7,34.76,34.76,0,0,1,3.08-4.12c.3-.34,1.07-.27,1.62-.38,0,.53.26,1.2,0,1.57C372.3,240.09,371.33,241.26,370.35,242.58Z"/><path class="cls-5" d="M384,237a3.66,3.66,0,0,1,.79.64c1,1.31,2.07,2.62,3,4a1.93,1.93,0,0,1,.06,1.71,34.45,34.45,0,0,1-3.07,4.13c-.3.35-1.07.29-1.63.42,0-.57-.21-1.25,0-1.67.58-1,1.46-1.87,2-2.88a1.9,1.9,0,0,0,0-1.62c-.62-1.06-1.48-2-2.16-3C382.45,237.89,382.84,237.05,384,237Z"/><path class="cls-8" d="M46.33,240.91h1q28.58,0,57.16,0a17.9,17.9,0,0,0,7.56-1.6c.88-.4,1.74-.81,2.54-1.18-.64-1.27-1.32-2.42-1.8-3.64a11.24,11.24,0,0,1-.48-5.37,10.21,10.21,0,0,1,2-5.42.86.86,0,0,1,.84-.07c.95.87,1.87,1.77,2.73,2.73a8,8,0,0,1,1.43,2c.66,1.5,1.16,3.07,1.74,4.64a33.62,33.62,0,0,1,4.27-.65,12.93,12.93,0,0,1,6.34,1.54c.5.25.35.5.2.79A10,10,0,0,1,128,238.8a10.2,10.2,0,0,1-4.62,1.6c-1.27.08-2.54.13-3.81.18-.5,0-.71.17-1,.7-.91,2-1.94,4-3,5.9a35.34,35.34,0,0,1-2.09,3.41c-.8,1.14-1.67,2.24-2.58,3.3a26.54,26.54,0,0,1-2.83,3,68,68,0,0,1-6,4.77,37.23,37.23,0,0,1-9.91,4.7c-2.33.72-4.71,1.32-7.09,1.85-1.16.26-2.4.14-3.56.37a43.78,43.78,0,0,1-9.08.44,26.68,26.68,0,0,1-4.6-.46,37.83,37.83,0,0,1-5.35-1.38c-1.47-.51-2.82-1.35-4.26-2a17.71,17.71,0,0,1-5.91-4.53,26,26,0,0,1-3.14-4.38,24.05,24.05,0,0,1-2.06-4.67,15.12,15.12,0,0,1-1-5.68c0-.63-.23-1.28-.21-1.91C46,243.06,46.2,242.06,46.33,240.91Zm31.08,25.77,0-.22a4.46,4.46,0,0,0-.49-.28,16.68,16.68,0,0,1-5.71-4,42.39,42.39,0,0,1-3-4.09c-.22-.3-.62-.68-.91-.66a14.34,14.34,0,0,0-2.73.53,19.8,19.8,0,0,1-5.55.6c-1.4,0-2.8,0-4.21,0-.26,0-.51,0-.77.07l-.07.24c.62.52,1.21,1.08,1.87,1.56a39.41,39.41,0,0,0,4.32,3A22.75,22.75,0,0,0,67,265.84c.93.17,1.87.25,2.8.38,1.17.16,2.33.38,3.5.47s2.23,0,3.35,0C76.88,266.73,77.14,266.7,77.41,266.68ZM74.06,254.9a2.76,2.76,0,0,0-2-2.13,2.91,2.91,0,0,0-2.22,2.11,2.44,2.44,0,0,0,2.06,2.1A2.27,2.27,0,0,0,74.06,254.9Z"/><path class="cls-5" d="M64.68,237.27v-7.95h7.71v7.95Z"/><path class="cls-5" d="M54.85,229.28h7.68v8H54.85Z"/><path class="cls-5" d="M82.21,237.3H74.53v-8h7.68Z"/><path class="cls-5" d="M92.07,229.29v8H84.38v-8Z"/><path class="cls-5" d="M94.19,237.29v-8h7.67v8Z"/><path class="cls-5" d="M64.67,219.47h7.72v7.67c-1.19,0-2.36,0-3.52,0-1.36,0-2.72-.09-4.08-.14,0-1.37-.09-2.73-.11-4.1C64.66,221.79,64.67,220.68,64.67,219.47Z"/><path class="cls-5" d="M84.39,209.62h7.69c0,1.86,0,3.68,0,5.5,0,2.17,0,2.17-2.16,2.17H84.39Z"/><path class="cls-5" d="M74.53,227v-7.53h7.7c0,.72,0,1.48,0,2.24,0,1.54,0,3.09,0,4.63,0,.45-.08.77-.65.76-2.23,0-4.46,0-6.69,0A1.85,1.85,0,0,1,74.53,227Z"/><path class="cls-5" d="M84.37,227v-7.54h7.71c0,.56,0,1.14,0,1.73,0,1.72,0,3.43,0,5.15,0,.46-.09.76-.66.76-2.23,0-4.46,0-6.69,0A1.82,1.82,0,0,1,84.37,227Z"/><path class="cls-3" d="M73.44,254.44c.11,1.23-.29,2-1.07,2-1.25.06-2-.48-2-1.44a1.75,1.75,0,0,1,2.05-1.64C72.17,254.36,72.42,254.62,73.44,254.44Z"/><path class="cls-8" d="M142,117.64c-3.66.1-5.86-1.93-6-5.79-.15-3.46-.06-6.92-.07-10.38,0-.78,0-1.56,0-2.49l-2.56-.17c0,3.64.08,7.16,0,10.66a18.61,18.61,0,0,1-.82,5.07c-.78,2.4-2.76,3.4-5.43,3.13,3.15-5.7,1.13-11.85,1.86-18-2,.36-2.28,1.7-2.31,3-.06,2.88,0,5.77,0,8.65-.06,3.67-3.4,5.69-6.81,4.32,1-1.69,2.34-3.28,2.8-5.11s.11-4.14.11-6.12a44.84,44.84,0,0,1-4.49,0,9.43,9.43,0,0,1-7.29-4c-1.84-2.7-3.87-5.28-5.94-8.08,1.24-1.19,2.7-.73,3.94.33s2.49,2.59,3.75,3.88c2.83,2.91,5.93,3.66,8.95,2.17a4.86,4.86,0,0,0,1.36-1c1.46-1.56,2.88-3.15,4.18-4.59-1.69-.34-4-.67-6.26-1.28a17.68,17.68,0,0,1-9.63-27.49,5.12,5.12,0,0,0,.86-3.55,68.51,68.51,0,0,1,.45-7.25c.11-1.49,1-1.85,2.25-1.41,2.68,1,5.3,2.11,8,3.1a5.55,5.55,0,0,0,2.79.52,45.56,45.56,0,0,1,17-.1,4.16,4.16,0,0,0,2.55-.59,18.19,18.19,0,0,1,10.15-3c.2,2.88.37,5.77.62,8.65a5.11,5.11,0,0,0,.61,2.48c4.3,5.87,5,15.5,1.23,21.71-2.88,4.78-7.49,7-12.83,7.83-1,.17-2.1.32-3.87.58,5.3,2.07,5.73,6,5.6,10.37a60.33,60.33,0,0,0,.25,7.56,5.76,5.76,0,0,0,1.29,2.55,11.1,11.1,0,0,0,1.86,1.6c-1.64,1.25-3.14.75-4.55.17a3.75,3.75,0,0,1-2.7-3.55c0-3,0-6.06,0-9.09,0-1.5-.32-2.86-2.51-3.36C141,105.72,138.87,111.88,142,117.64Z"/><path class="cls-8" d="M148.3,87.83c4.77-1.56,6.89-6.6,5.83-11.83-.93-4.6-4.17-7.06-9.48-7.1q-9.93-.06-19.86,0c-4.77,0-8,2.24-9.16,6-1.88,6.24,1.33,12.24,7.71,13.7,3.74.85,7.63,1,12.4,1.62C139.41,89.6,144,89.22,148.3,87.83Z"/><path class="cls-5" d="M121.88,78.21c0-3,1.66-5.28,3.6-5.33s3.85,2.35,3.82,5.16a7.1,7.1,0,0,1-.27,1.62c-.48,1.9-1.43,3.53-3.6,3.42s-3-1.79-3.38-3.7C121.94,78.93,121.91,78.45,121.88,78.21Z"/><path class="cls-5" d="M147.67,77.74c0,3.05-1.64,5.44-3.7,5.41s-3.92-2.73-3.7-5.51a7.78,7.78,0,0,1,.35-1.61c.51-1.7,1.44-3.14,3.38-3.1s2.95,1.57,3.45,3.35A10.48,10.48,0,0,1,147.67,77.74Z"/><path class="cls-9" d="M103.42,123.48q-3.86,5.84-7.15,12a143.6,143.6,0,0,0-11,27.32,137,137,0,0,0-3.84,17.33,115.83,115.83,0,0,0-1.45,13.51c0,.32,0,.68-.48.64v1a11,11,0,0,1,.21,1.22c.69-.13,1.37-.25,2.06-.35A134.7,134.7,0,0,1,104.88,125Q104.13,124.23,103.42,123.48Z"/><path class="cls-9" d="M366.44,198.3c.7.12,1.4.24,2.09.39,0-1.38-.09-2.76-.11-4.14a89.61,89.61,0,0,0-.81-9.41,144.16,144.16,0,0,0-17.09-52.37q-2.7-4.82-5.73-9.4-.78.76-1.6,1.49a139.18,139.18,0,0,1,23,68.51C366.33,195,366.39,196.66,366.44,198.3Z"/><path class="cls-9" d="M174.73,337a143.36,143.36,0,0,1-44.41-26.79,147.87,147.87,0,0,1-20.17-21.37q-.86.42-1.75.81a138.11,138.11,0,0,0,9.17,11,145.65,145.65,0,0,0,12,11.67,148.55,148.55,0,0,0,14.5,11.06,142.93,142.93,0,0,0,30.31,15.36C174.51,338.16,174.61,337.57,174.73,337Z"/><path class="cls-9" d="M336.37,290.66a159.93,159.93,0,0,1-11,12.51,137.55,137.55,0,0,1-54.07,34.54c.12.6.24,1.2.34,1.8.55-.2,1.1-.38,1.65-.59,4.44-1.71,8.86-3.45,13.15-5.52a136.61,136.61,0,0,0,30.49-19.62c2.79-2.35,5.47-4.82,8.12-7.31a125.85,125.85,0,0,0,11-12q1.17-1.42,2.3-2.87Q337.35,291.16,336.37,290.66Z"/><path class="cls-9" d="M260.6,68.91c.32-.64.64-1.27,1-1.88-1.33-.37-2.66-.73-4-1.11a89.61,89.61,0,0,0-9.23-2,144.16,144.16,0,0,0-55.08.89q-5.4,1.16-10.67,2.71.5,1,.95,2a139.18,139.18,0,0,1,72.25-1.82C257.43,68,259,68.47,260.6,68.91Z"/><path class="cls-10" d="M240.84,59.24c.06.3-.12.52-.38.45-.82-.23-1.72,0-2.5-.45Z"/><path class="cls-10" d="M222.6,59.24a2.11,2.11,0,0,1-2.16,0Z"/><circle class="cls-5" cx="224" cy="199" r="65"/><g class="cls-11"><polygon class="cls-12" points="243.5 152 292.5 189 292.51 216.22 275.65 254.87 256.68 264 222.5 249 243.5 152"/></g><path class="cls-13" d="M204.86,151h1.36c0,.06.11,0,.16,0a6.3,6.3,0,0,1,1.7.43,7.52,7.52,0,0,1,3.22,2.71,20.9,20.9,0,0,1,2.92,6.07,52.2,52.2,0,0,1,1.39,5.82q.58,3,.93,6c.19,1.69.27,3.39.42,5.08a18.43,18.43,0,0,0-1.56,5,18.34,18.34,0,0,1-.63-6.19,21.25,21.25,0,0,0-1,2.52,5.75,5.75,0,0,1,0-.68c0-1.37,0-2.75-.07-4.12a57.76,57.76,0,0,0-.82-6.9,26.87,26.87,0,0,0-2.43-7.46,10,10,0,0,0-2.17-3,4.91,4.91,0,0,0-3.15-1.45,6.13,6.13,0,0,0-6.2,4.42,11.21,11.21,0,0,0-.44,5.33,41.17,41.17,0,0,0,1.46,6.76,52.51,52.51,0,0,0,7,14.4,19.78,19.78,0,0,0,3.31,3.83c.66.58,1,.51,1.44-.26a12.44,12.44,0,0,0,1.15-3c.18-.7.34-1.41.5-2.12a10.29,10.29,0,0,0,.51,1.75,4.11,4.11,0,0,0,1.56,2.26.16.16,0,0,1,.08.21,5.09,5.09,0,0,0,.07,2.47,15.93,15.93,0,0,0,.77,2.51A11.56,11.56,0,0,0,217,195a5.52,5.52,0,0,1,.09-2.45,7.29,7.29,0,0,1,1-2.29,19.28,19.28,0,0,0,1.24,8.88,1,1,0,0,0,0-.14,34.17,34.17,0,0,1,.2-4.63,9.53,9.53,0,0,1,.64-2.72,2,2,0,0,1,1-1.14c.14-.06.23-.06.3.1A16.92,16.92,0,0,1,222.6,194a5.54,5.54,0,0,1,.09,2.36s0,.11,0,.13.11-.05.15-.1a11.9,11.9,0,0,0,2.3-5,7.24,7.24,0,0,0,.09-1.41c0-.46-.14-.91-.16-1.36h0a11.34,11.34,0,0,1,1.45,1.52,9.24,9.24,0,0,1,1.8,3.46,5.89,5.89,0,0,1,.19,2c0,.4-.15.78-.17,1.18l0,.05h0l0-.07c0-.07.09-.14.13-.21a20.37,20.37,0,0,0,1.31-3.44,11.17,11.17,0,0,0,.47-3.23c0-.13,0-.26,0-.42a1.73,1.73,0,0,1,.49.46,4.77,4.77,0,0,1,.75,2c.09.49.17,1,.25,1.47a3.75,3.75,0,0,0,.27-.68,9.82,9.82,0,0,0,.49-4.17,4,4,0,0,0-.65-1.8.26.26,0,0,1,0-.35,4,4,0,0,0,.46-1.05.87.87,0,0,1,0,.09,14.1,14.1,0,0,0,1.33,3.72c.46.83.81.88,1.52.25a17.05,17.05,0,0,0,2.24-2.41,49.46,49.46,0,0,0,5.22-8.68,46.58,46.58,0,0,0,3.88-11.68,17.43,17.43,0,0,0,.37-5.58,8.39,8.39,0,0,0-1.64-4.13,6,6,0,0,0-3.53-2.07,4.66,4.66,0,0,0-4.06.84,7.79,7.79,0,0,0-1.81,1.9,20.86,20.86,0,0,0-2.4,5.17,33.47,33.47,0,0,0-1.26,5.62c-.21,1.42-.38,2.85-.47,4.29,0,.67-.09,1.34-.12,2,0,1.1,0,2.19,0,3.29,0,.79.13,1.58.11,2.38l-.48-1.24c-.1-.26-.21-.52-.32-.78,0,.72,0,1.42,0,2.12a5.48,5.48,0,0,1-.36,2,2,2,0,0,1-1.18,1.28c-.19.06-.29.05-.35-.16a3.25,3.25,0,0,1-.09-1.55,6,6,0,0,1,.88-2.09c0-.06.1-.11.07-.18s-.13,0-.2,0a4.27,4.27,0,0,0-1.48.35c.16-2,.31-4,.49-6s.43-4.07.75-6.1a52,52,0,0,1,2.28-9.08,16.34,16.34,0,0,1,3.29-5.81,6.6,6.6,0,0,1,6.12-2.11,9.38,9.38,0,0,1,5.12,2.52,11.14,11.14,0,0,1,3.44,7.91v2.3a21.71,21.71,0,0,1-.17,2.2,38,38,0,0,1-1.43,6.58A88.76,88.76,0,0,1,241.6,188c-.39.75-.82,1.47-1.25,2.2a.76.76,0,0,0,.2,1.18l.16.12a11.21,11.21,0,0,1,1.86,1.86,12.24,12.24,0,0,1,2.27,4.95,15,15,0,0,1,.37,4.16c-.06,1.06-.19,2.12-.32,3.17s-.28,2.38-.43,3.56c-.2,1.47-.42,2.93-.62,4.4-.25,1.88-.58,3.75-.89,5.62s-.59,3.56-.88,5.34c-.21,1.27-.36,2.55-.64,3.81a44,44,0,0,1-2.34,7.08c-.08,0-.08-.14-.11-.22-.14-.33-.25-.68-.41-1a25.7,25.7,0,0,0-4.29-6.22,23.46,23.46,0,0,0-4.85-4,14.62,14.62,0,0,0-6.27-2.28,9.55,9.55,0,0,0-4.65.69,14.76,14.76,0,0,0-4.49,2.95,28.8,28.8,0,0,0-4.65,5.49,20,20,0,0,0-2.43,5.3c-.24.82-.36,1.66-.56,2.49l-.18.57-.09-.18c-.78-1.77-1.52-3.54-2.21-5.35a32.16,32.16,0,0,1-1.5-4.59,38.4,38.4,0,0,1-.6-5.48q-.12-1.73-.24-3.46c-.06-1-.21-1.93-.32-2.89-.14-1.27-.2-2.55-.26-3.83-.08-1.49-.22-3-.35-4.45s-.24-2.68-.33-4a15.48,15.48,0,0,1,.26-4.34,16.52,16.52,0,0,1,3.47-7,13.75,13.75,0,0,1,1.47-1.55.66.66,0,0,0,.17-.94l-.12-.22c-1.81-3.19-3.51-6.44-5-9.79a58.35,58.35,0,0,1-4.27-12.77,28.66,28.66,0,0,1-.58-4.9c0-.05,0-.12,0-.15v-.7c.07,0,0-.08,0-.12a13.07,13.07,0,0,1,.1-1.53,13.46,13.46,0,0,1,1.29-4.55,10,10,0,0,1,6.56-5.15C204,151.14,204.45,151.09,204.86,151Zm25.21,65.41c.23,0,.45,0,.68,0s.45,0,.67-.08a13.3,13.3,0,0,0,7.69-4,4.91,4.91,0,0,0,1.3-5.14,10,10,0,0,0-4.49-5.74,4.73,4.73,0,0,0-4.06-.45,6.84,6.84,0,0,0-2.81,1.75,13.58,13.58,0,0,0-3.65,6.74,8,8,0,0,0,.75,5.47,2.43,2.43,0,0,0,2,1.43C228.8,216.51,229.43,216.4,230.07,216.41Zm-14.13.07h.41a2.72,2.72,0,0,0,2.47-1.23,7.06,7.06,0,0,0,1-3.21,12.1,12.1,0,0,0-5.94-10.72,4.2,4.2,0,0,0-3.05-.51A7.69,7.69,0,0,0,207.2,203a10.78,10.78,0,0,0-2.42,3.92,4.72,4.72,0,0,0,.7,4.8,11,11,0,0,0,2.35,2.22A14.27,14.27,0,0,0,215.94,216.48Z"/><path class="cls-14" d="M239.08,235.42c.09.38.19.76.26,1.15a8.11,8.11,0,0,1-1.57,6.63,14.17,14.17,0,0,1-7.19,5,16.4,16.4,0,0,1-4.5.71c-.08,0-.17,0-.23,0h-3.47c0-.07-.1,0-.15,0a42,42,0,0,1-6-.55,18.66,18.66,0,0,1-4.87-1.44,8.2,8.2,0,0,1-5-7.94c0-.13.06-.26,0-.38.21-.83.32-1.67.56-2.49a20,20,0,0,1,2.43-5.3,28.8,28.8,0,0,1,4.65-5.49,14.76,14.76,0,0,1,4.49-2.95,9.55,9.55,0,0,1,4.65-.69,14.62,14.62,0,0,1,6.27,2.28,23.46,23.46,0,0,1,4.85,4,25.7,25.7,0,0,1,4.29,6.22c.16.32.27.67.41,1C239,235.28,239,235.37,239.08,235.42Zm-5.18,4.88a.5.5,0,0,0-.21.13,24.57,24.57,0,0,1-4.72,2.91,13.34,13.34,0,0,1-8,.91,24.59,24.59,0,0,1-6.5-2.34c-.9-.45-1.76-1-2.64-1.45h0c0,.13.1.21.17.29a15.73,15.73,0,0,0,7.41,5.18,11.93,11.93,0,0,0,13.75-4.36,5.83,5.83,0,0,0,.78-1.25l0,0v0Zm.81-7.35a1.26,1.26,0,0,0-.28-.95,5.67,5.67,0,0,0-1.4-1.33,2.88,2.88,0,0,0-3.69.3,3.13,3.13,0,0,0-.82,2.13,8.53,8.53,0,0,1-1.29,4c-.41.67-.85,1.32-1.32,2a.57.57,0,0,0,.21.94.93.93,0,0,0,.87,0,23.74,23.74,0,0,0,5.72-3.27A4.89,4.89,0,0,0,234.71,233Zm-22.77.51a2.68,2.68,0,0,0,.42,1.48,8.35,8.35,0,0,0,2.5,2.51,32.34,32.34,0,0,0,4.14,2.3,5.12,5.12,0,0,0,.88.3.85.85,0,0,0,.81-.22.39.39,0,0,0,.13-.51,2,2,0,0,0-.42-.62c-.08-.08-.19-.17-.18-.29a.46.46,0,0,0-.17-.39c-.1-.11-.2-.23-.29-.35A8.22,8.22,0,0,1,218.1,233a2.81,2.81,0,0,0-3.27-2.77A3.49,3.49,0,0,0,211.95,233.47Z"/><path class="cls-15" d="M249.72,161.57h0v2.31h0Z"/><path class="cls-16" d="M213.36,184.28c-.17.71-.32,1.42-.5,2.12a12.44,12.44,0,0,1-1.15,3c-.43.77-.77.84-1.44.26a19.78,19.78,0,0,1-3.31-3.83,52.51,52.51,0,0,1-7-14.4,41.17,41.17,0,0,1-1.46-6.76,11.21,11.21,0,0,1,.44-5.33,6.13,6.13,0,0,1,6.2-4.42,4.91,4.91,0,0,1,3.15,1.45,10,10,0,0,1,2.17,3,26.87,26.87,0,0,1,2.43,7.46,57.76,57.76,0,0,1,.82,6.9c.08,1.37.1,2.74.07,4.12a5.74,5.74,0,0,0,0,.68c0,.08,0,.16-.06.24a14.07,14.07,0,0,0-.51,3.91C213.23,183.2,213.31,183.74,213.36,184.28Z"/><path class="cls-17" d="M231.73,180.52c0-.8-.09-1.59-.11-2.38,0-1.1,0-2.19,0-3.29,0-.67.07-1.34.12-2,.09-1.44.26-2.87.47-4.29a33.47,33.47,0,0,1,1.26-5.62,20.86,20.86,0,0,1,2.4-5.17,7.79,7.79,0,0,1,1.81-1.9,4.66,4.66,0,0,1,4.06-.84,6,6,0,0,1,3.53,2.07,8.39,8.39,0,0,1,1.64,4.13,17.43,17.43,0,0,1-.37,5.58,46.58,46.58,0,0,1-3.88,11.68,49.46,49.46,0,0,1-5.22,8.68,17.05,17.05,0,0,1-2.24,2.41c-.71.63-1.06.58-1.52-.25a14.1,14.1,0,0,1-1.33-3.72.87.87,0,0,0,0-.09,6.48,6.48,0,0,0,0-2.71A19.39,19.39,0,0,0,231.73,180.52Z"/><path class="cls-18" d="M231.73,180.52a19.39,19.39,0,0,1,.59,2.28,6.48,6.48,0,0,1,0,2.71,4,4,0,0,1-.46,1.05.26.26,0,0,0,0,.35,4,4,0,0,1,.65,1.8,9.82,9.82,0,0,1-.49,4.17,3.75,3.75,0,0,1-.27.68c-.08-.49-.16-1-.25-1.47a4.77,4.77,0,0,0-.75-2,1.73,1.73,0,0,0-.49-.46c0,.16,0,.29,0,.42a11.17,11.17,0,0,1-.47,3.23,20.37,20.37,0,0,1-1.31,3.44c0,.07-.09.14-.13.21h0c0-.4.13-.79.17-1.18a5.89,5.89,0,0,0-.19-2,9.24,9.24,0,0,0-1.8-3.46,11.34,11.34,0,0,0-1.45-1.52h0c0,.46.15.9.16,1.36a7.24,7.24,0,0,1-.09,1.41,11.9,11.9,0,0,1-2.3,5c0,.05-.07.13-.15.1s0-.09,0-.13a5.54,5.54,0,0,0-.09-2.36,16.92,16.92,0,0,0-1.14-3.42c-.07-.16-.16-.16-.3-.1a2,2,0,0,0-1,1.14,9.53,9.53,0,0,0-.64,2.72,34.17,34.17,0,0,0-.2,4.63,1,1,0,0,1,0,.14,19.28,19.28,0,0,1-1.24-8.88,7.29,7.29,0,0,0-1,2.29A5.52,5.52,0,0,0,217,195a11.56,11.56,0,0,1-.67-1.51,15.93,15.93,0,0,1-.77-2.51,5.09,5.09,0,0,1-.07-2.47.16.16,0,0,0-.08-.21,4.11,4.11,0,0,1-1.56-2.26,10.29,10.29,0,0,1-.51-1.75c-.05-.54-.13-1.08-.14-1.62a14.07,14.07,0,0,1,.51-3.91c0-.08,0-.16.06-.24a21.25,21.25,0,0,1,1-2.52,18.34,18.34,0,0,0,.63,6.19,18.43,18.43,0,0,1,1.56-5v.2a.31.31,0,0,0,0,.09,5.35,5.35,0,0,0,0,1.74,2.36,2.36,0,0,0,.23.89,7.77,7.77,0,0,0,.78,2,5.81,5.81,0,0,0,.48-3.71h0a8,8,0,0,1,.95,1,16.27,16.27,0,0,1,1.07,1.64,11.48,11.48,0,0,1,.69,1.59,14.38,14.38,0,0,1,1.39-4,12.1,12.1,0,0,0,1.26,4.33,4.37,4.37,0,0,0,.48-.73,5,5,0,0,0,.66-3.37,3.13,3.13,0,0,1-.15-.7h.05a17.84,17.84,0,0,1,1.68,3.67,5.36,5.36,0,0,1,.47-.69,4,4,0,0,1,1.27-.91,4.27,4.27,0,0,1,1.48-.35c.07,0,.16,0,.2,0s0,.12-.07.18a6,6,0,0,0-.88,2.09,3.25,3.25,0,0,0,.09,1.55c.07.21.17.22.35.16a2,2,0,0,0,1.18-1.28,5.48,5.48,0,0,0,.36-2c0-.7,0-1.4,0-2.12.11.26.22.52.32.78Z"/><path class="cls-3" d="M230.07,216.41c-.64,0-1.27.1-1.91,0a2.43,2.43,0,0,1-2-1.43,8,8,0,0,1-.75-5.47,13.58,13.58,0,0,1,3.65-6.74,6.84,6.84,0,0,1,2.81-1.75,4.73,4.73,0,0,1,4.06.45,10,10,0,0,1,4.49,5.74,4.91,4.91,0,0,1-1.3,5.14,13.3,13.3,0,0,1-7.69,4c-.22,0-.45.07-.67.08S230.3,216.41,230.07,216.41Zm.87-.39a4.44,4.44,0,0,0,1.15-.09,4.35,4.35,0,0,0,3.13-2.78,3.34,3.34,0,0,0,.36-1.67.89.89,0,0,0-1.28-.78,4.63,4.63,0,0,0-.45.22,2.87,2.87,0,0,1-.53.23,1.43,1.43,0,0,1-1.67-.66,1.28,1.28,0,0,1,.05-1.68c.14-.17.3-.31.44-.48a.93.93,0,0,0-.54-1.57,4.37,4.37,0,0,0-2.4.21,4.24,4.24,0,0,0-2.87,3,5.93,5.93,0,0,0,.3,3.52,3.64,3.64,0,0,0,2.41,2.24A6.08,6.08,0,0,0,230.94,216Z"/><path class="cls-3" d="M215.94,216.48a14.27,14.27,0,0,1-8.11-2.53,11,11,0,0,1-2.35-2.22,4.72,4.72,0,0,1-.7-4.8A10.78,10.78,0,0,1,207.2,203a7.69,7.69,0,0,1,3.67-2.21,4.2,4.2,0,0,1,3.05.51A12.1,12.1,0,0,1,219.86,212a7.06,7.06,0,0,1-1,3.21,2.72,2.72,0,0,1-2.47,1.23Zm-6.39-5c0,.14,0,.37.05.59a3.67,3.67,0,0,0,.1.49,4.38,4.38,0,0,0,3.08,3.33,7.12,7.12,0,0,0,1.52.15,3.89,3.89,0,0,0,2.55-.62,4.09,4.09,0,0,0,2-4c-.07-.73-.67-1.22-1.42-.65a2.63,2.63,0,0,1-.42.26,1.31,1.31,0,0,1-1.5-.14,1.42,1.42,0,0,1-.1-2.37l.23-.23a.84.84,0,0,0,.09-1.12,1.1,1.1,0,0,0-.84-.49,5.14,5.14,0,0,0-1.42,0A4.67,4.67,0,0,0,209.54,211.47Z"/><path class="cls-18" d="M228.37,196.86l0,.07h0l0-.05Z"/><path class="cls-18" d="M234.71,233a4.89,4.89,0,0,1-2,3.77A23.74,23.74,0,0,1,227,240a.93.93,0,0,1-.87,0,.57.57,0,0,1-.21-.94c.46-.64.91-1.29,1.32-2a8.53,8.53,0,0,0,1.29-4,3.13,3.13,0,0,1,.82-2.13,2.88,2.88,0,0,1,3.69-.3,5.67,5.67,0,0,1,1.4,1.33A1.26,1.26,0,0,1,234.71,233Z"/><path class="cls-18" d="M211.95,233.47a3.49,3.49,0,0,1,2.89-3.28A2.81,2.81,0,0,1,218.1,233a8.22,8.22,0,0,0,1.66,4.73c.09.12.19.24.29.35a.46.46,0,0,1,.17.39c0,.12.09.21.18.29a2,2,0,0,1,.42.62.39.39,0,0,1-.13.51.85.85,0,0,1-.81.22,5.12,5.12,0,0,1-.88-.3,32.34,32.34,0,0,1-4.14-2.3,8.35,8.35,0,0,1-2.5-2.51A2.68,2.68,0,0,1,211.95,233.47Z"/><path class="cls-3" d="M211.8,240.45c.88.49,1.74,1,2.64,1.45a24.59,24.59,0,0,0,6.5,2.34,13.34,13.34,0,0,0,8-.91,24.57,24.57,0,0,0,4.72-2.91.5.5,0,0,1,.21-.13h0a5.87,5.87,0,0,1-.78,1.25,11.93,11.93,0,0,1-13.75,4.36,15.73,15.73,0,0,1-7.41-5.18c-.07-.09-.17-.16-.17-.29Z"/><path class="cls-3" d="M233.91,240.3l0,0v0l0,0Z"/><path class="cls-3" d="M211.81,240.45h0Z"/><path class="cls-19" d="M224.75,178.14a3.13,3.13,0,0,0,.15.7,5,5,0,0,1-.66,3.37,4.37,4.37,0,0,1-.48.73,12.1,12.1,0,0,1-1.26-4.33,14.38,14.38,0,0,0-1.39,4,11.48,11.48,0,0,0-.69-1.59,16.27,16.27,0,0,0-1.07-1.64,4.14,4.14,0,0,1,2.92-1.72l.2,0a3,3,0,0,0,.63,0,5.29,5.29,0,0,1,1.47.39A.32.32,0,0,1,224.75,178.14Z"/><path class="cls-20" d="M222.47,172.73a2,2,0,1,1,.62,0A2.89,2.89,0,0,1,222.47,172.73Z"/><path class="cls-18" d="M222.47,172.73a2.89,2.89,0,0,0,.62,0q0,2.12,0,4.25c0,.2,0,.4,0,.6a3,3,0,0,1-.63,0Z"/><path class="cls-21" d="M227,181.13a5.36,5.36,0,0,0-.47.69,17.84,17.84,0,0,0-1.68-3.67,3.16,3.16,0,0,1,1.25,1,4,4,0,0,1,.87,1.86A.71.71,0,0,0,227,181.13Z"/><path class="cls-22" d="M217.13,180.11a2.36,2.36,0,0,1-.23-.89,5.35,5.35,0,0,1,0-1.74.31.31,0,0,1,0-.09C217,178.3,217.09,179.21,217.13,180.11Z"/><path class="cls-18" d="M218.39,178.36l0,0,0,0,0,0Z"/><path class="cls-22" d="M225.1,188.66h0Z"/><path class="cls-18" d="M230.94,216a6.08,6.08,0,0,1-1.88-.24,3.64,3.64,0,0,1-2.41-2.24,5.93,5.93,0,0,1-.3-3.52,4.24,4.24,0,0,1,2.87-3,4.37,4.37,0,0,1,2.4-.21.93.93,0,0,1,.54,1.57c-.14.17-.31.31-.44.48a1.28,1.28,0,0,0-.05,1.68,1.43,1.43,0,0,0,1.67.66,2.87,2.87,0,0,0,.53-.23,4.63,4.63,0,0,1,.45-.22.89.89,0,0,1,1.28.78,3.34,3.34,0,0,1-.36,1.67,4.35,4.35,0,0,1-3.13,2.78A4.44,4.44,0,0,1,230.94,216Z"/><path class="cls-18" d="M209.54,211.47a4.67,4.67,0,0,1,3.92-4.72,5.14,5.14,0,0,1,1.42,0,1.1,1.1,0,0,1,.84.49.84.84,0,0,1-.09,1.12l-.23.23a1.42,1.42,0,0,0,.1,2.37,1.31,1.31,0,0,0,1.5.14,2.63,2.63,0,0,0,.42-.26c.75-.58,1.35-.08,1.42.65a4.09,4.09,0,0,1-2,4,3.89,3.89,0,0,1-2.55.62,7.12,7.12,0,0,1-1.52-.15,4.38,4.38,0,0,1-3.08-3.33,3.67,3.67,0,0,1-.1-.49C209.57,211.84,209.56,211.62,209.54,211.47Z"/></g></svg>