<svg id="Layer_1" data-name="Layer 1" xmlns="http://www.w3.org/2000/svg" viewBox="0 0 114 135"><defs><style>.cls-1{fill:#ff8e1f;}.cls-2{fill:#606060;}.cls-3{fill:#fff;}</style></defs><title>buttons oe</title><circle class="cls-1" cx="57" cy="50" r="49"/><path class="cls-2" d="M23.62,118.44H33.79v1.35H25.12v5.43h7.76v1.35H25.12v5.71h9v1.35H23.62Z"/><path class="cls-2" d="M35.46,122.25H37l3.78,9.93,3.74-9.93h1.52l-4.52,11.38H40Z"/><path class="cls-2" d="M56.25,123.89a6.49,6.49,0,0,1,1.28,4.53H48a4.36,4.36,0,0,0,1.35,2.94,4.16,4.16,0,0,0,3,1.12,5.18,5.18,0,0,0,2-.39A4.65,4.65,0,0,0,56,131l.83.83a5.66,5.66,0,0,1-2,1.38,6.51,6.51,0,0,1-2.55.49,5.83,5.83,0,0,1-2.93-.73,5.21,5.21,0,0,1-2-2,6.43,6.43,0,0,1,0-5.94,5.2,5.2,0,0,1,2-2,5.76,5.76,0,0,1,2.89-.73A4.94,4.94,0,0,1,56.25,123.89Zm0,3.4A4.17,4.17,0,0,0,55,124.45a3.85,3.85,0,0,0-2.81-1.05,4.06,4.06,0,0,0-2.87,1.06A4.26,4.26,0,0,0,48,127.29Z"/><path class="cls-2" d="M69.73,123.39a4.44,4.44,0,0,1,1.16,3.25v7H69.42V127a3.45,3.45,0,0,0-.89-2.52,3.3,3.3,0,0,0-2.48-.91,3.85,3.85,0,0,0-2.81,1.09A4.45,4.45,0,0,0,62,127.5v6.13H60.57V122.25H62v2.65a4.24,4.24,0,0,1,1.73-2,5.5,5.5,0,0,1,2.77-.7A4.28,4.28,0,0,1,69.73,123.39Z"/><path class="cls-2" d="M80.51,132.85a4.65,4.65,0,0,1-2.52.85,2.71,2.71,0,0,1-2.06-.8,3.39,3.39,0,0,1-.76-2.41V123.7H73.54l0-1.13h1.65v-2.93h1.46v2.93l3.69,0v1.15H76.63v6.54q0,2.11,1.56,2.11a3.75,3.75,0,0,0,1.89-.61Z"/><path class="cls-2" d="M87.58,123.63A5.78,5.78,0,0,0,86,123.4a3.21,3.21,0,0,0-1.75.42,1.41,1.41,0,0,0-.66,1.27,1.31,1.31,0,0,0,.36,1,2.69,2.69,0,0,0,.89.6,14,14,0,0,0,1.49.51,15,15,0,0,1,1.91.68,3.45,3.45,0,0,1,1.26,1A2.58,2.58,0,0,1,90,130.5a2.69,2.69,0,0,1-1.17,2.36,5,5,0,0,1-2.93.81,7,7,0,0,1-2.39-.41,5.29,5.29,0,0,1-1.93-1.17l.59-1a5.52,5.52,0,0,0,1.75,1.06,5.65,5.65,0,0,0,2.05.39,3.37,3.37,0,0,0,1.88-.48,1.56,1.56,0,0,0,.73-1.39,1.46,1.46,0,0,0-.37-1,2.54,2.54,0,0,0-.92-.63q-.55-.23-1.53-.53a15.4,15.4,0,0,1-1.87-.67,3.3,3.3,0,0,1-1.22-.95,2.5,2.5,0,0,1-.5-1.62,2.55,2.55,0,0,1,1.12-2.26,4.86,4.86,0,0,1,2.79-.76,6.84,6.84,0,0,1,1.89.26,6.17,6.17,0,0,1,1.63.72L89,124.27A5.56,5.56,0,0,0,87.58,123.63Z"/><path class="cls-3" d="M43.07,34.22c0-1,0-1.8,0-2.65a3.65,3.65,0,0,1,3.11-3.47,10.84,10.84,0,0,1,3.09,0,3.61,3.61,0,0,1,3,3.39c.06.87,0,1.75,0,2.66h9.39c0-.6,0-1.19,0-1.77C61.7,29.5,63.2,28,66.1,28a5,5,0,0,1,3.39.82A3.93,3.93,0,0,1,71,32.08c0,.69,0,1.39,0,2.14h3a3.11,3.11,0,0,1,3.24,3.07c0,.23,0,.47,0,.7q0,14.85,0,29.69a6.74,6.74,0,0,1-.12,1.54,3.15,3.15,0,0,1-3.15,2.28c-1.68,0-3.37,0-5.05,0H40.51c-2.53,0-3.69-1.16-3.69-3.72,0-9.95,0-19.9,0-29.85,0-2.41,1.54-3.95,3.79-3.74C41.35,34.28,42.13,34.22,43.07,34.22ZM40,68.39h34.1V43.57H40Zm6.17-33h0q0,1.2,0,2.4c0,1.9,0,1.93,2,1.89.92,0,1.15-.23,1.16-1.15,0-1.78,0-3.57,0-5.35,0-2.12,0-2.1-2.09-2.08-.73,0-1,.33-1,1Q46.12,33.74,46.12,35.37Zm21.78,0h0q0-1.2,0-2.4c0-1.89,0-1.89-1.89-1.88-1.07,0-1.24.18-1.25,1.28,0,1.76,0,3.52,0,5.27,0,2,.07,2.09,2.08,2,.7,0,1.05-.32,1.05-1C67.9,37.55,67.9,36.46,67.9,35.38Z"/></svg>