<svg id="Layer_1" data-name="Layer 1" xmlns="http://www.w3.org/2000/svg" viewBox="0 0 114 135"><defs><style>.cls-1{fill:#62b2b2;}.cls-2{fill:#606060;}.cls-3{fill:#fff;}</style></defs><title>buttons oe</title><circle class="cls-1" cx="57" cy="50" r="49"/><path class="cls-2" d="M43.65,120.14a6.4,6.4,0,0,0-8,2.66,6.39,6.39,0,0,0,0,6.4,6.41,6.41,0,0,0,2.32,2.31,6.27,6.27,0,0,0,3.23.86,6.42,6.42,0,0,0,2.46-.49,7,7,0,0,0,2.13-1.36l.91,1a8.76,8.76,0,0,1-2.59,1.65,7.65,7.65,0,0,1-3,.61,7.85,7.85,0,0,1-6.81-3.87A7.49,7.49,0,0,1,33.25,126a7.33,7.33,0,0,1,1.06-3.87,8,8,0,0,1,6.84-3.82,8.1,8.1,0,0,1,5.5,2.17l-.89,1A6.69,6.69,0,0,0,43.65,120.14Z"/><path class="cls-2" d="M56.84,133.63l0-1.91a4.12,4.12,0,0,1-1.76,1.49,6,6,0,0,1-2.5.49,4.43,4.43,0,0,1-2-.45,3.24,3.24,0,0,1-1.84-3,2.74,2.74,0,0,1,1.14-2.32,5.16,5.16,0,0,1,3.14-.85h3.82v-.87a2.69,2.69,0,0,0-.8-2.08,3.35,3.35,0,0,0-2.35-.74A6.16,6.16,0,0,0,50,124.77l-.65-1a9.69,9.69,0,0,1,2.19-1.18,7,7,0,0,1,2.39-.38,4.57,4.57,0,0,1,3.19,1,3.74,3.74,0,0,1,1.15,2.86l0,7.54Zm-1.44-1.86a3.47,3.47,0,0,0,1.42-2v-1.56H53.14a4.26,4.26,0,0,0-2.28.5,1.66,1.66,0,0,0-.78,1.5,2,2,0,0,0,.75,1.64,3,3,0,0,0,2,.62A4.52,4.52,0,0,0,55.39,131.77Z"/><path class="cls-2" d="M64.54,119.27a2.28,2.28,0,0,0-.62,1.67v1.61h3.34v1.15H63.92v9.93H62.46V123.7H61v-1.15h1.46v-1.43a4,4,0,0,1,.48-2,3.34,3.34,0,0,1,1.28-1.31,3.46,3.46,0,0,1,1.74-.46,4,4,0,0,1,2,.52l-.37,1.17a3.25,3.25,0,0,0-1.52-.41A2.06,2.06,0,0,0,64.54,119.27Z"/><path class="cls-2" d="M77.47,123.89a6.49,6.49,0,0,1,1.28,4.53H69.26a4.36,4.36,0,0,0,1.35,2.94,4.16,4.16,0,0,0,3,1.12,5.18,5.18,0,0,0,2-.39A4.65,4.65,0,0,0,77.19,131l.83.83a5.66,5.66,0,0,1-2,1.38,6.51,6.51,0,0,1-2.55.49,5.83,5.83,0,0,1-2.93-.73,5.21,5.21,0,0,1-2-2,6.43,6.43,0,0,1,0-5.94,5.2,5.2,0,0,1,2-2,5.76,5.76,0,0,1,2.89-.73A4.94,4.94,0,0,1,77.47,123.89Zm0,3.4a4.17,4.17,0,0,0-1.18-2.83,3.85,3.85,0,0,0-2.81-1.05,4.06,4.06,0,0,0-2.87,1.06,4.26,4.26,0,0,0-1.33,2.82Z"/><path class="cls-3" d="M71.17,52.79a21.86,21.86,0,0,1-1.11,3.74,5.41,5.41,0,0,1-5,3.12q-9.68.08-19.35,0A5.82,5.82,0,0,1,40,54.18c-.12-3.21-.07-6.42-.08-9.63s0-6.65,0-10c0-1.86.55-2.4,2.41-2.4q15.1,0,30.19,0a10.31,10.31,0,0,1,.34,20.61C72.25,52.8,71.63,52.79,71.17,52.79Zm-.23-15.42V47.59c2.5.3,4.67-.16,6-2.39a4.92,4.92,0,0,0-.05-5.51C75.55,37.5,73.39,37.09,70.94,37.37Z"/><path class="cls-3" d="M33.06,63.17H81.12a6.28,6.28,0,0,1-2.13,5A6.71,6.71,0,0,1,74.15,70q-17,0-34,0a6.83,6.83,0,0,1-6.86-5.28A12.56,12.56,0,0,1,33.06,63.17Z"/></svg>