<svg id="Layer_1" data-name="Layer 1" xmlns="http://www.w3.org/2000/svg" viewBox="0 0 106 142"><defs><style>.cls-1,.cls-3{fill:#62b2b2;}.cls-2{fill:#fff;}.cls-3{stroke:#62b2b2;stroke-miterlimit:10;stroke-width:0.5px;}</style></defs><title>doc</title><rect class="cls-1" x="4.77" y="5.5" width="96.66" height="131" rx="2.38" ry="2.38"/><path class="cls-2" d="M16.26,51.22V47.16H89.39v4.06Z"/><path class="cls-2" d="M16.26,61.4V57.33H60.74V61.4Z"/><path class="cls-2" d="M16.26,41V37H89.39V41Z"/><polygon class="cls-2" points="4.57 84.22 76.83 84.22 64.53 114.97 4.77 114.97 4.57 84.22"/><path class="cls-3" d="M21.79,91.77a7.79,7.79,0,0,1,2.87,3.06,9.61,9.61,0,0,1,0,8.72,7.79,7.79,0,0,1-7,4.17H11.4v-17h6.31A7.73,7.73,0,0,1,21.79,91.77Zm-1.11,13a5.83,5.83,0,0,0,2.08-2.29,7.35,7.35,0,0,0,0-6.55,6,6,0,0,0-2.11-2.3,5.49,5.49,0,0,0-3-.84H13.52v12.81h4.23A5.41,5.41,0,0,0,20.68,104.77Z"/><path class="cls-3" d="M40,91.66a8.22,8.22,0,0,1,3,3.13A9,9,0,0,1,44,99.16a9.11,9.11,0,0,1-1.08,4.4,8.26,8.26,0,0,1-3,3.17,7.87,7.87,0,0,1-8.22,0,8.25,8.25,0,0,1-3-3.17,9.1,9.1,0,0,1-1.08-4.4,9,9,0,0,1,1.08-4.37,8.24,8.24,0,0,1,2.95-3.13,8,8,0,0,1,8.23,0Zm-7.09,1.83a6.37,6.37,0,0,0-2.2,2.38,6.77,6.77,0,0,0-.82,3.3,6.83,6.83,0,0,0,.82,3.31,6.44,6.44,0,0,0,2.2,2.4,5.45,5.45,0,0,0,3,.89,5.34,5.34,0,0,0,3-.89,6.42,6.42,0,0,0,2.17-2.4,6.9,6.9,0,0,0,.81-3.31,6.83,6.83,0,0,0-.81-3.3,6.35,6.35,0,0,0-2.17-2.37,5.39,5.39,0,0,0-3-.88A5.5,5.5,0,0,0,32.91,93.49Z"/><path class="cls-3" d="M56.64,93.16a5.5,5.5,0,0,0-5.42.3A6.22,6.22,0,0,0,49,95.84a7.2,7.2,0,0,0,0,6.59,6.21,6.21,0,0,0,2.17,2.39,5.49,5.49,0,0,0,3,.88,5.6,5.6,0,0,0,2.39-.55,6.92,6.92,0,0,0,2.08-1.5L60,105.18a8.62,8.62,0,0,1-2.72,2,7.48,7.48,0,0,1-7.2-.44,8.21,8.21,0,0,1-2.9-3.15,9.23,9.23,0,0,1-1.06-4.41,9,9,0,0,1,1.07-4.37,8.17,8.17,0,0,1,2.93-3.13A7.83,7.83,0,0,1,60,93.08L58.7,94.76A6.44,6.44,0,0,0,56.64,93.16Z"/></svg>