<svg id="Layer_1" data-name="Layer 1" xmlns="http://www.w3.org/2000/svg" viewBox="0 0 106 142"><defs><style>.cls-1,.cls-3{fill:#62b2b2;}.cls-2{fill:#fff;}.cls-3{stroke:#62b2b2;stroke-miterlimit:10;stroke-width:2px;}</style></defs><title>doc icons</title><rect class="cls-1" x="4.77" y="5.5" width="96.66" height="131" rx="2.38" ry="2.38"/><path class="cls-2" d="M16.26,34.22V30.16H89.39v4.06Z"/><path class="cls-2" d="M16.26,44.4V40.33H60.74V44.4Z"/><path class="cls-2" d="M16.26,24V20H89.39V24Z"/><polygon class="cls-2" points="4.57 70.31 91.49 70.31 91.5 114.89 4.87 114.89 4.57 70.31"/><path class="cls-3" d="M26.45,81.45a11.79,11.79,0,0,1,4.13,4.75,16,16,0,0,1,0,13.55,11.87,11.87,0,0,1-4.17,4.75,10.65,10.65,0,0,1-5.94,1.72h-9V79.73h9.1A10.53,10.53,0,0,1,26.45,81.45Zm-1.6,20.2a8.85,8.85,0,0,0,3-3.56,12.23,12.23,0,0,0,0-10.18,9,9,0,0,0-3-3.58A7.5,7.5,0,0,0,20.5,83h-6v19.91h6.1A7.38,7.38,0,0,0,24.86,101.65Z"/><path class="cls-3" d="M54.69,81.28A12.43,12.43,0,0,1,59,86.15a14.83,14.83,0,0,1,1.56,6.8A15.05,15.05,0,0,1,59,99.78a12.51,12.51,0,0,1-4.26,4.92,10.65,10.65,0,0,1-11.84,0,12.49,12.49,0,0,1-4.26-4.92A15,15,0,0,1,37,92.95a14.81,14.81,0,0,1,1.56-6.8,12.46,12.46,0,0,1,4.25-4.86,10.77,10.77,0,0,1,11.86,0ZM44.48,84.12a9.65,9.65,0,0,0-3.18,3.69,11.18,11.18,0,0,0-1.18,5.13,11.29,11.29,0,0,0,1.18,5.15,9.77,9.77,0,0,0,3.18,3.73,7.45,7.45,0,0,0,4.33,1.38,7.3,7.3,0,0,0,4.29-1.38,9.75,9.75,0,0,0,3.13-3.73,11.41,11.41,0,0,0,1.17-5.15,11.29,11.29,0,0,0-1.17-5.13,9.63,9.63,0,0,0-3.13-3.69,7.37,7.37,0,0,0-4.29-1.36A7.51,7.51,0,0,0,44.48,84.12Z"/><path class="cls-3" d="M80.68,83.61a7.4,7.4,0,0,0-3.48-.89,7.49,7.49,0,0,0-4.34,1.36,9.44,9.44,0,0,0-3.13,3.69,12,12,0,0,0,0,10.24,9.42,9.42,0,0,0,3.13,3.71,7.5,7.5,0,0,0,4.34,1.36,7.6,7.6,0,0,0,3.45-.85,10,10,0,0,0,3-2.33l1.85,2.38a12.51,12.51,0,0,1-3.93,3.09A10,10,0,0,1,77,106.5a10.17,10.17,0,0,1-5.84-1.8A12.45,12.45,0,0,1,67,99.8a15.26,15.26,0,0,1-1.53-6.85A15,15,0,0,1,67,86.15a12.36,12.36,0,0,1,4.23-4.86,10.53,10.53,0,0,1,10.42-.74,11.21,11.21,0,0,1,3.78,2.93l-1.82,2.61A9.41,9.41,0,0,0,80.68,83.61Z"/></svg>