<svg id="Layer_1" data-name="Layer 1" xmlns="http://www.w3.org/2000/svg" viewBox="0 0 104 141"><defs><style>.cls-1,.cls-3{fill:#ff4b05;}.cls-2{fill:#fff;}.cls-3{stroke:#ff4b05;stroke-miterlimit:10;stroke-width:2px;}</style></defs><title>doc icons</title><path class="cls-1" d="M6.15,5H98.06a2.37,2.37,0,0,1,2.37,2.37V133.63A2.37,2.37,0,0,1,98.06,136H6.15a2.38,2.38,0,0,1-2.37-2.37V7.38A2.38,2.38,0,0,1,6.15,5Z"/><path class="cls-2" d="M15.26,33.72V29.66H88.39v4.06Z"/><path class="cls-2" d="M15.26,43.9V39.83H59.74V43.9Z"/><path class="cls-2" d="M15.26,23.55V19.48H88.39v4.06Z"/><polygon class="cls-2" points="3.56 69.81 90.49 69.81 90.5 114.39 3.87 114.39 3.56 69.81"/><path class="cls-3" d="M25.45,81a11.79,11.79,0,0,1,4.13,4.75,16,16,0,0,1,0,13.55A11.87,11.87,0,0,1,25.41,104a10.65,10.65,0,0,1-5.94,1.72h-9V79.23h9.1A10.53,10.53,0,0,1,25.45,81Zm-1.6,20.2a8.85,8.85,0,0,0,3-3.56,12.23,12.23,0,0,0,0-10.18,9,9,0,0,0-3-3.58,7.5,7.5,0,0,0-4.29-1.31h-6v19.91h6.1A7.38,7.38,0,0,0,23.86,101.15Z"/><path class="cls-3" d="M53.69,80.78A12.43,12.43,0,0,1,58,85.65a14.83,14.83,0,0,1,1.56,6.8A15.05,15.05,0,0,1,58,99.28a12.51,12.51,0,0,1-4.26,4.92,10.65,10.65,0,0,1-11.84,0,12.49,12.49,0,0,1-4.26-4.92A15,15,0,0,1,36,92.45a14.81,14.81,0,0,1,1.56-6.8,12.46,12.46,0,0,1,4.25-4.86,10.77,10.77,0,0,1,11.86,0ZM43.48,83.62a9.65,9.65,0,0,0-3.18,3.69,11.18,11.18,0,0,0-1.18,5.13,11.29,11.29,0,0,0,1.18,5.15,9.77,9.77,0,0,0,3.18,3.73,7.45,7.45,0,0,0,4.33,1.38,7.3,7.3,0,0,0,4.29-1.38,9.75,9.75,0,0,0,3.13-3.73,11.41,11.41,0,0,0,1.17-5.15,11.29,11.29,0,0,0-1.17-5.13,9.63,9.63,0,0,0-3.13-3.69,7.37,7.37,0,0,0-4.29-1.36A7.51,7.51,0,0,0,43.48,83.62Z"/><path class="cls-3" d="M79.68,83.11a7.4,7.4,0,0,0-3.48-.89,7.49,7.49,0,0,0-4.34,1.36,9.44,9.44,0,0,0-3.13,3.69,12,12,0,0,0,0,10.24,9.42,9.42,0,0,0,3.13,3.71,7.5,7.5,0,0,0,4.34,1.36,7.6,7.6,0,0,0,3.45-.85,10,10,0,0,0,3-2.33l1.85,2.38a12.51,12.51,0,0,1-3.93,3.09A10,10,0,0,1,76,106a10.17,10.17,0,0,1-5.84-1.8A12.45,12.45,0,0,1,66,99.3a15.26,15.26,0,0,1-1.53-6.85A15,15,0,0,1,66,85.65a12.36,12.36,0,0,1,4.23-4.86A10.53,10.53,0,0,1,80.69,80,11.21,11.21,0,0,1,84.47,83l-1.82,2.61A9.41,9.41,0,0,0,79.68,83.11Z"/></svg>