<svg id="Layer_1" data-name="Layer 1" xmlns="http://www.w3.org/2000/svg" viewBox="0 0 104 141"><defs><style>.cls-1,.cls-3{fill:#ff4b05;}.cls-2{fill:#fff;}.cls-3{stroke:#ff4b05;stroke-miterlimit:10;stroke-width:0.5px;}</style></defs><title>doc</title><path class="cls-1" d="M6.15,5H98.06a2.37,2.37,0,0,1,2.37,2.37V133.63A2.37,2.37,0,0,1,98.06,136H6.15a2.38,2.38,0,0,1-2.37-2.37V7.38A2.38,2.38,0,0,1,6.15,5Z"/><path class="cls-2" d="M15.26,50.72V46.66H88.39v4.06Z"/><path class="cls-2" d="M15.26,60.9V56.83H59.74V60.9Z"/><path class="cls-2" d="M15.26,40.55V36.48H88.39v4.06Z"/><polygon class="cls-2" points="3.56 83.72 75.83 83.72 63.53 114.47 3.77 114.47 3.56 83.72"/><path class="cls-3" d="M20.79,91.27a7.79,7.79,0,0,1,2.87,3.06,9.61,9.61,0,0,1,0,8.72,7.79,7.79,0,0,1-7,4.17H10.4v-17h6.31A7.73,7.73,0,0,1,20.79,91.27Zm-1.11,13A5.83,5.83,0,0,0,21.77,102a7.35,7.35,0,0,0,0-6.55,6,6,0,0,0-2.11-2.3,5.49,5.49,0,0,0-3-.84H12.52v12.81h4.23A5.41,5.41,0,0,0,19.68,104.27Z"/><path class="cls-3" d="M39,91.16a8.22,8.22,0,0,1,3,3.13A9,9,0,0,1,43,98.66a9.11,9.11,0,0,1-1.08,4.4,8.26,8.26,0,0,1-3,3.17,7.87,7.87,0,0,1-8.22,0,8.25,8.25,0,0,1-3-3.17,9.1,9.1,0,0,1-1.08-4.4,9,9,0,0,1,1.08-4.37,8.24,8.24,0,0,1,2.95-3.13,8,8,0,0,1,8.23,0ZM31.91,93a6.37,6.37,0,0,0-2.2,2.38,6.77,6.77,0,0,0-.82,3.3,6.83,6.83,0,0,0,.82,3.31,6.44,6.44,0,0,0,2.2,2.4,5.45,5.45,0,0,0,3,.89,5.34,5.34,0,0,0,3-.89,6.42,6.42,0,0,0,2.17-2.4,6.9,6.9,0,0,0,.81-3.31,6.83,6.83,0,0,0-.81-3.3A6.35,6.35,0,0,0,37.89,93a5.39,5.39,0,0,0-3-.88A5.5,5.5,0,0,0,31.91,93Z"/><path class="cls-3" d="M55.64,92.66a5.5,5.5,0,0,0-5.42.3A6.22,6.22,0,0,0,48,95.34a7.2,7.2,0,0,0,0,6.59,6.21,6.21,0,0,0,2.17,2.39,5.49,5.49,0,0,0,3,.88,5.6,5.6,0,0,0,2.39-.55,6.92,6.92,0,0,0,2.08-1.5L59,104.68a8.62,8.62,0,0,1-2.72,2,7.48,7.48,0,0,1-7.2-.44,8.21,8.21,0,0,1-2.9-3.15,9.23,9.23,0,0,1-1.06-4.41,9,9,0,0,1,1.07-4.37,8.17,8.17,0,0,1,2.93-3.13A7.83,7.83,0,0,1,59,92.58L57.7,94.26A6.44,6.44,0,0,0,55.64,92.66Z"/></svg>