<svg id="Layer_1" data-name="Layer 1" xmlns="http://www.w3.org/2000/svg" viewBox="0 0 237 175"><defs><style>.cls-1{fill:none;stroke-width:3px;}.cls-1,.cls-2{stroke:#fff;stroke-miterlimit:10;}.cls-2{fill:#fff;}</style></defs><title>new icons</title><path class="cls-1" d="M231.72,72.53c-7.22-3.1-14.58-3.16-22-1.5-2.49.55-3.81.73-4.35-2.79-1.27-8.35-6-14.72-11.56-20.56-3.11-3.24-4.86-2.43-6.46,1.15-5,11.26-5.14,22.47,1,33.24,1.6,2.79,1.24,3.78-1.27,5.11a52.06,52.06,0,0,1-24.75,6.31q-35.62,0-71.24,0c-25,0-50.05.06-75.07-.07-3.32,0-4.74.65-4.93,4.64-1.5,31.64,15,57.5,43.23,67.72,17.22,6.23,34.78,6,52.46,3.41,42.62-6.26,73.91-29.12,91.67-71.26,1.89-4.48,4.06-5.65,8.42-5.73,10.64-.22,20-3.67,26.41-13.65C235.2,75.55,235,73.95,231.72,72.53ZM68.85,123.29c.15-3.54,2.36-5.65,5.74-5.45s5.22,2.28,5.19,6.56a5.05,5.05,0,0,1-5.68,4.93C70.89,129.15,68.69,126.84,68.85,123.29ZM31,140.65c12.45-.12,23.72-.37,34.72-3.44,1.07-.3,2.18-.32,2.83,1,5.19,10.62,13.39,18,23.14,23.77C69.11,163.66,48.7,158.66,31,140.65Z"/><path class="cls-2" d="M35,52.66v-12c1.38-1.27,2.56-3,4.18-3.75,5.73-2.74,11.93-3.25,18.18-2.87,2.91.18,5.79.76,8.77,1.17,0-3.22,1.83-5.15,4.37-6.47a28,28,0,0,1,5-2.12,59.29,59.29,0,0,1,24.35-1.74c4.36.56,8.7,1.28,12.7,3.32,3.13,1.6,5.58,3.64,5.34,7.59,0,.08.14.18.26.32a45.77,45.77,0,0,1,18.7-1.9c3.89.49,7.79,1,11.22,3.1a4.55,4.55,0,0,1,2.54,4.06c.06,9.59.11,19.19.39,28.78.09,3.17-1.31,5-3.92,6.24-4.21,2-8.76,2.66-13.33,2.91a43.21,43.21,0,0,1-16.12-2.21c-1.25,3.54-4.2,5.11-7.31,6.08a70.43,70.43,0,0,1-11.43,2.52,55.2,55.2,0,0,1-25.15-2.42c-2.74-.91-5.35-2.22-7-4.89A1.91,1.91,0,0,0,65.1,78c-5.45,1.27-11,2-16.5,1a64.9,64.9,0,0,1-10-2.74c-2.24-.79-3.16-2.75-3.14-5.21,0-5.49,0-11-.08-16.48A10.9,10.9,0,0,0,35,52.66Zm79.3.78c-15,6.34-29.78,6.35-44.66,0,0,3.21-.09,6,.06,8.86a2.84,2.84,0,0,0,1.32,2,28.93,28.93,0,0,0,5.76,2.54,58.12,58.12,0,0,0,26.14,1,46.89,46.89,0,0,0,9-2.88,4,4,0,0,0,2.22-2.6A86.42,86.42,0,0,0,114.3,53.45Zm0,14.32c-15,6-29.74,5.94-44.68,0,0,1.7,0,3.31,0,4.93,0,5.31.37,5.84,5.46,7.63.34.12.69.22,1,.32a54.81,54.81,0,0,0,18.06,2.1c6.1-.3,12.12-1.07,17.71-3.84,1.28-.63,2.33-1.43,2.38-2.91C114.35,73.31,114.28,70.6,114.28,67.76ZM69.65,39.86c0,2.93-.12,5.7.07,8.45a3.19,3.19,0,0,0,1.57,2.18,29,29,0,0,0,6.51,2.59,66.93,66.93,0,0,0,11.06,1.63c8.07.39,16.05-.26,23.4-4.06a4.09,4.09,0,0,0,2-2.65,80.47,80.47,0,0,0,.1-8.18C99.43,45.68,84.66,45.78,69.65,39.86Zm20.62-12c-2,.19-5.79.4-9.55.95a20.18,20.18,0,0,0-9.87,3.72c-1.78,1.4-1.86,2.43.07,3.63a23.41,23.41,0,0,0,6,2.83,61.55,61.55,0,0,0,23.87,1.28,27.62,27.62,0,0,0,12.08-4c2-1.31,2.1-2.52.09-3.85a21.36,21.36,0,0,0-4.5-2.26C103.17,28.22,97.63,27.94,90.26,27.82Zm58.22,27.36c-16.34,4.88-16.75,4.43-30.7,1.44,0,1.78,0,3.5,0,5.22,0,2.76.06,2.86,2.71,3.56a42.63,42.63,0,0,0,19.53.51A36.91,36.91,0,0,0,147,63.54a2.92,2.92,0,0,0,1.44-2.06C148.62,59.46,148.49,57.4,148.49,55.18Zm.13,10.27C138.4,70,128.26,69.84,117.79,67c0,.88,0,1.65,0,2.42s0,1.69-.05,2.53c-.23,2.78-.22,2.8,2.51,3.6a41.87,41.87,0,0,0,15.22,1.31,27,27,0,0,0,11.12-2.82c.81-.45,1.84-1.31,1.94-2.1A52.38,52.38,0,0,0,148.61,65.45Zm-30.82-19c0,2,.13,3.88,0,5.72-.14,1.61.58,2.27,2,2.68A43.16,43.16,0,0,0,136,56.19a26.84,26.84,0,0,0,10.72-2.92c.6-.33,1.47-.89,1.51-1.39.16-2.28.07-4.57.07-7C138.22,49.22,128.25,49.21,117.79,46.49ZM133,35.91c-4.3.6-8,.92-11.54,1.65-3.77.76-3.68.93-3.7,4.76,0,1.24.37,2,1.58,2.17,2.89.49,5.77,1.16,8.69,1.4,5.74.48,11.45.21,16.82-2.13,1.32-.58,2.34-1.85,3.5-2.8-1.24-1-2.35-2.4-3.74-2.76C140.61,37.16,136.51,36.57,133,35.91Zm-77.87.17a82.9,82.9,0,0,0-9.33,1.07A30.8,30.8,0,0,0,38.49,40c-1.59.83-1.49,1.89.07,2.89a14.17,14.17,0,0,0,3.88,1.84,45.83,45.83,0,0,0,20.92.35c2.87-.57,2.86-.62,2.86-3.65a15.41,15.41,0,0,1,0-2,1.62,1.62,0,0,0-1.61-2.07C61.35,36.94,58.08,36.48,55.13,36.08ZM66.2,56.76a40.33,40.33,0,0,1-28.49-1.34,33,33,0,0,1,0,4.36c-.38,2.71.83,4.21,3.3,5,.52.16,1,.46,1.51.6a45.42,45.42,0,0,0,22.51,0c.46-.11,1.13-.69,1.15-1.07C66.26,61.9,66.2,59.5,66.2,56.76ZM37.51,45.28a47.65,47.65,0,0,0,.08,6.17,3.22,3.22,0,0,0,1.79,2.19,54,54,0,0,0,9.36,2.47A39.1,39.1,0,0,0,64.69,55c.58-.16,1.42-.78,1.45-1.23.15-2.27.07-4.56.07-7C56.48,48.94,47,49.3,37.51,45.28ZM66.14,67.55c-9.65,2-19,2.4-28.34-1.69,0,1.77.12,3.27,0,4.76-.23,2.24.77,3.5,2.79,4.24,8.09,3,16.28,2.77,24.51.73a1.68,1.68,0,0,0,1-1.2C66.2,72.17,66.14,69.95,66.14,67.55Z"/></svg>