<svg id="Layer_1" data-name="Layer 1" xmlns="http://www.w3.org/2000/svg" viewBox="0 0 58.33 58.33"><defs><style>.cls-1{fill:none;}.cls-1,.cls-3,.cls-5{stroke:#f1592e;stroke-miterlimit:10;}.cls-1,.cls-5{stroke-width:0.75px;}.cls-2,.cls-3,.cls-5{fill:#f1592e;}.cls-3{stroke-width:0.5px;}.cls-4{fill:#fff;}</style></defs><title>elements</title><path class="cls-1" d="M44.18,19.21c-2.27,0-4.54.07-6.81,0a3.41,3.41,0,0,1-3.08-3.43c0-2.14,0-4.29,0-6.43.13,0,.17.09.23.16L44,19C44.06,19,44.11,19.13,44.18,19.21Z"/><path class="cls-2" d="M19.31,17.53l1.6.8.87.43c.45.22.5.34.43.84,0,.15-.11.16-.2.1-1-.6-2.05-1.08-3.07-1.62a.62.62,0,0,1-.39-.81c0-.1.09-.12.16-.16L22,15.39c.16-.08.19-.05.21.13a.68.68,0,0,1-.46.8C20.94,16.68,20.16,17.11,19.31,17.53Z"/><path class="cls-2" d="M28.37,17.53l-2.53-1.26a.65.65,0,0,1-.38-.84c.05-.18.16,0,.22,0l2.14,1.1c.37.19.73.39,1.1.57.16.08.19.18.21.34,0,.36-.11.52-.42.67-1,.49-2,1-3,1.53-.27.14-.24.14-.28-.15a.62.62,0,0,1,.45-.73C26.72,18.37,27.51,18,28.37,17.53Z"/><path class="cls-2" d="M23.08,21.36c-.39,0-.39,0-.3-.34l1.75-6.69a.49.49,0,0,1,.64-.24c.1.07,0,.16,0,.24l-.82,3.17c-.31,1.19-.63,2.38-.93,3.58C23.36,21.28,23.3,21.42,23.08,21.36Z"/><path class="cls-2" d="M27.63,41.92c-.08,1.3-.16,2.6-.23,3.89,0,.22-.07.3-.3.29a10.36,10.36,0,0,0-1.07,0c-.26,0-.31-.09-.29-.33q.2-2,.38-4.05c0-.54.09-1.08.12-1.62,0-.23.08-.32.33-.32.64,0,1.29,0,1.93,0,.31,0,.38.12.43.38.21,1.09.57,2.15.75,3.25a.58.58,0,0,0,.07.13c.3-1.21.79-2.32,1.15-3.48.06-.19.14-.28.36-.28.69,0,1.37,0,2.06,0,.23,0,.29.08.28.3-.09,1.9-.15,3.8-.13,5.7,0,.25-.09.32-.33.31-.45,0-1,.14-1.33-.08s0-.83,0-1.26,0-.94.06-1.41,0-.94,0-1.43c-.15.14-.15.33-.2.49-.38,1.12-.75,2.25-1.1,3.38-.08.24-.17.36-.44.34a6.17,6.17,0,0,0-1,0c-.29,0-.39-.09-.45-.36-.28-1.28-.58-2.56-.87-3.83Z"/><path class="cls-2" d="M22.35,42c.39-.65.77-1.27,1.13-1.9a.47.47,0,0,1,.51-.28c.44,0,.89,0,1.33,0,.14,0,.32-.07.4.05s-.09.25-.16.36q-1,1.55-2.09,3.09a1.54,1.54,0,0,0-.3.91c0,.53-.05,1.06-.06,1.58,0,.25-.09.32-.33.31-.47,0-.94,0-1.41,0-.23,0-.3-.06-.28-.29.05-.63.08-1.25.13-1.88a1.05,1.05,0,0,0-.14-.65c-.59-1-1.16-2.07-1.75-3.09-.18-.32-.14-.42.24-.4s1,0,1.46,0a.4.4,0,0,1,.44.3C21.75,40.7,22,41.32,22.35,42Z"/><path class="cls-2" d="M36.93,46.1c-.7,0-1.4,0-2.1,0-.28,0-.38-.07-.34-.36.21-1.89.3-3.78.34-5.68,0-.19.05-.28.27-.28.51,0,1,0,1.54,0,.34,0,.26.22.25.41-.08,1.34-.14,2.68-.24,4,0,.38.06.53.47.51.67,0,1.34,0,2,0,.27,0,.37,0,.36.34,0,1.05,0,1.06-1.1,1.06H36.93Z"/><path class="cls-1" d="M44.21,36.92H16.72a21.73,21.73,0,0,0-2.65,0c0,.16,0,.31,0,.47,0,2.7,0,5.4,0,8.11A3.41,3.41,0,0,0,17.54,49H40.87a3.38,3.38,0,0,0,3.44-3.46c0-2.73,0-5.46,0-8.19C44.31,37.21,44.37,37,44.21,36.92Z"/><path class="cls-1" d="M44.18,19.21c-2.27,0-4.54.07-6.81,0a3.41,3.41,0,0,1-3.08-3.43c0-2.14,0-4.29,0-6.43a3.27,3.27,0,0,0-.34,0H17.6a4.17,4.17,0,0,0-.89.08A3.43,3.43,0,0,0,14,12.91q0,11.82,0,23.64a.69.69,0,0,0,.05.42,21.73,21.73,0,0,1,2.65,0H44.21s0-.08,0-.13q0-8.65,0-17.3C44.22,19.4,44.26,19.29,44.18,19.21Z"/><path class="cls-3" d="M35.36,25.35h.92c.33,0,.67.07,1,.12a3.37,3.37,0,0,1,1.38.49.68.68,0,0,1,.36.56c0,1.74,0,3.49.06,5.23a.68.68,0,0,1-.15.39,1.33,1.33,0,0,1-.38.3,4.07,4.07,0,0,1-1.36.44l-.8.11h-.92c-.33,0-.67-.07-1-.12a3.42,3.42,0,0,1-1.38-.49.75.75,0,0,1-.36-.66c0-1.7,0-3.41-.06-5.11a.68.68,0,0,1,.15-.4,1.36,1.36,0,0,1,.39-.31,4,4,0,0,1,1.36-.43ZM33,28.86c0,.39,0,.76,0,1.14a.39.39,0,0,0,.2.38,3.44,3.44,0,0,0,.71.31,7.93,7.93,0,0,0,3.59,0,2.44,2.44,0,0,0,1-.41.47.47,0,0,0,.2-.28c0-.41,0-.83,0-1.25A6.7,6.7,0,0,1,33,28.86Zm0,1.75c0,.38,0,.74,0,1.1a.46.46,0,0,0,.26.46,2.84,2.84,0,0,0,.59.25,7.71,7.71,0,0,0,3.61.07,4.84,4.84,0,0,0,1-.37.49.49,0,0,0,.27-.32c0-.41,0-.83,0-1.26a5.51,5.51,0,0,1-2.85.67A5.55,5.55,0,0,1,33,30.62Zm0-3.51c0,.39,0,.76,0,1.12a.42.42,0,0,0,.24.42A3.92,3.92,0,0,0,34,29a7.81,7.81,0,0,0,3.54,0,5,5,0,0,0,1-.37.42.42,0,0,0,.23-.43c0-.33,0-.66,0-1,0,0,0-.08,0-.13A6.74,6.74,0,0,1,33,27.11Zm2.83-1.46-.68,0a5,5,0,0,0-1.61.36,1.78,1.78,0,0,0-.46.3.25.25,0,0,0,0,.41,1.85,1.85,0,0,0,.48.3,4.76,4.76,0,0,0,1.55.3,7.65,7.65,0,0,0,2.65-.23,3,3,0,0,0,.81-.4c.21-.14.2-.35,0-.51a1.92,1.92,0,0,0-.5-.27A6.79,6.79,0,0,0,35.8,25.65Z"/><path class="cls-3" d="M22.13,25.35H23c.33,0,.67.07,1,.12a3.37,3.37,0,0,1,1.38.49.68.68,0,0,1,.36.56c0,1.74,0,3.49.06,5.23a.68.68,0,0,1-.15.39,1.33,1.33,0,0,1-.38.3,4.07,4.07,0,0,1-1.36.44l-.8.11h-.92c-.33,0-.67-.07-1-.12a3.42,3.42,0,0,1-1.38-.49.75.75,0,0,1-.36-.66c0-1.7,0-3.41-.06-5.11a.68.68,0,0,1,.15-.4,1.36,1.36,0,0,1,.39-.31,4,4,0,0,1,1.36-.43Zm-2.37,3.52c0,.39,0,.76,0,1.14a.39.39,0,0,0,.2.38,3.44,3.44,0,0,0,.71.31,7.93,7.93,0,0,0,3.59,0,2.44,2.44,0,0,0,1-.41.47.47,0,0,0,.2-.28c0-.41,0-.83,0-1.25A6.7,6.7,0,0,1,19.76,28.86Zm0,1.75c0,.38,0,.74,0,1.1a.46.46,0,0,0,.26.46,2.84,2.84,0,0,0,.59.25,7.71,7.71,0,0,0,3.61.07,4.84,4.84,0,0,0,1-.37.49.49,0,0,0,.27-.32c0-.41,0-.83,0-1.26a5.51,5.51,0,0,1-2.85.67A5.55,5.55,0,0,1,19.79,30.62Zm0-3.51c0,.39,0,.76,0,1.12a.42.42,0,0,0,.24.42,3.92,3.92,0,0,0,.78.31,7.81,7.81,0,0,0,3.54,0,5,5,0,0,0,1-.37.42.42,0,0,0,.23-.43c0-.33,0-.66,0-1,0,0,0-.08,0-.13A6.74,6.74,0,0,1,19.74,27.11Zm2.83-1.46-.68,0a5,5,0,0,0-1.61.36,1.78,1.78,0,0,0-.46.3.25.25,0,0,0,0,.41,1.85,1.85,0,0,0,.48.3,4.76,4.76,0,0,0,1.55.3,7.65,7.65,0,0,0,2.65-.23,3,3,0,0,0,.81-.4c.21-.14.2-.35,0-.51a1.92,1.92,0,0,0-.5-.27A6.79,6.79,0,0,0,22.57,25.65Z"/><path class="cls-4" d="M24.86,25.44s1-1.68,4.33-1.44,4.09,1.44,4.09,1.44L33,32.66s-1.2,1.68-4.33,1.2-3.89-1.2-3.89-1.2Z"/><path class="cls-5" d="M28.44,23.75h1.24c.45.06.91.11,1.36.19a4.56,4.56,0,0,1,1.86.68.92.92,0,0,1,.48.77c0,2.36,0,4.73,0,7.09a.92.92,0,0,1-.22.53,1.8,1.8,0,0,1-.52.4,5.52,5.52,0,0,1-1.85.57l-1.09.14H28.44c-.45-.06-.91-.11-1.36-.19a4.63,4.63,0,0,1-1.86-.68,1,1,0,0,1-.48-.9c0-2.31,0-4.62,0-6.93a.93.93,0,0,1,.21-.54,1.85,1.85,0,0,1,.54-.42,5.48,5.48,0,0,1,1.85-.57Zm-3.27,4.72c0,.53,0,1,0,1.54a.53.53,0,0,0,.27.52,4.67,4.67,0,0,0,1,.43,10.75,10.75,0,0,0,4.87.12,3.3,3.3,0,0,0,1.4-.54.64.64,0,0,0,.27-.37c0-.56,0-1.13,0-1.7A9.08,9.08,0,0,1,25.17,28.47Zm0,2.38c0,.52,0,1,0,1.5a.63.63,0,0,0,.34.63,3.84,3.84,0,0,0,.79.35,10.45,10.45,0,0,0,4.89.15A6.55,6.55,0,0,0,32.57,33a.67.67,0,0,0,.37-.43c0-.56,0-1.13,0-1.71a7.46,7.46,0,0,1-3.87.86A7.52,7.52,0,0,1,25.17,30.84Zm0-4.76c0,.53,0,1,0,1.52a.56.56,0,0,0,.31.57,5.31,5.31,0,0,0,1.05.44,10.58,10.58,0,0,0,4.8.06,6.81,6.81,0,0,0,1.3-.49A.56.56,0,0,0,33,27.6c0-.44,0-.89,0-1.33,0-.06,0-.11,0-.18C31.35,27.16,27.14,27.32,25.17,26.09ZM29,24.16l-.92,0a6.84,6.84,0,0,0-2.19.46,2.41,2.41,0,0,0-.63.4.34.34,0,0,0,0,.56A2.51,2.51,0,0,0,26,26a6.45,6.45,0,0,0,2.1.44,10.37,10.37,0,0,0,3.6-.27,4.11,4.11,0,0,0,1.11-.52c.29-.19.27-.48,0-.69a2.6,2.6,0,0,0-.67-.38A9.21,9.21,0,0,0,29,24.16Z"/></svg>