<svg id="Layer_1" data-name="Layer 1" xmlns="http://www.w3.org/2000/svg" viewBox="0 0 58.33 58.33"><defs><style>.cls-1,.cls-2{fill:#f1592e;stroke-miterlimit:10;}.cls-1{stroke:#f1592e;stroke-width:0.5px;}.cls-2{stroke:#f9f9f9;stroke-width:0.45px;}</style></defs><title>elements</title><path class="cls-1" d="M26.15,32.61a7.05,7.05,0,0,1-11.38-2.1,6.31,6.31,0,0,1,1.22-7,6.46,6.46,0,0,1,6.81-2c4.83,1.34,6.57,5.76,4.11,10.16,0,.08-.1.19-.07.23s.2,0,.28,0a5.06,5.06,0,0,1,4.45-.18c.16-.44-.13-.62-.27-.85a6.39,6.39,0,0,1,.26-7.45A6.93,6.93,0,0,1,44,26.56a6.23,6.23,0,0,1-3.23,6.52A7.05,7.05,0,0,1,33,32.59l-.54-.4-.29-.26c-.1-.14-.21-.39-.4-.18s.13.23.24.32l.27.32c-.1.74.33,1.12.93,1.41a3.13,3.13,0,0,1,1.91,2.3,1.9,1.9,0,0,1-1.64,2.42c-.53.09-.72.21-.62.77a12.54,12.54,0,0,1,0,1.45,1.55,1.55,0,0,1-.81,1.63,1.77,1.77,0,0,1-2.17-.08c-.28-.26-.45-.18-.75,0-1.69.92-3,.08-3-1.86a2.32,2.32,0,0,1,.05-.48c.18-.78.27-1.28-.84-1.62-1.76-.54-2-2.53-.61-3.82a6.11,6.11,0,0,0,1.59-1.67l.19-.38a1.52,1.52,0,0,0,.08-.21c-.12-.06-.14,0-.16.12ZM16.05,26.45a4,4,0,0,1,.77-.41,2.51,2.51,0,0,1,2.69.57,2.4,2.4,0,0,1-1.65,4.1,6.22,6.22,0,0,1-1.24-.18.29.29,0,0,0-.39-.05l.19.26A5.47,5.47,0,0,0,23.08,33a5.23,5.23,0,0,0,3.58-5.76,5.56,5.56,0,0,0-10.75-1l-.07.19ZM32,26a7.31,7.31,0,0,1,.75-.43,2.53,2.53,0,0,1,2.57.22,2.29,2.29,0,0,1,1,2.17,2.52,2.52,0,0,1-3.7,2h-.23l.08.19a4.67,4.67,0,0,0,3.35,2.38,5.6,5.6,0,0,0,6.63-3.2,5.32,5.32,0,0,0-2.79-6.72,5.57,5.57,0,0,0-7.84,3.3l0,.22Zm.74,11.29c.32,0,.76,0,1-.44a1.09,1.09,0,0,0-.21-1.17A1.54,1.54,0,0,0,31.54,35a5.55,5.55,0,0,1-4.41.14,1.3,1.3,0,0,0-1.67.58A1.08,1.08,0,0,0,25.64,37c.48.59,1,.29,1.57,0a4.55,4.55,0,0,1,4.36,0A2.44,2.44,0,0,0,32.69,37.27Zm-3.58,2a4.36,4.36,0,0,0,0-.58c0-.27.16-.63-.14-.79s-.54.13-.79.26c-1.19.62-.92,1.72-.87,2.73,0,.4.2.77.68.79a.87.87,0,0,0,.89-.61A4.5,4.5,0,0,0,29.1,39.23Zm1,.57c0,.28.07.79.16,1.29a.68.68,0,0,0,.79.54c.32,0,.64-.1.72-.51a4.19,4.19,0,0,0-.11-2.46A1.1,1.1,0,0,0,30.5,38c-.51,0-.26.55-.33.86A7.13,7.13,0,0,0,30.12,39.8Z"/><path class="cls-2" d="M51.07,39.38a35.27,35.27,0,0,0-2.13-12.51c-1.87-4.86-5.26-8.07-10.4-9.16a37.73,37.73,0,0,0-21.08,1.58,12.16,12.16,0,0,0-7.14,7,27.28,27.28,0,0,0-2.06,8.83,35.06,35.06,0,0,0-.08,6.72c.06.53.1,1.08-.68,1.12s-.79-.5-.82-1a44.66,44.66,0,0,1,.65-10.73c.09-.5.19-.91-.43-1.19a5.4,5.4,0,0,1-3-7.05,5.52,5.52,0,0,1,6.62-3.32,5.41,5.41,0,0,0,4.64-.83c2.74-1.74,5.88-2.29,9-2.73a40.45,40.45,0,0,1,13-.12,18.83,18.83,0,0,1,7.55,3,1.27,1.27,0,0,0,1.43.12,7.06,7.06,0,0,1,3.54-.57,5.26,5.26,0,0,1,4.92,4.18,5.15,5.15,0,0,1-2.55,5.92,1.14,1.14,0,0,0-.67,1.5c1.08,3.84,1.09,7.78,1.14,11.72,0,.51.07,1.14-.68,1.18s-.81-.59-.81-1.16C51.06,40.84,51.07,39.95,51.07,39.38ZM9.52,20.88a5.57,5.57,0,0,0-2.12.4A3.66,3.66,0,0,0,5,24.83a3.78,3.78,0,0,0,2,3.58c.23.13.49.42.8.09A2.33,2.33,0,0,0,8,26.08a1.78,1.78,0,0,1-.1-2,1.46,1.46,0,0,1,1.52-.84c.71.09,2.23-1,2.08-1.64s-1.06-.48-1.64-.65A1.63,1.63,0,0,0,9.52,20.88Zm39.52-1a4.82,4.82,0,0,0-1.82.32c-.17.06-.43,0-.41.35a2.49,2.49,0,0,0,2,1.47,1.62,1.62,0,0,1,1.76.79,1.43,1.43,0,0,1,0,1.91c-.79.77-.42,1.41-.12,2.19s.49.68,1,.32a4,4,0,0,0,1.63-4.54A4,4,0,0,0,49,19.85Z"/></svg>