<svg id="Layer_1" data-name="Layer 1" xmlns="http://www.w3.org/2000/svg" viewBox="0 0 239 159"><defs><style>.cls-1{fill:#fff;}</style></defs><title>new icons</title><path class="cls-1" d="M211.74,130.3a171.54,171.54,0,0,0-2.19-30c-2.09-12.67-5.42-25-11.64-36.31-9.2-16.77-23.37-26.79-42-30.62a162,162,0,0,0-39.19-3.29A164.81,164.81,0,0,0,63.45,41.16c-12.74,4.93-21.77,14-27.9,26.09a99.81,99.81,0,0,0-9.2,29.23,183.54,183.54,0,0,0-2.42,28.27c0,4.62.31,9.25.48,13.88,0,.48,0,1,.08,1.44.08.89-.22,1.46-1.2,1.56s-1.67-.2-1.73-1.29c-.15-2.71-.31-5.42-.43-8.14a162.86,162.86,0,0,1,1.05-25c.56-5,1.41-10,2.17-15,.46-3.08-.36-4.69-3.22-6a22.92,22.92,0,0,1-9.53-7.62C7.45,72.4,7,65.78,9.2,59c2.73-8.52,9-13,17.58-14.47a22,22,0,0,1,9.27.55,23.61,23.61,0,0,0,19.44-3c9.92-6.41,20.94-9.54,32.44-11.26,7.3-1.09,14.63-2.09,22-2.83a152.18,152.18,0,0,1,29.33-.29c12.13,1.12,23.91,3.63,34.86,9.2a62.22,62.22,0,0,1,7.4,4.42,8.21,8.21,0,0,0,8.67.85,27.17,27.17,0,0,1,19.55-1c8,2.56,12.58,8.29,14.15,16.45,1.18,6.13.2,11.85-3.69,16.89a22.1,22.1,0,0,1-6.76,5.66c-2,1.11-3.53,2.58-3.8,4.93a9,9,0,0,0,.3,3.3A122,122,0,0,1,214,115.46c.34,7.94.48,15.9.7,23.85a8.24,8.24,0,0,1-.06,1.19c-.1.85-.7,1.11-1.45,1.11a1.13,1.13,0,0,1-1.28-1.13c-.08-1.08-.19-2.15-.2-3.23C211.72,135.05,211.74,132.85,211.74,130.3ZM31.3,60.64c3.85-.21,7.08-2.25,9.57-5.48,2.33-3,1-6.48-2.69-7.2a29.18,29.18,0,0,0-12.34-.17c-13,3-16.46,13.54-14.61,22.77,1.26,6.28,5.4,10.24,10.86,13a3.08,3.08,0,0,0,3.81-.84,7.55,7.55,0,0,0,1.43-2.33c1.24-3.59,1.24-7.12-.83-10.48a12.81,12.81,0,0,1-.87-1.84C24.38,65.1,27.45,59.87,31.3,60.64Zm169.3-17.93c-2.3-.21-5.11.72-7.95,1.56-2.45.73-3.41,2.6-2.14,4.78a12.7,12.7,0,0,0,9,6.36,2.27,2.27,0,0,0,.83,0c3.77-.74,5.79,1.32,7.15,4.54a3.56,3.56,0,0,1-.85,4.27,6.79,6.79,0,0,0-2.28,5.46,16.92,16.92,0,0,0,2.69,7.59,2.78,2.78,0,0,0,3.1,1.34,8.22,8.22,0,0,0,2.52-1c9.5-5.9,11.68-19.65,4.44-28.2C213,44.54,207.53,42.76,200.61,42.71Z"/><path class="cls-1" d="M179.07,76.93c-.13,8.36-2.65,15.78-9.57,20.88-10.72,7.89-24.22,9.27-35.94,1-1.62-1.15-2.92-2.78-4.62-3.75s-1.93-2.89-3-4.26a19,19,0,0,1-2.48-4.89A29.76,29.76,0,0,1,122,80.58c-2.7-14.82,8.72-29,22.72-31.57,14.47-2.64,28.78,5.61,33.11,19.54a69.08,69.08,0,0,1,1.54,8.31Zm-52.79-4.77.38.27c1.21-.67,2.43-1.33,3.62-2a11.75,11.75,0,0,1,7-1.65,9.56,9.56,0,0,1,8.45,11.13c-1.29,6.37-7.69,9.67-13.89,7.22a16.8,16.8,0,0,0-3.16-.58,15.21,15.21,0,0,0,5.58,8.22c8.1,5.89,19.65,7.64,29.27,2.06,8.55-5,12.41-12.59,11.64-22.35-.57-7.18-4.27-12.76-10.05-17A24.77,24.77,0,0,0,127,68.93,21.88,21.88,0,0,0,126.28,72.16Z"/><path class="cls-1" d="M105.22,96.35c-.59.5-1.14.89-1.6,1.36-11.7,11.83-27.73,12-39.47,3.46-7.52-5.48-11-13.13-11.23-22.26-.15-7.09,2.83-13.09,7.57-18.25A27.3,27.3,0,0,1,76.8,51.6a29.81,29.81,0,0,1,15.48,2.06c6.58,2.55,12,6.55,15.29,12.94,3.83,7.4,3.53,15,.72,22.63-.65,1.75-1.56,3.41-2.32,5.12C105.67,95.06,105.42,95.8,105.22,96.35Zm-45.71-6.5c.54.76,1,1.43,1.5,2.12,6.59,9.76,17.35,13.53,28.54,9.9,13.15-4.26,18.82-15.92,16.26-27.75-1.75-8.07-7-13.67-14.41-17.2-4.32-2.06-8.92-1.95-13.52-1.21-8.34,1.35-14.51,5.76-18.29,13.36-.71,1.43-1.22,3-1.82,4.46l.29.36a12.58,12.58,0,0,0,3.08-1,12,12,0,0,1,6.74-1.74c5.26.1,9.83,5.57,9,10.61-1.32,7.63-7.83,9.74-14.3,7.49A2.65,2.65,0,0,0,59.51,89.85Z"/><path class="cls-1" d="M106.09,97.36A5,5,0,0,0,107.4,97c4.91-3.13,10.17-3.34,15.68-2.07A8.7,8.7,0,0,1,128,98a2,2,0,0,1,.5,1.13c0,2.59,1.43,4.23,3.53,5.44,1.24.72,2.55,1.34,3.73,2.16a11,11,0,0,1,5.11,10.09c-.2,3.79-2.29,6.07-6,6.84-.39.08-.79.14-1.17.23-2.14.51-2.77,1.39-2.68,3.56q.17,3.83.25,7.66a5.35,5.35,0,0,1-3.6,5.51c-.78.31-1.57.59-2.37.83a5.11,5.11,0,0,1-5.23-1.21c-1.31-1.23-2.62-1.16-4.17-.44a17.45,17.45,0,0,1-4.48,1.57c-3.75.6-6.78-2.09-7.13-6.33a22.23,22.23,0,0,1,.31-5.45c.57-3.38-.32-5.17-3.5-6.37-.37-.14-.75-.27-1.13-.4-5.13-1.78-7.22-6.65-4.63-11.42a18.47,18.47,0,0,1,4-4.68c2.46-2.2,4.92-4.34,6.17-7.51.16-.41.35-.8.51-1.21A3.34,3.34,0,0,0,106.09,97.36Zm25,22.62c.64,0,1.28,0,1.92-.09a4.27,4.27,0,0,0,3.81-4.57c-.42-5.2-6.42-8.79-11.17-6.67a19.58,19.58,0,0,1-10,2,51.9,51.9,0,0,1-8.18-1.67c-3.42-.92-6.31.09-8,3.09-1.2,2.13-.86,4.46,1,6.64,1.43,1.7,3.14,2.13,5.51,1.27,1.5-.54,2.93-1.26,4.43-1.81,5.08-1.87,10.14-2.16,15.06.51A11.5,11.5,0,0,0,131.07,120ZM116.76,127c0-1.24,0-2.47,0-3.71,0-2.16-1.53-3.28-3.47-2.32a22.49,22.49,0,0,0-3.54,2.21,5.72,5.72,0,0,0-2.44,4.24,61.59,61.59,0,0,0,.22,8.32,3.24,3.24,0,0,0,2.92,2.9,4.61,4.61,0,0,0,5.25-3.15C116.79,132.79,116.73,129.92,116.76,127Zm2.82,1.94-.3,0c.3,2.33.51,4.67.93,7,.32,1.76,1.74,2.7,3.71,2.73,2.29,0,3.8-.73,4.2-2.41a19,19,0,0,0-.15-10.83,5.45,5.45,0,0,0-5.51-3.94c-1.86,0-2.82.78-2.87,2.46S119.58,127.32,119.58,129Z"/></svg>