<svg id="Layer_1" data-name="Layer 1" xmlns="http://www.w3.org/2000/svg" viewBox="0 0 250 250"><defs><style>.cls-1,.cls-2,.cls-3{fill:none;stroke-miterlimit:10;}.cls-1{stroke:#f79537;}.cls-1,.cls-3{stroke-width:4px;}.cls-2,.cls-3{stroke:#313333;}.cls-2{stroke-width:2px;}.cls-4{fill:#f89537;}</style></defs><title>new icons</title><path class="cls-1" d="M77.68,107.38a65.11,65.11,0,0,1,130.21.16c-.1,35.48-29.31,64.27-65.24,64.2C106.88,171.68,77.66,142.73,77.68,107.38ZM142.75,161c29.38.16,53.84-23.73,54.3-52.48.47-29.74-23.62-54.35-53.46-54.75-29.51-.4-54.65,22.84-55,53.21C88.24,136.66,112.6,160.82,142.75,161Z"/><path class="cls-2" d="M99.61,165.52A15.35,15.35,0,0,1,97.66,169q-18.36,18.31-36.85,36.5c-2.12,2.09-4.77,2-6.93-.05q-5.07-4.94-10.06-10c-2.29-2.32-2.28-4.81.05-7.12q18.29-18.13,36.62-36.23A4.57,4.57,0,0,1,87.4,152c3.48,3.36,6.94,6.75,10.3,10.22A16.24,16.24,0,0,1,99.61,165.52Z"/><path class="cls-3" d="M168.62,126.92l0-28.77h-.06c0-1.52,0-3,0-4.57,0-.36-.07-.71-.11-1.13-10.12,6.84-36.94,7.84-49.46,0,0,.33,0,.65,0,1h0v7.11c0,.54,0,1.08,0,1.61a5.36,5.36,0,0,0,0,.72v4.75h0c0,.38,0,.74,0,1.11v6.9c0,.6,0,1.2,0,1.8a5.35,5.35,0,0,0,0,.62v4.7h0c0,.25,0,.49,0,.73v6.66h0c0,.71,0,1.42-.06,2.13a4,4,0,0,0,2.18,4,24.48,24.48,0,0,0,5.05,2.24,66.57,66.57,0,0,0,31.16,1,41.76,41.76,0,0,0,8.76-3.08,4.24,4.24,0,0,0,2.34-2.74c.09-1.1.13-2.2.15-3.31h0v-.09C168.64,129.17,168.64,128,168.62,126.92Z"/><path class="cls-3" d="M143.66,76c6.7.21,13.22.56,19.42,2.93a16.57,16.57,0,0,1,4.29,2.42c1.74,1.37,1.83,3.19,0,4.4a26.16,26.16,0,0,1-7,3.34c-7.5,2.14-15.21,2.24-22.93,1.7A41.11,41.11,0,0,1,124,88a16,16,0,0,1-4.15-2.62,2.2,2.2,0,0,1,0-3.58,15.34,15.34,0,0,1,4-2.58c4.43-1.92,9.18-2.52,13.94-2.91C139.81,76.13,141.82,76.09,143.66,76Z"/><path class="cls-4" d="M141.07,115.21q0,3.9,0,7.79a.7.7,0,0,0,.34.69,2.65,2.65,0,0,1,.06,4.51.81.81,0,0,0-.4.8c0,1,0,2,0,2.94a1.06,1.06,0,0,1-1,1.19,1.09,1.09,0,0,1-1.16-1.15c0-1,0-2,0-3a.8.8,0,0,0-.4-.8,2.65,2.65,0,0,1,0-4.41.89.89,0,0,0,.43-.84q0-7.61,0-15.21a3,3,0,0,1,0-.55,1.07,1.07,0,0,1,1.22-.95,1,1,0,0,1,1,1.13C141.07,110,141.07,112.59,141.07,115.21Z"/><path class="cls-4" d="M154.13,124.94c0-1.66,0-3.31,0-5a1,1,0,0,0-.36-.66,2.72,2.72,0,0,1,0-4.56,1,1,0,0,0,.34-.68c0-2.8,0-5.6,0-8.41,0-.86.38-1.33,1.08-1.34s1.13.46,1.13,1.35c0,2.78,0,5.56,0,8.35a.8.8,0,0,0,.4.79,2.65,2.65,0,0,1,0,4.44.8.8,0,0,0-.4.79c0,3.33,0,6.67,0,10a1.1,1.1,0,0,1-.81,1.16,1,1,0,0,1-1.21-.48,1.74,1.74,0,0,1-.18-.82C154.12,128.25,154.13,126.6,154.13,124.94Z"/><path class="cls-4" d="M131.27,124.42c0-1.82,0-3.64,0-5.46a.79.79,0,0,0-.41-.78,2.66,2.66,0,0,1,0-4.44.79.79,0,0,0,.42-.78q0-3.74,0-7.49a1,1,0,0,1,1-1.14,1.1,1.1,0,0,1,1.18,1.06c0,.16,0,.33,0,.49,0,2.37,0,4.75,0,7.12a.76.76,0,0,0,.39.73,2.64,2.64,0,0,1,0,4.43.76.76,0,0,0-.38.74q0,5.4,0,10.8a4.59,4.59,0,0,1,0,.49,1.12,1.12,0,0,1-1.15,1,1.06,1.06,0,0,1-1.05-1.12c0-1.9,0-3.8,0-5.71Z"/><path class="cls-4" d="M148.71,108.27a4.24,4.24,0,0,0,0,.79.88.88,0,0,0,.29.52,2.7,2.7,0,0,1,.05,4.58,1.05,1.05,0,0,0-.35.75q0,8.34,0,16.69c0,1.05-.36,1.56-1.14,1.54a1,1,0,0,1-1-.93,7.76,7.76,0,0,1,0-.8q0-8.22,0-16.44a.92.92,0,0,0-.47-.88,2.65,2.65,0,0,1,0-4.37.93.93,0,0,0,.48-.94,14.14,14.14,0,0,1,0-1.53,1.07,1.07,0,0,1,2.12-.13c.06.38,0,.77.07,1.16Z"/></svg>