<svg id="Layer_1" data-name="Layer 1" xmlns="http://www.w3.org/2000/svg" viewBox="0 0 560 115"><defs><style>.cls-1{fill:#273274;}</style></defs><title>hack titile big</title><path class="cls-1" d="M30.13,8.4a16.67,16.67,0,0,1,3.32,1.76,5.71,5.71,0,0,1,1.21,7.09A6,6,0,0,1,23.45,15a5.91,5.91,0,0,1,3.93-6.18c.36-.13.72-.29,1.07-.44Zm-.71,4a2.08,2.08,0,0,0-2.11,2,2.14,2.14,0,0,0,2,2.09,2.07,2.07,0,0,0,2.08-2A2,2,0,0,0,29.43,12.44Z"/><path class="cls-1" d="M137,72c.49.58.68,1-.1,1.48-3,1.76-6,2.87-9.56,2.36-3-.43-4.68-2.15-4.73-5.21-.1-5.64-.06-11.28-.07-16.92,0-.51,0-1,0-1.61H111c0,.46,0,.92,0,1.38,0,4.68,0,9.36,0,14,0,7.53-4.08,13.05-11.28,15.29a23.37,23.37,0,0,1-12.65.66,8.35,8.35,0,0,1-2.31-1,2.79,2.79,0,0,1-.23-4.64,1.27,1.27,0,0,1,2.11.31,1.06,1.06,0,0,1,.12.21c2.05,5.55,9.52,3.85,11.87.46A12.27,12.27,0,0,0,100.91,72c.12-6.59,0-13.19,0-19.93H95.49V49.47h5.41c0-.58.07-1,.07-1.42q0-8,0-16c0-2-.6-2.59-2.51-2.39a13.27,13.27,0,0,0-8,3.7,4.84,4.84,0,0,0-1.58,4.33,2.2,2.2,0,0,0,3.41,1.82,3.78,3.78,0,0,0,1-.66c1.19-1.22,3-.52,3.55,1.18a4.67,4.67,0,0,1-4.18,6c-5,.57-8.2-3.17-7.19-8.29a10.71,10.71,0,0,1,4.82-7,23.9,23.9,0,0,1,17-3.6c2.88.39,3.81,1.66,3.81,4.53,0,5.48,0,11,0,16.44,0,1,.27,1.33,1.28,1.31q4.5-.09,9,0c1,0,1.21-.34,1.21-1.25,0-5.28-.09-10.56.07-15.84a18.41,18.41,0,0,1,5.27-13c4.18-4.16,10.7-4.52,15.43-2.57,1.38.57,2.61,1.48,2.43,3.18a3.11,3.11,0,0,1-1.19,2c-.8.53-1.59-.08-2.14-.8s-.94-1.4-1.46-2c-1.79-2.2-5-2.16-6.33.33a13.23,13.23,0,0,0-1.68,5.65c-.26,7.95-.24,15.91-.32,23.86a2.16,2.16,0,0,0,.11.4h6V52h-6.1v1.4q0,8.4,0,16.8c0,2.5,1,3.18,3.31,2.26Z"/><path class="cls-1" d="M389.18,41.38h6.59v2.17h-6.7V45c0,7.84,0,15.68,0,23.51a21.75,21.75,0,0,1-2.33,10.18c-2.66,5-7,7.65-12.51,8.36a17.77,17.77,0,0,1-7.48-.48,9.18,9.18,0,0,1-1.87-.79,2.64,2.64,0,0,1-.91-4.17c.92-1.35,2.07-1.35,2.84.05s1.82,2.91,3.7,3.31a6,6,0,0,0,6.57-2.89,16.4,16.4,0,0,0,2.27-7.37c.19-1.9.25-3.83.26-5.74,0-8,0-15.92,0-23.87V43.66h-5.24c-.26,1.51-.48,3-.78,4.38-.07.32-.42.58-.64.87a4,4,0,0,1-.65-.71,2.94,2.94,0,0,0-4-1.29A31.56,31.56,0,0,0,363.2,50c-.31.21-.37.92-.38,1.4,0,6.12,0,12.24,0,18.35,0,2.2-.73,3.17-2.9,3.52a11.18,11.18,0,0,1-3.46,0c-2.2-.34-3-1.45-3-3.72q0-11.22,0-22.43a7.74,7.74,0,0,0,0-1.2,1.85,1.85,0,0,0-2.88-1.54c-.67.3-.67.3-1.15-.39a11.94,11.94,0,0,1,9.43-2.91c2.23.3,3.71,2.11,4,4.63,0,.42.08.85.14,1.53.36-.44.56-.71.79-.94A43.36,43.36,0,0,1,368,42c2.12-1.63,4-1.37,6,.46l.24-1.1h5.46c0-1.23,0-2.38,0-3.52.07-3.62.84-7,3.64-9.56a12.59,12.59,0,0,1,7.47-3.2,15.38,15.38,0,0,1,9.1,1.39A2.85,2.85,0,0,1,401,30.85c-.89,1.51-2.07,1.52-3,0a16.44,16.44,0,0,0-1.49-2.31,3.86,3.86,0,0,0-6.76,1.09,6.29,6.29,0,0,0-.6,2.18C389.14,35,389.18,38.08,389.18,41.38Z"/><path class="cls-1" d="M213.91,49a23.57,23.57,0,0,1,1.94-2.36,40.94,40.94,0,0,1,4.94-4.3,9.08,9.08,0,0,1,3.93-1.24c4.73-.57,7.27,3.68,6.67,7.52a12.11,12.11,0,0,1-5.65,8.52c-.27.18-.55.33-.82.5l-.83.54c.71,1.43,1.38,2.86,2.11,4.26,2.87,5.46,5.9,10.83,10.41,15.14a21.53,21.53,0,0,0,4.57,3.22,5.22,5.22,0,0,0,5.26.17l.61,1c-5.94,3.87-14.78,3.06-19.74-2a41.55,41.55,0,0,1-6-7.77c-2.51-4.25-4.59-8.75-6.77-13,2-1.87,3.76-3.45,5.38-5.19s3.14-4,3.17-6.67c0-.71-.24-1.78-.72-2.05a2.51,2.51,0,0,0-2.29.15,22.68,22.68,0,0,0-3.78,3.93A26.8,26.8,0,0,0,214,53.66a4.17,4.17,0,0,0-.3,1.74c0,4.76,0,9.52,0,14.28,0,2.2-.7,3.17-2.9,3.55a11.46,11.46,0,0,1-3.8,0c-2-.35-2.76-1.38-2.76-3.43q0-9.24,0-18.48,0-10.2,0-20.4c0-2.58-.79-3.15-3.19-2.39-.24.08-.58-.15-1.12-.3,3.3-2.63,6.65-3.81,10.53-3a3.69,3.69,0,0,1,3.13,3.46,13.13,13.13,0,0,1,.11,1.67q0,8.58,0,17.16v1.31Z"/><path class="cls-1" d="M299.16,43.64a30.36,30.36,0,0,1,4.08-2.12c4.77-1.64,9.47.28,12.06,4.8a21.28,21.28,0,0,1,2.44,11.56,18.35,18.35,0,0,1-2.41,9,12.76,12.76,0,0,1-11.17,6.51,15,15,0,0,1-7.79-1.5c-3.82-2-5.59-5.46-6.25-9.55A28.45,28.45,0,0,1,289.8,58c0-8.84,0-17.67,0-26.51,0-.36,0-.72,0-1.08-.16-2-1.21-2.63-3.1-1.9a2.05,2.05,0,0,1-.8,0c.09-.26.11-.62.29-.76A11.92,11.92,0,0,1,295,25.06c2.64.32,4.12,2.1,4.14,4.87,0,4.16,0,8.32,0,12.47C299.16,42.82,299.16,43.24,299.16,43.64Zm0,11.09c0,1.32,0,2.64,0,4a25.89,25.89,0,0,0,1.84,10c1.16,2.48,4,2.41,5.4,0a8.33,8.33,0,0,0,.95-2.44,40.07,40.07,0,0,0,.3-14.87,21.45,21.45,0,0,0-1.86-5.24,2.75,2.75,0,0,0-2.52-1.57,4.24,4.24,0,0,0-4.11,4.26C299.13,50.81,299.16,52.77,299.16,54.73Z"/><path class="cls-1" d="M170.57,68.44l.65.61c-2,3-4.72,4.69-8.41,4.35-2.18-.2-3.51-1.49-4.66-4.48l-1,1.05a10.21,10.21,0,0,1-8.81,3.43,7.3,7.3,0,0,1-6.61-6.92C141.32,62,143,58.7,147,56.71c2.42-1.2,5-2.1,7.49-3.15a5.37,5.37,0,0,0,3.44-6.14,4.42,4.42,0,0,0-3.73-3.84,6.13,6.13,0,0,0-5.49,1.37c-.91.8-.8,1.42.27,1.89,1.27.56,2.4,1.16,2.16,2.86a3.12,3.12,0,0,1-2.26,2.53,3.71,3.71,0,0,1-4-1.33,5.23,5.23,0,0,1,.25-6.05,10.28,10.28,0,0,1,3.6-2.66A17.59,17.59,0,0,1,161.39,42c4,1.41,6,4.38,6,8.6q0,8.4,0,16.79a5.6,5.6,0,0,0,.06,1.19,1.21,1.21,0,0,0,1.93.83A11.43,11.43,0,0,0,170.57,68.44ZM157.86,61c0-1.28,0-2.56,0-3.84s-.58-1.82-1.86-1.78a4.47,4.47,0,0,0-3.87,2.27,10.77,10.77,0,0,0-.63,9.69,2.64,2.64,0,0,0,4.27,1.11,4.69,4.69,0,0,0,2.1-4C157.86,63.35,157.86,62.19,157.86,61Z"/><path class="cls-1" d="M256.35,57.23c0-4.16.92-8.05,3.6-11.32,3.82-4.64,8.91-5.72,14.51-4.47s8.79,5.14,10,10.6a20.58,20.58,0,0,1-1.07,12.8c-2.48,5.79-7.35,8.82-13.76,8.57-5.56-.21-10.27-3.91-12.2-9.6a14.92,14.92,0,0,1-.67-2.54C256.56,59.93,256.48,58.58,256.35,57.23Zm9.51-1c.17,3,.11,5.13.45,7.16A17.76,17.76,0,0,0,268,68.78a3,3,0,0,0,5.38,0,10.25,10.25,0,0,0,1.3-3.31A45.08,45.08,0,0,0,275,50.67a14.57,14.57,0,0,0-1.7-5.15,3.08,3.08,0,0,0-5.3,0,7.71,7.71,0,0,0-1.25,2.94C266.33,51.33,266.09,54.23,265.87,56.2Z"/><path class="cls-1" d="M348.73,66.88c-5.85,8.74-19.6,8.71-24.7-.08-4.94-8.52-2.23-22.79,11.45-25.58a12.92,12.92,0,0,1,7.32.55c2.14.82,3.76,2.15,4.08,4.57s-1.12,4.14-3.11,5.34c-3.66,2.2-7.34,4.38-11,6.5a1.57,1.57,0,0,0-.94,1.91A11.69,11.69,0,0,0,336.92,68c3.3,2.1,6.79,1.67,10.35-1.21C347.83,66.34,348.29,66,348.73,66.88ZM331.38,56.34c2.52-1.48,4.8-2.77,7-4.15a2.14,2.14,0,0,0,.82-1.38,7.89,7.89,0,0,0-.81-5.1,2.7,2.7,0,0,0-4.72-.48,6.13,6.13,0,0,0-1,1.73C331.53,49.87,331.39,52.92,331.38,56.34Z"/><path class="cls-1" d="M423.05,66.94c-3.63,4.75-8.45,7-14.39,6.34-7.53-.89-12.34-6.64-12.54-14.26-.17-6.64,2.14-11.95,7.84-15.56a15.39,15.39,0,0,1,11.6-2.14,9.32,9.32,0,0,1,1.83.56c2.07.88,3.59,2.28,3.82,4.66s-1.14,3.92-3,5.05c-3.07,1.87-6.19,3.67-9.28,5.5l-1.35.78c-1.82,1.07-1.89,1.09-1.27,3.08a16.36,16.36,0,0,0,1.57,3.61c3,4.86,8.79,6.53,13.59,2.35C421.93,66.5,422.46,65.76,423.05,66.94Zm-17.35-10.6c2.5-1.47,4.8-2.8,7.06-4.19a1.67,1.67,0,0,0,.66-1,7.07,7.07,0,0,0-1.18-6.13,2.44,2.44,0,0,0-3.61-.41,5.18,5.18,0,0,0-1.42,1.74C405.82,49.47,405.68,52.75,405.71,56.34Z"/><path class="cls-1" d="M451.14,43.58h-3.27c-.38-2-.36-2,1.29-2.41a11.79,11.79,0,0,0,8.82-8c.37-1.08.5-1.13,2.64-.79v8.87c2.3,0,4.47,0,6.65,0,.3,0,.58-.44.87-.68-.22-.2-.41-.48-.66-.58a1.68,1.68,0,0,1-1.23-2,1.61,1.61,0,0,1,1.56-1.4,2,2,0,0,1,2.2,1.28,4,4,0,0,1-2.88,5.56,21.61,21.61,0,0,1-3.1.19c-1.07,0-2.15,0-3.29,0,0,.4-.09.71-.09,1,0,7.28,0,14.55,0,21.83a4.36,4.36,0,0,0,.49,2,2.21,2.21,0,0,0,3.19.42,22.92,22.92,0,0,0,1.89-2,4.93,4.93,0,0,1,1.21-.56c-1.77,5.32-6.08,7.85-11.09,6.84a6.24,6.24,0,0,1-5.22-6.37c0-7.24,0-14.47,0-21.71Z"/><path class="cls-1" d="M238.18,43.6h-3.44V41.74a45.5,45.5,0,0,0,5-2.06,10.58,10.58,0,0,0,5-5.9c.61-1.73.71-1.78,2.83-1.34,0,1,0,2.1,0,3.17,0,1.48.06,3,0,4.44-.06,1,.26,1.42,1.34,1.35,1.35-.09,2.72,0,4.08,0a5.62,5.62,0,0,0,1.53-.21c.25-.08.41-.41.61-.63-.19-.18-.35-.43-.58-.52-1-.38-1.57-1-1.32-2.09A1.68,1.68,0,0,1,255,36.53a2,2,0,0,1,2.15,1.55,4,4,0,0,1-3.23,5.35,18.61,18.61,0,0,1-2.38.15c-1.23,0-2.47,0-3.89,0V45.1q0,10.31,0,20.63a9.58,9.58,0,0,0,.11,1.43,2.29,2.29,0,0,0,4,1.54c.61-.49,1-1.22,1.58-1.77a4.47,4.47,0,0,1,1.17-.53C252.85,72,247,74.9,242,72.81a6,6,0,0,1-3.82-6c0-3.56,0-7.12,0-10.67s0-7.36,0-11Z"/><path class="cls-1" d="M200.47,66.86a15.3,15.3,0,0,1-15.73,6.23c-6.12-1.44-9.75-5.47-10.89-11.56-1.91-10.21,4.39-18.61,13.46-20.32a12.49,12.49,0,0,1,7.74.84c3,1.38,4.27,4.2,3.29,7.1a3.39,3.39,0,0,1-4,2.42,3.12,3.12,0,0,1-2.65-3.45c0-.72.13-1.43.17-2.15.08-1.49-.58-2.2-2.05-2.11-2.35.13-3.87,1.54-5,3.46a13.11,13.11,0,0,0-1.71,7.37,34.42,34.42,0,0,0,1.18,7.89c1.13,3.83,3.63,6.43,7.94,6.69a9.71,9.71,0,0,0,6.8-2.49C199.76,66.18,199.77,66.19,200.47,66.86Z"/><path class="cls-1" d="M424.22,67.72l.86-.68c.6.5,1.16,1,1.76,1.46a6.73,6.73,0,0,0,5.62,1.4c3.16-.65,4.61-3.54,2.86-6.26a64.48,64.48,0,0,0-4.44-5.48,46.76,46.76,0,0,1-4-5.08c-3.16-5.25-.84-10.48,5.15-11.77a14.16,14.16,0,0,1,8.47.65,5.22,5.22,0,0,1,3.5,4.47,2.93,2.93,0,0,1-1.19,3,3.2,3.2,0,0,1-3.42.1,1.9,1.9,0,0,1-.06-3.27A9.82,9.82,0,0,0,440.53,45a6.82,6.82,0,0,0-1.67-1.37,3.93,3.93,0,0,0-4.58,1.06,3.71,3.71,0,0,0,.5,4.64c1.48,1.67,3.16,3.16,4.68,4.79a53.31,53.31,0,0,1,4.49,5.12A8.82,8.82,0,0,1,438.42,73a13.12,13.12,0,0,1-13.53-4.28,7.37,7.37,0,0,1-.51-.66A2.07,2.07,0,0,1,424.22,67.72Z"/><path class="cls-1" d="M481,74.27h47.32v17H524.4V78.15h-1.67c-13.43,0-26.86,0-40.29,0-1.23,0-1.66-.33-1.51-1.54A20.35,20.35,0,0,0,481,74.27Z"/><path class="cls-1" d="M27.83,38.8c0-1,0-1.84,0-2.71,0-4.4,0-8.79,0-13.19,0-.95.26-1.3,1.22-1.22s1.74,0,2.71,0V35H74.67v3.8Z"/><path class="cls-1" d="M481,58.16h57.37V62c-.37,0-.79.07-1.21.07q-27.41,0-54.81,0c-1,0-1.49-.21-1.37-1.32A25.27,25.27,0,0,0,481,58.16Z"/><path class="cls-1" d="M17.81,54.85V51.2H75.53v3.65Z"/><path class="cls-1" d="M46,69.23H75.15v3.85H49.85V92.69H46Z"/><path class="cls-1" d="M481,43.85V40.09h25.27V20.46h3.88V43.85Z"/><path class="cls-1" d="M525.92,106.6a5.86,5.86,0,0,1-5.9-5.94,6,6,0,1,1,11.91,0A5.86,5.86,0,0,1,525.92,106.6Zm.11-8a2,2,0,0,0-2.06,2,2,2,0,1,0,4,.1A2,2,0,0,0,526,98.61Z"/><path class="cls-1" d="M51.87,101.19a4,4,0,0,1-8,.13,4,4,0,1,1,8-.13Z"/><path class="cls-1" d="M552.41,59.65a3.81,3.81,0,0,1-4,4,4,4,0,1,1,.07-7.93A3.83,3.83,0,0,1,552.41,59.65Z"/><path class="cls-1" d="M15,53.4a3.62,3.62,0,0,1-3.65,3.75,3.6,3.6,0,0,1-3.78-3.62A3.72,3.72,0,1,1,15,53.4Zm-1.87,0a1.85,1.85,0,1,0-3.7,0,1.85,1.85,0,0,0,1.8,1.84A1.83,1.83,0,0,0,13.16,53.43Z"/><path class="cls-1" d="M505,14.53a3.74,3.74,0,1,1,3.76,3.84A3.74,3.74,0,0,1,505,14.53Zm3.71-1.81a2,2,0,0,0-1.84,1.85,1.87,1.87,0,1,0,3.75-.06A2,2,0,0,0,508.66,12.72Z"/></svg>