<svg id="Layer_1" data-name="Layer 1" xmlns="http://www.w3.org/2000/svg" viewBox="0 0 250 250"><defs><style>.cls-1,.cls-2{fill:#f79537;}.cls-1{stroke:#f79537;stroke-miterlimit:10;stroke-width:0.5px;}.cls-2{font-size:22.86px;font-family:Montserrat-Medium, Montserrat;}.cls-3{fill:#313333;}</style></defs><title>new icons</title><path class="cls-1" d="M165.83,165.06a8.59,8.59,0,0,1-2.1,5.48.66.66,0,0,0-.13.74A9,9,0,0,1,159,182.43a.85.85,0,0,0-.55.73,8.64,8.64,0,0,1-4.11,6.34l-.53.34-.85.3-.22.15-1.7.34-.37.08a10.16,10.16,0,0,1-2.7-.23.53.53,0,0,0-.63.27,9,9,0,0,1-5.14,3.54l-.27.08-1.76.15h-.38l-.49-.05-.27,0-.34-.06a.46.46,0,0,0-.41-.11,13.75,13.75,0,0,1-2.64-1.31l-.11-.1a7.75,7.75,0,0,1-2.72-5.57c-.05-1.32,0-2.65,0-4q0-5.62,0-11.25,0-7.61,0-15.23,0-7.3,0-14.59c0-3.18,0-6.36,0-9.54A9.12,9.12,0,0,1,145,124a9,9,0,0,1,4.22,3.1c.15.19.28.35.55.35a8.74,8.74,0,0,1,4.54,1.36l1.15.87a17,17,0,0,1,1.64,2.09c0,.15.11.24.21.33a9.85,9.85,0,0,1,.9,4.22.52.52,0,0,0,.35.53,7.64,7.64,0,0,1,4.3,6.47,7.09,7.09,0,0,1-.45,3.1.5.5,0,0,0,.15.65,9.72,9.72,0,0,1,1.86,12.41.62.62,0,0,0,0,.78,8.45,8.45,0,0,1,1.27,3.2ZM140,162h-4.18c-.38-.07-.51.08-.5.47q0,4,0,7.95c0,.41.12.54.53.54,3.15,0,6.3,0,9.46,0a11.1,11.1,0,0,1,1.77.44,8.31,8.31,0,0,1,3.91,3.15l.12.27.16.22.1.26.18.36a9,9,0,0,1,.52,2.28c-.09.34.17.67,0,1l-.07.26a.22.22,0,0,0,0,.09,1.52,1.52,0,0,1-1.38.68c-.86-.3-1.1-.62-1.13-1.45a5.12,5.12,0,0,0-5-5c-2.92-.06-5.85,0-8.77,0-.49-.11-.37.25-.37.5q0,6.34,0,12.68a1.35,1.35,0,0,0,.1.74,4,4,0,0,0,.74,2.14c.13.14-.07.48.29.49l.23.14.06.11a1.05,1.05,0,0,0,.6.51,2.9,2.9,0,0,0,1.4.74,4.3,4.3,0,0,0,3.29-.11c.14,0,.29,0,.38-.12a5.7,5.7,0,0,0,2.38-1.7c.25-.27.29-.43-.06-.68a8.31,8.31,0,0,1-2.35-2.6,9.2,9.2,0,0,1-1.09-5.78l.21-.76,0-.36a.92.92,0,0,0,.22-.52l.27-.62.26-.24a1.44,1.44,0,0,1,1.71.14,1.38,1.38,0,0,1,.21,1.74c0,.08,0,.16-.07.24a6,6,0,1,0,11.69,1.82,2,2,0,0,1,.53-1.43l.47-.24h0c.13,0,.28,0,.39-.1a5.87,5.87,0,0,0,.59-.22,6.4,6.4,0,0,0,2.94-8.78,1.3,1.3,0,0,1,.32-1.8,6,6,0,0,0,.53-8.62,1.35,1.35,0,0,1,0-2l.26-.36a7.13,7.13,0,0,0-4.37-11.15h-.27a4.72,4.72,0,0,0-1.77-.14,4.23,4.23,0,0,0-1.16.21.83.83,0,0,0-.49.16,1.81,1.81,0,0,0-.76.3,3,3,0,0,0-1.19.7.51.51,0,0,0-.3.27,1.4,1.4,0,0,0-.66.6.93.93,0,0,0-.37.39,7.18,7.18,0,0,0-1.63,4.21,1.18,1.18,0,0,1-1.32,1.14,1.24,1.24,0,0,1-1.24-1.25,6.57,6.57,0,0,1,.09-1.25,9.83,9.83,0,0,1,4.22-6.54l.27-.17a12.26,12.26,0,0,1,2.63-1.11.49.49,0,0,0,.35-.15,18.52,18.52,0,0,1,3.06-.16l.52.11a7.52,7.52,0,0,1,2,.51c.45.21.54,0,.61-.36a5.14,5.14,0,0,0-3.38-6c-1.22-.42-1.43-.76-1.23-2.06a3.74,3.74,0,0,0,0-1.75,3.61,3.61,0,0,0-.5-1.64c-.4-.52-.5-1.29-1.24-1.54v0c.12-.17,0-.2-.14-.26a4.23,4.23,0,0,0-2.14-1.28.66.66,0,0,0-.53-.11l-.25-.09a5.7,5.7,0,0,0-6.11,2.79,1.72,1.72,0,0,1-2.22.95c0-.26-.29-.38-.39-.59a2,2,0,0,1,.13-1.52,1.37,1.37,0,0,0,.41-.6,8.73,8.73,0,0,1,3.65-3c.43-.18.31-.31,0-.54a6.34,6.34,0,0,0-5.23-1.51,5.87,5.87,0,0,0-4.45,2.87l-.2.26-.06.11a.28.28,0,0,0-.11.26,1.67,1.67,0,0,0-.39,1,4.76,4.76,0,0,0-.37,1.89q0,2.55,0,5.1c0,.19-.1.42.11.58l4.41,0a1.33,1.33,0,1,1,0,2.63l-4.41,0c-.21.23-.12.51-.12.77q0,8.38,0,16.77c0,.29-.13.62.13.89,4.57,0,9.14,0,13.71,0a5.24,5.24,0,0,0,5.43-5.13,1.31,1.31,0,1,1,2.62.11,7.92,7.92,0,0,1-1.68,4.73l-.33.41c-.15.1-.32.18-.38.37a.18.18,0,0,0-.07.1l-1,.69a18.66,18.66,0,0,1-1.9,1l-.13,0-.37.1a.63.63,0,0,0-.51.14l-.26,0a25,25,0,0,1-2.76.09l-5.59,0H140Z"/><path class="cls-1" d="M136.85,149.75a5.43,5.43,0,0,0,.27-1.12l.51-1,.23-.37.13-.16c.21-.29.68-.3.75-.73a5.51,5.51,0,0,1,2.53-1.07h1.13a1.3,1.3,0,0,1,.89,1.36,1.33,1.33,0,0,1-1,1.21c-.26,0-.54-.1-.78.08a1.9,1.9,0,0,0-1.25.65.44.44,0,0,0-.27.38l-.05.11c-.44.28-.41.73-.43,1.16a2.45,2.45,0,0,0,2.32,2.69c.62.07,1.16.21,1.4.87a1.28,1.28,0,0,1-1.19,1.77,5.13,5.13,0,0,1-5.18-4.82c0-.17,0-.34,0-.5l0-.38Z"/><path class="cls-1" d="M137.74,165.58a2.24,2.24,0,0,1,1.2-.28c1,0,2,0,3,0l4.73,0c.92,0,1.54.53,1.54,1.29a1.35,1.35,0,0,1-1.52,1.33h-7.82a1.37,1.37,0,0,1-1.38-.68A1.36,1.36,0,0,1,137.74,165.58Z"/><path class="cls-1" d="M145.34,140.89a1.33,1.33,0,1,1-.08-2.64,2.84,2.84,0,0,0,2.7-2.72,1.32,1.32,0,1,1,2.63,0A5.46,5.46,0,0,1,145.34,140.89Z"/><path class="cls-1" d="M151,165.54l.38-.24c.25.09.5-.24.76,0l1.27.24a5.43,5.43,0,0,1,3.79,5c0,.88-.43,1.45-1.17,1.5s-1.39-.4-1.46-1.36a2.74,2.74,0,0,0-2-2.61,2.2,2.2,0,0,0-.62-.1,1.35,1.35,0,0,1-1.39-.88A1.33,1.33,0,0,1,151,165.54Z"/><path class="cls-1" d="M96.9,161.67l.07-.1a5.17,5.17,0,0,0,.87-1.79c0-.58-.55-1.14-.8-1.74a9.73,9.73,0,0,1,2.24-10.7,1.15,1.15,0,0,0,.35-1.4,7.68,7.68,0,0,1,3.77-9A.86.86,0,0,0,104,136a8.79,8.79,0,0,1,1.12-4.34,12.15,12.15,0,0,1,2.6-2.8,9,9,0,0,1,4.76-1.46c.29,0,.39-.21.53-.39a9.15,9.15,0,0,1,16.4,5.36c0,6.7,0,13.4,0,20.1q0,14.54,0,29.07c0,1.6-.05,3.2,0,4.8a8,8,0,0,1-2.32,6.13l-.49.4a13.12,13.12,0,0,1-2.28,1.27h0l-.24,0c-.23.09-.54,0-.66.33h-.35a.56.56,0,0,0-.65,0h-1a.44.44,0,0,0-.38-.07h-.25l-.27,0a11,11,0,0,1-3-1.14,9.48,9.48,0,0,1-2.65-2.47.61.61,0,0,0-.73-.32,10.22,10.22,0,0,1-2.24.24l-.34,0h0a.38.38,0,0,0-.39-.09l-1.6-.3a.29.29,0,0,0-.28-.09c-.25-.26-.62-.24-.92-.37a.63.63,0,0,0-.47-.26,12.13,12.13,0,0,1-2.62-2.43,8.47,8.47,0,0,1-1.56-3.95,1,1,0,0,0-.61-.82,8.89,8.89,0,0,1-5.1-8.54,7.31,7.31,0,0,1,.49-2.52.72.72,0,0,0-.15-.84,8.56,8.56,0,0,1-2-4.81v-1.78c.1-.36,0-.77.18-1.11Zm27.92.36h-4.55l-7.83,0c-.28-.15-.59-.06-.89-.09l-.24,0a10.63,10.63,0,0,1-2.5-.92l-.53-.35-.19-.13-.69-.5c-.1-.31-.39-.43-.61-.62s-.3-.46-.45-.68a7.26,7.26,0,0,1-1.39-4.25c0-.91.41-1.45,1.17-1.51a1.3,1.3,0,0,1,1.43,1.34,7.41,7.41,0,0,0,.32,1.73,5.11,5.11,0,0,0,4.07,3.33c4.78.05,9.57,0,14.35,0,.41,0,.54-.14.48-.51a11.51,11.51,0,0,1,0-2q0-3.13,0-6.26c0-1.92,0-3.83,0-5.75a.18.18,0,0,0,0-.12v-.62c0-.9,0-1.81,0-2.71,0-.42-.17-.48-.53-.48-1.33,0-2.65,0-4,0a1.33,1.33,0,1,1,0-2.63c1.33,0,2.65,0,4,0,.37,0,.53-.09.52-.49,0-.95,0-1.89,0-2.84l0-.86v-.38l0-.25a6.43,6.43,0,0,0-.5-3.44h0a.5.5,0,0,0-.17-.36c0-.14-.05-.25-.2-.28a.32.32,0,0,0,0-.1.62.62,0,0,0-.23-.39,2.86,2.86,0,0,0-.23-.37,6.47,6.47,0,0,0-6.31-2.33,6.14,6.14,0,0,0-3.08,1.49c-.21.18-.39.33,0,.51a8.76,8.76,0,0,1,4.12,3.76,1.56,1.56,0,0,1,0,1.6,1.35,1.35,0,0,1-2.35-.41,5.84,5.84,0,0,0-5.83-3l-.25,0a4.36,4.36,0,0,0-2,.73,2,2,0,0,0-.75.48,2.31,2.31,0,0,0-.76.69l-.64.85-.28.49a4.44,4.44,0,0,0-.43,1.16l0,.25,0,.24a4.25,4.25,0,0,0,0,2,1.3,1.3,0,0,1-1,1.68l-.59.21a5.16,5.16,0,0,0-3,5.88c.1.39.24.47.6.31a9.36,9.36,0,0,1,2.19-.56l.51,0c.87.07,1.74-.08,2.61,0l.15,0a11.87,11.87,0,0,1,3.43,1.46l.37.24.66.59a9.6,9.6,0,0,1,3.27,6.61,1.44,1.44,0,0,1-.27,1.07,1.28,1.28,0,0,1-1.47.45,1.31,1.31,0,0,1-.9-1.31,6.75,6.75,0,0,0-1.57-4,3.49,3.49,0,0,0-.72-.78l-.15-.11a.51.51,0,0,0-.35-.26,6.68,6.68,0,0,0-5.08-1.47c-.14,0-.28,0-.4.07a7.11,7.11,0,0,0-4.63,11.22c.84,1.2.87,1.45,0,2.58a6,6,0,0,0,.63,8.21,1.43,1.43,0,0,1,.41,2.05,6.39,6.39,0,0,0,3.9,9l.72.4c.52.68.27,1.51.41,2.26a6,6,0,0,0,5.93,5,5.85,5.85,0,0,0,5.86-4.67,6.12,6.12,0,0,0-.3-3.53,1.29,1.29,0,0,1,.26-1.51,1.35,1.35,0,0,1,1.47-.26c.33.11.45.43.69.63l.37,1.1a1.27,1.27,0,0,0,.16.62,1.51,1.51,0,0,0,.1.76,9.5,9.5,0,0,1-.48,3.84,8.49,8.49,0,0,1-3,4c-.35.26-.4.44-.07.77A6.19,6.19,0,0,0,120,191.5c.14.15.34.09.51.12a.57.57,0,0,0,.52.13,3.89,3.89,0,0,0,2.66-.24,4.66,4.66,0,0,0,1.63-1c.11,0,.13-.13.14-.22a.39.39,0,0,0,.27-.25.45.45,0,0,0,.15-.37,3.31,3.31,0,0,0,.85-2.31,3,3,0,0,0,.08-.49q0-3.33,0-6.67a3.8,3.8,0,0,0-.08-.56v-.38a21.92,21.92,0,0,0,0-4.05h0a.18.18,0,0,0,0-.12v-.51c-.12-.35.48-1-.43-1-2.88,0-5.77,0-8.65,0a5.07,5.07,0,0,0-5,5,1.46,1.46,0,0,1-1.11,1.49l-.9-.14-.61-.71,0-.19.06-1.52.47-1.75.11-.16c.16-.13.16-.33.21-.5a.53.53,0,0,0,.2-.36l.08-.13c.28-.34.54-.69.84-1a7.91,7.91,0,0,1,6.32-2.61c2.61,0,5.22,0,7.83,0,.45,0,.64-.1.63-.59,0-1.68,0-3.37,0-5.05l0-.86v-.62c0-.39,0-.79,0-1.18.06-.55-.17-.72-.68-.6Z"/><path class="cls-1" d="M119.76,145.3h1l.6,0a7.51,7.51,0,0,1,2.17,1.14,1.74,1.74,0,0,0,.52.52l.26.33.16.26.21.27a6,6,0,0,1,.52,3.6,5.17,5.17,0,0,1-5,4.13,1.25,1.25,0,0,1-1.33-1.15,1.23,1.23,0,0,1,1.09-1.43,4.06,4.06,0,0,0,1.4-.34,2.45,2.45,0,0,0,1.31-2.4,2.59,2.59,0,0,0-2.88-2.41,1.32,1.32,0,0,1-.93-1.28A1.28,1.28,0,0,1,119.76,145.3Z"/><path class="cls-1" d="M120.4,165.29h3.54l.11,0c0,.1.13.12.23.13s.14.18.28.12l0,0,.18.39a1.28,1.28,0,0,1-1.12,1.91c-2.79,0-5.59,0-8.39,0a1.27,1.27,0,0,1-1.22-1.34,1.28,1.28,0,0,1,1.31-1.26C117,165.3,118.7,165.3,120.4,165.29Z"/><path class="cls-1" d="M111.55,135.64a1.31,1.31,0,0,1,1.28-1.48c.79,0,1.3.49,1.36,1.4a2.79,2.79,0,0,0,2.72,2.69,1.27,1.27,0,0,1,1.36,1.4,1.29,1.29,0,0,1-1.44,1.24A5.46,5.46,0,0,1,111.55,135.64Z"/><path class="cls-1" d="M107.75,165.93l.13-.06.64-.29a2.21,2.21,0,0,0,.87-.27l.25,0c.51.05,1.06-.1,1.52.26a1.35,1.35,0,0,1,.37,1.6,1.39,1.39,0,0,1-1.33.79,2.74,2.74,0,0,0-2.64,2.57c-.13,1.05-.53,1.5-1.34,1.5a1.22,1.22,0,0,1-1.29-1.32A5.36,5.36,0,0,1,107.75,165.93Z"/><text class="cls-2" transform="translate(91.58 77.24)">.YML</text><path class="cls-3" d="M130.89,211H98.17L78.9,211A6.9,6.9,0,0,1,72,206a13.53,13.53,0,0,1-.68-3.73c-.1-4.81-.09-9.62-.1-14.43,0-3.94,0-7.88.05-11.81q0-9.63,0-19.27c0-8.12.08-16.23.08-24.35,0-9.57-.06-19.14-.08-28.71q0-18.45-.06-36.9c0-3.73-.11-7.45,0-11.17.13-3.35,1.26-6.31,4.44-8a4.34,4.34,0,0,1,2-.52q31.95,0,63.89,0,10.18,0,20.36,0a1.81,1.81,0,0,1,1.56.76c2,2.32,4.09,4.54,6.15,6.8Q179,64.82,188.39,75.07a8.09,8.09,0,0,1,2.2,5.77c0,9.45.06,18.9.08,28.35q.06,46.08.08,92.15c0,2.87-.51,5.59-2.7,7.75a6.12,6.12,0,0,1-4.54,1.91c-5.51,0-11,0-16.54,0ZM73.5,129q0,36.22,0,72.44c0,.45,0,.91,0,1.36a6,6,0,0,0,4.65,5.6,17.47,17.47,0,0,0,3.87.38c8.3,0,16.6-.07,24.9-.12,1.54,0,3.09,0,4.63,0l49.8.16c6.63,0,13.27,0,19.9,0,4.2,0,6.57-2.11,7.14-6.12a25.87,25.87,0,0,0,.07-3.72c0-9.27-.12-18.54-.13-27.81q0-44.45,0-88.89c0-2.72-.35-3.06-3.11-3.06-6.7,0-13.39,0-20.09,0-.93,0-1.87-.14-2.8-.21a1,1,0,0,1-1-1,22.44,22.44,0,0,1-.25-2.43c0-7.85,0-15.69,0-23.54,0-1.61-.63-2.38-2.14-2.48-2.38-.16-4.77-.35-7.16-.35q-35.54,0-71.08,0h-.91a6,6,0,0,0-6.11,5.13,12.89,12.89,0,0,0-.19,2.44Q73.49,92.9,73.5,129Zm90.71-77.1a34,34,0,0,0-.51,4c-.05,6.09,0,12.18,0,18.27,0,1.87.63,2.49,2.53,2.49h17.36a1.77,1.77,0,0,0,1.67-1.43c.09-.31-.27-.84-.56-1.15q-7.75-8.43-15.53-16.82Z"/><path class="cls-3" d="M128.72,98.63q-17.61,0-35.21,0c-2.31,0-4.66-.09-4.74-1.77-.08-1.85,2.4-1.94,4.84-1.94q35.59,0,71.19,0c2.27,0,4.65.05,4.73,1.77.09,1.89-2.41,1.94-4.83,1.93Q146.7,98.61,128.72,98.63Z"/><path class="cls-3" d="M129.1,106.55q17.8,0,35.6,0c2.44,0,4.9.09,4.83,2s-2.5,1.79-4.74,1.79H93.59c-2.41,0-4.93-.11-4.83-2,.09-1.67,2.42-1.79,4.74-1.79Q111.3,106.58,129.1,106.55Z"/></svg>