<svg id="Layer_1" data-name="Layer 1" xmlns="http://www.w3.org/2000/svg" viewBox="0 0 250 250"><defs><style>.cls-1{fill:#f79537;}.cls-2,.cls-3{fill:none;}.cls-2{stroke:#f79537;stroke-width:5px;}.cls-2,.cls-3,.cls-4{stroke-miterlimit:10;}.cls-3{stroke:#313333;stroke-width:4px;}.cls-4{fill:#313333;stroke:#fff;stroke-width:1.4px;}</style></defs><title>new icons</title><path class="cls-1" d="M128.45,142.89a5.31,5.31,0,0,0-5.3-5.33,5.35,5.35,0,1,0-.05,10.7A5.34,5.34,0,0,0,128.45,142.89Z"/><path class="cls-2" d="M188.54,115.94c-2.46-7.83-8.75-12.24-17.91-13.41-1.59-.2-3.79-.8-4.45-1.84-6-9.31-14.9-13.94-26.81-14.52a4.74,4.74,0,0,1-3.23-2.09,30.54,30.54,0,0,0-29.77-15.4c-13.77,1.59-23.85,10-26.14,22.07-.41,2.19-1.31,3.13-3.54,3.93-9.22,3.29-15,9.39-16.2,18.13-2,15,9.53,26.28,26.61,26.38,6.07,0,11.62,0,17.69,0v-.1c0-3.32.16-3.77.16-7.09,0-.8,0-6.2,0-5.68a7.31,7.31,0,0,1,3.85-.85l.6,0h.21a10.1,10.1,0,0,1,1.57,0h.54c.29-.05.37-.26.38-.68,0-1.32-.06-2.64,0-4a.71.71,0,0,1,0-.36,20.66,20.66,0,0,1,.69-4.32l.06-.17a11.16,11.16,0,0,1,6.31-6.45l.16-.07.33-.12a11,11,0,0,1,2.89-.63h.18l.38,0h.56l.38,0h.18a11,11,0,0,1,2.89.63l.33.12.16.07a11.16,11.16,0,0,1,6.31,6.45l.06.17a20.66,20.66,0,0,1,.69,4.32.71.71,0,0,1,0,.36c.05,1.32,0,2.64,0,4,0,.43.09.63.38.68h.54a10.1,10.1,0,0,1,1.57,0h.21l.09,0c1.16.15,2.13-.38,2.82.39l.07.08.17.21.1.14.13.2.09.16.12.23,0,.11a5.16,5.16,0,0,1,.45,2.15q0,5,0,10v.08h26.06c5.38,0,10.35-1.21,14.48-4.35C188.54,129.81,190.84,123.26,188.54,115.94Z"/><circle class="cls-3" cx="124.5" cy="118.5" r="78.5"/><path class="cls-4" d="M123.6,160.45c-5.06,0-10.12,0-15.18,0a8.91,8.91,0,0,1-2.71-.46,3.77,3.77,0,0,1-2.61-3.7q0-14.15,0-28.29c0-2.53,1.71-4.19,4.4-4.35.71,0,1.43,0,2.15,0,1,0,1.42-.42,1.43-1.4,0-1.19,0-2.38,0-3.58a10.43,10.43,0,0,1,5-9.28,13.58,13.58,0,0,1,17.13,1.7,9.87,9.87,0,0,1,3,7.3c0,1.27,0,2.54,0,3.81,0,1,.44,1.41,1.47,1.44a19.31,19.31,0,0,1,2.85.15,4,4,0,0,1,3.66,4.42c0,9.27,0,18.54,0,27.82a4.21,4.21,0,0,1-3.65,4.29,11,11,0,0,1-1.82.16Zm0-33.5H108.69c-1.26,0-1.64.37-1.64,1.58q0,13.51,0,27c0,1.11.33,1.47,1.43,1.57.24,0,.48,0,.71,0H138c.21,0,.42,0,.64,0,1.14-.07,1.52-.43,1.54-1.57s0-2.17,0-3.26q0-11.76,0-23.52c0-1.49-.35-1.83-1.82-1.83Zm0-3.34h7.23c1.27,0,1.7-.47,1.68-1.75s0-2.28,0-3.42a7.75,7.75,0,0,0-1.85-5.12,9.53,9.53,0,0,0-10.45-2.52,8,8,0,0,0-5.54,8c0,1,0,2.07,0,3.1,0,1.26.41,1.72,1.69,1.73Z"/><line class="cls-3" x1="183.13" y1="64.32" x2="72.26" y2="175.19"/></svg>