<svg id="Layer_1" data-name="Layer 1" xmlns="http://www.w3.org/2000/svg" viewBox="0 0 58.33 58.33"><defs><style>.cls-1{fill:none;stroke:#f1592e;stroke-miterlimit:10;}.cls-2{fill:#f1592e;}</style></defs><title>elements</title><path class="cls-1" d="M29.18,47.84c-2.42,0-4.84,0-7.26,0a2.76,2.76,0,0,1-2.3-1.1q-4.54-5.67-9.1-11.32A2.56,2.56,0,0,1,10,33.14Q11.63,26,13.27,18.88a2.49,2.49,0,0,1,1.42-1.76L28,10.76a2.61,2.61,0,0,1,2.35,0Q36.91,13.9,43.47,17a2.84,2.84,0,0,1,1.65,2.07q1.58,7,3.21,14a2.7,2.7,0,0,1-.56,2.45q-4.53,5.62-9.05,11.26a2.73,2.73,0,0,1-2.27,1.09Z"/><path class="cls-2" d="M28.59,18.38c-.06-.49-.11-1-.19-1.46a3.22,3.22,0,0,1,0-.79.82.82,0,0,1,.74-.75A.78.78,0,0,1,30,16a5,5,0,0,1-.11,1.46,5.77,5.77,0,0,1-.08.86c-.09.43.3.68.34,1.06,0,.08.12.06.19.07a10.33,10.33,0,0,1,6.2,3c.12.12.22.1.39.09,1-.1,1.41-.93,2-1.51a2.49,2.49,0,0,1,.5-.4.82.82,0,0,1,1.07.18.83.83,0,0,1-.1,1.08,2.72,2.72,0,0,1-.63.47c-.38.23-.74.5-1.13.69s-.45.7-.75,1c-.08.08.05.17.1.25a10.58,10.58,0,0,1,1.59,6c0,.1,0,.19,0,.29s-.15.57,0,.65c.31.18.51.53.92.57s1,.15,1.46.16a2,2,0,0,1,.9.21.82.82,0,0,1,.45.9.81.81,0,0,1-.82.62,2.08,2.08,0,0,1-.8-.2c-.43-.18-.89-.3-1.31-.48s-.81.09-1.21.08c-.08,0-.1.12-.13.2a10.31,10.31,0,0,1-4.28,5.37c-.15.1-.13.2-.15.37-.11.95.56,1.52,1,2.22a2.21,2.21,0,0,1,.32.72.81.81,0,0,1-.47.94.85.85,0,0,1-1-.36,2.71,2.71,0,0,1-.28-.66c-.13-.4-.3-.79-.39-1.19s-.55-.71-.85-1c-.07-.08-.18,0-.27,0a10.32,10.32,0,0,1-6.76,0c-.2-.07-.29,0-.47.11-.81.5-.83,1.37-1.13,2.11a4.49,4.49,0,0,1-.27.62.81.81,0,0,1-1.44-.73,4.83,4.83,0,0,1,.37-.65,8.83,8.83,0,0,1,.65-1c.33-.4.18-.88.29-1.32,0-.13-.15-.17-.24-.23a10.38,10.38,0,0,1-3.68-4,13.59,13.59,0,0,1-.54-1.25c-.07-.17-.17-.17-.32-.23-.92-.33-1.66.2-2.46.46a2.1,2.1,0,0,1-.7.14.82.82,0,0,1-.83-.61.84.84,0,0,1,.51-.93,3.34,3.34,0,0,1,1-.17,5.91,5.91,0,0,1,.93-.09c.55,0,.86-.41,1.28-.6.08,0,0-.13,0-.2a10.26,10.26,0,0,1,1.51-6.8.3.3,0,0,0,0-.3c-.31-.93-1.18-1.19-1.88-1.64a2.75,2.75,0,0,1-.54-.41.86.86,0,0,1-.12-1.06.83.83,0,0,1,1.06-.22,2.69,2.69,0,0,1,.71.6c.32.32.67.62,1,1s.72.19,1,.43c.05,0,.12-.06.17-.11a10.23,10.23,0,0,1,6.27-3c.15,0,.26-.06.26-.22s.18-.27.24-.42A1.86,1.86,0,0,0,28.59,18.38ZM28,23.71h0c0-.45.05-.91.07-1.36,0-.78,0-.79-.74-.62a8.21,8.21,0,0,0-3.75,1.94c-.11.1-.32.19-.05.37,1.08.75,2.15,1.53,3.23,2.28a.68.68,0,0,0,1.12-.53C28,25.1,28,24.41,28,23.71Zm9.42,6a8.06,8.06,0,0,0-1.06-4c-.1-.17-.16-.22-.33-.07l-2.86,2.57a.7.7,0,0,0,.25,1.28c1.26.39,2.52.74,3.79,1.11.16,0,.22,0,.22-.16S37.44,30,37.44,29.71ZM32.66,32a.69.69,0,0,0-.59,1c.49,1.22,1,2.43,1.5,3.65.07.16.12.23.3.11a8.33,8.33,0,0,0,3-3.76c.09-.22,0-.26-.18-.29-.46-.07-.92-.16-1.38-.24Zm-11.77-2.2c0,.23,0,.45,0,.68s.06.24.24.19c1.28-.38,2.57-.73,3.85-1.13a.67.67,0,0,0,.22-1.17c-1-.88-1.95-1.74-2.91-2.61-.19-.17-.26-.14-.37.07A8.12,8.12,0,0,0,20.89,29.75Zm.53,2.92a.3.3,0,0,0,0,.09,8.24,8.24,0,0,0,3.08,3.92c.21.15.23,0,.29-.14.48-1.16,1-2.32,1.43-3.48.28-.69-.09-1.16-.81-1.05C24.08,32.22,22.75,32.45,21.42,32.68Zm8.91-11.07c-.16,0-.12.15-.11.32.07,1.24.14,2.48.2,3.72a.75.75,0,0,0,.41.74.74.74,0,0,0,.8-.15l2.78-2c.55-.39.56-.4,0-.84A8.48,8.48,0,0,0,30.33,21.61ZM29.4,38.13a8.14,8.14,0,0,0,2.16-.34c.16,0,.26-.09.15-.29-.65-1.16-1.28-2.33-1.94-3.48a.66.66,0,0,0-1.19,0c-.65,1.15-1.27,2.3-1.92,3.45-.1.18-.06.24.12.29A8.83,8.83,0,0,0,29.4,38.13Zm-.24-9.65c-.22.08-.51-.12-.69.12s-.66.58-.69,1a1.57,1.57,0,0,0,.29,1.15,1.74,1.74,0,0,0,1.11.51,1.7,1.7,0,0,0,1.08-.5,1.58,1.58,0,0,0,.31-1.15c0-.4-.43-.66-.68-1S29.41,28.55,29.16,28.48Z"/></svg>