<svg id="Layer_1" data-name="Layer 1" xmlns="http://www.w3.org/2000/svg" viewBox="0 0 308 279"><defs><style>.cls-1{fill:#fff;}.cls-2,.cls-3{fill:none;stroke:#fff;stroke-miterlimit:10;}.cls-2{stroke-width:7px;}.cls-3{stroke-width:4px;}</style></defs><title>new icons</title><path class="cls-1" d="M148.46,183.31a8,8,0,0,0-8-8,8.08,8.08,0,1,0-.08,16.16A8.07,8.07,0,0,0,148.46,183.31Z"/><path class="cls-2" d="M239.18,142.63c-3.71-11.82-13.2-18.48-27-20.25-2.4-.31-5.72-1.2-6.72-2.78-9-14-22.49-21-40.48-21.93a7.16,7.16,0,0,1-4.87-3.15c-9-15.94-26.93-25.33-44.94-23.24-20.79,2.41-36,15-39.46,33.32-.63,3.31-2,4.73-5.34,5.93-13.92,5-22.67,14.17-24.46,27.37C42.8,160.56,60.25,177.57,86,177.73c9.16.06,17.54.06,26.7.06v-.14c0-5,.24-5.69.24-10.71,0-1.2,0-9.36,0-8.58a11,11,0,0,1,5.81-1.29l.91,0h.14l.17,0a15.25,15.25,0,0,1,2.38,0h.82c.44-.08.57-.39.57-1,0-2-.09-4,0-6a1.07,1.07,0,0,1-.06-.55,31.19,31.19,0,0,1,1-6.52l.09-.26a16.85,16.85,0,0,1,9.52-9.74l.25-.1.49-.19a16.62,16.62,0,0,1,4.37-1h.27l.57,0h.85l.57,0H142a16.62,16.62,0,0,1,4.37,1l.49.19.25.1a16.85,16.85,0,0,1,9.52,9.74l.09.26a31.19,31.19,0,0,1,1,6.52,1.07,1.07,0,0,1-.06.55c.08,2,0,4,0,6,0,.64.13,1,.57,1h.82a15.25,15.25,0,0,1,2.38,0l.17,0h.14l.13,0c1.75.23,3.21-.57,4.26.58l.11.12.26.32.15.21.2.3.14.24.18.35.07.16a7.78,7.78,0,0,1,.68,3.24q0,7.52,0,15v.12h39.34c8.12,0,15.62-1.82,21.86-6.57C239.17,163.57,242.65,153.68,239.18,142.63Z"/><circle class="cls-3" cx="142.5" cy="146.5" r="118.5"/><path class="cls-1" d="M139.77,211.19c-7.64,0-15.28,0-22.91,0a13.46,13.46,0,0,1-4.1-.69,5.68,5.68,0,0,1-3.93-5.58q0-21.36,0-42.71c0-3.82,2.59-6.33,6.65-6.56,1.08-.06,2.16,0,3.24,0,1.47,0,2.14-.64,2.16-2.11,0-1.8,0-3.6,0-5.4-.12-6.09,2.62-10.68,7.55-14a20.51,20.51,0,0,1,25.86,2.57,14.89,14.89,0,0,1,4.47,11c0,1.92,0,3.84,0,5.76,0,1.56.67,2.12,2.23,2.17a29.14,29.14,0,0,1,4.3.22c3.7.67,5.53,2.94,5.53,6.67,0,14,0,28,0,42a6.35,6.35,0,0,1-5.51,6.48,16.55,16.55,0,0,1-2.74.23Q151.17,211.21,139.77,211.19Zm0-50.57H117.26c-1.9,0-2.47.56-2.47,2.39q0,20.39,0,40.78c0,1.68.5,2.22,2.16,2.36.36,0,.72,0,1.08,0h43.54c.32,0,.64,0,1,0,1.72-.1,2.3-.65,2.32-2.36s0-3.28,0-4.92q0-17.75.05-35.5c0-2.24-.52-2.76-2.74-2.77Zm0-5h10.92c1.92,0,2.56-.71,2.53-2.64,0-1.72,0-3.44,0-5.16a11.69,11.69,0,0,0-2.79-7.72,14.38,14.38,0,0,0-15.78-3.8,12.14,12.14,0,0,0-8.36,12c0,1.56,0,3.12,0,4.68,0,1.9.61,2.6,2.56,2.61Z"/><line class="cls-3" x1="231" y1="64.71" x2="63.64" y2="232.07"/></svg>