<svg id="Layer_1" data-name="Layer 1" xmlns="http://www.w3.org/2000/svg" viewBox="0 0 113 125"><defs><style>.cls-1{fill:#fff;}</style></defs><title>mobile elements</title><path class="cls-1" d="M29.73,23.74c2.88-.13,5.75-.37,8.63-.37q25.4-.05,50.8,0A20.19,20.19,0,0,1,108.67,40.1a30,30,0,0,1,.35,4.45q0,24.54,0,49.09A20.16,20.16,0,0,1,91.48,113.8a16.92,16.92,0,0,1-2.28.14c-16.49,0-33,.08-49.47.05a51.15,51.15,0,0,1-9.38-.6A19.2,19.2,0,0,1,15.16,96.94a76.87,76.87,0,0,1-.3-8.65q0-16.54,0-33.08c0-4.29,0-8.58.13-12.86a44.17,44.17,0,0,1,.75-5.65c.12-.73.59-.48.95-.14.74.7,1.46,1.41,2.18,2.13,2.35,2.36,4.69,4.75,7.06,7.09a3.09,3.09,0,0,1,1,2.37q0,21.59,0,43.18a30.5,30.5,0,0,0,.25,4.37,7.79,7.79,0,0,0,5.34,6.38,18,18,0,0,0,6.62,1.15q22.73,0,45.47,0a17.74,17.74,0,0,0,6.8-1.22,9.15,9.15,0,0,0,6.12-8.33c.2-3.7,0-7.43,0-11.14q-.08-8.1-.22-16.2c-.12-7.27-.22-14.54-.39-21.81a10.61,10.61,0,0,0-9.07-10.14,17.44,17.44,0,0,0-2.65-.2q-21.64,0-43.27,0a5.21,5.21,0,0,1-4.05-1.69C35.47,30,33,27.61,30.58,25.18c-.33-.33-.62-.7-.93-1.05Z"/><path class="cls-1" d="M50.52,39.75c.08.69.18,1.15.18,1.62q0,7.39,0,14.77c0,1.42-.23,1.65-1.66,1.65-4.48,0-9,0-13.44,0a11.82,11.82,0,0,1-1.87-.33c.93-2.08,2.88-3,4.08-4.61L8.49,23.71,4,28.45V11H21.28L16,16.49c1.53,1.38,3,2.64,4.43,4q9.49,9.38,18.93,18.81c1.62,1.61,3.22,3.25,4.85,4.85.89.88,1.46.82,2.33-.11Z"/><path class="cls-1" d="M45.66,71.75c2.48,0,5,0,7.43,0,3.54,0,5.63,2.11,5.63,5.63q0,7.48,0,15c0,3.42-2.09,5.56-5.5,5.58q-7.62.05-15.24,0c-3.36,0-5.48-2.24-5.48-5.63q0-7.43,0-14.86a5.28,5.28,0,0,1,5.63-5.68C40.64,71.73,43.15,71.75,45.66,71.75Z"/><path class="cls-1" d="M78.16,71.75c2.45,0,4.89,0,7.34,0,3.63,0,5.73,2.13,5.74,5.75q0,7.29,0,14.58c0,3.72-2.12,5.83-5.86,5.84q-7.34,0-14.67,0c-3.55,0-5.64-2.08-5.64-5.62q0-7.48,0-15c0-3.49,2.07-5.56,5.57-5.59C73.14,71.73,75.65,71.75,78.16,71.75Z"/><path class="cls-1" d="M65.06,52.3c0-2.48,0-5,0-7.43,0-3.46,2.13-5.58,5.59-5.59q7.48,0,15,0a5.28,5.28,0,0,1,5.63,5.6q0,7.48,0,15c0,3.5-2.17,5.61-5.68,5.62q-7.48,0-15,0a5.14,5.14,0,0,1-5.54-5.52C65,57.38,65.06,54.84,65.06,52.3Z"/></svg>