<svg id="Layer_1" data-name="Layer 1" xmlns="http://www.w3.org/2000/svg" xmlns:xlink="http://www.w3.org/1999/xlink" viewBox="0 0 720 769"><defs><style>.cls-1,.cls-4,.cls-5{fill:none;}.cls-2{fill:#273274;}.cls-17,.cls-3,.cls-8,.cls-9{fill:#fff;}.cls-4,.cls-5{stroke:#fff;}.cls-11,.cls-12,.cls-13,.cls-14,.cls-16,.cls-17,.cls-4,.cls-5,.cls-8,.cls-9{stroke-miterlimit:10;}.cls-13,.cls-4,.cls-8{stroke-width:4px;}.cls-12,.cls-16,.cls-5,.cls-9{stroke-width:2px;}.cls-6{clip-path:url(#clip-path);}.cls-7{clip-path:url(#clip-path-2);}.cls-11,.cls-12,.cls-13,.cls-14,.cls-16,.cls-17,.cls-8,.cls-9{stroke:#273274;}.cls-10,.cls-11,.cls-12,.cls-14{fill:#ff544e;}.cls-11,.cls-17{stroke-width:3px;}.cls-13,.cls-15,.cls-16{fill:#ff8c58;}.cls-14{stroke-width:5px;}</style><clipPath id="clip-path"><rect class="cls-1" x="2" y="498.62" width="720" height="275.77"/></clipPath><clipPath id="clip-path-2"><rect class="cls-1" x="-101.9" y="498.62" width="991.98" height="269.75"/></clipPath></defs><title>mobile elements</title><rect class="cls-2" width="720" height="769"/><path class="cls-3" d="M174.86,119.51h5.62V101.94a3.07,3.07,0,0,0-.15-1.08,1.52,1.52,0,0,0-.43-.63,1.48,1.48,0,0,0-.66-.31,4.32,4.32,0,0,0-.85-.08,8.26,8.26,0,0,0-1.68.22,14,14,0,0,0-2.12.65,17.64,17.64,0,0,0-2.24,1.07,10.82,10.82,0,0,0-2,1.44A7.18,7.18,0,0,0,168.9,105a4.28,4.28,0,0,0-.56,2.13,3.92,3.92,0,0,0,.26,1.58,2.47,2.47,0,0,0,.6.88,1.58,1.58,0,0,0,.69.37,2.72,2.72,0,0,0,.51.08,2.69,2.69,0,0,0,1.27-.26,7.43,7.43,0,0,0,.9-.56l.76-.55a1.34,1.34,0,0,1,.82-.26,2.11,2.11,0,0,1,.79.17,2.25,2.25,0,0,1,.77.54,3.05,3.05,0,0,1,.6,1,3.86,3.86,0,0,1,.25,1.47,4.45,4.45,0,0,1-.48,2.13,4.74,4.74,0,0,1-1.24,1.5,5.11,5.11,0,0,1-1.73.89,6.63,6.63,0,0,1-1.93.29,6.73,6.73,0,0,1-2.67-.51,5.9,5.9,0,0,1-2-1.41,6,6,0,0,1-1.27-2.1,7.52,7.52,0,0,1-.43-2.56,9.69,9.69,0,0,1,.77-3.91,11,11,0,0,1,2.11-3.2,14.28,14.28,0,0,1,3.15-2.48,20.63,20.63,0,0,1,3.91-1.78,26.25,26.25,0,0,1,4.38-1.07,29.75,29.75,0,0,1,4.57-.35,12.7,12.7,0,0,1,3.94.48,5.23,5.23,0,0,1,2.07,1.16,2.68,2.68,0,0,1,.79,1.42,7.8,7.8,0,0,1,.12,1.24v18.21H202V104.66A25.06,25.06,0,0,1,203.29,96a17.39,17.39,0,0,1,3.43-5.85,12.87,12.87,0,0,1,4.69-3.3,13.85,13.85,0,0,1,5.16-1,20.68,20.68,0,0,1,3.35.26,11.59,11.59,0,0,1,2.78.79,5.53,5.53,0,0,1,1.9,1.31A2.66,2.66,0,0,1,225.3,90a2.79,2.79,0,0,1-.52,1.64,2,2,0,0,1-.57.54,1.24,1.24,0,0,1-.66.2,1.55,1.55,0,0,1-1-.34,4.57,4.57,0,0,1-.82-.85q-.39-.51-.76-1.11a7.48,7.48,0,0,0-.83-1.11,4.41,4.41,0,0,0-1.05-.85,2.73,2.73,0,0,0-1.39-.34,4.22,4.22,0,0,0-3,1,6.56,6.56,0,0,0-1.7,3,22.35,22.35,0,0,0-.76,5q-.17,3-.17,6.79v15.93h6.21v2.72h-6.21V141a2.41,2.41,0,0,0,.39,1.44,1.36,1.36,0,0,0,1.19.54,4.15,4.15,0,0,0,1.61-.31c.49-.21.93-.4,1.3-.59l.53,1.14q-.68.46-1.59,1a18.22,18.22,0,0,1-2,1,15.82,15.82,0,0,1-2.35.74,11.4,11.4,0,0,1-2.61.29,8.71,8.71,0,0,1-3.4-.56,5,5,0,0,1-2-1.47,4.88,4.88,0,0,1-.94-2.05,11.61,11.61,0,0,1-.23-2.31V122.23H190.6V137.6a16.44,16.44,0,0,1-1.53,7.32,14.78,14.78,0,0,1-4.18,5.2,18.13,18.13,0,0,1-6.25,3.12,27.79,27.79,0,0,1-7.7,1,17.07,17.07,0,0,1-3-.26,12.38,12.38,0,0,1-2.56-.73,5.75,5.75,0,0,1-1.78-1.1,1.88,1.88,0,0,1-.66-1.37,4.32,4.32,0,0,1,.15-1.13,3.54,3.54,0,0,1,.46-1,2.87,2.87,0,0,1,.76-.77,1.73,1.73,0,0,1,1-.31.75.75,0,0,1,.6.34,6.51,6.51,0,0,1,.54.85q.28.51.63,1.1A4.81,4.81,0,0,0,168,151a4.94,4.94,0,0,0,1.38.85,5.18,5.18,0,0,0,2,.34,9,9,0,0,0,4.09-.86,7.61,7.61,0,0,0,2.83-2.44,11.06,11.06,0,0,0,1.65-3.75,19.78,19.78,0,0,0,.54-4.77V122.23h-5.62Z"/><path class="cls-3" d="M232.47,113.64a7.3,7.3,0,0,0-1.94.25,6.76,6.76,0,0,0-1.54.62,3.64,3.64,0,0,0-1,.82,1.36,1.36,0,0,0-.37.85.69.69,0,0,0,.48.66l1.07.46a3.58,3.58,0,0,1,1.07.74,2,2,0,0,1,.48,1.47,2.68,2.68,0,0,1-.26,1.19,3.22,3.22,0,0,1-1.76,1.61,3.46,3.46,0,0,1-1.25.23,3.59,3.59,0,0,1-2.79-1.17,4.45,4.45,0,0,1-1.07-3.12,5.29,5.29,0,0,1,1-3.23,7.71,7.71,0,0,1,2.58-2.21,13,13,0,0,1,3.6-1.28,20,20,0,0,1,8.61.11,11.66,11.66,0,0,1,3.87,1.67,8.63,8.63,0,0,1,2.69,2.9,8.48,8.48,0,0,1,1,4.26v17.44q0,.28,0,.62a2,2,0,0,0,.15.62,1.15,1.15,0,0,0,.37.46,1.17,1.17,0,0,0,.71.19,1.55,1.55,0,0,0,1-.42,8.5,8.5,0,0,0,.85-.85l.77.65q-.46.65-1.11,1.42a8.9,8.9,0,0,1-3.74,2.59,8,8,0,0,1-2.81.46,5.54,5.54,0,0,1-3.46-1.16,5.61,5.61,0,0,1-2-3.57,13.06,13.06,0,0,1-2.05,2.22,11.07,11.07,0,0,1-2.18,1.45,9.51,9.51,0,0,1-2.24.8,10.54,10.54,0,0,1-2.27.25,9,9,0,0,1-2.87-.46,6.86,6.86,0,0,1-2.49-1.47,7.2,7.2,0,0,1-1.76-2.61,10.25,10.25,0,0,1-.66-3.92,8.61,8.61,0,0,1,1.11-4.6,9.94,9.94,0,0,1,2.92-3,19.74,19.74,0,0,1,4.11-2.08q2.3-.86,4.71-1.82a5,5,0,0,0,2.61-2.12,5.67,5.67,0,0,0,.82-2.89,5,5,0,0,0-1.34-3.66A4.88,4.88,0,0,0,232.47,113.64Zm4.91,13.52a1.43,1.43,0,0,0-.49-1.17,1.94,1.94,0,0,0-1.27-.4,4.47,4.47,0,0,0-2.05.49,5.07,5.07,0,0,0-1.71,1.45,7.32,7.32,0,0,0-1.17,2.36,11.06,11.06,0,0,0-.43,3.26,13.86,13.86,0,0,0,.26,3,5.77,5.77,0,0,0,.71,1.87,2.57,2.57,0,0,0,1,1,2.84,2.84,0,0,0,1.23.28,3,3,0,0,0,1.51-.42,4.51,4.51,0,0,0,1.23-1.07,5.37,5.37,0,0,0,.83-1.45,4.46,4.46,0,0,0,.31-1.61Z"/><path class="cls-3" d="M274.58,121.79a3.88,3.88,0,0,1-1.61-.29,2.81,2.81,0,0,1-1-.79,3.23,3.23,0,0,1-.59-1.1,4.21,4.21,0,0,1-.19-1.25,11.54,11.54,0,0,1,.11-1.61,5.33,5.33,0,0,0,0-1.39,1.57,1.57,0,0,0-.48-1,2.1,2.1,0,0,0-1.42-.37,5,5,0,0,0-2.28.62,6.45,6.45,0,0,0-2.19,1.95,11.3,11.3,0,0,0-1.64,3.41,17,17,0,0,0-.65,5,27,27,0,0,0,.6,5.91,14.21,14.21,0,0,0,1.81,4.55,8.7,8.7,0,0,0,3,2.92,8.24,8.24,0,0,0,4.2,1,8.34,8.34,0,0,0,2.05-.25,9.09,9.09,0,0,0,1.84-.68,11.8,11.8,0,0,0,1.65-1q.79-.57,1.53-1.22l.77.74a21.26,21.26,0,0,1-1.82,2.1,14.93,14.93,0,0,1-2.69,2.15,15.5,15.5,0,0,1-3.67,1.67,15.84,15.84,0,0,1-4.79.66,13.78,13.78,0,0,1-5.23-1,13.52,13.52,0,0,1-4.52-3,14.8,14.8,0,0,1-3.16-4.8,16.46,16.46,0,0,1-1.19-6.44,17.86,17.86,0,0,1,.71-5.17,17,17,0,0,1,1.93-4.28,16.07,16.07,0,0,1,2.84-3.37,18,18,0,0,1,3.41-2.42,16.5,16.5,0,0,1,3.66-1.47,14.1,14.1,0,0,1,3.6-.49,13.54,13.54,0,0,1,4,.53A9,9,0,0,1,276,113a5.69,5.69,0,0,1,1.68,2,5.2,5.2,0,0,1,.56,2.33,6.26,6.26,0,0,1-.23,1.71,4.33,4.33,0,0,1-.68,1.42,3.28,3.28,0,0,1-1.13,1A3.35,3.35,0,0,1,274.58,121.79Z"/><path class="cls-3" d="M293.16,119.51q1.08-1.45,2.31-2.95a21.33,21.33,0,0,1,2.66-2.7,13.56,13.56,0,0,1,3.09-2,8.57,8.57,0,0,1,3.64-.77,5.68,5.68,0,0,1,2.93.7,6.39,6.39,0,0,1,1.9,1.67,6.17,6.17,0,0,1,1,2,6.84,6.84,0,0,1,.29,1.79,12,12,0,0,1-.36,2.82,10.59,10.59,0,0,1-1.2,2.9,12.92,12.92,0,0,1-2.27,2.78,15.46,15.46,0,0,1-3.58,2.45,106.76,106.76,0,0,0,5.65,10.57,52.9,52.9,0,0,0,5.29,7.29,20.73,20.73,0,0,0,4.89,4.21,9,9,0,0,0,4.48,1.36,3.06,3.06,0,0,0,.74-.09,5.24,5.24,0,0,0,.68-.22,6.68,6.68,0,0,0,.71-.31l.59,1.08q-.83.46-1.7.88a12,12,0,0,1-2,.73,18.22,18.22,0,0,1-2.56.49,27.65,27.65,0,0,1-3.46.19,15.21,15.21,0,0,1-3.6-.43,12.3,12.3,0,0,1-3.56-1.54,20.14,20.14,0,0,1-3.63-3,33,33,0,0,1-3.77-4.69,67.26,67.26,0,0,1-4-6.76q-2-3.92-4.23-9.17a32.34,32.34,0,0,0,4.66-4.06,20,20,0,0,0,2.56-3.38,8.8,8.8,0,0,0,1.08-2.69,11.3,11.3,0,0,0,.22-2c0-.08,0-.22,0-.42a1.37,1.37,0,0,0-.2-.57,1.61,1.61,0,0,0-.49-.49,1.64,1.64,0,0,0-.91-.22,3.65,3.65,0,0,0-2.31,1,13.65,13.65,0,0,0-2.24,2.41,23.29,23.29,0,0,0-1.93,3.09q-.87,1.65-1.42,3v15.93a4,4,0,0,1-.14,1,2.22,2.22,0,0,1-.65,1,4.14,4.14,0,0,1-1.48.85,7.82,7.82,0,0,1-2.61.36,6.83,6.83,0,0,1-2.56-.39,3.58,3.58,0,0,1-1.37-.91,2.37,2.37,0,0,1-.56-1.08,4.89,4.89,0,0,1-.11-.9V100.55a2.87,2.87,0,0,0-.42-1.56,1.53,1.53,0,0,0-1.41-.66,2.26,2.26,0,0,0-.91.17,3.89,3.89,0,0,0-.82.51l-.62-.74a18.39,18.39,0,0,1,1.57-1.16,11.48,11.48,0,0,1,1.9-1,14.25,14.25,0,0,1,2.21-.71,10.67,10.67,0,0,1,2.47-.28,7.3,7.3,0,0,1,3.12.54A4,4,0,0,1,292.42,97a3.82,3.82,0,0,1,.63,1.67,13,13,0,0,1,.11,1.56Z"/><path class="cls-3" d="M327.18,113.77v22.81a3.24,3.24,0,0,0,.62,2.27,2.26,2.26,0,0,0,1.7.63A2.48,2.48,0,0,0,331,139a5.44,5.44,0,0,0,1.11-1.05,6.5,6.5,0,0,0,1-1.51l1,.43q-.46,1-1.1,2.16a8.55,8.55,0,0,1-4.32,3.86,10.22,10.22,0,0,1-4,.68,8.49,8.49,0,0,1-2.61-.4,6.12,6.12,0,0,1-2.22-1.27,6.33,6.33,0,0,1-1.56-2.16,7.53,7.53,0,0,1-.59-3.12V113.77h-3.46v-2.22a9.35,9.35,0,0,0,2.41-.45,12,12,0,0,0,3.17-1.5,12.58,12.58,0,0,0,3-2.81,10.72,10.72,0,0,0,2-4.35h2.47v9.11h5q2.47,0,2.47-.83a.41.41,0,0,0-.31-.42c-.21-.07-.44-.17-.7-.28a2.22,2.22,0,0,1-.69-.48,1.4,1.4,0,0,1-.31-1,1.75,1.75,0,0,1,.54-1.36,2,2,0,0,1,1.4-.49,2,2,0,0,1,1,.23,2.11,2.11,0,0,1,.7.62,2.79,2.79,0,0,1,.42.88,3.64,3.64,0,0,1,.14,1,4.38,4.38,0,0,1-1.16,3.2,5,5,0,0,1-3.72,1.19Z"/><path class="cls-3" d="M335.89,127.35a19.6,19.6,0,0,1,1.17-7.09,15,15,0,0,1,3.13-5.08,12.69,12.69,0,0,1,4.55-3.06,14.71,14.71,0,0,1,5.43-1,15.8,15.8,0,0,1,5.43.94,12.4,12.4,0,0,1,4.55,2.89,14.11,14.11,0,0,1,3.13,4.92,19.22,19.22,0,0,1,1.17,7.05,20.26,20.26,0,0,1-1.17,7.16,15.94,15.94,0,0,1-3.13,5.25,13,13,0,0,1-4.55,3.23,13.83,13.83,0,0,1-5.43,1.1,14.53,14.53,0,0,1-5.43-1,12.85,12.85,0,0,1-4.55-3.07,15,15,0,0,1-3.13-5.09A19.72,19.72,0,0,1,335.89,127.35Zm19-.31q0-2.47-.17-4.77a21.39,21.39,0,0,0-.66-4.09,7.22,7.22,0,0,0-1.42-2.86,3.08,3.08,0,0,0-2.44-1.06,3,3,0,0,0-2.44,1.13,7.8,7.8,0,0,0-1.42,3,21.57,21.57,0,0,0-.65,4.18q-.16,2.35-.15,4.82t.15,4.83a21.9,21.9,0,0,0,.65,4.21,7.79,7.79,0,0,0,1.42,3,3,3,0,0,0,2.44,1.13,3,3,0,0,0,2.44-1.17,8.28,8.28,0,0,0,1.42-3.09,24.18,24.18,0,0,0,.66-4.32Q354.87,129.51,354.88,127Z"/><path class="cls-3" d="M369.23,100.55a2.88,2.88,0,0,0-.42-1.56,1.53,1.53,0,0,0-1.4-.66,2.26,2.26,0,0,0-.91.17,3.88,3.88,0,0,0-.82.51l-.62-.74a17.28,17.28,0,0,1,1.59-1.16,12.38,12.38,0,0,1,1.9-1,13.68,13.68,0,0,1,2.19-.71,10.66,10.66,0,0,1,2.47-.28,6.58,6.58,0,0,1,2.89.54A4.41,4.41,0,0,1,377.77,97a4.33,4.33,0,0,1,.76,1.7,8.45,8.45,0,0,1,.19,1.68v13.77l1-.85a8.59,8.59,0,0,1,1.48-1,9.75,9.75,0,0,1,2.15-.83,11.36,11.36,0,0,1,2.95-.34,9.37,9.37,0,0,1,4,.91,9.93,9.93,0,0,1,3.55,2.86,15.42,15.42,0,0,1,2.56,5,24.06,24.06,0,0,1,1,7.35,21.77,21.77,0,0,1-.91,6.36,15.51,15.51,0,0,1-2.7,5.23,12.75,12.75,0,0,1-4.48,3.54,14.2,14.2,0,0,1-6.24,1.3,15.13,15.13,0,0,1-6.5-1.25,11.26,11.26,0,0,1-4.24-3.37,13.32,13.32,0,0,1-2.3-4.92,24.61,24.61,0,0,1-.69-5.93Zm18.4,27.23a43.22,43.22,0,0,0-.28-5,19.75,19.75,0,0,0-.89-4.14,7.94,7.94,0,0,0-1.58-2.81,3.2,3.2,0,0,0-4.09-.53,4.9,4.9,0,0,0-1.19,1.16,5,5,0,0,0-.68,1.28,3.36,3.36,0,0,0-.22.85v9.23q0,6.73,1.13,9.79t3.32,3.06q2.32,0,3.4-3.12T387.63,127.78Z"/><path class="cls-3" d="M411.22,129a8.73,8.73,0,0,0,.29,2.15,12.8,12.8,0,0,0,.85,2.33,12.34,12.34,0,0,0,1.37,2.24,10.63,10.63,0,0,0,1.88,1.9,9,9,0,0,0,2.36,1.33,7.9,7.9,0,0,0,2.84.49,7.8,7.8,0,0,0,2-.25,7.93,7.93,0,0,0,1.73-.68,11.25,11.25,0,0,0,1.54-1q.74-.57,1.48-1.22l.77.74a21.24,21.24,0,0,1-1.82,2.1,15,15,0,0,1-2.69,2.15,15.54,15.54,0,0,1-3.67,1.67,15.84,15.84,0,0,1-4.79.66,14.55,14.55,0,0,1-5.23-1,13,13,0,0,1-4.52-2.92,14.29,14.29,0,0,1-3.17-4.85,19.6,19.6,0,0,1-.48-11.95,16.56,16.56,0,0,1,1.93-4.23,15.68,15.68,0,0,1,2.84-3.3,17.6,17.6,0,0,1,3.41-2.36,16.87,16.87,0,0,1,3.66-1.42,15,15,0,0,1,7.58,0,8.91,8.91,0,0,1,2.82,1.33,5.51,5.51,0,0,1,1.68,1.93,5,5,0,0,1,.55,2.3,4.35,4.35,0,0,1-.83,2.61,7.71,7.71,0,0,1-2.22,2Zm6.21-6.27a5,5,0,0,0,.66-.48,1.73,1.73,0,0,0,.42-.56,3,3,0,0,0,.23-.8,7.74,7.74,0,0,0,.08-1.19,9.74,9.74,0,0,0-.17-1.71,6.89,6.89,0,0,0-.57-1.77,4.43,4.43,0,0,0-1-1.39,2.14,2.14,0,0,0-1.48-.55,2.85,2.85,0,0,0-1.9.66,5.14,5.14,0,0,0-1.3,1.71,10.66,10.66,0,0,0-.8,2.39,26.76,26.76,0,0,0-.45,2.7q-.15,1.36-.18,2.61c0,.83,0,1.54,0,2.11Z"/><path class="cls-3" d="M442.37,117.63a25.38,25.38,0,0,1,2.5-3.24,16.67,16.67,0,0,1,1.2-1.2,11.54,11.54,0,0,1,1.34-1,7.06,7.06,0,0,1,1.44-.74,4.21,4.21,0,0,1,1.48-.28,3.24,3.24,0,0,1,2.47.94,3.68,3.68,0,0,1,.9,2.64,11.83,11.83,0,0,1-.17,2,15,15,0,0,1-.66,2.36H452a2.86,2.86,0,0,0-.86-1.59,2.8,2.8,0,0,0-2-.63,5.23,5.23,0,0,0-1.88.35,11.72,11.72,0,0,0-1.81.88,15.91,15.91,0,0,0-1.67,1.14q-.79.62-1.44,1.17v20a4.54,4.54,0,0,1-.12,1,2.2,2.2,0,0,1-.6,1,3.82,3.82,0,0,1-1.42.85,7.53,7.53,0,0,1-2.58.36,7,7,0,0,1-2.58-.39,4.05,4.05,0,0,1-1.44-.91,2.33,2.33,0,0,1-.62-1.08,4.35,4.35,0,0,1-.12-.9V116.54a2.88,2.88,0,0,0-.42-1.56,1.53,1.53,0,0,0-1.41-.66,2,2,0,0,0-.9.19,4.77,4.77,0,0,0-.8.53l-.65-.77a17.24,17.24,0,0,1,1.59-1.16,12.41,12.41,0,0,1,1.9-1,13.82,13.82,0,0,1,2.19-.71,10.72,10.72,0,0,1,2.47-.28,6.46,6.46,0,0,1,2.27.36,4.55,4.55,0,0,1,1.54.93,4.35,4.35,0,0,1,.94,1.28,7.09,7.09,0,0,1,.51,1.44,7.75,7.75,0,0,1,.2,1.39C442.36,116.94,442.37,117.32,442.37,117.63Z"/><path class="cls-3" d="M472.84,97.25a3.72,3.72,0,0,0-1.64.37,3.47,3.47,0,0,0-1.34,1.19,6.62,6.62,0,0,0-.91,2.08,11.93,11.93,0,0,0-.34,3.06v7.6h6.76v2.22h-6.76v24.33a26.17,26.17,0,0,1-1.1,7.75A16.87,16.87,0,0,1,464.2,152a15.25,15.25,0,0,1-5.56,4,19.36,19.36,0,0,1-7.78,1.45,17.1,17.1,0,0,1-3-.26,12.49,12.49,0,0,1-2.56-.73,5.75,5.75,0,0,1-1.78-1.1,1.91,1.91,0,0,1-.66-1.4,4.28,4.28,0,0,1,.15-1.13,3.47,3.47,0,0,1,.46-1,2.65,2.65,0,0,1,.76-.76,1.85,1.85,0,0,1,1-.29.75.75,0,0,1,.6.34,6.94,6.94,0,0,1,.54.83L447,153a4.57,4.57,0,0,0,.91,1.1,4.85,4.85,0,0,0,1.37.83,5.19,5.19,0,0,0,2,.34,5.89,5.89,0,0,0,2.78-.63,6.34,6.34,0,0,0,2.07-1.74,10.35,10.35,0,0,0,1.45-2.62,19.21,19.21,0,0,0,.93-3.24,30.51,30.51,0,0,0,.48-3.61q.14-1.88.14-3.77v-25.9h-5.68v-2.22h5.68v-3.61a15.23,15.23,0,0,1,.66-4.74,11.38,11.38,0,0,1,1.76-3.44A10,10,0,0,1,464,97.44,14.23,14.23,0,0,1,466.87,96a13.48,13.48,0,0,1,2.79-.71,17.92,17.92,0,0,1,2.38-.18,20.92,20.92,0,0,1,3.89.32,12,12,0,0,1,2.84.86,5,5,0,0,1,1.73,1.25,2.27,2.27,0,0,1,.59,1.45,3.94,3.94,0,0,1-.17,1.13,4.06,4.06,0,0,1-.48,1,2.56,2.56,0,0,1-.76.77,1.79,1.79,0,0,1-1,.29.78.78,0,0,1-.62-.37,8,8,0,0,1-.59-.93l-.68-1.2a6,6,0,0,0-.91-1.2,4.68,4.68,0,0,0-1.28-.93A3.88,3.88,0,0,0,472.84,97.25Z"/><path class="cls-3" d="M485.53,129a8.69,8.69,0,0,0,.29,2.15,12.87,12.87,0,0,0,.85,2.33A12.35,12.35,0,0,0,488,135.7a10.59,10.59,0,0,0,1.88,1.9,9,9,0,0,0,2.36,1.33,7.9,7.9,0,0,0,2.84.49,7.8,7.8,0,0,0,2-.25,7.93,7.93,0,0,0,1.73-.68,11.24,11.24,0,0,0,1.54-1q.74-.57,1.48-1.22l.77.74a21.08,21.08,0,0,1-1.82,2.1,15,15,0,0,1-2.69,2.15,15.5,15.5,0,0,1-3.67,1.67,15.84,15.84,0,0,1-4.79.66,14.55,14.55,0,0,1-5.23-1,13,13,0,0,1-4.52-2.92,14.32,14.32,0,0,1-3.17-4.85,19.62,19.62,0,0,1-.48-11.95,16.6,16.6,0,0,1,1.93-4.23,15.68,15.68,0,0,1,2.84-3.3,17.64,17.64,0,0,1,3.41-2.36,16.86,16.86,0,0,1,3.66-1.42,15,15,0,0,1,7.58,0,8.92,8.92,0,0,1,2.82,1.33,5.51,5.51,0,0,1,1.68,1.93,5,5,0,0,1,.56,2.3,4.35,4.35,0,0,1-.83,2.61,7.7,7.7,0,0,1-2.22,2Zm6.21-6.27a4.93,4.93,0,0,0,.66-.48,1.72,1.72,0,0,0,.42-.56,3,3,0,0,0,.23-.8,7.72,7.72,0,0,0,.08-1.19A9.74,9.74,0,0,0,493,118a6.9,6.9,0,0,0-.57-1.77,4.42,4.42,0,0,0-1-1.39,2.14,2.14,0,0,0-1.48-.55,2.85,2.85,0,0,0-1.9.66,5.15,5.15,0,0,0-1.3,1.71,10.66,10.66,0,0,0-.8,2.39,27,27,0,0,0-.45,2.7q-.16,1.36-.19,2.61c0,.83,0,1.54,0,2.11Z"/><path class="cls-3" d="M516.74,113.58a4.73,4.73,0,0,0-1.34.19,3.05,3.05,0,0,0-1.13.6,2.85,2.85,0,0,0-.77,1,3.71,3.71,0,0,0-.28,1.5,4,4,0,0,0,.88,2.39,20.72,20.72,0,0,0,2.19,2.47q1.31,1.28,2.84,2.66a31.31,31.31,0,0,1,2.84,2.9,16.41,16.41,0,0,1,2.19,3.26,8.05,8.05,0,0,1,.88,3.7,9.78,9.78,0,0,1-.76,4,8.06,8.06,0,0,1-2.16,2.93,9.6,9.6,0,0,1-3.4,1.84,14.58,14.58,0,0,1-4.43.63,11.67,11.67,0,0,1-3.86-.6,13.94,13.94,0,0,1-3.07-1.48,13.42,13.42,0,0,1-2.3-1.87,12.4,12.4,0,0,1-1.48-1.79l1.08-.77a10.4,10.4,0,0,0,1,1,9.89,9.89,0,0,0,1.38,1,8,8,0,0,0,1.62.76,5.42,5.42,0,0,0,1.76.29,5.91,5.91,0,0,0,3.64-1.06,3.71,3.71,0,0,0,1.42-3.16,4.62,4.62,0,0,0-.77-2.42,19.06,19.06,0,0,0-1.94-2.58q-1.17-1.33-2.53-2.75a37.16,37.16,0,0,1-2.53-2.93,17.33,17.33,0,0,1-1.94-3.12,7.59,7.59,0,0,1-.77-3.33,7,7,0,0,1,.79-3.4,7.18,7.18,0,0,1,2.1-2.41,9.43,9.43,0,0,1,3-1.44,12.65,12.65,0,0,1,3.47-.48,17.68,17.68,0,0,1,3.77.37,9.23,9.23,0,0,1,2.92,1.13,5.44,5.44,0,0,1,1.88,1.9,5.18,5.18,0,0,1,.66,2.66,3,3,0,0,1-.77,2,2.75,2.75,0,0,1-2.16.86,3.11,3.11,0,0,1-2-.57,1.91,1.91,0,0,1-.69-1.56,1.5,1.5,0,0,1,.32-1,2.85,2.85,0,0,1,.73-.6l.73-.4a.5.5,0,0,0,.32-.45,1.54,1.54,0,0,0-.93-1.37A4.9,4.9,0,0,0,516.74,113.58Z"/><path class="cls-3" d="M540.17,113.77v22.81a3.24,3.24,0,0,0,.62,2.27,2.26,2.26,0,0,0,1.7.63A2.49,2.49,0,0,0,544,139a5.44,5.44,0,0,0,1.11-1.05,6.53,6.53,0,0,0,1-1.51l1,.43q-.46,1-1.1,2.16a8.82,8.82,0,0,1-1.68,2.18,8.72,8.72,0,0,1-2.64,1.68,10.22,10.22,0,0,1-4,.68,8.49,8.49,0,0,1-2.61-.4,6.11,6.11,0,0,1-2.22-1.27,6.33,6.33,0,0,1-1.56-2.16,7.52,7.52,0,0,1-.59-3.12V113.77h-3.46v-2.22a9.35,9.35,0,0,0,2.41-.45,12,12,0,0,0,3.16-1.5,12.56,12.56,0,0,0,3-2.81,10.72,10.72,0,0,0,2-4.35h2.47v9.11h5q2.47,0,2.47-.83a.41.41,0,0,0-.31-.42c-.21-.07-.44-.17-.69-.28a2.22,2.22,0,0,1-.7-.48,1.4,1.4,0,0,1-.31-1,1.75,1.75,0,0,1,.54-1.36,2,2,0,0,1,1.4-.49,2,2,0,0,1,1,.23,2.1,2.1,0,0,1,.69.62,2.81,2.81,0,0,1,.42.88,3.68,3.68,0,0,1,.14,1,4.38,4.38,0,0,1-1.16,3.2,5,5,0,0,1-3.72,1.19Z"/><polyline class="cls-4" points="560.47 112.16 587.8 112.16 587.8 90.46"/><line class="cls-4" x1="560.47" y1="130.25" x2="617.94" y2="130.25"/><polyline class="cls-4" points="560.47 146.32 605.88 146.32 605.88 161.59"/><polyline class="cls-4" points="154.7 141.29 127.38 141.29 127.38 162.99"/><line class="cls-4" x1="155.11" y1="123.21" x2="97.24" y2="123.21"/><polyline class="cls-4" points="154.3 107.14 109.3 107.14 109.3 91.87"/><circle class="cls-4" cx="605.48" cy="170.83" r="4.02"/><circle class="cls-5" cx="588.2" cy="91.77" r="2.81"/><circle class="cls-3" cx="627.98" cy="129.84" r="4.02"/><circle class="cls-4" cx="108.9" cy="84.64" r="4.02"/><circle class="cls-5" cx="90.81" cy="123.61" r="2.81"/><circle class="cls-3" cx="127.38" cy="171.43" r="4.02"/><path class="cls-3" d="M102.13,221.53a8.89,8.89,0,0,1,3.36,3.23,8.6,8.6,0,0,1,1.23,4.51,8.73,8.73,0,0,1-1.23,4.54,8.91,8.91,0,0,1-3.36,3.27,9.71,9.71,0,0,1-9.33,0,8.91,8.91,0,0,1-3.36-3.27,8.72,8.72,0,0,1-1.23-4.54,8.59,8.59,0,0,1,1.23-4.51,8.91,8.91,0,0,1,3.34-3.23,9.83,9.83,0,0,1,9.34,0Zm-8,1.89a6.87,6.87,0,0,0-2.5,2.45,6.73,6.73,0,0,0,0,6.83,7,7,0,0,0,2.5,2.48,6.65,6.65,0,0,0,3.41.92,6.52,6.52,0,0,0,3.38-.92,6.91,6.91,0,0,0,2.46-2.48,6.81,6.81,0,0,0,0-6.83,6.84,6.84,0,0,0-2.46-2.45,6.58,6.58,0,0,0-3.38-.91A6.71,6.71,0,0,0,94.08,223.42Z"/><path class="cls-3" d="M120.67,225.58a5.88,5.88,0,0,1,2.26,2.39,8.08,8.08,0,0,1,0,7,5.74,5.74,0,0,1-2.24,2.36,6.45,6.45,0,0,1-3.31.84,6.06,6.06,0,0,1-3-.71,5,5,0,0,1-2-2V243h-2.34V224.8h2.34v2.64a5.07,5.07,0,0,1,2-2,6,6,0,0,1,2.93-.71A6.45,6.45,0,0,1,120.67,225.58Zm-1.47,10a4.15,4.15,0,0,0,1.58-1.68,5.19,5.19,0,0,0,.57-2.44,5,5,0,0,0-.58-2.42,4.27,4.27,0,0,0-1.58-1.68,4.35,4.35,0,0,0-2.29-.6,4.42,4.42,0,0,0-2.3.6A4.24,4.24,0,0,0,113,229a5.41,5.41,0,0,0,0,4.87,4.26,4.26,0,0,0,1.6,1.67,4.69,4.69,0,0,0,4.6,0Z"/><path class="cls-3" d="M137,226.55a7.47,7.47,0,0,1,1.58,5.07q0,.5,0,.75H128.07a4.53,4.53,0,0,0,1.5,2.84,4.42,4.42,0,0,0,3,1.06,5.63,5.63,0,0,0,2.2-.43,5.3,5.3,0,0,0,1.77-1.21l1.28,1.33a6.73,6.73,0,0,1-2.36,1.63,7.88,7.88,0,0,1-3.07.58,7.06,7.06,0,0,1-3.48-.84,5.91,5.91,0,0,1-2.36-2.38,7.64,7.64,0,0,1,0-7,6.14,6.14,0,0,1,2.35-2.39,6.79,6.79,0,0,1,3.45-.87A5.86,5.86,0,0,1,137,226.55Zm-.53,4a3.85,3.85,0,0,0-4.12-3.9,4.2,4.2,0,0,0-2.93,1.06,4.43,4.43,0,0,0-1.4,2.84Z"/><path class="cls-3" d="M152.87,226.1a5.2,5.2,0,0,1,1.33,3.79v8.22h-2.34v-7.6a3.27,3.27,0,0,0-3.55-3.57,4,4,0,0,0-2.91,1.14,4.49,4.49,0,0,0-1.27,2.91v7.12H141.8V224.8h2.34v2.82q1.33-2.84,5.05-2.89A4.89,4.89,0,0,1,152.87,226.1Z"/><path class="cls-3" d="M158.6,220.5h12.22v2.19H161v5.43h8.78v2.19H161v5.61h10.11v2.19H158.6Z"/><path class="cls-3" d="M186.78,221.67a3.82,3.82,0,0,1,1.55,3.23,3.9,3.9,0,0,1-.86,2.55,4.15,4.15,0,0,1-2.34,1.4,4.59,4.59,0,0,1,2.88,1.47,4.37,4.37,0,0,1,1,3,4.17,4.17,0,0,1-1.7,3.53,7.69,7.69,0,0,1-4.69,1.27H175V220.5h7.52A6.87,6.87,0,0,1,186.78,221.67Zm-1.84,5.61a2.35,2.35,0,0,0,.89-2,2.29,2.29,0,0,0-.89-1.94,4,4,0,0,0-2.53-.65h-5V228h5A4,4,0,0,0,184.95,227.28Zm.54,7.87a2.47,2.47,0,0,0,1.11-2.15,2.39,2.39,0,0,0-1.11-2.09,5.39,5.39,0,0,0-3.07-.75h-5v5.73h5A5.2,5.2,0,0,0,185.49,235.15Z"/><path class="cls-3" d="M200.67,223a8.63,8.63,0,0,0-2.43-.39,4.48,4.48,0,0,0-2.45.59,1.84,1.84,0,0,0-.92,1.62,2.14,2.14,0,0,0,.55,1.52,3.9,3.9,0,0,0,1.36.93q.8.34,2.24.79a25.24,25.24,0,0,1,2.89,1.06,5,5,0,0,1,1.89,1.5,4.14,4.14,0,0,1,.78,2.63,4.39,4.39,0,0,1-.82,2.64,5.24,5.24,0,0,1-2.29,1.75,8.71,8.71,0,0,1-3.38.62,9.84,9.84,0,0,1-3.77-.75,10.23,10.23,0,0,1-3.17-2l1.08-2.09a9,9,0,0,0,2.83,1.9,7.79,7.79,0,0,0,3.06.67,4.88,4.88,0,0,0,2.78-.69,2.15,2.15,0,0,0,1-1.87,2.18,2.18,0,0,0-.55-1.53,3.91,3.91,0,0,0-1.4-1,24,24,0,0,0-2.28-.78,23,23,0,0,1-2.87-1,5,5,0,0,1-1.87-1.48,4.08,4.08,0,0,1-.77-2.59,4.15,4.15,0,0,1,.78-2.49,4.93,4.93,0,0,1,2.19-1.66,8.57,8.57,0,0,1,3.27-.58,10.59,10.59,0,0,1,3.11.46,10.43,10.43,0,0,1,2.7,1.25l-1,2.16A10.17,10.17,0,0,0,200.67,223Z"/><path class="cls-3" d="M225.5,225.58a5.88,5.88,0,0,1,2.26,2.39,8.08,8.08,0,0,1,0,7,5.74,5.74,0,0,1-2.24,2.36,6.45,6.45,0,0,1-3.31.84,6.06,6.06,0,0,1-3-.71,5,5,0,0,1-2-2V243h-2.34V224.8h2.34v2.64a5.07,5.07,0,0,1,2-2,6,6,0,0,1,2.93-.71A6.45,6.45,0,0,1,225.5,225.58Zm-1.47,10a4.15,4.15,0,0,0,1.58-1.68,5.19,5.19,0,0,0,.57-2.44,5,5,0,0,0-.58-2.42,4.27,4.27,0,0,0-1.58-1.68,4.35,4.35,0,0,0-2.29-.6,4.42,4.42,0,0,0-2.3.6,4.24,4.24,0,0,0-1.6,1.68,5.41,5.41,0,0,0,0,4.87,4.26,4.26,0,0,0,1.6,1.67,4.69,4.69,0,0,0,4.6,0Z"/><path class="cls-3" d="M236,225.49a5.54,5.54,0,0,1,2.87-.77V227a4.28,4.28,0,0,0-4.73,4.1v7h-2.34V224.8h2.34v2.87A4.82,4.82,0,0,1,236,225.49Z"/><path class="cls-3" d="M250.51,225.58a6.16,6.16,0,0,1,2.42,2.38,7.46,7.46,0,0,1,0,7,6.14,6.14,0,0,1-2.42,2.39,7.78,7.78,0,0,1-7.09,0A6.15,6.15,0,0,1,241,235a7.47,7.47,0,0,1,0-7,6.15,6.15,0,0,1,2.41-2.38,7.78,7.78,0,0,1,7.09,0Zm-5.86,1.79a4.17,4.17,0,0,0-1.58,1.67,5.11,5.11,0,0,0-.57,2.43,5.24,5.24,0,0,0,.57,2.46,4.07,4.07,0,0,0,1.58,1.67,4.56,4.56,0,0,0,2.33.59,4.5,4.5,0,0,0,2.3-.59,4.08,4.08,0,0,0,1.58-1.67,5.24,5.24,0,0,0,.57-2.46,5.11,5.11,0,0,0-.57-2.43,4.17,4.17,0,0,0-1.58-1.67,4.43,4.43,0,0,0-2.3-.6A4.48,4.48,0,0,0,244.65,227.37Z"/><path class="cls-3" d="M255.05,241.08a1.65,1.65,0,0,0,1.46-.65,3.31,3.31,0,0,0,.5-2V224.8h2.36v14a4.64,4.64,0,0,1-1,3.18,3.56,3.56,0,0,1-2.8,1.12,6.25,6.25,0,0,1-2.29-.45l.55-1.79A4.62,4.62,0,0,0,255.05,241.08Zm4.16-21.15a1.62,1.62,0,0,1,0,2.16,1.49,1.49,0,0,1-2.09,0,1.62,1.62,0,0,1,0-2.16,1.49,1.49,0,0,1,2.09,0Z"/><path class="cls-3" d="M273.69,226.55a7.47,7.47,0,0,1,1.58,5.07q0,.5,0,.75H264.74a4.53,4.53,0,0,0,1.5,2.84,4.42,4.42,0,0,0,3,1.06,5.63,5.63,0,0,0,2.2-.43,5.3,5.3,0,0,0,1.77-1.21l1.28,1.33a6.73,6.73,0,0,1-2.36,1.63,7.88,7.88,0,0,1-3.07.58,7.06,7.06,0,0,1-3.48-.84,5.91,5.91,0,0,1-2.36-2.38,7.64,7.64,0,0,1,0-7,6.14,6.14,0,0,1,2.35-2.39,6.79,6.79,0,0,1,3.45-.87A5.86,5.86,0,0,1,273.69,226.55Zm-.53,4a3.85,3.85,0,0,0-4.12-3.9,4.2,4.2,0,0,0-2.93,1.06,4.43,4.43,0,0,0-1.4,2.84Z"/><path class="cls-3" d="M284,226.81a4.64,4.64,0,0,0-2.33.58,4.12,4.12,0,0,0-1.6,1.63,5,5,0,0,0-.58,2.44,5.09,5.09,0,0,0,.57,2.44,4.16,4.16,0,0,0,1.56,1.65,4.36,4.36,0,0,0,2.28.59,6,6,0,0,0,2.31-.43,4.4,4.4,0,0,0,1.71-1.23l1.33,1.36a5.88,5.88,0,0,1-2.3,1.74,7.88,7.88,0,0,1-3.16.6,6.86,6.86,0,0,1-3.45-.86A6,6,0,0,1,278,235a7.65,7.65,0,0,1,0-7,6,6,0,0,1,2.35-2.39,6.87,6.87,0,0,1,3.45-.86,8.44,8.44,0,0,1,3,.52,5.88,5.88,0,0,1,2.25,1.5l-1.28,1.61A5.27,5.27,0,0,0,284,226.81Z"/><path class="cls-3" d="M299.75,237.23a5.73,5.73,0,0,1-3.12,1,3.55,3.55,0,0,1-2.57-.94,3.79,3.79,0,0,1-1-2.85V227h-1.89v-1.79h1.89v-3.57h2.36v3.57h4.07V227h-4.07V234a2.46,2.46,0,0,0,.4,1.58,1.49,1.49,0,0,0,1.21.48,4.21,4.21,0,0,0,2.06-.63Z"/><path class="cls-3" d="M311.38,219.92a1.62,1.62,0,0,1,0,2.16,1.49,1.49,0,0,1-2.09,0,1.62,1.62,0,0,1,0-2.16,1.49,1.49,0,0,1,2.09,0Zm-2.2,4.88h2.34v13.3h-2.34Z"/><path class="cls-3" d="M321.51,226.94a6.54,6.54,0,0,0-1.9-.3,3.24,3.24,0,0,0-1.7.39,1.3,1.3,0,0,0-.64,1.19,1.33,1.33,0,0,0,.72,1.22,10.44,10.44,0,0,0,2.18.84,17.19,17.19,0,0,1,2.26.8,4,4,0,0,1,1.5,1.18,3.66,3.66,0,0,1-.8,4.93,6.08,6.08,0,0,1-3.53,1,8.84,8.84,0,0,1-2.88-.48,6.55,6.55,0,0,1-2.35-1.36l.88-1.71a6.22,6.22,0,0,0,2,1.21,6.81,6.81,0,0,0,2.38.45,3.55,3.55,0,0,0,1.86-.43,1.43,1.43,0,0,0,.71-1.31,1.49,1.49,0,0,0-.74-1.36,10.15,10.15,0,0,0-2.25-.91,14.88,14.88,0,0,1-2.18-.77,3.87,3.87,0,0,1-1.43-1.14,3.09,3.09,0,0,1-.59-2,3.16,3.16,0,0,1,1.36-2.79,5.88,5.88,0,0,1,3.4-.93,8.51,8.51,0,0,1,2.38.34,7.17,7.17,0,0,1,2,.92l-.85,1.79A8,8,0,0,0,321.51,226.94Z"/><path class="cls-3" d="M334.35,219.45h2.34v18.66h-2.34Z"/><path class="cls-3" d="M350.46,225.58a6.16,6.16,0,0,1,2.42,2.38,7.46,7.46,0,0,1,0,7,6.14,6.14,0,0,1-2.42,2.39,7.78,7.78,0,0,1-7.09,0A6.15,6.15,0,0,1,341,235a7.47,7.47,0,0,1,0-7,6.15,6.15,0,0,1,2.41-2.38,7.78,7.78,0,0,1,7.09,0Zm-5.86,1.79A4.17,4.17,0,0,0,343,229a5.11,5.11,0,0,0-.57,2.43,5.24,5.24,0,0,0,.57,2.46,4.07,4.07,0,0,0,1.58,1.67,4.56,4.56,0,0,0,2.33.59,4.5,4.5,0,0,0,2.3-.59,4.08,4.08,0,0,0,1.58-1.67,5.24,5.24,0,0,0,.57-2.46,5.11,5.11,0,0,0-.57-2.43,4.17,4.17,0,0,0-1.58-1.67,4.43,4.43,0,0,0-2.3-.6A4.48,4.48,0,0,0,344.6,227.37Z"/><path class="cls-3" d="M366.08,225.58a6.16,6.16,0,0,1,2.42,2.38,7.46,7.46,0,0,1,0,7,6.14,6.14,0,0,1-2.42,2.39,7.78,7.78,0,0,1-7.09,0,6.15,6.15,0,0,1-2.41-2.38,7.47,7.47,0,0,1,0-7,6.15,6.15,0,0,1,2.41-2.38,7.78,7.78,0,0,1,7.09,0Zm-5.86,1.79a4.17,4.17,0,0,0-1.58,1.67,5.11,5.11,0,0,0-.57,2.43,5.24,5.24,0,0,0,.57,2.46,4.07,4.07,0,0,0,1.58,1.67,4.56,4.56,0,0,0,2.33.59,4.5,4.5,0,0,0,2.3-.59,4.08,4.08,0,0,0,1.58-1.67,5.24,5.24,0,0,0,.57-2.46,5.11,5.11,0,0,0-.57-2.43,4.17,4.17,0,0,0-1.58-1.67,4.43,4.43,0,0,0-2.3-.6A4.48,4.48,0,0,0,360.22,227.37Z"/><path class="cls-3" d="M381.94,238.11l-4.25-6.46-2.59,2.69v3.77h-2.34V219.45h2.34v11.9l6.44-6.54h2.74l-5,5.16,5.43,8.15Z"/><path class="cls-3" d="M389.47,219.92a1.62,1.62,0,0,1,0,2.16,1.49,1.49,0,0,1-2.09,0,1.62,1.62,0,0,1,0-2.16,1.49,1.49,0,0,1,2.09,0Zm-2.2,4.88h2.34v13.3h-2.34Z"/><path class="cls-3" d="M405.23,226.1a5.2,5.2,0,0,1,1.33,3.79v8.22h-2.34v-7.6a3.27,3.27,0,0,0-3.55-3.57,4,4,0,0,0-2.91,1.14A4.49,4.49,0,0,0,396.5,231v7.12h-2.34V224.8h2.34v2.82q1.33-2.84,5.05-2.89A4.89,4.89,0,0,1,405.23,226.1Z"/><path class="cls-3" d="M422.5,224.8v11.95a6.48,6.48,0,0,1-.84,3.34,5.59,5.59,0,0,1-2.38,2.2,7.88,7.88,0,0,1-3.57.77,9.1,9.1,0,0,1-5.48-1.86l1-1.71a7,7,0,0,0,2,1.2,6.63,6.63,0,0,0,2.31.39,4.62,4.62,0,0,0,3.29-1.16,4,4,0,0,0,1.23-3.09V235a5,5,0,0,1-1.91,1.88,5.64,5.64,0,0,1-2.77.67,6,6,0,0,1-3.16-.82,5.57,5.57,0,0,1-2.12-2.28,7.18,7.18,0,0,1-.75-3.35,7,7,0,0,1,.75-3.29,5.52,5.52,0,0,1,2.13-2.24,6.12,6.12,0,0,1,3.16-.81,5.7,5.7,0,0,1,2.78.65,4.88,4.88,0,0,1,1.9,1.86V224.8ZM418.1,235a4,4,0,0,0,1.5-1.6,4.83,4.83,0,0,0,.54-2.3,4.89,4.89,0,0,0-.54-2.33,4,4,0,0,0-1.5-1.6,4.15,4.15,0,0,0-2.19-.58,4.21,4.21,0,0,0-2.2.58,4.1,4.1,0,0,0-1.52,1.6,4.8,4.8,0,0,0-.55,2.33,4.6,4.6,0,0,0,1.21,3.22,4,4,0,0,0,3.07,1.26A4.14,4.14,0,0,0,418.1,235Z"/><path class="cls-3" d="M436.76,221.94a2,2,0,0,0-.6,1.58v1.74h3.67V227h-3.67v11.07h-2.34V227h-1.74v-1.79h1.74v-1.43a4.7,4.7,0,0,1,.62-2.48,4,4,0,0,1,1.62-1.53,4.67,4.67,0,0,1,2.16-.52,5.17,5.17,0,0,1,2.31.6l-.55,1.91a4,4,0,0,0-1.71-.43A2.15,2.15,0,0,0,436.76,221.94Z"/><path class="cls-3" d="M450.79,225.58A6.16,6.16,0,0,1,453.2,228a7.46,7.46,0,0,1,0,7,6.14,6.14,0,0,1-2.42,2.39,7.78,7.78,0,0,1-7.09,0,6.15,6.15,0,0,1-2.41-2.38,7.47,7.47,0,0,1,0-7,6.15,6.15,0,0,1,2.41-2.38,7.78,7.78,0,0,1,7.09,0Zm-5.86,1.79a4.17,4.17,0,0,0-1.58,1.67,5.11,5.11,0,0,0-.57,2.43,5.24,5.24,0,0,0,.57,2.46,4.07,4.07,0,0,0,1.58,1.67,4.56,4.56,0,0,0,2.33.59,4.5,4.5,0,0,0,2.3-.59,4.08,4.08,0,0,0,1.58-1.67,5.24,5.24,0,0,0,.57-2.46,5.11,5.11,0,0,0-.57-2.43,4.17,4.17,0,0,0-1.58-1.67,4.43,4.43,0,0,0-2.3-.6A4.48,4.48,0,0,0,444.92,227.37Z"/><path class="cls-3" d="M461.54,225.49a5.54,5.54,0,0,1,2.87-.77V227a4.28,4.28,0,0,0-4.73,4.1v7h-2.34V224.8h2.34v2.87A4.82,4.82,0,0,1,461.54,225.49Z"/><path class="cls-3" d="M479.07,226.81a4.64,4.64,0,0,0-2.33.58,4.12,4.12,0,0,0-1.6,1.63,5,5,0,0,0-.58,2.44,5.09,5.09,0,0,0,.57,2.44,4.16,4.16,0,0,0,1.56,1.65,4.36,4.36,0,0,0,2.28.59,6,6,0,0,0,2.31-.43,4.4,4.4,0,0,0,1.71-1.23l1.33,1.36a5.88,5.88,0,0,1-2.3,1.74,7.88,7.88,0,0,1-3.16.6,6.86,6.86,0,0,1-3.45-.86,6,6,0,0,1-2.35-2.38,7.65,7.65,0,0,1,0-7,6,6,0,0,1,2.35-2.39,6.87,6.87,0,0,1,3.45-.86,8.44,8.44,0,0,1,3,.52,5.88,5.88,0,0,1,2.25,1.5l-1.28,1.61A5.27,5.27,0,0,0,479.07,226.81Z"/><path class="cls-3" d="M496.16,225.58a6.16,6.16,0,0,1,2.42,2.38,7.46,7.46,0,0,1,0,7,6.14,6.14,0,0,1-2.42,2.39,7.78,7.78,0,0,1-7.09,0,6.15,6.15,0,0,1-2.41-2.38,7.47,7.47,0,0,1,0-7,6.15,6.15,0,0,1,2.41-2.38,7.78,7.78,0,0,1,7.09,0Zm-5.86,1.79a4.17,4.17,0,0,0-1.58,1.67,5.11,5.11,0,0,0-.57,2.43,5.24,5.24,0,0,0,.57,2.46,4.07,4.07,0,0,0,1.58,1.67,4.56,4.56,0,0,0,2.33.59,4.5,4.5,0,0,0,2.3-.59,4.08,4.08,0,0,0,1.58-1.67,5.24,5.24,0,0,0,.57-2.46,5.11,5.11,0,0,0-.57-2.43,4.17,4.17,0,0,0-1.58-1.67,4.43,4.43,0,0,0-2.3-.6A4.48,4.48,0,0,0,490.3,227.37Z"/><path class="cls-3" d="M513.78,226.1a5.2,5.2,0,0,1,1.33,3.79v8.22h-2.34v-7.6a3.27,3.27,0,0,0-3.55-3.57,4,4,0,0,0-2.91,1.14A4.49,4.49,0,0,0,505,231v7.12h-2.34V224.8H505v2.82q1.33-2.84,5.05-2.89A4.89,4.89,0,0,1,513.78,226.1Z"/><path class="cls-3" d="M526.43,237.23a5.73,5.73,0,0,1-3.12,1,3.55,3.55,0,0,1-2.57-.94,3.79,3.79,0,0,1-1-2.85V227h-1.89v-1.79h1.89v-3.57h2.36v3.57h4.07V227h-4.07V234a2.46,2.46,0,0,0,.4,1.58,1.49,1.49,0,0,0,1.21.48,4.21,4.21,0,0,0,2.06-.63Z"/><path class="cls-3" d="M533.47,225.49a5.54,5.54,0,0,1,2.87-.77V227a4.28,4.28,0,0,0-4.73,4.1v7h-2.34V224.8h2.34v2.87A4.82,4.82,0,0,1,533.47,225.49Z"/><path class="cls-3" d="M541.08,219.92a1.62,1.62,0,0,1,0,2.16,1.49,1.49,0,0,1-2.09,0,1.62,1.62,0,0,1,0-2.16,1.49,1.49,0,0,1,2.09,0Zm-2.2,4.88h2.34v13.3h-2.34Z"/><path class="cls-3" d="M556.48,225.58a5.88,5.88,0,0,1,2.26,2.39,8.08,8.08,0,0,1,0,7,5.74,5.74,0,0,1-2.24,2.36,6.45,6.45,0,0,1-3.31.84,6.06,6.06,0,0,1-3-.71,5,5,0,0,1-2-2v2.64h-2.34V219.45h2.34v8a5.07,5.07,0,0,1,2-2,6,6,0,0,1,2.93-.71A6.45,6.45,0,0,1,556.48,225.58Zm-1.47,10a4.15,4.15,0,0,0,1.58-1.68,5.19,5.19,0,0,0,.57-2.44,5,5,0,0,0-.58-2.42,4.27,4.27,0,0,0-1.58-1.68,4.35,4.35,0,0,0-2.29-.6,4.42,4.42,0,0,0-2.3.6,4.24,4.24,0,0,0-1.6,1.68,5.41,5.41,0,0,0,0,4.87,4.26,4.26,0,0,0,1.6,1.67,4.69,4.69,0,0,0,4.6,0Z"/><path class="cls-3" d="M574.59,224.8v13.3h-2.36v-2.82q-1.31,2.84-4.93,2.89a4.77,4.77,0,0,1-3.62-1.37,5.26,5.26,0,0,1-1.31-3.79V224.8h2.36v7.6a3.61,3.61,0,0,0,.92,2.63,3.36,3.36,0,0,0,2.53.94,3.74,3.74,0,0,0,3-1.32,5,5,0,0,0,1.09-3.31V224.8Z"/><path class="cls-3" d="M586.28,237.23a5.73,5.73,0,0,1-3.12,1,3.55,3.55,0,0,1-2.57-.94,3.79,3.79,0,0,1-1-2.85V227h-1.89v-1.79h1.89v-3.57H582v3.57h4.07V227H582V234a2.46,2.46,0,0,0,.4,1.58,1.49,1.49,0,0,0,1.21.48,4.21,4.21,0,0,0,2.06-.63Z"/><path class="cls-3" d="M591.33,219.92a1.62,1.62,0,0,1,0,2.16,1.49,1.49,0,0,1-2.09,0,1.62,1.62,0,0,1,0-2.16,1.49,1.49,0,0,1,2.09,0Zm-2.2,4.88h2.34v13.3h-2.34Z"/><path class="cls-3" d="M605.08,225.58A6.16,6.16,0,0,1,607.5,228a7.46,7.46,0,0,1,0,7,6.14,6.14,0,0,1-2.42,2.39,7.78,7.78,0,0,1-7.09,0,6.15,6.15,0,0,1-2.41-2.38,7.47,7.47,0,0,1,0-7,6.15,6.15,0,0,1,2.41-2.38,7.78,7.78,0,0,1,7.09,0Zm-5.86,1.79a4.17,4.17,0,0,0-1.58,1.67,5.11,5.11,0,0,0-.57,2.43,5.24,5.24,0,0,0,.57,2.46,4.07,4.07,0,0,0,1.58,1.67,4.56,4.56,0,0,0,2.33.59,4.5,4.5,0,0,0,2.3-.59,4.08,4.08,0,0,0,1.58-1.67,5.24,5.24,0,0,0,.57-2.46,5.11,5.11,0,0,0-.57-2.43,4.17,4.17,0,0,0-1.58-1.67,4.43,4.43,0,0,0-2.3-.6A4.48,4.48,0,0,0,599.22,227.37Z"/><path class="cls-3" d="M622.7,226.1a5.2,5.2,0,0,1,1.33,3.79v8.22h-2.34v-7.6a3.27,3.27,0,0,0-3.55-3.57,4,4,0,0,0-2.91,1.14A4.49,4.49,0,0,0,614,231v7.12h-2.34V224.8H614v2.82q1.33-2.84,5.05-2.89A4.89,4.89,0,0,1,622.7,226.1Z"/><path class="cls-3" d="M633.65,226.94a6.54,6.54,0,0,0-1.9-.3,3.24,3.24,0,0,0-1.7.39,1.3,1.3,0,0,0-.64,1.19,1.33,1.33,0,0,0,.72,1.22,10.44,10.44,0,0,0,2.18.84,17.19,17.19,0,0,1,2.26.8,4,4,0,0,1,1.5,1.18,3.66,3.66,0,0,1-.8,4.93,6.08,6.08,0,0,1-3.53,1,8.84,8.84,0,0,1-2.88-.48,6.55,6.55,0,0,1-2.35-1.36l.88-1.71a6.22,6.22,0,0,0,2,1.21,6.81,6.81,0,0,0,2.38.45,3.55,3.55,0,0,0,1.86-.43,1.43,1.43,0,0,0,.71-1.31,1.49,1.49,0,0,0-.74-1.36,10.15,10.15,0,0,0-2.25-.91,14.88,14.88,0,0,1-2.18-.77,3.87,3.87,0,0,1-1.43-1.14,3.09,3.09,0,0,1-.59-2,3.16,3.16,0,0,1,1.36-2.79,5.88,5.88,0,0,1,3.4-.93,8.51,8.51,0,0,1,2.38.34,7.17,7.17,0,0,1,2,.92l-.85,1.79A8,8,0,0,0,633.65,226.94Z"/><path class="cls-3" d="M647.94,235.84a1.42,1.42,0,0,1,.39,1,1.46,1.46,0,0,1-.39,1,1.27,1.27,0,0,1-1,.42,1.32,1.32,0,0,1-1-.42,1.44,1.44,0,0,1-.4-1,1.4,1.4,0,0,1,.4-1,1.34,1.34,0,0,1,1-.4A1.29,1.29,0,0,1,647.94,235.84Zm-2.1-15.09h2.26v4.3l-.38,7.65h-1.53l-.35-7.65Z"/><path class="cls-3" d="M178.08,250.68h2.51l-6,17.61h-2.51l-4.55-14.54-4.63,14.54h-2.49l-5.94-17.61h2.59l4.65,15,4.63-15h2.41l4.65,15Z"/><path class="cls-3" d="M191.71,256.73a7.47,7.47,0,0,1,1.58,5.07q0,.5,0,.75H182.76a4.54,4.54,0,0,0,1.5,2.84,4.43,4.43,0,0,0,3,1.06,5.63,5.63,0,0,0,2.2-.43,5.3,5.3,0,0,0,1.77-1.21l1.28,1.33a6.7,6.7,0,0,1-2.36,1.63,7.86,7.86,0,0,1-3.07.58,7.06,7.06,0,0,1-3.48-.84,5.91,5.91,0,0,1-2.36-2.38,7.14,7.14,0,0,1-.84-3.5,7.07,7.07,0,0,1,.84-3.48,6.13,6.13,0,0,1,2.35-2.39,6.79,6.79,0,0,1,3.45-.87A5.86,5.86,0,0,1,191.71,256.73Zm-.53,4a3.86,3.86,0,0,0-4.12-3.9,4.21,4.21,0,0,0-2.93,1.06,4.43,4.43,0,0,0-1.4,2.84Z"/><path class="cls-3" d="M211.2,268.29v-1.86a5.46,5.46,0,0,1-4.65,2,5.32,5.32,0,0,1-2.43-.53,3.89,3.89,0,0,1-1.61-1.46,3.94,3.94,0,0,1-.57-2.09,3.42,3.42,0,0,1,1.32-2.83,5.91,5.91,0,0,1,3.68-1.07h4.23v-.63a2.75,2.75,0,0,0-.87-2.18,3.71,3.71,0,0,0-2.53-.77,7.24,7.24,0,0,0-4.1,1.43l-1-1.61a12.17,12.17,0,0,1,2.65-1.35,9.06,9.06,0,0,1,2.91-.42,5.56,5.56,0,0,1,3.85,1.22,4.42,4.42,0,0,1,1.38,3.41l0,8.75Zm-1.4-2.63a3.13,3.13,0,0,0,1.37-2.1v-1.33h-3.9a4.54,4.54,0,0,0-2.35.48,1.65,1.65,0,0,0-.77,1.51,2,2,0,0,0,.78,1.63,3.32,3.32,0,0,0,2.09.6A4.76,4.76,0,0,0,209.81,265.66Z"/><path class="cls-3" d="M221.89,255.68a5.54,5.54,0,0,1,2.87-.77v2.26a4.28,4.28,0,0,0-4.73,4.1v7h-2.34V255H220v2.87A4.81,4.81,0,0,1,221.89,255.68Z"/><path class="cls-3" d="M237.31,256.73a7.47,7.47,0,0,1,1.58,5.07q0,.5,0,.75H228.35a4.54,4.54,0,0,0,1.5,2.84,4.43,4.43,0,0,0,3,1.06,5.63,5.63,0,0,0,2.2-.43,5.3,5.3,0,0,0,1.77-1.21l1.28,1.33a6.7,6.7,0,0,1-2.36,1.63,7.86,7.86,0,0,1-3.07.58,7.06,7.06,0,0,1-3.48-.84,5.91,5.91,0,0,1-2.36-2.38,7.14,7.14,0,0,1-.84-3.5,7.07,7.07,0,0,1,.84-3.48,6.13,6.13,0,0,1,2.35-2.39,6.79,6.79,0,0,1,3.45-.87A5.86,5.86,0,0,1,237.31,256.73Zm-.53,4a3.86,3.86,0,0,0-4.12-3.9,4.21,4.21,0,0,0-2.93,1.06,4.43,4.43,0,0,0-1.4,2.84Z"/><path class="cls-3" d="M254.21,257a4.64,4.64,0,0,0-2.33.58,4.12,4.12,0,0,0-1.6,1.63,5,5,0,0,0-.58,2.44,5.09,5.09,0,0,0,.57,2.44,4.15,4.15,0,0,0,1.56,1.65,4.37,4.37,0,0,0,2.28.59,6,6,0,0,0,2.31-.43,4.4,4.4,0,0,0,1.71-1.23l1.33,1.36a5.88,5.88,0,0,1-2.3,1.73,7.88,7.88,0,0,1-3.16.6,6.86,6.86,0,0,1-3.45-.86,6,6,0,0,1-2.35-2.38,7.65,7.65,0,0,1,0-7,6,6,0,0,1,2.35-2.39,6.86,6.86,0,0,1,3.45-.86,8.42,8.42,0,0,1,3,.52,5.87,5.87,0,0,1,2.25,1.5L258,258.53A5.27,5.27,0,0,0,254.21,257Z"/><path class="cls-3" d="M272.24,256.73a7.47,7.47,0,0,1,1.58,5.07q0,.5,0,.75H263.29a4.54,4.54,0,0,0,1.5,2.84,4.43,4.43,0,0,0,3,1.06A5.63,5.63,0,0,0,270,266a5.3,5.3,0,0,0,1.77-1.21l1.28,1.33a6.7,6.7,0,0,1-2.36,1.63,7.86,7.86,0,0,1-3.07.58,7.06,7.06,0,0,1-3.48-.84,5.91,5.91,0,0,1-2.36-2.38,7.14,7.14,0,0,1-.84-3.5,7.07,7.07,0,0,1,.84-3.48,6.13,6.13,0,0,1,2.35-2.39,6.79,6.79,0,0,1,3.45-.87A5.86,5.86,0,0,1,272.24,256.73Zm-.53,4a3.86,3.86,0,0,0-4.12-3.9,4.21,4.21,0,0,0-2.93,1.06,4.43,4.43,0,0,0-1.4,2.84Z"/><path class="cls-3" d="M277.15,249.63h2.34v18.66h-2.34Z"/><path class="cls-3" d="M294.2,256.73a7.47,7.47,0,0,1,1.58,5.07q0,.5,0,.75H285.25a4.54,4.54,0,0,0,1.5,2.84,4.43,4.43,0,0,0,3,1.06,5.63,5.63,0,0,0,2.2-.43,5.3,5.3,0,0,0,1.77-1.21l1.28,1.33a6.7,6.7,0,0,1-2.36,1.63,7.86,7.86,0,0,1-3.07.58,7.06,7.06,0,0,1-3.48-.84,5.91,5.91,0,0,1-2.36-2.38,7.14,7.14,0,0,1-.84-3.5,7.07,7.07,0,0,1,.84-3.48,6.13,6.13,0,0,1,2.35-2.39,6.79,6.79,0,0,1,3.45-.87A5.86,5.86,0,0,1,294.2,256.73Zm-.53,4a3.86,3.86,0,0,0-4.12-3.9,4.21,4.21,0,0,0-2.93,1.06,4.43,4.43,0,0,0-1.4,2.84Z"/><path class="cls-3" d="M309.69,255.76a5.88,5.88,0,0,1,2.26,2.39,8.08,8.08,0,0,1,0,7,5.75,5.75,0,0,1-2.24,2.36,6.44,6.44,0,0,1-3.31.84,6.07,6.07,0,0,1-3-.7,5,5,0,0,1-2-2v2.64H299.1V249.63h2.34v8a5.07,5.07,0,0,1,2-2,6,6,0,0,1,2.93-.7A6.44,6.44,0,0,1,309.69,255.76Zm-1.47,10A4.14,4.14,0,0,0,309.8,264a5.18,5.18,0,0,0,.57-2.44,5,5,0,0,0-.58-2.42,4.27,4.27,0,0,0-1.58-1.68,4.35,4.35,0,0,0-2.29-.6,4.42,4.42,0,0,0-2.3.6,4.24,4.24,0,0,0-1.6,1.68,5.41,5.41,0,0,0,0,4.87,4.26,4.26,0,0,0,1.6,1.67,4.69,4.69,0,0,0,4.6,0Z"/><path class="cls-3" d="M320.23,255.68a5.54,5.54,0,0,1,2.87-.77v2.26a4.28,4.28,0,0,0-4.73,4.1v7H316V255h2.34v2.87A4.81,4.81,0,0,1,320.23,255.68Z"/><path class="cls-3" d="M333.18,268.29v-1.86a5.46,5.46,0,0,1-4.65,2,5.32,5.32,0,0,1-2.43-.53,3.89,3.89,0,0,1-1.61-1.46,3.94,3.94,0,0,1-.57-2.09,3.42,3.42,0,0,1,1.32-2.83,5.91,5.91,0,0,1,3.68-1.07h4.23v-.63a2.75,2.75,0,0,0-.87-2.18,3.71,3.71,0,0,0-2.53-.77,7.24,7.24,0,0,0-4.1,1.43l-1-1.61a12.17,12.17,0,0,1,2.65-1.35,9.06,9.06,0,0,1,2.91-.42,5.56,5.56,0,0,1,3.85,1.22,4.42,4.42,0,0,1,1.38,3.41l0,8.75Zm-1.4-2.63a3.13,3.13,0,0,0,1.37-2.1v-1.33h-3.9a4.54,4.54,0,0,0-2.35.48,1.65,1.65,0,0,0-.77,1.51,2,2,0,0,0,.78,1.63,3.32,3.32,0,0,0,2.09.6A4.76,4.76,0,0,0,331.79,265.66Z"/><path class="cls-3" d="M346.81,267.41a5.73,5.73,0,0,1-3.12,1,3.55,3.55,0,0,1-2.57-.94,3.79,3.79,0,0,1-1-2.85v-7.37h-1.89v-1.79h1.89v-3.57h2.36v3.57h4.07v1.79h-4.07v6.94a2.46,2.46,0,0,0,.4,1.58,1.49,1.49,0,0,0,1.21.48,4.22,4.22,0,0,0,2.06-.63Z"/><path class="cls-3" d="M351.86,250.1a1.62,1.62,0,0,1,0,2.16,1.49,1.49,0,0,1-2.09,0,1.62,1.62,0,0,1,0-2.16,1.49,1.49,0,0,1,2.09,0Zm-2.2,4.88H352v13.3h-2.34Z"/><path class="cls-3" d="M367.61,256.28a5.2,5.2,0,0,1,1.33,3.79v8.22h-2.34v-7.6a3.27,3.27,0,0,0-3.55-3.57,4,4,0,0,0-2.91,1.14,4.49,4.49,0,0,0-1.27,2.91v7.12h-2.34V255h2.34v2.82q1.33-2.84,5.05-2.89A4.89,4.89,0,0,1,367.61,256.28Z"/><path class="cls-3" d="M384.89,255v11.95a6.48,6.48,0,0,1-.84,3.34,5.59,5.59,0,0,1-2.38,2.2,7.9,7.9,0,0,1-3.57.77,9.1,9.1,0,0,1-5.48-1.86l1-1.71a7.07,7.07,0,0,0,2,1.2,6.63,6.63,0,0,0,2.31.39,4.62,4.62,0,0,0,3.29-1.16,4,4,0,0,0,1.23-3.09v-1.86a4.94,4.94,0,0,1-1.91,1.87,5.63,5.63,0,0,1-2.77.67,6,6,0,0,1-3.16-.82,5.56,5.56,0,0,1-2.12-2.28,7.18,7.18,0,0,1-.75-3.35,7,7,0,0,1,.75-3.29,5.53,5.53,0,0,1,2.13-2.24,6.12,6.12,0,0,1,3.16-.8,5.7,5.7,0,0,1,2.78.65,4.88,4.88,0,0,1,1.9,1.86V255Zm-4.4,10.24a4,4,0,0,0,1.5-1.6,4.83,4.83,0,0,0,.54-2.3A4.89,4.89,0,0,0,382,259a4,4,0,0,0-1.5-1.6,4.14,4.14,0,0,0-2.19-.58,4.2,4.2,0,0,0-2.2.58,4.1,4.1,0,0,0-1.52,1.6,4.8,4.8,0,0,0-.55,2.33,4.6,4.6,0,0,0,1.21,3.22,4,4,0,0,0,3.07,1.26A4.15,4.15,0,0,0,380.49,265.22Z"/><path class="cls-3" d="M402.9,267.41a5.73,5.73,0,0,1-3.12,1,3.55,3.55,0,0,1-2.57-.94,3.79,3.79,0,0,1-1-2.85v-7.37h-1.89v-1.79h1.89v-3.57h2.36v3.57h4.07v1.79H398.6v6.94a2.46,2.46,0,0,0,.4,1.58,1.49,1.49,0,0,0,1.21.48,4.22,4.22,0,0,0,2.06-.63Z"/><path class="cls-3" d="M417,256.28a5.2,5.2,0,0,1,1.33,3.79v8.22H416v-7.6a3.55,3.55,0,0,0-.94-2.63,3.52,3.52,0,0,0-2.6-.94,4,4,0,0,0-3.07,1.31,4.83,4.83,0,0,0-1.13,3.32v6.54h-2.34V249.63h2.34v8.22q1.33-2.89,5.08-2.94A4.88,4.88,0,0,1,417,256.28Z"/><path class="cls-3" d="M432.48,256.73a7.47,7.47,0,0,1,1.58,5.07q0,.5,0,.75H423.52a4.54,4.54,0,0,0,1.5,2.84,4.43,4.43,0,0,0,3,1.06,5.63,5.63,0,0,0,2.2-.43,5.3,5.3,0,0,0,1.77-1.21l1.28,1.33a6.7,6.7,0,0,1-2.36,1.63,7.86,7.86,0,0,1-3.07.58,7.06,7.06,0,0,1-3.48-.84,5.91,5.91,0,0,1-2.36-2.38,7.14,7.14,0,0,1-.84-3.5,7.07,7.07,0,0,1,.84-3.48,6.13,6.13,0,0,1,2.35-2.39,6.79,6.79,0,0,1,3.45-.87A5.86,5.86,0,0,1,432.48,256.73Zm-.53,4a3.86,3.86,0,0,0-4.12-3.9,4.21,4.21,0,0,0-2.93,1.06,4.43,4.43,0,0,0-1.4,2.84Z"/><path class="cls-3" d="M464.62,256.29a5.28,5.28,0,0,1,1.31,3.77v8.22h-2.36v-7.6a3.65,3.65,0,0,0-.92-2.64,3.34,3.34,0,0,0-2.53-1,3.82,3.82,0,0,0-3,1.33,4.93,4.93,0,0,0-1.08,3.29v6.56H453.7v-7.6a3.68,3.68,0,0,0-.91-2.64,3.33,3.33,0,0,0-2.54-1,3.86,3.86,0,0,0-3,1.33,4.9,4.9,0,0,0-1.09,3.29v6.56h-2.34V255h2.34v2.79q1.31-2.82,5-2.87a5.08,5.08,0,0,1,3.06.88,4.32,4.32,0,0,1,1.65,2.46q1.23-3.3,5.18-3.35A4.71,4.71,0,0,1,464.62,256.29Z"/><path class="cls-3" d="M479.17,255.76a6.16,6.16,0,0,1,2.42,2.38,7.45,7.45,0,0,1,0,7,6.12,6.12,0,0,1-2.42,2.39,7.78,7.78,0,0,1-7.09,0,6.15,6.15,0,0,1-2.41-2.38,7.47,7.47,0,0,1,0-7,6.15,6.15,0,0,1,2.41-2.38,7.78,7.78,0,0,1,7.09,0Zm-5.86,1.79a4.18,4.18,0,0,0-1.58,1.67,5.11,5.11,0,0,0-.57,2.43,5.24,5.24,0,0,0,.57,2.46,4.07,4.07,0,0,0,1.58,1.67,4.56,4.56,0,0,0,2.33.59,4.5,4.5,0,0,0,2.3-.59,4.07,4.07,0,0,0,1.58-1.67,5.24,5.24,0,0,0,.57-2.46,5.11,5.11,0,0,0-.57-2.43,4.18,4.18,0,0,0-1.58-1.67,4.43,4.43,0,0,0-2.3-.6A4.48,4.48,0,0,0,473.31,257.55Z"/><path class="cls-3" d="M496.79,256.28a5.2,5.2,0,0,1,1.33,3.79v8.22h-2.34v-7.6a3.27,3.27,0,0,0-3.55-3.57,4,4,0,0,0-2.91,1.14,4.49,4.49,0,0,0-1.27,2.91v7.12h-2.34V255h2.34v2.82q1.33-2.84,5.05-2.89A4.89,4.89,0,0,1,496.79,256.28Z"/><path class="cls-3" d="M509.44,267.41a5.73,5.73,0,0,1-3.12,1,3.55,3.55,0,0,1-2.57-.94,3.79,3.79,0,0,1-1-2.85v-7.37h-1.89v-1.79h1.89v-3.57h2.36v3.57h4.07v1.79h-4.07v6.94a2.46,2.46,0,0,0,.4,1.58,1.49,1.49,0,0,0,1.21.48,4.22,4.22,0,0,0,2.06-.63Z"/><path class="cls-3" d="M523.5,256.28a5.2,5.2,0,0,1,1.33,3.79v8.22h-2.34v-7.6a3.55,3.55,0,0,0-.94-2.63,3.52,3.52,0,0,0-2.6-.94,4,4,0,0,0-3.07,1.31,4.83,4.83,0,0,0-1.13,3.32v6.54H512.4V249.63h2.34v8.22q1.33-2.89,5.08-2.94A4.88,4.88,0,0,1,523.5,256.28Z"/><path class="cls-3" d="M535.72,249.63h2.34v18.66h-2.34Z"/><path class="cls-3" d="M551.83,255.76a6.16,6.16,0,0,1,2.42,2.38,7.45,7.45,0,0,1,0,7,6.12,6.12,0,0,1-2.42,2.39,7.78,7.78,0,0,1-7.09,0,6.15,6.15,0,0,1-2.41-2.38,7.47,7.47,0,0,1,0-7,6.15,6.15,0,0,1,2.41-2.38,7.78,7.78,0,0,1,7.09,0ZM546,257.55a4.18,4.18,0,0,0-1.58,1.67,5.11,5.11,0,0,0-.57,2.43,5.24,5.24,0,0,0,.57,2.46,4.07,4.07,0,0,0,1.58,1.67,4.56,4.56,0,0,0,2.33.59,4.5,4.5,0,0,0,2.3-.59,4.07,4.07,0,0,0,1.58-1.67,5.24,5.24,0,0,0,.57-2.46,5.11,5.11,0,0,0-.57-2.43,4.18,4.18,0,0,0-1.58-1.67,4.43,4.43,0,0,0-2.3-.6A4.48,4.48,0,0,0,546,257.55Z"/><path class="cls-3" d="M569.45,256.28a5.2,5.2,0,0,1,1.33,3.79v8.22h-2.34v-7.6a3.27,3.27,0,0,0-3.55-3.57,4,4,0,0,0-2.91,1.14,4.49,4.49,0,0,0-1.27,2.91v7.12h-2.34V255h2.34v2.82q1.33-2.84,5.05-2.89A4.89,4.89,0,0,1,569.45,256.28Z"/><path class="cls-3" d="M586.72,255v11.95a6.48,6.48,0,0,1-.84,3.34,5.59,5.59,0,0,1-2.38,2.2,7.9,7.9,0,0,1-3.57.77,9.1,9.1,0,0,1-5.48-1.86l1-1.71a7.07,7.07,0,0,0,2,1.2,6.63,6.63,0,0,0,2.31.39,4.62,4.62,0,0,0,3.29-1.16,4,4,0,0,0,1.23-3.09v-1.86a4.94,4.94,0,0,1-1.91,1.87,5.63,5.63,0,0,1-2.77.67,6,6,0,0,1-3.16-.82,5.56,5.56,0,0,1-2.12-2.28,7.18,7.18,0,0,1-.75-3.35,7,7,0,0,1,.75-3.29,5.53,5.53,0,0,1,2.13-2.24,6.12,6.12,0,0,1,3.16-.8,5.7,5.7,0,0,1,2.78.65,4.88,4.88,0,0,1,1.9,1.86V255Zm-4.4,10.24a4,4,0,0,0,1.5-1.6,4.83,4.83,0,0,0,.54-2.3,4.89,4.89,0,0,0-.54-2.33,4,4,0,0,0-1.5-1.6,4.14,4.14,0,0,0-2.19-.58,4.2,4.2,0,0,0-2.2.58,4.1,4.1,0,0,0-1.52,1.6,4.8,4.8,0,0,0-.55,2.33,4.6,4.6,0,0,0,1.21,3.22,4,4,0,0,0,3.07,1.26A4.15,4.15,0,0,0,582.32,265.22Z"/><path class="cls-3" d="M281.43,280.86h2.42v7.85h10.06v-7.85h2.44v17.61h-2.44V290.9H283.85v7.57h-2.42Z"/><path class="cls-3" d="M309.28,298.47v-1.86a5.46,5.46,0,0,1-4.65,2,5.3,5.3,0,0,1-2.43-.53,3.9,3.9,0,0,1-1.61-1.46,3.94,3.94,0,0,1-.57-2.09,3.42,3.42,0,0,1,1.32-2.83A5.91,5.91,0,0,1,305,290.6h4.23V290a2.75,2.75,0,0,0-.87-2.18,3.7,3.7,0,0,0-2.53-.77,7.24,7.24,0,0,0-4.1,1.43l-1-1.61a12.26,12.26,0,0,1,2.65-1.35,9.09,9.09,0,0,1,2.91-.41,5.57,5.57,0,0,1,3.85,1.22,4.42,4.42,0,0,1,1.38,3.41l0,8.75Zm-1.4-2.63a3.13,3.13,0,0,0,1.37-2.1v-1.33h-3.9a4.54,4.54,0,0,0-2.35.48,1.65,1.65,0,0,0-.77,1.51A2,2,0,0,0,303,296a3.32,3.32,0,0,0,2.09.6A4.77,4.77,0,0,0,307.88,295.84Z"/><path class="cls-3" d="M321.3,287.18a4.63,4.63,0,0,0-2.33.58,4.1,4.1,0,0,0-1.6,1.63,5,5,0,0,0-.58,2.44,5.09,5.09,0,0,0,.57,2.44,4.15,4.15,0,0,0,1.56,1.65,4.37,4.37,0,0,0,2.28.59,6,6,0,0,0,2.31-.43,4.39,4.39,0,0,0,1.71-1.23l1.33,1.36a5.87,5.87,0,0,1-2.3,1.74,7.88,7.88,0,0,1-3.16.6,6.86,6.86,0,0,1-3.45-.86,6,6,0,0,1-2.35-2.38,7.65,7.65,0,0,1,0-7,6,6,0,0,1,2.35-2.39,6.86,6.86,0,0,1,3.45-.86,8.42,8.42,0,0,1,3,.52,5.86,5.86,0,0,1,2.25,1.5l-1.28,1.61A5.27,5.27,0,0,0,321.3,287.18Z"/><path class="cls-3" d="M339.21,298.47,335,292l-2.59,2.69v3.77H330V279.81h2.34v11.9l6.44-6.54h2.74l-5,5.16,5.43,8.15Z"/><path class="cls-3" d="M351.68,297.59a5.74,5.74,0,0,1-3.12,1,3.55,3.55,0,0,1-2.57-.94,3.79,3.79,0,0,1-1-2.85V287.4h-1.89v-1.79H345V282h2.36v3.57h4.07v1.79h-4.07v6.94a2.46,2.46,0,0,0,.4,1.58,1.49,1.49,0,0,0,1.21.48,4.23,4.23,0,0,0,2.06-.63Z"/><path class="cls-3" d="M363.41,285.95a6.15,6.15,0,0,1,2.42,2.38,7.46,7.46,0,0,1,0,7,6.12,6.12,0,0,1-2.42,2.39,7.78,7.78,0,0,1-7.09,0,6.14,6.14,0,0,1-2.41-2.38,7.47,7.47,0,0,1,0-7,6.14,6.14,0,0,1,2.41-2.38,7.78,7.78,0,0,1,7.09,0Zm-5.86,1.79A4.17,4.17,0,0,0,356,289.4a5.11,5.11,0,0,0-.57,2.43,5.24,5.24,0,0,0,.57,2.46,4.06,4.06,0,0,0,1.58,1.67,4.55,4.55,0,0,0,2.33.59,4.5,4.5,0,0,0,2.3-.59,4.07,4.07,0,0,0,1.58-1.67,5.24,5.24,0,0,0,.57-2.46,5.11,5.11,0,0,0-.57-2.43,4.18,4.18,0,0,0-1.58-1.67,4.43,4.43,0,0,0-2.3-.6A4.48,4.48,0,0,0,357.55,287.73Z"/><path class="cls-3" d="M380.68,285.95a5.87,5.87,0,0,1,2.26,2.39,8.08,8.08,0,0,1,0,7,5.75,5.75,0,0,1-2.24,2.37,6.45,6.45,0,0,1-3.31.84,6.06,6.06,0,0,1-3-.7,5,5,0,0,1-2-2v2.64h-2.34V279.81h2.34v8a5.08,5.08,0,0,1,2-2,6,6,0,0,1,2.93-.7A6.44,6.44,0,0,1,380.68,285.95Zm-1.47,10a4.14,4.14,0,0,0,1.58-1.69,5.18,5.18,0,0,0,.57-2.44,5,5,0,0,0-.58-2.41,4.27,4.27,0,0,0-1.58-1.69,4.36,4.36,0,0,0-2.29-.6,4.43,4.43,0,0,0-2.3.6,4.24,4.24,0,0,0-1.6,1.69,5.41,5.41,0,0,0,0,4.87,4.26,4.26,0,0,0,1.6,1.67,4.69,4.69,0,0,0,4.6,0Z"/><path class="cls-3" d="M397,286.91a7.47,7.47,0,0,1,1.58,5.07q0,.5,0,.75H388.07a4.53,4.53,0,0,0,1.5,2.84,4.43,4.43,0,0,0,3,1.06,5.63,5.63,0,0,0,2.2-.43,5.27,5.27,0,0,0,1.77-1.21l1.28,1.33a6.73,6.73,0,0,1-2.36,1.63,7.88,7.88,0,0,1-3.07.58,7.07,7.07,0,0,1-3.48-.84,5.92,5.92,0,0,1-2.36-2.38,7.15,7.15,0,0,1-.84-3.5,7.07,7.07,0,0,1,.84-3.48A6.13,6.13,0,0,1,388.9,286a6.79,6.79,0,0,1,3.45-.87A5.86,5.86,0,0,1,397,286.91Zm-.53,4a3.86,3.86,0,0,0-4.12-3.9,4.21,4.21,0,0,0-2.93,1.06,4.43,4.43,0,0,0-1.4,2.84Z"/><path class="cls-3" d="M406,285.86a5.53,5.53,0,0,1,2.87-.77v2.26a4.28,4.28,0,0,0-4.73,4.1v7h-2.34v-13.3h2.34V288A4.82,4.82,0,0,1,406,285.86Z"/><path class="cls-3" d="M414.81,282.3a2,2,0,0,0-.6,1.58v1.73h3.67v1.79H414.2v11.07h-2.34V287.4h-1.74v-1.79h1.74v-1.43a4.7,4.7,0,0,1,.62-2.48,4,4,0,0,1,1.62-1.54,4.69,4.69,0,0,1,2.16-.52,5.17,5.17,0,0,1,2.31.6l-.55,1.91a4,4,0,0,0-1.71-.43A2.15,2.15,0,0,0,414.81,282.3Z"/><path class="cls-3" d="M429.77,286.91a7.47,7.47,0,0,1,1.58,5.07q0,.5,0,.75H420.82a4.53,4.53,0,0,0,1.5,2.84,4.43,4.43,0,0,0,3,1.06,5.63,5.63,0,0,0,2.2-.43A5.27,5.27,0,0,0,429.3,295l1.28,1.33a6.73,6.73,0,0,1-2.36,1.63,7.88,7.88,0,0,1-3.07.58,7.07,7.07,0,0,1-3.48-.84,5.92,5.92,0,0,1-2.36-2.38,7.15,7.15,0,0,1-.84-3.5,7.07,7.07,0,0,1,.84-3.48,6.13,6.13,0,0,1,2.35-2.39,6.79,6.79,0,0,1,3.45-.87A5.86,5.86,0,0,1,429.77,286.91Zm-.53,4a3.86,3.86,0,0,0-4.12-3.9,4.21,4.21,0,0,0-2.93,1.06,4.43,4.43,0,0,0-1.4,2.84Z"/><path class="cls-3" d="M440,287.3a6.54,6.54,0,0,0-1.9-.3,3.24,3.24,0,0,0-1.7.39,1.3,1.3,0,0,0-.64,1.2,1.33,1.33,0,0,0,.72,1.22,10.37,10.37,0,0,0,2.18.84,16.92,16.92,0,0,1,2.26.8,4,4,0,0,1,1.5,1.18,3.66,3.66,0,0,1-.8,4.93,6.07,6.07,0,0,1-3.53,1,8.81,8.81,0,0,1-2.88-.48,6.53,6.53,0,0,1-2.35-1.36l.88-1.71a6.22,6.22,0,0,0,2,1.21,6.81,6.81,0,0,0,2.38.45,3.56,3.56,0,0,0,1.86-.43,1.43,1.43,0,0,0,.71-1.31,1.49,1.49,0,0,0-.74-1.36,10.11,10.11,0,0,0-2.25-.91,15.1,15.1,0,0,1-2.18-.77,3.85,3.85,0,0,1-1.43-1.14,3.08,3.08,0,0,1-.59-2,3.16,3.16,0,0,1,1.36-2.79,5.88,5.88,0,0,1,3.4-.93,8.48,8.48,0,0,1,2.38.34,7.14,7.14,0,0,1,2,.92l-.85,1.79A8,8,0,0,0,440,287.3Z"/><path class="cls-3" d="M453.26,297.59a5.74,5.74,0,0,1-3.12,1,3.55,3.55,0,0,1-2.57-.94,3.79,3.79,0,0,1-1-2.85V287.4h-1.89v-1.79h1.89V282H449v3.57H453v1.79H449v6.94a2.46,2.46,0,0,0,.4,1.58,1.49,1.49,0,0,0,1.21.48,4.23,4.23,0,0,0,2.06-.63Z"/><path class="cls-3" d="M464.27,296.21a1.42,1.42,0,0,1,.39,1,1.47,1.47,0,0,1-.39,1,1.27,1.27,0,0,1-1,.42,1.32,1.32,0,0,1-1-.42,1.44,1.44,0,0,1-.4-1,1.4,1.4,0,0,1,.4-1,1.34,1.34,0,0,1,1-.4A1.29,1.29,0,0,1,464.27,296.21Zm-2.1-15.09h2.26v4.3l-.38,7.65h-1.53l-.35-7.65Z"/><path class="cls-3" d="M469.45,296.21a1.42,1.42,0,0,1,.39,1,1.47,1.47,0,0,1-.39,1,1.27,1.27,0,0,1-1,.42,1.32,1.32,0,0,1-1-.42,1.44,1.44,0,0,1-.4-1,1.4,1.4,0,0,1,.4-1,1.34,1.34,0,0,1,1-.4A1.29,1.29,0,0,1,469.45,296.21Zm-2.1-15.09h2.26v4.3l-.38,7.65H467.7l-.35-7.65Z"/><g class="cls-6"><g class="cls-7"><path class="cls-3" d="M707,671.68q0-7.44,0-14.88c0-11.24,0-22.49,0-33.73a6.74,6.74,0,0,0-1.38-4.23c-4.27-5.91-8.51-11.86-12.63-17.88-.85-1.24-2.6-3-1.23-4.26s2.94.69,4.07,1.71c3.61,3.26,7.09,6.67,11.15,10.52,0-7.34-.27-14.11.08-20.85s.72-13.33,3.46-19.84c1.72,1.52,1.84,3.29,2.1,4.94,1.75,11,2,22.17,2.42,33.29,1.09,32.25,1.7,64.5,2.32,96.76.11,5.57.36,11.13.43,16.7,0,1.71.34,2.16,2.12,1.55,8.34-2.86,15.41-7.77,21.91-13.53,14.69-13,24.95-28.81,28.73-48.35,2.76-14.29,1-28.31-3.11-42.07-6.22-20.88-16.63-39.35-32.27-54.71a71.92,71.92,0,0,0-8.94-7.24c-7.73-5.48-15.79-6.25-24.48-2.41-16.64,7.37-30,18.89-41.24,32.91-9.21,11.44-16.07,24.12-18.8,38.71-3.27,17.46.34,33.85,8.69,49.2,11.11,20.42,26.78,36.14,48.52,45.25,1.76.74,3.64,1.21,5.45,1.83,1.64.55,2.43.28,2.43-1.74q-.06-15.56.1-31.13a5.23,5.23,0,0,0-1.56-3.54c-8.07-9.9-16.55-19.46-24.1-29.78a40.74,40.74,0,0,1-5.41-10.43c-.28-.77-1.17-1.87-.06-2.59.85-.55,1.65.31,2.27.83,2.28,1.91,4.58,3.8,6.72,5.86C692.44,655.89,699.29,663.94,707,671.68Z"/><circle class="cls-8" cx="683.06" cy="591.71" r="4.79"/><path class="cls-3" d="M711.3,803.64l-4.06.07a9.4,9.4,0,0,0-1.08-2q0-6,.12-12.05a2.6,2.6,0,0,0,.95-1.6c.1-1.11-.73-2.18-1-3.28.14.37.2-1.1.27-1.36.37-1.44.59-3-.68-4.36l.63,0q0-3.52,0-7c0-5.93,0-11.86.06-17.79a2.39,2.39,0,0,0,.15-2.91l0-.06c.19-.29-.32-.8-.39-1.08a6.11,6.11,0,0,1-.12-1c.34-.36.38-.54.31-.58a1.68,1.68,0,0,0-.09-1.78c.57-7-1.59-13.84,5.6-20.56,3.29.7,3.27,1.68,3.71,2.53,2.84,5.54,3.32,11.14,3.92,16.73,1.76,16.54,2.77,33.09,3.78,49.63.17,2.85.7,5.69.67,8.54a1.32,1.32,0,0,0,0,.18C719.78,803.67,715.58,803.57,711.3,803.64Z"/><circle class="cls-9" cx="671.04" cy="636.28" r="3.9"/><path class="cls-10" d="M574.08,622.22q0-6.72,0-13.44c0-10.16,0-20.32,0-30.47a6.09,6.09,0,0,1,1.25-3.82c3.86-5.34,7.69-10.71,11.41-16.15.77-1.12,2.35-2.75,1.11-3.85s-2.66.62-3.68,1.55c-3.26,2.95-6.41,6-10.07,9.51,0-6.63.25-12.75-.07-18.84s-.65-12-3.13-17.93c-1.56,1.37-1.66,3-1.9,4.47-1.58,10-1.85,20-2.19,30.08-1,29.13-1.53,58.28-2.1,87.42-.1,5-.33,10.06-.39,15.08,0,1.54-.31,2-1.92,1.4-7.53-2.59-13.93-7-19.79-12.23-13.28-11.79-22.54-26-26-43.68-2.49-12.91-.89-25.57,2.81-38,5.62-18.87,15-35.55,29.15-49.43a65,65,0,0,1,8.08-6.54c7-5,14.27-5.65,22.11-2.18,15,6.66,27.06,17.07,37.26,29.73,8.32,10.34,14.52,21.79,17,35,3,15.77-.31,30.58-7.86,44.45-10,18.45-24.2,32.65-43.83,40.88-1.59.67-3.29,1.1-4.93,1.65-1.48.5-2.2.25-2.19-1.58q.06-14.06-.09-28.13a4.72,4.72,0,0,1,1.41-3.19c7.29-8.94,15-17.58,21.77-26.9a36.81,36.81,0,0,0,4.89-9.43c.25-.7,1.06-1.69.05-2.34-.77-.49-1.49.28-2.05.75-2.06,1.72-4.14,3.43-6.07,5.3C587.26,608,581.07,615.23,574.08,622.22Z"/><circle class="cls-2" cx="595.74" cy="549.97" r="4.33"/><path class="cls-10" d="M570.22,794.24l3.67.11a20.39,20.39,0,0,1,1-3.2q0-9.55-.11-19.1a5.36,5.36,0,0,1-.86-2.54c-.09-1.76.66-3.45.92-5.19-.13.59-.18-1.74-.24-2.16-.34-2.28-.54-4.68.61-6.9l-.57-.08q0-5.57,0-11.14c0-9.4,0-18.8-.05-28.2a6.17,6.17,0,0,1-.13-4.62l0-.1c-.17-.46.29-1.26.35-1.72s.09-1.11.11-1.66c-.3-.56-.34-.85-.28-.92a4.42,4.42,0,0,1,.09-2.82c-.52-11.09,1.44-21.93-5.06-32.58-3,1.11-3,2.66-3.35,4-2.56,8.78-3,17.65-3.54,26.52-1.59,26.21-2.51,52.43-3.41,78.65-.16,4.51-.63,9-.61,13.53,0,.1,0,.2,0,.29C562.56,794.28,566.36,794.13,570.22,794.24Z"/><path class="cls-10" d="M123.05,738.35q0-4.59,0-9.19c0-6.94,0-13.89,0-20.83a4.16,4.16,0,0,1,.85-2.61c2.64-3.65,5.25-7.32,7.8-11,.52-.77,1.61-1.88.76-2.63s-1.82.43-2.52,1.06c-2.23,2-4.38,4.12-6.89,6.5,0-4.53.17-8.71,0-12.88s-.44-8.23-2.14-12.25a4.4,4.4,0,0,0-1.3,3.05,166.51,166.51,0,0,0-1.49,20.56c-.67,19.91-1,39.83-1.43,59.75-.07,3.44-.22,6.87-.27,10.31,0,1.06-.21,1.33-1.31,1a40.11,40.11,0,0,1-13.53-8.36C92.45,752.7,86.12,743,83.79,730.9c-1.7-8.82-.61-17.48,1.92-26a77.35,77.35,0,0,1,19.93-33.78,44.42,44.42,0,0,1,5.52-4.47,14.37,14.37,0,0,1,15.11-1.49c10.28,4.55,18.5,11.67,25.47,20.32,5.69,7.07,9.92,14.9,11.61,23.9,2,10.78-.21,20.9-5.37,30.38-6.86,12.61-16.54,22.32-30,27.94-1.09.46-2.25.75-3.37,1.13s-1.5.17-1.5-1.08q0-9.61-.06-19.22a3.23,3.23,0,0,1,1-2.18c5-6.11,10.22-12,14.88-18.39a25.16,25.16,0,0,0,3.34-6.44c.17-.48.72-1.16,0-1.6-.53-.34-1,.19-1.4.51-1.41,1.18-2.83,2.35-4.15,3.62C132.06,728.6,127.83,733.58,123.05,738.35Z"/><circle class="cls-2" cx="137.86" cy="688.97" r="2.96"/><path class="cls-3" d="M2.55,722.93q0-3.3,0-6.61c0-5,0-10,0-15a3,3,0,0,1,.61-1.88c1.9-2.63,3.78-5.26,5.61-7.94.38-.55,1.16-1.35.55-1.89s-1.31.31-1.81.76c-1.6,1.45-3.15,3-5,4.67,0-3.26.12-6.26,0-9.26A25.39,25.39,0,0,0,1,677,3.16,3.16,0,0,0,0,679.21,119.69,119.69,0,0,0-1,694c-.49,14.31-.75,28.63-1,43,0,2.47-.16,4.94-.19,7.41,0,.76-.15,1-.94.69a28.83,28.83,0,0,1-9.73-6c-6.52-5.79-11.08-12.79-12.75-21.46a38.85,38.85,0,0,1,1.38-18.68A55.6,55.6,0,0,1-10,674.6a31.93,31.93,0,0,1,4-3.22,10.33,10.33,0,0,1,10.87-1.07,48.94,48.94,0,0,1,18.31,14.61,38.64,38.64,0,0,1,8.35,17.18c1.45,7.75-.15,15-3.86,21.84C22.72,733,15.76,740,6.12,744c-.78.33-1.61.54-2.42.81s-1.08.12-1.08-.77q0-6.91,0-13.82a2.32,2.32,0,0,1,.69-1.57c3.58-4.39,7.35-8.64,10.7-13.22a18.08,18.08,0,0,0,2.4-4.63c.12-.34.52-.83,0-1.15s-.73.14-1,.37c-1,.85-2,1.69-3,2.6C9,715.92,6,719.49,2.55,722.93Z"/><circle class="cls-9" cx="13.19" cy="687.43" r="2.13"/><path class="cls-3" d="M.65,781.51l1.8,0a4.17,4.17,0,0,1,.48-.9q0-2.68-.05-5.35a1.15,1.15,0,0,1-.42-.71c0-.49.32-1,.45-1.45-.06.17-.09-.49-.12-.61a1.89,1.89,0,0,1,.3-1.93l-.28,0q0-1.56,0-3.12c0-2.63,0-5.27,0-7.9a1.06,1.06,0,0,1-.07-1.29v0c-.08-.13.14-.35.17-.48a2.71,2.71,0,0,0,.05-.46c-.15-.16-.17-.24-.14-.26a.75.75,0,0,1,0-.79c-.25-3.11.71-6.14-2.49-9.13-1.46.31-1.45.74-1.65,1.12A20.1,20.1,0,0,0-3,755.66c-.78,7.34-1.23,14.69-1.68,22-.08,1.26-.31,2.53-.3,3.79a.58.58,0,0,1,0,.08C-3.11,781.52-1.25,781.48.65,781.51Z"/><path class="cls-10" d="M410.61,655.59q0-6.54,0-13.08c0-9.88,0-19.77,0-29.65a5.92,5.92,0,0,1,1.21-3.72c3.76-5.2,7.48-10.42,11.1-15.71.75-1.09,2.29-2.67,1.08-3.74s-2.59.61-3.58,1.5c-3.18,2.87-6.23,5.86-9.8,9.25,0-6.45.24-12.4-.07-18.33s-.63-11.71-3-17.44c-1.51,1.33-1.61,2.89-1.85,4.35-1.54,9.69-1.8,19.48-2.13,29.27-1,28.34-1.49,56.7-2,85.05-.09,4.89-.32,9.78-.38,14.68,0,1.5-.3,1.9-1.87,1.36-7.33-2.52-13.55-6.83-19.26-11.9C367,676,358,662.16,354.71,645c-2.43-12.56-.87-24.88,2.74-37,5.47-18.36,14.62-34.59,28.36-48.09a63.22,63.22,0,0,1,7.86-6.37c6.8-4.82,13.88-5.5,21.51-2.12,14.63,6.48,26.33,16.61,36.25,28.93,8.1,10.06,14.13,21.2,16.53,34,2.88,15.34-.3,29.75-7.64,43.25-9.77,17.95-23.54,31.77-42.65,39.78-1.55.65-3.2,1.07-4.79,1.61-1.44.49-2.14.24-2.13-1.53q.06-13.68-.09-27.36A4.59,4.59,0,0,1,412,667c7.09-8.7,14.55-17.1,21.18-26.17a35.81,35.81,0,0,0,4.76-9.17c.24-.68,1-1.65.05-2.27-.75-.48-1.45.27-2,.73-2,1.67-4,3.34-5.91,5.15C423.43,641.72,417.41,648.79,410.61,655.59Z"/><circle class="cls-11" cx="444.64" cy="624.85" r="4.21"/><circle class="cls-12" cx="429.86" cy="584.75" r="3.58"/><path class="cls-10" d="M406.85,771.59l3.57.06a8.26,8.26,0,0,1,1-1.77q0-5.3-.11-10.59a2.29,2.29,0,0,1-.83-1.41c-.09-1,.64-1.91.9-2.88-.13.33-.17-1-.23-1.2a3.75,3.75,0,0,1,.6-3.83l-.55,0q0-3.09,0-6.18c0-5.21,0-10.43-.05-15.64a2.1,2.1,0,0,1-.13-2.56l0-.05c-.16-.25.28-.7.34-1a5.37,5.37,0,0,0,.11-.92c-.3-.31-.33-.47-.27-.51a1.48,1.48,0,0,1,.08-1.57c-.5-6.15,1.4-12.17-4.92-18.07-2.9.62-2.87,1.47-3.26,2.23-2.49,4.87-2.92,9.79-3.44,14.71-1.55,14.54-2.44,29.08-3.32,43.63-.15,2.5-.62,5-.59,7.51a1.16,1.16,0,0,1,0,.16C399.4,771.61,403.09,771.53,406.85,771.59Z"/><path class="cls-3" d="M499.8,695.92q0-4.94,0-9.87c0-7.46,0-14.92,0-22.38a4.47,4.47,0,0,1,.91-2.81c2.84-3.92,5.65-7.87,8.38-11.86.56-.82,1.73-2,.82-2.83s-2,.46-2.7,1.14c-2.4,2.17-4.71,4.43-7.4,7,0-4.87.18-9.37-.05-13.84s-.47-8.84-2.3-13.17a4.73,4.73,0,0,0-1.39,3.28,178.94,178.94,0,0,0-1.61,22.1c-.73,21.4-1.13,42.81-1.54,64.21-.07,3.69-.24,7.39-.29,11.08,0,1.13-.22,1.43-1.41,1a43.11,43.11,0,0,1-14.54-9c-9.75-8.66-16.56-19.12-19.06-32.09-1.83-9.48-.65-18.78,2.07-27.92a83.12,83.12,0,0,1,21.41-36.31,47.73,47.73,0,0,1,5.93-4.81,15.44,15.44,0,0,1,16.24-1.6c11,4.89,19.88,12.54,27.37,21.84,6.11,7.59,10.66,16,12.48,25.69,2.17,11.59-.23,22.46-5.77,32.65-7.37,13.55-17.77,24-32.2,30-1.17.49-2.41.81-3.62,1.21s-1.62.18-1.61-1.16q0-10.33-.07-20.66a3.47,3.47,0,0,1,1-2.35c5.35-6.57,11-12.91,16-19.76a27,27,0,0,0,3.59-6.92c.18-.51.78-1.24,0-1.72-.56-.36-1.09.21-1.51.55-1.51,1.26-3,2.52-4.46,3.89C509.48,685.45,504.94,690.79,499.8,695.92Z"/><circle class="cls-9" cx="525.5" cy="672.71" r="3.18"/><circle class="cls-2" cx="515.71" cy="642.85" r="3.18"/><path class="cls-3" d="M497,791.5l2.69.06a7.63,7.63,0,0,1,.72-1.55q0-4.62-.08-9.24a2.08,2.08,0,0,1-.63-1.23,8.92,8.92,0,0,1,.68-2.51c-.1.29-.13-.84-.18-1a3.68,3.68,0,0,1,.45-3.34l-.42,0q0-2.7,0-5.39c0-4.55,0-9.1,0-13.65a2.06,2.06,0,0,1-.1-2.23l0,0c-.12-.22.21-.61.26-.83a5.39,5.39,0,0,0,.08-.8c-.22-.27-.25-.41-.21-.45a1.46,1.46,0,0,1,.06-1.37c-.38-5.37,1.06-10.61-3.72-15.76-2.19.54-2.17,1.29-2.46,1.94-1.88,4.25-2.2,8.54-2.6,12.83-1.17,12.68-1.84,25.37-2.51,38.06-.11,2.18-.47,4.37-.45,6.55a1.16,1.16,0,0,1,0,.14C491.34,791.52,494.13,791.44,497,791.5Z"/><path class="cls-10" d="M-47.17,655.31q0-5.61,0-11.21c0-8.47,0-16.95,0-25.42a5.08,5.08,0,0,1,1-3.19c3.22-4.46,6.41-8.94,9.52-13.47.64-.94,2-2.29.93-3.21s-2.22.52-3.07,1.29c-2.72,2.46-5.35,5-8.41,7.93,0-5.53.2-10.64-.06-15.72s-.54-10-2.61-15c-1.3,1.14-1.38,2.48-1.58,3.73-1.32,8.31-1.54,16.71-1.82,25.1-.82,24.3-1.28,48.62-1.75,72.93-.08,4.2-.27,8.39-.33,12.58,0,1.29-.25,1.63-1.6,1.17a49,49,0,0,1-16.51-10.2c-11.08-9.84-18.81-21.71-21.65-36.44-2.08-10.77-.74-21.34,2.35-31.71,4.69-15.74,12.54-29.66,24.32-41.24a54.21,54.21,0,0,1,6.74-5.46c5.83-4.13,11.9-4.71,18.45-1.82,12.55,5.55,22.58,14.24,31.08,24.81C-5.22,599.42,0,609,2,620c2.47,13.16-.26,25.51-6.55,37.08-8.38,15.39-20.19,27.24-36.57,34.11-1.33.56-2.74.91-4.11,1.38s-1.83.21-1.83-1.31q0-11.73-.08-23.46a3.94,3.94,0,0,1,1.18-2.67c6.08-7.46,12.47-14.67,18.16-22.44a30.71,30.71,0,0,0,4.08-7.86c.21-.58.88-1.41,0-2-.64-.41-1.24.23-1.71.63-1.72,1.44-3.46,2.87-5.07,4.42C-36.17,643.41-41.34,649.48-47.17,655.31Z"/><circle class="cls-2" cx="356.49" cy="702.85" r="3.94"/><circle class="cls-13" cx="344.37" cy="665.87" r="3.94"/><path class="cls-10" d="M186.33,650.86q0-5.61,0-11.21c0-8.47,0-16.95,0-25.42a5.08,5.08,0,0,1,1-3.19c3.22-4.46,6.41-8.94,9.52-13.47.64-.94,2-2.29.93-3.21s-2.22.52-3.07,1.29c-2.72,2.46-5.35,5-8.41,7.93,0-5.53.2-10.64-.06-15.72s-.54-10-2.61-15c-1.3,1.14-1.38,2.48-1.58,3.73-1.32,8.31-1.54,16.71-1.82,25.1-.82,24.3-1.28,48.62-1.75,72.93-.08,4.2-.27,8.39-.33,12.58,0,1.29-.25,1.63-1.6,1.17A49,49,0,0,1,160,678.21c-11.08-9.84-18.81-21.71-21.65-36.44-2.08-10.77-.74-21.34,2.35-31.71,4.69-15.74,12.54-29.66,24.32-41.24a54.21,54.21,0,0,1,6.74-5.46c5.83-4.13,11.9-4.71,18.45-1.82,12.55,5.55,22.58,14.24,31.08,24.81,6.94,8.63,12.11,18.18,14.17,29.18,2.47,13.16-.26,25.51-6.55,37.08-8.38,15.39-20.19,27.24-36.57,34.11-1.33.56-2.74.91-4.11,1.38s-1.83.21-1.83-1.31q0-11.73-.08-23.46a3.94,3.94,0,0,1,1.18-2.67c6.08-7.46,12.47-14.67,18.16-22.44a30.71,30.71,0,0,0,4.08-7.86c.21-.58.88-1.41,0-2-.64-.41-1.24.23-1.71.63-1.72,1.44-3.46,2.87-5.07,4.42C197.32,639,192.16,645,186.33,650.86Z"/><circle class="cls-14" cx="215.51" cy="624.5" r="3.61"/><circle class="cls-12" cx="204.39" cy="590.59" r="3.61"/><path class="cls-10" d="M183.1,773.5l3.06.08a11.6,11.6,0,0,1,.82-2.12q0-6.34-.09-12.69a3.11,3.11,0,0,1-.71-1.69c-.08-1.17.55-2.29.77-3.45-.11.39-.15-1.16-.2-1.44a6,6,0,0,1,.51-4.58l-.48-.05q0-3.7,0-7.4c0-6.24,0-12.49,0-18.73a3.33,3.33,0,0,1-.11-3.07l0-.06c-.14-.3.24-.84.29-1.14A8.89,8.89,0,0,0,187,716c-.25-.37-.28-.56-.23-.61a2.37,2.37,0,0,1,.07-1.88c-.43-7.37,1.2-14.57-4.22-21.64-2.48.74-2.46,1.77-2.79,2.67-2.14,5.83-2.5,11.73-3,17.62-1.33,17.41-2.09,34.83-2.85,52.25-.13,3-.53,6-.51,9a1.93,1.93,0,0,1,0,.19C176.71,773.53,179.88,773.42,183.1,773.5Z"/><path class="cls-15" d="M632.44,698.61q0-5,0-9.91c0-7.49,0-15,0-22.46a4.49,4.49,0,0,1,.92-2.82c2.84-3.94,5.66-7.9,8.41-11.9.57-.83,1.73-2,.82-2.83s-2,.46-2.71,1.14c-2.41,2.17-4.72,4.44-7.42,7,0-4.89.18-9.4-.05-13.88s-.48-8.87-2.3-13.21a4.74,4.74,0,0,0-1.4,3.29,179.53,179.53,0,0,0-1.61,22.17c-.73,21.47-1.13,42.95-1.55,64.43-.07,3.71-.24,7.41-.29,11.12,0,1.14-.22,1.44-1.41,1a43.25,43.25,0,0,1-14.59-9c-9.78-8.69-16.61-19.18-19.13-32.19-1.84-9.51-.66-18.85,2.07-28a83.4,83.4,0,0,1,21.48-36.43,47.89,47.89,0,0,1,6-4.82,15.49,15.49,0,0,1,16.3-1.6c11.08,4.91,19.94,12.58,27.46,21.91,6.14,7.62,10.7,16.06,12.52,25.77,2.18,11.62-.23,22.54-5.79,32.76-7.4,13.6-17.83,24.06-32.3,30.13-1.17.49-2.42.81-3.63,1.22s-1.62.18-1.61-1.16q0-10.36-.07-20.73a3.48,3.48,0,0,1,1-2.35c5.37-6.59,11-13,16-19.83a27.12,27.12,0,0,0,3.6-6.95c.18-.51.78-1.25,0-1.72-.57-.36-1.1.21-1.51.55-1.52,1.27-3.05,2.53-4.48,3.9C642.15,688.1,637.59,693.46,632.44,698.61Z"/><circle class="cls-15" cx="658.22" cy="675.32" r="3.19"/><path class="cls-15" d="M629.59,786.48l2.7,0a6.26,6.26,0,0,1,.72-1.34q0-4-.08-8a1.73,1.73,0,0,1-.63-1.07c-.07-.74.49-1.45.68-2.18-.1.25-.13-.73-.18-.91a2.84,2.84,0,0,1,.45-2.9l-.42,0q0-2.34,0-4.68c0-3.95,0-7.9,0-11.85a1.59,1.59,0,0,1-.1-1.94l0,0c-.12-.19.21-.53.26-.72a4.07,4.07,0,0,0,.08-.7c-.22-.24-.25-.36-.21-.39a1.12,1.12,0,0,1,.06-1.19c-.38-4.66,1.06-9.22-3.73-13.69-2.19.47-2.18,1.12-2.47,1.69-1.89,3.69-2.21,7.42-2.61,11.14-1.17,11-1.85,22-2.52,33-.12,1.9-.47,3.79-.45,5.69a.88.88,0,0,1,0,.12C623.95,786.49,626.75,786.43,629.59,786.48Z"/><path class="cls-15" d="M70.56,665.18q0-6.9,0-13.8c0-10.43,0-20.85,0-31.28a6.25,6.25,0,0,1,1.28-3.92c4-5.48,7.89-11,11.71-16.58.79-1.15,2.42-2.82,1.14-3.95s-2.73.64-3.78,1.59c-3.35,3-6.58,6.19-10.34,9.76,0-6.81.25-13.09-.07-19.34s-.66-12.36-3.21-18.4c-1.6,1.41-1.7,3-1.95,4.58-1.63,10.23-1.9,20.55-2.24,30.88-1,29.9-1.58,59.82-2.15,89.73-.1,5.16-.34,10.32-.4,15.48,0,1.59-.31,2-2,1.44-7.73-2.66-14.29-7.2-20.32-12.55C24.6,686.72,15.09,672.11,11.59,654c-2.56-13.25-.91-26.25,2.89-39,5.77-19.37,15.43-36.49,29.92-50.73a66.7,66.7,0,0,1,8.29-6.72c7.17-5.08,14.64-5.8,22.7-2.23,15.44,6.83,27.78,17.52,38.24,30.52,8.54,10.61,14.9,22.37,17.44,35.9,3,16.19-.32,31.39-8.06,45.62-10.3,18.93-24.84,33.51-45,42-1.63.69-3.37,1.13-5.06,1.69-1.52.51-2.26.26-2.25-1.62q.06-14.43-.09-28.87a4.85,4.85,0,0,1,1.45-3.28c7.48-9.18,15.35-18,22.35-27.61a37.78,37.78,0,0,0,5-9.67c.26-.72,1.09-1.74.05-2.4-.79-.51-1.53.29-2.11.77-2.12,1.77-4.25,3.53-6.23,5.44C84.08,650.54,77.73,658,70.56,665.18Z"/><circle class="cls-16" cx="92.79" cy="591.03" r="4.45"/><path class="cls-15" d="M66.59,787.56l3.76.07a8.71,8.71,0,0,1,1-1.87q0-5.59-.11-11.18a2.41,2.41,0,0,1-.88-1.49c-.09-1,.68-2,.95-3-.13.35-.18-1-.25-1.27-.35-1.33-.55-2.74.63-4l-.59,0q0-3.26,0-6.52c0-5.5,0-11-.05-16.5a2.22,2.22,0,0,1-.14-2.7l0-.06c-.17-.27.3-.74.36-1a5.67,5.67,0,0,0,.11-1c-.31-.33-.35-.5-.29-.54a1.56,1.56,0,0,1,.09-1.65c-.53-6.49,1.47-12.84-5.19-19.06-3.05.65-3,1.56-3.44,2.35C60,723.17,59.51,728.37,59,733.55c-1.63,15.34-2.57,30.68-3.5,46-.16,2.64-.65,5.28-.62,7.92a1.22,1.22,0,0,1,0,.17C58.73,787.58,62.63,787.49,66.59,787.56Z"/><circle class="cls-2" cx="104.9" cy="632.39" r="3.61"/><circle class="cls-12" cx="147.59" cy="714.22" r="3.61"/><path class="cls-3" d="M257.2,648.43q0-6.9,0-13.8c0-10.43,0-20.85,0-31.28a6.25,6.25,0,0,1,1.28-3.92c4-5.48,7.89-11,11.71-16.58.79-1.15,2.42-2.82,1.14-3.95s-2.73.64-3.78,1.59c-3.35,3-6.58,6.19-10.34,9.76,0-6.81.25-13.09-.07-19.34s-.66-12.36-3.21-18.4c-1.6,1.41-1.7,3-1.95,4.58-1.63,10.23-1.9,20.55-2.24,30.88-1,29.9-1.58,59.82-2.15,89.73-.1,5.16-.34,10.32-.4,15.48,0,1.59-.31,2-2,1.44-7.73-2.66-14.29-7.2-20.32-12.55-13.63-12.1-23.14-26.71-26.64-44.84-2.56-13.25-.91-26.25,2.89-39,5.77-19.37,15.43-36.49,29.92-50.73a66.7,66.7,0,0,1,8.29-6.72c7.17-5.08,14.64-5.8,22.7-2.23,15.44,6.83,27.78,17.52,38.24,30.52,8.54,10.61,14.9,22.37,17.44,35.9,3,16.19-.32,31.39-8.06,45.62-10.3,18.93-24.84,33.51-45,42-1.63.69-3.37,1.13-5.06,1.69-1.52.51-2.26.26-2.25-1.62q.06-14.43-.09-28.87a4.85,4.85,0,0,1,1.45-3.28c7.48-9.18,15.35-18,22.35-27.61a37.78,37.78,0,0,0,5-9.67c.26-.72,1.09-1.74.05-2.4-.79-.51-1.53.29-2.11.77-2.12,1.77-4.25,3.53-6.23,5.44C270.73,633.8,264.38,641.26,257.2,648.43Z"/><circle class="cls-17" cx="279.43" cy="574.28" r="4.45"/><path class="cls-3" d="M253.23,770.81l3.76.07a8.71,8.71,0,0,1,1-1.87q0-5.59-.11-11.18a2.41,2.41,0,0,1-.88-1.49c-.09-1,.68-2,.95-3-.13.35-.18-1-.25-1.27-.35-1.33-.55-2.74.63-4l-.59,0q0-3.26,0-6.52c0-5.5,0-11-.05-16.5a2.22,2.22,0,0,1-.14-2.7l0-.06c-.17-.27.3-.74.36-1a5.67,5.67,0,0,0,.11-1c-.31-.33-.35-.5-.29-.54a1.56,1.56,0,0,1,.09-1.65c-.53-6.49,1.47-12.84-5.19-19.06-3.05.65-3,1.56-3.44,2.35-2.63,5.14-3.08,10.33-3.63,15.52-1.63,15.34-2.57,30.68-3.5,46-.16,2.64-.65,5.28-.62,7.92a1.22,1.22,0,0,1,0,.17C245.37,770.83,249.27,770.74,253.23,770.81Z"/><circle class="cls-9" cx="290.57" cy="615.61" r="3.61"/><path class="cls-15" d="M324.66,731.59q0-6.11,0-12.23c0-9.24,0-18.48,0-27.72a5.54,5.54,0,0,1,1.13-3.47c3.51-4.86,7-9.75,10.38-14.69.7-1,2.14-2.5,1-3.5s-2.42.57-3.35,1.41c-3,2.68-5.83,5.48-9.16,8.65,0-6,.22-11.6-.06-17.14s-.59-11-2.84-16.31c-1.42,1.25-1.51,2.7-1.73,4.06-1.44,9.06-1.68,18.22-2,27.36-.9,26.5-1.4,53-1.91,79.52-.09,4.57-.3,9.15-.36,13.72,0,1.4-.28,1.78-1.75,1.27-6.85-2.35-12.67-6.38-18-11.12-12.08-10.72-20.5-23.67-23.61-39.74-2.27-11.74-.81-23.26,2.56-34.58,5.11-17.16,13.67-32.34,26.52-45a59.11,59.11,0,0,1,7.35-6c6.35-4.51,13-5.14,20.12-2,13.68,6.06,24.62,15.53,33.89,27,7.57,9.41,13.21,19.82,15.45,31.81,2.69,14.35-.28,27.82-7.15,40.43-9.13,16.78-22,29.7-39.87,37.19-1.45.61-3,1-4.48,1.5s-2,.23-2-1.43q.05-12.79-.08-25.58a4.3,4.3,0,0,1,1.28-2.91c6.63-8.13,13.6-16,19.8-24.47a33.48,33.48,0,0,0,4.45-8.57c.23-.63,1-1.54,0-2.13-.7-.45-1.35.25-1.87.68-1.88,1.57-3.77,3.12-5.52,4.82C336.65,718.62,331,725.24,324.66,731.59Z"/><circle class="cls-2" cx="648.4" cy="645.37" r="3.19"/><circle class="cls-2" cx="340.94" cy="665.67" r="3.19"/><circle class="cls-16" cx="356.74" cy="699.31" r="4.45"/></g></g></svg>