<svg id="Layer_1" data-name="Layer 1" xmlns="http://www.w3.org/2000/svg" viewBox="0 0 95 65"><defs><style>.cls-1{fill:none;stroke:#f04f23;stroke-miterlimit:10;stroke-width:2.7px;}</style></defs><title>career icon send</title><path class="cls-1" d="M1.85,43.51c.31-11.91,3-23,10-32.79,5.74-8,14.61-10.24,23.59-6,2.68,1.26,5.18,3.2,8,3.84,4.08.94,8.24.84,12.1-1.71C61.48,2.93,67.93,1.2,74.86,4c5.2,2.08,8.38,6.34,10.95,11.06,6,11.07,7.94,23,6.56,35.39a30.7,30.7,0,0,1-1.76,7.87c-1.63,4.13-6.39,5.84-9.94,3.2a85.16,85.16,0,0,1-12.15-11,11.69,11.69,0,0,0-9.73-4.31c-7.81.21-15.62.15-23.43,0a10.51,10.51,0,0,0-8.67,3.93A118.37,118.37,0,0,1,16.55,60C11,64.95,4.25,62.74,3,54.6,2.45,50.93,2.23,47.21,1.85,43.51Zm22-30c0,1.14,0,2,0,2.86,0,3.76,0,3.76-3.77,3.81-3.11,0-3.11,0-3.13,3.08,0,4.82,0,4.88,4.79,4.83,1.56,0,2.15.35,2.14,2,0,4.91,0,4.92,5,4.84h.2c2,.24,2.54-.64,2.49-2.57-.11-4.23,0-4.34,4.25-4.23,2,.05,2.71-.54,2.67-2.63-.1-5.14,0-5.19-5.2-5.34-1.47,0-1.88-.59-1.79-2,.1-1.52,0-3,0-4.71H23.83ZM77.5,19.66a5.06,5.06,0,0,0-5.13,5.16,5.27,5.27,0,0,0,5.09,5.28,5.54,5.54,0,0,0,5.34-5.35A5.29,5.29,0,0,0,77.5,19.66ZM65.2,12.31A5.27,5.27,0,0,0,60,17.46a5.41,5.41,0,0,0,5.3,5.31,5.49,5.49,0,0,0,5.11-5.32A5.24,5.24,0,0,0,65.2,12.31ZM60,32a5.2,5.2,0,0,0,10.41-.12,5.41,5.41,0,0,0-5.07-5.14A5.3,5.3,0,0,0,60,32Z"/></svg>