<svg id="Layer_1" data-name="Layer 1" xmlns="http://www.w3.org/2000/svg" viewBox="0 0 250 250"><defs><style>.cls-1{fill:#313333;}.cls-2{fill:#f79537;stroke:#f79537;stroke-miterlimit:10;}</style></defs><title>new icons</title><path class="cls-1" d="M212.52,172.28a156.8,156.8,0,0,0-2-27.4c-1.91-11.58-5-22.83-10.64-33.19-8.41-15.32-21.36-24.48-38.43-28a148.06,148.06,0,0,0-35.83-3A150.64,150.64,0,0,0,77,90.8c-11.64,4.5-19.9,12.82-25.5,23.84a91.23,91.23,0,0,0-8.41,26.72,167.76,167.76,0,0,0-2.21,25.84c0,4.23.28,8.46.44,12.68,0,.44,0,.88.07,1.31.07.81-.2,1.34-1.09,1.42s-1.52-.18-1.58-1.18c-.14-2.48-.29-5-.39-7.44a148.86,148.86,0,0,1,1-22.86c.51-4.6,1.29-9.17,2-13.75.42-2.82-.33-4.29-2.94-5.52a21,21,0,0,1-8.71-7c-3.79-5.55-4.18-11.6-2.19-17.81,2.49-7.78,8.19-11.89,16.07-13.23a20.11,20.11,0,0,1,8.47.5,21.58,21.58,0,0,0,17.77-2.7c9.07-5.86,19.14-8.72,29.65-10.29,6.67-1,13.37-1.91,20.08-2.59a139.1,139.1,0,0,1,26.81-.27c11.09,1,21.86,3.32,31.87,8.41a56.87,56.87,0,0,1,6.77,4,7.5,7.5,0,0,0,7.92.78,24.84,24.84,0,0,1,17.87-.93c7.33,2.34,11.5,7.58,12.93,15,1.08,5.6.18,10.83-3.37,15.44a20.2,20.2,0,0,1-6.18,5.17c-1.79,1-3.23,2.35-3.47,4.5a8.25,8.25,0,0,0,.27,3,111.49,111.49,0,0,1,3.78,24.73c.31,7.26.44,14.53.64,21.8a7.54,7.54,0,0,1-.05,1.09c-.09.78-.64,1-1.32,1a1,1,0,0,1-1.17-1c-.07-1-.17-2-.19-2.95C212.5,176.62,212.52,174.61,212.52,172.28ZM47.6,108.6a11.77,11.77,0,0,0,8.74-5c2.13-2.76,1-5.93-2.46-6.58a26.67,26.67,0,0,0-11.28-.15c-11.87,2.79-15,12.37-13.35,20.81,1.15,5.74,4.94,9.36,9.93,11.92a2.82,2.82,0,0,0,3.48-.77A6.9,6.9,0,0,0,44,126.7a10.71,10.71,0,0,0-.76-9.58,11.71,11.71,0,0,1-.79-1.68C41.26,112.68,44.07,107.9,47.6,108.6ZM202.35,92.21c-2.1-.19-4.67.66-7.26,1.42-2.24.66-3.12,2.37-2,4.37a11.61,11.61,0,0,0,8.21,5.81,2.08,2.08,0,0,0,.76,0c3.45-.68,5.29,1.21,6.54,4.15a3.25,3.25,0,0,1-.78,3.9,6.21,6.21,0,0,0-2.08,5,15.46,15.46,0,0,0,2.46,6.94,2.54,2.54,0,0,0,2.84,1.22,7.52,7.52,0,0,0,2.31-.92,17.55,17.55,0,0,0,4.06-25.77C213.68,93.89,208.67,92.26,202.35,92.21Z"/><path class="cls-2" d="M180.19,122.38c-.11,7.31-2.32,13.81-8.38,18.26-9.38,6.9-21.19,8.11-31.44.84-1.41-1-2.55-2.44-4-3.28s-1.69-2.53-2.62-3.73a16.61,16.61,0,0,1-2.17-4.28,26,26,0,0,1-1.29-4.62c-2.36-13,7.63-25.38,19.88-27.61,12.66-2.31,25.18,4.91,29,17.09a60.42,60.42,0,0,1,1.35,7.27ZM134,118.2l.33.24c1.06-.59,2.12-1.16,3.17-1.77a10.28,10.28,0,0,1,6.12-1.44A8.36,8.36,0,0,1,151,125c-1.13,5.57-6.73,8.46-12.15,6.32a14.69,14.69,0,0,0-2.77-.51A13.3,13.3,0,0,0,141,138c7.08,5.15,17.19,6.68,25.6,1.8,7.48-4.34,10.86-11,10.19-19.55-.49-6.28-3.73-11.16-8.79-14.85a21.67,21.67,0,0,0-33.37,10A19.14,19.14,0,0,0,134,118.2Z"/><path class="cls-2" d="M115.58,139.36c-.52.43-1,.77-1.4,1.19-10.23,10.34-24.26,10.51-34.53,3-6.58-4.8-9.65-11.49-9.83-19.47-.13-6.21,2.48-11.45,6.62-16a23.88,23.88,0,0,1,14.28-7.92,26.08,26.08,0,0,1,13.54,1.8c5.75,2.23,10.49,5.73,13.38,11.32,3.35,6.47,3.09,13.12.63,19.79-.57,1.53-1.36,3-2,4.48C116,138.24,115.76,138.89,115.58,139.36Zm-40-5.69c.47.66.9,1.25,1.31,1.85,5.76,8.54,15.18,11.84,25,8.66,11.5-3.73,16.46-13.93,14.22-24.28-1.53-7.06-6.14-12-12.6-15-3.78-1.8-7.81-1.71-11.82-1.06a20.6,20.6,0,0,0-16,11.69c-.62,1.25-1.07,2.6-1.59,3.9l.26.31a11,11,0,0,0,2.69-.84,10.48,10.48,0,0,1,5.89-1.53c4.6.09,8.6,4.87,7.84,9.28-1.16,6.67-6.85,8.52-12.51,6.55A2.31,2.31,0,0,0,75.6,133.68Z"/><path class="cls-2" d="M116.35,140.25a4.39,4.39,0,0,0,1.15-.32c4.3-2.74,8.9-2.92,13.72-1.81a7.61,7.61,0,0,1,4.31,2.65,1.74,1.74,0,0,1,.43,1,5.32,5.32,0,0,0,3.09,4.76c1.09.63,2.23,1.17,3.26,1.89a9.63,9.63,0,0,1,4.47,8.83c-.17,3.32-2,5.31-5.28,6-.34.07-.69.12-1,.21-1.87.45-2.43,1.22-2.34,3.11q.15,3.35.22,6.7a4.68,4.68,0,0,1-3.15,4.82c-.68.27-1.37.52-2.07.72a4.47,4.47,0,0,1-4.57-1.06,2.93,2.93,0,0,0-3.64-.39A15.26,15.26,0,0,1,121,178.7c-3.28.52-5.93-1.83-6.24-5.54a19.44,19.44,0,0,1,.27-4.77c.5-3-.28-4.52-3.06-5.57l-1-.35c-4.49-1.56-6.32-5.82-4.05-10a16.16,16.16,0,0,1,3.5-4.1c2.15-1.93,4.3-3.8,5.4-6.57.14-.36.31-.7.44-1.06A2.92,2.92,0,0,0,116.35,140.25ZM138.19,160c.56,0,1.12,0,1.68-.08a3.73,3.73,0,0,0,3.33-4,7.2,7.2,0,0,0-9.77-5.84,17.13,17.13,0,0,1-8.75,1.72,45.4,45.4,0,0,1-7.15-1.46c-3-.81-5.52.08-7,2.7-1,1.87-.75,3.9.85,5.81,1.25,1.49,2.74,1.86,4.82,1.11,1.31-.48,2.57-1.1,3.88-1.58,4.45-1.63,8.87-1.89,13.17.45A10.06,10.06,0,0,0,138.19,160Zm-12.52,6.18c0-1.08,0-2.16,0-3.24,0-1.89-1.34-2.87-3-2a19.67,19.67,0,0,0-3.1,1.93,5,5,0,0,0-2.14,3.71,53.87,53.87,0,0,0,.19,7.28,2.84,2.84,0,0,0,2.55,2.54,4,4,0,0,0,4.6-2.76C125.71,171.24,125.66,168.73,125.68,166.21Zm2.47,1.7-.26,0c.26,2,.45,4.08.81,6.1.28,1.54,1.53,2.36,3.24,2.39,2,0,3.32-.64,3.68-2.11a16.58,16.58,0,0,0-.13-9.48,4.77,4.77,0,0,0-4.82-3.45c-1.63,0-2.47.68-2.51,2.15S128.14,166.45,128.14,167.91Z"/></svg>