<svg id="Layer_1" data-name="Layer 1" xmlns="http://www.w3.org/2000/svg" viewBox="0 0 264 297"><defs><style>.cls-1,.cls-2,.cls-3{fill:#fff;}.cls-1{stroke:#fff;stroke-miterlimit:10;stroke-width:0.5px;}.cls-2{font-size:30.18px;font-family:Montserrat-Medium, Montserrat;}</style></defs><title>new icons</title><path class="cls-1" d="M181,201.59a11.34,11.34,0,0,1-2.77,7.24.88.88,0,0,0-.17,1,11.86,11.86,0,0,1-6.12,14.71,1.12,1.12,0,0,0-.72,1,11.4,11.4,0,0,1-5.43,8.37l-.71.45-1.12.4-.29.2-2.24.44-.49.1a13.41,13.41,0,0,1-3.56-.3.71.71,0,0,0-.83.36,11.9,11.9,0,0,1-6.79,4.68l-.36.1-2.33.2h-.5l-.65-.07-.36,0-.45-.08a.61.61,0,0,0-.55-.14,18.15,18.15,0,0,1-3.49-1.73l-.15-.13a10.23,10.23,0,0,1-3.59-7.36c-.07-1.75,0-3.5,0-5.25q0-7.43,0-14.85,0-10.05,0-20.1,0-9.63,0-19.27c0-4.2,0-8.39,0-12.59a12,12,0,0,1,16.17-11.54,11.92,11.92,0,0,1,5.57,4.09c.2.25.36.46.72.46a11.53,11.53,0,0,1,6,1.8l1.52,1.14a22.5,22.5,0,0,1,2.17,2.76c0,.2.15.31.27.44a13,13,0,0,1,1.18,5.58.68.68,0,0,0,.46.7,10.08,10.08,0,0,1,5.68,8.54,9.36,9.36,0,0,1-.59,4.09.66.66,0,0,0,.2.86,12.84,12.84,0,0,1,2.46,16.38.82.82,0,0,0,.05,1,11.15,11.15,0,0,1,1.68,4.23Zm-34.09-4h-5.52c-.5-.09-.67.1-.67.62q0,5.24,0,10.49c0,.54.16.71.7.71,4.16,0,8.32,0,12.49,0a14.66,14.66,0,0,1,2.34.58,11,11,0,0,1,5.17,4.15l.15.35.21.29.13.35.24.48a11.86,11.86,0,0,1,.69,3c-.11.45.22.89.06,1.34l-.09.35a.29.29,0,0,0-.05.12,2,2,0,0,1-1.82.9c-1.13-.4-1.46-.82-1.5-1.92a6.75,6.75,0,0,0-6.63-6.59c-3.86-.07-7.72,0-11.58,0-.65-.14-.49.33-.49.66q0,8.37,0,16.74a1.78,1.78,0,0,0,.13,1,5.21,5.21,0,0,0,1,2.83c.18.19-.09.63.38.65l.3.18.08.14a1.39,1.39,0,0,0,.79.67,3.83,3.83,0,0,0,1.85,1,5.68,5.68,0,0,0,4.34-.14c.19,0,.38,0,.51-.16a7.53,7.53,0,0,0,3.15-2.24c.34-.36.39-.57-.07-.89a11,11,0,0,1-3.1-3.43,12.14,12.14,0,0,1-1.44-7.64l.27-1,.06-.47a1.22,1.22,0,0,0,.29-.69l.36-.82.34-.31a1.9,1.9,0,0,1,2.25.18,1.82,1.82,0,0,1,.28,2.3c0,.1-.05.22-.09.32A7.9,7.9,0,1,0,167.8,224a2.59,2.59,0,0,1,.7-1.89l.63-.32h0c.18,0,.37,0,.52-.14a7.75,7.75,0,0,0,.78-.29,8.45,8.45,0,0,0,3.88-11.59,1.72,1.72,0,0,1,.42-2.38,7.85,7.85,0,0,0,.7-11.38,1.78,1.78,0,0,1,0-2.61l.34-.47a9.41,9.41,0,0,0-5.77-14.72h-.35a6.23,6.23,0,0,0-2.33-.19,5.59,5.59,0,0,0-1.53.27,1.09,1.09,0,0,0-.64.21,2.38,2.38,0,0,0-1,.4,3.94,3.94,0,0,0-1.57.93.67.67,0,0,0-.4.36,1.85,1.85,0,0,0-.87.79,1.22,1.22,0,0,0-.48.52,9.48,9.48,0,0,0-2.15,5.56,1.56,1.56,0,0,1-1.74,1.51,1.64,1.64,0,0,1-1.64-1.64,8.67,8.67,0,0,1,.12-1.66,13,13,0,0,1,5.57-8.64l.35-.22a16.19,16.19,0,0,1,3.47-1.46.65.65,0,0,0,.46-.2,24.45,24.45,0,0,1,4-.22l.69.15a9.93,9.93,0,0,1,2.67.67c.59.27.71,0,.81-.48a6.79,6.79,0,0,0-4.47-7.87c-1.61-.55-1.89-1-1.63-2.72a4.94,4.94,0,0,0-.06-2.31,4.76,4.76,0,0,0-.66-2.16c-.53-.69-.66-1.7-1.63-2v0c.15-.23-.06-.27-.19-.35a5.58,5.58,0,0,0-2.82-1.69.87.87,0,0,0-.7-.15l-.33-.12a7.53,7.53,0,0,0-8.07,3.68c-.75,1.22-1.59,1.68-2.93,1.25-.05-.34-.38-.5-.51-.79a2.58,2.58,0,0,1,.18-2,1.81,1.81,0,0,0,.54-.79,11.53,11.53,0,0,1,4.82-4c.57-.24.42-.4.06-.71a8.37,8.37,0,0,0-6.91-2,7.75,7.75,0,0,0-5.88,3.79l-.27.35-.08.15a.37.37,0,0,0-.14.34,2.2,2.2,0,0,0-.52,1.33,6.28,6.28,0,0,0-.48,2.5q0,3.36,0,6.73c0,.26-.13.56.15.77l5.82,0a1.76,1.76,0,1,1,0,3.48l-5.82,0c-.28.3-.15.68-.15,1q0,11.07,0,22.14c0,.38-.18.82.17,1.17,6,0,12.07,0,18.1,0a6.91,6.91,0,0,0,7.17-6.77,1.73,1.73,0,1,1,3.46.14,10.45,10.45,0,0,1-2.21,6.25l-.43.54c-.2.13-.42.23-.5.48a.24.24,0,0,0-.1.13l-1.27.91a24.63,24.63,0,0,1-2.51,1.28l-.17,0-.49.13a.83.83,0,0,0-.67.18l-.34,0a33.06,33.06,0,0,1-3.64.12l-7.38,0h-3Z"/><path class="cls-1" d="M142.73,181.38a7.17,7.17,0,0,0,.35-1.48l.68-1.32.3-.49.17-.21c.27-.38.9-.4,1-1a7.28,7.28,0,0,1,3.34-1.41l1.5,0a1.72,1.72,0,0,1,1.17,1.8,1.75,1.75,0,0,1-1.34,1.6c-.35,0-.71-.13-1,.1a2.51,2.51,0,0,0-1.65.86.58.58,0,0,0-.35.5l-.07.15c-.58.36-.54,1-.57,1.53a3.23,3.23,0,0,0,3.06,3.55c.82.09,1.53.28,1.85,1.15a1.69,1.69,0,0,1-1.57,2.34,6.77,6.77,0,0,1-6.84-6.36c0-.22,0-.44,0-.66l0-.5Z"/><path class="cls-1" d="M143.91,202.27a3,3,0,0,1,1.59-.37c1.3,0,2.61,0,3.91,0l6.24,0c1.21,0,2,.7,2,1.71a1.79,1.79,0,0,1-2,1.75c-3.44,0-6.88,0-10.32,0a1.81,1.81,0,0,1-1.82-.9A1.79,1.79,0,0,1,143.91,202.27Z"/><path class="cls-1" d="M153.95,169.68a1.75,1.75,0,1,1-.11-3.48,3.74,3.74,0,0,0,3.57-3.6,1.74,1.74,0,1,1,3.47,0A7.21,7.21,0,0,1,153.95,169.68Z"/><path class="cls-1" d="M161.42,202.22l.5-.32c.34.12.66-.32,1,0l1.68.32c3.11,1.2,5,3.62,5,6.58,0,1.16-.56,1.92-1.54,2-1.15.08-1.83-.53-1.92-1.8a3.61,3.61,0,0,0-2.65-3.44,2.91,2.91,0,0,0-.81-.13,1.78,1.78,0,0,1-1.83-1.16A1.76,1.76,0,0,1,161.42,202.22Z"/><path class="cls-1" d="M90,197.12a1.46,1.46,0,0,0,.09-.14,6.83,6.83,0,0,0,1.14-2.36c0-.77-.72-1.51-1.05-2.3a12.85,12.85,0,0,1,3-14.13,1.52,1.52,0,0,0,.47-1.84,10.15,10.15,0,0,1,5-11.91,1.14,1.14,0,0,0,.76-1.2,11.6,11.6,0,0,1,1.48-5.73,16,16,0,0,1,3.43-3.7,11.84,11.84,0,0,1,6.28-1.93c.38,0,.51-.28.7-.51a12.08,12.08,0,0,1,21.66,7.07c0,8.84,0,17.69,0,26.53q0,19.19,0,38.38c0,2.11-.07,4.23,0,6.34a10.53,10.53,0,0,1-3.06,8.09l-.64.53a17.32,17.32,0,0,1-3,1.67h0l-.31.06c-.31.12-.71,0-.87.44h-.46a.73.73,0,0,0-.86,0h-1.32a.58.58,0,0,0-.51-.09l-.33,0-.35,0a14.53,14.53,0,0,1-3.93-1.5,12.52,12.52,0,0,1-3.5-3.26.81.81,0,0,0-1-.42,13.5,13.5,0,0,1-3,.32l-.45,0h0a.51.51,0,0,0-.51-.11l-2.11-.4a.39.39,0,0,0-.36-.12c-.33-.34-.82-.31-1.21-.49a.84.84,0,0,0-.62-.35,16,16,0,0,1-3.46-3.21A11.19,11.19,0,0,1,99,225.55a1.25,1.25,0,0,0-.81-1.08,11.74,11.74,0,0,1-6.73-11.27,9.65,9.65,0,0,1,.65-3.33.94.94,0,0,0-.2-1.11,11.3,11.3,0,0,1-2.67-6.34v-2.35c.13-.48,0-1,.24-1.47Zm36.86.47h-5l-.67,0h-.34l-10.34,0c-.38-.2-.78-.07-1.18-.12l-.32,0a14,14,0,0,1-3.3-1.21l-.7-.46-.24-.17-.91-.65c-.13-.41-.51-.57-.81-.82s-.39-.6-.6-.9a9.59,9.59,0,0,1-1.84-5.61c0-1.2.54-1.91,1.55-2a1.72,1.72,0,0,1,1.89,1.77,9.78,9.78,0,0,0,.42,2.29c.86,2.47,3.48,4.37,5.37,4.39,6.32.07,12.63,0,18.95.06.54,0,.71-.19.63-.67a15.19,15.19,0,0,1,0-2.68q0-4.13,0-8.26c0-2.53,0-5.06-.05-7.59a.24.24,0,0,0,0-.16l0-.34v-.48c0-1.19,0-2.39,0-3.58,0-.55-.23-.63-.7-.63-1.75,0-3.5,0-5.25,0a1.75,1.75,0,1,1,0-3.47c1.75,0,3.5,0,5.25,0,.49,0,.7-.12.68-.65,0-1.25,0-2.5,0-3.75l0-1.14v-.5l0-.32a8.49,8.49,0,0,0-.67-4.54h0a.66.66,0,0,0-.22-.48c0-.18-.07-.33-.27-.37a.42.42,0,0,0,0-.14.82.82,0,0,0-.3-.52,3.78,3.78,0,0,0-.3-.49,8.55,8.55,0,0,0-8.33-3.07,8.1,8.1,0,0,0-4.07,2c-.28.24-.52.43,0,.67a11.57,11.57,0,0,1,5.44,5,2.05,2.05,0,0,1,0,2.12c-1.25,1.06-2.33.88-3.11-.54a7.71,7.71,0,0,0-7.7-3.94l-.33,0a5.76,5.76,0,0,0-2.68,1,2.57,2.57,0,0,0-1,.63,3,3,0,0,0-1,.91l-.84,1.13-.37.65a5.86,5.86,0,0,0-.57,1.54l-.06.33,0,.32a5.61,5.61,0,0,0,0,2.71,1.72,1.72,0,0,1-1.33,2.22l-.79.28a6.81,6.81,0,0,0-4,7.76c.13.52.31.62.79.41a12.36,12.36,0,0,1,2.9-.74l.67,0c1.15.09,2.3-.11,3.45.05l.2.05a15.67,15.67,0,0,1,4.52,1.93l.49.32.87.77a12.67,12.67,0,0,1,4.31,8.73,1.9,1.9,0,0,1-.35,1.42,1.69,1.69,0,0,1-1.94.59,1.72,1.72,0,0,1-1.18-1.73,8.92,8.92,0,0,0-2.07-5.25,4.61,4.61,0,0,0-.95-1l-.2-.14a.67.67,0,0,0-.46-.35,8.82,8.82,0,0,0-6.71-1.94c-.18,0-.37,0-.52.09A9.39,9.39,0,0,0,94.52,193c1.11,1.59,1.14,1.92-.06,3.41a7.91,7.91,0,0,0,.83,10.84,1.89,1.89,0,0,1,.54,2.71A8.44,8.44,0,0,0,101,221.81l.95.52c.68.9.36,2,.54,3a8,8,0,0,0,7.83,6.54,7.72,7.72,0,0,0,7.74-6.17,8.08,8.08,0,0,0-.4-4.66,1.7,1.7,0,0,1,.35-2,1.78,1.78,0,0,1,1.94-.34c.44.14.59.57.91.83l.49,1.46a1.67,1.67,0,0,0,.21.81,2,2,0,0,0,.14,1,12.55,12.55,0,0,1-.63,5.07,11.21,11.21,0,0,1-3.9,5.26c-.47.35-.53.58-.1,1a8.17,8.17,0,0,0,3.46,2.35c.19.2.45.12.67.15a.75.75,0,0,0,.68.17,5.14,5.14,0,0,0,3.51-.32,6.15,6.15,0,0,0,2.15-1.38c.14,0,.17-.17.19-.3a.51.51,0,0,0,.35-.33.59.59,0,0,0,.2-.49,4.36,4.36,0,0,0,1.12-3,4,4,0,0,0,.11-.64q0-4.4,0-8.8a5,5,0,0,0-.11-.73v-.5a28.94,28.94,0,0,0,0-5.35h0a.24.24,0,0,0,0-.16v-.35l0-.32c-.16-.46.63-1.33-.56-1.33-3.81,0-7.62-.06-11.42,0a6.7,6.7,0,0,0-6.58,6.54,1.93,1.93,0,0,1-1.47,2l-1.18-.18-.81-.94,0-.25.08-2,.62-2.31.15-.21c.21-.17.21-.44.28-.67a.7.7,0,0,0,.26-.48l.11-.18c.37-.45.72-.92,1.1-1.35a10.45,10.45,0,0,1,8.34-3.45c3.45,0,6.89,0,10.34,0,.6,0,.84-.13.83-.78,0-2.22,0-4.45,0-6.67l0-1.14v-.82c0-.52,0-1,0-1.56.08-.73-.23-.95-.9-.79Z"/><path class="cls-1" d="M120.18,175.5h1.33l.79.06a9.92,9.92,0,0,1,2.87,1.5,2.3,2.3,0,0,0,.68.68l.35.43.21.34.28.36a7.9,7.9,0,0,1,.69,4.75,6.82,6.82,0,0,1-6.65,5.46,1.64,1.64,0,0,1-1.76-1.51,1.62,1.62,0,0,1,1.44-1.89,5.36,5.36,0,0,0,1.84-.44,3.24,3.24,0,0,0,1.73-3.17,3.42,3.42,0,0,0-3.8-3.18,1.74,1.74,0,0,1-1.22-1.69A1.68,1.68,0,0,1,120.18,175.5Z"/><path class="cls-1" d="M121,201.89l4.68,0,.15,0c.06.13.18.16.3.17s.19.24.37.16l0,0,.24.52a1.69,1.69,0,0,1-1.48,2.52c-3.69.05-7.38,0-11.07,0a1.67,1.67,0,0,1-1.61-1.77,1.69,1.69,0,0,1,1.73-1.66C116.52,201.9,118.77,201.9,121,201.89Z"/><path class="cls-1" d="M109.33,162.75a1.73,1.73,0,0,1,1.69-2c1,0,1.71.65,1.8,1.85a3.68,3.68,0,0,0,3.59,3.55A1.68,1.68,0,0,1,118.2,168a1.71,1.71,0,0,1-1.91,1.64A7.21,7.21,0,0,1,109.33,162.75Z"/><path class="cls-1" d="M104.32,202.74l.17-.08.85-.38a2.92,2.92,0,0,0,1.15-.36l.33,0c.68.07,1.4-.14,2,.35a1.78,1.78,0,0,1,.49,2.12,1.84,1.84,0,0,1-1.75,1,3.62,3.62,0,0,0-3.48,3.4c-.17,1.39-.7,2-1.77,2a1.61,1.61,0,0,1-1.7-1.75A7.07,7.07,0,0,1,104.32,202.74Z"/><text class="cls-2" transform="translate(82.97 85.65)">.YML</text><path class="cls-3" d="M134.86,262.18H91.67q-12.72,0-25.44,0a9.11,9.11,0,0,1-9.15-6.62,17.87,17.87,0,0,1-.9-4.93c-.13-6.35-.12-12.7-.13-19.06,0-5.2.05-10.4.07-15.6q0-12.72.06-25.43c0-10.72.1-21.43.1-32.15,0-12.64-.07-25.27-.1-37.91q-.05-24.36-.08-48.71c0-4.92-.14-9.84,0-14.75.17-4.43,1.66-8.33,5.86-10.58a5.73,5.73,0,0,1,2.59-.69q42.17-.05,84.35,0,13.44,0,26.88,0a2.39,2.39,0,0,1,2.06,1c2.63,3.06,5.4,6,8.12,9q12.38,13.54,24.77,27.08a10.68,10.68,0,0,1,2.9,7.61c0,12.48.08,25,.1,37.43q.07,60.83.1,121.66c0,3.79-.68,7.39-3.56,10.23a8.07,8.07,0,0,1-6,2.52c-7.28,0-14.56-.05-21.84-.06ZM59.1,154q0,47.82,0,95.64c0,.6,0,1.2,0,1.8a8,8,0,0,0,6.14,7.39,23.06,23.06,0,0,0,5.1.5c11,0,21.91-.1,32.87-.16,2,0,4.08-.06,6.12-.05q32.87.1,65.75.22c8.76,0,17.52.06,26.28,0,5.55-.06,8.68-2.78,9.43-8.08a34.15,34.15,0,0,0,.1-4.91c-.05-12.24-.16-24.47-.17-36.71q0-58.68,0-117.36c0-3.59-.46-4-4.1-4-8.84,0-17.68,0-26.52,0-1.23,0-2.47-.19-3.7-.28a1.3,1.3,0,0,1-1.34-1.27,29.62,29.62,0,0,1-.33-3.21c0-10.36,0-20.72,0-31.08,0-2.12-.84-3.14-2.82-3.27-3.15-.21-6.3-.46-9.45-.46q-46.92-.05-93.84,0c-.4,0-.8,0-1.2,0a7.94,7.94,0,0,0-8.07,6.77,17,17,0,0,0-.25,3.22Q59.09,106.32,59.1,154ZM178.85,52.23a44.9,44.9,0,0,0-.68,5.26c-.07,8,0,16.08,0,24.12,0,2.47.84,3.28,3.34,3.29H204.4A2.34,2.34,0,0,0,206.6,83c.12-.4-.36-1.11-.74-1.52q-10.23-11.13-20.5-22.21Z"/><path class="cls-3" d="M132,113.88q-23.25,0-46.49,0c-3,0-6.16-.11-6.26-2.34-.11-2.44,3.17-2.56,6.39-2.56q47,0,94,0c3,0,6.14.07,6.24,2.34.11,2.49-3.19,2.55-6.38,2.55Q155.74,113.86,132,113.88Z"/><path class="cls-3" d="M132.5,124.34q23.5,0,47,0c3.22,0,6.47.12,6.37,2.58-.09,2.28-3.3,2.37-6.25,2.37h-94c-3.18,0-6.51-.15-6.38-2.59.12-2.21,3.2-2.37,6.26-2.36Q109,124.38,132.5,124.34Z"/></svg>