<svg id="Layer_1" data-name="Layer 1" xmlns="http://www.w3.org/2000/svg" viewBox="0 0 141 180"><defs><style>.cls-1{fill:none;stroke-width:3px;}.cls-1,.cls-3{stroke:#fff;stroke-miterlimit:10;}.cls-2,.cls-3,.cls-4{fill:#fff;}.cls-4{font-size:30.18px;font-family:Montserrat-Medium, Montserrat;}</style></defs><title>new icons</title><path class="cls-1" d="M131.24,56.27c-8.69,0-17.38.26-26.06,0-6.42-.19-11.72-6.44-11.77-13.33-.06-8.33,0-16.67,0-25,.48-.07.64.37.89.62Q112.41,37,130.52,55.38C130.78,55.65,131,56,131.24,56.27Z"/><path class="cls-2" d="M35.17,49.75l6.22,3.11,3.4,1.69c1.74.86,2,1.32,1.66,3.26-.09.58-.41.61-.78.38-3.86-2.34-8-4.18-12-6.31-1.49-.8-1.84-1.5-1.52-3.17.07-.38.34-.48.6-.62q6.42-3.33,12.85-6.66c.63-.33.76-.2.83.49A2.63,2.63,0,0,1,44.68,45C41.52,46.43,38.48,48.09,35.17,49.75Z"/><path class="cls-2" d="M70.4,49.73l-9.83-4.91a2.53,2.53,0,0,1-1.46-3.28c.2-.69.61-.18.85-.06,2.78,1.41,5.54,2.84,8.31,4.27,1.43.74,2.84,1.52,4.29,2.21.63.3.73.7.82,1.34.18,1.39-.42,2-1.62,2.62-3.9,1.91-7.74,4-11.6,5.95-1,.54-.94.53-1.08-.58a2.41,2.41,0,0,1,1.73-2.85C64,53,67.06,51.39,70.4,49.73Z"/><path class="cls-2" d="M49.82,64.62c-1.5,0-1.51,0-1.16-1.33l6.8-26A1.91,1.91,0,0,1,58,36.31c.38.27.1.62,0,.93q-1.6,6.16-3.21,12.32c-1.21,4.64-2.45,9.27-3.62,13.91C50.94,64.35,50.67,64.89,49.82,64.62Z"/><path class="cls-1" d="M132,125.16q-53.46,0-106.93,0a84.52,84.52,0,0,0-10.3.17c0,.61.12,1.21.12,1.82,0,10.51,0,21,0,31.53a13.24,13.24,0,0,0,13.36,13.51q45.37,0,90.74,0a13.16,13.16,0,0,0,13.38-13.46c0-10.62,0-21.24,0-31.86C132.41,126.28,132.61,125.62,132,125.16Z"/><path class="cls-1" d="M131.88,56.27c-8.83,0-17.67.26-26.5,0-6.53-.19-11.92-6.44-12-13.33-.06-8.33,0-16.67,0-25a12.73,12.73,0,0,0-1.31-.13q-31.79,0-63.57,0a16.21,16.21,0,0,0-3.48.33c-6.36,1.41-10.46,6.77-10.46,13.63q0,46,0,91.94a2.68,2.68,0,0,0,.2,1.62,84.52,84.52,0,0,1,10.3-.17q53.46,0,106.93,0c0-.16,0-.33,0-.5q0-33.64,0-67.28C132.06,57,132.18,56.6,131.88,56.27Z"/><path class="cls-3" d="M35.6,92.56V84.64a13.19,13.19,0,0,1,2.77-2.48,24,24,0,0,1,12-1.9c1.92.12,3.83.5,5.81.77a4.66,4.66,0,0,1,2.9-4.28,18.57,18.57,0,0,1,3.29-1.41,39.27,39.27,0,0,1,16.13-1.15A25.22,25.22,0,0,1,87,76.39c2.07,1.06,3.7,2.41,3.54,5,0,.06.09.12.18.21a30.32,30.32,0,0,1,12.39-1.26c2.58.33,5.16.63,7.43,2.05a3,3,0,0,1,1.68,2.69c0,6.36.07,12.71.26,19.07a4,4,0,0,1-2.6,4.13,22.7,22.7,0,0,1-8.83,1.93,28.62,28.62,0,0,1-10.68-1.46c-.83,2.34-2.78,3.39-4.84,4a46.66,46.66,0,0,1-7.57,1.67,36.57,36.57,0,0,1-16.66-1.6,8,8,0,0,1-4.62-3.24,1.27,1.27,0,0,0-1.09-.27,26.82,26.82,0,0,1-10.93.63A43,43,0,0,1,38,108.17a3.27,3.27,0,0,1-2.08-3.45c0-3.64,0-7.28-.06-10.92A7.22,7.22,0,0,0,35.6,92.56Zm52.53.52a36.34,36.34,0,0,1-29.58,0c0,2.13-.06,4,0,5.87a1.88,1.88,0,0,0,.88,1.3,19.17,19.17,0,0,0,3.81,1.68,38.5,38.5,0,0,0,17.32.64,31.06,31.06,0,0,0,6-1.91A2.64,2.64,0,0,0,88.06,99,57.24,57.24,0,0,0,88.13,93.08Zm0,9.48a38.43,38.43,0,0,1-29.6,0c0,1.12,0,2.19,0,3.26,0,3.52.25,3.87,3.62,5.05l.68.21a36.31,36.31,0,0,0,12,1.39c4-.2,8-.71,11.73-2.55.85-.42,1.55-.95,1.58-1.92C88.16,106.24,88.12,104.44,88.12,102.56ZM58.55,84.08c0,1.94-.08,3.78,0,5.6a2.11,2.11,0,0,0,1,1.45A19.19,19.19,0,0,0,64,92.83a44.34,44.34,0,0,0,7.32,1.08c5.35.26,10.63-.17,15.5-2.69a2.71,2.71,0,0,0,1.34-1.75,53.31,53.31,0,0,0,.06-5.42A39,39,0,0,1,58.55,84.08Zm13.66-8c-1.32.13-3.84.27-6.32.63a13.37,13.37,0,0,0-6.54,2.47c-1.18.93-1.23,1.61,0,2.4a15.51,15.51,0,0,0,4,1.87,40.77,40.77,0,0,0,15.81.85,18.29,18.29,0,0,0,8-2.64c1.32-.87,1.39-1.67.06-2.55a14.15,14.15,0,0,0-3-1.5C80.76,76.37,77.09,76.18,72.21,76.1Zm38.57,18.13c-10.82,3.23-11.09,2.93-20.34,1,0,1.18,0,2.32,0,3.46,0,1.83,0,1.9,1.8,2.36a28.24,28.24,0,0,0,12.94.34,24.45,24.45,0,0,0,4.6-1.57,1.94,1.94,0,0,0,1-1.36C110.87,97.06,110.78,95.7,110.78,94.23Zm.08,6.81c-6.77,3-13.48,2.9-20.42,1.06,0,.59,0,1.09,0,1.6s0,1.12,0,1.68c-.15,1.84-.15,1.86,1.66,2.39a27.74,27.74,0,0,0,10.08.87,17.91,17.91,0,0,0,7.37-1.87c.54-.3,1.22-.87,1.28-1.39A34.7,34.7,0,0,0,110.86,101ZM90.44,88.47c0,1.33.08,2.57,0,3.79-.1,1.06.39,1.5,1.3,1.77a28.59,28.59,0,0,0,10.78.87A17.78,17.78,0,0,0,109.6,93c.4-.22,1-.59,1-.92.11-1.51,0-3,0-4.62C104,90.28,97.37,90.27,90.44,88.47Zm10.08-7c-2.85.4-5.27.61-7.65,1.09s-2.44.62-2.45,3.15c0,.82.24,1.3,1,1.44,1.92.33,3.82.77,5.75.93a22.62,22.62,0,0,0,11.14-1.41,11.32,11.32,0,0,0,2.32-1.86c-.82-.63-1.56-1.59-2.48-1.83C105.56,82.29,102.85,81.9,100.52,81.46Zm-51.58.11a54.91,54.91,0,0,0-6.18.71,20.4,20.4,0,0,0-4.84,1.89c-1.05.55-1,1.26,0,1.91a9.38,9.38,0,0,0,2.57,1.22,30.36,30.36,0,0,0,13.86.23c1.9-.38,1.89-.41,1.89-2.42a10.21,10.21,0,0,1,0-1.32,1.07,1.07,0,0,0-1.07-1.37Zm7.33,13.7a26.72,26.72,0,0,1-18.87-.89,21.83,21.83,0,0,1,0,2.89,2.69,2.69,0,0,0,2.19,3.28c.34.1.65.31,1,.4a30.09,30.09,0,0,0,14.91,0c.3-.07.75-.46.76-.71C56.31,98.68,56.27,97.09,56.27,95.27Zm-19-7.6a31.57,31.57,0,0,0,.06,4.09,2.13,2.13,0,0,0,1.19,1.45,35.76,35.76,0,0,0,6.2,1.64,25.9,25.9,0,0,0,10.56-.74c.38-.11.94-.52,1-.81.1-1.5,0-3,0-4.63C49.83,90.09,43.58,90.33,37.26,87.67Zm19,14.75c-6.39,1.31-12.6,1.59-18.77-1.12,0,1.17.08,2.17,0,3.15a2.44,2.44,0,0,0,1.85,2.81,27.17,27.17,0,0,0,16.24.48,1.11,1.11,0,0,0,.67-.79C56.27,105.48,56.23,104,56.23,102.42Z"/><text class="cls-4" transform="translate(39.74 159.63)">YML</text></svg>