<svg id="Layer_1" data-name="Layer 1" xmlns="http://www.w3.org/2000/svg" viewBox="0 0 308 279"><defs><style>.cls-1,.cls-4{fill:#f04f25}.cls-2,.cls-3{fill:none;stroke:#f04f25}.cls-2,.cls-3,.cls-4{stroke-miterlimit:10}.cls-2{stroke-width:7px}.cls-3{stroke-width:4px}.cls-4{stroke:#fff;stroke-width:2px}</style></defs><title>new icons</title><path class="cls-1" d="M145.5 178.3a8 8 0 0 0-8-8 8 8 0 1 0-.1 16.2 8 8 0 0 0 8-8.2z"/><path class="cls-2" d="M236.2 137.6c-3.7-11.8-13.2-18.4-27-20.2-2.4-.3-5.7-1.2-6.7-2.8a48 48 0 0 0-40.5-22 7.2 7.2 0 0 1-4.9-3c-9-16-27-25.4-45-23.3-20.7 2.4-36 15-39.4 33.3-.6 3.3-2 4.7-5.3 6-14 5-22.7 14.1-24.5 27.3-3.1 22.7 14.4 39.7 40.1 39.8h26.7l.2-10.8v-8.5a11 11 0 0 1 5.8-1.3h1.3a15.3 15.3 0 0 1 2.3 0h.9c.4-.1.5-.4.5-1v-6a1 1 0 0 1 0-.6 31.2 31.2 0 0 1 1-6.5v-.3a16.9 16.9 0 0 1 9.6-9.7l.2-.1.5-.2a16.6 16.6 0 0 1 4.4-1h2.6a16.6 16.6 0 0 1 4.4 1l.5.2.2.1a16.9 16.9 0 0 1 9.5 9.7l.1.3a31.2 31.2 0 0 1 1 6.5 1 1 0 0 1 0 .6v6c0 .6 0 1 .5 1h.9a15.3 15.3 0 0 1 2.3 0h.5c1.7.2 3.2-.6 4.2.5l.1.2.3.3.1.2.2.3.2.2.2.4v.2a7.8 7.8 0 0 1 .7 3.2v15.1h39.4a35 35 0 0 0 21.8-6.6c10-7.5 13.6-17.4 10-28.5z"/><circle class="cls-3" cx="139.5" cy="141.5" r="118.5"/><path class="cls-4" d="M169.6 176.7v-21a7.4 7.4 0 0 0-.8-3.3v-.2a7 7 0 0 0-.3-.4l-.1-.2-.3-.3-.2-.2-.3-.4a8.5 8.5 0 0 0-5-2.3h-.6a20.2 20.2 0 0 0-2.8 0h-1c-.5-.1-.7-.4-.7-1.1V141a1 1 0 0 0 .1-.5 17.3 17.3 0 0 0-1.3-5.3v-.2a19 19 0 0 0-12.2-10.5l-.7-.2-1-.3-1-.2h-.7l-1.2-.2h-3.8l-1.2.1h-.4l-.4.1-1 .2-1 .3-.6.2a19 19 0 0 0-12.3 10.5v.1a17.3 17.3 0 0 0-1.3 5.3 1 1 0 0 0 0 .5v6.3c0 .7 0 1-.6 1.1h-1a20.2 20.2 0 0 0-2.8 0h-.5a8.5 8.5 0 0 0-5 2.3h-.1l-.3.4-.2.2-.3.4-.1.2-.2.4-.1.1a7.4 7.4 0 0 0-.8 3.4v42.7a6.2 6.2 0 0 0 .8 3.5l.2.4.3.4a6.6 6.6 0 0 0 .6.8h.1a7 7 0 0 0 .9.8v.1a7.8 7.8 0 0 0 1 .5l.4.2.8.3.8.3h.3a10.6 10.6 0 0 0 1.2.2h49.3a10.6 10.6 0 0 0 1.2-.2h.3a9.8 9.8 0 0 0 1.5-.6l.5-.2a7.8 7.8 0 0 0 .9-.5l.1-.1a7 7 0 0 0 .8-.7l.1-.1a6.6 6.6 0 0 0 .7-.8l.2-.4.3-.4a6.2 6.2 0 0 0 .8-3.5v-21.7zm-32 22.1h-23c-.9 0-1-.3-1-1v-41.2c0-.8.1-1 .8-1.1h46.3c.7 0 .9.3.9 1v41.2c0 .8-.2 1.1-1.1 1.1h-23zM125.2 147c.2-2.7-.3-5.4.3-8 1-4.9 5.8-8.5 11.2-8.9h1.8c5.4.4 10.2 4 11.2 8.8.5 2.7 0 5.4.3 8.1 0 .9-.3 1.2-1 1.2h-22.9c-.7 0-1-.3-1-1.2z"/><path class="cls-3" d="M228 59.7L60.6 227.1"/></svg>