<svg id="Layer_1" data-name="Layer 1" xmlns="http://www.w3.org/2000/svg" viewBox="0 0 600 425"><defs><style>.cls-1{fill:none}.cls-2{fill:#fe7006}.cls-3{fill:#515150}.cls-4{fill:#0f938c}.cls-5{fill:#fefdfd}.cls-6{fill:#ff4b00}.cls-7{clip-path:url(#clip-path)}.cls-8{clip-path:url(#clip-path-2)}.cls-9{clip-path:url(#clip-path-3)}.cls-10{clip-path:url(#clip-path-4)}</style><clipPath id="clip-path"><path class="cls-1" d="M250 240h46v128h-46z"/></clipPath><clipPath id="clip-path-2"><path class="cls-1" transform="rotate(-180 228 304)" d="M205 240h46v128h-46z"/></clipPath><clipPath id="clip-path-3"><path class="cls-1" d="M283 368h111v20H283z"/></clipPath><clipPath id="clip-path-4"><path class="cls-1" d="M377 368h116v24H377z"/></clipPath></defs><title>customer quotes image</title><ellipse class="cls-2" cx="157.5" cy="368" rx="53.5" ry="18"/><path class="cls-2" d="M103.7 368.3c-.5-4.7 2-8.4 4-12.1a49.3 49.3 0 0 1 25.5-21.4l8.3-3.5c4.6-2.1 5.2-6.3 5.3-10.6 0-2-1.2-2.3-3-2.3-13-.6-19-6.7-20.1-19.7a69.3 69.3 0 0 1 4.8-30.9c6-15.3 20.4-22 38-18a35 35 0 0 1 27.7 25 77 77 0 0 1 3.8 24c-.1 11.3-6.5 18.8-17.6 20.7-4.9.8-4.9 1.2-3.5 6 1.8 7 8.2 7.6 13.2 9.8 4.6 2 9 4 12.8 7.4a8 8 0 0 1-1.2 2.3c-5.1 4.6-7 10.7-8.6 17-1.2 4.7-.7 5.3 4 5.4 2.9 0 5.7-.2 8.6 0 4 .3 8.3-1 12.3.8zm60.7-81.6l.9 1 2 2.7c-1.7 0-2.8 0-4-.2-3.6-.5-5.6-6.4-10.4-3l-.8-.4a30.6 30.6 0 0 1-6-3.8c-1.9-1.2-2.7-5.3-4.6-4s-2.2 4.8-2.4 7.6v.9c-.1 8.3 2.6 15.8 5.2 23.5 1.8 5.6 5.9 8.5 10.8 10.5 9 3.5 19-.3 22.6-8.8 2.8-6.8 3.4-14 3.2-21.4 0-1.4-.4-2.4-2.1-1.7-5 2-9.1.5-13-2.6l-1-.7c-.3-.4-.7-.8-1-.4s.1.7.6.8zm25 50.3c-9.3-2-15-6.5-15.8-16a19 19 0 0 1-12.3 4 28 28 0 0 1-12.2-3.8c.6 8.7-4.8 12.2-11.8 14.6-1 .4-3.2 0-3.2 1.8s1.7 2.2 3.1 2.8a90 90 0 0 0 8.6 3.8c15.3 4.8 30 5 43.6-7.2zm-34-52.4c-.2-.4-.3-.9-.9-.7a2.4 2.4 0 0 0-.6.4 5.4 5.4 0 0 0 .9.7l.5-.4z"/><path class="cls-3" d="M392 146.1l-11.8 6.2 13.7-63.7C397.9 70 387 57 368 57.4c-13.1.2-26.2 1.2-39.4.7.5-8.4 6-12.9 12.7-16.4h60.8c1.5 1.5 3.4.8 5.1.9 9.3.5 18.7-.9 28 .9 7 1.3 14.4 9.8 12.4 20-1.7 8.8-3.1 17.7-4.7 26.5l-2 .8c-26.9 9-44.5 26.4-48.9 55.3z"/><path class="cls-4" d="M377.6 368.3a43 43 0 0 1 11.8-25c1.8-1.2 3.6-2.9 5.6-3.5 9.8-3 10-11.1 10.5-19.2a40.4 40.4 0 0 0-.4-5c4.8-.7 9.7 1.2 14.5-.2 13.1 12.4 25.7 9.8 31.2-6.2 3.9 1.5 8 .9 12 1a43 43 0 0 0 3.7 23.3c.8 1.6 1.6 3 3.4 3.9 13.3 6 20 17.1 23 30.9zm29.4-31.1c9.1 6.7 18.4 12 27.4 17.6a1.7 1.7 0 0 0 2 .1l26-17.8c-6.3-1.7-12-3.6-13.5-9.2-1.6-5.7-3.4-5.8-8.4-3.6-5.8 2.5-11.8.3-17.7-3 .3 10.8-7.6 13-15.8 15.9z"/><path class="cls-5" d="M336.8 368c.6-3.4 1-6.9 1.7-10.3a5.9 5.9 0 0 0-2-6.4c-2.4-2-3.1.8-4.5 1.5-1 .5-1.6.8-2.2-.2l-11.8-19 1.2-.7c3 4.9 6.4 9.6 9.1 14.7 2 3.8 3.5 3.7 6.5.8 6.2-5.7 6.3-5.5-.7-10l-4.6-3c-1.9-1.2-4.6-2-5.5-3.8-1-2 2.5-2.6 3.3-4.5a23.6 23.6 0 0 0 1.7-7.7c4 2 7.8 4 12.3 4s8.2-1.4 12.3-4c.6 4 1.7 7.6 4.8 10.2 2 1.7.2 2.3-.8 3-4.2 3-8.4 6-12.7 8.8-1.6 1.1-1.8 1.8-.3 3.4 7.5 7.6 7.5 7.6 13.2-1.4l6.6-10.5 1.2.8-11.7 18.8c-.8 1.3-1.6.7-2.6 0s-2-3-3.6-1.2c-1.5 1.6-3.6 3-2.9 5.7l2.9 11z"/><path class="cls-2" d="M239.8 186.2c-10 22.4-29.4 31.5-54 24.5l15.2 30.8-.7.7-20-12.6-28.4-18.3a8.4 8.4 0 0 0-6.3-1.3c-23.4 3.1-44.4-2-60.4-20.1-22.3-25.4-16.1-60.5 11.4-80.2a69.8 69.8 0 0 1 66.8-9c1.6.5 3 1.4 4.8-.3 10-9 22-11.3 35-9a.5.5 0 0 0 .4.3v5l1.8 63.3c.3 13.7 7.6 22.6 21 25.3 4.4 1 9 .1 13.4.9z"/><path class="cls-6" d="M392 146.1c4.4-29 22-46.3 48.8-55.4l2.1-.7a97.2 97.2 0 0 1 26.1-1.8c22.3 1.7 41 10.5 52.6 30.3A53.8 53.8 0 0 1 519 177c-13.8 21.3-34.3 30.3-58.7 32.5-6.7.6-12.3 4.5-18.3 7l-28 12.8c3.8-8.1 6.7-15.1 10.2-22 1.7-3.3 1.7-5-2-7.3a57 57 0 0 1-30.1-53.9z"/><path class="cls-4" d="M462.8 310.3c-4-.2-8 .4-12-1.1.3-1.8.7-3.5.9-5.3.5-5.7.7-11.3-4.1-15.6-.2-.4-.4-.7-.9-.4a5.5 5.5 0 0 0 .4.9c.5 1.8 2.2 3.5.7 6.1-3.4-6-8.7-9.4-14-13-5-3.4-9.8-7.1-11.7-13.3-.7-2.3-1.6-1.5-2.8-.5-4.9 4-6.7 9.8-8.2 15.6-.5 1.6-.4 3.5-1.3 4.8-3.9 6.1-3 10.3 3.2 14.7a3.9 3.9 0 0 1 1.4 2.2c1.1 3.6 3.4 6.7 5.2 10-4.8 1.3-9.7-.5-14.5.3-2.4-11.8-6.9-23.2-5.8-35.6 1.2-14.7 10-26.5 23.4-29.3 13-2.6 25 .1 35 9 8 7.3 9.3 17.4 8.4 27.6-.7 7.7-2.2 15.3-3.3 22.9z"/><path class="cls-5" d="M165.9 287c3.8 3.2 8 4.7 12.9 2.6 1.7-.7 2 .4 2 1.8a48 48 0 0 1-3.1 21.3 17.3 17.3 0 0 1-22.5 8.8c-5-2-9-4.9-11-10.4-2.4-7.7-5.2-15.3-5.1-23.6v-.9c.2-2.8.4-6.4 2.4-7.6s2.8 2.8 4.5 4.1a30.6 30.6 0 0 0 6.2 3.8c.2.1.6.5.7.4 4.8-3.5 6.9 2.4 10.4 3 1.2 0 2.4 0 4 .2l-2-2.8z"/><path class="cls-5" d="M189.4 337c-13.7 12.2-28.3 12-43.6 7.2a90 90 0 0 1-8.6-3.8c-1.4-.6-3.1-1.2-3-2.8s2-1.4 3.1-1.8c7-2.3 12.3-5.8 11.8-14.6 4 2 7.8 3.8 12.2 3.9a19 19 0 0 0 12.2-4c1 9.4 6.6 14 16 15.9zm-34.1-52.4l-.5.5a5.4 5.4 0 0 1-.9-.8 2.4 2.4 0 0 1 .7-.4c.6-.2.6.3.7.7zm9.1 2.1c-.5 0-1-.3-.6-.8s.7 0 1 .4l-.4.4z"/><path class="cls-5" d="M165.3 287.7l-1-1 .5-.4 1 .7zm201.7 1.5c-.5 3.7 0 8-4.3 10.3-.8.4-1.2 2-1.5 3.1a34.5 34.5 0 0 1-4.4 9.4c-7.6 11.3-21.5 12.1-30.2 1.7-2-2.3-4.4-4.6-4.8-7.6-.7-5.3-6.6-7-7.8-12-.6-2.7-1-5.3.3-8.2l2.3 4.7c.5 1 1 2.3 2.6 1.7 2-.6 1-1.8.6-2.8a25.8 25.8 0 0 1 3.4-23c8.7 12.8 29 22 40.6 13 .2 3.5.4 6.7-.4 9.9-.3 1-1.2 2.6.2 3.2 1.6.7 2.2-1 2.8-2.2l.7-1.2zm-139.8-11.9a24.8 24.8 0 0 1 0-4c.4-2.2.4-5.1 2.5-6 1.6-.8 2.5 2 4 3 9.2 5.8 18.6 4.7 28.2 1.2a25.9 25.9 0 0 0 4.4-2.2c5.1-3 5.2-3 6.4 2.9a70.5 70.5 0 0 1 1.3 9.8c.1 2.5-.8 4-3.8 3.3a37.4 37.4 0 0 0-16.2.1 14.8 14.8 0 0 1-6.7-.2c-4.5-1-9-.8-13.5-.3-6.1.8-6.4.6-6.6-5.8v-1.8zm43.4 52.9c-1.6 4.4-5.5 6.3-9.4 7.8a27.5 27.5 0 0 1-27.7-3.2c-2-1.5-3.6-2.8 0-4.7 3.8-2 3.9-6.5 4.8-10.6 9 5.5 17.6 6.2 26-1 1.6 4.4 1 9.6 6.3 11.6zm-7.6-43.4c2.4.7 6.8-1.3 6.7 4.3-.1 4.5-1.8 6.2-6.3 6.3-5.1 0-8-2.6-8.2-7.1 0-3 1-3.5 7.9-3.5zm184.6 1.5c4.8 4.3 4.6 10 4.1 15.6-.2 1.8-.6 3.5-.9 5.3-5.5 16-18.1 18.6-31.2 6.2-1.8-3.2-4-6.3-5.2-10a3.9 3.9 0 0 0-1.4-2.2c-6.2-4.4-7-8.5-3.1-14.6.8-1.4.8-3.2 1.2-4.8 1.6-5.9 3.4-11.6 8.3-15.7 1.2-1 2-1.8 2.8.5 1.8 6.2 6.6 10 11.6 13.4 5.3 3.5 10.6 7 14 13 1.6-2.6-.1-4.3-.6-6.2z"/><path class="cls-5" d="M407 337.2c8.2-2.8 16.1-5.1 15.8-15.9 5.9 3.4 11.9 5.5 17.7 3 5-2.2 6.7-2 8.4 3.6 1.5 5.6 7.2 7.5 13.5 9.2l-26 17.8a1.7 1.7 0 0 1-2 0c-9-5.7-18.2-11-27.4-17.7z"/><path class="cls-4" d="M368 57.4c-13.1.2-26.2 1.2-39.4.7l-.7.5a29.3 29.3 0 0 0-3.2-.2l-97.2 2.5a22.8 22.8 0 0 0-13.4 5c-8.4 6.5-11.3 15.3-10.8 25.5a.5.5 0 0 0 .3.3v5l1.8 63.3c.3 13.7 7.6 22.6 20.9 25.4 4.5 1 9 .1 13.5.9l22.6 1.2a8 8 0 0 1 5.3 2.1q14.6 12.7 29.5 25.3l20.9 17.7-11.3-43c12.4.8 24.4 1.3 36.4 2.3a30 30 0 0 0 33.2-24 81.3 81.3 0 0 0 3-14.5l.8-1c4.6-21.3 9.3-42.5 13.7-63.7C398 70 387 57 368 57.3z"/><path class="cls-5" d="M447.1 288.8a5.5 5.5 0 0 1-.4-1c.5-.2.7.1.9.5z"/><path class="cls-3" d="M206.3 340c7.6 7 14.1 14.8 17.1 24.8.5 1.6 2.9 1 2 3-.3 0-2.6-1.1-3 0a41 41 0 0 1-14.4 1.1c-3.5-.2-7 0-10.4 0-5.7 0-6.3-.8-4.9-6.3 2-7.3 4.3-14.4 10.4-19.7.8-.7 1-1.8 1.6-2.7z"/><g class="cls-7"><path class="cls-3" d="M296.4 340.7a40.6 40.6 0 0 0-12.7 23.1c-.3 1.5-.3 3-.4 4.5h-64.4c.7-1.6-.2-3-.6-4.4a47.7 47.7 0 0 0-14-21.2c3.6-4.3 8.7-6.2 13.7-8.2 4-1.7 8.3-3 12.1-5 6.4-3.4 7.5-9.8 3-15.4 0-.2-.2-.3-.3-.4-3.3-8.5-11.7-14.4-12.5-24.2-.1-1-.6-2.6-.1-3 3.6-3.6 1.7-7.6 1.2-11.5-1.7-13.2 3-21.9 15.3-26.8a36.1 36.1 0 0 1 29.8 1c9.6 4.5 11.6 13.3 12.2 22.6.2 3 .4 6-.5 9a3.8 3.8 0 0 0 0 2.6c3.5 6.2 1.2 11.8-2.4 16.4-3.8 4.7-5.8 10.3-8.4 15.5-1.7 3.5 0 7.4 1.8 10.8.7 1.2 2.1 2.2 1.4 4-5.3-2-4.7-7.3-6.3-11.7-8.4 7.2-17.1 6.6-26 1-1 4.2-1 8.6-4.9 10.6-3.6 2-2 3.3 0 4.7 8.6 6.5 18 7 27.8 3.3 3.8-1.5 7.8-3.5 9.4-7.9a78.6 78.6 0 0 1 25.8 10.6zm-63-44.1c-3.3-1-1.7-4.4-3-6.2-2.3 3.2-3 3.2-4.7-.1-.7-1.4-.6-3.5-3-4.3-.6 4.7.2 10.1 3.1 12 3.7 2.4 3.6 5.6 5.2 8.5 4.1 8 10 14.1 19.6 14.5s14.6-5.9 18-13.8c1.2-2.5 1.4-6 3.3-7.3 4.7-3.2 4.4-8 5.6-12.4-3.1 5.2-3.1 5.2-5.6 2.5l-.8 3c-1.4 5.3-3.8 6.9-9.1 6.3-4.2-.5-7.5-1.9-8.3-6.8-.2-1.2-.7-2.8-2.4-2.9-2-.1-2.1 1.8-2.8 3s-.3 3.5-2.4 4a3.8 3.8 0 0 1 .3-2.6c1.7-5.2.5-6.8-4.8-7.1-8.7-.6-10 .9-8.2 9.7zm-6.2-19.3v1.9c.1 6.3.4 6.5 6.6 5.7 4.4-.5 9-.8 13.5.4a14.8 14.8 0 0 0 6.7.1 37.4 37.4 0 0 1 16.1 0c3 .6 4-1 3.8-3.4a70.5 70.5 0 0 0-1.2-9.8c-1.2-6-1.3-6-6.4-2.9a25.9 25.9 0 0 1-4.4 2.3c-9.5 3.4-19 4.6-28.2-1.3-1.5-.9-2.4-3.7-4-3-2 .9-2 3.8-2.5 6a24.8 24.8 0 0 0 0 4zm35.9 9.5c-6.9 0-8 .6-7.9 3.5.2 4.5 3 7 8.2 7 4.5 0 6.2-1.7 6.3-6.2 0-5.6-4.3-3.6-6.6-4.3z"/></g><g class="cls-8"><path class="cls-3" d="M230.4 330.2c1.6 4.4 5.5 6.3 9.4 7.8a27.5 27.5 0 0 0 27.7-3.2c2-1.5 3.6-2.8 0-4.7-3.8-2-3.9-6.5-4.8-10.6-9 5.5-17.6 6.2-26-1-1.6 4.4-1 9.6-6.3 11.6-.8-1.7.7-2.7 1.4-4 1.8-3.4 3.5-7.3 1.8-10.7-2.7-5.3-4.6-10.8-8.4-15.6-3.6-4.5-6-10.2-2.5-16.3a3.8 3.8 0 0 0 0-2.6c-.9-3-.7-6-.5-9 .6-9.4 2.7-18 12.2-22.6a36.1 36.1 0 0 1 29.8-1c12.3 4.9 17 13.5 15.3 26.8-.5 3.8-2.3 7.9 1.3 11.4.4.5 0 2-.1 3-.9 9.8-9.2 15.7-12.6 24.3l-.3.3c-4.5 5.7-3.4 12 3 15.5 3.9 2 8 3.3 12.1 5 5 2 10.1 3.9 13.8 8.1a47.6 47.6 0 0 0-14 21.3c-.5 1.4-1.3 2.8-.7 4.3h-64.3c-.1-1.5-.1-3-.4-4.4a40.6 40.6 0 0 0-12.8-23.2 78.6 78.6 0 0 1 25.9-10.5zm29-43.4c-5.4.3-6.5 2-4.9 7.2a3.8 3.8 0 0 1 .4 2.6c-2.2-.5-1.7-2.6-2.5-4s-.7-3.1-2.7-3c-1.8.1-2.3 1.7-2.4 3-.8 4.8-4.1 6.2-8.3 6.7-5.4.6-7.8-1-9.2-6.3l-.8-3c-2.4 2.6-2.4 2.6-5.5-2.5 1.1 4.4.9 9.1 5.5 12.4 2 1.3 2.2 4.8 3.3 7.3 3.4 7.9 8.5 14 18 13.7s15.5-6.5 19.7-14.4c1.5-3 1.5-6.1 5.1-8.5 3-1.9 3.7-7.3 3.1-12-2.3.8-2.2 2.8-3 4.2-1.7 3.3-2.3 3.4-4.6.1-1.4 1.9.2 5.2-3 6.3 1.8-8.8.5-10.3-8.2-9.8zm14.4-13.5c-.4-2.2-.5-5-2.5-6-1.6-.7-2.5 2.1-4 3-9.2 5.9-18.7 4.7-28.2 1.3a25.9 25.9 0 0 1-4.5-2.3c-5-3-5.2-3-6.4 2.9a70.5 70.5 0 0 0-1.2 9.8c-.1 2.5.8 4 3.8 3.3a37.4 37.4 0 0 1 16.2.1 14.8 14.8 0 0 0 6.7-.2c4.5-1 9-.8 13.5-.3 6.1.8 6.5.6 6.6-5.8v-1.8a24.8 24.8 0 0 0 0-4zM231.3 291c.1 4.5 1.8 6.3 6.3 6.3 5.1 0 8-2.6 8.2-7.1.1-3-1-3.5-7.9-3.5-2.3.7-6.7-1.3-6.6 4.3z"/></g><ellipse class="cls-3" cx="245.5" cy="366.5" rx="53.5" ry="18.5"/><path class="cls-6" d="M296.4 340.7c7-4.4 14.7-7 22.3-9.9 6.1-2.3 8.3-5.6 8-11v-1.4c-4.8-5.1-6.2-12.3-11.2-17.1-4-3.9-6-13-3-17.6a4.8 4.8 0 0 0 .3-4.3 40.4 40.4 0 0 1-1.6-10.3c-.2-9.6 2.2-13.2 11.2-16.6a18 18 0 0 0 3.5-2 27.2 27.2 0 0 1 42.7 18.8c.6 3.7 1 7.5.1 11.2a4.3 4.3 0 0 0 0 2.7c4 7.3-.4 12.7-3.8 18.4-3.2 5.2-5.5 10.9-8.7 16.1-2.4 4 2 10.8 7.3 13 4.6 2 9.3 3.6 13.9 5.5a42.5 42.5 0 0 1 12 7.2 43 43 0 0 0-11.8 24.9L347 368c-1-3.6-1.2-7-2.2-10.6-.7-2.8 1.4-4.2 2.9-5.8 1.6-1.8 2.5.6 3.6 1.3s1.8 1.2 2.6-.1l11.7-18.8-1.2-.8-6.6 10.5c-5.7 9-5.7 9-13.2 1.4-1.5-1.6-1.3-2.2.3-3.4 4.3-2.8 8.5-5.8 12.7-8.7 1-.7 2.7-1.3.8-3-3-2.6-4.2-6.3-4.8-10.3-4 2.7-8 4.2-12.3 4s-8.4-2-12.3-4a23.6 23.6 0 0 1-1.7 7.7c-.8 2-4.3 2.5-3.2 4.5.8 1.8 3.5 2.6 5.4 3.9l4.6 2.9c7 4.5 6.9 4.4.7 10-3 2.9-4.4 3-6.5-.8-2.7-5-6-9.8-9.1-14.6l-1.2.7 11.8 18.9c.6 1 1.3.8 2.2.2 1.4-.7 2.1-3.5 4.4-1.5a5.9 5.9 0 0 1 2.1 6.4c-.8 3.4-1.1 6.8-1.7 10.3h-53.5c.1-1.5.1-3 .4-4.5a40.6 40.6 0 0 1 12.8-23.1zm70.7-51.5l-.7 1.1c-.6 1.2-1.2 3-2.8 2.2-1.4-.5-.5-2.1-.2-3.2.8-3.2.6-6.3.4-10-11.6 9-31.9 0-40.6-13a25.8 25.8 0 0 0-3.4 23c.3 1.2 1.3 2.3-.6 3-1.7.5-2.1-.7-2.7-1.8l-2.2-4.6a13 13 0 0 0-.3 8.2c1.1 5 7 6.6 7.8 12 .4 3 2.8 5.2 4.8 7.5 8.7 10.4 22.6 9.7 30.2-1.7a34.5 34.5 0 0 0 4.4-9.3c.3-1.2.6-2.8 1.5-3.2 4.4-2.1 3.8-6.5 4.4-10.2z"/><g class="cls-9"><ellipse class="cls-6" cx="338.5" cy="368.5" rx="55.5" ry="18.5"/></g><g class="cls-10"><ellipse class="cls-4" cx="435" cy="368.6" rx="58" ry="22.2"/></g><path class="cls-5" d="M338 360l-3.9 29 17-.5L344 354"/></svg>