<svg id="Layer_1" data-name="Layer 1" xmlns="http://www.w3.org/2000/svg" viewBox="0 0 106 142"><defs><style>.cls-1,.cls-3{fill:#62b2b2}.cls-2{fill:#fff}.cls-3{stroke:#62b2b2;stroke-miterlimit:10;stroke-width:.5px}</style></defs><title>doc</title><rect class="cls-1" x="4.8" y="5.5" width="96.7" height="131" rx="2.4" ry="2.4"/><path class="cls-2" d="M16.3 51.2v-4h73v4zm0 10.2v-4h44.4v4zm0-20.4v-4h73v4zM4.6 84.2h72.2L64.5 115H4.8l-.2-30.8z"/><path class="cls-3" d="M21.8 91.8a7.8 7.8 0 0 1 2.9 3 9.6 9.6 0 0 1 0 8.8 7.8 7.8 0 0 1-7 4.1h-6.3v-17h6.3a7.7 7.7 0 0 1 4 1zm-1.1 13a5.8 5.8 0 0 0 2-2.3 7.3 7.3 0 0 0 0-6.6 6 6 0 0 0-2-2.3 5.5 5.5 0 0 0-3-.8h-4.2v12.8h4.3a5.4 5.4 0 0 0 2.9-.8zM40 91.7a8.2 8.2 0 0 1 3 3 9 9 0 0 1 1 4.5 9.1 9.1 0 0 1-1 4.4 8.3 8.3 0 0 1-3 3.1 7.9 7.9 0 0 1-8.3 0 8.3 8.3 0 0 1-3-3.1 9.1 9.1 0 0 1-1-4.4 9 9 0 0 1 1-4.4 8.2 8.2 0 0 1 3-3.1 8 8 0 0 1 8.2 0zm-7 1.8a6.4 6.4 0 0 0-2.3 2.4 6.8 6.8 0 0 0-.8 3.3 6.8 6.8 0 0 0 .8 3.3 6.4 6.4 0 0 0 2.2 2.4 5.5 5.5 0 0 0 3 .9 5.3 5.3 0 0 0 3-1 6.4 6.4 0 0 0 2.2-2.3 6.9 6.9 0 0 0 .8-3.3 6.8 6.8 0 0 0-.8-3.3 6.3 6.3 0 0 0-2.2-2.4 5.4 5.4 0 0 0-3-.9 5.5 5.5 0 0 0-3 .9zm23.6-.3a5.5 5.5 0 0 0-5.4.3 6.2 6.2 0 0 0-2.2 2.3 7.2 7.2 0 0 0 0 6.6 6.2 6.2 0 0 0 2.2 2.4 5.5 5.5 0 0 0 3 .9 5.6 5.6 0 0 0 2.4-.6 7 7 0 0 0 2-1.4l1.4 1.5a8.6 8.6 0 0 1-2.7 2 7.5 7.5 0 0 1-7.2-.5 8.2 8.2 0 0 1-3-3.1 9.2 9.2 0 0 1-1-4.4 9 9 0 0 1 1-4.4 8.2 8.2 0 0 1 3-3.1A7.8 7.8 0 0 1 60 93l-1.3 1.7a6.4 6.4 0 0 0-2-1.6z"/></svg>