<svg id="Layer_1" data-name="Layer 1" xmlns="http://www.w3.org/2000/svg" viewBox="0 0 150 150"><defs><style>.cls-1{fill:#fff}.cls-2,.cls-3{fill:#273274}.cls-3{stroke:#273274;stroke-miterlimit:10;stroke-width:.5px}</style></defs><title>doc</title><circle class="cls-1" cx="75" cy="75" r="75"/><rect class="cls-2" x="48.5" y="39" width="53.1" height="72" rx="2.4" ry="2.4"/><path class="cls-1" d="M54.8 64.1V62H95v2.2zm0 5.6v-2.2h24.5v2.2zm0-11.2v-2.2H95v2.2zm-6.4 23.8H88l-6.8 16.9H48.5l-.1-17z"/><path class="cls-3" d="M57.9 86.4a4.3 4.3 0 0 1 1.5 1.7 5 5 0 0 1 .6 2.4 5 5 0 0 1-.6 2.4 4.3 4.3 0 0 1-3.8 2.3H52v-9.4h3.5a4.3 4.3 0 0 1 2.3.6zm-.7 7.2a3.2 3.2 0 0 0 1.2-1.3 4 4 0 0 0 0-3.6 3.3 3.3 0 0 0-1.2-1.3 3 3 0 0 0-1.6-.4h-2.3v7h2.3a3 3 0 0 0 1.6-.4zm10.6-7.2a4.5 4.5 0 0 1 1.7 1.7 5 5 0 0 1 .6 2.4 5 5 0 0 1-.6 2.4 4.5 4.5 0 0 1-1.6 1.7 4.3 4.3 0 0 1-4.6 0 4.5 4.5 0 0 1-1.6-1.7 5 5 0 0 1-.6-2.4 5 5 0 0 1 .6-2.4 4.5 4.5 0 0 1 1.6-1.7 4.4 4.4 0 0 1 4.6 0zm-3.8 1a3.5 3.5 0 0 0-1.3 1.3 3.7 3.7 0 0 0-.4 1.8 3.8 3.8 0 0 0 .4 1.8 3.5 3.5 0 0 0 1.3 1.3 3 3 0 0 0 1.6.5 3 3 0 0 0 1.7-.5 3.5 3.5 0 0 0 1.2-1.3 3.8 3.8 0 0 0 .4-1.8 3.8 3.8 0 0 0-.4-1.8 3.5 3.5 0 0 0-1.2-1.3 3 3 0 0 0-1.6-.5 3 3 0 0 0-1.7.5zm13-.2a3 3 0 0 0-3 .2 3.4 3.4 0 0 0-1.2 1.3 4 4 0 0 0 0 3.6 3.4 3.4 0 0 0 1.2 1.3 3 3 0 0 0 1.6.5 3 3 0 0 0 1.4-.3 3.8 3.8 0 0 0 1.1-.9l.7.9a4.8 4.8 0 0 1-1.5 1 4.1 4.1 0 0 1-4-.2 4.5 4.5 0 0 1-1.6-1.7 5 5 0 0 1-.6-2.4 5 5 0 0 1 .6-2.4 4.5 4.5 0 0 1 1.6-1.7 4.3 4.3 0 0 1 5.5.7l-.7 1a3.5 3.5 0 0 0-1.1-1z"/></svg>