<svg id="Layer_1" data-name="Layer 1" xmlns="http://www.w3.org/2000/svg" viewBox="0 0 150 150"><defs><style>.cls-1{fill:#fff}.cls-2,.cls-3{fill:#273274}.cls-3{stroke:#273274;stroke-miterlimit:10;stroke-width:2px}</style></defs><title>doc icons</title><circle class="cls-1" cx="75" cy="75" r="75"/><path class="cls-1" d="M54.8 64.1V62H95v2.2zm0 5.6v-2.2h24.5v2.2zm0-11.2v-2.2H95v2.2z"/><rect class="cls-2" x="51.1" y="42.5" width="48" height="65" rx="2.4" ry="2.4"/><path class="cls-1" d="M56.8 56.8v-2H93v2zm0 5v-2h22v2zm0-10.1v-2H93v2zm-5.8 23h43v22H51l-.1-22z"/><path class="cls-3" d="M61.8 80.2a5.8 5.8 0 0 1 2 2.3 8 8 0 0 1 0 6.8 5.9 5.9 0 0 1-2 2.3 5.3 5.3 0 0 1-3 .9h-4.4V79.3h4.5a5.2 5.2 0 0 1 3 .9zm-.8 10a4.4 4.4 0 0 0 1.5-1.8 6 6 0 0 0 0-5 4.5 4.5 0 0 0-1.5-1.8 3.7 3.7 0 0 0-2.1-.6h-3v9.9h3a3.7 3.7 0 0 0 2.1-.7zm14.8-10.1a6.2 6.2 0 0 1 2.2 2.4 7.4 7.4 0 0 1 .8 3.4 7.5 7.5 0 0 1-.8 3.4 6.2 6.2 0 0 1-2.1 2.4 5.3 5.3 0 0 1-5.9 0 6.2 6.2 0 0 1-2.1-2.4 7.5 7.5 0 0 1-.8-3.4 7.3 7.3 0 0 1 .8-3.4 6.2 6.2 0 0 1 2.1-2.4 5.3 5.3 0 0 1 5.9 0zm-5 1.4a4.8 4.8 0 0 0-1.6 1.8 5.5 5.5 0 0 0-.6 2.6 5.6 5.6 0 0 0 .6 2.5 4.8 4.8 0 0 0 1.6 1.9 3.7 3.7 0 0 0 2.1.7 3.6 3.6 0 0 0 2.1-.7 4.8 4.8 0 0 0 1.6-1.9A5.7 5.7 0 0 0 77 86a5.6 5.6 0 0 0-.5-2.5 4.8 4.8 0 0 0-1.6-1.9 3.7 3.7 0 0 0-2.1-.7 3.7 3.7 0 0 0-2.1.7zm17.9-.2a3.7 3.7 0 0 0-1.7-.5 3.7 3.7 0 0 0-2.1.7 4.7 4.7 0 0 0-1.6 1.8 6 6 0 0 0 0 5.1 4.7 4.7 0 0 0 1.6 1.8 3.7 3.7 0 0 0 2.1.7 3.8 3.8 0 0 0 1.7-.4 5 5 0 0 0 1.5-1.1l1 1.1a6.2 6.2 0 0 1-2 1.6 5 5 0 0 1-2.3.5 5 5 0 0 1-2.9-.9 6.2 6.2 0 0 1-2-2.4 7.6 7.6 0 0 1-.8-3.4 7.4 7.4 0 0 1 .8-3.4 6.1 6.1 0 0 1 2.1-2.4 5.2 5.2 0 0 1 5.2-.4 5.6 5.6 0 0 1 1.8 1.5l-.9 1.3a4.7 4.7 0 0 0-1.5-1.2z"/></svg>