<svg id="Layer_1" data-name="Layer 1" xmlns="http://www.w3.org/2000/svg" viewBox="0 0 101 135"><defs><style>.cls-1{fill:#fff}</style></defs><title>doc white</title><path class="cls-1" d="M96.5 2h-92a2.4 2.4 0 0 0-2.3 2.4v76.3h72L62 111.5H2.2v19.1a2.4 2.4 0 0 0 2.3 2.4h92a2.4 2.4 0 0 0 2.3-2.4V4.4A2.4 2.4 0 0 0 96.5 2zM58 57.9H13.7v-4H58zm28.7-10.2h-73v-4h73zm0-10.2h-73v-4h73z"/><path class="cls-1" d="M19.2 88.3a7.8 7.8 0 0 1 2.9 3 9.6 9.6 0 0 1-.1 8.7 7.8 7.8 0 0 1-7 4.2H8.8v-17H15a7.7 7.7 0 0 1 4 1zm-1.1 13a5.8 5.8 0 0 0 2-2.3 7.3 7.3 0 0 0 0-6.5A6 6 0 0 0 18 90a5.5 5.5 0 0 0-3-.8h-4V102h4.2a5.4 5.4 0 0 0 2.9-.8zm19.3-13.1a8.2 8.2 0 0 1 3 3 9 9 0 0 1 1 4.5 9.1 9.1 0 0 1-1 4.4 8.3 8.3 0 0 1-3 3.1 7.9 7.9 0 0 1-8.2 0 8.3 8.3 0 0 1-3-3.1 9.1 9.1 0 0 1-1.1-4.4 9 9 0 0 1 1-4.4 8.2 8.2 0 0 1 3-3.1 8 8 0 0 1 8.3 0zM30.3 90a6.4 6.4 0 0 0-2.2 2.4 6.8 6.8 0 0 0-.8 3.3A6.8 6.8 0 0 0 28 99a6.4 6.4 0 0 0 2.2 2.4 5.5 5.5 0 0 0 3 .9 5.3 5.3 0 0 0 3-.9 6.4 6.4 0 0 0 2.2-2.4 6.9 6.9 0 0 0 .8-3.3 6.8 6.8 0 0 0-.8-3.3 6.3 6.3 0 0 0-2.2-2.4 5.4 5.4 0 0 0-3-.9 5.5 5.5 0 0 0-3 .9zm23.7-.3a5.5 5.5 0 0 0-5.4.3 6.2 6.2 0 0 0-2.2 2.3 7.2 7.2 0 0 0 0 6.6 6.2 6.2 0 0 0 2.2 2.4 5.5 5.5 0 0 0 3 .9 5.6 5.6 0 0 0 2.4-.6 7 7 0 0 0 2-1.5l1.3 1.6a8.6 8.6 0 0 1-2.7 2 7.5 7.5 0 0 1-7.2-.5 8.2 8.2 0 0 1-2.9-3.1 9.2 9.2 0 0 1-1-4.4 9 9 0 0 1 1-4.4 8.2 8.2 0 0 1 3-3.1 7.8 7.8 0 0 1 9.8 1.4L56 91.3a6.4 6.4 0 0 0-2-1.6z"/></svg>