<svg id="Layer_1" xmlns="http://www.w3.org/2000/svg" viewBox="-575 33 48 48"><style>.st0{fill:#66637a}</style><title>forks</title><g id="Page-1"><g id="forks"><path id="Shape" class="st0" d="M-536.3 48.2c0-3.3-2.6-5.9-5.9-5.9a5.8 5.8 0 0 0-3 10.9v.8c0 1.5-.7 2.9-1.9 4a6.3 6.3 0 0 1-4 1.9c-2.4 0-4.4.5-5.9 1.3V47.4a5.8 5.8 0 0 0-3-10.9 5.8 5.8 0 0 0-3 10.9v19.2a5.8 5.8 0 0 0 3 10.9 5.8 5.8 0 0 0 4.3-9.9l1.8-1.4c.7-.3 1.7-.5 2.7-.5 3.1-.1 5.7-1.3 8-3.6s3.5-5.8 3.6-8.9c2.1-1 3.3-2.8 3.3-5zm-23.4-9.4c2 0 3.5 1.6 3.5 3.5s-1.6 3.5-3.5 3.5-3.5-1.6-3.5-3.5 1.6-3.5 3.5-3.5zm0 36.4c-2 0-3.5-1.6-3.5-3.5 0-2 1.6-3.5 3.5-3.5s3.5 1.6 3.5 3.5c.1 1.9-1.6 3.5-3.5 3.5zm17.6-23.4c-2 0-3.5-1.6-3.5-3.5s1.6-3.5 3.5-3.5c2 0 3.5 1.6 3.5 3.5s-1.6 3.5-3.5 3.5z"/></g></g></svg>