<svg id="Layer_1" data-name="Layer 1" xmlns="http://www.w3.org/2000/svg" viewBox="0 0 239 159"><defs><style>.cls-1{fill:#fff}</style></defs><title>new icons</title><path class="cls-1" d="M211.7 130.3a171.5 171.5 0 0 0-2.1-30c-2.1-12.7-5.5-25-11.7-36.3a59.2 59.2 0 0 0-42-30.6 162 162 0 0 0-39.2-3.3 164.8 164.8 0 0 0-53.3 11c-12.7 5-21.7 14-27.8 26.1a99.8 99.8 0 0 0-9.2 29.3 183.5 183.5 0 0 0-2.5 28.3c0 4.6.3 9.2.5 13.8v1.5c.2.9-.1 1.4-1.1 1.5s-1.7-.2-1.7-1.3l-.5-8.1a162.9 162.9 0 0 1 1-25c.6-5 1.5-10 2.3-15 .4-3-.4-4.7-3.3-6a23 23 0 0 1-9.5-7.6A21.5 21.5 0 0 1 9.2 59c2.7-8.5 9-13 17.6-14.5a22 22 0 0 1 9.2.6 23.6 23.6 0 0 0 19.5-3 81 81 0 0 1 32.4-11.3c7.3-1 14.7-2 22-2.8a152.2 152.2 0 0 1 29.4-.3 95 95 0 0 1 34.8 9.2 62.2 62.2 0 0 1 7.4 4.4 8.2 8.2 0 0 0 8.7.9 27.2 27.2 0 0 1 19.5-1A20 20 0 0 1 224 57.6c1.2 6.2.2 11.9-3.7 17a22.1 22.1 0 0 1-6.8 5.6c-2 1-3.5 2.5-3.8 4.9a9 9 0 0 0 .3 3.3 122 122 0 0 1 4.1 27l.7 24a8.2 8.2 0 0 1 0 1.1c-.2.8-.8 1.1-1.5 1.1a1.1 1.1 0 0 1-1.3-1.1l-.2-3.2v-7zM31.3 60.6a13 13 0 0 0 9.6-5.4c2.3-3 1-6.5-2.7-7.2a29.2 29.2 0 0 0-12.4-.2c-13 3-16.4 13.5-14.6 22.8 1.3 6.2 5.4 10.2 10.9 13a3 3 0 0 0 3.8-.9 7.5 7.5 0 0 0 1.4-2.3c1.3-3.6 1.3-7.1-.8-10.5a12.8 12.8 0 0 1-.9-1.8c-1.2-3 1.8-8.2 5.7-7.5zm169.3-17.9c-2.3-.2-5.1.7-8 1.6-2.4.7-3.4 2.6-2 4.8a12.7 12.7 0 0 0 9 6.3 2.3 2.3 0 0 0 .7 0c3.8-.7 5.8 1.3 7.2 4.6a3.6 3.6 0 0 1-.9 4.2 6.8 6.8 0 0 0-2.2 5.5 17 17 0 0 0 2.7 7.6 2.8 2.8 0 0 0 3 1.3 8.2 8.2 0 0 0 2.6-1 19.2 19.2 0 0 0 4.4-28.2c-4.1-4.9-9.6-6.6-16.5-6.7z"/><path class="cls-1" d="M179 77c0 8.3-2.6 15.7-9.5 20.8a29.7 29.7 0 0 1-36 1c-1.6-1.1-2.9-2.8-4.6-3.7s-1.9-3-3-4.3a19 19 0 0 1-2.4-4.9 29.8 29.8 0 0 1-1.5-5.3c-2.7-14.8 8.7-29 22.7-31.6a29 29 0 0 1 33.1 19.5 69 69 0 0 1 1.6 8.4zm-52.7-4.8l.4.2 3.6-2a11.8 11.8 0 0 1 7-1.6 9.6 9.6 0 0 1 8.4 11.1c-1.3 6.4-7.7 9.7-13.9 7.2a16.8 16.8 0 0 0-3.1-.5 15.2 15.2 0 0 0 5.6 8.2 27 27 0 0 0 29.2 2c8.6-5 12.4-12.6 11.7-22.3a22.9 22.9 0 0 0-10-17A24.8 24.8 0 0 0 127 68.9a21.9 21.9 0 0 0-.7 3.3zm-21.1 24.1l-1.6 1.4a29.6 29.6 0 0 1-39.4 3.5 27 27 0 0 1-3.7-40.5 27.3 27.3 0 0 1 16.3-9.1 29.8 29.8 0 0 1 15.5 2c6.6 2.6 12 6.6 15.3 13a27 27 0 0 1 .7 22.6l-2.3 5.2-.8 2zm-45.7-6.5L61 92a24.1 24.1 0 0 0 28.5 9.9A23 23 0 0 0 105.8 74c-1.7-8-7-13.6-14.4-17.2-4.3-2-9-2-13.5-1.2A23.6 23.6 0 0 0 59.6 69c-.7 1.4-1.2 3-1.8 4.4l.3.4a12.6 12.6 0 0 0 3-1A12 12 0 0 1 68 71c5.2.1 9.8 5.6 9 10.7-1.3 7.6-7.8 9.7-14.3 7.4a2.6 2.6 0 0 0-3 .6zm46.5 7.6a5 5 0 0 0 1.4-.4c5-3.1 10.2-3.3 15.7-2a8.7 8.7 0 0 1 4.9 3 2 2 0 0 1 .5 1.1c0 2.6 1.4 4.3 3.5 5.5 1.3.7 2.6 1.3 3.8 2.1a11 11 0 0 1 5 10.1c-.1 3.8-2.2 6-6 6.9l-1.1.2c-2.1.5-2.8 1.4-2.7 3.5l.3 7.7a5.3 5.3 0 0 1-3.6 5.5l-2.4.9a5.1 5.1 0 0 1-5.2-1.3c-1.3-1.2-2.6-1.1-4.2-.4a17.4 17.4 0 0 1-4.5 1.6c-3.7.6-6.8-2.1-7.1-6.4a22.2 22.2 0 0 1 .3-5.4c.6-3.4-.3-5.2-3.5-6.4l-1.1-.4c-5.2-1.8-7.2-6.6-4.7-11.4a18.5 18.5 0 0 1 4-4.7c2.5-2.2 5-4.3 6.2-7.5l.5-1.2a3.3 3.3 0 0 0 0-.6zm25 22.6l2-.1a4.3 4.3 0 0 0 3.8-4.6c-.4-5.2-6.4-8.8-11.2-6.7a19.6 19.6 0 0 1-10 2 51.9 51.9 0 0 1-8.1-1.6c-3.5-1-6.3 0-8 3-1.2 2.2-.9 4.5 1 6.7 1.4 1.7 3.1 2.1 5.5 1.3l4.4-1.8c5-1.9 10.1-2.2 15 .5a11.5 11.5 0 0 0 5.7 1.3zm-14.2 7v-3.7c0-2.2-1.6-3.3-3.5-2.3a22.5 22.5 0 0 0-3.5 2.2 5.7 5.7 0 0 0-2.5 4.2 61.6 61.6 0 0 0 .2 8.3 3.2 3.2 0 0 0 3 3 4.6 4.6 0 0 0 5.2-3.2c1-2.7 1-5.6 1-8.5zm2.8 2h-.3c.3 2.3.5 4.6 1 7 .2 1.7 1.7 2.6 3.6 2.7 2.3 0 3.8-.8 4.2-2.4a19 19 0 0 0-.1-10.9 5.5 5.5 0 0 0-5.5-4c-1.9 0-2.9.9-3 2.5v5.1z"/></svg>