<svg id="Layer_1" data-name="Layer 1" xmlns="http://www.w3.org/2000/svg" viewBox="0 0 560 115"><defs><style>.cls-1{fill:#273274}</style></defs><title>hack titile big</title><path class="cls-1" d="M30.1 8.4a16.7 16.7 0 0 1 3.3 1.8 5.7 5.7 0 0 1 1.3 7A6 6 0 0 1 23.4 15a6 6 0 0 1 4-6.2l1-.4zm-.7 4a2 2 0 0 0-2 2 2.1 2.1 0 0 0 2 2 2 2 0 0 0 2-2 2 2 0 0 0-2-2zM137 72c.5.6.7 1-.1 1.5-3 1.7-6 2.9-9.6 2.3-3-.4-4.6-2.1-4.7-5.2V52.1H111v15.4c0 7.5-4 13-11.3 15.3a23.4 23.4 0 0 1-12.6.6 8.3 8.3 0 0 1-2.3-1 2.8 2.8 0 0 1-.3-4.6 1.3 1.3 0 0 1 2.1.3 1 1 0 0 1 .2.2c2 5.6 9.5 3.9 11.8.5A12.3 12.3 0 0 0 101 72V52h-5.4v-2.5h5.4V32c0-2-.5-2.5-2.4-2.3a13.3 13.3 0 0 0-8 3.7 4.8 4.8 0 0 0-1.6 4.3 2.2 2.2 0 0 0 3.4 1.8 3.8 3.8 0 0 0 1-.7c1.2-1.2 3-.5 3.5 1.2a4.7 4.7 0 0 1-4.1 6c-5 .6-8.2-3.1-7.2-8.3a10.7 10.7 0 0 1 4.8-7 23.9 23.9 0 0 1 17-3.6c2.9.4 3.8 1.7 3.8 4.6V48c0 1 .3 1.3 1.3 1.3h9c1 0 1.2-.3 1.2-1.2V32.3a18.4 18.4 0 0 1 5.3-13 14.6 14.6 0 0 1 15.5-2.5c1.3.5 2.6 1.4 2.4 3.1a3.1 3.1 0 0 1-1.2 2c-.8.6-1.6 0-2.1-.8l-1.5-2c-1.8-2.2-5-2.1-6.3.4A13.2 13.2 0 0 0 133 25c-.3 8-.3 16-.3 23.9a2.2 2.2 0 0 0 0 .4h6V52h-6v18.2c0 2.5 1 3.2 3.3 2.3zm252.2-30.6h6.6v2.2H389v24.9a21.8 21.8 0 0 1-2.4 10.2c-2.6 5-7 7.6-12.5 8.3a17.8 17.8 0 0 1-7.4-.4 9.2 9.2 0 0 1-2-.8 2.6 2.6 0 0 1-.8-4.2c.9-1.3 2-1.3 2.8 0s1.8 3 3.7 3.4a6 6 0 0 0 6.6-3 16.4 16.4 0 0 0 2.2-7.3l.3-5.7V43.7h-5.2l-.8 4.3c0 .4-.4.6-.7 1a4 4 0 0 1-.6-.8 3 3 0 0 0-4-1.3 31.6 31.6 0 0 0-5.1 3.1c-.3.2-.4 1-.4 1.4v18.4c0 2.2-.7 3.1-2.9 3.5a11.2 11.2 0 0 1-3.4 0c-2.2-.4-3-1.5-3-3.8V47.1a7.7 7.7 0 0 0 0-1.2 1.9 1.9 0 0 0-3-1.5c-.6.3-.6.3-1-.4a12 12 0 0 1 9.4-3c2.2.4 3.7 2.2 4 4.7l.1 1.5.8-.9A43.4 43.4 0 0 1 368 42c2.1-1.6 4-1.4 6 .5l.2-1.1h5.5v-3.6c0-3.6.8-7 3.6-9.5a12.6 12.6 0 0 1 7.5-3.2 15.4 15.4 0 0 1 9.1 1.4 2.9 2.9 0 0 1 1.1 4.4c-.9 1.5-2 1.5-3 0a16.4 16.4 0 0 0-1.5-2.4 3.9 3.9 0 0 0-6.8 1.1 6.3 6.3 0 0 0-.5 2.2v9.6zM214 49a23.6 23.6 0 0 1 1.8-2.4 41 41 0 0 1 5-4.3 9 9 0 0 1 4-1.2c4.6-.6 7.2 3.7 6.6 7.5a12.1 12.1 0 0 1-5.7 8.5l-.8.5-.8.6 2.1 4.2a56.6 56.6 0 0 0 10.4 15.2 21.5 21.5 0 0 0 4.6 3.2 5.2 5.2 0 0 0 5.2.2l.6 1c-5.9 3.8-14.7 3-19.7-2a41.5 41.5 0 0 1-6-7.8c-2.5-4.3-4.6-8.8-6.8-13 2-1.9 3.8-3.5 5.4-5.2s3.2-4 3.2-6.7c0-.7-.3-1.7-.7-2a2.5 2.5 0 0 0-2.3.1 22.7 22.7 0 0 0-3.8 4 26.8 26.8 0 0 0-2.3 4.3 4.2 4.2 0 0 0-.3 1.7v14.3c0 2.2-.7 3.1-2.9 3.5a11.5 11.5 0 0 1-3.8 0c-2-.3-2.8-1.4-2.8-3.4V31c0-2.6-.8-3.1-3.2-2.4-.2.1-.5-.1-1-.3 3.2-2.6 6.6-3.8 10.5-3a3.7 3.7 0 0 1 3 3.5 13.1 13.1 0 0 1 .2 1.7v18.3zm85.2-5.4a30.4 30.4 0 0 1 4-2c4.8-1.7 9.5.2 12.1 4.7a21.3 21.3 0 0 1 2.4 11.6 18.4 18.4 0 0 1-2.4 9 12.8 12.8 0 0 1-11.1 6.5 15 15 0 0 1-7.8-1.5c-3.9-2-5.6-5.5-6.3-9.6a28.4 28.4 0 0 1-.3-4.3V30.5c-.2-2-1.2-2.7-3.1-2a2 2 0 0 1-.8 0c0-.3.1-.6.3-.8a12 12 0 0 1 8.8-2.6c2.6.3 4.1 2 4.1 4.8v13.7zm0 11.1v4a25.9 25.9 0 0 0 1.8 10c1.2 2.5 4 2.4 5.4 0a8.3 8.3 0 0 0 1-2.4 40 40 0 0 0 .2-14.9 21.4 21.4 0 0 0-1.8-5.2 2.8 2.8 0 0 0-2.5-1.6 4.2 4.2 0 0 0-4.1 4.3v5.8zM170.6 68.4l.6.6c-2 3-4.7 4.7-8.4 4.4-2.2-.2-3.5-1.5-4.7-4.5l-1 1a10.2 10.2 0 0 1-8.8 3.5 7.3 7.3 0 0 1-6.6-7c-.4-4.4 1.3-7.7 5.3-9.7 2.4-1.2 5-2 7.5-3.1a5.4 5.4 0 0 0 3.4-6.2 4.4 4.4 0 0 0-3.7-3.8 6.1 6.1 0 0 0-5.5 1.3c-.9.8-.8 1.5.3 2 1.3.5 2.4 1.1 2.1 2.8a3.1 3.1 0 0 1-2.2 2.5 3.7 3.7 0 0 1-4-1.3 5.2 5.2 0 0 1 .2-6 10.3 10.3 0 0 1 3.6-2.7 17.6 17.6 0 0 1 12.7-.2c4 1.4 6 4.4 6 8.6v16.8a5.6 5.6 0 0 0 0 1.2 1.2 1.2 0 0 0 2 .8 11.4 11.4 0 0 0 1.2-1zM157.9 61v-3.8c0-1.2-.6-1.9-1.9-1.8a4.5 4.5 0 0 0-3.9 2.2 10.8 10.8 0 0 0-.6 9.7 2.6 2.6 0 0 0 4.3 1.2 4.7 4.7 0 0 0 2-4V61zm98.5-3.8c0-4.1.9-8 3.6-11.3 3.8-4.6 8.9-5.7 14.5-4.5s8.8 5.2 10 10.6a20.6 20.6 0 0 1-1.1 12.8 13.5 13.5 0 0 1-13.8 8.6 13.6 13.6 0 0 1-12.2-9.6 15 15 0 0 1-.6-2.5l-.4-4zm9.5-1c.1 3 0 5.2.4 7.2a17.8 17.8 0 0 0 1.7 5.4 3 3 0 0 0 5.4 0 10.3 10.3 0 0 0 1.3-3.3 45 45 0 0 0 .3-14.8 14.6 14.6 0 0 0-1.7-5.2 3 3 0 0 0-5.3 0 7.7 7.7 0 0 0-1.3 3c-.4 2.8-.6 5.7-.8 7.7zm82.8 10.7c-5.8 8.7-19.6 8.7-24.7-.1-5-8.5-2.2-22.8 11.5-25.6a13 13 0 0 1 7.3.6c2.1.8 3.8 2.1 4 4.5s-1 4.2-3 5.4l-11 6.5a1.6 1.6 0 0 0-1 1.9A11.7 11.7 0 0 0 337 68c3.3 2.1 6.8 1.7 10.4-1.2.5-.5 1-.8 1.4 0zm-17.3-10.6l7-4.1a2.1 2.1 0 0 0 .8-1.4 7.9 7.9 0 0 0-.8-5 2.7 2.7 0 0 0-4.7-.6 6.1 6.1 0 0 0-1 1.8c-1.2 2.9-1.3 6-1.3 9.3zM423 67a15 15 0 0 1-14.3 6.3A14 14 0 0 1 396.1 59c-.2-6.6 2.2-12 7.9-15.5a15.4 15.4 0 0 1 11.6-2.2 9.3 9.3 0 0 1 1.8.6c2 .9 3.6 2.3 3.8 4.6s-1.1 4-3 5c-3 2-6.2 3.8-9.3 5.6l-1.3.8c-1.8 1-2 1-1.3 3a16.4 16.4 0 0 0 1.6 3.7c3 4.8 8.8 6.5 13.6 2.3.4-.4 1-1.1 1.6 0zm-17.3-10.7l7-4.2a1.7 1.7 0 0 0 .7-1 7 7 0 0 0-1.2-6 2.4 2.4 0 0 0-3.6-.5 5.2 5.2 0 0 0-1.4 1.7 23.3 23.3 0 0 0-1.5 10zm45.4-12.7H448c-.4-2-.4-2 1.3-2.4a11.8 11.8 0 0 0 8.8-8c.4-1.1.5-1.2 2.6-.8v8.9h6.7c.3 0 .5-.5.8-.7l-.6-.6a1.7 1.7 0 0 1-1.3-2 1.6 1.6 0 0 1 1.6-1.4 2 2 0 0 1 2.2 1.3 4 4 0 0 1-2.9 5.5 21.6 21.6 0 0 1-3 .2h-3.4v22.9a4.4 4.4 0 0 0 .4 2 2.2 2.2 0 0 0 3.2.4 23 23 0 0 0 2-2 5 5 0 0 1 1.1-.6c-1.7 5.3-6 7.9-11 6.9a6.2 6.2 0 0 1-5.3-6.4V45z"/><path class="cls-1" d="M238.2 43.6h-3.5v-1.9a45.5 45.5 0 0 0 5-2 10.6 10.6 0 0 0 5-6c.7-1.7.8-1.7 2.9-1.3V40c0 1 .2 1.5 1.3 1.4h4a5.6 5.6 0 0 0 1.6-.2c.3 0 .4-.4.6-.6l-.5-.6c-1-.3-1.6-1-1.4-2a1.7 1.7 0 0 1 1.8-1.5 2 2 0 0 1 2.1 1.6 4 4 0 0 1-3.2 5.3 18.6 18.6 0 0 1-2.4.2h-3.9v22.1a9.6 9.6 0 0 0 .2 1.5 2.3 2.3 0 0 0 4 1.5c.6-.5 1-1.2 1.5-1.8a4.5 4.5 0 0 1 1.2-.5c-1.7 5.6-7.5 8.5-12.5 6.4a6 6 0 0 1-3.8-6V45.1zm-37.7 23.3a15.3 15.3 0 0 1-15.8 6.2A13.6 13.6 0 0 1 174 61.5a16.9 16.9 0 0 1 13.4-20.3 12.5 12.5 0 0 1 7.8.8c3 1.4 4.2 4.3 3.2 7.2a3.4 3.4 0 0 1-4 2.4 3.1 3.1 0 0 1-2.6-3.5l.2-2.1c0-1.5-.6-2.2-2-2.1-2.4 0-4 1.5-5 3.4a13.1 13.1 0 0 0-1.8 7.4 34.4 34.4 0 0 0 1.2 7.9c1.1 3.8 3.6 6.4 8 6.7a9.7 9.7 0 0 0 6.7-2.5c.8-.6.8-.6 1.5 0zm223.7.8l.9-.7 1.7 1.5a6.7 6.7 0 0 0 5.7 1.4c3.1-.7 4.6-3.5 2.8-6.3a64.5 64.5 0 0 0-4.4-5.4 46.8 46.8 0 0 1-4-5.1c-3.2-5.3-.9-10.5 5.1-11.8a14.2 14.2 0 0 1 8.5.7 5.2 5.2 0 0 1 3.5 4.4 3 3 0 0 1-1.2 3 3.2 3.2 0 0 1-3.4.1 1.9 1.9 0 0 1 0-3.2 9.8 9.8 0 0 0 1.1-1.3 6.8 6.8 0 0 0-1.6-1.4 4 4 0 0 0-4.6 1 3.7 3.7 0 0 0 .5 4.7c1.5 1.7 3.1 3.2 4.7 4.8a53.3 53.3 0 0 1 4.4 5.1 8.8 8.8 0 0 1-5.5 13.8 13.1 13.1 0 0 1-13.5-4.3 7.4 7.4 0 0 1-.5-.6 2 2 0 0 1-.2-.4zm56.8 6.6h47.3v17h-3.9V78.2h-42c-1.2 0-1.6-.4-1.5-1.6a20.4 20.4 0 0 0 .1-2.3zM27.8 38.8V22.9c0-1 .3-1.3 1.2-1.2s1.8 0 2.8 0V35h42.9v3.8zM481 58.2h57.4V62h-56.1c-1 0-1.4-.1-1.3-1.2a25.3 25.3 0 0 0 0-2.6zM17.8 54.9v-3.7h57.7v3.6zM46 69.2h29.2v3.9H49.8v19.6H46zm435-25.3V40h25.3V20.5h3.8v23.4zm45 62.7a5.9 5.9 0 0 1-6-6 6 6 0 1 1 12 0 5.9 5.9 0 0 1-6 6zm0-8a2 2 0 0 0-2 2 2 2 0 1 0 4 .1 2 2 0 0 0-2-2zm-474.1 2.6a4 4 0 0 1-8 .1 4 4 0 1 1 8-.1zm500.5-41.6a3.8 3.8 0 0 1-4 4 4 4 0 1 1 0-7.9 3.8 3.8 0 0 1 4 4zM15 53.4a3.6 3.6 0 0 1-3.6 3.8 3.6 3.6 0 0 1-3.8-3.7 3.7 3.7 0 1 1 7.4-.1zm-1.9 0a1.9 1.9 0 1 0-3.7 0 1.9 1.9 0 0 0 1.8 1.8 1.8 1.8 0 0 0 2-1.8zM505 14.5a3.7 3.7 0 1 1 3.8 3.9 3.7 3.7 0 0 1-3.8-3.9zm3.7-1.8a2 2 0 0 0-1.8 1.9 1.9 1.9 0 1 0 3.7 0 2 2 0 0 0-2-1.9z"/></svg>