<svg id="Layer_1" data-name="Layer 1" xmlns="http://www.w3.org/2000/svg" viewBox="0 0 264 297"><defs><style>.cls-1,.cls-2,.cls-3,.cls-4{fill:#f04f25}.cls-1{stroke:#f04f25;stroke-width:.5px}.cls-1,.cls-3{stroke-miterlimit:10}.cls-2{font-size:30.18px;font-family:Montserrat-Medium,Montserrat}.cls-3{stroke:#fff9f8;stroke-width:3.5px}</style></defs><title>new icons</title><path class="cls-1" d="M178 196.6a11.3 11.3 0 0 1-2.8 7.2.9.9 0 0 0-.1 1 11.9 11.9 0 0 1-6.2 14.7 1.1 1.1 0 0 0-.7 1 11.4 11.4 0 0 1-5.4 8.4l-.7.5-1.1.4-.3.2-2.3.4-.5.1a13.4 13.4 0 0 1-3.5-.3.7.7 0 0 0-.9.4 11.9 11.9 0 0 1-6.7 4.6l-.4.1-2.3.2h-1.5l-.5-.1a.6.6 0 0 0-.5-.2 18.1 18.1 0 0 1-3.5-1.7l-.2-.1a10.2 10.2 0 0 1-3.6-7.4v-72a12 12 0 0 1 16.2-11.6 12 12 0 0 1 5.6 4.1c.2.3.3.5.7.5a11.5 11.5 0 0 1 6 1.8l1.5 1.1a22.5 22.5 0 0 1 2.2 2.8l.2.4a13 13 0 0 1 1.2 5.6.7.7 0 0 0 .5.7 10 10 0 0 1 5.7 8.5 9.4 9.4 0 0 1-.6 4.1.7.7 0 0 0 .2.9 12.8 12.8 0 0 1 2.4 16.4.8.8 0 0 0 0 1 11.2 11.2 0 0 1 1.8 4.2zm-34-4h-5.6c-.5-.1-.7 0-.7.6v10.5c0 .5.2.7.7.7H151a14.7 14.7 0 0 1 2.3.6 11 11 0 0 1 5.2 4.1l.2.4.2.3.1.3.2.5a11.9 11.9 0 0 1 .7 3c0 .5.3.9.1 1.4v.3a.3.3 0 0 0-.1.1 2 2 0 0 1-1.9 1c-1-.5-1.4-.9-1.5-2a6.8 6.8 0 0 0-6.6-6.6h-11.6c-.6-.1-.5.3-.5.7v16.7a1.8 1.8 0 0 0 .2 1 5.2 5.2 0 0 0 1 2.8c.1.2-.1.7.3.7l.3.2.1.1a1.4 1.4 0 0 0 .8.7 3.8 3.8 0 0 0 1.9 1 5.7 5.7 0 0 0 4.3-.2l.5-.1a7.5 7.5 0 0 0 3.2-2.3c.3-.3.4-.5-.1-.8a11 11 0 0 1-3.1-3.5 12.1 12.1 0 0 1-1.4-7.6l.2-1v-.5a1.2 1.2 0 0 0 .4-.7l.3-.8.4-.3a1.9 1.9 0 0 1 2.2.2 1.8 1.8 0 0 1 .3 2.3v.3a7.9 7.9 0 1 0 15.3 2.3 2.6 2.6 0 0 1 .7-1.9l.6-.3.6-.1a7.8 7.8 0 0 0 .7-.3 8.4 8.4 0 0 0 4-11.6 1.7 1.7 0 0 1 .3-2.4 7.8 7.8 0 0 0 .7-11.4 1.8 1.8 0 0 1 0-2.6l.4-.5a9.4 9.4 0 0 0-5.8-14.7h-.4a6.2 6.2 0 0 0-2.3-.2 5.6 5.6 0 0 0-1.5.3 1 1 0 0 0-.7.2 2.4 2.4 0 0 0-1 .4 4 4 0 0 0-1.5 1 .7.7 0 0 0-.4.3 1.9 1.9 0 0 0-.9.8 1.2 1.2 0 0 0-.5.5 9.5 9.5 0 0 0-2.1 5.6 1.6 1.6 0 0 1-1.8 1.5 1.6 1.6 0 0 1-1.6-1.7 8.7 8.7 0 0 1 .1-1.6 13 13 0 0 1 5.6-8.7l.3-.2a16.2 16.2 0 0 1 3.5-1.4.7.7 0 0 0 .5-.2 24.4 24.4 0 0 1 4-.3l.7.2a10 10 0 0 1 2.6.7c.6.2.7 0 .8-.5a6.8 6.8 0 0 0-4.4-7.9c-1.6-.5-2-1-1.7-2.7a5 5 0 0 0 0-2.3 4.8 4.8 0 0 0-.7-2.2c-.5-.7-.6-1.7-1.6-2 .1-.2 0-.3-.2-.3a5.6 5.6 0 0 0-2.8-1.7.9.9 0 0 0-.7-.2l-.4-.1a7.5 7.5 0 0 0-8 3.7c-.8 1.2-1.6 1.7-3 1.2 0-.3-.3-.5-.5-.8a2.6 2.6 0 0 1 .2-2 1.8 1.8 0 0 0 .6-.7 11.5 11.5 0 0 1 4.8-4c.5-.3.4-.4 0-.8a8.4 8.4 0 0 0-6.9-2 7.8 7.8 0 0 0-5.8 3.8l-.3.4-.1.1a.4.4 0 0 0-.1.4 2.2 2.2 0 0 0-.6 1.3 6.3 6.3 0 0 0-.4 2.5v6.7c0 .3-.2.6.1.8h5.8a1.8 1.8 0 1 1 0 3.5H138c-.3.3-.1.7-.1 1v22.1c0 .4-.2.8.1 1.2h18a7 7 0 0 0 7.2-6.8 1.7 1.7 0 1 1 3.5.2 10.4 10.4 0 0 1-2.3 6.2l-.4.6c-.2 0-.4.2-.5.4a.2.2 0 0 0 0 .2l-1.4.9a24.6 24.6 0 0 1-2.5 1.3h-.6a.8.8 0 0 0-.7.3h-.3a33 33 0 0 1-3.7 0H144z"/><path class="cls-1" d="M139.7 176.4a7.2 7.2 0 0 0 .4-1.5l.7-1.3.3-.5.1-.2c.3-.4 1-.4 1-1a7.3 7.3 0 0 1 3.4-1.4h1.5a1.7 1.7 0 0 1 1.1 1.8 1.8 1.8 0 0 1-1.3 1.6c-.4 0-.7-.2-1 0a2.5 2.5 0 0 0-1.7 1 .6.6 0 0 0-.3.4v.2c-.7.3-.6 1-.6 1.5a3.2 3.2 0 0 0 3 3.6c.8 0 1.5.2 1.9 1.1a1.7 1.7 0 0 1-1.6 2.4 6.8 6.8 0 0 1-6.8-6.4v-1.2zm1.3 20.9a3 3 0 0 1 1.5-.4h10.1c1.3 0 2 .7 2 1.7a1.8 1.8 0 0 1-2 1.8h-10.3a1.8 1.8 0 0 1-1.8-1 1.8 1.8 0 0 1 .4-2.1zm10-32.6a1.8 1.8 0 1 1-.2-3.5 3.7 3.7 0 0 0 3.6-3.6 1.7 1.7 0 1 1 3.5 0 7.2 7.2 0 0 1-7 7zm7.4 32.5l.5-.3c.4.1.7-.3 1 0l1.7.3c3.1 1.2 5 3.6 5 6.6 0 1.2-.6 2-1.5 2-1.2 0-1.9-.5-2-1.8a3.6 3.6 0 0 0-2.6-3.4 3 3 0 0 0-.8-.2 1.8 1.8 0 0 1-1.8-1.1 1.8 1.8 0 0 1 .5-2zM87 192.1a1.5 1.5 0 0 0 0-.1 6.8 6.8 0 0 0 1.2-2.4c0-.7-.7-1.5-1-2.3a12.8 12.8 0 0 1 3-14.1 1.5 1.5 0 0 0 .5-1.8 10.2 10.2 0 0 1 5-12 1.1 1.1 0 0 0 .7-1.2 11.6 11.6 0 0 1 1.5-5.7 16 16 0 0 1 3.4-3.7 11.8 11.8 0 0 1 6.3-2c.4 0 .5-.2.7-.4a12 12 0 0 1 21.7 7v71.3a10.5 10.5 0 0 1-3.1 8l-.6.6a17.3 17.3 0 0 1-3 1.7h-.3c-.4.2-.8 0-1 .5h-.4a.7.7 0 0 0-.8 0h-1.4a.6.6 0 0 0-.5-.1h-.6a14.5 14.5 0 0 1-4-1.5 12.5 12.5 0 0 1-3.5-3.3.8.8 0 0 0-1-.4 13.5 13.5 0 0 1-3 .3h-.4a.5.5 0 0 0-.5 0l-2.1-.5a.4.4 0 0 0-.4-.1c-.3-.3-.8-.3-1.2-.5a.8.8 0 0 0-.6-.3 16 16 0 0 1-3.5-3.2 11.2 11.2 0 0 1-2.1-5.3 1.3 1.3 0 0 0-.8-1.1 11.7 11.7 0 0 1-6.7-11.3 9.7 9.7 0 0 1 .6-3.3 1 1 0 0 0-.2-1.1 11.3 11.3 0 0 1-2.7-6.4v-2.3c.2-.5 0-1 .3-1.5zm36.9.5h-16.4c-.4-.2-.8 0-1.2-.1h-.3a14 14 0 0 1-3.3-1.2l-.7-.5-.2-.2-1-.6c0-.4-.4-.6-.7-.8s-.4-.6-.6-1a9.6 9.6 0 0 1-1.9-5.5c0-1.3.6-2 1.6-2a1.7 1.7 0 0 1 1.8 1.7 9.8 9.8 0 0 0 .5 2.3c.8 2.5 3.4 4.4 5.3 4.4h19c.5 0 .7-.1.6-.6a15.2 15.2 0 0 1 0-2.7V170a.2.2 0 0 0 0-.2v-4.4c0-.6-.3-.6-.7-.6h-5.3a1.8 1.8 0 1 1 0-3.5h5.3c.5 0 .7-.1.6-.7V155a8.5 8.5 0 0 0-.6-4.5.7.7 0 0 0-.2-.5c0-.2-.1-.3-.3-.3a.4.4 0 0 0 0-.2.8.8 0 0 0-.3-.5 3.8 3.8 0 0 0-.3-.5 8.6 8.6 0 0 0-8.3-3 8.1 8.1 0 0 0-4.1 2c-.3.2-.5.4 0 .6a11.6 11.6 0 0 1 5.4 5 2 2 0 0 1 0 2.1c-1.2 1-2.3.9-3-.5a7.7 7.7 0 0 0-7.8-4h-.3a5.8 5.8 0 0 0-2.7 1 2.6 2.6 0 0 0-1 .7 3 3 0 0 0-1 .9l-.8 1.1-.4.7a5.9 5.9 0 0 0-.6 1.5v.7a5.6 5.6 0 0 0 0 2.7 1.7 1.7 0 0 1-1.4 2.2l-.7.3a6.8 6.8 0 0 0-4 7.7c0 .5.3.6.7.4a12.4 12.4 0 0 1 3-.7h4.3a15.7 15.7 0 0 1 4.5 2l.5.3.8.8a12.7 12.7 0 0 1 4.4 8.7 1.9 1.9 0 0 1-.4 1.5 1.7 1.7 0 0 1-2 .6 1.7 1.7 0 0 1-1.1-1.8 9 9 0 0 0-2-5.2 4.6 4.6 0 0 0-1-1l-.2-.2a.7.7 0 0 0-.5-.3 8.8 8.8 0 0 0-6.7-2l-.5.1a9.4 9.4 0 0 0-6.2 14.7c1.1 1.6 1.2 2 0 3.4a8 8 0 0 0 .8 10.8 1.9 1.9 0 0 1 .5 2.8 8.4 8.4 0 0 0 5.2 11.8l1 .5c.6 1 .3 2 .5 3a8 8 0 0 0 7.8 6.6 7.7 7.7 0 0 0 7.8-6.2 8 8 0 0 0-.4-4.7 1.7 1.7 0 0 1 .3-2 1.8 1.8 0 0 1 2-.3c.4.1.5.6.9.8l.4 1.5a1.7 1.7 0 0 0 .3.8 2 2 0 0 0 .1 1 12.6 12.6 0 0 1-.6 5 11.2 11.2 0 0 1-4 5.3c-.4.4-.5.6 0 1a8.2 8.2 0 0 0 3.4 2.4c.2.2.5.1.7.1a.8.8 0 0 0 .7.2 5.1 5.1 0 0 0 3.5-.3 6.2 6.2 0 0 0 2.1-1.4c.2 0 .2-.2.2-.3a.5.5 0 0 0 .4-.3.6.6 0 0 0 .2-.5 4.4 4.4 0 0 0 1.1-3 4 4 0 0 0 .1-.7v-8.8a5 5 0 0 0-.1-.7v-.5a29 29 0 0 0 0-5.3.2.2 0 0 0 0-.2v-.7c-.2-.4.6-1.3-.6-1.3h-11.4a6.7 6.7 0 0 0-6.6 6.5 2 2 0 0 1-1.4 2l-1.2-.1-.8-1V213l.7-2.3.1-.2c.2-.2.2-.5.3-.7a.7.7 0 0 0 .3-.5v-.2l1.2-1.3a10.4 10.4 0 0 1 8.3-3.5h10.4c.6 0 .8-.1.8-.8v-10c0-.8-.2-1-1-.8z"/><path class="cls-1" d="M117.2 170.5h2.1a10 10 0 0 1 2.9 1.6 2.3 2.3 0 0 0 .7.6l.3.5.2.3.3.4a7.9 7.9 0 0 1 .7 4.7 6.8 6.8 0 0 1-6.7 5.5 1.6 1.6 0 0 1-1.7-1.5 1.6 1.6 0 0 1 1.4-2 5.4 5.4 0 0 0 1.8-.4 3.2 3.2 0 0 0 1.8-3.1 3.4 3.4 0 0 0-3.8-3.2 1.7 1.7 0 0 1-1.2-1.7 1.7 1.7 0 0 1 1.2-1.7zm.8 26.4h4.8l.3.2c.1 0 .2.2.4.1l.2.5a1.7 1.7 0 0 1-1.4 2.6h-11.1a1.7 1.7 0 0 1-1.6-1.8 1.7 1.7 0 0 1 1.7-1.7h6.7zm-11.7-39.1a1.7 1.7 0 0 1 1.7-2c1 0 1.7.6 1.8 1.8a3.7 3.7 0 0 0 3.6 3.5 1.7 1.7 0 0 1 1.8 1.9 1.7 1.7 0 0 1-2 1.6 7.2 7.2 0 0 1-6.9-6.8zm-5 39.9h.2l.8-.4a3 3 0 0 0 1.2-.4h.3c.7 0 1.4-.1 2 .4a1.8 1.8 0 0 1 .5 2 1.8 1.8 0 0 1-1.7 1 3.6 3.6 0 0 0-3.5 3.5c-.2 1.4-.7 2-1.8 2a1.6 1.6 0 0 1-1.7-1.8 7 7 0 0 1 3.7-6.3z"/><text class="cls-2" transform="translate(80 80.7)">.YML</text><path class="cls-3" d="M131.6 258.8H61.9c-3 0-5.2-1.4-7.1-3.4-2.5-2.6-3.4-6-3.6-9.5-.5-6.7-.3-13.5-.2-20.2.4-50.4 0-100.8 0-151.2V54a22.8 22.8 0 0 1 1.2-8 12.6 12.6 0 0 1 6.8-7 4 4 0 0 1 1.8-.3h113a1.8 1.8 0 0 1 1.7.9c1 1.8 2.6 3.1 4 4.6L190 55.5l16 17.7c1.3 1.4 2.7 2.8 4 4.4a10.5 10.5 0 0 1 2.2 6.6l.2 43v117c0 3.6-.5 7.1-2.8 10a9.8 9.8 0 0 1-8.4 4.6h-69.6zm-74-110v96.6a6.5 6.5 0 0 0 5.2 6.6 14.8 14.8 0 0 0 3.5.4c9.8-.2 19.6-.2 29.4-.2 25 0 50-.3 74.9.1 8.5.2 17 0 25.5 0a21.8 21.8 0 0 0 4-.2 6.1 6.1 0 0 0 5-3.9 11.4 11.4 0 0 0 .9-4.2l-.2-14.1V86.4c0-1.6 0-1.6-1.6-1.6H176a24.5 24.5 0 0 1-3.2-.3 3 3 0 0 1-2.9-2.8 19.4 19.4 0 0 1-.3-3V47c0-.7-.1-1.3-1-1.3-2.2-.2-4.5-.5-6.7-.5H64.5c-3.4 0-5.8 1.7-6.6 4.6a13.2 13.2 0 0 0-.4 3.3l.1 95.8zM176.8 51a5.8 5.8 0 0 0-.1.7v25.1c0 1 .4 1.2 1.2 1.1h22.8c.2 0 .5.2.8-.2z"/><path class="cls-4" d="M129 108.9H82.5c-3 0-6.2-.1-6.3-2.4 0-2.4 3.2-2.5 6.4-2.5h94c3 0 6.2 0 6.3 2.3 0 2.5-3.2 2.6-6.4 2.6H129zm.5 10.4h47c3.2 0 6.5.2 6.4 2.6-.1 2.3-3.3 2.4-6.3 2.4h-94c-3.2 0-6.5-.2-6.4-2.6.2-2.2 3.2-2.4 6.3-2.4h47z"/></svg>