<svg id="Layer_1" data-name="Layer 1" xmlns="http://www.w3.org/2000/svg" viewBox="0 0 250 250"><defs><style>.cls-1,.cls-2{fill:#f79537}.cls-1{stroke:#f79537;stroke-miterlimit:10;stroke-width:.5px}.cls-2{font-size:22.86px;font-family:Montserrat-Medium,Montserrat}.cls-3{fill:#313333}</style></defs><title>new icons</title><path class="cls-1" d="M165.8 165a8.6 8.6 0 0 1-2 5.5.7.7 0 0 0-.2.8 9 9 0 0 1-4.6 11.1.8.8 0 0 0-.6.8 8.6 8.6 0 0 1-4 6.3l-.6.3-.8.3-.3.2-1.7.3-.3.1a10.2 10.2 0 0 1-2.7-.2.5.5 0 0 0-.7.3 9 9 0 0 1-5.1 3.5h-.3l-1.7.2h-1.5a.5.5 0 0 0-.4-.2 13.8 13.8 0 0 1-2.7-1.3v-.1a7.8 7.8 0 0 1-2.8-5.6v-54.6A9.1 9.1 0 0 1 145 124a9 9 0 0 1 4.2 3.1c.2.2.3.3.6.3a8.7 8.7 0 0 1 4.5 1.4l1.2.9a17 17 0 0 1 1.6 2l.2.4a9.8 9.8 0 0 1 1 4.2.5.5 0 0 0 .3.6 7.6 7.6 0 0 1 4.3 6.4 7 7 0 0 1-.5 3.1.5.5 0 0 0 .2.7 9.7 9.7 0 0 1 1.8 12.4.6.6 0 0 0 0 .8 8.4 8.4 0 0 1 1.3 3.2zm-25.8-3h-4.2c-.4 0-.5 0-.5.5v8c0 .3.1.5.5.5h9.5a11.1 11.1 0 0 1 1.8.4 8.3 8.3 0 0 1 3.9 3.1l.1.3.2.2v.3l.2.4a9 9 0 0 1 .6 2.2v1l-.1.3a1.5 1.5 0 0 1-1.4.8c-.8-.3-1-.7-1.1-1.5a5.1 5.1 0 0 0-5-5h-8.8c-.5 0-.3.3-.3.5v12.7a1.4 1.4 0 0 0 0 .7 4 4 0 0 0 .8 2.2c.1.1 0 .5.3.5l.2.1v.1a1 1 0 0 0 .7.5 2.9 2.9 0 0 0 1.4.8 4.3 4.3 0 0 0 3.3-.1c.1 0 .3 0 .3-.2a5.7 5.7 0 0 0 2.4-1.7c.3-.2.3-.4 0-.6a8.3 8.3 0 0 1-2.4-2.6 9.2 9.2 0 0 1-1-5.8l.1-.8v-.3a1 1 0 0 0 .3-.6l.2-.6.3-.2a1.4 1.4 0 0 1 1.7.1 1.4 1.4 0 0 1 .2 1.8v.2a6 6 0 1 0 11.6 1.8 2 2 0 0 1 .6-1.4l.4-.3h.4a5.9 5.9 0 0 0 .6-.3 6.4 6.4 0 0 0 3-8.8 1.3 1.3 0 0 1 .3-1.8 6 6 0 0 0 .5-8.6 1.4 1.4 0 0 1 0-2l.3-.3a7.1 7.1 0 0 0-4.4-11.2h-.3a4.7 4.7 0 0 0-1.8-.1 4.2 4.2 0 0 0-1.1.2.8.8 0 0 0-.5.1 1.8 1.8 0 0 0-.8.3 3 3 0 0 0-1.2.7.5.5 0 0 0-.3.3 1.4 1.4 0 0 0-.6.6 1 1 0 0 0-.4.4 7.2 7.2 0 0 0-1.6 4.2 1.2 1.2 0 0 1-1.3 1.2 1.2 1.2 0 0 1-1.3-1.3 6.6 6.6 0 0 1 .1-1.2 9.8 9.8 0 0 1 4.2-6.6l.3-.2a12.3 12.3 0 0 1 2.6-1 .5.5 0 0 0 .4-.2 18.5 18.5 0 0 1 3-.2l.6.1a7.5 7.5 0 0 1 2 .5c.4.3.5 0 .6-.3a5.1 5.1 0 0 0-3.4-6c-1.2-.4-1.4-.8-1.2-2a3.7 3.7 0 0 0 0-1.8 3.6 3.6 0 0 0-.5-1.7c-.4-.5-.5-1.3-1.3-1.5.1-.2 0-.2-.1-.3a4.2 4.2 0 0 0-2.2-1.2.7.7 0 0 0-.5-.2h-.2a5.7 5.7 0 0 0-6.1 2.7 1.7 1.7 0 0 1-2.3 1c0-.3-.3-.4-.4-.6a2 2 0 0 1 .2-1.5 1.4 1.4 0 0 0 .4-.6 8.7 8.7 0 0 1 3.6-3c.5-.2.3-.3 0-.6a6.3 6.3 0 0 0-5.2-1.5 5.9 5.9 0 0 0-4.4 3l-.2.2h-.1a.3.3 0 0 0-.1.3 1.7 1.7 0 0 0-.4 1 4.8 4.8 0 0 0-.4 2v5l.1.6h4.4a1.3 1.3 0 1 1 0 2.6h-4.4c-.2.3 0 .5 0 .8v16.8c0 .3-.2.6 0 .9h13.8a5.2 5.2 0 0 0 5.4-5.2 1.3 1.3 0 1 1 2.6.1 8 8 0 0 1-1.7 4.8l-.3.4c-.2 0-.3.2-.4.4l-1 .7a18.7 18.7 0 0 1-2 1l-.5.1a.6.6 0 0 0-.5.2h-.2a25 25 0 0 1-2.8 0H140z"/><path class="cls-1" d="M136.8 149.8a5.4 5.4 0 0 0 .3-1.2l.5-1 .3-.3v-.2c.3-.3.8-.3.8-.7a5.5 5.5 0 0 1 2.6-1.1h1.1a1.3 1.3 0 0 1 .9 1.4 1.3 1.3 0 0 1-1 1.2c-.3 0-.6-.1-.8 0a1.9 1.9 0 0 0-1.2.7.4.4 0 0 0-.3.4c-.5.4-.5.8-.5 1.3a2.5 2.5 0 0 0 2.3 2.6c.6.1 1.2.3 1.4 1a1.3 1.3 0 0 1-1.2 1.7 5.1 5.1 0 0 1-5.1-4.8v-.9zm.9 15.8a2.2 2.2 0 0 1 1.2-.3h7.8c.9 0 1.5.5 1.5 1.3a1.4 1.4 0 0 1-1.5 1.3h-7.8a1.4 1.4 0 0 1-1.4-.7 1.4 1.4 0 0 1 .2-1.6zm7.6-24.7a1.3 1.3 0 1 1 0-2.7 2.8 2.8 0 0 0 2.7-2.7 1.3 1.3 0 1 1 2.6 0 5.5 5.5 0 0 1-5.3 5.4zm5.7 24.6l.4-.2c.2 0 .5-.2.7 0l1.3.2a5.4 5.4 0 0 1 3.8 5c0 1-.4 1.5-1.2 1.5s-1.4-.4-1.4-1.3a2.7 2.7 0 0 0-2-2.6 2.2 2.2 0 0 0-.7-.1 1.4 1.4 0 0 1-1.3-1 1.3 1.3 0 0 1 .4-1.5zm-54.1-3.8v-.1a5.2 5.2 0 0 0 1-1.8c0-.6-.6-1.2-.9-1.8a9.7 9.7 0 0 1 2.3-10.7 1.1 1.1 0 0 0 .3-1.4 7.7 7.7 0 0 1 3.8-9 .9.9 0 0 0 .6-.9 8.8 8.8 0 0 1 1.1-4.3 12.2 12.2 0 0 1 2.6-2.8 9 9 0 0 1 4.8-1.5c.3 0 .4-.2.5-.4a9.2 9.2 0 0 1 16.4 5.4v53.9a8 8 0 0 1-2.3 6.2l-.5.4a13.1 13.1 0 0 1-2.3 1.2h-.2c-.2.1-.6 0-.7.4h-.3a.6.6 0 0 0-.7 0h-1a.4.4 0 0 0-.4-.1h-.5a11 11 0 0 1-3-1.1 9.5 9.5 0 0 1-2.6-2.5.6.6 0 0 0-.8-.3 10.2 10.2 0 0 1-2.2.2h-.3a.4.4 0 0 0-.4 0l-1.6-.4a.3.3 0 0 0-.3 0c-.3-.3-.6-.3-1-.4a.6.6 0 0 0-.4-.3 12.1 12.1 0 0 1-2.6-2.4 8.5 8.5 0 0 1-1.6-4 1 1 0 0 0-.6-.8 8.9 8.9 0 0 1-5-8.5 7.3 7.3 0 0 1 .4-2.6.7.7 0 0 0-.1-.8 8.6 8.6 0 0 1-2-4.8v-1.8l.1-1.1zm28 .3h-12.5c-.2-.1-.5 0-.8 0h-.3a10.6 10.6 0 0 1-2.5-1l-.5-.3-.2-.2-.7-.5c-.1-.3-.4-.4-.6-.6l-.5-.7a7.3 7.3 0 0 1-1.3-4.2c0-1 .4-1.5 1.1-1.5a1.3 1.3 0 0 1 1.5 1.3 7.4 7.4 0 0 0 .3 1.8 5.1 5.1 0 0 0 4 3.3h14.4c.4 0 .5-.2.5-.5a11.5 11.5 0 0 1 0-2v-12a.2.2 0 0 0 0-.2v-3.3c0-.4-.2-.5-.6-.5h-4a1.3 1.3 0 1 1 0-2.6h4c.4 0 .6 0 .6-.5v-4.3a6.4 6.4 0 0 0-.5-3.5.5.5 0 0 0-.2-.3c0-.2 0-.3-.2-.3a.3.3 0 0 0 0-.1.6.6 0 0 0-.2-.4 2.9 2.9 0 0 0-.3-.4 6.5 6.5 0 0 0-6.3-2.3 6.1 6.1 0 0 0-3 1.5c-.3.2-.4.3 0 .5a8.8 8.8 0 0 1 4 3.8 1.6 1.6 0 0 1 0 1.6 1.4 1.4 0 0 1-2.3-.4 5.8 5.8 0 0 0-5.8-3h-.3a4.4 4.4 0 0 0-2 .7 2 2 0 0 0-.7.5 2.3 2.3 0 0 0-.8.7l-.6.8-.3.5a4.4 4.4 0 0 0-.4 1.2v.4a4.3 4.3 0 0 0 0 2 1.3 1.3 0 0 1-1 1.7l-.6.2a5.2 5.2 0 0 0-3 6c0 .3.2.4.6.2a9.4 9.4 0 0 1 2.2-.5h3.2a11.9 11.9 0 0 1 3.5 1.4l.3.3.7.6a9.6 9.6 0 0 1 3.3 6.6 1.4 1.4 0 0 1-.3 1 1.3 1.3 0 0 1-1.5.5 1.3 1.3 0 0 1-.9-1.3 6.8 6.8 0 0 0-1.5-4 3.5 3.5 0 0 0-.8-.8l-.1-.1a.5.5 0 0 0-.4-.3 6.7 6.7 0 0 0-5-1.4h-.4a7.1 7.1 0 0 0-4.7 11.3c.9 1.1.9 1.4 0 2.5a6 6 0 0 0 .7 8.2 1.4 1.4 0 0 1 .4 2 6.4 6.4 0 0 0 3.9 9l.7.5c.5.7.3 1.5.4 2.3a6 6 0 0 0 6 5 5.8 5.8 0 0 0 5.8-4.7 6.1 6.1 0 0 0-.3-3.5 1.3 1.3 0 0 1 .3-1.6 1.4 1.4 0 0 1 1.4-.2c.4 0 .5.4.7.6l.4 1.1a1.3 1.3 0 0 0 .1.6 1.5 1.5 0 0 0 .1.8 9.5 9.5 0 0 1-.4 3.8 8.5 8.5 0 0 1-3 4c-.4.3-.4.5-.1.8a6.2 6.2 0 0 0 2.4 1.9l.5.1a.6.6 0 0 0 .5.2 3.9 3.9 0 0 0 2.7-.3 4.7 4.7 0 0 0 1.6-1l.2-.2a.4.4 0 0 0 .2-.3.5.5 0 0 0 .2-.3 3.3 3.3 0 0 0 .8-2.3 3 3 0 0 0 .1-.5v-6.7a3.8 3.8 0 0 0 0-.6v-.3a22 22 0 0 0 0-4 .2.2 0 0 0 0-.2v-.5c-.2-.4.4-1-.5-1h-8.7a5 5 0 0 0-5 5 1.5 1.5 0 0 1-1 1.5l-1-.2-.6-.7v-1.7l.6-1.7v-.2c.2-.1.2-.3.3-.5a.5.5 0 0 0 .2-.4l.9-1a8 8 0 0 1 6.3-2.7h7.8c.5 0 .7-.1.7-.6v-7.6c0-.6-.2-.7-.7-.6z"/><path class="cls-1" d="M119.8 145.3h1.6a7.5 7.5 0 0 1 2.1 1.1 1.7 1.7 0 0 0 .6.6l.2.3.2.3.2.2a6 6 0 0 1 .5 3.6 5.2 5.2 0 0 1-5 4.2 1.3 1.3 0 0 1-1.3-1.2 1.2 1.2 0 0 1 1-1.4 4 4 0 0 0 1.5-.4 2.5 2.5 0 0 0 1.3-2.4 2.6 2.6 0 0 0-3-2.4 1.3 1.3 0 0 1-.8-1.3 1.3 1.3 0 0 1 .9-1.2zm.6 20h3.7l.2.1c.2 0 .1.2.3.1l.1.4a1.3 1.3 0 0 1-1 2h-8.5a1.3 1.3 0 0 1-1.2-1.4 1.3 1.3 0 0 1 1.3-1.3h5.1zm-8.9-29.7a1.3 1.3 0 0 1 1.3-1.4c.8 0 1.3.5 1.4 1.4a2.8 2.8 0 0 0 2.7 2.7 1.3 1.3 0 0 1 1.4 1.3 1.3 1.3 0 0 1-1.5 1.3 5.5 5.5 0 0 1-5.3-5.3zm-3.7 30.4v-.1l.7-.3a2.2 2.2 0 0 0 .9-.3h.2c.6 0 1.1 0 1.6.3a1.4 1.4 0 0 1 .3 1.6 1.4 1.4 0 0 1-1.3.8 2.7 2.7 0 0 0-2.6 2.5c-.2 1-.6 1.5-1.4 1.5a1.2 1.2 0 0 1-1.3-1.3 5.4 5.4 0 0 1 2.8-4.8z"/><text class="cls-2" transform="translate(91.6 77.2)">.YML</text><path class="cls-3" d="M130.9 211h-52a6.9 6.9 0 0 1-6.9-5 13.5 13.5 0 0 1-.7-3.7V66.8c0-3.7-.2-7.5 0-11.2 0-3.3 1.2-6.3 4.3-8a4.3 4.3 0 0 1 2-.5H162a1.8 1.8 0 0 1 1.6.8l6.1 6.8L188.4 75a8 8 0 0 1 2.2 5.7v28.4l.1 92.1c0 3-.5 5.6-2.6 7.8a6.1 6.1 0 0 1-4.6 1.9H167zm-57.4-82v73.8a6 6 0 0 0 4.7 5.6 17.5 17.5 0 0 0 3.8.4l25-.1h4.6l49.8.1h19.9c4.2 0 6.5-2 7-6.1a25.9 25.9 0 0 0 .2-3.7l-.2-27.8v-89c0-2.6-.3-3-3-3H165l-2.8-.2a1 1 0 0 1-1-1 22.4 22.4 0 0 1-.2-2.4V52c0-1.6-.7-2.3-2.2-2.4-2.3-.2-4.7-.4-7.1-.4h-72a6 6 0 0 0-6 5.1 12.9 12.9 0 0 0-.2 2.5V129zm90.7-77.1a34 34 0 0 0-.5 4v18.3c0 1.8.6 2.5 2.5 2.5h17.4a1.8 1.8 0 0 0 1.7-1.5c0-.3-.3-.8-.6-1.1l-15.5-16.8z"/><path class="cls-3" d="M128.7 98.6H93.5c-2.3 0-4.7 0-4.7-1.7-.1-1.9 2.4-2 4.8-2h71.2c2.3 0 4.7 0 4.7 1.8.1 1.9-2.4 2-4.8 2h-36zm.4 7.9h35.6c2.4 0 4.9.1 4.8 2s-2.5 1.8-4.7 1.8H93.6c-2.4 0-5 0-4.8-2 0-1.6 2.4-1.7 4.7-1.7h35.6z"/></svg>