<svg id="Layer_1" data-name="Layer 1" xmlns="http://www.w3.org/2000/svg" viewBox="0 0 690 687"><defs><style>.cls-1{fill:none}.cls-2{fill:#4a3736}.cls-3{fill:#4f2403}.cls-4{fill:#24605e}.cls-5{fill:#62b2b2}.cls-6{fill:#ff4b00}.cls-7{fill:#f8f7f5}.cls-8{fill:#e6ac92}.cls-9{fill:#fdbf5e}.cls-10{fill:#c68d77}.cls-11{fill:#654237}.cls-12{fill:#f85e51}.cls-13{fill:#ce957e}.cls-14{fill:#a3be92}.cls-15{fill:#dcb605}.cls-16{fill:#2d1515}.cls-17{fill:#d3e8f5}.cls-18{fill:#bf6b26}.cls-19{fill:#ef8813}.cls-20{fill:#7c9b62}.cls-21{fill:#25829f}.cls-22{fill:#060c0c}.cls-23{fill:#37a9bc}.cls-24{clip-path:url(#clip-path)}.cls-25{opacity:.8}.cls-26{clip-path:url(#clip-path-2)}.cls-27{fill:#273274}.cls-28{fill:#ff544e}</style><clipPath id="clip-path"><circle class="cls-1" cx="-365" cy="332.4" r="118.5"/></clipPath><clipPath id="clip-path-2"><path class="cls-1" d="M-642.9 269.2H34.9v184.3h-677.8z"/></clipPath></defs><title>landing hactober cafe</title><path class="cls-2" d="M213.8 427.8h2.8v6.2h7.2v-6.2h2.8v14.5h-2.8v-5.9h-7.2v6h-2.8zm25 4.8a6.2 6.2 0 0 1 1.3 4.3v.8h-8.2a3 3 0 0 0 3.2 2.5 4.2 4.2 0 0 0 1.6-.3 4 4 0 0 0 1.3-.9l1.5 1.5a5.6 5.6 0 0 1-2 1.4 6.8 6.8 0 0 1-2.7.5 6.2 6.2 0 0 1-3-.7 5 5 0 0 1-2-2 6.5 6.5 0 0 1 0-5.9 5 5 0 0 1 2-2 6 6 0 0 1 3-.7 5 5 0 0 1 4 1.5zm-1.2 3.3a2.7 2.7 0 0 0-.8-2 3.2 3.2 0 0 0-4 0 3.2 3.2 0 0 0-1 2zm7.7 9.9a3.8 3.8 0 0 1-2.3.7 4.3 4.3 0 0 1-1.5-.3 4.6 4.6 0 0 1-1.3-.7l1.2-2a3.5 3.5 0 0 0 .7.3 1.9 1.9 0 0 0 .7.2 1.7 1.7 0 0 0 1.6-1.1l.4-.8-4.6-10.9h2.8l3.2 8 2.9-8h2.7l-5 12.5a4.4 4.4 0 0 1-1.5 2zm9.9-5.8a1.5 1.5 0 0 1 .4 1 1.5 1.5 0 0 1-.4 1 1.4 1.4 0 0 1-1 .5 1.3 1.3 0 0 1-1-.4 1.5 1.5 0 0 1-.4-1.1 1.5 1.5 0 0 1 .4-1 1.4 1.4 0 0 1 1-.5 1.4 1.4 0 0 1 1 .4zm-2.3-12h2.6v3.5l-.5 6h-1.6l-.5-6zm12.6-1.1a1.6 1.6 0 0 1 .4 1.1 1.6 1.6 0 0 1-.4 1.2 1.6 1.6 0 0 1-2.2 0 1.6 1.6 0 0 1-.5-1.2 1.6 1.6 0 0 1 .5-1.1 1.6 1.6 0 0 1 2.2 0zm-2.5 4.3h2.7v11.1H263zm9.7-1.8a1.3 1.3 0 0 0-.4 1.1v1.1h2.8v2h-2.8v8.7h-2.7v-8.7H268v-2h1.5v-1a3.9 3.9 0 0 1 .5-2.1 3.5 3.5 0 0 1 1.5-1.3 4.5 4.5 0 0 1 2-.4 4.7 4.7 0 0 1 2 .4l-.5 2.2a3.9 3.9 0 0 0-1.4-.3 1.5 1.5 0 0 0-1 .3zm12.3 16.4a3.8 3.8 0 0 1-2.3.7 4.3 4.3 0 0 1-1.5-.3 4.6 4.6 0 0 1-1.3-.7l1.2-2a3.5 3.5 0 0 0 .7.3 1.9 1.9 0 0 0 .7.2 1.7 1.7 0 0 0 1.6-1.1l.4-.8-4.6-10.9h2.8l3.2 8 2.9-8h2.7l-5 12.5a4.4 4.4 0 0 1-1.5 2zm15.6-14a5.1 5.1 0 0 1 2 2 5.8 5.8 0 0 1 .8 3 5.9 5.9 0 0 1-.8 3 5 5 0 0 1-2 2 6.3 6.3 0 0 1-3 .7 6.5 6.5 0 0 1-3.1-.7 5 5 0 0 1-2-2 5.9 5.9 0 0 1-.8-3 5.8 5.8 0 0 1 .7-3 5 5 0 0 1 2.1-2 6.5 6.5 0 0 1 3-.7 6.4 6.4 0 0 1 3 .7zm-5.4 2.6a3.8 3.8 0 0 0 0 4.8 3 3 0 0 0 2.3 1 3 3 0 0 0 2.3-1 3.8 3.8 0 0 0 0-4.8 3 3 0 0 0-2.3-1 3 3 0 0 0-2.3 1zm20.8-3.2v11.1h-2.7v-2a4 4 0 0 1-3.9 2.1 3.9 3.9 0 0 1-3-1.1 4.3 4.3 0 0 1-1-3.1v-7h2.7v6.1a2.5 2.5 0 0 0 .6 1.9 2.3 2.3 0 0 0 1.7.6 2.6 2.6 0 0 0 2-.9 3.4 3.4 0 0 0 .8-2.3v-5.4zm15 11.1V441a3.7 3.7 0 0 1-1.5 1.1 5.5 5.5 0 0 1-2.1.4 4.5 4.5 0 0 1-2-.5 3.3 3.3 0 0 1-1.4-1.2 3.4 3.4 0 0 1-.4-1.8 3 3 0 0 1 1-2.4 5 5 0 0 1 3.2-1h3.2v-.2a1.9 1.9 0 0 0-.6-1.5 2.8 2.8 0 0 0-2-.6 6.4 6.4 0 0 0-3.2 1l-1-1.8a12.2 12.2 0 0 1 2.4-1 8.7 8.7 0 0 1 2.5-.4 5 5 0 0 1 3.3 1 3.7 3.7 0 0 1 1.3 3v7.2zm-1-2.5a2 2 0 0 0 1-1.4v-1h-3a3 3 0 0 0-1.6.4 1.1 1.1 0 0 0-.5 1 1.4 1.4 0 0 0 .6 1 2.3 2.3 0 0 0 1.4.5 3.5 3.5 0 0 0 2-.5zm11-8.1a4.5 4.5 0 0 1 2.2-.6v2.6a3.7 3.7 0 0 0-2.8.8 3 3 0 0 0-1 2.5v5.3h-2.6v-11.1h2.6v2.1a4 4 0 0 1 1.6-1.6zm12.7.9a6.2 6.2 0 0 1 1.4 4.3v.8h-8.2a3.1 3.1 0 0 0 3.1 2.5 4.2 4.2 0 0 0 1.7-.3 4 4 0 0 0 1.3-.9l1.4 1.5a5.6 5.6 0 0 1-2 1.4 6.8 6.8 0 0 1-2.6.5 6.2 6.2 0 0 1-3-.7 5 5 0 0 1-2-2 6.5 6.5 0 0 1 0-5.9 5 5 0 0 1 2-2 6 6 0 0 1 3-.7 5 5 0 0 1 4 1.5zm-1.1 3.3a2.7 2.7 0 0 0-.8-2 3.2 3.2 0 0 0-4 0 3.2 3.2 0 0 0-1 2zm12.4-9a1.6 1.6 0 0 1 .4 1.1 1.6 1.6 0 0 1-.5 1.2 1.6 1.6 0 0 1-2.2 0 1.6 1.6 0 0 1-.4-1.2 1.6 1.6 0 0 1 .4-1.1 1.6 1.6 0 0 1 2.2 0zm-2.5 4.3h2.7v11.1h-2.7zm15.7 1a4.3 4.3 0 0 1 1.1 3.2v7h-2.7v-6.2a2.5 2.5 0 0 0-.7-1.9 2.4 2.4 0 0 0-1.8-.7 2.7 2.7 0 0 0-2 1 3.4 3.4 0 0 0-.9 2.2v5.5h-2.7v-11.1h2.7v2a4.2 4.2 0 0 1 4-2.1 4 4 0 0 1 3 1.1zm19.5-3.5a3.1 3.1 0 0 1 1.3 2.7 3.2 3.2 0 0 1-2.5 3.2 3.8 3.8 0 0 1 2.2 1.3 3.7 3.7 0 0 1 .9 2.4 3.5 3.5 0 0 1-1.5 3 6.5 6.5 0 0 1-4 1h-6.6v-14.5h6.5a6.1 6.1 0 0 1 3.7 1zm-2.1 4.5a1.6 1.6 0 0 0 .6-1.3 1.5 1.5 0 0 0-.6-1.3 2.7 2.7 0 0 0-1.7-.4h-3.5v3.5h3.5a2.7 2.7 0 0 0 1.7-.5zm.4 6.2a1.7 1.7 0 0 0 .7-1.4 1.6 1.6 0 0 0-.7-1.4 3.6 3.6 0 0 0-2.1-.5h-3.5v3.8h3.5a3.5 3.5 0 0 0 2.1-.5zm12.8 2.9V441a3.6 3.6 0 0 1-1.5 1.1 5.5 5.5 0 0 1-2.1.4 4.5 4.5 0 0 1-2-.5 3.3 3.3 0 0 1-1.4-1.2 3.4 3.4 0 0 1-.5-1.8 3 3 0 0 1 1.1-2.4 5 5 0 0 1 3.1-1h3.3v-.2a1.9 1.9 0 0 0-.7-1.5 2.9 2.9 0 0 0-1.8-.6 6.4 6.4 0 0 0-3.3 1l-1-1.8a12.3 12.3 0 0 1 2.4-1 8.7 8.7 0 0 1 2.5-.4 5 5 0 0 1 3.3 1 3.7 3.7 0 0 1 1.2 3v7.2zm-1-2.5a2 2 0 0 0 1-1.4v-1h-2.9a3 3 0 0 0-1.6.4 1.1 1.1 0 0 0-.5 1 1.4 1.4 0 0 0 .5 1 2.3 2.3 0 0 0 1.5.5 3.5 3.5 0 0 0 2-.5zm16.4-7.6a4.3 4.3 0 0 1 1 3.2v7h-2.6v-6.2a2.5 2.5 0 0 0-.7-1.9 2.4 2.4 0 0 0-1.8-.7 2.7 2.7 0 0 0-2.1 1 3.4 3.4 0 0 0-.8 2.2v5.5h-2.7v-11.1h2.7v2a4.2 4.2 0 0 1 4-2.1 4 4 0 0 1 3 1.1zm14.3-1v10a5.2 5.2 0 0 1-.7 2.8 4.7 4.7 0 0 1-2 1.8 7 7 0 0 1-3.1.6 8.2 8.2 0 0 1-4.7-1.4l1-2a5.7 5.7 0 0 0 3.5 1.2 3.5 3.5 0 0 0 2.4-.8 2.6 2.6 0 0 0 1-2.1V440a3.7 3.7 0 0 1-1.5 1.3 4.6 4.6 0 0 1-2.1.5 4.9 4.9 0 0 1-2.6-.7 4.6 4.6 0 0 1-1.8-2 6 6 0 0 1-.6-2.7 5.9 5.9 0 0 1 .6-2.8 4.6 4.6 0 0 1 1.8-1.8 5 5 0 0 1 2.6-.7 4.5 4.5 0 0 1 2 .5 3.8 3.8 0 0 1 1.5 1.2v-1.6zm-3.5 7.6a3.6 3.6 0 0 0 0-4.6 3 3 0 0 0-4.3 0 3.5 3.5 0 0 0 0 4.5 3 3 0 0 0 4.3 0zm13.2 3.5V441a3.6 3.6 0 0 1-1.5 1.1 5.5 5.5 0 0 1-2 .4 4.5 4.5 0 0 1-2-.5 3.3 3.3 0 0 1-1.4-1.2 3.3 3.3 0 0 1-.5-1.8 3 3 0 0 1 1-2.4 5 5 0 0 1 3.2-1h3.2v-.2a1.9 1.9 0 0 0-.6-1.5 2.8 2.8 0 0 0-1.9-.6 6.4 6.4 0 0 0-3.3 1l-1-1.8a12.3 12.3 0 0 1 2.4-1 8.7 8.7 0 0 1 2.5-.4 5 5 0 0 1 3.4 1 3.7 3.7 0 0 1 1.2 3v7.2zm-1-2.5a2 2 0 0 0 1-1.4v-1h-2.8a3 3 0 0 0-1.6.4 1.1 1.1 0 0 0-.5 1 1.4 1.4 0 0 0 .5 1 2.3 2.3 0 0 0 1.5.5 3.5 3.5 0 0 0 2-.5zm6.8-12.9h2.7v15.4H454zm14.1 4.9a5.1 5.1 0 0 1 2 2 5.8 5.8 0 0 1 .8 3 5.9 5.9 0 0 1-.7 3 5 5 0 0 1-2.1 2 6.3 6.3 0 0 1-3 .7 6.5 6.5 0 0 1-3-.7 5 5 0 0 1-2.1-2 5.9 5.9 0 0 1-.8-3 5.8 5.8 0 0 1 .8-3 5 5 0 0 1 2-2 6.5 6.5 0 0 1 3.1-.7 6.4 6.4 0 0 1 3 .7zm-5.3 2.6a3.8 3.8 0 0 0 0 4.8 3 3 0 0 0 2.3 1 3 3 0 0 0 2.2-1 3.8 3.8 0 0 0 0-4.8 3 3 0 0 0-2.2-1 3 3 0 0 0-2.3 1zm14.7-2.7a4.5 4.5 0 0 1 2.2-.6v2.6a3.7 3.7 0 0 0-2.7.8 3 3 0 0 0-1 2.5v5.3h-2.7v-11.1h2.7v2.1a4 4 0 0 1 1.5-1.6zm12.8.9a6.2 6.2 0 0 1 1.3 4.3v.8h-8.2a3.1 3.1 0 0 0 3.2 2.5 4.2 4.2 0 0 0 1.6-.3 4 4 0 0 0 1.4-1l1.4 1.6a5.6 5.6 0 0 1-2 1.4 6.8 6.8 0 0 1-2.6.5 6.2 6.2 0 0 1-3-.7 5 5 0 0 1-2-2 6.5 6.5 0 0 1 0-5.9 5 5 0 0 1 2-2 6 6 0 0 1 2.9-.7 5 5 0 0 1 4 1.5zM489 436a2.7 2.7 0 0 0-.8-2 3.2 3.2 0 0 0-4 0 3.2 3.2 0 0 0-1 2zm6.6 4a1.4 1.4 0 0 1 .4 1 1.6 1.6 0 0 1 0 .6 5.5 5.5 0 0 1-.4.6l-1.3 2.5H493l.8-2.5a1.4 1.4 0 0 1-.6-1.2 1.4 1.4 0 0 1 .4-1 1.3 1.3 0 0 1 1-.4 1.4 1.4 0 0 1 1 .3zm-314.9 29.1a1.2 1.2 0 0 0 1-.4 2.2 2.2 0 0 0 .3-1.4v-11.2h2.7v11.6a3.7 3.7 0 0 1-1 2.7 3.4 3.4 0 0 1-2.5 1 5.7 5.7 0 0 1-2.1-.4l.5-2a3.4 3.4 0 0 0 1 .1zm3.8-17.3a1.6 1.6 0 0 1 .4 1.2 1.6 1.6 0 0 1-.4 1.1 1.6 1.6 0 0 1-2.2 0 1.6 1.6 0 0 1-.4-1.1 1.6 1.6 0 0 1 .4-1.2 1.6 1.6 0 0 1 2.2 0zm11.4 5a5.1 5.1 0 0 1 2 2 5.8 5.8 0 0 1 .8 2.9 5.9 5.9 0 0 1-.8 3 5 5 0 0 1-2 2 6.3 6.3 0 0 1-3 .7 6.5 6.5 0 0 1-3.1-.7 5 5 0 0 1-2-2 5.9 5.9 0 0 1-.8-3 5.8 5.8 0 0 1 .7-3 5 5 0 0 1 2-2 6.5 6.5 0 0 1 3.2-.6 6.4 6.4 0 0 1 3 .7zm-5.4 2.5a3.8 3.8 0 0 0 0 4.9 3 3 0 0 0 2.3.9 3 3 0 0 0 2.3-1 3.8 3.8 0 0 0 0-4.8 3 3 0 0 0-2.3-1 3 3 0 0 0-2.3 1zm12.9-7.5a1.6 1.6 0 0 1 .5 1.2 1.6 1.6 0 0 1-.5 1.1 1.6 1.6 0 0 1-2.2 0 1.6 1.6 0 0 1-.4-1.1 1.6 1.6 0 0 1 .4-1.2 1.6 1.6 0 0 1 2.3 0zm-2.4 4.3h2.7v11.2H201zm15.8 1.1a4.3 4.3 0 0 1 1 3.1v7h-2.7V461a2.5 2.5 0 0 0-.6-1.8 2.4 2.4 0 0 0-1.8-.7 2.7 2.7 0 0 0-2.1.9 3.4 3.4 0 0 0-.8 2.3v5.5H207V456h2.7v2.1a4.2 4.2 0 0 1 4-2.2 4 4 0 0 1 3 1.2zm15.7 9.4a5.3 5.3 0 0 1-2.8.8 3.3 3.3 0 0 1-2.3-.9 3.2 3.2 0 0 1-1-2.4v-5.5H225v-2h1.6v-3h2.7v3h3.1v2h-3.1v5a1.6 1.6 0 0 0 .3 1 1.1 1.1 0 0 0 .8.4 3.9 3.9 0 0 0 1.6-.5zm11.9-9.4a4.3 4.3 0 0 1 1.1 3.1v7h-2.7V461a2.5 2.5 0 0 0-.6-1.8 2.4 2.4 0 0 0-1.8-.7 2.8 2.8 0 0 0-2.2.9 3.3 3.3 0 0 0-.8 2.3v5.5h-2.7v-15.5h2.7v6.4a4.2 4.2 0 0 1 4-2.2 4 4 0 0 1 3 1.2zm12.8.4a6.2 6.2 0 0 1 1.4 4.2v.8h-8.2a3.1 3.1 0 0 0 3.1 2.6 4.2 4.2 0 0 0 1.7-.3 4 4 0 0 0 1.3-1l1.5 1.6a5.6 5.6 0 0 1-2 1.4 6.8 6.8 0 0 1-2.7.5 6.2 6.2 0 0 1-3-.7 5 5 0 0 1-2-2 6.5 6.5 0 0 1 0-6 5 5 0 0 1 2-2 6 6 0 0 1 3-.7 5 5 0 0 1 4 1.6zm-1.1 3.2a2.7 2.7 0 0 0-.8-2 3.2 3.2 0 0 0-4 0 3.2 3.2 0 0 0-1 2zm9.9-8.1h2.9v6.2h7.2v-6.2h2.8v14.6h-2.8v-6H269v6h-3zm23 14.6v-1.4a3.6 3.6 0 0 1-1.5 1.1 5.5 5.5 0 0 1-2.1.4 4.5 4.5 0 0 1-2-.5 3.3 3.3 0 0 1-1.4-1.2 3.3 3.3 0 0 1-.5-1.8 3 3 0 0 1 1.1-2.4 5 5 0 0 1 3.1-1h3.3v-.2a1.9 1.9 0 0 0-.6-1.5 2.8 2.8 0 0 0-2-.6 6.4 6.4 0 0 0-3.2 1l-1-1.8a12.3 12.3 0 0 1 2.4-1 8.7 8.7 0 0 1 2.4-.4 5 5 0 0 1 3.4 1 3.7 3.7 0 0 1 1.2 3v7.2zm-1-2.5a2 2 0 0 0 1-1.4v-1h-3a3 3 0 0 0-1.6.3 1.1 1.1 0 0 0-.5 1 1.4 1.4 0 0 0 .6 1.1 2.3 2.3 0 0 0 1.4.5 3.5 3.5 0 0 0 2-.6zm11.4-6.4a2.8 2.8 0 0 0-2.2 1 3.4 3.4 0 0 0-.8 2.3 3.4 3.4 0 0 0 .8 2.4 2.8 2.8 0 0 0 2.2 1 3.5 3.5 0 0 0 3-1.4l1.7 1.4a5 5 0 0 1-2 1.7 6.6 6.6 0 0 1-2.9.5 6 6 0 0 1-2.9-.7 5 5 0 0 1-2-2 6.5 6.5 0 0 1 0-5.9 5 5 0 0 1 2-2 6 6 0 0 1 3-.7 6.6 6.6 0 0 1 2.7.5 4.9 4.9 0 0 1 2 1.6l-1.7 1.5a3.8 3.8 0 0 0-2.9-1.2zm13.5 8.2a5.3 5.3 0 0 1-2.8.8 3.3 3.3 0 0 1-2.3-.9 3.2 3.2 0 0 1-1-2.4v-5.5h-1.5v-2h1.6v-3h2.6v3h3.2v2h-3.2v5a1.6 1.6 0 0 0 .3 1 1.1 1.1 0 0 0 1 .4 3.9 3.9 0 0 0 1.5-.5zm9.9-9.8a5.1 5.1 0 0 1 2 2 5.8 5.8 0 0 1 .8 2.9 5.9 5.9 0 0 1-.7 3 5 5 0 0 1-2 2 6.3 6.3 0 0 1-3 .7 6.5 6.5 0 0 1-3.2-.7 5 5 0 0 1-2-2 5.9 5.9 0 0 1-.8-3 5.8 5.8 0 0 1 .8-3 5 5 0 0 1 2-2 6.5 6.5 0 0 1 3.1-.6 6.4 6.4 0 0 1 3 .7zm-5.3 2.5a3.8 3.8 0 0 0 0 4.9 3 3 0 0 0 2.3.9 3 3 0 0 0 2.2-1 3.8 3.8 0 0 0 0-4.8 3 3 0 0 0-2.2-1 3 3 0 0 0-2.3 1zm19.8-2.5a4.8 4.8 0 0 1 1.8 2 6.5 6.5 0 0 1 .7 3 6.4 6.4 0 0 1-.7 2.9 4.8 4.8 0 0 1-1.8 2 5.3 5.3 0 0 1-2.7.7 4.8 4.8 0 0 1-2.2-.5 4.1 4.1 0 0 1-1.6-1.4v1.8H328v-15.5h2.7v6.2a4 4 0 0 1 1.5-1.4 4.7 4.7 0 0 1 2.2-.5 5.3 5.3 0 0 1 2.8.7zm-1.1 7.3a3.4 3.4 0 0 0 .8-2.4 3.4 3.4 0 0 0-.8-2.4 3.2 3.2 0 0 0-4.6 0 3.8 3.8 0 0 0 0 4.8 3 3 0 0 0 2.3 1 3 3 0 0 0 2.3-1zm14.6-6.5a6.2 6.2 0 0 1 1.3 4.2v.8h-8.2a3.1 3.1 0 0 0 3.2 2.6 4.2 4.2 0 0 0 1.6-.3 4 4 0 0 0 1.4-1l1.4 1.6a5.6 5.6 0 0 1-2 1.4 6.8 6.8 0 0 1-2.6.5 6.2 6.2 0 0 1-3-.7 5 5 0 0 1-2-2 6.5 6.5 0 0 1 0-6 5 5 0 0 1 2-2 6 6 0 0 1 2.9-.7 5 5 0 0 1 4 1.6zm-1.2 3.2a2.7 2.7 0 0 0-.8-2 3.2 3.2 0 0 0-4 0 3.2 3.2 0 0 0-1 2zm9-4.2a4.5 4.5 0 0 1 2.3-.6v2.7a3.7 3.7 0 0 0-2.8.8 3 3 0 0 0-1 2.4v5.4h-2.7V456h2.8v2.2a4 4 0 0 1 1.4-1.7zm7.8-2.2a1.3 1.3 0 0 0-.4 1v1.2h2.8v2H366v8.7h-2.7v-8.7h-1.4v-2h1.4v-1a3.9 3.9 0 0 1 .5-2.2 3.5 3.5 0 0 1 1.5-1.3 4.5 4.5 0 0 1 2-.4 4.7 4.7 0 0 1 2 .5l-.5 2.2a3.9 3.9 0 0 0-1.4-.4 1.5 1.5 0 0 0-1 .4zm12.4 3.2a6.2 6.2 0 0 1 1.4 4.2v.8h-8.3a3.1 3.1 0 0 0 3.2 2.6 4.2 4.2 0 0 0 1.7-.3 4 4 0 0 0 1.3-1l1.5 1.6a5.6 5.6 0 0 1-2 1.4 6.8 6.8 0 0 1-2.7.5 6.2 6.2 0 0 1-3-.7 5 5 0 0 1-2-2 6.5 6.5 0 0 1 0-6 5 5 0 0 1 2-2 6 6 0 0 1 3-.7 5 5 0 0 1 4 1.6zm-1.1 3.2a2.7 2.7 0 0 0-.8-2 3.2 3.2 0 0 0-4 0 3.2 3.2 0 0 0-1 2zm9.7-2.4a5.4 5.4 0 0 0-1.6-.3 2.1 2.1 0 0 0-1 .3.8.8 0 0 0-.5.7.9.9 0 0 0 .5.8 8.2 8.2 0 0 0 1.6.6 15.5 15.5 0 0 1 2 .7 3.6 3.6 0 0 1 1.2 1 2.7 2.7 0 0 1 .6 1.8 2.9 2.9 0 0 1-1.3 2.5 5.3 5.3 0 0 1-3.1.8 8 8 0 0 1-2.5-.4 6 6 0 0 1-2-1.1l.9-2a5.5 5.5 0 0 0 1.7 1 6 6 0 0 0 2 .4 2.4 2.4 0 0 0 1.2-.2.8.8 0 0 0 .5-.8 1 1 0 0 0-.5-.9 9.2 9.2 0 0 0-1.7-.6 14.2 14.2 0 0 1-1.8-.6 3.3 3.3 0 0 1-1.3-1 2.7 2.7 0 0 1-.5-1.8 2.9 2.9 0 0 1 1.2-2.5 5 5 0 0 1 3-.8 7.7 7.7 0 0 1 2.2.3 6.8 6.8 0 0 1 1.9.9l-1 2a8 8 0 0 0-1.7-.8zm11.6 8.2a5.3 5.3 0 0 1-2.8.8 3.3 3.3 0 0 1-2.3-.9 3.2 3.2 0 0 1-1-2.4v-5.5h-1.5v-2h1.6v-3h2.7v3h3.2v2h-3.2v5a1.6 1.6 0 0 0 .3 1 1.1 1.1 0 0 0 .8.4 3.9 3.9 0 0 0 1.6-.5zm13.8.7v-1.4a3.6 3.6 0 0 1-1.5 1.1 5.5 5.5 0 0 1-2.1.4 4.5 4.5 0 0 1-2-.5 3.3 3.3 0 0 1-1.4-1.2 3.3 3.3 0 0 1-.5-1.8 3 3 0 0 1 1.1-2.4 5 5 0 0 1 3.2-1h3.2v-.2a1.9 1.9 0 0 0-.6-1.5 2.8 2.8 0 0 0-1.9-.6 6.4 6.4 0 0 0-3.3 1l-1-1.8a12.3 12.3 0 0 1 2.4-1 8.7 8.7 0 0 1 2.5-.4 5 5 0 0 1 3.3 1 3.7 3.7 0 0 1 1.3 3v7.2zm-1-2.5a2 2 0 0 0 1-1.4v-1H410a3 3 0 0 0-1.6.3 1.1 1.1 0 0 0-.5 1 1.4 1.4 0 0 0 .5 1.1 2.3 2.3 0 0 0 1.5.5 3.5 3.5 0 0 0 2-.6zm11.4-6.4a2.9 2.9 0 0 0-2.2 1 3.4 3.4 0 0 0-.8 2.3 3.4 3.4 0 0 0 .8 2.4 2.8 2.8 0 0 0 2.2 1 3.5 3.5 0 0 0 3-1.4l1.7 1.4a5 5 0 0 1-2 1.7 6.6 6.6 0 0 1-2.8.5 6 6 0 0 1-3-.7 5 5 0 0 1-2-2 6.5 6.5 0 0 1 0-5.9 5 5 0 0 1 2-2 6 6 0 0 1 3-.7 6.6 6.6 0 0 1 2.7.5 4.9 4.9 0 0 1 2 1.6l-1.7 1.5a3.8 3.8 0 0 0-2.9-1.2zm13.5 8.2a5.3 5.3 0 0 1-2.8.8 3.3 3.3 0 0 1-2.3-.9 3.2 3.2 0 0 1-1-2.4v-5.5h-1.5v-2h1.6v-3h2.7v3h3.1v2h-3.1v5a1.6 1.6 0 0 0 .3 1 1.1 1.1 0 0 0 .8.4 3.9 3.9 0 0 0 1.6-.5zm4.6-14.8a1.6 1.6 0 0 1 .4 1.2 1.6 1.6 0 0 1-.4 1.1 1.6 1.6 0 0 1-2.2 0 1.6 1.6 0 0 1-.5-1.1 1.6 1.6 0 0 1 .5-1.2 1.6 1.6 0 0 1 2.2 0zm-2.5 4.3h2.7v11.1h-2.7zm4.4.1h2.8l3 8.4 2.8-8.4h2.7l-4.3 11h-2.7zm15.3-4.4a1.6 1.6 0 0 1 .4 1.2 1.6 1.6 0 0 1-.4 1.1 1.6 1.6 0 0 1-2.2 0 1.6 1.6 0 0 1-.5-1.1 1.6 1.6 0 0 1 .5-1.2 1.6 1.6 0 0 1 2.2 0zm-2.5 4.3h2.7v11.2H456zm12.6 10.5a5.3 5.3 0 0 1-2.8.8 3.3 3.3 0 0 1-2.4-.9 3.2 3.2 0 0 1-.9-2.4v-5.5H461v-2h1.6v-3h2.7v3h3.1v2h-3.1v5a1.6 1.6 0 0 0 .2 1 1.1 1.1 0 0 0 1 .4 3.9 3.9 0 0 0 1.5-.5zm4.5-14.8a1.6 1.6 0 0 1 .5 1.2 1.6 1.6 0 0 1-.5 1.1 1.6 1.6 0 0 1-2.2 0 1.6 1.6 0 0 1-.4-1.1 1.6 1.6 0 0 1 .4-1.2 1.6 1.6 0 0 1 2.2 0zm-2.4 4.3h2.7v11.1h-2.7zm14.7 1.5a6.2 6.2 0 0 1 1.3 4.2v.8h-8.2a3.1 3.1 0 0 0 3.2 2.6 4.2 4.2 0 0 0 1.6-.3 4 4 0 0 0 1.4-1l1.4 1.6a5.6 5.6 0 0 1-2 1.4 6.8 6.8 0 0 1-2.6.5 6.2 6.2 0 0 1-3-.7 5 5 0 0 1-2-2 6.5 6.5 0 0 1 0-6 5 5 0 0 1 2-2 6 6 0 0 1 3-.7 5 5 0 0 1 3.9 1.6zm-1.1 3.2a2.7 2.7 0 0 0-.8-2 3.2 3.2 0 0 0-4 0 3.2 3.2 0 0 0-1 2zm9.7-2.4a5.4 5.4 0 0 0-1.6-.3 2.1 2.1 0 0 0-1 .3.8.8 0 0 0-.5.7.9.9 0 0 0 .5.8 8.2 8.2 0 0 0 1.6.6 15.5 15.5 0 0 1 2 .7 3.6 3.6 0 0 1 1.2 1 2.7 2.7 0 0 1 .6 1.8 2.9 2.9 0 0 1-1.3 2.5 5.3 5.3 0 0 1-3.1.8 8 8 0 0 1-2.5-.4 6 6 0 0 1-2-1.1l.9-2a5.5 5.5 0 0 0 1.7 1 6 6 0 0 0 2 .4 2.4 2.4 0 0 0 1.2-.2.8.8 0 0 0 .5-.8 1 1 0 0 0-.5-.9 9.2 9.2 0 0 0-1.7-.6 14.2 14.2 0 0 1-1.8-.6 3.3 3.3 0 0 1-1.3-1 2.7 2.7 0 0 1-.5-1.8 2.9 2.9 0 0 1 1.2-2.5 5 5 0 0 1 3-.8 7.7 7.7 0 0 1 2.2.3 6.8 6.8 0 0 1 1.9.9l-1 2a8 8 0 0 0-1.7-.8zm16.7 8.9v-1.4a3.6 3.6 0 0 1-1.5 1.1 5.5 5.5 0 0 1-2 .4 4.5 4.5 0 0 1-2-.5 3.3 3.3 0 0 1-1.4-1.2 3.3 3.3 0 0 1-.5-1.8 3 3 0 0 1 1.1-2.4 5 5 0 0 1 3.1-1h3.3v-.2a1.9 1.9 0 0 0-.7-1.5 2.8 2.8 0 0 0-1.9-.6 6.4 6.4 0 0 0-3.2 1l-1-1.8a12.3 12.3 0 0 1 2.3-1 8.7 8.7 0 0 1 2.5-.4 5 5 0 0 1 3.4 1 3.7 3.7 0 0 1 1.2 3v7.2zm-1-2.5a2 2 0 0 0 1-1.4v-1h-2.8a3 3 0 0 0-1.6.3 1.1 1.1 0 0 0-.5 1 1.4 1.4 0 0 0 .5 1.1 2.3 2.3 0 0 0 1.4.5 3.5 3.5 0 0 0 2-.6zm13.3 1.8a5.3 5.3 0 0 1-2.8.8 3.3 3.3 0 0 1-2.4-.9 3.2 3.2 0 0 1-1-2.4v-5.5h-1.5v-2h1.6v-3h2.7v3h3.2v2h-3.2v5a1.6 1.6 0 0 0 .3 1 1.1 1.1 0 0 0 .9.4 3.9 3.9 0 0 0 1.5-.5z"/><path class="cls-3" d="M437.3 208.2l8.3 9s6.9-11 2.7-17.3v-.7zm14.5 20.1c1.5-3.8 6.9-12.3 7.5-16.3a53.3 53.3 0 0 0-1.6-23.9c3-3.5 5.2-7.4 5.6-12a1.6 1.6 0 0 1 1-1.3 44.6 44.6 0 0 1-.4 44 127.3 127.3 0 0 1-9.3 13c-1.3-.7-1.3-3.3-2.8-3.5zM384.3 344c.8-.9 2 .1 2.8-.3 2.5 2 4.7 4.6 7.4 6.5a42.9 42.9 0 0 0 30.6 6.6c1.4-.2 1-.7.5-1.5a16.3 16.3 0 0 1-3.8-8c-.2-1.6-.9-1.8-2.2-1.7a29.8 29.8 0 0 1-13-1.9c-4-1.7-8-3.8-10.3-7.9 3-2.5 5.4-5.7 8.6-8l16.5 15.5.7-5.8c-1.7.3-2.2 1.9-3.5 2.8.3-3.7 3.1-5.7 5-8.5-1.4 0-2 1.3-3.2 1.2a2.8 2.8 0 0 1 .9-1.6c2.4-3 5.8-5.1 8-8.4a6.6 6.6 0 0 1 3.7-2.7v.1l-1 2.6v.3l.2-.2 2.5-1.9a9 9 0 0 1 5.5-2.5c-1 1.3-2.6 1.7-2.6 3.5 8.1-2.2 14.6.6 20 6.7 3.9-8 6.2-15.9 4.9-24.5l3.5-.8a45.5 45.5 0 0 1-30 66.3 45.6 45.6 0 0 1-51.7-25.9zm-92.5 17.3l13.1-7-9.7-2-3.4 9z"/><path class="cls-3" d="M446.4 279.5s18.9 19 23.2 33l-14.3-4.5-12.3-18.8z"/><path class="cls-4" d="M236.7 252c-.6-39.2 72.2-110.5 111.4-110.3s114.6 72 110.4 110.9c-4.2 38.2-70.9 112-109.2 108.6-39-3.5-112-70-112.6-109.2z"/><path class="cls-3" d="M293.8 356.8l-1.3 4.3a52.1 52.1 0 0 1-19.2 5.8 45.5 45.5 0 1 1-27.4-84.2c2-1.3 4-2.7 6.5-3 .9.9-.3 1.1-.6 1.5a42.4 42.4 0 0 0-7.4 37.3 3.5 3.5 0 0 1-.6 1.7 19.2 19.2 0 0 0-.7 17c.7 1.7 1 2.4-1.5 2.6-4.2.4-5.5 2.7-4.2 6.6 2-2.2 2.3-2.2 4.2.4.7 1 1.4 2 2.2 2.8 2.8 3.3 5.2 3.4 8 0a1.7 1.7 0 0 1 2.4-.5 18.3 18.3 0 0 0 17.5-.7c.5-.2 1-.7 1.6-.4 6.4 4 13 7.6 20.5 8.8z"/><path class="cls-5" d="M244.4 318.5a42.3 42.3 0 0 1 7.4-37.3c.3-.4 1.5-.6.6-1.5 5.1-3.5 10-7.2 15.4-10.3l10-4.1c.9-.4 1.7-1 2.6-.3a23.6 23.6 0 0 0 3.6 9c0 1.2-.8 1.5-1.8 2a77.6 77.6 0 0 0-11.8 5.4 28.4 28.4 0 0 0-13 12.7l-1.1 2.2a32 32 0 0 0-1.5 15l-2.8.9c-3.4 1-5.3 4-7.6 6.3zM382 164.8c.6-2.2 2.8-2.9 4.3-4.2 1.3-1.2 3.3-1.6 4.1-3.4 1.3 0 2.3-.8 3.3-1.2a31.3 31.3 0 0 1 16-2.7l4.3 1.1c6.1 1.7 11.4 5.1 16.7 8.3-.4 1.3-1.5 2.2-2.3 3.3a21 21 0 0 0-4.3 11.3c-.3 9.3 9.9 18.8 19.6 18.4 5.9-.3 10.2-3.6 14-7.6a53.3 53.3 0 0 1 1.6 23.9c-.6 4-2.3 7.7-3.8 11.4-3.3 4.8-7 9.2-11.8 12.5a85 85 0 0 1-20.3 9.9 2 2 0 0 1-1.8 0c-1-3.1-1.6-6.4-3.4-9.2 0-1.3 1-1.5 2-1.8 2.6-1.1 5.5-1.8 8-3.5 13.5-3.5 24.1-21 20-31.9l-8 7.1c-1.1-.1-1.7-1-2.4-1.7L417.1 184a5.3 5.3 0 0 0-2-1.7l-.1-.6 8.3-8.4c.8-.8.6-1.2-.3-1.7a48.7 48.7 0 0 0-12-6 13.8 13.8 0 0 0-11.4.7c-3.5.7-6 3-8.7 5a3.8 3.8 0 0 1-2.6 1z"/><path class="cls-6" d="M433 320.3a6.6 6.6 0 0 0-3.7 2.7c-2.3 3.2-5.7 5.3-8 8.3a2.8 2.8 0 0 0-.9 1.6l-.3.4.2.2.2-.6c1.1.2 1.7-1 3.1-1.1-1.8 2.8-4.7 4.8-5 8.4 1.3-.9 1.8-2.4 3.6-2.7l-.8 5.7-13.2-12.4c.7-1.2 20.7-27.6 21.7-27.7l14.5 14.7c4 4.2 4.3 4 6-1.7 3.2-11-1.7-17.8-13.3-21.1-1-.9-2.3-1.1-3.5-1.7-.7-.3-1.6-.5-1.8-1.5 1.7-2.9 2.3-6.1 3-9.3 1.7-1.3 3.2.1 4.6.6a45.8 45.8 0 0 1 14.4 7.6 25.2 25.2 0 0 1 8.6 13.6c1.3 8.7-1 16.6-4.9 24.5-5.4-6.1-12-8.9-20-6.6 0-1.9 1.6-2.3 2.5-3.6a9 9 0 0 0-5.4 2.5l-2.5 2-.1-.2 1-2.6a.8.8 0 0 0 .8-.5v-.1.2a.9.9 0 0 0-.8.4z"/><path class="cls-7" d="M367.8 229.3c-1.2-5.5-3.3-10.8-5-16.3l-3.6-11.1c-.4-1.3-.3-1.9 1.1-2.3l20-6.4c1.3-.5 1.8 0 2.2 1.2 1.3 4.4 2.7 8.8 4.2 13a11 11 0 0 0 1.5 3.8 2.5 2.5 0 0 0 .7 1.7 3.8 3.8 0 0 0 .3 2.4l2.6 8c.6 1.6.2 2.3-1.4 2.8-2.8.8-5.5 1.8-8.3 2.8a63.6 63.6 0 0 0-9.7 3c-2.2.8-3.6.8-4.2-1.8zm17.5-13c-.1-.7.1-1.5-.8-1.7s-.8.9-1.4 1.2c-1.5.3-.7 2.5-2.3 2.7-.5 0-1.2 0-1.3-.6-.3-2.7-1.6-1.3-2.8-.8a2.7 2.7 0 0 0-2.2 1c-1.2 0-2.3-.2-3.2.8-.8.2-2.1-.4-2.3 1.3 1.1 0 1.6-.8 2.3-1.3 1.9.7 1.9 1.1 0 2.7-.5.2-1-1-1.7 0s.6.9.5 1.2c-.2 1.3 1.5 2.3 1 3.5s0 .8.6 1c2 .8 2.5-1.5 4-1.6.4 0 0-.4-.2-.6-.6-.4-1-1-.4-1.6s1.4.1 1.7.7c.6 1.3 1.2 2 2.4.5a1.3 1.3 0 0 1 1.6-.2.9.9 0 0 1 .2 1.3c-.4.6-.1.8.3 1s.8.3 1 0 .6-.7 0-1.2c-1-1-.8-2.2.6-2 1.6.2 2-.7 2.8-1.5.5-.3 1.8.8 1.6-.5-.3-1.9-.6-3.9-2-5.4zm-10.4-3.7v-.4l7.5-2.6c.5-.2 1.7-.1.7-1.2a1.3 1.3 0 0 0-.1-.4v-.8l-.6-.5c.4-1.3-.6-.8-1.1-.8v-.8c.2-.2.6-.3.6-.5.2-.6-.3-.6-.7-.5l-2.7.9-12.5 4c-.4.1-1 .1-.9.8l.8.2v.8a.6.6 0 0 0 0 1v1l.4.4v.6c0 .3 0 .6.4.8l.2.6c0 .3 0 .7.4.7a45 45 0 0 0 7.8-2.5c.5-.2.2-.6-.2-.8zm5.8-12.4c-.4-.8-.2-2.1-1.9-1.6l-14.3 4.7c-1 .3-1.4.7-1 1.8s.8 1.5 2 1l14-4.5c.7-.2 1.4-.4 1.2-1.4zm-18.2 1.3a96 96 0 0 0 16.7-5.5 89.6 89.6 0 0 0-16.7 5.4zm12.2 27.1c-1.1-.2-1.9-.3-2.3.6-.2.3-.1.7.2.8 1 0 1-1.2 2.1-1.4zm11.5-4c.7 0 1.5 1 2.1 0a1 1 0 0 0-.3-1c-.9-.2-1 1-1.9 1zm-9.4 3.4c-.1-.6-.5-.5-.8-.6-.6 0-.6.3-.6.7s.2.7.7.5a3 3 0 0 0 .7-.6zm3.7-11.8l.3-.2-.1-.1a2.2 2.2 0 0 0-.4 0z"/><path class="cls-3" d="M437.1 295c11.6 3.3 16.5 10.1 13.2 21.1-1.6 5.7-2 5.8-6 1.7L430 303.1c.8-2.1 2.7-3 4-4.7l3.2-3.4z"/><path class="cls-8" d="M428.8 290.3a16.6 16.6 0 0 0-8.8-.4c-2.6.5-5.3-.3-8-.7-.9-.2-1.2-.6-.7-1.4.7-1 0-1.4-.8-1.7l-6.2-2.2c-1.1-.3-2-1-1.5-2.2s1.5-1.1 2.5-.8l2.1.8c3.4 1.1 4 .8 5.3-2.6s2.6-3.9 6-2.7c3 1.1 6 1.9 8.4 4.3a4.6 4.6 0 0 0 4 1.1 4.8 4.8 0 0 1 3 .5c-3.5.3-3.5.3-4.1 3.9-.4 1.4-1.2 2.6-1.2 4zm-11.2-44.5a8.2 8.2 0 0 0-5.4 2c-2.6 2.2-6.2 2.1-9.2 3.3a1.4 1.4 0 0 1-1-.3c.3-2.5-3-1.7-3-3.2 0-1.1 0-1.5-1-2.2s-.8-1.7.5-2.1l3.3-.8h-6.1c-1.2.1-2.5.5-2.7-1s1.3-1.3 2.2-1.5c3.7-.6 7.4 0 11.4-1-1.3-.6-2.3-1-3.2-1.6s-1.9-1.2-1.3-2.4 1.6-.4 2.3-.1c2.9 1.2 6 2 8.7 3.6.7.4 1.4.5 1.9-.5a1 1 0 0 1 1.2-.6 3.6 3.6 0 0 0-.3 4.1c.7 1.4 1.2 2.9 1.7 4.3zm-35.4 56a13.4 13.4 0 0 0 1.4 9.3c-2-.7-3.6.6-5.4 1-2 .3-3.2 1.3-3 3.5-1.2-1.2-.4-2.7-.6-4-.5-3-3.2-4.5-4.3-7l-2.2-5.8c-.5-1.3-.2-2 1-2.8a25.4 25.4 0 0 0 6.3-4.9c1.1-1.3 2.2-.7 3.2 2z"/><path class="cls-9" d="M407.7 269a358 358 0 0 1 20.8-6.4l.5 2.3-20.8 6.3zm9.9-23.2c-.5-1.4-1-2.9-1.7-4.3a3.6 3.6 0 0 1 .4-4c.8 0 1.2-.8 2-1 1.7 3 2.4 6.1 3.3 9.3-1.3-.2-2.6 2-4 0zm11.2 44.5c0-1.5.8-2.7 1-4.1.6-3.6.7-3.6 4.1-3.9l.9.1c-.8 3.3-1.3 6.5-3 9.4l-2.4-.8-.5-.5a.6.6 0 0 1 0-.2z"/><path class="cls-10" d="M382.2 301.8l-3.6-8.8c1.6-.8 2.7-.3 3.5 1.3-.4 2.5 1.2 5 .1 7.5z"/><path class="cls-11" d="M429 264.9l-.5-2.3c.6-.6 1.4-.4 2.2-.4l.1 1.7a1.8 1.8 0 0 1-1.8 1z"/><path class="cls-8" d="M407.7 269l.5 2.2c-.8 0-1.8.5-2.1-.5s.7-1.5 1.6-1.7zm23.1-5l-.2-1.8c.8-.8 1.6-.5 1.8.4.3 1.3-.7 1.4-1.6 1.3z"/><path class="cls-11" d="M365.4 232.3l.4-.4zm.4-.4l.4-.4z"/><path class="cls-8" d="M429 290.5l.4.5z"/><path class="cls-11" d="M366.7 231l.4-.4z"/><path class="cls-3" d="M232.1 194.7a45.6 45.6 0 0 1 25.7-73.6 45.7 45.7 0 0 1 54 34.5 3.2 3.2 0 0 1 0 .7 23 23 0 0 1-5.6-3.6 29.5 29.5 0 0 0-10.7-5c-5.6-1.4-11.3-1-17-.7-3.9-12.3-23.5-17.2-33-5.6a6.4 6.4 0 0 1-1.3 1.2 16 16 0 0 0-7.4 16c1 7.8 4.2 14 12 16.9 1.5.6 3.2.8 4.7 1.3a45.6 45.6 0 0 0 3.3 14.3c1.4 3.5 3.5 6.5 5.1 9.7a37.7 37.7 0 0 0-6.2 6.1c-2.6 3.2-7.6 1.5-8.6-1.8a31.4 31.4 0 0 0-2-4.5c-2.2-4.2-5.5-6.4-10.3-6H232z"/><path class="cls-12" d="M278.6 147c5.6-.2 11.3-.7 16.9.8a29.5 29.5 0 0 1 10.7 5 23 23 0 0 0 5.6 3.5c1.8 2.1 2.3 5 3.9 7.2l2.5 4c.5 3.2 2.3 6 3 9a34 34 0 0 0 1.2 3.6c.3.8-.4 1-.7 1.5l-8 2a2.9 2.9 0 0 1-1-1.7c-1.4-4.4-2.8-8.8-5-12.8-1.8-3-3.5-5.8-6.6-7.4 0-1-.8-1.2-1.4-1.6a22.1 22.1 0 0 0-9.6-3.4 21.1 21.1 0 0 0-7 0l10.8 11.8c-3 3.5-6.5 6.6-9.7 10-1.2 1.2-2.8 2.2-3.5 4-2.3 1-3.6 3.2-5.4 4.8l-4.8 4.8a2 2 0 0 0-.3 3 88.7 88.7 0 0 0 8 9.8c.7.6 1.6 1.3 1 2.4-2.4 1.5-4 3.8-6 5.7-2.8-1.1-4.1-3.9-6-6s-3.5-4.1-5.1-6.2c-1.7-3.2-3.8-6.3-5.1-9.7a45.5 45.5 0 0 1-3.3-14.4h5.6A19.8 19.8 0 0 0 270 173a20 20 0 0 1 5.5-3 13 13 0 0 0 7.2-5.5c-3.2 0-5.2 2.8-8.4 2.3 2.4-2 4.9-3.5 6.3-6.4-1.4.3-2.4 1.3-4 1 3.6-4.6 3.4-9.5 2-14.5z"/><path class="cls-13" d="M303 262.2c-.1 1-.6 1.7.8 2.6 2 1.1-.3 1.8-1.3 2.9l4.5-.3c1 0 2 0 2 1.2s-.9 1.4-1.7 1.4l-8.5.7c-.8 0-1.8-.1-2.5.7.7 1 2 1 2.8 1.6a1.7 1.7 0 0 1 .9 2.3c-.5 1-1.3.5-2 .3-1.6-.6-3.2-1.5-5-1.7a20 20 0 0 1-3.5-1.6c-1.3-1-2-.5-2.9.6a9.8 9.8 0 0 0-.6-3.5c-.4-1.4-1.4-2.8-1.2-4.4a10.7 10.7 0 0 0 4.9-2.4c2.5-2.2 6-2.3 9-3.5.7-.2 1.6.3 1.4.9-1 2.5 1 1.4 2 1.7a4.3 4.3 0 0 1 .9.5z"/><path class="cls-14" d="M312 229l-1.2-1-18-17.4c-1-.9-.9-1.4 0-2.3l12-12.5c.8-.9 1.4-1 2.3 0l18.1 17.5c.9.8.9 1.3 0 2.1L313 228l-1 1zm-5.3-31.1c-.8 0-1.2.6-1.6 1-3 3.1-6 6.4-9.2 9.5-1.3 1.2-1 2 0 3q7.3 6.8 14.3 13.7c1 1 1.7.9 2.5 0 3.1-3.4 6.2-6.6 9.4-9.8 1.1-1.1 1-1.8 0-2.9-4.9-4.5-9.6-9.1-14.3-13.7l-1.2-.8z"/><path class="cls-15" d="M289.6 239l.7.1.5.5a1.3 1.3 0 0 1 .1.5c-.4 3.9-.5 4-4.3 3.2l-23-4.7c-3.6-.7-4.1-1.8-2.1-5.2h1.3c.6 3 3.5 2 5 2.4 6 1.5 12 2.2 18 3.8 1.2.4 2.8 1.2 3.8-.6z"/><path class="cls-9" d="M289.6 239c-1 1.7-2.6 1-3.8.6-6-1.6-12-2.4-18-3.8-1.6-.4-4.5.5-5-2.4 7.2 1 14.2 2.8 21.4 4.2a20.7 20.7 0 0 1 5.4 1.4zm-4.8 26c-.2 1.6.8 3 1.3 4.4a9.8 9.8 0 0 1 .5 3.5L284 274a23.6 23.6 0 0 1-3.6-9c1.5-.3 3-1.8 4.4 0zm6-25.4l-.5-.5c.3 0 .6 0 .5.5zm-28.8-6.3h-.5c0-.4.3 0 .5 0z"/><path class="cls-16" d="M464.2 174.8a1.6 1.6 0 0 0-.9 1.2c-.4 4.7-2.6 8.6-5.5 12.1-4 4-8.2 7.3-14.1 7.6-9.7.4-20-9.1-19.7-18.4.2-4.2 2-7.9 4.4-11.3.8-1.1 1.9-2 2.3-3.3 3-2.3 5.7-5 9.5-5.9 1.3-.3 2.8-.1 3.7-1.4 1.7.8 3.5.3 5.2.7 1 .2.9-.5 1-1 .6-4 3.3-6 7.3-5.4a12.5 12.5 0 0 1 10 8.6c1 3.7-.3 6.4-3.8 7.7-1 .3-1.4.5-1 1.6 1 2.3.5 5 1.6 7.2z"/><path class="cls-3" d="M443.8 155.4c-.9 1.3-2.4 1.1-3.6 1.4-3.8 1-6.6 3.6-9.5 5.9-5.4-3.2-10.6-6.6-16.7-8.3l-4.3-1.1a43 43 0 0 1 34.1 2.1zm-44.2 10.9c3.7-2.2 7.6-2 11.5-.8 4.3 1.3 8.2 3.7 12 6 .8.5 1 1 .2 1.7l-8.3 8.5z"/><path class="cls-7" d="M348.7 159.3a9 9 0 0 1 5.4-8.8 9.3 9.3 0 0 1 10.2 1.1c.7.6 1.3 1.3 2.5 1a1 1 0 0 1 1 1.4c-.7 1-.4 1.8-.2 2.7.8 4-.2 7.4-3.4 9.9a9.6 9.6 0 0 1-15.5-7.3zm16.3-.2a6.7 6.7 0 1 0-6.7 6.7 6.6 6.6 0 0 0 6.7-6.7z"/><path class="cls-6" d="M384.8 314a3.8 3.8 0 0 1 2 2.6c2 6 4.2 12 7.8 17.4a5.2 5.2 0 0 0 1.7 1.8c2.3 4 6.2 6.2 10.3 7.9a29.8 29.8 0 0 0 13 1.8c1.3 0 2 .2 2.2 1.7a16.3 16.3 0 0 0 3.8 8c.6.8.9 1.4-.5 1.5a43 43 0 0 1-30.6-6.5c-2.8-2-4.9-4.5-7.4-6.6-2-3.6-4.6-7-6.3-10.7a118.9 118.9 0 0 1-5.2-13.6 3.8 3.8 0 0 1-.2-2.2h.4a51 51 0 0 0 8.6-2.7z"/><path class="cls-7" d="M297.3 298.9l3.2-14.6c.1-.6.3-1 1-1a302 302 0 0 0 25 5.8 9.3 9.3 0 0 1 1 .5c3.4 1 3.4 1 2.6 4.4l-4.2 19c-1.7-1.5-1.7-1.5-3.2-.5-.2-.5.6-1 0-1.4s-.7.1-1 .5-.6.5-.6 0c0-1-.4-1-1.2-1a8.3 8.3 0 0 1-3.7-.8c-1.9-1-2-.2-2 1.3l-.9-.3c.3-1 .4-1.6-1-2a12.6 12.6 0 0 0-3.4-.7c-2.3 0-4.5-.8-6.8-1a24.5 24.5 0 0 0-6-.3c0-1.3.8-2.5.4-3.9l.2-.6.1-.1a1.9 1.9 0 0 0 0-.4h-.2l.5-1.3c.5-.4.4-1 .2-1.6z"/><path class="cls-5" d="M293.8 356.8c-7.6-1.2-14-4.8-20.5-8.7a31.5 31.5 0 0 0 7-9.2c4 2.3 7.8 4.6 12.3 5.9 4.8 1.4 9.4 1 13.7-1.8 2.7-1 4.8-3 7-4.8a3.2 3.2 0 0 1 3-.9 11.6 11.6 0 0 0 6.5 7 2.7 2.7 0 0 1-1 1.8c-5.4 4.8-11.3 9-18.7 10.5a26.6 26.6 0 0 1-9.3.2z"/><path class="cls-3" d="M306.3 343a15.5 15.5 0 0 1-13.7 1.8 53.6 53.6 0 0 1-12.3-5.9c-.6-.5 0-1 .1-1.4L290 327c1 .1 1.4 1 2 1.5l14.4 14.4z"/><path class="cls-13" d="M336.6 327c.7-.3 1.4-.6 2 .2s0 1.4-.5 1.9l-7.7 7.4a4.7 4.7 0 0 1-2 1.3 5.5 5.5 0 0 0-3.7 2.7h-.4c-.9-.2-1-1.1-1.7-1.6-1.4-1.2-2.2-3-4.3-3.3a2.5 2.5 0 0 0 2-2.8 53.6 53.6 0 0 1 .9-8c.1-.7 0-1.7 1.1-1.6s1.4.8 1.6 1.7-.3 1.9.3 3c1.5-.7 1.9-2.3 2.7-3.4l3-5c.5-.7 1-1.8 2-1.1s.7 1.5.2 2.3l-.5 1a8 8 0 0 0-1.8 3l-.4 1-.2.3.3-.2.6-.8a6.5 6.5 0 0 0 2.1-2.7c.8-1 1.4-3 3-2.1s-.2 2.2-.7 3.3a3.7 3.7 0 0 0-.1.9c-.3 0-.4.2-.5.4l-.5.1v.2l.5-.3.5-.4a3.4 3.4 0 0 0 .5-.4c.8-.7 1.6-1.7 2.6-.6s-.2 1.6-.7 2.4l-.7.8a5.9 5.9 0 0 0-2.3 3 8.5 8.5 0 0 0 2.8-2.5z"/><path class="cls-14" d="M290 327.1l-9.6 10.3c.5-3-.3-6.2 0-9.3.5-7-2.8-11.5-8.5-14.8a5.7 5.7 0 0 0-3.4-.7c-3.9.3-7.4-1.3-11.2-1.7l7.8-8.7c1 0 1.6 1 2.2 1.7l13.5 13.3 7.5 7.8c.7.6 1.4 1.1 1.6 2.1z"/><path class="cls-17" d="M349.7 326c-5-1.3-7.7-4.4-8.1-8.6s3.1-9.5 7.7-10.4a9.8 9.8 0 0 1 11 6.3 9.6 9.6 0 0 1-4.7 11.8c-1 .5-2.2.7-2.2 2.2 0 .4-.5.6-1 .6-1.2 0-1-1.1-1.3-1.8.5-.6.4-2.9 2.1-.9l.7-2.3c1 0 1.7 0 1.7-1l1.1-1.2c1.9-.3 2-1.9 2-3.3.1-2 .3-4.2-1.8-5.6h-.7a.2.2 0 0 1-.2-.3c-.3-2.2-2.1-2.4-3.7-2.5-2 0-4.3-.6-5.3 2l-1.1 1.2c-2.4.2-2.1 2.3-2.3 3.7s-.4 3.5 1.6 4.4c0 1.5.7 2.3 2.3 2.2 0 1 .7 1.3 1.4 1.3 2.1.2 2 1 .8 2.3z"/><path class="cls-9" d="M318.3 335.6c2 .2 2.9 2.1 4.3 3.3.6.5.8 1.4 1.7 1.7l.1 2.1-1 1a.6.6 0 0 0-.6.5 11.6 11.6 0 0 1-6.6-7c.3 0 .5 0 .5-.4l.7-.4a.4.4 0 0 0 .3-.1.3.3 0 0 1 0-.3l.4-.3zm66.1-21.2a51 51 0 0 1-8.5 2.7c-.1-.5 0-1-.7-1.3a.2.2 0 0 1 0-.2c-.2-2.2 1-3.2 3-3.6 1.8-.3 3.5-1.6 5.4-.9a1.9 1.9 0 0 0 .8 2.3.2.2 0 0 1 .2.3z"/><path class="cls-17" d="M296 306.8a24.5 24.5 0 0 1 6 .2c2.3.3 4.5 1 6.8 1.1a12.6 12.6 0 0 1 3.4.7c1.4.4 1.3 1 1 2a126.5 126.5 0 0 1-17.2-4zm18 4.3c0-1.5.3-2.4 2-1.3a8.3 8.3 0 0 0 3.8.8c.9 0 1.2 0 1.2 1 0 .5.5.5.7 0s.3-.9 1-.5-.3 1 0 1.4c1.4-1 1.4-1 3 .6-.3.9-1 .5-1.7.4l-10-2.4zm2.6-.2v-.1h-.1z"/><path class="cls-7" d="M353.8 322.9l-.7 2.3c-1.7-2-1.5.3-2 1l-1.4-.1c1.1-1.2 1.3-2-.8-2.3-.7 0-1.4-.4-1.4-1.4a9.2 9.2 0 0 0 6.3.5z"/><path class="cls-17" d="M296.4 303c.4 1.3-.4 2.5-.3 3.8-1-1.4-.1-2.6.3-3.9z"/><path class="cls-14" d="M324.4 342.8l-.1-2.2h.4c0 .7.8 1.5-.3 2.1z"/><path class="cls-8" d="M375.2 315.8c.7.2.6.8.7 1.3h-.5z"/><path class="cls-14" d="M322.8 344.2a.6.6 0 0 1 .7-.5.7.7 0 0 1-.7.5z"/><path class="cls-17" d="M296.6 301.8a1.9 1.9 0 0 1 .1.4h-.2z"/><path class="cls-8" d="M318.2 335.7l-.4.3zm-.5.6a.4.4 0 0 1-.2.2.2.2 0 0 1 .2-.2z"/><path class="cls-14" d="M316.7 336.9c0 .3-.1.4-.4.4z"/><path class="cls-18" d="M432.1 323l-.3.2.2-.3z"/><path class="cls-6" d="M257.3 311c3.8.3 7.3 2 11.2 1.6a5.7 5.7 0 0 1 3.4.7c5.7 3.3 9 7.9 8.4 14.8-.3 3.1.5 6.2.1 9.4 0 .4-.7.9-.1 1.4a31.5 31.5 0 0 1-7 9.2c-.6-.4-1.1 0-1.6.4a18.3 18.3 0 0 1-17.4.6 1.7 1.7 0 0 0-2.5.6c-2.8 3.2-5.1 3.2-8 0l-2.2-2.9c-1.9-2.5-2.2-2.6-4.2-.4-1.3-3.9 0-6.2 4.2-6.6 2.4-.2 2.2-1 1.5-2.7a19.2 19.2 0 0 1 .7-16.9 3.5 3.5 0 0 0 .6-1.6c2.3-2.4 4.2-5.3 7.6-6.4 1-.2 1.9-.6 2.8-.9a3.8 3.8 0 0 0 2.5-.4zm-12.6 29.6c-.4 2.8 3.5 7.4 6 7.5.3 0 .6 0 .7-.4a1 1 0 0 0-.3-.8 72 72 0 0 1-6.4-6.3z"/><path class="cls-3" d="M257.3 311a3.8 3.8 0 0 1-2.5.3c-.4-5-.4-10.1 1.5-15l1-2.2c2.8 2.6 5.7 5 7.8 8.1zm175.7 9.3a.9.9 0 0 1 1-.5.8.8 0 0 1-1 .5zM420.4 333l-.1.5-.3-.2.4-.4z"/><path class="cls-3" d="M434 319.8v-.1l-.1.1z"/><path class="cls-8" d="M384.4 313.5a1.9 1.9 0 0 1-.8-2.3 3.5 3.5 0 0 1 .8 2.3zm0 .9l.2-.7a.4.4 0 0 1 .2.3z"/><path class="cls-17" d="M376.7 217.2c1.1-.5 2.5-2 2.8.7 0 .7.8.6 1.3.6-.4.5-1 .7-1 1.4a1.7 1.7 0 0 0-2.4.2c-.6.8-.1 1.6.1 2.4.3 1 1.1 1 1.9 1.3a.6.6 0 0 0 .7-.3c.2-.5 0-.5-.5-.6-1-.4-1.7-.8-.2-1.6.5-.2.5-.9.5-1.4.6.7 1.3 1.2 2.3.6.4-.2.8-.5.6-1-.3-1-1.2-1-2-1 1.6-.2.9-2.4 2.4-2.7 1.3 1 1.5 5 .4 6.3-.2.2-1.1-.3-.5.4.2.3.8.6 1.1 0a4.2 4.2 0 0 0 .2-1.3c.4.3.6 1 1.3 1-.7.7-1.1 1.7-2.7 1.4-1.5-.1-1.7 1-.6 2 .5.5.3.9 0 1.2s-.7.2-1 0-.7-.4-.3-1a.9.9 0 0 0-.2-1.3 1.3 1.3 0 0 0-1.7.2c-1.2 1.5-1.7.9-2.3-.5-.3-.6-1.1-1-1.7-.7s-.2 1.2.3 1.6c.3.2.6.6.3.6-1.6.1-2.1 2.5-4 1.6-.7-.2-1.3.2-.7-1s-1.1-2.2-.9-3.5c0-.3-1.3-.3-.5-1.3s1.1.3 1.7.1c-.4.8-1 1.8.6 2a1 1 0 0 0 1.1-1c0-1.2-1-.8-1.7-1 1.8-1.6 1.8-2 0-2.6.9-1 2-1 3.2-1-.4.6-1.7.5-1.2 1.6s1.3.7 2 .7c-1 .9-.2 1.4.4 1.9.4.2.8.3 1-.2.1-1-.3-1.6-1.3-1.7.6-1 .6-2-1-2.2a2.7 2.7 0 0 1 2.3-1c-.4 1-1 2 .7 2 .5 0 1.6 0 1.4-1-.2-1.2-1.3-.9-2.2-1z"/><path class="cls-19" d="M380.7 200.2c.2 1-.5 1.2-1.1 1.4l-14.1 4.6c-1.2.3-1.6-.1-2-1.2s0-1.5 1-1.8l14.3-4.6c1.7-.6 1.6.8 1.9 1.6z"/><path class="cls-20" d="M365.9 210c-.3 0-.7-.1-.7-.3-.2-.6.4-.6.8-.7l12.4-4 2.8-1c.3 0 .8 0 .7.5 0 .2-.4.4-.7.5zm.9 4.6c-.4-.2-.4-.5-.4-.8a54.8 54.8 0 0 0 8.5-3c.4 0 .9.2 1-.4.5.2 1 .2 1.4-.5.5.2 1 .3 1.3-.5 1.7.3 3.1-.6 4.6-1 1 1-.2 1-.7 1l-7.5 2.7c-.3 0-.8 0-.9.5a1.7 1.7 0 0 0-1.8.4c-.4 0-.9-.1-1 .5a1.6 1.6 0 0 0-1.8.5c-1-.2-1.8.4-2.7.6zm-.9-2.8a.6.6 0 0 1 0-1l15.3-5c.6 0 1.6-.5 1.2.8-.6 0-1.3 0-1.7.6-.5 0-1 0-1.3.5-.4 0-1-.2-1 .5a27.5 27.5 0 0 0-10 3.1 1.6 1.6 0 0 0-1.8.5z"/><path class="cls-8" d="M362.5 201.4a89.6 89.6 0 0 1 16.7-5.5c-5.3 2.6-11 4.1-16.7 5.5z"/><path class="cls-20" d="M366.3 213.2l-.4-.5c.3-.4 1-.3 1-1a1.5 1.5 0 0 0 1.8-.5 44 44 0 0 0 10-3.1c.3 0 .8.1.8-.5.6.2 1.1.2 1.4-.5h2.3v.8a12.8 12.8 0 0 0-4.5 1.5c-.6 0-1 0-1.4.4-.6 0-1 0-1.4.5-.4 0-.9-.1-1 .5-3 .2-5.7 1.6-8.6 2.4z"/><path class="cls-17" d="M381.2 205.9l-15.3 5v-.8l15.3-5v.8z"/><path class="cls-20" d="M375 212.6c.3.2.6.6.1.8a45 45 0 0 1-7.8 2.4c-.3 0-.3-.3-.3-.6.8-.4 2-.2 2.5-1.2a1.6 1.6 0 0 0 1.9-.4c.4 0 .8 0 .9-.5a1.5 1.5 0 0 0 1.8-.5z"/><path class="cls-17" d="M385.3 216.2a9 9 0 0 1 2 5.4c.2 1.2-1.1.2-1.6.5.3-.5 1.2-.8.7-1.6s-1.2 0-1.8-.3c.3-1.3-.4-2.8.7-4z"/><path class="cls-7" d="M385.3 216.2c-1 1.2-.4 2.7-.7 4a1 1 0 0 0-.3 1 4.2 4.2 0 0 1-.1 1.3c-.3.6-1 .3-1.1 0-.6-.7.3-.2.4-.4 1.2-1.2 1-5.3-.4-6.2.5-.4.6-1.4 1.4-1.2s.7 1 .8 1.5z"/><path class="cls-17" d="M366.3 213.2c3-.8 5.6-2.2 8.6-2.4a54.8 54.8 0 0 1-8.4 3zm12.2-3.7a12.8 12.8 0 0 1 4.4-1.5 1.3 1.3 0 0 1 .1.4c-1.4.5-2.8 1.4-4.5 1.1zm-3.8 19.1c-1 .3-1.2 1.4-2.1 1.3-.3 0-.4-.4-.3-.7.5-.9 1.3-.8 2.4-.6zm11.4-4c.8 0 1-1.2 1.9-1a1 1 0 0 1 .3 1c-.6 1-1.4 0-2.2 0zm-14.8-5.6c-.7.5-1.2 1.3-2.4 1.2.3-1.6 1.5-1 2.4-1.2zm5.5 9a3 3 0 0 1-.7.6c-.5.2-.7-.2-.7-.5s0-.8.6-.7c.3.1.7 0 .8.6zm-7.3-14c-.6 1-1.7.8-2.6 1.2l-.1-.6c.9-.2 1.7-.8 2.7-.6zm13.5-6.8h-2.3c.4-.6 1-.5 1.7-.5zm-16.2 4.5c0 .7-.7.6-.9 1v-.9zm13.7 4.5l-.2-.3a2.2 2.2 0 0 1 .4 0l.1.2zm-5.5-3.6h-1c0-.5.5-.4.9-.4v.4z"/><path class="cls-9" d="M278.6 147c1.4 5 1.6 9.9-2 14.4 1.6.4 2.6-.7 4-.9-1.5 3-4 4.5-6.3 6.3 3.1.6 5.2-2.2 8.3-2.2a13 13 0 0 1-7.2 5.6 20 20 0 0 0-5.5 2.9 19.8 19.8 0 0 1-10.7 3.5l-5.6.1-4.8-1.2c-7.7-3-11-9.1-11.9-16.8a16 16 0 0 1 7.4-16 6.4 6.4 0 0 0 1.3-1.3c9.5-11.6 29-6.7 33 5.6z"/><path class="cls-3" d="M301 161.7l-7.2 6.8-10.8-11.8a21.1 21.1 0 0 1 7 0 22.1 22.1 0 0 1 9.6 3.4c.6.4 1.5.6 1.4 1.6z"/><path class="cls-7" d="M306.6 197.8l1.1 1 14.3 13.7c1.1 1 1.2 1.7 0 2.9l-9.3 9.7c-.9 1-1.5 1.1-2.5.1q-7-7-14.2-13.7c-1.2-1.2-1.4-1.9-.1-3l9.2-9.6c.4-.4.7-1 1.5-1zm2.3 24a4.1 4.1 0 0 0 1-.7l8.4-9.3a1 1 0 0 0-.2-1.5 1 1 0 0 0-1.6.2l-3 3.5-5 5.4c-.5.5-1 1-.5 1.6a3.7 3.7 0 0 0 .9.7zm12.4-8.2a6.6 6.6 0 0 0-.8-1c-.7-.6-1.1 0-1.6.4-2.9 2.9-5.6 6-8.2 9.1-.5.6-.8 1.1 0 1.7s1.1 0 1.5-.5l8.3-8.7.8-1zm-15 5.7a1.6 1.6 0 0 0 1.6-.7l7.9-8.7a1 1 0 0 0 0-1.7c-.8-.7-1.3-.3-1.8.3l-8.2 9c-.3.4-.7.8-.4 1.2a3.1 3.1 0 0 0 1 .6zm1.7-5.9a2.9 2.9 0 0 0 .6-.4l5.1-5.6c.5-.6.2-1-.2-1.4-.6-.7-1.2-.4-1.7.2l-4.8 5.3c-.3.3-.6.7-.2 1.2a1.5 1.5 0 0 0 1.2.7z"/><path class="cls-14" d="M365 159a6.7 6.7 0 1 1-6.7-6.6 6.5 6.5 0 0 1 6.7 6.7zm-6.6 5.9a5.8 5.8 0 1 0-6-5.8 5.9 5.9 0 0 0 6 5.8z"/><path class="cls-17" d="M297.3 298.9c.2.6.3 1.2-.4 1.6a2.1 2.1 0 0 1 .4-1.6z"/><path class="cls-20" d="M329.3 325.6l.5-1 .2.3-.5.8z"/><path class="cls-21" d="M334 324.8l-.5.3-.1-.2.5-.1zm0 0c0-.3 0-.5.4-.5l-.5.5z"/><path class="cls-20" d="M329.5 325.7l-.3.2.1-.3z"/><path class="cls-14" d="M353.8 322.9a9.2 9.2 0 0 1-6.3-.5v.1a6.8 6.8 0 0 0-2.3-2.3c-.9-2.7-1.2-5.4.7-8l1.1-1.1a7.4 7.4 0 0 1 9 .4.2.2 0 0 0 .3.2 7.4 7.4 0 0 1 .4 9l-1.1 1.2-1.7 1.1zm-2.5-.7a5.7 5.7 0 1 0-5.8-5.5 5.6 5.6 0 0 0 5.8 5.5z"/><path class="cls-7" d="M356 311.5a7.4 7.4 0 0 0-9-.4c1-2.7 3.3-2.1 5.3-2 1.6 0 3.4.2 3.7 2.4zm.6 9.2a7.4 7.4 0 0 0-.4-9h.7c2 1.5 1.9 3.6 1.8 5.7 0 1.4-.2 3-2 3.3zm-10.7-8.5c-2 2.5-1.6 5.3-.7 8-2-.8-1.9-2.7-1.6-4.3s-.1-3.5 2.3-3.7zm-.7 8.1a6.8 6.8 0 0 1 2.3 2.2c-1.6 0-2.4-.7-2.3-2.3zm8.8 2.7l1.5-1.1c0 1.1-.7 1.1-1.6 1.1zm-37.4-12l-.1-.1.2-.1z"/><path class="cls-20" d="M244.7 340.6a72 72 0 0 0 6.3 6.3 1 1 0 0 1 .3.8c0 .4-.3.4-.7.4-2.4-.1-6.3-4.7-6-7.5z"/><path class="cls-7" d="M379.9 219.9c0 .5 0 1.1-.5 1.4-1.5.8-.8 1.2.2 1.5.5.2.8.2.5.7a.6.6 0 0 1-.7.3c-.8-.3-1.6-.3-1.9-1.4-.2-.7-.7-1.6 0-2.3a1.7 1.7 0 0 1 2.4-.2z"/><path class="cls-7" d="M379.9 219.9c0-.7.5-1 .9-1.4.8 0 1.6 0 2 1 .1.6-.2.8-.7 1-1 .6-1.7.1-2.3-.6zm-4.5.4c-.8 0-1.8.2-2.1-.7s.8-1 1.2-1.5c1.5.2 1.5 1.1.9 2.2zm1.3-3.1c.9 0 2-.3 2.1 1 .2.9-.9 1-1.4 1-1.6-.1-1.1-1.2-.7-2zm-5.4 4.5c.7 0 1.6-.3 1.7.8a1 1 0 0 1-1.1 1c-1.6-.1-1-1-.6-1.9zm13-.5a1 1 0 0 1 .3-1c.6.2 1.4-.5 1.8.3s-.3 1-.7 1.6c-.7 0-1-.6-1.4-1z"/><path class="cls-7" d="M375.4 220.3c1 .1 1.4.7 1.2 1.7-.1.4-.5.4-.9.2-.6-.5-1.4-1-.3-1.9z"/><path class="cls-17" d="M374 212.7a1.5 1.5 0 0 1-1.8.4 1.7 1.7 0 0 1 1.8-.4zm-2.7.9a1.6 1.6 0 0 1-1.8.4 1.6 1.6 0 0 1 1.8-.4zm5.8-3.6c.4-.6.9-.5 1.4-.5-.2.8-.8.6-1.4.5z"/><path class="cls-17" d="M375.8 210.4c.3-.6.8-.5 1.4-.5-.3.8-.8.7-1.4.5z"/><path class="cls-17" d="M374.9 210.9c0-.6.5-.5 1-.5-.2.6-.6.5-1 .5zm-2.7 2.1c0 .7-.5.6-1 .6.2-.6.6-.5 1-.5zm6.3-4.8a44 44 0 0 1-10 3.1 27.5 27.5 0 0 1 10-3.2z"/><path class="cls-17" d="M368.6 211.3a1.5 1.5 0 0 1-1.8.5 1.6 1.6 0 0 1 1.8-.5zm12.2-4.1c-.3.7-.8.7-1.4.5.3-.5.8-.5 1.4-.5zm-1.4.5c0 .6-.5.5-1 .5.2-.7.6-.5 1-.5zm-70.5 14a3.7 3.7 0 0 1-.9-.7c-.4-.6 0-1.1.4-1.6l5-5.4 3.2-3.5a1 1 0 0 1 1.5-.2 1 1 0 0 1 .2 1.5l-8.4 9.3a4.1 4.1 0 0 1-1 .6zm12.4-8.1l-.8 1-8.3 8.8c-.4.4-.8 1.2-1.6.4s-.4-1 .1-1.7a134 134 0 0 1 8.2-9c.5-.5.9-1 1.6-.5a6.6 6.6 0 0 1 .8 1zm-14.9 5.7a3.1 3.1 0 0 1-1-.6c-.3-.4.1-.8.4-1.1l8.2-9.1c.5-.5 1-1 1.7-.3a1 1 0 0 1 0 1.7l-7.8 8.8a1.6 1.6 0 0 1-1.5.6zm1.6-5.9a1.5 1.5 0 0 1-1.2-.7c-.3-.5 0-.9.2-1.2l4.9-5.3c.5-.6 1-.9 1.7-.2.4.4.6.9.2 1.4l-5.2 5.6a2.9 2.9 0 0 1-.6.4z"/><path class="cls-3" d="M358.4 164.9a5.8 5.8 0 1 1 5.6-5.8 6 6 0 0 1-5.6 5.8zm-7.1 157.3a5.7 5.7 0 1 1 5.6-5.7 5.6 5.6 0 0 1-5.6 5.7zm-127-143.3s3.5 20 26.5 29.5l-6.1-17.5z"/><path class="cls-8" d="M378.1 180.6l-4.7 4.1a1.2 1.2 0 0 1-1 .4.9.9 0 0 1-.6-1.4 2.8 2.8 0 0 1 .4-.4l4.3-3.7.3-.3v-.5a.5.5 0 0 0-.5 0 7.6 7.6 0 0 0-.9.6 1 1 0 0 1-1.6 0 1.1 1.1 0 0 1 .1-1.6l.8-.7c.2-.3.3-.3 0-.5a.4.4 0 0 0-.5 0l-.7.5a1 1 0 0 1-1.3 0 1 1 0 0 1 .1-1.3l1.4-1.1c.2-.2.4-.4.1-.7s-.5-.1-.7 0l-1.1 1a.6.6 0 0 1-.9-.5.8.8 0 0 1 .2-.6 48.4 48.4 0 0 1 7-6.3 1.7 1.7 0 0 1 2.5.4l4.7 5.3a2.3 2.3 0 0 1 .6 1.8l-.3 6.8a1.4 1.4 0 0 1-1 1.4c-.4.1-.7 0-.8-.4a11 11 0 0 1-.4-2.2V177a1.4 1.4 0 0 0 0-.4.3.3 0 0 0-.4-.2 3 3 0 0 0-.4.3zm-60.4 15.6l1.7 5.4a1.1 1.1 0 0 0 .6.9.7.7 0 0 0 1-.8 2.8 2.8 0 0 0-.1-.6l-1.5-4.9a1 1 0 0 1-.1-.4l.1-.3a.4.4 0 0 1 .4.1 7.5 7.5 0 0 1 .4 1 1 1 0 0 0 1.2.8 1 1 0 0 0 .6-1.4l-.3-.9c0-.3 0-.4.2-.5s.4.1.5.3l.2.8a.9.9 0 0 0 1 .6.8.8 0 0 0 .4-1l-.4-1.6c-.1-.2-.2-.5.1-.6s.4.2.5.4l.5 1.2a.5.5 0 0 0 .8.2.8.8 0 0 0 .1-.6 47.7 47.7 0 0 0-2.4-8.2 1.5 1.5 0 0 0-2-1 374 374 0 0 1-5.7 1.8 1.9 1.9 0 0 0-1.2 1l-2.7 5.3a1.3 1.3 0 0 0 0 1.5c.3.3.5.4.8.1a9.2 9.2 0 0 0 1.2-1.4l1.6-3a1.2 1.2 0 0 1 .3-.2c.1-.2.3-.2.4 0a2.9 2.9 0 0 1 .2.5z"/><path class="cls-9" d="M382 164.7l-2.8 1.8 6.8 8.6 2.4-2.5-6.4-8zm-59.4 21c-2.8-.1-5.3 1.4-8 1.8-.2-1.3-1-2.5-.9-4l8-1.9c0 1.5.7 2.7 1 4z"/><path class="cls-8" d="M278.4 210.3l.3-.2h.3a4.5 4.5 0 0 1 4 .4l5.3 3.2a1.6 1.6 0 0 1 .8 1.8c-.2.6-.8.7-1.5.4l-2-1a.5.5 0 0 0 0 .2l4.7 7.6a1 1 0 0 1-.2 1.4 1 1 0 0 1-1.3-.5l-1.3-2-1.6-2.7c-.1-.2-.3-.3-.5-.2s-.1.3 0 .5l.2.4 3.4 5.6a1.2 1.2 0 0 1 .2 1v.3l-.4.2c-.6 0-1-.3-1.4-1l-3.4-5.4-.1-.2c-.1-.2-.3-.3-.5-.2s-.1.3 0 .5l.1.2 3.1 5.1c.4.6.3 1.2-.1 1.5s-1 0-1.4-.6l-3.5-5.7c-.1-.2-.3-.5-.6-.4s0 .4.1.7l2.4 4a1 1 0 0 1 0 1.2.8.8 0 0 1-1 0 2 2 0 0 1-.6-.6l-5.3-8.7a4.8 4.8 0 0 1-.2-5l.8-1h.2a3.4 3.4 0 0 0 1-.8z"/><path class="cls-9" d="M281.1 210.4c-2 1-3.5 2.9-4.9 4.6-1.6.2-2-1.3-3-2 2-2 3.6-4.2 6-5.7.7 1 2 1.6 2 3.1z"/><path class="cls-16" d="M347.5 184.9l-.4-.3c-.3-.3-.4-.7-.8-.8l-.3-.3v-.1a12.8 12.8 0 0 1 4.7-4.8 16.6 16.6 0 0 0 4.4-4 14.3 14.3 0 0 1 4.4-3.3 1.2 1.2 0 0 1 1.7.7l.3.8-.4.3a1.8 1.8 0 0 0-2-.6 6.7 6.7 0 0 0-3.8 2.9 2.1 2.1 0 0 0 0 2.8l-.3.3-.3-.2a.5.5 0 0 0-.7 0c-.4.3-.2.5 0 .8l-.4.3a2.4 2.4 0 0 0-3-.1 7.2 7.2 0 0 0-2 1.7c-1 1-1.5 2.2-.9 3.6z"/><path class="cls-12" d="M353.7 179.4l.3-.2a4.8 4.8 0 0 1-2.2 7.2 3.3 3.3 0 0 1-2.9-.4 7 7 0 0 1-1.4-1.1l.3-.3.8.7a3.1 3.1 0 0 0 4.1.2 4.4 4.4 0 0 0 1-6zm7.4-6.3l.4-.3.7 1a3.5 3.5 0 0 1-1.4 5 4.6 4.6 0 0 1-5.8-.4l.3-.2a4.2 4.2 0 0 0 4.8.5 3.3 3.3 0 0 0 1-5.6z"/><path class="cls-22" d="M346.3 183.8c.4.1.5.5.8.8-.5 0-.6-.5-.8-.8zm-.3-.4z"/><path class="cls-23" d="M361.1 173.1a3.3 3.3 0 0 1-1 5.6 4.2 4.2 0 0 1-4.8-.5 2.1 2.1 0 0 1 0-2.9 6.7 6.7 0 0 1 3.7-2.8 1.8 1.8 0 0 1 2.1.6zm-7.4 6.3a4.4 4.4 0 0 1-1 6.1 3.1 3.1 0 0 1-4.1-.3l-.8-.6c-.7-1.4 0-2.5.8-3.6a7.2 7.2 0 0 1 2-1.7 2.4 2.4 0 0 1 3.1.1z"/><g class="cls-24"><g class="cls-25"><g class="cls-26"><circle class="cls-27" cx="64.9" cy="339.4" r="2.3"/><path class="cls-28" d="M-26 397.1V373a3.3 3.3 0 0 0-.8-2.1L-33 362c-.4-.6-1.3-1.5-.6-2.1s1.5.3 2 .8l5.5 5.3v-10.4c.1-3.4.4-6.6 1.7-9.8a3.5 3.5 0 0 1 1 2.5 133.6 133.6 0 0 1 1.2 16.4c.6 16 .9 32 1.2 48l.2 8.3c0 .8.2 1 1 .7a32.2 32.2 0 0 0 11-6.7 42.2 42.2 0 0 0 14.2-24c1.4-7 .5-14-1.5-20.8a62 62 0 0 0-16-27.1 35.6 35.6 0 0 0-4.4-3.6 11.5 11.5 0 0 0-12.2-1.2A54.6 54.6 0 0 0-49 354.7a43.1 43.1 0 0 0-9.3 19.2 36 36 0 0 0 4.3 24.4 48.4 48.4 0 0 0 24 22.4l2.7.9c.9.3 1.2.1 1.2-.9v-15.4a2.6 2.6 0 0 0-.8-1.7c-4-5-8.2-9.7-12-14.8a20.2 20.2 0 0 1-2.6-5.2c-.1-.3-.6-.9 0-1.2s.8.1 1.1.4c1.2.9 2.3 1.8 3.4 2.9 3.8 3.6 7.2 7.6 11 11.4z"/><circle class="cls-27" cx="4.4" cy="423.8" r="2.2"/></g></g></g></svg>