<svg id="Layer_1" data-name="Layer 1" xmlns="http://www.w3.org/2000/svg" viewBox="0 0 690 687"><defs><style>.cls-1,.cls-17{fill:none}.cls-2{fill:#273274}.cls-3{clip-path:url(#clip-path)}.cls-4{opacity:.8}.cls-5{clip-path:url(#clip-path-2)}.cls-14,.cls-6,.cls-7,.cls-8{fill:#ff544e}.cls-10,.cls-11,.cls-12,.cls-14,.cls-15,.cls-16,.cls-7,.cls-8{stroke:#273274}.cls-10,.cls-11,.cls-12,.cls-14,.cls-15,.cls-16,.cls-17,.cls-7,.cls-8{stroke-miterlimit:10}.cls-16,.cls-7{stroke-width:3px}.cls-11,.cls-15,.cls-8{stroke-width:2px}.cls-10,.cls-11,.cls-16,.cls-9{fill:#f7f7f7}.cls-10,.cls-12{stroke-width:4px}.cls-12,.cls-13,.cls-15{fill:#ff8c58}.cls-14{stroke-width:5px}.cls-17{stroke:#fff;stroke-width:16px}.cls-18{fill:#fff}</style><clipPath id="clip-path"><circle class="cls-1" cx="345" cy="332.4" r="118.5"/></clipPath><clipPath id="clip-path-2"><path class="cls-1" d="M67.1 269.2h677.8v184.3H67.1z"/></clipPath></defs><title>landing hactober cafe</title><path class="cls-2" d="M0-1.5h692v690H0z"/><g class="cls-3"><g class="cls-4"><g class="cls-5"><path class="cls-6" d="M684 397.1V373a3.3 3.3 0 0 0-.8-2.1L677 362c-.4-.6-1.3-1.5-.6-2.1s1.4.3 2 .8l5.5 5.3v-10.4c.1-3.4.3-6.6 1.7-9.8a3.5 3.5 0 0 1 1 2.5 133.6 133.6 0 0 1 1.2 16.4c.6 16 .9 32 1.2 48l.2 8.3c0 .8.2 1 1 .7a32.2 32.2 0 0 0 10.9-6.7 42.2 42.2 0 0 0 14.2-24c1.4-7 .5-14-1.5-20.8a62 62 0 0 0-16-27.1 35.6 35.6 0 0 0-4.5-3.6 11.5 11.5 0 0 0-12-1.2 54.6 54.6 0 0 0-20.5 16.3 43.1 43.1 0 0 0-9.3 19.2 36 36 0 0 0 4.3 24.3 48.4 48.4 0 0 0 24 22.5l2.7.9c.9.3 1.2.1 1.2-.9v-15.4a2.6 2.6 0 0 0-.8-1.8c-4-4.9-8.2-9.6-12-14.7a20.2 20.2 0 0 1-2.6-5.2c-.2-.4-.6-1 0-1.3s.8.2 1.1.5c1.1.9 2.3 1.8 3.3 2.9 4 3.6 7.4 7.6 11.2 11.4z"/><circle class="cls-7" cx="665.2" cy="379.8" r="2.4"/><circle class="cls-8" cx="673.1" cy="357.2" r="2"/><path class="cls-6" d="M686 462.5h-2a4.7 4.7 0 0 0-.5-1v-6a1.3 1.3 0 0 0 .5-.8c0-.5-.4-1-.5-1.6l.1-.7a2.1 2.1 0 0 0-.3-2.1h.3V438a1.2 1.2 0 0 0 0-1.5c.1-.1-.1-.4-.1-.5a3 3 0 0 1-.1-.5c.2-.2.2-.3.1-.3a.8.8 0 0 0 0-.9c.3-3.5-.7-6.9 2.8-10.2 1.6.4 1.6.8 1.9 1.3 1.4 2.7 1.6 5.5 1.9 8.3.9 8.1 1.4 16.3 1.9 24.5 0 1.5.3 2.9.3 4.3H686z"/><path class="cls-9" d="M619.8 387.4v-33.1a4.6 4.6 0 0 0-1-3l-8.6-12.1c-.6-.9-1.8-2.1-.8-3s2 .5 2.7 1.2l7.7 7.2c0-5-.2-9.6 0-14.2s.5-9.1 2.4-13.6a4.9 4.9 0 0 1 1.4 3.4c1.2 7.5 1.4 15.1 1.7 22.7.7 22 1.1 44.1 1.5 66.1.1 3.8.3 7.6.3 11.5 0 1.1.3 1.4 1.5 1a44.4 44.4 0 0 0 15-9.2 59 59 0 0 0 19.6-33c2-9.8.7-19.4-2.1-28.8a85.6 85.6 0 0 0-22-37.4 49.1 49.1 0 0 0-6.1-5 15.9 15.9 0 0 0-16.7-1.6c-11.4 5-20.5 13-28.2 22.5a59.2 59.2 0 0 0-12.9 26.5 50 50 0 0 0 6 33.6 66.4 66.4 0 0 0 33.1 30.9l3.8 1.3c1.3.5 1.6.1 1.6-1.2v-21.3a3.6 3.6 0 0 0-1-2.4c-5.5-6.8-11.3-13.3-16.4-20.4a27.8 27.8 0 0 1-3.7-7.1c-.2-.5-.8-1.3 0-1.8.5-.3 1 .2 1.5.6l4.6 4c5.1 5 9.8 10.4 15 15.7z"/><circle class="cls-10" cx="603.4" cy="332.8" r="3.3"/><path class="cls-9" d="M622.7 477.6h-2.8a6.4 6.4 0 0 0-.7-1.4V468a1.8 1.8 0 0 0 .7-1.1c0-.8-.5-1.5-.7-2.2.1.2.1-.8.2-1a3 3 0 0 0-.5-3h.5v-16.8a1.6 1.6 0 0 0 0-2c.2-.2-.2-.6-.2-.8a4.2 4.2 0 0 1 0-.7l.1-.4a1.1 1.1 0 0 0 0-1.2c.4-4.8-1.1-9.5 3.8-14 2.3.5 2.2 1.1 2.5 1.7 2 3.8 2.3 7.6 2.7 11.4 1.2 11.3 1.9 22.7 2.6 34 .1 2 .5 3.8.4 5.8a.9.9 0 0 0 0 .1l-8.6-.1z"/><circle class="cls-11" cx="595.2" cy="363.3" r="2.7"/><path class="cls-6" d="M529 353.6v-30a4.2 4.2 0 0 1 .8-2.6 612 612 0 0 0 7.8-11c.5-.7 1.6-1.9.8-2.6s-1.9.4-2.6 1L529 315v-13c-.1-4.1-.5-8.1-2.2-12.2a4.4 4.4 0 0 0-1.3 3 166.4 166.4 0 0 0-1.5 20.6c-.7 19.9-1 39.8-1.4 59.7l-.3 10.3c0 1.1-.2 1.4-1.3 1a40 40 0 0 1-13.6-8.4c-9-8-15.4-17.8-17.7-29.9a54.2 54.2 0 0 1 2-26 77.3 77.3 0 0 1 19.8-33.7 44.4 44.4 0 0 1 5.6-4.5 14.4 14.4 0 0 1 15-1.5 68.2 68.2 0 0 1 25.5 20.3c5.7 7 10 15 11.6 24A45 45 0 0 1 564 355a60.2 60.2 0 0 1-30 28l-3.3 1c-1.1.3-1.5.2-1.5-1l-.1-19.3a3.2 3.2 0 0 1 1-2.1c5-6.1 10.2-12 14.9-18.4a25.1 25.1 0 0 0 3.3-6.4c.2-.5.7-1.2 0-1.7-.5-.3-1 .2-1.4.6a46 46 0 0 0-4.1 3.6c-4.7 4.6-9 9.6-13.8 14.3z"/><circle class="cls-2" cx="543.7" cy="304.3" r="3"/><path class="cls-6" d="M526.3 471.2h2.5a14 14 0 0 1 .7-2.1v-13a3.7 3.7 0 0 1-.7-1.8 18 18 0 0 1 .7-3.5c-.1.4-.2-1.2-.2-1.5a7.5 7.5 0 0 1 .4-4.7h-.4v-26.9a4.2 4.2 0 0 1 0-3.2c-.2-.4.1-1 .2-1.2V412c-.2-.3-.2-.5-.1-.6a3 3 0 0 1 0-2c-.3-7.5 1-15-3.4-22.2a3 3 0 0 0-2.3 2.8c-1.8 6-2 12-2.4 18-1.1 18-1.8 35.9-2.4 53.8 0 3.1-.4 6.2-.4 9.3v.2c2.6-.2 5.2-.3 7.8-.2zM220.8 433v-20.5a2.8 2.8 0 0 1 .6-1.8l5.3-7.5c.4-.5 1.1-1.3.5-1.8s-1.2.3-1.7.7l-4.7 4.4v-8.8a24.1 24.1 0 0 0-1.5-8.3 3 3 0 0 0-.8 2 113.8 113.8 0 0 0-1 14c-.5 13.7-.8 27.3-1 40.9l-.2 7c0 .7-.2.9-1 .6a27.4 27.4 0 0 1-9.2-5.7 36 36 0 0 1-12-20.4 37 37 0 0 1 1.2-17.7A52.9 52.9 0 0 1 209 387a30.4 30.4 0 0 1 3.8-3 9.8 9.8 0 0 1 10.3-1 46.5 46.5 0 0 1 17.4 13.9 36.7 36.7 0 0 1 8 16.3c1.3 7.4-.2 14.3-3.7 20.8a41 41 0 0 1-20.5 19c-.7.4-1.5.6-2.3.8s-1 .2-1-.7V440a2.2 2.2 0 0 1 .7-1.5c3.4-4.2 7-8.2 10.1-12.6a17.2 17.2 0 0 0 2.3-4.4c.1-.3.5-.8 0-1s-.7 0-1 .3l-2.8 2.4c-3.3 3.1-6.1 6.5-9.4 9.8z"/><circle class="cls-2" cx="230.9" cy="399.3" r="2"/><path class="cls-6" d="M219 488.7h1.7a4 4 0 0 1 .5-.9v-5a1.1 1.1 0 0 1-.5-.7c0-.5.3-1 .5-1.4-.1.1-.1-.5-.2-.6a1.8 1.8 0 0 1 .3-1.8h-.2v-10.6a1 1 0 0 1-.1-1.2l.2-.4a2.6 2.6 0 0 0 0-.5l-.1-.2a.7.7 0 0 1 0-.8c-.3-3 .6-5.8-2.4-8.7-1.4.3-1.4.8-1.5 1.1a19.1 19.1 0 0 0-1.7 7c-.7 7-1.2 14-1.6 21l-.3 3.6h5.4z"/><path class="cls-9" d="M138.5 422.4v-14.6a2 2 0 0 1 .4-1.3l3.8-5.4c.3-.4.8-1 .4-1.3s-1 .2-1.3.5l-3.3 3.2v-6.3a17.4 17.4 0 0 0-1-6 2.2 2.2 0 0 0-.7 1.5 81.8 81.8 0 0 0-.7 10.1l-.7 29.4-.1 5c0 .5-.1.7-.7.5a19.7 19.7 0 0 1-6.6-4.1 25.9 25.9 0 0 1-8.7-14.7 26.5 26.5 0 0 1 1-12.7 38 38 0 0 1 9.7-16.6 21.8 21.8 0 0 1 2.7-2.2 7 7 0 0 1 7.4-.8 33.4 33.4 0 0 1 12.5 10 26.4 26.4 0 0 1 5.7 11.8 22 22 0 0 1-2.6 14.9A29.6 29.6 0 0 1 141 437l-1.7.6c-.6.2-.7 0-.7-.6v-9.4a1.6 1.6 0 0 1 .5-1c2.4-3 5-6 7.3-9a12.4 12.4 0 0 0 1.6-3.2c0-.3.4-.6 0-.8s-.5 0-.7.2l-2 1.8c-2.4 2.2-4.5 4.6-6.8 7z"/><circle class="cls-11" cx="145.7" cy="398.2" r="1.4"/><path class="cls-9" d="M137.2 462.5h1.2a2.9 2.9 0 0 1 .3-.6v-3.7a.8.8 0 0 1-.3-.5l.3-1v-.4a1.3 1.3 0 0 1 .2-1.3h-.2v-7.6a.7.7 0 0 1 0-.8l.1-.4a1.9 1.9 0 0 0 0-.3c-.1 0-.1-.1 0-.2a.5.5 0 0 1 0-.5c-.3-2.1.4-4.2-1.8-6.2-1 .2-1 .5-1.1.7a13.7 13.7 0 0 0-1.2 5.1c-.5 5-.8 10-1.1 15-.1 1-.3 1.8-.2 2.7h3.8z"/><path class="cls-6" d="M417.3 376.4v-29.2a4 4 0 0 1 .8-2.5 472 472 0 0 0 7.6-10.7c.5-.8 1.5-1.9.7-2.6s-1.8.4-2.5 1l-6.6 6.3v-12.5c-.2-4-.5-8-2.1-12a4.3 4.3 0 0 0-1.3 3 162 162 0 0 0-1.4 20c-.7 19.5-1 38.8-1.4 58.2l-.3 10c0 1-.2 1.3-1.3 1a39 39 0 0 1-13.1-8.2 51.2 51.2 0 0 1-17.3-29 53 53 0 0 1 1.9-25.3 75.2 75.2 0 0 1 19.4-32.8 43.2 43.2 0 0 1 5.3-4.4 14 14 0 0 1 14.7-1.4c10 4.4 18 11.3 24.8 19.7a52.3 52.3 0 0 1 11.3 23.3c2 10.5-.2 20.3-5.2 29.5A58.6 58.6 0 0 1 422 405l-3.2 1.1c-1.1.4-1.5.2-1.5-1v-18.7a3.1 3.1 0 0 1 .9-2.1c4.8-6 10-11.7 14.5-17.9a24.5 24.5 0 0 0 3.2-6.3c.2-.4.7-1 0-1.5-.5-.3-1 .2-1.4.5l-4 3.5c-4.6 4.4-8.7 9.2-13.4 13.8z"/><circle class="cls-7" cx="440.5" cy="355.4" r="2.9"/><circle class="cls-8" cx="430.4" cy="328" r="2.5"/><path class="cls-6" d="M414.7 455.7h2.4a5.6 5.6 0 0 1 .7-1.2v-7.2a1.6 1.6 0 0 1-.7-1c0-.7.5-1.4.6-2l-.1-.9a2.6 2.6 0 0 1 .4-2.6h-.4v-14.9a1.4 1.4 0 0 1 0-1.8c-.2-.1.1-.4.2-.6a3.7 3.7 0 0 0 0-.6l-.2-.4a1 1 0 0 1 .1-1c-.3-4.3 1-8.4-3.4-12.4-2 .4-2 1-2.2 1.5-1.7 3.3-2 6.7-2.3 10-1.1 10-1.7 20-2.3 29.9-.1 1.7-.4 3.4-.4 5.1a.8.8 0 0 1 0 .1h7.6zm-310.2-79.4v-25.1a3.5 3.5 0 0 1 .7-2.2c2.2-3 4.4-6 6.5-9.2.4-.6 1.3-1.5.6-2.2s-1.5.4-2 1c-2 1.6-3.7 3.4-5.8 5.3 0-3.7.1-7.2 0-10.7s-.4-6.9-1.8-10.2a3.7 3.7 0 0 0-1 2.5 138.8 138.8 0 0 0-1.3 17.2c-.6 16.6-.9 33.2-1.2 49.8l-.2 8.6c0 .9-.2 1.1-1.1.8a33.5 33.5 0 0 1-11.3-7A43.8 43.8 0 0 1 71.7 370a45.1 45.1 0 0 1 1.6-21.7A64.5 64.5 0 0 1 90 320.2a37 37 0 0 1 4.6-3.7 12 12 0 0 1 12.6-1.3 56.8 56.8 0 0 1 31 37c1.6 9-.3 17.3-4.6 25.2a50.1 50.1 0 0 1-25 23.3l-2.8 1c-1 .3-1.2.1-1.2-1v-16a2.7 2.7 0 0 1 .7-1.7c4.2-5.1 8.6-10 12.4-15.4a21 21 0 0 0 2.8-5.3c.2-.4.6-1 0-1.4s-.8.2-1.1.5l-3.5 3c-3.9 3.7-7.4 7.9-11.4 11.9z"/><circle class="cls-8" cx="124.4" cy="358.2" r="2.5"/><circle class="cls-2" cx="116.8" cy="335.1" r="2.5"/><path class="cls-6" d="M102.3 457.8h2a7.4 7.4 0 0 1 .6-1.3v-8.3a2 2 0 0 1-.5-1.1 9 9 0 0 1 .5-2.3l-.1-1a3.8 3.8 0 0 1 .3-3h-.3v-17.1a2.1 2.1 0 0 1 0-2c-.2-.2 0-.6.1-.8a5.6 5.6 0 0 0 0-.7c0-.2-.1-.3 0-.4a1.5 1.5 0 0 1 0-1.2c-.4-4.8.8-9.6-3-14.2-1.6.5-1.6 1.2-1.9 1.8a41.5 41.5 0 0 0-2 11.5c-.9 11.4-1.4 22.9-2 34.3 0 2-.3 4-.3 5.9a1.2 1.2 0 0 1 0 .1c2.2-.2 4.4-.2 6.6-.2z"/><circle class="cls-2" cx="380.3" cy="408.7" r="2.7"/><circle class="cls-12" cx="372" cy="383.5" r="2.7"/><path class="cls-13" d="M356.1 502.5h2.3a5.3 5.3 0 0 1 .6-1.2v-6.7a1.5 1.5 0 0 1-.6-1c0-.5.4-1.1.6-1.8l-.1-.7a2.4 2.4 0 0 1 .3-2.5h-.3v-14a1.3 1.3 0 0 1-.1-1.6c-.1-.1.2-.4.2-.6a3.4 3.4 0 0 0 0-.6v-.3a1 1 0 0 1 0-1c-.3-4 .9-7.8-3.2-11.5-1.8.3-1.8.9-2 1.4a24 24 0 0 0-2.3 9.4c-1 9.3-1.5 18.6-2 27.8-.2 1.6-.5 3.2-.5 4.8a.7.7 0 0 1 0 .1h7.1z"/><path class="cls-6" d="M264 373.2v-25a3.5 3.5 0 0 1 .7-2.2l6.5-9.2c.4-.7 1.3-1.6.6-2.2s-1.5.4-2 .9c-2 1.7-3.7 3.4-5.8 5.4 0-3.8.1-7.3 0-10.7s-.4-6.9-1.8-10.3a3.7 3.7 0 0 0-1 2.6 138.8 138.8 0 0 0-1.3 17.1c-.6 16.6-.9 33.3-1.2 49.9l-.2 8.6c0 .8-.2 1-1.1.8a33.5 33.5 0 0 1-11.3-7 43.9 43.9 0 0 1-14.8-25 45.1 45.1 0 0 1 1.6-21.6 64.5 64.5 0 0 1 16.6-28.2 37 37 0 0 1 4.6-3.7 12 12 0 0 1 12.6-1.2 56.8 56.8 0 0 1 31 36.8 38 38 0 0 1-4.5 25.4 50.1 50.1 0 0 1-25 23.3l-2.8 1c-1 .3-1.3 0-1.3-1v-16a2.7 2.7 0 0 1 .8-1.8c4.1-5.1 8.5-10 12.4-15.3a21 21 0 0 0 2.8-5.4c.1-.4.6-1 0-1.3s-.9.1-1.2.4l-3.5 3c-3.9 3.8-7.4 8-11.4 12z"/><circle class="cls-14" cx="284" cy="355.2" r="2.5"/><circle class="cls-8" cx="276.4" cy="332" r="2.5"/><path class="cls-6" d="M261.8 457h2.1a8 8 0 0 1 .6-1.4v-8.7a2.1 2.1 0 0 1-.6-1.1 9.8 9.8 0 0 1 .5-2.4v-1a4 4 0 0 1 .3-3.1h-.4v-17.9a2.3 2.3 0 0 1 0-2c-.1-.3.1-.6.2-.8a6 6 0 0 0 0-.8c-.2-.3-.2-.4-.1-.4a1.6 1.6 0 0 1 0-1.3c-.3-5 .8-10-3-14.8-1.6.5-1.6 1.2-1.8 1.8-1.5 4-1.7 8-2 12-1 12-1.5 23.8-2 35.7 0 2-.3 4.1-.3 6.2a1.3 1.3 0 0 1 0 .1l6.5-.1z"/><path class="cls-13" d="M568.8 405.8v-22.1a3 3 0 0 1 .7-1.9l5.7-8.1c.4-.6 1.2-1.4.6-2s-1.4.4-1.9.8a184 184 0 0 0-5 4.8v-9.5a26 26 0 0 0-1.6-9 3.2 3.2 0 0 0-1 2.3 122.7 122.7 0 0 0-1.1 15.1c-.5 14.7-.8 29.4-1.1 44l-.2 7.6c0 .8-.2 1-1 .7a29.6 29.6 0 0 1-10-6.1 38.9 38.9 0 0 1-13-22 39.7 39.7 0 0 1 1.3-19.2 57 57 0 0 1 14.8-24.9 32.7 32.7 0 0 1 4-3.3 10.6 10.6 0 0 1 11.2-1 49.9 49.9 0 0 1 18.8 15 39.6 39.6 0 0 1 8.5 17.5c1.5 8-.1 15.4-4 22.4a44.3 44.3 0 0 1-22 20.6l-2.5.8c-.8.3-1.2.2-1.1-.8v-14.1a2.4 2.4 0 0 1 .7-1.6c3.6-4.5 7.5-8.9 11-13.6a18.5 18.5 0 0 0 2.4-4.7c.2-.4.6-.9 0-1.2s-.7.1-1 .4l-3 2.6c-3.5 3.4-6.7 7-10.2 10.5z"/><circle class="cls-13" cx="586.4" cy="389.9" r="2.2"/><path class="cls-13" d="M566.9 465.9h1.8a4.3 4.3 0 0 1 .5-1v-5.4a1.2 1.2 0 0 1-.5-.8c0-.5.4-1 .5-1.5l-.1-.6a2 2 0 0 1 .3-2h-.3v-11.2a1 1 0 0 1-.1-1.4l.2-.5a2.8 2.8 0 0 0 0-.5l-.1-.2a.8.8 0 0 1 0-.9c-.3-3.1.7-6.2-2.6-9.3-1.5.3-1.4.8-1.6 1.1a20.6 20.6 0 0 0-1.8 7.7c-.8 7.5-1.3 15-1.7 22.5-.1 1.3-.4 2.6-.4 4h5.9zM185 383v-30.8a4.3 4.3 0 0 1 .8-2.7l8-11.3c.5-.8 1.6-2 .8-2.7s-1.9.4-2.6 1l-7 6.7V330c0-4.3-.5-8.4-2.3-12.5a4.5 4.5 0 0 0-1.3 3 170.8 170.8 0 0 0-1.5 21.2c-.7 20.4-1.1 40.9-1.5 61.3l-.3 10.6c0 1-.2 1.3-1.3 1a41.1 41.1 0 0 1-14-8.6 54 54 0 0 1-18.2-30.6c-1.7-9-.6-18 2-26.7a79.4 79.4 0 0 1 20.5-34.7 45.6 45.6 0 0 1 5.6-4.6 14.7 14.7 0 0 1 15.5-1.5 70 70 0 0 1 26.2 20.8 55 55 0 0 1 11.9 24.6 46 46 0 0 1-5.6 31.1c-7 13-17 23-30.7 28.7-1.1.5-2.3.8-3.4 1.2s-1.6.1-1.6-1.1v-19.8a3.3 3.3 0 0 1 1-2.2c5-6.3 10.4-12.3 15.2-18.9a25.8 25.8 0 0 0 3.5-6.6c.1-.5.7-1.2 0-1.6-.6-.4-1 .2-1.5.5-1.4 1.2-2.9 2.4-4.2 3.7-4.8 4.7-9.2 9.8-14 14.7z"/><circle class="cls-15" cx="200.1" cy="332.3" r="3"/><path class="cls-13" d="M182.2 466.6h2.6a6 6 0 0 1 .7-1.3l-.1-7.6a1.6 1.6 0 0 1-.6-1c0-.7.4-1.4.6-2l-.1-1a2.7 2.7 0 0 1 .4-2.7h-.4v-15.7a1.5 1.5 0 0 1 0-1.9c-.2-.2.1-.5.2-.7a3.9 3.9 0 0 0 0-.6l-.2-.4a1 1 0 0 1 .1-1.1c-.4-4.5 1-8.8-3.5-13-2.1.4-2.1 1-2.4 1.6-1.8 3.5-2.1 7-2.5 10.6a682 682 0 0 0-2.4 31.4c0 1.8-.4 3.6-.4 5.4a.8.8 0 0 1 0 .1h8z"/><circle class="cls-2" cx="208.4" cy="360.6" r="2.5"/><circle class="cls-8" cx="237.6" cy="416.5" r="2.5"/><path class="cls-9" d="M312.4 371.6v-31a4.3 4.3 0 0 1 1-2.6l8-11.4c.5-.7 1.6-1.9.7-2.7s-1.9.5-2.6 1.1c-2.3 2-4.5 4.2-7 6.7v-13.2c-.2-4.2-.5-8.5-2.3-12.6a4.5 4.5 0 0 0-1.3 3.1 170.8 170.8 0 0 0-1.5 21.1c-.7 20.5-1 40.9-1.5 61.3 0 3.6-.2 7-.3 10.6 0 1.1-.2 1.4-1.3 1a41.1 41.1 0 0 1-13.9-8.6 54 54 0 0 1-18.2-30.6c-1.7-9-.6-18 2-26.6a79.4 79.4 0 0 1 20.5-34.7 45.6 45.6 0 0 1 5.6-4.6 14.7 14.7 0 0 1 15.5-1.5 70 70 0 0 1 26.2 20.8 55 55 0 0 1 11.9 24.6 46 46 0 0 1-5.5 31.1c-7 13-17 23-30.8 28.7-1.1.5-2.3.8-3.4 1.2s-1.6.1-1.6-1.2V382a3.3 3.3 0 0 1 1-2.2c5-6.3 10.4-12.3 15.2-18.9a25.8 25.8 0 0 0 3.5-6.6c.1-.5.7-1.2 0-1.6-.6-.4-1 .2-1.5.5-1.4 1.2-2.9 2.4-4.2 3.7-5 4.7-9.3 9.8-14.2 14.7z"/><circle class="cls-16" cx="327.6" cy="320.9" r="3"/><path class="cls-9" d="M309.7 455.2h2.6a6 6 0 0 1 .7-1.3v-7.6a1.6 1.6 0 0 1-.7-1c0-.7.5-1.4.7-2.1-.1.2-.2-.7-.2-.9a2.7 2.7 0 0 1 .4-2.7h-.4v-15.9a1.5 1.5 0 0 1 0-1.8c-.2-.2.1-.5.2-.7a3.9 3.9 0 0 0 0-.7l-.1-.3a1 1 0 0 1 0-1.2c-.3-4.4 1-8.7-3.5-13-2.1.5-2.1 1-2.4 1.6-1.8 3.5-2 7-2.5 10.6a682 682 0 0 0-2.4 31.5c0 1.8-.4 3.6-.4 5.4a.8.8 0 0 1 0 .1c2.7-.1 5.3-.2 8-.1z"/><circle class="cls-11" cx="335.2" cy="349.1" r="2.5"/><path class="cls-13" d="M358.5 428.4V401a3.8 3.8 0 0 1 .8-2.3l7.1-10c.5-.7 1.5-1.7.7-2.4s-1.7.4-2.3 1l-6.3 6c0-4.2.2-8 0-11.8s-.4-7.5-1.9-11.1a4 4 0 0 0-1.2 2.8 151.4 151.4 0 0 0-1.3 18.7c-.7 18-1 36.2-1.3 54.3l-.3 9.4c0 1-.2 1.2-1.2.8a36.5 36.5 0 0 1-12.3-7.6 48 48 0 0 1-16.1-27.1c-1.6-8-.6-15.9 1.7-23.6a70.3 70.3 0 0 1 18.2-30.8 40.4 40.4 0 0 1 5-4 13 13 0 0 1 13.7-1.4 62 62 0 0 1 33.7 40.3c1.9 9.8-.2 19-4.9 27.6a54.6 54.6 0 0 1-27.2 25.4l-3 1c-1 .3-1.4.2-1.4-1v-17.5a3 3 0 0 1 .8-2c4.5-5.5 9.3-11 13.5-16.7a22.9 22.9 0 0 0 3-5.9c.2-.4.7-1 0-1.4s-.9.2-1.2.5c-1.3 1-2.6 2-3.8 3.2-4.3 4.1-8.1 8.6-12.5 13z"/><circle class="cls-2" cx="579.7" cy="369.5" r="2.2"/><circle class="cls-2" cx="369.7" cy="383.3" r="2.2"/><circle class="cls-15" cx="380.4" cy="406.3" r="3"/></g></g></g><circle class="cls-17" cx="345" cy="334.7" r="118.5"/><path class="cls-18" d="M221 122h3.7v-11.8a2 2 0 0 0 0-.7 1 1 0 0 0-.4-.4 1 1 0 0 0-.4-.2 3 3 0 0 0-.6 0 5.5 5.5 0 0 0-1.1 0 9.4 9.4 0 0 0-1.4.5 12 12 0 0 0-1.5.7 7.3 7.3 0 0 0-1.4 1 4.8 4.8 0 0 0-1 1.2 2.9 2.9 0 0 0-.4 1.4 2.6 2.6 0 0 0 .2 1 1.7 1.7 0 0 0 .4.7 1 1 0 0 0 .5.2 1.8 1.8 0 0 0 .3 0 1.8 1.8 0 0 0 .9-.1 5 5 0 0 0 .6-.4l.5-.3a.9.9 0 0 1 .5-.2 1.4 1.4 0 0 1 .6 0 1.5 1.5 0 0 1 .5.4 2 2 0 0 1 .4.7 2.6 2.6 0 0 1 .2 1 3 3 0 0 1-.4 1.4 3.2 3.2 0 0 1-.8 1 3.4 3.4 0 0 1-1.2.6 4.5 4.5 0 0 1-1.2.2 4.5 4.5 0 0 1-1.8-.3 4 4 0 0 1-1.4-1 4 4 0 0 1-.8-1.4 5 5 0 0 1-.3-1.7 6.5 6.5 0 0 1 .5-2.6 7.4 7.4 0 0 1 1.4-2.1 9.6 9.6 0 0 1 2.1-1.7 14 14 0 0 1 2.6-1.2 17.6 17.6 0 0 1 3-.7 20 20 0 0 1 3-.3 8.5 8.5 0 0 1 2.7.4 3.5 3.5 0 0 1 1.4.7 1.8 1.8 0 0 1 .5 1 5.2 5.2 0 0 1 0 .9V122h7.7v-10a16.8 16.8 0 0 1 .9-5.8 11.7 11.7 0 0 1 2.3-4 8.6 8.6 0 0 1 3.1-2.2 9.3 9.3 0 0 1 3.5-.7 13.8 13.8 0 0 1 2.3.2 7.8 7.8 0 0 1 1.8.6 3.7 3.7 0 0 1 1.3.8 1.8 1.8 0 0 1 .5 1.3 1.9 1.9 0 0 1-.4 1 1.4 1.4 0 0 1-.4.4.8.8 0 0 1-.4.2 1 1 0 0 1-.7-.3 3 3 0 0 1-.5-.6l-.5-.7a5 5 0 0 0-.6-.8 3 3 0 0 0-.7-.5 1.8 1.8 0 0 0-1-.2 2.8 2.8 0 0 0-2 .6 4.4 4.4 0 0 0-1 2 15 15 0 0 0-.6 3.4V122h4v1.8h-4v12.6a1.6 1.6 0 0 0 .2 1 1 1 0 0 0 .8.4 2.8 2.8 0 0 0 1-.2l1-.4.3.8-1.1.6a12.2 12.2 0 0 1-1.3.6 10.6 10.6 0 0 1-1.6.5 7.7 7.7 0 0 1-1.8.2 5.8 5.8 0 0 1-2.2-.3 3.3 3.3 0 0 1-1.4-1 3.3 3.3 0 0 1-.6-1.4 7.8 7.8 0 0 1-.2-1.6v-11.8h-7.6v10.4a11 11 0 0 1-1 4.9 10 10 0 0 1-2.8 3.5 12.2 12.2 0 0 1-4.2 2 18.6 18.6 0 0 1-5.2.7 11.4 11.4 0 0 1-2-.1 8.3 8.3 0 0 1-1.7-.5 3.9 3.9 0 0 1-1.2-.8 1.3 1.3 0 0 1-.4-.9 2.9 2.9 0 0 1 0-.8 2.4 2.4 0 0 1 .4-.6 2 2 0 0 1 .5-.6 1.2 1.2 0 0 1 .7-.2.5.5 0 0 1 .4.3 4.3 4.3 0 0 1 .3.5l.4.8a3.2 3.2 0 0 0 .7.7 3.3 3.3 0 0 0 .9.6 3.5 3.5 0 0 0 1.3.2 6 6 0 0 0 2.8-.6 5.1 5.1 0 0 0 1.9-1.6 7.4 7.4 0 0 0 1-2.5 13.3 13.3 0 0 0 .4-3.2v-12.2H221zm38.6-4a4.9 4.9 0 0 0-1.3.2 4.5 4.5 0 0 0-1 .5 2.5 2.5 0 0 0-.7.5 1 1 0 0 0-.3.6.5.5 0 0 0 .4.4l.7.3a2.4 2.4 0 0 1 .7.5 1.3 1.3 0 0 1 .3 1 1.8 1.8 0 0 1-.2.8 2.2 2.2 0 0 1-1.2 1.1 2.3 2.3 0 0 1-.8.2 2.4 2.4 0 0 1-1.9-.8 3 3 0 0 1-.7-2.1 3.5 3.5 0 0 1 .7-2.2 5.2 5.2 0 0 1 1.7-1.4 8.7 8.7 0 0 1 2.4-.9 13.4 13.4 0 0 1 5.8 0 7.8 7.8 0 0 1 2.6 1.2 5.8 5.8 0 0 1 1.8 2 5.7 5.7 0 0 1 .7 2.8v12.1a1.3 1.3 0 0 0 0 .4.8.8 0 0 0 .3.3.8.8 0 0 0 .5.2 1 1 0 0 0 .7-.3 5.5 5.5 0 0 0 .6-.6l.5.4-.8 1a6 6 0 0 1-2.5 1.8 5.3 5.3 0 0 1-1.9.3 3.7 3.7 0 0 1-2.3-.8 3.8 3.8 0 0 1-1.3-2.4 8.8 8.8 0 0 1-1.4 1.5 7.5 7.5 0 0 1-1.4 1 6.5 6.5 0 0 1-1.5.6 7.1 7.1 0 0 1-1.6.1 6 6 0 0 1-1.9-.3 4.6 4.6 0 0 1-1.7-1 4.8 4.8 0 0 1-1.1-1.7 6.9 6.9 0 0 1-.5-2.7 5.8 5.8 0 0 1 .8-3 6.7 6.7 0 0 1 2-2 13.2 13.2 0 0 1 2.7-1.5l3.2-1.2a3.4 3.4 0 0 0 1.7-1.4 3.8 3.8 0 0 0 .6-2 3.4 3.4 0 0 0-1-2.5 3.3 3.3 0 0 0-2.4-1zm3.3 9.1a1 1 0 0 0-.3-.7 1.3 1.3 0 0 0-.9-.3 3 3 0 0 0-1.4.3 3.4 3.4 0 0 0-1.1 1 5 5 0 0 0-.8 1.6 7.4 7.4 0 0 0-.3 2.2 9.3 9.3 0 0 0 .2 2 3.9 3.9 0 0 0 .4 1.2 1.7 1.7 0 0 0 .7.7 2 2 0 0 0 .9.2 2 2 0 0 0 1-.3 3 3 0 0 0 .8-.7 3.6 3.6 0 0 0 .6-1 3 3 0 0 0 .2-1zm25-3.6a2.6 2.6 0 0 1-1.1-.2 1.9 1.9 0 0 1-.7-.5 2.2 2.2 0 0 1-.4-.7 2.8 2.8 0 0 1-.1-.9 7.7 7.7 0 0 1 0-1 3.6 3.6 0 0 0 0-1 1 1 0 0 0-.3-.6 1.4 1.4 0 0 0-1-.3 3.4 3.4 0 0 0-1.5.4 4.3 4.3 0 0 0-1.5 1.3 7.6 7.6 0 0 0-1 2.3 11.4 11.4 0 0 0-.5 3.4 18 18 0 0 0 .4 4 9.5 9.5 0 0 0 1.2 3 5.8 5.8 0 0 0 2 2 6 6 0 0 0 4.2.6 6 6 0 0 0 1.2-.5 7.9 7.9 0 0 0 1.1-.6q.6-.4 1-.9l.6.5a14.2 14.2 0 0 1-1.3 1.4 10 10 0 0 1-1.8 1.5 10.4 10.4 0 0 1-2.4 1.1 10.7 10.7 0 0 1-3.3.5 9.3 9.3 0 0 1-3.5-.7 9 9 0 0 1-3-2 10 10 0 0 1-2-3.3 11 11 0 0 1-.9-4.3 12 12 0 0 1 .5-3.4 11.4 11.4 0 0 1 1.3-3 10.8 10.8 0 0 1 1.9-2.2 12 12 0 0 1 2.3-1.6 11 11 0 0 1 2.5-1 9.4 9.4 0 0 1 2.4-.3 9 9 0 0 1 2.6.3 6 6 0 0 1 2 1 3.8 3.8 0 0 1 1.1 1.2 3.5 3.5 0 0 1 .4 1.6 4.2 4.2 0 0 1-.2 1.1 3 3 0 0 1-.5 1 2.2 2.2 0 0 1-.7.7 2.3 2.3 0 0 1-1 .1zm12.4-1.5l1.6-2a14.3 14.3 0 0 1 1.8-1.8 9.1 9.1 0 0 1 2-1.3 5.8 5.8 0 0 1 2.5-.6 3.8 3.8 0 0 1 2 .5 4.3 4.3 0 0 1 1.2 1.1 4.1 4.1 0 0 1 .7 1.4 4.6 4.6 0 0 1 .2 1.2 8 8 0 0 1-.2 1.9 7.1 7.1 0 0 1-.8 2 8.7 8.7 0 0 1-1.6 1.8 10.4 10.4 0 0 1-2.4 1.7 71.5 71.5 0 0 0 3.8 7 35.5 35.5 0 0 0 3.6 5 14 14 0 0 0 3.3 2.8 6 6 0 0 0 3 .9 2 2 0 0 0 .5 0 3.5 3.5 0 0 0 .4-.2 4.6 4.6 0 0 0 .5-.2l.4.7-1.2.6a8 8 0 0 1-1.3.5 12.3 12.3 0 0 1-1.7.3 18.6 18.6 0 0 1-2.3.1 10.2 10.2 0 0 1-2.4-.3 8.3 8.3 0 0 1-2.4-1 13.5 13.5 0 0 1-2.5-2 22.2 22.2 0 0 1-2.5-3.1 45.3 45.3 0 0 1-2.6-4.6q-1.4-2.6-2.9-6.1a21.7 21.7 0 0 0 3.1-2.7 13.3 13.3 0 0 0 1.8-2.3 6 6 0 0 0 .7-1.8 7.6 7.6 0 0 0 .1-1.3v-.3a1 1 0 0 0 0-.4 1 1 0 0 0-.4-.3 1.1 1.1 0 0 0-.6-.2 2.5 2.5 0 0 0-1.6.7 9.2 9.2 0 0 0-1.5 1.6 15.6 15.6 0 0 0-1.3 2l-1 2V136a2.7 2.7 0 0 1 0 .7 1.5 1.5 0 0 1-.5.7 2.8 2.8 0 0 1-1 .6 5.2 5.2 0 0 1-1.7.2 4.6 4.6 0 0 1-1.8-.3 2.4 2.4 0 0 1-.9-.6 1.6 1.6 0 0 1-.4-.7 3.3 3.3 0 0 1 0-.6v-26.7a2 2 0 0 0-.3-1 1 1 0 0 0-1-.5 1.5 1.5 0 0 0-.5.2 2.6 2.6 0 0 0-.6.3l-.4-.5a12.3 12.3 0 0 1 1-.8 7.7 7.7 0 0 1 1.3-.7 9.5 9.5 0 0 1 1.5-.4 7.2 7.2 0 0 1 1.7-.2 4.9 4.9 0 0 1 2 .3 2.7 2.7 0 0 1 1.1 1 2.6 2.6 0 0 1 .5 1 8.7 8.7 0 0 1 0 1z"/><path class="cls-18" d="M323.1 118.2v15.3a2.2 2.2 0 0 0 .5 1.5 1.5 1.5 0 0 0 1.1.4 1.7 1.7 0 0 0 1-.3 3.6 3.6 0 0 0 .8-.7 4.4 4.4 0 0 0 .6-1l.6.3-.7 1.4a5.8 5.8 0 0 1-3 2.6 6.9 6.9 0 0 1-2.6.5 5.7 5.7 0 0 1-1.7-.3 4.1 4.1 0 0 1-1.5-.8 4.3 4.3 0 0 1-1-1.5 5 5 0 0 1-.4-2v-15.4h-2.3v-1.5a6.3 6.3 0 0 0 1.6-.3 8 8 0 0 0 2.1-1 8.4 8.4 0 0 0 2-2 7.2 7.2 0 0 0 1.3-2.8h1.7v6h3.4q1.6 0 1.6-.5a.3.3 0 0 0-.2-.3l-.4-.2a1.5 1.5 0 0 1-.5-.3 1 1 0 0 1-.2-.7 1.2 1.2 0 0 1 .3-.9 1.3 1.3 0 0 1 1-.3 1.3 1.3 0 0 1 .6.2 1.4 1.4 0 0 1 .5.4 1.9 1.9 0 0 1 .3.6 2.4 2.4 0 0 1 0 .6 3 3 0 0 1-.7 2.2 3.4 3.4 0 0 1-2.5.8zm5.9 9.1a13.2 13.2 0 0 1 .8-4.8 10 10 0 0 1 2-3.4 8.5 8.5 0 0 1 3.2-2 9.9 9.9 0 0 1 3.6-.7 10.6 10.6 0 0 1 3.6.6 8.3 8.3 0 0 1 3.1 2 9.5 9.5 0 0 1 2.1 3.2 12.9 12.9 0 0 1 .8 4.8 13.6 13.6 0 0 1-.8 4.8 10.7 10.7 0 0 1-2 3.5 8.7 8.7 0 0 1-3.1 2.2 9.3 9.3 0 0 1-3.7.7 9.8 9.8 0 0 1-3.6-.7 8.6 8.6 0 0 1-3.1-2 10 10 0 0 1-2.1-3.5 13.3 13.3 0 0 1-.8-4.7zm12.7-.2v-3.2a14.4 14.4 0 0 0-.5-2.8 4.8 4.8 0 0 0-1-2 2 2 0 0 0-1.7-.6 2 2 0 0 0-1.6.7 5.2 5.2 0 0 0-1 2 14.5 14.5 0 0 0-.4 2.9l-.1 3.2v3.2a14.7 14.7 0 0 0 .5 2.9 5.2 5.2 0 0 0 1 2 2 2 0 0 0 1.6.7 2 2 0 0 0 1.7-.8 5.5 5.5 0 0 0 1-2 16.2 16.2 0 0 0 .4-3l.1-3.2zm9.7-17.8a2 2 0 0 0-.3-1 1 1 0 0 0-1-.5 1.5 1.5 0 0 0-.6.2 2.6 2.6 0 0 0-.5.3l-.4-.5a11.6 11.6 0 0 1 1-.8 8.3 8.3 0 0 1 1.3-.7 9.2 9.2 0 0 1 1.5-.4 7.2 7.2 0 0 1 1.7-.2 4.4 4.4 0 0 1 1.9.3 3 3 0 0 1 1.1.9 3 3 0 0 1 .5 1.1 5.7 5.7 0 0 1 .1 1.2v9.2l.7-.6a5.8 5.8 0 0 1 1-.6 6.5 6.5 0 0 1 1.4-.6 7.6 7.6 0 0 1 2-.2 6.3 6.3 0 0 1 2.7.6 6.7 6.7 0 0 1 2.4 1.9 10.3 10.3 0 0 1 1.7 3.4 16.1 16.1 0 0 1 .6 4.9 14.6 14.6 0 0 1-.6 4.3 10.4 10.4 0 0 1-1.8 3.5 8.5 8.5 0 0 1-3 2.3 9.5 9.5 0 0 1-4.2 1 10.2 10.2 0 0 1-4.3-1 7.6 7.6 0 0 1-2.9-2.2 9 9 0 0 1-1.5-3.3 16.5 16.5 0 0 1-.5-4zm12.3 18.3a29 29 0 0 0-.2-3.4 13.2 13.2 0 0 0-.6-2.8 5.3 5.3 0 0 0-1-1.9 2 2 0 0 0-1.6-.7 2 2 0 0 0-1.2.4 3.3 3.3 0 0 0-.8.7 3.4 3.4 0 0 0-.4.9 2.3 2.3 0 0 0-.2.6v6.1a20.6 20.6 0 0 0 .8 6.6q.8 2 2.2 2t2.3-2a21.5 21.5 0 0 0 .7-6.5zm15.9.8a5.9 5.9 0 0 0 .1 1.4 8.6 8.6 0 0 0 .6 1.6 8.3 8.3 0 0 0 1 1.5 7.1 7.1 0 0 0 1.2 1.2 6 6 0 0 0 1.6 1 5.3 5.3 0 0 0 1.9.3 5.2 5.2 0 0 0 1.3-.2 5.3 5.3 0 0 0 1.2-.5 7.6 7.6 0 0 0 1-.6l1-.9.5.5a14.2 14.2 0 0 1-1.2 1.5 10 10 0 0 1-1.8 1.4 10.4 10.4 0 0 1-2.5 1.1 10.7 10.7 0 0 1-3.2.5 9.8 9.8 0 0 1-3.5-.7 8.7 8.7 0 0 1-3-2 9.6 9.6 0 0 1-2.1-3.2 13.2 13.2 0 0 1-.3-8 11.1 11.1 0 0 1 1.3-2.9 10.6 10.6 0 0 1 1.9-2.2 11.8 11.8 0 0 1 2.3-1.6 11.3 11.3 0 0 1 2.4-1 10 10 0 0 1 5.1 0 6 6 0 0 1 2 1 3.7 3.7 0 0 1 1 1.2 3.4 3.4 0 0 1 .4 1.5 3 3 0 0 1-.6 1.8 5.2 5.2 0 0 1-1.4 1.4zm4.1-4.2a3.3 3.3 0 0 0 .5-.4 1.2 1.2 0 0 0 .2-.3 2 2 0 0 0 .2-.6 5.2 5.2 0 0 0 0-.8 6.6 6.6 0 0 0 0-1.1 4.6 4.6 0 0 0-.4-1.2 3 3 0 0 0-.7-1 1.4 1.4 0 0 0-1-.3 2 2 0 0 0-1.3.4 3.5 3.5 0 0 0-.9 1.2 7.2 7.2 0 0 0-.5 1.6 18 18 0 0 0-.3 1.8l-.1 1.8v1.4zm16.7-3.4a17 17 0 0 1 1.7-2.2 11.3 11.3 0 0 1 .8-.8 7.8 7.8 0 0 1 1-.7 4.8 4.8 0 0 1 1-.5 2.8 2.8 0 0 1 1-.2 2.2 2.2 0 0 1 1.6.6 2.5 2.5 0 0 1 .6 1.8 8 8 0 0 1-.1 1.3 10 10 0 0 1-.5 1.6h-.5a2 2 0 0 0-.6-1 1.9 1.9 0 0 0-1.3-.5 3.5 3.5 0 0 0-1.3.3 7.8 7.8 0 0 0-1.2.5 10.7 10.7 0 0 0-1.1.8l-1 .8v13.5a3 3 0 0 1-.1.6 1.5 1.5 0 0 1-.4.7 2.6 2.6 0 0 1-1 .6 5 5 0 0 1-1.7.2 4.7 4.7 0 0 1-1.8-.3 2.7 2.7 0 0 1-1-.6 1.6 1.6 0 0 1-.4-.7 2.9 2.9 0 0 1 0-.6v-16a2 2 0 0 0-.3-1 1 1 0 0 0-1-.5 1.3 1.3 0 0 0-.6.2 3.2 3.2 0 0 0-.5.3l-.5-.5a11.5 11.5 0 0 1 1.1-.8 8.2 8.2 0 0 1 1.3-.7 9.2 9.2 0 0 1 1.4-.4 7.2 7.2 0 0 1 1.7-.2 4.3 4.3 0 0 1 1.5.2 3 3 0 0 1 1 .6 3 3 0 0 1 .7.9 4.8 4.8 0 0 1 .3 1 5.2 5.2 0 0 1 .1 1l.1.7z"/><path class="cls-18" d="M420.9 107a2.5 2.5 0 0 0-1.1.3 2.3 2.3 0 0 0-.9.8 4.4 4.4 0 0 0-.6 1.4 8 8 0 0 0-.2 2v5.2h4.5v1.5h-4.5v16.3a17.6 17.6 0 0 1-.8 5.2 11.3 11.3 0 0 1-2.2 4.1 10.2 10.2 0 0 1-3.7 2.7 13 13 0 0 1-5.3 1 11.4 11.4 0 0 1-2-.2 8.4 8.4 0 0 1-1.7-.5 3.9 3.9 0 0 1-1.2-.7 1.3 1.3 0 0 1-.4-1 2.9 2.9 0 0 1 0-.7 2.3 2.3 0 0 1 .4-.7 1.8 1.8 0 0 1 .5-.5 1.2 1.2 0 0 1 .7-.2.5.5 0 0 1 .4.2 4.7 4.7 0 0 1 .3.6l.5.7a3 3 0 0 0 .6.8 3.3 3.3 0 0 0 .9.5 3.5 3.5 0 0 0 1.3.3 4 4 0 0 0 1.9-.5 4.3 4.3 0 0 0 1.4-1.1 7 7 0 0 0 1-1.8 12.9 12.9 0 0 0 .6-2.2 20.4 20.4 0 0 0 .3-2.4l.1-2.5v-17.4H408v-1.5h3.8v-2.5a10.2 10.2 0 0 1 .5-3.1 7.7 7.7 0 0 1 1.1-2.3 6.7 6.7 0 0 1 1.7-1.6 9.6 9.6 0 0 1 1.9-1 9 9 0 0 1 1.9-.5 12 12 0 0 1 1.6-.1 14 14 0 0 1 2.6.2 8 8 0 0 1 1.9.6 3.3 3.3 0 0 1 1.2.8 1.5 1.5 0 0 1 .3 1 2.6 2.6 0 0 1 0 .8 2.7 2.7 0 0 1-.4.7 1.7 1.7 0 0 1-.5.5 1.2 1.2 0 0 1-.7.2.5.5 0 0 1-.4-.2 5.5 5.5 0 0 1-.4-.7l-.4-.8a4 4 0 0 0-.6-.8 3.1 3.1 0 0 0-.9-.6 2.6 2.6 0 0 0-1.2-.2zm8.5 21.4a5.9 5.9 0 0 0 .2 1.4 8.6 8.6 0 0 0 .6 1.6 8.3 8.3 0 0 0 .9 1.5 7.1 7.1 0 0 0 1.3 1.2 6 6 0 0 0 1.5 1 5.3 5.3 0 0 0 2 .3 5.2 5.2 0 0 0 1.3-.2 5.3 5.3 0 0 0 1.2-.5 7.6 7.6 0 0 0 1-.6l1-.9.5.5a14.2 14.2 0 0 1-1.2 1.5 10 10 0 0 1-1.8 1.4 10.4 10.4 0 0 1-2.5 1.1 10.7 10.7 0 0 1-3.2.5 9.8 9.8 0 0 1-3.5-.7 8.7 8.7 0 0 1-3-2 9.6 9.6 0 0 1-2.1-3.2 13.2 13.2 0 0 1-.4-8 11.1 11.1 0 0 1 1.3-2.9 10.6 10.6 0 0 1 2-2.2 11.8 11.8 0 0 1 2.2-1.6 11.3 11.3 0 0 1 2.5-1 10 10 0 0 1 5 0 6 6 0 0 1 2 1 3.7 3.7 0 0 1 1.1 1.2 3.4 3.4 0 0 1 .4 1.5 3 3 0 0 1-.6 1.8 5.2 5.2 0 0 1-1.5 1.4zm4.2-4.2a3.3 3.3 0 0 0 .4-.4 1.2 1.2 0 0 0 .3-.3 2 2 0 0 0 .2-.6 5.2 5.2 0 0 0 0-.8 6.6 6.6 0 0 0-.1-1.1 4.6 4.6 0 0 0-.4-1.2 3 3 0 0 0-.7-1 1.4 1.4 0 0 0-1-.3 2 2 0 0 0-1.2.4 3.5 3.5 0 0 0-.9 1.2 7.2 7.2 0 0 0-.5 1.6 18 18 0 0 0-.3 1.8l-.2 1.8v1.4zm16.8-6.2a3.2 3.2 0 0 0-1 .1 2 2 0 0 0-.7.4 2 2 0 0 0-.5.7 2.5 2.5 0 0 0-.2 1 2.7 2.7 0 0 0 .6 1.6 14 14 0 0 0 1.5 1.7q.8.9 1.9 1.8a21.1 21.1 0 0 1 1.9 2 11 11 0 0 1 1.4 2.1 5.4 5.4 0 0 1 .6 2.5 6.6 6.6 0 0 1-.5 2.7 5.4 5.4 0 0 1-1.4 2 6.5 6.5 0 0 1-2.3 1.2 9.8 9.8 0 0 1-3 .4 7.8 7.8 0 0 1-2.6-.4 9.4 9.4 0 0 1-2-1 9 9 0 0 1-1.6-1.3 8.3 8.3 0 0 1-1-1.1l.7-.6a7 7 0 0 0 .7.7 6.7 6.7 0 0 0 1 .7 5.4 5.4 0 0 0 1 .5 3.6 3.6 0 0 0 1.2.2 4 4 0 0 0 2.4-.7 2.5 2.5 0 0 0 1-2.2 3.1 3.1 0 0 0-.5-1.6 12.8 12.8 0 0 0-1.3-1.7l-1.7-1.9a25 25 0 0 1-1.7-2 11.6 11.6 0 0 1-1.3-2 5.1 5.1 0 0 1-.5-2.3 4.7 4.7 0 0 1 .5-2.3 4.8 4.8 0 0 1 1.4-1.6 6.3 6.3 0 0 1 2-1 8.5 8.5 0 0 1 2.3-.3 11.9 11.9 0 0 1 2.6.2 6.2 6.2 0 0 1 2 .8 3.7 3.7 0 0 1 1.2 1.3 3.5 3.5 0 0 1 .5 1.8 2 2 0 0 1-.5 1.3 1.8 1.8 0 0 1-1.5.6 2 2 0 0 1-1.3-.4 1.3 1.3 0 0 1-.5-1 1 1 0 0 1 .2-.7 2 2 0 0 1 .5-.4l.5-.2a.3.3 0 0 0 .2-.3 1 1 0 0 0-.6-1 3.3 3.3 0 0 0-1.6-.3zm15.6.2v15.3a2.2 2.2 0 0 0 .5 1.5 1.5 1.5 0 0 0 1.1.4 1.7 1.7 0 0 0 1-.3 3.6 3.6 0 0 0 .8-.7 4.4 4.4 0 0 0 .6-1l.7.3-.8 1.4a5.8 5.8 0 0 1-2.9 2.6 6.9 6.9 0 0 1-2.7.5 5.7 5.7 0 0 1-1.7-.3 4.1 4.1 0 0 1-1.5-.8 4.3 4.3 0 0 1-1-1.5 5 5 0 0 1-.4-2v-15.4h-2.3v-1.5a6.3 6.3 0 0 0 1.6-.3 8 8 0 0 0 2.1-1 8.4 8.4 0 0 0 2-2 7.2 7.2 0 0 0 1.4-2.8h1.6v6h3.4q1.7 0 1.7-.5a.3.3 0 0 0-.2-.3l-.5-.2a1.5 1.5 0 0 1-.5-.3 1 1 0 0 1-.2-.7 1.2 1.2 0 0 1 .4-.9 1.3 1.3 0 0 1 .9-.3 1.3 1.3 0 0 1 .7.2 1.4 1.4 0 0 1 .4.4 1.9 1.9 0 0 1 .3.6 2.4 2.4 0 0 1 0 .6 3 3 0 0 1-.7 2.2 3.4 3.4 0 0 1-2.5.8zm-303.9 6.2a2.8 2.8 0 0 1 2.5-2 2.4 2.4 0 0 1 2.5 2 2.5 2.5 0 0 1-1.4 2.8 2.5 2.5 0 0 1-3.2-1l-.4-.8zm3.9.5a1.3 1.3 0 0 0-2.6 0 1.3 1.3 0 0 0 2.6 0zm12.4-21.2v8.8h28.8v2.6H176v-11.4zm29.4 19.7v2.5h-38.7v-2.5zm272.2 18V139h31.6v11.4h-2.5v-7.8c0-1 0-1-1.1-1h-28zm38.3-13.2v2.4H480v-2.4zm-18.8-25.5v15.8H480v-2.6h16.9v-12c0-1.1 0-1.1 1.1-1.1zM188 151.2v-15.6h19.5v2.5h-16c-1 0-1 0-1 1v12zm-7.2-52.4a4 4 0 0 1-4 4 4 4 0 1 1 0-8 4 4 0 0 1 4 4zm-4-1.4a1.4 1.4 0 0 0-1.3 1.3 1.3 1.3 0 0 0 1.3 1.4 1.4 1.4 0 0 0 1.4-1.3 1.4 1.4 0 0 0-1.3-1.4zM514 156.6a4 4 0 0 1-8 0 4 4 0 1 1 8 0zm-4-1.4a1.4 1.4 0 0 0-1.3 1.4 1.4 1.4 0 0 0 1.3 1.4 1.5 1.5 0 0 0 1.4-1.4 1.4 1.4 0 0 0-1.3-1.3zm15.2-28.7a2.7 2.7 0 1 1-2.7 2.6 2.6 2.6 0 0 1 2.7-2.6zM186.6 157a2.6 2.6 0 0 1 2.6-2.7 2.7 2.7 0 1 1 0 5.3 2.5 2.5 0 0 1-2.6-2.6zm311.9-56.3a2.5 2.5 0 1 1 2.5-2.5 2.5 2.5 0 0 1-2.5 2.5zm0-1.3a1.3 1.3 0 1 0 0-2.5 1.3 1.3 0 0 0-1.3 1.3 1.3 1.3 0 0 0 1.3 1.2zm-304 388.5a5 5 0 0 1 1.8 6.9 5 5 0 0 1-1.8 1.8 5.6 5.6 0 0 1-5.3 0 5 5 0 0 1-2-1.8 5 5 0 0 1 2-7 5.7 5.7 0 0 1 5.3 0zm-4.3 1.5a3.4 3.4 0 0 0-1.2 4.5 3.4 3.4 0 0 0 1.2 1.2 3.2 3.2 0 0 0 1.6.5 3.1 3.1 0 0 0 1.7-.5 3.3 3.3 0 0 0 1.2-1.2 3.3 3.3 0 0 0 .4-1.7 3.3 3.3 0 0 0-.4-1.7 3.2 3.2 0 0 0-1.2-1.2 3.2 3.2 0 0 0-1.7-.4 3.3 3.3 0 0 0-1.6.5zm14.7.7a3.3 3.3 0 0 1 1.2 1.4 4.4 4.4 0 0 1 .5 2 4.3 4.3 0 0 1-.5 2 3.2 3.2 0 0 1-1.2 1.3 3.5 3.5 0 0 1-1.8.5 3.2 3.2 0 0 1-1.5-.4 2.8 2.8 0 0 1-1-1v4h-1.9v-10.2h1.8v1.2a2.7 2.7 0 0 1 1-1 3.2 3.2 0 0 1 1.5-.3 3.5 3.5 0 0 1 1.9.5zm-.8 5a2.3 2.3 0 0 0 .6-1.7 2.3 2.3 0 0 0-.6-1.6 2.1 2.1 0 0 0-3 0 2.6 2.6 0 0 0 0 3.2 2 2 0 0 0 1.6.7 2 2 0 0 0 1.4-.7zm9.9-4.5a4.2 4.2 0 0 1 .9 3v.5h-5.5a2 2 0 0 0 2.1 1.7 2.8 2.8 0 0 0 1.1-.3 2.7 2.7 0 0 0 1-.6l1 1a3.8 3.8 0 0 1-1.4 1 4.6 4.6 0 0 1-1.8.4 4.2 4.2 0 0 1-2-.5 3.3 3.3 0 0 1-1.4-1.4 4.3 4.3 0 0 1 0-4 3.4 3.4 0 0 1 1.4-1.3 4 4 0 0 1 2-.5 3.4 3.4 0 0 1 2.6 1zm-.8 2.2a1.8 1.8 0 0 0-.5-1.3 2.1 2.1 0 0 0-2.7 0 2.1 2.1 0 0 0-.7 1.3zm9.8-2.4a3 3 0 0 1 .7 2v4.8H222V493a1.7 1.7 0 0 0-.4-1.2 1.6 1.6 0 0 0-1.3-.5 1.9 1.9 0 0 0-1.4.6 2.3 2.3 0 0 0-.5 1.6v3.6h-1.8v-7.4h1.8v1.4a2.8 2.8 0 0 1 2.7-1.5 2.7 2.7 0 0 1 2 .8zm2.8-3h7.2v1.6h-5.3v2.4h4.8v1.7h-4.8v2.4h5.5v1.7h-7.4zm16.2.6a2.1 2.1 0 0 1 .8 1.8 2.1 2.1 0 0 1-1.7 2.2 2.5 2.5 0 0 1 1.5.8 2.5 2.5 0 0 1 .6 1.7 2.3 2.3 0 0 1-1 2 4.4 4.4 0 0 1-2.7.7h-4.4v-9.8h4.3a4.1 4.1 0 0 1 2.5.6zm-1.5 3a1 1 0 0 0 .4-.9 1 1 0 0 0-.4-.9 1.8 1.8 0 0 0-1.2-.3H237v2.4h2.4a1.8 1.8 0 0 0 1-.3zm.2 4.2a1.1 1.1 0 0 0 .5-1 1 1 0 0 0-.5-1 2.4 2.4 0 0 0-1.4-.3H237v2.6h2.4a2.4 2.4 0 0 0 1.3-.3zm8.9-6a4.7 4.7 0 0 0-1.4-.3 2 2 0 0 0-1 .3.8.8 0 0 0-.4.7 1 1 0 0 0 .3.7 2.1 2.1 0 0 0 .6.4 10.7 10.7 0 0 0 1.2.4 12.4 12.4 0 0 1 1.6.6 3 3 0 0 1 1 .8 2.4 2.4 0 0 1 .5 1.5 2.6 2.6 0 0 1-.4 1.6 3 3 0 0 1-1.4 1 5 5 0 0 1-2 .4 6.1 6.1 0 0 1-2.2-.5 6.3 6.3 0 0 1-1.9-1.1l.8-1.6a5.8 5.8 0 0 0 1.7 1 4.4 4.4 0 0 0 1.7.5 2.2 2.2 0 0 0 1.2-.3 1 1 0 0 0 .2-1.6 2 2 0 0 0-.7-.4l-1.1-.4a13.4 13.4 0 0 1-1.7-.5 2.8 2.8 0 0 1-1-.9 2.3 2.3 0 0 1-.5-1.5 2.5 2.5 0 0 1 .5-1.5 3 3 0 0 1 1.3-1 5 5 0 0 1 1.9-.3 6.5 6.5 0 0 1 1.9.3 6.3 6.3 0 0 1 1.6.7l-.7 1.7a7 7 0 0 0-1.6-.7zm13.8.9a3.3 3.3 0 0 1 1.3 1.4 4.4 4.4 0 0 1 .4 2 4.3 4.3 0 0 1-.4 2 3.2 3.2 0 0 1-1.2 1.3 3.5 3.5 0 0 1-1.9.5 3.2 3.2 0 0 1-1.5-.4 2.8 2.8 0 0 1-1-1v4h-1.9v-10.2h1.8v1.2a2.7 2.7 0 0 1 1-1 3.2 3.2 0 0 1 1.5-.3 3.5 3.5 0 0 1 2 .5zm-.7 5a2.3 2.3 0 0 0 .6-1.7 2.3 2.3 0 0 0-.6-1.6 2.1 2.1 0 0 0-3 0 2.6 2.6 0 0 0 0 3.2 2 2 0 0 0 1.5.7 2 2 0 0 0 1.5-.7zm6.8-5.1a3 3 0 0 1 1.6-.4v1.8a2.5 2.5 0 0 0-1.9.5 2 2 0 0 0-.7 1.7v3.6h-1.8v-7.5h1.8v1.4a2.7 2.7 0 0 1 1-1.1zm8.2 0a3.5 3.5 0 0 1 1.4 1.4 3.9 3.9 0 0 1 .4 2 4 4 0 0 1-.4 2 3.4 3.4 0 0 1-1.4 1.4 4.3 4.3 0 0 1-2 .4 4.3 4.3 0 0 1-2.2-.4 3.4 3.4 0 0 1-1.3-1.4 4 4 0 0 1-.5-2 3.9 3.9 0 0 1 .5-2 3.4 3.4 0 0 1 1.3-1.3 4.3 4.3 0 0 1 2.1-.5 4.3 4.3 0 0 1 2 .5zm-3.6 1.8a2.6 2.6 0 0 0 0 3.3 2 2 0 0 0 1.5.6 2 2 0 0 0 1.5-.6 2.6 2.6 0 0 0 0-3.3 2 2 0 0 0-1.5-.6 2 2 0 0 0-1.5.6zm6.1 6.6a.8.8 0 0 0 .7-.3 1.5 1.5 0 0 0 .2-.9v-7.5h1.8v7.8a2.5 2.5 0 0 1-.6 1.8 2.3 2.3 0 0 1-1.7.6 3.8 3.8 0 0 1-1.5-.2l.4-1.4a2.2 2.2 0 0 0 .7.1zm2.6-11.6a1 1 0 0 1 .2.7 1 1 0 0 1-.2.8 1 1 0 0 1-1.5 0 1 1 0 0 1-.3-.8 1 1 0 0 1 .3-.7 1 1 0 0 1 1.5 0zm8.2 3.8a4.2 4.2 0 0 1 .8 3v.5h-5.5a2 2 0 0 0 2.1 1.7 2.8 2.8 0 0 0 1.1-.3 2.7 2.7 0 0 0 1-.6l1 1a3.8 3.8 0 0 1-1.4 1 4.6 4.6 0 0 1-1.8.4 4.2 4.2 0 0 1-2-.5 3.3 3.3 0 0 1-1.4-1.4 4.3 4.3 0 0 1 0-4 3.4 3.4 0 0 1 1.4-1.3 4 4 0 0 1 2-.5 3.4 3.4 0 0 1 2.6 1zm-.8 2.2a1.8 1.8 0 0 0-.6-1.3 2.1 2.1 0 0 0-2.7 0 2.1 2.1 0 0 0-.7 1.3zm6.4-1.6a2 2 0 0 0-1.5.6 2.3 2.3 0 0 0-.6 1.6 2.3 2.3 0 0 0 .6 1.7 2 2 0 0 0 1.5.6 2.4 2.4 0 0 0 2-1l1.1 1a3.3 3.3 0 0 1-1.3 1.2 4.4 4.4 0 0 1-2 .3 4 4 0 0 1-2-.4 3.4 3.4 0 0 1-1.3-1.4 4.4 4.4 0 0 1 0-4 3.4 3.4 0 0 1 1.4-1.3 4 4 0 0 1 2-.5 4.5 4.5 0 0 1 1.8.4 3.3 3.3 0 0 1 1.3 1l-1.1 1a2.5 2.5 0 0 0-2-.8zm9.1 5.5a3.5 3.5 0 0 1-2 .6 2.2 2.2 0 0 1-1.5-.6 2.2 2.2 0 0 1-.6-1.7v-3.7h-1V490h1v-2h1.9v2h2.1v1.3h-2.2v3.4a1 1 0 0 0 .2.7.8.8 0 0 0 .6.3 2.6 2.6 0 0 0 1-.4zm6.5-9.9a1 1 0 0 1 .3.7 1 1 0 0 1-.3.8 1 1 0 0 1-1.5 0 1 1 0 0 1-.3-.8 1 1 0 0 1 .3-.7 1 1 0 0 1 1.5 0zm-1.7 2.9h1.8v7.5h-1.8zm7.5 1.5a3.6 3.6 0 0 0-1.2-.2 1.4 1.4 0 0 0-.7.2.5.5 0 0 0-.3.5.6.6 0 0 0 .4.5 5.5 5.5 0 0 0 1 .4 10.6 10.6 0 0 1 1.4.5 2.4 2.4 0 0 1 .8.7 1.8 1.8 0 0 1 .4 1.2 2 2 0 0 1-.8 1.7 3.6 3.6 0 0 1-2.2.6 5.3 5.3 0 0 1-1.6-.3 4 4 0 0 1-1.4-.8l.6-1.3a3.7 3.7 0 0 0 1.2.7 4 4 0 0 0 1.3.3 1.6 1.6 0 0 0 .8-.2.6.6 0 0 0 .3-.5.6.6 0 0 0-.3-.6 6.3 6.3 0 0 0-1.2-.4 9.5 9.5 0 0 1-1.2-.5 2.2 2.2 0 0 1-.8-.6 1.8 1.8 0 0 1-.4-1.2 2 2 0 0 1 .8-1.7 3.4 3.4 0 0 1 2-.6 5.2 5.2 0 0 1 1.5.2 4.6 4.6 0 0 1 1.3.6l-.7 1.3a5.4 5.4 0 0 0-1-.5zm6.9-4.4h1.8v10.4h-1.8zm9.4 3.2a3.4 3.4 0 0 1 1.4 1.4 3.9 3.9 0 0 1 .5 2 4 4 0 0 1-.5 2 3.4 3.4 0 0 1-1.4 1.4 4.3 4.3 0 0 1-2 .4 4.3 4.3 0 0 1-2-.4 3.4 3.4 0 0 1-1.5-1.4 4 4 0 0 1-.5-2 3.9 3.9 0 0 1 .5-2 3.4 3.4 0 0 1 1.4-1.3 4.3 4.3 0 0 1 2-.5 4.3 4.3 0 0 1 2.1.5zm-3.6 1.8a2.6 2.6 0 0 0 0 3.3 2 2 0 0 0 1.6.6 2 2 0 0 0 1.5-.6 2.6 2.6 0 0 0 0-3.3 2 2 0 0 0-1.5-.6 2 2 0 0 0-1.6.6zm12.4-1.8a3.4 3.4 0 0 1 1.4 1.4 3.9 3.9 0 0 1 .5 2 4 4 0 0 1-.5 2 3.4 3.4 0 0 1-1.4 1.4 4.3 4.3 0 0 1-2 .4 4.3 4.3 0 0 1-2.1-.4 3.4 3.4 0 0 1-1.4-1.4 4 4 0 0 1-.5-2 3.9 3.9 0 0 1 .5-2 3.4 3.4 0 0 1 1.4-1.3 4.3 4.3 0 0 1 2-.5 4.3 4.3 0 0 1 2.1.5zm-3.6 1.8a2.6 2.6 0 0 0 0 3.3 2 2 0 0 0 1.6.6 2 2 0 0 0 1.5-.6 2.6 2.6 0 0 0 0-3.3 2 2 0 0 0-1.5-.6 2 2 0 0 0-1.6.6zm12.2 5.4l-2-3.3-1.2 1.2v2h-1.8v-10.3h1.8v6l3-3.1h2.2l-2.8 2.8 3 4.6zm5-10.4a1 1 0 0 1 .3.7 1 1 0 0 1-.3.8 1 1 0 0 1-1.5 0 1 1 0 0 1-.3-.8 1 1 0 0 1 .3-.7 1 1 0 0 1 1.5 0zm-1.6 2.9h1.8v7.5H355zm10.6.7a3 3 0 0 1 .7 2v4.8h-1.8V493a1.7 1.7 0 0 0-.5-1.2 1.6 1.6 0 0 0-1.2-.5 1.9 1.9 0 0 0-1.4.6 2.3 2.3 0 0 0-.5 1.6v3.6h-2v-7.4h1.9v1.4a2.8 2.8 0 0 1 2.7-1.5 2.7 2.7 0 0 1 2 .8zm9.6-.7v6.8a3.5 3.5 0 0 1-.5 1.8 3.2 3.2 0 0 1-1.4 1.2 4.7 4.7 0 0 1-2 .5 5.5 5.5 0 0 1-3.2-1l.7-1.4a3.9 3.9 0 0 0 2.4.8 2.4 2.4 0 0 0 1.6-.5 1.8 1.8 0 0 0 .6-1.4v-.9a2.5 2.5 0 0 1-1 .9 3 3 0 0 1-1.4.3 3.3 3.3 0 0 1-1.8-.5 3.1 3.1 0 0 1-1.1-1.2 4 4 0 0 1-.5-2 4 4 0 0 1 .5-1.8 3 3 0 0 1 1.1-1.2 3.3 3.3 0 0 1 1.8-.5 3 3 0 0 1 1.4.3 2.6 2.6 0 0 1 1 1v-1.2zm-2.4 5a2.4 2.4 0 0 0 0-3 2 2 0 0 0-2.8 0 2.4 2.4 0 0 0 0 3 2 2 0 0 0 2.8 0zm10.4-6.2a.9.9 0 0 0-.3.7v.8h2v1.3h-2v5.9h-1.8v-5.9h-1V490h1v-.7a2.6 2.6 0 0 1 .3-1.4 2.3 2.3 0 0 1 1-.9 3 3 0 0 1 1.4-.3 3.1 3.1 0 0 1 1.3.3l-.3 1.5a2.6 2.6 0 0 0-1-.2 1 1 0 0 0-.6.2zm7.9 1.5a3.4 3.4 0 0 1 1.4 1.4 3.9 3.9 0 0 1 .5 2 4 4 0 0 1-.5 2 3.4 3.4 0 0 1-1.4 1.4 4.3 4.3 0 0 1-2 .4 4.3 4.3 0 0 1-2.1-.4 3.4 3.4 0 0 1-1.4-1.4 4 4 0 0 1-.5-2 3.9 3.9 0 0 1 .5-2 3.4 3.4 0 0 1 1.4-1.3 4.3 4.3 0 0 1 2-.5 4.3 4.3 0 0 1 2 .5zm-3.6 1.8a2.6 2.6 0 0 0 0 3.3 2 2 0 0 0 1.5.6 2 2 0 0 0 1.5-.6 2.6 2.6 0 0 0 0-3.3 2 2 0 0 0-1.5-.6 2 2 0 0 0-1.5.6zm9.9-1.8a3 3 0 0 1 1.5-.4v1.8a2.5 2.5 0 0 0-1.8.5 2 2 0 0 0-.7 1.7v3.6h-1.9v-7.5h1.9v1.4a2.7 2.7 0 0 1 1-1.1zm9.4 1.2a2 2 0 0 0-1.5.6 2.3 2.3 0 0 0-.6 1.6 2.3 2.3 0 0 0 .6 1.7 2 2 0 0 0 1.5.6 2.4 2.4 0 0 0 2-1l1.1 1a3.3 3.3 0 0 1-1.3 1.2 4.4 4.4 0 0 1-2 .3 4 4 0 0 1-2-.4 3.4 3.4 0 0 1-1.3-1.4 4.4 4.4 0 0 1 0-4 3.4 3.4 0 0 1 1.4-1.3 4 4 0 0 1 2-.5 4.5 4.5 0 0 1 1.8.4 3.3 3.3 0 0 1 1.3 1l-1 1a2.5 2.5 0 0 0-2-.8zm9.8-1.2a3.4 3.4 0 0 1 1.4 1.4 3.9 3.9 0 0 1 .5 2 4 4 0 0 1-.5 2 3.4 3.4 0 0 1-1.4 1.4 4.3 4.3 0 0 1-2 .4 4.3 4.3 0 0 1-2.1-.4 3.4 3.4 0 0 1-1.4-1.4 4 4 0 0 1-.5-2 3.9 3.9 0 0 1 .5-2 3.4 3.4 0 0 1 1.4-1.3 4.3 4.3 0 0 1 2-.5 4.3 4.3 0 0 1 2 .5zm-3.6 1.8a2.6 2.6 0 0 0 0 3.3 2 2 0 0 0 1.5.6 2 2 0 0 0 1.5-.6 2.6 2.6 0 0 0 0-3.3 2 2 0 0 0-1.5-.6 2 2 0 0 0-1.5.6zm13.6-1.4a3 3 0 0 1 .7 2v4.8h-1.8V493a1.7 1.7 0 0 0-.5-1.2 1.6 1.6 0 0 0-1.2-.5 1.9 1.9 0 0 0-1.4.6 2.3 2.3 0 0 0-.5 1.6v3.6h-2v-7.4h1.9v1.4a2.8 2.8 0 0 1 2.7-1.5 2.7 2.7 0 0 1 2 .8zm7.1 6.3a3.5 3.5 0 0 1-1.8.6 2.3 2.3 0 0 1-1.6-.6 2.2 2.2 0 0 1-.6-1.7v-3.7h-1V490h1v-2h1.8v2h2.1v1.3h-2.1v3.4a1 1 0 0 0 .2.7.8.8 0 0 0 .6.3 2.6 2.6 0 0 0 1-.4zm4.3-6.7a3 3 0 0 1 1.5-.4v1.8a2.5 2.5 0 0 0-1.8.5 2 2 0 0 0-.7 1.7v3.6h-1.8v-7.5h1.8v1.4a2.7 2.7 0 0 1 1-1.1zm4.4-3.2a1 1 0 0 1 .3.7 1 1 0 0 1-.3.8 1 1 0 0 1-1.4 0 1 1 0 0 1-.3-.8 1 1 0 0 1 .3-.7 1 1 0 0 1 1.4 0zm-1.6 2.9h1.8v7.5H441zm10.4.4a3.3 3.3 0 0 1 1.2 1.4 4.3 4.3 0 0 1 .4 2 4.3 4.3 0 0 1-.4 2 3.2 3.2 0 0 1-1.2 1.3 3.5 3.5 0 0 1-1.9.5 3.2 3.2 0 0 1-1.5-.4 2.8 2.8 0 0 1-1-1v1.3H445v-10.4h1.8v4.1a2.7 2.7 0 0 1 1-1 3.2 3.2 0 0 1 1.5-.3 3.5 3.5 0 0 1 2 .5zm-.8 4.9a2.3 2.3 0 0 0 .6-1.6 2.3 2.3 0 0 0-.6-1.6 2.1 2.1 0 0 0-3 0 2.6 2.6 0 0 0 0 3.2 2 2 0 0 0 1.5.6 2 2 0 0 0 1.5-.6zm10.9-5.3v7.5h-1.8v-1.4a2.7 2.7 0 0 1-2.6 1.4 2.6 2.6 0 0 1-2-.7 3 3 0 0 1-.7-2.1v-4.7h1.8v4.1a1.7 1.7 0 0 0 .4 1.3 1.6 1.6 0 0 0 1.2.4 1.7 1.7 0 0 0 1.4-.6 2.3 2.3 0 0 0 .5-1.5v-3.7zm6.6 7a3.5 3.5 0 0 1-1.8.6 2.3 2.3 0 0 1-1.6-.6 2.2 2.2 0 0 1-.6-1.7v-3.7h-1V490h1v-2h1.8v2h2.2v1.3h-2.1v3.4a1 1 0 0 0 .2.7.8.8 0 0 0 .5.3 2.6 2.6 0 0 0 1.1-.4zm3.1-9.9a1 1 0 0 1 .3.7 1 1 0 0 1-.2.8 1 1 0 0 1-1.5 0 1 1 0 0 1-.3-.8 1 1 0 0 1 .3-.7 1 1 0 0 1 1.4 0zm-1.6 2.9h1.8v7.5h-1.8zm9.5.3a3.4 3.4 0 0 1 1.3 1.4 3.9 3.9 0 0 1 .5 2 4 4 0 0 1-.5 2 3.4 3.4 0 0 1-1.4 1.4 4.3 4.3 0 0 1-2 .4 4.3 4.3 0 0 1-2.1-.4 3.4 3.4 0 0 1-1.4-1.4 4 4 0 0 1-.5-2 3.9 3.9 0 0 1 .5-2 3.4 3.4 0 0 1 1.4-1.3 4.3 4.3 0 0 1 2-.5 4.3 4.3 0 0 1 2.1.5zm-3.7 1.8a2.6 2.6 0 0 0 0 3.3 2 2 0 0 0 1.6.6 2 2 0 0 0 1.5-.6 2.6 2.6 0 0 0 0-3.3 2 2 0 0 0-1.5-.6 2 2 0 0 0-1.6.6zm13.7-1.4a3 3 0 0 1 .7 2v4.8h-1.9V493a1.7 1.7 0 0 0-.4-1.2 1.6 1.6 0 0 0-1.2-.5 1.9 1.9 0 0 0-1.5.6 2.3 2.3 0 0 0-.5 1.6v3.6h-1.8v-7.4h1.8v1.4a2.8 2.8 0 0 1 2.7-1.5 2.7 2.7 0 0 1 2 .8zm6 .8a3.6 3.6 0 0 0-1-.2 1.4 1.4 0 0 0-.8.2.5.5 0 0 0-.3.5.6.6 0 0 0 .4.5 5.5 5.5 0 0 0 1 .4 10.7 10.7 0 0 1 1.3.5 2.4 2.4 0 0 1 1 .7 1.8 1.8 0 0 1 .3 1.2 2 2 0 0 1-.9 1.7 3.6 3.6 0 0 1-2 .6 5.3 5.3 0 0 1-1.8-.3 4 4 0 0 1-1.4-.8l.7-1.3a3.7 3.7 0 0 0 1.2.7 4 4 0 0 0 1.3.3 1.6 1.6 0 0 0 .8-.2.6.6 0 0 0 .3-.5.6.6 0 0 0-.3-.6 6.3 6.3 0 0 0-1.2-.4 9.5 9.5 0 0 1-1.2-.5 2.2 2.2 0 0 1-.8-.6 1.8 1.8 0 0 1-.4-1.2 2 2 0 0 1 .8-1.7 3.4 3.4 0 0 1 2-.6 5.2 5.2 0 0 1 1.5.2 4.5 4.5 0 0 1 1.2.6l-.6 1.3a5.4 5.4 0 0 0-1.1-.5zm8.2 4.4a1 1 0 0 1 .2.7 1 1 0 0 1-.2.7 1 1 0 0 1-.7.3.9.9 0 0 1-.7-.3 1 1 0 0 1-.3-.7 1 1 0 0 1 .3-.8 1 1 0 0 1 .7-.2 1 1 0 0 1 .7.3zm-1.6-8.1h1.8v2.4l-.4 4.1h-1.1l-.3-4zm-265.7 16.7h2l-3.4 9.8h-2l-2.2-7.5-2.3 7.5h-2l-3.2-9.8h2l2.3 7.8 2.3-7.8h1.8l2.3 7.8zm8.1 3.2a4.2 4.2 0 0 1 .9 3v.5h-5.5a2 2 0 0 0 2.1 1.7 2.9 2.9 0 0 0 1.1-.2 2.7 2.7 0 0 0 1-.7l1 1a3.8 3.8 0 0 1-1.4 1 4.6 4.6 0 0 1-1.8.4 4.2 4.2 0 0 1-2-.5 3.3 3.3 0 0 1-1.4-1.3 4.3 4.3 0 0 1 0-4 3.4 3.4 0 0 1 1.4-1.4 4 4 0 0 1 2-.5 3.4 3.4 0 0 1 2.6 1zm-.8 2.2a1.8 1.8 0 0 0-.5-1.3 2.1 2.1 0 0 0-2.7 0 2.1 2.1 0 0 0-.7 1.3zm11.1 4.4v-1a2.5 2.5 0 0 1-1 .7 3.7 3.7 0 0 1-1.4.3 3 3 0 0 1-1.4-.3 2.2 2.2 0 0 1-.9-.8 2.3 2.3 0 0 1-.3-1.2 2 2 0 0 1 .7-1.7 3.3 3.3 0 0 1 2.1-.6h2.2v-.2a1.3 1.3 0 0 0-.4-1 2 2 0 0 0-1.3-.3 4.3 4.3 0 0 0-2.2.7l-.7-1.3a8.3 8.3 0 0 1 1.6-.7 5.8 5.8 0 0 1 1.7-.2 3.3 3.3 0 0 1 2.3.7 2.5 2.5 0 0 1 .8 2v4.9zm-.6-1.7a1.3 1.3 0 0 0 .6-1v-.6h-1.9a2 2 0 0 0-1 .2.8.8 0 0 0-.4.7 1 1 0 0 0 .4.8 1.5 1.5 0 0 0 1 .3 2.4 2.4 0 0 0 1.3-.4zm7.3-5.5a3 3 0 0 1 1.5-.4v1.8a2.5 2.5 0 0 0-1.8.5 2 2 0 0 0-.7 1.6v3.7h-1.8v-7.5h1.8v1.4a2.7 2.7 0 0 1 1-1.1zm8.6.6a4.2 4.2 0 0 1 1 3v.5H265a2 2 0 0 0 2.1 1.7 2.9 2.9 0 0 0 1.1-.2 2.7 2.7 0 0 0 1-.7l1 1a3.8 3.8 0 0 1-1.4 1 4.6 4.6 0 0 1-1.8.3 4.2 4.2 0 0 1-2-.5 3.3 3.3 0 0 1-1.4-1.3 4.3 4.3 0 0 1 0-4 3.4 3.4 0 0 1 1.4-1.3 4 4 0 0 1 2-.5 3.4 3.4 0 0 1 2.6 1zm-.7 2.2a1.8 1.8 0 0 0-.6-1.3 2.1 2.1 0 0 0-2.7 0 2.1 2.1 0 0 0-.7 1.3zm9.8-1.6a2 2 0 0 0-1.5.6 2.3 2.3 0 0 0-.5 1.6 2.3 2.3 0 0 0 .5 1.6 2 2 0 0 0 1.5.7 2.4 2.4 0 0 0 2-1l1.2 1a3.3 3.3 0 0 1-1.4 1.1 4.4 4.4 0 0 1-1.9.4 4 4 0 0 1-2-.4 3.4 3.4 0 0 1-1.3-1.4 4.4 4.4 0 0 1 0-4 3.4 3.4 0 0 1 1.3-1.3 4 4 0 0 1 2-.5 4.5 4.5 0 0 1 1.8.4 3.3 3.3 0 0 1 1.3 1l-1 1a2.5 2.5 0 0 0-2-.8zm10.3-.6a4.2 4.2 0 0 1 .9 3v.5h-5.5a2 2 0 0 0 2.1 1.7 2.9 2.9 0 0 0 1.1-.2 2.7 2.7 0 0 0 1-.7l1 1a3.8 3.8 0 0 1-1.4 1 4.6 4.6 0 0 1-1.8.4 4.2 4.2 0 0 1-2-.5 3.3 3.3 0 0 1-1.4-1.3 4.3 4.3 0 0 1 0-4 3.4 3.4 0 0 1 1.4-1.4 4 4 0 0 1 2-.5 3.4 3.4 0 0 1 2.6 1zm-.8 2.2a1.8 1.8 0 0 0-.5-1.3 2.1 2.1 0 0 0-2.7 0 2.1 2.1 0 0 0-.7 1.3zm3.3-6h1.8V514h-1.8zm10 3.8a4.2 4.2 0 0 1 .9 3v.5h-5.5a2 2 0 0 0 2.1 1.7 2.9 2.9 0 0 0 1.1-.2 2.7 2.7 0 0 0 1-.7l1 1a3.8 3.8 0 0 1-1.4 1 4.6 4.6 0 0 1-1.8.4 4.2 4.2 0 0 1-2-.5 3.3 3.3 0 0 1-1.4-1.3 4.3 4.3 0 0 1 0-4 3.4 3.4 0 0 1 1.4-1.4 4 4 0 0 1 2-.5 3.4 3.4 0 0 1 2.6 1zm-.8 2.2a1.8 1.8 0 0 0-.5-1.3 2.1 2.1 0 0 0-2.7 0 2.1 2.1 0 0 0-.7 1.3zm9.5-2.7a3.3 3.3 0 0 1 1.3 1.4 4.4 4.4 0 0 1 .4 2 4.3 4.3 0 0 1-.4 2 3.2 3.2 0 0 1-1.2 1.3 3.5 3.5 0 0 1-1.9.5 3.2 3.2 0 0 1-1.5-.4 2.8 2.8 0 0 1-1-1v1.3H304v-10.4h1.8v4.1a2.7 2.7 0 0 1 1-1 3.2 3.2 0 0 1 1.5-.3 3.5 3.5 0 0 1 2 .5zm-.7 5a2.3 2.3 0 0 0 .6-1.7 2.3 2.3 0 0 0-.6-1.6 2.1 2.1 0 0 0-3 0 2.6 2.6 0 0 0 0 3.2 2 2 0 0 0 1.5.7 2 2 0 0 0 1.5-.7zm6.8-5.1a3 3 0 0 1 1.6-.4v1.8a2.5 2.5 0 0 0-1.9.5 2 2 0 0 0-.7 1.6v3.7h-1.8v-7.5h1.8v1.4a2.7 2.7 0 0 1 1-1.1zm7 7.2v-1a2.5 2.5 0 0 1-1 .7 3.7 3.7 0 0 1-1.4.3 3 3 0 0 1-1.4-.3 2.2 2.2 0 0 1-1-.8 2.3 2.3 0 0 1-.2-1.2 2 2 0 0 1 .7-1.7 3.3 3.3 0 0 1 2.1-.6h2.2v-.2a1.3 1.3 0 0 0-.4-1 2 2 0 0 0-1.3-.3 4.3 4.3 0 0 0-2.2.7l-.7-1.3a8.3 8.3 0 0 1 1.6-.7 5.8 5.8 0 0 1 1.7-.2 3.3 3.3 0 0 1 2.3.7 2.5 2.5 0 0 1 .8 2v4.9zm-.6-1.7a1.3 1.3 0 0 0 .6-1v-.6h-2a2 2 0 0 0-1 .2.8.8 0 0 0-.3.7 1 1 0 0 0 .3.8 1.5 1.5 0 0 0 1 .3 2.4 2.4 0 0 0 1.3-.4zm8.8 1.2a3.6 3.6 0 0 1-1.9.6 2.3 2.3 0 0 1-1.6-.6 2.2 2.2 0 0 1-.6-1.7v-3.7h-1v-1.3h1v-2h1.9v2h2v1.3h-2v3.4a1 1 0 0 0 .1.7.8.8 0 0 0 .6.2 2.6 2.6 0 0 0 1.1-.3zm3.1-9.9a1 1 0 0 1 .3.7 1 1 0 0 1-.3.8 1 1 0 0 1-1.5 0 1 1 0 0 1-.3-.8 1 1 0 0 1 .3-.7 1 1 0 0 1 1.5 0zm-1.7 2.9h1.9v7.5h-1.9zm10.7.7a3 3 0 0 1 .7 2v4.8h-1.8v-4.1a1.7 1.7 0 0 0-.5-1.3 1.6 1.6 0 0 0-1.2-.4 1.9 1.9 0 0 0-1.4.6 2.3 2.3 0 0 0-.6 1.5v3.7H337v-7.5h1.8v1.4a2.8 2.8 0 0 1 2.7-1.5 2.7 2.7 0 0 1 2 .8zm9.6-.7v6.8a3.5 3.5 0 0 1-.5 1.8 3.2 3.2 0 0 1-1.4 1.2 4.7 4.7 0 0 1-2 .5 5.5 5.5 0 0 1-3.2-1l.7-1.4a3.9 3.9 0 0 0 2.4.8 2.4 2.4 0 0 0 1.6-.5 1.8 1.8 0 0 0 .6-1.4v-.9a2.5 2.5 0 0 1-1 .9 3 3 0 0 1-1.4.3 3.3 3.3 0 0 1-1.8-.5 3.1 3.1 0 0 1-1.2-1.3 4 4 0 0 1-.4-1.8 4 4 0 0 1 .4-1.9 3 3 0 0 1 1.2-1.2 3.4 3.4 0 0 1 1.8-.5 3 3 0 0 1 1.4.3 2.6 2.6 0 0 1 1 .9v-1.1zm-2.4 5a2.4 2.4 0 0 0 0-3 2 2 0 0 0-2.9 0 2.4 2.4 0 0 0 0 3 2 2 0 0 0 3 0zm12.3 2a3.6 3.6 0 0 1-1.8.6 2.3 2.3 0 0 1-1.6-.6 2.2 2.2 0 0 1-.6-1.7v-3.7H358v-1.3h1v-2h1.9v2h2.1v1.3h-2.1v3.4a1 1 0 0 0 .2.7.8.8 0 0 0 .5.2 2.6 2.6 0 0 0 1.1-.3zm8.1-6.3a3 3 0 0 1 .7 2v4.8h-1.8v-4.1a1.7 1.7 0 0 0-.5-1.3 1.6 1.6 0 0 0-1.2-.4 1.9 1.9 0 0 0-1.4.6 2.2 2.2 0 0 0-.5 1.5v3.7h-1.9v-10.4h1.9v4.3a2.8 2.8 0 0 1 2.7-1.5 2.7 2.7 0 0 1 2 .8zm8.6.2a4.2 4.2 0 0 1 .9 3v.5h-5.5a2 2 0 0 0 2.1 1.7 2.9 2.9 0 0 0 1.1-.2 2.7 2.7 0 0 0 1-.7l1 1a3.8 3.8 0 0 1-1.4 1 4.6 4.6 0 0 1-1.8.4 4.2 4.2 0 0 1-2-.5 3.3 3.3 0 0 1-1.4-1.3 4.3 4.3 0 0 1 0-4 3.4 3.4 0 0 1 1.4-1.4 4 4 0 0 1 2-.5 3.4 3.4 0 0 1 2.6 1zm-.8 2.2a1.8 1.8 0 0 0-.5-1.3 2.1 2.1 0 0 0-2.7 0 2.1 2.1 0 0 0-.7 1.3zm18.5-2.4a3 3 0 0 1 .7 2v4.8h-1.8v-4.1a1.7 1.7 0 0 0-.4-1.3 1.6 1.6 0 0 0-1.2-.5 1.8 1.8 0 0 0-1.4.7 2.3 2.3 0 0 0-.5 1.5v3.7H391v-4.1a1.7 1.7 0 0 0-.4-1.3 1.6 1.6 0 0 0-1.2-.5 1.8 1.8 0 0 0-1.4.7 2.3 2.3 0 0 0-.5 1.5v3.7h-1.8v-7.5h1.8v1.4a3.1 3.1 0 0 1 4.3-1 2.5 2.5 0 0 1 .9 1.3 2.8 2.8 0 0 1 2.8-1.8 2.6 2.6 0 0 1 2 .8zm8.1-.3a3.4 3.4 0 0 1 1.4 1.3 3.9 3.9 0 0 1 .5 2 4 4 0 0 1-.5 2 3.4 3.4 0 0 1-1.4 1.4 4.3 4.3 0 0 1-2 .5 4.3 4.3 0 0 1-2.1-.5 3.4 3.4 0 0 1-1.4-1.4 4 4 0 0 1-.5-2 3.9 3.9 0 0 1 .5-2 3.4 3.4 0 0 1 1.4-1.3 4.3 4.3 0 0 1 2-.5 4.3 4.3 0 0 1 2 .5zm-3.6 1.7a2.6 2.6 0 0 0 0 3.3 2 2 0 0 0 1.5.6 2 2 0 0 0 1.6-.6 2.6 2.6 0 0 0 0-3.3 2 2 0 0 0-1.6-.6 2 2 0 0 0-1.5.6zm13.6-1.4a3 3 0 0 1 .7 2v4.8h-1.8v-4.1a1.7 1.7 0 0 0-.5-1.3 1.6 1.6 0 0 0-1.2-.4 1.9 1.9 0 0 0-1.4.6 2.3 2.3 0 0 0-.5 1.5v3.7H409v-7.5h1.8v1.4a2.8 2.8 0 0 1 2.7-1.5 2.7 2.7 0 0 1 2 .8zm7.2 6.3a3.6 3.6 0 0 1-2 .6 2.3 2.3 0 0 1-1.5-.6 2.2 2.2 0 0 1-.6-1.7v-3.7h-1v-1.3h1v-2h1.8v2h2.1v1.3h-2.1v3.4a1 1 0 0 0 .2.7.8.8 0 0 0 .6.2 2.6 2.6 0 0 0 1-.3zm8-6.3a3 3 0 0 1 .7 2v4.8h-1.8v-4.1a1.7 1.7 0 0 0-.4-1.3 1.6 1.6 0 0 0-1.2-.4 1.9 1.9 0 0 0-1.5.6 2.2 2.2 0 0 0-.5 1.5v3.7h-1.8v-10.4h1.8v4.3a2.8 2.8 0 0 1 2.7-1.5 2.7 2.7 0 0 1 2 .8zm6.3-3.6h1.8V514h-1.8zm9.5 3.3a3.4 3.4 0 0 1 1.4 1.3 3.9 3.9 0 0 1 .5 2 4 4 0 0 1-.5 2 3.4 3.4 0 0 1-1.4 1.4 4.3 4.3 0 0 1-2 .5 4.3 4.3 0 0 1-2.1-.5 3.4 3.4 0 0 1-1.4-1.4 4 4 0 0 1-.5-2 3.9 3.9 0 0 1 .5-2 3.4 3.4 0 0 1 1.4-1.3 4.3 4.3 0 0 1 2-.5 4.3 4.3 0 0 1 2 .5zm-3.6 1.7a2.6 2.6 0 0 0 0 3.3 2 2 0 0 0 1.5.6 2 2 0 0 0 1.6-.6 2.6 2.6 0 0 0 0-3.3 2 2 0 0 0-1.6-.6 2 2 0 0 0-1.5.6zm13.6-1.4a3 3 0 0 1 .7 2v4.8h-1.8v-4.1a1.7 1.7 0 0 0-.5-1.3 1.6 1.6 0 0 0-1.2-.4 1.9 1.9 0 0 0-1.4.6 2.3 2.3 0 0 0-.5 1.5v3.7H450v-7.5h1.8v1.4a2.8 2.8 0 0 1 2.7-1.5 2.7 2.7 0 0 1 2 .8zm9.6-.7v6.8a3.5 3.5 0 0 1-.5 1.8 3.2 3.2 0 0 1-1.3 1.2 4.7 4.7 0 0 1-2.1.5 5.5 5.5 0 0 1-3.2-1l.8-1.4a3.9 3.9 0 0 0 2.3.8 2.4 2.4 0 0 0 1.6-.5 1.8 1.8 0 0 0 .6-1.4v-.9a2.5 2.5 0 0 1-1 .9 3 3 0 0 1-1.4.3 3.3 3.3 0 0 1-1.7-.5 3.1 3.1 0 0 1-1.2-1.3 4 4 0 0 1-.4-1.8 4 4 0 0 1 .4-1.9 3 3 0 0 1 1.2-1.2 3.4 3.4 0 0 1 1.7-.5 3 3 0 0 1 1.4.3 2.6 2.6 0 0 1 1 .9v-1.1zm-2.3 5a2.4 2.4 0 0 0 0-3 2 2 0 0 0-3 0 2.4 2.4 0 0 0 0 3 2 2 0 0 0 3 0zM291.6 521h2v4.2h4.8V521h1.9v9.8h-1.9v-4h-4.9v4h-1.9zm15.4 9.8v-1a2.5 2.5 0 0 1-1 .8 3.7 3.7 0 0 1-1.4.2 3 3 0 0 1-1.4-.3 2.2 2.2 0 0 1-1-.8 2.3 2.3 0 0 1-.2-1.2 2 2 0 0 1 .7-1.6 3.3 3.3 0 0 1 2.1-.6h2.2v-.2a1.3 1.3 0 0 0-.4-1 2 2 0 0 0-1.3-.4 4.3 4.3 0 0 0-2.2.7l-.7-1.3a8.3 8.3 0 0 1 1.6-.7 5.8 5.8 0 0 1 1.7-.2 3.3 3.3 0 0 1 2.3.7 2.5 2.5 0 0 1 .8 2v5zm-.6-1.7a1.3 1.3 0 0 0 .6-1v-.6h-2a2 2 0 0 0-1 .2.8.8 0 0 0-.4.7 1 1 0 0 0 .4.8 1.5 1.5 0 0 0 1 .3 2.4 2.4 0 0 0 1.3-.4zm7.6-4.3a2 2 0 0 0-1.4.6 2.3 2.3 0 0 0-.6 1.6 2.3 2.3 0 0 0 .6 1.6 2 2 0 0 0 1.4.6 2.4 2.4 0 0 0 2-.8l1.2.9a3.3 3.3 0 0 1-1.3 1.1 4.4 4.4 0 0 1-2 .4 4 4 0 0 1-2-.5 3.4 3.4 0 0 1-1.3-1.3 4.4 4.4 0 0 1 0-4 3.4 3.4 0 0 1 1.3-1.3 4 4 0 0 1 2-.5 4.5 4.5 0 0 1 1.9.3 3.3 3.3 0 0 1 1.3 1l-1.1 1a2.5 2.5 0 0 0-2-.7zm9.9 6l-2-3.3-1.2 1.2v2h-1.8v-10.3h1.8v6l3-3.1h2.2L323 526l3 4.6zm7.7-.5a3.6 3.6 0 0 1-1.9.6 2.3 2.3 0 0 1-1.5-.6 2.2 2.2 0 0 1-.6-1.7V525h-1.1v-1.3h1v-2h1.9v2h2.1v1.3h-2.1v3.4a1 1 0 0 0 .2.7.8.8 0 0 0 .6.2 2.6 2.6 0 0 0 1-.3zm6.7-6.6a3.4 3.4 0 0 1 1.4 1.3 3.9 3.9 0 0 1 .5 2 4 4 0 0 1-.5 2 3.4 3.4 0 0 1-1.4 1.3 4.3 4.3 0 0 1-2 .5 4.3 4.3 0 0 1-2.1-.5 3.4 3.4 0 0 1-1.4-1.3 4 4 0 0 1-.5-2 3.9 3.9 0 0 1 .5-2 3.4 3.4 0 0 1 1.4-1.3 4.3 4.3 0 0 1 2-.5 4.3 4.3 0 0 1 2.1.5zm-3.6 1.7a2.6 2.6 0 0 0 0 3.3 2 2 0 0 0 1.6.6 2 2 0 0 0 1.5-.6 2.6 2.6 0 0 0 0-3.3 2 2 0 0 0-1.5-.6 2 2 0 0 0-1.6.6zm13.3-1.7a3.3 3.3 0 0 1 1.3 1.4 4.3 4.3 0 0 1 .4 2 4.3 4.3 0 0 1-.4 2 3.2 3.2 0 0 1-1.3 1.3 3.5 3.5 0 0 1-1.8.5 3.2 3.2 0 0 1-1.5-.4 2.8 2.8 0 0 1-1-1v1.3h-1.9v-10.4h1.8v4.1a2.7 2.7 0 0 1 1-1 3.2 3.2 0 0 1 1.5-.3 3.5 3.5 0 0 1 1.9.5zm-.8 5a2.3 2.3 0 0 0 .6-1.7 2.3 2.3 0 0 0-.6-1.6 2.1 2.1 0 0 0-3 0 2.6 2.6 0 0 0 0 3.2 2 2 0 0 0 1.6.7 2 2 0 0 0 1.5-.7zm9.9-4.5a4.2 4.2 0 0 1 1 3v.5h-5.6a2 2 0 0 0 2.1 1.7 2.9 2.9 0 0 0 1.1-.2 2.7 2.7 0 0 0 1-.7l1 1a3.8 3.8 0 0 1-1.4 1 4.6 4.6 0 0 1-1.8.4 4.2 4.2 0 0 1-2-.5 3.3 3.3 0 0 1-1.4-1.4 4.3 4.3 0 0 1 0-4 3.4 3.4 0 0 1 1.4-1.4 4 4 0 0 1 2-.4 3.4 3.4 0 0 1 2.6 1zm-.7 2.2a1.8 1.8 0 0 0-.6-1.3 2.1 2.1 0 0 0-2.7 0 2.1 2.1 0 0 0-.7 1.3zm6-2.8a3 3 0 0 1 1.6-.4v1.8a2.5 2.5 0 0 0-1.9.5 2 2 0 0 0-.7 1.7v3.6h-1.8v-7.5h1.8v1.4a2.7 2.7 0 0 1 1-1.1zm5.3-1.6a.9.9 0 0 0-.3.8v.8h1.9v1.3h-1.9v5.9h-1.8v-5.9h-1v-1.3h1v-.7a2.6 2.6 0 0 1 .3-1.4 2.3 2.3 0 0 1 1-1 3 3 0 0 1 1.4-.2 3.1 3.1 0 0 1 1.3.3l-.3 1.5a2.6 2.6 0 0 0-1-.2 1 1 0 0 0-.6.2zm8.3 2.2a4.2 4.2 0 0 1 .9 3v.5h-5.5a2 2 0 0 0 2.1 1.7 2.9 2.9 0 0 0 1.1-.2 2.7 2.7 0 0 0 1-.7l1 1a3.8 3.8 0 0 1-1.4 1 4.6 4.6 0 0 1-1.8.4 4.2 4.2 0 0 1-2-.5 3.3 3.3 0 0 1-1.4-1.4 4.3 4.3 0 0 1 0-4 3.4 3.4 0 0 1 1.4-1.4 4 4 0 0 1 2-.4 3.4 3.4 0 0 1 2.6 1zm-.8 2.2a1.8 1.8 0 0 0-.5-1.3 2.1 2.1 0 0 0-2.7 0 2.1 2.1 0 0 0-.7 1.3zm6.6-1.6a3.6 3.6 0 0 0-1-.2 1.4 1.4 0 0 0-.8.2.5.5 0 0 0-.3.5.6.6 0 0 0 .4.5 5.5 5.5 0 0 0 1 .4 10.3 10.3 0 0 1 1.3.5 2.4 2.4 0 0 1 1 .7 1.8 1.8 0 0 1 .3 1.2 2 2 0 0 1-.8 1.7 3.6 3.6 0 0 1-2.2.6 5.4 5.4 0 0 1-1.6-.3 4 4 0 0 1-1.5-.8l.7-1.3a3.7 3.7 0 0 0 1.2.7 4 4 0 0 0 1.3.3 1.6 1.6 0 0 0 .8-.2.6.6 0 0 0 .3-.5.6.6 0 0 0-.3-.6 6.2 6.2 0 0 0-1.2-.5 9.7 9.7 0 0 1-1.2-.4 2.2 2.2 0 0 1-.8-.7 1.8 1.8 0 0 1-.4-1.1 2 2 0 0 1 .8-1.7 3.4 3.4 0 0 1 2-.6 5.2 5.2 0 0 1 1.5.2 4.5 4.5 0 0 1 1.3.6l-.7 1.3a5.4 5.4 0 0 0-1-.5zm7.8 5.5a3.6 3.6 0 0 1-1.9.6 2.3 2.3 0 0 1-1.5-.6 2.2 2.2 0 0 1-.6-1.7V525h-1.1v-1.3h1v-2h1.9v2h2.1v1.3h-2.1v3.4a1 1 0 0 0 .2.7.8.8 0 0 0 .6.2 2.6 2.6 0 0 0 1-.3zm6.2-1.2a1 1 0 0 1 .2.8 1 1 0 0 1-.2.7 1 1 0 0 1-.7.3.9.9 0 0 1-.7-.3 1 1 0 0 1-.3-.7 1 1 0 0 1 .3-.7 1 1 0 0 1 .7-.3 1 1 0 0 1 .7.3zm-1.6-8h1.8v2.4l-.3 4h-1.1l-.4-4zm4.7 8a1 1 0 0 1 .3.8 1 1 0 0 1-.3.7 1 1 0 0 1-.7.3.9.9 0 0 1-.7-.3 1 1 0 0 1-.3-.7 1 1 0 0 1 .3-.7 1 1 0 0 1 .7-.3 1 1 0 0 1 .7.3zm-1.6-8h1.8v2.4l-.3 4h-1.2l-.3-4z"/></svg>