<svg id="Layer_1" data-name="Layer 1" xmlns="http://www.w3.org/2000/svg" viewBox="0 0 80 93.5"><defs><style>.cls-1{fill:none;stroke:#f04f23;stroke-miterlimit:10;stroke-width:2.7px}</style></defs><title>career icon send</title><path class="cls-1" d="M73 43v9.2l-1.8.4a6.3 6.3 0 0 0-4.8 6.3v5.5c0 5 1.5 6.8 6.4 8 .6 6.3.7 8.3-5.8 11-5.3 2-11 3.4-16.6 5.1l-8.8 2.8-.1-2.3V61.5c0-6.5 1.7-8.4 7.8-10.3 7.5-2.3 14.9-5 22.3-7.6zM37.8 91.3l-15.2-4.7c-3.3-1-6.6-1.7-9.7-3-6.1-2.4-7.2-4.6-6.3-11.2l2.7-.6A6 6 0 0 0 14 66v-6.5c0-4.3-1.9-6.5-6.2-7.2l-1.1-.1V43l6.8 2.6 18.1 5.9c4.1 1.3 6.1 3.3 6.2 8.2.3 10.4.1 20.9.1 31.5zm1.9-58.6a15 15 0 0 1 0-30.2 15 15 0 1 1 0 30.2zm-.2 19c-2.2-2.8-5.2-3.6-8.3-4.4s-6.2-1.9-9.5-2.9a14 14 0 0 1 8.5-6.7 42.9 42.9 0 0 1 19.2 0 13.2 13.2 0 0 1 8.3 6.3c-5.8 3.3-13.1 2.5-18.2 7.7z"/><path class="cls-1" d="M10.2 62.3v2.4a3.8 3.8 0 0 1-3.8 4A3.7 3.7 0 0 1 2 65.1a32.9 32.9 0 0 1 0-5.9 3.8 3.8 0 0 1 4.3-3.4 3.9 3.9 0 0 1 3.8 3.8v2.6zm67.8.1V65a3.9 3.9 0 0 1-4 3.7 3.7 3.7 0 0 1-4-3.6 36.8 36.8 0 0 1 0-5.7 4 4 0 0 1 8 .2v2.8z"/></svg>