<svg id="Layer_1" data-name="Layer 1" xmlns="http://www.w3.org/2000/svg" viewBox="0 0 308 279"><defs><style>.cls-1{fill:#fff}.cls-2,.cls-3{fill:none;stroke:#fff;stroke-miterlimit:10}.cls-2{stroke-width:7px}.cls-3{stroke-width:4px}</style></defs><title>new icons</title><path class="cls-1" d="M148.5 183.3a8 8 0 0 0-8-8 8 8 0 1 0-.1 16.2 8 8 0 0 0 8-8.2z"/><path class="cls-2" d="M239.2 142.6c-3.7-11.8-13.2-18.4-27-20.2-2.4-.3-5.7-1.2-6.7-2.8a48 48 0 0 0-40.5-22 7.2 7.2 0 0 1-4.9-3c-9-16-27-25.4-45-23.3-20.7 2.4-36 15-39.4 33.3-.6 3.3-2 4.7-5.3 6-14 5-22.7 14.1-24.5 27.3-3.1 22.7 14.4 39.7 40.1 39.8h26.7l.2-10.8v-8.5a11 11 0 0 1 5.8-1.3h1.3a15.3 15.3 0 0 1 2.3 0h.9c.4-.1.5-.4.5-1v-6a1 1 0 0 1 0-.6 31.2 31.2 0 0 1 1-6.5v-.3a16.9 16.9 0 0 1 9.6-9.7l.2-.1.5-.2a16.6 16.6 0 0 1 4.4-1h2.6a16.6 16.6 0 0 1 4.4 1l.5.2.2.1a16.9 16.9 0 0 1 9.5 9.7l.1.3a31.2 31.2 0 0 1 1 6.5 1 1 0 0 1 0 .6v6c0 .6 0 1 .5 1h.9a15.3 15.3 0 0 1 2.3 0h.5c1.7.2 3.2-.6 4.2.5l.1.2.3.3.1.2.2.3.2.2.2.4v.2a7.8 7.8 0 0 1 .7 3.2v15.1h39.4a35 35 0 0 0 21.8-6.6c10-7.5 13.6-17.4 10-28.5z"/><circle class="cls-3" cx="142.5" cy="146.5" r="118.5"/><path class="cls-1" d="M139.8 211.2h-23a13.5 13.5 0 0 1-4-.7 5.7 5.7 0 0 1-4-5.6v-42.7c0-3.8 2.6-6.3 6.7-6.6h3.2c1.5 0 2.2-.6 2.2-2V148a16 16 0 0 1 7.5-14 20.5 20.5 0 0 1 25.9 2.6 14.9 14.9 0 0 1 4.5 11v5.8c0 1.5.6 2 2.2 2.1a29.1 29.1 0 0 1 4.3.3c3.7.6 5.5 2.9 5.5 6.6v42a6.3 6.3 0 0 1-5.5 6.5 16.6 16.6 0 0 1-2.7.2h-22.8zm0-50.6h-22.5c-2 0-2.5.6-2.5 2.4v40.8c0 1.7.5 2.2 2.2 2.3h45.6c1.7 0 2.3-.6 2.3-2.3v-40.4c0-2.3-.5-2.8-2.7-2.8zm0-5h10.9c2 0 2.6-.7 2.5-2.6v-5.2a11.7 11.7 0 0 0-2.8-7.7 14.4 14.4 0 0 0-15.7-3.8 12.1 12.1 0 0 0-8.4 12v4.7c0 1.9.6 2.6 2.6 2.6z"/><path class="cls-3" d="M231 64.7L63.6 232.1"/></svg>