<svg id="Layer_1" data-name="Layer 1" xmlns="http://www.w3.org/2000/svg" viewBox="0 0 113 125"><defs><style>.cls-1{fill:#fff}</style></defs><title>mobile elements</title><path class="cls-1" d="M29.7 23.7c3 0 5.8-.3 8.7-.3h50.8A20.2 20.2 0 0 1 108.7 40a30 30 0 0 1 .3 4.5v49a20.2 20.2 0 0 1-17.5 20.2 17 17 0 0 1-2.3.1H39.7a51.1 51.1 0 0 1-9.3-.5 19.2 19.2 0 0 1-15.2-16.5 76.9 76.9 0 0 1-.3-8.6v-46a44.2 44.2 0 0 1 .8-5.6c.2-.7.6-.5 1-.1l2.2 2 7 7.2a3 3 0 0 1 1 2.4v43.1a30.5 30.5 0 0 0 .3 4.4 7.8 7.8 0 0 0 5.3 6.4 18 18 0 0 0 6.6 1.1h45.5a17.7 17.7 0 0 0 6.8-1.2 9.2 9.2 0 0 0 6.1-8.3c.2-3.7 0-7.4 0-11.2l-.2-16.2-.4-21.8a10.6 10.6 0 0 0-9-10.1 17.4 17.4 0 0 0-2.7-.2H41.9a5.2 5.2 0 0 1-4-1.7l-7.3-7.3-1-1z"/><path class="cls-1" d="M50.5 39.8l.2 1.6V56c0 1.5-.2 1.7-1.7 1.7H35.6a11.8 11.8 0 0 1-1.9-.3c1-2.1 3-3 4.1-4.6L8.5 23.7 4 28.5V11h17.3L16 16.5l4.4 4 19 18.8 4.8 4.8c.9 1 1.5.9 2.3 0zm-4.8 32H53c3.5 0 5.6 2 5.6 5.6v15c0 3.4-2 5.5-5.5 5.6H38c-3.4 0-5.5-2.3-5.5-5.7V77.5a5.3 5.3 0 0 1 5.6-5.7h7.6zm32.5 0h7.3c3.6 0 5.7 2 5.7 5.7v14.6c0 3.7-2 5.8-5.8 5.8H70.7c-3.5 0-5.6-2-5.6-5.6v-15c0-3.5 2-5.6 5.5-5.6h7.6zM65 52.3v-7.4c0-3.5 2.2-5.6 5.7-5.6h15a5.3 5.3 0 0 1 5.6 5.6v15c0 3.5-2.2 5.6-5.7 5.6h-15a5.1 5.1 0 0 1-5.5-5.5v-7.7z"/></svg>