<svg id="Layer_1" data-name="Layer 1" xmlns="http://www.w3.org/2000/svg" viewBox="0 0 231 68"><defs><style>.cls-1{fill:#fff}</style></defs><title>oe logo white</title><path class="cls-1" d="M186.3 30.4l1.2.3a5 5 0 0 1 3.6 5v6c0 3.7-2 5.5-5.5 6.1a11.7 11.7 0 0 1-2 .2h-24.2c-.8 0-.8 0-.8-.8V16c0-.8 0-.8.7-.8H183a10 10 0 0 1 4.2.8 5 5 0 0 1 3.2 4.5 53.3 53.3 0 0 1-.1 6.4c-.2 2-1 2.8-3.3 3.3l-.6.1zM173.4 44h9a9 9 0 0 0 2.4-.4 2.1 2.1 0 0 0 1.6-2v-5.9a2.4 2.4 0 0 0-2.1-2.5 7.1 7.1 0 0 0-1.6-.2h-19c-.6 0-.7.2-.7.7v9.6c0 .6.2.7.7.7h9.7zm-.3-15h9.4c2 0 3.2-1.1 3.2-3v-3.8a2.7 2.7 0 0 0-2-2.7 6.7 6.7 0 0 0-1.9-.3h-18.1c-.5 0-.7.2-.7.7v8.4c0 .8 0 .8.8.8zm-20.8 0v4H130v6.6a4 4 0 0 0 4.3 4.4h21.4c1.3 0 1-.2 1.1 1.1v2.4c0 .4-.1.5-.5.5H133a7.5 7.5 0 0 1-7.5-6.3 9.2 9.2 0 0 1 0-1v-18a7.3 7.3 0 0 1 7.3-7.4H156c.6 0 .7.1.7.7v2.7c0 .5-.2.6-.6.6H134a3.8 3.8 0 0 0-4 3 4.8 4.8 0 0 0 0 1v5c0 .5 0 .7.6.7h20.9zm53.6 19H194c-.5 0-.7-.1-.7-.7v-2.6c0-.6.2-.7.7-.7h22a4.8 4.8 0 0 0 1.5-.2 3.6 3.6 0 0 0 2.5-3.3 27.5 27.5 0 0 0 0-3.9 3.7 3.7 0 0 0-3.9-3.5h-16.5A7.2 7.2 0 0 1 193 29a5.8 5.8 0 0 1-.7-2.4 31.5 31.5 0 0 1 .1-5.5 7 7 0 0 1 7-5.9h22.3c.5 0 .6.2.6.6v2.7c0 .5-.2.7-.7.7h-20.9a3.9 3.9 0 0 0-4.1 4.1 16 16 0 0 0 0 2.4 3.8 3.8 0 0 0 4 3.2h13.6a34.2 34.2 0 0 1 4.3.1 7 7 0 0 1 5.8 6 36.3 36.3 0 0 1 0 6.8 7 7 0 0 1-7 6.2h-11.4zM15.8 15.4l2.3-.2h18.8a7.4 7.4 0 0 1 7.3 5.3 7.8 7.8 0 0 1 .3 2v18a7.3 7.3 0 0 1-7.3 7.5H17.7a7.2 7.2 0 0 1-7.2-7.2V22.5a24 24 0 0 1 .3-2.7l.6.4 3 3a1.5 1.5 0 0 1 .4 1.2V41c0 2 1.5 2.8 3.2 3.1a8.8 8.8 0 0 0 1.4 0h16.1a8 8 0 0 0 2.3-.3 3.5 3.5 0 0 0 2.5-3.4l-.3-14v-3.2a4 4 0 0 0-4-4H20a1.3 1.3 0 0 1-1-.4l-3-3-.2-.4zm35 41.9h-4l-.3-.4a1.2 1.2 0 0 1 0-.4V24.7c0-.9 0-.9.8-.9H64a7.3 7.3 0 0 1 5.3 2.2 6 6 0 0 1 1.8 4.4v10.7a6.7 6.7 0 0 1-6.5 6.8H51.4c-.5 0-.7.2-.7.7v8.7zm0-21.4v7.7c0 .4 0 .6.5.6h12.2a3.4 3.4 0 0 0 3.3-3.4v-10a3.1 3.1 0 0 0-.4-1.4 3.9 3.9 0 0 0-3.7-1.9H51.5c-.5 0-.7.2-.7.8v7.6zM87 38.1h-9.2c-1 0-1 0-1 1v3a2 2 0 0 0 2.3 2.2h15.3c.4 0 .6.2.6.6v2.4c0 .5-.2.7-.7.7h-16a6 6 0 0 1-4.4-1.7 4.4 4.4 0 0 1-1.3-3.3V30.3a6.6 6.6 0 0 1 6-6.3l2.8-.1H90a7.3 7.3 0 0 1 5.6 2.3 5.3 5.3 0 0 1 1.6 3.6v7.8c0 .5-.3.5-.7.5zm-2.1-3.8h7.3c.7 0 .8-.2.8-.7v-2.3a3.5 3.5 0 0 0-3.4-3.6h-9.4a3.5 3.5 0 0 0-3.4 3.5v2.5c0 .5.2.6.7.6h7.4zM98.7 48V30.8a6.8 6.8 0 0 1 6.7-7H117a6.8 6.8 0 0 1 6.5 4.8 6.5 6.5 0 0 1 .2 1.7v17c0 .5-.2.7-.7.7h-3c-.5 0-.6-.2-.6-.7V31.7c0-2.4-1.2-4-3.6-4h-9.5a3.4 3.4 0 0 0-3.3 3.8v16c0 .2-.2.4-.3.4h-4z"/><path class="cls-1" d="M18.8 25.9L8.2 15.3 6.7 17l-.2-.1v-6.3h6.4l-2 2 2 1.9 8.1 8c.3.4.6.4.9 0l1.4-1.5.1.5V27c0 .4 0 .6-.5.6h-5.1a1.7 1.7 0 0 1-.5-.2 1.9 1.9 0 0 1 .2-.4l1.3-1.3zm-1.9 11.5v-2.8a2 2 0 0 1 2-2h5.5a1.9 1.9 0 0 1 2 2v5.6a1.9 1.9 0 0 1-2 2h-5.6a2 2 0 0 1-1.9-2v-2.8zm21.2-11.6v2.7a2 2 0 0 1-2 2h-5.5a2 2 0 0 1-2-2v-5.6a2 2 0 0 1 2-2H36a2 2 0 0 1 2 2v.2l.1 2.7zm-9.5 11.6v-2.7a2 2 0 0 1 2-2H36a2 2 0 0 1 2 2V40a2 2 0 0 1-2 2h-5.5a2 2 0 0 1-2-2v-2.7z"/></svg>