<svg id="Layer_1" data-name="Layer 1" xmlns="http://www.w3.org/2000/svg" viewBox="0 0 719 265"><defs><style>.cls-1{fill:none}.cls-2{fill:#273274}.cls-3{clip-path:url(#clip-path)}.cls-4{clip-path:url(#clip-path-2)}.cls-15,.cls-5,.cls-6,.cls-7{fill:#fff}.cls-10,.cls-11,.cls-12,.cls-14,.cls-15,.cls-6,.cls-7,.cls-9{stroke:#273274;stroke-miterlimit:10}.cls-11,.cls-6{stroke-width:4px}.cls-10,.cls-14,.cls-7{stroke-width:2px}.cls-10,.cls-12,.cls-8,.cls-9{fill:#ff544e}.cls-15,.cls-9{stroke-width:3px}.cls-11,.cls-13,.cls-14{fill:#ff8c58}.cls-12{stroke-width:5px}</style><clipPath id="clip-path"><path class="cls-1" d="M-1-3.4h720v275.8H-1z"/></clipPath><clipPath id="clip-path-2"><path class="cls-1" d="M-104.9-3.4h992v269.8h-992z"/></clipPath></defs><title>openebs hacktober section</title><path class="cls-2" d="M-1 0h720v267H-1z"/><g class="cls-3"><g class="cls-4"><path class="cls-5" d="M704 169.7v-48.6a6.7 6.7 0 0 0-1.4-4.3A859 859 0 0 1 690 99c-.9-1.3-2.6-3-1.2-4.3s2.9.7 4 1.7L704 107c0-7.3-.3-14 0-20.8s.8-13.3 3.5-19.9c1.7 1.6 1.9 3.3 2.1 5 1.8 11 2 22.2 2.4 33.3 1.1 32.2 1.7 64.5 2.4 96.7 0 5.6.3 11.2.4 16.7 0 1.7.3 2.2 2.1 1.6a65 65 0 0 0 22-13.5 86 86 0 0 0 28.7-48.4c2.7-14.3 1-28.3-3.2-42a125.2 125.2 0 0 0-32.2-54.8 72 72 0 0 0-9-7.2 23.3 23.3 0 0 0-24.5-2.4A110 110 0 0 0 657.5 84a87 87 0 0 0-18.8 38.7 72.7 72.7 0 0 0 8.7 49.2 97.4 97.4 0 0 0 48.5 45.2c1.8.8 3.7 1.3 5.5 1.9 1.6.5 2.4.3 2.4-1.8l.1-31.1a5.2 5.2 0 0 0-1.6-3.5c-8-10-16.5-19.5-24-29.8a40.7 40.7 0 0 1-5.5-10.4c-.2-.8-1.1-2 0-2.6.8-.6 1.6.3 2.2.8 2.3 1.9 4.6 3.8 6.8 5.9 7.6 7.3 14.5 15.3 22.2 23z"/><circle class="cls-6" cx="680.1" cy="89.7" r="4.8"/><path class="cls-5" d="M708.3 301.6l-4 .1a9.4 9.4 0 0 0-1.1-2v-12a2.6 2.6 0 0 0 1-1.6c.1-1.2-.7-2.2-1-3.3.2.3.2-1.1.3-1.4.4-1.4.6-3-.7-4.3h.7v-24.8a2.4 2.4 0 0 0 .2-3c.1-.3-.4-.8-.4-1a6.1 6.1 0 0 1-.1-1c.3-.4.3-.6.3-.7a1.7 1.7 0 0 0-.1-1.7c.5-7-1.6-13.9 5.6-20.6 3.3.7 3.2 1.7 3.7 2.5 2.8 5.6 3.3 11.2 3.9 16.8 1.8 16.5 2.8 33 3.8 49.6.1 2.8.7 5.7.6 8.5a1.3 1.3 0 0 0 0 .2 266 266 0 0 0-12.7-.3z"/><circle class="cls-7" cx="668" cy="134.3" r="3.9"/><path class="cls-8" d="M571 120.2V76.3a6 6 0 0 1 1.3-3.8c3.9-5.3 7.7-10.7 11.4-16.2.8-1 2.4-2.7 1.1-3.8s-2.6.6-3.6 1.5L571 63.6c0-6.7.3-12.8 0-18.9s-.7-12-3.2-18c-1.6 1.5-1.7 3-1.9 4.6-1.6 10-1.9 20-2.2 30-1 29.2-1.5 58.3-2 87.5l-.5 15c0 1.6-.3 2-1.9 1.4-7.5-2.6-14-7-19.8-12.2a77.4 77.4 0 0 1-26-43.7 79 79 0 0 1 2.8-38A113 113 0 0 1 545.6 22a65 65 0 0 1 8-6.5 21 21 0 0 1 22.2-2.2c15 6.6 27 17 37.2 29.7a78.8 78.8 0 0 1 17 35c3 15.8-.3 30.6-7.8 44.5a88 88 0 0 1-43.9 40.8c-1.6.7-3.3 1.1-4.9 1.7-1.5.5-2.2.2-2.2-1.6v-28.1a4.7 4.7 0 0 1 1.3-3.2c7.3-9 15-17.6 21.8-27a36.8 36.8 0 0 0 4.9-9.3c.2-.7 1-1.7 0-2.4-.7-.5-1.5.3-2 .8-2 1.7-4.2 3.4-6 5.3-7 6.6-13.1 13.8-20.1 20.8z"/><circle class="cls-2" cx="592.7" cy="48" r="4.3"/><path class="cls-8" d="M567.2 292.2l3.7.2a20.4 20.4 0 0 1 1-3.2l-.1-19.1a5.4 5.4 0 0 1-.9-2.6c0-1.8.7-3.4 1-5.2-.2.6-.2-1.7-.3-2.1a11 11 0 0 1 .6-7h-.6v-39.4a6.2 6.2 0 0 1-.1-4.6c-.2-.5.2-1.3.3-1.8l.1-1.7c-.3-.5-.3-.8-.3-.9a4.4 4.4 0 0 1 .1-2.8c-.5-11 1.5-22-5-32.6-3 1.1-3 2.7-3.4 4-2.5 8.8-3 17.7-3.5 26.5a2995 2995 0 0 0-3.4 78.7c-.2 4.5-.7 9-.6 13.5v.3c3.8-.1 7.6-.3 11.4-.2zM120 236.3v-30a4.2 4.2 0 0 1 .9-2.6l7.8-11c.5-.8 1.6-1.9.8-2.6s-1.9.4-2.6 1c-2.2 2-4.3 4.2-6.9 6.5 0-4.5.2-8.7 0-12.8s-.4-8.3-2-12.3a4.4 4.4 0 0 0-1.4 3 166.5 166.5 0 0 0-1.5 20.6c-.7 20-1 39.9-1.4 59.8l-.3 10.3c0 1-.2 1.3-1.3 1a40.1 40.1 0 0 1-13.5-8.4A52.8 52.8 0 0 1 80.8 229a54.2 54.2 0 0 1 2-26 77.3 77.3 0 0 1 19.8-33.8 44.4 44.4 0 0 1 5.6-4.4 14.4 14.4 0 0 1 15-1.5 68.1 68.1 0 0 1 25.5 20.3c5.7 7 10 14.9 11.7 23.9a45 45 0 0 1-5.4 30.4 60 60 0 0 1-30 27.9c-1.1.5-2.3.8-3.4 1.1s-1.5.2-1.5-1v-19.3a3.2 3.2 0 0 1 1-2.1c5-6.2 10.2-12 14.8-18.4a25.2 25.2 0 0 0 3.4-6.5c.1-.5.7-1.1 0-1.6-.6-.3-1 .2-1.4.5l-4.2 3.6c-4.6 4.6-8.9 9.6-13.6 14.3z"/><circle class="cls-2" cx="134.9" cy="187" r="3"/><path class="cls-5" d="M-.5 221v-21.7a3 3 0 0 1 .7-1.9l5.6-7.9c.4-.6 1.1-1.4.5-1.9s-1.3.3-1.8.8c-1.6 1.4-3.1 3-5 4.6v-9.2A25.4 25.4 0 0 0-2 175a3.2 3.2 0 0 0-1 2.2A119.7 119.7 0 0 0-4 192c-.5 14.3-.8 28.6-1 43l-.2 7.4c0 .8-.1 1-1 .7a28.8 28.8 0 0 1-9.7-6 37.9 37.9 0 0 1-12.7-21.5 38.9 38.9 0 0 1 1.4-18.6A55.6 55.6 0 0 1-13 172.6a32 32 0 0 1 4-3.2 10.3 10.3 0 0 1 10.9-1 49 49 0 0 1 18.3 14.5 38.6 38.6 0 0 1 8.3 17.2c1.5 7.8-.1 15-3.8 21.8-5 9.1-12 16.1-21.6 20.1l-2.4.8c-.8.3-1 .1-1-.8v-13.8a2.3 2.3 0 0 1 .6-1.5C4 222.3 7.7 218 11 213.3a18 18 0 0 0 2.4-4.6c.1-.3.5-.8 0-1.1s-.7 0-1 .3l-3 2.6L-.4 221z"/><circle class="cls-7" cx="10.2" cy="185.4" r="2.1"/><path class="cls-5" d="M-2.4 279.5h1.8a4.2 4.2 0 0 1 .5-.9v-5.3a1.1 1.1 0 0 1-.4-.8c0-.4.3-1 .4-1.4l-.1-.6a1.9 1.9 0 0 1 .3-2h-.3v-11a1 1 0 0 1 0-1.2c-.1-.2 0-.4.1-.5a2.7 2.7 0 0 0 0-.5v-.3a.8.8 0 0 1 0-.7c-.3-3.1.6-6.2-2.6-9.2-1.4.3-1.4.8-1.6 1.2a20.1 20.1 0 0 0-1.7 7.4c-.8 7.3-1.2 14.7-1.7 22l-.3 3.7a.6.6 0 0 1 0 .1h5.6z"/><path class="cls-8" d="M407.6 153.6v-42.7a6 6 0 0 1 1.2-3.8c3.8-5.2 7.5-10.4 11.1-15.7.8-1 2.3-2.6 1.1-3.7s-2.6.6-3.6 1.5l-9.8 9.2c0-6.4.3-12.4 0-18.3s-.7-11.7-3-17.4c-1.6 1.3-1.7 2.9-2 4.3-1.5 9.7-1.8 19.5-2 29.3-1 28.3-1.6 56.7-2 85L398 196c0 1.5-.3 1.9-1.8 1.4a57.1 57.1 0 0 1-19.3-12 74.4 74.4 0 0 1-25.3-42.4 76.9 76.9 0 0 1 2.7-37 110.1 110.1 0 0 1 28.4-48 63.2 63.2 0 0 1 7.9-6.5 20.4 20.4 0 0 1 21.5-2 96.7 96.7 0 0 1 36.2 28.8 76.5 76.5 0 0 1 16.6 34 63.9 63.9 0 0 1-7.7 43.3 85.7 85.7 0 0 1-42.6 39.8l-4.8 1.6c-1.5.5-2.2.2-2.1-1.5l-.1-27.4a4.6 4.6 0 0 1 1.3-3.1c7-8.7 14.6-17.1 21.2-26.2a35.8 35.8 0 0 0 4.7-9.1c.3-.7 1-1.7 0-2.3-.7-.5-1.4.3-2 .7-2 1.7-4 3.4-5.8 5.2-6.7 6.4-12.7 13.5-19.5 20.3z"/><circle class="cls-9" cx="441.6" cy="122.8" r="4.2"/><circle class="cls-10" cx="426.9" cy="82.8" r="3.6"/><path class="cls-8" d="M403.9 269.6h3.5a8.3 8.3 0 0 1 1-1.7v-10.6a2.3 2.3 0 0 1-1-1.4c0-1 .7-2 1-2.9-.1.3-.2-1-.2-1.2a3.8 3.8 0 0 1 .5-3.8h-.5v-21.8a2.1 2.1 0 0 1-.2-2.6c-.1-.3.3-.8.4-1a5.4 5.4 0 0 0 0-1c-.2-.3-.3-.4-.2-.5a1.5 1.5 0 0 1 0-1.6c-.4-6.1 1.5-12.1-4.8-18-3 .6-3 1.4-3.3 2.2-2.5 4.9-3 9.8-3.4 14.7-1.6 14.6-2.5 29-3.4 43.6-.1 2.5-.6 5-.6 7.6a1.2 1.2 0 0 1 0 .1c3.7 0 7.4-.2 11.2-.1z"/><path class="cls-5" d="M496.8 194v-32.3a4.5 4.5 0 0 1 1-2.8L506 147c.6-.8 1.7-2 .8-2.8s-2 .4-2.7 1.1l-7.4 7c0-4.9.2-9.4 0-13.8s-.5-8.9-2.3-13.2a4.7 4.7 0 0 0-1.4 3.3 179 179 0 0 0-1.6 22c-.8 21.5-1.2 42.9-1.6 64.3 0 3.7-.2 7.4-.3 11 0 1.2-.2 1.5-1.4 1a43.1 43.1 0 0 1-14.5-9 56.6 56.6 0 0 1-19-32 58.1 58.1 0 0 1 2-28 83.1 83.1 0 0 1 21.4-36.3 47.7 47.7 0 0 1 6-4.8 15.4 15.4 0 0 1 16.2-1.6 73.6 73.6 0 0 1 27.3 21.9c6.1 7.6 10.7 16 12.5 25.7a48.2 48.2 0 0 1-5.8 32.6 64.4 64.4 0 0 1-32.1 30c-1.2.5-2.5.8-3.7 1.2s-1.6.2-1.6-1.1v-20.7a3.5 3.5 0 0 1 1-2.3c5.3-6.6 11-13 16-19.8a27 27 0 0 0 3.5-7c.2-.4.8-1.2 0-1.6-.5-.4-1 .2-1.5.5-1.5 1.3-3 2.5-4.4 3.9-5 5-9.6 10.3-14.7 15.4z"/><circle class="cls-7" cx="522.5" cy="170.7" r="3.2"/><circle class="cls-2" cx="512.7" cy="140.8" r="3.2"/><path class="cls-5" d="M494 289.5h2.7a7.6 7.6 0 0 1 .7-1.5v-9.2a2 2 0 0 1-.7-1.3 9 9 0 0 1 .7-2.5c-.1.3-.1-.8-.2-1a3.7 3.7 0 0 1 .5-3.3h-.5v-19.1a2 2 0 0 1 0-2.2c-.2-.2.1-.6.2-.8a5.4 5.4 0 0 0 0-.8c-.2-.3-.2-.4-.1-.5a1.5 1.5 0 0 1 0-1.3c-.4-5.4 1-10.6-3.7-15.8-2.2.6-2.2 1.3-2.5 2a41.1 41.1 0 0 0-2.6 12.8 970.8 970.8 0 0 0-2.5 38c0 2.2-.4 4.4-.4 6.6a1.2 1.2 0 0 1 0 .1c2.7-.2 5.5-.3 8.4-.2z"/><circle class="cls-2" cx="353.5" cy="200.8" r="3.9"/><circle class="cls-11" cx="341.4" cy="163.9" r="3.9"/><path class="cls-8" d="M183.3 148.9v-36.7a5 5 0 0 1 1-3.2c3.3-4.4 6.4-8.9 9.6-13.4.6-1 2-2.3.9-3.2s-2.2.5-3 1.3c-2.8 2.4-5.4 5-8.5 7.9 0-5.5.2-10.7 0-15.7s-.6-10-2.7-15c-1.3 1.1-1.3 2.4-1.5 3.7-1.4 8.3-1.6 16.7-1.9 25-.8 24.4-1.2 48.7-1.7 73l-.3 12.6c0 1.3-.3 1.6-1.6 1.2a49 49 0 0 1-16.6-10.2 64.3 64.3 0 0 1-21.6-36.4 66 66 0 0 1 2.3-31.7A94.5 94.5 0 0 1 162 66.8a54.2 54.2 0 0 1 6.8-5.4 17.6 17.6 0 0 1 18.4-1.9 83 83 0 0 1 31 24.8c7 8.7 12.2 18.2 14.3 29.2a54.8 54.8 0 0 1-6.6 37.1 73.5 73.5 0 0 1-36.6 34.1c-1.3.6-2.7 1-4 1.4s-1.9.2-1.9-1.3v-23.5a4 4 0 0 1 1.1-2.6c6-7.5 12.5-14.7 18.2-22.5a30.7 30.7 0 0 0 4-7.8c.2-.6 1-1.4 0-2-.6-.4-1.2.2-1.7.6l-5 4.4c-5.7 5.6-10.8 11.6-16.7 17.5z"/><circle class="cls-12" cx="212.5" cy="122.5" r="3.6"/><circle class="cls-10" cx="201.4" cy="88.6" r="3.6"/><path class="cls-8" d="M180.1 271.5h3a11.6 11.6 0 0 1 .9-2l-.1-12.7a3.1 3.1 0 0 1-.7-1.7c-.1-1.2.5-2.3.7-3.5l-.2-1.4a6 6 0 0 1 .6-4.6h-.5v-26.2a3.3 3.3 0 0 1-.1-3v-.1c-.2-.3.2-.8.3-1.1a8.9 8.9 0 0 0 0-1.2c-.3-.4-.3-.6-.2-.6a2.4 2.4 0 0 1 0-1.9c-.4-7.4 1.2-14.6-4.2-21.6-2.5.7-2.4 1.7-2.8 2.6-2.1 5.9-2.5 11.8-3 17.7-1.3 17.4-2 34.8-2.8 52.2-.1 3-.5 6-.5 9a2 2 0 0 1 0 .2c3.2 0 6.4-.2 9.6-.1z"/><path class="cls-13" d="M629.4 196.6v-32.4a4.5 4.5 0 0 1 1-2.8l8.4-11.9c.5-.8 1.7-2 .8-2.8s-2 .5-2.7 1.1l-7.4 7V141a38 38 0 0 0-2.4-13.2 4.7 4.7 0 0 0-1.4 3.3 179.5 179.5 0 0 0-1.6 22.2c-.7 21.5-1.1 43-1.5 64.4-.1 3.7-.3 7.4-.3 11.2 0 1-.3 1.4-1.4 1a43.3 43.3 0 0 1-14.6-9 57 57 0 0 1-19.2-32.2 58.2 58.2 0 0 1 2.1-28 83.4 83.4 0 0 1 21.5-36.5 47.9 47.9 0 0 1 6-4.8 15.5 15.5 0 0 1 16.3-1.6c11 5 20 12.6 27.4 22a58 58 0 0 1 12.6 25.7 48.4 48.4 0 0 1-5.8 32.8 64.9 64.9 0 0 1-32.3 30c-1.2.6-2.4.9-3.7 1.3s-1.6.2-1.6-1.2v-20.7a3.5 3.5 0 0 1 1-2.3c5.3-6.6 11-13 16-19.9a27.1 27.1 0 0 0 3.6-7c.1-.4.7-1.2 0-1.6-.6-.4-1.1.2-1.5.5-1.6 1.3-3.1 2.5-4.5 4-5 4.8-9.6 10.2-14.8 15.3z"/><circle class="cls-13" cx="655.2" cy="173.3" r="3.2"/><path class="cls-13" d="M626.6 284.5h2.7a6.3 6.3 0 0 1 .7-1.4v-8a1.7 1.7 0 0 1-.7-1c0-.8.5-1.5.7-2.2-.1.2-.1-.7-.2-1a2.8 2.8 0 0 1 .5-2.8h-.5v-16.5a1.6 1.6 0 0 1 0-2c-.2-.2.1-.5.2-.7a4 4 0 0 0 0-.7l-.1-.4a1.1 1.1 0 0 1 0-1.2c-.4-4.6 1-9.2-3.7-13.7-2.2.5-2.2 1.1-2.5 1.7-1.9 3.7-2.2 7.4-2.6 11.2-1.2 11-1.8 22-2.5 33-.1 1.9-.5 3.7-.5 5.6a.9.9 0 0 1 0 .2c2.9-.1 5.6-.2 8.5-.1zm-559-121.3V118a6.3 6.3 0 0 1 1.2-4c4-5.4 8-11 11.8-16.5.7-1.1 2.4-2.8 1-4s-2.6.7-3.7 1.6c-3.3 3-6.6 6.2-10.3 9.8 0-6.8.2-13-.1-19.3s-.7-12.4-3.2-18.4c-1.6 1.4-1.7 3-2 4.5a247.2 247.2 0 0 0-2.2 31c-1 29.8-1.6 59.7-2.1 89.6-.1 5.2-.4 10.4-.4 15.5 0 1.6-.4 2-2 1.5a60.4 60.4 0 0 1-20.4-12.6A79.1 79.1 0 0 1 8.6 152a81.1 81.1 0 0 1 2.9-39 116 116 0 0 1 29.9-50.8 66.7 66.7 0 0 1 8.3-6.7c7.2-5 14.6-5.8 22.7-2.2a102.1 102.1 0 0 1 38.2 30.5 80.8 80.8 0 0 1 17.5 36 68 68 0 0 1-8 45.5 90.6 90.6 0 0 1-45 42c-1.7.7-3.5 1.2-5.2 1.7-1.5.5-2.2.3-2.2-1.6v-28.9a4.8 4.8 0 0 1 1.4-3.2c7.4-9.2 15.3-18 22.3-27.7a37.8 37.8 0 0 0 5-9.6c.3-.8 1.1-1.8 0-2.4-.7-.5-1.5.3-2 .7-2.2 1.8-4.3 3.6-6.3 5.5-7 6.7-13.4 14.2-20.5 21.4z"/><circle class="cls-14" cx="89.8" cy="89" r="4.5"/><path class="cls-13" d="M63.6 285.6h3.8a8.7 8.7 0 0 1 1-1.8l-.2-11.2a2.4 2.4 0 0 1-.8-1.5c-.1-1 .6-2 1-3-.2.3-.3-1-.3-1.3-.4-1.3-.6-2.7.6-4H68v-23a2.2 2.2 0 0 1-.2-2.7c-.2-.3.3-.8.4-1a5.7 5.7 0 0 0 0-1l-.2-.6a1.6 1.6 0 0 1 0-1.6c-.4-6.5 1.6-12.9-5.1-19.1-3 .6-3 1.6-3.4 2.3-2.6 5-3 10.3-3.6 15.5-1.6 15.3-2.6 30.6-3.5 46-.2 2.6-.7 5.2-.6 7.9a1.2 1.2 0 0 1 0 .1h11.7z"/><circle class="cls-2" cx="101.9" cy="130.4" r="3.6"/><circle class="cls-10" cx="144.6" cy="212.2" r="3.6"/><path class="cls-5" d="M254.2 146.4v-45.1a6.3 6.3 0 0 1 1.3-3.9c4-5.5 7.9-11 11.7-16.6.8-1.1 2.4-2.8 1.1-3.9s-2.7.6-3.8 1.6l-10.3 9.7c0-6.8.3-13 0-19.3s-.7-12.4-3.3-18.4c-1.6 1.4-1.7 3-2 4.6-1.5 10.2-1.8 20.5-2.2 30.9-1 29.9-1.5 59.8-2.1 89.7l-.4 15.5c0 1.6-.3 2-2 1.4a60.4 60.4 0 0 1-20.3-12.5 79.1 79.1 0 0 1-26.7-44.9 81.1 81.1 0 0 1 3-39A116.2 116.2 0 0 1 228 45.5a66.7 66.7 0 0 1 8.3-6.7 21.7 21.7 0 0 1 22.7-2.3 102.1 102.1 0 0 1 38.2 30.6 80.8 80.8 0 0 1 17.5 35.9c3 16.2-.3 31.4-8 45.6a90.6 90.6 0 0 1-45 42c-1.7.7-3.4 1.1-5.1 1.7-1.6.5-2.3.2-2.3-1.7v-28.8a4.8 4.8 0 0 1 1.4-3.3c7.4-9.2 15.3-18 22.3-27.6a37.8 37.8 0 0 0 5-9.7c.3-.7 1.1-1.7 0-2.4-.7-.5-1.5.3-2 .8-2.2 1.8-4.3 3.5-6.3 5.4-7 6.8-13.3 14.3-20.5 21.4z"/><circle class="cls-15" cx="276.4" cy="72.3" r="4.5"/><path class="cls-5" d="M250.2 268.8h3.8a8.7 8.7 0 0 1 1-1.8l-.1-11.2a2.4 2.4 0 0 1-.9-1.5c0-1 .7-2 1-3-.2.4-.2-1-.3-1.2-.4-1.4-.6-2.8.6-4h-.6V223a2.2 2.2 0 0 1-.2-2.7c-.1-.3.3-.8.4-1a5.7 5.7 0 0 0 .1-1c-.3-.3-.3-.5-.3-.6a1.6 1.6 0 0 1 .1-1.6c-.5-6.5 1.5-12.8-5.2-19-3 .6-3 1.5-3.4 2.3-2.6 5.1-3 10.3-3.6 15.5-1.7 15.3-2.6 30.7-3.5 46-.2 2.6-.7 5.3-.7 8a1.2 1.2 0 0 1 0 .1c4-.2 7.9-.3 11.8-.2z"/><circle class="cls-7" cx="287.6" cy="113.6" r="3.6"/><path class="cls-13" d="M321.7 229.6v-40a5.5 5.5 0 0 1 1-3.4l10.5-14.7c.7-1 2.1-2.5 1-3.5s-2.4.6-3.4 1.4l-9.1 8.6c0-6 .2-11.6-.1-17.1s-.6-11-2.8-16.3c-1.5 1.2-1.6 2.7-1.8 4-1.4 9.1-1.7 18.3-2 27.4-.9 26.5-1.4 53-1.9 79.5l-.3 13.8c0 1.4-.3 1.7-1.8 1.2a53.2 53.2 0 0 1-18-11.1 70.2 70.2 0 0 1-23.6-39.7A72 72 0 0 1 272 185a103.3 103.3 0 0 1 26.5-45 59.1 59.1 0 0 1 7.3-6 19 19 0 0 1 20.1-2 91 91 0 0 1 34 27 71.5 71.5 0 0 1 15.4 31.8 59.6 59.6 0 0 1-7.2 40.4 80 80 0 0 1-39.8 37.2l-4.5 1.5c-1.5.5-2 .2-2-1.4V243a4.3 4.3 0 0 1 1.2-3c6.6-8 13.6-16 19.8-24.4a33.5 33.5 0 0 0 4.4-8.5c.3-.7 1-1.6 0-2.2-.7-.4-1.3.3-1.8.7a88 88 0 0 0-5.6 4.8c-6.2 6.2-11.8 12.8-18.1 19.2z"/><circle class="cls-2" cx="645.4" cy="143.4" r="3.2"/><circle class="cls-2" cx="337.9" cy="163.7" r="3.2"/><circle class="cls-14" cx="353.7" cy="197.3" r="4.5"/></g></g></svg>