<svg id="Layer_1" data-name="Layer 1" xmlns="http://www.w3.org/2000/svg" viewBox="0 0 720 190"><defs><style>.cls-1{fill:#273274}.cls-2{fill:#fff}.cls-3,.cls-4{fill:none;stroke:#fff;stroke-miterlimit:10}.cls-3{stroke-width:4px}.cls-4{stroke-width:2px}</style></defs><title>openebs hacktober section</title><path class="cls-1" d="M0 0h720v190H0z"/><path class="cls-2" d="M211.3 121.2h4.5V107a2.5 2.5 0 0 0-.1-.9 1.2 1.2 0 0 0-.4-.5 1.2 1.2 0 0 0-.5-.3 3.5 3.5 0 0 0-.7 0 6.7 6.7 0 0 0-1.4.1 11.3 11.3 0 0 0-1.6.6 14.2 14.2 0 0 0-1.8.8 8.7 8.7 0 0 0-1.7 1.2 5.8 5.8 0 0 0-1.1 1.4 3.4 3.4 0 0 0-.5 1.7 3.1 3.1 0 0 0 .2 1.3 2 2 0 0 0 .5.7 1.3 1.3 0 0 0 .6.3 2.2 2.2 0 0 0 .4 0 2.2 2.2 0 0 0 1-.2 6 6 0 0 0 .7-.4l.6-.5a1 1 0 0 1 .7-.2 1.7 1.7 0 0 1 .6.2 1.8 1.8 0 0 1 .6.4 2.5 2.5 0 0 1 .5.8 3 3 0 0 1 .2 1.2 3.6 3.6 0 0 1-.4 1.7 3.8 3.8 0 0 1-1 1.2 4.1 4.1 0 0 1-1.4.7 5.3 5.3 0 0 1-1.5.2 5.4 5.4 0 0 1-2.2-.4 4.7 4.7 0 0 1-1.6-1.1 4.8 4.8 0 0 1-1-1.7 6 6 0 0 1-.3-2 7.8 7.8 0 0 1 .6-3.2 8.8 8.8 0 0 1 1.7-2.6 11.5 11.5 0 0 1 2.5-2 16.6 16.6 0 0 1 3.2-1.4 21.1 21.1 0 0 1 3.5-.9 23.9 23.9 0 0 1 3.7-.2 10.2 10.2 0 0 1 3.1.3 4.2 4.2 0 0 1 1.7 1 2.1 2.1 0 0 1 .6 1.1 6.3 6.3 0 0 1 .1 1V121h9.1v-11.8a20.1 20.1 0 0 1 1-7 14 14 0 0 1 2.8-4.7 10.3 10.3 0 0 1 3.8-2.7 11.1 11.1 0 0 1 4.1-.8 16.6 16.6 0 0 1 2.7.2 9.3 9.3 0 0 1 2.2.6 4.4 4.4 0 0 1 1.6 1.1 2.1 2.1 0 0 1 .6 1.5 2.2 2.2 0 0 1-.4 1.3 1.6 1.6 0 0 1-.5.4 1 1 0 0 1-.5.2 1.3 1.3 0 0 1-.8-.3 3.6 3.6 0 0 1-.7-.7l-.6-.9a6 6 0 0 0-.6-.8 3.5 3.5 0 0 0-.9-.7 2.2 2.2 0 0 0-1.1-.3 3.4 3.4 0 0 0-2.4.8 5.3 5.3 0 0 0-1.4 2.5 18 18 0 0 0-.6 4l-.1 5.5v12.8h5v2.1h-5v15.1a2 2 0 0 0 .3 1.2 1 1 0 0 0 1 .4 3.3 3.3 0 0 0 1.3-.2l1-.5.4.9-1.3.8a14.7 14.7 0 0 1-1.6.8 12.6 12.6 0 0 1-1.9.6 9.2 9.2 0 0 1-2 .2 7 7 0 0 1-2.8-.5 4 4 0 0 1-1.6-1.2 3.9 3.9 0 0 1-.8-1.6 9.3 9.3 0 0 1-.1-2v-14h-9.2v12.3a13.2 13.2 0 0 1-1.2 5.9 11.9 11.9 0 0 1-3.4 4.2 14.6 14.6 0 0 1-5 2.5 22.3 22.3 0 0 1-6.2.8 13.7 13.7 0 0 1-2.4-.2 10 10 0 0 1-2-.6 4.6 4.6 0 0 1-1.5-.9 1.5 1.5 0 0 1-.5-1 3.5 3.5 0 0 1 .1-1 2.8 2.8 0 0 1 .4-.8 2.3 2.3 0 0 1 .6-.6 1.4 1.4 0 0 1 .8-.3.6.6 0 0 1 .5.3 5.2 5.2 0 0 1 .4.7l.5.9a3.9 3.9 0 0 0 .8.8 4 4 0 0 0 1 .7 4.1 4.1 0 0 0 1.7.3 7.2 7.2 0 0 0 3.3-.7 6.1 6.1 0 0 0 2.2-2 8.9 8.9 0 0 0 1.4-3 15.9 15.9 0 0 0 .4-3.8v-14.5h-4.5zm46.3-4.7a5.9 5.9 0 0 0-1.6.2 5.4 5.4 0 0 0-1.2.5 3 3 0 0 0-.9.6 1.1 1.1 0 0 0-.3.7.6.6 0 0 0 .4.5l.9.4a2.9 2.9 0 0 1 .8.6 1.6 1.6 0 0 1 .4 1.2 2.2 2.2 0 0 1-.2 1 2.6 2.6 0 0 1-1.4 1.3 2.8 2.8 0 0 1-1 .2 2.9 2.9 0 0 1-2.3-1 3.6 3.6 0 0 1-.8-2.5 4.3 4.3 0 0 1 .8-2.6 6.2 6.2 0 0 1 2-1.7 10.5 10.5 0 0 1 3-1 16 16 0 0 1 6.9 0 9.4 9.4 0 0 1 3 1.4 7 7 0 0 1 2.2 2.3 6.8 6.8 0 0 1 .8 3.5v14.5a1.5 1.5 0 0 0 .2.5 1 1 0 0 0 .3.3 1 1 0 0 0 .5.2 1.2 1.2 0 0 0 .9-.4 6.6 6.6 0 0 0 .6-.6l.7.5-1 1.1a7.1 7.1 0 0 1-3 2.1 6.4 6.4 0 0 1-2.2.4 4.5 4.5 0 0 1-2.8-1 4.5 4.5 0 0 1-1.6-2.8 10.5 10.5 0 0 1-1.6 1.8 9 9 0 0 1-1.8 1.1 7.7 7.7 0 0 1-1.8.7 8.5 8.5 0 0 1-1.8.2 7.3 7.3 0 0 1-2.3-.4 5.5 5.5 0 0 1-2-1.2 5.8 5.8 0 0 1-1.4-2 8.3 8.3 0 0 1-.5-3.2 7 7 0 0 1 .9-3.7 8 8 0 0 1 2.3-2.4 15.8 15.8 0 0 1 3.3-1.8l3.8-1.5a4 4 0 0 0 2-1.7 4.6 4.6 0 0 0 .7-2.3 4 4 0 0 0-1-3 4 4 0 0 0-3-1zm3.9 10.8a1.1 1.1 0 0 0-.4-1 1.6 1.6 0 0 0-1-.2 3.6 3.6 0 0 0-1.7.4 4 4 0 0 0-1.3 1.1 5.9 5.9 0 0 0-1 2 8.9 8.9 0 0 0-.3 2.6 11.2 11.2 0 0 0 .2 2.3 4.7 4.7 0 0 0 .6 1.5 2 2 0 0 0 .8.8 2.3 2.3 0 0 0 1 .2 2.4 2.4 0 0 0 1.2-.3 3.6 3.6 0 0 0 1-.8 4.3 4.3 0 0 0 .7-1.2 3.6 3.6 0 0 0 .2-1.3zm29.9-4.3a3.1 3.1 0 0 1-1.3-.2 2.3 2.3 0 0 1-.9-.7 2.6 2.6 0 0 1-.4-.8 3.4 3.4 0 0 1-.2-1 9.3 9.3 0 0 1 .1-1.3 4.3 4.3 0 0 0 0-1.2 1.3 1.3 0 0 0-.4-.7 1.7 1.7 0 0 0-1.1-.3 4 4 0 0 0-1.8.5 5.2 5.2 0 0 0-1.8 1.5 9 9 0 0 0-1.3 2.8 13.7 13.7 0 0 0-.5 4 21.6 21.6 0 0 0 .5 4.7 11.4 11.4 0 0 0 1.4 3.7 7 7 0 0 0 2.4 2.3 7.2 7.2 0 0 0 5 .6 7.3 7.3 0 0 0 1.5-.5 9.5 9.5 0 0 0 1.3-.8l1.3-1 .6.6a17 17 0 0 1-1.5 1.7 12 12 0 0 1-2.1 1.7 12.4 12.4 0 0 1-3 1.3 12.7 12.7 0 0 1-3.9.5 11 11 0 0 1-4.2-.8 10.9 10.9 0 0 1-3.6-2.4 11.9 11.9 0 0 1-2.5-3.9 13.2 13.2 0 0 1-1-5.1 14.4 14.4 0 0 1 .5-4.2 13.7 13.7 0 0 1 1.6-3.4 13 13 0 0 1 2.3-2.7 14.5 14.5 0 0 1 2.7-2 13.3 13.3 0 0 1 3-1.1 11.3 11.3 0 0 1 2.8-.4 10.9 10.9 0 0 1 3.2.4 7.2 7.2 0 0 1 2.3 1.1 4.6 4.6 0 0 1 1.3 1.6 4.2 4.2 0 0 1 .5 1.9 5 5 0 0 1-.2 1.3 3.5 3.5 0 0 1-.5 1.2 2.6 2.6 0 0 1-1 .8 2.7 2.7 0 0 1-1.1.3zm14.9-1.8l1.9-2.4a17 17 0 0 1 2.1-2.2 11 11 0 0 1 2.5-1.5 6.9 6.9 0 0 1 3-.7 4.6 4.6 0 0 1 2.3.6 5.1 5.1 0 0 1 1.5 1.3 5 5 0 0 1 .8 1.7 5.5 5.5 0 0 1 .3 1.4 9.6 9.6 0 0 1-.3 2.3 8.5 8.5 0 0 1-1 2.3 10.4 10.4 0 0 1-1.8 2.2 12.4 12.4 0 0 1-3 2 85.5 85.5 0 0 0 4.6 8.5 42.5 42.5 0 0 0 4.3 5.9 16.7 16.7 0 0 0 3.9 3.3 7.2 7.2 0 0 0 3.6 1.1 2.5 2.5 0 0 0 .6 0 4.3 4.3 0 0 0 .6-.2 5.3 5.3 0 0 0 .5-.3l.5.9-1.4.7a9.5 9.5 0 0 1-1.6.6 14.7 14.7 0 0 1-2 .4 22.3 22.3 0 0 1-2.8.1 12.2 12.2 0 0 1-2.9-.3 9.9 9.9 0 0 1-2.8-1.3 16.2 16.2 0 0 1-3-2.3 26.6 26.6 0 0 1-3-3.8 54.2 54.2 0 0 1-3.1-5.4q-1.7-3.2-3.4-7.4a26 26 0 0 0 3.7-3.3 16 16 0 0 0 2-2.7 7 7 0 0 0 1-2.2 9.2 9.2 0 0 0 .1-1.5v-.3a1.1 1.1 0 0 0-.2-.5 1.3 1.3 0 0 0-.4-.4 1.3 1.3 0 0 0-.7-.2 3 3 0 0 0-1.9.8 11 11 0 0 0-1.8 2 18.8 18.8 0 0 0-1.5 2.4l-1.1 2.5V138a3.2 3.2 0 0 1-.2.8 1.8 1.8 0 0 1-.5.8 3.3 3.3 0 0 1-1.2.7 6.3 6.3 0 0 1-2 .3 5.5 5.5 0 0 1-2.1-.3 2.9 2.9 0 0 1-1.1-.8 1.9 1.9 0 0 1-.5-.8 4 4 0 0 1 0-.7v-32a2.3 2.3 0 0 0-.4-1.3 1.2 1.2 0 0 0-1.1-.5 1.8 1.8 0 0 0-.8.2 3.1 3.1 0 0 0-.6.4l-.5-.6a14.7 14.7 0 0 1 1.2-1 9.1 9.1 0 0 1 1.6-.8 11.3 11.3 0 0 1 1.7-.5 8.6 8.6 0 0 1 2-.3 5.8 5.8 0 0 1 2.5.5 3.2 3.2 0 0 1 1.4 1 3 3 0 0 1 .5 1.4 10.5 10.5 0 0 1 0 1.2z"/><path class="cls-2" d="M333.6 116.6v18.3a2.6 2.6 0 0 0 .5 1.8 1.8 1.8 0 0 0 1.4.5 2 2 0 0 0 1.2-.3 4.3 4.3 0 0 0 .9-.9 5.3 5.3 0 0 0 .7-1.2l.8.3-.9 1.8a6.9 6.9 0 0 1-3.4 3 8.2 8.2 0 0 1-3.2.6 6.8 6.8 0 0 1-2.1-.3 5 5 0 0 1-1.8-1 5.1 5.1 0 0 1-1.3-1.7 6 6 0 0 1-.5-2.5v-18.4h-2.7v-1.8a7.5 7.5 0 0 0 1.9-.4 9.7 9.7 0 0 0 2.5-1.2 10.1 10.1 0 0 0 2.5-2.2 8.6 8.6 0 0 0 1.5-3.5h2v7.3h4q2 0 2-.7a.3.3 0 0 0-.2-.3l-.6-.2a1.8 1.8 0 0 1-.5-.4 1.1 1.1 0 0 1-.3-.8 1.4 1.4 0 0 1 .5-1.1 1.6 1.6 0 0 1 1-.4 1.6 1.6 0 0 1 .9.2 1.7 1.7 0 0 1 .5.5 2.2 2.2 0 0 1 .4.7 3 3 0 0 1 0 .8 3.5 3.5 0 0 1-.9 2.5 4 4 0 0 1-3 1zm7 10.9a15.8 15.8 0 0 1 1-5.7 12 12 0 0 1 2.5-4 10.2 10.2 0 0 1 3.6-2.5 11.8 11.8 0 0 1 4.4-.9 12.7 12.7 0 0 1 4.4.8 10 10 0 0 1 3.6 2.3 11.3 11.3 0 0 1 2.6 4 15.4 15.4 0 0 1 .9 5.7 16.3 16.3 0 0 1-1 5.7 12.8 12.8 0 0 1-2.5 4.3 10.5 10.5 0 0 1-3.6 2.5 11.1 11.1 0 0 1-4.4 1 11.7 11.7 0 0 1-4.4-1 10.3 10.3 0 0 1-3.6-2.4 12 12 0 0 1-2.5-4 15.9 15.9 0 0 1-1-5.8zm15.3-.3q0-2-.2-3.8a17.3 17.3 0 0 0-.5-3.3 5.8 5.8 0 0 0-1.1-2.3 2.5 2.5 0 0 0-2-.8 2.4 2.4 0 0 0-2 .9 6.3 6.3 0 0 0-1.2 2.3 17.4 17.4 0 0 0-.5 3.4l-.1 3.9.1 3.9a17.7 17.7 0 0 0 .5 3.3 6.3 6.3 0 0 0 1.2 2.4 2.4 2.4 0 0 0 2 1 2.4 2.4 0 0 0 2-1 6.6 6.6 0 0 0 1.1-2.5 19.6 19.6 0 0 0 .5-3.4l.2-4zm11.5-21.2a2.3 2.3 0 0 0-.3-1.3 1.2 1.2 0 0 0-1.1-.5 1.8 1.8 0 0 0-.8.2 3.1 3.1 0 0 0-.6.4l-.5-.6a13.8 13.8 0 0 1 1.2-1 9.8 9.8 0 0 1 1.6-.8 10.9 10.9 0 0 1 1.7-.5 8.6 8.6 0 0 1 2-.3 5.3 5.3 0 0 1 2.4.5 3.5 3.5 0 0 1 1.3 1 3.5 3.5 0 0 1 .6 1.4 6.8 6.8 0 0 1 .2 1.4v11l.7-.7a6.9 6.9 0 0 1 1.2-.8 7.8 7.8 0 0 1 1.7-.7 9.1 9.1 0 0 1 2.4-.2 7.5 7.5 0 0 1 3.2.7 8 8 0 0 1 2.8 2.3 12.4 12.4 0 0 1 2 4 19.3 19.3 0 0 1 .9 5.9 17.5 17.5 0 0 1-.8 5.1 12.5 12.5 0 0 1-2.1 4.2 10.2 10.2 0 0 1-3.6 2.9 11.4 11.4 0 0 1-5 1 12.2 12.2 0 0 1-5.2-1 9 9 0 0 1-3.5-2.7 10.7 10.7 0 0 1-1.8-4 19.8 19.8 0 0 1-.6-4.8zm14.8 21.9a34.6 34.6 0 0 0-.2-4 15.8 15.8 0 0 0-.7-3.4 6.4 6.4 0 0 0-1.3-2.3 2.4 2.4 0 0 0-1.9-.8 2.4 2.4 0 0 0-1.4.4 4 4 0 0 0-1 1 4 4 0 0 0-.5 1 2.7 2.7 0 0 0-.2.6v7.4a24.6 24.6 0 0 0 1 7.9q.8 2.4 2.6 2.4t2.7-2.5a25.7 25.7 0 0 0 .9-7.8zm18.9.9a7 7 0 0 0 .3 1.7 10.2 10.2 0 0 0 .7 1.9 9.9 9.9 0 0 0 1 1.8 8.6 8.6 0 0 0 1.6 1.5 7.3 7.3 0 0 0 1.9 1 6.4 6.4 0 0 0 2.2.5 6.2 6.2 0 0 0 1.7-.2 6.4 6.4 0 0 0 1.3-.6 9 9 0 0 0 1.3-.8l1.2-1 .6.6a17 17 0 0 1-1.5 1.7 12 12 0 0 1-2.1 1.7 12.4 12.4 0 0 1-3 1.4 12.7 12.7 0 0 1-3.9.5 11.7 11.7 0 0 1-4.2-.8 10.4 10.4 0 0 1-3.6-2.3 11.5 11.5 0 0 1-2.5-3.9 15.7 15.7 0 0 1-.4-9.6 13.3 13.3 0 0 1 1.5-3.4 12.7 12.7 0 0 1 2.3-2.6 14.2 14.2 0 0 1 2.8-2 13.5 13.5 0 0 1 2.9-1 11.7 11.7 0 0 1 2.9-.5 11.5 11.5 0 0 1 3.2.4 7.2 7.2 0 0 1 2.3 1.1 4.4 4.4 0 0 1 1.3 1.6 4 4 0 0 1 .5 1.8 3.5 3.5 0 0 1-.7 2.1 6.2 6.2 0 0 1-1.8 1.6zm5-5a3.9 3.9 0 0 0 .6-.4 1.4 1.4 0 0 0 .3-.4 2.4 2.4 0 0 0 .2-.7 6.2 6.2 0 0 0 0-1 7.8 7.8 0 0 0 0-1.4 5.5 5.5 0 0 0-.6-1.4 3.5 3.5 0 0 0-.8-1.1 1.7 1.7 0 0 0-1.2-.5 2.3 2.3 0 0 0-1.5.6 4.1 4.1 0 0 0-1 1.3 8.6 8.6 0 0 0-.6 2 21.7 21.7 0 0 0-.4 2.1l-.1 2.1v1.7zm20.1-4.1a20.4 20.4 0 0 1 2-2.6 13.2 13.2 0 0 1 1-1 9.3 9.3 0 0 1 1-.9 5.7 5.7 0 0 1 1.2-.6 3.4 3.4 0 0 1 1.2-.2 2.6 2.6 0 0 1 2 .8 3 3 0 0 1 .7 2 9.4 9.4 0 0 1-.1 1.7 12 12 0 0 1-.6 2h-.6a2.3 2.3 0 0 0-.7-1.4 2.3 2.3 0 0 0-1.6-.5 4.2 4.2 0 0 0-1.5.3 9.5 9.5 0 0 0-1.5.7 12.8 12.8 0 0 0-1.3 1l-1.2.9V138a3.7 3.7 0 0 1 0 .8 1.8 1.8 0 0 1-.6.8 3 3 0 0 1-1.1.7 6 6 0 0 1-2 .3 5.6 5.6 0 0 1-2.1-.3 3.2 3.2 0 0 1-1.2-.8 1.9 1.9 0 0 1-.5-.8 3.5 3.5 0 0 1 0-.7v-19.2a2.3 2.3 0 0 0-.4-1.3 1.2 1.2 0 0 0-1.1-.5 1.6 1.6 0 0 0-.8.2 3.9 3.9 0 0 0-.6.4l-.5-.6a13.8 13.8 0 0 1 1.3-1 10 10 0 0 1 1.5-.8 11 11 0 0 1 1.7-.5 8.6 8.6 0 0 1 2-.3 5.2 5.2 0 0 1 1.9.3 3.7 3.7 0 0 1 1.2.8 3.5 3.5 0 0 1 .8 1 5.7 5.7 0 0 1 .4 1.1 6.2 6.2 0 0 1 .1 1.1v1z"/><path class="cls-2" d="M450.6 103.3a3 3 0 0 0-1.3.3 2.8 2.8 0 0 0-1 1 5.3 5.3 0 0 0-.8 1.7 9.6 9.6 0 0 0-.3 2.4v6.1h5.5v1.8h-5.4v19.6a21 21 0 0 1-1 6.2 13.6 13.6 0 0 1-2.6 5 12.3 12.3 0 0 1-4.5 3.1 15.6 15.6 0 0 1-6.2 1.2 13.6 13.6 0 0 1-2.4-.2 10 10 0 0 1-2.1-.6 4.6 4.6 0 0 1-1.4-.9 1.5 1.5 0 0 1-.6-1 3.4 3.4 0 0 1 .2-1 2.8 2.8 0 0 1 .3-.8 2.1 2.1 0 0 1 .6-.6 1.5 1.5 0 0 1 .9-.3.6.6 0 0 1 .5.3 5.6 5.6 0 0 1 .4.7l.5.8a3.7 3.7 0 0 0 .7 1 4 4 0 0 0 1.1.6 4.2 4.2 0 0 0 1.6.3 4.7 4.7 0 0 0 2.3-.5 5 5 0 0 0 1.6-1.4 8.3 8.3 0 0 0 1.2-2.2 15.6 15.6 0 0 0 .7-2.6 24.6 24.6 0 0 0 .4-2.9l.1-3v-20.8h-4.5v-1.8h4.5v-3a12.2 12.2 0 0 1 .5-3.7 9.2 9.2 0 0 1 1.5-2.8 8 8 0 0 1 2-1.9 11.5 11.5 0 0 1 2.2-1.1 10.8 10.8 0 0 1 2.3-.6 14.3 14.3 0 0 1 1.9-.1 16.8 16.8 0 0 1 3.1.2 9.6 9.6 0 0 1 2.3.7 4 4 0 0 1 1.4 1 1.8 1.8 0 0 1 .5 1.2 3.2 3.2 0 0 1-.2 1 3.3 3.3 0 0 1-.4.7 2 2 0 0 1-.6.7 1.4 1.4 0 0 1-.8.2.6.6 0 0 1-.5-.3 6.6 6.6 0 0 1-.5-.7l-.5-1a4.8 4.8 0 0 0-.7-1 3.8 3.8 0 0 0-1-.8 3.1 3.1 0 0 0-1.5-.2zm10.2 25.5a7 7 0 0 0 .3 1.7 10.2 10.2 0 0 0 .7 1.9 9.9 9.9 0 0 0 1 1.8 8.6 8.6 0 0 0 1.6 1.5 7.3 7.3 0 0 0 1.9 1 6.4 6.4 0 0 0 2.2.5 6.2 6.2 0 0 0 1.7-.2 6.4 6.4 0 0 0 1.3-.6 9 9 0 0 0 1.3-.8l1.2-1 .6.6a17 17 0 0 1-1.5 1.7 12 12 0 0 1-2.1 1.7 12.4 12.4 0 0 1-3 1.4 12.7 12.7 0 0 1-3.9.5 11.7 11.7 0 0 1-4.2-.8 10.4 10.4 0 0 1-3.6-2.3 11.5 11.5 0 0 1-2.5-3.9 15.7 15.7 0 0 1-.4-9.6 13.3 13.3 0 0 1 1.5-3.4 12.7 12.7 0 0 1 2.3-2.6 14.2 14.2 0 0 1 2.8-1.9 13.5 13.5 0 0 1 3-1.1 11.7 11.7 0 0 1 2.8-.4 11.5 11.5 0 0 1 3.2.4 7.2 7.2 0 0 1 2.3 1 4.4 4.4 0 0 1 1.3 1.6 4 4 0 0 1 .5 1.9 3.5 3.5 0 0 1-.7 2 6.2 6.2 0 0 1-1.8 1.7zm5-5a3.9 3.9 0 0 0 .6-.4 1.4 1.4 0 0 0 .3-.4 2.4 2.4 0 0 0 .2-.7 6.2 6.2 0 0 0 0-1 7.8 7.8 0 0 0 0-1.4 5.5 5.5 0 0 0-.6-1.4 3.5 3.5 0 0 0-.8-1.1 1.7 1.7 0 0 0-1.2-.5 2.3 2.3 0 0 0-1.5.6 4.1 4.1 0 0 0-1 1.3 8.6 8.6 0 0 0-.6 2 21.7 21.7 0 0 0-.4 2.1l-.1 2.1v1.7zm20.2-7.4a3.8 3.8 0 0 0-1.2.2 2.4 2.4 0 0 0-.9.5 2.3 2.3 0 0 0-.6.8 3 3 0 0 0-.2 1.2 3.2 3.2 0 0 0 .7 2 16.6 16.6 0 0 0 1.7 2l2.3 2a25.2 25.2 0 0 1 2.3 2.4 13.2 13.2 0 0 1 1.8 2.6 6.5 6.5 0 0 1 .7 3 7.9 7.9 0 0 1-.6 3.2 6.5 6.5 0 0 1-1.8 2.3 7.7 7.7 0 0 1-2.7 1.5 11.7 11.7 0 0 1-3.6.5 9.4 9.4 0 0 1-3-.5 11.2 11.2 0 0 1-2.5-1.2 10.7 10.7 0 0 1-1.9-1.5 10 10 0 0 1-1.2-1.4l.9-.6a8.4 8.4 0 0 0 .8.8 8 8 0 0 0 1.1.8 6.5 6.5 0 0 0 1.3.6 4.4 4.4 0 0 0 1.4.3 4.8 4.8 0 0 0 3-1 3 3 0 0 0 1.1-2.4 3.7 3.7 0 0 0-.6-2 15.4 15.4 0 0 0-1.6-2l-2-2.3a29.8 29.8 0 0 1-2-2.3 13.9 13.9 0 0 1-1.5-2.5 6.1 6.1 0 0 1-.7-2.7 5.6 5.6 0 0 1 .7-2.7 5.8 5.8 0 0 1 1.7-2 7.5 7.5 0 0 1 2.4-1.1 10.2 10.2 0 0 1 2.8-.4 14.2 14.2 0 0 1 3 .3 7.4 7.4 0 0 1 2.3.9 4.4 4.4 0 0 1 1.5 1.5 4.2 4.2 0 0 1 .5 2.1 2.4 2.4 0 0 1-.6 1.7 2.2 2.2 0 0 1-1.7.7 2.5 2.5 0 0 1-1.6-.5 1.5 1.5 0 0 1-.6-1.2 1.2 1.2 0 0 1 .3-.9 2.3 2.3 0 0 1 .5-.4l.6-.4a.4.4 0 0 0 .3-.3 1.2 1.2 0 0 0-.8-1.1 4 4 0 0 0-1.9-.5zm18.7.2v18.3a2.6 2.6 0 0 0 .5 1.8 1.8 1.8 0 0 0 1.4.5 2 2 0 0 0 1.2-.3 4.3 4.3 0 0 0 .9-.9 5.3 5.3 0 0 0 .7-1.2l.8.3-.9 1.8a6.9 6.9 0 0 1-3.4 3 8.2 8.2 0 0 1-3.3.6 6.8 6.8 0 0 1-2-.3 5 5 0 0 1-1.8-1 5.1 5.1 0 0 1-1.3-1.7 6 6 0 0 1-.5-2.5v-18.4h-2.7v-1.8a7.5 7.5 0 0 0 1.9-.4 9.7 9.7 0 0 0 2.5-1.2 10.1 10.1 0 0 0 2.4-2.2 8.6 8.6 0 0 0 1.6-3.5h2v7.3h4q2 0 2-.7a.3.3 0 0 0-.2-.3l-.6-.2a1.8 1.8 0 0 1-.5-.4 1.1 1.1 0 0 1-.3-.8 1.4 1.4 0 0 1 .4-1.1 1.6 1.6 0 0 1 1.2-.4 1.6 1.6 0 0 1 .8.2 1.7 1.7 0 0 1 .5.5 2.2 2.2 0 0 1 .3.7 3 3 0 0 1 .2.8 3.5 3.5 0 0 1-1 2.5 4 4 0 0 1-3 1z"/><path class="cls-3" d="M521 115.3h22V97.8m-22 32h46.2M521 142.7h36.5V155M195 138.7h-21.9V156m22.3-31.8h-46.5m45.9-12.9h-36.2V99"/><circle class="cls-3" cx="557.2" cy="162.4" r="3.2"/><circle class="cls-4" cx="543.3" cy="98.9" r="2.3"/><circle class="cls-2" cx="575.3" cy="129.5" r="3.2"/><circle class="cls-3" cx="158.3" cy="93.2" r="3.2"/><circle class="cls-4" cx="143.8" cy="124.5" r="2.3"/><circle class="cls-2" cx="173.1" cy="162.9" r="3.2"/></svg>