<svg id="Layer_1" data-name="Layer 1" xmlns="http://www.w3.org/2000/svg" viewBox="0 0 500 500"><defs><style>.cls-1{fill:#73cadb}.cls-2{fill:#40b791}.cls-3{fill:#e8a825}.cls-4{fill:#df1766}.cls-5{fill:#472b49}.cls-6{fill:#cd2028}.cls-7{fill:#20947e}.cls-8{fill:#67883a}</style></defs><title>slack icon</title><path class="cls-1" d="M162.7 136l32.5-10.6L252 107l3.2-1.2h.3l.5 2.4 19.7 60.3c2.2 6.9 4.7 13.7 6.5 20.7l-31.8 10.4-60.6 19.6h-.4a11.4 11.4 0 0 0-.3-1.2l-18.5-57.4-8-24.5z"/><path class="cls-2" d="M189.4 219.2h.4a10.5 10.5 0 0 0 .3 1.2l29 89.4a3.5 3.5 0 0 0 1.1 2 1.5 1.5 0 0 1-.1.3 3.8 3.8 0 0 0-2.3.4l-60.6 19.7c-6.8 2.2-13.6 4.7-20.6 6.5l-7.9-23.5q-11-33.6-21.8-67.3l-.3-1.1a4.2 4.2 0 0 1 2.2-1l20-6.3 45.7-15c5-1.8 10-3 14.9-5.3z"/><path class="cls-3" d="M366 162.6l28 85.7 2 6.2-2.5 1-53.7 17.5-27.1 8.7-3.2-9.6-26.8-82.6 2.8-.8 58.2-19c7.4-2.5 14.8-4.8 22.2-7z"/><path class="cls-4" d="M220.1 312.1a1.5 1.5 0 0 0 .1-.3l7-2 85.3-27.5c.4 1 .8 2 1 3l10 30.6 16.2 49.7-52.3 16.8-40 12.9-21-64.2c-2-6.4-3.8-12.8-6.3-19z"/><path class="cls-5" d="M220.1 312.1c2.5 6.2 4.3 12.6 6.4 19l21 64.2-.3.5-52.4 17-30.9 10.2-.6-.5-2.8-9.3-24.1-74a3.9 3.9 0 0 0 .2-.4c7-1.8 13.8-4.3 20.6-6.5l60.6-19.7a3.8 3.8 0 0 1 2.3-.5z"/><path class="cls-6" d="M339.7 365.6l-16.2-49.7-10-30.7c-.2-1-.7-2-1-2.9l.2-.6 27-8.7 53.7-17.5 2.5-1 .8.6a23.4 23.4 0 0 0 .6 2.6l9 27.4 16.6 51a19.9 19.9 0 0 1 .5 2.4v.2a2 2 0 0 0-.5 0l-61.6 20c-7 2.3-14.2 4.4-21.2 7a.5.5 0 0 1-.4-.1z"/><path class="cls-7" d="M189.4 219.2c-4.8 2.2-10 3.5-15 5.2l-45.7 15.1-20 6.3a4.2 4.2 0 0 0-2.2 1l-.9-.2L82 174.1c-1.1-3.5-2-7.2-3.7-10.6l.6-.9 31-9.9q25-8 49.8-16.2a21.2 21.2 0 0 1 2.6-.5h.3l8 24.6L189 218a11.4 11.4 0 0 1 .3 1.2z"/><path class="cls-8" d="M366 162.6c-7.5 2.3-15 4.6-22.3 7l-58.3 19c-.9.4-1.8.6-2.7.8a1.5 1.5 0 0 0-.4-.2c-1.8-7-4.4-13.8-6.6-20.7L256 108.2l-.6-2.3c1.1-.5 2.2-1 3.4-1.3 20.3-6.7 40.6-13.2 60.9-20 6.2-2 12.6-3.6 18.7-6.2a1.2 1.2 0 0 1 1 .6l.6 2.6 16.3 50.1 10 30.2z"/><path class="cls-4" d="M136.4 339.1l24 74 2.9 9.3c-16 5-31.7 10.6-47.8 15.2a42.8 42.8 0 0 1-52.4-29.5 43.9 43.9 0 0 1 29-54.7z"/><path class="cls-1" d="M78.4 163.5c1.7 3.4 2.5 7 3.7 10.7l23.6 72.4c-9.6 3-19.1 6.2-28.7 9.1-7.4 2.3-14.6 5.2-22.2 6.7a40.2 40.2 0 0 1-35-9.3 43.4 43.4 0 0 1-15.7-37.8 44.2 44.2 0 0 1 29.4-37.6L75.8 164a6.7 6.7 0 0 1 2.6-.5z"/><path class="cls-3" d="M338.5 78.4c-6.1 2.6-12.5 4.2-18.7 6.3l-61 19.9-3.3 1.3h-.3c-1.8-7.1-4.4-14-6.6-21-2.8-8.6-6-17.2-8.4-26a43.6 43.6 0 0 1 33.3-54A43 43 0 0 1 323 31.4c5.8 15.5 10.4 31.4 15.5 47z"/><path class="cls-2" d="M163.9 423l30.9-10 52.4-17.2 14 43.4a41.7 41.7 0 0 1-10.4 45.6 44 44 0 0 1-72.6-17.7L163.9 423z"/><path class="cls-3" d="M340 365.8c7-2.6 14.2-4.7 21.3-7l61.5-20a2 2 0 0 1 .5 0c4.8 14.9 9.5 29.7 14.4 44.5 8.3 24.8-7 50.5-32.4 56a44 44 0 0 1-51-29l-13.9-43-.3-1.5z"/><path class="cls-4" d="M423.4 338.5a19.9 19.9 0 0 0-.5-2.3l-16.6-51-9-27.5a23.4 23.4 0 0 1-.6-2.6c15.4-5 30.7-10.3 46.2-14.9a43.6 43.6 0 0 1 54.5 35 43.2 43.2 0 0 1-28.9 48.6c-14 4.9-28.4 9.3-42.6 13.9l-2.5.8z"/><path class="cls-2" d="M162.3 136a21.2 21.2 0 0 0-2.6.5L110 152.7l-31 10c-4.7-14.7-9.3-29.4-14.2-44a44.2 44.2 0 0 1 37-57.2 43.2 43.2 0 0 1 45.9 29c5 14.5 9.5 29.2 14.3 43.8a11.8 11.8 0 0 1 .3 1.7z"/><path class="cls-1" d="M366.4 161.9l-10-30.2-16.2-50.1-.7-2.6c5.3-2.3 11-3.8 16.4-5.5 10-3.3 20-7 30.1-9.6A44.1 44.1 0 0 1 439.4 98a43.9 43.9 0 0 1-29.8 50l-41 13.4c-.7.3-1.5.3-2.2.5z"/></svg>