<svg id="Layer_1" data-name="Layer 1" xmlns="http://www.w3.org/2000/svg" viewBox="0 0 1532 346"><defs><style>.cls-1{fill:#ff3a00;}</style></defs><title>logo openebs svg</title><path class="cls-1" d="M1259.75,148l5.2,1.39c15.37,4.11,24.9,13.7,27.64,29.59a30,30,0,0,1,.27,5c0,12.64.09,25.27,0,37.91,0,5.65.14,11.41-.84,16.93-2.55,14.37-12,22.74-25.31,27.39a71.58,71.58,0,0,1-23.75,3.92q-85.9,0-171.79,0c-4.07,0-4.48-.37-4.49-4.55,0-9.6,0-19.19,0-28.79q0-94.42,0-188.83c0-6.05,0-6.05,6.09-6.05q81.82,0,163.64,0c11.87,0,23.41,1.86,33.8,8.18,10.88,6.61,16.79,16.22,16.91,29s.06,25.57-.13,38.35a76.18,76.18,0,0,1-1.32,11.64,17.56,17.56,0,0,1-11.83,14.2c-3.94,1.46-8.11,2.32-12.18,3.45l-1.77.47Zm-91,17.63v-.08h-65.73c-.72,0-1.44,0-2.16,0-2.09.14-3.54,1.05-3.63,3.33s0,4.46-.05,6.69q-.09,30.7-.18,61.41c0,4.84,1.11,6,5.93,5.94,6.47,0,12.95-.18,19.42-.17,17.83,0,35.66.16,53.49.16,18.15,0,36.3-.09,54.45-.18a61.46,61.46,0,0,0,20.27-3.06c6.08-2.14,10.1-7.26,10.2-13.45.23-13.27.45-26.54.37-39.8-.06-10.4-4.09-16.1-13.23-18.63a53.71,53.71,0,0,0-13.66-2.08C1212.45,165.56,1190.62,165.67,1168.79,165.67Zm-.71-26.85v-.19c8.23,0,16.47,0,24.7,0,10.55,0,21.1-.1,31.66-.23,4.39-.05,8.8-.1,13.16-.49,10.94-1,18.18-8.77,18.32-19.7q.18-13.79,0-27.58c-.12-9.76-5.14-16.17-14.44-19.12-6.44-2-13.07-2.09-19.68-2.11q-59.25-.17-118.49-.2a22.31,22.31,0,0,0-3.09.29,3,3,0,0,0-2.87,3c-.12,2.46-.12,4.93-.13,7.4q-.1,24.7-.17,49.41a28.1,28.1,0,0,0,.41,6.42,5,5,0,0,0,2.56,2.69,8.13,8.13,0,0,0,3.52.39Q1135.81,138.84,1168.08,138.83Z"/><path class="cls-1" d="M1395.46,270.24h-81.35c-4.85,0-5.21-.5-5.12-5.39.12-6.4.13-12.8,0-19.2,0-2.33.5-3.1,3-3.1q77.75.13,155.5,0c11.46,0,20.41-4.74,25.42-15.53a30.09,30.09,0,0,0,2.67-13.29c-.13-8.22.12-16.48-.61-24.65-1.12-12.65-12.6-22.56-25.39-22.58-38.63-.07-77.26-.24-115.9-.13-16.11,0-29.34-6-40.31-17.48a41.63,41.63,0,0,1-11.7-27.4c-.46-9.17-.68-18.38-.46-27.57s1.3-18.38,6.18-26.54c9.72-16.24,24.14-25,43-25.16,49.11-.33,98.22-.21,147.33-.27,3,0,5.92-.07,8.88,0,2.75.05,3.56.91,3.57,3.64q0,10.08,0,20.16c0,2.62-.77,3.4-3.39,3.59-1,.07-1.92,0-2.88,0q-71.39,0-142.78,0c-6.36,0-12.38,1.13-17.76,4.77-6.86,4.64-10.49,11.22-11.61,19.3a62,62,0,0,0,1,24.27c3.08,11.87,13.69,19.73,26.58,19.74q48.71,0,97.43,0c6.56,0,13.12,0,19.68,0,25.17.16,47.48,20.39,49,45.49a299.53,299.53,0,0,1-.15,43.35c-1.69,20-17,37.56-37.88,42.4a57.37,57.37,0,0,1-12.58,1.43c-26.48.13-53,.06-79.43.06Z"/><path class="cls-1" d="M866.55,166.34c0,2,0,3.39,0,4.82,0,14.4-.16,28.8.06,43.2.15,10.07,3.75,18.59,12.77,24.05a30,30,0,0,0,15.81,4.08q76.8.07,153.6.09a19.46,19.46,0,0,0,2.16,0c2.26-.25,2.93.85,2.9,3-.08,5.76,0,11.52,0,17.28,0,1.2.14,2.39.14,3.59,0,2.78-.92,3.77-3.71,3.83s-5.28,0-7.92,0c-14.64,0-29.28,0-43.92,0-16.72,0-33.43-.18-50.15-.16-20.31,0-40.62.24-60.93.26A51.64,51.64,0,0,1,836.85,229a49.44,49.44,0,0,1-.8-9.53q-.08-63,0-126c0-26.27,18-47.13,43.93-50.9A53.71,53.71,0,0,1,887.6,42q80-.06,160.08-.06c.72,0,1.44,0,2.16,0,3.15.1,4.17,1.1,4.16,4.24q0,10.31-.17,20.63c0,2.63-.66,3.22-3.3,3.22H894.77c-17,0-28.21,11.29-28.21,28.34q0,17.28,0,34.56c0,4.5,1,5.48,5.49,5.48l128.16-.07c6.4,0,12.8.12,19.2,0,2.22,0,3.11,1,3.13,2.95,0,7.27,0,14.55,0,21.82a3,3,0,0,1-2.86,3.25,18.88,18.88,0,0,1-2.87.12l-146.15-.18Z"/><path class="cls-1" d="M70.84,43.11c7.09-.32,14.17-.89,21.26-.91q54.24-.14,108.47,0c8,0,16-.18,24,.3,21.18,1.28,40.93,19,44.81,39.87A60.12,60.12,0,0,1,270.42,93q.2,59.27.19,118.54c0,7.48.06,15-2.11,22.34a50.42,50.42,0,0,1-43,35.9c-2.38.24-4.78.4-7.17.4q-48.36.08-96.71.09c-13,0-26.08.05-39.12-.13A49.41,49.41,0,0,1,34,225.06c-.65-7.71-.47-15.5-.48-23.25,0-35.84-.09-71.68.11-107.51,0-6,1.21-12.06,2-18.07.27-2.09,1.1-2.3,2.65-.75,8,8,16.09,16,24,24.2A6.79,6.79,0,0,1,63.53,104c.09,19.36,0,38.72.06,58.08q0,25.55.21,51.11a70.86,70.86,0,0,0,.84,12.17C66.2,233.83,72,238.7,79.84,241a48.8,48.8,0,0,0,12.94,2c23.83.25,47.67.25,71.51.26,15.28,0,30.56.08,45.83-.33a56.38,56.38,0,0,0,15.24-2.7,23.87,23.87,0,0,0,16.4-23c-.17-20.47-.45-40.94-.73-61.41q-.34-24.82-.79-49.65c-.1-5,0-10.12-.86-15A26.21,26.21,0,0,0,216,69.65c-5.88-.53-11.81-.5-17.72-.51q-48.6,0-97.19.1a12.28,12.28,0,0,1-9.56-4C85.64,59.1,79.46,53.17,73.41,47.12c-1-1-1.88-2.13-2.81-3.2Z"/><path class="cls-1" d="M314.15,335c-9.17,0-17.89.08-26.59-.11-.89,0-1.93-1.52-2.54-2.54-.39-.66-.12-1.72-.12-2.6q0-110.52,0-221c0-6.55,0-6.55,6.58-6.55H406c10.37,0,20.15,2.21,28.92,7.94,10.75,7,18.32,16.34,20.51,29.34a48.07,48.07,0,0,1,.7,7.86c.05,25.44,0,50.88,0,76.32.06,18.78-8.81,32-25,40.83a48.82,48.82,0,0,1-23.73,5.74H318.89c-4.31,0-4.74.45-4.74,4.83q0,28.32,0,56.64Zm-.08-148.77h.08q0,18,0,36c0,5.68-.08,11.36-.06,17,0,3.89.88,4.83,4.79,4.92,4.71.11,9.43,0,14.14,0,23,0,45.92.15,68.88-.06,14.61-.13,24.6-10.68,24.6-25.32q0-32.52,0-65a24.54,24.54,0,0,0-3-12.19c-5.33-9.58-14-13.26-24.38-13.35-26.24-.21-52.48-.11-78.71-.13-5.33,0-6.33,1-6.33,6.24Q314.07,160.32,314.07,186.23Z"/><path class="cls-1" d="M566.78,201.38H502.71a27.67,27.67,0,0,0-3.82.21,3,3,0,0,0-2.88,3c.06,9.74-.27,19.52.55,29.2.57,6.8,6.07,10.79,13,11.15,1,.05,2.08,0,3.12,0h105.1c4.46,0,5,.5,5,4.91q0,8.16,0,16.32c0,3.33-.61,4-3.86,4-26.47,0-52.95.06-79.42,0-13.19,0-26.39-.06-39.57-.52-17.57-.6-32.77-16-32.89-33.51-.2-30.15-.29-60.31,0-90.46.2-20.4,17.84-39.72,38.12-42.28a153.24,153.24,0,0,1,18.4-1.06c19.59-.1,39.19-.16,58.79.15,8.41.13,17-.37,25.12,2.72,15.76,6,26,16.93,29.85,33.54a38.37,38.37,0,0,1,.75,8.34c.08,16.32.06,32.63.07,49,0,4.43-1,5.47-5.55,5.47H566.78Zm-14.55-26q25.8,0,51.6,0c3.89,0,4.86-1,4.88-4.79,0-5.2.07-10.39,0-15.59-.2-13.4-7.43-23-19.45-25.58a44.76,44.76,0,0,0-9.06-.67q-24.72-.13-49.44-.07c-4.95,0-10-.14-14.83.73a24.52,24.52,0,0,0-19.94,24c-.1,5.52,0,11,0,16.56,0,4.68.74,5.44,5.39,5.44Z"/><path class="cls-1" d="M648.95,270.19c0-8.43,0-16.5,0-24.57,0-.72.08-1.44.08-2.16.07-21.92.18-43.83.16-65.75,0-9.43-.41-18.87-.43-28.3a46.09,46.09,0,0,1,33.59-45,47.86,47.86,0,0,1,12.47-2c18.87-.32,37.74-.4,56.62-.43,9.27,0,18.57-.06,27.82.5,20.8,1.25,38.59,16.42,42.38,35.35a49.64,49.64,0,0,1,.8,9.53c.07,21.12,0,42.24,0,63.36,0,17.84.12,35.67.17,53.51,0,1-.07,2.08-.14,3.11a2.77,2.77,0,0,1-3.12,2.87c-7.51,0-15,0-22.54,0-2.45,0-3.42-1.07-3.54-3.55,0-.64,0-1.28,0-1.92q0-51,0-102c0-4.69.15-9.5-.77-14.06-2.24-11.08-11.06-18.73-22.33-20a71.82,71.82,0,0,0-8.13-.48q-27.24-.06-54.48,0A33.76,33.76,0,0,0,692,131.49c-9.06,4.61-13.62,12.12-13.66,22.2-.09,23.84,0,47.68,0,71.52q0,20,0,40.08a7.74,7.74,0,0,1-.29,3.07c-.35.77-1.35,1.75-2.07,1.76C667,270.24,658.1,270.19,648.95,270.19Z"/><path class="cls-1" d="M123.44,84.17c0,.93.13,1.87.14,2.8q.11,18.47.19,36.94c0,.8-.06,1.6-.12,2.39a2.33,2.33,0,0,1-2.66,2.41c-12.16,0-24.31,0-36.47-.1a16.79,16.79,0,0,1-3.53-.88c2.58-4.92,7-7.48,10.27-11.35L17.16,43.29,5.8,55.2V11H49.42l.46.47L36,24.28c.84.93,1.17,1.36,1.56,1.73C47.22,35.29,57,44.46,66.61,53.88,80,67.06,93.22,80.43,106.51,93.72c3.27,3.27,4.15,3.2,7.32-.24,3-3.22,6-6.38,9-9.57Z"/><path class="cls-1" d="M225.75,196.73c0,6.55,0,13.11,0,19.66a13.15,13.15,0,0,1-13.28,13.47q-19.42.14-38.84,0c-8.25,0-13.77-5.4-13.86-13.62-.14-12.95-.16-25.9,0-38.84.11-8.2,5.8-13.5,14-13.51q18.94,0,37.88,0c8.5,0,14.08,5.62,14.11,14.12,0,3.12.06,6.23.07,9.35s0,6.23,0,9.35Z"/><path class="cls-1" d="M192.71,82.19c6.24,0,12.48,0,18.72,0,8.9.05,14.33,5.52,14.33,14.38q0,18.23,0,36.47c0,9.67-4.88,15-14.55,15.18q-18.47.34-36.95,0c-9.62-.19-14.51-5.6-14.52-15.28,0-12.16,0-24.32,0-36.47,0-7.2,4-12.5,10.44-13.93a25.35,25.35,0,0,1,5.25-.33C181.19,82.16,186.95,82.19,192.71,82.19Z"/><path class="cls-1" d="M78,196.65c0-6.31,0-12.62,0-18.93,0-8.27,5.62-13.8,13.89-13.81q19.07,0,38.14,0c7.89,0,13.28,4.74,13.7,12.66.41,7.65.29,15.34.28,23,0,6.07,0,12.16-.33,18.21a12.39,12.39,0,0,1-12.52,12.05q-20.26.24-40.53,0A12.71,12.71,0,0,1,78.06,217c-.13-6.79,0-13.58,0-20.37Z"/></svg>