<svg id="Layer_1" data-name="Layer 1" xmlns="http://www.w3.org/2000/svg" xmlns:xlink="http://www.w3.org/1999/xlink" viewBox="0 0 425 427"><defs><style>.cls-1,.cls-3,.cls-5,.cls-7{fill:none;}.cls-2{fill:#fff;}.cls-3,.cls-5,.cls-7{stroke:#464747;}.cls-3,.cls-5,.cls-7,.cls-8{stroke-miterlimit:10;}.cls-3{stroke-width:1.4px;}.cls-4{fill:#f69437;}.cls-5{stroke-width:2px;}.cls-6{fill:#464747;}.cls-7{stroke-width:1.5px;}.cls-8{fill:#b9b9b9;stroke:#fff;stroke-width:0.5px;}.cls-9{fill:#fefefe;}.cls-10{clip-path:url(#clip-path);}.cls-11{fill:#934c16;opacity:0.36;}.cls-12{fill:#493636;}.cls-13{fill:#bc896f;}.cls-14{fill:#b18070;}.cls-15{fill:url(#radial-gradient);}.cls-16{fill:url(#radial-gradient-2);}.cls-17{fill:#050505;}.cls-18{fill:url(#radial-gradient-3);}.cls-19{fill:url(#radial-gradient-4);}.cls-20{fill:url(#radial-gradient-5);}.cls-21{fill:#4b3838;}.cls-22{fill:#fdfdfd;}.cls-23{fill:#4e4f4f;}</style><clipPath id="clip-path"><ellipse class="cls-1" cx="212.03" cy="213.03" rx="61.11" ry="61.49"/></clipPath><radialGradient id="radial-gradient" cx="195.21" cy="182.62" r="12.77" gradientTransform="translate(0 4.42)" gradientUnits="userSpaceOnUse"><stop offset="0" stop-color="#3192c3"/><stop offset="1" stop-color="#3192c3"/></radialGradient><radialGradient id="radial-gradient-2" cx="226.41" cy="182.61" r="12.77" xlink:href="#radial-gradient"/><radialGradient id="radial-gradient-3" cx="210.3" cy="190" r="2.58" xlink:href="#radial-gradient"/><radialGradient id="radial-gradient-4" cx="210.94" cy="181.08" r="1.84" xlink:href="#radial-gradient"/><radialGradient id="radial-gradient-5" cx="213.8" cy="189.73" r="1.42" xlink:href="#radial-gradient"/></defs><title>cicrcle</title><ellipse class="cls-2" cx="212.5" cy="213.5" rx="208.73" ry="210"/><path class="cls-3" d="M212,380.93c-3.69,0-7.38,0-11.07,0a5.25,5.25,0,0,1-4.44-2.16q-6.94-8.77-14-17.47a4.61,4.61,0,0,1-.94-4.12q2.55-11.19,5.11-22.37a4.26,4.26,0,0,1,2.4-3l17.24-8.29,3.66-1.75a4.42,4.42,0,0,1,4,0l20.65,9.91a4.71,4.71,0,0,1,2.68,3.33q2.56,11.12,5.08,22.24a4.61,4.61,0,0,1-1,4.08q-7.1,8.87-14.19,17.76a4.76,4.76,0,0,1-3.92,1.88Zm0-.69h11.35a4.17,4.17,0,0,0,3.44-1.65q7.06-8.85,14.13-17.68a4.11,4.11,0,0,0,.83-3.69q-2.46-10.72-4.89-21.44a4.8,4.8,0,0,0-2.68-3.61q-10.2-4.85-20.37-9.76a3.91,3.91,0,0,0-3.59,0q-10.36,5-20.73,10a3.64,3.64,0,0,0-2.07,2.58c-.26,1.14-.52,2.29-.78,3.43q-2.18,9.56-4.35,19.12a3.72,3.72,0,0,0,.79,3.3q7,8.76,14,17.55a4.6,4.6,0,0,0,3.88,1.9C204.64,380.22,208.31,380.24,212,380.24Z"/><path class="cls-4" d="M211.76,334.3c-.15-1.15-.27-2.09-.38-3a1.56,1.56,0,0,1,0-.81,1,1,0,0,1,.61-.5.49.49,0,0,1,.6.48,17.65,17.65,0,0,1-.1,1.81c-.05.64-.14,1.27-.17,1.91a2.84,2.84,0,0,0,.17.84c0,.14.18.26.2.41.14.86.75,1,1.48,1.09a14.89,14.89,0,0,1,8.58,4.18,1.8,1.8,0,0,0,1.95.44,4.34,4.34,0,0,0,1.94-1.31c.46-.49.92-1,1.4-1.44a.86.86,0,0,1,.5-.29,1,1,0,0,1,.71.23,1,1,0,0,1,0,.74,1,1,0,0,1-.41.41c-.73.47-1.48.9-2.19,1.4a5,5,0,0,0-1,.94,7.17,7.17,0,0,0-.53.9.75.75,0,0,0,0,.86,15.9,15.9,0,0,1,2.54,9.11,8.72,8.72,0,0,1-.13,1.09,1.28,1.28,0,0,0,.44,1.16c1,1,2.18,1,3.37,1.11a13.27,13.27,0,0,1,1.39.18c.57.14.8.48.7.9s-.52.59-1.06.42a14.31,14.31,0,0,1-2.18-.79,4,4,0,0,0-2.84,0,1,1,0,0,0-.54.61,15.15,15.15,0,0,1-3.59,5.83,31.72,31.72,0,0,1-2.77,2.29,1.46,1.46,0,0,0-.64,1,3.6,3.6,0,0,0,.59,2.53c.37.58.76,1.14,1.13,1.72a2.38,2.38,0,0,1,.3.66.65.65,0,0,1-.35.85.67.67,0,0,1-.85-.33,1.84,1.84,0,0,1-.22-.45c-.25-.73-.54-1.46-.73-2.21a4.08,4.08,0,0,0-1.73-2.11,1,1,0,0,0-.78,0,15.37,15.37,0,0,1-10.18.06,1.43,1.43,0,0,0-1.26.14,3.73,3.73,0,0,0-1.65,2.22c-.21.64-.41,1.28-.63,1.91a2.19,2.19,0,0,1-.24.49.66.66,0,0,1-.86.3.63.63,0,0,1-.32-.82,2,2,0,0,1,.27-.58c.44-.7.87-1.4,1.34-2.07a4.16,4.16,0,0,0,.47-1.84,1.33,1.33,0,0,0-.73-1.53,15.17,15.17,0,0,1-6-7.3,2.19,2.19,0,0,0-2.77-1.53,18.61,18.61,0,0,0-1.94.62,11.38,11.38,0,0,1-1.34.42c-.52.1-.88-.12-.94-.49a.79.79,0,0,1,.75-.83,22.15,22.15,0,0,1,2.44-.27,3.87,3.87,0,0,0,1.66-.53,1.84,1.84,0,0,0,1.06-2.16,14.83,14.83,0,0,1,2.24-9.44,1.36,1.36,0,0,0,.11-1.26,3.7,3.7,0,0,0-1.57-1.85c-.6-.38-1.23-.73-1.83-1.11a1.41,1.41,0,0,1-.56-.52,1.08,1.08,0,0,1,0-.79.53.53,0,0,1,.76-.16,3.06,3.06,0,0,1,.69.51c.64.63,1.25,1.3,1.9,1.91a3.36,3.36,0,0,0,.94.51c.26.11.55.16.82.26a.82.82,0,0,0,.93-.3,15.52,15.52,0,0,1,4.59-3.26,15.85,15.85,0,0,1,4.85-1.34,1,1,0,0,0,1-.8C211.39,335.12,211.62,334.63,211.76,334.3Zm-.79,5.81h0a4.39,4.39,0,0,0,0-.64.92.92,0,0,0-1.13-.85,13.55,13.55,0,0,0-7.12,3.52.79.79,0,0,0,0,1.24,6.65,6.65,0,0,0,.59.43c1.54,1.09,3.07,2.2,4.62,3.27a1.63,1.63,0,0,0,2.69-1.27C210.74,343.92,210.85,342,211,340.11Zm14.64,12.22h0c0-.52,0-1-.09-1.55a13.13,13.13,0,0,0-1.72-5.45.82.82,0,0,0-1.37-.24c-.37.31-.72.65-1.09,1-1.15,1-2.32,2.07-3.45,3.13a1.68,1.68,0,0,0,.66,3c2,.61,4,1.18,5.93,1.75a.79.79,0,0,0,1.11-.81C225.62,352.87,225.61,352.6,225.61,352.32Zm-8,2.58a1.62,1.62,0,0,0-1.62,1,1.9,1.9,0,0,0,0,1.55l2.24,5.45c.37.89.84,1,1.62.45a13.72,13.72,0,0,0,4.68-5.9c.38-.9.13-1.34-.85-1.49l-2.51-.42Zm-19.2-2.78c0,.29,0,.58,0,.87,0,.86.43,1.19,1.26.95l5.71-1.68a1.69,1.69,0,0,0,1.33-1.23,1.8,1.8,0,0,0-.67-1.83l-4.37-3.94c-.69-.62-1.2-.53-1.63.29A13.35,13.35,0,0,0,198.44,352.12Zm9.75,4.46a1.65,1.65,0,0,0-2-1.61c-2.14.35-4.28.72-6.42,1.06-.38.06-.58.21-.5.62a2.8,2.8,0,0,0,.11.49,13.52,13.52,0,0,0,5,6.29c.61.43,1.08.28,1.36-.42.74-1.8,1.49-3.61,2.22-5.42A8.56,8.56,0,0,0,208.19,356.58Zm4,9.41c1.2-.22,2.4-.41,3.58-.67,1-.21,1.13-.69.66-1.53-.94-1.71-1.89-3.41-2.83-5.12a1.73,1.73,0,0,0-1.56-1.07,1.75,1.75,0,0,0-1.57,1.07c-.94,1.73-1.9,3.44-2.85,5.17-.42.77-.24,1.29.61,1.47C209.53,365.56,210.85,365.75,212.19,366Zm2.89-18.48a7.88,7.88,0,0,0,1.06-.48c.56-.36,1.09-.77,1.64-1.16,1.06-.76,2.14-1.51,3.19-2.29.67-.49.74-1.07.19-1.57a13.44,13.44,0,0,0-7.22-3.42c-.57-.09-.92.28-.89.87.11,2.07.22,4.15.35,6.22A1.85,1.85,0,0,0,215.08,347.51Zm-3.26,1.89a1.73,1.73,0,0,0-1.67.72,3,3,0,0,0-.94,1.86,2.83,2.83,0,0,0,2.79,3,2.78,2.78,0,1,0-.19-5.55Z"/><path class="cls-5" d="M337.37,272.71c0,1.3.68,2.77,0,4.08-3.17,6.16-15.05,6.45-21.74,3.39-2.2-1-5.47-4.28-5.47-10.39,0-5.8,0-7.63,0-13.44,0-4,1-5.49,4.73-6.85a23.33,23.33,0,0,1,18.42.55,7.64,7.64,0,0,1,4.07,4.09c2,4.62,4.12,9.17,6.13,13.77a1.89,1.89,0,0,0,1.89,1.33c3.48.2,7,.53,10.43.85a3.23,3.23,0,0,1,3.13,3.28,3.29,3.29,0,0,1-3.1,3.36c-4.7.1-9.41.12-14.11,0a4.74,4.74,0,0,1-2.55-1.63,12.49,12.49,0,0,1-1.54-2.41Z"/><path class="cls-5" d="M313.22,230.11c0-5.83,6-9.92,12-8.16,4.72,1.38,7.13,5.26,6.32,10.14a23.59,23.59,0,0,1-3.65,10.07c-3.24,4.57-7.62,4.55-10.88,0A25,25,0,0,1,313.22,230.11Z"/><path class="cls-6" d="M341.65,243.57v13.7c-1-1.76-2.17-3.38-2-5.56.16-2.89.07-5.8,0-8.71,0-1.19.46-1.63,1.62-1.63q15.64,0,31.28,0c1.24,0,1.71.5,1.71,1.74q0,11.15,0,22.31c0,1.16-.42,1.64-1.61,1.63q-12.83,0-25.66,0c-1.33,0-1.79-.59-1.89-1.93h27V243.57Z"/><path class="cls-4" d="M359.54,247.72c-.28,1.12-.5,2-.72,2.88q-1.18,4.79-2.36,9.59c-.18.73-.3,1.66-1.35,1.43s-.8-1.06-.6-1.84c1-3.93,1.94-7.87,3-11.79a2.08,2.08,0,0,1,1.16-1.07C358.8,246.86,359.26,247.47,359.54,247.72Z"/><path class="cls-6" d="M362.68,272.87c1.64,0,3-.09,4.44,0,.49,0,.93.63,1.39,1-.47.34-.92.95-1.4,1-1.91.11-3.82,0-5.91,0,.29-2.71-.35-4.95-2.91-6.54h4.38Z"/><path class="cls-4" d="M349.63,254.25c.88,1.19,1.77,2.25,2.46,3.42.25.42,0,1.12,0,1.69-.51-.16-1.2-.16-1.5-.51a32,32,0,0,1-2.81-3.77,1.82,1.82,0,0,1,0-1.61,32.87,32.87,0,0,1,2.9-3.89c.28-.32,1-.25,1.53-.36,0,.5.24,1.13,0,1.49C351.46,251.9,350.56,253,349.63,254.25Z"/><path class="cls-4" d="M362.47,249a3.44,3.44,0,0,1,.75.6c1,1.24,1.95,2.47,2.79,3.8a1.84,1.84,0,0,1,.06,1.61,32.58,32.58,0,0,1-2.89,3.91c-.28.33-1,.27-1.53.39,0-.53-.2-1.18,0-1.58.55-1,1.37-1.76,1.92-2.73a1.81,1.81,0,0,0,0-1.53c-.58-1-1.39-1.87-2-2.84S361.38,249,362.47,249Z"/><path class="cls-7" d="M45,252.67h.92q26.87,0,53.74,0a16.75,16.75,0,0,0,7.11-1.51c.82-.38,1.64-.77,2.38-1.12-.6-1.21-1.24-2.29-1.69-3.44a10.7,10.7,0,0,1-.45-5.08,9.69,9.69,0,0,1,1.9-5.12.8.8,0,0,1,.79-.07c.89.82,1.76,1.68,2.57,2.58a7.52,7.52,0,0,1,1.34,1.91c.62,1.42,1.09,2.91,1.64,4.39a31.43,31.43,0,0,1,4-.62,12.1,12.1,0,0,1,6,1.46c.47.24.33.47.19.74a10.26,10.26,0,0,1-7.93,5.37c-1.19.08-2.39.13-3.58.17-.47,0-.67.16-.9.67-.85,1.9-1.83,3.74-2.81,5.58a33.47,33.47,0,0,1-2,3.22c-.75,1.08-1.57,2.11-2.42,3.12a25,25,0,0,1-2.66,2.88,64,64,0,0,1-5.68,4.51,34.91,34.91,0,0,1-9.31,4.45c-2.19.68-4.42,1.25-6.66,1.75-1.09.25-2.25.14-3.35.35a40.92,40.92,0,0,1-8.53.41,24.94,24.94,0,0,1-4.33-.44,35.4,35.4,0,0,1-5-1.3c-1.38-.48-2.66-1.27-4-1.87a16.66,16.66,0,0,1-5.56-4.28,24.54,24.54,0,0,1-3-4.14,22.82,22.82,0,0,1-1.94-4.42,14.38,14.38,0,0,1-.9-5.38c0-.6-.22-1.21-.2-1.81C44.7,254.71,44.86,253.76,45,252.67ZM74.2,277l0-.21a4.18,4.18,0,0,0-.46-.27,15.68,15.68,0,0,1-5.37-3.75,40.09,40.09,0,0,1-2.78-3.87c-.2-.28-.58-.65-.85-.62a13.41,13.41,0,0,0-2.57.5,18.51,18.51,0,0,1-5.21.56c-1.32,0-2.64,0-4,0-.24,0-.48,0-.73.07l-.07.22c.58.49,1.14,1,1.75,1.48A37.05,37.05,0,0,0,58.05,274a21.3,21.3,0,0,0,6.32,2.3c.87.16,1.76.23,2.63.36,1.1.15,2.19.36,3.29.45s2.1,0,3.15,0C73.7,277.1,74,277.06,74.2,277ZM71.05,265.9a2.61,2.61,0,0,0-1.87-2,2.75,2.75,0,0,0-2.09,2,2.3,2.3,0,0,0,1.94,2A2.14,2.14,0,0,0,71.05,265.9Z"/><path class="cls-4" d="M62.24,249.23v-7.52h7.25v7.52Z"/><path class="cls-4" d="M53,241.67h7.22v7.58H53Z"/><path class="cls-4" d="M78.71,249.26H71.49v-7.57h7.22Z"/><path class="cls-4" d="M88,241.68v7.57H80.75v-7.57Z"/><path class="cls-4" d="M90,249.25v-7.54h7.21v7.54Z"/><path class="cls-4" d="M62.23,232.39h7.25v7.25c-1.12,0-2.22,0-3.31,0-1.28,0-2.56-.09-3.84-.13,0-1.29-.08-2.58-.1-3.87C62.21,234.58,62.23,233.53,62.23,232.39Z"/><path class="cls-4" d="M80.77,223.07H88c0,1.76,0,3.48,0,5.2,0,2.06,0,2.06-2,2.06h-5.2Z"/><path class="cls-4" d="M71.49,239.56v-7.13h7.24c0,.68,0,1.4,0,2.12,0,1.46,0,2.92,0,4.38,0,.43-.07.73-.61.72-2.1,0-4.19,0-6.29,0A1.73,1.73,0,0,1,71.49,239.56Z"/><path class="cls-4" d="M80.75,239.56v-7.13H88c0,.53,0,1.08,0,1.63,0,1.62,0,3.25,0,4.87,0,.43-.09.72-.62.72-2.1,0-4.19,0-6.29,0A1.7,1.7,0,0,1,80.75,239.56Z"/><path class="cls-2" d="M70.48,265.47c.1,1.16-.27,1.86-1,1.9-1.17.06-1.88-.46-1.87-1.36a1.65,1.65,0,0,1,1.93-1.55C69.28,265.39,69.51,265.64,70.48,265.47Z"/><path class="cls-7" d="M135,136.06c-3.44.09-5.51-1.82-5.67-5.47-.14-3.27-.06-6.55-.07-9.82,0-.74,0-1.47,0-2.35l-2.4-.16c0,3.45.08,6.77,0,10.09a17.7,17.7,0,0,1-.77,4.8c-.74,2.27-2.59,3.22-5.11,3,3-5.39,1.06-11.21,1.75-17-1.92.34-2.15,1.61-2.18,2.88-.06,2.73,0,5.46,0,8.19-.06,3.47-3.19,5.38-6.4,4.09.91-1.6,2.2-3.11,2.63-4.83s.1-3.91.1-5.79a41.9,41.9,0,0,1-4.22,0,8.85,8.85,0,0,1-6.85-3.8c-1.73-2.56-3.64-5-5.58-7.64,1.16-1.13,2.54-.69,3.7.31s2.34,2.45,3.52,3.67c2.66,2.75,5.57,3.47,8.41,2.05a4.57,4.57,0,0,0,1.28-.95c1.37-1.47,2.71-3,3.93-4.34-1.59-.32-3.77-.64-5.89-1.21a16.75,16.75,0,0,1-9.05-26,4.87,4.87,0,0,0,.81-3.36,65.2,65.2,0,0,1,.42-6.85c.1-1.41,1-1.75,2.12-1.33,2.52.93,5,2,7.5,2.93a5.19,5.19,0,0,0,2.62.49,42.59,42.59,0,0,1,16-.1,3.89,3.89,0,0,0,2.4-.55,17,17,0,0,1,9.54-2.85c.19,2.72.35,5.45.59,8.18a4.86,4.86,0,0,0,.57,2.35c4,5.55,4.67,14.66,1.16,20.53-2.71,4.53-7,6.58-12.06,7.41-1,.16-2,.3-3.64.55,5,2,5.39,5.72,5.27,9.81a57.41,57.41,0,0,0,.24,7.15,5.46,5.46,0,0,0,1.21,2.41,10.46,10.46,0,0,0,1.75,1.52c-1.54,1.18-3,.71-4.28.16a3.54,3.54,0,0,1-2.53-3.36c0-2.87,0-5.73,0-8.6,0-1.42-.31-2.7-2.36-3.18C134,124.79,132,130.62,135,136.06Z"/><path class="cls-7" d="M140.86,107.87c4.49-1.47,6.48-6.24,5.48-11.19-.88-4.35-3.92-6.68-8.92-6.71q-9.34-.06-18.68,0c-4.48,0-7.53,2.12-8.61,5.72-1.77,5.9,1.25,11.58,7.25,13,3.51.81,7.18,1,11.66,1.54C132.5,109.54,136.83,109.19,140.86,107.87Z"/><path class="cls-4" d="M116,98.77c0-2.8,1.56-5,3.39-5S123,95.95,123,98.6a6.75,6.75,0,0,1-.26,1.53c-.45,1.79-1.35,3.34-3.39,3.24s-2.81-1.69-3.18-3.5C116.07,99.44,116,99,116,98.77Z"/><path class="cls-4" d="M140.26,98.32c0,2.89-1.55,5.14-3.48,5.12s-3.69-2.58-3.48-5.21a7.4,7.4,0,0,1,.33-1.52c.48-1.61,1.36-3,3.18-2.94s2.77,1.49,3.24,3.17A10,10,0,0,1,140.26,98.32Z"/><path class="cls-8" d="M98.66,141.59Q95,147.11,91.94,153a136.32,136.32,0,0,0-10.38,25.85,130.31,130.31,0,0,0-3.61,16.4A110.21,110.21,0,0,0,76.58,208c0,.3,0,.64-.45.61v.91a10.45,10.45,0,0,1,.2,1.15c.65-.12,1.29-.24,1.94-.34A128,128,0,0,1,100,143Q99.33,142.3,98.66,141.59Z"/><path class="cls-8" d="M346,212.37c.66.11,1.32.23,2,.36,0-1.31-.08-2.61-.11-3.92a85.27,85.27,0,0,0-.76-8.9A137,137,0,0,0,331,150.37q-2.53-4.56-5.39-8.89-.74.72-1.51,1.41a132.19,132.19,0,0,1,21.66,64.8C345.85,209.26,345.91,210.82,346,212.37Z"/><path class="cls-8" d="M165.7,343.56A134.63,134.63,0,0,1,124,318.21,139.53,139.53,0,0,1,105,298q-.81.4-1.64.77A130.47,130.47,0,0,0,112,309.19a137.32,137.32,0,0,0,11.31,11,139.76,139.76,0,0,0,13.63,10.46,134.08,134.08,0,0,0,28.5,14.53C165.5,344.67,165.59,344.11,165.7,343.56Z"/><path class="cls-8" d="M317.69,299.73a151,151,0,0,1-10.38,11.83,129.23,129.23,0,0,1-50.84,32.67c.11.57.22,1.13.32,1.7.52-.19,1-.36,1.55-.56,4.18-1.61,8.33-3.26,12.37-5.22a128.34,128.34,0,0,0,28.67-18.56c2.62-2.23,5.14-4.56,7.64-6.91a118.78,118.78,0,0,0,10.38-11.32q1.1-1.34,2.16-2.71Q318.6,300.21,317.69,299.73Z"/><path class="cls-8" d="M246.44,90c.3-.6.6-1.2.93-1.78-1.25-.35-2.51-.69-3.75-1.05a83.81,83.81,0,0,0-8.68-1.9,134.73,134.73,0,0,0-51.79.85q-5.07,1.09-10,2.56.47.92.89,1.86a130.1,130.1,0,0,1,67.93-1.72C243.46,89.15,245,89.55,246.44,90Z"/><path class="cls-9" d="M227.86,80.82c.05.29-.11.49-.35.42-.77-.22-1.62,0-2.35-.42Z"/><path class="cls-9" d="M210.71,80.82a2,2,0,0,1-2,0Z"/><ellipse class="cls-4" cx="212.03" cy="213.03" rx="61.11" ry="61.49"/><g class="cls-10"><polygon class="cls-11" points="230.36 168.57 276.44 203.57 276.45 229.31 260.59 265.87 242.75 274.51 210.62 260.32 230.36 168.57"/></g><path class="cls-12" d="M194,167.62h1.28c0,.06.1,0,.15,0a5.9,5.9,0,0,1,1.59.41,7.08,7.08,0,0,1,3,2.56,19.82,19.82,0,0,1,2.75,5.74,49.63,49.63,0,0,1,1.31,5.5q.54,2.84.87,5.72c.18,1.6.26,3.2.4,4.81a17.51,17.51,0,0,0-1.47,4.71,17.45,17.45,0,0,1-.59-5.86,20.18,20.18,0,0,0-.92,2.38,5.47,5.47,0,0,1,0-.64c0-1.3,0-2.6-.07-3.89a55,55,0,0,0-.77-6.52,25.53,25.53,0,0,0-2.29-7.06,9.42,9.42,0,0,0-2-2.86,4.61,4.61,0,0,0-3-1.38,5.77,5.77,0,0,0-5.83,4.18,10.67,10.67,0,0,0-.41,5,39.14,39.14,0,0,0,1.38,6.39A49.8,49.8,0,0,0,196,200.52a18.68,18.68,0,0,0,3.11,3.63c.62.55.95.48,1.35-.24a11.81,11.81,0,0,0,1.09-2.8c.17-.66.32-1.34.47-2a9.78,9.78,0,0,0,.48,1.66A3.89,3.89,0,0,0,204,202.9a.16.16,0,0,1,.07.2,4.84,4.84,0,0,0,.06,2.34,15.13,15.13,0,0,0,.73,2.38,11,11,0,0,0,.63,1.43,5.25,5.25,0,0,1,.09-2.32,6.92,6.92,0,0,1,.91-2.16,18.34,18.34,0,0,0,1.17,8.4.94.94,0,0,0,0-.13,32.52,32.52,0,0,1,.19-4.38,9.06,9.06,0,0,1,.6-2.57,1.92,1.92,0,0,1,.91-1.08c.13-.06.21-.06.28.09a16.08,16.08,0,0,1,1.07,3.23,5.27,5.27,0,0,1,.08,2.23s0,.11,0,.13.11,0,.14-.1a11.29,11.29,0,0,0,2.16-4.72,6.89,6.89,0,0,0,.09-1.34c0-.44-.13-.86-.15-1.29h0a10.7,10.7,0,0,1,1.36,1.44,8.76,8.76,0,0,1,1.69,3.27,5.61,5.61,0,0,1,.18,1.92c0,.38-.14.74-.16,1.12l0,.05h0l0-.06c0-.07.09-.13.12-.2a19.34,19.34,0,0,0,1.23-3.25,10.62,10.62,0,0,0,.44-3.05c0-.12,0-.24,0-.4a1.63,1.63,0,0,1,.46.44,4.53,4.53,0,0,1,.71,1.94c.08.46.16.93.23,1.39a3.56,3.56,0,0,0,.25-.64,9.34,9.34,0,0,0,.46-3.94,3.78,3.78,0,0,0-.61-1.7.25.25,0,0,1,0-.33,3.83,3.83,0,0,0,.43-1,.82.82,0,0,1,0,.09,13.39,13.39,0,0,0,1.25,3.52c.43.78.76.83,1.43.24a16.09,16.09,0,0,0,2.1-2.28,46.84,46.84,0,0,0,4.91-8.21,44.25,44.25,0,0,0,3.65-11,16.59,16.59,0,0,0,.35-5.28,8,8,0,0,0-1.54-3.91,5.65,5.65,0,0,0-3.32-2,4.36,4.36,0,0,0-3.82.79,7.35,7.35,0,0,0-1.7,1.8,19.79,19.79,0,0,0-2.26,4.89,31.83,31.83,0,0,0-1.18,5.32c-.19,1.35-.36,2.7-.44,4.06,0,.63-.09,1.26-.11,1.9,0,1,0,2.07,0,3.11,0,.75.12,1.5.11,2.25l-.45-1.17c-.1-.25-.2-.49-.3-.74,0,.68,0,1.34,0,2a5.21,5.21,0,0,1-.34,1.88,1.86,1.86,0,0,1-1.11,1.21c-.18.06-.27,0-.33-.15a3.1,3.1,0,0,1-.09-1.47,5.71,5.71,0,0,1,.83-2c0-.05.09-.11.07-.17s-.13,0-.19,0a4,4,0,0,0-1.39.33c.15-1.89.29-3.79.46-5.68s.41-3.85.71-5.77a49.42,49.42,0,0,1,2.15-8.58,15.48,15.48,0,0,1,3.09-5.49,6.18,6.18,0,0,1,5.75-2,8.8,8.8,0,0,1,4.82,2.39,10.57,10.57,0,0,1,3.23,7.49v2.18a20.66,20.66,0,0,1-.16,2.08,36.11,36.11,0,0,1-1.35,6.22,84.23,84.23,0,0,1-6.13,14.5c-.37.71-.77,1.39-1.18,2.08a.72.72,0,0,0,.19,1.11l.15.12a10.57,10.57,0,0,1,1.75,1.76,11.61,11.61,0,0,1,2.13,4.68,14.3,14.3,0,0,1,.35,3.93c-.05,1-.18,2-.3,3s-.26,2.25-.41,3.37c-.18,1.39-.4,2.77-.58,4.16-.24,1.78-.54,3.55-.84,5.32s-.55,3.37-.83,5.06c-.2,1.2-.34,2.41-.6,3.6a41.84,41.84,0,0,1-2.2,6.69c-.08,0-.08-.13-.11-.2-.13-.32-.24-.64-.38-.94a24.31,24.31,0,0,0-4-5.89,22.09,22.09,0,0,0-4.56-3.76,13.7,13.7,0,0,0-5.9-2.16,8.93,8.93,0,0,0-4.37.65,13.87,13.87,0,0,0-4.23,2.79,27.2,27.2,0,0,0-4.38,5.19,19,19,0,0,0-2.28,5c-.22.77-.33,1.57-.53,2.35l-.16.54-.08-.17c-.73-1.67-1.43-3.35-2.08-5.06a30.55,30.55,0,0,1-1.41-4.34,36.53,36.53,0,0,1-.57-5.19q-.12-1.63-.23-3.27c-.06-.92-.2-1.83-.3-2.74-.14-1.2-.19-2.41-.25-3.62-.07-1.41-.2-2.81-.33-4.21s-.22-2.54-.31-3.81a14.73,14.73,0,0,1,.25-4.11,15.67,15.67,0,0,1,3.26-6.58,13,13,0,0,1,1.38-1.47.63.63,0,0,0,.16-.89l-.11-.21c-1.71-3-3.3-6.09-4.7-9.26a55.43,55.43,0,0,1-4-12.08,27.27,27.27,0,0,1-.55-4.64s0-.11,0-.14v-.67c.07,0,0-.07,0-.12a12.44,12.44,0,0,1,.1-1.44,12.79,12.79,0,0,1,1.21-4.31,9.43,9.43,0,0,1,6.17-4.87C193.26,167.76,193.65,167.7,194,167.62Zm23.71,61.88c.21,0,.43,0,.64,0s.42,0,.63-.08a12.48,12.48,0,0,0,7.23-3.74,4.67,4.67,0,0,0,1.22-4.87,9.49,9.49,0,0,0-4.22-5.43,4.43,4.43,0,0,0-3.82-.43,6.42,6.42,0,0,0-2.64,1.65,12.87,12.87,0,0,0-3.43,6.38,7.6,7.6,0,0,0,.7,5.18,2.28,2.28,0,0,0,1.89,1.35C216.54,229.59,217.14,229.49,217.74,229.5Zm-13.29.07h.39a2.55,2.55,0,0,0,2.32-1.16,6.7,6.7,0,0,0,1-3,11.47,11.47,0,0,0-5.58-10.14,3.93,3.93,0,0,0-2.87-.48,7.22,7.22,0,0,0-3.45,2.09,10.21,10.21,0,0,0-2.28,3.71,4.48,4.48,0,0,0,.66,4.54,10.37,10.37,0,0,0,2.21,2.1A13.36,13.36,0,0,0,204.45,229.57Z"/><path class="cls-13" d="M226.21,247.48c.08.36.18.72.25,1.09a7.71,7.71,0,0,1-1.48,6.28,13.32,13.32,0,0,1-6.76,4.77,15.33,15.33,0,0,1-4.23.67c-.07,0-.16,0-.22,0h-3.27c0-.07-.09,0-.15,0a39.28,39.28,0,0,1-5.62-.52,17.47,17.47,0,0,1-4.58-1.36,7.76,7.76,0,0,1-4.67-7.51c0-.12.06-.25,0-.36.19-.78.3-1.58.53-2.35a19,19,0,0,1,2.28-5,27.2,27.2,0,0,1,4.38-5.19,13.87,13.87,0,0,1,4.23-2.79,8.93,8.93,0,0,1,4.37-.65,13.7,13.7,0,0,1,5.9,2.16,22.09,22.09,0,0,1,4.56,3.76,24.31,24.31,0,0,1,4,5.89c.15.31.26.63.38.94C226.13,247.35,226.13,247.43,226.21,247.48Zm-4.87,4.61a.47.47,0,0,0-.2.12,23.08,23.08,0,0,1-4.43,2.75,12.48,12.48,0,0,1-7.55.86,23,23,0,0,1-6.11-2.22c-.84-.43-1.66-.91-2.48-1.37h0c0,.12.1.2.16.28a14.79,14.79,0,0,0,7,4.9,11.24,11.24,0,0,0,6.68.27,11.38,11.38,0,0,0,6.25-4.39,5.52,5.52,0,0,0,.73-1.18l0,0v0Zm.76-6.95a1.19,1.19,0,0,0-.26-.89,5.34,5.34,0,0,0-1.31-1.25,2.7,2.7,0,0,0-3.47.28,3,3,0,0,0-.77,2,8.1,8.1,0,0,1-1.22,3.78c-.39.64-.8,1.25-1.24,1.85a.55.55,0,0,0,.2.89.87.87,0,0,0,.82,0,22.29,22.29,0,0,0,5.37-3.1A4.63,4.63,0,0,0,222.1,245.15Zm-21.41.48a2.54,2.54,0,0,0,.39,1.4,7.88,7.88,0,0,0,2.35,2.37,30.36,30.36,0,0,0,3.9,2.18,4.79,4.79,0,0,0,.82.29.8.8,0,0,0,.76-.2.37.37,0,0,0,.12-.49,1.88,1.88,0,0,0-.4-.59c-.08-.08-.18-.16-.17-.28a.44.44,0,0,0-.16-.37c-.1-.11-.18-.22-.27-.33a7.8,7.8,0,0,1-1.56-4.47,2.64,2.64,0,0,0-3.07-2.62A3.3,3.3,0,0,0,200.7,245.63Z"/><path class="cls-14" d="M236.21,177.62h0v2.19h0Z"/><path class="cls-15" d="M202,199.1c-.16.67-.3,1.34-.47,2a11.81,11.81,0,0,1-1.09,2.8c-.4.73-.73.79-1.35.24a18.68,18.68,0,0,1-3.11-3.63,49.8,49.8,0,0,1-6.56-13.62,39.14,39.14,0,0,1-1.38-6.39,10.67,10.67,0,0,1,.41-5,5.77,5.77,0,0,1,5.83-4.18,4.61,4.61,0,0,1,3,1.38,9.42,9.42,0,0,1,2,2.86,25.53,25.53,0,0,1,2.29,7.06,55,55,0,0,1,.77,6.52c.08,1.3.09,2.6.07,3.89a5.47,5.47,0,0,0,0,.64l-.05.23a13.39,13.39,0,0,0-.48,3.7C201.9,198.08,202,198.59,202,199.1Z"/><path class="cls-16" d="M219.3,195.54c0-.75-.08-1.5-.11-2.25,0-1,0-2.08,0-3.11,0-.63.07-1.26.11-1.9.09-1.36.25-2.71.44-4.06a31.83,31.83,0,0,1,1.18-5.32,19.79,19.79,0,0,1,2.26-4.89,7.35,7.35,0,0,1,1.7-1.8,4.36,4.36,0,0,1,3.82-.79,5.65,5.65,0,0,1,3.32,2,8,8,0,0,1,1.54,3.91,16.59,16.59,0,0,1-.35,5.28,44.25,44.25,0,0,1-3.65,11,46.84,46.84,0,0,1-4.91,8.21,16.09,16.09,0,0,1-2.1,2.28c-.67.59-1,.55-1.43-.24a13.39,13.39,0,0,1-1.25-3.52.83.83,0,0,0,0-.09,6.17,6.17,0,0,0,0-2.56A18.44,18.44,0,0,0,219.3,195.54Z"/><path class="cls-17" d="M219.3,195.54a18.44,18.44,0,0,1,.56,2.15,6.17,6.17,0,0,1,0,2.56,3.83,3.83,0,0,1-.43,1,.25.25,0,0,0,0,.33,3.78,3.78,0,0,1,.61,1.7,9.34,9.34,0,0,1-.46,3.94,3.56,3.56,0,0,1-.25.64c-.08-.46-.15-.93-.23-1.39a4.53,4.53,0,0,0-.71-1.94,1.63,1.63,0,0,0-.46-.44c0,.16,0,.28,0,.4a10.62,10.62,0,0,1-.44,3.05,19.34,19.34,0,0,1-1.23,3.25c0,.07-.08.13-.12.2h0c0-.38.12-.74.16-1.12a5.61,5.61,0,0,0-.18-1.92,8.76,8.76,0,0,0-1.69-3.27,10.7,10.7,0,0,0-1.36-1.44h0c0,.43.15.85.15,1.29a6.89,6.89,0,0,1-.09,1.34,11.29,11.29,0,0,1-2.16,4.72s-.07.12-.14.1,0-.08,0-.13a5.27,5.27,0,0,0-.08-2.23,16.08,16.08,0,0,0-1.07-3.23c-.06-.15-.15-.15-.28-.09a1.92,1.92,0,0,0-.91,1.08,9.06,9.06,0,0,0-.6,2.57,32.52,32.52,0,0,0-.19,4.38.94.94,0,0,1,0,.13,18.34,18.34,0,0,1-1.17-8.4,6.92,6.92,0,0,0-.91,2.16,5.25,5.25,0,0,0-.09,2.32,11,11,0,0,1-.63-1.43,15.13,15.13,0,0,1-.73-2.38,4.84,4.84,0,0,1-.06-2.34.16.16,0,0,0-.07-.2,3.89,3.89,0,0,1-1.46-2.14,9.78,9.78,0,0,1-.48-1.66c0-.51-.12-1-.13-1.53a13.39,13.39,0,0,1,.48-3.7l.05-.23a20.18,20.18,0,0,1,.92-2.38,17.45,17.45,0,0,0,.59,5.86,17.51,17.51,0,0,1,1.47-4.71v.19a.3.3,0,0,0,0,.08,5.09,5.09,0,0,0,0,1.65,2.24,2.24,0,0,0,.22.84,7.38,7.38,0,0,0,.73,1.85,5.53,5.53,0,0,0,.45-3.51h0a7.51,7.51,0,0,1,.89,1,15.4,15.4,0,0,1,1,1.55,10.9,10.9,0,0,1,.65,1.51,13.66,13.66,0,0,1,1.31-3.75,11.5,11.5,0,0,0,1.19,4.09,4.14,4.14,0,0,0,.45-.69,4.79,4.79,0,0,0,.62-3.19,3,3,0,0,1-.15-.67h0a16.92,16.92,0,0,1,1.58,3.47,5.07,5.07,0,0,1,.45-.66,3.8,3.8,0,0,1,1.19-.86,4,4,0,0,1,1.39-.33c.07,0,.15,0,.19,0s0,.11-.07.17a5.71,5.71,0,0,0-.83,2,3.1,3.1,0,0,0,.09,1.47c.06.2.16.21.33.15a1.86,1.86,0,0,0,1.11-1.21,5.21,5.21,0,0,0,.34-1.88c0-.66,0-1.33,0-2,.1.25.21.49.3.74Z"/><path class="cls-2" d="M217.74,229.5c-.6,0-1.19.09-1.79,0a2.28,2.28,0,0,1-1.89-1.35,7.6,7.6,0,0,1-.7-5.18,12.87,12.87,0,0,1,3.43-6.38,6.42,6.42,0,0,1,2.64-1.65,4.43,4.43,0,0,1,3.82.43,9.49,9.49,0,0,1,4.22,5.43,4.67,4.67,0,0,1-1.22,4.87,12.48,12.48,0,0,1-7.23,3.74c-.21,0-.42.06-.63.08S217.95,229.5,217.74,229.5Zm.82-.37a4.15,4.15,0,0,0,1.08-.08,4.1,4.1,0,0,0,2.94-2.63,3.17,3.17,0,0,0,.34-1.58.83.83,0,0,0-1.21-.74,4.35,4.35,0,0,0-.42.21,2.69,2.69,0,0,1-.5.22,1.34,1.34,0,0,1-1.57-.62,1.22,1.22,0,0,1,0-1.59c.13-.16.29-.29.42-.45a.88.88,0,0,0-.51-1.49,4.09,4.09,0,0,0-2.25.19,4,4,0,0,0-2.69,2.88,5.65,5.65,0,0,0,.28,3.33,3.43,3.43,0,0,0,2.27,2.12A5.68,5.68,0,0,0,218.55,229.13Z"/><path class="cls-2" d="M204.45,229.57a13.36,13.36,0,0,1-7.62-2.39,10.37,10.37,0,0,1-2.21-2.1,4.48,4.48,0,0,1-.66-4.54,10.21,10.21,0,0,1,2.28-3.71,7.22,7.22,0,0,1,3.45-2.09,3.93,3.93,0,0,1,2.87.48,11.47,11.47,0,0,1,5.58,10.14,6.7,6.7,0,0,1-1,3,2.55,2.55,0,0,1-2.32,1.16Zm-6-4.74c0,.14,0,.35.05.56a3.49,3.49,0,0,0,.09.46,4.13,4.13,0,0,0,2.89,3.15,6.66,6.66,0,0,0,1.43.14,3.64,3.64,0,0,0,2.4-.59,3.88,3.88,0,0,0,1.88-3.74c-.06-.69-.63-1.16-1.33-.61a2.47,2.47,0,0,1-.4.25,1.22,1.22,0,0,1-1.41-.13,1.34,1.34,0,0,1-.09-2.24l.22-.21a.8.8,0,0,0,.08-1.06,1,1,0,0,0-.79-.46,4.8,4.8,0,0,0-1.34,0A4.41,4.41,0,0,0,198.44,224.83Z"/><path class="cls-17" d="M216.14,211l0,.06h0l0-.05Z"/><path class="cls-17" d="M222.1,245.15a4.63,4.63,0,0,1-1.87,3.57,22.29,22.29,0,0,1-5.37,3.1.87.87,0,0,1-.82,0,.55.55,0,0,1-.2-.89c.44-.6.85-1.22,1.24-1.85a8.1,8.1,0,0,0,1.22-3.78,3,3,0,0,1,.77-2,2.7,2.7,0,0,1,3.47-.28,5.34,5.34,0,0,1,1.31,1.25A1.19,1.19,0,0,1,222.1,245.15Z"/><path class="cls-17" d="M200.7,245.63a3.3,3.3,0,0,1,2.72-3.1,2.64,2.64,0,0,1,3.07,2.62,7.8,7.8,0,0,0,1.56,4.47c.09.11.18.22.27.33a.44.44,0,0,1,.16.37c0,.11.09.2.17.28a1.88,1.88,0,0,1,.4.59.37.37,0,0,1-.12.49.8.8,0,0,1-.76.2,4.79,4.79,0,0,1-.82-.29,30.36,30.36,0,0,1-3.9-2.18,7.88,7.88,0,0,1-2.35-2.37A2.54,2.54,0,0,1,200.7,245.63Z"/><path class="cls-2" d="M200.56,252.24c.83.46,1.64.94,2.48,1.37a23,23,0,0,0,6.11,2.22,12.48,12.48,0,0,0,7.55-.86,23.08,23.08,0,0,0,4.43-2.75.47.47,0,0,1,.2-.12h0a5.55,5.55,0,0,1-.73,1.18,11.38,11.38,0,0,1-6.25,4.39,11.24,11.24,0,0,1-6.68-.27,14.79,14.79,0,0,1-7-4.9c-.07-.08-.16-.15-.16-.28Z"/><path class="cls-2" d="M221.35,252.09l0,0v0l0,0Z"/><path class="cls-2" d="M200.57,252.24h0Z"/><path class="cls-18" d="M212.73,193.3a3,3,0,0,0,.15.67,4.79,4.79,0,0,1-.62,3.19,4.14,4.14,0,0,1-.45.69,11.5,11.5,0,0,1-1.19-4.09,13.66,13.66,0,0,0-1.31,3.75,10.9,10.9,0,0,0-.65-1.51,15.4,15.4,0,0,0-1-1.55,3.89,3.89,0,0,1,2.74-1.63l.19,0a2.83,2.83,0,0,0,.59,0,5,5,0,0,1,1.38.37A.31.31,0,0,1,212.73,193.3Z"/><path class="cls-19" d="M210.59,188.18a1.85,1.85,0,1,1,.58,0A2.7,2.7,0,0,1,210.59,188.18Z"/><path class="cls-17" d="M210.59,188.18a2.7,2.7,0,0,0,.58,0q0,2,0,4c0,.19,0,.38,0,.57a2.83,2.83,0,0,1-.59,0Z"/><path class="cls-20" d="M214.81,196.12a5.07,5.07,0,0,0-.45.66,16.92,16.92,0,0,0-1.58-3.47,3,3,0,0,1,1.17.95,3.82,3.82,0,0,1,.82,1.76A.67.67,0,0,0,214.81,196.12Z"/><path class="cls-21" d="M205.57,195.16a2.24,2.24,0,0,1-.22-.84,5.09,5.09,0,0,1,0-1.65.3.3,0,0,1,0-.08C205.47,193.45,205.54,194.3,205.57,195.16Z"/><path class="cls-17" d="M206.76,193.51l0,0,0,0,0,0Z"/><path class="cls-21" d="M213.06,203.25h0Z"/><path class="cls-17" d="M218.55,229.13a5.68,5.68,0,0,1-1.77-.23,3.43,3.43,0,0,1-2.27-2.12,5.65,5.65,0,0,1-.28-3.33,4,4,0,0,1,2.69-2.88,4.09,4.09,0,0,1,2.25-.19.88.88,0,0,1,.51,1.49c-.13.16-.29.29-.42.45a1.22,1.22,0,0,0,0,1.59,1.34,1.34,0,0,0,1.57.62,2.69,2.69,0,0,0,.5-.22,4.35,4.35,0,0,1,.42-.21.83.83,0,0,1,1.21.74,3.17,3.17,0,0,1-.34,1.58,4.1,4.1,0,0,1-2.94,2.63A4.15,4.15,0,0,1,218.55,229.13Z"/><path class="cls-17" d="M198.44,224.83a4.41,4.41,0,0,1,3.69-4.46,4.8,4.8,0,0,1,1.34,0,1,1,0,0,1,.79.46.8.8,0,0,1-.08,1.06l-.22.21a1.34,1.34,0,0,0,.09,2.24,1.22,1.22,0,0,0,1.41.13,2.47,2.47,0,0,0,.4-.25c.7-.54,1.27-.08,1.33.61a3.88,3.88,0,0,1-1.88,3.74,3.64,3.64,0,0,1-2.4.59,6.66,6.66,0,0,1-1.43-.14,4.13,4.13,0,0,1-2.89-3.15,3.49,3.49,0,0,1-.09-.46C198.46,225.18,198.45,225,198.44,224.83Z"/><path class="cls-22" d="M259.51,113.94q0-15.31,0-30.62c0-.65.13-.78.78-.78q21.64,0,43.28,0c.65,0,.78.13.78.78q0,29.43,0,58.87c0,.65-.13.78-.78.78q-21.64,0-43.28,0c-.65,0-.78-.13-.78-.78q0-13.69,0-27.38c.21,0,.28.2.37.36,1.05,2,1.27,2.07,3.43,1.22,0,0,.12,0,.23.09-.19,3-.54,6.07-.47,9.13.09,4,.68,7.76,3.44,10.87.35.4.21.59-.13.83a5.77,5.77,0,0,0-1.46,1.43,2.38,2.38,0,0,0,.09,2.9c1.21,1.23,2,1.41,3.22.62.72-.47,1.37-1.06,2.06-1.58a2.15,2.15,0,0,1,2.2-.39,26.35,26.35,0,0,0,17.89,0c1.84-.66,2.84-.54,4,1,1,1.32,2.07,1.31,3.29.39a2.25,2.25,0,0,0,.51-3.25,5.13,5.13,0,0,0-1.06-1.35c-.49-.41-.58-.66-.12-1.18a11.56,11.56,0,0,0,2-3.44c1.57-3.9,1.75-8,1.68-12.11,0-1.3,0-2.61,0-3.9,1.69.45,2.14.26,2.77-.84,1.06-1.88.05-3.11-1.48-3.51-1.81-.46-1.89-1.48-1.79-2.89,0-.54,0-1.08,0-1.62-.07-4.32,0-8.65-1-12.9-.12-.51.12-.69.5-.91a3.89,3.89,0,0,0,2.06-3.34,4.72,4.72,0,0,0-6.63-4.65,1.3,1.3,0,0,1-1.45-.2,12.78,12.78,0,0,0-4.3-1.94A28.55,28.55,0,0,0,278.08,83a19.78,19.78,0,0,0-9,3.08,1.59,1.59,0,0,1-1.73.25,4.87,4.87,0,0,0-6,2.46C260.23,91,260.82,93,263,94.46c.5.32.45.63.37,1.06a26.77,26.77,0,0,0-.4,6.56c.18,2.95.41,5.89.59,8.84,0,.28.31.81-.31.84A5.16,5.16,0,0,0,259.51,113.94Z"/><path class="cls-23" d="M259.51,113.94a5.16,5.16,0,0,1,3.78-2.18c.63,0,.33-.56.31-.84-.18-2.95-.41-5.89-.59-8.84a26.77,26.77,0,0,1,.4-6.56c.08-.43.12-.74-.37-1.06-2.21-1.43-2.81-3.51-1.72-5.64a4.87,4.87,0,0,1,6-2.46,1.59,1.59,0,0,0,1.73-.25,19.78,19.78,0,0,1,9-3.08,28.55,28.55,0,0,1,11.26.59,12.78,12.78,0,0,1,4.3,1.94,1.3,1.3,0,0,0,1.45.2,4.72,4.72,0,0,1,6.63,4.65,3.89,3.89,0,0,1-2.06,3.34c-.37.23-.62.41-.5.91,1,4.25.94,8.58,1,12.9,0,.54,0,1.08,0,1.62-.11,1.4,0,2.42,1.79,2.89,1.53.39,2.54,1.63,1.48,3.51-.62,1.1-1.08,1.29-2.77.84,0,1.29,0,2.6,0,3.9.07,4.13-.11,8.21-1.68,12.11a11.56,11.56,0,0,1-2,3.44c-.46.52-.37.77.12,1.18a5.13,5.13,0,0,1,1.06,1.35,2.25,2.25,0,0,1-.51,3.25c-1.22.92-2.29.93-3.29-.39-1.15-1.53-2.15-1.65-4-1a26.35,26.35,0,0,1-17.89,0,2.15,2.15,0,0,0-2.2.39c-.69.52-1.33,1.11-2.06,1.58-1.23.79-2,.61-3.22-.62a2.38,2.38,0,0,1-.09-2.9,5.77,5.77,0,0,1,1.46-1.43c.35-.25.49-.44.13-.83-2.76-3.11-3.35-6.92-3.44-10.87-.07-3.06.28-6.1.47-9.13-.12,0-.19-.1-.23-.09-2.16.86-2.38.78-3.43-1.22-.08-.16-.16-.33-.37-.36Zm39.75,5.46c0-1-.11-2.09-.14-3.13-.08-2.26-.08-2.26,2-1.27.32.15.69.54,1,0s.45-.94-.14-1.4a3.53,3.53,0,0,0-1.9-.69,1.23,1.23,0,0,1-1.24-1.43c0-1.84,0-3.68-.08-5.51a49.44,49.44,0,0,0-1-11.17,1.62,1.62,0,0,1,1-2.16,2.72,2.72,0,0,0,1.29-3.84,3.27,3.27,0,0,0-4.67-1.66,1.82,1.82,0,0,1-2.25-.23,9.8,9.8,0,0,0-3.65-1.81,26.77,26.77,0,0,0-11.24-.69c-2.94.43-5.85,1-8.3,2.81a2.7,2.7,0,0,1-3.1.44,3.41,3.41,0,0,0-4.4,2.07c-.65,1.58-.11,2.87,1.72,3.73.95.45.88,1.11.71,1.88a23.4,23.4,0,0,0-.51,6.23c.19,3.34.46,6.68.69,10,.07,1.06-.25,1.45-1.33,1.5a3.87,3.87,0,0,0-2.37.9c-.51.43-.06.77.06,1.14s.47.36.78.21.57-.31.86-.46c.48-.24,1-.61,1.51-.31s.42.93.39,1.45a99.84,99.84,0,0,0-.44,10.79c.22,3.77,1.11,7.27,4.19,9.82.45.37.25.53-.09.78a10.2,10.2,0,0,0-2.5,2c-.29.4-.46.87,0,1.24s.8.9,1.46.32,1.23-1,1.87-1.47a3.16,3.16,0,0,1,3.68-.52,7.48,7.48,0,0,0,2.05.64c5.56,1.17,11,1,16.29-1.31a1.93,1.93,0,0,1,2.58.55c.43.53.92,1,1.38,1.52a.89.89,0,0,0,1.33.11.92.92,0,0,0,.27-1.32,5.54,5.54,0,0,0-1.48-1.7c-.9-.72-.94-1.15-.18-1.95a11.51,11.51,0,0,0,2.4-3.94C299.31,127.69,299.42,123.56,299.26,119.4Z"/><path class="cls-4" d="M287.66,99.27a5.76,5.76,0,0,1-6.08-5.7c0-3.24,3-5.92,6.58-5.93a5.9,5.9,0,0,1,5.95,5.77C294.13,96.74,291.35,99.26,287.66,99.27ZM288,89c-.32,0-.65,0-1,.1A4.58,4.58,0,0,0,283.18,95c.78,2.34,3.64,3.49,6.4,2.57a4.19,4.19,0,0,0,3-4.91A4.47,4.47,0,0,0,288,89Z"/><path class="cls-4" d="M280.29,94a6.1,6.1,0,0,1-6.42,5.89,5.82,5.82,0,0,1-6-5.75c-.07-3.21,2.76-5.83,6.33-5.84S280.27,90.62,280.29,94Zm-6.39,4.5c2.75,0,5-2,5-4.45a4.47,4.47,0,0,0-4.76-4.4,4.73,4.73,0,0,0-5,4.39A4.42,4.42,0,0,0,273.9,98.46Z"/><path class="cls-22" d="M288,89a4.47,4.47,0,0,1,4.6,3.59,4.19,4.19,0,0,1-3,4.91c-2.76.92-5.62-.23-6.4-2.57a4.58,4.58,0,0,1,3.88-5.83C287.38,89.09,287.71,89.07,288,89Z"/><path class="cls-22" d="M273.9,98.46A4.42,4.42,0,0,1,269.22,94a4.73,4.73,0,0,1,5-4.39,4.47,4.47,0,0,1,4.76,4.4C278.94,96.45,276.65,98.47,273.9,98.46Z"/><path class="cls-4" d="M281.38,97.93a3.1,3.1,0,0,1,1.68.43,1.39,1.39,0,0,1,.71,1.63c-.08.29,0,.35.22.45a4.07,4.07,0,0,1,1.31,1.07,1.21,1.21,0,0,1,.11,1.48,1.31,1.31,0,0,1-1.51.63,7.21,7.21,0,0,1-1-.38,3.44,3.44,0,0,0-2.78-.08,6.67,6.67,0,0,1-1.26.38,1.29,1.29,0,0,1-1.57-1.64,2.07,2.07,0,0,1,1.14-1.47c.13-.07.35-.06.29-.32-.27-1.05.5-1.45,1.21-1.87A2.92,2.92,0,0,1,281.38,97.93Zm-.51,3a3.94,3.94,0,0,0,2-.45,1,1,0,0,0,.14-1.71,2.13,2.13,0,0,0-1.11-.45,2.85,2.85,0,0,0-2.56.7,1,1,0,0,0,.42,1.75A3,3,0,0,0,280.86,100.92Z"/><path class="cls-4" d="M283.38,105.3c-.08.52.17,1.11-.51,1.41a1.06,1.06,0,0,1-1.55-.83,15.14,15.14,0,0,1,.07-2.42c0-.2.13-.24.3-.22a6.75,6.75,0,0,1,1.41.45c.17.07.17.21.19.36C283.31,104.48,283.35,104.9,283.38,105.3Z"/><path class="cls-4" d="M280.9,104.77a7.77,7.77,0,0,0,0,.94.71.71,0,0,1-.25.63c-.72.73-1.33.61-1.71-.34a4,4,0,0,1-.21-1.79.34.34,0,0,1,.28-.35c.53-.15,1.05-.33,1.58-.49.29-.09.4,0,.37.31S280.91,104.4,280.9,104.77Z"/><path class="cls-23" d="M286.46,93.64a1.61,1.61,0,1,1-3.21,0,1.61,1.61,0,1,1,3.21,0ZM286,94c0-.22-.1-.42-.34-.43s-.38.18-.38.43.1.41.33.42S285.93,94.28,286,94Z"/><path class="cls-23" d="M272.77,94.12a1.63,1.63,0,1,1-3.26-.05,1.63,1.63,0,1,1,3.26.05Zm-.86.81a.4.4,0,0,0,.34-.48c0-.22-.13-.4-.38-.38s-.36.23-.34.48A.37.37,0,0,0,271.91,94.93Z"/><path class="cls-23" d="M280.86,100.92a3,3,0,0,1-1.06-.16,1,1,0,0,1-.42-1.75,2.85,2.85,0,0,1,2.56-.7,2.13,2.13,0,0,1,1.11.45,1,1,0,0,1-.14,1.71A3.94,3.94,0,0,1,280.86,100.92Z"/><path class="cls-22" d="M286,94c0,.23-.11.44-.39.42s-.34-.2-.33-.42.11-.44.38-.43S285.93,93.83,286,94Z"/><path class="cls-22" d="M271.91,94.93a.37.37,0,0,1-.38-.39c0-.24.07-.45.34-.48s.36.16.38.38A.4.4,0,0,1,271.91,94.93Z"/></svg>