<svg id="Layer_1" data-name="Layer 1" xmlns="http://www.w3.org/2000/svg" viewBox="0 0 391 291"><defs><style>.cls-1,.cls-3{fill:none;stroke:#f04f25;stroke-miterlimit:10;}.cls-1{stroke-width:4px;}.cls-2{fill:#f04f25;}.cls-3{stroke-width:5px;}</style></defs><title>new icons</title><path class="cls-1" d="M233.52,203.1a5.13,5.13,0,0,0,.49-7.2c-1.56-1.63-1.81-3.22-.26-5,.62-.71,1.12-1.53,1.75-2.24,2.73-3.06,3.07-3.1,6.68-1,2.35,1.4,6.59-.89,6.67-3.61.1-3.47.84-4.22,4.42-4.57.86-.08,1.71-.22,2.57-.28,3-.18,3.8.47,4.45,3.38a4.45,4.45,0,0,0,7.47,2.38c2.32-2,3.72-2,6.05.13.64.58,1.23,1.22,1.91,1.74,2.06,1.56,2.49,3.21.94,5.51-1.9,2.82.54,7.11,4,7.21,2.37.06,3.61,1.12,3.77,3.43l8.61.06a5.56,5.56,0,0,1,1.06-1.32c1.89-1.82,2.15-3.47.77-5.59a4.7,4.7,0,0,1-.77-1.9c-.22-1.75-1.33-2.08-2.84-2.23-4.92-.48-5.16-.8-5.17-5.65,0-.52,0-1,0-1.55-.06-4.55-.94-6.72,6-7.14.63,0,1.31-.8,1.77-1.38s.46-1.3.82-1.88c1.52-2.45,1.69-4.54-.78-6.69-1.69-1.47-1.69-3.45.16-5.17,1.58-1.46,3.06-3,4.57-4.56s3.28-1.51,5-.09c2.89,2.4,6,2.49,9,.1a4,4,0,0,0,.86-2.52c.53-4.68,1.11-5.24,5.77-5.24h1c6.38,0,6.35,0,7.61,6.37.13.66.89,1.26,1.49,1.73s1.17.34,1.66.66c2.16,1.43,4,1.3,5.8-.72a4.22,4.22,0,0,1,4.65-1.34l1.38,1.38c-.5-27.58-22.71-47.4-49.36-42.71-4.48.79-6.63-.94-8.66-5.43C276.4,91.37,267,74.58,240.37,71.43c-27.67-3.27-43,8.07-55.39,26.13-2.35,3.42-4.63,4.76-8.56,4.83-15.53.26-28.61,6.4-37.88,19.58-3.27,4.65-6.68,5.6-11.7,5.06-22.65-2.4-40.43,14.79-40.12,38.52.28,21.51,14.74,37.4,35.39,37.61,33.32.35,66.64,0,100,0v.07C232.56,203.16,223,203.15,233.52,203.1ZM246.63,145c2.38-.49,3.9-4.07,2.53-6-1.51-2.11-1.3-3.42.88-5.58,2.47-2.44,3.55-2.63,5.73-1a4,4,0,0,0,6.06-2.22c.6-2.92,1.26-3.27,5-3.33,2.55,0,4.08.8,4.4,3.53.28,2.34,3.67,3.69,5.62,2.35,2.44-1.68,3.34-1.51,5.9,1.11,2.12,2.17,2.26,3.39.64,5.6-1,1.39.18,5.24,1.78,5.71,4,1.16,4.13,1.56,3.95,6.07-.13,3.15-2.34,3.38-4.62,3.62a25.93,25.93,0,0,0-1.53,3.57,3.19,3.19,0,0,0,.33,2.23c1.45,2.44,1.26,3.24-1.39,5.94-1.66,1.69-3.24,2.38-5.36.66-1.59-1.29-5.6.4-6,2.48-.53,2.8-2.43,3.11-4.8,3.08s-4.23-.45-4.6-3.3c-.26-2-3.84-3.57-5.59-2.59-3,1.65-3.41,1.49-6.3-1.42-1.83-1.84-1.63-3.55-.22-5.5,1.08-1.49-.59-5.16-2.43-5.55-3-.62-3.4-1.23-3.38-4.71S243.7,145.6,246.63,145Z"/><polyline class="cls-1" points="86.34 154.47 62.37 154.51 62.36 145.94 41.65 145.98"/><polyline class="cls-1" points="85.37 171.19 62.4 171.22 62.41 179.79 41.7 179.82"/><line class="cls-1" x1="85.35" y1="162.62" x2="41.68" y2="162.69"/><path class="cls-2" d="M37.24,147.5a1.5,1.5,0,0,0,0-3,1.5,1.5,0,0,0,0,3Z"/><path class="cls-2" d="M37.27,164.5a1.5,1.5,0,0,0,0-3,1.5,1.5,0,0,0,0,3Z"/><path class="cls-2" d="M37.29,181.5a1.5,1.5,0,0,0,0-3,1.5,1.5,0,0,0,0,3Z"/><path class="cls-3" d="M346.69,163.89c.89,2.47-1,4-2.17,5.55-.85,1.11-1.13,1.95-.24,3.08a3.31,3.31,0,0,1,.64,1.36c.54,2.85,2.24,3.91,5.11,3.89,2.27,0,3.46,1.44,3.39,3.82-.05,1.86,0,3.71,0,5.57,0,3-.72,4-3.58,4.08-2.42.09-4,.84-4.34,3.35a2.7,2.7,0,0,1-.46,1.17c-1.5,2-1,3.66.52,5.5,2.07,2.54,1.87,3.46-.44,5.82-1.18,1.2-2.38,2.4-3.58,3.59-1.58,1.58-3.21,2-5.1.4-.93-.8-2.21-2.09-3.08-1.91a26.68,26.68,0,0,0-6.28,2.53c-.39.19-.46,1.18-.54,1.82-.62,4.72-.88,5-5.73,5-1.35,0-2.7,0-4.05,0-2.42,0-3.77-1-4-3.53-.09-1.19-.18-2.9-.93-3.42a17.78,17.78,0,0,0-5.75-2.4c-.66-.16-1.69.91-2.45,1.54-2.41,2-3.57,2-5.83-.21-1.33-1.3-2.65-2.6-3.94-3.94-1.85-1.91-2-3.36-.11-5.22s2.11-3.41.76-5.48a4.6,4.6,0,0,1-.75-1.86c-.21-1.72-1.3-2-2.78-2.18-4.82-.47-5.06-.78-5.07-5.54,0-.51,0-1,0-1.52-.06-4.46-.92-6.58,5.89-7,.61,0,1.28-.78,1.73-1.35s.45-1.27.8-1.84c1.49-2.4,1.66-4.45-.76-6.56-1.66-1.44-1.65-3.38.16-5.06,1.55-1.43,3-3,4.48-4.47s3.22-1.48,4.9-.09c2.83,2.35,5.85,2.45,8.83.1a4,4,0,0,0,.84-2.47c.52-4.59,1.08-5.14,5.65-5.14h1c6.25,0,6.22,0,7.46,6.25.13.64.88,1.24,1.46,1.69s1.15.33,1.63.65c2.12,1.4,3.92,1.28,5.68-.71a4.13,4.13,0,0,1,4.56-1.31Zm-35.53,12.64a12.07,12.07,0,0,0-.05,17,12.16,12.16,0,1,0,17.25-17.14A12,12,0,0,0,311.15,176.53Z"/><path class="cls-3" d="M236.37,225.71a16.58,16.58,0,0,1,1-3.92c1.43-2.66-.8-6.94-3.87-7-2.42,0-3.83-1-4-3.55-.06-1.09-.19-2.19-.26-3.28-.19-3,.4-3.74,3.24-4.4a5,5,0,0,0,2.31-8c-1.53-1.6-1.77-3.16-.25-4.89.61-.7,1.1-1.5,1.71-2.19,2.68-3,3-3,6.55-.93,2.31,1.37,6.45-.87,6.53-3.54.1-3.4.82-4.14,4.33-4.47.84-.08,1.68-.22,2.52-.27,2.9-.18,3.72.46,4.36,3.32a4.36,4.36,0,0,0,7.32,2.33c2.28-2,3.64-1.94,5.93.13.63.57,1.2,1.2,1.87,1.7,2,1.53,2.44,3.15.92,5.4-1.86,2.77.53,7,4,7.06,2.38.06,3.6,1.14,3.71,3.5,0,.25.06.5.09.75.69,5.82.6,6-5.05,7.48a12.31,12.31,0,0,1-.55,2.15c-1,2.28-1.41,4.42.89,6.21a1.21,1.21,0,0,1,.41.63c.78,3.44-2.27,4.77-3.88,6.86a2.58,2.58,0,0,1-4,.36c-1.73-1.47-3.17-.92-4.94,0s-3.26,1.64-2.81,4a1.77,1.77,0,0,1-.17,1c-1.58,3.54-5,2-7.56,2.57a2.73,2.73,0,0,1-3.26-2.75c-.15-2.37-1.64-2.81-3.48-3.45s-3.14-.66-4.56.95-3.09,1.47-4.67,0a11.6,11.6,0,0,0-1.85-1.2ZM264,200.21a9.93,9.93,0,0,0-14.09,0,10,10,0,0,0,14.2,14.08A10,10,0,0,0,264,200.21Z"/><path class="cls-3" d="M284.36,155.33a25.41,25.41,0,0,0-1.5,3.5,3.13,3.13,0,0,0,.32,2.19c1.42,2.39,1.24,3.17-1.36,5.82-1.63,1.66-3.18,2.33-5.26.65-1.56-1.26-5.49.39-5.88,2.43-.52,2.75-2.39,3-4.7,3s-4.14-.44-4.51-3.24c-.26-2-3.76-3.5-5.48-2.54-2.89,1.62-3.35,1.46-6.17-1.39-1.79-1.8-1.6-3.48-.22-5.39,1.06-1.46-.58-5.06-2.38-5.44-2.9-.61-3.33-1.2-3.31-4.61s.42-4.06,3.29-4.64c2.34-.48,3.82-4,2.48-5.87-1.48-2.07-1.28-3.35.87-5.47,2.42-2.39,3.48-2.58,5.62-1a3.91,3.91,0,0,0,5.94-2.18c.59-2.86,1.23-3.2,4.93-3.27,2.5,0,4,.78,4.31,3.46.27,2.3,3.6,3.61,5.51,2.3,2.4-1.65,3.27-1.48,5.78,1.08,2.08,2.13,2.22,3.32.63,5.49-1,1.36.18,5.14,1.74,5.6,3.87,1.13,4,1.53,3.87,6C288.76,154.87,286.59,155.09,284.36,155.33ZM272.1,144.94a8,8,0,0,0-11.3-.11,8.23,8.23,0,0,0-.1,11.58,8.33,8.33,0,0,0,11.6-.14A8.08,8.08,0,0,0,272.1,144.94Z"/></svg>