<svg id="Layer_1" data-name="Layer 1" xmlns="http://www.w3.org/2000/svg" viewBox="0 0 88 83"><defs><style>.cls-1{fill:#f04f23;}</style></defs><title>career icon send</title><path class="cls-1" d="M86.92,15.91A36.91,36.91,0,0,1,84,19.79c-3.18,3.32-6.53,6.48-9.68,9.83a4.9,4.9,0,0,0-1.25,3C73,47.1,73.07,61.56,73.06,76c0,4.38-1.37,5.73-5.78,5.73H6.58C2.46,81.74,1,80.29,1,76.21Q1,45.66,1,15.12c0-4,1.45-5.47,5.44-5.47q27.39,0,54.79,0a3.78,3.78,0,0,0,3.07-1.3c1.66-1.78,3.4-3.47,5.14-5.17a5.55,5.55,0,0,1,8.23,0c2.49,2.43,5,4.88,7.37,7.4a18.7,18.7,0,0,1,1.9,2.91Zm-26.65-3.3a8.19,8.19,0,0,0-1-.23q-26.7,0-53.4,0c-2,0-2.19,1.06-2.19,2.65q0,30.64,0,61.28c0,2.53.16,2.7,2.68,2.7H67.71c2.39,0,2.64-.23,2.64-2.56q0-20.49,0-41c0-.47-.09-.95-.14-1.42l-.47-.27a13.5,13.5,0,0,1-1.18,1.58Q56.33,47.61,44.06,59.86a4.48,4.48,0,0,1-2.26,1.34c-4.8.67-9.63,1.2-14.44,1.78-1.79.22-2.29-.24-2.07-2,.46-3.77,1.16-7.53,1.36-11.32.17-3.2,1.62-5.39,3.84-7.55C38.85,33.93,47,25.59,55.32,17.33,56.84,15.81,58.44,14.36,60.28,12.61ZM31.82,45l1.68.32c2.2.46,4,.11,5.52-1.84a44.06,44.06,0,0,1,4.28-4.34c.77-.76,1.62-2,2.74-.8s-.17,2-.92,2.76c-1.84,1.87-3.77,3.66-5.53,5.61a11.38,11.38,0,0,0-1.32,2.77c.89.1,1.21.16,1.52.17,2.62.11,2.72.21,3,2.77.13,1.38.29,2.76.39,3.7L67.27,32.26,56,21ZM58.28,18.3,70.14,30.15A8.13,8.13,0,0,0,71.31,28c.22-1,2-3.85,3-3.68,1.69.31,2.26-.79,2.83-1.42L65.46,11.16Zm9.57-9.81,12,12c1.06-1.13,2.28-2.4,3.47-3.7a2.68,2.68,0,0,0,0-4c-2.55-2.64-5.14-5.24-7.79-7.79a2.62,2.62,0,0,0-3.89,0C70.27,6.1,69,7.4,67.85,8.48Zm-38,39.17c-.69,3.62-2,7.17,2,9.7.54.34.91,1,1.42,1.36a2,2,0,0,0,1.18.53c2-.14,4-.37,6.18-.58l-.68-6.24c-3.46-.3-3.46-.3-4.23-4.15Z"/><path class="cls-1" d="M12.1,20.67v50a21.07,21.07,0,0,1,3.66.06c.65.12,1.2.84,1.79,1.29-.6.45-1.2.92-1.82,1.35-.09.06-.26,0-.39,0-5.68.15-6-.2-6-5.86q0-22.65,0-45.3c0-3.51.75-4.26,4.27-4.26h32.1a5.42,5.42,0,0,1,1.93.19,1.48,1.48,0,0,1,.82,1.13,2,2,0,0,1-.95,1.28,3.54,3.54,0,0,1-1.55.08H12.1Z"/><path class="cls-1" d="M62.05,70.7c0-3.68,0-7.08,0-10.48,0-4.2-.05-8.41.06-12.6,0-.59.85-1.17,1.31-1.75.43.56,1.23,1.11,1.24,1.67.08,7.68.12,15.36,0,23A3.39,3.39,0,0,1,62.7,73.1a15.46,15.46,0,0,1-5.06.16c-.4,0-1-.9-1-1.35a1.73,1.73,0,0,1,1.21-1.16A35.46,35.46,0,0,1,62.05,70.7Z"/><path class="cls-1" d="M35.69,70.53c0-.46-.16-1,0-1.35C36,68.69,36.55,68,37,68a1.8,1.8,0,0,1,1.33,1.08,4.55,4.55,0,0,1,.05,2.5c-.2.66-.91,1.18-1.39,1.75a22.37,22.37,0,0,1-1.28-1.86c-.14-.25,0-.64,0-1Z"/><path class="cls-1" d="M52.23,70.71c0,.46.15,1,0,1.35a2.43,2.43,0,0,1-1.25,1.22,1.56,1.56,0,0,1-1.27-.88,11.89,11.89,0,0,1,0-3.47A1.55,1.55,0,0,1,50.9,68a2.24,2.24,0,0,1,1.28,1.16A3.72,3.72,0,0,1,52.23,70.71Z"/><path class="cls-1" d="M21.86,70.58c0-.39-.14-.86,0-1.15a10.43,10.43,0,0,1,1.2-1.49c.48.49,1.18.91,1.39,1.5a3.82,3.82,0,0,1,0,2.3c-.2.62-.86,1.08-1.31,1.62a12.9,12.9,0,0,1-1.29-1.63C21.72,71.44,21.86,71,21.86,70.58Z"/><path class="cls-1" d="M31.38,70.56a3.81,3.81,0,0,1,0,1.53c-.25.5-.81,1.17-1.23,1.17s-1.11-.65-1.24-1.14a4.7,4.7,0,0,1,0-2.49c.19-.64.89-1.14,1.36-1.69a17.25,17.25,0,0,1,1.19,1.67c.14.25,0,.64,0,1Z"/><path class="cls-1" d="M42.7,70.55c0-.46-.15-1,0-1.36S43.51,68,43.93,68a1.75,1.75,0,0,1,1.24,1.1,5.17,5.17,0,0,1,0,2.53c-.16.63-.79,1.13-1.21,1.69a12.75,12.75,0,0,1-1.29-1.63c-.17-.3,0-.77,0-1.16Z"/><path class="cls-1" d="M48.94,36.65c-.28-.18-.87-.36-1-.68a2,2,0,0,1,.18-1.61,40.59,40.59,0,0,1,3.9-3.89,1.85,1.85,0,0,1,1.71,0,1.58,1.58,0,0,1,.3,1.52c-1.4,1.56-2.93,3-4.43,4.47C49.53,36.54,49.29,36.54,48.94,36.65Z"/><path class="cls-1" d="M62.38,19.24c-.26-.7-.93-1.65-.69-2a9.59,9.59,0,0,1,2.53-2.63C65,14,66.4,15,66,15.77a22.91,22.91,0,0,1-2.77,3.54Z"/><path class="cls-1" d="M68,24c-.57-.19-1-.25-1-.36-.1-.68-.39-1.55-.08-2,1.29-2,3.1-2.85,3.63-1.9a2.78,2.78,0,0,1-.42,2.3A11.53,11.53,0,0,1,68,24Z"/></svg>