<svg id="Layer_1" data-name="Layer 1" xmlns="http://www.w3.org/2000/svg" xmlns:xlink="http://www.w3.org/1999/xlink" viewBox="0 0 600 425"><defs><style>.cls-1{fill:none;}.cls-2{fill:#fe7006;}.cls-3{fill:#515150;}.cls-4{fill:#0f938c;}.cls-5{fill:#fefdfd;}.cls-6{fill:#ff4b00;}.cls-7{clip-path:url(#clip-path);}.cls-8{clip-path:url(#clip-path-2);}.cls-9{clip-path:url(#clip-path-3);}.cls-10{clip-path:url(#clip-path-4);}</style><clipPath id="clip-path"><rect class="cls-1" x="250" y="240" width="46" height="128"/></clipPath><clipPath id="clip-path-2"><rect class="cls-1" x="205" y="240" width="46" height="128" transform="translate(456 608) rotate(-180)"/></clipPath><clipPath id="clip-path-3"><rect class="cls-1" x="283" y="368" width="111" height="20"/></clipPath><clipPath id="clip-path-4"><rect class="cls-1" x="377" y="368" width="116" height="24"/></clipPath></defs><title>customer quotes image</title><ellipse class="cls-2" cx="157.5" cy="368" rx="53.5" ry="18"/><path class="cls-2" d="M103.71,368.26c-.46-4.63,2-8.36,4-12.1,5.65-10.44,14.87-16.78,25.51-21.34,2.77-1.19,5.56-2.31,8.3-3.55,4.6-2.09,5.22-6.22,5.26-10.6,0-2.06-1.22-2.24-3-2.31-12.89-.55-19.06-6.65-20.08-19.62a69.3,69.3,0,0,1,4.83-30.92c6-15.33,20.34-22,37.89-18.09,14,3.12,23.41,11.23,27.73,25.06A77.09,77.09,0,0,1,198,298.84c-.14,11.31-6.49,18.8-17.59,20.64-4.9.81-4.86,1.18-3.55,6,1.87,7,8.21,7.59,13.28,9.84,4.56,2,9,4,12.78,7.39a8,8,0,0,1-1.25,2.34c-5.08,4.54-7,10.67-8.56,17-1.18,4.7-.7,5.29,4,5.32,2.86,0,5.72-.17,8.56,0,4.12.31,8.35-1,12.36.84Zm60.68-81.54.87.94,2,2.76c-1.62-.1-2.78-.09-3.93-.26-3.59-.5-5.66-6.37-10.4-2.93-.11.08-.5-.28-.78-.39a30.59,30.59,0,0,1-6.12-3.79c-1.78-1.29-2.58-5.3-4.53-4.13s-2.17,4.87-2.44,7.66c0,.3,0,.6,0,.91-.09,8.26,2.67,15.85,5.21,23.55,1.83,5.56,5.91,8.49,10.88,10.45,8.88,3.5,18.93-.28,22.52-8.83,2.83-6.74,3.47-14,3.19-21.32-.05-1.41-.35-2.47-2.09-1.74-4.92,2.09-9.08.54-12.91-2.65l-1.1-.68c-.24-.36-.61-.81-1-.37S163.95,286.62,164.39,286.72ZM189.44,337c-9.31-1.94-15-6.5-15.88-15.95a19,19,0,0,1-12.28,4c-4.33-.07-8.11-1.87-12.13-3.89.51,8.77-4.9,12.27-11.82,14.66-1.11.38-3.2,0-3.21,1.76s1.7,2.23,3.08,2.83a90,90,0,0,0,8.63,3.74C161.09,349,175.72,349.17,189.44,337Zm-34.13-52.39c-.11-.4-.17-.89-.77-.73a2.35,2.35,0,0,0-.65.45,5.42,5.42,0,0,0,.87.71C154.85,285.1,155.13,284.79,155.32,284.63Z"/><path class="cls-3" d="M392,146.1l-11.85,6.2c4.59-21.22,9.28-42.43,13.73-63.68C397.83,70,387,57,368,57.35c-13.12.22-26.22,1.23-39.36.79.43-8.4,5.9-12.9,12.67-16.39h60.77c1.52,1.5,3.42.74,5.16.84,9.28.52,18.61-.85,27.87.88,7.1,1.33,14.5,9.8,12.52,20-1.72,8.82-3.16,17.69-4.72,26.53-.7.25-1.4.51-2.1.75C414,99.85,396.42,117.17,392,146.1Z"/><path class="cls-4" d="M377.62,368.26c1.35-9.51,4.94-18,11.74-24.9,1.88-1.23,3.61-2.95,5.67-3.59,9.78-3.06,10-11.11,10.42-19.15a40.39,40.39,0,0,0-.35-4.93c4.83-.75,9.71,1.06,14.53-.27,13.08,12.34,25.66,9.82,31.21-6.26,3.86,1.57,7.93.91,11.92,1.08-.53,8-.07,15.9,3.75,23.26.84,1.61,1.58,3.06,3.36,3.86,13.34,6.05,19.94,17.14,22.95,30.89ZM407,337.2c9.13,6.73,18.36,12,27.43,17.59a1.69,1.69,0,0,0,2.06.12l25.9-17.85c-6.27-1.67-12-3.57-13.52-9.13-1.62-5.73-3.37-5.86-8.4-3.65-5.77,2.53-11.79.37-17.65-3C423.15,332.09,415.22,334.35,407,337.2Z"/><path class="cls-5" d="M336.81,368c.55-3.42.91-6.88,1.69-10.25a5.89,5.89,0,0,0-2.07-6.42c-2.34-2-3.06.73-4.4,1.49-.94.53-1.64.75-2.26-.25q-5.9-9.43-11.78-18.88l1.16-.74c3.09,4.85,6.46,9.56,9.19,14.61,2.05,3.8,3.47,3.7,6.48.89,6.13-5.73,6.31-5.55-.74-10.08-1.52-1-3.06-1.93-4.58-2.92-1.9-1.23-4.56-2.08-5.46-3.84-1-2,2.45-2.64,3.23-4.5a23.59,23.59,0,0,0,1.7-7.68c3.94,2,7.85,3.93,12.3,4s8.27-1.39,12.28-4.1c.62,4.07,1.76,7.71,4.84,10.31,1.94,1.64.16,2.26-.83,3-4.18,3-8.37,5.93-12.64,8.78-1.67,1.12-1.84,1.8-.31,3.36,7.49,7.62,7.44,7.67,13.19-1.39q3.32-5.23,6.62-10.48l1.21.76-11.72,18.79c-.82,1.32-1.61.73-2.6.1s-2-3-3.62-1.27c-1.45,1.56-3.59,3-2.87,5.75q1.44,5.46,2.86,10.93Z"/><path class="cls-2" d="M239.83,186.19c-10,22.43-29.42,31.48-54.05,24.55L201,241.52l-.7.63c-6.64-4.19-13.3-8.35-19.92-12.58-9.52-6.07-19-12.14-28.49-18.31a8.42,8.42,0,0,0-6.3-1.26c-23.36,3.13-44.36-1.94-60.36-20.11-22.37-25.39-16.17-60.48,11.41-80.21,20.43-14.62,43-17.33,66.75-9.07,1.62.56,2.95,1.52,4.84-.19,10.06-9.06,22-11.28,35.05-9.09a.49.49,0,0,0,.32.33c0,1.66-.08,3.32,0,5,.61,21.1,1.35,42.2,1.81,63.31.3,13.7,7.58,22.62,20.9,25.36C230.82,186.23,235.35,185.45,239.83,186.19Z"/><path class="cls-6" d="M392,146.1c4.38-28.93,21.94-46.25,48.8-55.38.7-.24,1.4-.5,2.1-.75A97.15,97.15,0,0,1,469,88.17c22.33,1.73,40.91,10.51,52.61,30.33,10.75,18.19,9.71,39.32-2.71,58.49-13.81,21.31-34.31,30.35-58.73,32.5-6.67.59-12.26,4.46-18.23,7.09-8.92,3.93-17.74,8.06-28,12.74,3.74-8.17,6.71-15.16,10.12-21.93,1.73-3.42,1.74-5.12-2-7.35C401.61,188,391.34,170,392,146.1Z"/><path class="cls-4" d="M462.76,310.25c-4-.17-8.05.49-11.92-1.08.29-1.75.7-3.49.86-5.26.51-5.68.74-11.32-4.14-15.58-.14-.39-.33-.76-.81-.46a5.49,5.49,0,0,0,.38.91c.49,1.85,2.19,3.55.68,6.14-3.37-6-8.7-9.46-14-13-5.09-3.39-9.8-7.17-11.68-13.34-.7-2.31-1.59-1.53-2.8-.52-4.9,4.1-6.71,9.82-8.26,15.67-.42,1.6-.41,3.45-1.25,4.77-3.88,6.11-3.11,10.26,3.14,14.68a3.86,3.86,0,0,1,1.44,2.2c1.13,3.65,3.35,6.72,5.2,10-4.82,1.32-9.7-.48-14.53.27-2.4-11.76-6.83-23.13-5.8-35.52,1.23-14.78,10-26.54,23.42-29.29,13-2.66,25.1.06,35,9,8.05,7.29,9.33,17.31,8.4,27.51C465.45,295.08,463.92,302.65,462.76,310.25Z"/><path class="cls-5" d="M165.88,287c3.83,3.19,8,4.74,12.91,2.65,1.74-.74,2,.33,2.09,1.74.28,7.31-.36,14.59-3.19,21.32-3.59,8.55-13.64,12.33-22.52,8.83-5-2-9-4.9-10.88-10.45-2.54-7.7-5.3-15.29-5.21-23.55,0-.3,0-.61,0-.91.27-2.79.43-6.46,2.44-7.66s2.75,2.83,4.53,4.13a30.59,30.59,0,0,0,6.12,3.79c.28.12.67.47.78.39,4.73-3.44,6.81,2.43,10.4,2.93,1.15.16,2.31.16,3.93.26l-2-2.76Z"/><path class="cls-5" d="M189.44,337c-13.73,12.15-28.35,12-43.62,7.18a90,90,0,0,1-8.63-3.74c-1.38-.6-3.09-1.24-3.08-2.83s2.1-1.38,3.21-1.76c6.92-2.39,12.33-5.89,11.82-14.66,4,2,7.8,3.83,12.13,3.89a19,19,0,0,0,12.28-4C174.44,330.52,180.13,335.08,189.44,337Z"/><path class="cls-5" d="M155.32,284.63c-.19.15-.46.47-.54.43a5.42,5.42,0,0,1-.87-.71,2.35,2.35,0,0,1,.65-.45C155.15,283.74,155.21,284.23,155.32,284.63Z"/><path class="cls-5" d="M164.39,286.72c-.44-.1-.94-.35-.58-.81s.72,0,1,.37Q164.59,286.51,164.39,286.72Z"/><path class="cls-5" d="M165.26,287.66l-.87-.94q.2-.21.39-.44l1.1.68Z"/><path class="cls-5" d="M367.07,289.19c-.53,3.75,0,8.1-4.4,10.32-.82.41-1.16,2-1.49,3.13a34.54,34.54,0,0,1-4.41,9.38c-7.56,11.33-21.43,12.11-30.2,1.65-1.93-2.3-4.33-4.58-4.74-7.56-.73-5.32-6.67-6.92-7.78-11.92-.61-2.75-1-5.36.23-8.24.75,1.55,1.49,3.1,2.27,4.64.54,1.06,1,2.3,2.64,1.75,1.93-.63.94-1.8.61-2.88-2.22-7.4-1.88-15.31,3.37-23,8.73,12.88,29,22,40.61,13,.24,3.59.45,6.73-.38,9.93-.27,1.06-1.19,2.66.16,3.24,1.62.69,2.2-1,2.82-2.23C366.58,289.92,366.84,289.56,367.07,289.19Z"/><path class="cls-5" d="M227.21,277.34a24.83,24.83,0,0,1,0-4.07c.37-2.19.41-5.07,2.47-6,1.6-.72,2.51,2.12,4,3.06,9.17,5.82,18.65,4.67,28.2,1.22a25.89,25.89,0,0,0,4.44-2.24c5.09-3.05,5.19-3.1,6.4,2.87A70.5,70.5,0,0,1,274,282c.15,2.47-.8,4-3.83,3.34a37.41,37.41,0,0,0-16.13.08,14.77,14.77,0,0,1-6.73-.18c-4.47-1.13-9-.87-13.5-.32-6.13.74-6.46.62-6.64-5.78,0-.6,0-1.21,0-1.81Z"/><path class="cls-5" d="M270.62,330.2c-1.63,4.4-5.55,6.34-9.38,7.82-9.71,3.74-19.16,3.19-27.78-3.22-1.94-1.45-3.59-2.78,0-4.72,3.84-2.07,3.92-6.46,4.87-10.58,8.88,5.51,17.57,6.18,26-1,1.61,4.41,1,9.65,6.27,11.65Z"/><path class="cls-5" d="M263.07,286.79c2.29.67,6.7-1.3,6.6,4.28-.08,4.55-1.8,6.28-6.31,6.29-5.06,0-8-2.53-8.15-7.07C255.12,287.36,256.22,286.83,263.07,286.79Z"/><path class="cls-5" d="M447.56,288.34c4.88,4.26,4.65,9.9,4.14,15.58-.16,1.76-.56,3.5-.86,5.26-5.55,16.07-18.14,18.6-31.21,6.26-1.85-3.27-4.07-6.34-5.2-10a3.86,3.86,0,0,0-1.44-2.2c-6.24-4.42-7-8.57-3.14-14.68.84-1.32.83-3.17,1.25-4.77,1.55-5.86,3.36-11.57,8.26-15.67,1.21-1,2.1-1.79,2.8.52,1.88,6.17,6.59,9.95,11.68,13.34,5.26,3.51,10.6,6.93,14,13,1.51-2.59-.19-4.29-.68-6.14Z"/><path class="cls-5" d="M407,337.2c8.18-2.84,16.12-5.1,15.81-15.9,5.86,3.35,11.88,5.5,17.65,3,5-2.21,6.78-2.08,8.4,3.65,1.57,5.56,7.25,7.46,13.52,9.13l-25.9,17.85a1.69,1.69,0,0,1-2.06-.12C425.39,349.24,416.16,343.92,407,337.2Z"/><path class="cls-4" d="M368,57.35c-13.12.22-26.22,1.23-39.36.79l-.78.49a29.26,29.26,0,0,0-3.14-.25q-48.63,1.24-97.25,2.56a22.83,22.83,0,0,0-13.35,5c-8.43,6.42-11.29,15.23-10.85,25.44a.49.49,0,0,0,.32.33c0,1.66-.08,3.32,0,5,.61,21.1,1.35,42.2,1.81,63.31.3,13.7,7.58,22.62,20.9,25.36,4.51.93,9,.14,13.52.88,7.53.42,15.05.89,22.58,1.22a8.08,8.08,0,0,1,5.25,2.12q14.69,12.72,29.52,25.28c6.69,5.71,13.42,11.38,20.89,17.72l-11.25-43c12.4.77,24.41,1.29,36.38,2.33,16.24,1.4,29.71-8.17,33.16-24a81.26,81.26,0,0,0,3.09-14.56l.74-1c4.59-21.22,9.28-42.43,13.73-63.68C397.83,70,387,57,368,57.35Z"/><path class="cls-5" d="M447.13,288.79a5.49,5.49,0,0,1-.38-.91c.48-.3.67.07.81.46Z"/><path class="cls-3" d="M206.27,340c7.66,7,14.17,14.77,17.14,24.76.49,1.66,2.86,1.13,2.06,3-.37,0-2.72-1.07-3.09,0-2.06,1.07-9.37,1.52-14.38,1.15-3.46-.25-7,0-10.43-.06-5.7,0-6.28-.73-4.85-6.21,1.91-7.32,4.24-14.46,10.42-19.76.76-.65,1-1.81,1.53-2.73Z"/><g class="cls-7"><path class="cls-3" d="M296.45,340.66a40.56,40.56,0,0,0-12.77,23.16c-.26,1.46-.26,3-.38,4.45H218.9c.66-1.58-.2-3-.61-4.37-2.44-8.57-7.79-15.22-14.08-21.24,3.7-4.25,8.8-6.15,13.82-8.19,4-1.64,8.24-2.92,12.07-4.94,6.44-3.4,7.52-9.81,3-15.48-.09-.12-.24-.21-.29-.35-3.32-8.53-11.67-14.45-12.55-24.23-.09-1-.57-2.54-.07-3,3.59-3.55,1.72-7.59,1.22-11.45-1.69-13.24,3.08-21.92,15.33-26.79a36.11,36.11,0,0,1,29.81,1c9.55,4.51,11.55,13.25,12.17,22.59.2,3,.39,6-.5,9a3.75,3.75,0,0,0,.06,2.62c3.47,6.12,1.1,11.77-2.51,16.32-3.79,4.79-5.75,10.33-8.38,15.56-1.74,3.46,0,7.37,1.8,10.77.68,1.26,2.14,2.26,1.36,4-5.25-2-4.66-7.24-6.27-11.65-8.4,7.2-17.09,6.53-26,1-1,4.12-1,8.51-4.87,10.58-3.59,1.94-1.94,3.27,0,4.72,8.62,6.41,18.07,7,27.78,3.22,3.84-1.48,7.76-3.42,9.38-7.82A78.64,78.64,0,0,1,296.45,340.66Zm-63.05-44.07c-3.26-1-1.65-4.38-3.09-6.24-2.21,3.24-2.87,3.21-4.57-.07-.74-1.43-.68-3.47-3-4.32-.61,4.76.19,10.16,3.07,12.06,3.66,2.4,3.62,5.55,5.16,8.48,4.15,7.92,10,14.12,19.62,14.47s14.62-5.85,18.1-13.78c1.08-2.47,1.36-6,3.22-7.28,4.68-3.25,4.41-8,5.56-12.43-3.11,5.17-3.11,5.17-5.53,2.48-.29,1.07-.56,2.07-.83,3.08-1.4,5.24-3.79,6.86-9.12,6.25-4.21-.48-7.54-1.89-8.28-6.75-.18-1.2-.69-2.8-2.41-2.92-2.08-.15-2.1,1.73-2.79,3s-.29,3.48-2.43,4a3.81,3.81,0,0,1,.34-2.61c1.65-5.18.5-6.86-4.84-7.16C232.88,286.33,231.65,287.79,233.39,296.59Zm-6.18-19.25h-.1c0,.6,0,1.21,0,1.81.18,6.39.51,6.52,6.64,5.78,4.48-.54,9-.81,13.5.32a14.77,14.77,0,0,0,6.73.18,37.41,37.41,0,0,1,16.13-.08c3,.66,4-.87,3.83-3.34a70.5,70.5,0,0,0-1.2-9.82c-1.21-6-1.31-5.93-6.4-2.87a25.89,25.89,0,0,1-4.44,2.24c-9.55,3.45-19,4.6-28.2-1.22-1.48-.94-2.39-3.78-4-3.06-2.05.92-2.1,3.79-2.47,6A24.83,24.83,0,0,0,227.21,277.34Zm35.85,9.45c-6.85,0-8,.56-7.86,3.5.15,4.54,3.08,7.09,8.15,7.07,4.51,0,6.23-1.74,6.31-6.29C269.77,285.49,265.36,287.47,263.07,286.79Z"/></g><g class="cls-8"><path class="cls-3" d="M230.38,330.2c1.63,4.4,5.55,6.34,9.38,7.82,9.71,3.74,19.16,3.19,27.78-3.22,1.94-1.45,3.59-2.78,0-4.72-3.84-2.07-3.92-6.46-4.87-10.58-8.88,5.51-17.57,6.18-26-1-1.61,4.41-1,9.65-6.27,11.65-.78-1.76.68-2.76,1.36-4,1.85-3.4,3.54-7.31,1.8-10.77-2.63-5.23-4.59-10.77-8.38-15.56-3.6-4.55-6-10.2-2.51-16.32a3.75,3.75,0,0,0,.06-2.62c-.89-3-.7-6-.5-9,.61-9.34,2.62-18.07,12.17-22.59a36.11,36.11,0,0,1,29.81-1c12.25,4.87,17,13.55,15.33,26.79-.49,3.85-2.36,7.9,1.22,11.45.49.49,0,2-.07,3-.89,9.78-9.23,15.7-12.55,24.23-.05.13-.19.23-.29.35-4.53,5.66-3.44,12.08,3,15.48,3.83,2,8,3.3,12.07,4.94,5,2,10.12,3.93,13.82,8.19-6.29,6-11.64,12.67-14.08,21.24-.41,1.42-1.27,2.8-.61,4.37H217.7c-.12-1.48-.12-3-.38-4.45a40.56,40.56,0,0,0-12.77-23.16A78.64,78.64,0,0,1,230.38,330.2Zm29-43.38c-5.34.3-6.49,2-4.84,7.16a3.81,3.81,0,0,1,.34,2.61c-2.13-.52-1.68-2.63-2.43-4s-.71-3.14-2.79-3c-1.72.12-2.23,1.73-2.41,2.92-.74,4.86-4.06,6.27-8.28,6.75-5.33.61-7.72-1-9.12-6.25-.27-1-.54-2-.83-3.08-2.42,2.69-2.42,2.69-5.53-2.48,1.15,4.41.88,9.19,5.56,12.43,1.86,1.29,2.13,4.81,3.22,7.28,3.48,7.94,8.51,14.13,18.1,13.78s15.47-6.55,19.62-14.47c1.54-2.93,1.49-6.07,5.16-8.48,2.88-1.89,3.69-7.3,3.07-12.06-2.28.86-2.21,2.89-3,4.32-1.7,3.29-2.35,3.31-4.57.07-1.44,1.86.17,5.23-3.09,6.24C269.35,287.79,268.12,286.33,259.37,286.82Zm14.37-13.54c-.37-2.19-.41-5.07-2.47-6-1.6-.72-2.51,2.12-4,3.06-9.17,5.82-18.65,4.67-28.2,1.22a25.89,25.89,0,0,1-4.44-2.24c-5.09-3.05-5.19-3.1-6.4,2.87A70.5,70.5,0,0,0,227,282c-.15,2.47.8,4,3.83,3.34a37.41,37.41,0,0,1,16.13.08,14.77,14.77,0,0,0,6.73-.18c4.47-1.13,9-.87,13.5-.32,6.13.74,6.46.62,6.64-5.78,0-.6,0-1.21,0-1.81h-.1A24.83,24.83,0,0,0,273.74,273.27Zm-42.41,17.8c.08,4.55,1.8,6.28,6.31,6.29,5.06,0,8-2.53,8.15-7.07.1-2.94-1-3.46-7.86-3.5C235.64,287.47,231.23,285.49,231.33,291.08Z"/></g><ellipse class="cls-3" cx="245.5" cy="366.5" rx="53.5" ry="18.5"/><path class="cls-6" d="M296.45,340.66c6.94-4.36,14.64-7,22.25-9.85,6.11-2.29,8.34-5.56,8-11.09,0-.45.14-1.07-.09-1.33-4.67-5.09-6.09-12.32-11.09-17.1-4-3.85-6-13-3.07-17.63a4.75,4.75,0,0,0,.3-4.28,40.4,40.4,0,0,1-1.53-10.24c-.18-9.66,2.21-13.2,11.19-16.69a17.94,17.94,0,0,0,3.52-2,27.21,27.21,0,0,1,42.7,18.84c.53,3.75,1,7.47.11,11.24a4.27,4.27,0,0,0,0,2.66c4,7.27-.42,12.67-3.85,18.38-3.15,5.25-5.52,10.9-8.72,16.17-2.35,3.87,2.06,10.73,7.36,13,4.57,1.93,9.26,3.59,13.87,5.43a42.52,42.52,0,0,1,11.94,7.21c-6.8,6.94-10.39,15.39-11.74,24.9-10,0-20.65-.26-30.62-.26-1-3.64-1.21-7-2.17-10.67-.72-2.74,1.42-4.2,2.87-5.75,1.66-1.78,2.53.57,3.62,1.27s1.77,1.22,2.6-.1L365.64,334l-1.21-.76q-3.31,5.24-6.62,10.48c-5.75,9.06-5.7,9-13.19,1.39-1.53-1.56-1.36-2.24.31-3.36,4.27-2.85,8.46-5.81,12.64-8.78,1-.7,2.77-1.32.83-3-3.08-2.6-4.23-6.23-4.84-10.31-4,2.71-7.91,4.21-12.28,4.1s-8.36-2-12.3-4a23.59,23.59,0,0,1-1.7,7.68c-.78,1.87-4.27,2.47-3.23,4.5.9,1.75,3.56,2.6,5.46,3.84,1.52,1,3.06,1.94,4.58,2.92,7,4.53,6.87,4.35.74,10.08-3,2.82-4.43,2.91-6.48-.89-2.73-5.05-6.1-9.76-9.19-14.61L318,334q5.89,9.44,11.78,18.88c.62,1,1.32.78,2.26.25,1.34-.76,2.06-3.48,4.4-1.49A5.89,5.89,0,0,1,338.5,358c-.78,3.37-1.15,6.83-1.69,10.25H283.3c.12-1.48.12-3,.38-4.45A40.56,40.56,0,0,1,296.45,340.66Zm70.62-51.46c-.23.37-.49.72-.69,1.11-.62,1.19-1.2,2.92-2.82,2.23-1.36-.58-.44-2.18-.16-3.24.83-3.2.62-6.35.38-9.93-11.57,9-31.88-.08-40.61-13-5.26,7.73-5.59,15.64-3.37,23,.33,1.08,1.32,2.25-.61,2.88-1.67.55-2.1-.68-2.64-1.75-.78-1.53-1.51-3.09-2.27-4.64-1.19,2.88-.84,5.49-.23,8.24,1.1,5,7,6.6,7.78,11.92.41,3,2.82,5.26,4.74,7.56,8.77,10.46,22.64,9.68,30.2-1.65a34.54,34.54,0,0,0,4.41-9.38c.33-1.12.67-2.72,1.49-3.13C367.08,297.29,366.54,292.94,367.07,289.19Z"/><g class="cls-9"><ellipse class="cls-6" cx="338.5" cy="368.5" rx="55.5" ry="18.5"/></g><g class="cls-10"><ellipse class="cls-4" cx="435" cy="368.6" rx="58" ry="22.2"/></g><polyline class="cls-5" points="338 360 334.12 389 351.12 388.53 344 354"/></svg>