<svg id="Layer_1" data-name="Layer 1" xmlns="http://www.w3.org/2000/svg" viewBox="0 0 103 139"><defs><style>.cls-1,.cls-3{fill:#273274;}.cls-2{fill:#fff;}.cls-3{stroke:#273274;stroke-miterlimit:10;stroke-width:2px;}</style></defs><title>doc icons</title><rect class="cls-1" x="3.27" y="4" width="96.66" height="131" rx="2.38" ry="2.38"/><path class="cls-2" d="M14.76,32.72V28.66H87.89v4.06Z"/><path class="cls-2" d="M14.76,42.9V38.83H59.24V42.9Z"/><path class="cls-2" d="M14.76,22.55V18.48H87.89v4.06Z"/><polygon class="cls-2" points="3.06 68.81 89.99 68.81 90 113.39 3.37 113.39 3.06 68.81"/><path class="cls-3" d="M25,80a11.79,11.79,0,0,1,4.13,4.75,16,16,0,0,1,0,13.55A11.87,11.87,0,0,1,24.91,103,10.65,10.65,0,0,1,19,104.73H10V78.23h9.1A10.53,10.53,0,0,1,25,80Zm-1.6,20.2a8.85,8.85,0,0,0,3-3.56,12.23,12.23,0,0,0,0-10.18,9,9,0,0,0-3-3.58A7.5,7.5,0,0,0,19,81.53H13v19.91h6.1A7.38,7.38,0,0,0,23.36,100.15Z"/><path class="cls-3" d="M53.19,79.78a12.43,12.43,0,0,1,4.26,4.86A14.83,14.83,0,0,1,59,91.45a15.05,15.05,0,0,1-1.56,6.83,12.51,12.51,0,0,1-4.26,4.92,10.65,10.65,0,0,1-11.84,0,12.49,12.49,0,0,1-4.26-4.92,15,15,0,0,1-1.56-6.83,14.81,14.81,0,0,1,1.56-6.8,12.46,12.46,0,0,1,4.25-4.86,10.77,10.77,0,0,1,11.86,0ZM43,82.62a9.65,9.65,0,0,0-3.18,3.69,11.18,11.18,0,0,0-1.18,5.13,11.29,11.29,0,0,0,1.18,5.15A9.77,9.77,0,0,0,43,100.32a7.45,7.45,0,0,0,4.33,1.38,7.3,7.3,0,0,0,4.29-1.38,9.75,9.75,0,0,0,3.13-3.73,11.41,11.41,0,0,0,1.17-5.15,11.29,11.29,0,0,0-1.17-5.13,9.63,9.63,0,0,0-3.13-3.69,7.37,7.37,0,0,0-4.29-1.36A7.51,7.51,0,0,0,43,82.62Z"/><path class="cls-3" d="M79.18,82.11a7.4,7.4,0,0,0-3.48-.89,7.49,7.49,0,0,0-4.34,1.36,9.44,9.44,0,0,0-3.13,3.69,12,12,0,0,0,0,10.24,9.42,9.42,0,0,0,3.13,3.71,7.5,7.5,0,0,0,4.34,1.36,7.6,7.6,0,0,0,3.45-.85,10,10,0,0,0,3-2.33L84,100.8a12.51,12.51,0,0,1-3.93,3.09A10,10,0,0,1,75.54,105a10.17,10.17,0,0,1-5.84-1.8,12.45,12.45,0,0,1-4.18-4.9A15.26,15.26,0,0,1,64,91.45a15,15,0,0,1,1.55-6.8,12.36,12.36,0,0,1,4.23-4.86A10.53,10.53,0,0,1,80.19,79,11.21,11.21,0,0,1,84,82l-1.82,2.61A9.41,9.41,0,0,0,79.18,82.11Z"/></svg>