<svg id="Layer_1" data-name="Layer 1" xmlns="http://www.w3.org/2000/svg" viewBox="0 0 150 150"><defs><style>.cls-1{fill:#fff;}.cls-2{fill:#273274;}</style></defs><title>doc icons</title><circle class="cls-1" cx="75" cy="75" r="75"/><path class="cls-2" d="M52.46,43.5H88.58c3.65,3.33,7.28,6.68,11,10a2.86,2.86,0,0,1,1.08,2.38q-.05,22.8,0,45.6c0,2.45-.81,4.13-3.09,5H52.46c-2.28-.92-3.1-2.6-3.09-5q.09-26.45,0-52.9C49.36,46.1,50.18,44.42,52.46,43.5Zm.88,59H96.6V57.2H85.78V47.53H53.34ZM93.5,53.3,89.82,50V53.3Z"/><path class="cls-2" d="M57.36,66.05V62.32H92.64v3.73Z"/><path class="cls-2" d="M81.8,70.18v3.77H57.39V70.18Z"/><path class="cls-2" d="M60.36,96.44V84.92c1.92.13,3.8.25,5.68.39a2.13,2.13,0,0,1,.66.23c2.17,1,3.17,3.65,2.57,6.93a4.55,4.55,0,0,1-4.4,4C63.4,96.5,61.91,96.44,60.36,96.44Zm2.35-2.2c2.89.49,4.19-.55,4.24-3.23a7,7,0,0,0-.16-1.79A2.72,2.72,0,0,0,63.4,87.1c-.27.06-.65.43-.66.67C62.69,89.93,62.71,92.11,62.71,94.24Z"/><path class="cls-2" d="M70.07,90.76c0-2.23.39-4.34,2.65-5.42a4.72,4.72,0,0,1,6.91,3.36,10.2,10.2,0,0,1,.13,3.59c-.49,3.09-2.4,4.58-5.29,4.36-2.58-.2-4.24-2.1-4.4-5C70.06,91.32,70.07,91,70.07,90.76Zm7.43,0a20.93,20.93,0,0,0-.37-2.17A2.07,2.07,0,0,0,75,86.94a2,2,0,0,0-2.21,1.7,17.55,17.55,0,0,0,0,4.25,1.9,1.9,0,0,0,2.1,1.64,2.07,2.07,0,0,0,2.24-1.68C77.32,92.18,77.38,91.48,77.5,90.76Z"/><path class="cls-2" d="M87.29,88.58c-.62-1.08-1.3-2-2.58-1.56a2.61,2.61,0,0,0-1.62,2.69,11.65,11.65,0,0,0,.31,3.44,2,2,0,0,0,3.26.86c1.18-1,1.18-1,3-.45a4.27,4.27,0,0,1-3,2.91A4.55,4.55,0,0,1,81.74,95a8.3,8.3,0,0,1,0-8.48A4.38,4.38,0,0,1,86.19,85a3.49,3.49,0,0,1,3.16,3Z"/></svg>