<svg id="Layer_1" data-name="Layer 1" xmlns="http://www.w3.org/2000/svg" viewBox="0 0 150 150"><defs><style>.cls-1{fill:#fff;}.cls-2,.cls-3{fill:#273274;}.cls-3{stroke:#273274;stroke-miterlimit:10;stroke-width:0.5px;}</style></defs><title>doc</title><circle class="cls-1" cx="75" cy="75" r="75"/><rect class="cls-2" x="48.49" y="39" width="53.13" height="72" rx="2.38" ry="2.38"/><path class="cls-1" d="M54.81,64.13V61.9H95v2.23Z"/><path class="cls-1" d="M54.81,69.72V67.49H79.25v2.23Z"/><path class="cls-1" d="M54.81,58.54V56.3H95v2.23Z"/><polygon class="cls-1" points="48.38 82.27 88.1 82.27 81.34 99.17 48.49 99.17 48.38 82.27"/><path class="cls-3" d="M57.85,86.42a4.29,4.29,0,0,1,1.58,1.68,5,5,0,0,1,.57,2.4,5,5,0,0,1-.58,2.4,4.28,4.28,0,0,1-3.85,2.29H52.13V85.81H55.6A4.25,4.25,0,0,1,57.85,86.42Zm-.61,7.14a3.2,3.2,0,0,0,1.14-1.26,4,4,0,0,0,0-3.6,3.27,3.27,0,0,0-1.16-1.26A3,3,0,0,0,55.58,87H53.3v7h2.32A3,3,0,0,0,57.24,93.56Z"/><path class="cls-3" d="M67.85,86.36a4.52,4.52,0,0,1,1.63,1.72,4.93,4.93,0,0,1,.6,2.4,5,5,0,0,1-.6,2.42,4.54,4.54,0,0,1-1.62,1.74,4.33,4.33,0,0,1-4.52,0,4.54,4.54,0,0,1-1.62-1.74,5,5,0,0,1-.6-2.42,4.93,4.93,0,0,1,.6-2.4,4.53,4.53,0,0,1,1.62-1.72,4.38,4.38,0,0,1,4.52,0Zm-3.89,1a3.5,3.5,0,0,0-1.21,1.31,3.71,3.71,0,0,0-.45,1.81,3.75,3.75,0,0,0,.45,1.82A3.54,3.54,0,0,0,64,93.62a3,3,0,0,0,1.65.49,2.93,2.93,0,0,0,1.64-.49,3.54,3.54,0,0,0,1.19-1.32,3.8,3.8,0,0,0,.44-1.82,3.76,3.76,0,0,0-.44-1.81,3.49,3.49,0,0,0-1.19-1.31,3,3,0,0,0-1.64-.48A3,3,0,0,0,64,87.36Z"/><path class="cls-3" d="M77,87.18a3,3,0,0,0-3,.17,3.42,3.42,0,0,0-1.19,1.31,4,4,0,0,0,0,3.62A3.41,3.41,0,0,0,74,93.58a3,3,0,0,0,1.65.48,3.08,3.08,0,0,0,1.31-.3,3.8,3.8,0,0,0,1.14-.82l.71.84a4.75,4.75,0,0,1-1.5,1.09,4.12,4.12,0,0,1-4-.24,4.51,4.51,0,0,1-1.59-1.73,5.08,5.08,0,0,1-.58-2.42,5,5,0,0,1,.59-2.4,4.49,4.49,0,0,1,1.61-1.72,4.3,4.3,0,0,1,5.42.78l-.69.92A3.54,3.54,0,0,0,77,87.18Z"/></svg>