<svg id="Layer_1" data-name="Layer 1" xmlns="http://www.w3.org/2000/svg" viewBox="0 0 150 150"><defs><style>.cls-1{fill:#fff;}.cls-2,.cls-3{fill:#273274;}.cls-3{stroke:#273274;stroke-miterlimit:10;stroke-width:2px;}</style></defs><title>doc icons</title><circle class="cls-1" cx="75" cy="75" r="75"/><path class="cls-1" d="M54.81,64.13V61.9H95v2.23Z"/><path class="cls-1" d="M54.81,69.72V67.49H79.25v2.23Z"/><path class="cls-1" d="M54.81,58.54V56.3H95v2.23Z"/><rect class="cls-2" x="51.07" y="42.5" width="47.96" height="65" rx="2.38" ry="2.38"/><path class="cls-1" d="M56.77,56.75v-2H93.06v2Z"/><path class="cls-1" d="M56.77,61.8v-2H78.84v2Z"/><path class="cls-1" d="M56.77,51.7v-2H93.06v2Z"/><polygon class="cls-1" points="50.97 74.66 94.1 74.66 94.1 96.78 51.12 96.78 50.97 74.66"/><path class="cls-3" d="M61.83,80.19a5.85,5.85,0,0,1,2.05,2.36,7.93,7.93,0,0,1,0,6.72,5.89,5.89,0,0,1-2.07,2.36,5.29,5.29,0,0,1-2.95.85H54.39V79.33h4.51A5.23,5.23,0,0,1,61.83,80.19Zm-.79,10a4.39,4.39,0,0,0,1.49-1.77,6.07,6.07,0,0,0,0-5.05A4.48,4.48,0,0,0,61,81.62,3.72,3.72,0,0,0,58.87,81h-3v9.88h3A3.66,3.66,0,0,0,61,90.21Z"/><path class="cls-3" d="M75.84,80.1A6.17,6.17,0,0,1,78,82.52a7.36,7.36,0,0,1,.78,3.37A7.47,7.47,0,0,1,78,89.28a6.21,6.21,0,0,1-2.11,2.44,5.28,5.28,0,0,1-5.88,0,6.2,6.2,0,0,1-2.11-2.44,7.46,7.46,0,0,1-.78-3.39,7.35,7.35,0,0,1,.78-3.37A6.18,6.18,0,0,1,70,80.1a5.34,5.34,0,0,1,5.88,0Zm-5.07,1.41a4.79,4.79,0,0,0-1.58,1.83,5.55,5.55,0,0,0-.59,2.54,5.6,5.6,0,0,0,.59,2.55,4.85,4.85,0,0,0,1.58,1.85,3.69,3.69,0,0,0,2.15.69A3.62,3.62,0,0,0,75,90.29a4.84,4.84,0,0,0,1.55-1.85,5.66,5.66,0,0,0,.58-2.55,5.6,5.6,0,0,0-.58-2.54A4.78,4.78,0,0,0,75,81.51a3.66,3.66,0,0,0-2.13-.68A3.73,3.73,0,0,0,70.77,81.51Z"/><path class="cls-3" d="M88.73,81.26A3.67,3.67,0,0,0,87,80.82a3.71,3.71,0,0,0-2.15.68,4.68,4.68,0,0,0-1.55,1.83,5.94,5.94,0,0,0,0,5.08,4.68,4.68,0,0,0,1.55,1.84,3.72,3.72,0,0,0,2.15.68,3.77,3.77,0,0,0,1.71-.42,5,5,0,0,0,1.49-1.16l.92,1.18a6.21,6.21,0,0,1-1.95,1.53,5,5,0,0,1-2.25.55,5,5,0,0,1-2.9-.89A6.18,6.18,0,0,1,82,89.29a7.57,7.57,0,0,1-.76-3.4A7.42,7.42,0,0,1,82,82.52a6.13,6.13,0,0,1,2.1-2.41,5.22,5.22,0,0,1,5.17-.37,5.56,5.56,0,0,1,1.88,1.46l-.9,1.3A4.67,4.67,0,0,0,88.73,81.26Z"/></svg>