<svg id="Layer_1" data-name="Layer 1" xmlns="http://www.w3.org/2000/svg" viewBox="0 0 101 135"><defs><style>.cls-1{fill:#fff;}</style></defs><title>doc white</title><path class="cls-1" d="M96.46,2H4.54A2.38,2.38,0,0,0,2.17,4.38V80.72H74.23l-12.3,30.75H2.17v19.15A2.38,2.38,0,0,0,4.54,133H96.46a2.38,2.38,0,0,0,2.38-2.37V4.38A2.38,2.38,0,0,0,96.46,2ZM58.13,57.9H13.66V53.83H58.13ZM86.79,47.72H13.66V43.66H86.79Zm0-10.17H13.66V33.48H86.79Z"/><path class="cls-1" d="M19.19,88.27a7.79,7.79,0,0,1,2.87,3.06A9.61,9.61,0,0,1,22,100a7.79,7.79,0,0,1-7,4.17H8.79v-17H15.1A7.73,7.73,0,0,1,19.19,88.27Zm-1.11,13A5.83,5.83,0,0,0,20.16,99a7.35,7.35,0,0,0,0-6.55A6,6,0,0,0,18,90.12a5.49,5.49,0,0,0-3-.84H10.92v12.81h4.23A5.41,5.41,0,0,0,18.08,101.27Z"/><path class="cls-1" d="M37.39,88.16a8.22,8.22,0,0,1,3,3.13,9,9,0,0,1,1.08,4.37,9.11,9.11,0,0,1-1.08,4.4,8.26,8.26,0,0,1-3,3.17,7.87,7.87,0,0,1-8.22,0,8.25,8.25,0,0,1-3-3.17,9.1,9.1,0,0,1-1.08-4.4,9,9,0,0,1,1.08-4.37,8.24,8.24,0,0,1,2.95-3.13,8,8,0,0,1,8.23,0ZM30.3,90a6.37,6.37,0,0,0-2.2,2.38,6.77,6.77,0,0,0-.82,3.3A6.83,6.83,0,0,0,28.1,99a6.44,6.44,0,0,0,2.2,2.4,5.45,5.45,0,0,0,3,.89,5.34,5.34,0,0,0,3-.89A6.42,6.42,0,0,0,38.45,99a6.9,6.9,0,0,0,.81-3.31,6.83,6.83,0,0,0-.81-3.3A6.35,6.35,0,0,0,36.28,90a5.39,5.39,0,0,0-3-.88A5.5,5.5,0,0,0,30.3,90Z"/><path class="cls-1" d="M54,89.66a5.5,5.5,0,0,0-5.42.3,6.22,6.22,0,0,0-2.17,2.38,7.2,7.2,0,0,0,0,6.59,6.21,6.21,0,0,0,2.17,2.39,5.49,5.49,0,0,0,3,.88,5.6,5.6,0,0,0,2.39-.55,6.92,6.92,0,0,0,2.08-1.5l1.28,1.53a8.62,8.62,0,0,1-2.72,2,7.48,7.48,0,0,1-7.2-.44,8.21,8.21,0,0,1-2.9-3.15,9.23,9.23,0,0,1-1.06-4.41,9,9,0,0,1,1.07-4.37,8.17,8.17,0,0,1,2.93-3.13,7.83,7.83,0,0,1,9.85,1.41l-1.26,1.68A6.44,6.44,0,0,0,54,89.66Z"/></svg>