<svg id="Layer_1" data-name="Layer 1" xmlns="http://www.w3.org/2000/svg" viewBox="0 0 150 150"><defs><style>.cls-1{fill:#fff;}</style></defs><title>doc icons</title><path class="cls-1" d="M31,14h70.52c7.13,6.5,14.22,13,21.41,19.47a5.59,5.59,0,0,1,2.1,4.65q-.1,44.52,0,89c0,4.78-1.59,8.06-6,9.85H31c-4.45-1.79-6.06-5.07-6-9.86q.18-51.64,0-103.29C24.94,19.07,26.54,15.79,31,14Zm1.72,115.13h84.45V40.76H96.05V21.87H32.72Zm78.4-96-7.19-6.47v6.47Z"/><path class="cls-1" d="M40.57,58V50.75h68.87V58Z"/><path class="cls-1" d="M88.28,66.08v7.36H40.61V66.08Z"/><path class="cls-1" d="M46.41,117.36V94.87c3.74.25,7.42.48,11.1.76a4.15,4.15,0,0,1,1.28.45C63,98,65,103.2,63.81,109.6a8.89,8.89,0,0,1-8.59,7.74C52.34,117.48,49.45,117.36,46.41,117.36Zm4.59-4.3c5.64,1,8.18-1.07,8.27-6.31a13.56,13.56,0,0,0-.31-3.5,5.3,5.3,0,0,0-6.62-4.14c-.52.11-1.27.84-1.28,1.3C51,104.66,51,108.9,51,113.07Z"/><path class="cls-1" d="M65.38,106.27c0-4.36.76-8.47,5.18-10.59,5.91-2.83,12.16.18,13.49,6.55a19.92,19.92,0,0,1,.26,7c-1,6-4.69,9-10.33,8.52-5-.39-8.27-4.09-8.59-9.85C65.35,107.36,65.38,106.81,65.38,106.27Zm14.5,0a40.86,40.86,0,0,0-.72-4.23A4,4,0,0,0,75,98.8c-2.35,0-4,1.14-4.31,3.31a34.26,34.26,0,0,0,0,8.3c.25,2.09,1.88,3.18,4.1,3.2a4,4,0,0,0,4.37-3.27C79.53,109,79.65,107.68,79.88,106.28Z"/><path class="cls-1" d="M99,102c-1.21-2.1-2.53-3.88-5-3s-3.09,3-3.16,5.26a22.75,22.75,0,0,0,.6,6.72,3.84,3.84,0,0,0,6.37,1.69c2.3-2,2.3-2,5.88-.87-1.13,2.85-2.8,4.93-5.9,5.69-3.93,1-7.55-.11-9.58-2.86-3-4.1-3.12-12.42-.09-16.56,2.19-3,5.37-3.55,8.78-3.09s5.44,2.35,6.18,5.94Z"/></svg>