<svg id="Layer_1" data-name="Layer 1" xmlns="http://www.w3.org/2000/svg" viewBox="0 0 58.33 58.33"><defs><style>.cls-1{fill:none;}.cls-1,.cls-2,.cls-3,.cls-4{stroke:#f1592e;stroke-miterlimit:10;}.cls-2,.cls-4{fill:#f1592e;}.cls-2{stroke-width:0.75px;}.cls-3{fill:#fff;}</style></defs><title>elements</title><path class="cls-1" d="M55.55,23.51a8.48,8.48,0,0,0-5.33-.36c-.6.13-.92.18-1.05-.67a9.17,9.17,0,0,0-2.8-5c-.75-.78-1.18-.59-1.56.28a8.47,8.47,0,0,0,.25,8c.39.67.3.91-.31,1.24a12.6,12.6,0,0,1-6,1.53H21.5c-6.06,0-12.12,0-18.17,0-.8,0-1.15.16-1.19,1.12C1.77,37.34,5.76,43.6,12.6,46.08a25.65,25.65,0,0,0,12.7.83c10.32-1.51,17.89-7,22.19-17.25a1.9,1.9,0,0,1,2-1.39A7.19,7.19,0,0,0,55.93,25C56.39,24.24,56.35,23.85,55.55,23.51ZM16.12,35.79a1.25,1.25,0,0,1,1.39-1.32c.81,0,1.26.55,1.26,1.59a1.22,1.22,0,0,1-1.37,1.19A1.3,1.3,0,0,1,16.12,35.79ZM7,40a32.07,32.07,0,0,0,8.4-.83.51.51,0,0,1,.68.24,13.7,13.7,0,0,0,5.6,5.76C16.18,45.57,11.24,44.36,7,40Z"/><path class="cls-2" d="M30.87,13.37l1.35,0c.49.06,1,.1,1.47.18a4.94,4.94,0,0,1,2,.71,1,1,0,0,1,.53.82c0,2.56.07,5.12.09,7.68a1,1,0,0,1-.23.58,2,2,0,0,1-.56.44,6,6,0,0,1-2,.64c-.39.07-.78.11-1.18.17l-1.35,0c-.49-.06-1-.1-1.47-.18a5,5,0,0,1-2-.71,1.1,1.1,0,0,1-.53-1c0-2.5-.07-5-.09-7.5a1,1,0,0,1,.22-.58,2,2,0,0,1,.58-.46,5.93,5.93,0,0,1,2-.64ZM27.4,18.53c0,.57,0,1.12,0,1.67a.58.58,0,0,0,.3.56,5.06,5.06,0,0,0,1,.45,11.64,11.64,0,0,0,5.28.06,3.58,3.58,0,0,0,1.51-.6.69.69,0,0,0,.29-.41c0-.61,0-1.22,0-1.84A9.83,9.83,0,0,1,27.4,18.53Zm0,2.57c0,.56,0,1.09,0,1.62a.68.68,0,0,0,.38.67,4.16,4.16,0,0,0,.86.37,11.32,11.32,0,0,0,5.3.1,7.1,7.1,0,0,0,1.48-.54.72.72,0,0,0,.39-.47c0-.61,0-1.22,0-1.85a8.08,8.08,0,0,1-4.18,1A8.14,8.14,0,0,1,27.43,21.1ZM27.36,16c0,.57,0,1.11,0,1.65a.61.61,0,0,0,.35.61,5.75,5.75,0,0,0,1.15.46,11.46,11.46,0,0,0,5.2,0,7.37,7.37,0,0,0,1.4-.55.61.61,0,0,0,.34-.64c0-.48,0-1,0-1.45,0-.06,0-.12,0-.19C34.07,17,29.51,17.26,27.36,16Zm4.16-2.14c-.31,0-.65,0-1,.06a7.41,7.41,0,0,0-2.36.53,2.61,2.61,0,0,0-.68.45.37.37,0,0,0,0,.61,2.72,2.72,0,0,0,.71.44,7,7,0,0,0,2.28.45A11.23,11.23,0,0,0,34.39,16a4.45,4.45,0,0,0,1.19-.58c.31-.21.29-.52,0-.75a2.82,2.82,0,0,0-.73-.4A10,10,0,0,0,31.53,13.81Z"/><path class="cls-2" d="M11.45,13.37l1.35,0c.49.06,1,.1,1.47.18a4.94,4.94,0,0,1,2,.71,1,1,0,0,1,.53.82c0,2.56.07,5.12.09,7.68a1,1,0,0,1-.23.58,2,2,0,0,1-.56.44,6,6,0,0,1-2,.64c-.39.07-.78.11-1.18.17l-1.35,0c-.49-.06-1-.1-1.47-.18a5,5,0,0,1-2-.71,1.1,1.1,0,0,1-.53-1c0-2.5-.07-5-.09-7.5a1,1,0,0,1,.22-.58,2,2,0,0,1,.58-.46,5.93,5.93,0,0,1,2-.64ZM8,18.53c0,.57,0,1.12,0,1.67a.58.58,0,0,0,.3.56,5.06,5.06,0,0,0,1,.45,11.64,11.64,0,0,0,5.28.06,3.58,3.58,0,0,0,1.51-.6.69.69,0,0,0,.29-.41c0-.61,0-1.22,0-1.84A9.83,9.83,0,0,1,8,18.53ZM8,21.1c0,.56,0,1.09,0,1.62a.68.68,0,0,0,.38.67,4.16,4.16,0,0,0,.86.37,11.32,11.32,0,0,0,5.3.1A7.1,7.1,0,0,0,16,23.32a.72.72,0,0,0,.39-.47c0-.61,0-1.22,0-1.85a8.08,8.08,0,0,1-4.18,1A8.14,8.14,0,0,1,8,21.1ZM7.94,16c0,.57,0,1.11,0,1.65a.61.61,0,0,0,.35.61,5.75,5.75,0,0,0,1.15.46,11.46,11.46,0,0,0,5.2,0,7.37,7.37,0,0,0,1.4-.55.61.61,0,0,0,.34-.64c0-.48,0-1,0-1.45,0-.06,0-.12,0-.19C14.64,17,10.09,17.26,7.94,16Zm4.16-2.14c-.31,0-.65,0-1,.06a7.41,7.41,0,0,0-2.36.53,2.61,2.61,0,0,0-.68.45.37.37,0,0,0,0,.61,2.72,2.72,0,0,0,.71.44,7,7,0,0,0,2.28.45A11.23,11.23,0,0,0,15,16a4.45,4.45,0,0,0,1.19-.58c.31-.21.29-.52,0-.75a2.82,2.82,0,0,0-.73-.4A10,10,0,0,0,12.1,13.81Z"/><path class="cls-3" d="M15.46,13.51s1.41-2.47,6.36-2.12,6,2.12,6,2.12L27.46,24.1s-1.77,2.47-6.36,1.77S15.4,24.1,15.4,24.1Z"/><path class="cls-4" d="M20.72,11h1.83c.67.09,1.33.16,2,.27a6.7,6.7,0,0,1,2.73,1,1.35,1.35,0,0,1,.7,1.12c0,3.47,0,6.94,0,10.41a1.35,1.35,0,0,1-.32.78,2.65,2.65,0,0,1-.77.59,8.1,8.1,0,0,1-2.72.83c-.53.08-1.06.14-1.6.2H20.72c-.66-.09-1.33-.16-2-.27a6.8,6.8,0,0,1-2.73-1,1.49,1.49,0,0,1-.71-1.33c0-3.39,0-6.78,0-10.17a1.36,1.36,0,0,1,.3-.79A2.71,2.71,0,0,1,16.4,12a8,8,0,0,1,2.72-.83C19.65,11.14,20.18,11.08,20.72,11Zm-4.8,6.94c0,.78,0,1.52,0,2.26a.78.78,0,0,0,.4.77,6.85,6.85,0,0,0,1.4.63,15.78,15.78,0,0,0,7.15.18A4.85,4.85,0,0,0,26.92,21a.94.94,0,0,0,.4-.55c0-.83,0-1.65,0-2.5A13.33,13.33,0,0,1,15.92,17.95Zm0,3.49c0,.76,0,1.48,0,2.2a.92.92,0,0,0,.5.92,5.64,5.64,0,0,0,1.16.52,15.34,15.34,0,0,0,7.18.23,9.62,9.62,0,0,0,2-.71,1,1,0,0,0,.54-.63c.06-.82,0-1.65,0-2.51a11,11,0,0,1-5.68,1.27A11,11,0,0,1,15.91,21.44Zm0-7c0,.77,0,1.5,0,2.24a.83.83,0,0,0,.46.83,7.8,7.8,0,0,0,1.54.64,15.54,15.54,0,0,0,7.05.08,10,10,0,0,0,1.91-.72.83.83,0,0,0,.47-.86c0-.65,0-1.31,0-2,0-.08,0-.16,0-.26C25,16,18.8,16.26,15.92,14.45Zm5.68-2.83c-.43,0-.89,0-1.35.07a10,10,0,0,0-3.21.67,3.54,3.54,0,0,0-.92.59.51.51,0,0,0,0,.83,3.69,3.69,0,0,0,1,.6,9.47,9.47,0,0,0,3.08.64,15.23,15.23,0,0,0,5.28-.39,6,6,0,0,0,1.62-.77c.42-.28.4-.7,0-1a3.82,3.82,0,0,0-1-.56A13.52,13.52,0,0,0,21.59,11.63Z"/></svg>