<svg id="Layer_1" data-name="Layer 1" xmlns="http://www.w3.org/2000/svg" viewBox="0 0 280 267"><defs><style>.cls-1,.cls-2{fill:none;stroke:#f04f25;stroke-miterlimit:10;}.cls-1{stroke-width:3px;}.cls-2{stroke-width:5px;}.cls-3{fill:#f04f25;}</style></defs><title>new icons</title><path class="cls-1" d="M73.11,117.7a89.4,89.4,0,0,1,90.22-88.93c51.19.14,89.8,41.36,89.67,89.15-.14,49-40.49,88.79-90.13,88.7C113.46,206.53,73.1,166.54,73.11,117.7ZM163,191.75c40.58.22,74.38-32.79,75-72.5.65-41.08-32.63-75.08-73.86-75.64-40.77-.55-75.51,31.56-76,73.51C87.71,158.14,121.37,191.53,163,191.75Z"/><path class="cls-1" d="M103.41,198c-1,1.76-1.51,3.57-2.69,4.74q-25.37,25.29-50.9,50.42c-2.93,2.89-6.6,2.82-9.58-.08q-7-6.82-13.9-13.76c-3.17-3.2-3.15-6.65.07-9.84q25.26-25.05,50.59-50c3-2.94,6.55-3,9.55-.1,4.81,4.64,9.58,9.32,14.23,14.12C101.9,194.63,102.45,196.32,103.41,198Z"/><path class="cls-2" d="M202.92,147.88l0-44.57h-.09c0-2.36,0-4.72,0-7.07,0-.55-.11-1.1-.18-1.75-15.68,10.6-57.23,12.14-76.63,0,0,.51,0,1,0,1.52h0v11c0,.83,0,1.67,0,2.5a8.31,8.31,0,0,0,0,1.11V118h0c0,.58,0,1.15,0,1.73V130.4c0,.93,0,1.86,0,2.79a8.29,8.29,0,0,0,0,1v7.28h0c0,.38,0,.76,0,1.14V152.9h0c0,1.1,0,2.2-.09,3.3a6.2,6.2,0,0,0,3.37,6.17,37.93,37.93,0,0,0,7.83,3.47c15.94,4.51,32.11,4.66,48.27,1.53a64.69,64.69,0,0,0,13.57-4.78c1.58-.7,3.5-2.71,3.62-4.25.13-1.7.2-3.41.23-5.13h0v-.13C202.94,151.36,202.94,149.63,202.92,147.88Z"/><path class="cls-2" d="M164.25,72c10.37.32,20.48.87,30.09,4.53A25.67,25.67,0,0,1,201,80.29c2.7,2.12,2.83,4.94,0,6.82A40.52,40.52,0,0,1,190,92.27c-11.61,3.31-23.56,3.47-35.52,2.63-7.09-.49-14.12-1.53-20.71-4.34a24.81,24.81,0,0,1-6.43-4.06c-1.92-1.66-1.9-3.86,0-5.55a23.77,23.77,0,0,1,6.21-4c6.87-3,14.22-3.9,21.6-4.51C158.28,72.2,161.39,72.14,164.25,72Z"/><path class="cls-3" d="M160.17,129.12q0,6.13,0,12.26a1.1,1.1,0,0,0,.53,1.09,4.17,4.17,0,0,1,.09,7.1,1.27,1.27,0,0,0-.62,1.25c0,1.54,0,3.09,0,4.63a1.67,1.67,0,0,1-1.63,1.87,1.72,1.72,0,0,1-1.82-1.81c0-1.58,0-3.15,0-4.73a1.26,1.26,0,0,0-.62-1.25,4.17,4.17,0,0,1,0-6.93,1.4,1.4,0,0,0,.67-1.32q0-12,0-23.93a4.67,4.67,0,0,1,0-.86,1.68,1.68,0,0,1,1.91-1.49,1.63,1.63,0,0,1,1.51,1.78C160.17,120.89,160.17,125,160.17,129.12Z"/><path class="cls-3" d="M180.71,144.43c0-2.61,0-5.21,0-7.82a1.5,1.5,0,0,0-.56-1,4.28,4.28,0,0,1,0-7.17,1.5,1.5,0,0,0,.53-1.06c0-4.41,0-8.82,0-13.23,0-1.36.6-2.09,1.69-2.11s1.77.73,1.77,2.13c0,4.38,0,8.75,0,13.13a1.26,1.26,0,0,0,.63,1.24,4.17,4.17,0,0,1,0,7,1.26,1.26,0,0,0-.63,1.24c0,5.25,0,10.49,0,15.74a1.73,1.73,0,0,1-1.27,1.83,1.56,1.56,0,0,1-1.91-.75,2.74,2.74,0,0,1-.28-1.29C180.7,149.64,180.71,147,180.71,144.43Z"/><path class="cls-3" d="M144.75,143.61c0-2.86,0-5.73,0-8.59a1.25,1.25,0,0,0-.64-1.23,4.18,4.18,0,0,1,0-7,1.24,1.24,0,0,0,.65-1.23q0-5.89,0-11.78a1.62,1.62,0,0,1,1.6-1.79,1.73,1.73,0,0,1,1.86,1.67c0,.26,0,.51,0,.77,0,3.73,0,7.47,0,11.2a1.2,1.2,0,0,0,.62,1.15,4.15,4.15,0,0,1,0,7,1.2,1.2,0,0,0-.6,1.16q0,8.49,0,17a7.22,7.22,0,0,1,0,.77,1.77,1.77,0,0,1-1.8,1.64,1.67,1.67,0,0,1-1.65-1.75c0-3,0-6,0-9Z"/><path class="cls-3" d="M172.19,118.21a6.68,6.68,0,0,0,0,1.25,1.38,1.38,0,0,0,.46.82,4.25,4.25,0,0,1,.08,7.2,1.66,1.66,0,0,0-.55,1.18q0,13.12,0,26.25c0,1.66-.57,2.45-1.79,2.42a1.62,1.62,0,0,1-1.62-1.47,12.2,12.2,0,0,1,0-1.25q0-12.93,0-25.86a1.45,1.45,0,0,0-.74-1.38,4.18,4.18,0,0,1,0-6.88,1.47,1.47,0,0,0,.76-1.48,22.25,22.25,0,0,1,0-2.41,1.68,1.68,0,0,1,3.34-.2c.09.6.08,1.22.11,1.82Z"/></svg>