<svg id="Layer_1" data-name="Layer 1" xmlns="http://www.w3.org/2000/svg" xmlns:xlink="http://www.w3.org/1999/xlink" viewBox="0 0 298 292"><defs><style>.cls-1,.cls-16{fill:none;}.cls-2{fill:#273274;}.cls-3{clip-path:url(#clip-path);}.cls-4{opacity:0.8;}.cls-5{clip-path:url(#clip-path-2);}.cls-11,.cls-6,.cls-7,.cls-8{fill:#ff544e;}.cls-11,.cls-13,.cls-14,.cls-15,.cls-7,.cls-8,.cls-9{stroke:#273274;}.cls-11,.cls-13,.cls-14,.cls-15,.cls-16,.cls-7,.cls-8,.cls-9{stroke-miterlimit:10;}.cls-13,.cls-7{stroke-width:3px;}.cls-14,.cls-15,.cls-8{stroke-width:2px;}.cls-10,.cls-15,.cls-9{fill:#ff8c58;}.cls-9{stroke-width:4px;}.cls-11{stroke-width:5px;}.cls-12,.cls-13,.cls-14{fill:#f7f7f7;}.cls-16{stroke:#fff;stroke-width:19px;}</style><clipPath id="clip-path"><circle class="cls-1" cx="149" cy="144.74" r="131.49"/></clipPath><clipPath id="clip-path-2"><rect class="cls-1" x="-159.5" y="74.52" width="752.37" height="204.59"/></clipPath></defs><title>hacktober circle and text</title><circle class="cls-2" cx="149.5" cy="146.58" r="128"/><g class="cls-3"><g class="cls-4"><g class="cls-5"><path class="cls-6" d="M11.12,256.35q0-3.48,0-7c0-5.27,0-10.53,0-15.8a3.16,3.16,0,0,1,.65-2c2-2.77,4-5.55,5.91-8.37.4-.58,1.22-1.42.58-2s-1.38.32-1.91.8c-1.69,1.53-3.32,3.12-5.22,4.93,0-3.44.13-6.61,0-9.77s-.34-6.24-1.62-9.29a3.33,3.33,0,0,0-1,2.32,126.29,126.29,0,0,0-1.13,15.59c-.51,15.1-.8,30.21-1.09,45.32-.05,2.61-.17,5.21-.2,7.82,0,.8-.16,1-1,.72a30.42,30.42,0,0,1-10.26-6.34c-6.88-6.11-11.69-13.49-13.45-22.65C-20,244-19.13,237.43-17.21,231A58.66,58.66,0,0,1-2.09,205.36,33.69,33.69,0,0,1,2.09,202a10.9,10.9,0,0,1,11.46-1.13c7.8,3.45,14,8.85,19.31,15.41a40.77,40.77,0,0,1,8.81,18.13c1.53,8.18-.16,15.85-4.07,23-5.2,9.56-12.54,16.93-22.72,21.19-.83.35-1.7.57-2.55.86s-1.14.13-1.14-.82q0-7.29,0-14.58a2.45,2.45,0,0,1,.73-1.66c3.78-4.64,7.75-9.11,11.29-13.95a19.08,19.08,0,0,0,2.54-4.89c.13-.36.55-.88,0-1.21s-.77.15-1.06.39c-1.07.89-2.15,1.78-3.15,2.75C17.95,249,14.74,252.72,11.12,256.35Z"/><circle class="cls-2" cx="22.34" cy="218.89" r="2.25"/><path class="cls-6" d="M9.11,318.16l1.9,0a4.4,4.4,0,0,1,.51-.94q0-2.82-.06-5.65a1.22,1.22,0,0,1-.44-.75c0-.52.34-1,.48-1.53-.07.18-.09-.51-.12-.64a2,2,0,0,1,.32-2l-.3,0q0-1.65,0-3.29c0-2.78,0-5.56,0-8.33a1.12,1.12,0,0,1-.07-1.36v0c-.09-.13.15-.37.18-.51a2.86,2.86,0,0,0,.06-.49c-.16-.17-.18-.25-.15-.27a.79.79,0,0,1,0-.83c-.27-3.28.74-6.48-2.62-9.63-1.54.33-1.53.79-1.74,1.19-1.33,2.6-1.55,5.22-1.83,7.84-.82,7.75-1.3,15.5-1.77,23.25-.08,1.33-.33,2.67-.31,4a.62.62,0,0,1,0,.09C5.14,318.17,7.11,318.12,9.11,318.16Z"/><path class="cls-6" d="M229.21,193.58q0-5,0-9.92c0-7.5,0-15,0-22.49a4.49,4.49,0,0,1,.92-2.82c2.85-3.94,5.67-7.91,8.42-11.92.57-.83,1.74-2,.82-2.84s-2,.46-2.72,1.14c-2.41,2.17-4.73,4.45-7.43,7,0-4.89.18-9.41-.05-13.9s-.48-8.89-2.31-13.23a4.75,4.75,0,0,0-1.4,3.3,179.75,179.75,0,0,0-1.61,22.2c-.73,21.5-1.13,43-1.55,64.51-.07,3.71-.24,7.42-.29,11.13,0,1.14-.23,1.44-1.42,1a43.3,43.3,0,0,1-14.61-9c-9.8-8.7-16.63-19.2-19.15-32.23-1.84-9.53-.66-18.87,2.08-28A83.5,83.5,0,0,1,210.4,121a48,48,0,0,1,6-4.83,15.51,15.51,0,0,1,16.32-1.61c11.1,4.91,20,12.59,27.49,21.94,6.14,7.63,10.71,16.08,12.54,25.81,2.18,11.64-.23,22.56-5.8,32.8-7.41,13.61-17.86,24.09-32.35,30.17-1.18.49-2.42.81-3.64,1.22s-1.62.18-1.62-1.16q0-10.38-.07-20.75a3.48,3.48,0,0,1,1-2.36c5.38-6.6,11-13,16.06-19.85a27.16,27.16,0,0,0,3.61-7c.18-.51.78-1.25,0-1.73-.57-.36-1.1.21-1.51.55-1.52,1.27-3.06,2.53-4.48,3.91C238.93,183.06,234.37,188.42,229.21,193.58Z"/><circle class="cls-7" cx="255.02" cy="170.26" r="3.2"/><circle class="cls-8" cx="243.81" cy="139.85" r="2.72"/><path class="cls-6" d="M226.36,281.56l2.71,0a6.26,6.26,0,0,1,.72-1.34q0-4-.08-8a1.73,1.73,0,0,1-.63-1.07c-.07-.74.49-1.45.68-2.18-.1.25-.13-.73-.18-.91a2.84,2.84,0,0,1,.45-2.9l-.42,0q0-2.34,0-4.69c0-4,0-7.91,0-11.86a1.6,1.6,0,0,1-.1-1.94l0,0c-.12-.19.21-.53.26-.72a4.08,4.08,0,0,0,.08-.7c-.22-.24-.25-.36-.21-.39a1.12,1.12,0,0,1,.06-1.19c-.38-4.67,1.06-9.23-3.73-13.7-2.2.47-2.18,1.12-2.47,1.69-1.89,3.69-2.21,7.43-2.61,11.16-1.17,11-1.85,22.06-2.52,33.09-.12,1.9-.47,3.8-.45,5.69a.88.88,0,0,1,0,.12C220.71,281.57,223.51,281.51,226.36,281.56Z"/><circle class="cls-2" cx="188.16" cy="229.42" r="2.99"/><circle class="cls-9" cx="178.97" cy="201.38" r="2.99"/><path class="cls-10" d="M161.36,333.48l2.53,0a5.86,5.86,0,0,1,.68-1.26q0-3.76-.08-7.51a1.62,1.62,0,0,1-.59-1c-.06-.69.46-1.36.64-2-.09.23-.12-.68-.17-.85a2.66,2.66,0,0,1,.42-2.71l-.39,0q0-2.19,0-4.38c0-3.7,0-7.39,0-11.09a1.49,1.49,0,0,1-.09-1.82l0,0c-.12-.18.2-.5.24-.67a3.81,3.81,0,0,0,.08-.65c-.21-.22-.23-.33-.19-.36a1,1,0,0,1,.06-1.11c-.36-4.36,1-8.63-3.49-12.81-2.05.44-2,1-2.31,1.58-1.77,3.45-2.07,6.94-2.44,10.43-1.1,10.31-1.73,20.62-2.36,30.94-.11,1.77-.44,3.55-.42,5.32a.82.82,0,0,1,0,.11C156.08,333.5,158.7,333.44,161.36,333.48Z"/><path class="cls-6" d="M59.1,190q0-4.25,0-8.51c0-6.43,0-12.85,0-19.28a3.85,3.85,0,0,1,.79-2.42c2.44-3.38,4.86-6.78,7.22-10.22.49-.71,1.49-1.74.7-2.43s-1.68.4-2.33,1c-2.06,1.86-4.05,3.81-6.37,6,0-4.2.16-8.07,0-11.92s-.41-7.62-2-11.34a4.07,4.07,0,0,0-1.2,2.83,154.14,154.14,0,0,0-1.38,19c-.62,18.43-1,36.87-1.33,55.31-.06,3.18-.21,6.36-.25,9.54,0,1-.19,1.24-1.21.88a37.13,37.13,0,0,1-12.52-7.74c-8.4-7.46-14.26-16.47-16.42-27.64-1.58-8.17-.56-16.18,1.78-24.05A71.6,71.6,0,0,1,43,127.76a41.12,41.12,0,0,1,5.11-4.14,13.3,13.3,0,0,1,14-1.38c9.52,4.21,17.12,10.8,23.57,18.81,5.27,6.54,9.19,13.79,10.75,22.13,1.87,10-.19,19.35-5,28.13C85.08,203,76.12,212,63.7,217.18c-1,.42-2.08.69-3.12,1s-1.39.16-1.39-1q0-8.9-.06-17.8a3,3,0,0,1,.89-2c4.61-5.66,9.46-11.12,13.78-17a23.29,23.29,0,0,0,3.09-6c.16-.44.67-1.07,0-1.48-.49-.31-.94.18-1.3.48-1.3,1.09-2.62,2.17-3.84,3.35C67.44,181,63.53,185.57,59.1,190Z"/><circle class="cls-11" cx="81.24" cy="170" r="2.74"/><circle class="cls-8" cx="72.81" cy="144.28" r="2.74"/><path class="cls-6" d="M56.66,283l2.32.06a8.8,8.8,0,0,1,.62-1.61q0-4.81-.07-9.62a2.36,2.36,0,0,1-.54-1.28,10.85,10.85,0,0,1,.58-2.62c-.08.3-.11-.88-.15-1.09a4.52,4.52,0,0,1,.39-3.48l-.36,0q0-2.81,0-5.61c0-4.74,0-9.47,0-14.21a2.53,2.53,0,0,1-.08-2.33l0,0c-.11-.23.18-.64.22-.86a6.74,6.74,0,0,0,.07-.84c-.19-.28-.21-.43-.18-.47a1.8,1.8,0,0,1,.05-1.42c-.33-5.59.91-11.05-3.2-16.41-1.88.56-1.87,1.34-2.12,2-1.62,4.42-1.9,8.89-2.24,13.36-1,13.21-1.59,26.42-2.16,39.63-.1,2.27-.4,4.55-.38,6.82a1.46,1.46,0,0,1,0,.15C51.81,283,54.22,282.95,56.66,283Z"/><path class="cls-10" d="M-28.7,200.85q0-5.23,0-10.47c0-7.91,0-15.82,0-23.72a4.74,4.74,0,0,1,1-3c3-4.16,6-8.34,8.88-12.57.6-.87,1.83-2.14.87-3s-2.07.49-2.86,1.2c-2.54,2.29-5,4.69-7.84,7.4,0-5.16.19-9.93-.05-14.67s-.5-9.37-2.43-14a5,5,0,0,0-1.48,3.48c-1.23,7.76-1.44,15.59-1.7,23.42-.77,22.68-1.19,45.37-1.63,68.05-.08,3.91-.25,7.83-.31,11.74,0,1.2-.24,1.52-1.49,1.09a45.68,45.68,0,0,1-15.41-9.52c-10.34-9.18-17.55-20.26-20.2-34-1.94-10.05-.69-19.91,2.19-29.59,4.37-14.69,11.7-27.68,22.69-38.48a50.59,50.59,0,0,1,6.29-5.1c5.44-3.86,11.11-4.4,17.21-1.69C-13.33,122.68-4,130.79,4,140.65c6.48,8,11.3,17,13.23,27.23,2.3,12.28-.24,23.81-6.12,34.6C3.26,216.84-7.76,227.9-23,234.3c-1.24.52-2.56.85-3.83,1.29s-1.71.19-1.71-1.23q0-10.95-.07-21.9a3.68,3.68,0,0,1,1.1-2.49c5.67-7,11.64-13.69,16.95-20.94a28.65,28.65,0,0,0,3.81-7.34c.19-.54.82-1.32,0-1.82-.6-.38-1.16.22-1.6.58-1.61,1.34-3.22,2.67-4.73,4.12C-18.44,189.75-23.26,195.41-28.7,200.85Z"/><circle class="cls-2" cx="-2.65" cy="175.98" r="2.74"/><circle class="cls-8" cx="29.73" cy="238.04" r="2.74"/><path class="cls-12" d="M112.86,188.15q0-5.23,0-10.47c0-7.91,0-15.82,0-23.72a4.74,4.74,0,0,1,1-3c3-4.16,6-8.34,8.88-12.57.6-.87,1.83-2.14.87-3s-2.07.49-2.86,1.2c-2.54,2.29-5,4.69-7.84,7.4,0-5.16.19-9.93-.05-14.67s-.5-9.37-2.43-14a5,5,0,0,0-1.48,3.48c-1.23,7.76-1.44,15.59-1.7,23.42-.77,22.68-1.19,45.37-1.63,68.05-.08,3.91-.25,7.83-.31,11.74,0,1.2-.24,1.52-1.49,1.09a45.68,45.68,0,0,1-15.41-9.52c-10.34-9.18-17.55-20.26-20.2-34-1.94-10.05-.69-19.91,2.19-29.59C74.7,135.38,82,122.39,93,111.59a50.59,50.59,0,0,1,6.29-5.1c5.44-3.86,11.11-4.4,17.21-1.69,11.71,5.18,21.07,13.29,29,23.15,6.48,8,11.3,17,13.23,27.23,2.3,12.28-.24,23.81-6.12,34.6-7.82,14.36-18.84,25.42-34.12,31.83-1.24.52-2.56.85-3.83,1.29s-1.71.19-1.71-1.23q0-10.95-.07-21.9a3.68,3.68,0,0,1,1.1-2.49c5.67-7,11.64-13.69,16.95-20.94a28.65,28.65,0,0,0,3.81-7.34c.19-.54.82-1.32,0-1.82-.6-.38-1.16.22-1.6.58-1.61,1.34-3.22,2.67-4.73,4.12C123.12,177,118.3,182.71,112.86,188.15Z"/><circle class="cls-13" cx="129.72" cy="131.91" r="3.37"/><path class="cls-12" d="M109.85,281l2.86.05a6.61,6.61,0,0,1,.76-1.42q0-4.24-.09-8.48a1.83,1.83,0,0,1-.67-1.13c-.07-.78.51-1.53.72-2.3-.1.26-.14-.77-.19-1a3,3,0,0,1,.48-3.06l-.44,0q0-2.47,0-4.95c0-4.17,0-8.34,0-12.52a1.68,1.68,0,0,1-.1-2l0,0c-.13-.2.22-.56.27-.76a4.3,4.3,0,0,0,.09-.74c-.24-.25-.26-.38-.22-.41a1.18,1.18,0,0,1,.07-1.25c-.4-4.92,1.12-9.74-3.94-14.46-2.32.49-2.3,1.18-2.61,1.78-2,3.9-2.33,7.84-2.75,11.77-1.24,11.63-2,23.27-2.66,34.91-.12,2-.49,4-.47,6a.93.93,0,0,1,0,.13C103.89,281,106.85,280.92,109.85,281Z"/><circle class="cls-14" cx="138.17" cy="163.25" r="2.74"/><path class="cls-10" d="M164,251.22q0-4.64,0-9.27c0-7,0-14,0-21a4.2,4.2,0,0,1,.86-2.64c2.66-3.69,5.3-7.39,7.87-11.14.53-.77,1.62-1.89.77-2.65s-1.83.43-2.54,1.07c-2.25,2-4.42,4.16-7,6.56,0-4.58.17-8.8,0-13s-.45-8.31-2.16-12.37a4.44,4.44,0,0,0-1.31,3.08A168.07,168.07,0,0,0,159,210.59c-.68,20.1-1.06,40.21-1.45,60.31-.07,3.47-.23,6.94-.27,10.41,0,1.07-.21,1.35-1.32,1a40.49,40.49,0,0,1-13.66-8.44c-9.16-8.13-15.55-18-17.91-30.14-1.72-8.91-.61-17.64,1.94-26.22a78.07,78.07,0,0,1,20.11-34.1,44.83,44.83,0,0,1,5.57-4.52,14.5,14.5,0,0,1,15.26-1.5c10.38,4.59,18.67,11.78,25.71,20.51,5.74,7.13,10,15,11.72,24.13,2,10.88-.21,21.1-5.42,30.67-6.93,12.73-16.69,22.53-30.24,28.21-1.1.46-2.27.76-3.4,1.14s-1.52.17-1.51-1.09q0-9.7-.06-19.4a3.26,3.26,0,0,1,1-2.2c5-6.17,10.31-12.13,15-18.56a25.39,25.39,0,0,0,3.37-6.5c.17-.48.73-1.17,0-1.61-.53-.34-1,.19-1.42.52-1.42,1.19-2.86,2.37-4.19,3.66C173.12,241.38,168.85,246.4,164,251.22Z"/><circle class="cls-2" cx="176.38" cy="201.22" r="2.42"/><circle class="cls-15" cx="188.35" cy="226.74" r="3.37"/></g></g></g><circle class="cls-16" cx="149" cy="147.26" r="131.49"/></svg>