<svg id="Layer_1" data-name="Layer 1" xmlns="http://www.w3.org/2000/svg" viewBox="0 0 376 75"><defs><style>.cls-1{fill:#fff;}</style></defs><title>hacktober circle and text</title><path class="cls-1" d="M63.94,31.83h3.77V20a2.07,2.07,0,0,0-.1-.73,1,1,0,0,0-.29-.42,1,1,0,0,0-.45-.21,2.92,2.92,0,0,0-.57-.05,5.55,5.55,0,0,0-1.13.14,9.42,9.42,0,0,0-1.42.44,11.91,11.91,0,0,0-1.5.71,7.3,7.3,0,0,0-1.35,1,4.84,4.84,0,0,0-1,1.2,2.87,2.87,0,0,0-.37,1.43,2.62,2.62,0,0,0,.18,1.06,1.66,1.66,0,0,0,.4.59,1.06,1.06,0,0,0,.47.25,1.83,1.83,0,0,0,.34.05,1.8,1.8,0,0,0,.85-.18,5,5,0,0,0,.6-.37l.51-.37a.9.9,0,0,1,.55-.18,1.41,1.41,0,0,1,.53.11,1.51,1.51,0,0,1,.52.36,2.07,2.07,0,0,1,.4.65,2.6,2.6,0,0,1,.17,1,3,3,0,0,1-.32,1.43,3.19,3.19,0,0,1-.83,1,3.43,3.43,0,0,1-1.16.6,4.46,4.46,0,0,1-1.29.2,4.51,4.51,0,0,1-1.79-.34,4,4,0,0,1-1.36-.94A4,4,0,0,1,57.47,27a5,5,0,0,1-.29-1.72,6.5,6.5,0,0,1,.52-2.62,7.38,7.38,0,0,1,1.42-2.14,9.59,9.59,0,0,1,2.11-1.67,13.91,13.91,0,0,1,2.62-1.19A17.61,17.61,0,0,1,66.8,17a20,20,0,0,1,3.07-.24A8.54,8.54,0,0,1,72.5,17a3.52,3.52,0,0,1,1.39.78,1.8,1.8,0,0,1,.53,1,5.24,5.24,0,0,1,.08.83V31.83h7.62v-10A16.81,16.81,0,0,1,83,16a11.68,11.68,0,0,1,2.3-3.93A8.64,8.64,0,0,1,88.47,9.9a9.29,9.29,0,0,1,3.46-.69,13.81,13.81,0,0,1,2.25.18A7.75,7.75,0,0,1,96,9.91a3.7,3.7,0,0,1,1.27.88A1.78,1.78,0,0,1,97.79,12a1.86,1.86,0,0,1-.35,1.1,1.36,1.36,0,0,1-.38.36.84.84,0,0,1-.45.13,1,1,0,0,1-.66-.23,3.07,3.07,0,0,1-.55-.57q-.26-.34-.51-.75a5,5,0,0,0-.56-.75,3,3,0,0,0-.7-.57,1.83,1.83,0,0,0-.93-.23,2.83,2.83,0,0,0-2,.69,4.41,4.41,0,0,0-1.14,2A15,15,0,0,0,89,16.58q-.11,2-.11,4.56V31.83h4.16v1.82H88.92v12.6a1.62,1.62,0,0,0,.26,1,.91.91,0,0,0,.8.36,2.77,2.77,0,0,0,1.08-.21q.5-.21.87-.39l.35.77q-.46.31-1.07.65a12.22,12.22,0,0,1-1.35.64,10.58,10.58,0,0,1-1.57.5,7.65,7.65,0,0,1-1.75.2,5.85,5.85,0,0,1-2.28-.37,3.32,3.32,0,0,1-1.35-1A3.27,3.27,0,0,1,82.28,47a7.8,7.8,0,0,1-.16-1.55V33.65H74.5V44a11,11,0,0,1-1,4.91,9.93,9.93,0,0,1-2.81,3.49,12.16,12.16,0,0,1-4.2,2.09,18.64,18.64,0,0,1-5.17.69,11.4,11.4,0,0,1-2-.18,8.31,8.31,0,0,1-1.72-.49,3.86,3.86,0,0,1-1.19-.74,1.26,1.26,0,0,1-.45-.92,2.9,2.9,0,0,1,.1-.76,2.36,2.36,0,0,1,.31-.69,1.91,1.91,0,0,1,.51-.52,1.16,1.16,0,0,1,.67-.21.51.51,0,0,1,.4.23,4.34,4.34,0,0,1,.36.57q.19.34.42.74a3.23,3.23,0,0,0,.62.74,3.31,3.31,0,0,0,.92.57,3.47,3.47,0,0,0,1.35.23,6,6,0,0,0,2.75-.58,5.1,5.1,0,0,0,1.9-1.64A7.42,7.42,0,0,0,67.34,49a13.29,13.29,0,0,0,.36-3.2V33.65H63.94Z"/><path class="cls-1" d="M102.59,27.89a4.9,4.9,0,0,0-1.31.17,4.52,4.52,0,0,0-1,.41,2.46,2.46,0,0,0-.68.55.91.91,0,0,0-.25.57.46.46,0,0,0,.32.45l.71.31a2.39,2.39,0,0,1,.71.5,1.34,1.34,0,0,1,.32,1,1.81,1.81,0,0,1-.18.8A2.16,2.16,0,0,1,100,33.7a2.32,2.32,0,0,1-.84.16,2.41,2.41,0,0,1-1.87-.79A3,3,0,0,1,96.61,31a3.55,3.55,0,0,1,.66-2.16A5.17,5.17,0,0,1,99,27.33a8.74,8.74,0,0,1,2.41-.86,13.42,13.42,0,0,1,5.78.07,7.84,7.84,0,0,1,2.6,1.12,5.79,5.79,0,0,1,1.8,1.95,5.69,5.69,0,0,1,.67,2.86V44.17q0,.19,0,.41a1.29,1.29,0,0,0,.1.41.77.77,0,0,0,.25.31.78.78,0,0,0,.48.12,1,1,0,0,0,.69-.28,5.53,5.53,0,0,0,.57-.57l.52.44q-.31.43-.75,1a6,6,0,0,1-2.51,1.74,5.35,5.35,0,0,1-1.89.31,3.72,3.72,0,0,1-2.32-.78,3.77,3.77,0,0,1-1.33-2.39,8.77,8.77,0,0,1-1.38,1.49,7.46,7.46,0,0,1-1.46,1,6.45,6.45,0,0,1-1.5.54,7.1,7.1,0,0,1-1.52.17,6.05,6.05,0,0,1-1.93-.31,4.6,4.6,0,0,1-1.67-1A4.83,4.83,0,0,1,95.48,45,6.89,6.89,0,0,1,95,42.35a5.77,5.77,0,0,1,.75-3.09,6.66,6.66,0,0,1,2-2,13.21,13.21,0,0,1,2.76-1.4q1.54-.58,3.16-1.22a3.38,3.38,0,0,0,1.75-1.42,3.81,3.81,0,0,0,.55-1.94,3.36,3.36,0,0,0-.9-2.45A3.28,3.28,0,0,0,102.59,27.89ZM105.89,37a1,1,0,0,0-.33-.79,1.3,1.3,0,0,0-.85-.27,3,3,0,0,0-1.38.33,3.41,3.41,0,0,0-1.15,1,4.93,4.93,0,0,0-.79,1.58A7.44,7.44,0,0,0,101.1,41a9.32,9.32,0,0,0,.18,2,3.88,3.88,0,0,0,.48,1.25,1.72,1.72,0,0,0,.69.65,1.91,1.91,0,0,0,.83.19,2,2,0,0,0,1-.28,3,3,0,0,0,.83-.71,3.58,3.58,0,0,0,.56-1,3,3,0,0,0,.21-1.08Z"/><path class="cls-1" d="M130.85,33.36a2.61,2.61,0,0,1-1.08-.2,1.89,1.89,0,0,1-.7-.53,2.17,2.17,0,0,1-.39-.74,2.83,2.83,0,0,1-.12-.84,7.69,7.69,0,0,1,.07-1.08,3.58,3.58,0,0,0,0-.93,1,1,0,0,0-.32-.66,1.41,1.41,0,0,0-1-.25,3.37,3.37,0,0,0-1.53.41,4.32,4.32,0,0,0-1.47,1.31,7.6,7.6,0,0,0-1.1,2.29,11.42,11.42,0,0,0-.43,3.37,18.06,18.06,0,0,0,.4,4,9.51,9.51,0,0,0,1.21,3.06,5.84,5.84,0,0,0,2,2,6,6,0,0,0,4.2.53,6.09,6.09,0,0,0,1.23-.46,7.9,7.9,0,0,0,1.11-.67q.53-.38,1-.82l.52.5A14.21,14.21,0,0,1,133.32,45a10,10,0,0,1-1.8,1.44,10.4,10.4,0,0,1-2.47,1.12,10.65,10.65,0,0,1-3.21.45,9.25,9.25,0,0,1-3.51-.69,9.09,9.09,0,0,1-3-2,10,10,0,0,1-2.12-3.22,11,11,0,0,1-.8-4.32,12,12,0,0,1,.48-3.47,11.43,11.43,0,0,1,1.29-2.87A10.79,10.79,0,0,1,120,29.13a12.07,12.07,0,0,1,2.29-1.63,11.07,11.07,0,0,1,2.46-1,9.43,9.43,0,0,1,2.41-.33,9.09,9.09,0,0,1,2.67.35,6,6,0,0,1,1.9.93,3.82,3.82,0,0,1,1.13,1.34,3.49,3.49,0,0,1,.37,1.56,4.2,4.2,0,0,1-.16,1.15,2.91,2.91,0,0,1-.46,1,2.2,2.2,0,0,1-.76.64A2.25,2.25,0,0,1,130.85,33.36Z"/><path class="cls-1" d="M143.32,31.83q.72-1,1.55-2A14.26,14.26,0,0,1,146.66,28a9.11,9.11,0,0,1,2.07-1.33,5.75,5.75,0,0,1,2.44-.52,3.81,3.81,0,0,1,2,.47,4.29,4.29,0,0,1,1.27,1.12,4.14,4.14,0,0,1,.68,1.36,4.59,4.59,0,0,1,.2,1.2,8.06,8.06,0,0,1-.24,1.9,7.11,7.11,0,0,1-.81,1.95A8.67,8.67,0,0,1,152.73,36a10.4,10.4,0,0,1-2.4,1.65,71.47,71.47,0,0,0,3.79,7.1,35.5,35.5,0,0,0,3.55,4.89A13.93,13.93,0,0,0,161,52.5a6,6,0,0,0,3,.91,2.05,2.05,0,0,0,.5-.06,3.55,3.55,0,0,0,.46-.15,4.58,4.58,0,0,0,.48-.21l.39.73q-.56.31-1.14.59a8,8,0,0,1-1.33.49,12.29,12.29,0,0,1-1.72.33,18.64,18.64,0,0,1-2.32.12,10.19,10.19,0,0,1-2.41-.29,8.25,8.25,0,0,1-2.39-1,13.52,13.52,0,0,1-2.43-2,22.19,22.19,0,0,1-2.53-3.15,45.25,45.25,0,0,1-2.66-4.54q-1.37-2.63-2.84-6.15a21.7,21.7,0,0,0,3.13-2.72,13.34,13.34,0,0,0,1.72-2.27,5.91,5.91,0,0,0,.73-1.8,7.64,7.64,0,0,0,.15-1.35c0-.06,0-.15,0-.28a.91.91,0,0,0-.13-.38,1.08,1.08,0,0,0-.33-.33,1.1,1.1,0,0,0-.61-.15,2.45,2.45,0,0,0-1.55.65,9.2,9.2,0,0,0-1.5,1.62,15.63,15.63,0,0,0-1.29,2.07q-.58,1.11-1,2V45.87a2.71,2.71,0,0,1-.09.64,1.49,1.49,0,0,1-.44.7,2.79,2.79,0,0,1-1,.57,5.24,5.24,0,0,1-1.75.24,4.59,4.59,0,0,1-1.72-.26,2.4,2.4,0,0,1-.92-.61,1.59,1.59,0,0,1-.37-.73,3.29,3.29,0,0,1-.07-.6V19.11a1.93,1.93,0,0,0-.28-1,1,1,0,0,0-.94-.45,1.51,1.51,0,0,0-.61.11,2.61,2.61,0,0,0-.55.34l-.41-.5a12.35,12.35,0,0,1,1.06-.78,7.68,7.68,0,0,1,1.27-.67,9.52,9.52,0,0,1,1.48-.48,7.18,7.18,0,0,1,1.66-.19,4.89,4.89,0,0,1,2.09.36,2.69,2.69,0,0,1,1.1.89,2.56,2.56,0,0,1,.42,1.12,8.74,8.74,0,0,1,.07,1Z"/><path class="cls-1" d="M166.15,28V43.28a2.17,2.17,0,0,0,.41,1.52,1.52,1.52,0,0,0,1.14.42,1.67,1.67,0,0,0,1-.31,3.64,3.64,0,0,0,.75-.7,4.39,4.39,0,0,0,.64-1l.64.29q-.31.66-.74,1.45a5.75,5.75,0,0,1-2.9,2.59,6.86,6.86,0,0,1-2.68.46,5.69,5.69,0,0,1-1.75-.27,4.11,4.11,0,0,1-1.49-.85,4.25,4.25,0,0,1-1-1.45,5,5,0,0,1-.39-2.09V28h-2.32V26.48a6.25,6.25,0,0,0,1.62-.3,8.06,8.06,0,0,0,2.12-1,8.44,8.44,0,0,0,2-1.89,7.21,7.21,0,0,0,1.33-2.92h1.66v6.11h3.38q1.66,0,1.66-.56a.28.28,0,0,0-.21-.28l-.47-.19a1.51,1.51,0,0,1-.47-.32.94.94,0,0,1-.21-.68,1.17,1.17,0,0,1,.36-.91,1.34,1.34,0,0,1,.94-.33,1.32,1.32,0,0,1,.65.16,1.41,1.41,0,0,1,.47.41,1.87,1.87,0,0,1,.28.59,2.44,2.44,0,0,1,.09.66,2.94,2.94,0,0,1-.78,2.14,3.36,3.36,0,0,1-2.5.8Z"/><path class="cls-1" d="M172,37.09a13.17,13.17,0,0,1,.79-4.75,10.07,10.07,0,0,1,2.1-3.41,8.52,8.52,0,0,1,3.06-2.05,9.88,9.88,0,0,1,3.65-.68,10.61,10.61,0,0,1,3.65.63,8.32,8.32,0,0,1,3.06,1.94,9.46,9.46,0,0,1,2.1,3.3,12.9,12.9,0,0,1,.79,4.73,13.59,13.59,0,0,1-.79,4.81,10.69,10.69,0,0,1-2.1,3.52,8.74,8.74,0,0,1-3.06,2.16,9.28,9.28,0,0,1-3.65.74,9.76,9.76,0,0,1-3.65-.69,8.64,8.64,0,0,1-3.06-2.06,10.05,10.05,0,0,1-2.1-3.42A13.25,13.25,0,0,1,172,37.09Zm12.74-.21q0-1.66-.11-3.2a14.36,14.36,0,0,0-.45-2.75,4.84,4.84,0,0,0-1-1.92,2.06,2.06,0,0,0-1.64-.71,2,2,0,0,0-1.64.76,5.23,5.23,0,0,0-1,2,14.5,14.5,0,0,0-.44,2.81q-.1,1.57-.1,3.23t.1,3.24a14.72,14.72,0,0,0,.44,2.83,5.23,5.23,0,0,0,1,2,2,2,0,0,0,1.64.76,2,2,0,0,0,1.64-.79,5.55,5.55,0,0,0,1-2.07,16.23,16.23,0,0,0,.45-2.9Q184.74,38.54,184.74,36.88Z"/><path class="cls-1" d="M194.37,19.11a1.93,1.93,0,0,0-.28-1,1,1,0,0,0-.94-.45,1.51,1.51,0,0,0-.61.11,2.63,2.63,0,0,0-.55.34l-.41-.5a11.64,11.64,0,0,1,1.07-.78,8.32,8.32,0,0,1,1.27-.67,9.16,9.16,0,0,1,1.47-.48,7.18,7.18,0,0,1,1.66-.19,4.41,4.41,0,0,1,1.94.36,3,3,0,0,1,1.12.89,2.91,2.91,0,0,1,.51,1.14,5.69,5.69,0,0,1,.12,1.13v9.24l.64-.57a5.75,5.75,0,0,1,1-.67,6.54,6.54,0,0,1,1.44-.56,7.61,7.61,0,0,1,2-.23,6.29,6.29,0,0,1,2.65.61,6.67,6.67,0,0,1,2.38,1.92,10.35,10.35,0,0,1,1.72,3.36A16.14,16.14,0,0,1,213.2,37a14.59,14.59,0,0,1-.61,4.27,10.4,10.4,0,0,1-1.81,3.51,8.54,8.54,0,0,1-3,2.37,9.52,9.52,0,0,1-4.18.87,10.15,10.15,0,0,1-4.36-.84,7.56,7.56,0,0,1-2.85-2.26,8.94,8.94,0,0,1-1.54-3.3,16.52,16.52,0,0,1-.47-4Zm12.35,18.27a29.07,29.07,0,0,0-.19-3.39,13.19,13.19,0,0,0-.6-2.78,5.33,5.33,0,0,0-1.06-1.89,2,2,0,0,0-1.55-.69,2,2,0,0,0-1.19.34,3.29,3.29,0,0,0-.8.78,3.37,3.37,0,0,0-.46.86,2.27,2.27,0,0,0-.14.57v6.19a20.61,20.61,0,0,0,.76,6.57q.76,2.05,2.23,2.05T206,43.9A21.5,21.5,0,0,0,206.72,37.38Z"/><path class="cls-1" d="M222.55,38.19a5.86,5.86,0,0,0,.2,1.44,8.58,8.58,0,0,0,.57,1.56,8.29,8.29,0,0,0,.92,1.5A7.11,7.11,0,0,0,225.5,44a6,6,0,0,0,1.58.89,5.31,5.31,0,0,0,1.91.33,5.2,5.2,0,0,0,1.35-.17,5.33,5.33,0,0,0,1.16-.46,7.56,7.56,0,0,0,1-.67q.5-.38,1-.82l.52.5A14.21,14.21,0,0,1,232.82,45a10,10,0,0,1-1.8,1.44,10.4,10.4,0,0,1-2.47,1.12,10.65,10.65,0,0,1-3.21.45,9.77,9.77,0,0,1-3.51-.65,8.72,8.72,0,0,1-3-2,9.6,9.6,0,0,1-2.12-3.25,12,12,0,0,1-.8-4.56,11.9,11.9,0,0,1,.48-3.46,11.1,11.1,0,0,1,1.29-2.84,10.55,10.55,0,0,1,1.91-2.22,11.83,11.83,0,0,1,2.29-1.58,11.29,11.29,0,0,1,2.46-1,10.05,10.05,0,0,1,5.09,0,6,6,0,0,1,1.9.89,3.7,3.7,0,0,1,1.13,1.29,3.37,3.37,0,0,1,.37,1.54,2.92,2.92,0,0,1-.56,1.75,5.17,5.17,0,0,1-1.49,1.36ZM226.71,34a3.29,3.29,0,0,0,.45-.32,1.16,1.16,0,0,0,.28-.37,2,2,0,0,0,.16-.54,5.19,5.19,0,0,0,.05-.8,6.56,6.56,0,0,0-.11-1.15,4.63,4.63,0,0,0-.38-1.19,3,3,0,0,0-.68-.93,1.44,1.44,0,0,0-1-.37,1.91,1.91,0,0,0-1.27.45,3.45,3.45,0,0,0-.87,1.15,7.17,7.17,0,0,0-.54,1.61,18,18,0,0,0-.3,1.81q-.1.91-.12,1.75t0,1.42Z"/><path class="cls-1" d="M243.45,30.56a17.08,17.08,0,0,1,1.68-2.18,11.25,11.25,0,0,1,.81-.81,7.75,7.75,0,0,1,.9-.7,4.75,4.75,0,0,1,1-.5,2.82,2.82,0,0,1,1-.19,2.18,2.18,0,0,1,1.66.63,2.47,2.47,0,0,1,.6,1.77,7.91,7.91,0,0,1-.11,1.36,10.07,10.07,0,0,1-.45,1.58h-.58a1.92,1.92,0,0,0-.58-1.07A1.88,1.88,0,0,0,248,30a3.51,3.51,0,0,0-1.26.24,7.83,7.83,0,0,0-1.21.59,10.69,10.69,0,0,0-1.12.77q-.53.41-1,.79V45.87a3,3,0,0,1-.08.64,1.48,1.48,0,0,1-.4.7,2.58,2.58,0,0,1-1,.57,5.06,5.06,0,0,1-1.73.24,4.67,4.67,0,0,1-1.73-.26,2.71,2.71,0,0,1-1-.61,1.56,1.56,0,0,1-.41-.73,2.9,2.9,0,0,1-.08-.6v-16a1.93,1.93,0,0,0-.28-1,1,1,0,0,0-.94-.45,1.33,1.33,0,0,0-.6.12,3.24,3.24,0,0,0-.54.35l-.44-.52a11.54,11.54,0,0,1,1.07-.78,8.24,8.24,0,0,1,1.27-.67,9.2,9.2,0,0,1,1.47-.48,7.18,7.18,0,0,1,1.66-.19,4.33,4.33,0,0,1,1.52.24,3,3,0,0,1,1,.62,2.92,2.92,0,0,1,.63.86,4.75,4.75,0,0,1,.34,1,5.2,5.2,0,0,1,.13.93Q243.45,30.25,243.45,30.56Z"/><path class="cls-1" d="M263.9,16.89a2.5,2.5,0,0,0-1.1.25,2.34,2.34,0,0,0-.9.8,4.44,4.44,0,0,0-.61,1.4,8,8,0,0,0-.23,2.05v5.1h4.54V28h-4.54V44.3a17.57,17.57,0,0,1-.74,5.2,11.33,11.33,0,0,1-2.23,4.11,10.23,10.23,0,0,1-3.73,2.7,13,13,0,0,1-5.22,1,11.44,11.44,0,0,1-2-.18,8.36,8.36,0,0,1-1.72-.49,3.86,3.86,0,0,1-1.19-.74,1.28,1.28,0,0,1-.45-.94,2.88,2.88,0,0,1,.1-.76,2.34,2.34,0,0,1,.31-.69,1.78,1.78,0,0,1,.51-.51,1.24,1.24,0,0,1,.69-.2.5.5,0,0,1,.4.23,4.66,4.66,0,0,1,.36.56l.42.74a3.07,3.07,0,0,0,.61.74,3.27,3.27,0,0,0,.92.56,3.49,3.49,0,0,0,1.34.23,4,4,0,0,0,1.86-.42,4.25,4.25,0,0,0,1.39-1.17,6.94,6.94,0,0,0,1-1.76,12.9,12.9,0,0,0,.62-2.18,20.42,20.42,0,0,0,.32-2.42q.09-1.26.09-2.53V28h-3.81V26.48h3.81V24.06a10.21,10.21,0,0,1,.45-3.18,7.65,7.65,0,0,1,1.18-2.31A6.68,6.68,0,0,1,258,17a9.59,9.59,0,0,1,1.9-1,9,9,0,0,1,1.87-.48,12,12,0,0,1,1.6-.12,14,14,0,0,1,2.61.22,8,8,0,0,1,1.91.58,3.32,3.32,0,0,1,1.16.84,1.52,1.52,0,0,1,.39,1,2.65,2.65,0,0,1-.11.76,2.72,2.72,0,0,1-.32.7,1.73,1.73,0,0,1-.51.52,1.2,1.2,0,0,1-.67.2.52.52,0,0,1-.41-.25,5.47,5.47,0,0,1-.39-.62l-.46-.81a4,4,0,0,0-.61-.81,3.15,3.15,0,0,0-.86-.62A2.61,2.61,0,0,0,263.9,16.89Z"/><path class="cls-1" d="M272.41,38.19a5.86,5.86,0,0,0,.2,1.44,8.58,8.58,0,0,0,.57,1.56,8.29,8.29,0,0,0,.92,1.5A7.11,7.11,0,0,0,275.36,44a6,6,0,0,0,1.58.89,5.31,5.31,0,0,0,1.91.33A5.2,5.2,0,0,0,280.2,45a5.33,5.33,0,0,0,1.16-.46,7.56,7.56,0,0,0,1-.67q.5-.38,1-.82l.52.5A14.21,14.21,0,0,1,282.69,45a10,10,0,0,1-1.8,1.44,10.4,10.4,0,0,1-2.47,1.12,10.65,10.65,0,0,1-3.21.45,9.77,9.77,0,0,1-3.51-.65,8.72,8.72,0,0,1-3-2,9.6,9.6,0,0,1-2.12-3.25,12,12,0,0,1-.8-4.56,11.9,11.9,0,0,1,.48-3.46,11.1,11.1,0,0,1,1.29-2.84,10.55,10.55,0,0,1,1.91-2.22,11.83,11.83,0,0,1,2.29-1.58,11.29,11.29,0,0,1,2.46-1,10.05,10.05,0,0,1,5.09,0,6,6,0,0,1,1.9.89,3.7,3.7,0,0,1,1.13,1.29,3.37,3.37,0,0,1,.37,1.54,2.92,2.92,0,0,1-.56,1.75,5.17,5.17,0,0,1-1.49,1.36ZM276.58,34a3.29,3.29,0,0,0,.45-.32,1.16,1.16,0,0,0,.28-.37,2,2,0,0,0,.16-.54,5.19,5.19,0,0,0,.05-.8,6.56,6.56,0,0,0-.11-1.15,4.63,4.63,0,0,0-.38-1.19,3,3,0,0,0-.68-.93,1.44,1.44,0,0,0-1-.37,1.91,1.91,0,0,0-1.27.45,3.45,3.45,0,0,0-.87,1.15,7.17,7.17,0,0,0-.54,1.61,18,18,0,0,0-.3,1.81q-.1.91-.12,1.75t0,1.42Z"/><path class="cls-1" d="M293.36,27.85a3.19,3.19,0,0,0-.9.12,2.05,2.05,0,0,0-.76.4,1.91,1.91,0,0,0-.52.7,2.49,2.49,0,0,0-.19,1,2.69,2.69,0,0,0,.59,1.61,13.92,13.92,0,0,0,1.47,1.66q.88.86,1.91,1.78a21.14,21.14,0,0,1,1.91,1.95,11,11,0,0,1,1.47,2.19,5.4,5.4,0,0,1,.59,2.49,6.56,6.56,0,0,1-.51,2.65,5.41,5.41,0,0,1-1.45,2,6.45,6.45,0,0,1-2.28,1.23,9.78,9.78,0,0,1-3,.42,7.84,7.84,0,0,1-2.59-.4,9.36,9.36,0,0,1-2.06-1,9,9,0,0,1-1.54-1.25,8.35,8.35,0,0,1-1-1.2l.72-.52a7,7,0,0,0,.68.67,6.7,6.7,0,0,0,.92.67,5.38,5.38,0,0,0,1.09.51,3.65,3.65,0,0,0,1.18.2,4,4,0,0,0,2.44-.71,2.49,2.49,0,0,0,1-2.12,3.1,3.1,0,0,0-.52-1.63,12.78,12.78,0,0,0-1.31-1.73q-.79-.89-1.7-1.84a24.93,24.93,0,0,1-1.7-2A11.64,11.64,0,0,1,286,33.61a5.1,5.1,0,0,1-.52-2.24,4.71,4.71,0,0,1,.53-2.28,4.82,4.82,0,0,1,1.41-1.62,6.31,6.31,0,0,1,2-1,8.48,8.48,0,0,1,2.33-.32,11.87,11.87,0,0,1,2.53.25,6.2,6.2,0,0,1,2,.76,3.66,3.66,0,0,1,1.26,1.27,3.48,3.48,0,0,1,.45,1.78,2,2,0,0,1-.52,1.37,1.84,1.84,0,0,1-1.45.58,2.09,2.09,0,0,1-1.36-.38,1.28,1.28,0,0,1-.47-1,1,1,0,0,1,.22-.68,1.92,1.92,0,0,1,.49-.4l.49-.27a.34.34,0,0,0,.22-.3,1,1,0,0,0-.62-.92A3.29,3.29,0,0,0,293.36,27.85Z"/><path class="cls-1" d="M309.08,28V43.28a2.17,2.17,0,0,0,.41,1.52,1.52,1.52,0,0,0,1.14.42,1.67,1.67,0,0,0,1-.31,3.64,3.64,0,0,0,.75-.7,4.39,4.39,0,0,0,.64-1l.64.29q-.31.66-.74,1.45a5.75,5.75,0,0,1-2.9,2.59,6.86,6.86,0,0,1-2.68.46,5.69,5.69,0,0,1-1.75-.27,4.11,4.11,0,0,1-1.49-.85,4.25,4.25,0,0,1-1-1.45,5,5,0,0,1-.39-2.09V28h-2.32V26.48a6.25,6.25,0,0,0,1.62-.3,8.06,8.06,0,0,0,2.12-1,8.44,8.44,0,0,0,2-1.89,7.21,7.21,0,0,0,1.33-2.92h1.66v6.11h3.38q1.66,0,1.66-.56a.28.28,0,0,0-.21-.28l-.47-.19a1.51,1.51,0,0,1-.47-.32.94.94,0,0,1-.21-.68,1.17,1.17,0,0,1,.36-.91,1.34,1.34,0,0,1,.94-.33,1.32,1.32,0,0,1,.65.16,1.41,1.41,0,0,1,.47.41,1.87,1.87,0,0,1,.28.59,2.44,2.44,0,0,1,.09.66,2.94,2.94,0,0,1-.78,2.14,3.36,3.36,0,0,1-2.5.8Z"/><path class="cls-1" d="M5.14,34.2a2.76,2.76,0,0,1,2.48-2,2.44,2.44,0,0,1,2.53,2,2.49,2.49,0,0,1-1.49,2.81A2.54,2.54,0,0,1,5.52,36c-.13-.22-.25-.45-.38-.68ZM9,34.74a1.27,1.27,0,0,0-2.54,0A1.32,1.32,0,0,0,7.66,36,1.31,1.31,0,0,0,9,34.74Z"/><path class="cls-1" d="M21.42,13.49v8.85H50.21v2.6H18.86V13.49Z"/><path class="cls-1" d="M50.81,33.2v2.53H12.11V33.2Z"/><path class="cls-1" d="M323,51.26V48.72h31.62V60.16H352.1c0-.28,0-.56,0-.85q0-3.46,0-6.92c0-1.14,0-1.14-1.11-1.14H323Z"/><path class="cls-1" d="M361.34,38v2.45H323V38Z"/><path class="cls-1" d="M342.49,12.52V28.31H323V25.73h16.9v-1q0-5.55,0-11.1c0-1.07,0-1.07,1.11-1.07Z"/><path class="cls-1" d="M31,61V45.38H50.48v2.53H34.55c-1,0-1,0-1,1.07q0,5.51,0,11v1Z"/><path class="cls-1" d="M23.81,8.59a3.92,3.92,0,0,1-3.94,4,4,4,0,1,1,0-8A3.94,3.94,0,0,1,23.81,8.59ZM19.88,7.22a1.35,1.35,0,0,0-1.4,1.34,1.33,1.33,0,0,0,1.36,1.38,1.38,1.38,0,0,0,1.38-1.29A1.4,1.4,0,0,0,19.88,7.22Z"/><path class="cls-1" d="M357.06,66.42a4,4,0,0,1-8,0,4,4,0,1,1,8,0Zm-4-1.36a1.36,1.36,0,0,0-1.4,1.34A1.42,1.42,0,0,0,353,67.82a1.47,1.47,0,0,0,1.43-1.36A1.44,1.44,0,0,0,353.1,65.06Z"/><path class="cls-1" d="M368.19,36.27a2.66,2.66,0,1,1-2.71,2.67A2.65,2.65,0,0,1,368.19,36.27Z"/><path class="cls-1" d="M29.6,66.86a2.57,2.57,0,0,1,2.65-2.7,2.66,2.66,0,1,1,0,5.32A2.55,2.55,0,0,1,29.6,66.86Z"/><path class="cls-1" d="M341.46,10.51A2.44,2.44,0,0,1,339,8a2.42,2.42,0,0,1,2.46-2.51,2.5,2.5,0,1,1,0,5Zm0-1.25a1.25,1.25,0,1,0,0-2.5A1.25,1.25,0,0,0,340.23,8,1.27,1.27,0,0,0,341.48,9.26Z"/></svg>