<?xml version="1.0" encoding="utf-8"?>
<!-- Generator: Adobe Illustrator 22.0.0, SVG Export Plug-In . SVG Version: 6.00 Build 0)  -->
<svg version="1.1" id="Layer_1" xmlns="http://www.w3.org/2000/svg" xmlns:xlink="http://www.w3.org/1999/xlink" x="0px" y="0px"
	 viewBox="0 0 258 120" style="enable-background:new 0 0 258 120;" xml:space="preserve">
<style type="text/css">
	.st0{fill:#00999E;}
	.st1{fill:none;stroke:#00999E;stroke-width:4;stroke-miterlimit:10;}
	.st2{fill:none;stroke:#00999E;stroke-width:2;stroke-miterlimit:10;}
	.st3{fill:#F49A38;}
	.st4{fill:#FFFFFF;}
	.st5{fill:#01302E;stroke:#01302E;stroke-miterlimit:10;}
	.st6{fill:#00999E;stroke:#00999E;stroke-miterlimit:10;}
	.st7{fill:#F4A84E;}
	.st8{fill:#011E1D;}
	.st9{clip-path:url(#SVGID_4_);fill:#454745;}
	.st10{clip-path:url(#SVGID_4_);fill:#EFEFEF;stroke:#454745;stroke-width:3;stroke-miterlimit:10;}
	.st11{opacity:0.24;}
	.st12{fill:#E2E2E2;}
	.st13{fill:#454745;}
	.st14{opacity:0.35;}
	.st15{clip-path:url(#SVGID_6_);fill:#454745;}
	.st16{clip-path:url(#SVGID_6_);fill:#EFEFEF;stroke:#454745;stroke-width:3;stroke-miterlimit:10;}
	.st17{fill:#F4A84E;stroke:#454745;stroke-width:3;stroke-miterlimit:10;}
	.st18{fill:#454745;stroke:#454745;stroke-width:3;stroke-miterlimit:10;}
	.st19{opacity:0.11;}
	.st20{clip-path:url(#SVGID_8_);fill:#FFFFFF;}
	.st21{fill:#050505;}
	.st22{fill:url(#SVGID_11_);stroke:#454745;stroke-width:4;stroke-miterlimit:10;}
	.st23{fill:url(#SVGID_12_);stroke:#454745;stroke-width:4;stroke-miterlimit:10;}
	.st24{opacity:0.6;}
	.st25{fill:#454745;stroke:#454745;stroke-miterlimit:10;}
</style>
<g>
	<path class="st5" d="M46.8,36c0,1.7-0.3,3.4-1,4.9c-0.7,1.6-1.6,2.9-2.7,4.1c-1.1,1.2-2.5,2.1-4,2.7s-3.2,1-4.9,1l-10,0
		c-1.7,0-3.4-0.3-4.9-1c-1.6-0.7-2.9-1.6-4.1-2.7s-2.1-2.5-2.7-4c-0.7-1.6-1-3.2-1-4.9l0-13.6c0-1.7,0.3-3.4,1-4.9
		c0.7-1.6,1.6-2.9,2.7-4.1c1.1-1.2,2.5-2.1,4-2.7c1.6-0.7,3.2-1,4.9-1l10,0c1.7,0,3.4,0.3,4.9,1c1.6,0.7,2.9,1.6,4.1,2.7
		c1.2,1.1,2.1,2.5,2.7,4c0.7,1.6,1,3.2,1,4.9L46.8,36z M21.4,12.7c-2.2,1-3.9,2.3-5.3,4c-1.3,1.7-2,3.6-2,5.7l0,13.6
		c0,2.1,0.7,4,2,5.6c1.4,1.7,3.1,3,5.3,4L21.4,12.7z M24.2,46l9.9,0c1.4,0,2.7-0.3,3.9-0.8c1.2-0.5,2.3-1.2,3.1-2.2
		c0.9-0.9,1.6-2,2.1-3.2c0.5-1.2,0.8-2.5,0.8-3.8l0-13.6c0-1.3-0.3-2.6-0.8-3.8s-1.2-2.3-2.1-3.1c-0.9-0.9-1.9-1.6-3.2-2.1
		c-1.2-0.5-2.5-0.8-3.9-0.8l-9.9,0L24.2,46z"/>
	<path class="st5" d="M67.2,20.9c1.8,0,3.5,0.3,5,1c1.6,0.7,2.9,1.6,4.1,2.8c1.2,1.2,2.1,2.5,2.8,4.1s1,3.2,1,5l0,1.9
		c0,1.8-0.3,3.5-1,5c-0.7,1.6-1.6,2.9-2.8,4.1c-1.2,1.2-2.5,2.1-4.1,2.8s-3.2,1-5,1l-5.6,0l-0.1-24.9c-1.7,0-3.2,0.6-4.5,1.7
		c-1.3,1.1-1.9,2.4-1.9,3.9l0.1,33.1l-2.8,0l-0.1-33.1c0-2.3,0.8-4.3,2.4-5.9c1.6-1.6,3.6-2.4,5.9-2.4L67.2,20.9z M77.4,33.8
		c0-1.4-0.3-2.7-0.8-3.9c-0.6-1.2-1.3-2.3-2.2-3.2c-0.9-0.9-2-1.6-3.2-2.2c-1.2-0.5-2.5-0.8-3.9-0.8l-2.8,0l0.1,22.2l2.8,0
		c1.4,0,2.7-0.3,3.9-0.8c1.2-0.6,2.3-1.3,3.2-2.2c0.9-0.9,1.6-2,2.2-3.2c0.5-1.2,0.8-2.5,0.8-3.9L77.4,33.8z"/>
	<path class="st5" d="M99.5,20.8c1.8,0,3.5,0.3,5,1c1.6,0.7,2.9,1.6,4.1,2.8c1.2,1.2,2.1,2.5,2.8,4.1c0.7,1.6,1,3.2,1,5l0,3.7
		l-18.6,0.1l0-13.9c-1.7,0-3.2,0.6-4.5,1.7c-1.3,1.1-1.9,2.4-1.9,3.9l0,11.1c0,1.5,0.6,2.8,1.7,3.9c1.1,1.1,2.4,1.6,3.9,1.6
		l19.4-0.1l0,2.8l-19.4,0.1c-2.3,0-4.3-0.8-5.9-2.4c-1.6-1.6-2.4-3.6-2.4-5.9l0-11.1c0-2.3,0.8-4.3,2.4-5.9c1.6-1.6,3.6-2.4,5.9-2.4
		L99.5,20.8z M109.7,34.7c0-1.6-0.3-3-0.8-4.4c-0.6-1.3-1.3-2.5-2.2-3.5c-0.9-1-2-1.8-3.2-2.4c-1.2-0.6-2.5-0.9-3.9-0.9l-2.8,0
		l0,11.1L109.7,34.7z"/>
	<path class="st5" d="M125.3,23.5c-1.5,0-2.8,0.6-3.9,1.7c-1.1,1.1-1.6,2.4-1.6,3.9l0.1,19.4l-2.8,0L117,29c0-2.3,0.8-4.3,2.4-5.9
		c1.6-1.6,3.6-2.4,5.9-2.4l9.4,0c2.4,0,4.3,0.8,5.9,2.4c1.6,1.6,2.4,3.6,2.4,5.9l0.1,19.4l-2.8,0L140.2,29c0-1.5-0.6-2.8-1.7-3.9
		c-1.1-1.1-2.4-1.6-3.9-1.6l-5.5,0l0.1,24.9l-2.9,0l-0.1-24L125.3,23.5z"/>
	<path class="st5" d="M161,12.1l0,10.9l16.4,0l0,2.8l-16.4,0l0.1,19.8l16.4,0l0,2.8l-29.2,0.1l-0.1-39l29.2-0.1l0,2.8L161,12.1z
		 M158.2,12.1l-7.2,0l0.1,33.5l7.2,0L158.2,12.1z"/>
	<path class="st5" d="M183,17.4c0-1.1,0.2-2.2,0.6-3.2c0.4-1,1-1.9,1.8-2.6c0.7-0.7,1.6-1.3,2.6-1.7c1-0.4,2-0.7,3.2-0.7l13.2,0
		c2.3,0,4.2,0.8,5.8,2.4c1.6,1.6,2.4,3.5,2.4,5.8c0,2.1-1,4.3-3,6.5c2.3,1.3,4.2,3,5.5,5c1.4,2,2.1,4.2,2.1,6.6c0,1.7-0.3,3.4-1,4.9
		c-0.7,1.6-1.6,2.9-2.7,4.1c-1.1,1.2-2.5,2.1-4,2.7s-3.2,1-5,1l-21.4,0.1L183,17.4z M193.1,12l-1.9,0c-1.5,0-2.8,0.5-3.8,1.6
		c-1.1,1.1-1.6,2.3-1.6,3.8l0.1,28l7.3,0L193.1,12z M204.4,22.8c1.5,0,2.8-0.5,3.8-1.6c1.1-1.1,1.6-2.3,1.6-3.8
		c0-1.5-0.5-2.8-1.6-3.8c-1.1-1.1-2.3-1.6-3.8-1.6l-8.5,0l0,10.9L204.4,22.8z M204.5,45.4c1.4,0,2.7-0.3,3.9-0.8s2.3-1.2,3.1-2.2
		c0.9-0.9,1.6-2,2.1-3.2c0.5-1.2,0.8-2.5,0.8-3.8s-0.3-2.7-0.8-3.8c-0.6-1.2-1.3-2.2-2.2-3.1c-0.9-0.9-1.9-1.6-3.2-2.1
		c-1.2-0.5-2.5-0.8-3.9-0.8l-8.5,0l0.1,19.8L204.5,45.4z"/>
	<path class="st5" d="M231.7,48.1c-1.3,0-2.6-0.3-3.8-0.8c-1.2-0.5-2.2-1.2-3.2-2.1c-1-0.9-1.7-1.9-2.4-3.1c-0.6-1.1-1-2.4-1.2-3.6
		l2.8,0c0.2,2,1,3.7,2.5,4.9c1.5,1.3,3.3,1.9,5.3,1.9l9,0l0-15.4l-8.5,0c-1.4,0-2.8-0.3-4.1-0.8c-1.3-0.5-2.4-1.3-3.3-2.2
		c-1-0.9-1.7-2.1-2.3-3.3c-0.6-1.3-0.8-2.6-0.8-4.1c0-1.4,0.3-2.8,0.8-4.1c0.5-1.3,1.3-2.4,2.2-3.3s2.1-1.7,3.3-2.3
		c1.3-0.6,2.6-0.8,4.1-0.8l11,0c1.3,0,2.5,0.3,3.7,0.8c1.2,0.5,2.2,1.2,3.2,2.1c0.9,0.9,1.7,1.9,2.3,3.1c0.6,1.1,1,2.3,1.2,3.5
		l-2.8,0c-0.2-2-1-3.6-2.4-4.8c-1.4-1.3-3.2-1.9-5.2-1.9l-7.9,0l0,15.4l8.5,0c1.4,0,2.8,0.3,4,0.8c1.2,0.5,2.3,1.3,3.3,2.2
		c1,0.9,1.7,2.1,2.3,3.3c0.5,1.3,0.8,2.6,0.8,4.1c0,1.4-0.3,2.8-0.8,4.1c-0.5,1.3-1.3,2.4-2.2,3.3s-2,1.7-3.3,2.3
		c-1.2,0.6-2.6,0.8-4,0.8L231.7,48.1z M231.3,11.9c-2,0.2-3.6,1-5,2.5c-1.4,1.5-2.1,3.2-2.1,5.2c0,1,0.2,1.9,0.7,2.8
		c0.4,0.9,1,1.7,1.7,2.4c0.7,0.7,1.6,1.3,2.6,1.7c1,0.5,2,0.7,3.1,0.9l0-14.6L231.3,11.9z M244.4,45.3c2-0.2,3.6-1.1,4.9-2.5
		c1.3-1.4,2-3.2,2-5.2c0-2-0.8-3.8-2.3-5.2c-1.5-1.5-3.4-2.3-5.6-2.5l0,14.6L244.4,45.3z"/>
	<path class="st6" d="M14.4,75.4l0.1,37.5l-2.9,0l-0.1-40.3l13.3,0l0,14.1l18.8-0.1l0-14.1l2.9,0l0.1,40.3l-2.9,0l-0.1-23.4
		l-18.8,0.1l0.1,23.4l-2.9,0L22,75.4L14.4,75.4z"/>
	<path class="st6" d="M65.1,112.7c-1.8,0-3.6-0.3-5.2-1c-1.6-0.7-3-1.6-4.2-2.8c-1.2-1.2-2.2-2.6-2.9-4.2s-1-3.3-1-5.2l0-3.8
		l19.2-0.1l0,14.3c1.8,0,3.3-0.6,4.6-1.7c1.3-1.1,2-2.5,2-4l0-11.5c0-1.5-0.6-2.9-1.7-4c-1.1-1.1-2.5-1.7-4-1.7L51.7,87l0-2.9
		l20.1-0.1c2.4,0,4.4,0.8,6.1,2.5c1.7,1.7,2.5,3.7,2.5,6.1l0,11.5c0,2.4-0.8,4.4-2.5,6.1c-1.7,1.7-3.7,2.5-6.1,2.5L65.1,112.7z
		 M54.6,98.6c0,1.5,0.3,3,0.9,4.4c0.6,1.4,1.3,2.6,2.2,3.6c0.9,1,2,1.9,3.3,2.4c1.3,0.6,2.6,0.9,4.1,0.9l2.9,0l0-11.3L54.6,98.6z"/>
	<path class="st6" d="M110.7,91.6c-0.2-1.4-0.9-2.5-1.9-3.4c-1-0.9-2.3-1.4-3.6-1.4l-6.7,0l0.1,22.9l6.7,0c1.4,0,2.6-0.5,3.6-1.4
		c1-0.9,1.7-2,1.9-3.4l3,0c-0.2,2.2-1.1,4-2.8,5.5c-1.6,1.4-3.5,2.2-5.8,2.2l-11.5,0c-2.4,0-4.4-0.8-6.1-2.5
		c-1.7-1.7-2.5-3.7-2.5-6.1l0-11.5c0-2.4,0.8-4.4,2.5-6.1c1.7-1.7,3.7-2.5,6.1-2.5l11.5,0c2.3,0,4.2,0.7,5.8,2.2
		c1.6,1.5,2.5,3.3,2.8,5.5L110.7,91.6z M95.6,86.9l-2,0c-1.5,0-2.9,0.6-4,1.7c-1.1,1.1-1.7,2.5-1.7,4l0,11.5c0,1.5,0.6,2.9,1.7,4
		c1.1,1.1,2.5,1.7,4,1.7l2,0L95.6,86.9z"/>
	<path class="st6" d="M139.5,86.7c-1.3,0.2-2.5,0.6-3.7,1.2c-1.2,0.6-2.2,1.4-3,2.3c-0.9,0.9-1.5,2-2,3.2c-0.5,1.2-0.8,2.5-0.7,3.8
		l0,2c0,1.3,0.3,2.6,0.8,3.7c0.5,1.2,1.2,2.2,2.1,3.2c0.9,0.9,1.9,1.7,3,2.3s2.4,1,3.7,1.2l0,2.9c-1.7-0.1-3.3-0.5-4.8-1.4
		c-1.5-0.9-3.1-2-4.7-3.3l0,4.7l-2.9,0L127,75c-1.8,0-3.4,0.6-4.7,1.7c-1.3,1.1-1.9,2.5-1.9,4l0.1,31.9l-2.9,0l-0.1-31.9
		c0-2.4,0.8-4.4,2.4-6.1c1.6-1.7,3.7-2.5,6.1-2.5l3.7,0l0,16.5c1.5-1.3,3.1-2.4,4.7-3.3c1.6-0.9,3.2-1.4,4.8-1.5L139.5,86.7z"/>
	<path class="st6" d="M147.7,74.6c1.7-1.7,3.7-2.5,6.1-2.5l11.3,0l0,2.9l-7.5,0l0,8.9l7.5,0l0,2.9l-7.5,0l0.1,25.8l-2.9,0l-0.1-37.6
		c-1.8,0-3.3,0.6-4.6,1.7c-1.3,1.1-2,2.5-2,4l0.1,31.9l-2.9,0l-0.1-31.9C145.2,78.3,146.1,76.2,147.7,74.6z"/>
	<path class="st6" d="M184.7,83.7c1.8,0,3.6,0.3,5.2,1.1c1.6,0.7,3,1.7,4.2,2.9c1.2,1.2,2.2,2.6,2.9,4.2c0.7,1.6,1.1,3.3,1.1,5.2
		l0,3.8L179,101l0-14.4c-1.8,0-3.3,0.6-4.6,1.7c-1.3,1.1-2,2.5-2,4l0,11.5c0,1.5,0.6,2.9,1.7,4c1.1,1.1,2.5,1.7,4,1.7l20.1-0.1
		l0,2.9l-20.1,0.1c-2.4,0-4.4-0.8-6.1-2.5c-1.7-1.7-2.5-3.7-2.5-6.1l0-11.5c0-2.4,0.8-4.4,2.5-6.1c1.7-1.7,3.7-2.5,6.1-2.5
		L184.7,83.7z M195.3,98.1c0-1.6-0.3-3.1-0.9-4.5c-0.6-1.4-1.3-2.6-2.3-3.7c-1-1-2.1-1.9-3.4-2.4c-1.3-0.6-2.6-0.9-4.1-0.9l-2.9,0
		l0,11.5L195.3,98.1z"/>
	<path class="st6" d="M209.7,112.3c-1.7,0-3.3-0.6-4.6-1.8c-1.4-1.2-2.2-2.7-2.4-4.4l2.9,0c0.2,1,0.7,1.8,1.5,2.5
		c0.7,0.6,1.7,0.9,2.7,0.9l9.3,0l0-10l-8.2,0c-2.2,0-4.1-0.7-5.6-2.3c-1.6-1.5-2.3-3.4-2.3-5.6c0-2.2,0.8-4.1,2.3-5.6
		c1.5-1.6,3.4-2.3,5.6-2.3l12,0c1.8,0,3.3,0.6,4.7,1.8c1.3,1.2,2.1,2.7,2.4,4.5l-2.9,0c-0.2-1-0.7-1.8-1.4-2.5c-0.8-0.7-1.7-1-2.8-1
		l-8.3,0l0,10.1l8.3,0c1.1,0,2.1,0.2,3,0.6c1,0.4,1.8,1,2.5,1.7c0.7,0.7,1.3,1.5,1.7,2.5c0.4,0.9,0.6,1.9,0.6,3
		c0,1.1-0.2,2.1-0.6,3.1c-0.4,1-1,1.8-1.7,2.5c-0.7,0.7-1.5,1.3-2.5,1.7c-1,0.4-2,0.6-3,0.6L209.7,112.3z M211.6,86.5
		c-1.6,0-3,0.5-4.2,1.5c-1.2,1-1.8,2.2-1.8,3.6c0,1.4,0.6,2.5,1.8,3.5c1.2,1,2.6,1.5,4.2,1.5L211.6,86.5z M221.9,109.4
		c1.6,0,3-0.5,4.1-1.5c1.1-1,1.7-2.2,1.7-3.6c0-1.4-0.6-2.5-1.7-3.5c-1.1-0.9-2.5-1.4-4.1-1.4L221.9,109.4z"/>
	<path class="st6" d="M247.3,83.5l5,0l0,2.9l-5,0l0.1,17.2c0,1.4,0.5,2.6,1.4,3.6c0.9,1,2,1.7,3.4,2l0,2.9l-8.5,0
		c-2.5-0.1-4.6-1-6.2-2.6c-1.6-1.6-2.5-3.6-2.5-5.9l-0.1-31.9l2.9,0l0,11.8l6.6,0l0-11.8l2.9,0L247.3,83.5z M245.6,107.9
		c-0.8-1.4-1.2-2.9-1.2-4.3l-0.1-17.2l-6.6,0l0.1,17.2c0,1.5,0.6,2.9,1.7,4c1.1,1.1,2.4,1.7,4,1.7l2.9,0L245.6,107.9z"/>
</g>
</svg>
