<svg id="Layer_1" data-name="Layer 1" xmlns="http://www.w3.org/2000/svg" viewBox="0 0 518.09 519.1"><title>hangout imge</title><path d="M63.57,409.38C-45.37,264,29.57,59.05,206.41,18.76,340.6-11.82,477.38,79,501.23,214.29c7.69,43.65,4.6,86.27-10.17,128-7.9-4.67-13.15-12.22-19.77-18.28-11.7-10.73-21.63-23.29-34.35-33l.21,0c-.6-.6-1.2-1.21-1.79-1.82-3.69-4.17-7.05-8.7-11.12-12.47-31.24-29-82.81-15-94.64,25.89-7.57,26.17,1.17,47.47,21.52,64.63l3,2.05-.05,0,1.77,1.49-.05-.06c3.17,8.14,11.54,11.86,16,18.88-2.39.08-4.78.21-7.17.23-25.47.16-38.12,8.75-47.39,32.19-2.54-2.32-5.17-4.55-7.6-7Q250.83,356.32,192,297.53c-2.57-2.57-4.64-5.94-8.7-6.58l0,.07a3.66,3.66,0,0,0-2.25-3.17c-1.5-1.86-2.92-3.8-4.51-5.57-15.72-17.53-35.38-24.34-58.18-19.11C95.8,268.37,81,283.09,75.55,305.63,69.18,332,79.14,352.87,100.2,369l1.81,1.78-.08-.1a3.4,3.4,0,0,0,3.2,1.72l0,0c2.31,7.72,10,11,14.15,17.19-3.43.11-6.87.45-10.29.28-13.11-.65-25.3,1.76-35.61,10.46C70,403.16,66.83,406.34,63.57,409.38ZM202.31,106c-21.26-.1-42.54,0-63.79-.43-6.28-.14-8,1.6-7.93,7.9.29,43.87.14,87.75.2,131.62,0,1.7-.8,3.68,1.44,5.77,11.72-9.86,23.53-19.61,35.1-29.65A16.1,16.1,0,0,1,178.79,217c30.58.16,61.16.08,91.74.08,21.62,0,21.62,0,21-21.76l.36-17.77c9-1.5,18.1.33,27-.83,16.48-2.15,29.82,2.78,41.54,14.5,6.77,6.78,15,12.11,23.85,19.1,0-47.94-.05-93.85.09-139.75,0-4.8-2.51-4.93-6-4.92-49.69,0-99.38.11-149.06-.09-5.33,0-6,2.13-6,6.61.17,11.15-.09,22.3-.18,33.46Z" fill="#ddd"/><path d="M183.34,291c4.06.64,6.13,4,8.7,6.58q58.83,58.74,117.6,117.56c2.43,2.42,5.06,4.65,7.6,7a114.28,114.28,0,0,0-1.35,20.58c0,19.1-.1,38.2-.17,57.29a258.08,258.08,0,0,1-106.64,1.51c-.19-3.44-.54-6.89-.55-10.33-.06-17.82.21-35.65-.09-53.46-.52-30.73-17.9-47.65-48.5-47.77-13.56-.05-27.12-.22-40.68-.33-4.13-6.21-11.84-9.47-14.15-17.19,2.78.79,5.6,1.49,8.35,2.39a58.28,58.28,0,0,0,73.59-37.26C192.31,321.42,189.48,306.07,183.34,291Z" fill="#b7b6b6"/><path d="M119.26,389.55c13.56.11,27.12.28,40.68.33,30.6.12,48,17,48.5,47.77.3,17.81,0,35.64.09,53.46,0,3.44.36,6.89.55,10.33C152.2,489.2,105.25,460.56,68,415.93a75.37,75.37,0,0,1-4.45-6.55c3.26-3,6.39-6.22,9.79-9.09,10.31-8.7,22.5-11.11,35.61-10.46C112.39,390,115.83,389.66,119.26,389.55Z" fill="#353535"/><path d="M315.72,499.93c.07-19.09.2-38.19.17-57.29a114.28,114.28,0,0,1,1.35-20.58c9.27-23.44,21.92-32,47.39-32.19,2.39,0,4.78-.15,7.16-.23,9.84.09,19.74.89,29.51.11,21.63-1.73,38.58,5.38,50.14,24.14C419,454.94,377.21,482.11,327.25,497,323.45,498.15,319.57,499,315.72,499.93Z" fill="#353535"/><path d="M451.44,413.89c-11.56-18.76-28.51-25.87-50.14-24.14-9.77.78-19.67,0-29.51-.11-4.48-7-12.85-10.74-16-18.88,1.75.57,3.54,1,5.23,1.74,36.89,15.35,74.59-5.6,81.59-45,2.3-13-2.25-24.5-5.65-36.38,12.72,9.67,22.65,22.23,34.35,33,6.62,6.06,11.87,13.61,19.77,18.28C482.5,368.77,468.56,392.21,451.44,413.89Z" fill="#b7b6b6"/><path d="M223.07,105.63c.1-11.16.36-22.31.19-33.46-.06-4.48.64-6.63,6-6.61,49.68.2,99.37.13,149.06.09,3.52,0,6,.12,6,4.92-.14,45.9-.09,91.81-.09,139.75-8.85-7-17.08-12.32-23.85-19.1-11.72-11.72-25.06-16.65-41.54-14.5-8.89,1.16-18-.67-27,.83l-28.33-.13c-13.33-2-26.78.25-40.13-1.21l-.24-9.88V153.78l.08-11.09q-.07-6.23-.14-12.46Q223.08,117.93,223.07,105.63Zm31.29,3.08c-6.1.27-9.65,3.57-9.7,9.42,0,5.48,3.44,9.13,9,9.23,5.82.1,9.57-3.18,9.57-9.32C263.2,112.35,259.82,109.44,254.36,108.71Zm55.34,8.67c-.72-4.76-3.35-8.37-9.09-8.52-6.16-.16-9.54,3.5-9.61,9.3-.05,5.49,3.47,9.11,9,9.21C305.85,127.47,309.26,124.07,309.7,117.38Zm46.31,0c-.57-4.57-3.09-8.25-8.84-8.54-6.16-.31-9.7,3.29-9.84,9s3.65,9.6,9.54,9.47C352.27,127.27,355.6,124,356,117.41Z" fill="#ed592a"/><path d="M183.34,291c6.14,15.12,9,30.47,3.71,46.54a58.28,58.28,0,0,1-73.59,37.26c-2.75-.9-5.57-1.6-8.35-2.39l0,0a3.05,3.05,0,0,0-3.2-1.72l.08.09L100.2,369c-21.06-16.13-31-37-24.65-63.37,5.45-22.54,20.25-37.26,42.87-42.46,22.8-5.23,42.46,1.58,58.18,19.11,1.59,1.77,3,3.71,4.51,5.57l2.25,3.17Z" fill="#353535"/><path d="M436.94,291.1c3.4,11.88,7.95,23.42,5.65,36.38-7,39.42-44.7,60.37-81.59,45-1.69-.7-3.48-1.17-5.23-1.74l.05.06-1.77-1.49.05,0-3-2.05c-20.35-17.16-29.09-38.46-21.52-64.63,11.83-40.87,63.4-54.86,94.64-25.89,4.07,3.77,7.43,8.3,11.12,12.47.6.61,1.19,1.22,1.79,1.82Z" fill="#353535"/><path d="M291.49,195.32c.66,21.76.66,21.76-21,21.76-30.58,0-61.16.08-91.74-.08a16.1,16.1,0,0,0-11.46,4.22c-11.57,10-23.38,19.79-35.1,29.65-2.24-2.09-1.44-4.07-1.44-5.77-.06-43.87.09-87.75-.2-131.62,0-6.3,1.65-8,7.93-7.9,21.25.47,42.53.33,63.79.43q0,11.89,0,23.79l-1.63.93c-10.32-.13-20.65-.13-31-.43-5.4-.16-4.84,3.34-5,6.86-.19,3.82.68,5.86,5.16,5.7,10.32-.37,20.65-.31,31-.42l1.46.73c0,3.43.05,6.87.07,10.3l-1.48.53c-10.32-.1-20.65.05-30.95-.4-5.29-.23-5.31,2.62-5.28,6.4s-.07,6.7,5.25,6.47c10.31-.44,20.64-.3,31-.4l1.51.58,0,9.51-1.62,1c-10.34-.12-20.67-.1-31-.42-5.42-.17-4.87,3.29-5,6.84-.18,3.9.87,5.81,5.27,5.66,10.33-.36,20.66-.32,31-.44l1.42.77c-.25,6.23,4.24,5.57,8.19,5.58Q251,195.28,291.49,195.32Z" fill="#ed592a"/><path d="M291.49,195.32q-40.46-.07-80.9-.15c-4,0-8.44.65-8.19-5.58,16.4-.15,32.8-.27,49.2-.45,13.9-.16,11.58,1.53,11.92-11.72l28.33.13Z" fill="#c13d1e"/><path d="M202.33,129.8q0-11.9,0-23.79l20.77-.38q0,12.3,0,24.6Z" fill="#c13d1e"/><path d="M183.36,291l-2.25-3.17A3.66,3.66,0,0,1,183.36,291Z" fill="#00a184"/><path d="M351.12,367.31l3,2.05Z" fill="#01a084"/><path d="M101.93,370.68a3.05,3.05,0,0,1,3.2,1.72A3.4,3.4,0,0,1,101.93,370.68Z" fill="#00a184"/><path d="M437.15,291.08c-.6-.6-1.19-1.21-1.79-1.82C436,289.87,436.55,290.48,437.15,291.08Z" fill="#01a084"/><path d="M100.2,369l1.81,1.77Z" fill="#00a184"/><path d="M354.05,369.33l1.77,1.49Z" fill="#01a084"/><path d="M263.52,177.42c-.34,13.25,2,11.56-11.92,11.72-16.4.18-32.8.3-49.2.45l-1.42-.77q-.12-5.82-.23-11.64l1.62-1a94.19,94.19,0,0,0,21,.05C236.74,177.67,250.19,175.46,263.52,177.42Z" fill="#cebbbc"/><path d="M254.36,108.71c5.46.73,8.84,3.64,8.84,9.33,0,6.14-3.75,9.42-9.57,9.32-5.53-.1-9-3.75-9-9.23C244.71,112.28,248.26,109,254.36,108.71Z" fill="#fdf5f5"/><path d="M309.7,117.38c-.44,6.69-3.85,10.09-9.71,10-5.52-.1-9-3.72-9-9.21.07-5.8,3.45-9.46,9.61-9.3C306.35,109,309,112.62,309.7,117.38Z" fill="#fdf5f5"/><path d="M356,117.41c-.41,6.55-3.74,9.86-9.14,10-5.89.13-9.68-3.59-9.54-9.47s3.68-9.36,9.84-9C352.92,109.16,355.44,112.84,356,117.41Z" fill="#fdf5f5"/><path d="M202.33,129.8l20.76.43q.07,6.24.14,12.46l-20.91.48-1.46-.73q-.08-5.85-.16-11.71Z" fill="#cebbbc"/><path d="M200.91,154l1.48-.53,20.76.31v12.55l-20.75.32-1.51-.58Q200.89,160,200.91,154Z" fill="#ccc5c5"/><path d="M223.15,153.78l-20.76-.31c0-3.43,0-6.87-.07-10.3l20.91-.48C223.21,146.39,223.18,150.08,223.15,153.78Z" fill="#c13d1e"/><path d="M202.4,166.65l20.75-.32.24,9.88a94.11,94.11,0,0,1-21-.05Z" fill="#c13d1e"/><path d="M200.91,154q0,6,0,12.07c-10.32.1-20.65,0-31,.4-5.32.23-5.23-2.74-5.25-6.47s0-6.63,5.28-6.4C180.26,154.05,190.59,153.9,200.91,154Z" fill="#fdf5f5"/><path d="M200.75,177.18q.1,5.82.23,11.64c-10.34.12-20.67.08-31,.44-4.4.15-5.45-1.76-5.27-5.66.17-3.55-.38-7,5-6.84C180.08,177.08,190.41,177.06,200.75,177.18Z" fill="#fefafa"/><path d="M200.7,130.73q.09,5.86.16,11.71c-10.33.11-20.66.05-31,.42-4.48.16-5.35-1.88-5.16-5.7.18-3.52-.38-7,5-6.86C180.05,130.6,190.38,130.6,200.7,130.73Z" fill="#fefafa"/></svg>