<svg id="Layer_1" data-name="Layer 1" xmlns="http://www.w3.org/2000/svg" xmlns:xlink="http://www.w3.org/1999/xlink" viewBox="0 0 690 687"><defs><style>.cls-1,.cls-17{fill:none;}.cls-2{fill:#273274;}.cls-3{clip-path:url(#clip-path);}.cls-4{opacity:0.8;}.cls-5{clip-path:url(#clip-path-2);}.cls-14,.cls-6,.cls-7,.cls-8{fill:#ff544e;}.cls-10,.cls-11,.cls-12,.cls-14,.cls-15,.cls-16,.cls-7,.cls-8{stroke:#273274;}.cls-10,.cls-11,.cls-12,.cls-14,.cls-15,.cls-16,.cls-17,.cls-7,.cls-8{stroke-miterlimit:10;}.cls-16,.cls-7{stroke-width:3px;}.cls-11,.cls-15,.cls-8{stroke-width:2px;}.cls-10,.cls-11,.cls-16,.cls-9{fill:#f7f7f7;}.cls-10,.cls-12{stroke-width:4px;}.cls-12,.cls-13,.cls-15{fill:#ff8c58;}.cls-14{stroke-width:5px;}.cls-17{stroke:#fff;stroke-width:16px;}.cls-18{fill:#fff;}</style><clipPath id="clip-path"><circle class="cls-1" cx="345" cy="332.45" r="118.45"/></clipPath><clipPath id="clip-path-2"><rect class="cls-1" x="67.09" y="269.19" width="677.76" height="184.3"/></clipPath></defs><title>landing hactober cafe</title><rect class="cls-2" y="-1.5" width="692" height="690"/><g class="cls-3"><g class="cls-4"><g class="cls-5"><path class="cls-6" d="M683.93,397.14q0-3.69,0-7.37c0-5.57,0-11.14,0-16.71a3.34,3.34,0,0,0-.68-2.09c-2.12-2.93-4.21-5.87-6.26-8.86-.42-.61-1.29-1.51-.61-2.11s1.46.34,2,.85c1.79,1.62,3.51,3.3,5.52,5.21,0-3.64-.13-7,0-10.33s.35-6.6,1.71-9.83a3.53,3.53,0,0,1,1,2.45,133.58,133.58,0,0,1,1.2,16.49c.54,16,.84,32,1.15,47.94.05,2.76.18,5.51.22,8.27,0,.85.17,1.07,1.05.77a32.18,32.18,0,0,0,10.85-6.71c7.28-6.46,12.36-14.27,14.23-24,1.37-7.08.49-14-1.54-20.84a62.05,62.05,0,0,0-16-27.1,35.63,35.63,0,0,0-4.43-3.59,11.53,11.53,0,0,0-12.13-1.19c-8.25,3.65-14.84,9.36-20.43,16.3a43.13,43.13,0,0,0-9.32,19.18c-1.62,8.65.17,16.77,4.31,24.37,5.5,10.12,13.27,17.9,24,22.42.87.37,1.8.6,2.7.91s1.21.14,1.2-.86q0-7.71,0-15.42a2.59,2.59,0,0,0-.77-1.75c-4-4.9-8.2-9.64-11.94-14.75a20.18,20.18,0,0,1-2.68-5.17c-.14-.38-.58-.93,0-1.28s.82.15,1.13.41c1.13.94,2.27,1.88,3.33,2.91C676.7,389.32,680.09,393.31,683.93,397.14Z"/><circle class="cls-7" cx="665.23" cy="379.82" r="2.38"/><circle class="cls-8" cx="673.08" cy="357.22" r="2.02"/><path class="cls-6" d="M686,462.52l-2,0a4.65,4.65,0,0,0-.54-1q0-3,.06-6a1.29,1.29,0,0,0,.47-.79c.05-.55-.36-1.08-.51-1.62.07.19.1-.54.13-.68a2.11,2.11,0,0,0-.34-2.16l.31,0q0-1.74,0-3.48c0-2.94,0-5.88,0-8.82a1.19,1.19,0,0,0,.07-1.44v0c.09-.14-.16-.39-.19-.54a3,3,0,0,1-.06-.52c.17-.18.19-.27.15-.29a.83.83,0,0,0,0-.88c.28-3.47-.79-6.86,2.77-10.18,1.63.35,1.62.83,1.84,1.25,1.4,2.75,1.64,5.52,1.94,8.29.87,8.19,1.37,16.39,1.87,24.59.09,1.41.35,2.82.33,4.23a.65.65,0,0,0,0,.09C690.25,462.53,688.16,462.49,686,462.52Z"/><path class="cls-9" d="M619.78,387.43q0-5.08,0-10.17c0-7.68,0-15.36,0-23a4.6,4.6,0,0,0-.94-2.89c-2.92-4-5.81-8.1-8.63-12.21-.58-.85-1.78-2.08-.84-2.91s2,.47,2.78,1.17c2.47,2.23,4.85,4.56,7.62,7.19,0-5-.19-9.64.05-14.25s.49-9.11,2.36-13.56a4.86,4.86,0,0,1,1.43,3.38c1.2,7.53,1.4,15.14,1.65,22.75.75,22,1.16,44.07,1.59,66.11.07,3.8.25,7.6.3,11.41,0,1.17.23,1.48,1.45,1.06a44.38,44.38,0,0,0,15-9.25c10-8.92,17-19.68,19.63-33,1.89-9.76.67-19.34-2.13-28.74a85.58,85.58,0,0,0-22-37.38,49.14,49.14,0,0,0-6.11-4.95,15.89,15.89,0,0,0-16.72-1.65c-11.37,5-20.46,12.91-28.18,22.48-6.3,7.82-11,16.48-12.85,26.45-2.23,11.93.23,23.12,5.94,33.61,7.59,14,18.3,24.69,33.15,30.92,1.2.5,2.48.83,3.73,1.25s1.66.19,1.66-1.19q0-10.63.07-21.27a3.57,3.57,0,0,0-1.07-2.42c-5.51-6.76-11.31-13.29-16.46-20.34a27.83,27.83,0,0,1-3.7-7.13c-.19-.53-.8-1.28,0-1.77.58-.37,1.13.21,1.55.57,1.56,1.3,3.13,2.6,4.59,4C609.82,376.65,614.49,382.15,619.78,387.43Z"/><circle class="cls-10" cx="603.4" cy="332.8" r="3.28"/><path class="cls-9" d="M622.7,477.6l-2.77,0a6.42,6.42,0,0,0-.74-1.38q0-4.12.08-8.23a1.78,1.78,0,0,0,.65-1.09c.07-.76-.5-1.49-.7-2.24.1.26.13-.75.18-.93a2.92,2.92,0,0,0-.46-3l.43,0q0-2.4,0-4.8c0-4.05,0-8.11,0-12.16a1.63,1.63,0,0,0,.1-2l0,0c.13-.2-.22-.54-.27-.74a4.18,4.18,0,0,1-.08-.72c.23-.24.26-.37.21-.4a1.15,1.15,0,0,0-.06-1.22c.39-4.78-1.09-9.46,3.83-14,2.25.48,2.23,1.15,2.53,1.73,1.94,3.79,2.27,7.61,2.67,11.43,1.2,11.3,1.9,22.61,2.58,33.91.12,1.95.48,3.89.46,5.83a.9.9,0,0,0,0,.13C628.49,477.61,625.62,477.55,622.7,477.6Z"/><circle class="cls-11" cx="595.19" cy="363.25" r="2.66"/><path class="cls-6" d="M528.95,353.64q0-4.59,0-9.18c0-6.94,0-13.88,0-20.82a4.16,4.16,0,0,1,.85-2.61c2.64-3.65,5.25-7.32,7.79-11,.52-.77,1.61-1.88.76-2.63s-1.82.43-2.51,1.06c-2.23,2-4.38,4.12-6.88,6.5,0-4.53.17-8.71,0-12.87s-.44-8.23-2.14-12.25a4.4,4.4,0,0,0-1.3,3.05A166.44,166.44,0,0,0,524,313.4c-.67,19.9-1,39.82-1.43,59.73-.07,3.44-.22,6.87-.27,10.31,0,1.06-.21,1.33-1.31,1A40.09,40.09,0,0,1,507.43,376c-9.07-8.05-15.4-17.78-17.73-29.85-1.7-8.82-.61-17.47,1.92-26a77.32,77.32,0,0,1,19.92-33.77,44.4,44.4,0,0,1,5.52-4.47,14.36,14.36,0,0,1,15.11-1.49c10.27,4.55,18.49,11.66,25.46,20.31,5.69,7.06,9.92,14.89,11.61,23.89,2,10.78-.21,20.89-5.37,30.37-6.86,12.6-16.53,22.31-29.95,27.93-1.09.46-2.24.75-3.37,1.13s-1.5.17-1.5-1.08q0-9.61-.06-19.22a3.23,3.23,0,0,1,1-2.18c5-6.11,10.21-12,14.87-18.38a25.15,25.15,0,0,0,3.34-6.44c.17-.48.72-1.16,0-1.6-.53-.34-1,.19-1.4.51-1.41,1.18-2.83,2.35-4.15,3.62C538,343.9,533.72,348.87,528.95,353.64Z"/><circle class="cls-2" cx="543.74" cy="304.28" r="2.96"/><path class="cls-6" d="M526.31,471.17l2.51.08a13.93,13.93,0,0,1,.67-2.18q0-6.52-.07-13a3.67,3.67,0,0,1-.59-1.73,18,18,0,0,1,.63-3.55c-.09.41-.12-1.19-.16-1.48a7.54,7.54,0,0,1,.42-4.72l-.39-.05q0-3.81,0-7.61c0-6.42,0-12.84,0-19.27a4.21,4.21,0,0,1-.09-3.15l0-.07c-.12-.31.2-.86.24-1.17s.06-.76.08-1.13c-.21-.38-.23-.58-.19-.63a3,3,0,0,1,.06-1.93c-.35-7.58,1-15-3.46-22.26a3.08,3.08,0,0,0-2.29,2.74c-1.75,6-2,12.06-2.42,18.12-1.09,17.91-1.71,35.82-2.33,53.74-.11,3.08-.43,6.16-.41,9.25,0,.07,0,.14,0,.2C521.08,471.2,523.67,471.1,526.31,471.17Z"/><path class="cls-6" d="M220.79,433q0-3.14,0-6.28c0-4.74,0-9.49,0-14.23a2.84,2.84,0,0,1,.58-1.78c1.8-2.5,3.59-5,5.33-7.54.36-.52,1.1-1.28.52-1.8s-1.24.29-1.72.72c-1.52,1.38-3,2.81-4.7,4.44,0-3.1.11-6,0-8.8a24.13,24.13,0,0,0-1.46-8.37,3,3,0,0,0-.89,2.09,113.76,113.76,0,0,0-1,14c-.46,13.61-.72,27.22-1,40.83,0,2.35-.15,4.7-.18,7,0,.72-.14.91-.9.65a27.41,27.41,0,0,1-9.24-5.71c-6.2-5.51-10.53-12.15-12.12-20.4a36.92,36.92,0,0,1,1.31-17.75,52.85,52.85,0,0,1,13.61-23.08,30.35,30.35,0,0,1,3.77-3.06A9.82,9.82,0,0,1,223,383a46.52,46.52,0,0,1,17.4,13.89,36.73,36.73,0,0,1,7.93,16.33c1.38,7.37-.14,14.28-3.67,20.76-4.69,8.62-11.3,15.25-20.47,19.09-.74.31-1.53.51-2.3.77s-1,.12-1-.74q0-6.57,0-13.13a2.21,2.21,0,0,1,.66-1.49c3.4-4.18,7-8.21,10.17-12.56a17.19,17.19,0,0,0,2.28-4.4c.12-.33.49-.79,0-1.09s-.7.13-1,.35c-1,.8-1.93,1.6-2.84,2.47C226.94,426.33,224.06,429.73,220.79,433Z"/><circle class="cls-2" cx="230.9" cy="399.25" r="2.02"/><path class="cls-6" d="M219,488.67l1.71,0a4,4,0,0,1,.46-.85q0-2.54-.05-5.09a1.1,1.1,0,0,1-.4-.68c0-.47.31-.92.43-1.38-.06.16-.08-.46-.11-.58a1.8,1.8,0,0,1,.29-1.84l-.27,0q0-1.48,0-3c0-2.5,0-5,0-7.51a1,1,0,0,1-.06-1.23v0c-.08-.12.13-.34.16-.46a2.58,2.58,0,0,0,.05-.44c-.14-.15-.16-.23-.13-.25a.71.71,0,0,1,0-.75c-.24-3,.67-5.84-2.36-8.67-1.39.3-1.38.71-1.56,1.07a19.1,19.1,0,0,0-1.65,7.06c-.74,7-1.17,14-1.59,20.94-.07,1.2-.3,2.4-.28,3.6a.55.55,0,0,1,0,.08C215.41,488.68,217.18,488.64,219,488.67Z"/><path class="cls-9" d="M138.46,422.45q0-2.26,0-4.51c0-3.41,0-6.82,0-10.23a2,2,0,0,1,.42-1.28c1.3-1.79,2.58-3.6,3.83-5.42.26-.38.79-.92.37-1.29s-.89.21-1.24.52c-1.1,1-2.15,2-3.38,3.19,0-2.23.08-4.28,0-6.32a17.35,17.35,0,0,0-1-6,2.16,2.16,0,0,0-.64,1.5,81.78,81.78,0,0,0-.73,10.1c-.33,9.78-.52,19.56-.7,29.35,0,1.69-.11,3.38-.13,5.06,0,.52-.1.66-.64.47a19.7,19.7,0,0,1-6.64-4.11,25.89,25.89,0,0,1-8.71-14.66,26.54,26.54,0,0,1,.94-12.76,38,38,0,0,1,9.79-16.59,21.81,21.81,0,0,1,2.71-2.2,7.06,7.06,0,0,1,7.42-.73,33.44,33.44,0,0,1,12.51,10,26.4,26.4,0,0,1,5.7,11.74,22,22,0,0,1-2.64,14.92,29.56,29.56,0,0,1-14.72,13.72c-.53.22-1.1.37-1.65.55s-.74.08-.74-.53q0-4.72,0-9.44a1.59,1.59,0,0,1,.47-1.07c2.45-3,5-5.9,7.31-9a12.36,12.36,0,0,0,1.64-3.16c.08-.23.36-.57,0-.78s-.5.09-.69.25c-.69.58-1.39,1.15-2,1.78C142.88,417.66,140.8,420.1,138.46,422.45Z"/><circle class="cls-11" cx="145.73" cy="398.2" r="1.45"/><path class="cls-9" d="M137.16,462.47l1.23,0a2.85,2.85,0,0,1,.33-.61q0-1.83,0-3.66a.79.79,0,0,1-.29-.49c0-.34.22-.66.31-1,0,.11-.06-.33-.08-.41a1.29,1.29,0,0,1,.21-1.32l-.19,0q0-1.07,0-2.13c0-1.8,0-3.6,0-5.4a.73.73,0,0,1,0-.88v0c-.06-.09.1-.24.12-.33a1.85,1.85,0,0,0,0-.32c-.1-.11-.11-.16-.09-.18a.51.51,0,0,1,0-.54c-.17-2.12.48-4.2-1.7-6.23-1,.21-1,.51-1.12.77a13.73,13.73,0,0,0-1.19,5.08c-.53,5-.84,10-1.15,15.05-.05.86-.21,1.73-.2,2.59a.4.4,0,0,1,0,.06C134.59,462.48,135.86,462.45,137.16,462.47Z"/><path class="cls-6" d="M417.25,376.45q0-4.47,0-8.94c0-6.75,0-13.5,0-20.26a4,4,0,0,1,.83-2.54c2.57-3.55,5.11-7.12,7.58-10.74.51-.75,1.56-1.82.74-2.56s-1.77.42-2.45,1c-2.17,2-4.26,4-6.7,6.32,0-4.41.16-8.48,0-12.52s-.43-8-2.08-11.92a4.28,4.28,0,0,0-1.26,3,161.93,161.93,0,0,0-1.45,20c-.66,19.37-1,38.74-1.4,58.11-.06,3.34-.22,6.68-.26,10,0,1-.2,1.3-1.28.93a39,39,0,0,1-13.16-8.13c-8.83-7.84-15-17.3-17.25-29-1.66-8.58-.59-17,1.87-25.27a75.22,75.22,0,0,1,19.38-32.86,43.19,43.19,0,0,1,5.37-4.35,14,14,0,0,1,14.7-1.45c10,4.42,18,11.35,24.77,19.76,5.53,6.87,9.65,14.49,11.29,23.25,2,10.48-.2,20.33-5.22,29.55-6.67,12.26-16.08,21.7-29.14,27.18-1.06.44-2.18.73-3.27,1.1s-1.46.17-1.46-1q0-9.35-.06-18.7a3.14,3.14,0,0,1,.94-2.12c4.84-5.94,9.94-11.69,14.47-17.88a24.47,24.47,0,0,0,3.25-6.27c.17-.46.7-1.12,0-1.55-.51-.33-1,.19-1.36.5-1.37,1.14-2.75,2.28-4,3.52C426,367,421.9,371.8,417.25,376.45Z"/><circle class="cls-7" cx="440.51" cy="355.44" r="2.88"/><circle class="cls-8" cx="430.41" cy="328.04" r="2.45"/><path class="cls-6" d="M414.69,455.7l2.44,0a5.64,5.64,0,0,1,.65-1.21q0-3.62-.07-7.24a1.56,1.56,0,0,1-.57-1c-.06-.67.44-1.31.61-2-.09.23-.12-.66-.16-.82a2.56,2.56,0,0,1,.41-2.62l-.38,0q0-2.11,0-4.22c0-3.56,0-7.12,0-10.69a1.44,1.44,0,0,1-.09-1.75l0,0c-.11-.17.19-.48.23-.65a3.67,3.67,0,0,0,.07-.63c-.2-.21-.23-.32-.19-.35a1,1,0,0,1,.06-1.07c-.34-4.2,1-8.31-3.36-12.35-2,.42-2,1-2.23,1.52-1.7,3.33-2,6.69-2.35,10.05-1.06,9.93-1.67,19.87-2.27,29.81-.1,1.71-.42,3.42-.4,5.13a.79.79,0,0,1,0,.11C409.6,455.71,412.12,455.66,414.69,455.7Z"/><path class="cls-6" d="M104.49,376.25q0-3.83,0-7.66c0-5.79,0-11.58,0-17.37a3.47,3.47,0,0,1,.71-2.18c2.2-3,4.38-6.11,6.5-9.21.44-.64,1.34-1.56.63-2.19s-1.52.36-2.1.88c-1.86,1.68-3.65,3.44-5.74,5.42,0-3.78.14-7.27,0-10.74s-.37-6.86-1.78-10.22a3.67,3.67,0,0,0-1.08,2.55,138.85,138.85,0,0,0-1.25,17.15c-.56,16.61-.87,33.22-1.2,49.83-.06,2.87-.19,5.73-.22,8.6,0,.88-.17,1.11-1.09.8a33.45,33.45,0,0,1-11.28-7C79,388.22,73.69,380.1,71.74,370c-1.42-7.36-.51-14.58,1.6-21.67A64.5,64.5,0,0,1,90,320.2a37,37,0,0,1,4.6-3.73,12,12,0,0,1,12.6-1.24c8.57,3.79,15.42,9.73,21.24,16.95,4.74,5.89,8.28,12.42,9.68,19.93,1.68,9-.18,17.43-4.48,25.34-5.72,10.52-13.79,18.61-25,23.3-.91.38-1.87.62-2.81.94s-1.25.14-1.25-.9q0-8-.05-16a2.69,2.69,0,0,1,.8-1.82c4.15-5.1,8.52-10,12.41-15.33a21,21,0,0,0,2.79-5.37c.14-.4.6-1,0-1.33s-.85.16-1.17.43c-1.18,1-2.36,2-3.46,3C112,368.13,108.47,372.27,104.49,376.25Z"/><circle class="cls-8" cx="124.43" cy="358.24" r="2.47"/><circle class="cls-2" cx="116.83" cy="335.07" r="2.47"/><path class="cls-6" d="M102.29,457.82l2.09.05a7.43,7.43,0,0,1,.56-1.39q0-4.16-.06-8.32a2,2,0,0,1-.49-1.11,9.07,9.07,0,0,1,.53-2.26c-.07.26-.1-.76-.14-.94a3.77,3.77,0,0,1,.35-3l-.32,0q0-2.43,0-4.86c0-4.1,0-8.19,0-12.29a2.11,2.11,0,0,1-.08-2l0,0c-.1-.2.16-.55.2-.75a5.6,5.6,0,0,0,.06-.72c-.17-.25-.19-.37-.16-.4a1.5,1.5,0,0,1,0-1.23c-.3-4.83.82-9.56-2.88-14.19-1.7.48-1.68,1.16-1.91,1.75-1.46,3.83-1.71,7.69-2,11.56-.91,11.42-1.43,22.85-1.95,34.27-.09,2-.36,3.93-.35,5.9a1.21,1.21,0,0,1,0,.13C97.92,457.83,100.09,457.77,102.29,457.82Z"/><circle class="cls-2" cx="380.28" cy="408.73" r="2.69"/><circle class="cls-12" cx="372" cy="383.47" r="2.69"/><path class="cls-13" d="M356.14,502.47l2.28,0a5.28,5.28,0,0,1,.61-1.13q0-3.38-.07-6.77a1.46,1.46,0,0,1-.53-.9c-.06-.62.41-1.22.57-1.84-.08.21-.11-.62-.15-.77a2.4,2.4,0,0,1,.38-2.45l-.35,0q0-2,0-3.95c0-3.33,0-6.66,0-10a1.34,1.34,0,0,1-.08-1.64l0,0c-.1-.16.18-.45.22-.61a3.43,3.43,0,0,0,.07-.59c-.19-.2-.21-.3-.17-.33a.94.94,0,0,1,.05-1c-.32-3.93.89-7.77-3.15-11.54-1.85.39-1.84.94-2.08,1.42-1.59,3.11-1.86,6.26-2.2,9.4-1,9.29-1.56,18.58-2.12,27.87-.1,1.6-.39,3.2-.38,4.79a.74.74,0,0,1,0,.1C351.38,502.49,353.74,502.44,356.14,502.47Z"/><path class="cls-6" d="M264,373.21q0-3.83,0-7.66c0-5.79,0-11.58,0-17.37a3.47,3.47,0,0,1,.71-2.18c2.2-3,4.38-6.11,6.5-9.21.44-.64,1.34-1.56.63-2.19s-1.52.36-2.1.88c-1.86,1.68-3.65,3.44-5.74,5.42,0-3.78.14-7.27,0-10.74s-.37-6.86-1.78-10.22a3.67,3.67,0,0,0-1.08,2.55,138.85,138.85,0,0,0-1.25,17.15c-.56,16.61-.87,33.22-1.2,49.83-.06,2.87-.19,5.73-.22,8.6,0,.88-.17,1.11-1.09.8a33.45,33.45,0,0,1-11.28-7c-7.57-6.72-12.85-14.83-14.79-24.9-1.42-7.36-.51-14.58,1.6-21.67a64.5,64.5,0,0,1,16.62-28.17,37,37,0,0,1,4.6-3.73,12,12,0,0,1,12.6-1.24c8.57,3.79,15.42,9.73,21.24,16.95,4.74,5.89,8.28,12.42,9.68,19.93,1.68,9-.18,17.43-4.48,25.34-5.72,10.52-13.79,18.61-25,23.3-.91.38-1.87.62-2.81.94s-1.25.14-1.25-.9q0-8-.05-16a2.69,2.69,0,0,1,.8-1.82c4.15-5.1,8.52-10,12.41-15.33a21,21,0,0,0,2.79-5.37c.14-.4.6-1,0-1.33s-.85.16-1.17.43c-1.18,1-2.36,2-3.46,3C271.53,365.09,268,369.23,264,373.21Z"/><circle class="cls-14" cx="283.96" cy="355.2" r="2.47"/><circle class="cls-8" cx="276.36" cy="332.03" r="2.47"/><path class="cls-6" d="M261.82,457l2.09.05a7.93,7.93,0,0,1,.56-1.45q0-4.33-.06-8.67a2.12,2.12,0,0,1-.49-1.15,9.78,9.78,0,0,1,.53-2.36c-.07.27-.1-.79-.14-1a4.07,4.07,0,0,1,.35-3.13l-.32,0q0-2.53,0-5.06c0-4.27,0-8.53,0-12.8a2.28,2.28,0,0,1-.08-2.1l0,0c-.1-.21.16-.57.2-.78a6.07,6.07,0,0,0,.06-.75c-.17-.26-.19-.38-.16-.42a1.62,1.62,0,0,1,0-1.28c-.3-5,.82-10-2.88-14.78-1.7.5-1.68,1.21-1.91,1.82-1.46,4-1.71,8-2,12-.91,11.9-1.43,23.8-1.95,35.7-.09,2-.36,4.09-.35,6.14a1.32,1.32,0,0,1,0,.13C257.45,457,259.62,457,261.82,457Z"/><path class="cls-13" d="M568.82,405.84q0-3.38,0-6.77c0-5.11,0-10.23,0-15.34a3.06,3.06,0,0,1,.63-1.92c1.94-2.69,3.87-5.39,5.74-8.13.39-.56,1.19-1.38.56-1.94s-1.34.31-1.85.78c-1.64,1.48-3.23,3-5.07,4.79,0-3.34.12-6.42,0-9.49a26,26,0,0,0-1.57-9,3.24,3.24,0,0,0-1,2.25,122.66,122.66,0,0,0-1.1,15.15c-.5,14.67-.77,29.34-1.06,44,0,2.53-.16,5.06-.2,7.6,0,.78-.15,1-1,.7a29.55,29.55,0,0,1-10-6.16c-6.68-5.94-11.35-13.1-13.07-22-1.26-6.5-.45-12.88,1.42-19.14A57,57,0,0,1,556,356.32a32.72,32.72,0,0,1,4.07-3.3,10.58,10.58,0,0,1,11.13-1.1c7.57,3.35,13.63,8.59,18.76,15a39.6,39.6,0,0,1,8.55,17.61c1.49,7.94-.15,15.4-4,22.38-5.05,9.29-12.18,16.44-22.07,20.59-.8.34-1.65.55-2.48.83s-1.11.13-1.1-.79q0-7.08,0-14.16a2.38,2.38,0,0,1,.71-1.61c3.67-4.5,7.53-8.85,11-13.55a18.53,18.53,0,0,0,2.46-4.75c.13-.35.53-.85,0-1.18s-.75.14-1,.38c-1,.87-2.09,1.73-3.06,2.67C575.46,398.66,572.34,402.32,568.82,405.84Z"/><circle class="cls-13" cx="586.44" cy="389.93" r="2.18"/><path class="cls-13" d="M566.87,465.87l1.85,0a4.27,4.27,0,0,1,.49-.92q0-2.74-.06-5.48a1.18,1.18,0,0,1-.43-.73c0-.51.33-1,.46-1.49-.07.17-.09-.5-.12-.62a1.94,1.94,0,0,1,.31-2l-.29,0q0-1.6,0-3.2c0-2.7,0-5.4,0-8.1A1.09,1.09,0,0,1,569,442v0c-.08-.13.14-.36.18-.49a2.78,2.78,0,0,0,.06-.48c-.15-.16-.17-.24-.14-.27a.76.76,0,0,1,0-.81c-.26-3.18.72-6.3-2.55-9.35-1.5.32-1.49.76-1.69,1.15a20.6,20.6,0,0,0-1.78,7.61c-.8,7.52-1.26,15.05-1.72,22.58-.08,1.3-.32,2.59-.31,3.88a.6.6,0,0,1,0,.08C563,465.88,564.93,465.84,566.87,465.87Z"/><path class="cls-13" d="M184.92,383q0-4.71,0-9.43c0-7.12,0-14.25,0-21.37a4.27,4.27,0,0,1,.87-2.68c2.71-3.75,5.39-7.51,8-11.33.54-.79,1.65-1.93.78-2.7s-1.86.44-2.58,1.08c-2.29,2.07-4.49,4.23-7.07,6.67,0-4.65.17-8.94,0-13.21s-.45-8.44-2.19-12.57a4.51,4.51,0,0,0-1.33,3.13,170.83,170.83,0,0,0-1.53,21.09c-.69,20.43-1.08,40.87-1.47,61.31-.07,3.53-.23,7.05-.28,10.58,0,1.08-.21,1.37-1.35,1A41.15,41.15,0,0,1,162.83,406c-9.31-8.27-15.81-18.25-18.2-30.63-1.75-9.05-.62-17.93,2-26.66A79.36,79.36,0,0,1,167.05,314a45.57,45.57,0,0,1,5.66-4.59,14.74,14.74,0,0,1,15.51-1.53c10.55,4.67,19,12,26.13,20.85,5.84,7.25,10.18,15.28,11.91,24.53,2.07,11.06-.22,21.44-5.51,31.17-7,12.94-17,22.9-30.74,28.67-1.12.47-2.3.77-3.45,1.16s-1.54.18-1.54-1.11q0-9.86-.06-19.72a3.31,3.31,0,0,1,1-2.24c5.11-6.27,10.48-12.33,15.27-18.87a25.81,25.81,0,0,0,3.43-6.61c.17-.49.74-1.19,0-1.64-.54-.35-1,.2-1.44.53-1.45,1.21-2.9,2.41-4.26,3.72C194.16,373,189.83,378.1,184.92,383Z"/><circle class="cls-15" cx="200.11" cy="332.33" r="3.04"/><path class="cls-13" d="M182.21,466.61l2.57,0a6,6,0,0,1,.69-1.28q0-3.82-.08-7.64a1.65,1.65,0,0,1-.6-1c-.06-.7.46-1.38.65-2.08-.09.24-.13-.7-.17-.86a2.7,2.7,0,0,1,.43-2.76l-.4,0q0-2.23,0-4.46c0-3.76,0-7.52,0-11.27a1.52,1.52,0,0,1-.09-1.85l0,0c-.12-.18.2-.51.25-.69a3.87,3.87,0,0,0,.08-.66c-.21-.23-.24-.34-.2-.37a1.06,1.06,0,0,1,.06-1.13c-.36-4.44,1-8.77-3.55-13-2.09.44-2.07,1.06-2.35,1.6-1.8,3.51-2.1,7.06-2.48,10.6-1.12,10.48-1.76,21-2.39,31.45-.11,1.8-.44,3.61-.42,5.41a.83.83,0,0,1,0,.12C176.84,466.63,179.51,466.56,182.21,466.61Z"/><circle class="cls-2" cx="208.39" cy="360.6" r="2.47"/><circle class="cls-8" cx="237.56" cy="416.5" r="2.47"/><path class="cls-9" d="M312.44,371.55q0-4.71,0-9.43c0-7.12,0-14.25,0-21.37a4.27,4.27,0,0,1,.87-2.68c2.71-3.75,5.39-7.51,8-11.33.54-.79,1.65-1.93.78-2.7s-1.86.44-2.58,1.08c-2.29,2.07-4.49,4.23-7.07,6.67,0-4.65.17-8.94,0-13.21s-.45-8.44-2.19-12.57a4.51,4.51,0,0,0-1.33,3.13,170.83,170.83,0,0,0-1.53,21.09c-.69,20.43-1.08,40.87-1.47,61.31-.07,3.53-.23,7.05-.28,10.58,0,1.08-.21,1.37-1.35,1a41.15,41.15,0,0,1-13.88-8.58c-9.31-8.27-15.81-18.25-18.2-30.63-1.75-9.05-.62-17.93,2-26.66a79.36,79.36,0,0,1,20.44-34.66,45.57,45.57,0,0,1,5.66-4.59,14.74,14.74,0,0,1,15.51-1.53c10.55,4.67,19,12,26.13,20.85,5.84,7.25,10.18,15.28,11.91,24.53,2.07,11.06-.22,21.44-5.51,31.17-7,12.94-17,22.9-30.74,28.67-1.12.47-2.3.77-3.45,1.16s-1.54.18-1.54-1.11q0-9.86-.06-19.72a3.31,3.31,0,0,1,1-2.24c5.11-6.27,10.48-12.33,15.27-18.87a25.81,25.81,0,0,0,3.43-6.61c.17-.49.74-1.19,0-1.64-.54-.35-1,.2-1.44.53-1.45,1.21-2.9,2.41-4.26,3.72C321.68,361.55,317.35,366.65,312.44,371.55Z"/><circle class="cls-16" cx="327.63" cy="320.89" r="3.04"/><path class="cls-9" d="M309.73,455.17l2.57,0a6,6,0,0,1,.69-1.28q0-3.82-.08-7.64a1.65,1.65,0,0,1-.6-1c-.06-.7.46-1.38.65-2.08-.09.24-.13-.7-.17-.86a2.7,2.7,0,0,1,.43-2.76l-.4,0q0-2.23,0-4.46c0-3.76,0-7.52,0-11.27a1.52,1.52,0,0,1-.09-1.85l0,0c-.12-.18.2-.51.25-.69a3.87,3.87,0,0,0,.08-.66c-.21-.23-.24-.34-.2-.37a1.06,1.06,0,0,1,.06-1.13c-.36-4.44,1-8.77-3.55-13-2.09.44-2.07,1.06-2.35,1.6-1.8,3.51-2.1,7.06-2.48,10.6-1.12,10.48-1.76,21-2.39,31.45-.11,1.8-.44,3.61-.42,5.41a.83.83,0,0,1,0,.12C304.36,455.18,307,455.12,309.73,455.17Z"/><circle class="cls-11" cx="335.24" cy="349.13" r="2.47"/><path class="cls-13" d="M358.54,428.37q0-4.18,0-8.35c0-6.31,0-12.63,0-18.94a3.78,3.78,0,0,1,.77-2.37c2.4-3.32,4.78-6.66,7.09-10,.48-.7,1.46-1.71.69-2.39s-1.65.39-2.29,1c-2,1.83-4,3.75-6.26,5.91,0-4.12.15-7.92,0-11.71s-.4-7.48-1.94-11.14a4,4,0,0,0-1.18,2.78,151.4,151.4,0,0,0-1.36,18.7c-.61,18.11-1,36.22-1.3,54.33-.06,3.13-.2,6.25-.24,9.38,0,1-.19,1.21-1.19.87a36.47,36.47,0,0,1-12.3-7.6c-8.25-7.33-14-16.17-16.13-27.15-1.55-8-.55-15.89,1.75-23.62a70.33,70.33,0,0,1,18.12-30.72,40.39,40.39,0,0,1,5-4.07,13.06,13.06,0,0,1,13.74-1.35c9.35,4.14,16.82,10.61,23.16,18.48,5.17,6.43,9,13.54,10.56,21.74,1.84,9.8-.19,19-4.88,27.63-6.24,11.47-15,20.29-27.24,25.41-1,.41-2,.68-3.06,1s-1.37.16-1.36-1q0-8.74-.06-17.48a2.94,2.94,0,0,1,.88-2c4.53-5.56,9.29-10.93,13.53-16.72a22.88,22.88,0,0,0,3-5.86c.16-.43.66-1.05,0-1.45s-.93.17-1.28.47c-1.28,1.07-2.57,2.13-3.77,3.29C366.73,419.51,362.88,424,358.54,428.37Z"/><circle class="cls-2" cx="579.73" cy="369.46" r="2.18"/><circle class="cls-2" cx="369.66" cy="383.33" r="2.18"/><circle class="cls-15" cx="380.45" cy="406.32" r="3.04"/></g></g></g><circle class="cls-17" cx="345" cy="334.72" r="118.45"/><path class="cls-18" d="M220.94,122h3.77V110.22a2.07,2.07,0,0,0-.1-.73,1,1,0,0,0-.29-.42,1,1,0,0,0-.45-.21,2.92,2.92,0,0,0-.57-.05,5.55,5.55,0,0,0-1.13.14,9.42,9.42,0,0,0-1.42.44,11.91,11.91,0,0,0-1.5.71,7.3,7.3,0,0,0-1.35,1,4.84,4.84,0,0,0-1,1.2,2.87,2.87,0,0,0-.37,1.43,2.62,2.62,0,0,0,.18,1.06,1.66,1.66,0,0,0,.4.59,1.06,1.06,0,0,0,.47.25,1.83,1.83,0,0,0,.34.05,1.8,1.8,0,0,0,.85-.18,5,5,0,0,0,.6-.37l.51-.37a.9.9,0,0,1,.55-.18,1.41,1.41,0,0,1,.53.11,1.51,1.51,0,0,1,.52.36,2.07,2.07,0,0,1,.4.65,2.6,2.6,0,0,1,.17,1,3,3,0,0,1-.32,1.43,3.19,3.19,0,0,1-.83,1,3.43,3.43,0,0,1-1.16.6,4.46,4.46,0,0,1-1.29.2,4.51,4.51,0,0,1-1.79-.34,4,4,0,0,1-1.36-.94,4,4,0,0,1-.85-1.41,5,5,0,0,1-.29-1.72,6.5,6.5,0,0,1,.52-2.62,7.38,7.38,0,0,1,1.42-2.14,9.59,9.59,0,0,1,2.11-1.67,13.91,13.91,0,0,1,2.62-1.19,17.61,17.61,0,0,1,2.94-.71,20,20,0,0,1,3.07-.24,8.54,8.54,0,0,1,2.64.32,3.52,3.52,0,0,1,1.39.78,1.8,1.8,0,0,1,.53,1,5.24,5.24,0,0,1,.08.83V122h7.62V112a16.81,16.81,0,0,1,.89-5.82,11.68,11.68,0,0,1,2.3-3.93,8.64,8.64,0,0,1,3.15-2.22,9.29,9.29,0,0,1,3.46-.69,13.81,13.81,0,0,1,2.25.18,7.75,7.75,0,0,1,1.86.53,3.7,3.7,0,0,1,1.27.88,1.78,1.78,0,0,1,.48,1.23,1.86,1.86,0,0,1-.35,1.1,1.36,1.36,0,0,1-.38.36.84.84,0,0,1-.45.13,1,1,0,0,1-.66-.23,3.07,3.07,0,0,1-.55-.57q-.26-.34-.51-.75a5,5,0,0,0-.56-.75,3,3,0,0,0-.7-.57,1.83,1.83,0,0,0-.93-.23,2.83,2.83,0,0,0-2,.69,4.41,4.41,0,0,0-1.14,2,15,15,0,0,0-.51,3.33q-.11,2-.11,4.56V122h4.16v1.82h-4.16v12.6a1.62,1.62,0,0,0,.26,1,.91.91,0,0,0,.8.36,2.77,2.77,0,0,0,1.08-.21q.5-.21.87-.39l.35.77q-.46.31-1.07.65a12.22,12.22,0,0,1-1.35.64,10.58,10.58,0,0,1-1.57.5,7.65,7.65,0,0,1-1.75.2,5.85,5.85,0,0,1-2.28-.37,3.32,3.32,0,0,1-1.35-1,3.27,3.27,0,0,1-.63-1.38,7.8,7.8,0,0,1-.16-1.55V123.84H231.5v10.32a11,11,0,0,1-1,4.91,9.93,9.93,0,0,1-2.81,3.49,12.16,12.16,0,0,1-4.2,2.09,18.64,18.64,0,0,1-5.17.69,11.4,11.4,0,0,1-2-.18,8.31,8.31,0,0,1-1.72-.49,3.86,3.86,0,0,1-1.19-.74,1.26,1.26,0,0,1-.45-.92,2.9,2.9,0,0,1,.1-.76,2.36,2.36,0,0,1,.31-.69,1.91,1.91,0,0,1,.51-.52,1.16,1.16,0,0,1,.67-.21.51.51,0,0,1,.4.23,4.34,4.34,0,0,1,.36.57q.19.34.42.74a3.23,3.23,0,0,0,.62.74,3.31,3.31,0,0,0,.92.57,3.47,3.47,0,0,0,1.35.23,6,6,0,0,0,2.75-.58,5.1,5.1,0,0,0,1.9-1.64,7.42,7.42,0,0,0,1.11-2.52,13.29,13.29,0,0,0,.36-3.2V123.84h-3.77Z"/><path class="cls-18" d="M259.59,118.08a4.9,4.9,0,0,0-1.31.17,4.52,4.52,0,0,0-1,.41,2.46,2.46,0,0,0-.68.55.91.91,0,0,0-.25.57.46.46,0,0,0,.32.45l.71.31a2.39,2.39,0,0,1,.71.5,1.34,1.34,0,0,1,.32,1,1.81,1.81,0,0,1-.18.8,2.16,2.16,0,0,1-1.18,1.08,2.32,2.32,0,0,1-.84.16,2.41,2.41,0,0,1-1.87-.79,3,3,0,0,1-.71-2.09,3.55,3.55,0,0,1,.66-2.16,5.17,5.17,0,0,1,1.73-1.48,8.74,8.74,0,0,1,2.41-.86,13.42,13.42,0,0,1,5.78.07,7.84,7.84,0,0,1,2.6,1.12,5.79,5.79,0,0,1,1.8,1.95,5.69,5.69,0,0,1,.67,2.86v11.71q0,.19,0,.41a1.29,1.29,0,0,0,.1.41.77.77,0,0,0,.25.31.78.78,0,0,0,.48.12,1,1,0,0,0,.69-.28,5.53,5.53,0,0,0,.57-.57l.52.44q-.31.43-.75,1a6,6,0,0,1-2.51,1.74,5.35,5.35,0,0,1-1.89.31,3.72,3.72,0,0,1-2.32-.78,3.77,3.77,0,0,1-1.33-2.39,8.77,8.77,0,0,1-1.38,1.49,7.46,7.46,0,0,1-1.46,1,6.45,6.45,0,0,1-1.5.54,7.1,7.1,0,0,1-1.52.17,6.05,6.05,0,0,1-1.93-.31,4.6,4.6,0,0,1-1.67-1,4.83,4.83,0,0,1-1.18-1.75,6.89,6.89,0,0,1-.45-2.63,5.77,5.77,0,0,1,.75-3.09,6.66,6.66,0,0,1,2-2,13.21,13.21,0,0,1,2.76-1.4q1.54-.58,3.16-1.22a3.38,3.38,0,0,0,1.75-1.42,3.81,3.81,0,0,0,.55-1.94A3.36,3.36,0,0,0,262,119,3.28,3.28,0,0,0,259.59,118.08Zm3.29,9.07a1,1,0,0,0-.33-.79,1.3,1.3,0,0,0-.85-.27,3,3,0,0,0-1.38.33,3.41,3.41,0,0,0-1.15,1,4.93,4.93,0,0,0-.79,1.58,7.44,7.44,0,0,0-.29,2.19,9.32,9.32,0,0,0,.18,2,3.88,3.88,0,0,0,.48,1.25,1.72,1.72,0,0,0,.69.65,1.91,1.91,0,0,0,.83.19,2,2,0,0,0,1-.28,3,3,0,0,0,.83-.71,3.58,3.58,0,0,0,.56-1,3,3,0,0,0,.21-1.08Z"/><path class="cls-18" d="M287.85,123.55a2.61,2.61,0,0,1-1.08-.2,1.89,1.89,0,0,1-.7-.53,2.17,2.17,0,0,1-.39-.74,2.83,2.83,0,0,1-.12-.84,7.69,7.69,0,0,1,.07-1.08,3.58,3.58,0,0,0,0-.93,1,1,0,0,0-.32-.66,1.41,1.41,0,0,0-1-.25,3.37,3.37,0,0,0-1.53.41,4.32,4.32,0,0,0-1.47,1.31,7.6,7.6,0,0,0-1.1,2.29,11.42,11.42,0,0,0-.43,3.37,18.06,18.06,0,0,0,.4,4,9.51,9.51,0,0,0,1.21,3.06,5.84,5.84,0,0,0,2,2,6,6,0,0,0,4.2.53,6.09,6.09,0,0,0,1.23-.46,7.9,7.9,0,0,0,1.11-.67q.53-.38,1-.82l.52.5a14.21,14.21,0,0,1-1.22,1.41,10,10,0,0,1-1.8,1.44,10.4,10.4,0,0,1-2.47,1.12,10.65,10.65,0,0,1-3.21.45,9.25,9.25,0,0,1-3.51-.69,9.09,9.09,0,0,1-3-2,10,10,0,0,1-2.12-3.22,11,11,0,0,1-.8-4.32,12,12,0,0,1,.48-3.47,11.43,11.43,0,0,1,1.29-2.87,10.79,10.79,0,0,1,1.91-2.26,12.07,12.07,0,0,1,2.29-1.63,11.07,11.07,0,0,1,2.46-1,9.43,9.43,0,0,1,2.41-.33,9.09,9.09,0,0,1,2.67.35,6,6,0,0,1,1.9.93A3.82,3.82,0,0,1,289.9,119a3.49,3.49,0,0,1,.37,1.56,4.2,4.2,0,0,1-.16,1.15,2.91,2.91,0,0,1-.46,1,2.2,2.2,0,0,1-.76.64A2.25,2.25,0,0,1,287.85,123.55Z"/><path class="cls-18" d="M300.32,122q.72-1,1.55-2a14.26,14.26,0,0,1,1.78-1.81,9.11,9.11,0,0,1,2.07-1.33,5.75,5.75,0,0,1,2.44-.52,3.81,3.81,0,0,1,2,.47,4.29,4.29,0,0,1,1.27,1.12,4.14,4.14,0,0,1,.68,1.36,4.59,4.59,0,0,1,.2,1.2,8.06,8.06,0,0,1-.24,1.9,7.11,7.11,0,0,1-.81,1.95,8.67,8.67,0,0,1-1.52,1.86,10.4,10.4,0,0,1-2.4,1.65,71.47,71.47,0,0,0,3.79,7.1,35.5,35.5,0,0,0,3.55,4.89,13.93,13.93,0,0,0,3.28,2.83,6,6,0,0,0,3,.91,2.05,2.05,0,0,0,.5-.06,3.55,3.55,0,0,0,.46-.15,4.58,4.58,0,0,0,.48-.21l.39.73q-.56.31-1.14.59a8,8,0,0,1-1.33.49,12.29,12.29,0,0,1-1.72.33,18.64,18.64,0,0,1-2.32.12,10.19,10.19,0,0,1-2.41-.29,8.25,8.25,0,0,1-2.39-1,13.52,13.52,0,0,1-2.43-2,22.19,22.19,0,0,1-2.53-3.15,45.25,45.25,0,0,1-2.66-4.54q-1.37-2.63-2.84-6.15a21.7,21.7,0,0,0,3.13-2.72,13.34,13.34,0,0,0,1.72-2.27,5.91,5.91,0,0,0,.73-1.8,7.64,7.64,0,0,0,.15-1.35c0-.06,0-.15,0-.28a.91.91,0,0,0-.13-.38,1.08,1.08,0,0,0-.33-.33,1.1,1.1,0,0,0-.61-.15,2.45,2.45,0,0,0-1.55.65,9.2,9.2,0,0,0-1.5,1.62,15.63,15.63,0,0,0-1.29,2.07q-.58,1.11-1,2v10.69a2.71,2.71,0,0,1-.09.64,1.49,1.49,0,0,1-.44.7,2.79,2.79,0,0,1-1,.57,5.24,5.24,0,0,1-1.75.24,4.59,4.59,0,0,1-1.72-.26,2.4,2.4,0,0,1-.92-.61,1.59,1.59,0,0,1-.37-.73,3.29,3.29,0,0,1-.07-.6V109.29a1.93,1.93,0,0,0-.28-1,1,1,0,0,0-.94-.45,1.51,1.51,0,0,0-.61.11,2.61,2.61,0,0,0-.55.34l-.41-.5a12.35,12.35,0,0,1,1.06-.78,7.68,7.68,0,0,1,1.27-.67,9.52,9.52,0,0,1,1.48-.48,7.18,7.18,0,0,1,1.66-.19,4.89,4.89,0,0,1,2.09.36,2.69,2.69,0,0,1,1.1.89,2.56,2.56,0,0,1,.42,1.12,8.74,8.74,0,0,1,.07,1Z"/><path class="cls-18" d="M323.15,118.16v15.31a2.17,2.17,0,0,0,.41,1.52,1.52,1.52,0,0,0,1.14.42,1.67,1.67,0,0,0,1-.31,3.64,3.64,0,0,0,.75-.7,4.39,4.39,0,0,0,.64-1l.64.29q-.31.66-.74,1.45a5.75,5.75,0,0,1-2.9,2.59,6.86,6.86,0,0,1-2.68.46,5.69,5.69,0,0,1-1.75-.27,4.11,4.11,0,0,1-1.49-.85,4.25,4.25,0,0,1-1-1.45,5,5,0,0,1-.39-2.09V118.16h-2.32v-1.49a6.25,6.25,0,0,0,1.62-.3,8.06,8.06,0,0,0,2.12-1,8.44,8.44,0,0,0,2-1.89,7.21,7.21,0,0,0,1.33-2.92h1.66v6.11h3.38q1.66,0,1.66-.56a.28.28,0,0,0-.21-.28l-.47-.19a1.51,1.51,0,0,1-.47-.32.94.94,0,0,1-.21-.68,1.17,1.17,0,0,1,.36-.91,1.34,1.34,0,0,1,.94-.33,1.32,1.32,0,0,1,.65.16,1.41,1.41,0,0,1,.47.41,1.87,1.87,0,0,1,.28.59,2.44,2.44,0,0,1,.09.66,2.94,2.94,0,0,1-.78,2.14,3.36,3.36,0,0,1-2.5.8Z"/><path class="cls-18" d="M329,127.27a13.17,13.17,0,0,1,.79-4.75,10.07,10.07,0,0,1,2.1-3.41,8.52,8.52,0,0,1,3.06-2.05,9.88,9.88,0,0,1,3.65-.68,10.61,10.61,0,0,1,3.65.63,8.32,8.32,0,0,1,3.06,1.94,9.46,9.46,0,0,1,2.1,3.3,12.9,12.9,0,0,1,.79,4.73,13.59,13.59,0,0,1-.79,4.81,10.69,10.69,0,0,1-2.1,3.52,8.74,8.74,0,0,1-3.06,2.16,9.28,9.28,0,0,1-3.65.74,9.76,9.76,0,0,1-3.65-.69,8.64,8.64,0,0,1-3.06-2.06,10.05,10.05,0,0,1-2.1-3.42A13.25,13.25,0,0,1,329,127.27Zm12.74-.21q0-1.66-.11-3.2a14.36,14.36,0,0,0-.45-2.75,4.84,4.84,0,0,0-1-1.92,2.06,2.06,0,0,0-1.64-.71,2,2,0,0,0-1.64.76,5.23,5.23,0,0,0-1,2,14.5,14.5,0,0,0-.44,2.81q-.1,1.57-.1,3.23t.1,3.24a14.72,14.72,0,0,0,.44,2.83,5.23,5.23,0,0,0,1,2,2,2,0,0,0,1.64.76,2,2,0,0,0,1.64-.79,5.55,5.55,0,0,0,1-2.07,16.23,16.23,0,0,0,.45-2.9Q341.74,128.73,341.74,127.07Z"/><path class="cls-18" d="M351.37,109.29a1.93,1.93,0,0,0-.28-1,1,1,0,0,0-.94-.45,1.51,1.51,0,0,0-.61.11,2.63,2.63,0,0,0-.55.34l-.41-.5a11.64,11.64,0,0,1,1.07-.78,8.32,8.32,0,0,1,1.27-.67,9.16,9.16,0,0,1,1.47-.48,7.18,7.18,0,0,1,1.66-.19A4.41,4.41,0,0,1,356,106a3,3,0,0,1,1.12.89,2.91,2.91,0,0,1,.51,1.14,5.69,5.69,0,0,1,.12,1.13v9.24l.64-.57a5.75,5.75,0,0,1,1-.67,6.54,6.54,0,0,1,1.44-.56,7.61,7.61,0,0,1,2-.23,6.29,6.29,0,0,1,2.65.61,6.67,6.67,0,0,1,2.38,1.92,10.35,10.35,0,0,1,1.72,3.36,16.14,16.14,0,0,1,.66,4.93,14.59,14.59,0,0,1-.61,4.27,10.4,10.4,0,0,1-1.81,3.51,8.54,8.54,0,0,1-3,2.37,9.52,9.52,0,0,1-4.18.87,10.15,10.15,0,0,1-4.36-.84,7.56,7.56,0,0,1-2.85-2.26,8.94,8.94,0,0,1-1.54-3.3,16.52,16.52,0,0,1-.47-4Zm12.35,18.27a29.07,29.07,0,0,0-.19-3.39,13.19,13.19,0,0,0-.6-2.78,5.33,5.33,0,0,0-1.06-1.89,2,2,0,0,0-1.55-.69,2,2,0,0,0-1.19.34,3.29,3.29,0,0,0-.8.78,3.37,3.37,0,0,0-.46.86,2.27,2.27,0,0,0-.14.57v6.19a20.61,20.61,0,0,0,.76,6.57q.76,2.05,2.23,2.05t2.28-2.09A21.5,21.5,0,0,0,363.72,127.56Z"/><path class="cls-18" d="M379.55,128.37a5.86,5.86,0,0,0,.2,1.44,8.58,8.58,0,0,0,.57,1.56,8.29,8.29,0,0,0,.92,1.5,7.11,7.11,0,0,0,1.26,1.27,6,6,0,0,0,1.58.89,5.31,5.31,0,0,0,1.91.33,5.2,5.2,0,0,0,1.35-.17,5.33,5.33,0,0,0,1.16-.46,7.56,7.56,0,0,0,1-.67q.5-.38,1-.82l.52.5a14.21,14.21,0,0,1-1.22,1.41,10,10,0,0,1-1.8,1.44,10.4,10.4,0,0,1-2.47,1.12,10.65,10.65,0,0,1-3.21.45,9.77,9.77,0,0,1-3.51-.65,8.72,8.72,0,0,1-3-2,9.6,9.6,0,0,1-2.12-3.25,13.15,13.15,0,0,1-.32-8,11.1,11.1,0,0,1,1.29-2.84,10.55,10.55,0,0,1,1.91-2.22,11.83,11.83,0,0,1,2.29-1.58,11.29,11.29,0,0,1,2.46-1,10.05,10.05,0,0,1,5.09,0,6,6,0,0,1,1.9.89,3.7,3.7,0,0,1,1.13,1.29,3.37,3.37,0,0,1,.37,1.54,2.92,2.92,0,0,1-.56,1.75,5.17,5.17,0,0,1-1.49,1.36Zm4.16-4.21a3.29,3.29,0,0,0,.45-.32,1.16,1.16,0,0,0,.28-.37,2,2,0,0,0,.16-.54,5.19,5.19,0,0,0,.05-.8,6.56,6.56,0,0,0-.11-1.15,4.63,4.63,0,0,0-.38-1.19,3,3,0,0,0-.68-.93,1.44,1.44,0,0,0-1-.37,1.91,1.91,0,0,0-1.27.45,3.45,3.45,0,0,0-.87,1.15,7.17,7.17,0,0,0-.54,1.61,18,18,0,0,0-.3,1.81q-.1.91-.12,1.75t0,1.42Z"/><path class="cls-18" d="M400.45,120.75a17.08,17.08,0,0,1,1.68-2.18,11.25,11.25,0,0,1,.81-.81,7.75,7.75,0,0,1,.9-.7,4.75,4.75,0,0,1,1-.5,2.82,2.82,0,0,1,1-.19,2.18,2.18,0,0,1,1.66.63,2.47,2.47,0,0,1,.6,1.77,7.91,7.91,0,0,1-.11,1.36,10.07,10.07,0,0,1-.45,1.58h-.58a1.92,1.92,0,0,0-.58-1.07,1.88,1.88,0,0,0-1.33-.42,3.51,3.51,0,0,0-1.26.24,7.83,7.83,0,0,0-1.21.59,10.69,10.69,0,0,0-1.12.77q-.53.41-1,.79v13.45a3,3,0,0,1-.08.64,1.48,1.48,0,0,1-.4.7,2.58,2.58,0,0,1-1,.57,5.06,5.06,0,0,1-1.73.24,4.67,4.67,0,0,1-1.73-.26,2.71,2.71,0,0,1-1-.61,1.56,1.56,0,0,1-.41-.73,2.9,2.9,0,0,1-.08-.6V120a1.93,1.93,0,0,0-.28-1,1,1,0,0,0-.94-.45,1.33,1.33,0,0,0-.6.12,3.24,3.24,0,0,0-.54.35l-.44-.52a11.54,11.54,0,0,1,1.07-.78,8.24,8.24,0,0,1,1.27-.67,9.2,9.2,0,0,1,1.47-.48,7.18,7.18,0,0,1,1.66-.19,4.33,4.33,0,0,1,1.52.24,3,3,0,0,1,1,.62,2.92,2.92,0,0,1,.63.86,4.75,4.75,0,0,1,.34,1,5.2,5.2,0,0,1,.13.93Q400.45,120.44,400.45,120.75Z"/><path class="cls-18" d="M420.9,107.08a2.5,2.5,0,0,0-1.1.25,2.34,2.34,0,0,0-.9.8,4.44,4.44,0,0,0-.61,1.4,8,8,0,0,0-.23,2.05v5.1h4.54v1.49h-4.54v16.33a17.57,17.57,0,0,1-.74,5.2,11.33,11.33,0,0,1-2.23,4.11,10.23,10.23,0,0,1-3.73,2.7,13,13,0,0,1-5.22,1,11.44,11.44,0,0,1-2-.18,8.36,8.36,0,0,1-1.72-.49,3.86,3.86,0,0,1-1.19-.74,1.28,1.28,0,0,1-.45-.94,2.88,2.88,0,0,1,.1-.76,2.34,2.34,0,0,1,.31-.69,1.78,1.78,0,0,1,.51-.51,1.24,1.24,0,0,1,.69-.2.5.5,0,0,1,.4.23,4.66,4.66,0,0,1,.36.56l.42.74a3.07,3.07,0,0,0,.61.74,3.27,3.27,0,0,0,.92.56,3.49,3.49,0,0,0,1.34.23,4,4,0,0,0,1.86-.42,4.25,4.25,0,0,0,1.39-1.17,6.94,6.94,0,0,0,1-1.76,12.9,12.9,0,0,0,.62-2.18,20.42,20.42,0,0,0,.32-2.42q.09-1.26.09-2.53V118.16h-3.81v-1.49h3.81v-2.42a10.21,10.21,0,0,1,.45-3.18,7.65,7.65,0,0,1,1.18-2.31A6.68,6.68,0,0,1,415,107.2a9.59,9.59,0,0,1,1.9-1,9,9,0,0,1,1.87-.48,12,12,0,0,1,1.6-.12,14,14,0,0,1,2.61.22,8,8,0,0,1,1.91.58,3.32,3.32,0,0,1,1.16.84,1.52,1.52,0,0,1,.39,1,2.65,2.65,0,0,1-.11.76,2.72,2.72,0,0,1-.32.7,1.73,1.73,0,0,1-.51.52,1.2,1.2,0,0,1-.67.2.52.52,0,0,1-.41-.25,5.47,5.47,0,0,1-.39-.62l-.46-.81a4,4,0,0,0-.61-.81,3.15,3.15,0,0,0-.86-.62A2.61,2.61,0,0,0,420.9,107.08Z"/><path class="cls-18" d="M429.41,128.37a5.86,5.86,0,0,0,.2,1.44,8.58,8.58,0,0,0,.57,1.56,8.29,8.29,0,0,0,.92,1.5,7.11,7.11,0,0,0,1.26,1.27,6,6,0,0,0,1.58.89,5.31,5.31,0,0,0,1.91.33,5.2,5.2,0,0,0,1.35-.17,5.33,5.33,0,0,0,1.16-.46,7.56,7.56,0,0,0,1-.67q.5-.38,1-.82l.52.5a14.21,14.21,0,0,1-1.22,1.41,10,10,0,0,1-1.8,1.44,10.4,10.4,0,0,1-2.47,1.12,10.65,10.65,0,0,1-3.21.45,9.77,9.77,0,0,1-3.51-.65,8.72,8.72,0,0,1-3-2,9.6,9.6,0,0,1-2.12-3.25,13.15,13.15,0,0,1-.32-8,11.1,11.1,0,0,1,1.29-2.84,10.55,10.55,0,0,1,1.91-2.22,11.83,11.83,0,0,1,2.29-1.58,11.29,11.29,0,0,1,2.46-1,10.05,10.05,0,0,1,5.09,0,6,6,0,0,1,1.9.89,3.7,3.7,0,0,1,1.13,1.29,3.37,3.37,0,0,1,.37,1.54,2.92,2.92,0,0,1-.56,1.75,5.17,5.17,0,0,1-1.49,1.36Zm4.16-4.21a3.29,3.29,0,0,0,.45-.32,1.16,1.16,0,0,0,.28-.37,2,2,0,0,0,.16-.54,5.19,5.19,0,0,0,.05-.8,6.56,6.56,0,0,0-.11-1.15,4.63,4.63,0,0,0-.38-1.19,3,3,0,0,0-.68-.93,1.44,1.44,0,0,0-1-.37,1.91,1.91,0,0,0-1.27.45,3.45,3.45,0,0,0-.87,1.15,7.17,7.17,0,0,0-.54,1.61,18,18,0,0,0-.3,1.81q-.1.91-.12,1.75t0,1.42Z"/><path class="cls-18" d="M450.36,118a3.19,3.19,0,0,0-.9.12,2.05,2.05,0,0,0-.76.4,1.91,1.91,0,0,0-.52.7,2.49,2.49,0,0,0-.19,1,2.69,2.69,0,0,0,.59,1.61,13.92,13.92,0,0,0,1.47,1.66q.88.86,1.91,1.78a21.14,21.14,0,0,1,1.91,1.95,11,11,0,0,1,1.47,2.19,5.4,5.4,0,0,1,.59,2.49,6.56,6.56,0,0,1-.51,2.65,5.41,5.41,0,0,1-1.45,2,6.45,6.45,0,0,1-2.28,1.23,9.78,9.78,0,0,1-3,.42,7.84,7.84,0,0,1-2.59-.4,9.36,9.36,0,0,1-2.06-1,9,9,0,0,1-1.54-1.25,8.35,8.35,0,0,1-1-1.2l.72-.52a7,7,0,0,0,.68.67,6.7,6.7,0,0,0,.92.67,5.38,5.38,0,0,0,1.09.51,3.65,3.65,0,0,0,1.18.2,4,4,0,0,0,2.44-.71,2.49,2.49,0,0,0,1-2.12,3.1,3.1,0,0,0-.52-1.63,12.78,12.78,0,0,0-1.31-1.73q-.79-.89-1.7-1.84a24.93,24.93,0,0,1-1.7-2,11.64,11.64,0,0,1-1.31-2.09,5.1,5.1,0,0,1-.52-2.24,4.71,4.71,0,0,1,.53-2.28,4.82,4.82,0,0,1,1.41-1.62,6.31,6.31,0,0,1,2-1,8.48,8.48,0,0,1,2.33-.32,11.87,11.87,0,0,1,2.53.25,6.2,6.2,0,0,1,2,.76,3.66,3.66,0,0,1,1.26,1.27,3.48,3.48,0,0,1,.45,1.78,2,2,0,0,1-.52,1.37,1.84,1.84,0,0,1-1.45.58,2.09,2.09,0,0,1-1.36-.38,1.28,1.28,0,0,1-.47-1,1,1,0,0,1,.22-.68,1.92,1.92,0,0,1,.49-.4l.49-.27a.34.34,0,0,0,.22-.3,1,1,0,0,0-.62-.92A3.29,3.29,0,0,0,450.36,118Z"/><path class="cls-18" d="M466.08,118.16v15.31a2.17,2.17,0,0,0,.41,1.52,1.52,1.52,0,0,0,1.14.42,1.67,1.67,0,0,0,1-.31,3.64,3.64,0,0,0,.75-.7,4.39,4.39,0,0,0,.64-1l.64.29q-.31.66-.74,1.45a5.75,5.75,0,0,1-2.9,2.59,6.86,6.86,0,0,1-2.68.46,5.69,5.69,0,0,1-1.75-.27,4.11,4.11,0,0,1-1.49-.85,4.25,4.25,0,0,1-1-1.45,5,5,0,0,1-.39-2.09V118.16h-2.32v-1.49a6.25,6.25,0,0,0,1.62-.3,8.06,8.06,0,0,0,2.12-1,8.44,8.44,0,0,0,2-1.89,7.21,7.21,0,0,0,1.33-2.92h1.66v6.11h3.38q1.66,0,1.66-.56a.28.28,0,0,0-.21-.28l-.47-.19a1.51,1.51,0,0,1-.47-.32.94.94,0,0,1-.21-.68,1.17,1.17,0,0,1,.36-.91,1.34,1.34,0,0,1,.94-.33,1.32,1.32,0,0,1,.65.16,1.41,1.41,0,0,1,.47.41,1.87,1.87,0,0,1,.28.59,2.44,2.44,0,0,1,.09.66,2.94,2.94,0,0,1-.78,2.14,3.36,3.36,0,0,1-2.5.8Z"/><path class="cls-18" d="M162.14,124.38a2.76,2.76,0,0,1,2.48-2,2.44,2.44,0,0,1,2.53,2,2.49,2.49,0,0,1-1.49,2.81,2.54,2.54,0,0,1-3.14-1.06c-.13-.22-.25-.45-.38-.68Zm3.82.54a1.27,1.27,0,0,0-2.54,0,1.27,1.27,0,0,0,2.54,0Z"/><path class="cls-18" d="M178.42,103.68v8.85h28.79v2.6H175.86V103.68Z"/><path class="cls-18" d="M207.81,123.39v2.53h-38.7v-2.53Z"/><path class="cls-18" d="M480,141.44v-2.53h31.62v11.44H509.1c0-.28,0-.56,0-.85q0-3.46,0-6.92c0-1.14,0-1.14-1.11-1.14H480Z"/><path class="cls-18" d="M518.34,128.17v2.45H480v-2.45Z"/><path class="cls-18" d="M499.49,102.71v15.79H480v-2.58h16.9v-1q0-5.55,0-11.1c0-1.07,0-1.07,1.11-1.07Z"/><path class="cls-18" d="M188,151.22V135.57h19.53v2.53H191.55c-1,0-1,0-1,1.07q0,5.51,0,11v1Z"/><path class="cls-18" d="M180.81,98.78a3.92,3.92,0,0,1-3.94,4,4,4,0,1,1,0-8A3.94,3.94,0,0,1,180.81,98.78Zm-3.93-1.37a1.35,1.35,0,0,0-1.4,1.34,1.33,1.33,0,0,0,1.36,1.38,1.38,1.38,0,0,0,1.38-1.29A1.4,1.4,0,0,0,176.88,97.41Z"/><path class="cls-18" d="M514.06,156.6a4,4,0,0,1-8,0,4,4,0,1,1,8,0Zm-4-1.36a1.36,1.36,0,0,0-1.4,1.34A1.42,1.42,0,0,0,510,158a1.47,1.47,0,0,0,1.43-1.36A1.44,1.44,0,0,0,510.1,155.25Z"/><path class="cls-18" d="M525.19,126.46a2.66,2.66,0,1,1-2.71,2.67A2.65,2.65,0,0,1,525.19,126.46Z"/><path class="cls-18" d="M186.6,157a2.57,2.57,0,0,1,2.65-2.7,2.66,2.66,0,1,1,0,5.32A2.55,2.55,0,0,1,186.6,157Z"/><path class="cls-18" d="M498.46,100.69A2.5,2.5,0,1,1,501,98.22,2.48,2.48,0,0,1,498.46,100.69Zm0-1.25a1.25,1.25,0,1,0,0-2.5,1.25,1.25,0,0,0-1.25,1.29A1.27,1.27,0,0,0,498.48,99.44Z"/><path class="cls-18" d="M194.46,487.89a5,5,0,0,1,1.88,6.91,5,5,0,0,1-1.88,1.83,5.57,5.57,0,0,1-5.31,0,5,5,0,0,1-1.88-1.83,5,5,0,0,1,1.88-6.91,5.68,5.68,0,0,1,5.31,0Zm-4.29,1.46a3.35,3.35,0,0,0-1.21,4.58,3.38,3.38,0,0,0,1.22,1.22,3.22,3.22,0,0,0,1.66.45,3.15,3.15,0,0,0,1.64-.45,3.28,3.28,0,0,0,1.2-1.22,3.34,3.34,0,0,0,.44-1.69,3.3,3.3,0,0,0-.44-1.69,3.24,3.24,0,0,0-1.2-1.2,3.19,3.19,0,0,0-1.64-.44A3.29,3.29,0,0,0,190.17,489.35Z"/><path class="cls-18" d="M204.88,490.1a3.26,3.26,0,0,1,1.25,1.35,4.36,4.36,0,0,1,.44,2,4.3,4.3,0,0,1-.43,2,3.19,3.19,0,0,1-1.23,1.33,3.53,3.53,0,0,1-1.85.48,3.22,3.22,0,0,1-1.48-.33,2.79,2.79,0,0,1-1.06-1v3.93h-1.82V489.67h1.82v1.23a2.7,2.7,0,0,1,1-1,3.18,3.18,0,0,1,1.48-.33A3.53,3.53,0,0,1,204.88,490.1Zm-.75,4.93a2.31,2.31,0,0,0,.59-1.63,2.28,2.28,0,0,0-.59-1.62,2.15,2.15,0,0,0-3,0,2.56,2.56,0,0,0,0,3.26,2,2,0,0,0,1.53.63A2,2,0,0,0,204.13,495Z"/><path class="cls-18" d="M214,490.64a4.19,4.19,0,0,1,.9,2.87c0,.24,0,.42,0,.55h-5.53a2.09,2.09,0,0,0,2.14,1.71,2.84,2.84,0,0,0,1.1-.22,2.67,2.67,0,0,0,.92-.62l1,1a3.79,3.79,0,0,1-1.37,1,4.59,4.59,0,0,1-1.79.34,4.16,4.16,0,0,1-2-.48,3.32,3.32,0,0,1-1.35-1.34,4.34,4.34,0,0,1,0-4,3.42,3.42,0,0,1,1.35-1.35,4,4,0,0,1,2-.48A3.41,3.41,0,0,1,214,490.64Zm-.76,2.2a1.82,1.82,0,0,0-.55-1.32,2.13,2.13,0,0,0-2.71,0,2.13,2.13,0,0,0-.67,1.32Z"/><path class="cls-18" d="M223,490.38a2.92,2.92,0,0,1,.74,2.11v4.68h-1.83V493a1.69,1.69,0,0,0-.45-1.24,1.64,1.64,0,0,0-1.22-.46,1.85,1.85,0,0,0-1.43.62,2.26,2.26,0,0,0-.52,1.54v3.68h-1.82v-7.49h1.82v1.4a2.84,2.84,0,0,1,2.69-1.47A2.67,2.67,0,0,1,223,490.38Z"/><path class="cls-18" d="M225.83,487.36H233V489H227.7v2.42h4.76v1.64H227.7v2.46h5.47v1.64h-7.35Z"/><path class="cls-18" d="M241.91,488a2.1,2.1,0,0,1,.9,1.79A2.14,2.14,0,0,1,241.1,492a2.53,2.53,0,0,1,1.53.84,2.46,2.46,0,0,1,.55,1.64,2.33,2.33,0,0,1-1,2,4.37,4.37,0,0,1-2.65.72h-4.48v-9.8h4.35A4.12,4.12,0,0,1,241.91,488Zm-1.43,3a1.07,1.07,0,0,0,.41-.9,1,1,0,0,0-.41-.87,1.82,1.82,0,0,0-1.14-.29H237v2.38h2.38A1.81,1.81,0,0,0,240.48,491Zm.26,4.16a1.13,1.13,0,0,0,.5-1,1.08,1.08,0,0,0-.5-.95,2.4,2.4,0,0,0-1.4-.33H237v2.59h2.38A2.35,2.35,0,0,0,240.74,495.2Z"/><path class="cls-18" d="M249.62,489.17a4.67,4.67,0,0,0-1.39-.25,2,2,0,0,0-1.06.25.79.79,0,0,0-.39.7.92.92,0,0,0,.27.68,2.11,2.11,0,0,0,.69.45,10.68,10.68,0,0,0,1.13.38,12.39,12.39,0,0,1,1.63.59,2.91,2.91,0,0,1,1.08.87,2.39,2.39,0,0,1,.45,1.51,2.58,2.58,0,0,1-.48,1.56,3,3,0,0,1-1.33,1,5,5,0,0,1-1.94.35,6.11,6.11,0,0,1-2.24-.43,6.35,6.35,0,0,1-1.9-1.14l.78-1.6a5.77,5.77,0,0,0,1.67,1.08,4.43,4.43,0,0,0,1.72.39,2.18,2.18,0,0,0,1.23-.3,1,1,0,0,0,.17-1.51,2,2,0,0,0-.69-.44q-.42-.17-1.15-.38a13.43,13.43,0,0,1-1.62-.57,2.82,2.82,0,0,1-1.08-.85,2.33,2.33,0,0,1-.45-1.49,2.5,2.5,0,0,1,.46-1.49,2.93,2.93,0,0,1,1.29-1,4.94,4.94,0,0,1,1.93-.35,6.51,6.51,0,0,1,1.88.28,6.35,6.35,0,0,1,1.66.76l-.76,1.64A7.06,7.06,0,0,0,249.62,489.17Z"/><path class="cls-18" d="M263.42,490.1a3.27,3.27,0,0,1,1.25,1.35,4.38,4.38,0,0,1,.44,2,4.29,4.29,0,0,1-.43,2,3.2,3.2,0,0,1-1.23,1.33,3.54,3.54,0,0,1-1.85.48,3.21,3.21,0,0,1-1.48-.33,2.79,2.79,0,0,1-1.06-1v3.93h-1.82V489.67H259v1.23a2.69,2.69,0,0,1,1-1,3.18,3.18,0,0,1,1.48-.33A3.54,3.54,0,0,1,263.42,490.1Zm-.75,4.93a2.31,2.31,0,0,0,.59-1.63,2.28,2.28,0,0,0-.59-1.62,2.15,2.15,0,0,0-3,0,2.56,2.56,0,0,0,0,3.26,2,2,0,0,0,1.53.63A2,2,0,0,0,262.67,495Z"/><path class="cls-18" d="M269.54,490a3,3,0,0,1,1.52-.4v1.76a2.47,2.47,0,0,0-1.86.54,2.08,2.08,0,0,0-.69,1.65v3.61h-1.82v-7.49h1.82v1.44A2.71,2.71,0,0,1,269.54,490Z"/><path class="cls-18" d="M277.66,490.09a3.45,3.45,0,0,1,1.39,1.34,3.89,3.89,0,0,1,.5,2,4,4,0,0,1-.5,2,3.43,3.43,0,0,1-1.39,1.34,4.28,4.28,0,0,1-2.05.48,4.35,4.35,0,0,1-2.07-.48,3.42,3.42,0,0,1-1.39-1.34,4,4,0,0,1-.5-2,3.89,3.89,0,0,1,.5-2,3.43,3.43,0,0,1,1.39-1.34,4.35,4.35,0,0,1,2.07-.48A4.28,4.28,0,0,1,277.66,490.09Zm-3.59,1.71a2.58,2.58,0,0,0,0,3.28,2,2,0,0,0,1.54.63,2,2,0,0,0,1.51-.63,2.58,2.58,0,0,0,0-3.28,2,2,0,0,0-1.51-.63A2,2,0,0,0,274.07,491.8Z"/><path class="cls-18" d="M280.17,498.42a.81.81,0,0,0,.71-.3,1.47,1.47,0,0,0,.25-.92v-7.53h1.82v7.81a2.52,2.52,0,0,1-.62,1.81,2.28,2.28,0,0,1-1.73.65,3.82,3.82,0,0,1-1.46-.28l.39-1.37A2.21,2.21,0,0,0,280.17,498.42Zm2.59-11.66a1.09,1.09,0,0,1,.29.78,1.07,1.07,0,0,1-.29.77,1,1,0,0,1-1.48,0,1.07,1.07,0,0,1-.29-.77,1.08,1.08,0,0,1,.29-.78,1,1,0,0,1,1.48,0Z"/><path class="cls-18" d="M290.92,490.64a4.19,4.19,0,0,1,.9,2.87c0,.24,0,.42,0,.55h-5.53a2.08,2.08,0,0,0,2.14,1.71,2.83,2.83,0,0,0,1.1-.22,2.67,2.67,0,0,0,.92-.62l1,1a3.8,3.8,0,0,1-1.37,1,4.6,4.6,0,0,1-1.79.34,4.16,4.16,0,0,1-2-.48,3.33,3.33,0,0,1-1.35-1.34,4.35,4.35,0,0,1,0-4,3.41,3.41,0,0,1,1.35-1.35,4,4,0,0,1,2-.48A3.41,3.41,0,0,1,290.92,490.64Zm-.76,2.2a1.82,1.82,0,0,0-.54-1.32,2.13,2.13,0,0,0-2.71,0,2.13,2.13,0,0,0-.67,1.32Z"/><path class="cls-18" d="M296.58,491.21a1.92,1.92,0,0,0-1.48.62,2.27,2.27,0,0,0-.57,1.6,2.31,2.31,0,0,0,.57,1.62,1.92,1.92,0,0,0,1.48.62,2.38,2.38,0,0,0,2-.88l1.13.94a3.31,3.31,0,0,1-1.33,1.12,4.43,4.43,0,0,1-1.92.39,4,4,0,0,1-2-.48,3.35,3.35,0,0,1-1.34-1.34,4.38,4.38,0,0,1,0-4,3.39,3.39,0,0,1,1.34-1.34,4,4,0,0,1,2-.48,4.46,4.46,0,0,1,1.83.36,3.29,3.29,0,0,1,1.31,1l-1.11,1A2.54,2.54,0,0,0,296.58,491.21Z"/><path class="cls-18" d="M305.67,496.7a3.55,3.55,0,0,1-1.88.55,2.24,2.24,0,0,1-1.58-.57,2.16,2.16,0,0,1-.62-1.67v-3.7h-1V490h1.06v-2.06h1.81V490h2.14v1.33H303.4v3.37a1.09,1.09,0,0,0,.2.73.75.75,0,0,0,.59.22,2.6,2.6,0,0,0,1.06-.31Z"/><path class="cls-18" d="M312.16,486.76a1.09,1.09,0,0,1,.29.78,1.07,1.07,0,0,1-.29.77,1,1,0,0,1-1.48,0,1.07,1.07,0,0,1-.29-.77,1.09,1.09,0,0,1,.29-.78,1,1,0,0,1,1.48,0Zm-1.64,2.91h1.82v7.49h-1.82Z"/><path class="cls-18" d="M317.91,491.2a3.61,3.61,0,0,0-1.07-.18,1.44,1.44,0,0,0-.73.16.54.54,0,0,0-.27.5.59.59,0,0,0,.34.54,5.49,5.49,0,0,0,1.08.4,10.62,10.62,0,0,1,1.29.47,2.43,2.43,0,0,1,.88.69,1.84,1.84,0,0,1,.37,1.2,1.93,1.93,0,0,1-.84,1.68,3.61,3.61,0,0,1-2.12.59,5.35,5.35,0,0,1-1.69-.27,4,4,0,0,1-1.4-.78l.63-1.27a3.67,3.67,0,0,0,1.2.68,4,4,0,0,0,1.33.25,1.59,1.59,0,0,0,.8-.17.57.57,0,0,0,.3-.52.63.63,0,0,0-.35-.59,6.26,6.26,0,0,0-1.13-.43,9.48,9.48,0,0,1-1.23-.44,2.21,2.21,0,0,1-.83-.66,1.8,1.8,0,0,1-.35-1.16,2,2,0,0,1,.8-1.69,3.37,3.37,0,0,1,2-.58,5.19,5.19,0,0,1,1.46.21,4.56,4.56,0,0,1,1.28.59L319,491.7A5.39,5.39,0,0,0,317.91,491.2Z"/><path class="cls-18" d="M324.85,486.77h1.82v10.39h-1.82Z"/><path class="cls-18" d="M334.33,490.09a3.44,3.44,0,0,1,1.39,1.34,3.89,3.89,0,0,1,.5,2,4,4,0,0,1-.5,2,3.43,3.43,0,0,1-1.39,1.34,4.28,4.28,0,0,1-2.05.48,4.35,4.35,0,0,1-2.07-.48,3.41,3.41,0,0,1-1.39-1.34,4,4,0,0,1-.5-2,3.88,3.88,0,0,1,.5-2,3.43,3.43,0,0,1,1.39-1.34,4.35,4.35,0,0,1,2.07-.48A4.28,4.28,0,0,1,334.33,490.09Zm-3.59,1.71a2.58,2.58,0,0,0,0,3.28,2,2,0,0,0,1.54.63,2,2,0,0,0,1.51-.63,2.58,2.58,0,0,0,0-3.28,2,2,0,0,0-1.51-.63A2,2,0,0,0,330.74,491.8Z"/><path class="cls-18" d="M343.12,490.09a3.44,3.44,0,0,1,1.39,1.34,3.89,3.89,0,0,1,.5,2,4,4,0,0,1-.5,2,3.43,3.43,0,0,1-1.39,1.34,4.28,4.28,0,0,1-2.05.48,4.35,4.35,0,0,1-2.07-.48,3.41,3.41,0,0,1-1.39-1.34,4,4,0,0,1-.5-2,3.88,3.88,0,0,1,.5-2,3.43,3.43,0,0,1,1.39-1.34,4.35,4.35,0,0,1,2.07-.48A4.28,4.28,0,0,1,343.12,490.09Zm-3.59,1.71a2.58,2.58,0,0,0,0,3.28,2,2,0,0,0,1.54.63,2,2,0,0,0,1.51-.63,2.58,2.58,0,0,0,0-3.28,2,2,0,0,0-1.51-.63A2,2,0,0,0,339.53,491.8Z"/><path class="cls-18" d="M351.66,497.16l-2-3.28-1.15,1.2v2.07h-1.82V486.77h1.82v6l3.08-3.11h2.1l-2.77,2.88,2.94,4.59Z"/><path class="cls-18" d="M356.7,486.76a1.09,1.09,0,0,1,.29.78,1.07,1.07,0,0,1-.29.77,1,1,0,0,1-1.48,0,1.07,1.07,0,0,1-.29-.77,1.09,1.09,0,0,1,.29-.78,1,1,0,0,1,1.48,0Zm-1.64,2.91h1.82v7.49h-1.82Z"/><path class="cls-18" d="M365.67,490.38a2.92,2.92,0,0,1,.74,2.11v4.68h-1.83V493a1.69,1.69,0,0,0-.45-1.24,1.63,1.63,0,0,0-1.22-.46,1.85,1.85,0,0,0-1.44.62,2.26,2.26,0,0,0-.52,1.54v3.68h-1.82v-7.49H361v1.4a2.84,2.84,0,0,1,2.69-1.47A2.68,2.68,0,0,1,365.67,490.38Z"/><path class="cls-18" d="M375.3,489.67v6.78a3.49,3.49,0,0,1-.48,1.86,3.18,3.18,0,0,1-1.37,1.22,4.73,4.73,0,0,1-2.07.43,5.49,5.49,0,0,1-3.16-1l.73-1.32a3.85,3.85,0,0,0,2.34.78,2.36,2.36,0,0,0,1.6-.52,1.78,1.78,0,0,0,.59-1.41v-.88a2.49,2.49,0,0,1-1,.88,3.09,3.09,0,0,1-1.4.3,3.3,3.3,0,0,1-1.74-.46,3.1,3.1,0,0,1-1.18-1.27,4.07,4.07,0,0,1-.42-1.88,4,4,0,0,1,.42-1.85,3.08,3.08,0,0,1,1.18-1.25,3.34,3.34,0,0,1,1.74-.45,3,3,0,0,1,1.39.31,2.57,2.57,0,0,1,1,.87v-1.12Zm-2.37,5.09a2.44,2.44,0,0,0,0-3.09,2,2,0,0,0-2.87,0,2.38,2.38,0,0,0,0,3.09,2,2,0,0,0,2.87,0Z"/><path class="cls-18" d="M383.3,488.49a.9.9,0,0,0-.27.71V490h1.88v1.33H383v5.85h-1.82v-5.85h-1V490h1v-.71a2.6,2.6,0,0,1,.36-1.41,2.32,2.32,0,0,1,1-.87,3,3,0,0,1,1.32-.29,3.14,3.14,0,0,1,1.37.32l-.32,1.47a2.61,2.61,0,0,0-.92-.22A1,1,0,0,0,383.3,488.49Z"/><path class="cls-18" d="M391.17,490.09a3.44,3.44,0,0,1,1.39,1.34,3.89,3.89,0,0,1,.5,2,4,4,0,0,1-.5,2,3.43,3.43,0,0,1-1.39,1.34,4.28,4.28,0,0,1-2.05.48,4.35,4.35,0,0,1-2.07-.48,3.41,3.41,0,0,1-1.39-1.34,4,4,0,0,1-.5-2,3.88,3.88,0,0,1,.5-2,3.43,3.43,0,0,1,1.39-1.34,4.35,4.35,0,0,1,2.07-.48A4.28,4.28,0,0,1,391.17,490.09Zm-3.59,1.71a2.58,2.58,0,0,0,0,3.28,2,2,0,0,0,1.54.63,2,2,0,0,0,1.51-.63,2.58,2.58,0,0,0,0-3.28,2,2,0,0,0-1.51-.63A2,2,0,0,0,387.58,491.8Z"/><path class="cls-18" d="M397.49,490a3,3,0,0,1,1.52-.4v1.76a2.47,2.47,0,0,0-1.85.54,2.08,2.08,0,0,0-.69,1.65v3.61h-1.82v-7.49h1.82v1.44A2.7,2.7,0,0,1,397.49,490Z"/><path class="cls-18" d="M406.9,491.21a1.92,1.92,0,0,0-1.48.62,2.27,2.27,0,0,0-.57,1.6,2.3,2.3,0,0,0,.57,1.62,1.92,1.92,0,0,0,1.48.62,2.38,2.38,0,0,0,2-.88l1.13.94a3.32,3.32,0,0,1-1.33,1.12,4.44,4.44,0,0,1-1.92.39,4,4,0,0,1-2-.48,3.35,3.35,0,0,1-1.34-1.34,4.38,4.38,0,0,1,0-4,3.38,3.38,0,0,1,1.34-1.34,4,4,0,0,1,2-.48,4.46,4.46,0,0,1,1.83.36,3.3,3.3,0,0,1,1.31,1l-1.11,1A2.53,2.53,0,0,0,406.9,491.21Z"/><path class="cls-18" d="M416.67,490.09a3.44,3.44,0,0,1,1.39,1.34,3.89,3.89,0,0,1,.5,2,4,4,0,0,1-.5,2,3.43,3.43,0,0,1-1.39,1.34,4.28,4.28,0,0,1-2.05.48,4.35,4.35,0,0,1-2.07-.48,3.41,3.41,0,0,1-1.39-1.34,4,4,0,0,1-.5-2,3.88,3.88,0,0,1,.5-2,3.43,3.43,0,0,1,1.39-1.34,4.35,4.35,0,0,1,2.07-.48A4.28,4.28,0,0,1,416.67,490.09Zm-3.59,1.71a2.58,2.58,0,0,0,0,3.28,2,2,0,0,0,1.54.63,2,2,0,0,0,1.51-.63,2.58,2.58,0,0,0,0-3.28,2,2,0,0,0-1.51-.63A2,2,0,0,0,413.07,491.8Z"/><path class="cls-18" d="M426.67,490.38a2.92,2.92,0,0,1,.74,2.11v4.68h-1.83V493a1.69,1.69,0,0,0-.45-1.24,1.63,1.63,0,0,0-1.22-.46,1.85,1.85,0,0,0-1.44.62,2.26,2.26,0,0,0-.52,1.54v3.68h-1.82v-7.49H422v1.4a2.84,2.84,0,0,1,2.69-1.47A2.68,2.68,0,0,1,426.67,490.38Z"/><path class="cls-18" d="M433.84,496.7a3.55,3.55,0,0,1-1.88.55,2.25,2.25,0,0,1-1.58-.57,2.16,2.16,0,0,1-.62-1.67v-3.7h-1.05V490h1.06v-2.06h1.81V490h2.14v1.33h-2.14v3.37a1.09,1.09,0,0,0,.2.73.75.75,0,0,0,.59.22,2.6,2.6,0,0,0,1.06-.31Z"/><path class="cls-18" d="M438.11,490a3,3,0,0,1,1.52-.4v1.76a2.47,2.47,0,0,0-1.85.54,2.08,2.08,0,0,0-.69,1.65v3.61h-1.82v-7.49h1.82v1.44A2.7,2.7,0,0,1,438.11,490Z"/><path class="cls-18" d="M442.54,486.76a1.09,1.09,0,0,1,.29.78,1.07,1.07,0,0,1-.29.77,1,1,0,0,1-1.48,0,1.07,1.07,0,0,1-.29-.77,1.09,1.09,0,0,1,.29-.78,1,1,0,0,1,1.48,0Zm-1.64,2.91h1.82v7.49h-1.82Z"/><path class="cls-18" d="M451.25,490.1a3.26,3.26,0,0,1,1.25,1.35,4.35,4.35,0,0,1,.44,2,4.3,4.3,0,0,1-.43,2,3.21,3.21,0,0,1-1.23,1.33,3.54,3.54,0,0,1-1.85.48,3.21,3.21,0,0,1-1.48-.33,2.78,2.78,0,0,1-1.06-1v1.22H445V486.77h1.82v4.13a2.7,2.7,0,0,1,1-1,3.18,3.18,0,0,1,1.48-.33A3.54,3.54,0,0,1,451.25,490.1ZM450.5,495a2.31,2.31,0,0,0,.59-1.63,2.29,2.29,0,0,0-.59-1.62,2.15,2.15,0,0,0-3,0,2.56,2.56,0,0,0,0,3.26,2,2,0,0,0,1.53.63A2,2,0,0,0,450.5,495Z"/><path class="cls-18" d="M461.43,489.67v7.49H459.6v-1.39a2.69,2.69,0,0,1-2.6,1.46,2.6,2.6,0,0,1-2-.77,2.93,2.93,0,0,1-.73-2.1v-4.69h1.83v4.16a1.71,1.71,0,0,0,.43,1.23,1.55,1.55,0,0,0,1.18.45,1.73,1.73,0,0,0,1.37-.62,2.3,2.3,0,0,0,.5-1.53v-3.7Z"/><path class="cls-18" d="M468.08,496.7a3.55,3.55,0,0,1-1.88.55,2.25,2.25,0,0,1-1.58-.57A2.16,2.16,0,0,1,464,495v-3.7H463V490H464v-2.06h1.81V490H468v1.33h-2.14v3.37a1.09,1.09,0,0,0,.2.73.75.75,0,0,0,.59.22,2.6,2.6,0,0,0,1.06-.31Z"/><path class="cls-18" d="M471.15,486.76a1.09,1.09,0,0,1,.29.78,1.07,1.07,0,0,1-.29.77,1,1,0,0,1-1.48,0,1.07,1.07,0,0,1-.29-.77,1.09,1.09,0,0,1,.29-.78,1,1,0,0,1,1.48,0Zm-1.64,2.91h1.82v7.49h-1.82Z"/><path class="cls-18" d="M478.91,490.09a3.44,3.44,0,0,1,1.39,1.34,3.89,3.89,0,0,1,.5,2,4,4,0,0,1-.5,2,3.43,3.43,0,0,1-1.39,1.34,4.28,4.28,0,0,1-2.05.48,4.35,4.35,0,0,1-2.07-.48,3.41,3.41,0,0,1-1.39-1.34,4,4,0,0,1-.5-2,3.88,3.88,0,0,1,.5-2,3.43,3.43,0,0,1,1.39-1.34,4.35,4.35,0,0,1,2.07-.48A4.28,4.28,0,0,1,478.91,490.09Zm-3.59,1.71a2.58,2.58,0,0,0,0,3.28,2,2,0,0,0,1.54.63,2,2,0,0,0,1.51-.63,2.58,2.58,0,0,0,0-3.28,2,2,0,0,0-1.51-.63A2,2,0,0,0,475.32,491.8Z"/><path class="cls-18" d="M488.91,490.38a2.92,2.92,0,0,1,.74,2.11v4.68h-1.83V493a1.69,1.69,0,0,0-.45-1.24,1.63,1.63,0,0,0-1.22-.46,1.85,1.85,0,0,0-1.44.62,2.26,2.26,0,0,0-.52,1.54v3.68h-1.82v-7.49h1.82v1.4a2.84,2.84,0,0,1,2.69-1.47A2.68,2.68,0,0,1,488.91,490.38Z"/><path class="cls-18" d="M495,491.2a3.62,3.62,0,0,0-1.07-.18,1.45,1.45,0,0,0-.74.16.54.54,0,0,0-.27.5.59.59,0,0,0,.34.54,5.48,5.48,0,0,0,1.08.4,10.66,10.66,0,0,1,1.29.47,2.42,2.42,0,0,1,.88.69,1.83,1.83,0,0,1,.37,1.2,1.93,1.93,0,0,1-.84,1.68,3.6,3.6,0,0,1-2.11.59,5.35,5.35,0,0,1-1.69-.27,4,4,0,0,1-1.4-.78l.63-1.27a3.67,3.67,0,0,0,1.2.68,4,4,0,0,0,1.33.25,1.59,1.59,0,0,0,.8-.17.57.57,0,0,0,.3-.52.63.63,0,0,0-.35-.59,6.29,6.29,0,0,0-1.13-.43,9.51,9.51,0,0,1-1.23-.44,2.23,2.23,0,0,1-.83-.66,1.8,1.8,0,0,1-.35-1.16,2,2,0,0,1,.8-1.69,3.37,3.37,0,0,1,2-.58,5.19,5.19,0,0,1,1.46.21,4.55,4.55,0,0,1,1.28.59l-.66,1.32A5.38,5.38,0,0,0,495,491.2Z"/><path class="cls-18" d="M503.16,495.55a1,1,0,0,1,.27.71,1,1,0,0,1-.27.73.91.91,0,0,1-.69.29.89.89,0,0,1-.68-.29,1,1,0,0,1-.27-.73,1,1,0,0,1,.27-.71.91.91,0,0,1,.68-.28A.93.93,0,0,1,503.16,495.55Zm-1.56-8.09h1.75v2.44L503,494H501.9l-.31-4.07Z"/><path class="cls-18" d="M235.86,504.16h1.95l-3.32,9.8h-1.95l-2.24-7.43L228,514h-1.92l-3.3-9.8h2l2.31,7.77,2.29-7.77h1.85l2.31,7.8Z"/><path class="cls-18" d="M244,507.44a4.19,4.19,0,0,1,.9,2.87c0,.24,0,.42,0,.55h-5.53a2.09,2.09,0,0,0,2.14,1.71,2.85,2.85,0,0,0,1.1-.22,2.68,2.68,0,0,0,.92-.62l1,1a3.78,3.78,0,0,1-1.37,1,4.58,4.58,0,0,1-1.79.34,4.16,4.16,0,0,1-2-.48,3.32,3.32,0,0,1-1.35-1.34,4.34,4.34,0,0,1,0-4,3.42,3.42,0,0,1,1.35-1.35,4,4,0,0,1,2-.48A3.41,3.41,0,0,1,244,507.44Zm-.76,2.2a1.82,1.82,0,0,0-.55-1.32,2.13,2.13,0,0,0-2.71,0,2.13,2.13,0,0,0-.67,1.32Z"/><path class="cls-18" d="M254.33,514V513a2.46,2.46,0,0,1-1,.74,3.71,3.71,0,0,1-1.41.25,3,3,0,0,1-1.38-.3,2.21,2.21,0,0,1-.92-.83,2.26,2.26,0,0,1-.32-1.19,2,2,0,0,1,.74-1.64,3.34,3.34,0,0,1,2.1-.61h2.18v-.2a1.26,1.26,0,0,0-.43-1,1.91,1.91,0,0,0-1.26-.36,4.33,4.33,0,0,0-2.23.7l-.66-1.26a8.3,8.3,0,0,1,1.6-.71,5.84,5.84,0,0,1,1.69-.22,3.34,3.34,0,0,1,2.26.7,2.5,2.5,0,0,1,.82,2V514Zm-.64-1.69a1.29,1.29,0,0,0,.63-.92v-.67h-1.89a2.06,2.06,0,0,0-1.07.22.77.77,0,0,0-.34.71.91.91,0,0,0,.36.76,1.53,1.53,0,0,0,1,.28A2.37,2.37,0,0,0,253.69,512.27Z"/><path class="cls-18" d="M261,506.8a3,3,0,0,1,1.52-.4v1.76a2.47,2.47,0,0,0-1.85.54,2.07,2.07,0,0,0-.69,1.64V514h-1.82v-7.49H260v1.44A2.7,2.7,0,0,1,261,506.8Z"/><path class="cls-18" d="M269.63,507.44a4.19,4.19,0,0,1,.9,2.87c0,.24,0,.42,0,.55H265a2.09,2.09,0,0,0,2.14,1.71,2.85,2.85,0,0,0,1.1-.22,2.69,2.69,0,0,0,.92-.62l1,1a3.8,3.8,0,0,1-1.37,1A4.59,4.59,0,0,1,267,514a4.17,4.17,0,0,1-2-.48,3.33,3.33,0,0,1-1.35-1.34,4.35,4.35,0,0,1,0-4A3.41,3.41,0,0,1,265,506.9a4,4,0,0,1,2-.48A3.41,3.41,0,0,1,269.63,507.44Zm-.76,2.2a1.82,1.82,0,0,0-.55-1.32,2.13,2.13,0,0,0-2.71,0,2.13,2.13,0,0,0-.67,1.32Z"/><path class="cls-18" d="M278.72,508a1.91,1.91,0,0,0-1.48.62,2.26,2.26,0,0,0-.57,1.6,2.3,2.3,0,0,0,.57,1.62,1.91,1.91,0,0,0,1.48.62,2.37,2.37,0,0,0,2-.88l1.13.94a3.31,3.31,0,0,1-1.33,1.12,4.42,4.42,0,0,1-1.92.39,4,4,0,0,1-2-.48,3.35,3.35,0,0,1-1.34-1.34,4.38,4.38,0,0,1,0-4,3.38,3.38,0,0,1,1.34-1.34,4,4,0,0,1,2-.48,4.47,4.47,0,0,1,1.83.36,3.3,3.3,0,0,1,1.31,1l-1.11,1A2.53,2.53,0,0,0,278.72,508Z"/><path class="cls-18" d="M289,507.44a4.19,4.19,0,0,1,.9,2.87c0,.24,0,.42,0,.55h-5.53a2.09,2.09,0,0,0,2.14,1.71,2.85,2.85,0,0,0,1.1-.22,2.68,2.68,0,0,0,.92-.62l1,1a3.78,3.78,0,0,1-1.37,1,4.58,4.58,0,0,1-1.79.34,4.16,4.16,0,0,1-2-.48,3.32,3.32,0,0,1-1.35-1.34,4.34,4.34,0,0,1,0-4,3.42,3.42,0,0,1,1.35-1.35,4,4,0,0,1,2-.48A3.41,3.41,0,0,1,289,507.44Zm-.76,2.2a1.82,1.82,0,0,0-.55-1.32,2.13,2.13,0,0,0-2.71,0,2.13,2.13,0,0,0-.67,1.32Z"/><path class="cls-18" d="M291.52,503.57h1.82V514h-1.82Z"/><path class="cls-18" d="M301.49,507.44a4.19,4.19,0,0,1,.9,2.87c0,.24,0,.42,0,.55h-5.53a2.08,2.08,0,0,0,2.14,1.71,2.85,2.85,0,0,0,1.1-.22,2.69,2.69,0,0,0,.92-.62l1,1a3.8,3.8,0,0,1-1.37,1,4.58,4.58,0,0,1-1.79.34,4.16,4.16,0,0,1-2-.48,3.32,3.32,0,0,1-1.35-1.34,4.35,4.35,0,0,1,0-4,3.41,3.41,0,0,1,1.35-1.35,4,4,0,0,1,2-.48A3.41,3.41,0,0,1,301.49,507.44Zm-.76,2.2a1.82,1.82,0,0,0-.54-1.32,2.13,2.13,0,0,0-2.71,0,2.13,2.13,0,0,0-.67,1.32Z"/><path class="cls-18" d="M310.23,506.9a3.27,3.27,0,0,1,1.25,1.35,4.37,4.37,0,0,1,.44,2,4.29,4.29,0,0,1-.43,2,3.2,3.2,0,0,1-1.23,1.33,3.54,3.54,0,0,1-1.85.48,3.22,3.22,0,0,1-1.48-.33,2.79,2.79,0,0,1-1.06-1V514H304V503.57h1.82v4.13a2.68,2.68,0,0,1,1-1,3.16,3.16,0,0,1,1.48-.33A3.54,3.54,0,0,1,310.23,506.9Zm-.75,4.93a2.31,2.31,0,0,0,.59-1.63,2.28,2.28,0,0,0-.59-1.62,2.15,2.15,0,0,0-3,0,2.56,2.56,0,0,0,0,3.26,2,2,0,0,0,1.53.63A2,2,0,0,0,309.48,511.83Z"/><path class="cls-18" d="M316.34,506.8a3,3,0,0,1,1.52-.4v1.76a2.47,2.47,0,0,0-1.86.54,2.08,2.08,0,0,0-.69,1.64V514H313.5v-7.49h1.82v1.44A2.71,2.71,0,0,1,316.34,506.8Z"/><path class="cls-18" d="M323.29,514V513a2.46,2.46,0,0,1-1,.74,3.71,3.71,0,0,1-1.41.25,3,3,0,0,1-1.38-.3,2.22,2.22,0,0,1-.92-.83,2.26,2.26,0,0,1-.32-1.19,2,2,0,0,1,.74-1.64,3.34,3.34,0,0,1,2.1-.61h2.18v-.2a1.26,1.26,0,0,0-.43-1,1.92,1.92,0,0,0-1.26-.36,4.32,4.32,0,0,0-2.22.7l-.66-1.26a8.25,8.25,0,0,1,1.6-.71,5.84,5.84,0,0,1,1.69-.22,3.34,3.34,0,0,1,2.26.7,2.5,2.5,0,0,1,.82,2V514Zm-.64-1.69a1.29,1.29,0,0,0,.63-.92v-.67h-1.89a2.06,2.06,0,0,0-1.07.22.78.78,0,0,0-.34.71.91.91,0,0,0,.36.76,1.53,1.53,0,0,0,1,.28A2.37,2.37,0,0,0,322.65,512.27Z"/><path class="cls-18" d="M331.51,513.5a3.56,3.56,0,0,1-1.88.55,2.25,2.25,0,0,1-1.58-.57,2.16,2.16,0,0,1-.62-1.67v-3.7h-1.05v-1.33h1.06v-2.06h1.81v2.06h2.14v1.33h-2.14v3.37a1.09,1.09,0,0,0,.2.74.75.75,0,0,0,.59.22,2.61,2.61,0,0,0,1.06-.31Z"/><path class="cls-18" d="M334.58,503.56a1.09,1.09,0,0,1,.29.78,1.07,1.07,0,0,1-.29.77,1,1,0,0,1-1.48,0,1.07,1.07,0,0,1-.29-.77,1.09,1.09,0,0,1,.29-.78,1,1,0,0,1,1.48,0Zm-1.64,2.91h1.82V514h-1.82Z"/><path class="cls-18" d="M343.55,507.18a2.92,2.92,0,0,1,.74,2.11V514h-1.83v-4.14a1.69,1.69,0,0,0-.45-1.24,1.63,1.63,0,0,0-1.22-.46,1.85,1.85,0,0,0-1.44.62,2.26,2.26,0,0,0-.52,1.54V514H337v-7.49h1.82v1.4a2.84,2.84,0,0,1,2.69-1.47A2.68,2.68,0,0,1,343.55,507.18Z"/><path class="cls-18" d="M353.19,506.47v6.78a3.49,3.49,0,0,1-.48,1.85,3.17,3.17,0,0,1-1.37,1.22,4.71,4.71,0,0,1-2.07.43,5.5,5.5,0,0,1-3.16-1l.73-1.32a3.85,3.85,0,0,0,2.34.78,2.36,2.36,0,0,0,1.6-.52,1.78,1.78,0,0,0,.59-1.41v-.88a2.49,2.49,0,0,1-1,.88,3.09,3.09,0,0,1-1.4.3,3.31,3.31,0,0,1-1.74-.46,3.11,3.11,0,0,1-1.18-1.27,4.07,4.07,0,0,1-.42-1.88,4,4,0,0,1,.42-1.86,3.08,3.08,0,0,1,1.18-1.25,3.35,3.35,0,0,1,1.74-.45,3,3,0,0,1,1.39.31,2.57,2.57,0,0,1,1,.87v-1.12Zm-2.37,5.09a2.44,2.44,0,0,0,0-3.09,2,2,0,0,0-2.87,0,2.38,2.38,0,0,0,0,3.09,2,2,0,0,0,2.87,0Z"/><path class="cls-18" d="M363.14,513.5a3.56,3.56,0,0,1-1.88.55,2.25,2.25,0,0,1-1.58-.57,2.16,2.16,0,0,1-.62-1.67v-3.7H358v-1.33h1.06v-2.06h1.81v2.06H363v1.33h-2.14v3.37a1.09,1.09,0,0,0,.2.74.75.75,0,0,0,.59.22,2.61,2.61,0,0,0,1.06-.31Z"/><path class="cls-18" d="M371.19,507.18a2.92,2.92,0,0,1,.74,2.11V514H370.1v-4.14a1.69,1.69,0,0,0-.45-1.24,1.63,1.63,0,0,0-1.22-.46,1.87,1.87,0,0,0-1.44.62,2.24,2.24,0,0,0-.53,1.54V514h-1.82V503.57h1.82v4.33a2.84,2.84,0,0,1,2.7-1.5A2.68,2.68,0,0,1,371.19,507.18Z"/><path class="cls-18" d="M379.79,507.44a4.19,4.19,0,0,1,.9,2.87c0,.24,0,.42,0,.55h-5.53a2.09,2.09,0,0,0,2.14,1.71,2.85,2.85,0,0,0,1.1-.22,2.68,2.68,0,0,0,.92-.62l1,1a3.8,3.8,0,0,1-1.37,1,4.58,4.58,0,0,1-1.79.34,4.16,4.16,0,0,1-2-.48,3.32,3.32,0,0,1-1.35-1.34,4.35,4.35,0,0,1,0-4,3.42,3.42,0,0,1,1.35-1.35,4,4,0,0,1,2-.48A3.41,3.41,0,0,1,379.79,507.44Zm-.76,2.2a1.82,1.82,0,0,0-.55-1.32,2.13,2.13,0,0,0-2.71,0,2.13,2.13,0,0,0-.67,1.32Z"/><path class="cls-18" d="M397.51,507.18a3,3,0,0,1,.73,2.11V514H396.4v-4.14a1.73,1.73,0,0,0-.44-1.25,1.59,1.59,0,0,0-1.2-.46,1.8,1.8,0,0,0-1.38.63,2.28,2.28,0,0,0-.51,1.53V514H391v-4.14a1.74,1.74,0,0,0-.43-1.25,1.57,1.57,0,0,0-1.19-.46,1.82,1.82,0,0,0-1.39.63,2.28,2.28,0,0,0-.51,1.53V514h-1.82v-7.49h1.82v1.39a3.11,3.11,0,0,1,4.28-1,2.46,2.46,0,0,1,.93,1.32,2.77,2.77,0,0,1,2.79-1.79A2.61,2.61,0,0,1,397.51,507.18Z"/><path class="cls-18" d="M405.59,506.89a3.44,3.44,0,0,1,1.39,1.34,3.89,3.89,0,0,1,.5,2,4,4,0,0,1-.5,2,3.43,3.43,0,0,1-1.39,1.34,4.28,4.28,0,0,1-2.05.48,4.35,4.35,0,0,1-2.07-.48,3.42,3.42,0,0,1-1.39-1.34,4,4,0,0,1-.5-2,3.88,3.88,0,0,1,.5-2,3.43,3.43,0,0,1,1.39-1.34,4.35,4.35,0,0,1,2.07-.48A4.28,4.28,0,0,1,405.59,506.89ZM402,508.6a2.58,2.58,0,0,0,0,3.28,2,2,0,0,0,1.54.63,2,2,0,0,0,1.51-.63,2.58,2.58,0,0,0,0-3.28,2,2,0,0,0-1.51-.63A2,2,0,0,0,402,508.6Z"/><path class="cls-18" d="M415.6,507.18a2.92,2.92,0,0,1,.74,2.11V514H414.5v-4.14a1.69,1.69,0,0,0-.45-1.24,1.63,1.63,0,0,0-1.22-.46,1.85,1.85,0,0,0-1.44.62,2.26,2.26,0,0,0-.52,1.54V514h-1.82v-7.49h1.82v1.4a2.84,2.84,0,0,1,2.69-1.47A2.68,2.68,0,0,1,415.6,507.18Z"/><path class="cls-18" d="M422.76,513.5a3.56,3.56,0,0,1-1.88.55,2.25,2.25,0,0,1-1.58-.57,2.16,2.16,0,0,1-.62-1.67v-3.7h-1.05v-1.33h1.06v-2.06h1.81v2.06h2.14v1.33H420.5v3.37a1.09,1.09,0,0,0,.2.74.75.75,0,0,0,.59.22,2.61,2.61,0,0,0,1.06-.31Z"/><path class="cls-18" d="M430.81,507.18a2.92,2.92,0,0,1,.74,2.11V514h-1.83v-4.14a1.69,1.69,0,0,0-.45-1.24,1.63,1.63,0,0,0-1.22-.46,1.87,1.87,0,0,0-1.44.62,2.24,2.24,0,0,0-.53,1.54V514h-1.82V503.57h1.82v4.33a2.84,2.84,0,0,1,2.7-1.5A2.68,2.68,0,0,1,430.81,507.18Z"/><path class="cls-18" d="M437.1,503.57h1.82V514H437.1Z"/><path class="cls-18" d="M446.58,506.89a3.44,3.44,0,0,1,1.39,1.34,3.89,3.89,0,0,1,.5,2,4,4,0,0,1-.5,2,3.43,3.43,0,0,1-1.39,1.34,4.28,4.28,0,0,1-2.05.48,4.35,4.35,0,0,1-2.07-.48,3.42,3.42,0,0,1-1.39-1.34,4,4,0,0,1-.5-2,3.88,3.88,0,0,1,.5-2,3.43,3.43,0,0,1,1.39-1.34,4.35,4.35,0,0,1,2.07-.48A4.28,4.28,0,0,1,446.58,506.89ZM443,508.6a2.58,2.58,0,0,0,0,3.28,2,2,0,0,0,1.54.63,2,2,0,0,0,1.51-.63,2.58,2.58,0,0,0,0-3.28,2,2,0,0,0-1.51-.63A2,2,0,0,0,443,508.6Z"/><path class="cls-18" d="M456.59,507.18a2.92,2.92,0,0,1,.74,2.11V514H455.5v-4.14a1.69,1.69,0,0,0-.45-1.24,1.63,1.63,0,0,0-1.22-.46,1.85,1.85,0,0,0-1.44.62,2.26,2.26,0,0,0-.52,1.54V514H450v-7.49h1.82v1.4a2.84,2.84,0,0,1,2.69-1.47A2.68,2.68,0,0,1,456.59,507.18Z"/><path class="cls-18" d="M466.22,506.47v6.78a3.49,3.49,0,0,1-.48,1.85,3.17,3.17,0,0,1-1.37,1.22,4.71,4.71,0,0,1-2.07.43,5.5,5.5,0,0,1-3.16-1l.73-1.32a3.85,3.85,0,0,0,2.34.78,2.36,2.36,0,0,0,1.6-.52,1.78,1.78,0,0,0,.59-1.41v-.88a2.49,2.49,0,0,1-1,.88,3.09,3.09,0,0,1-1.4.3,3.31,3.31,0,0,1-1.74-.46,3.11,3.11,0,0,1-1.18-1.27,4.07,4.07,0,0,1-.42-1.88,4,4,0,0,1,.42-1.86,3.08,3.08,0,0,1,1.18-1.25,3.35,3.35,0,0,1,1.74-.45,3,3,0,0,1,1.39.31,2.57,2.57,0,0,1,1,.87v-1.12Zm-2.37,5.09a2.44,2.44,0,0,0,0-3.09,2,2,0,0,0-2.87,0,2.38,2.38,0,0,0,0,3.09,2,2,0,0,0,2.87,0Z"/><path class="cls-18" d="M291.63,521h1.88v4.19h4.89V521h1.88v9.8h-1.88v-4h-4.89v4h-1.88Z"/><path class="cls-18" d="M307,530.76v-.91a2.46,2.46,0,0,1-1,.74,3.72,3.72,0,0,1-1.41.25,3,3,0,0,1-1.38-.3,2.22,2.22,0,0,1-.92-.83,2.26,2.26,0,0,1-.32-1.19,2,2,0,0,1,.74-1.64,3.34,3.34,0,0,1,2.1-.61H307v-.2a1.26,1.26,0,0,0-.43-1,1.91,1.91,0,0,0-1.26-.36,4.32,4.32,0,0,0-2.23.7l-.66-1.26a8.3,8.3,0,0,1,1.6-.71,5.85,5.85,0,0,1,1.69-.22,3.34,3.34,0,0,1,2.26.7,2.5,2.5,0,0,1,.82,2v4.9Zm-.64-1.69a1.29,1.29,0,0,0,.63-.92v-.67h-1.89a2.05,2.05,0,0,0-1.07.22.77.77,0,0,0-.34.71.91.91,0,0,0,.36.76,1.53,1.53,0,0,0,1,.28A2.37,2.37,0,0,0,306.4,529.07Z"/><path class="cls-18" d="M314.07,524.81a1.91,1.91,0,0,0-1.48.62A2.26,2.26,0,0,0,312,527a2.3,2.3,0,0,0,.57,1.62,1.91,1.91,0,0,0,1.48.62,2.37,2.37,0,0,0,2-.88l1.13.94a3.31,3.31,0,0,1-1.33,1.12,4.42,4.42,0,0,1-1.92.39,4,4,0,0,1-2-.48,3.36,3.36,0,0,1-1.34-1.34,4.38,4.38,0,0,1,0-4,3.39,3.39,0,0,1,1.34-1.34,4,4,0,0,1,2-.48,4.48,4.48,0,0,1,1.83.36,3.3,3.3,0,0,1,1.31,1l-1.11,1A2.54,2.54,0,0,0,314.07,524.81Z"/><path class="cls-18" d="M323.85,530.76l-2-3.28-1.15,1.2v2.07h-1.82V520.37h1.82v6l3.08-3.11h2.1l-2.77,2.88,2.94,4.59Z"/><path class="cls-18" d="M331.63,530.3a3.56,3.56,0,0,1-1.88.55,2.25,2.25,0,0,1-1.58-.57,2.16,2.16,0,0,1-.62-1.67v-3.7h-1.05v-1.33h1.06v-2.06h1.81v2.06h2.14v1.33h-2.14v3.37a1.09,1.09,0,0,0,.2.74.75.75,0,0,0,.59.22,2.61,2.61,0,0,0,1.06-.31Z"/><path class="cls-18" d="M338.31,523.69A3.44,3.44,0,0,1,339.7,525a3.89,3.89,0,0,1,.5,2,4,4,0,0,1-.5,2,3.43,3.43,0,0,1-1.39,1.34,4.28,4.28,0,0,1-2.05.48,4.35,4.35,0,0,1-2.07-.48A3.42,3.42,0,0,1,332.8,529a4,4,0,0,1-.5-2,3.88,3.88,0,0,1,.5-2,3.43,3.43,0,0,1,1.39-1.34,4.35,4.35,0,0,1,2.07-.48A4.28,4.28,0,0,1,338.31,523.69Zm-3.59,1.71a2.58,2.58,0,0,0,0,3.28,2,2,0,0,0,1.54.63,2,2,0,0,0,1.51-.63,2.58,2.58,0,0,0,0-3.28,2,2,0,0,0-1.51-.63A2,2,0,0,0,334.72,525.4Z"/><path class="cls-18" d="M348,523.7a3.26,3.26,0,0,1,1.25,1.35,4.35,4.35,0,0,1,.44,2,4.3,4.3,0,0,1-.43,2,3.21,3.21,0,0,1-1.23,1.33,3.54,3.54,0,0,1-1.85.48,3.23,3.23,0,0,1-1.48-.33,2.79,2.79,0,0,1-1.06-1v1.22h-1.82V520.37h1.82v4.13a2.69,2.69,0,0,1,1-1,3.17,3.17,0,0,1,1.48-.33A3.54,3.54,0,0,1,348,523.7Zm-.75,4.93a2.31,2.31,0,0,0,.59-1.63,2.29,2.29,0,0,0-.59-1.62,2.15,2.15,0,0,0-3,0,2.56,2.56,0,0,0,0,3.26,2,2,0,0,0,1.53.63A2,2,0,0,0,347.3,528.63Z"/><path class="cls-18" d="M357.13,524.24a4.19,4.19,0,0,1,.9,2.87c0,.24,0,.42,0,.55h-5.53a2.09,2.09,0,0,0,2.14,1.71,2.85,2.85,0,0,0,1.1-.22,2.68,2.68,0,0,0,.92-.62l1,1a3.8,3.8,0,0,1-1.37,1,4.58,4.58,0,0,1-1.79.34,4.16,4.16,0,0,1-2-.48A3.32,3.32,0,0,1,351.1,529a4.35,4.35,0,0,1,0-4,3.42,3.42,0,0,1,1.35-1.35,4,4,0,0,1,2-.48A3.41,3.41,0,0,1,357.13,524.24Zm-.76,2.2a1.82,1.82,0,0,0-.55-1.32,2.13,2.13,0,0,0-2.71,0,2.13,2.13,0,0,0-.67,1.32Z"/><path class="cls-18" d="M362.45,523.6a3,3,0,0,1,1.52-.4V525a2.47,2.47,0,0,0-1.85.54,2.07,2.07,0,0,0-.69,1.64v3.61H359.6v-7.49h1.82v1.44A2.7,2.7,0,0,1,362.45,523.6Z"/><path class="cls-18" d="M367.67,522.09a.89.89,0,0,0-.27.71v.77h1.88v1.33H367.4v5.85h-1.82v-5.85h-1v-1.33h1v-.71a2.6,2.6,0,0,1,.36-1.41,2.32,2.32,0,0,1,1-.87,3,3,0,0,1,1.32-.29,3.14,3.14,0,0,1,1.37.32l-.32,1.47a2.63,2.63,0,0,0-.92-.22A1,1,0,0,0,367.67,522.09Z"/><path class="cls-18" d="M376,524.24a4.19,4.19,0,0,1,.9,2.87c0,.24,0,.42,0,.55h-5.53a2.09,2.09,0,0,0,2.14,1.71,2.85,2.85,0,0,0,1.1-.22,2.68,2.68,0,0,0,.92-.62l1,1a3.8,3.8,0,0,1-1.37,1,4.58,4.58,0,0,1-1.79.34,4.16,4.16,0,0,1-2-.48A3.32,3.32,0,0,1,370,529a4.35,4.35,0,0,1,0-4,3.42,3.42,0,0,1,1.35-1.35,4,4,0,0,1,2-.48A3.41,3.41,0,0,1,376,524.24Zm-.76,2.2a1.82,1.82,0,0,0-.55-1.32,2.13,2.13,0,0,0-2.71,0,2.13,2.13,0,0,0-.67,1.32Z"/><path class="cls-18" d="M381.81,524.8a3.62,3.62,0,0,0-1.07-.18,1.45,1.45,0,0,0-.74.16.54.54,0,0,0-.27.5.59.59,0,0,0,.34.54,5.55,5.55,0,0,0,1.08.4,10.33,10.33,0,0,1,1.29.47,2.43,2.43,0,0,1,.88.69,1.84,1.84,0,0,1,.37,1.2,1.93,1.93,0,0,1-.84,1.68,3.6,3.6,0,0,1-2.11.59,5.37,5.37,0,0,1-1.69-.27,4,4,0,0,1-1.4-.78l.63-1.27a3.69,3.69,0,0,0,1.2.68,4,4,0,0,0,1.33.25,1.6,1.6,0,0,0,.8-.17.57.57,0,0,0,.3-.53.63.63,0,0,0-.35-.59,6.15,6.15,0,0,0-1.13-.43,9.65,9.65,0,0,1-1.23-.44,2.23,2.23,0,0,1-.83-.66,1.8,1.8,0,0,1-.35-1.16,2,2,0,0,1,.8-1.69,3.37,3.37,0,0,1,2-.58,5.23,5.23,0,0,1,1.46.21,4.55,4.55,0,0,1,1.28.59l-.66,1.32A5.38,5.38,0,0,0,381.81,524.8Z"/><path class="cls-18" d="M389.63,530.3a3.56,3.56,0,0,1-1.88.55,2.25,2.25,0,0,1-1.58-.57,2.16,2.16,0,0,1-.62-1.67v-3.7h-1.05v-1.33h1.06v-2.06h1.81v2.06h2.14v1.33h-2.14v3.37a1.09,1.09,0,0,0,.2.74.75.75,0,0,0,.59.22,2.61,2.61,0,0,0,1.06-.31Z"/><path class="cls-18" d="M395.77,529.15a1,1,0,0,1,.27.71,1,1,0,0,1-.27.74.91.91,0,0,1-.69.29.89.89,0,0,1-.68-.29,1,1,0,0,1-.27-.73,1,1,0,0,1,.27-.71.91.91,0,0,1,.68-.28A.93.93,0,0,1,395.77,529.15Zm-1.56-8.09H396v2.44l-.31,4.07h-1.13l-.31-4.07Z"/><path class="cls-18" d="M398.88,529.15a1,1,0,0,1,.27.71,1,1,0,0,1-.27.74.91.91,0,0,1-.69.29.89.89,0,0,1-.68-.29,1,1,0,0,1-.27-.73,1,1,0,0,1,.27-.71.91.91,0,0,1,.68-.28A.93.93,0,0,1,398.88,529.15Zm-1.56-8.09h1.75v2.44l-.31,4.07h-1.13l-.31-4.07Z"/></svg>