<svg id="Layer_1" data-name="Layer 1" xmlns="http://www.w3.org/2000/svg" xmlns:xlink="http://www.w3.org/1999/xlink" viewBox="0 0 690 687"><defs><style>.cls-1{fill:none;}.cls-2{fill:#4a3736;}.cls-3{fill:#4f2403;}.cls-4{fill:#24605e;}.cls-5{fill:#62b2b2;}.cls-6{fill:#ff4b00;}.cls-7{fill:#f8f7f5;}.cls-8{fill:#e6ac92;}.cls-9{fill:#fdbf5e;}.cls-10{fill:#c68d77;}.cls-11{fill:#654237;}.cls-12{fill:#f85e51;}.cls-13{fill:#ce957e;}.cls-14{fill:#a3be92;}.cls-15{fill:#dcb605;}.cls-16{fill:#2d1515;}.cls-17{fill:#d3e8f5;}.cls-18{fill:#bf6b26;}.cls-19{fill:#ef8813;}.cls-20{fill:#7c9b62;}.cls-21{fill:#25829f;}.cls-22{fill:#060c0c;}.cls-23{fill:#37a9bc;}.cls-24{clip-path:url(#clip-path);}.cls-25{opacity:0.8;}.cls-26{clip-path:url(#clip-path-2);}.cls-27{fill:#273274;}.cls-28{fill:#ff544e;}</style><clipPath id="clip-path"><circle class="cls-1" cx="-365" cy="332.45" r="118.45"/></clipPath><clipPath id="clip-path-2"><rect class="cls-1" x="-642.91" y="269.19" width="677.76" height="184.3"/></clipPath></defs><title>landing hactober cafe</title><path class="cls-2" d="M213.8,427.76h2.79V434h7.25v-6.21h2.78v14.55h-2.78v-5.9h-7.25v5.9H213.8Z"/><path class="cls-2" d="M238.75,432.63a6.22,6.22,0,0,1,1.34,4.26c0,.36,0,.63,0,.81h-8.21a3.09,3.09,0,0,0,3.18,2.54,4.23,4.23,0,0,0,1.63-.32A4,4,0,0,0,238,439l1.46,1.52a5.63,5.63,0,0,1-2,1.41,6.82,6.82,0,0,1-2.65.5,6.18,6.18,0,0,1-3-.71,4.93,4.93,0,0,1-2-2,6.46,6.46,0,0,1,0-5.89,5.09,5.09,0,0,1,2-2,5.93,5.93,0,0,1,2.93-.72A5.06,5.06,0,0,1,238.75,432.63Zm-1.13,3.26a2.7,2.7,0,0,0-.81-2,3.16,3.16,0,0,0-4,0,3.17,3.17,0,0,0-1,2Z"/><path class="cls-2" d="M245.3,445.77a3.82,3.82,0,0,1-2.3.7,4.25,4.25,0,0,1-1.47-.24,4.6,4.6,0,0,1-1.3-.76l1.16-2.06a3.45,3.45,0,0,0,.73.43,1.86,1.86,0,0,0,.71.14,1.7,1.7,0,0,0,1.62-1.12l.33-.73-4.59-10.93H243l3.16,8.09,2.89-8.09h2.72l-5,12.51A4.36,4.36,0,0,1,245.3,445.77Z"/><path class="cls-2" d="M255.23,439.92a1.46,1.46,0,0,1,.41,1.06,1.52,1.52,0,0,1-.41,1.09,1.36,1.36,0,0,1-1,.43,1.32,1.32,0,0,1-1-.44,1.53,1.53,0,0,1-.41-1.08,1.46,1.46,0,0,1,.41-1.06,1.35,1.35,0,0,1,1-.42A1.38,1.38,0,0,1,255.23,439.92Zm-2.32-12h2.6v3.62l-.46,6h-1.68l-.46-6Z"/><path class="cls-2" d="M265.47,426.87a1.62,1.62,0,0,1,.44,1.16,1.59,1.59,0,0,1-.44,1.14,1.56,1.56,0,0,1-2.2,0,1.59,1.59,0,0,1-.44-1.14,1.61,1.61,0,0,1,.44-1.16,1.55,1.55,0,0,1,2.2,0ZM263,431.19h2.7v11.12H263Z"/><path class="cls-2" d="M272.69,429.45a1.33,1.33,0,0,0-.41,1.06v1.14h2.79v2h-2.79v8.69h-2.7v-8.69h-1.45v-2h1.45v-1.06a3.85,3.85,0,0,1,.54-2.09,3.45,3.45,0,0,1,1.44-1.3,4.46,4.46,0,0,1,2-.44,4.67,4.67,0,0,1,2,.48l-.48,2.18a3.88,3.88,0,0,0-1.37-.33A1.51,1.51,0,0,0,272.69,429.45Z"/><path class="cls-2" d="M285,445.77a3.82,3.82,0,0,1-2.3.7,4.25,4.25,0,0,1-1.47-.24,4.6,4.6,0,0,1-1.3-.76l1.16-2.06a3.45,3.45,0,0,0,.73.43,1.86,1.86,0,0,0,.71.14,1.7,1.7,0,0,0,1.62-1.12l.33-.73-4.59-10.93h2.81l3.16,8.09,2.89-8.09h2.72l-5,12.51A4.36,4.36,0,0,1,285,445.77Z"/><path class="cls-2" d="M300.58,431.82a5.12,5.12,0,0,1,2.06,2,5.78,5.78,0,0,1,.74,2.94,5.88,5.88,0,0,1-.74,3,5.09,5.09,0,0,1-2.06,2,6.35,6.35,0,0,1-3,.71,6.45,6.45,0,0,1-3.08-.71,5.06,5.06,0,0,1-2.07-2,5.87,5.87,0,0,1-.74-3,5.77,5.77,0,0,1,.74-2.94,5.09,5.09,0,0,1,2.07-2,6.46,6.46,0,0,1,3.08-.71A6.36,6.36,0,0,1,300.58,431.82Zm-5.33,2.54a3.82,3.82,0,0,0,0,4.86,3,3,0,0,0,2.29.94,2.93,2.93,0,0,0,2.24-.94,3.82,3.82,0,0,0,0-4.86,2.93,2.93,0,0,0-2.24-.94A3,3,0,0,0,295.25,434.35Z"/><path class="cls-2" d="M316,431.19v11.12h-2.72v-2.06a4,4,0,0,1-3.87,2.16,3.86,3.86,0,0,1-3-1.14,4.35,4.35,0,0,1-1.08-3.12v-7h2.72v6.17a2.54,2.54,0,0,0,.63,1.83,2.31,2.31,0,0,0,1.76.67,2.57,2.57,0,0,0,2-.91,3.41,3.41,0,0,0,.75-2.27v-5.49Z"/><path class="cls-2" d="M331,442.31V441a3.66,3.66,0,0,1-1.5,1.1,5.51,5.51,0,0,1-2.1.37,4.47,4.47,0,0,1-2-.45,3.27,3.27,0,0,1-1.36-1.24,3.35,3.35,0,0,1-.48-1.77,3,3,0,0,1,1.1-2.44,5,5,0,0,1,3.12-.9H331v-.29a1.87,1.87,0,0,0-.64-1.52,2.84,2.84,0,0,0-1.87-.54,6.42,6.42,0,0,0-3.3,1l-1-1.87a12.22,12.22,0,0,1,2.38-1,8.74,8.74,0,0,1,2.5-.32,5,5,0,0,1,3.36,1,3.71,3.71,0,0,1,1.22,2.91l0,7.27Zm-1-2.5a1.91,1.91,0,0,0,.94-1.36v-1h-2.81a3,3,0,0,0-1.59.32,1.15,1.15,0,0,0-.51,1,1.35,1.35,0,0,0,.53,1.12,2.28,2.28,0,0,0,1.44.42A3.52,3.52,0,0,0,330.06,439.81Z"/><path class="cls-2" d="M340.95,431.68a4.49,4.49,0,0,1,2.25-.59v2.62a3.67,3.67,0,0,0-2.75.8,3.09,3.09,0,0,0-1,2.44v5.36h-2.7V431.19h2.7v2.14A4,4,0,0,1,340.95,431.68Z"/><path class="cls-2" d="M353.73,432.63a6.22,6.22,0,0,1,1.34,4.26q0,.54,0,.81h-8.21a3.1,3.1,0,0,0,3.18,2.54,4.24,4.24,0,0,0,1.63-.32A4,4,0,0,0,353,439l1.45,1.52a5.63,5.63,0,0,1-2,1.41,6.82,6.82,0,0,1-2.65.5,6.18,6.18,0,0,1-3-.71,4.94,4.94,0,0,1-2-2,6.46,6.46,0,0,1,0-5.89,5.09,5.09,0,0,1,2-2,5.93,5.93,0,0,1,2.93-.72A5.06,5.06,0,0,1,353.73,432.63Zm-1.13,3.26a2.69,2.69,0,0,0-.81-2,3.16,3.16,0,0,0-4,0,3.17,3.17,0,0,0-1,2Z"/><path class="cls-2" d="M364.92,426.87a1.61,1.61,0,0,1,.44,1.16,1.59,1.59,0,0,1-.44,1.14,1.56,1.56,0,0,1-2.2,0,1.59,1.59,0,0,1-.44-1.14,1.62,1.62,0,0,1,.44-1.16,1.55,1.55,0,0,1,2.2,0Zm-2.43,4.32h2.7v11.12h-2.7Z"/><path class="cls-2" d="M378.24,432.24a4.35,4.35,0,0,1,1.1,3.13v6.94h-2.72v-6.15a2.51,2.51,0,0,0-.67-1.84,2.42,2.42,0,0,0-1.81-.68,2.74,2.74,0,0,0-2.13.91,3.36,3.36,0,0,0-.78,2.29v5.47h-2.7V431.19h2.7v2.08a4.21,4.21,0,0,1,4-2.18A4,4,0,0,1,378.24,432.24Z"/><path class="cls-2" d="M397.71,428.74A3.12,3.12,0,0,1,399,431.4a3.18,3.18,0,0,1-2.54,3.22,3.76,3.76,0,0,1,2.28,1.25,3.66,3.66,0,0,1,.82,2.43,3.46,3.46,0,0,1-1.45,2.94,6.48,6.48,0,0,1-3.94,1.07h-6.65V427.76H394A6.12,6.12,0,0,1,397.71,428.74Zm-2.12,4.49a1.59,1.59,0,0,0,.61-1.33,1.52,1.52,0,0,0-.61-1.29,2.69,2.69,0,0,0-1.69-.44h-3.53v3.53h3.53A2.69,2.69,0,0,0,395.59,433.23Zm.38,6.17a1.67,1.67,0,0,0,.75-1.45,1.61,1.61,0,0,0-.75-1.4,3.56,3.56,0,0,0-2.08-.49h-3.53v3.85h3.53A3.5,3.5,0,0,0,396,439.4Z"/><path class="cls-2" d="M408.77,442.31V441a3.64,3.64,0,0,1-1.5,1.1,5.51,5.51,0,0,1-2.1.37,4.47,4.47,0,0,1-2-.45,3.28,3.28,0,0,1-1.36-1.24,3.35,3.35,0,0,1-.48-1.77,3,3,0,0,1,1.1-2.44,5,5,0,0,1,3.12-.9h3.24v-.29a1.87,1.87,0,0,0-.64-1.52,2.85,2.85,0,0,0-1.87-.54,6.42,6.42,0,0,0-3.3,1l-1-1.87a12.25,12.25,0,0,1,2.38-1,8.74,8.74,0,0,1,2.5-.32,5,5,0,0,1,3.36,1,3.71,3.71,0,0,1,1.22,2.91l0,7.27Zm-1-2.5a1.91,1.91,0,0,0,.94-1.36v-1h-2.81a3.05,3.05,0,0,0-1.59.32,1.15,1.15,0,0,0-.51,1,1.35,1.35,0,0,0,.53,1.12,2.27,2.27,0,0,0,1.44.42A3.53,3.53,0,0,0,407.82,439.81Z"/><path class="cls-2" d="M424.18,432.24a4.34,4.34,0,0,1,1.1,3.13v6.94h-2.72v-6.15a2.51,2.51,0,0,0-.66-1.84,2.42,2.42,0,0,0-1.81-.68,2.74,2.74,0,0,0-2.13.91,3.36,3.36,0,0,0-.78,2.29v5.47h-2.7V431.19h2.7v2.08a4.21,4.21,0,0,1,4-2.18A4,4,0,0,1,424.18,432.24Z"/><path class="cls-2" d="M438.48,431.19v10.06a5.18,5.18,0,0,1-.72,2.75,4.72,4.72,0,0,1-2,1.81,7,7,0,0,1-3.07.63A8.17,8.17,0,0,1,428,445l1.08-2a5.72,5.72,0,0,0,3.47,1.16,3.49,3.49,0,0,0,2.38-.77,2.64,2.64,0,0,0,.88-2.1V440a3.69,3.69,0,0,1-1.46,1.3,4.58,4.58,0,0,1-2.08.45,4.89,4.89,0,0,1-2.58-.68,4.61,4.61,0,0,1-1.75-1.89,6,6,0,0,1-.62-2.8,5.87,5.87,0,0,1,.62-2.75,4.58,4.58,0,0,1,1.75-1.86,5,5,0,0,1,2.58-.67,4.53,4.53,0,0,1,2.07.46,3.81,3.81,0,0,1,1.46,1.29v-1.66ZM435,438.75a3.63,3.63,0,0,0,0-4.59,3,3,0,0,0-4.26,0,3.54,3.54,0,0,0,0,4.58,3,3,0,0,0,4.26,0Z"/><path class="cls-2" d="M448.22,442.31V441a3.64,3.64,0,0,1-1.5,1.1,5.52,5.52,0,0,1-2.1.37,4.47,4.47,0,0,1-2-.45,3.27,3.27,0,0,1-1.36-1.24,3.34,3.34,0,0,1-.48-1.77,3,3,0,0,1,1.1-2.44,5,5,0,0,1,3.12-.9h3.24v-.29a1.88,1.88,0,0,0-.64-1.52,2.84,2.84,0,0,0-1.87-.54,6.43,6.43,0,0,0-3.31,1l-1-1.87a12.28,12.28,0,0,1,2.38-1,8.73,8.73,0,0,1,2.5-.32,5,5,0,0,1,3.36,1,3.71,3.71,0,0,1,1.22,2.91l0,7.27Zm-1-2.5a1.91,1.91,0,0,0,.94-1.36v-1H445.4a3,3,0,0,0-1.59.32,1.15,1.15,0,0,0-.51,1,1.35,1.35,0,0,0,.53,1.12,2.28,2.28,0,0,0,1.44.42A3.53,3.53,0,0,0,447.27,439.81Z"/><path class="cls-2" d="M454,426.89h2.7v15.42H454Z"/><path class="cls-2" d="M468.1,431.82a5.12,5.12,0,0,1,2.06,2,5.78,5.78,0,0,1,.74,2.94,5.88,5.88,0,0,1-.74,3,5.09,5.09,0,0,1-2.06,2,6.35,6.35,0,0,1-3,.71,6.45,6.45,0,0,1-3.08-.71,5.07,5.07,0,0,1-2.07-2,5.88,5.88,0,0,1-.74-3,5.78,5.78,0,0,1,.74-2.94,5.09,5.09,0,0,1,2.07-2,6.46,6.46,0,0,1,3.08-.71A6.37,6.37,0,0,1,468.1,431.82Zm-5.33,2.54a3.82,3.82,0,0,0,0,4.86,3,3,0,0,0,2.29.94,2.93,2.93,0,0,0,2.24-.94,3.82,3.82,0,0,0,0-4.86,2.93,2.93,0,0,0-2.24-.94A3,3,0,0,0,462.77,434.35Z"/><path class="cls-2" d="M477.48,431.68a4.5,4.5,0,0,1,2.25-.59v2.62a3.67,3.67,0,0,0-2.75.8,3.09,3.09,0,0,0-1,2.44v5.36h-2.7V431.19h2.7v2.14A4,4,0,0,1,477.48,431.68Z"/><path class="cls-2" d="M490.26,432.63a6.22,6.22,0,0,1,1.34,4.26q0,.54,0,.81h-8.21a3.1,3.1,0,0,0,3.18,2.54,4.24,4.24,0,0,0,1.63-.32,4,4,0,0,0,1.36-.93l1.45,1.52a5.63,5.63,0,0,1-2,1.41,6.82,6.82,0,0,1-2.65.5,6.18,6.18,0,0,1-3-.71,4.94,4.94,0,0,1-2-2,6.45,6.45,0,0,1,0-5.89,5.09,5.09,0,0,1,2-2,5.94,5.94,0,0,1,2.93-.72A5.06,5.06,0,0,1,490.26,432.63Zm-1.13,3.26a2.7,2.7,0,0,0-.81-2,3.16,3.16,0,0,0-4,0,3.17,3.17,0,0,0-1,2Z"/><path class="cls-2" d="M495.56,439.94A1.41,1.41,0,0,1,496,441a1.61,1.61,0,0,1-.09.56,5.54,5.54,0,0,1-.28.6l-1.31,2.51h-1.35l.87-2.47a1.36,1.36,0,0,1-.62-1.21,1.44,1.44,0,0,1,.4-1,1.33,1.33,0,0,1,1-.41A1.36,1.36,0,0,1,495.56,439.94Z"/><path class="cls-2" d="M180.65,469.13a1.2,1.2,0,0,0,1-.45,2.18,2.18,0,0,0,.36-1.36V456.14h2.7v11.6a3.73,3.73,0,0,1-.93,2.69,3.39,3.39,0,0,1-2.57,1,5.68,5.68,0,0,1-2.16-.42l.58-2A3.35,3.35,0,0,0,180.65,469.13Zm3.85-17.31a1.62,1.62,0,0,1,.44,1.16,1.59,1.59,0,0,1-.44,1.14,1.56,1.56,0,0,1-2.2,0,1.59,1.59,0,0,1-.44-1.14,1.61,1.61,0,0,1,.44-1.16,1.55,1.55,0,0,1,2.2,0Z"/><path class="cls-2" d="M195.87,456.76a5.12,5.12,0,0,1,2.06,2,5.78,5.78,0,0,1,.74,2.94,5.88,5.88,0,0,1-.74,3,5.09,5.09,0,0,1-2.06,2,6.35,6.35,0,0,1-3,.71,6.45,6.45,0,0,1-3.08-.71,5.06,5.06,0,0,1-2.07-2,5.87,5.87,0,0,1-.74-3,5.77,5.77,0,0,1,.74-2.94,5.09,5.09,0,0,1,2.07-2,6.46,6.46,0,0,1,3.08-.71A6.36,6.36,0,0,1,195.87,456.76Zm-5.33,2.54a3.82,3.82,0,0,0,0,4.86,3,3,0,0,0,2.29.94,2.93,2.93,0,0,0,2.24-.94,3.82,3.82,0,0,0,0-4.86,2.93,2.93,0,0,0-2.24-.94A3,3,0,0,0,190.54,459.29Z"/><path class="cls-2" d="M203.45,451.81a1.62,1.62,0,0,1,.44,1.16,1.59,1.59,0,0,1-.44,1.14,1.56,1.56,0,0,1-2.2,0,1.59,1.59,0,0,1-.44-1.14,1.61,1.61,0,0,1,.44-1.16,1.55,1.55,0,0,1,2.2,0ZM201,456.14h2.7v11.12H201Z"/><path class="cls-2" d="M216.77,457.19a4.34,4.34,0,0,1,1.1,3.13v6.94h-2.72V461.1a2.51,2.51,0,0,0-.66-1.84,2.42,2.42,0,0,0-1.81-.68,2.74,2.74,0,0,0-2.13.91,3.35,3.35,0,0,0-.78,2.29v5.47h-2.7V456.14h2.7v2.08a4.21,4.21,0,0,1,4-2.18A4,4,0,0,1,216.77,457.19Z"/><path class="cls-2" d="M232.5,466.57a5.27,5.27,0,0,1-2.78.81,3.33,3.33,0,0,1-2.35-.84,3.21,3.21,0,0,1-.92-2.48v-5.49H224.9l0-2h1.58v-3.06h2.68v3.06h3.18v2h-3.18v5a1.62,1.62,0,0,0,.29,1.09,1.11,1.11,0,0,0,.87.32,3.88,3.88,0,0,0,1.58-.46Z"/><path class="cls-2" d="M244.45,457.19a4.34,4.34,0,0,1,1.1,3.13v6.94h-2.72V461.1a2.51,2.51,0,0,0-.66-1.84,2.42,2.42,0,0,0-1.81-.68,2.78,2.78,0,0,0-2.14.91,3.33,3.33,0,0,0-.79,2.29v5.47h-2.7V451.83h2.7v6.42a4.21,4.21,0,0,1,4-2.22A4,4,0,0,1,244.45,457.19Z"/><path class="cls-2" d="M257.23,457.57a6.22,6.22,0,0,1,1.34,4.26q0,.54,0,.81h-8.21a3.1,3.1,0,0,0,3.18,2.54,4.24,4.24,0,0,0,1.63-.32,4,4,0,0,0,1.36-.93l1.45,1.52a5.63,5.63,0,0,1-2,1.41,6.82,6.82,0,0,1-2.65.5,6.18,6.18,0,0,1-3-.71,4.94,4.94,0,0,1-2-2,6.45,6.45,0,0,1,0-5.89,5.09,5.09,0,0,1,2-2,5.94,5.94,0,0,1,2.93-.72A5.06,5.06,0,0,1,257.23,457.57Zm-1.13,3.26a2.7,2.7,0,0,0-.81-2,3.16,3.16,0,0,0-4,0,3.17,3.17,0,0,0-1,2Z"/><path class="cls-2" d="M266.09,452.71h2.79v6.21h7.25v-6.21h2.78v14.55h-2.78v-5.9h-7.25v5.9h-2.79Z"/><path class="cls-2" d="M289,467.26V465.9a3.65,3.65,0,0,1-1.5,1.1,5.52,5.52,0,0,1-2.1.37,4.47,4.47,0,0,1-2-.45A3.27,3.27,0,0,1,282,465.7a3.34,3.34,0,0,1-.48-1.77,3,3,0,0,1,1.1-2.44,5,5,0,0,1,3.12-.9H289v-.29a1.88,1.88,0,0,0-.64-1.52,2.84,2.84,0,0,0-1.87-.54,6.42,6.42,0,0,0-3.3,1l-1-1.87a12.25,12.25,0,0,1,2.38-1A8.73,8.73,0,0,1,287,456a5,5,0,0,1,3.36,1,3.71,3.71,0,0,1,1.22,2.91l0,7.27Zm-1-2.5a1.91,1.91,0,0,0,.94-1.36v-1h-2.81a3,3,0,0,0-1.59.32,1.15,1.15,0,0,0-.51,1,1.35,1.35,0,0,0,.53,1.12,2.28,2.28,0,0,0,1.45.42A3.53,3.53,0,0,0,288,464.75Z"/><path class="cls-2" d="M299.41,458.42a2.84,2.84,0,0,0-2.19.91,3.36,3.36,0,0,0-.84,2.37,3.42,3.42,0,0,0,.84,2.41,2.84,2.84,0,0,0,2.19.91,3.53,3.53,0,0,0,3-1.31l1.68,1.39a4.92,4.92,0,0,1-2,1.66,6.57,6.57,0,0,1-2.85.58,5.93,5.93,0,0,1-2.92-.71,5,5,0,0,1-2-2,6.5,6.5,0,0,1,0-5.91,5,5,0,0,1,2-2,6,6,0,0,1,2.94-.71,6.63,6.63,0,0,1,2.71.53,4.9,4.9,0,0,1,1.94,1.51l-1.64,1.56A3.77,3.77,0,0,0,299.41,458.42Z"/><path class="cls-2" d="M312.9,466.57a5.28,5.28,0,0,1-2.79.81,3.34,3.34,0,0,1-2.35-.84,3.21,3.21,0,0,1-.91-2.48v-5.49h-1.56l0-2h1.58v-3.06h2.68v3.06h3.18v2h-3.18v5a1.62,1.62,0,0,0,.29,1.09,1.11,1.11,0,0,0,.87.32,3.88,3.88,0,0,0,1.58-.46Z"/><path class="cls-2" d="M322.82,456.76a5.12,5.12,0,0,1,2.06,2,5.78,5.78,0,0,1,.74,2.94,5.88,5.88,0,0,1-.74,3,5.09,5.09,0,0,1-2.06,2,6.35,6.35,0,0,1-3,.71,6.45,6.45,0,0,1-3.08-.71,5.07,5.07,0,0,1-2.07-2,5.88,5.88,0,0,1-.74-3,5.78,5.78,0,0,1,.74-2.94,5.09,5.09,0,0,1,2.07-2,6.46,6.46,0,0,1,3.08-.71A6.37,6.37,0,0,1,322.82,456.76Zm-5.33,2.54a3.82,3.82,0,0,0,0,4.86,3,3,0,0,0,2.29.94,2.93,2.93,0,0,0,2.24-.94,3.82,3.82,0,0,0,0-4.86,2.93,2.93,0,0,0-2.24-.94A3,3,0,0,0,317.49,459.29Z"/><path class="cls-2" d="M337.27,456.77a4.85,4.85,0,0,1,1.85,2,6.49,6.49,0,0,1,.65,3,6.39,6.39,0,0,1-.64,2.93,4.75,4.75,0,0,1-1.83,2,5.25,5.25,0,0,1-2.74.71,4.76,4.76,0,0,1-2.2-.49,4.13,4.13,0,0,1-1.58-1.42v1.81h-2.7V451.83h2.7V458a4,4,0,0,1,1.55-1.42,4.72,4.72,0,0,1,2.19-.49A5.25,5.25,0,0,1,337.27,456.77Zm-1.11,7.32a3.43,3.43,0,0,0,.87-2.42,3.39,3.39,0,0,0-.87-2.41,3.19,3.19,0,0,0-4.51,0,3.8,3.8,0,0,0,0,4.84,3,3,0,0,0,2.27.94A2.92,2.92,0,0,0,336.15,464.09Z"/><path class="cls-2" d="M350.76,457.57a6.22,6.22,0,0,1,1.34,4.26q0,.54,0,.81h-8.21a3.1,3.1,0,0,0,3.18,2.54,4.24,4.24,0,0,0,1.63-.32,4,4,0,0,0,1.36-.93l1.45,1.52a5.63,5.63,0,0,1-2,1.41,6.82,6.82,0,0,1-2.65.5,6.18,6.18,0,0,1-3-.71,4.94,4.94,0,0,1-2-2,6.46,6.46,0,0,1,0-5.89,5.09,5.09,0,0,1,2-2,5.93,5.93,0,0,1,2.93-.72A5.06,5.06,0,0,1,350.76,457.57Zm-1.13,3.26a2.69,2.69,0,0,0-.81-2,3.16,3.16,0,0,0-4,0,3.17,3.17,0,0,0-1,2Z"/><path class="cls-2" d="M358.65,456.62a4.5,4.5,0,0,1,2.25-.59v2.62a3.67,3.67,0,0,0-2.75.8,3.09,3.09,0,0,0-1,2.44v5.36h-2.7V456.14h2.7v2.14A4,4,0,0,1,358.65,456.62Z"/><path class="cls-2" d="M366.41,454.39a1.33,1.33,0,0,0-.41,1.06v1.14h2.79v2H366v8.69h-2.7v-8.69h-1.45v-2h1.45v-1.06a3.85,3.85,0,0,1,.54-2.09,3.45,3.45,0,0,1,1.44-1.3,4.46,4.46,0,0,1,2-.44,4.67,4.67,0,0,1,2,.48l-.48,2.18a3.89,3.89,0,0,0-1.37-.33A1.51,1.51,0,0,0,366.41,454.39Z"/><path class="cls-2" d="M378.82,457.57a6.22,6.22,0,0,1,1.34,4.26q0,.54,0,.81h-8.21a3.1,3.1,0,0,0,3.18,2.54,4.24,4.24,0,0,0,1.63-.32,4,4,0,0,0,1.36-.93l1.45,1.52a5.63,5.63,0,0,1-2,1.41,6.82,6.82,0,0,1-2.65.5,6.18,6.18,0,0,1-3-.71,4.94,4.94,0,0,1-2-2,6.45,6.45,0,0,1,0-5.89,5.09,5.09,0,0,1,2-2,5.94,5.94,0,0,1,2.93-.72A5.06,5.06,0,0,1,378.82,457.57Zm-1.13,3.26a2.7,2.7,0,0,0-.81-2,3.16,3.16,0,0,0-4,0,3.17,3.17,0,0,0-1,2Z"/><path class="cls-2" d="M387.4,458.4a5.36,5.36,0,0,0-1.59-.27,2.15,2.15,0,0,0-1.09.24.8.8,0,0,0-.41.74.88.88,0,0,0,.51.8,8.2,8.2,0,0,0,1.61.59,15.48,15.48,0,0,1,1.91.7,3.59,3.59,0,0,1,1.3,1,2.73,2.73,0,0,1,.55,1.78,2.86,2.86,0,0,1-1.25,2.49,5.34,5.34,0,0,1-3.14.87,8,8,0,0,1-2.51-.41,5.91,5.91,0,0,1-2.08-1.15l.94-1.89a5.48,5.48,0,0,0,1.79,1,6,6,0,0,0,2,.36,2.37,2.37,0,0,0,1.2-.26.85.85,0,0,0,.45-.78.94.94,0,0,0-.52-.87,9.23,9.23,0,0,0-1.68-.64,14.16,14.16,0,0,1-1.83-.65,3.31,3.31,0,0,1-1.23-1,2.68,2.68,0,0,1-.52-1.72,2.9,2.9,0,0,1,1.2-2.5,5,5,0,0,1,3-.86,7.74,7.74,0,0,1,2.17.31,6.75,6.75,0,0,1,1.9.87l-1,2A8,8,0,0,0,387.4,458.4Z"/><path class="cls-2" d="M399,466.57a5.27,5.27,0,0,1-2.78.81,3.33,3.33,0,0,1-2.35-.84,3.21,3.21,0,0,1-.92-2.48v-5.49H391.4l0-2H393v-3.06h2.68v3.06h3.18v2h-3.18v5a1.62,1.62,0,0,0,.29,1.09,1.11,1.11,0,0,0,.87.32,3.87,3.87,0,0,0,1.58-.46Z"/><path class="cls-2" d="M412.79,467.26V465.9a3.64,3.64,0,0,1-1.5,1.1,5.52,5.52,0,0,1-2.1.37,4.47,4.47,0,0,1-2-.45,3.27,3.27,0,0,1-1.36-1.24,3.34,3.34,0,0,1-.48-1.77,3,3,0,0,1,1.1-2.44,5,5,0,0,1,3.12-.9h3.24v-.29a1.88,1.88,0,0,0-.64-1.52,2.84,2.84,0,0,0-1.87-.54,6.43,6.43,0,0,0-3.31,1l-1-1.87a12.28,12.28,0,0,1,2.38-1,8.73,8.73,0,0,1,2.5-.32,5,5,0,0,1,3.36,1,3.71,3.71,0,0,1,1.22,2.91l0,7.27Zm-1-2.5a1.91,1.91,0,0,0,.94-1.36v-1H410a3,3,0,0,0-1.59.32,1.15,1.15,0,0,0-.51,1,1.35,1.35,0,0,0,.53,1.12,2.28,2.28,0,0,0,1.44.42A3.53,3.53,0,0,0,411.83,464.75Z"/><path class="cls-2" d="M423.22,458.42a2.85,2.85,0,0,0-2.19.91,3.36,3.36,0,0,0-.84,2.37,3.42,3.42,0,0,0,.84,2.41,2.84,2.84,0,0,0,2.19.91,3.53,3.53,0,0,0,3-1.31l1.68,1.39a4.91,4.91,0,0,1-2,1.66,6.57,6.57,0,0,1-2.85.58,5.93,5.93,0,0,1-2.92-.71,5,5,0,0,1-2-2,6.51,6.51,0,0,1,0-5.91,5,5,0,0,1,2-2,6,6,0,0,1,2.94-.71,6.63,6.63,0,0,1,2.71.53,4.9,4.9,0,0,1,1.94,1.51l-1.64,1.56A3.76,3.76,0,0,0,423.22,458.42Z"/><path class="cls-2" d="M436.71,466.57a5.27,5.27,0,0,1-2.78.81,3.33,3.33,0,0,1-2.35-.84,3.21,3.21,0,0,1-.92-2.48v-5.49H429.1l0-2h1.58v-3.06h2.68v3.06h3.18v2h-3.18v5a1.62,1.62,0,0,0,.29,1.09,1.11,1.11,0,0,0,.87.32,3.87,3.87,0,0,0,1.58-.46Z"/><path class="cls-2" d="M441.26,451.81a1.62,1.62,0,0,1,.44,1.16,1.59,1.59,0,0,1-.44,1.14,1.56,1.56,0,0,1-2.2,0,1.59,1.59,0,0,1-.44-1.14,1.61,1.61,0,0,1,.44-1.16,1.55,1.55,0,0,1,2.2,0Zm-2.43,4.32h2.7v11.12h-2.7Z"/><path class="cls-2" d="M443.17,456.16l2.83,0,2.91,8.46,2.85-8.46h2.72l-4.24,11.12h-2.78Z"/><path class="cls-2" d="M458.47,451.81a1.61,1.61,0,0,1,.44,1.16,1.59,1.59,0,0,1-.44,1.14,1.56,1.56,0,0,1-2.2,0,1.59,1.59,0,0,1-.44-1.14,1.62,1.62,0,0,1,.44-1.16,1.55,1.55,0,0,1,2.2,0ZM456,456.14h2.7v11.12H456Z"/><path class="cls-2" d="M468.59,466.57a5.28,5.28,0,0,1-2.79.81,3.34,3.34,0,0,1-2.35-.84,3.21,3.21,0,0,1-.91-2.48v-5.49H461l0-2h1.58v-3.06h2.68v3.06h3.18v2h-3.18v5a1.62,1.62,0,0,0,.29,1.09,1.11,1.11,0,0,0,.87.32,3.88,3.88,0,0,0,1.58-.46Z"/><path class="cls-2" d="M473.14,451.81a1.62,1.62,0,0,1,.44,1.16,1.59,1.59,0,0,1-.44,1.14,1.56,1.56,0,0,1-2.2,0,1.59,1.59,0,0,1-.44-1.14,1.61,1.61,0,0,1,.44-1.16,1.55,1.55,0,0,1,2.2,0Zm-2.43,4.32h2.7v11.12h-2.7Z"/><path class="cls-2" d="M485.4,457.57a6.22,6.22,0,0,1,1.34,4.26q0,.54,0,.81h-8.21a3.1,3.1,0,0,0,3.18,2.54,4.24,4.24,0,0,0,1.63-.32,4,4,0,0,0,1.36-.93l1.45,1.52a5.63,5.63,0,0,1-2,1.41,6.82,6.82,0,0,1-2.65.5,6.18,6.18,0,0,1-3-.71,4.94,4.94,0,0,1-2-2,6.45,6.45,0,0,1,0-5.89,5.09,5.09,0,0,1,2-2,5.94,5.94,0,0,1,2.93-.72A5.06,5.06,0,0,1,485.4,457.57Zm-1.13,3.26a2.7,2.7,0,0,0-.81-2,3.16,3.16,0,0,0-4,0,3.17,3.17,0,0,0-1,2Z"/><path class="cls-2" d="M494,458.4a5.36,5.36,0,0,0-1.59-.27,2.15,2.15,0,0,0-1.09.24.8.8,0,0,0-.41.74.88.88,0,0,0,.51.8,8.2,8.2,0,0,0,1.61.59,15.48,15.48,0,0,1,1.91.7,3.59,3.59,0,0,1,1.3,1,2.73,2.73,0,0,1,.55,1.78,2.86,2.86,0,0,1-1.25,2.49,5.34,5.34,0,0,1-3.14.87,8,8,0,0,1-2.51-.41,5.91,5.91,0,0,1-2.08-1.15l.94-1.89a5.48,5.48,0,0,0,1.79,1,6,6,0,0,0,2,.36,2.37,2.37,0,0,0,1.2-.26.85.85,0,0,0,.45-.78.94.94,0,0,0-.52-.87,9.23,9.23,0,0,0-1.68-.64,14.16,14.16,0,0,1-1.83-.65,3.31,3.31,0,0,1-1.23-1,2.68,2.68,0,0,1-.52-1.72,2.9,2.9,0,0,1,1.2-2.5,5,5,0,0,1,3-.86,7.74,7.74,0,0,1,2.17.31,6.75,6.75,0,0,1,1.9.87l-1,2A8,8,0,0,0,494,458.4Z"/><path class="cls-2" d="M510.74,467.26V465.9a3.65,3.65,0,0,1-1.5,1.1,5.52,5.52,0,0,1-2.1.37,4.47,4.47,0,0,1-2-.45,3.27,3.27,0,0,1-1.36-1.24,3.34,3.34,0,0,1-.48-1.77,3,3,0,0,1,1.1-2.44,5,5,0,0,1,3.12-.9h3.24v-.29a1.88,1.88,0,0,0-.64-1.52,2.84,2.84,0,0,0-1.87-.54,6.42,6.42,0,0,0-3.3,1l-1-1.87a12.25,12.25,0,0,1,2.38-1,8.73,8.73,0,0,1,2.5-.32,5,5,0,0,1,3.36,1,3.71,3.71,0,0,1,1.22,2.91l0,7.27Zm-1-2.5a1.91,1.91,0,0,0,.94-1.36v-1h-2.81a3,3,0,0,0-1.59.32,1.15,1.15,0,0,0-.51,1,1.35,1.35,0,0,0,.53,1.12,2.28,2.28,0,0,0,1.45.42A3.53,3.53,0,0,0,509.79,464.75Z"/><path class="cls-2" d="M522.94,466.57a5.27,5.27,0,0,1-2.78.81,3.33,3.33,0,0,1-2.35-.84,3.21,3.21,0,0,1-.92-2.48v-5.49h-1.56l0-2h1.58v-3.06h2.68v3.06h3.18v2h-3.18v5a1.62,1.62,0,0,0,.29,1.09,1.11,1.11,0,0,0,.87.32,3.87,3.87,0,0,0,1.58-.46Z"/><path class="cls-3" d="M437.25,208.2l8.31,9s6.93-11.08,2.77-17.32v-.69Z"/><path class="cls-3" d="M451.8,228.29c1.47-3.74,6.88-12.27,7.52-16.29a53.25,53.25,0,0,0-1.57-23.86c2.88-3.57,5.13-7.43,5.57-12.13a1.62,1.62,0,0,1,.89-1.23c7.76,14.7,7.43,29.36-.27,44a127.33,127.33,0,0,1-9.38,13C453.29,231.13,453.34,228.52,451.8,228.29Z"/><path class="cls-3" d="M384.26,344c.87-.89,1.95.11,2.86-.33,2.5,2.12,4.64,4.64,7.34,6.55,9.31,6.57,19.74,7.74,30.69,6.55,1.32-.14,1-.71.45-1.44a16.34,16.34,0,0,1-3.75-8.06c-.2-1.57-.92-1.78-2.22-1.71a29.82,29.82,0,0,1-13-1.84c-4.12-1.69-8-3.81-10.29-7.9,3-2.51,5.4-5.71,8.55-8.09l16.5,15.52.76-5.73c-1.72.32-2.25,1.86-3.53,2.74.26-3.66,3.12-5.66,5-8.44-1.45,0-2,1.32-3.18,1.13l0,0a2.84,2.84,0,0,1,.85-1.54c2.37-3.07,5.79-5.12,8-8.37a6.56,6.56,0,0,1,3.73-2.72l.07.09-1,2.56-.15.32.3-.17c.83-.64,1.66-1.26,2.48-1.92a9.06,9.06,0,0,1,5.44-2.49c-.89,1.28-2.56,1.7-2.6,3.52,8.16-2.24,14.63.53,20.12,6.66,3.78-7.95,6.14-15.87,4.81-24.53l3.46-.72a45.48,45.48,0,0,1-30,66.25C414.65,374.67,392.74,363.58,384.26,344Z"/><polygon class="cls-3" points="291.77 361.3 304.93 354.38 295.23 352.3 291.77 361.3"/><path class="cls-3" d="M446.42,279.46s18.85,19,23.2,33.12L455.27,308,443,289.16Z"/><path class="cls-4" d="M236.69,252c-.57-39.2,72.25-110.47,111.45-110.32s114.54,72,110.32,110.88c-4.16,38.27-70.83,112.07-109.18,108.61C310.23,357.66,237.25,291.21,236.69,252Z"/><path class="cls-3" d="M293.77,356.84l-1.27,4.27a52.12,52.12,0,0,1-19.22,5.77c-22.63,2.11-44.8-15-48.31-37.46-3-19,5-37,20.92-46.74,2-1.24,4.07-2.63,6.53-3,.86.9-.32,1.15-.61,1.52-8.85,11.19-10.4,23.81-7.43,37.34a3.47,3.47,0,0,1-.58,1.67,19.22,19.22,0,0,0-.74,16.91c.7,1.73,1,2.47-1.45,2.68-4.2.37-5.5,2.69-4.19,6.63,2-2.22,2.3-2.19,4.21.36.72,1,1.4,2,2.18,2.85,2.83,3.26,5.16,3.31,8,0a1.71,1.71,0,0,1,2.44-.57,18.33,18.33,0,0,0,17.45-.64c.51-.27,1-.77,1.64-.39C279.71,352,286.24,355.57,293.77,356.84Z"/><path class="cls-5" d="M244.37,318.53c-3-13.53-1.42-26.15,7.43-37.34.29-.37,1.46-.62.61-1.52,5.11-3.44,10.05-7.13,15.35-10.3,3.37-1.37,6.74-2.77,10.13-4.11.79-.31,1.59-1,2.5-.27a23.56,23.56,0,0,0,3.61,9c0,1.23-.8,1.56-1.78,1.93a77.62,77.62,0,0,0-11.79,5.45C265,284.48,260,288.1,257.35,294.1c-.36.73-.78,1.44-1.07,2.19-1.89,4.87-1.88,9.93-1.51,15-.92.3-1.83.62-2.76.9C248.59,313.27,246.69,316.15,244.37,318.53Z"/><path class="cls-5" d="M381.92,164.84c.67-2.23,2.84-2.94,4.38-4.28,1.33-1.16,3.25-1.61,4.1-3.36,1.29.09,2.25-.75,3.32-1.24a31.32,31.32,0,0,1,16-2.68c1.43.38,2.86.75,4.28,1.14,6.11,1.67,11.36,5.09,16.72,8.27-.43,1.32-1.54,2.19-2.29,3.29-2.37,3.45-4.25,7.09-4.38,11.36-.29,9.24,9.93,18.74,19.65,18.32,5.9-.25,10.18-3.54,14.08-7.54A53.26,53.26,0,0,1,459.33,212c-.65,4-2.33,7.68-3.8,11.41-3.28,4.78-7,9.18-11.79,12.51a85,85,0,0,1-20.37,9.88,2,2,0,0,1-1.74,0c-1-3.12-1.63-6.36-3.4-9.19,0-1.32,1-1.48,1.9-1.84,2.69-1.08,5.54-1.78,8-3.44,13.61-3.53,24.17-21,20-31.9l-8,7.09c-1.07-.16-1.61-1-2.28-1.72q-10.37-10.4-20.72-20.82a5.3,5.3,0,0,0-2.09-1.64l-.08-.61c2.78-2.83,5.53-5.68,8.34-8.48.77-.77.57-1.18-.25-1.69-3.82-2.38-7.67-4.75-12-6-3.88-1.12-7.79-1.4-11.49.76-3.41.73-5.93,3-8.62,5a3.79,3.79,0,0,1-2.62,1Z"/><path class="cls-6" d="M433,320.25a6.56,6.56,0,0,0-3.73,2.72c-2.23,3.24-5.64,5.3-8,8.37a2.84,2.84,0,0,0-.85,1.54l-.32.44.25.13.11-.54c1.15.19,1.73-1.1,3.18-1.13-1.87,2.78-4.73,4.78-5,8.44,1.28-.88,1.81-2.42,3.53-2.74l-.76,5.73c-5.37-5.05-7.66-7.15-13.22-12.39.7-1.27,20.74-27.61,21.73-27.74l14.44,14.73c4.06,4.14,4.33,4,6-1.67,3.26-11-1.65-17.87-13.21-21.14-1-.9-2.39-1.14-3.58-1.7-.71-.34-1.58-.54-1.8-1.49,1.75-2.88,2.3-6.16,3-9.36,1.73-1.24,3.22.19,4.61.68a45.84,45.84,0,0,1,14.39,7.61,25.19,25.19,0,0,1,8.59,13.55c1.33,8.66-1,16.58-4.81,24.53-5.49-6.13-12-8.9-20.12-6.66,0-1.83,1.71-2.24,2.6-3.52a9.06,9.06,0,0,0-5.44,2.49c-.81.65-1.65,1.28-2.48,1.92l-.15-.15,1-2.56a.85.85,0,0,0,.84-.51l.08-.15-.06.17A.86.86,0,0,0,433,320.25Z"/><path class="cls-7" d="M367.84,229.33c-1.25-5.57-3.36-10.87-5-16.31-1.14-3.73-2.33-7.44-3.6-11.13-.43-1.25-.3-1.87,1.07-2.3q10-3.12,19.91-6.42c1.41-.47,1.86.07,2.24,1.26,1.37,4.36,2.78,8.72,4.2,13.06a11,11,0,0,0,1.57,3.71,2.48,2.48,0,0,0,.63,1.67,3.75,3.75,0,0,0,.33,2.39c.87,2.7,1.68,5.43,2.64,8.09.57,1.57.16,2.28-1.43,2.75-2.79.82-5.52,1.84-8.27,2.78a63.58,63.58,0,0,0-9.76,3c-2.13.78-3.57.81-4.13-1.73Zm17.46-13.1c-.11-.6.13-1.45-.76-1.59s-.88.85-1.39,1.2c-1.52.24-.79,2.5-2.38,2.66h0c-.5,0-1.17,0-1.25-.59-.31-2.69-1.66-1.28-2.8-.77h0a2.7,2.7,0,0,0-2.24.89h0c-1.13,0-2.3-.1-3.14.9-.88.15-2.14-.42-2.38,1.23,1.15.07,1.69-.71,2.37-1.23,1.83.64,1.84,1.08,0,2.7h0c-.57.16-1-1-1.71-.08s.56.93.51,1.21c-.22,1.38,1.52,2.39.92,3.52s0,.8.63,1.06c1.93.8,2.47-1.53,4-1.64.37,0,0-.37-.23-.56-.57-.42-1-1.11-.34-1.6s1.39.07,1.68.7c.6,1.31,1.17,1.93,2.36.51a1.34,1.34,0,0,1,1.66-.27.88.88,0,0,1,.22,1.37c-.44.56-.15.76.3,1s.75.25,1-.07.52-.7,0-1.14c-1.1-1-.86-2.22.55-2,1.59.21,2-.71,2.78-1.5.52-.33,1.81.72,1.63-.49C387,219.73,386.7,217.74,385.29,216.23Zm-10.37-3.65q0-.2,0-.41c2.49-.86,5-1.71,7.48-2.59.5-.18,1.66-.09.67-1.17a1.33,1.33,0,0,0-.11-.42l.09-.82-.64-.46c.38-1.32-.58-.82-1.15-.85v-.78c.24-.17.63-.31.67-.51.12-.59-.38-.54-.71-.44-.94.26-1.86.57-2.78.87L366,209c-.4.13-1,.14-.88.77,0,.13.48.19.74.28v.78a.57.57,0,0,0,0,1l0,.91.4.46.13.59c0,.32,0,.63.32.81l.18.6c0,.31.06.72.4.65a45,45,0,0,0,7.78-2.44C375.57,213.22,375.3,212.78,374.92,212.58Zm5.77-12.42c-.35-.75-.16-2.11-1.9-1.52-4.74,1.6-9.52,3.09-14.29,4.62-.92.29-1.37.7-1,1.79s.81,1.5,2,1.12c4.68-1.54,9.38-3,14.07-4.56C380.19,201.4,380.92,201.2,380.69,200.15Zm-18.2,1.29c5.68-1.48,11.36-3,16.69-5.5A89.63,89.63,0,0,0,362.49,201.44Zm12.25,27.19c-1.16-.28-1.93-.33-2.38.59-.14.29-.07.7.23.72C373.53,230,373.65,228.85,374.74,228.63Zm11.41-4c.76-.09,1.52,1,2.15,0a1.06,1.06,0,0,0-.31-1C387.15,223.44,386.93,224.55,386.15,224.63ZM376.81,228c-.11-.59-.54-.51-.85-.58-.51-.11-.6.25-.56.64s.2.75.66.56A3.06,3.06,0,0,0,376.81,228Zm3.66-11.82.35-.14c0-.05-.08-.14-.12-.14a2.18,2.18,0,0,0-.38,0Z"/><path class="cls-3" d="M437.14,295c11.55,3.27,16.46,10.14,13.21,21.14-1.69,5.71-2,5.81-6,1.67l-14.44-14.73c.75-2.08,2.74-3.07,4.07-4.64C435,297.25,436.08,296.15,437.14,295Z"/><path class="cls-8" d="M428.84,290.26a16.63,16.63,0,0,0-8.8-.37c-2.66.55-5.34-.29-8-.73-.93-.15-1.23-.58-.72-1.35.72-1.1,0-1.42-.82-1.72-2-.71-4.08-1.48-6.15-2.15-1.15-.38-2-1-1.5-2.26s1.42-1.1,2.42-.73c.7.26,1.42.47,2.13.72,3.38,1.16,4,.87,5.35-2.58s2.53-3.86,6-2.64c2.94,1.05,6,1.82,8.33,4.21a4.57,4.57,0,0,0,4,1.14,4.76,4.76,0,0,1,3,.54c-3.44.27-3.48.27-4.1,3.86C429.64,287.58,428.76,288.8,428.84,290.26Z"/><path class="cls-8" d="M417.64,245.78a8.22,8.22,0,0,0-5.43,2.07c-2.57,2.13-6.19,2.05-9.23,3.3a1.35,1.35,0,0,1-1-.36c.34-2.47-3-1.69-3-3.22,0-1.08-.06-1.51-1-2.15s-.78-1.74.51-2.14c.91-.29,1.87-.42,3.33-.73-2.4,0-4.27-.08-6.13,0-1.16.07-2.5.4-2.7-1.12s1.28-1.22,2.25-1.39c3.62-.66,7.35,0,11.39-1-1.28-.63-2.28-1.11-3.26-1.62s-1.86-1.22-1.27-2.47,1.57-.4,2.3-.09c2.88,1.25,6,2,8.69,3.63.67.41,1.46.52,1.87-.45a1,1,0,0,1,1.28-.63,3.6,3.6,0,0,0-.38,4.1C416.56,242.92,417.07,244.37,417.64,245.78Z"/><path class="cls-8" d="M382.23,301.78a13.42,13.42,0,0,0,1.39,9.36c-2-.74-3.59.53-5.38.88-2,.39-3.2,1.37-3.1,3.55-1.13-1.2-.32-2.69-.55-4-.5-2.94-3.19-4.43-4.29-6.93-.72-2-1.42-3.93-2.18-5.88-.49-1.26-.2-2,1-2.75a25.41,25.41,0,0,0,6.25-4.86c1.14-1.37,2.26-.71,3.28,1.89Z"/><path class="cls-9" d="M407.66,269c6.87-2.3,13.79-4.48,20.79-6.37l.51,2.27-20.78,6.25Z"/><path class="cls-9" d="M417.64,245.78c-.57-1.42-1.07-2.86-1.72-4.24a3.6,3.6,0,0,1,.38-4.1c.81.08,1.21-.75,1.94-.86,1.77,2.83,2.42,6.07,3.4,9.19C420.3,245.61,419,247.87,417.64,245.78Z"/><path class="cls-9" d="M428.84,290.26c-.08-1.46.8-2.68,1-4.07.61-3.59.66-3.59,4.1-3.86l.82.11c-.75,3.21-1.3,6.48-3,9.36l-2.37-.85-.46-.41A.58.58,0,0,1,428.84,290.26Z"/><path class="cls-10" d="M382.23,301.78,378.64,293c1.61-.85,2.7-.28,3.43,1.27C381.68,296.78,383.27,299.25,382.23,301.78Z"/><path class="cls-11" d="M429,264.88l-.51-2.27c.64-.6,1.43-.36,2.17-.37l.14,1.7A1.83,1.83,0,0,1,429,264.88Z"/><path class="cls-8" d="M407.66,269l.52,2.16c-.76,0-1.83.54-2.1-.43S406.76,269.23,407.66,269Z"/><path class="cls-8" d="M430.76,263.94l-.14-1.7c.8-.86,1.54-.57,1.77.37C432.68,263.85,431.72,264,430.76,263.94Z"/><path class="cls-11" d="M365.39,232.32l.37-.37Z"/><path class="cls-11" d="M365.84,231.88l.37-.37Z"/><path class="cls-8" d="M428.93,290.54l.46.41Z"/><path class="cls-11" d="M366.74,231l.37-.37Z"/><path class="cls-3" d="M232.12,194.69a45.59,45.59,0,0,1,25.65-73.64c24.07-5.36,48.6,10.33,54,34.56a3.16,3.16,0,0,1,0,.67,23,23,0,0,1-5.6-3.56,29.48,29.48,0,0,0-10.7-4.94c-5.59-1.44-11.26-1-16.93-.77-3.89-12.35-23.49-17.18-33-5.59a6.36,6.36,0,0,1-1.3,1.21c-5.66,3.89-8.2,9.27-7.4,16.05.9,7.72,4.17,13.91,11.94,16.8,1.54.57,3.18.86,4.77,1.27a45.56,45.56,0,0,0,3.3,14.36c1.31,3.45,3.42,6.46,5.06,9.72a37.68,37.68,0,0,0-6.25,6.09c-2.6,3.14-7.57,1.43-8.6-1.79a31.43,31.43,0,0,0-2-4.49c-2.13-4.21-5.45-6.43-10.29-6.08C233.91,194.64,233,194.66,232.12,194.69Z"/><path class="cls-12" d="M278.56,147c5.66-.22,11.34-.68,16.93.77a29.48,29.48,0,0,1,10.7,4.94,23,23,0,0,0,5.6,3.56c1.82,2.14,2.31,5,3.91,7.26.89,1.27,1.66,2.64,2.48,4,.52,3.18,2.34,5.92,3.1,9a34,34,0,0,0,1.11,3.6c.29.79-.37,1-.66,1.51l-8,1.94a2.86,2.86,0,0,1-1-1.67c-1.43-4.38-2.8-8.8-5.12-12.83-1.67-2.9-3.38-5.79-6.55-7.38,0-1-.8-1.19-1.39-1.58a22.13,22.13,0,0,0-9.62-3.37,21.1,21.1,0,0,0-7,0l10.88,11.77c-3,3.5-6.49,6.58-9.7,9.9-1.23,1.27-2.81,2.25-3.52,4-2.27,1.13-3.65,3.27-5.45,4.92-1.65,1.52-3.15,3.2-4.79,4.73a2,2,0,0,0-.25,3.1,88.65,88.65,0,0,0,8,9.69c.66.69,1.54,1.31,1,2.49-2.38,1.49-4.06,3.73-6,5.67-2.84-1.15-4.15-3.9-6.11-6s-3.39-4.12-5.06-6.2c-1.64-3.26-3.75-6.28-5.06-9.72a45.55,45.55,0,0,1-3.3-14.36c1.87,0,3.75,0,5.61-.12A19.84,19.84,0,0,0,270,173.08a20,20,0,0,1,5.45-2.89,12.94,12.94,0,0,0,7.23-5.61c-3.16.07-5.2,2.85-8.34,2.28,2.34-1.89,4.84-3.42,6.27-6.33-1.38.23-2.38,1.26-4,.9C280.17,156.89,280,152,278.56,147Z"/><path class="cls-13" d="M303,262.17c-.14,1-.63,1.73.85,2.62,1.91,1.15-.32,1.84-1.31,2.86,1.71-.09,3.1-.13,4.48-.24,1-.07,1.9.06,2,1.23s-.89,1.33-1.69,1.4c-2.83.26-5.66.43-8.49.64-.87.07-1.81-.09-2.58.75.77.9,1.95,1,2.87,1.6a1.7,1.7,0,0,1,.85,2.27c-.44,1-1.29.46-1.93.26-1.7-.53-3.29-1.42-5.09-1.66a19.94,19.94,0,0,1-3.42-1.63c-1.33-1-2.13-.47-2.92.6a9.84,9.84,0,0,0-.58-3.47c-.48-1.45-1.49-2.78-1.26-4.43a10.68,10.68,0,0,0,4.88-2.35c2.53-2.17,6.09-2.27,9.12-3.5.58-.24,1.47.29,1.27.86-.86,2.48,1,1.47,2,1.68A4.35,4.35,0,0,1,303,262.17Z"/><path class="cls-14" d="M312,228.93c-.45-.36-.88-.65-1.24-1-6-5.77-12-11.56-18-17.29-1-.93-.82-1.46,0-2.32q6.08-6.19,12-12.49c.87-.92,1.4-1,2.32-.07q9,8.8,18.14,17.5c.86.82.85,1.35.05,2.16-4.1,4.17-8.17,8.38-12.26,12.57C312.73,228.3,312.38,228.57,312,228.93Zm-5.34-31.08c-.81.07-1.14.63-1.54,1-3.07,3.18-6.07,6.44-9.22,9.53-1.25,1.22-1.09,1.93.09,3q7.19,6.79,14.22,13.76c1,1,1.65.84,2.54-.11,3.07-3.29,6.15-6.57,9.34-9.74,1.14-1.13,1.06-1.81-.06-2.88-4.79-4.54-9.5-9.15-14.25-13.73C307.39,198.42,307,198.12,306.63,197.85Z"/><path class="cls-15" d="M289.58,239l.72.12.52.5a1.29,1.29,0,0,1,.11.43c-.43,3.93-.49,4-4.34,3.25-7.68-1.53-15.34-3.14-23-4.68-3.64-.73-4.11-1.82-2.11-5.25l.53-.05.75.07c.61,2.93,3.51,2,5.08,2.38,5.92,1.49,12,2.25,17.95,3.84C287,240,288.55,240.75,289.58,239Z"/><path class="cls-9" d="M289.58,239c-1,1.73-2.53.94-3.82.59-5.93-1.59-12-2.35-17.95-3.84-1.56-.39-4.46.55-5.08-2.38,7.22,1.09,14.3,2.88,21.46,4.28A20.7,20.7,0,0,1,289.58,239Z"/><path class="cls-9" d="M284.79,265c-.23,1.65.79,3,1.26,4.43a9.84,9.84,0,0,1,.58,3.47L284,274a23.56,23.56,0,0,1-3.61-9C281.86,264.66,283.32,263.23,284.79,265Z"/><path class="cls-9" d="M290.82,239.64l-.52-.5C290.58,239.19,290.93,239.17,290.82,239.64Z"/><path class="cls-9" d="M262,233.33l-.53.05C261.58,232.88,261.79,233.23,262,233.33Z"/><path class="cls-16" d="M464.23,174.77a1.62,1.62,0,0,0-.89,1.23c-.45,4.7-2.69,8.56-5.57,12.13-3.9,4-8.18,7.28-14.08,7.54-9.72.42-19.94-9.08-19.65-18.32.13-4.28,2-7.92,4.38-11.36.76-1.1,1.86-2,2.29-3.29,2.93-2.34,5.68-4.93,9.52-5.87,1.23-.3,2.73-.13,3.62-1.39,1.7.76,3.55.27,5.29.67,1,.23.84-.48.94-1.05.66-4,3.3-5.9,7.33-5.38a12.54,12.54,0,0,1,10,8.66c1,3.64-.33,6.4-3.85,7.66-.93.33-1.4.53-.89,1.64C463.64,169.88,463.06,172.53,464.23,174.77Z"/><path class="cls-3" d="M443.84,155.44c-.9,1.25-2.39,1.09-3.62,1.39-3.84.94-6.59,3.53-9.52,5.87-5.36-3.18-10.61-6.6-16.72-8.27-1.43-.39-2.86-.76-4.28-1.14C421.36,149.41,432.76,149.94,443.84,155.44Z"/><path class="cls-3" d="M399.57,166.28c3.7-2.16,7.61-1.89,11.49-.76,4.36,1.26,8.2,3.63,12,6,.82.51,1,.92.25,1.69-2.8,2.8-5.56,5.65-8.34,8.48Z"/><path class="cls-7" d="M348.7,159.32c.06-4.22,1.9-7.16,5.43-8.85a9.31,9.31,0,0,1,10.14,1.14c.76.57,1.29,1.27,2.53.91a.92.92,0,0,1,1,1.5c-.71,1-.43,1.74-.23,2.7.8,3.91-.15,7.34-3.33,9.85a9.58,9.58,0,0,1-15.53-7.25Zm16.27-.26a6.72,6.72,0,1,0-6.63,6.73A6.57,6.57,0,0,0,365,159.06Z"/><path class="cls-6" d="M384.79,314a3.78,3.78,0,0,1,1.93,2.58c2,6.11,4.23,12.11,7.91,17.46a5.16,5.16,0,0,0,1.7,1.74c2.31,4.09,6.17,6.21,10.29,7.9a29.82,29.82,0,0,0,13,1.84c1.29-.07,2,.14,2.22,1.71a16.34,16.34,0,0,0,3.75,8.06c.58.73.87,1.3-.45,1.44-11,1.19-21.38,0-30.69-6.55-2.71-1.91-4.84-4.43-7.34-6.55-2-3.67-4.58-7-6.33-10.77a118.88,118.88,0,0,1-5.21-13.57,3.83,3.83,0,0,1-.19-2.19h.46a51,51,0,0,0,8.51-2.66Z"/><path class="cls-7" d="M297.33,298.86c1.06-4.86,2.14-9.71,3.18-14.57.12-.57.31-1,1-.95,8.24,2.27,16.56,4.18,25,5.77a9.26,9.26,0,0,1,1,.46c3.38,1.1,3.36,1.1,2.61,4.44q-2.14,9.53-4.25,19.06c-1.68-1.57-1.68-1.57-3.16-.54-.22-.49.58-1,0-1.41s-.72.09-.94.5-.65.51-.65-.08c0-1-.37-1-1.22-1a8.3,8.3,0,0,1-3.73-.78c-1.84-1-2-.14-2,1.32l-.87-.26c.29-1,.37-1.6-1-2a12.62,12.62,0,0,0-3.44-.68c-2.29-.08-4.47-.88-6.76-1.13a24.52,24.52,0,0,0-5.94-.17h0c-.1-1.32.76-2.55.38-3.91l.12-.66c.06,0,.16-.08.16-.11a1.87,1.87,0,0,0-.08-.35l-.12,0-.1.06.54-1.35C297.57,300.06,297.46,299.46,297.33,298.86Z"/><path class="cls-5" d="M293.77,356.84c-7.52-1.27-14.06-4.84-20.44-8.77a31.48,31.48,0,0,0,6.93-9.17c4,2.29,7.89,4.61,12.32,5.89,4.84,1.4,9.47,1.07,13.75-1.82,2.71-1,4.75-3,6.93-4.75a3.18,3.18,0,0,1,3-.91,11.6,11.6,0,0,0,6.51,7,2.72,2.72,0,0,1-.88,1.76c-5.52,4.81-11.41,9-18.74,10.56A26.59,26.59,0,0,1,293.77,356.84Z"/><path class="cls-3" d="M306.33,343c-4.28,2.89-8.91,3.21-13.75,1.82-4.43-1.28-8.37-3.6-12.32-5.89-.56-.54.06-1,.15-1.44l9.51-10.35c.92.11,1.37.87,1.93,1.44Q299.11,335.74,306.33,343Z"/><path class="cls-13" d="M336.62,327.06c.69-.41,1.4-.68,2,.12s0,1.39-.51,1.92c-2.56,2.48-5.11,5-7.71,7.43a4.71,4.71,0,0,1-2.07,1.26,5.46,5.46,0,0,0-3.59,2.72l-.45.06c-.86-.27-1.07-1.19-1.7-1.7-1.41-1.14-2.23-3-4.32-3.27a2.54,2.54,0,0,0,2-2.79,53.59,53.59,0,0,1,.93-8c.1-.67,0-1.67,1.13-1.62s1.34.81,1.52,1.68-.24,1.93.31,3c1.49-.7,1.91-2.23,2.71-3.4,1.09-1.61,2-3.3,3.11-4.93.46-.71.88-1.81,2-1.18s.6,1.51.16,2.33c-.18.33-.34.66-.51,1a8,8,0,0,0-1.84,3.05l-.44.9-.16.31.3-.17.56-.83a6.45,6.45,0,0,0,2.16-2.66c.82-1,1.43-3.08,3-2.1s-.24,2.23-.69,3.33a3.67,3.67,0,0,0-.14.86c-.3,0-.43.18-.45.45l-.58.12.1.17.46-.31.45-.45a3.38,3.38,0,0,0,.55-.35c.75-.71,1.55-1.68,2.59-.65s-.18,1.68-.68,2.41c-.21.3-.46.57-.69.85a5.9,5.9,0,0,0-2.35,3A8.52,8.52,0,0,0,336.62,327.06Z"/><path class="cls-14" d="M289.93,327.1l-9.51,10.35c.43-3.13-.36-6.25-.11-9.36.58-6.9-2.71-11.48-8.39-14.8a5.68,5.68,0,0,0-3.44-.7c-3.86.29-7.43-1.3-11.18-1.68l7.78-8.73c1.09.11,1.58,1,2.25,1.7q6.74,6.64,13.43,13.33,3.79,3.89,7.59,7.79C289,325.64,289.74,326.15,289.93,327.1Z"/><path class="cls-17" d="M349.7,326.07c-4.95-1.41-7.69-4.43-8.11-8.71s3.11-9.49,7.74-10.32a9.79,9.79,0,0,1,10.93,6.22,9.62,9.62,0,0,1-4.69,11.83c-1,.49-2.17.66-2.15,2.17,0,.48-.55.66-1,.65-1.21,0-1-1.13-1.33-1.79.55-.64.38-2.9,2.11-.91l.65-2.34.14.08c.82,0,1.58,0,1.57-1.11l1.14-1.14c1.86-.35,2-1.87,2-3.26.1-2.08.28-4.25-1.82-5.63-.16-.11-.44-.05-.66-.07a.21.21,0,0,1-.23-.23c-.3-2.19-2.09-2.4-3.68-2.46-2-.07-4.29-.69-5.28,2l-1.14,1.14c-2.4.19-2.12,2.33-2.32,3.72s-.32,3.46,1.67,4.34h0c-.06,1.56.69,2.31,2.25,2.25l0-.07c0,1,.71,1.32,1.44,1.39C351,324,350.83,324.86,349.7,326.07Z"/><path class="cls-9" d="M318.26,335.59c2.09.23,2.91,2.14,4.32,3.27.63.51.84,1.43,1.7,1.7l.17,2.18-1,.93a.59.59,0,0,0-.69.57l0,0a11.6,11.6,0,0,1-6.51-7l0,0c.28,0,.42-.11.41-.39l.78-.4a.42.42,0,0,0,.21-.2.31.31,0,0,1,.14-.26l.35-.34Z"/><path class="cls-9" d="M384.38,314.44a51,51,0,0,1-8.51,2.66c-.09-.49,0-1.07-.65-1.27a.19.19,0,0,1-.08-.26c-.1-2.18,1.09-3.15,3.1-3.55,1.79-.35,3.41-1.62,5.38-.88v0a1.89,1.89,0,0,0,.81,2.28.24.24,0,0,1,.12.27Z"/><path class="cls-17" d="M296,306.82A24.52,24.52,0,0,1,302,307c2.29.25,4.47,1.05,6.76,1.13a12.62,12.62,0,0,1,3.44.68c1.39.44,1.31,1,1,2A126.52,126.52,0,0,1,296,306.82Z"/><path class="cls-17" d="M314.08,311.1c0-1.46.18-2.35,2-1.32a8.3,8.3,0,0,0,3.73.78c.85,0,1.23,0,1.22,1,0,.59.42.52.65.08s.35-.9.94-.5-.21.92,0,1.41c1.48-1,1.48-1,3.16.54-.42.87-1.17.52-1.75.39C320.72,312.71,317.4,311.89,314.08,311.1Zm2.55-.17.06-.16-.2.11Z"/><path class="cls-7" d="M353.8,322.88l-.65,2.34c-1.73-2-1.56.27-2.11.91l-1.35-.06c1.13-1.21,1.35-2.06-.75-2.25-.73-.06-1.49-.38-1.44-1.39A9.21,9.21,0,0,0,353.8,322.88Z"/><path class="cls-17" d="M296.43,302.92c.39,1.35-.48,2.58-.38,3.91C295.09,305.42,296,304.2,296.43,302.92Z"/><path class="cls-14" d="M324.45,342.75l-.17-2.18.45-.06C324.78,341.28,325.53,342.13,324.45,342.75Z"/><path class="cls-8" d="M375.22,315.83c.65.2.57.78.65,1.27h-.46Z"/><path class="cls-14" d="M322.77,344.24a.59.59,0,0,1,.69-.57A.74.74,0,0,1,322.77,344.24Z"/><path class="cls-17" d="M296.62,301.81a1.87,1.87,0,0,1,.08.35s-.1.07-.16.11Z"/><path class="cls-8" d="M318.16,335.67l-.35.34Z"/><path class="cls-8" d="M317.67,336.28a.42.42,0,0,1-.21.2A.19.19,0,0,1,317.67,336.28Z"/><path class="cls-14" d="M316.69,336.88c0,.28-.13.41-.41.39Z"/><path class="cls-18" d="M432.15,323l-.3.17.15-.32Z"/><path class="cls-6" d="M257.3,310.91c3.75.38,7.32,2,11.18,1.68a5.68,5.68,0,0,1,3.44.7c5.68,3.32,9,7.9,8.39,14.8-.26,3.11.53,6.23.11,9.36-.09.48-.71.9-.15,1.44a31.53,31.53,0,0,1-6.93,9.17c-.67-.38-1.14.12-1.64.39a18.33,18.33,0,0,1-17.45.64,1.71,1.71,0,0,0-2.44.57c-2.83,3.26-5.16,3.21-8,0-.78-.9-1.46-1.9-2.18-2.85-1.91-2.54-2.21-2.57-4.21-.36-1.31-3.94,0-6.26,4.19-6.63,2.43-.21,2.14-1,1.45-2.68a19.22,19.22,0,0,1,.74-16.91,3.47,3.47,0,0,0,.58-1.67c2.32-2.38,4.22-5.26,7.64-6.31.92-.28,1.84-.6,2.75-.9A3.84,3.84,0,0,0,257.3,310.91Zm-12.62,29.68c-.38,2.79,3.49,7.45,6,7.47.32,0,.66,0,.69-.37a1,1,0,0,0-.31-.75A72,72,0,0,1,244.68,340.59Z"/><path class="cls-3" d="M257.3,310.91a3.84,3.84,0,0,1-2.53.41c-.37-5.1-.38-10.16,1.51-15,.29-.76.71-1.46,1.07-2.19,2.7,2.58,5.67,4.9,7.73,8.09Z"/><path class="cls-3" d="M433,320.25a.86.86,0,0,1,.93-.41l0,0a.85.85,0,0,1-.84.51Z"/><path class="cls-3" d="M420.41,332.91l-.11.54-.25-.13.32-.44Z"/><path class="cls-3" d="M433.91,319.84l.06-.17-.08.15Z"/><path class="cls-8" d="M384.43,313.47a1.89,1.89,0,0,1-.81-2.28A3.52,3.52,0,0,1,384.43,313.47Z"/><path class="cls-8" d="M384.38,314.44l.17-.7a.36.36,0,0,1,.24.26Z"/><path class="cls-17" d="M376.71,217.16c1.14-.51,2.5-1.93,2.8.77.07.63.75.56,1.25.59-.31.45-.95.67-.9,1.35a1.7,1.7,0,0,0-2.43.25c-.59.73-.13,1.55.07,2.35.26,1,1.12,1.09,1.87,1.35a.58.58,0,0,0,.77-.28c.21-.49-.06-.54-.5-.68-1-.31-1.71-.76-.21-1.54.5-.26.43-.91.43-1.44.63.75,1.33,1.2,2.33.62.4-.23.78-.45.6-1-.34-1.05-1.19-1-2-1,1.6-.17.87-2.42,2.38-2.66,1.32.89,1.55,5,.4,6.24-.15.17-1.08-.31-.45.44.19.23.83.58,1.1,0a4.17,4.17,0,0,0,.13-1.31c.46.31.69,1,1.39.93h0c-.76.78-1.19,1.71-2.78,1.5-1.42-.19-1.65,1-.55,2,.48.45.26.81,0,1.14s-.68.23-1,.07-.74-.4-.3-1a.88.88,0,0,0-.22-1.37,1.34,1.34,0,0,0-1.66.27c-1.19,1.43-1.76.8-2.36-.51-.29-.62-1.07-1.13-1.68-.7s-.23,1.18.34,1.6c.25.18.6.53.23.56-1.52.12-2.06,2.45-4,1.64-.63-.26-1.27.14-.63-1.06s-1.14-2.15-.92-3.52c0-.29-1.27-.26-.51-1.21s1.14.24,1.71.08c-.36.81-1,1.76.57,1.92a1,1,0,0,0,1.16-1c-.11-1.16-1-.79-1.72-.88,1.83-1.62,1.83-2.06,0-2.7h0c.85-1,2-.9,3.14-.9-.34.55-1.62.42-1.19,1.5s1.31.72,2.09.75c-1.07.86-.27,1.35.37,1.85.35.28.76.29.88-.18.24-1-.22-1.57-1.25-1.67.6-1.11.69-2-.9-2.25a2.7,2.7,0,0,1,2.24-.89c-.42.92-.91,2,.71,2,.51,0,1.55-.1,1.42-1C378.67,216.91,377.56,217.21,376.71,217.16Z"/><path class="cls-19" d="M380.69,200.15c.23,1.05-.5,1.24-1.13,1.45-4.69,1.53-9.39,3-14.07,4.56-1.15.38-1.59-.1-2-1.12s0-1.5,1-1.79c4.77-1.52,9.55-3,14.29-4.62C380.53,198,380.35,199.4,380.69,200.15Z"/><path class="cls-20" d="M365.89,210c-.26-.09-.72-.15-.74-.28-.1-.63.47-.64.88-.77l12.39-4c.93-.3,1.85-.61,2.78-.87.33-.09.83-.14.71.44,0,.21-.44.34-.67.51Z"/><path class="cls-20" d="M366.77,214.57c-.34-.18-.34-.49-.32-.81a54.8,54.8,0,0,0,8.47-2.92l0,0c.39,0,.85.13.94-.48l0,0c.58.2,1.12.25,1.39-.47l0,0c.57.16,1.14.3,1.39-.47l0,0c1.68.3,3.06-.63,4.56-1.1,1,1.08-.18,1-.67,1.17-2.49.88-5,1.73-7.48,2.59-.38,0-.83-.07-.9.5l0,0a1.66,1.66,0,0,0-1.84.46l0,0c-.39,0-.86-.14-.94.48l0,0a1.56,1.56,0,0,0-1.84.46l0,0C368.52,213.79,367.69,214.4,366.77,214.57Z"/><path class="cls-20" d="M365.88,211.8a.57.57,0,0,1,0-1l15.35-5c.57,0,1.53-.46,1.15.85-.6,0-1.24-.07-1.64.55l0,0c-.54-.06-1.06-.09-1.39.47l0,0c-.4,0-.87-.16-.93.48l0,0a27.48,27.48,0,0,0-9.95,3.17l0,0a1.64,1.64,0,0,0-1.84.46l0,0Z"/><path class="cls-8" d="M362.49,201.44a89.63,89.63,0,0,1,16.69-5.5C373.86,198.47,368.18,200,362.49,201.44Z"/><path class="cls-20" d="M366.33,213.17l-.4-.46c.22-.39.91-.35.89-1l0,0a1.54,1.54,0,0,0,1.84-.46l0,0a44,44,0,0,0,9.95-3.17l0,0c.39,0,.86.15.93-.48l0,0c.58.19,1.11.23,1.39-.47l0,0,2.28-.09-.09.82a12.77,12.77,0,0,0-4.45,1.52l0,0c-.53,0-1.06-.07-1.39.47l0,0c-.53,0-1.07-.1-1.39.47l0,0c-.4,0-.85-.13-.94.48l0,0C371.88,211,369.21,212.45,366.33,213.17Z"/><path class="cls-17" d="M381.23,205.86l-15.35,5q0-.39,0-.78l15.34-5Q381.23,205.47,381.23,205.86Z"/><path class="cls-20" d="M374.92,212.58c.37.2.65.64.21.81a45,45,0,0,1-7.78,2.44c-.34.06-.4-.35-.4-.65.86-.37,2-.23,2.57-1.17l0,0a1.65,1.65,0,0,0,1.84-.46l0,0c.39,0,.86.14.94-.48l0,0a1.53,1.53,0,0,0,1.84-.46l0,0Z"/><path class="cls-17" d="M385.29,216.23c1.41,1.51,1.76,3.5,2,5.38.18,1.21-1.1.17-1.63.49h0c.34-.49,1.2-.78.71-1.61s-1.21-.08-1.8-.29C384.91,218.89,384.22,217.42,385.29,216.23Z"/><path class="cls-7" d="M385.29,216.23c-1.07,1.19-.38,2.66-.66,4a1,1,0,0,0-.31,1,4.17,4.17,0,0,1-.13,1.31c-.27.61-.91.27-1.1,0-.63-.75.3-.28.45-.44,1.15-1.24.92-5.35-.4-6.24.51-.35.57-1.34,1.39-1.2S385.18,215.63,385.29,216.23Z"/><path class="cls-17" d="M366.33,213.17c2.88-.72,5.55-2.21,8.6-2.33a54.8,54.8,0,0,1-8.47,2.92Z"/><path class="cls-17" d="M378.48,209.51a12.77,12.77,0,0,1,4.45-1.52,1.33,1.33,0,0,1,.11.42C381.55,208.88,380.16,209.81,378.48,209.51Z"/><path class="cls-17" d="M374.74,228.63c-1.1.22-1.21,1.37-2.16,1.31-.3,0-.37-.43-.23-.72C372.81,228.3,373.58,228.35,374.74,228.63Z"/><path class="cls-17" d="M386.15,224.63c.78-.08,1-1.19,1.84-1a1.06,1.06,0,0,1,.31,1C387.67,225.63,386.91,224.54,386.15,224.63Z"/><path class="cls-17" d="M371.3,219c-.68.52-1.23,1.3-2.37,1.23.24-1.64,1.5-1.07,2.38-1.23Z"/><path class="cls-17" d="M376.81,228a3.06,3.06,0,0,1-.75.62c-.46.19-.63-.18-.66-.56s.05-.75.56-.64C376.27,227.5,376.7,227.42,376.81,228Z"/><path class="cls-17" d="M369.52,214c-.6.94-1.7.8-2.57,1.17l-.18-.59C367.69,214.4,368.52,213.79,369.52,214Z"/><path class="cls-17" d="M383,207.17l-2.28.09c.4-.62,1-.52,1.64-.55Z"/><path class="cls-17" d="M366.81,211.74c0,.62-.67.58-.89,1l0-.91Z"/><path class="cls-17" d="M380.46,216.2l-.15-.25a2.18,2.18,0,0,1,.38,0s.08.09.12.14Z"/><path class="cls-17" d="M374.92,212.58l-.94.09c.08-.57.52-.48.9-.5Q374.91,212.37,374.92,212.58Z"/><path class="cls-9" d="M278.56,147c1.47,5,1.61,9.88-2,14.41,1.63.36,2.63-.68,4-.9-1.43,2.91-3.92,4.45-6.27,6.33,3.14.57,5.18-2.21,8.34-2.28a12.94,12.94,0,0,1-7.23,5.61,20,20,0,0,0-5.45,2.89,19.84,19.84,0,0,1-10.73,3.55c-1.87.12-3.74.09-5.61.12-1.59-.42-3.24-.7-4.77-1.27-7.76-2.88-11-9.07-11.94-16.8-.79-6.79,1.74-12.17,7.4-16.05a6.36,6.36,0,0,0,1.3-1.21C255.07,129.83,274.68,134.66,278.56,147Z"/><path class="cls-3" d="M301,161.7l-7.16,6.8L283,156.73a21.1,21.1,0,0,1,7,0,22.13,22.13,0,0,1,9.62,3.37C300.25,160.51,301.09,160.73,301,161.7Z"/><path class="cls-7" d="M306.63,197.85c.33.27.75.57,1.12.92,4.75,4.58,9.46,9.2,14.25,13.73,1.12,1.06,1.2,1.74.06,2.88-3.19,3.17-6.27,6.45-9.34,9.74-.89,1-1.5,1.13-2.54.11q-7-7-14.22-13.76c-1.18-1.12-1.34-1.82-.09-3,3.15-3.1,6.15-6.35,9.22-9.53C305.5,198.48,305.83,197.92,306.63,197.85Zm2.24,23.88a4.14,4.14,0,0,0,1-.58q4.22-4.63,8.39-9.31a1,1,0,0,0-.12-1.58,1.06,1.06,0,0,0-1.59.21c-1.06,1.15-2.07,2.35-3.12,3.51-1.65,1.83-3.32,3.63-5,5.45-.41.45-.84.94-.44,1.58A3.73,3.73,0,0,0,308.88,221.73Zm12.42-8.14a6.59,6.59,0,0,0-.83-1c-.65-.54-1.09,0-1.52.41-2.91,2.89-5.61,6-8.24,9.11-.5.6-.77,1.09-.09,1.71s1.21,0,1.63-.48q4.17-4.36,8.29-8.77C320.78,214.28,321,214,321.29,213.59Zm-14.94,5.75a1.63,1.63,0,0,0,1.52-.69c2.64-2.92,5.26-5.87,7.91-8.78a1,1,0,0,0-.07-1.71c-.72-.64-1.22-.21-1.7.32q-4.11,4.55-8.21,9.11c-.29.32-.75.67-.39,1.13A3.12,3.12,0,0,0,306.36,219.34Zm1.6-5.93a2.85,2.85,0,0,0,.63-.42q2.59-2.8,5.14-5.63c.46-.51.2-.95-.2-1.37-.65-.68-1.19-.39-1.71.17l-4.83,5.3c-.32.35-.56.74-.23,1.2A1.48,1.48,0,0,0,308,213.41Z"/><path class="cls-14" d="M365,159.06a6.72,6.72,0,1,1-6.68-6.71A6.54,6.54,0,0,1,365,159.06Zm-6.61,5.82a5.8,5.8,0,1,0-5.91-5.79A5.89,5.89,0,0,0,358.36,164.88Z"/><path class="cls-17" d="M297.33,298.86c.13.6.24,1.2-.38,1.63A2.11,2.11,0,0,1,297.33,298.86Z"/><path class="cls-20" d="M329.33,325.59l.44-.9.25.21-.56.83Z"/><path class="cls-21" d="M333.92,324.78l-.46.31-.1-.17.58-.12Z"/><path class="cls-21" d="M333.94,324.79c0-.28.15-.45.45-.45h0l-.45.45Z"/><path class="cls-20" d="M329.47,325.74l-.3.17.16-.31Z"/><path class="cls-14" d="M353.8,322.88a9.21,9.21,0,0,1-6.3-.45l0,.07a6.84,6.84,0,0,0-2.25-2.25h0c-.91-2.78-1.23-5.5.65-8.06l1.15-1.14a7.43,7.43,0,0,1,9,.46.21.21,0,0,0,.23.23,7.38,7.38,0,0,1,.46,9l-1.14,1.14L353.94,323Zm-2.49-.66a5.72,5.72,0,1,0-5.84-5.55A5.64,5.64,0,0,0,351.31,322.22Z"/><path class="cls-7" d="M356,311.52a7.43,7.43,0,0,0-9-.46c1-2.68,3.32-2.07,5.28-2C353.88,309.12,355.66,309.33,356,311.52Z"/><path class="cls-7" d="M356.65,320.71a7.38,7.38,0,0,0-.46-9c.22,0,.5,0,.66.07,2.1,1.38,1.92,3.55,1.82,5.63C358.61,318.84,358.51,320.36,356.65,320.71Z"/><path class="cls-7" d="M345.87,312.2c-1.88,2.55-1.56,5.28-.65,8.06-2-.88-1.89-2.81-1.67-4.34S343.46,312.39,345.87,312.2Z"/><path class="cls-7" d="M345.21,320.25a6.84,6.84,0,0,1,2.25,2.25C345.9,322.56,345.15,321.81,345.21,320.25Z"/><path class="cls-7" d="M353.94,323l1.57-1.11C355.53,323,354.76,323,353.94,323Z"/><path class="cls-7" d="M316.63,310.93l-.15-.05.2-.11Z"/><path class="cls-20" d="M244.68,340.59a72,72,0,0,0,6.35,6.35,1,1,0,0,1,.31.75c0,.36-.37.37-.69.37C248.17,348,244.3,343.38,244.68,340.59Z"/><path class="cls-7" d="M379.86,219.86c0,.53.07,1.18-.43,1.44-1.5.78-.79,1.23.21,1.54.44.14.72.19.5.68a.58.58,0,0,1-.77.28c-.75-.26-1.61-.32-1.87-1.35-.2-.8-.66-1.62-.07-2.35a1.7,1.7,0,0,1,2.43-.25Z"/><path class="cls-7" d="M379.85,219.86c0-.68.59-.9.9-1.35h0c.83,0,1.69-.1,2,1,.18.58-.19.8-.6,1-1,.58-1.7.12-2.33-.62Z"/><path class="cls-7" d="M375.35,220.31c-.78,0-1.71.2-2.09-.75s.85-.95,1.19-1.5h0c1.59.24,1.5,1.14.9,2.25Z"/><path class="cls-7" d="M376.71,217.16c.85.05,2-.24,2.13,1,.12.93-.91,1.06-1.42,1-1.63-.09-1.13-1.12-.71-2Z"/><path class="cls-7" d="M371.31,221.66c.68.09,1.61-.28,1.72.88a1,1,0,0,1-1.16,1c-1.57-.15-.92-1.11-.57-1.92Z"/><path class="cls-7" d="M384.32,221.18a1,1,0,0,1,.31-1c.58.21,1.33-.51,1.79.29s-.37,1.12-.71,1.61C385,222.15,384.78,221.5,384.32,221.18Z"/><path class="cls-7" d="M375.35,220.31c1,.1,1.49.67,1.25,1.67-.11.47-.53.46-.88.18-.64-.51-1.44-1-.37-1.85Z"/><path class="cls-17" d="M374,212.65a1.53,1.53,0,0,1-1.84.46A1.66,1.66,0,0,1,374,212.65Z"/><path class="cls-17" d="M371.32,213.55a1.65,1.65,0,0,1-1.84.46A1.56,1.56,0,0,1,371.32,213.55Z"/><path class="cls-17" d="M377.13,210c.33-.55.86-.52,1.39-.47C378.27,210.26,377.7,210.12,377.13,210Z"/><path class="cls-17" d="M375.78,210.41c.33-.57.86-.5,1.39-.47C376.9,210.66,376.37,210.61,375.78,210.41Z"/><path class="cls-17" d="M374.89,210.87c.08-.61.53-.49.94-.48C375.74,211,375.28,210.87,374.89,210.87Z"/><path class="cls-17" d="M372.22,213.09c-.08.62-.54.48-.94.48C371.36,213,371.83,213.09,372.22,213.09Z"/><path class="cls-17" d="M378.53,208.15a44,44,0,0,1-9.95,3.17A27.48,27.48,0,0,1,378.53,208.15Z"/><path class="cls-17" d="M368.62,211.3a1.54,1.54,0,0,1-1.84.46A1.64,1.64,0,0,1,368.62,211.3Z"/><path class="cls-17" d="M380.78,207.24c-.28.7-.81.66-1.39.47C379.71,207.15,380.24,207.18,380.78,207.24Z"/><path class="cls-17" d="M379.42,207.69c-.07.62-.55.47-.93.48C378.55,207.53,379,207.67,379.42,207.69Z"/><path class="cls-17" d="M308.88,221.73A3.73,3.73,0,0,1,308,221c-.4-.64,0-1.12.44-1.58,1.66-1.82,3.33-3.63,5-5.45,1.05-1.16,2.06-2.36,3.12-3.51a1.06,1.06,0,0,1,1.59-.21,1,1,0,0,1,.12,1.58q-4.17,4.67-8.39,9.31A4.14,4.14,0,0,1,308.88,221.73Z"/><path class="cls-17" d="M321.29,213.59c-.3.38-.51.69-.76,1q-4.14,4.4-8.29,8.77c-.42.44-.81,1.23-1.63.48s-.4-1.12.09-1.71c2.63-3.14,5.33-6.22,8.24-9.11.42-.42.86-.95,1.52-.41A6.59,6.59,0,0,1,321.29,213.59Z"/><path class="cls-17" d="M306.36,219.34a3.12,3.12,0,0,1-.94-.62c-.36-.46.1-.81.39-1.13q4.1-4.56,8.21-9.11c.47-.52,1-1,1.7-.32a1,1,0,0,1,.07,1.71c-2.65,2.92-5.27,5.86-7.91,8.78A1.63,1.63,0,0,1,306.36,219.34Z"/><path class="cls-17" d="M308,213.41a1.48,1.48,0,0,1-1.2-.75c-.33-.46-.09-.84.23-1.2l4.83-5.3c.51-.56,1.06-.85,1.71-.17.4.42.66.86.2,1.37q-2.56,2.83-5.14,5.63A2.85,2.85,0,0,1,308,213.41Z"/><path class="cls-3" d="M358.36,164.88a5.8,5.8,0,1,1,5.68-5.79A5.91,5.91,0,0,1,358.36,164.88Z"/><path class="cls-3" d="M351.31,322.22a5.72,5.72,0,1,1,5.63-5.77A5.61,5.61,0,0,1,351.31,322.22Z"/><path class="cls-3" d="M224.35,178.89s3.46,20,26.44,29.52l-6.12-17.53Z"/><path class="cls-8" d="M378.12,180.61l-4.69,4.11a1.2,1.2,0,0,1-1.05.42.88.88,0,0,1-.57-1.41,2.81,2.81,0,0,1,.43-.44l4.22-3.71c.11-.1.26-.18.31-.3s.09-.37,0-.45a.51.51,0,0,0-.46-.12,7.62,7.62,0,0,0-.89.7,1.07,1.07,0,0,1-1.6,0,1.12,1.12,0,0,1,.12-1.61c.25-.23.51-.44.75-.67s.29-.35.1-.57a.4.4,0,0,0-.62,0c-.22.19-.44.39-.66.58a1,1,0,0,1-1.35,0,.93.93,0,0,1,.17-1.32c.44-.39.88-.78,1.32-1.16.22-.19.4-.4.16-.66s-.48-.11-.7.06-.72.6-1.11.85a.57.57,0,0,1-.9-.39.84.84,0,0,1,.17-.63,48.39,48.39,0,0,1,7-6.25,1.7,1.7,0,0,1,2.55.34q2.31,2.67,4.66,5.32a2.28,2.28,0,0,1,.63,1.75c-.12,2.26-.2,4.53-.3,6.8a1.38,1.38,0,0,1-1,1.42c-.42.13-.67.06-.77-.38a11.06,11.06,0,0,1-.4-2.18c-.05-1.26,0-2.52,0-3.77a1.44,1.44,0,0,0,0-.43.29.29,0,0,0-.48-.19,2.93,2.93,0,0,0-.41.32Z"/><path class="cls-8" d="M317.74,196.18l1.68,5.43a1.15,1.15,0,0,0,.59.84.73.73,0,0,0,1-.79,2.77,2.77,0,0,0-.13-.54l-1.51-4.9a1.05,1.05,0,0,1-.1-.38c0-.13.09-.33.18-.35a.43.43,0,0,1,.39.13,7.51,7.51,0,0,1,.35,1,.94.94,0,0,0,1.19.75A1,1,0,0,0,322,196c-.08-.3-.18-.59-.27-.88s-.06-.41.17-.48.38.07.46.3.15.51.24.76a.86.86,0,0,0,1,.63.83.83,0,0,0,.44-1.09c-.15-.51-.31-1-.47-1.53-.08-.25-.12-.5.16-.58s.4.15.48.39c.15.4.27.81.45,1.19a.48.48,0,0,0,.83.15.77.77,0,0,0,.14-.56,47.71,47.71,0,0,0-2.45-8.19,1.48,1.48,0,0,0-2-1c-1.89.6-3.79,1.19-5.69,1.76a1.85,1.85,0,0,0-1.21,1c-.88,1.78-1.79,3.55-2.69,5.32a1.32,1.32,0,0,0,.09,1.55c.25.31.46.37.73.09a9.2,9.2,0,0,0,1.23-1.47c.58-.93,1.06-1.92,1.59-2.89a1.22,1.22,0,0,1,.22-.31c.16-.15.32-.12.43.09a2.88,2.88,0,0,1,.17.45Z"/><polygon class="cls-9" points="381.99 164.66 379.19 166.49 385.96 175.1 388.45 172.61 381.99 164.66"/><path class="cls-9" d="M322.64,185.67c-2.84-.11-5.3,1.41-8,1.82-.24-1.32-1.12-2.49-.91-3.92l8-1.94C321.67,183.06,322.44,184.3,322.64,185.67Z"/><path class="cls-8" d="M278.36,210.3l.29-.18c.15.11.25,0,.36,0a4.52,4.52,0,0,1,3.91.37c1.81,1,3.6,2.13,5.39,3.23a1.63,1.63,0,0,1,.8,1.76c-.18.58-.83.77-1.5.43s-1.36-.71-2.06-1.07a.45.45,0,0,0,.11.29l4.59,7.54a1,1,0,0,1-.13,1.39,1,1,0,0,1-1.33-.46l-1.27-2.05-1.64-2.63c-.13-.2-.27-.3-.44-.21s-.17.27-.06.48.15.25.22.37c1.14,1.88,2.27,3.76,3.42,5.63a1.17,1.17,0,0,1,.14,1.08c0,.07-.08.12,0,.21l-.35.21c-.64.07-1.07-.3-1.46-.95-1.09-1.82-2.22-3.62-3.34-5.43l-.14-.22c-.12-.18-.28-.24-.43-.16s-.17.25-.06.44l.16.26q1.54,2.54,3.08,5.08c.37.62.3,1.21-.15,1.48s-1,0-1.35-.61l-3.51-5.68c-.14-.23-.31-.53-.57-.37s-.08.42.07.67q1.2,2,2.39,3.94a1,1,0,0,1,0,1.24.81.81,0,0,1-1.06.05,1.92,1.92,0,0,1-.54-.65c-1.78-2.9-3.58-5.78-5.31-8.71a4.84,4.84,0,0,1-.23-4.94c.24-.39.61-.64.83-1l.17-.11A3.41,3.41,0,0,0,278.36,210.3Z"/><path class="cls-9" d="M281.13,210.42c-2.12,1-3.5,2.86-4.93,4.63-1.57.14-2.06-1.33-3.05-2.06,2-1.95,3.63-4.18,6-5.67C279.86,208.33,281.28,208.88,281.13,210.42Z"/><path class="cls-16" d="M347.54,184.86l-.45-.28c-.26-.25-.41-.64-.81-.74l-.26-.31v-.17a12.81,12.81,0,0,1,4.68-4.78,16.61,16.61,0,0,0,4.43-4,14.32,14.32,0,0,1,4.34-3.33,1.17,1.17,0,0,1,1.71.72c.1.27.21.53.31.8l-.37.33a1.82,1.82,0,0,0-2.1-.56,6.7,6.7,0,0,0-3.74,2.81,2.15,2.15,0,0,0,0,2.84l-.3.27-.32-.21a.49.49,0,0,0-.69,0c-.32.31-.12.59,0,.88l-.32.27a2.41,2.41,0,0,0-3.09-.13,7.15,7.15,0,0,0-2,1.72c-.89,1.06-1.5,2.18-.82,3.6Z"/><path class="cls-12" d="M353.71,179.43l.32-.27a4.81,4.81,0,0,1-2.27,7.27,3.25,3.25,0,0,1-2.85-.43,7,7,0,0,1-1.37-1.14l.28-.24c.25.21.52.41.76.63a3.15,3.15,0,0,0,4.12.25A4.44,4.44,0,0,0,353.71,179.43Z"/><path class="cls-12" d="M361.13,173.1l.37-.33c.24.37.5.73.71,1.11a3.47,3.47,0,0,1-1.38,4.9,4.62,4.62,0,0,1-5.81-.33l.3-.27a4.2,4.2,0,0,0,4.82.56A3.32,3.32,0,0,0,361.13,173.1Z"/><path class="cls-22" d="M346.28,183.84c.4.1.55.48.81.74C346.59,184.58,346.49,184.14,346.28,183.84Z"/><path class="cls-22" d="M346,183.36v.17C346,183.47,346,183.42,346,183.36Z"/><path class="cls-23" d="M361.13,173.1a3.32,3.32,0,0,1-1,5.64,4.2,4.2,0,0,1-4.82-.56,2.15,2.15,0,0,1,0-2.84,6.7,6.7,0,0,1,3.74-2.81A1.82,1.82,0,0,1,361.13,173.1Z"/><path class="cls-23" d="M353.71,179.43a4.44,4.44,0,0,1-1,6.07,3.15,3.15,0,0,1-4.12-.25c-.24-.22-.51-.42-.76-.63-.68-1.41-.08-2.54.82-3.6a7.15,7.15,0,0,1,2-1.72A2.41,2.41,0,0,1,353.71,179.43Z"/><g class="cls-24"><g class="cls-25"><g class="cls-26"><circle class="cls-27" cx="64.87" cy="339.37" r="2.34"/><path class="cls-28" d="M-26.07,397.14q0-3.69,0-7.37c0-5.57,0-11.14,0-16.71a3.34,3.34,0,0,0-.68-2.09C-28.86,368-31,365.09-33,362.11c-.42-.61-1.29-1.51-.61-2.11s1.46.34,2,.85c1.79,1.62,3.51,3.3,5.52,5.21,0-3.64-.13-7,0-10.33s.35-6.6,1.71-9.83a3.53,3.53,0,0,1,1,2.45,133.58,133.58,0,0,1,1.2,16.49c.54,16,.84,32,1.15,47.94.05,2.76.18,5.51.22,8.27,0,.85.17,1.07,1.05.77A32.18,32.18,0,0,0-8.8,415.12c7.28-6.46,12.36-14.27,14.23-24,1.37-7.08.49-14-1.54-20.84a62.05,62.05,0,0,0-16-27.1,35.63,35.63,0,0,0-4.43-3.59,11.53,11.53,0,0,0-12.13-1.19c-8.25,3.65-14.84,9.36-20.43,16.3a43.13,43.13,0,0,0-9.32,19.18c-1.62,8.65.17,16.77,4.31,24.37,5.5,10.12,13.27,17.9,24,22.42.87.37,1.8.6,2.7.91s1.21.14,1.2-.86q0-7.71,0-15.42a2.59,2.59,0,0,0-.77-1.75c-4-4.9-8.2-9.64-11.94-14.75a20.18,20.18,0,0,1-2.68-5.17c-.14-.38-.58-.93,0-1.28s.82.15,1.13.41c1.13.94,2.27,1.88,3.33,2.91C-33.3,389.32-29.91,393.31-26.07,397.14Z"/><circle class="cls-27" cx="4.43" cy="423.78" r="2.22"/></g></g></g></svg>