<svg id="Layer_1" data-name="Layer 1" xmlns="http://www.w3.org/2000/svg" viewBox="0 0 80 93.5"><defs><style>.cls-1{fill:none;stroke:#f04f23;stroke-miterlimit:10;stroke-width:2.7px;}</style></defs><title>career icon send</title><path class="cls-1" d="M72.93,43V52.2c-.56.14-1.14.28-1.7.44a6.3,6.3,0,0,0-4.8,6.26c0,1.83,0,3.66,0,5.5,0,4.92,1.49,6.77,6.34,7.91.66,6.37.72,8.39-5.73,11-5.37,2.18-11.09,3.52-16.65,5.23l-8.81,2.71c0-.89-.11-1.59-.11-2.29q0-13.74,0-27.48c0-6.49,1.71-8.37,7.82-10.28,7.49-2.34,14.86-5.08,22.28-7.64Z"/><path class="cls-1" d="M37.8,91.28,22.56,86.61c-3.23-1-6.56-1.76-9.69-3C6.8,81.17,5.72,79,6.63,72.36c.88-.17,1.81-.28,2.71-.53A5.94,5.94,0,0,0,13.88,66c.06-2.17,0-4.34,0-6.52,0-4.33-1.88-6.5-6.15-7.14l-1.16-.15V43.09c2.32.89,4.53,1.82,6.8,2.58,6,2,12.07,4,18.14,5.93,4.09,1.28,6.11,3.32,6.22,8.21C38,70.24,37.8,80.69,37.8,91.28Z"/><path class="cls-1" d="M39.7,32.68a15.09,15.09,0,0,1,0-30.18,15.09,15.09,0,1,1,0,30.18Z"/><path class="cls-1" d="M39.48,51.66c-2.18-2.74-5.19-3.55-8.23-4.37s-6.2-1.86-9.5-2.86c2.08-3.49,4.87-5.85,8.44-6.69a42.86,42.86,0,0,1,19.17-.05A13.2,13.2,0,0,1,57.71,44C51.92,47.27,44.6,46.52,39.48,51.66Z"/><path class="cls-1" d="M10.19,62.3c0,.81,0,1.63,0,2.44a3.83,3.83,0,0,1-3.83,3.91,3.73,3.73,0,0,1-4.22-3.47,32.87,32.87,0,0,1,0-5.88,3.8,3.8,0,0,1,4.28-3.41,3.86,3.86,0,0,1,3.76,3.78C10.24,60.54,10.19,61.42,10.19,62.3Z"/><path class="cls-1" d="M78,62.41c0,.88.07,1.77,0,2.64A3.87,3.87,0,0,1,74,68.66a3.74,3.74,0,0,1-4-3.53,36.76,36.76,0,0,1,0-5.69,4,4,0,0,1,8,.12c.07.94,0,1.9,0,2.85Z"/></svg>