<svg id="Layer_1" data-name="Layer 1" xmlns="http://www.w3.org/2000/svg" viewBox="0 0 500 500"><defs><style>.cls-1{fill:#fff;}.cls-2{fill:#4b3838;}.cls-3{fill:#b18070;}.cls-4{fill:#3591c2;}.cls-5{fill:#050505;}</style></defs><title>mule circle</title><circle class="cls-1" cx="250" cy="250" r="250"/><path class="cls-2" d="M187.79,79h4.74c.14.22.37.14.56.16A21.94,21.94,0,0,1,199,80.65c4.76,1.95,8.28,5.37,11.24,9.46a73,73,0,0,1,10.19,21.17,182.39,182.39,0,0,1,4.84,20.31q2,10.49,3.23,21.1c.68,5.89,1,11.82,1.47,17.73a48.72,48.72,0,0,0-3.16,7.93,48.33,48.33,0,0,0-2.29,9.44c-2.2-7-2.42-14.16-2.19-21.61a74.24,74.24,0,0,0-3.4,8.8,20.08,20.08,0,0,1,.07-2.36c.1-4.79,0-9.58-.25-14.37a201.85,201.85,0,0,0-2.86-24.08,93.88,93.88,0,0,0-8.48-26,34.76,34.76,0,0,0-7.56-10.55c-3.14-2.8-6.62-5-11-5.08a22.4,22.4,0,0,0-15.67,5.74c-3,2.58-4.62,6.07-5.94,9.68-2.21,6-2.32,12.3-1.54,18.59a143.85,143.85,0,0,0,5.1,23.59,183.38,183.38,0,0,0,24.31,50.26,69,69,0,0,0,11.53,13.38c2.31,2,3.51,1.79,5-.89a43.47,43.47,0,0,0,4-10.33c.64-2.45,1.17-4.93,1.75-7.4a36,36,0,0,0,1.78,6.11c1.33,3,2.28,6.19,5.43,7.9a.58.58,0,0,1,.27.75c-.84,2.9-.34,5.77.24,8.63a55.64,55.64,0,0,0,2.69,8.77,40.38,40.38,0,0,0,2.35,5.26,19.29,19.29,0,0,1,.32-8.55,25.46,25.46,0,0,1,3.38-8c-1.21,10.63.64,20.81,4.32,31a3.45,3.45,0,0,0,.11-.47,119.42,119.42,0,0,1,.7-16.16,33.31,33.31,0,0,1,2.24-9.48,7.08,7.08,0,0,1,3.37-4c.48-.22.79-.21,1,.35a59.13,59.13,0,0,1,4,11.93,19.37,19.37,0,0,1,.31,8.22c0,.16-.11.39.09.46s.4-.18.53-.36c3.85-5.26,6.88-10.9,8-17.4a25.32,25.32,0,0,0,.33-4.93c0-1.62-.47-3.16-.57-4.76h0a39.55,39.55,0,0,1,5.05,5.31,32.26,32.26,0,0,1,6.27,12.08,20.59,20.59,0,0,1,.66,7.07c-.15,1.39-.53,2.74-.58,4.13l-.13.19.06,0,.07-.23c.15-.25.32-.48.45-.74a71.17,71.17,0,0,0,4.57-12A39,39,0,0,0,276.4,215c0-.45-.07-.89-.11-1.47a6,6,0,0,1,1.7,1.62,16.65,16.65,0,0,1,2.63,7.15c.31,1.71.58,3.43.86,5.14a13.08,13.08,0,0,0,.94-2.37,34.33,34.33,0,0,0,1.71-14.54,13.91,13.91,0,0,0-2.25-6.27.92.92,0,0,1,0-1.21,14.1,14.1,0,0,0,1.6-3.68,3,3,0,0,1,.11.33,49.26,49.26,0,0,0,4.64,13c1.59,2.89,2.81,3.07,5.3.87a59.48,59.48,0,0,0,7.79-8.42,172.66,172.66,0,0,0,18.21-30.29,162.73,162.73,0,0,0,13.52-40.76c1.22-6.44,2.16-12.91,1.28-19.49a29.31,29.31,0,0,0-5.71-14.41c-3.1-4-7.46-6.08-12.3-7.23a16.21,16.21,0,0,0-14.16,2.93,27.19,27.19,0,0,0-6.32,6.63,72.85,72.85,0,0,0-8.38,18.06,117,117,0,0,0-4.37,19.62c-.72,5-1.32,10-1.64,15-.15,2.33-.32,4.66-.41,7-.15,3.83-.12,7.66,0,11.48.09,2.77.45,5.53.4,8.31-.55-1.44-1.09-2.89-1.66-4.32-.36-.91-.75-1.81-1.12-2.71.13,2.5,0,5,0,7.4a19.14,19.14,0,0,1-1.25,6.93,6.89,6.89,0,0,1-4.13,4.48c-.65.22-1,.18-1.23-.56a11.37,11.37,0,0,1-.33-5.42,21,21,0,0,1,3.08-7.29c.12-.2.35-.39.25-.62s-.46-.16-.71-.16a14.86,14.86,0,0,0-5.15,1.23c.54-7,1.07-14,1.72-20.95s1.5-14.22,2.62-21.29a181.65,181.65,0,0,1,8-31.67c2.6-7.44,6.07-14.39,11.47-20.26,5.8-6.31,13-8.52,21.33-7.35a32.69,32.69,0,0,1,17.86,8.81c8,7.44,11.37,16.94,12,27.62v8a75.87,75.87,0,0,1-.59,7.68,132.72,132.72,0,0,1-5,23c-5.69,18.63-13.68,36.29-22.73,53.49-1.37,2.61-2.87,5.15-4.37,7.68-1.08,1.81-.89,2.8.69,4.11l.55.43a39.11,39.11,0,0,1,6.49,6.49,42.74,42.74,0,0,1,7.9,17.27,52.54,52.54,0,0,1,1.29,14.52c-.2,3.71-.66,7.38-1.11,11.06-.51,4.14-1,8.29-1.51,12.43-.68,5.12-1.46,10.23-2.15,15.34-.88,6.57-2,13.09-3.1,19.62-1,6.21-2,12.44-3.07,18.65-.73,4.43-1.27,8.91-2.23,13.29a153.88,153.88,0,0,1-8.15,24.7c-.29-.16-.29-.49-.4-.75-.47-1.16-.88-2.36-1.42-3.49a89.69,89.69,0,0,0-15-21.73,81.8,81.8,0,0,0-16.89-13.87,50.93,50.93,0,0,0-21.85-8,33.24,33.24,0,0,0-16.19,2.41,51.42,51.42,0,0,0-15.66,10.29,100.49,100.49,0,0,0-16.22,19.15,70,70,0,0,0-8.46,18.5c-.83,2.86-1.24,5.8-2,8.68l-.61,2c-.14-.28-.23-.46-.31-.64-2.71-6.16-5.31-12.37-7.71-18.66a112.35,112.35,0,0,1-5.23-16c-1.37-6.3-1.65-12.73-2.1-19.14q-.43-6-.84-12.06c-.22-3.38-.72-6.73-1.1-10.1-.5-4.44-.69-8.91-.92-13.37-.27-5.19-.75-10.37-1.23-15.55q-.65-7-1.14-14.06a54.12,54.12,0,0,1,.92-15.16,57.7,57.7,0,0,1,12.1-24.28,48,48,0,0,1,5.12-5.41,2.32,2.32,0,0,0,.59-3.27c-.13-.26-.27-.52-.42-.77-6.33-11.13-12.23-22.47-17.43-34.18-6.38-14.39-11.94-29.05-14.88-44.59a100.18,100.18,0,0,1-2-17.11c0-.18.11-.42-.17-.52v-2.46c.24-.07.17-.27.17-.43a45.69,45.69,0,0,1,.35-5.33,47,47,0,0,1,4.49-15.89c4.77-9.6,12.87-15,22.87-18C184.93,79.47,186.37,79.27,187.79,79Zm87.88,228.31c.79,0,1.58,0,2.36,0s1.57-.16,2.35-.29a46.34,46.34,0,0,0,26.81-13.79c4.93-5.11,6.59-11.09,4.51-18a35,35,0,0,0-15.65-20,16.48,16.48,0,0,0-14.15-1.58,23.83,23.83,0,0,0-9.78,6.1,47.42,47.42,0,0,0-12.72,23.54,27.91,27.91,0,0,0,2.6,19.11,8.46,8.46,0,0,0,7,5C271.24,307.62,273.45,307.24,275.67,307.29Zm-49.26.25h1.44c3.55-.06,6.65-1.13,8.6-4.29A24.66,24.66,0,0,0,240.08,292a38.12,38.12,0,0,0-1.77-13.21c-3-10.64-9.16-18.85-18.92-24.21a14.63,14.63,0,0,0-10.63-1.76c-5.08,1.19-9.18,4.09-12.8,7.71a37.65,37.65,0,0,0-8.45,13.67A16.48,16.48,0,0,0,189.95,291a38.36,38.36,0,0,0,8.2,7.73C206.64,304.85,216.32,307.21,226.41,307.53Z"/><path class="cls-3" d="M307.09,373.63c.31,1.33.65,2.66.91,4a28.33,28.33,0,0,1-5.49,23.15,49.39,49.39,0,0,1-25.05,17.6,57.09,57.09,0,0,1-15.69,2.47c-.27,0-.59-.15-.8.17H248.86c-.12-.24-.35-.17-.54-.17a146.29,146.29,0,0,1-20.82-1.93,65,65,0,0,1-17-5c-11.6-5.59-17.27-14.88-17.3-27.7,0-.44.22-.92-.15-1.32.72-2.88,1.13-5.83,2-8.68a70,70,0,0,1,8.46-18.5,100.49,100.49,0,0,1,16.22-19.15,51.42,51.42,0,0,1,15.66-10.29,33.24,33.24,0,0,1,16.19-2.41,50.93,50.93,0,0,1,21.85,8,81.8,81.8,0,0,1,16.89,13.87,89.69,89.69,0,0,1,15,21.73c.55,1.13,1,2.32,1.42,3.49C306.79,373.14,306.79,373.47,307.09,373.63Zm-18,17a1.76,1.76,0,0,0-.73.45,85.61,85.61,0,0,1-16.44,10.15,46.45,46.45,0,0,1-28,3.17c-8-1.5-15.43-4.55-22.65-8.18-3.13-1.57-6.14-3.36-9.21-5.05l-.07,0,.08,0c0,.46.36.72.6,1a54.82,54.82,0,0,0,25.83,18.09,41.85,41.85,0,0,0,24.75,1c9.65-2.6,17.23-8.27,23.17-16.21a20.36,20.36,0,0,0,2.72-4.36l.09-.1s0,0,0-.06ZM291.85,365a4.39,4.39,0,0,0-1-3.3,19.76,19.76,0,0,0-4.87-4.63,10,10,0,0,0-12.86,1c-2.06,2.07-2.68,4.7-2.84,7.44a29.8,29.8,0,0,1-4.51,13.93c-1.43,2.35-3,4.62-4.59,6.84-1,1.32-.69,2.46.74,3.28a3.25,3.25,0,0,0,3,0,82.72,82.72,0,0,0,19.92-11.43C289.14,374.77,291.67,370.51,291.85,365Zm-79.36,1.79a9.35,9.35,0,0,0,1.46,5.17,29.13,29.13,0,0,0,8.72,8.75c4.53,3.19,9.52,5.56,14.44,8a17.82,17.82,0,0,0,3.05,1.06,3,3,0,0,0,2.82-.75,1.37,1.37,0,0,0,.44-1.79,7,7,0,0,0-1.47-2.16c-.29-.29-.66-.6-.61-1a1.62,1.62,0,0,0-.6-1.37c-.35-.39-.68-.8-1-1.22A28.71,28.71,0,0,1,233.95,365c-.34-6.38-5.49-10.64-11.38-9.66C217.11,356.26,212.49,361.28,212.49,366.81Z"/><path class="cls-3" d="M344.16,115.85l.17,0v8.07h-.16Q344.17,119.87,344.16,115.85Z"/><path class="cls-4" d="M217.43,195.13c-.58,2.47-1.11,4.94-1.75,7.4a43.47,43.47,0,0,1-4,10.33c-1.5,2.68-2.69,2.92-5,.89a69,69,0,0,1-11.53-13.38,183.38,183.38,0,0,1-24.31-50.26,143.85,143.85,0,0,1-5.1-23.59c-.79-6.29-.67-12.55,1.54-18.59,1.32-3.62,3-7.1,5.94-9.68a22.4,22.4,0,0,1,15.67-5.74c4.36.12,7.83,2.28,11,5.08a34.76,34.76,0,0,1,7.56,10.55,93.88,93.88,0,0,1,8.48,26,201.85,201.85,0,0,1,2.86,24.08c.29,4.79.35,9.58.25,14.37a20.08,20.08,0,0,0-.07,2.36c-.07.28-.12.57-.2.85a49.19,49.19,0,0,0-1.77,13.65C217,191.37,217.25,193.25,217.43,195.13Z"/><path class="cls-4" d="M281.45,182c0-2.78-.31-5.54-.4-8.31-.12-3.83-.15-7.66,0-11.48.09-2.33.26-4.66.41-7,.32-5,.92-10,1.64-15a117,117,0,0,1,4.37-19.62,72.85,72.85,0,0,1,8.38-18.06,27.19,27.19,0,0,1,6.32-6.63A16.21,16.21,0,0,1,316.33,93c4.84,1.15,9.19,3.23,12.3,7.23a29.31,29.31,0,0,1,5.71,14.41c.88,6.58-.06,13.05-1.28,19.49a162.73,162.73,0,0,1-13.52,40.76,172.66,172.66,0,0,1-18.21,30.29,59.48,59.48,0,0,1-7.79,8.42c-2.49,2.19-3.7,2-5.3-.87a49.26,49.26,0,0,1-4.64-13,3,3,0,0,0-.11-.33,22.67,22.67,0,0,0,0-9.46A67.77,67.77,0,0,0,281.45,182Z"/><path class="cls-5" d="M281.45,182a67.77,67.77,0,0,1,2.06,7.94,22.67,22.67,0,0,1,0,9.46,14.1,14.1,0,0,1-1.6,3.68.92.92,0,0,0,0,1.21,13.91,13.91,0,0,1,2.25,6.27,34.33,34.33,0,0,1-1.71,14.54,13.08,13.08,0,0,1-.94,2.37c-.29-1.71-.55-3.43-.86-5.14a16.65,16.65,0,0,0-2.63-7.15,6,6,0,0,0-1.7-1.62c0,.58.1,1,.11,1.47a39,39,0,0,1-1.64,11.27,71.17,71.17,0,0,1-4.57,12c-.13.26-.3.49-.45.74h0c.06-1.4.44-2.75.58-4.13a20.59,20.59,0,0,0-.66-7.07,32.26,32.26,0,0,0-6.27-12.08,39.55,39.55,0,0,0-5.05-5.31l-.07,0,.07,0c.1,1.6.54,3.14.57,4.76a25.32,25.32,0,0,1-.33,4.93c-1.14,6.51-4.16,12.14-8,17.4-.13.18-.24.46-.53.36s-.13-.3-.09-.46a19.37,19.37,0,0,0-.31-8.22,59.13,59.13,0,0,0-4-11.93c-.24-.56-.55-.57-1-.35a7.08,7.08,0,0,0-3.37,4,33.31,33.31,0,0,0-2.24,9.48,119.42,119.42,0,0,0-.7,16.16,3.45,3.45,0,0,1-.11.47c-3.68-10.17-5.53-20.34-4.32-31a25.46,25.46,0,0,0-3.38,8,19.29,19.29,0,0,0-.32,8.55,40.38,40.38,0,0,1-2.35-5.26,55.64,55.64,0,0,1-2.69-8.77c-.58-2.86-1.07-5.73-.24-8.63a.58.58,0,0,0-.27-.75c-3.15-1.72-4.1-4.95-5.43-7.9a36,36,0,0,1-1.78-6.11c-.18-1.88-.46-3.76-.5-5.65a49.19,49.19,0,0,1,1.77-13.65c.07-.28.13-.56.2-.85a74.25,74.25,0,0,1,3.4-8.8c-.23,7.44,0,14.63,2.19,21.61a48.33,48.33,0,0,1,2.29-9.44,48.72,48.72,0,0,1,3.16-7.93l-.05.7a1.09,1.09,0,0,0-.15.3,18.71,18.71,0,0,0,0,6.09,8.25,8.25,0,0,0,.8,3.09,27.15,27.15,0,0,0,2.7,6.82c1.55-4.34,3-8.45,1.69-12.93l0,0A27.77,27.77,0,0,1,238.3,178a56.8,56.8,0,0,1,3.72,5.71,40.11,40.11,0,0,1,2.41,5.56,50.24,50.24,0,0,1,4.84-13.84,42.27,42.27,0,0,0,4.4,15.1,15.26,15.26,0,0,0,1.66-2.56,17.62,17.62,0,0,0,2.31-11.78,11,11,0,0,1-.54-2.46l.18,0a62.3,62.3,0,0,1,5.87,12.8,18.7,18.7,0,0,1,1.65-2.43,14.1,14.1,0,0,1,4.42-3.18,14.86,14.86,0,0,1,5.15-1.23c.24,0,.57-.15.71.16s-.13.42-.25.62a21,21,0,0,0-3.08,7.29,11.37,11.37,0,0,0,.33,5.42c.24.74.58.79,1.23.56a6.89,6.89,0,0,0,4.13-4.48,19.14,19.14,0,0,0,1.25-6.93c0-2.45.09-4.9,0-7.4.38.9.77,1.8,1.12,2.71C280.35,179.11,280.89,180.56,281.45,182Z"/><path class="cls-1" d="M275.67,307.29c-2.22,0-4.42.34-6.65.09a8.46,8.46,0,0,1-7-5,27.91,27.91,0,0,1-2.6-19.11,47.42,47.42,0,0,1,12.72-23.54,23.83,23.83,0,0,1,9.78-6.1,16.48,16.48,0,0,1,14.15,1.58,35,35,0,0,1,15.65,20c2.08,6.86.42,12.84-4.51,18A46.34,46.34,0,0,1,280.38,307c-.78.12-1.56.24-2.35.29S276.46,307.29,275.67,307.29Zm3-1.36a15.46,15.46,0,0,0,4-.3c5.41-1.24,8.82-4.75,10.9-9.71a11.66,11.66,0,0,0,1.25-5.83,3.09,3.09,0,0,0-4.47-2.72,16.14,16.14,0,0,0-1.56.78,10,10,0,0,1-1.84.8c-2.26.67-4.3-.13-5.8-2.31a4.48,4.48,0,0,1,.18-5.87c.47-.59,1.06-1.09,1.55-1.67a3.24,3.24,0,0,0-1.9-5.49,15.22,15.22,0,0,0-8.36.72c-5,1.93-8.77,5.27-10,10.63a20.74,20.74,0,0,0,1.06,12.28,12.7,12.7,0,0,0,8.4,7.82A21.15,21.15,0,0,0,278.69,305.93Z"/><path class="cls-1" d="M226.41,307.53c-10.09-.33-19.77-2.68-28.27-8.81a38.36,38.36,0,0,1-8.2-7.73,16.48,16.48,0,0,1-2.44-16.76A37.65,37.65,0,0,1,196,260.55c3.62-3.62,7.71-6.52,12.8-7.71a14.63,14.63,0,0,1,10.63,1.76c9.76,5.36,15.92,13.57,18.92,24.21A38.12,38.12,0,0,1,240.08,292a24.66,24.66,0,0,1-3.63,11.21c-2,3.17-5.05,4.24-8.6,4.29ZM204.12,290c0,.5.09,1.29.19,2.07a12.83,12.83,0,0,0,.34,1.71c1.55,5.74,4.87,9.86,10.73,11.61a24.78,24.78,0,0,0,5.29.52,13.54,13.54,0,0,0,8.91-2.17c4.86-3.29,7.55-7.77,7-13.82-.23-2.55-2.34-4.27-4.95-2.26a9.16,9.16,0,0,1-1.48.92,4.55,4.55,0,0,1-5.23-.5c-3.08-2.43-3.22-5.62-.35-8.27.28-.26.56-.51.82-.79a2.94,2.94,0,0,0,.3-3.91,3.83,3.83,0,0,0-2.91-1.71,17.89,17.89,0,0,0-5,.15A16.28,16.28,0,0,0,204.12,290Z"/><path class="cls-5" d="M269.75,239l-.07.23-.06,0,.13-.19Z"/><path class="cls-5" d="M291.85,365c-.18,5.49-2.71,9.75-6.94,13.16A82.72,82.72,0,0,1,265,389.61a3.25,3.25,0,0,1-3,0c-1.42-.82-1.7-2-.74-3.28,1.62-2.22,3.16-4.49,4.59-6.84a29.8,29.8,0,0,0,4.51-13.93c.16-2.74.79-5.37,2.84-7.44a10,10,0,0,1,12.86-1,19.76,19.76,0,0,1,4.87,4.63A4.39,4.39,0,0,1,291.85,365Z"/><path class="cls-5" d="M212.49,366.81c0-5.52,4.61-10.54,10.07-11.45,5.89-1,11,3.27,11.38,9.66a28.71,28.71,0,0,0,5.79,16.51c.32.42.65.83,1,1.22a1.62,1.62,0,0,1,.6,1.37c-.05.42.32.72.61,1a7,7,0,0,1,1.47,2.16,1.37,1.37,0,0,1-.44,1.79,3,3,0,0,1-2.82.75,17.82,17.82,0,0,1-3.05-1.06c-4.92-2.49-9.92-4.85-14.44-8a29.13,29.13,0,0,1-8.72-8.75A9.35,9.35,0,0,1,212.49,366.81Z"/><path class="cls-1" d="M212,391.19c3.06,1.69,6.08,3.48,9.21,5.05,7.23,3.63,14.66,6.69,22.65,8.18a46.45,46.45,0,0,0,28-3.17,85.61,85.61,0,0,0,16.44-10.15,1.76,1.76,0,0,1,.73-.45l0,.05a20.48,20.48,0,0,1-2.72,4.36c-5.94,7.94-13.52,13.61-23.17,16.21a41.85,41.85,0,0,1-24.75-1,54.82,54.82,0,0,1-25.83-18.09c-.24-.31-.6-.57-.6-1Z"/><path class="cls-1" d="M289,390.66l.09-.11s0,.05,0,.06l-.09.1Z"/><path class="cls-1" d="M212,391.18l-.08,0,.07,0Z"/><path class="cls-4" d="M257.11,173.71a11,11,0,0,0,.54,2.46,17.62,17.62,0,0,1-2.31,11.78,15.26,15.26,0,0,1-1.66,2.56,42.27,42.27,0,0,1-4.4-15.1,50.24,50.24,0,0,0-4.84,13.84,40.11,40.11,0,0,0-2.41-5.56A56.8,56.8,0,0,0,238.3,178a14.43,14.43,0,0,1,10.17-6c.23,0,.46-.09.69-.14a10.54,10.54,0,0,0,2.21,0,18.43,18.43,0,0,1,5.12,1.37A1.13,1.13,0,0,1,257.11,173.71Z"/><path class="cls-4" d="M249.17,154.82a6.89,6.89,0,1,1,2.16.06A10.07,10.07,0,0,1,249.17,154.82Z"/><path class="cls-5" d="M249.17,154.82a10.07,10.07,0,0,0,2.16.06q0,7.41,0,14.83c0,.7,0,1.4,0,2.11a10.54,10.54,0,0,1-2.21,0Z"/><path class="cls-4" d="M264.82,184.13a18.7,18.7,0,0,0-1.65,2.43,62.3,62.3,0,0,0-5.87-12.8,11,11,0,0,1,4.35,3.49,14.07,14.07,0,0,1,3,6.49A2.46,2.46,0,0,0,264.82,184.13Z"/><path class="cls-2" d="M230.58,180.59a8.25,8.25,0,0,1-.8-3.09,18.71,18.71,0,0,1,0-6.09,1.09,1.09,0,0,1,.15-.3C230.2,174.27,230.44,177.43,230.58,180.59Z"/><path class="cls-5" d="M235,174.48l-.12-.1.09-.09.06.15Z"/><path class="cls-2" d="M258.34,210.42l-.07,0,.07,0Z"/><path class="cls-5" d="M278.69,305.93a21.15,21.15,0,0,1-6.57-.85,12.7,12.7,0,0,1-8.4-7.82A20.74,20.74,0,0,1,262.67,285c1.22-5.36,5-8.71,10-10.63a15.22,15.22,0,0,1,8.36-.72,3.24,3.24,0,0,1,1.9,5.49c-.49.58-1.08,1.07-1.55,1.67a4.48,4.48,0,0,0-.18,5.87c1.5,2.17,3.55,3,5.8,2.31a10,10,0,0,0,1.84-.8,16.14,16.14,0,0,1,1.56-.78,3.09,3.09,0,0,1,4.47,2.72,11.66,11.66,0,0,1-1.25,5.83c-2.08,5-5.5,8.47-10.9,9.71A15.46,15.46,0,0,1,278.69,305.93Z"/><path class="cls-5" d="M204.12,290a16.28,16.28,0,0,1,13.67-16.46,17.89,17.89,0,0,1,5-.15,3.83,3.83,0,0,1,2.91,1.71,2.94,2.94,0,0,1-.3,3.91c-.25.28-.54.54-.82.79-2.88,2.65-2.74,5.84.35,8.27a4.55,4.55,0,0,0,5.23.5,9.16,9.16,0,0,0,1.48-.92c2.61-2,4.71-.28,4.95,2.26.56,6-2.13,10.53-7,13.82a13.54,13.54,0,0,1-8.91,2.17,24.78,24.78,0,0,1-5.29-.52c-5.86-1.75-9.18-5.87-10.73-11.61a12.83,12.83,0,0,1-.34-1.71C204.21,291.33,204.16,290.55,204.12,290Z"/></svg>