<svg id="Layer_1" data-name="Layer 1" xmlns="http://www.w3.org/2000/svg" viewBox="0 0 595.54 154.64"><title>oe l</title><path d="M476,62.57a17.35,17.35,0,0,1,9.19,5.1,11.7,11.7,0,0,1,3.19,8q.09,9,0,17.93c-.07,7.4-4.58,12.52-12.49,14.11a34.73,34.73,0,0,1-6.67.63c-21.12,0-42.24,0-63.35.06-1.43,0-1.86-.36-1.85-1.82q.06-40.71,0-81.43c0-1.43.38-1.84,1.83-1.84,20.42.05,40.84,0,61.26.05a26,26,0,0,1,10.64,1.94c5.17,2.28,8.25,6.15,8.47,11.79A140.35,140.35,0,0,1,486,53.49c-.41,5.36-2.55,7.73-8.93,8.84C476.71,62.39,476.35,62.49,476,62.57ZM442.45,98.1c7.82,0,15.64.06,23.45,0a23,23,0,0,0,6.28-1,5.54,5.54,0,0,0,4.16-5.44c.13-5,.21-10,.07-14.93-.11-3.85-2-5.84-5.78-6.72a16.37,16.37,0,0,0-3.68-.49c-16.63,0-33.26,0-49.89,0-1.28,0-1.59.46-1.59,1.65,0,8.42.06,16.83,0,25.25,0,1.5.52,1.8,1.9,1.79C425.72,98.07,434.09,98.1,442.45,98.1Zm-.78-38.77V59.2c8.16,0,16.33.09,24.49,0,5.27-.08,8.28-3,8.33-7.6,0-3.33.05-6.67,0-10-.07-3.69-1.84-6.12-5.37-7.17a17.64,17.64,0,0,0-4.84-.75c-15.68,0-31.36,0-47-.06-1.41,0-1.77.46-1.76,1.8,0,7.32,0,14.64,0,21.95,0,2,0,2,2,2Z" fill="#f15a29"/><path d="M329.63,69.73v1.8c0,5.24,0,10.47,0,15.7,0,6.58,4.17,10.73,10.76,10.73q28.17,0,56.35,0c3,0,2.61-.33,2.63,2.63,0,2-.08,4.09,0,6.12.08,1.37-.44,1.67-1.71,1.66-6.18-.06-12.36,0-18.54,0-13.75,0-27.5-.23-41.25.08-9.84.22-18.54-7.29-19.59-16.5a24.06,24.06,0,0,1-.14-2.68q0-23.33,0-46.64a18.9,18.9,0,0,1,19.29-19.28c20,0,40.06,0,60.09,0,1.4,0,1.94.32,1.87,1.81-.12,2.49-.06,5,0,7.47,0,.89-.29,1.31-1.2,1.25-.45,0-.9,0-1.35,0H340.19c-5.45,0-9.21,2.92-10.36,8.05a12.5,12.5,0,0,0-.19,2.67c0,4.28.05,8.57,0,12.85,0,1.47.44,1.82,1.85,1.82q27.14-.07,54.26,0c2,0,2,0,2,1.93,0,2.3-.08,4.59,0,6.88.07,1.37-.35,1.76-1.74,1.76-17-.05-34.08,0-51.12,0Z" fill="#f15a29"/><path d="M494.25,98.05h58.62c6.39,0,10.55-3.84,10.85-10.22a81.17,81.17,0,0,0-.1-9,9.71,9.71,0,0,0-9.81-9.13c-14.3,0-28.6,0-42.9,0a18.84,18.84,0,0,1-9.35-2.19c-5.7-3.16-9.55-7.81-10-14.45a69,69,0,0,1,.21-14.59c1.22-8.57,9.17-15.07,18.05-15.12,19.34-.1,38.67,0,58-.05,1.11,0,1.49.36,1.46,1.46,0,2.39-.08,4.79,0,7.17.05,1.32-.38,1.69-1.7,1.68q-27.12-.06-54.26,0a10.28,10.28,0,0,0-9,4.63c-2.35,3.48-2.29,12.82.17,16.22a10.26,10.26,0,0,0,8.86,4.39c14.1,0,28.2,0,42.3,0a18.42,18.42,0,0,1,9.73,2.38c6.26,3.73,9.66,9.19,9.78,16.54.07,3.93,0,7.87,0,11.81a18.8,18.8,0,0,1-18.57,18.76c-20.28.09-40.56,0-60.84,0-1.05,0-1.52-.22-1.49-1.4C494.31,104.1,494.25,101.21,494.25,98.05Z" fill="#f15a29"/><path d="M124,132.53c-3.52,0-6.84,0-10.16,0-.28,0-.68-.46-.79-.79a4.19,4.19,0,0,1,0-1.33V47.9c0-2.18,0-2.18,2.18-2.18h43a19.07,19.07,0,0,1,14,5.64,15.26,15.26,0,0,1,4.6,11.15q.08,14.49,0,29c0,9-7.58,16.57-17,16.79-8.91.22-17.82.07-26.74.08-2.49,0-5,0-7.47,0-1.25,0-1.63.42-1.62,1.65,0,6.87,0,13.74,0,20.62Zm0-55.66c0,6.68,0,13.35,0,20,0,1,.09,1.7,1.41,1.7,10.55,0,21.11.08,31.66,0a8.91,8.91,0,0,0,8.64-8.65q.13-12.91,0-25.84a8.16,8.16,0,0,0-1.14-3.78c-2.05-3.57-5.46-4.77-9.35-4.79-9.81,0-19.62,0-29.43,0-1.37,0-1.79.45-1.78,1.82C124,63.83,124,70.35,124,76.87Z" fill="#f15a29"/><path d="M218.24,82.76c-8.22,0-16.44,0-24.66,0-1.48,0-2,.4-2,1.94.11,2.83,0,5.67,0,8.51,0,3.63,2,5.72,5.73,5.74,6.38,0,12.75,0,19.13,0,6.92,0,13.85,0,20.77,0,1.25,0,1.65.37,1.6,1.61-.08,2.19,0,4.38,0,6.57,0,1-.36,1.29-1.32,1.28-14.34,0-28.69,0-43-.07-6.33,0-11.91-4.21-13.34-9.64a15.05,15.05,0,0,1-.45-3.84c0-10.56,0-21.12,0-31.68A17.16,17.16,0,0,1,196.36,46c2.63-.23,5.28-.23,7.91-.22,8.17,0,16.35-.13,24.5.25a17.12,17.12,0,0,1,15.49,13.22,16.82,16.82,0,0,1,.27,3.41c0,6.07,0,12.15.05,18.23,0,1.57-.54,1.91-2,1.9C234.48,82.73,226.36,82.76,218.24,82.76Zm-5.67-9.82c6.42,0,12.85,0,19.27,0,1.28,0,1.79-.31,1.72-1.66-.1-2.09,0-4.18,0-6.27a9,9,0,0,0-8.7-9.26q-12.17-.27-24.35,0A9.15,9.15,0,0,0,191.66,65c0,2.14.05,4.29,0,6.43,0,1.27.46,1.59,1.66,1.58C199.72,72.91,206.14,72.94,212.57,72.94Z" fill="#f15a29"/><path d="M313.26,83.75c0,7.62,0,15.25,0,22.87,0,1.34-.33,1.83-1.74,1.77-2.54-.11-5.08-.1-7.62,0-1.34,0-1.68-.39-1.67-1.69,0-13.6,0-27.2,0-40.8,0-6-3.16-10-9.15-10.2-8.25-.33-16.53-.3-24.79,0-5.58.23-8.78,4.13-8.8,9.73,0,11.46,0,22.92,0,34.38,0,2.34,0,4.68,0,7,0,1-.25,1.54-1.42,1.51-2.79-.07-5.58-.06-8.37,0-1,0-1.26-.37-1.25-1.32,0-15,0-30,.05-45,.05-7.87,6.55-14.84,14.68-16a23,23,0,0,1,3.41-.3c9.57,0,19.13-.06,28.7,0a18.21,18.21,0,0,1,15.47,8.17,12.85,12.85,0,0,1,2.4,7.42c0,7.47,0,15,0,22.42Z" fill="#f15a29"/><path d="M518.59,117.34a5.75,5.75,0,0,1-1.15.91c-.1,0-.49-.5-.75-.78l1.38-.81Z" fill="#f15a29"/><path d="M249.15,116.46c.32.59.66.92.62,1.2a1,1,0,0,1-.74.59,1.15,1.15,0,0,1-.78-.73C248.21,117.29,248.68,117,249.15,116.46Z" fill="#f15a29"/><path d="M205.47,118.68l-.95-1.09c.28-.25.54-.63.86-.69s.74.35.74.56S205.81,118.09,205.47,118.68Z" fill="#f15a29"/><path d="M63.84,108.29H39.13a18.8,18.8,0,0,1-19-15.65A19.78,19.78,0,0,1,19.8,89q0-23.15,0-46.31A18.72,18.72,0,0,1,38.57,23.55c13-.11,26.07-.13,39.1-.14,4.24,0,8.47,0,12.71.2A18.37,18.37,0,0,1,107.43,38.4a41.36,41.36,0,0,1,.49,7.39c0,14.51.09,29,0,43.55a18.88,18.88,0,0,1-19,19C80.56,108.24,72.2,108.29,63.84,108.29Zm-.05-10c7.56,0,15.12,0,22.68,0a9.82,9.82,0,0,0,9.69-7.46,21,21,0,0,0,.54-4.61c.14-5.16.19-10.32.26-15.47q.18-13.5.32-27a9.47,9.47,0,0,0-7.51-9.68,33.81,33.81,0,0,0-7.12-.63q-18.78-.07-37.56,0a39.52,39.52,0,0,0-6.44.42,9.74,9.74,0,0,0-8.21,9.87c0,4.12.15,8.23.21,12.35.09,6.11.16,12.23.25,18.35C31,79,31,83.61,31.15,88.2c.25,6.08,4.5,10.07,10.56,10.07Q52.75,98.29,63.79,98.27Z" fill="#f15a29"/></svg>