<svg id="Layer_1" data-name="Layer 1" xmlns="http://www.w3.org/2000/svg" viewBox="0 0 231 68"><defs><style>.cls-1{fill:#fff;}</style></defs><title>oe logo white</title><path class="cls-1" d="M186.31,30.43c.4.1.81.18,1.2.31a5.05,5.05,0,0,1,3.57,4.95c0,2,0,4,0,6,.11,3.69-1.9,5.5-5.44,6.14a11.7,11.7,0,0,1-2.06.14H159.37c-.77,0-.77,0-.77-.79q0-15.59,0-31.19c0-.77,0-.77.74-.77h23.53a9.94,9.94,0,0,1,4.26.81,4.94,4.94,0,0,1,3.12,4.52,53.26,53.26,0,0,1-.09,6.38c-.18,2-1,2.82-3.29,3.29-.18,0-.36.05-.55.08ZM173.4,44c3,0,6,0,9,0a9,9,0,0,0,2.42-.38,2.14,2.14,0,0,0,1.6-2.1c.05-1.93.08-3.87,0-5.81a2.43,2.43,0,0,0-2.16-2.52,7.11,7.11,0,0,0-1.59-.2c-6.35,0-12.69,0-19,0-.55,0-.67.18-.67.69q0,4.83,0,9.66c0,.58.2.69.73.69C167,44,170.17,44,173.4,44Zm-.3-14.93V29c3.14,0,6.29,0,9.43,0,2,0,3.19-1.14,3.21-2.93,0-1.28,0-2.57,0-3.85a2.68,2.68,0,0,0-2.07-2.76,6.72,6.72,0,0,0-1.86-.29c-6,0-12.08,0-18.12,0-.54,0-.68.18-.68.69,0,2.82,0,5.64,0,8.45,0,.76,0,.77.76.77Z"/><path class="cls-1" d="M152.28,29v4H130c0,.29,0,.5,0,.7,0,2,.06,3.92,0,5.87A4,4,0,0,0,134.26,44c7.14,0,14.27,0,21.41,0,1.31,0,1.12-.17,1.14,1.12,0,.79,0,1.57,0,2.36,0,.4-.13.53-.53.53-1.59,0-3.18,0-4.78,0-6.12,0-12.24-.09-18.36,0a7.48,7.48,0,0,1-7.55-6.35,9.22,9.22,0,0,1-.06-1q0-9,0-18a7.27,7.27,0,0,1,7.36-7.38c7.75,0,15.5,0,23.25,0,.55,0,.69.17.67.69,0,.92,0,1.84,0,2.76,0,.49-.17.61-.63.61-3.3,0-6.6,0-9.9,0H134A3.78,3.78,0,0,0,130,22.34a4.79,4.79,0,0,0-.08,1c0,1.65,0,3.3,0,4.95,0,.55.15.71.71.71q10.42,0,20.84,0Z"/><path class="cls-1" d="M205.86,48c-4,0-7.91,0-11.86,0-.53,0-.7-.14-.67-.68,0-.88,0-1.77,0-2.65,0-.53.14-.67.67-.67q11,0,21.93,0a4.81,4.81,0,0,0,1.58-.24A3.58,3.58,0,0,0,220,40.49a27.53,27.53,0,0,0,0-3.85,3.74,3.74,0,0,0-3.86-3.56c-5.51,0-11,0-16.52,0a7.21,7.21,0,0,1-6.74-4.12,5.78,5.78,0,0,1-.65-2.36,31.46,31.46,0,0,1,.08-5.51,7,7,0,0,1,6.93-5.86c7.46-.05,14.93,0,22.39,0,.45,0,.55.18.54.58,0,.9,0,1.8,0,2.7,0,.51-.13.69-.67.69-4.22,0-8.44,0-12.66,0h-8.17a3.88,3.88,0,0,0-4.11,4.1,15.94,15.94,0,0,0,.06,2.41,3.82,3.82,0,0,0,4,3.2c4.53,0,9.06,0,13.58,0a34.16,34.16,0,0,1,4.31.14,7,7,0,0,1,5.8,5.9,36.25,36.25,0,0,1,0,6.88,7,7,0,0,1-7.08,6.13C213.46,48,209.66,48,205.86,48Z"/><path class="cls-1" d="M15.76,15.42c.85-.07,1.58-.19,2.32-.19,6.27,0,12.55,0,18.82,0a7.42,7.42,0,0,1,7.32,5.29,7.82,7.82,0,0,1,.29,2q0,9,0,18.07A7.29,7.29,0,0,1,37.23,48q-9.75,0-19.51,0a7.18,7.18,0,0,1-7.23-7.24q0-9.12,0-18.24a24,24,0,0,1,.34-2.75c.29.24.42.33.53.45,1,1,2,2,3,3a1.49,1.49,0,0,1,.48,1.21q0,7.6,0,15.19c0,.42,0,.84,0,1.26,0,2,1.45,2.85,3.2,3.13a8.85,8.85,0,0,0,1.38.08c5.37,0,10.74,0,16.11,0a8,8,0,0,0,2.26-.34,3.52,3.52,0,0,0,2.49-3.44c0-4.62-.12-9.24-.19-13.87,0-1.07,0-2.15-.05-3.22a3.92,3.92,0,0,0-4-4q-8,0-16.06,0a1.27,1.27,0,0,1-1-.42c-1-1-2-2-2.93-2.93C16,15.73,15.93,15.64,15.76,15.42Z"/><path class="cls-1" d="M50.76,57.26c-1.36,0-2.62,0-3.88,0-.12,0-.28-.19-.34-.33a1.17,1.17,0,0,1,0-.45q0-15.91,0-31.82c0-.81,0-.81.81-.81H64A7.31,7.31,0,0,1,69.35,26a6,6,0,0,1,1.76,4.41c0,3.57-.07,7.14,0,10.7a6.71,6.71,0,0,1-6.54,6.79c-3,.06-5.91,0-8.86,0-1.44,0-2.88,0-4.31,0-.5,0-.66.16-.66.66,0,2.65,0,5.29,0,7.94C50.76,56.75,50.76,57,50.76,57.26Zm0-21.36c0,2.55,0,5.1,0,7.65,0,.41.06.64.56.64,4,0,8.09,0,12.14,0a3.44,3.44,0,0,0,3.37-3.35q.05-5,0-10a3.13,3.13,0,0,0-.45-1.45,3.88,3.88,0,0,0-3.66-1.84c-3.74,0-7.48,0-11.22,0-.54,0-.74.15-.73.71C50.78,30.84,50.76,33.37,50.76,35.9Z"/><path class="cls-1" d="M87,38.1H77.77c-1,0-1,0-1,1s0,2,0,2.93a2.05,2.05,0,0,0,2.34,2.31h9.9c1.78,0,3.57,0,5.35,0,.44,0,.62.11.6.58,0,.8,0,1.61,0,2.42,0,.49-.13.66-.64.66-3.24,0-6.48,0-9.73,0H78.25a5.91,5.91,0,0,1-4.31-1.74A4.39,4.39,0,0,1,72.61,43c0-4.22,0-8.44,0-12.66a6.59,6.59,0,0,1,6-6.35c.91-.09,1.84-.09,2.76-.09H90a7.25,7.25,0,0,1,5.61,2.34,5.34,5.34,0,0,1,1.57,3.6c0,2.59,0,5.18,0,7.77,0,.52-.28.54-.66.54Zm-2.11-3.78c2.45,0,4.91,0,7.36,0,.61,0,.76-.19.73-.75,0-.76,0-1.53,0-2.3A3.48,3.48,0,0,0,89.6,27.7q-4.69-.11-9.38,0a3.52,3.52,0,0,0-3.4,3.53c0,.82,0,1.65,0,2.47,0,.48.17.62.64.61C79.92,34.3,82.39,34.31,84.87,34.31Z"/><path class="cls-1" d="M98.72,47.95v-.79c0-5.47.09-10.94,0-16.4a6.78,6.78,0,0,1,6.73-6.91c3.86,0,7.71,0,11.57,0a6.79,6.79,0,0,1,6.44,4.76,6.52,6.52,0,0,1,.21,1.7c0,5.66,0,11.32,0,17,0,.53-.15.7-.68.68-1,0-2,0-2.93,0-.53,0-.64-.17-.64-.66q0-7.83,0-15.65c0-2.39-1.22-3.89-3.59-4-3.16-.12-6.33-.11-9.49,0A3.42,3.42,0,0,0,103,31.45c0,4.74,0,9.48,0,14.22,0,.61,0,1.23,0,1.84,0,.15-.19.42-.3.43C101.36,48,100.08,47.95,98.72,47.95Z"/><path class="cls-1" d="M18.79,25.85,8.24,15.28,6.66,17.1,6.5,17V10.74h6.4l-2,2c.71.64,1.4,1.22,2,1.85q4.07,4,8.1,8.09c.34.34.55.36.87,0s.91-1,1.47-1.56c0,.28.07.4.07.52,0,1.82,0,3.64,0,5.47,0,.41-.09.58-.54.57-1.71,0-3.41,0-5.12,0a1.67,1.67,0,0,1-.49-.17,1.87,1.87,0,0,1,.24-.42C18,26.66,18.39,26.25,18.79,25.85Z"/><path class="cls-1" d="M16.86,37.41c0-.92,0-1.84,0-2.76a1.93,1.93,0,0,1,2-2q2.79,0,5.58,0a1.9,1.9,0,0,1,1.95,1.92q0,2.82,0,5.63a1.89,1.89,0,0,1-1.93,1.94c-1.88,0-3.76,0-5.63,0a1.92,1.92,0,0,1-1.93-2C16.85,39.25,16.86,38.33,16.86,37.41Z"/><path class="cls-1" d="M38.1,25.76c0,.9,0,1.8,0,2.7a1.94,1.94,0,0,1-2,2q-2.76,0-5.52,0a1.92,1.92,0,0,1-2-2q0-2.76,0-5.52a1.93,1.93,0,0,1,2-2q2.73,0,5.46,0a2,2,0,0,1,2,2s0,.08,0,.11Q38.1,24.44,38.1,25.76Z"/><path class="cls-1" d="M28.59,37.42c0-.92,0-1.84,0-2.76a1.91,1.91,0,0,1,1.95-2q2.79,0,5.58,0a1.94,1.94,0,0,1,2,2q0,2.73,0,5.46a2,2,0,0,1-2,2q-2.76,0-5.52,0a1.93,1.93,0,0,1-2-2.06C28.59,39.22,28.59,38.32,28.59,37.42Z"/></svg>