<svg id="Layer_1" data-name="Layer 1" xmlns="http://www.w3.org/2000/svg" xmlns:xlink="http://www.w3.org/1999/xlink" viewBox="0 0 162 162"><defs><style>.cls-1{fill:url(#linear-gradient);}.cls-2{fill:url(#linear-gradient-2);}.cls-3{fill:url(#linear-gradient-3);}.cls-4{fill:url(#linear-gradient-4);}.cls-5{fill:url(#linear-gradient-5);}.cls-6{fill:url(#linear-gradient-6);}.cls-7{fill:url(#linear-gradient-7);}.cls-8{fill:url(#linear-gradient-8);}.cls-9{fill:url(#linear-gradient-9);}.cls-10{fill:url(#linear-gradient-10);}.cls-11{fill:url(#linear-gradient-11);}.cls-12{fill:url(#linear-gradient-12);}.cls-13{fill:url(#linear-gradient-13);}.cls-14{fill:url(#linear-gradient-14);}.cls-15{fill:url(#linear-gradient-15);}.cls-16{fill:url(#linear-gradient-16);}</style><linearGradient id="linear-gradient" x1="91.81" y1="70.37" x2="127.62" y2="70.37" gradientUnits="userSpaceOnUse"><stop offset="0" stop-color="#f1712e"/><stop offset="0.08" stop-color="#ef642c"/><stop offset="0.19" stop-color="#ed5c2a"/><stop offset="0.37" stop-color="#ed592a"/><stop offset="0.51" stop-color="#e55328"/><stop offset="0.73" stop-color="#ce4422"/><stop offset="1" stop-color="#a92c19"/></linearGradient><linearGradient id="linear-gradient-2" x1="91.79" y1="79.99" x2="127.51" y2="79.99" xlink:href="#linear-gradient"/><linearGradient id="linear-gradient-3" x1="91.8" y1="60.75" x2="127.59" y2="60.75" xlink:href="#linear-gradient"/><linearGradient id="linear-gradient-4" x1="91.83" y1="52.1" x2="127.6" y2="52.1" xlink:href="#linear-gradient"/><linearGradient id="linear-gradient-5" x1="91.81" y1="115.58" x2="127.62" y2="115.58" xlink:href="#linear-gradient"/><linearGradient id="linear-gradient-6" x1="91.79" y1="125.2" x2="127.51" y2="125.2" xlink:href="#linear-gradient"/><linearGradient id="linear-gradient-7" x1="91.8" y1="105.96" x2="127.59" y2="105.96" xlink:href="#linear-gradient"/><linearGradient id="linear-gradient-8" x1="91.83" y1="97.3" x2="127.6" y2="97.3" xlink:href="#linear-gradient"/><linearGradient id="linear-gradient-9" x1="46.91" y1="115.58" x2="82.71" y2="115.58" xlink:href="#linear-gradient"/><linearGradient id="linear-gradient-10" x1="46.89" y1="125.2" x2="82.61" y2="125.2" xlink:href="#linear-gradient"/><linearGradient id="linear-gradient-11" x1="46.9" y1="105.96" x2="82.69" y2="105.96" xlink:href="#linear-gradient"/><linearGradient id="linear-gradient-12" x1="46.93" y1="97.3" x2="82.7" y2="97.3" xlink:href="#linear-gradient"/><linearGradient id="linear-gradient-13" x1="153.08" y1="86.84" x2="18.94" y2="86.84" gradientUnits="userSpaceOnUse"><stop offset="0.55" stop-color="#a92c19"/><stop offset="0.79" stop-color="#a92c19"/></linearGradient><linearGradient id="linear-gradient-14" x1="152.19" y1="84" x2="15.66" y2="84" gradientTransform="translate(3.46 1.18) rotate(0.12)" gradientUnits="userSpaceOnUse"><stop offset="0" stop-color="#f1712e"/><stop offset="0.17" stop-color="#ef632c"/><stop offset="0.33" stop-color="#ed592a"/><stop offset="0.42" stop-color="#ed592a"/><stop offset="1" stop-color="#ed592a"/></linearGradient><linearGradient id="linear-gradient-15" x1="879.69" y1="712.14" x2="913.27" y2="712.14" gradientTransform="matrix(0.73, -0.73, 0.72, 0.72, -1127.43, 186.34)" xlink:href="#linear-gradient-13"/><linearGradient id="linear-gradient-16" x1="931.88" y1="701.42" x2="965.45" y2="701.42" gradientTransform="translate(-1126.88 217.83) rotate(-45)" gradientUnits="userSpaceOnUse"><stop offset="0" stop-color="#f1712e"/><stop offset="0.09" stop-color="#ef642c"/><stop offset="0.21" stop-color="#ed5c2a"/><stop offset="0.39" stop-color="#ed592a"/><stop offset="0.52" stop-color="#e75528"/><stop offset="0.7" stop-color="#d64a24"/><stop offset="0.9" stop-color="#b9371d"/><stop offset="1" stop-color="#a92c19"/></linearGradient></defs><title>logo open</title><path class="cls-1" d="M91.88,64.14a45.26,45.26,0,0,0,35.66,0,46.63,46.63,0,0,1-.11,7,4,4,0,0,1-2.33,2.67,51.66,51.66,0,0,1-10.14,2.49,47.67,47.67,0,0,1-17.26-1.11A22.67,22.67,0,0,1,94.58,74c-1.91-.81-3-2.07-2.74-4.3A53.2,53.2,0,0,0,91.88,64.14Z"/><path class="cls-2" d="M91.88,73.75a45.09,45.09,0,0,0,35.6,0c0,2.44.13,5-.08,7.55-.06.67-1,1.56-1.79,1.84a43.35,43.35,0,0,1-8,2.41,50.44,50.44,0,0,1-19.6-.7,22.48,22.48,0,0,1-3.13-1.07c-2.13-.85-3.37-2.19-3.07-4.68A45.12,45.12,0,0,0,91.88,73.75Z"/><path class="cls-3" d="M91.88,54.55a45.61,45.61,0,0,0,35.63,0,47.81,47.81,0,0,1-.13,7.36c-.15,1-1.57,2.12-2.66,2.47a46.4,46.4,0,0,1-9.41,2.25,48.41,48.41,0,0,1-17.26-1,32.46,32.46,0,0,1-3.13-1.05c-2.16-.82-3.36-2.19-3.08-4.66A48.18,48.18,0,0,0,91.88,54.55Z"/><path class="cls-4" d="M108.44,57.55c-3.18-.54-7.53-1.2-11.84-2A9.34,9.34,0,0,1,93.29,54c-1.94-1.32-2-3.07.12-4a35.5,35.5,0,0,1,8.64-2.71A48.31,48.31,0,0,1,121,48a19.53,19.53,0,0,1,4.85,1.93c2.23,1.24,2.32,3.07,0,4.2a31.71,31.71,0,0,1-7.69,2.52C115.45,57.16,112.55,57.18,108.44,57.55Z"/><path class="cls-5" d="M91.88,109.35a45.26,45.26,0,0,0,35.66,0,46.63,46.63,0,0,1-.11,7,4,4,0,0,1-2.33,2.67,51.66,51.66,0,0,1-10.14,2.49,47.67,47.67,0,0,1-17.26-1.11,22.67,22.67,0,0,1-3.1-1.13c-1.91-.81-3-2.07-2.74-4.3A53.2,53.2,0,0,0,91.88,109.35Z"/><path class="cls-6" d="M91.88,119a45.09,45.09,0,0,0,35.6,0c0,2.44.13,5-.08,7.55-.06.67-1,1.56-1.79,1.84a43.35,43.35,0,0,1-8,2.41,50.44,50.44,0,0,1-19.6-.7A22.48,22.48,0,0,1,94.91,129c-2.13-.85-3.37-2.19-3.07-4.68A45.12,45.12,0,0,0,91.88,119Z"/><path class="cls-7" d="M91.88,99.75a45.61,45.61,0,0,0,35.63,0,47.81,47.81,0,0,1-.13,7.36c-.15,1-1.57,2.12-2.66,2.47a46.4,46.4,0,0,1-9.41,2.25,48.41,48.41,0,0,1-17.26-1,32.46,32.46,0,0,1-3.13-1.05c-2.16-.82-3.36-2.19-3.08-4.66A48.18,48.18,0,0,0,91.88,99.75Z"/><path class="cls-8" d="M108.44,102.76c-3.18-.54-7.53-1.2-11.84-2a9.34,9.34,0,0,1-3.32-1.53c-1.94-1.32-2-3.07.12-4a35.5,35.5,0,0,1,8.64-2.71,48.31,48.31,0,0,1,19,.68,19.53,19.53,0,0,1,4.85,1.93c2.23,1.24,2.32,3.07,0,4.2a31.71,31.71,0,0,1-7.69,2.52C115.45,102.36,112.55,102.39,108.44,102.76Z"/><path class="cls-9" d="M47,109.35a45.26,45.26,0,0,0,35.66,0,46.63,46.63,0,0,1-.11,7A4,4,0,0,1,80.19,119,51.66,51.66,0,0,1,70,121.49a47.67,47.67,0,0,1-17.26-1.11,22.67,22.67,0,0,1-3.1-1.13c-1.91-.81-3-2.07-2.74-4.3A53.2,53.2,0,0,0,47,109.35Z"/><path class="cls-10" d="M47,119a45.09,45.09,0,0,0,35.6,0c0,2.44.13,5-.08,7.55-.06.67-1,1.56-1.79,1.84a43.35,43.35,0,0,1-8,2.41,50.44,50.44,0,0,1-19.6-.7A22.48,22.48,0,0,1,50,129c-2.13-.85-3.37-2.19-3.07-4.68A45.12,45.12,0,0,0,47,119Z"/><path class="cls-11" d="M47,99.75a45.61,45.61,0,0,0,35.63,0,47.81,47.81,0,0,1-.13,7.36c-.15,1-1.57,2.12-2.66,2.47a46.4,46.4,0,0,1-9.41,2.25,48.41,48.41,0,0,1-17.26-1A32.46,32.46,0,0,1,50,109.76c-2.16-.82-3.36-2.19-3.08-4.66A48.18,48.18,0,0,0,47,99.75Z"/><path class="cls-12" d="M63.54,102.76c-3.18-.54-7.53-1.2-11.84-2a9.34,9.34,0,0,1-3.32-1.53c-1.94-1.32-2-3.07.12-4a35.5,35.5,0,0,1,8.64-2.71,48.31,48.31,0,0,1,19,.68A19.53,19.53,0,0,1,81,95.09c2.23,1.24,2.32,3.07,0,4.2a31.71,31.71,0,0,1-7.69,2.52C70.55,102.36,67.65,102.39,63.54,102.76Z"/><path class="cls-13" d="M153.08,63V57.46c0-1,0-2-.11-3v-.94A30.39,30.39,0,0,0,130.45,24a26.21,26.21,0,0,0-7.27-1l-77.5-3.12L44.45,22.1c3.72,10.71,13,17.72,23,17.72H116.3c14.27,0,19.1,6.32,19.68,23.2L136.3,118v1c0,14.21-6.94,19-20.7,19h-.24v.07L56,138.1H55c-13.71,0-18.53-6.26-18.7-19.25,0-24.94.09-50.4.09-50.4,0-10.19-6.9-19.35-17.43-23.14h0v78.25a30.17,30.17,0,0,0,16.08,27,28.7,28.7,0,0,0,13.4,3.3h74.81a30.16,30.16,0,0,0,24-11.27,25.9,25.9,0,0,0,5-10.32,28.4,28.4,0,0,0,.82-6.82h0l-.09.2V63Z"/><path class="cls-14" d="M155.53,60.13V54.57c0-1,0-2-.11-3v-.94a30.48,30.48,0,0,0-22.86-29.58,27.12,27.12,0,0,0-7.4-1l-79.86-.17h0c3.76,10.72,12.91,17.77,23.1,17.79l48.69.1h1c14.52,0,20,7.68,20,22.33l.21,54.93v1c0,14.21-7.1,19-21.11,19H117v.07L56.52,135h-1c-14,0-18.85-6.3-19-19.29.09-24.94.2-50.4.2-50.4,0-10.19-7-19.37-17.69-23.18h0l-.16,78.25a30.1,30.1,0,0,0,16.31,27,29.63,29.63,0,0,0,13.64,3.33h3.94l64.18.14h8a30.91,30.91,0,0,0,24.42-11.22,25.72,25.72,0,0,0,5.14-10.31,27.93,27.93,0,0,0,.85-6.82h0l-.09.2.13-62.59Z"/><polygon class="cls-15" points="26.49 15.45 32.56 9.38 19.68 8.78 6.79 8.19 7.39 21.07 7.99 33.95 14.05 27.88 55.11 68.94 49.04 75.01 61.92 75.61 74.81 76.2 74.21 63.32 73.62 50.44 67.55 56.51 26.49 15.45"/><polygon class="cls-16" points="25.72 16.81 31.58 10.95 19.02 10.25 6.46 9.56 7.15 22.12 7.84 34.69 13.71 28.82 54.09 69.2 48.22 75.06 60.78 75.76 73.35 76.45 72.65 63.89 71.96 51.32 66.1 57.19 25.72 16.81"/></svg>