<svg id="Layer_1" data-name="Layer 1" xmlns="http://www.w3.org/2000/svg" viewBox="0 0 720 190"><defs><style>.cls-1{fill:#273274;}.cls-2{fill:#fff;}.cls-3,.cls-4{fill:none;stroke:#fff;stroke-miterlimit:10;}.cls-3{stroke-width:4px;}.cls-4{stroke-width:2px;}</style></defs><title>openebs hacktober section</title><rect class="cls-1" width="720" height="190"/><path class="cls-2" d="M211.27,121.19h4.51V107.07a2.49,2.49,0,0,0-.12-.87,1.21,1.21,0,0,0-.35-.51,1.17,1.17,0,0,0-.53-.25,3.47,3.47,0,0,0-.68-.06,6.65,6.65,0,0,0-1.35.17,11.27,11.27,0,0,0-1.7.52,14.19,14.19,0,0,0-1.8.86,8.72,8.72,0,0,0-1.61,1.15,5.77,5.77,0,0,0-1.15,1.44,3.43,3.43,0,0,0-.45,1.71,3.14,3.14,0,0,0,.21,1.26,2,2,0,0,0,.48.71,1.27,1.27,0,0,0,.56.3,2.22,2.22,0,0,0,.41.06,2.16,2.16,0,0,0,1-.21,6,6,0,0,0,.72-.45l.61-.45a1.08,1.08,0,0,1,.66-.21,1.68,1.68,0,0,1,.63.14,1.8,1.8,0,0,1,.62.43,2.45,2.45,0,0,1,.48.78,3.09,3.09,0,0,1,.2,1.18,3.59,3.59,0,0,1-.38,1.71,3.82,3.82,0,0,1-1,1.2,4.11,4.11,0,0,1-1.39.72,5.34,5.34,0,0,1-1.55.24,5.4,5.4,0,0,1-2.15-.41,4.74,4.74,0,0,1-1.62-1.13,4.84,4.84,0,0,1-1-1.69,6,6,0,0,1-.35-2.06,7.77,7.77,0,0,1,.62-3.14,8.85,8.85,0,0,1,1.7-2.57,11.49,11.49,0,0,1,2.53-2,16.64,16.64,0,0,1,3.14-1.43,21.12,21.12,0,0,1,3.52-.86,23.9,23.9,0,0,1,3.67-.29,10.22,10.22,0,0,1,3.16.38,4.2,4.2,0,0,1,1.66.93,2.15,2.15,0,0,1,.63,1.14,6.33,6.33,0,0,1,.1,1v14.63H233V109.26a20.12,20.12,0,0,1,1.07-7,14,14,0,0,1,2.75-4.7,10.35,10.35,0,0,1,3.77-2.65,11.12,11.12,0,0,1,4.14-.83,16.56,16.56,0,0,1,2.69.21,9.29,9.29,0,0,1,2.23.63A4.43,4.43,0,0,1,251.23,96a2.14,2.14,0,0,1,.57,1.48,2.22,2.22,0,0,1-.42,1.31,1.61,1.61,0,0,1-.46.43,1,1,0,0,1-.53.16,1.25,1.25,0,0,1-.79-.27,3.65,3.65,0,0,1-.66-.68q-.31-.41-.61-.89a6,6,0,0,0-.67-.89,3.51,3.51,0,0,0-.84-.68,2.19,2.19,0,0,0-1.12-.27,3.39,3.39,0,0,0-2.41.83A5.28,5.28,0,0,0,241.93,99a18,18,0,0,0-.61,4q-.14,2.38-.14,5.46v12.8h5v2.18h-5v15.08a1.94,1.94,0,0,0,.31,1.15,1.09,1.09,0,0,0,1,.43,3.31,3.31,0,0,0,1.29-.25q.6-.25,1-.47l.42.92q-.55.37-1.28.78a14.68,14.68,0,0,1-1.61.77,12.63,12.63,0,0,1-1.88.6,9.16,9.16,0,0,1-2.1.24,7,7,0,0,1-2.73-.45A4,4,0,0,1,234,141a3.89,3.89,0,0,1-.76-1.65,9.33,9.33,0,0,1-.19-1.86V123.37h-9.13v12.35a13.2,13.2,0,0,1-1.23,5.88,11.88,11.88,0,0,1-3.36,4.18,14.55,14.55,0,0,1-5,2.5,22.31,22.31,0,0,1-6.19.83,13.67,13.67,0,0,1-2.43-.21,10,10,0,0,1-2.06-.58,4.63,4.63,0,0,1-1.43-.88,1.51,1.51,0,0,1-.53-1.1,3.45,3.45,0,0,1,.12-.91,2.82,2.82,0,0,1,.37-.83,2.28,2.28,0,0,1,.61-.62,1.39,1.39,0,0,1,.81-.25.61.61,0,0,1,.48.27,5.22,5.22,0,0,1,.43.68q.22.41.51.88a3.87,3.87,0,0,0,.74.88,4,4,0,0,0,1.1.68,4.14,4.14,0,0,0,1.61.27,7.22,7.22,0,0,0,3.29-.69,6.11,6.11,0,0,0,2.27-2,8.88,8.88,0,0,0,1.33-3,15.9,15.9,0,0,0,.43-3.83V123.37h-4.51Z"/><path class="cls-2" d="M257.55,116.47a5.87,5.87,0,0,0-1.56.2,5.39,5.39,0,0,0-1.24.5,2.94,2.94,0,0,0-.82.66,1.1,1.1,0,0,0-.3.68.55.55,0,0,0,.38.53l.86.37a2.87,2.87,0,0,1,.86.6,1.61,1.61,0,0,1,.38,1.18,2.17,2.17,0,0,1-.21,1,2.58,2.58,0,0,1-1.41,1.29,2.77,2.77,0,0,1-1,.19,2.89,2.89,0,0,1-2.25-.94,3.58,3.58,0,0,1-.86-2.5,4.25,4.25,0,0,1,.79-2.59,6.2,6.2,0,0,1,2.07-1.77,10.47,10.47,0,0,1,2.89-1,16.05,16.05,0,0,1,6.92.09,9.38,9.38,0,0,1,3.11,1.34,6.94,6.94,0,0,1,2.16,2.33,6.81,6.81,0,0,1,.81,3.42v14c0,.15,0,.31,0,.5a1.53,1.53,0,0,0,.12.5.93.93,0,0,0,.3.37.94.94,0,0,0,.57.15,1.24,1.24,0,0,0,.83-.33,6.6,6.6,0,0,0,.68-.68l.62.52q-.37.52-.89,1.14a7.14,7.14,0,0,1-3,2.08,6.39,6.39,0,0,1-2.26.37,4.45,4.45,0,0,1-2.78-.93,4.51,4.51,0,0,1-1.59-2.86,10.54,10.54,0,0,1-1.65,1.79,9,9,0,0,1-1.75,1.17,7.73,7.73,0,0,1-1.8.64,8.48,8.48,0,0,1-1.82.2,7.25,7.25,0,0,1-2.31-.37,5.49,5.49,0,0,1-2-1.18,5.78,5.78,0,0,1-1.41-2.1,8.25,8.25,0,0,1-.53-3.15,6.92,6.92,0,0,1,.89-3.7,8,8,0,0,1,2.34-2.42A15.82,15.82,0,0,1,255,126q1.85-.69,3.78-1.46a4,4,0,0,0,2.1-1.7,4.56,4.56,0,0,0,.66-2.32,4,4,0,0,0-1.08-2.94A3.92,3.92,0,0,0,257.55,116.47Zm3.94,10.86a1.14,1.14,0,0,0-.4-.94,1.56,1.56,0,0,0-1-.32,3.59,3.59,0,0,0-1.65.4,4.08,4.08,0,0,0-1.38,1.17,5.88,5.88,0,0,0-.94,1.9,8.89,8.89,0,0,0-.35,2.62,11.17,11.17,0,0,0,.21,2.38,4.66,4.66,0,0,0,.57,1.5,2.06,2.06,0,0,0,.83.78,2.29,2.29,0,0,0,1,.22,2.36,2.36,0,0,0,1.21-.33,3.64,3.64,0,0,0,1-.86,4.29,4.29,0,0,0,.67-1.17,3.57,3.57,0,0,0,.25-1.29Z"/><path class="cls-2" d="M291.38,123a3.12,3.12,0,0,1-1.29-.24,2.26,2.26,0,0,1-.84-.63,2.6,2.6,0,0,1-.47-.88,3.38,3.38,0,0,1-.15-1,9.34,9.34,0,0,1,.09-1.29,4.26,4.26,0,0,0,0-1.12,1.25,1.25,0,0,0-.38-.79,1.69,1.69,0,0,0-1.14-.3,4,4,0,0,0-1.83.5,5.17,5.17,0,0,0-1.76,1.56,9.08,9.08,0,0,0-1.31,2.74,13.65,13.65,0,0,0-.52,4,21.63,21.63,0,0,0,.48,4.75,11.39,11.39,0,0,0,1.45,3.66,7,7,0,0,0,2.41,2.34,7.16,7.16,0,0,0,5,.63,7.3,7.3,0,0,0,1.48-.55,9.46,9.46,0,0,0,1.33-.81q.63-.46,1.23-1l.62.6a17.07,17.07,0,0,1-1.46,1.69,11.93,11.93,0,0,1-2.16,1.72,12.44,12.44,0,0,1-3,1.34,12.74,12.74,0,0,1-3.84.53,11.08,11.08,0,0,1-4.2-.83,10.88,10.88,0,0,1-3.63-2.42,11.89,11.89,0,0,1-2.54-3.86,13.23,13.23,0,0,1-1-5.17,14.4,14.4,0,0,1,.57-4.15,13.67,13.67,0,0,1,1.55-3.43,12.94,12.94,0,0,1,2.28-2.7,14.47,14.47,0,0,1,2.74-1.95,13.26,13.26,0,0,1,2.94-1.18,11.31,11.31,0,0,1,2.89-.4,10.86,10.86,0,0,1,3.2.42,7.21,7.21,0,0,1,2.27,1.12,4.58,4.58,0,0,1,1.35,1.6,4.2,4.2,0,0,1,.45,1.87,5,5,0,0,1-.19,1.38,3.49,3.49,0,0,1-.54,1.14,2.64,2.64,0,0,1-.91.77A2.7,2.7,0,0,1,291.38,123Z"/><path class="cls-2" d="M306.31,121.19q.87-1.17,1.86-2.37a17.06,17.06,0,0,1,2.13-2.17,10.92,10.92,0,0,1,2.48-1.59,6.88,6.88,0,0,1,2.93-.62,4.56,4.56,0,0,1,2.36.56,5.14,5.14,0,0,1,1.53,1.34,5,5,0,0,1,.82,1.62,5.49,5.49,0,0,1,.24,1.44,9.62,9.62,0,0,1-.29,2.27,8.54,8.54,0,0,1-1,2.33,10.36,10.36,0,0,1-1.82,2.23,12.44,12.44,0,0,1-2.88,2,85.51,85.51,0,0,0,4.54,8.49,42.45,42.45,0,0,0,4.25,5.85,16.67,16.67,0,0,0,3.93,3.38A7.2,7.2,0,0,0,331,147a2.46,2.46,0,0,0,.6-.07,4.35,4.35,0,0,0,.55-.17,5.31,5.31,0,0,0,.57-.25l.47.87q-.67.37-1.36.71a9.54,9.54,0,0,1-1.59.58,14.72,14.72,0,0,1-2.06.4,22.33,22.33,0,0,1-2.78.15,12.2,12.2,0,0,1-2.89-.35,9.89,9.89,0,0,1-2.86-1.24,16.17,16.17,0,0,1-2.91-2.38,26.58,26.58,0,0,1-3-3.77,54.2,54.2,0,0,1-3.19-5.43q-1.64-3.15-3.4-7.37a26,26,0,0,0,3.74-3.26,16,16,0,0,0,2.06-2.72,7.08,7.08,0,0,0,.87-2.16A9.16,9.16,0,0,0,314,119c0-.07,0-.18,0-.33a1.1,1.1,0,0,0-.16-.46,1.29,1.29,0,0,0-.4-.4,1.32,1.32,0,0,0-.73-.17,2.93,2.93,0,0,0-1.86.78,11,11,0,0,0-1.8,1.93,18.76,18.76,0,0,0-1.55,2.48q-.69,1.33-1.14,2.42V138a3.21,3.21,0,0,1-.11.77,1.79,1.79,0,0,1-.52.84,3.34,3.34,0,0,1-1.19.68,6.29,6.29,0,0,1-2.1.29,5.5,5.5,0,0,1-2.06-.31,2.87,2.87,0,0,1-1.1-.73,1.9,1.9,0,0,1-.45-.87,4,4,0,0,1-.09-.72V106a2.3,2.3,0,0,0-.33-1.25,1.23,1.23,0,0,0-1.13-.53,1.8,1.8,0,0,0-.73.14,3.13,3.13,0,0,0-.66.41l-.5-.6a14.7,14.7,0,0,1,1.26-.93,9.12,9.12,0,0,1,1.53-.81,11.35,11.35,0,0,1,1.77-.57,8.57,8.57,0,0,1,2-.22,5.85,5.85,0,0,1,2.5.43,3.22,3.22,0,0,1,1.31,1.07,3.07,3.07,0,0,1,.51,1.34,10.47,10.47,0,0,1,.09,1.25Z"/><path class="cls-2" d="M333.64,116.57V134.9a2.6,2.6,0,0,0,.5,1.82,1.82,1.82,0,0,0,1.36.51,2,2,0,0,0,1.19-.37,4.33,4.33,0,0,0,.89-.84,5.27,5.27,0,0,0,.77-1.22l.77.35q-.37.79-.88,1.74a6.88,6.88,0,0,1-3.47,3.1,8.22,8.22,0,0,1-3.21.55,6.83,6.83,0,0,1-2.1-.32,4.92,4.92,0,0,1-1.79-1,5.1,5.1,0,0,1-1.25-1.74,6.06,6.06,0,0,1-.47-2.5V116.57h-2.78v-1.79a7.49,7.49,0,0,0,1.93-.36,9.66,9.66,0,0,0,2.54-1.2,10.11,10.11,0,0,0,2.42-2.26,8.64,8.64,0,0,0,1.59-3.5h2v7.32h4q2,0,2-.67a.33.33,0,0,0-.25-.33l-.56-.22a1.81,1.81,0,0,1-.56-.38,1.12,1.12,0,0,1-.25-.82,1.41,1.41,0,0,1,.43-1.09,1.61,1.61,0,0,1,1.13-.4,1.58,1.58,0,0,1,.78.19,1.69,1.69,0,0,1,.56.5,2.22,2.22,0,0,1,.33.71,2.93,2.93,0,0,1,.11.79,3.52,3.52,0,0,1-.93,2.57,4,4,0,0,1-3,1Z"/><path class="cls-2" d="M340.63,127.48a15.77,15.77,0,0,1,.94-5.69,12,12,0,0,1,2.52-4.08,10.2,10.2,0,0,1,3.66-2.46,11.83,11.83,0,0,1,4.36-.82,12.7,12.7,0,0,1,4.37.76,10,10,0,0,1,3.66,2.32,11.32,11.32,0,0,1,2.52,4,15.45,15.45,0,0,1,.94,5.67,16.28,16.28,0,0,1-.94,5.75,12.79,12.79,0,0,1-2.52,4.22,10.47,10.47,0,0,1-3.66,2.59,11.11,11.11,0,0,1-4.37.88,11.67,11.67,0,0,1-4.36-.83,10.33,10.33,0,0,1-3.66-2.47,12,12,0,0,1-2.52-4.09A15.87,15.87,0,0,1,340.63,127.48Zm15.25-.25q0-2-.14-3.83a17.31,17.31,0,0,0-.53-3.29,5.8,5.8,0,0,0-1.14-2.29,2.47,2.47,0,0,0-2-.86,2.41,2.41,0,0,0-2,.91,6.25,6.25,0,0,0-1.14,2.38,17.41,17.41,0,0,0-.52,3.36q-.12,1.88-.12,3.87t.12,3.88a17.69,17.69,0,0,0,.52,3.39,6.26,6.26,0,0,0,1.14,2.39,2.41,2.41,0,0,0,2,.91,2.37,2.37,0,0,0,2-.94,6.64,6.64,0,0,0,1.14-2.48,19.57,19.57,0,0,0,.53-3.47Q355.88,129.22,355.88,127.24Z"/><path class="cls-2" d="M367.42,106a2.31,2.31,0,0,0-.33-1.25,1.23,1.23,0,0,0-1.13-.53,1.8,1.8,0,0,0-.73.14,3.13,3.13,0,0,0-.66.41l-.5-.6a13.83,13.83,0,0,1,1.28-.93,9.82,9.82,0,0,1,1.53-.81,10.9,10.9,0,0,1,1.76-.57,8.57,8.57,0,0,1,2-.22,5.28,5.28,0,0,1,2.32.43,3.55,3.55,0,0,1,1.34,1.07,3.49,3.49,0,0,1,.61,1.36,6.79,6.79,0,0,1,.15,1.35v11.06l.77-.68a6.88,6.88,0,0,1,1.19-.81,7.84,7.84,0,0,1,1.72-.67,9.11,9.11,0,0,1,2.37-.27,7.54,7.54,0,0,1,3.17.73,8,8,0,0,1,2.85,2.29,12.38,12.38,0,0,1,2.06,4,19.31,19.31,0,0,1,.79,5.9,17.48,17.48,0,0,1-.73,5.11,12.47,12.47,0,0,1-2.17,4.2,10.24,10.24,0,0,1-3.6,2.84,11.39,11.39,0,0,1-5,1,12.15,12.15,0,0,1-5.22-1,9.05,9.05,0,0,1-3.41-2.7,10.69,10.69,0,0,1-1.85-4,19.77,19.77,0,0,1-.56-4.76Zm14.78,21.87a34.62,34.62,0,0,0-.22-4.05,15.79,15.79,0,0,0-.72-3.32A6.38,6.38,0,0,0,380,118.2a2.44,2.44,0,0,0-1.86-.83,2.42,2.42,0,0,0-1.43.41,3.93,3.93,0,0,0-1,.93,4,4,0,0,0-.54,1,2.69,2.69,0,0,0-.17.68v7.42a24.64,24.64,0,0,0,.91,7.86q.91,2.46,2.67,2.46t2.73-2.5A25.72,25.72,0,0,0,382.2,127.83Z"/><path class="cls-2" d="M401.14,128.8a7,7,0,0,0,.24,1.72,10.18,10.18,0,0,0,.68,1.87,9.9,9.9,0,0,0,1.1,1.8,8.55,8.55,0,0,0,1.51,1.53,7.25,7.25,0,0,0,1.9,1.07,6.36,6.36,0,0,0,2.28.4,6.24,6.24,0,0,0,1.61-.2,6.39,6.39,0,0,0,1.39-.55,9,9,0,0,0,1.24-.81q.59-.46,1.19-1l.62.6a17.07,17.07,0,0,1-1.46,1.69,11.93,11.93,0,0,1-2.16,1.72,12.44,12.44,0,0,1-3,1.34,12.74,12.74,0,0,1-3.84.53,11.69,11.69,0,0,1-4.2-.78,10.43,10.43,0,0,1-3.63-2.34,11.47,11.47,0,0,1-2.54-3.89,15.74,15.74,0,0,1-.38-9.6,13.28,13.28,0,0,1,1.55-3.4,12.65,12.65,0,0,1,2.28-2.65,14.17,14.17,0,0,1,2.74-1.9,13.53,13.53,0,0,1,2.94-1.14,11.65,11.65,0,0,1,2.89-.38,11.52,11.52,0,0,1,3.2.4,7.16,7.16,0,0,1,2.27,1.07,4.44,4.44,0,0,1,1.35,1.55,4,4,0,0,1,.45,1.85,3.5,3.5,0,0,1-.67,2.1,6.2,6.2,0,0,1-1.79,1.62Zm5-5a3.87,3.87,0,0,0,.53-.38,1.38,1.38,0,0,0,.33-.45,2.41,2.41,0,0,0,.19-.65,6.17,6.17,0,0,0,.06-1,7.83,7.83,0,0,0-.14-1.38,5.54,5.54,0,0,0-.46-1.43,3.54,3.54,0,0,0-.82-1.12,1.72,1.72,0,0,0-1.19-.45,2.29,2.29,0,0,0-1.53.53,4.13,4.13,0,0,0-1,1.38,8.57,8.57,0,0,0-.65,1.92,21.66,21.66,0,0,0-.36,2.17q-.12,1.09-.15,2.1t0,1.7Z"/><path class="cls-2" d="M426.17,119.67a20.38,20.38,0,0,1,2-2.6,13.18,13.18,0,0,1,1-1,9.35,9.35,0,0,1,1.08-.84,5.65,5.65,0,0,1,1.15-.6,3.37,3.37,0,0,1,1.19-.22,2.61,2.61,0,0,1,2,.76,3,3,0,0,1,.72,2.12,9.45,9.45,0,0,1-.14,1.62,12,12,0,0,1-.53,1.9h-.69a2.3,2.3,0,0,0-.69-1.28,2.25,2.25,0,0,0-1.59-.51,4.2,4.2,0,0,0-1.51.29,9.46,9.46,0,0,0-1.45.71,12.78,12.78,0,0,0-1.34.92q-.63.5-1.15.94V138a3.67,3.67,0,0,1-.1.77,1.77,1.77,0,0,1-.48.84,3.09,3.09,0,0,1-1.14.68,6.07,6.07,0,0,1-2.07.29,5.6,5.6,0,0,1-2.07-.31,3.24,3.24,0,0,1-1.15-.73,1.86,1.86,0,0,1-.5-.87,3.47,3.47,0,0,1-.1-.72V118.8a2.3,2.3,0,0,0-.33-1.25,1.23,1.23,0,0,0-1.13-.53,1.6,1.6,0,0,0-.72.15,3.85,3.85,0,0,0-.64.42l-.52-.62a13.79,13.79,0,0,1,1.28-.93,9.94,9.94,0,0,1,1.52-.81,11,11,0,0,1,1.76-.57,8.6,8.6,0,0,1,2-.22,5.19,5.19,0,0,1,1.82.29,3.66,3.66,0,0,1,1.24.74,3.49,3.49,0,0,1,.76,1,5.66,5.66,0,0,1,.41,1.15,6.17,6.17,0,0,1,.16,1.12Q426.17,119.3,426.17,119.67Z"/><path class="cls-2" d="M450.64,103.3a3,3,0,0,0-1.31.3,2.8,2.8,0,0,0-1.08,1,5.3,5.3,0,0,0-.73,1.67,9.55,9.55,0,0,0-.27,2.46v6.1h5.43v1.79h-5.43v19.54a21,21,0,0,1-.88,6.23,13.58,13.58,0,0,1-2.67,4.92,12.25,12.25,0,0,1-4.46,3.24,15.55,15.55,0,0,1-6.25,1.17,13.63,13.63,0,0,1-2.43-.21,10,10,0,0,1-2.06-.58,4.64,4.64,0,0,1-1.43-.88,1.53,1.53,0,0,1-.53-1.13,3.44,3.44,0,0,1,.12-.91,2.82,2.82,0,0,1,.37-.83,2.13,2.13,0,0,1,.61-.61,1.48,1.48,0,0,1,.83-.24.6.6,0,0,1,.48.27,5.6,5.6,0,0,1,.43.67l.51.88a3.7,3.7,0,0,0,.73.88,3.91,3.91,0,0,0,1.1.67,4.18,4.18,0,0,0,1.6.27,4.73,4.73,0,0,0,2.23-.51,5.09,5.09,0,0,0,1.66-1.4,8.31,8.31,0,0,0,1.17-2.11,15.55,15.55,0,0,0,.74-2.6,24.57,24.57,0,0,0,.38-2.9q.11-1.51.11-3V116.57h-4.56v-1.79h4.56v-2.9a12.24,12.24,0,0,1,.53-3.81,9.17,9.17,0,0,1,1.41-2.77,8,8,0,0,1,2-1.86,11.49,11.49,0,0,1,2.27-1.14,10.8,10.8,0,0,1,2.25-.57,14.35,14.35,0,0,1,1.91-.15,16.77,16.77,0,0,1,3.13.26,9.58,9.58,0,0,1,2.28.69,4,4,0,0,1,1.39,1,1.82,1.82,0,0,1,.47,1.17,3.17,3.17,0,0,1-.14.91,3.26,3.26,0,0,1-.38.84,2.08,2.08,0,0,1-.61.62,1.43,1.43,0,0,1-.81.24.63.63,0,0,1-.5-.3,6.64,6.64,0,0,1-.47-.74l-.55-1a4.82,4.82,0,0,0-.73-1,3.79,3.79,0,0,0-1-.74A3.12,3.12,0,0,0,450.64,103.3Z"/><path class="cls-2" d="M460.84,128.8a7,7,0,0,0,.24,1.72,10.18,10.18,0,0,0,.68,1.87,9.9,9.9,0,0,0,1.1,1.8,8.55,8.55,0,0,0,1.51,1.53,7.25,7.25,0,0,0,1.9,1.07,6.36,6.36,0,0,0,2.28.4,6.24,6.24,0,0,0,1.61-.2,6.39,6.39,0,0,0,1.39-.55,9,9,0,0,0,1.24-.81q.59-.46,1.19-1l.62.6a17.07,17.07,0,0,1-1.46,1.69,11.93,11.93,0,0,1-2.16,1.72,12.44,12.44,0,0,1-3,1.34,12.74,12.74,0,0,1-3.84.53,11.69,11.69,0,0,1-4.2-.78,10.43,10.43,0,0,1-3.63-2.34,11.47,11.47,0,0,1-2.54-3.89,15.74,15.74,0,0,1-.38-9.6,13.28,13.28,0,0,1,1.55-3.4,12.65,12.65,0,0,1,2.28-2.65A14.17,14.17,0,0,1,460,116a13.53,13.53,0,0,1,2.94-1.14,11.65,11.65,0,0,1,2.89-.38,11.52,11.52,0,0,1,3.2.4,7.16,7.16,0,0,1,2.27,1.07,4.44,4.44,0,0,1,1.35,1.55,4,4,0,0,1,.45,1.85,3.5,3.5,0,0,1-.67,2.1,6.2,6.2,0,0,1-1.79,1.62Zm5-5a3.87,3.87,0,0,0,.53-.38,1.38,1.38,0,0,0,.33-.45,2.41,2.41,0,0,0,.19-.65,6.17,6.17,0,0,0,.06-1,7.83,7.83,0,0,0-.14-1.38,5.54,5.54,0,0,0-.46-1.43,3.54,3.54,0,0,0-.82-1.12,1.72,1.72,0,0,0-1.19-.45,2.29,2.29,0,0,0-1.53.53,4.13,4.13,0,0,0-1,1.38,8.57,8.57,0,0,0-.65,1.92,21.66,21.66,0,0,0-.36,2.17q-.12,1.09-.15,2.1t0,1.7Z"/><path class="cls-2" d="M485.91,116.42a3.82,3.82,0,0,0-1.08.15,2.44,2.44,0,0,0-.91.48,2.28,2.28,0,0,0-.62.84,3,3,0,0,0-.22,1.2,3.22,3.22,0,0,0,.71,1.92,16.65,16.65,0,0,0,1.76,2q1.05,1,2.28,2.13a25.23,25.23,0,0,1,2.28,2.33,13.24,13.24,0,0,1,1.76,2.62,6.48,6.48,0,0,1,.71,3,7.86,7.86,0,0,1-.61,3.17,6.49,6.49,0,0,1-1.74,2.36,7.73,7.73,0,0,1-2.73,1.48,11.71,11.71,0,0,1-3.56.51,9.37,9.37,0,0,1-3.1-.48,11.18,11.18,0,0,1-2.47-1.19,10.73,10.73,0,0,1-1.85-1.5,10,10,0,0,1-1.19-1.44l.87-.62a8.37,8.37,0,0,0,.82.81,8,8,0,0,0,1.1.81,6.47,6.47,0,0,0,1.3.61,4.37,4.37,0,0,0,1.41.24,4.75,4.75,0,0,0,2.93-.86,3,3,0,0,0,1.14-2.54,3.71,3.71,0,0,0-.62-1.95,15.36,15.36,0,0,0-1.56-2.07q-.94-1.07-2-2.21a29.84,29.84,0,0,1-2-2.36,13.89,13.89,0,0,1-1.56-2.5,6.11,6.11,0,0,1-.62-2.68,5.63,5.63,0,0,1,.63-2.73,5.76,5.76,0,0,1,1.69-1.93,7.55,7.55,0,0,1,2.41-1.15,10.16,10.16,0,0,1,2.79-.38,14.2,14.2,0,0,1,3,.3,7.41,7.41,0,0,1,2.34.91,4.38,4.38,0,0,1,1.51,1.52,4.17,4.17,0,0,1,.53,2.13,2.38,2.38,0,0,1-.62,1.64,2.2,2.2,0,0,1-1.74.69,2.5,2.5,0,0,1-1.62-.46,1.53,1.53,0,0,1-.56-1.25,1.2,1.2,0,0,1,.26-.82,2.31,2.31,0,0,1,.58-.48l.58-.32a.41.41,0,0,0,.26-.36,1.23,1.23,0,0,0-.74-1.1A3.94,3.94,0,0,0,485.91,116.42Z"/><path class="cls-2" d="M504.73,116.57V134.9a2.6,2.6,0,0,0,.5,1.82,1.82,1.82,0,0,0,1.36.51,2,2,0,0,0,1.19-.37,4.33,4.33,0,0,0,.89-.84,5.27,5.27,0,0,0,.77-1.22l.77.35q-.37.79-.88,1.74a6.88,6.88,0,0,1-3.47,3.1,8.22,8.22,0,0,1-3.21.55,6.83,6.83,0,0,1-2.1-.32,4.92,4.92,0,0,1-1.79-1,5.1,5.1,0,0,1-1.25-1.74,6.06,6.06,0,0,1-.47-2.5V116.57h-2.78v-1.79a7.49,7.49,0,0,0,1.93-.36,9.66,9.66,0,0,0,2.54-1.2,10.11,10.11,0,0,0,2.42-2.26,8.64,8.64,0,0,0,1.59-3.5h2v7.32h4q2,0,2-.67a.33.33,0,0,0-.25-.33l-.56-.22a1.81,1.81,0,0,1-.56-.38,1.12,1.12,0,0,1-.25-.82,1.41,1.41,0,0,1,.43-1.09,1.61,1.61,0,0,1,1.13-.4,1.58,1.58,0,0,1,.78.19,1.69,1.69,0,0,1,.56.5,2.22,2.22,0,0,1,.33.71,2.93,2.93,0,0,1,.11.79,3.52,3.52,0,0,1-.93,2.57,4,4,0,0,1-3,1Z"/><polyline class="cls-3" points="521.04 115.28 542.99 115.28 542.99 97.85"/><line class="cls-3" x1="521.04" y1="129.81" x2="567.2" y2="129.81"/><polyline class="cls-3" points="521.04 142.72 557.52 142.72 557.52 154.99"/><polyline class="cls-3" points="195.08 138.69 173.13 138.69 173.13 156.12"/><line class="cls-3" x1="195.41" y1="124.16" x2="148.92" y2="124.16"/><polyline class="cls-3" points="194.76 111.25 158.61 111.25 158.61 98.98"/><circle class="cls-3" cx="557.2" cy="162.41" r="3.23"/><circle class="cls-4" cx="543.32" cy="98.9" r="2.26"/><circle class="cls-2" cx="575.27" cy="129.49" r="3.23"/><circle class="cls-3" cx="158.29" cy="93.17" r="3.23"/><circle class="cls-4" cx="143.76" cy="124.48" r="2.26"/><circle class="cls-2" cx="173.13" cy="162.9" r="3.23"/></svg>