<svg xmlns="http://www.w3.org/2000/svg" xmlns:xlink="http://www.w3.org/1999/xlink" version="1.1" style="" xml:space="preserve" width="101.24390259031136" height="181.12195129515555"><rect id="backgroundrect" width="100%" height="100%" x="0" y="0" fill="none" stroke="none" style="" class=""/>
<style type="text/css">
	.st0{opacity:0.6;}
	.st1{fill:#F7F7F7;}
	.st2{opacity:0.3;}
	.st3{fill:#FFFFFF;}
	.st4{fill:#F4A84E;}
	.st5{fill:#454745;}
	.st6{opacity:0.24;}
	.st7{clip-path:url(#SVGID_2_);fill:#454745;}
	.st8{clip-path:url(#SVGID_2_);fill:#EFEFEF;stroke:#454745;stroke-width:3;stroke-miterlimit:10;}
	.st9{fill:#CCCCCC;}
	.st10{opacity:0.35;}
	.st11{clip-path:url(#SVGID_4_);fill:#454745;}
	.st12{clip-path:url(#SVGID_4_);fill:#EFEFEF;stroke:#454745;stroke-width:3;stroke-miterlimit:10;}
	.st13{clip-path:url(#SVGID_6_);fill:#EFEFEF;stroke:#454745;stroke-width:3;stroke-miterlimit:10;}
	.st14{fill:#F4A84E;stroke:#454745;stroke-width:3;stroke-miterlimit:10;}
	.st15{fill:#454745;stroke:#454745;stroke-width:3;stroke-miterlimit:10;}
	.st16{opacity:0.11;}
	.st17{clip-path:url(#SVGID_8_);fill:#FFFFFF;}
	.st18{fill:#050505;}
	.st19{fill:url(#SVGID_11_);stroke:#454745;stroke-width:4;stroke-miterlimit:10;}
	.st20{fill:url(#SVGID_12_);stroke:#454745;stroke-width:4;stroke-miterlimit:10;}
	.st21{fill:#454745;stroke:#454745;stroke-miterlimit:10;}
	.st22{clip-path:url(#SVGID_14_);fill:#454745;}
	.st23{clip-path:url(#SVGID_14_);fill:#EFEFEF;stroke:#454745;stroke-width:3;stroke-miterlimit:10;}
	.st24{clip-path:url(#SVGID_16_);fill:#454745;}
	.st25{clip-path:url(#SVGID_16_);fill:#EFEFEF;stroke:#454745;stroke-width:3;stroke-miterlimit:10;}
	.st26{clip-path:url(#SVGID_18_);fill:#EFEFEF;stroke:#454745;stroke-width:3;stroke-miterlimit:10;}
	.st27{clip-path:url(#SVGID_20_);fill:#FFFFFF;}
	.st28{fill:url(#SVGID_23_);stroke:#454745;stroke-width:4;stroke-miterlimit:10;}
	.st29{fill:url(#SVGID_24_);stroke:#454745;stroke-width:4;stroke-miterlimit:10;}
	.st30{fill:#F3A74F;}
	.st31{clip-path:url(#SVGID_26_);fill:url(#SVGID_27_);}
	.st32{clip-path:url(#SVGID_26_);fill:url(#SVGID_28_);}
	.st33{clip-path:url(#SVGID_30_);fill:url(#SVGID_31_);}
	.st34{clip-path:url(#SVGID_30_);fill:url(#SVGID_32_);}
	.st35{clip-path:url(#SVGID_34_);fill:#454745;}
	.st36{clip-path:url(#SVGID_34_);fill:#EFEFEF;stroke:#454745;stroke-width:3;stroke-miterlimit:10;}
	.st37{clip-path:url(#SVGID_36_);fill:#454745;}
	.st38{clip-path:url(#SVGID_36_);fill:#EFEFEF;stroke:#454745;stroke-width:3;stroke-miterlimit:10;}
	.st39{clip-path:url(#SVGID_38_);fill:#EFEFEF;stroke:#454745;stroke-width:3;stroke-miterlimit:10;}
	.st40{clip-path:url(#SVGID_40_);fill:#FFFFFF;}
	.st41{fill:url(#SVGID_43_);stroke:#454745;stroke-width:4;stroke-miterlimit:10;}
	.st42{fill:url(#SVGID_44_);stroke:#454745;stroke-width:4;stroke-miterlimit:10;}
	.st43{clip-path:url(#SVGID_46_);fill:#454745;}
	.st44{clip-path:url(#SVGID_46_);fill:#EFEFEF;stroke:#454745;stroke-width:3;stroke-miterlimit:10;}
	.st45{clip-path:url(#SVGID_48_);fill:#454745;}
	.st46{clip-path:url(#SVGID_48_);fill:#EFEFEF;stroke:#454745;stroke-width:3;stroke-miterlimit:10;}
	.st47{clip-path:url(#SVGID_50_);fill:#EFEFEF;stroke:#454745;stroke-width:3;stroke-miterlimit:10;}
	.st48{clip-path:url(#SVGID_52_);fill:#FFFFFF;}
	.st49{fill:url(#SVGID_55_);stroke:#454745;stroke-width:4;stroke-miterlimit:10;}
	.st50{fill:url(#SVGID_56_);stroke:#454745;stroke-width:4;stroke-miterlimit:10;}
	.st51{fill:#EDEDED;}
	.st52{fill:#DB8F42;}
	.st53{fill:none;stroke:#F4A84E;stroke-width:5;stroke-miterlimit:10;}
	.st54{fill:none;stroke:#D3D3D3;stroke-width:5;stroke-miterlimit:10;}
	.st55{fill:#D3D3D3;}
	.st56{fill:#606060;}
	.st57{fill:#F15A29;}
	.st58{fill:#212020;}
	.st59{fill:#563A39;}
	.st60{fill:#AF8070;}
	.st61{fill:#348FC0;}
	.st62{fill:#060707;}
	.st63{fill:#4B3938;}
	.st64{clip-path:url(#SVGID_58_);fill:#454745;}
	.st65{clip-path:url(#SVGID_58_);fill:#EFEFEF;stroke:#454745;stroke-width:3;stroke-miterlimit:10;}
	.st66{clip-path:url(#SVGID_60_);fill:#454745;}
	.st67{clip-path:url(#SVGID_60_);fill:#EFEFEF;stroke:#454745;stroke-width:3;stroke-miterlimit:10;}
	.st68{fill:#CCCCCC;stroke:#CCCCCC;stroke-width:3;stroke-miterlimit:10;}
	.st69{clip-path:url(#SVGID_62_);fill:#EFEFEF;stroke:#454745;stroke-width:3;stroke-miterlimit:10;}
	.st70{clip-path:url(#SVGID_64_);fill:#EFEFEF;stroke:#454745;stroke-width:3;stroke-miterlimit:10;}
	.st71{fill:#CCCCCC;stroke:#454745;stroke-width:7;stroke-miterlimit:10;}
	.st72{fill:#F4A84E;stroke:#454745;stroke-width:5;stroke-miterlimit:10;}
	.st73{clip-path:url(#SVGID_66_);fill:#FFFFFF;}
	.st74{fill:#EFEFEF;stroke:#454745;stroke-width:3;stroke-miterlimit:10;}
	.st75{fill:#454745;stroke:#454745;stroke-width:2;stroke-miterlimit:10;}
	.st76{fill:url(#SVGID_67_);stroke:#454745;stroke-width:4;stroke-miterlimit:10;}
	.st77{fill:url(#SVGID_68_);stroke:#454745;stroke-width:4;stroke-miterlimit:10;}
	.st78{fill:none;stroke:#2D2D2D;stroke-width:4;stroke-miterlimit:10;}
	.st79{opacity:0.49;}
	.st80{clip-path:url(#SVGID_70_);fill:#454745;}
	.st81{clip-path:url(#SVGID_70_);fill:#EFEFEF;stroke:#454745;stroke-width:3;stroke-miterlimit:10;}
	.st82{clip-path:url(#SVGID_72_);fill:#454745;}
	.st83{clip-path:url(#SVGID_72_);fill:#EFEFEF;stroke:#454745;stroke-width:3;stroke-miterlimit:10;}
	.st84{clip-path:url(#SVGID_74_);fill:#EFEFEF;stroke:#454745;stroke-width:3;stroke-miterlimit:10;}
	.st85{clip-path:url(#SVGID_76_);fill:#EFEFEF;stroke:#454745;stroke-width:3;stroke-miterlimit:10;}
	.st86{clip-path:url(#SVGID_78_);fill:#FFFFFF;}
	.st87{fill:url(#SVGID_79_);stroke:#454745;stroke-width:4;stroke-miterlimit:10;}
	.st88{fill:url(#SVGID_80_);stroke:#454745;stroke-width:4;stroke-miterlimit:10;}
	.st89{clip-path:url(#SVGID_82_);fill:#454745;}
	.st90{clip-path:url(#SVGID_82_);fill:#EFEFEF;stroke:#454745;stroke-width:3;stroke-miterlimit:10;}
	.st91{clip-path:url(#SVGID_84_);fill:#454745;}
	.st92{clip-path:url(#SVGID_84_);fill:#EFEFEF;stroke:#454745;stroke-width:3;stroke-miterlimit:10;}
	.st93{clip-path:url(#SVGID_86_);fill:#EFEFEF;stroke:#454745;stroke-width:3;stroke-miterlimit:10;}
	.st94{clip-path:url(#SVGID_88_);fill:#EFEFEF;stroke:#454745;stroke-width:3;stroke-miterlimit:10;}
	.st95{clip-path:url(#SVGID_90_);fill:#FFFFFF;}
	.st96{fill:url(#SVGID_91_);stroke:#454745;stroke-width:4;stroke-miterlimit:10;}
	.st97{fill:url(#SVGID_92_);stroke:#454745;stroke-width:4;stroke-miterlimit:10;}
	.st98{clip-path:url(#SVGID_94_);fill:#454745;}
	.st99{clip-path:url(#SVGID_94_);fill:#EFEFEF;stroke:#454745;stroke-width:3;stroke-miterlimit:10;}
	.st100{clip-path:url(#SVGID_96_);fill:#454745;}
	.st101{clip-path:url(#SVGID_96_);fill:#EFEFEF;stroke:#454745;stroke-width:3;stroke-miterlimit:10;}
	.st102{clip-path:url(#SVGID_98_);fill:#EFEFEF;stroke:#454745;stroke-width:3;stroke-miterlimit:10;}
	.st103{clip-path:url(#SVGID_100_);fill:#EFEFEF;stroke:#454745;stroke-width:3;stroke-miterlimit:10;}
	.st104{clip-path:url(#SVGID_102_);fill:#FFFFFF;}
	.st105{fill:url(#SVGID_103_);stroke:#454745;stroke-width:4;stroke-miterlimit:10;}
	.st106{fill:url(#SVGID_104_);stroke:#454745;stroke-width:4;stroke-miterlimit:10;}
	.st107{clip-path:url(#SVGID_106_);fill:#454745;}
	.st108{clip-path:url(#SVGID_106_);fill:#EFEFEF;stroke:#454745;stroke-width:3;stroke-miterlimit:10;}
	.st109{clip-path:url(#SVGID_108_);fill:#454745;}
	.st110{clip-path:url(#SVGID_108_);fill:#EFEFEF;stroke:#454745;stroke-width:3;stroke-miterlimit:10;}
	.st111{clip-path:url(#SVGID_110_);fill:#EFEFEF;stroke:#454745;stroke-width:3;stroke-miterlimit:10;}
	.st112{clip-path:url(#SVGID_112_);fill:#EFEFEF;stroke:#454745;stroke-width:3;stroke-miterlimit:10;}
	.st113{clip-path:url(#SVGID_114_);fill:#FFFFFF;}
	.st114{fill:url(#SVGID_115_);stroke:#454745;stroke-width:4;stroke-miterlimit:10;}
	.st115{fill:url(#SVGID_116_);stroke:#454745;stroke-width:4;stroke-miterlimit:10;}
	.st116{fill:#FFFFFF;stroke:#FFFFFF;stroke-width:18;stroke-miterlimit:10;}
	.st117{fill:#AF4C35;}
	.st118{fill:#853A28;}
	.st119{fill:#DB3B3B;}
	.st120{clip-path:url(#SVGID_118_);fill:#AF4C35;}
	.st121{clip-path:url(#SVGID_118_);fill:#CCCCCC;stroke:#454745;stroke-width:3;stroke-miterlimit:10;}
	.st122{clip-path:url(#SVGID_120_);fill:#AF4C35;}
	.st123{clip-path:url(#SVGID_120_);fill:#CCCCCC;stroke:#454745;stroke-width:3;stroke-miterlimit:10;}
	.st124{clip-path:url(#SVGID_122_);fill:#CCCCCC;stroke:#454745;stroke-width:3;stroke-miterlimit:10;}
	.st125{clip-path:url(#SVGID_124_);fill:#CCCCCC;stroke:#454745;stroke-width:3;stroke-miterlimit:10;}
	.st126{fill:#CCCCCC;stroke:#AF4C35;stroke-width:7;stroke-miterlimit:10;}
	.st127{fill:url(#SVGID_125_);stroke:#454745;stroke-width:4;stroke-miterlimit:10;}
	.st128{fill:url(#SVGID_126_);stroke:#454745;stroke-width:4;stroke-miterlimit:10;}
	.st129{clip-path:url(#SVGID_128_);fill:#FFFFFF;}
	.st130{fill:#6B4B0F;}
	.st131{opacity:0.4;}
	.st132{fill:none;stroke:#454745;stroke-width:2;stroke-miterlimit:10;}
	.st133{fill:#282828;}
</style>


<g class="currentLayer" style=""><title>Layer 1</title><g id="svg_9" class="">
	<path class="st59" d="M19.05284547805786,9.81300812959671 c0.8,0 1.5,0 2.3,0 c0.1,0.1 0.2,0.1 0.3000000000000001,0.1 c1,0.1 1.9,0.4 2.9,0.7000000000000002 c2.3,0.9 4,2.6 5.4,4.6 c2.3,3.1 3.8,6.6 4.9,10.2 c1,3.2 1.7000000000000002,6.5 2.3,9.8 c0.7000000000000002,3.4 1.2,6.8 1.6,10.2 c0.3000000000000001,2.9 0.5,5.7 0.7000000000000002,8.6 c-0.7000000000000002,1.2 -1.1,2.5 -1.5,3.8 c-0.5,1.5 -0.9,3 -1.1,4.6 c-1.1,-3.4 -1.2,-6.9 -1.1,-10.5 c-0.7000000000000002,1.4 -1.2,2.9 -1.6,4.3 c0,-0.4 0,-0.8 0,-1.1 c0,-2.3 0,-4.6 -0.1,-7 c-0.2,-3.9 -0.7000000000000002,-7.8 -1.4,-11.6 c-0.8,-4.4 -2.1,-8.6 -4.1,-12.6 c-1,-1.9 -2.1,-3.7 -3.7,-5.1 c-1.5,-1.4 -3.2,-2.4 -5.3,-2.5 c-2.9,-0.1 -5.4,0.9 -7.6,2.8 c-1.4,1.2 -2.2,2.9 -2.9,4.7 c-1.1,2.9 -1.1,6 -0.7000000000000002,9 c0.5,3.9 1.3,7.7 2.5,11.4 c2.6,8.7 6.7,16.8 11.8,24.3 c1.6,2.4 3.4,4.6 5.6,6.5 c1.1,1 1.7000000000000002,0.9 2.4,-0.4 c0.9,-1.6 1.5,-3.3 1.9,-5 c0.3000000000000001,-1.2 0.6000000000000002,-2.4 0.8,-3.6 c0.3000000000000001,1 0.4,2 0.9,3 c0.6000000000000002,1.4 1.1,3 2.6,3.8 c0.1,0.1 0.2,0.2 0.1,0.4 c-0.4,1.4 -0.2,2.8 0.1,4.2 c0.3000000000000001,1.5 0.8,2.9 1.3,4.2 c0.3000000000000001,0.9 0.7000000000000002,1.7000000000000002 1.1,2.5 c-0.3000000000000001,-1.4 -0.2,-2.8 0.2,-4.1 c0.3000000000000001,-1.4 0.8,-2.7 1.6,-3.9 c-0.6000000000000002,5.1 0.3000000000000001,10.1 2.1,15 c0,-0.2 0.1,-0.2 0.1,-0.2 c0,-2.6 0,-5.2 0.3000000000000001,-7.8 c0.2,-1.6 0.4,-3.1 1.1,-4.6 c0.4,-0.8 0.8,-1.5 1.6,-1.9 c0.2,-0.1 0.4,-0.1 0.5,0.2 c0.8,1.9 1.5,3.8 1.9,5.8 c0.3000000000000001,1.3 0.5,2.6 0.2,4 c0,0.1 -0.1,0.2 0,0.2 c0.1,0 0.2,-0.1 0.3000000000000001,-0.2 c1.9,-2.5 3.3,-5.3 3.9,-8.4 c0.1,-0.8 0.2,-1.6 0.2,-2.4 c0,-0.8 -0.2,-1.5 -0.3000000000000001,-2.3 l0,0 c0.9,0.8 1.7000000000000002,1.6 2.4,2.6 c1.4,1.8 2.5,3.7 3,5.8 c0.3000000000000001,1.1 0.4,2.2 0.3000000000000001,3.4 c-0.1,0.7000000000000002 -0.3000000000000001,1.3 -0.3000000000000001,2 c0,0 0,0.1 -0.1,0.1 c0,0 0,0 0,0 c0,0 0,-0.1 0,-0.1 c0.1,-0.1 0.2,-0.2 0.2,-0.4 c0.9,-1.9 1.6,-3.8 2.2,-5.8 c0.5,-1.8 0.8,-3.6 0.8,-5.5 c0,-0.2 0,-0.4 -0.1,-0.7000000000000002 c0.4,0.2 0.6000000000000002,0.5 0.8,0.8 c0.8,1 1,2.2 1.3,3.5 c0.2,0.8 0.3000000000000001,1.7000000000000002 0.4,2.5 c0.2,-0.4 0.3000000000000001,-0.8 0.5,-1.1 c0.7000000000000002,-2.3 1.1,-4.6 0.8,-7 c-0.1,-1.1 -0.5,-2.1 -1.1,-3 c-0.2,-0.2 -0.1,-0.4 0,-0.6000000000000002 c0.3000000000000001,-0.6000000000000002 0.6000000000000002,-1.1 0.8,-1.8 c0,0.1 0,0.1 0.1,0.2 c0.5,2.2 1.2,4.3 2.2,6.3 c0.8,1.4 1.4,1.5 2.6,0.4 c1.4,-1.2 2.6,-2.6 3.8,-4.1 c3.5,-4.5 6.3,-9.5 8.8,-14.7 c3,-6.3 5.2,-12.9 6.5,-19.7 c0.6000000000000002,-3.1 1,-6.2 0.6000000000000002,-9.4 c-0.3000000000000001,-2.6 -1.2,-4.9 -2.8,-7 c-1.5,-1.9 -3.6,-2.9 -6,-3.5 c-2.5,-0.6000000000000002 -4.8,-0.1 -6.9,1.4 c-1.2,0.9 -2.2,2 -3.1,3.2 c-1.8,2.7 -3.1,5.7 -4.1,8.7 c-1,3.1 -1.7000000000000002,6.3 -2.1,9.5 c-0.3000000000000001,2.4 -0.6000000000000002,4.8 -0.8,7.2 c-0.1,1.1 -0.2,2.3 -0.2,3.4 c-0.1,1.9 -0.1,3.7 0,5.6 c0,1.3 0.2,2.7 0.2,4 c-0.3000000000000001,-0.7000000000000002 -0.5,-1.4 -0.8,-2.1 c-0.2,-0.4 -0.4,-0.9 -0.5,-1.3 c0.1,1.2 0,2.4 0,3.6 c0,1.2 -0.2,2.3 -0.6000000000000002,3.4 c-0.4,1 -0.9,1.8 -2,2.2 c-0.3000000000000001,0.1 -0.5,0.1 -0.6000000000000002,-0.3000000000000001 c-0.3000000000000001,-0.9 -0.3000000000000001,-1.7000000000000002 -0.2,-2.6 c0.2,-1.3 0.8,-2.4 1.5,-3.5 c0.1,-0.1 0.2,-0.2 0.1,-0.3000000000000001 c-0.1,-0.1 -0.2,-0.1 -0.3000000000000001,-0.1 c-0.9,0 -1.7000000000000002,0.3000000000000001 -2.5,0.6000000000000002 c0.3000000000000001,-3.4 0.5,-6.8 0.8,-10.1 c0.3000000000000001,-3.4 0.7000000000000002,-6.9 1.3,-10.3 c0.8,-5.2 2.1,-10.3 3.8,-15.3 c1.3,-3.6 2.9,-7 5.5,-9.8 c2.8,-3.1 6.3,-4.1 10.3,-3.6 c3.3,0.5 6.2,2 8.6,4.3 c3.9,3.6 5.5,8.2 5.8,13.4 c0,1.3 0,2.6 0,3.9 c0,1.2 -0.1,2.5 -0.3000000000000001,3.7 c-0.5,3.8 -1.3,7.5 -2.4,11.1 c-2.8,9 -6.6,17.6 -11,25.9 c-0.7000000000000002,1.3 -1.4,2.5 -2.1,3.7 c-0.5,0.9 -0.4,1.4 0.3000000000000001,2 c0.1,0.1 0.2,0.1 0.3000000000000001,0.2 c1.2,0.9 2.2,2 3.1,3.1 c1.9,2.5 3.1,5.3 3.8,8.4 c0.5,2.3 0.8,4.7 0.6000000000000002,7 c-0.1,1.8 -0.3000000000000001,3.6 -0.5,5.4 c-0.2,2 -0.5,4 -0.7000000000000002,6 c-0.3000000000000001,2.5 -0.7000000000000002,4.9 -1,7.4 c-0.4,3.2 -1,6.3 -1.5,9.5 c-0.5,3 -1,6 -1.5,9 c-0.4,2.1 -0.6000000000000002,4.3 -1.1,6.4 c-0.9,4.1 -2.4,8.1 -3.9,12 c-0.1,-0.1 -0.1,-0.2 -0.2,-0.4 c-0.2,-0.6000000000000002 -0.4,-1.1 -0.7000000000000002,-1.7000000000000002 c-1.9,-3.9 -4.3,-7.4 -7.2,-10.5 c-2.4,-2.6 -5.2,-4.8 -8.2,-6.7 c-3.3,-2 -6.7,-3.5 -10.6,-3.9 c-2.7,-0.3000000000000001 -5.3,0.1 -7.8,1.2 c-2.9,1.2 -5.3,2.9 -7.6,5 c-3,2.8 -5.6,5.8 -7.8,9.3 c-1.8,2.8 -3.2,5.8 -4.1,8.9 c-0.4,1.4 -0.6000000000000002,2.8 -0.9,4.2 c-0.1,0.3000000000000001 -0.2,0.6000000000000002 -0.3000000000000001,1 c-0.1,-0.1 -0.1,-0.2 -0.2,-0.3000000000000001 c-1.3,-3 -2.6,-6 -3.7,-9 c-1,-2.5 -1.9,-5.1 -2.5,-7.8 c-0.7000000000000002,-3 -0.8,-6.2 -1,-9.3 c-0.1,-1.9 -0.3000000000000001,-3.9 -0.4,-5.8 c-0.1,-1.6 -0.4,-3.3 -0.5,-4.9 c-0.2,-2.1 -0.3000000000000001,-4.3 -0.4,-6.5 c-0.1,-2.5 -0.4,-5 -0.6000000000000002,-7.5 c-0.2,-2.3 -0.4,-4.5 -0.6000000000000002,-6.8 c-0.2,-2.5 -0.1,-4.9 0.4,-7.3 c1,-4.4 3,-8.3 5.9,-11.8 c0.8,-0.9 1.6,-1.8 2.5,-2.6 c0.6000000000000002,-0.5 0.6000000000000002,-0.9 0.3000000000000001,-1.6 c-0.1,-0.1 -0.1,-0.2 -0.2,-0.4 c-3.1,-5.4 -5.9,-10.9 -8.4,-16.5 c-3.1,-7 -5.8,-14.1 -7.2,-21.6 c-0.5,-2.7 -0.9,-5.5 -1,-8.3 c0,-0.1 0.1,-0.2 -0.1,-0.3000000000000001 c0,-0.4 0,-0.8 0,-1.2 c0.1,0 0.1,-0.1 0.1,-0.2 c0,-0.9 0.1,-1.7000000000000002 0.2,-2.6 c0.3000000000000001,-2.7 1,-5.3 2.2,-7.7 c2.3,-4.6 6.2,-7.3 11.1,-8.7 C17.652845478057863,10.01300812959671 18.35284547805786,9.91300812959671 19.05284547805786,9.81300812959671 zM61.55284547805786,120.31300812959671 c0.4,0 0.8,0 1.1,0 c0.4,0 0.8,-0.1 1.1,-0.1 c5.1,-0.8 9.4,-3 13,-6.7 c2.4,-2.5 3.2,-5.4 2.2,-8.7 c-1.3,-4.2 -3.9,-7.4 -7.6,-9.7 c-2.1,-1.3 -4.5,-1.5 -6.8,-0.8 c-1.8,0.6000000000000002 -3.4,1.6 -4.7,3 c-3.2,3.2 -5.2,7 -6.2,11.4 c-0.7000000000000002,3.2 -0.2,6.3 1.3,9.2 c0.7000000000000002,1.4 1.8,2.2 3.4,2.4 C59.35284547805786,120.4130081295967 60.45284547805787,120.21300812959672 61.55284547805786,120.31300812959671 zM37.65284547805786,120.4130081295967 c0.3000000000000001,0 0.5,0 0.7000000000000002,0 c1.7000000000000002,0 3.2,-0.5 4.2,-2.1 c1,-1.7000000000000002 1.6,-3.5 1.8,-5.4 c0.2,-2.2 -0.3000000000000001,-4.3 -0.9,-6.4 c-1.5,-5.1 -4.4,-9.1 -9.2,-11.7 c-1.6,-0.9 -3.3,-1.3 -5.1,-0.9 c-2.5,0.6000000000000002 -4.4,2 -6.2,3.7 c-1.9,1.9 -3.2,4.1 -4.1,6.6 c-1.1,2.9 -0.7000000000000002,5.6 1.2,8.1 c1.1,1.5 2.5,2.7 4,3.7 C28.152845478057863,119.11300812959671 32.85284547805786,120.21300812959672 37.65284547805786,120.4130081295967 z" id="svg_10"/>
	<path class="st60" d="M76.75284547805786,152.4130081295967 c0.1,0.6000000000000002 0.3000000000000001,1.3 0.4,1.9 c0.8,4.1 -0.2,7.9 -2.7,11.2 c-3.1,4.2 -7.2,6.9 -12.1,8.5 c-2.5,0.8 -5,1.1 -7.6,1.2 c-0.1,0 -0.3000000000000001,-0.1 -0.4,0.1 c-2,0 -3.9,0 -5.9,0 c-0.1,-0.1 -0.2,-0.1 -0.3000000000000001,-0.1 c-3.4,-0.1 -6.7,-0.3000000000000001 -10.1,-0.9 c-2.8,-0.5 -5.6,-1.2 -8.2,-2.4 c-5.6,-2.7 -8.4,-7.2 -8.4,-13.4 c0,-0.2 0.1,-0.4 -0.1,-0.6000000000000002 c0.3000000000000001,-1.4 0.5,-2.8 0.9,-4.2 c0.9,-3.2 2.3,-6.2 4.1,-8.9 c2.2,-3.4 4.9,-6.5 7.8,-9.3 c2.2,-2.1 4.7,-3.8 7.6,-5 c2.5,-1 5.1,-1.4 7.8,-1.2 c3.9,0.4 7.3,1.8 10.6,3.9 c3,1.9 5.8,4.1 8.2,6.7 c2.9,3.2 5.4,6.6 7.2,10.5 c0.3000000000000001,0.5 0.5,1.1 0.7000000000000002,1.7000000000000002 C76.55284547805786,152.11300812959672 76.55284547805786,152.3130081295967 76.75284547805786,152.4130081295967 zM68.05284547805786,160.61300812959672 c-0.1,0 -0.2,0.1 -0.4,0.2 c-2.5,1.9 -5.1,3.6 -8,4.9 c-4.4,1.9 -8.9,2.4 -13.6,1.5 c-3.9,-0.7000000000000002 -7.5,-2.2 -11,-4 c-1.5,-0.8 -3,-1.6 -4.5,-2.4 c0,0 0,0 0,0 c0,0 0,0 0,0 c0,0.2 0.2,0.3000000000000001 0.3000000000000001,0.5 c3.3,4.1 7.5,7.1 12.5,8.8 c3.9,1.3 7.9,1.6 12,0.5 c4.7,-1.3 8.3,-4 11.2,-7.8 C67.25284547805786,162.11300812959672 67.75284547805786,161.4130081295967 68.05284547805786,160.61300812959672 C68.05284547805786,160.61300812959672 68.05284547805786,160.61300812959672 68.05284547805786,160.61300812959672 C68.05284547805786,160.61300812959672 68.05284547805786,160.61300812959672 68.05284547805786,160.61300812959672 C68.05284547805786,160.61300812959672 68.05284547805786,160.61300812959672 68.05284547805786,160.61300812959672 zM69.35284547805786,148.21300812959672 c0.1,-0.6000000000000002 -0.1,-1.1 -0.5,-1.6 c-0.6000000000000002,-0.9 -1.5,-1.6 -2.4,-2.2 c-2,-1.4 -4.6,-1.1 -6.2,0.5 c-1,1 -1.3,2.3 -1.4,3.6 c-0.1,2.4 -0.9,4.7 -2.2,6.7 c-0.7000000000000002,1.1 -1.4,2.2 -2.2,3.3 c-0.5,0.6000000000000002 -0.3000000000000001,1.2 0.4,1.6 c0.5,0.3000000000000001 1,0.2 1.5,0 c3.4,-1.5 6.7,-3.2 9.6,-5.5 C68.05284547805786,152.9130081295967 69.25284547805786,150.9130081295967 69.35284547805786,148.21300812959672 zM30.95284547805786,149.11300812959672 c0,0.9 0.2,1.7000000000000002 0.7000000000000002,2.5 c1,1.8 2.6,3.1 4.2,4.2 c2.2,1.5 4.6,2.7 7,3.9 c0.5,0.2 1,0.4 1.5,0.5 c0.6000000000000002,0.2 1,-0.1 1.4,-0.4 c0.3000000000000001,-0.2 0.4,-0.5 0.2,-0.9 c-0.2,-0.4 -0.4,-0.7000000000000002 -0.7000000000000002,-1 c-0.1,-0.1 -0.3000000000000001,-0.3000000000000001 -0.3000000000000001,-0.5 c0,-0.3000000000000001 -0.1,-0.5 -0.3000000000000001,-0.7000000000000002 c-0.2,-0.2 -0.3000000000000001,-0.4 -0.5,-0.6000000000000002 c-1.8,-2.4 -2.6,-5.1 -2.8,-8 c-0.2,-3.1 -2.7,-5.1 -5.5,-4.7 C33.15284547805786,144.0130081295967 30.95284547805786,146.4130081295967 30.95284547805786,149.11300812959672 z" id="svg_11"/>
	<path class="st60" d="M94.65284547805786,27.61300812959671 C94.65284547805786,27.61300812959671 94.75284547805786,27.61300812959671 94.65284547805786,27.61300812959671 c0.1,1.3 0.1,2.6 0.1,3.9 l0,0 l0,0 C94.65284547805786,30.213008129596712 94.65284547805786,28.91300812959671 94.65284547805786,27.61300812959671 z" id="svg_12"/>
	<path class="st61" d="M33.35284547805786,66.01300812959671 c-0.3000000000000001,1.2 -0.5,2.4 -0.8,3.6 c-0.5,1.7000000000000002 -1.1,3.4 -1.9,5 c-0.7000000000000002,1.3 -1.3,1.4 -2.4,0.4 c-2.2,-1.9 -4,-4.1 -5.6,-6.5 c-5.1,-7.5 -9.1,-15.6 -11.8,-24.3 c-1.1,-3.7 -2,-7.5 -2.5,-11.4 c-0.4,-3 -0.3000000000000001,-6.1 0.7000000000000002,-9 c0.6000000000000002,-1.8 1.4,-3.4 2.9,-4.7 c2.2,-1.9 4.7,-2.9 7.6,-2.8 c2.1,0.1 3.8,1.1 5.3,2.5 c1.6,1.4 2.7,3.2 3.7,5.1 c2,4 3.3,8.2 4.1,12.6 c0.7000000000000002,3.9 1.1,7.7 1.4,11.6 c0.1,2.3 0.2,4.6 0.1,7 c0,0.4 -0.1,0.8 0,1.1 c0,0.1 -0.1,0.3000000000000001 -0.1,0.4 c-0.6000000000000002,2.2 -0.9,4.4 -0.9,6.6 C33.15284547805786,64.21300812959672 33.252845478057864,65.11300812959671 33.35284547805786,66.01300812959671 z" id="svg_13"/>
	<path class="st61" d="M64.35284547805786,59.61300812959671 c0,-1.3 -0.1,-2.7 -0.2,-4 c-0.1,-1.9 -0.1,-3.7 0,-5.6 c0,-1.1 0.1,-2.3 0.2,-3.4 c0.2,-2.4 0.4,-4.8 0.8,-7.2 c0.5,-3.2 1.1,-6.4 2.1,-9.5 c1,-3.1 2.3,-6 4.1,-8.7 c0.8,-1.2 1.9,-2.3 3.1,-3.2 c2.1,-1.6 4.3,-2 6.9,-1.4 c2.3,0.6000000000000002 4.4,1.6 6,3.5 c1.6,2 2.4,4.4 2.8,7 c0.4,3.2 0,6.3 -0.6000000000000002,9.4 c-1.3,6.9 -3.5,13.4 -6.5,19.7 c-2.5,5.2 -5.3,10.1 -8.8,14.7 c-1.1,1.5 -2.4,2.8 -3.8,4.1 c-1.2,1.1 -1.8,1 -2.6,-0.4 c-1.1,-2 -1.8,-4.1 -2.2,-6.3 c0,-0.1 0,-0.1 -0.1,-0.2 c0.4,-1.5 0.3000000000000001,-3.1 0,-4.6 C65.15284547805786,62.21300812959671 64.75284547805786,60.91300812959671 64.35284547805786,59.61300812959671 z" id="svg_14"/>
	<path class="st62" d="M64.35284547805786,59.61300812959671 c0.4,1.3 0.8,2.5 1,3.8 c0.3000000000000001,1.5 0.4,3.1 0,4.6 c-0.2,0.6000000000000002 -0.4,1.2 -0.8,1.8 c-0.1,0.2 -0.2,0.3000000000000001 0,0.6000000000000002 c0.6000000000000002,0.9 1,1.9 1.1,3 c0.3000000000000001,2.4 -0.1,4.7 -0.8,7 c-0.1,0.4 -0.3000000000000001,0.8 -0.5,1.1 c-0.1,-0.8 -0.3000000000000001,-1.7000000000000002 -0.4,-2.5 c-0.2,-1.2 -0.5,-2.4 -1.3,-3.5 c-0.2,-0.3000000000000001 -0.5,-0.6000000000000002 -0.8,-0.8 c0,0.3000000000000001 0,0.5 0.1,0.7000000000000002 c0,1.9 -0.3000000000000001,3.7 -0.8,5.5 c-0.6000000000000002,2 -1.3,3.9 -2.2,5.8 c-0.1,0.1 -0.1,0.2 -0.2,0.4 l0,0 c0,-0.7000000000000002 0.2,-1.3 0.3000000000000001,-2 c0.1,-1.2 0,-2.3 -0.3000000000000001,-3.4 c-0.5,-2.2 -1.7000000000000002,-4.1 -3,-5.8 c-0.7000000000000002,-0.9 -1.6,-1.8 -2.4,-2.6 c0,0 0,0 0,0 c0,0 0,0 0,0 c0.1,0.8 0.3000000000000001,1.5 0.3000000000000001,2.3 c0,0.8 0,1.6 -0.2,2.4 c-0.5,3.1 -2,5.9 -3.9,8.4 c-0.1,0.1 -0.1,0.2 -0.3000000000000001,0.2 c-0.1,0 -0.1,-0.1 0,-0.2 c0.3000000000000001,-1.3 0.1,-2.7 -0.2,-4 c-0.4,-2 -1.1,-3.9 -1.9,-5.8 c-0.1,-0.3000000000000001 -0.3000000000000001,-0.3000000000000001 -0.5,-0.2 c-0.8,0.4 -1.3,1.1 -1.6,1.9 c-0.6000000000000002,1.5 -0.9,3 -1.1,4.6 c-0.3000000000000001,2.6 -0.4,5.2 -0.3000000000000001,7.8 c0,0 0,0.1 -0.1,0.2 c-1.8,-4.9 -2.7,-9.8 -2.1,-15 c-0.8,1.2 -1.3,2.5 -1.6,3.9 c-0.3000000000000001,1.4 -0.4,2.7 -0.2,4.1 c-0.5,-0.8 -0.8,-1.7000000000000002 -1.1,-2.5 c-0.5,-1.4 -1,-2.8 -1.3,-4.2 c-0.3000000000000001,-1.4 -0.5,-2.8 -0.1,-4.2 c0,-0.2 0,-0.3000000000000001 -0.1,-0.4 c-1.5,-0.8 -2,-2.4 -2.6,-3.8 c-0.4,-0.9 -0.6000000000000002,-2 -0.9,-3 c-0.1,-0.9 -0.2,-1.8 -0.2,-2.7 c0,-2.2 0.3000000000000001,-4.4 0.9,-6.6 c0,-0.1 0.1,-0.3000000000000001 0.1,-0.4 c0.5,-1.4 0.9,-2.8 1.6,-4.3 c-0.1,3.6 0,7.1 1.1,10.5 c0.2,-1.6 0.6000000000000002,-3.1 1.1,-4.6 c0.4,-1.3 0.9,-2.6 1.5,-3.8 c0,0.1 0,0.2 0,0.3000000000000001 c0,0 -0.1,0.1 -0.1,0.1 c-0.2,1 -0.2,2 0,2.9 c0.1,0.5 0.1,1 0.4,1.5 c0.2,1.1 0.7000000000000002,2.2 1.3,3.3 c0.7000000000000002,-2.1 1.5,-4.1 0.8,-6.3 l0,0 c0.6000000000000002,0.5 1.1,1.1 1.6,1.7000000000000002 c0.6000000000000002,0.9 1.3,1.8 1.8,2.8 c0.5,0.9 0.8,1.8 1.2,2.7 c0.4,-2.3 1.2,-4.5 2.3,-6.7 c0.3000000000000001,2.6 0.9,5 2.1,7.3 c0.3000000000000001,-0.4 0.6000000000000002,-0.8 0.8,-1.2 c1,-1.8 1.5,-3.7 1.1,-5.7 c-0.1,-0.4 -0.3000000000000001,-0.8 -0.3000000000000001,-1.2 c0,0 0.1,0 0.1,0 c1.2,1.9 2.1,4 2.8,6.2 c0.2,-0.5 0.5,-0.8 0.8,-1.2 c0.6000000000000002,-0.6000000000000002 1.3,-1.2 2.1,-1.5 c0.8,-0.3000000000000001 1.6,-0.6000000000000002 2.5,-0.6000000000000002 c0.1,0 0.3000000000000001,-0.1 0.3000000000000001,0.1 c0,0.1 -0.1,0.2 -0.1,0.3000000000000001 c-0.7000000000000002,1.1 -1.3,2.2 -1.5,3.5 c-0.1,0.9 -0.1,1.8 0.2,2.6 c0.1,0.4 0.3000000000000001,0.4 0.6000000000000002,0.3000000000000001 c1.1,-0.4 1.6,-1.2 2,-2.2 c0.4,-1.1 0.6000000000000002,-2.2 0.6000000000000002,-3.4 c0,-1.2 0,-2.4 0,-3.6 c0.2,0.4 0.4,0.9 0.5,1.3 C63.752845478057864,58.31300812959671 64.05284547805786,59.01300812959671 64.35284547805786,59.61300812959671 z" id="svg_15"/>
	<path class="st3" d="M61.55284547805786,120.31300812959671 c-1.1,0 -2.1,0.2 -3.2,0 c-1.6,-0.2 -2.7,-1 -3.4,-2.4 c-1.5,-2.9 -2,-6 -1.3,-9.2 c1,-4.4 3,-8.2 6.2,-11.4 c1.3,-1.3 2.9,-2.4 4.7,-3 c2.4,-0.8 4.7,-0.6000000000000002 6.8,0.8 c3.7,2.3 6.3,5.5 7.6,9.7 c1,3.3 0.2,6.2 -2.2,8.7 c-3.6,3.7 -7.9,5.9 -13,6.7 c-0.4,0.1 -0.8,0.1 -1.1,0.1 C62.252845478057864,120.31300812959671 61.95284547805787,120.31300812959671 61.55284547805786,120.31300812959671 zM62.95284547805787,119.61300812959671 c0.7000000000000002,0 1.3,0 1.9,-0.1 c2.6,-0.6000000000000002 4.3,-2.3 5.3,-4.7 c0.4,-0.9 0.7000000000000002,-1.8 0.6000000000000002,-2.8 c-0.1,-1.2 -1.1,-1.8 -2.2,-1.3 c-0.3000000000000001,0.1 -0.5,0.2 -0.8,0.4 c-0.3000000000000001,0.2 -0.6000000000000002,0.3000000000000001 -0.9,0.4 c-1.1,0.3000000000000001 -2.1,-0.1 -2.8,-1.1 c-0.7000000000000002,-1 -0.7000000000000002,-1.9 0.1,-2.8 c0.2,-0.3000000000000001 0.5,-0.5 0.8,-0.8 c0.9,-1 0.4,-2.4 -0.9,-2.7 c-1.4,-0.3000000000000001 -2.7,-0.2 -4,0.3000000000000001 c-2.4,0.9 -4.2,2.6 -4.8,5.1 c-0.5,2 -0.2,4 0.5,5.9 c0.7000000000000002,1.9 2.1,3.2 4.1,3.8 C60.85284547805786,119.51300812959671 61.95284547805787,119.61300812959671 62.95284547805787,119.61300812959671 z" id="svg_16"/>
	<path class="st3" d="M37.65284547805786,120.4130081295967 c-4.9,-0.2 -9.6,-1.3 -13.7,-4.3 c-1.5,-1.1 -2.9,-2.3 -4,-3.7 c-1.9,-2.5 -2.3,-5.2 -1.2,-8.1 c0.9,-2.5 2.2,-4.7 4.1,-6.6 c1.8,-1.8 3.7,-3.2 6.2,-3.7 c1.8,-0.4 3.5,0 5.1,0.9 c4.7,2.6 7.7,6.6 9.2,11.7 c0.6000000000000002,2.1 1,4.2 0.9,6.4 c-0.1,1.9 -0.7000000000000002,3.8 -1.8,5.4 c-0.9,1.5 -2.4,2 -4.2,2.1 C38.15284547805786,120.4130081295967 37.95284547805786,120.4130081295967 37.65284547805786,120.4130081295967 zM26.95284547805786,111.9130081295967 c0,0.2 0,0.6000000000000002 0.1,1 c0,0.3000000000000001 0.1,0.6000000000000002 0.2,0.8 c0.7000000000000002,2.8 2.4,4.8 5.2,5.6 c0.8,0.2 1.7000000000000002,0.2 2.6,0.3000000000000001 c1.6,0.1 3,-0.2 4.3,-1.1 c2.4,-1.6 3.7,-3.8 3.4,-6.7 c-0.1,-1.2 -1.1,-2.1 -2.4,-1.1 c-0.2,0.2 -0.5,0.3000000000000001 -0.7000000000000002,0.4 c-0.9,0.4 -1.7000000000000002,0.4 -2.5,-0.2 c-1.5,-1.2 -1.6,-2.7 -0.2,-4 c0.1,-0.1 0.3000000000000001,-0.2 0.4,-0.4 c0.5,-0.6000000000000002 0.6000000000000002,-1.2 0.1,-1.9 c-0.3000000000000001,-0.5 -0.8,-0.8 -1.4,-0.8 c-0.8,-0.1 -1.6,-0.1 -2.4,0.1 C29.652845478057863,104.61300812959671 26.85284547805786,107.9130081295967 26.95284547805786,111.9130081295967 z" id="svg_17"/>
	<path class="st62" d="M58.652845478057856,87.21300812959672 c0,0 0,0.1 0,0.1 C58.652845478057856,87.31300812959671 58.652845478057856,87.31300812959671 58.652845478057856,87.21300812959672 C58.652845478057856,87.31300812959671 58.652845478057856,87.31300812959671 58.652845478057856,87.21300812959672 L58.652845478057856,87.21300812959672 z" id="svg_18"/>
	<path class="st62" d="M69.35284547805786,148.21300812959672 c-0.1,2.7 -1.3,4.7 -3.4,6.4 c-2.9,2.4 -6.2,4.1 -9.6,5.5 c-0.5,0.2 -1,0.3000000000000001 -1.5,0 c-0.7000000000000002,-0.4 -0.8,-0.9 -0.4,-1.6 c0.8,-1.1 1.5,-2.2 2.2,-3.3 c1.3,-2.1 2,-4.3 2.2,-6.7 c0.1,-1.3 0.4,-2.6 1.4,-3.6 c1.6,-1.6 4.3,-1.9 6.2,-0.5 c0.9,0.6000000000000002 1.7000000000000002,1.3 2.4,2.2 C69.25284547805786,147.11300812959672 69.45284547805787,147.61300812959672 69.35284547805786,148.21300812959672 z" id="svg_19"/>
	<path class="st62" d="M30.95284547805786,149.11300812959672 c0,-2.7 2.2,-5.1 4.9,-5.5 c2.9,-0.5 5.3,1.6 5.5,4.7 c0.2,2.9 1,5.6 2.8,8 c0.2,0.2 0.3000000000000001,0.4 0.5,0.6000000000000002 c0.2,0.2 0.3000000000000001,0.4 0.3000000000000001,0.7000000000000002 c0,0.2 0.2,0.4 0.3000000000000001,0.5 c0.3000000000000001,0.3000000000000001 0.5,0.7000000000000002 0.7000000000000002,1 c0.2,0.3000000000000001 0.1,0.6000000000000002 -0.2,0.9 c-0.4,0.3000000000000001 -0.8,0.5 -1.4,0.4 c-0.5,-0.1 -1,-0.3000000000000001 -1.5,-0.5 c-2.4,-1.2 -4.8,-2.3 -7,-3.9 c-1.6,-1.2 -3.2,-2.5 -4.2,-4.2 C31.252845478057864,150.8130081295967 30.95284547805786,150.0130081295967 30.95284547805786,149.11300812959672 z" id="svg_20"/>
	<path class="st3" d="M30.752845478057864,160.9130081295967 c1.5,0.8 2.9,1.7000000000000002 4.5,2.4 c3.5,1.8 7.1,3.2 11,4 c4.7,0.9 9.2,0.4 13.6,-1.5 c2.9,-1.3 5.5,-3 8,-4.9 c0.1,-0.1 0.2,-0.2 0.4,-0.2 l0,0 c-0.3000000000000001,0.8 -0.8,1.4 -1.3,2.1 c-2.9,3.8 -6.5,6.6 -11.2,7.8 c-4,1.1 -8,0.9 -12,-0.5 c-5,-1.7000000000000002 -9.2,-4.6 -12.5,-8.8 C30.95284547805786,161.21300812959672 30.752845478057864,161.11300812959672 30.752845478057864,160.9130081295967 L30.752845478057864,160.9130081295967 z" id="svg_21"/>
	<path class="st3" d="M68.05284547805786,160.61300812959672 C68.05284547805786,160.61300812959672 68.05284547805786,160.61300812959672 68.05284547805786,160.61300812959672 C68.05284547805786,160.61300812959672 68.05284547805786,160.61300812959672 68.05284547805786,160.61300812959672 C68.05284547805786,160.61300812959672 68.05284547805786,160.61300812959672 68.05284547805786,160.61300812959672 L68.05284547805786,160.61300812959672 z" id="svg_22"/>
	<path class="st3" d="M30.752845478057864,160.9130081295967 C30.752845478057864,160.9130081295967 30.752845478057864,160.9130081295967 30.752845478057864,160.9130081295967 C30.752845478057864,160.9130081295967 30.752845478057864,160.9130081295967 30.752845478057864,160.9130081295967 L30.752845478057864,160.9130081295967 z" id="svg_23"/>
	<path class="st61" d="M52.55284547805786,55.61300812959671 c0,0.4 0.2,0.8 0.3000000000000001,1.2 c0.3000000000000001,2 -0.1,3.9 -1.1,5.7 c-0.2,0.4 -0.5,0.8 -0.8,1.2 c-1.2,-2.3 -1.8,-4.7 -2.1,-7.3 c-1.1,2.2 -1.9,4.4 -2.3,6.7 c-0.3000000000000001,-0.9 -0.7000000000000002,-1.8 -1.2,-2.7 c-0.5,-1 -1.2,-1.9 -1.8,-2.8 c1.2,-1.7000000000000002 2.9,-2.7 4.9,-2.9 c0.1,0 0.2,0 0.3000000000000001,-0.1 c0.4,0 0.7000000000000002,0 1.1,0 c0.9,0.1 1.7000000000000002,0.3000000000000001 2.5,0.7000000000000002 C52.35284547805786,55.41300812959671 52.45284547805787,55.51300812959671 52.55284547805786,55.61300812959671 z" id="svg_24"/>
	<path class="st61" d="M48.752845478057864,46.51300812959671 c-2.5,-0.5 -3.5,-3.4 -1.9,-5.4 c1.1,-1.4 3.2,-1.6 4.6,-0.5 c1.4,1.1 1.6,3.2 0.5,4.6 c-0.6000000000000002,0.7000000000000002 -1.3,1.1 -2.2,1.3 C49.45284547805787,46.61300812959671 49.05284547805786,46.51300812959671 48.752845478057864,46.51300812959671 z" id="svg_25"/>
	<path class="st62" d="M48.752845478057864,46.51300812959671 c0.3000000000000001,0 0.7000000000000002,0.1 1,0 c0,2.4 0,4.8 0,7.2 c0,0.3000000000000001 0,0.7000000000000002 0,1 c-0.4,0 -0.7000000000000002,0 -1.1,0 C48.752845478057864,52.01300812959671 48.752845478057864,49.21300812959671 48.752845478057864,46.51300812959671 z" id="svg_26"/>
	<path class="st61" d="M56.252845478057864,60.71300812959671 c-0.3000000000000001,0.4 -0.6000000000000002,0.7000000000000002 -0.8,1.2 c-0.7000000000000002,-2.2 -1.7000000000000002,-4.3 -2.8,-6.2 c0.9,0.3000000000000001 1.5,1 2.1,1.7000000000000002 c0.8,0.9 1.2,2 1.5,3.1 C56.252845478057864,60.61300812959671 56.252845478057864,60.61300812959671 56.252845478057864,60.71300812959671 z" id="svg_27"/>
	<path class="st63" d="M39.752845478057864,59.01300812959671 c-0.3000000000000001,-0.5 -0.3000000000000001,-1 -0.4,-1.5 c-0.2,-1 -0.2,-2 0,-2.9 c0,-0.1 0,-0.1 0.1,-0.1 C39.55284547805786,55.91300812959671 39.65284547805786,57.41300812959671 39.752845478057864,59.01300812959671 z" id="svg_28"/>
	<path class="st62" d="M41.85284547805786,56.01300812959671 C41.85284547805786,56.01300812959671 41.752845478057864,56.01300812959671 41.85284547805786,56.01300812959671 C41.752845478057864,55.91300812959671 41.85284547805786,55.91300812959671 41.85284547805786,56.01300812959671 C41.85284547805786,55.91300812959671 41.85284547805786,56.01300812959671 41.85284547805786,56.01300812959671 L41.85284547805786,56.01300812959671 z" id="svg_29"/>
	<path class="st63" d="M53.152845478057856,73.4130081295967 C53.152845478057856,73.4130081295967 53.152845478057856,73.4130081295967 53.152845478057856,73.4130081295967 C53.152845478057856,73.4130081295967 53.152845478057856,73.4130081295967 53.152845478057856,73.4130081295967 L53.152845478057856,73.4130081295967 z" id="svg_30"/>
	<path class="st62" d="M62.95284547805787,119.61300812959671 c-1.1,0 -2.1,-0.1 -3.2,-0.4 c-2,-0.6000000000000002 -3.3,-1.9 -4.1,-3.8 c-0.8,-1.9 -1,-4 -0.5,-5.9 c0.6000000000000002,-2.6 2.4,-4.2 4.8,-5.1 c1.3,-0.5 2.7,-0.6000000000000002 4,-0.3000000000000001 c1.3,0.2 1.8,1.6 0.9,2.7 c-0.2,0.3000000000000001 -0.5,0.5 -0.8,0.8 c-0.7000000000000002,0.9 -0.8,1.9 -0.1,2.8 c0.7000000000000002,1.1 1.7000000000000002,1.4 2.8,1.1 c0.3000000000000001,-0.1 0.6000000000000002,-0.2 0.9,-0.4 c0.2,-0.1 0.5,-0.3000000000000001 0.8,-0.4 c1.1,-0.4 2,0.1 2.2,1.3 c0.1,1 -0.2,1.9 -0.6000000000000002,2.8 c-1,2.4 -2.7,4.1 -5.3,4.7 C64.25284547805786,119.61300812959671 63.652845478057856,119.61300812959671 62.95284547805787,119.61300812959671 z" id="svg_31"/>
	<path class="st62" d="M26.95284547805786,111.9130081295967 c0,-4.1 2.8,-7.3 6.6,-8 c0.8,-0.1 1.6,-0.2 2.4,-0.1 c0.6000000000000002,0.1 1.1,0.3000000000000001 1.4,0.8 c0.4,0.7000000000000002 0.4,1.3 -0.1,1.9 c-0.1,0.1 -0.3000000000000001,0.3000000000000001 -0.4,0.4 c-1.4,1.3 -1.3,2.8 0.2,4 c0.8,0.6000000000000002 1.6,0.7000000000000002 2.5,0.2 c0.3000000000000001,-0.1 0.5,-0.3000000000000001 0.7000000000000002,-0.4 c1.3,-1 2.3,-0.1 2.4,1.1 c0.3000000000000001,2.9 -1,5.1 -3.4,6.7 c-1.3,0.9 -2.7,1.2 -4.3,1.1 c-0.9,-0.1 -1.7000000000000002,0 -2.6,-0.3000000000000001 c-2.8,-0.8 -4.4,-2.8 -5.2,-5.6 c-0.1,-0.3000000000000001 -0.1,-0.5 -0.2,-0.8 C26.95284547805786,112.61300812959671 26.95284547805786,112.21300812959672 26.95284547805786,111.9130081295967 z" id="svg_32"/>
</g></g></svg>