<svg id="Layer_1" data-name="Layer 1" xmlns="http://www.w3.org/2000/svg" xmlns:xlink="http://www.w3.org/1999/xlink" viewBox="0 0 719 265"><defs><style>.cls-1{fill:none;}.cls-2{fill:#273274;}.cls-3{clip-path:url(#clip-path);}.cls-4{clip-path:url(#clip-path-2);}.cls-15,.cls-5,.cls-6,.cls-7{fill:#fff;}.cls-10,.cls-11,.cls-12,.cls-14,.cls-15,.cls-6,.cls-7,.cls-9{stroke:#273274;stroke-miterlimit:10;}.cls-11,.cls-6{stroke-width:4px;}.cls-10,.cls-14,.cls-7{stroke-width:2px;}.cls-10,.cls-12,.cls-8,.cls-9{fill:#ff544e;}.cls-15,.cls-9{stroke-width:3px;}.cls-11,.cls-13,.cls-14{fill:#ff8c58;}.cls-12{stroke-width:5px;}</style><clipPath id="clip-path"><rect class="cls-1" x="-1" y="-3.38" width="720" height="275.77"/></clipPath><clipPath id="clip-path-2"><rect class="cls-1" x="-104.9" y="-3.38" width="991.98" height="269.75"/></clipPath></defs><title>openebs hacktober section</title><rect class="cls-2" x="-1" width="720" height="267"/><g class="cls-3"><g class="cls-4"><path class="cls-5" d="M704,169.68q0-7.44,0-14.88c0-11.24,0-22.49,0-33.73a6.74,6.74,0,0,0-1.38-4.23c-4.27-5.91-8.51-11.86-12.63-17.88-.85-1.24-2.6-3-1.23-4.26s2.94.69,4.07,1.71c3.61,3.26,7.09,6.67,11.15,10.52,0-7.34-.27-14.11.08-20.85s.72-13.33,3.46-19.84c1.72,1.52,1.84,3.29,2.1,4.94,1.75,11,2,22.17,2.42,33.29,1.09,32.25,1.7,64.5,2.32,96.76.11,5.57.36,11.13.43,16.7,0,1.71.34,2.16,2.12,1.55,8.34-2.86,15.41-7.77,21.91-13.53,14.69-13,24.95-28.81,28.73-48.35,2.76-14.29,1-28.31-3.11-42.07-6.22-20.88-16.63-39.35-32.27-54.71a71.92,71.92,0,0,0-8.94-7.24c-7.73-5.48-15.79-6.25-24.48-2.41-16.64,7.37-30,18.89-41.24,32.91-9.21,11.44-16.07,24.12-18.8,38.71-3.27,17.46.34,33.85,8.69,49.2,11.11,20.42,26.78,36.14,48.52,45.25,1.76.74,3.64,1.21,5.45,1.83,1.64.55,2.43.28,2.43-1.74q-.06-15.56.1-31.13a5.23,5.23,0,0,0-1.56-3.54c-8.07-9.9-16.55-19.46-24.1-29.78a40.74,40.74,0,0,1-5.41-10.43c-.28-.77-1.17-1.87-.06-2.59.85-.55,1.65.31,2.27.83,2.28,1.91,4.58,3.8,6.72,5.86C689.44,153.89,696.29,161.94,704,169.68Z"/><circle class="cls-6" cx="680.06" cy="89.71" r="4.79"/><path class="cls-5" d="M708.3,301.64l-4.06.07a9.4,9.4,0,0,0-1.08-2q0-6,.12-12.05a2.6,2.6,0,0,0,.95-1.6c.1-1.11-.73-2.18-1-3.28.14.37.2-1.1.27-1.36.37-1.44.59-3-.68-4.36l.63,0q0-3.52,0-7c0-5.93,0-11.86.06-17.79a2.39,2.39,0,0,0,.15-2.91l0-.06c.19-.29-.32-.8-.39-1.08a6.11,6.11,0,0,1-.12-1c.34-.36.38-.54.31-.58a1.68,1.68,0,0,0-.09-1.78c.57-7-1.59-13.84,5.6-20.56,3.29.7,3.27,1.68,3.71,2.53,2.84,5.54,3.32,11.14,3.92,16.73,1.76,16.54,2.77,33.09,3.78,49.63.17,2.85.7,5.69.67,8.54a1.32,1.32,0,0,0,0,.18C716.78,301.67,712.58,301.57,708.3,301.64Z"/><circle class="cls-7" cx="668.04" cy="134.28" r="3.9"/><path class="cls-8" d="M571.08,120.22q0-6.72,0-13.44c0-10.16,0-20.32,0-30.47a6.09,6.09,0,0,1,1.25-3.82c3.86-5.34,7.69-10.71,11.41-16.15.77-1.12,2.35-2.75,1.11-3.85s-2.66.62-3.68,1.55c-3.26,2.95-6.41,6-10.07,9.51,0-6.63.25-12.75-.07-18.84s-.65-12-3.13-17.93c-1.56,1.37-1.66,3-1.9,4.47-1.58,10-1.85,20-2.19,30.08-1,29.13-1.53,58.28-2.1,87.42-.1,5-.33,10.06-.39,15.08,0,1.54-.31,2-1.92,1.4-7.53-2.59-13.93-7-19.79-12.23-13.28-11.79-22.54-26-26-43.68-2.49-12.91-.89-25.57,2.81-38,5.62-18.87,15-35.55,29.15-49.43a65,65,0,0,1,8.08-6.54c7-5,14.27-5.65,22.11-2.18,15,6.66,27.06,17.07,37.26,29.73,8.32,10.34,14.52,21.79,17,35,3,15.77-.31,30.58-7.86,44.45-10,18.45-24.2,32.65-43.83,40.88-1.59.67-3.29,1.1-4.93,1.65-1.48.5-2.2.25-2.19-1.58q.06-14.06-.09-28.13a4.72,4.72,0,0,1,1.41-3.19c7.29-8.94,15-17.58,21.77-26.9a36.81,36.81,0,0,0,4.89-9.43c.25-.7,1.06-1.69.05-2.34-.77-.49-1.49.28-2.05.75-2.06,1.72-4.14,3.43-6.07,5.3C584.26,106,578.07,113.23,571.08,120.22Z"/><circle class="cls-2" cx="592.74" cy="47.97" r="4.33"/><path class="cls-8" d="M567.22,292.24l3.67.11a20.39,20.39,0,0,1,1-3.2q0-9.55-.11-19.1a5.36,5.36,0,0,1-.86-2.54c-.09-1.76.66-3.45.92-5.19-.13.59-.18-1.74-.24-2.16-.34-2.28-.54-4.68.61-6.9l-.57-.08q0-5.57,0-11.14c0-9.4,0-18.8-.05-28.2a6.17,6.17,0,0,1-.13-4.62l0-.1c-.17-.46.29-1.26.35-1.72s.09-1.11.11-1.66c-.3-.56-.34-.85-.28-.92a4.42,4.42,0,0,1,.09-2.82c-.52-11.09,1.44-21.93-5.06-32.58-3,1.11-3,2.66-3.35,4-2.56,8.78-3,17.65-3.54,26.52-1.59,26.21-2.51,52.43-3.41,78.65-.16,4.51-.63,9-.61,13.53,0,.1,0,.2,0,.29C559.56,292.28,563.36,292.13,567.22,292.24Z"/><path class="cls-8" d="M120.05,236.35q0-4.59,0-9.19c0-6.94,0-13.89,0-20.83a4.16,4.16,0,0,1,.85-2.61c2.64-3.65,5.25-7.32,7.8-11,.52-.77,1.61-1.88.76-2.63s-1.82.43-2.52,1.06c-2.23,2-4.38,4.12-6.89,6.5,0-4.53.17-8.71,0-12.88s-.44-8.23-2.14-12.25a4.4,4.4,0,0,0-1.3,3.05,166.51,166.51,0,0,0-1.49,20.56c-.67,19.91-1,39.83-1.43,59.75-.07,3.44-.22,6.87-.27,10.31,0,1.06-.21,1.33-1.31,1a40.11,40.11,0,0,1-13.53-8.36C89.45,250.7,83.12,241,80.79,228.9c-1.7-8.82-.61-17.48,1.92-26a77.35,77.35,0,0,1,19.93-33.78,44.42,44.42,0,0,1,5.52-4.47,14.37,14.37,0,0,1,15.11-1.49c10.28,4.55,18.5,11.67,25.47,20.32,5.69,7.07,9.92,14.9,11.61,23.9,2,10.78-.21,20.9-5.37,30.38-6.86,12.61-16.54,22.32-30,27.94-1.09.46-2.25.75-3.37,1.13s-1.5.17-1.5-1.08q0-9.61-.06-19.22a3.23,3.23,0,0,1,1-2.18c5-6.11,10.22-12,14.88-18.39a25.16,25.16,0,0,0,3.34-6.44c.17-.48.72-1.16,0-1.6-.53-.34-1,.19-1.4.51-1.41,1.18-2.83,2.35-4.15,3.62C129.06,226.6,124.83,231.58,120.05,236.35Z"/><circle class="cls-2" cx="134.86" cy="186.97" r="2.96"/><path class="cls-5" d="M-.45,220.93q0-3.3,0-6.61c0-5,0-10,0-15a3,3,0,0,1,.61-1.88c1.9-2.63,3.78-5.26,5.61-7.94.38-.55,1.16-1.35.55-1.89s-1.31.31-1.81.76c-1.6,1.45-3.15,3-5,4.67,0-3.26.12-6.26,0-9.26A25.39,25.39,0,0,0-2,175,3.16,3.16,0,0,0-3,177.21,119.69,119.69,0,0,0-4,192c-.49,14.31-.75,28.63-1,43,0,2.47-.16,4.94-.19,7.41,0,.76-.15,1-.94.69a28.83,28.83,0,0,1-9.73-6c-6.52-5.79-11.08-12.79-12.75-21.46a38.85,38.85,0,0,1,1.38-18.68A55.6,55.6,0,0,1-13,172.6a31.93,31.93,0,0,1,4-3.22,10.33,10.33,0,0,1,10.87-1.07,48.94,48.94,0,0,1,18.31,14.61,38.64,38.64,0,0,1,8.35,17.18c1.45,7.75-.15,15-3.86,21.84C19.72,231,12.76,238,3.12,242c-.78.33-1.61.54-2.42.81s-1.08.12-1.08-.77q0-6.91,0-13.82a2.32,2.32,0,0,1,.69-1.57c3.58-4.39,7.35-8.64,10.7-13.22a18.08,18.08,0,0,0,2.4-4.63c.12-.34.52-.83,0-1.15s-.73.14-1,.37c-1,.85-2,1.69-3,2.6C6,213.92,3,217.49-.45,220.93Z"/><circle class="cls-7" cx="10.19" cy="185.43" r="2.13"/><path class="cls-5" d="M-2.35,279.51l1.8,0a4.17,4.17,0,0,1,.48-.9q0-2.68-.05-5.35a1.15,1.15,0,0,1-.42-.71c0-.49.32-1,.45-1.45-.06.17-.09-.49-.12-.61a1.89,1.89,0,0,1,.3-1.93l-.28,0q0-1.56,0-3.12c0-2.63,0-5.27,0-7.9a1.06,1.06,0,0,1-.07-1.29v0c-.08-.13.14-.35.17-.48a2.71,2.71,0,0,0,.05-.46c-.15-.16-.17-.24-.14-.26a.75.75,0,0,1,0-.79c-.25-3.11.71-6.14-2.49-9.13-1.46.31-1.45.74-1.65,1.12A20.1,20.1,0,0,0-6,253.66c-.78,7.34-1.23,14.69-1.68,22-.08,1.26-.31,2.53-.3,3.79a.58.58,0,0,1,0,.08C-6.11,279.52-4.25,279.48-2.35,279.51Z"/><path class="cls-8" d="M407.61,153.59q0-6.54,0-13.08c0-9.88,0-19.77,0-29.65a5.92,5.92,0,0,1,1.21-3.72c3.76-5.2,7.48-10.42,11.1-15.71.75-1.09,2.29-2.67,1.08-3.74s-2.59.61-3.58,1.5c-3.18,2.87-6.23,5.86-9.8,9.25,0-6.45.24-12.4-.07-18.33s-.63-11.71-3-17.44C403,64,402.87,65.57,402.64,67c-1.54,9.69-1.8,19.48-2.13,29.27-1,28.34-1.49,56.7-2,85.05-.09,4.89-.32,9.78-.38,14.68,0,1.5-.3,1.9-1.87,1.36-7.33-2.52-13.55-6.83-19.26-11.9C364,174,355,160.16,351.71,143c-2.43-12.56-.87-24.88,2.74-37,5.47-18.36,14.62-34.59,28.36-48.09a63.22,63.22,0,0,1,7.86-6.37c6.8-4.82,13.88-5.5,21.51-2.12C426.81,55.9,438.51,66,448.43,78.35c8.1,10.06,14.13,21.2,16.53,34,2.88,15.34-.3,29.75-7.64,43.25-9.77,17.95-23.54,31.77-42.65,39.78-1.55.65-3.2,1.07-4.79,1.61-1.44.49-2.14.24-2.13-1.53q.06-13.68-.09-27.36A4.59,4.59,0,0,1,409,165c7.09-8.7,14.55-17.1,21.18-26.17a35.81,35.81,0,0,0,4.76-9.17c.24-.68,1-1.65.05-2.27-.75-.48-1.45.27-2,.73-2,1.67-4,3.34-5.91,5.15C420.43,139.72,414.41,146.79,407.61,153.59Z"/><circle class="cls-9" cx="441.64" cy="122.85" r="4.21"/><circle class="cls-10" cx="426.86" cy="82.75" r="3.58"/><path class="cls-8" d="M403.85,269.59l3.57.06a8.26,8.26,0,0,1,1-1.77q0-5.3-.11-10.59a2.29,2.29,0,0,1-.83-1.41c-.09-1,.64-1.91.9-2.88-.13.33-.17-1-.23-1.2a3.75,3.75,0,0,1,.6-3.83l-.55,0q0-3.09,0-6.18c0-5.21,0-10.43-.05-15.64a2.1,2.1,0,0,1-.13-2.56l0-.05c-.16-.25.28-.7.34-1a5.37,5.37,0,0,0,.11-.92c-.3-.31-.33-.47-.27-.51a1.48,1.48,0,0,1,.08-1.57c-.5-6.15,1.4-12.17-4.92-18.07-2.9.62-2.87,1.47-3.26,2.23-2.49,4.87-2.92,9.79-3.44,14.71-1.55,14.54-2.44,29.08-3.32,43.63-.15,2.5-.62,5-.59,7.51a1.16,1.16,0,0,1,0,.16C396.4,269.61,400.09,269.53,403.85,269.59Z"/><path class="cls-5" d="M496.8,193.92q0-4.94,0-9.87c0-7.46,0-14.92,0-22.38a4.47,4.47,0,0,1,.91-2.81c2.84-3.92,5.65-7.87,8.38-11.86.56-.82,1.73-2,.82-2.83s-2,.46-2.7,1.14c-2.4,2.17-4.71,4.43-7.4,7,0-4.87.18-9.37-.05-13.84s-.47-8.84-2.3-13.17a4.73,4.73,0,0,0-1.39,3.28,178.94,178.94,0,0,0-1.61,22.1c-.73,21.4-1.13,42.81-1.54,64.21-.07,3.69-.24,7.39-.29,11.08,0,1.13-.22,1.43-1.41,1a43.11,43.11,0,0,1-14.54-9c-9.75-8.66-16.56-19.12-19.06-32.09-1.83-9.48-.65-18.78,2.07-27.92a83.12,83.12,0,0,1,21.41-36.31,47.73,47.73,0,0,1,5.93-4.81,15.44,15.44,0,0,1,16.24-1.6c11,4.89,19.88,12.54,27.37,21.84,6.11,7.59,10.66,16,12.48,25.69,2.17,11.59-.23,22.46-5.77,32.65-7.37,13.55-17.77,24-32.2,30-1.17.49-2.41.81-3.62,1.21s-1.62.18-1.61-1.16q0-10.33-.07-20.66a3.47,3.47,0,0,1,1-2.35c5.35-6.57,11-12.91,16-19.76a27,27,0,0,0,3.59-6.92c.18-.51.78-1.24,0-1.72-.56-.36-1.09.21-1.51.55-1.51,1.26-3,2.52-4.46,3.89C506.48,183.45,501.94,188.79,496.8,193.92Z"/><circle class="cls-7" cx="522.5" cy="170.71" r="3.18"/><circle class="cls-2" cx="512.71" cy="140.85" r="3.18"/><path class="cls-5" d="M494,289.5l2.69.06a7.63,7.63,0,0,1,.72-1.55q0-4.62-.08-9.24a2.08,2.08,0,0,1-.63-1.23,8.92,8.92,0,0,1,.68-2.51c-.1.29-.13-.84-.18-1a3.68,3.68,0,0,1,.45-3.34l-.42,0q0-2.7,0-5.39c0-4.55,0-9.1,0-13.65a2.06,2.06,0,0,1-.1-2.23l0,0c-.12-.22.21-.61.26-.83a5.39,5.39,0,0,0,.08-.8c-.22-.27-.25-.41-.21-.45a1.46,1.46,0,0,1,.06-1.37c-.38-5.37,1.06-10.61-3.72-15.76-2.19.54-2.17,1.29-2.46,1.94-1.88,4.25-2.2,8.54-2.6,12.83-1.17,12.68-1.84,25.37-2.51,38.06-.11,2.18-.47,4.37-.45,6.55a1.16,1.16,0,0,1,0,.14C488.34,289.52,491.13,289.44,494,289.5Z"/><circle class="cls-2" cx="353.49" cy="200.85" r="3.94"/><circle class="cls-11" cx="341.37" cy="163.87" r="3.94"/><path class="cls-8" d="M183.33,148.86q0-5.61,0-11.21c0-8.47,0-16.95,0-25.42a5.08,5.08,0,0,1,1-3.19c3.22-4.46,6.41-8.94,9.52-13.47.64-.94,2-2.29.93-3.21s-2.22.52-3.07,1.29c-2.72,2.46-5.35,5-8.41,7.93,0-5.53.2-10.64-.06-15.72s-.54-10-2.61-15c-1.3,1.14-1.38,2.48-1.58,3.73-1.32,8.31-1.54,16.71-1.82,25.1-.82,24.3-1.28,48.62-1.75,72.93-.08,4.2-.27,8.39-.33,12.58,0,1.29-.25,1.63-1.6,1.17A49,49,0,0,1,157,176.21c-11.08-9.84-18.81-21.71-21.65-36.44-2.08-10.77-.74-21.34,2.35-31.71,4.69-15.74,12.54-29.66,24.32-41.24a54.21,54.21,0,0,1,6.74-5.46c5.83-4.13,11.9-4.71,18.45-1.82,12.55,5.55,22.58,14.24,31.08,24.81,6.94,8.63,12.11,18.18,14.17,29.18,2.47,13.16-.26,25.51-6.55,37.08-8.38,15.39-20.19,27.24-36.57,34.11-1.33.56-2.74.91-4.11,1.38s-1.83.21-1.83-1.31q0-11.73-.08-23.46a3.94,3.94,0,0,1,1.18-2.67c6.08-7.46,12.47-14.67,18.16-22.44a30.71,30.71,0,0,0,4.08-7.86c.21-.58.88-1.41,0-2-.64-.41-1.24.23-1.71.63-1.72,1.44-3.46,2.87-5.07,4.42C194.32,137,189.16,143,183.33,148.86Z"/><circle class="cls-12" cx="212.51" cy="122.5" r="3.61"/><circle class="cls-10" cx="201.39" cy="88.59" r="3.61"/><path class="cls-8" d="M180.1,271.5l3.06.08a11.6,11.6,0,0,1,.82-2.12q0-6.34-.09-12.69a3.11,3.11,0,0,1-.71-1.69c-.08-1.17.55-2.29.77-3.45-.11.39-.15-1.16-.2-1.44a6,6,0,0,1,.51-4.58l-.48-.05q0-3.7,0-7.4c0-6.24,0-12.49,0-18.73a3.33,3.33,0,0,1-.11-3.07l0-.06c-.14-.3.24-.84.29-1.14A8.89,8.89,0,0,0,184,214c-.25-.37-.28-.56-.23-.61a2.37,2.37,0,0,1,.07-1.88c-.43-7.37,1.2-14.57-4.22-21.64-2.48.74-2.46,1.77-2.79,2.67-2.14,5.83-2.5,11.73-3,17.62-1.33,17.41-2.09,34.83-2.85,52.25-.13,3-.53,6-.51,9a1.93,1.93,0,0,1,0,.19C173.71,271.53,176.88,271.42,180.1,271.5Z"/><path class="cls-13" d="M629.44,196.61q0-5,0-9.91c0-7.49,0-15,0-22.46a4.49,4.49,0,0,1,.92-2.82c2.84-3.94,5.66-7.9,8.41-11.9.57-.83,1.73-2,.82-2.83s-2,.46-2.71,1.14c-2.41,2.17-4.72,4.44-7.42,7,0-4.89.18-9.4-.05-13.88s-.48-8.87-2.3-13.21a4.74,4.74,0,0,0-1.4,3.29,179.53,179.53,0,0,0-1.61,22.17c-.73,21.47-1.13,42.95-1.55,64.43-.07,3.71-.24,7.41-.29,11.12,0,1.14-.22,1.44-1.41,1a43.25,43.25,0,0,1-14.59-9c-9.78-8.69-16.61-19.18-19.13-32.19-1.84-9.51-.66-18.85,2.07-28a83.4,83.4,0,0,1,21.48-36.43,47.89,47.89,0,0,1,6-4.82,15.49,15.49,0,0,1,16.3-1.6c11.08,4.91,19.94,12.58,27.46,21.91,6.14,7.62,10.7,16.06,12.52,25.77,2.18,11.62-.23,22.54-5.79,32.76-7.4,13.6-17.83,24.06-32.3,30.13-1.17.49-2.42.81-3.63,1.22s-1.62.18-1.61-1.16q0-10.36-.07-20.73a3.48,3.48,0,0,1,1-2.35c5.37-6.59,11-13,16-19.83a27.12,27.12,0,0,0,3.6-6.95c.18-.51.78-1.25,0-1.72-.57-.36-1.1.21-1.51.55-1.52,1.27-3.05,2.53-4.48,3.9C639.15,186.1,634.59,191.46,629.44,196.61Z"/><circle class="cls-13" cx="655.22" cy="173.32" r="3.19"/><path class="cls-13" d="M626.59,284.48l2.7,0a6.26,6.26,0,0,1,.72-1.34q0-4-.08-8a1.73,1.73,0,0,1-.63-1.07c-.07-.74.49-1.45.68-2.18-.1.25-.13-.73-.18-.91a2.84,2.84,0,0,1,.45-2.9l-.42,0q0-2.34,0-4.68c0-3.95,0-7.9,0-11.85a1.59,1.59,0,0,1-.1-1.94l0,0c-.12-.19.21-.53.26-.72a4.07,4.07,0,0,0,.08-.7c-.22-.24-.25-.36-.21-.39a1.12,1.12,0,0,1,.06-1.19c-.38-4.66,1.06-9.22-3.73-13.69-2.19.47-2.18,1.12-2.47,1.69-1.89,3.69-2.21,7.42-2.61,11.14-1.17,11-1.85,22-2.52,33-.12,1.9-.47,3.79-.45,5.69a.88.88,0,0,1,0,.12C620.95,284.49,623.75,284.43,626.59,284.48Z"/><path class="cls-13" d="M67.56,163.18q0-6.9,0-13.8c0-10.43,0-20.85,0-31.28a6.25,6.25,0,0,1,1.28-3.92c4-5.48,7.89-11,11.71-16.58.79-1.15,2.42-2.82,1.14-3.95s-2.73.64-3.78,1.59c-3.35,3-6.58,6.19-10.34,9.76,0-6.81.25-13.09-.07-19.34s-.66-12.36-3.21-18.4c-1.6,1.41-1.7,3-1.95,4.58-1.63,10.23-1.9,20.55-2.24,30.88-1,29.9-1.58,59.82-2.15,89.73-.1,5.16-.34,10.32-.4,15.48,0,1.59-.31,2-2,1.44-7.73-2.66-14.29-7.2-20.32-12.55C21.6,184.72,12.09,170.11,8.59,152c-2.56-13.25-.91-26.25,2.89-39C17.24,93.6,26.9,76.48,41.4,62.24a66.7,66.7,0,0,1,8.29-6.72c7.17-5.08,14.64-5.8,22.7-2.23,15.44,6.83,27.78,17.52,38.24,30.52,8.54,10.61,14.9,22.37,17.44,35.9,3,16.19-.32,31.39-8.06,45.62-10.3,18.93-24.84,33.51-45,42-1.63.69-3.37,1.13-5.06,1.69-1.52.51-2.26.26-2.25-1.62q.06-14.43-.09-28.87a4.85,4.85,0,0,1,1.45-3.28c7.48-9.18,15.35-18,22.35-27.61a37.78,37.78,0,0,0,5-9.67c.26-.72,1.09-1.74.05-2.4-.79-.51-1.53.29-2.11.77-2.12,1.77-4.25,3.53-6.23,5.44C81.08,148.54,74.73,156,67.56,163.18Z"/><circle class="cls-14" cx="89.79" cy="89.03" r="4.45"/><path class="cls-13" d="M63.59,285.56l3.76.07a8.71,8.71,0,0,1,1-1.87q0-5.59-.11-11.18a2.41,2.41,0,0,1-.88-1.49c-.09-1,.68-2,.95-3-.13.35-.18-1-.25-1.27-.35-1.33-.55-2.74.63-4l-.59,0q0-3.26,0-6.52c0-5.5,0-11-.05-16.5a2.22,2.22,0,0,1-.14-2.7l0-.06c-.17-.27.3-.74.36-1a5.67,5.67,0,0,0,.11-1c-.31-.33-.35-.5-.29-.54a1.56,1.56,0,0,1,.09-1.65c-.53-6.49,1.47-12.84-5.19-19.06-3.05.65-3,1.56-3.44,2.35C57,221.17,56.51,226.37,56,231.55c-1.63,15.34-2.57,30.68-3.5,46-.16,2.64-.65,5.28-.62,7.92a1.22,1.22,0,0,1,0,.17C55.73,285.58,59.63,285.49,63.59,285.56Z"/><circle class="cls-2" cx="101.9" cy="130.39" r="3.61"/><circle class="cls-10" cx="144.59" cy="212.22" r="3.61"/><path class="cls-5" d="M254.2,146.43q0-6.9,0-13.8c0-10.43,0-20.85,0-31.28a6.25,6.25,0,0,1,1.28-3.92c4-5.48,7.89-11,11.71-16.58.79-1.15,2.42-2.82,1.14-3.95s-2.73.64-3.78,1.59c-3.35,3-6.58,6.19-10.34,9.76,0-6.81.25-13.09-.07-19.34s-.66-12.36-3.21-18.4c-1.6,1.41-1.7,3-1.95,4.58-1.63,10.23-1.9,20.55-2.24,30.88-1,29.9-1.58,59.82-2.15,89.73-.1,5.16-.34,10.32-.4,15.48,0,1.59-.31,2-2,1.44-7.73-2.66-14.29-7.2-20.32-12.55-13.63-12.1-23.14-26.71-26.64-44.84-2.56-13.25-.91-26.25,2.89-39,5.77-19.37,15.43-36.49,29.92-50.73a66.7,66.7,0,0,1,8.29-6.72C243.5,33.69,251,33,259,36.54c15.44,6.83,27.78,17.52,38.24,30.52,8.54,10.61,14.9,22.37,17.44,35.9,3,16.19-.32,31.39-8.06,45.62-10.3,18.93-24.84,33.51-45,42-1.63.69-3.37,1.13-5.06,1.69-1.52.51-2.26.26-2.25-1.62q.06-14.43-.09-28.87a4.85,4.85,0,0,1,1.45-3.28c7.48-9.18,15.35-18,22.35-27.61a37.78,37.78,0,0,0,5-9.67c.26-.72,1.09-1.74.05-2.4-.79-.51-1.53.29-2.11.77-2.12,1.77-4.25,3.53-6.23,5.44C267.73,131.8,261.38,139.26,254.2,146.43Z"/><circle class="cls-15" cx="276.43" cy="72.28" r="4.45"/><path class="cls-5" d="M250.23,268.81l3.76.07a8.71,8.71,0,0,1,1-1.87q0-5.59-.11-11.18a2.41,2.41,0,0,1-.88-1.49c-.09-1,.68-2,.95-3-.13.35-.18-1-.25-1.27-.35-1.33-.55-2.74.63-4l-.59,0q0-3.26,0-6.52c0-5.5,0-11-.05-16.5a2.22,2.22,0,0,1-.14-2.7l0-.06c-.17-.27.3-.74.36-1a5.67,5.67,0,0,0,.11-1c-.31-.33-.35-.5-.29-.54a1.56,1.56,0,0,1,.09-1.65c-.53-6.49,1.47-12.84-5.19-19.06-3.05.65-3,1.56-3.44,2.35-2.63,5.14-3.08,10.33-3.63,15.52-1.63,15.34-2.57,30.68-3.5,46-.16,2.64-.65,5.28-.62,7.92a1.22,1.22,0,0,1,0,.17C242.37,268.83,246.27,268.74,250.23,268.81Z"/><circle class="cls-7" cx="287.57" cy="113.61" r="3.61"/><path class="cls-13" d="M321.66,229.59q0-6.11,0-12.23c0-9.24,0-18.48,0-27.72a5.54,5.54,0,0,1,1.13-3.47c3.51-4.86,7-9.75,10.38-14.69.7-1,2.14-2.5,1-3.5s-2.42.57-3.35,1.41c-3,2.68-5.83,5.48-9.16,8.65,0-6,.22-11.6-.06-17.14s-.59-11-2.84-16.31c-1.42,1.25-1.51,2.7-1.73,4.06-1.44,9.06-1.68,18.22-2,27.36-.9,26.5-1.4,53-1.91,79.52-.09,4.57-.3,9.15-.36,13.72,0,1.4-.28,1.78-1.75,1.27-6.85-2.35-12.67-6.38-18-11.12-12.08-10.72-20.5-23.67-23.61-39.74-2.27-11.74-.81-23.26,2.56-34.58,5.11-17.16,13.67-32.34,26.52-45a59.11,59.11,0,0,1,7.35-6c6.35-4.51,13-5.14,20.12-2,13.68,6.06,24.62,15.53,33.89,27,7.57,9.41,13.21,19.82,15.45,31.81,2.69,14.35-.28,27.82-7.15,40.43-9.13,16.78-22,29.7-39.87,37.19-1.45.61-3,1-4.48,1.5s-2,.23-2-1.43q.05-12.79-.08-25.58a4.3,4.3,0,0,1,1.28-2.91c6.63-8.13,13.6-16,19.8-24.47a33.48,33.48,0,0,0,4.45-8.57c.23-.63,1-1.54,0-2.13-.7-.45-1.35.25-1.87.68-1.88,1.57-3.77,3.12-5.52,4.82C333.65,216.62,328,223.24,321.66,229.59Z"/><circle class="cls-2" cx="645.4" cy="143.37" r="3.19"/><circle class="cls-2" cx="337.94" cy="163.67" r="3.19"/><circle class="cls-14" cx="353.74" cy="197.31" r="4.45"/></g></g></svg>