<svg id="Layer_1" data-name="Layer 1" xmlns="http://www.w3.org/2000/svg" viewBox="0 0 500 500"><defs><style>.cls-1{fill:#73cadb;}.cls-2{fill:#40b791;}.cls-3{fill:#e8a825;}.cls-4{fill:#df1766;}.cls-5{fill:#472b49;}.cls-6{fill:#cd2028;}.cls-7{fill:#20947e;}.cls-8{fill:#67883a;}</style></defs><title>slack icon</title><path class="cls-1" d="M162.65,136.08q16.25-5.32,32.51-10.64Q223.58,116.2,252,107c1.07-.35,2.11-.78,3.16-1.16l.17,0h.17c.18.78.31,1.58.55,2.33q9.81,30.16,19.62,60.32c2.22,6.88,4.77,13.66,6.57,20.68q-15.93,5.21-31.86,10.42-30.28,9.83-60.58,19.62l-.42-.08a11.43,11.43,0,0,0-.25-1.18q-9.26-28.69-18.53-57.37Q166.65,148.34,162.65,136.08Z"/><path class="cls-2" d="M189.4,219.16l.42.08a10.52,10.52,0,0,0,.24,1.17q14.53,44.68,29.08,89.36a3.48,3.48,0,0,0,1.09,2.09,1.53,1.53,0,0,1-.13.28,3.83,3.83,0,0,0-2.34.41q-30.26,9.84-60.53,19.67c-6.87,2.22-13.67,4.66-20.66,6.5-2.61-7.85-5.25-15.68-7.82-23.55q-11-33.6-21.86-67.22c-.12-.38-.2-.77-.3-1.16a4.18,4.18,0,0,1,2.16-.94c6.65-2.13,13.32-4.18,20-6.35,15.26-5,30.52-10,45.74-15.09C179.45,222.72,184.59,221.41,189.4,219.16Z"/><path class="cls-3" d="M365.93,162.61l28,85.71c.67,2.06,1.32,4.13,2,6.2-.81.33-1.59.73-2.42,1Q366.6,264.25,339.76,273q-13.53,4.38-27.08,8.71c-1.07-3.2-2.17-6.39-3.21-9.61q-13.41-41.3-26.81-82.61c.93-.25,1.87-.47,2.79-.77q29.11-9.52,58.21-19.05C351.05,167.22,358.5,164.94,365.93,162.61Z"/><path class="cls-4" d="M220.1,312.13a1.54,1.54,0,0,0,.13-.28c2.3-.68,4.62-1.32,6.91-2.06l85.34-27.49c.37,1,.79,1.93,1.11,2.92q5,15.34,9.93,30.7,8.08,24.85,16.18,49.68l-52.34,16.84-39.93,12.86c-7-21.41-13.9-42.84-20.94-64.23C224.4,324.75,222.62,318.32,220.1,312.13Z"/><path class="cls-5" d="M220.1,312.13c2.52,6.18,4.3,12.62,6.39,18.95,7,21.39,14,42.82,20.94,64.23l-.23.47-52.41,17.09L163.9,423l-.61-.54c-.94-3.07-1.82-6.16-2.81-9.21q-12-37-24.1-74a3.88,3.88,0,0,0,.19-.44c7-1.84,13.79-4.28,20.66-6.5q30.28-9.78,60.53-19.67A3.83,3.83,0,0,1,220.1,312.13Z"/><path class="cls-6" d="M339.7,365.6q-8.09-24.84-16.18-49.68-5-15.34-9.93-30.7c-.32-1-.74-2-1.11-2.92l.2-.64q13.54-4.35,27.08-8.71,26.85-8.7,53.68-17.44c.83-.27,1.62-.66,2.42-1l.89.57a23.35,23.35,0,0,0,.54,2.57c3,9.16,6,18.31,9,27.47q8.34,25.53,16.65,51.06a19.89,19.89,0,0,1,.47,2.34l-.07.17a2.07,2.07,0,0,0-.48,0q-30.78,10-61.56,20c-7.08,2.3-14.22,4.42-21.2,7A.54.54,0,0,1,339.7,365.6Z"/><path class="cls-7" d="M189.4,219.16c-4.8,2.26-9.95,3.57-15,5.25-15.22,5.11-30.48,10.1-45.74,15.09-6.63,2.17-13.31,4.22-20,6.35a4.18,4.18,0,0,0-2.16.94l-.88-.17q-11.79-36.24-23.6-72.48c-1.17-3.56-2-7.24-3.74-10.62l.66-.89c10.32-3.31,20.65-6.59,31-9.93q24.88-8.08,49.73-16.21a21.16,21.16,0,0,1,2.58-.51l.34.1q4,12.26,8,24.53,9.28,28.68,18.53,57.37A11.43,11.43,0,0,1,189.4,219.16Z"/><path class="cls-8" d="M365.93,162.61c-7.43,2.33-14.88,4.6-22.28,7q-29.12,9.48-58.21,19.05c-.92.3-1.86.51-2.79.77a1.48,1.48,0,0,0-.39-.24c-1.8-7-4.34-13.79-6.57-20.68q-9.75-30.18-19.62-60.32c-.25-.76-.37-1.55-.55-2.33,1.11-.44,2.21-.94,3.34-1.31,20.3-6.62,40.63-13.17,60.91-19.86,6.24-2.06,12.62-3.71,18.69-6.28a1.2,1.2,0,0,1,1,.6c.22.85.39,1.72.66,2.56q8.11,25.08,16.26,50.15c3.29,10.07,6.67,20.1,10,30.15Z"/><path class="cls-4" d="M136.37,339.15q12.06,37,24.1,74c1,3.05,1.88,6.14,2.81,9.21-15.91,5.13-31.7,10.69-47.76,15.29-22.39,6.41-45.65-7-52.39-29.5A43.86,43.86,0,0,1,92.07,353.4Z"/><path class="cls-1" d="M78.37,163.53c1.7,3.38,2.57,7.05,3.74,10.62q11.85,36.22,23.6,72.48c-9.58,3-19.14,6.16-28.75,9.1-7.38,2.25-14.56,5.2-22.16,6.67-13.12,2.53-24.84-.85-34.91-9.33C8.26,243.28,3.15,230.45,4.11,215.33c1.05-16.56,13.5-32.41,29.43-37.63C47.6,173.08,61.7,168.58,75.78,164A6.69,6.69,0,0,1,78.37,163.53Z"/><path class="cls-3" d="M338.46,78.42C332.39,81,326,82.64,319.77,84.7c-20.28,6.69-40.61,13.24-60.91,19.86-1.14.37-2.23.87-3.34,1.31h-.17l-.17,0c-1.82-7.1-4.39-14-6.6-20.93-2.74-8.67-5.91-17.21-8.35-26-6.69-24,8.73-48.84,33.28-54C294.5.59,315.4,11.32,323,31.44,328.8,46.86,333.35,62.75,338.46,78.42Z"/><path class="cls-2" d="M163.9,423l30.89-10.08,52.41-17.09c4.66,14.47,9.26,29,14,43.4,5.69,17.33,2.46,32.74-10.45,45.57-23.1,23-62.56,13.22-72.6-17.72Q171,445,163.9,423Z"/><path class="cls-3" d="M340.09,365.83c7-2.61,14.12-4.74,21.2-7q30.79-10,61.56-20a2.07,2.07,0,0,1,.48,0c4.79,14.84,9.44,29.72,14.4,44.5,8.32,24.76-7.07,50.47-32.46,56a43.94,43.94,0,0,1-50.9-29.09c-4.71-14.27-9.31-28.58-13.95-42.88C340.27,366.78,340.2,366.3,340.09,365.83Z"/><path class="cls-4" d="M423.4,338.54a19.89,19.89,0,0,0-.47-2.34q-8.3-25.54-16.65-51.06c-3-9.16-6-18.31-9-27.47a23.35,23.35,0,0,1-.54-2.57c15.38-5,30.65-10.28,46.15-14.86,24.46-7.22,50.38,9.57,54.49,34.9,3.49,21.51-8.2,41.49-28.83,48.62-14.13,4.89-28.43,9.3-42.65,13.92C425.07,338,424.24,338.25,423.4,338.54Z"/><path class="cls-2" d="M162.3,136a21.16,21.16,0,0,0-2.58.51Q134.85,144.58,110,152.7c-10.31,3.35-20.64,6.62-31,9.93-4.72-14.62-9.29-29.29-14.2-43.85C55.8,92,75,64.51,101.77,61.47a43.21,43.21,0,0,1,45.88,29c5,14.52,9.59,29.2,14.35,43.81A11.83,11.83,0,0,1,162.3,136Z"/><path class="cls-1" d="M366.44,161.89c-3.34-10-6.73-20.08-10-30.15q-8.18-25.06-16.26-50.15c-.27-.84-.44-1.71-.66-2.56,5.31-2.32,10.91-3.78,16.41-5.56,10-3.25,19.95-6.88,30.11-9.59C409.65,57.59,434.69,74,439.4,98a43.88,43.88,0,0,1-29.76,50.07q-20.52,6.73-41.09,13.34C367.87,161.65,367.14,161.74,366.44,161.89Z"/></svg>