<svg id="Layer_1" data-name="Layer 1" xmlns="http://www.w3.org/2000/svg" xmlns:xlink="http://www.w3.org/1999/xlink" viewBox="0 0 1350 667"><defs><style>.cls-1,.cls-17{fill:none;}.cls-2{fill:#273274;}.cls-3{clip-path:url(#clip-path);}.cls-4{opacity:0.8;}.cls-5{clip-path:url(#clip-path-2);}.cls-14,.cls-6,.cls-7,.cls-8{fill:#ff544e;}.cls-10,.cls-11,.cls-12,.cls-14,.cls-15,.cls-16,.cls-7,.cls-8{stroke:#273274;}.cls-10,.cls-11,.cls-12,.cls-14,.cls-15,.cls-16,.cls-17,.cls-7,.cls-8{stroke-miterlimit:10;}.cls-16,.cls-7{stroke-width:3px;}.cls-11,.cls-15,.cls-8{stroke-width:2px;}.cls-10,.cls-11,.cls-16,.cls-9{fill:#f7f7f7;}.cls-10,.cls-12{stroke-width:4px;}.cls-12,.cls-13,.cls-15{fill:#ff8c58;}.cls-14{stroke-width:5px;}.cls-17{stroke:#fff;stroke-width:19px;}.cls-18{fill:#fff;}</style><clipPath id="clip-path"><circle class="cls-1" cx="675" cy="403.84" r="168.92"/></clipPath><clipPath id="clip-path-2"><rect class="cls-1" x="278.68" y="313.63" width="966.53" height="262.83"/></clipPath></defs><title>top image</title><rect class="cls-2" width="1350" height="667"/><g class="cls-3"><g class="cls-4"><g class="cls-5"><circle class="cls-2" cx="1288.03" cy="413.71" r="3.34"/><path class="cls-6" d="M1158.34,496.1q0-5.26,0-10.51c0-7.94,0-15.89,0-23.83a4.76,4.76,0,0,0-1-3c-3-4.18-6-8.38-8.92-12.63-.6-.88-1.84-2.15-.87-3s2.08.49,2.88,1.21c2.55,2.3,5,4.71,7.88,7.44,0-5.19-.19-10,.05-14.73s.51-9.42,2.44-14a5,5,0,0,1,1.48,3.49c1.24,7.79,1.44,15.66,1.71,23.52.77,22.78,1.2,45.57,1.64,68.36.08,3.93.26,7.86.31,11.8,0,1.21.24,1.53,1.5,1.09a45.89,45.89,0,0,0,15.48-9.56c10.38-9.22,17.63-20.35,20.29-34.16,2-10.1.7-20-2.2-29.72-4.39-14.75-11.75-27.8-22.8-38.65a50.81,50.81,0,0,0-6.32-5.12c-5.46-3.87-11.16-4.42-17.29-1.7-11.76,5.21-21.16,13.35-29.13,23.25-6.51,8.09-11.35,17-13.28,27.35-2.31,12.33.24,23.91,6.14,34.76,7.85,14.43,18.92,25.53,34.28,32,1.25.52,2.57.86,3.85,1.29s1.72.2,1.71-1.23q0-11,.07-22a3.69,3.69,0,0,0-1.1-2.5c-5.7-7-11.69-13.75-17-21a28.78,28.78,0,0,1-3.82-7.37c-.2-.54-.83-1.32,0-1.83.6-.39,1.16.22,1.61.59,1.61,1.35,3.24,2.69,4.75,4.14C1148,484.95,1152.87,490.64,1158.34,496.1Z"/><circle class="cls-7" cx="1131.68" cy="471.39" r="3.39"/><circle class="cls-8" cx="1142.87" cy="439.16" r="2.88"/><path class="cls-6" d="M1161.36,589.33l-2.87.05a6.64,6.64,0,0,0-.77-1.43q0-4.26.09-8.52a1.84,1.84,0,0,0,.67-1.13c.07-.79-.52-1.54-.72-2.32.1.26.14-.78.19-1a3,3,0,0,0-.48-3.08l.45,0q0-2.48,0-5c0-4.19,0-8.38,0-12.57a1.69,1.69,0,0,0,.1-2.06l0,0c.13-.2-.22-.56-.27-.76a4.32,4.32,0,0,1-.09-.74c.24-.25.27-.38.22-.41a1.19,1.19,0,0,0-.07-1.26c.4-4.95-1.12-9.78,4-14.52,2.33.5,2.31,1.19,2.62,1.79,2,3.91,2.35,7.87,2.77,11.82,1.24,11.69,2,23.38,2.67,35.07.12,2,.5,4,.47,6a.93.93,0,0,0,0,.13C1167.35,589.35,1164.38,589.28,1161.36,589.33Z"/><circle class="cls-2" cx="1201.84" cy="534.08" r="3.17"/><path class="cls-9" d="M1066.86,482.25q0-7.25,0-14.5c0-11,0-21.91,0-32.86a6.56,6.56,0,0,0-1.34-4.12c-4.16-5.76-8.29-11.55-12.3-17.42-.83-1.21-2.54-3-1.2-4.15s2.87.67,4,1.67c3.52,3.18,6.91,6.5,10.87,10.25,0-7.15-.26-13.75.08-20.32s.7-13,3.37-19.34c1.68,1.48,1.79,3.2,2,4.82,1.71,10.74,2,21.6,2.36,32.44,1.06,31.42,1.65,62.85,2.26,94.28.11,5.42.35,10.84.42,16.27,0,1.67.33,2.11,2.07,1.51,8.12-2.79,15-7.57,21.35-13.19,14.32-12.71,24.31-28.07,28-47.11,2.69-13.92,1-27.58-3-41-6.06-20.35-16.21-38.34-31.44-53.3a70.08,70.08,0,0,0-8.71-7.06c-7.53-5.34-15.39-6.09-23.85-2.35-16.22,7.18-29.18,18.41-40.18,32.07-9,11.15-15.66,23.5-18.32,37.72-3.19,17,.33,33,8.47,47.94,10.83,19.89,26.1,35.21,47.27,44.09,1.72.72,3.54,1.18,5.31,1.78,1.59.54,2.37.27,2.36-1.7q-.06-15.17.1-30.33a5.09,5.09,0,0,0-1.52-3.45c-7.86-9.64-16.12-19-23.48-29a39.69,39.69,0,0,1-5.27-10.17c-.27-.75-1.14-1.82-.06-2.52.83-.53,1.61.3,2.21.81,2.22,1.86,4.47,3.7,6.55,5.71C1052.65,466.87,1059.32,474.72,1066.86,482.25Z"/><circle class="cls-10" cx="1043.5" cy="404.34" r="4.67"/><path class="cls-9" d="M1071,610.83l-4,.07a9.15,9.15,0,0,0-1.06-2q0-5.87.12-11.74a2.53,2.53,0,0,0,.92-1.56c.1-1.08-.71-2.12-1-3.19.14.37.19-1.07.26-1.33.36-1.4.58-2.88-.66-4.24l.61,0q0-3.43,0-6.85c0-5.78,0-11.56.06-17.34a2.33,2.33,0,0,0,.14-2.84l0-.06c.18-.28-.31-.78-.38-1.05a6,6,0,0,1-.12-1c.33-.35.37-.52.3-.57a1.64,1.64,0,0,0-.09-1.74c.56-6.82-1.55-13.49,5.46-20,3.21.68,3.18,1.63,3.61,2.47,2.76,5.4,3.23,10.85,3.81,16.31,1.72,16.12,2.7,32.24,3.68,48.36.17,2.77.68,5.55.65,8.32a1.28,1.28,0,0,0,0,.18C1079.28,610.86,1075.19,610.76,1071,610.83Z"/><circle class="cls-11" cx="1031.8" cy="447.76" r="3.8"/><path class="cls-6" d="M937.32,434.06q0-6.55,0-13.1c0-9.9,0-19.79,0-29.69a5.93,5.93,0,0,1,1.21-3.72c3.76-5.21,7.49-10.44,11.12-15.74.75-1.09,2.29-2.68,1.09-3.75s-2.59.61-3.59,1.51c-3.18,2.87-6.24,5.87-9.82,9.26,0-6.46.24-12.42-.07-18.35s-.63-11.73-3-17.47c-1.52,1.34-1.62,2.89-1.85,4.35-1.54,9.71-1.8,19.51-2.13,29.31-1,28.39-1.5,56.78-2,85.18-.09,4.9-.32,9.8-.38,14.7,0,1.5-.3,1.9-1.87,1.36-7.34-2.52-13.57-6.84-19.29-11.91-12.94-11.49-22-25.36-25.29-42.56-2.43-12.58-.87-24.92,2.74-37,5.47-18.38,14.64-34.64,28.4-48.16a63.31,63.31,0,0,1,7.87-6.38c6.81-4.83,13.9-5.51,21.55-2.12,14.65,6.49,26.37,16.63,36.3,29,8.11,10.07,14.15,21.23,16.55,34.08,2.88,15.37-.3,29.79-7.65,43.31-9.78,18-23.58,31.81-42.71,39.83-1.55.65-3.2,1.07-4.8,1.61-1.44.49-2.14.24-2.13-1.54q.06-13.7-.09-27.4a4.6,4.6,0,0,1,1.37-3.11c7.1-8.71,14.57-17.13,21.21-26.21a35.86,35.86,0,0,0,4.76-9.18c.24-.68,1-1.65.05-2.28-.75-.48-1.45.27-2,.73-2,1.68-4,3.35-5.92,5.16C950.16,420.17,944.14,427.25,937.32,434.06Z"/><circle class="cls-2" cx="958.42" cy="363.67" r="4.22"/><path class="cls-6" d="M933.56,601.67l3.57.11a19.87,19.87,0,0,1,1-3.11q0-9.31-.11-18.61a5.23,5.23,0,0,1-.83-2.47c-.09-1.72.64-3.36.9-5.06-.13.58-.17-1.7-.23-2.11-.33-2.22-.52-4.56.6-6.72l-.56-.08q0-5.43,0-10.86c0-9.16,0-18.32-.05-27.48a6,6,0,0,1-.13-4.5l0-.09c-.16-.44.28-1.23.34-1.67s.09-1.08.11-1.62c-.3-.55-.33-.83-.27-.9a4.3,4.3,0,0,1,.08-2.75c-.5-10.81,1.4-21.37-4.93-31.74-2.9,1.08-2.88,2.59-3.26,3.91-2.5,8.56-2.92,17.2-3.45,25.84-1.55,25.54-2.44,51.09-3.33,76.64-.15,4.4-.62,8.79-.59,13.18,0,.1,0,.19,0,.28C926.1,601.71,929.8,601.56,933.56,601.67Z"/><path class="cls-6" d="M497.87,547.22q0-4.48,0-9c0-6.76,0-13.53,0-20.29a4.05,4.05,0,0,1,.83-2.54c2.57-3.56,5.12-7.13,7.6-10.76.51-.75,1.57-1.83.74-2.56s-1.77.42-2.45,1c-2.17,2-4.27,4-6.71,6.33,0-4.42.16-8.49,0-12.55s-.43-8-2.08-11.94a4.28,4.28,0,0,0-1.26,3A162.23,162.23,0,0,0,493,508c-.66,19.4-1,38.81-1.4,58.22-.06,3.35-.22,6.7-.26,10,0,1-.2,1.3-1.28.93A39.08,39.08,0,0,1,476.89,569c-8.84-7.85-15-17.33-17.28-29.09-1.66-8.6-.59-17,1.87-25.31a75.36,75.36,0,0,1,19.41-32.92,43.28,43.28,0,0,1,5.38-4.36A14,14,0,0,1,501,475.91c10,4.43,18,11.37,24.81,19.8,5.54,6.89,9.67,14.51,11.31,23.29,2,10.5-.2,20.37-5.23,29.6-6.69,12.29-16.12,21.75-29.19,27.23-1.06.44-2.19.73-3.28,1.1s-1.46.17-1.46-1q0-9.37-.06-18.73a3.15,3.15,0,0,1,.94-2.13c4.85-6,10-11.71,14.5-17.92a24.51,24.51,0,0,0,3.26-6.28c.17-.46.71-1.13,0-1.56-.51-.33-1,.19-1.37.5-1.37,1.15-2.76,2.29-4,3.53C506.64,537.72,502.52,542.57,497.87,547.22Z"/><circle class="cls-2" cx="512.29" cy="499.1" r="2.88"/><path class="cls-6" d="M495.29,626.62l2.44,0a5.65,5.65,0,0,1,.65-1.21q0-3.63-.07-7.25a1.56,1.56,0,0,1-.57-1c-.06-.67.44-1.31.61-2-.09.23-.12-.66-.16-.82a2.57,2.57,0,0,1,.41-2.62l-.38,0q0-2.12,0-4.23c0-3.57,0-7.14,0-10.71a1.44,1.44,0,0,1-.09-1.75l0,0c-.11-.17.19-.48.23-.65a3.68,3.68,0,0,0,.07-.63c-.2-.21-.23-.32-.19-.35a1,1,0,0,1,.06-1.07c-.34-4.21,1-8.33-3.37-12.37-2,.42-2,1-2.23,1.52-1.71,3.33-2,6.7-2.36,10.07-1.06,10-1.67,19.91-2.27,29.86-.1,1.71-.42,3.43-.4,5.14a.79.79,0,0,1,0,.11C490.19,626.64,492.72,626.58,495.29,626.62Z"/><path class="cls-9" d="M380.45,532.19q0-3.22,0-6.44c0-4.86,0-9.73,0-14.59a2.91,2.91,0,0,1,.6-1.83c1.85-2.56,3.68-5.13,5.46-7.73.37-.54,1.13-1.31.53-1.84s-1.27.3-1.76.74c-1.56,1.41-3.07,2.89-4.82,4.55,0-3.18.12-6.1,0-9a24.74,24.74,0,0,0-1.5-8.58,3.08,3.08,0,0,0-.91,2.14,116.62,116.62,0,0,0-1,14.4c-.47,13.95-.73,27.9-1,41.85,0,2.41-.16,4.81-.19,7.22,0,.74-.15.93-.92.67a28.09,28.09,0,0,1-9.48-5.85c-6.36-5.64-10.79-12.46-12.42-20.91a37.85,37.85,0,0,1,1.35-18.2,54.18,54.18,0,0,1,14-23.66,31.11,31.11,0,0,1,3.87-3.13,10.06,10.06,0,0,1,10.59-1,47.69,47.69,0,0,1,17.84,14.23,37.65,37.65,0,0,1,8.13,16.74c1.41,7.55-.15,14.64-3.76,21.28-4.81,8.83-11.58,15.63-21,19.57-.76.32-1.57.52-2.36.79s-1.05.12-1-.75q0-6.73,0-13.46a2.26,2.26,0,0,1,.67-1.53c3.49-4.28,7.16-8.42,10.42-12.88a17.62,17.62,0,0,0,2.34-4.51c.12-.33.51-.81,0-1.12s-.71.13-1,.36c-1,.82-2,1.64-2.91,2.54C386.76,525.36,383.8,528.84,380.45,532.19Z"/><circle class="cls-11" cx="390.82" cy="497.6" r="2.07"/><path class="cls-9" d="M378.6,589.27l1.76,0a4.06,4.06,0,0,1,.47-.87q0-2.61-.05-5.21a1.12,1.12,0,0,1-.41-.69c0-.48.32-.94.44-1.42-.06.16-.09-.47-.12-.59a1.85,1.85,0,0,1,.29-1.88l-.27,0q0-1.52,0-3c0-2.57,0-5.13,0-7.7a1,1,0,0,1-.06-1.26v0c-.08-.12.14-.34.17-.47a2.64,2.64,0,0,0,.05-.45c-.15-.15-.16-.23-.13-.25a.73.73,0,0,1,0-.77c-.25-3,.69-6-2.42-8.89-1.42.3-1.41.73-1.6,1.1a19.58,19.58,0,0,0-1.69,7.24c-.76,7.15-1.2,14.31-1.63,21.47-.07,1.23-.3,2.46-.29,3.69a.57.57,0,0,1,0,.08C374.94,589.28,376.75,589.24,378.6,589.27Z"/><path class="cls-6" d="M778,466.58q0-6.37,0-12.74c0-9.63,0-19.26,0-28.89a5.77,5.77,0,0,1,1.18-3.62c3.66-5.07,7.29-10.16,10.82-15.31.73-1.06,2.23-2.6,1.06-3.65s-2.52.59-3.49,1.47c-3.09,2.79-6.07,5.71-9.55,9,0-6.29.23-12.09-.07-17.86s-.61-11.41-3-17c-1.47,1.3-1.57,2.81-1.8,4.23-1.5,9.44-1.75,19-2.07,28.51-.94,27.62-1.45,55.24-2,82.87-.09,4.77-.31,9.53-.37,14.3,0,1.46-.29,1.85-1.82,1.33-7.14-2.45-13.2-6.65-18.76-11.59-12.59-11.18-21.37-24.67-24.6-41.41-2.36-12.24-.84-24.24,2.67-36,5.33-17.89,14.25-33.7,27.63-46.85a61.6,61.6,0,0,1,7.66-6.2c6.62-4.7,13.52-5.36,21-2.06,14.26,6.31,25.65,16.18,35.32,28.19,7.89,9.8,13.76,20.66,16.1,33.15,2.8,15-.29,29-7.45,42.14-9.52,17.49-22.94,31-41.55,38.76-1.51.63-3.11,1-4.67,1.57-1.4.47-2.08.24-2.08-1.49q.06-13.33-.09-26.66a4.48,4.48,0,0,1,1.34-3c6.91-8.48,14.17-16.67,20.64-25.5a34.89,34.89,0,0,0,4.64-8.94c.24-.66,1-1.6,0-2.22-.73-.47-1.41.27-1.95.71-2,1.63-3.93,3.26-5.76,5C790.53,453.06,784.67,460,778,466.58Z"/><circle class="cls-7" cx="811.21" cy="436.63" r="4.11"/><circle class="cls-8" cx="796.8" cy="397.56" r="3.49"/><path class="cls-6" d="M774.38,579.6l3.48.06a8,8,0,0,1,.93-1.73q0-5.16-.1-10.32a2.23,2.23,0,0,1-.81-1.37c-.09-1,.63-1.87.88-2.81-.12.32-.17-.94-.23-1.17a3.65,3.65,0,0,1,.58-3.73l-.54,0q0-3,0-6c0-5.08,0-10.16-.05-15.24a2,2,0,0,1-.13-2.5l0-.05c-.16-.25.27-.68.33-.93a5.24,5.24,0,0,0,.1-.9c-.29-.3-.32-.46-.27-.5a1.44,1.44,0,0,1,.08-1.53c-.49-6,1.36-11.85-4.8-17.61-2.82.6-2.8,1.44-3.17,2.17-2.43,4.75-2.84,9.54-3.35,14.33-1.51,14.17-2.38,28.34-3.24,42.51-.15,2.44-.6,4.88-.57,7.31a1.13,1.13,0,0,1,0,.16C767.12,579.63,770.72,579.54,774.38,579.6Z"/><path class="cls-6" d="M332,466.31q0-5.46,0-10.93c0-8.26,0-16.51,0-24.77a5,5,0,0,1,1-3.1c3.14-4.34,6.25-8.71,9.27-13.13.62-.91,1.91-2.23.91-3.13s-2.16.51-3,1.26c-2.65,2.4-5.21,4.9-8.19,7.73,0-5.39.2-10.36-.06-15.31s-.53-9.79-2.54-14.57a5.23,5.23,0,0,0-1.54,3.63c-1.29,8.1-1.5,16.28-1.78,24.45-.8,23.68-1.25,47.37-1.71,71.06-.08,4.09-.27,8.17-.32,12.26,0,1.26-.25,1.59-1.56,1.14A47.7,47.7,0,0,1,306.41,493c-10.79-9.58-18.32-21.15-21.1-35.51-2-10.49-.72-20.79,2.29-30.9,4.57-15.34,12.22-28.9,23.7-40.18a52.82,52.82,0,0,1,6.57-5.32c5.68-4,11.6-4.59,18-1.77,12.22,5.41,22,13.87,30.29,24.17,6.77,8.4,11.8,17.71,13.81,28.43,2.4,12.82-.25,24.86-6.39,36.13-8.16,15-19.67,26.54-35.63,33.23-1.29.54-2.67.89-4,1.34s-1.79.2-1.78-1.28q0-11.43-.07-22.86a3.84,3.84,0,0,1,1.15-2.6c5.92-7.27,12.15-14.29,17.7-21.87a29.92,29.92,0,0,0,4-7.66c.2-.57.86-1.38,0-1.9-.63-.4-1.21.23-1.67.61-1.68,1.4-3.37,2.79-4.94,4.31C342.72,454.72,337.69,460.63,332,466.31Z"/><circle class="cls-8" cx="360.45" cy="440.62" r="3.52"/><circle class="cls-2" cx="349.61" cy="407.58" r="3.52"/><path class="cls-6" d="M328.87,582.62l3,.07a10.59,10.59,0,0,1,.8-2q0-5.93-.09-11.87a2.85,2.85,0,0,1-.7-1.58c-.07-1.09.54-2.14.75-3.23-.11.37-.15-1.08-.2-1.34a5.38,5.38,0,0,1,.5-4.29l-.46,0q0-3.46,0-6.92c0-5.84,0-11.68,0-17.52a3,3,0,0,1-.11-2.87l0-.06c-.14-.28.23-.79.28-1.07a8,8,0,0,0,.09-1c-.25-.35-.28-.53-.23-.57a2.14,2.14,0,0,1,.07-1.76c-.42-6.89,1.17-13.63-4.11-20.24C326,507,326,508,325.7,508.8c-2.08,5.46-2.44,11-2.88,16.48-1.29,16.29-2,32.58-2.78,48.88-.13,2.8-.52,5.61-.49,8.41a1.73,1.73,0,0,1,0,.18C322.64,582.65,325.73,582.56,328.87,582.62Z"/><circle class="cls-2" cx="725.31" cy="512.63" r="3.84"/><circle class="cls-12" cx="713.5" cy="476.6" r="3.84"/><path class="cls-13" d="M690.88,646.31l3.25.06a7.52,7.52,0,0,1,.87-1.62q0-4.83-.1-9.65a2.08,2.08,0,0,1-.76-1.28c-.08-.89.59-1.74.82-2.62-.12.3-.16-.88-.21-1.09a3.42,3.42,0,0,1,.54-3.49l-.51,0q0-2.82,0-5.63c0-4.75,0-9.5,0-14.25a1.92,1.92,0,0,1-.12-2.33l0,0c-.15-.23.25-.64.31-.87a4.89,4.89,0,0,0,.1-.84c-.27-.28-.3-.43-.25-.47a1.35,1.35,0,0,1,.08-1.43c-.46-5.61,1.27-11.08-4.49-16.46-2.64.56-2.62,1.34-3,2-2.27,4.44-2.66,8.92-3.14,13.4-1.41,13.25-2.22,26.5-3,39.75-.14,2.28-.56,4.56-.54,6.84a1.05,1.05,0,0,1,0,.15C684.09,646.33,687.46,646.25,690.88,646.31Z"/><path class="cls-6" d="M559.51,462q0-5.46,0-10.93c0-8.26,0-16.51,0-24.77a5,5,0,0,1,1-3.1c3.14-4.34,6.25-8.71,9.27-13.13.62-.91,1.91-2.23.91-3.13s-2.16.51-3,1.26c-2.65,2.4-5.21,4.9-8.19,7.73,0-5.39.2-10.36-.06-15.31s-.53-9.79-2.54-14.57a5.23,5.23,0,0,0-1.54,3.63c-1.29,8.1-1.5,16.28-1.78,24.45-.8,23.68-1.25,47.37-1.71,71.06-.08,4.09-.27,8.17-.32,12.26,0,1.26-.25,1.59-1.56,1.14a47.7,47.7,0,0,1-16.09-9.94c-10.79-9.58-18.32-21.15-21.1-35.51-2-10.49-.72-20.79,2.29-30.9,4.57-15.34,12.22-28.9,23.7-40.18a52.82,52.82,0,0,1,6.57-5.32c5.68-4,11.6-4.59,18-1.77,12.22,5.41,22,13.87,30.29,24.17,6.77,8.4,11.8,17.71,13.81,28.43,2.4,12.82-.25,24.86-6.39,36.13-8.16,15-19.67,26.54-35.63,33.23-1.29.54-2.67.89-4,1.34s-1.79.2-1.78-1.28q0-11.43-.07-22.86a3.84,3.84,0,0,1,1.15-2.6c5.92-7.27,12.15-14.29,17.7-21.87a29.92,29.92,0,0,0,4-7.66c.2-.57.86-1.38,0-1.9-.63-.4-1.21.23-1.67.61-1.68,1.4-3.37,2.79-4.94,4.31C570.23,450.38,565.2,456.29,559.51,462Z"/><circle class="cls-14" cx="587.95" cy="436.29" r="3.52"/><circle class="cls-8" cx="577.12" cy="403.25" r="3.52"/><path class="cls-6" d="M556.37,581.46l3,.07a11.31,11.31,0,0,1,.8-2.07q0-6.18-.09-12.36a3,3,0,0,1-.7-1.64c-.07-1.14.54-2.23.75-3.36-.11.38-.15-1.13-.2-1.4a5.81,5.81,0,0,1,.5-4.47l-.46-.05q0-3.61,0-7.21c0-6.08,0-12.17,0-18.25a3.25,3.25,0,0,1-.11-3l0-.06c-.14-.3.23-.82.28-1.11a8.66,8.66,0,0,0,.09-1.07c-.25-.36-.28-.55-.23-.6a2.31,2.31,0,0,1,.07-1.83c-.42-7.18,1.17-14.2-4.11-21.08-2.42.72-2.4,1.72-2.72,2.6-2.08,5.68-2.44,11.43-2.88,17.16-1.29,17-2,33.94-2.78,50.91-.13,2.92-.52,5.84-.49,8.76a1.88,1.88,0,0,1,0,.19C550.15,581.49,553.24,581.39,556.37,581.46Z"/><path class="cls-13" d="M994.19,508.5q0-4.83,0-9.65c0-7.29,0-14.59,0-21.88a4.37,4.37,0,0,1,.89-2.74c2.77-3.84,5.52-7.69,8.19-11.6.55-.8,1.69-2,.8-2.76s-1.91.45-2.64,1.11c-2.34,2.12-4.6,4.33-7.23,6.83,0-4.76.18-9.16-.05-13.53s-.46-8.65-2.24-12.87a4.62,4.62,0,0,0-1.36,3.21,174.92,174.92,0,0,0-1.57,21.6c-.71,20.92-1.1,41.85-1.51,62.77-.07,3.61-.24,7.22-.28,10.83,0,1.11-.22,1.4-1.38,1A42.14,42.14,0,0,1,971.57,532c-9.53-8.47-16.19-18.69-18.64-31.37-1.79-9.27-.64-18.36,2-27.29a81.26,81.26,0,0,1,20.93-35.49,46.66,46.66,0,0,1,5.8-4.7,15.09,15.09,0,0,1,15.88-1.56c10.8,4.78,19.43,12.26,26.75,21.35,6,7.42,10.43,15.65,12.2,25.11,2.12,11.33-.22,22-5.64,31.92-7.21,13.25-17.38,23.45-31.48,29.36-1.14.48-2.36.79-3.54,1.19s-1.58.18-1.57-1.13q0-10.1-.07-20.2a3.39,3.39,0,0,1,1-2.29c5.23-6.42,10.74-12.62,15.63-19.32a26.43,26.43,0,0,0,3.51-6.77c.18-.5.76-1.21,0-1.68-.55-.35-1.07.2-1.47.54-1.48,1.24-3,2.47-4.36,3.8C1003.65,498.26,999.21,503.48,994.19,508.5Z"/><circle class="cls-13" cx="1019.31" cy="485.81" r="3.11"/><path class="cls-13" d="M991.41,594.11l2.63,0a6.1,6.1,0,0,1,.7-1.31q0-3.91-.08-7.82a1.69,1.69,0,0,1-.61-1c-.07-.72.47-1.41.66-2.13-.09.24-.13-.71-.17-.89a2.77,2.77,0,0,1,.44-2.83l-.41,0q0-2.28,0-4.56c0-3.85,0-7.7,0-11.54a1.55,1.55,0,0,1-.1-1.89l0,0c-.12-.19.21-.52.25-.7a4,4,0,0,0,.08-.68c-.22-.23-.24-.35-.2-.38a1.09,1.09,0,0,1,.06-1.16c-.37-4.54,1-9-3.63-13.34-2.14.45-2.12,1.09-2.4,1.64-1.84,3.59-2.15,7.23-2.54,10.86-1.14,10.73-1.8,21.47-2.45,32.2-.11,1.85-.46,3.69-.44,5.54a.85.85,0,0,1,0,.12C985.91,594.13,988.64,594.07,991.41,594.11Z"/><path class="cls-13" d="M446.72,475.93q0-6.72,0-13.44c0-10.16,0-20.32,0-30.48a6.09,6.09,0,0,1,1.25-3.82c3.86-5.34,7.69-10.71,11.41-16.15.77-1.12,2.35-2.75,1.11-3.85s-2.66.62-3.68,1.55c-3.26,2.95-6.41,6-10.08,9.51,0-6.63.25-12.75-.07-18.84s-.65-12-3.13-17.93c-1.56,1.37-1.66,3-1.9,4.47-1.58,10-1.85,20-2.19,30.08-1,29.14-1.53,58.28-2.1,87.43-.1,5-.33,10.06-.39,15.09,0,1.54-.31,2-1.92,1.4-7.53-2.59-13.93-7-19.79-12.23-13.28-11.79-22.54-26-26-43.69-2.49-12.91-.89-25.58,2.81-38,5.62-18.87,15-35.55,29.15-49.43a65,65,0,0,1,8.08-6.55c7-5,14.27-5.65,22.12-2.18,15,6.66,27.06,17.07,37.26,29.74,8.33,10.34,14.52,21.79,17,35,3,15.77-.31,30.58-7.86,44.45-10,18.45-24.2,32.66-43.84,40.89-1.59.67-3.29,1.1-4.93,1.65-1.48.5-2.2.25-2.19-1.58q.06-14.06-.09-28.13a4.72,4.72,0,0,1,1.41-3.2c7.29-8.94,15-17.58,21.77-26.9a36.81,36.81,0,0,0,4.89-9.43c.25-.7,1.06-1.69.05-2.34-.77-.49-1.49.28-2.05.75-2.06,1.72-4.14,3.44-6.07,5.3C459.9,461.66,453.71,468.94,446.72,475.93Z"/><circle class="cls-15" cx="468.38" cy="403.67" r="4.33"/><path class="cls-13" d="M442.85,595.16l3.67.07a8.49,8.49,0,0,1,1-1.82q0-5.45-.11-10.89a2.35,2.35,0,0,1-.86-1.45c-.09-1,.66-2,.92-3-.13.34-.18-1-.24-1.23-.34-1.3-.54-2.67.61-3.94l-.57,0q0-3.18,0-6.35c0-5.36,0-10.72-.05-16.08a2.16,2.16,0,0,1-.13-2.63l0-.05c-.17-.26.29-.72.35-1a5.52,5.52,0,0,0,.11-.95c-.3-.32-.34-.48-.28-.53a1.52,1.52,0,0,1,.09-1.61c-.52-6.33,1.44-12.51-5.06-18.57-3,.63-3,1.52-3.35,2.29-2.56,5-3,10.07-3.54,15.12-1.59,14.95-2.51,29.9-3.41,44.85-.16,2.57-.63,5.14-.61,7.72a1.19,1.19,0,0,1,0,.17C435.19,595.19,439,595.1,442.85,595.16Z"/><circle class="cls-2" cx="480.18" cy="443.98" r="3.52"/><circle class="cls-8" cx="521.78" cy="523.71" r="3.52"/><path class="cls-9" d="M628.57,459.61q0-6.72,0-13.44c0-10.16,0-20.32,0-30.48a6.09,6.09,0,0,1,1.25-3.82c3.86-5.34,7.69-10.71,11.41-16.15.77-1.12,2.35-2.75,1.11-3.85s-2.66.62-3.68,1.55c-3.26,2.95-6.41,6-10.08,9.51,0-6.63.25-12.75-.07-18.84s-.65-12-3.13-17.93c-1.56,1.37-1.66,3-1.9,4.47-1.58,10-1.85,20-2.19,30.08-1,29.14-1.53,58.28-2.1,87.43-.1,5-.33,10.06-.39,15.09,0,1.54-.31,2-1.92,1.4-7.53-2.59-13.93-7-19.79-12.23-13.28-11.79-22.54-26-26-43.69-2.49-12.91-.89-25.58,2.81-38,5.62-18.87,15-35.55,29.15-49.43a65,65,0,0,1,8.08-6.55c7-5,14.27-5.65,22.12-2.18,15,6.66,27.06,17.07,37.26,29.74,8.33,10.34,14.52,21.79,17,35,3,15.77-.31,30.58-7.86,44.45-10,18.45-24.2,32.66-43.84,40.89-1.59.67-3.29,1.1-4.93,1.65-1.48.5-2.2.25-2.19-1.58q.06-14.06-.09-28.13a4.72,4.72,0,0,1,1.41-3.2c7.29-8.94,15-17.58,21.77-26.9A36.81,36.81,0,0,0,656.7,435c.25-.7,1.06-1.69.05-2.34-.77-.49-1.49.28-2.05.75-2.06,1.72-4.14,3.44-6.07,5.3C641.75,445.35,635.56,452.62,628.57,459.61Z"/><circle class="cls-16" cx="650.23" cy="387.36" r="4.33"/><path class="cls-9" d="M624.71,578.84l3.67.07a8.49,8.49,0,0,1,1-1.82q0-5.45-.11-10.89a2.35,2.35,0,0,1-.86-1.45c-.09-1,.66-2,.92-3-.13.34-.18-1-.24-1.23-.34-1.3-.54-2.67.61-3.94l-.57,0q0-3.18,0-6.35c0-5.36,0-10.72-.05-16.08a2.16,2.16,0,0,1-.13-2.63l0-.05c-.17-.26.29-.72.35-1a5.52,5.52,0,0,0,.11-.95c-.3-.32-.34-.48-.28-.53a1.52,1.52,0,0,1,.09-1.61c-.52-6.33,1.44-12.51-5.06-18.57-3,.63-3,1.52-3.35,2.29-2.56,5-3,10.07-3.54,15.12-1.59,14.95-2.51,29.9-3.41,44.85-.16,2.57-.63,5.14-.61,7.72a1.19,1.19,0,0,1,0,.17C617,578.87,620.85,578.78,624.71,578.84Z"/><circle class="cls-11" cx="661.09" cy="427.62" r="3.52"/><path class="cls-13" d="M694.3,540.64q0-6,0-11.91c0-9,0-18,0-27a5.39,5.39,0,0,1,1.1-3.39c3.42-4.74,6.81-9.5,10.11-14.32.68-1,2.09-2.43,1-3.41s-2.36.55-3.26,1.37c-2.89,2.61-5.68,5.34-8.93,8.43,0-5.88.22-11.3-.06-16.7s-.57-10.67-2.77-15.89c-1.38,1.22-1.47,2.63-1.68,4-1.4,8.83-1.64,17.75-1.94,26.66-.87,25.82-1.36,51.65-1.86,77.48-.09,4.46-.29,8.91-.35,13.37,0,1.37-.27,1.73-1.7,1.24-6.68-2.29-12.34-6.22-17.54-10.84-11.77-10.45-20-23.07-23-38.72-2.21-11.44-.79-22.67,2.49-33.69,5-16.72,13.32-31.51,25.84-43.81a57.59,57.59,0,0,1,7.16-5.8c6.19-4.39,12.65-5,19.6-1.93,13.33,5.9,24,15.13,33,26.35,7.38,9.16,12.87,19.32,15.06,31,2.62,14-.27,27.1-7,39.4-8.9,16.35-21.45,28.94-38.85,36.24-1.41.59-2.91,1-4.37,1.46s-1.95.22-1.94-1.4q.05-12.46-.08-24.93A4.19,4.19,0,0,1,695.6,551c6.46-7.93,13.25-15.58,19.3-23.84a32.62,32.62,0,0,0,4.33-8.35c.22-.62.94-1.5,0-2.07-.68-.44-1.32.25-1.82.67-1.83,1.53-3.67,3-5.38,4.7C706,528,700.5,534.44,694.3,540.64Z"/><circle class="cls-2" cx="1009.74" cy="456.62" r="3.11"/><circle class="cls-2" cx="710.17" cy="476.4" r="3.11"/><circle class="cls-15" cx="725.55" cy="509.18" r="4.33"/></g></g></g><circle class="cls-17" cx="675" cy="407.08" r="168.92"/><path class="cls-18" d="M531.11,133.54h4.37V119.87a2.4,2.4,0,0,0-.12-.84,1.18,1.18,0,0,0-.34-.49,1.14,1.14,0,0,0-.52-.24,3.39,3.39,0,0,0-.66-.06,6.44,6.44,0,0,0-1.31.17,10.92,10.92,0,0,0-1.65.5,13.81,13.81,0,0,0-1.74.83,8.47,8.47,0,0,0-1.56,1.12,5.61,5.61,0,0,0-1.12,1.39,3.33,3.33,0,0,0-.43,1.66,3,3,0,0,0,.2,1.23,1.92,1.92,0,0,0,.47.68,1.23,1.23,0,0,0,.54.29,2.12,2.12,0,0,0,.4.06,2.09,2.09,0,0,0,1-.2,5.76,5.76,0,0,0,.7-.43l.59-.43a1,1,0,0,1,.64-.2,1.63,1.63,0,0,1,.61.13,1.75,1.75,0,0,1,.6.42,2.4,2.4,0,0,1,.47.76,3,3,0,0,1,.19,1.14,3.47,3.47,0,0,1-.37,1.66,3.69,3.69,0,0,1-1,1.17,4,4,0,0,1-1.35.7,5.18,5.18,0,0,1-1.5.23,5.23,5.23,0,0,1-2.08-.4,4.59,4.59,0,0,1-1.57-1.09,4.7,4.7,0,0,1-1-1.63,5.85,5.85,0,0,1-.34-2,7.54,7.54,0,0,1,.6-3,8.56,8.56,0,0,1,1.65-2.49,11.12,11.12,0,0,1,2.45-1.93,16.14,16.14,0,0,1,3-1.38,20.43,20.43,0,0,1,3.41-.83A23.16,23.16,0,0,1,538,116a9.9,9.9,0,0,1,3.06.37,4.08,4.08,0,0,1,1.61.9,2.09,2.09,0,0,1,.61,1.11,6.07,6.07,0,0,1,.1,1v14.18h8.84V122a19.49,19.49,0,0,1,1-6.75,13.54,13.54,0,0,1,2.67-4.55,10,10,0,0,1,3.65-2.57,10.77,10.77,0,0,1,4-.8,16,16,0,0,1,2.61.2,9,9,0,0,1,2.16.61,4.29,4.29,0,0,1,1.48,1,2.07,2.07,0,0,1,.55,1.43,2.16,2.16,0,0,1-.41,1.27,1.58,1.58,0,0,1-.44.42,1,1,0,0,1-.52.16,1.21,1.21,0,0,1-.77-.26,3.57,3.57,0,0,1-.64-.66q-.3-.4-.59-.86a5.82,5.82,0,0,0-.65-.86,3.43,3.43,0,0,0-.82-.66,2.12,2.12,0,0,0-1.08-.26,3.28,3.28,0,0,0-2.33.8,5.11,5.11,0,0,0-1.32,2.35,17.39,17.39,0,0,0-.59,3.86q-.13,2.31-.13,5.29v12.4h4.83v2.11h-4.83v14.61a1.88,1.88,0,0,0,.3,1.12,1.06,1.06,0,0,0,.92.42,3.21,3.21,0,0,0,1.25-.24q.58-.24,1-.46l.41.89q-.53.36-1.24.76a14.17,14.17,0,0,1-1.56.74,12.27,12.27,0,0,1-1.83.58,8.87,8.87,0,0,1-2,.23,6.79,6.79,0,0,1-2.64-.43,3.85,3.85,0,0,1-1.56-1.14,3.79,3.79,0,0,1-.73-1.6,9,9,0,0,1-.18-1.8V135.66h-8.84v12a12.8,12.8,0,0,1-1.19,5.69,11.52,11.52,0,0,1-3.26,4,14.11,14.11,0,0,1-4.87,2.43,21.62,21.62,0,0,1-6,.8,13.22,13.22,0,0,1-2.35-.2,9.64,9.64,0,0,1-2-.56,4.48,4.48,0,0,1-1.38-.85,1.46,1.46,0,0,1-.52-1.07,3.36,3.36,0,0,1,.12-.88,2.74,2.74,0,0,1,.36-.81,2.21,2.21,0,0,1,.59-.6,1.34,1.34,0,0,1,.78-.24.59.59,0,0,1,.47.26,5,5,0,0,1,.42.66q.22.4.49.85a3.75,3.75,0,0,0,.72.85,3.84,3.84,0,0,0,1.07.66,4,4,0,0,0,1.56.26,7,7,0,0,0,3.18-.67,5.92,5.92,0,0,0,2.2-1.9,8.6,8.6,0,0,0,1.29-2.92,15.41,15.41,0,0,0,.42-3.71V135.66h-4.37Z"/><path class="cls-18" d="M575.95,129a5.68,5.68,0,0,0-1.51.19,5.24,5.24,0,0,0-1.2.48,2.85,2.85,0,0,0-.79.64,1.06,1.06,0,0,0-.29.66.53.53,0,0,0,.37.52l.83.36a2.78,2.78,0,0,1,.83.58,1.55,1.55,0,0,1,.37,1.14,2.09,2.09,0,0,1-.2.92,2.5,2.5,0,0,1-1.37,1.25,2.69,2.69,0,0,1-1,.18,2.8,2.8,0,0,1-2.17-.91,3.47,3.47,0,0,1-.83-2.43,4.12,4.12,0,0,1,.77-2.51,6,6,0,0,1,2-1.72,10.14,10.14,0,0,1,2.8-1,15.56,15.56,0,0,1,6.7.08,9.09,9.09,0,0,1,3,1.3,6.72,6.72,0,0,1,2.09,2.26,6.6,6.6,0,0,1,.78,3.32v13.58q0,.22,0,.48a1.49,1.49,0,0,0,.12.48.9.9,0,0,0,.29.36.91.91,0,0,0,.55.14,1.2,1.2,0,0,0,.8-.32,6.42,6.42,0,0,0,.66-.66l.6.5q-.36.5-.86,1.11a6.93,6.93,0,0,1-2.91,2,6.2,6.2,0,0,1-2.19.36,4.31,4.31,0,0,1-2.69-.9,4.37,4.37,0,0,1-1.54-2.78,10.17,10.17,0,0,1-1.6,1.73,8.66,8.66,0,0,1-1.69,1.13,7.48,7.48,0,0,1-1.74.62,8.23,8.23,0,0,1-1.77.19A7,7,0,0,1,571,152a5.33,5.33,0,0,1-1.93-1.14,5.6,5.6,0,0,1-1.37-2,8,8,0,0,1-.52-3.05,6.69,6.69,0,0,1,.86-3.58,7.72,7.72,0,0,1,2.27-2.34,15.32,15.32,0,0,1,3.2-1.62q1.79-.67,3.66-1.42a3.92,3.92,0,0,0,2-1.65,4.41,4.41,0,0,0,.64-2.25,3.9,3.9,0,0,0-1-2.85A3.8,3.8,0,0,0,575.95,129Zm3.82,10.52a1.11,1.11,0,0,0-.38-.91,1.51,1.51,0,0,0-1-.31,3.49,3.49,0,0,0-1.6.38,4,4,0,0,0-1.33,1.13,5.72,5.72,0,0,0-.91,1.84,8.63,8.63,0,0,0-.34,2.53,10.81,10.81,0,0,0,.2,2.31,4.5,4.5,0,0,0,.55,1.45,2,2,0,0,0,.8.76,2.22,2.22,0,0,0,1,.22,2.29,2.29,0,0,0,1.18-.32,3.53,3.53,0,0,0,1-.83,4.16,4.16,0,0,0,.65-1.13,3.46,3.46,0,0,0,.24-1.25Z"/><path class="cls-18" d="M608.72,135.32a3,3,0,0,1-1.25-.23,2.19,2.19,0,0,1-.82-.61,2.51,2.51,0,0,1-.46-.85,3.29,3.29,0,0,1-.14-1,8.92,8.92,0,0,1,.08-1.25,4.15,4.15,0,0,0,0-1.08,1.22,1.22,0,0,0-.37-.77,1.64,1.64,0,0,0-1.11-.29,3.91,3.91,0,0,0-1.78.48,5,5,0,0,0-1.71,1.51,8.82,8.82,0,0,0-1.27,2.65,13.25,13.25,0,0,0-.5,3.9,21,21,0,0,0,.47,4.6,11,11,0,0,0,1.41,3.54,6.78,6.78,0,0,0,2.33,2.27,6.94,6.94,0,0,0,4.87.61,7.07,7.07,0,0,0,1.43-.53,9.16,9.16,0,0,0,1.29-.78q.61-.44,1.19-.95l.6.58a16.48,16.48,0,0,1-1.42,1.63,11.6,11.6,0,0,1-2.09,1.67,12.07,12.07,0,0,1-2.86,1.3,12.35,12.35,0,0,1-3.72.52,10.73,10.73,0,0,1-4.07-.8,10.54,10.54,0,0,1-3.52-2.34,11.54,11.54,0,0,1-2.46-3.74,12.81,12.81,0,0,1-.92-5,13.93,13.93,0,0,1,.55-4A13.25,13.25,0,0,1,594,133a12.51,12.51,0,0,1,2.21-2.62,14,14,0,0,1,2.65-1.89,12.84,12.84,0,0,1,2.85-1.14,10.94,10.94,0,0,1,2.8-.38,10.54,10.54,0,0,1,3.1.41,7,7,0,0,1,2.2,1.08A4.43,4.43,0,0,1,611.1,130a4.05,4.05,0,0,1,.43,1.81,4.87,4.87,0,0,1-.18,1.33,3.38,3.38,0,0,1-.53,1.11,2.55,2.55,0,0,1-.88.74A2.61,2.61,0,0,1,608.72,135.32Z"/><path class="cls-18" d="M623.18,133.54q.84-1.13,1.8-2.29a16.54,16.54,0,0,1,2.07-2.1,10.56,10.56,0,0,1,2.4-1.54,6.67,6.67,0,0,1,2.84-.6,4.42,4.42,0,0,1,2.28.54,5,5,0,0,1,1.48,1.3,4.8,4.8,0,0,1,.79,1.57,5.33,5.33,0,0,1,.23,1.39,9.35,9.35,0,0,1-.28,2.2,8.25,8.25,0,0,1-.94,2.26,10.05,10.05,0,0,1-1.77,2.16,12.07,12.07,0,0,1-2.79,1.91,82.89,82.89,0,0,0,4.4,8.23,41.18,41.18,0,0,0,4.12,5.67,16.16,16.16,0,0,0,3.81,3.28,7,7,0,0,0,3.48,1.06,2.38,2.38,0,0,0,.58-.07,4.12,4.12,0,0,0,.53-.17,5.31,5.31,0,0,0,.55-.24l.46.84q-.65.36-1.32.68a9.27,9.27,0,0,1-1.54.56,14.25,14.25,0,0,1-2,.38,21.61,21.61,0,0,1-2.69.14,11.81,11.81,0,0,1-2.8-.34,9.57,9.57,0,0,1-2.77-1.2,15.68,15.68,0,0,1-2.82-2.31,25.74,25.74,0,0,1-2.93-3.65,52.48,52.48,0,0,1-3.09-5.26q-1.59-3.05-3.29-7.14a25.16,25.16,0,0,0,3.63-3.16,15.47,15.47,0,0,0,2-2.63,6.85,6.85,0,0,0,.84-2.09,8.86,8.86,0,0,0,.17-1.56c0-.06,0-.17,0-.32a1.06,1.06,0,0,0-.16-.44,1.26,1.26,0,0,0-.38-.38,1.27,1.27,0,0,0-.71-.17,2.84,2.84,0,0,0-1.8.76,10.67,10.67,0,0,0-1.74,1.87,18.13,18.13,0,0,0-1.5,2.4q-.67,1.29-1.11,2.34v12.4a3.14,3.14,0,0,1-.11.74,1.73,1.73,0,0,1-.5.82,3.24,3.24,0,0,1-1.15.66,6.08,6.08,0,0,1-2,.28,5.32,5.32,0,0,1-2-.3,2.78,2.78,0,0,1-1.07-.71,1.84,1.84,0,0,1-.43-.84,3.81,3.81,0,0,1-.08-.7v-31a2.24,2.24,0,0,0-.32-1.21,1.19,1.19,0,0,0-1.09-.52,1.75,1.75,0,0,0-.71.13,3,3,0,0,0-.64.4l-.48-.58a14.32,14.32,0,0,1,1.23-.9,8.91,8.91,0,0,1,1.48-.78,11,11,0,0,1,1.72-.55,8.32,8.32,0,0,1,1.92-.22,5.67,5.67,0,0,1,2.43.42,3.12,3.12,0,0,1,1.27,1,3,3,0,0,1,.49,1.3,10.14,10.14,0,0,1,.08,1.21Z"/><path class="cls-18" d="M649.66,129.08v17.76a2.52,2.52,0,0,0,.48,1.77,1.76,1.76,0,0,0,1.32.49,1.94,1.94,0,0,0,1.15-.36,4.22,4.22,0,0,0,.86-.82,5.09,5.09,0,0,0,.74-1.18l.74.34q-.36.77-.85,1.68a6.66,6.66,0,0,1-3.36,3,8,8,0,0,1-3.11.53,6.6,6.6,0,0,1-2-.31,4.76,4.76,0,0,1-1.73-1,4.93,4.93,0,0,1-1.21-1.68,5.86,5.86,0,0,1-.46-2.43v-17.8h-2.69v-1.73a7.25,7.25,0,0,0,1.87-.35,9.35,9.35,0,0,0,2.46-1.17,9.79,9.79,0,0,0,2.34-2.19,8.36,8.36,0,0,0,1.54-3.39h1.92v7.09h3.92q1.92,0,1.92-.65a.32.32,0,0,0-.24-.32l-.54-.22a1.75,1.75,0,0,1-.54-.37,1.09,1.09,0,0,1-.24-.79,1.36,1.36,0,0,1,.42-1.06,1.56,1.56,0,0,1,1.09-.38,1.53,1.53,0,0,1,.76.18,1.64,1.64,0,0,1,.54.48,2.17,2.17,0,0,1,.32.68,2.83,2.83,0,0,1,.11.77,3.41,3.41,0,0,1-.9,2.49,3.9,3.9,0,0,1-2.9.92Z"/><path class="cls-18" d="M656.44,139.65a15.27,15.27,0,0,1,.91-5.51,11.68,11.68,0,0,1,2.44-4,9.88,9.88,0,0,1,3.54-2.38,11.46,11.46,0,0,1,4.23-.79,12.3,12.3,0,0,1,4.23.73,9.65,9.65,0,0,1,3.54,2.25,11,11,0,0,1,2.44,3.83,15,15,0,0,1,.91,5.49,15.76,15.76,0,0,1-.91,5.57,12.4,12.4,0,0,1-2.44,4.08,10.14,10.14,0,0,1-3.54,2.51,10.76,10.76,0,0,1-4.23.85,11.32,11.32,0,0,1-4.23-.8,10,10,0,0,1-3.54-2.39,11.66,11.66,0,0,1-2.44-4A15.37,15.37,0,0,1,656.44,139.65Zm14.78-.24q0-1.92-.13-3.71a16.65,16.65,0,0,0-.52-3.18,5.62,5.62,0,0,0-1.11-2.22,2.39,2.39,0,0,0-1.9-.83,2.34,2.34,0,0,0-1.9.88,6.07,6.07,0,0,0-1.11,2.31,16.82,16.82,0,0,0-.5,3.26q-.12,1.83-.12,3.75t.12,3.76a17.08,17.08,0,0,0,.5,3.28,6.06,6.06,0,0,0,1.11,2.32,2.34,2.34,0,0,0,1.9.88,2.3,2.3,0,0,0,1.9-.91,6.43,6.43,0,0,0,1.11-2.4,18.83,18.83,0,0,0,.52-3.36Q671.22,141.33,671.22,139.41Z"/><path class="cls-18" d="M682.39,118.79a2.24,2.24,0,0,0-.32-1.21,1.19,1.19,0,0,0-1.09-.52,1.75,1.75,0,0,0-.71.13,3,3,0,0,0-.64.4l-.48-.58a13.5,13.5,0,0,1,1.24-.9,9.65,9.65,0,0,1,1.48-.78,10.63,10.63,0,0,1,1.71-.55,8.32,8.32,0,0,1,1.92-.22,5.11,5.11,0,0,1,2.25.42,3.44,3.44,0,0,1,1.3,1,3.38,3.38,0,0,1,.59,1.32,6.6,6.6,0,0,1,.14,1.31v10.72l.74-.66a6.67,6.67,0,0,1,1.15-.78,7.59,7.59,0,0,1,1.67-.65,8.83,8.83,0,0,1,2.29-.26,7.3,7.3,0,0,1,3.08.71,7.74,7.74,0,0,1,2.76,2.22,12,12,0,0,1,2,3.89,18.73,18.73,0,0,1,.77,5.72,16.93,16.93,0,0,1-.71,4.95,12.07,12.07,0,0,1-2.1,4.07,9.91,9.91,0,0,1-3.48,2.75,11,11,0,0,1-4.85,1,11.77,11.77,0,0,1-5.06-1,8.77,8.77,0,0,1-3.3-2.62,10.37,10.37,0,0,1-1.79-3.83,19.16,19.16,0,0,1-.54-4.61ZM696.71,140a33.72,33.72,0,0,0-.22-3.93,15.3,15.3,0,0,0-.7-3.22,6.18,6.18,0,0,0-1.23-2.19,2.37,2.37,0,0,0-1.8-.8,2.34,2.34,0,0,0-1.38.4,3.81,3.81,0,0,0-.92.9,3.91,3.91,0,0,0-.53,1,2.63,2.63,0,0,0-.17.66V140a23.9,23.9,0,0,0,.88,7.62q.88,2.38,2.58,2.38t2.64-2.43A24.93,24.93,0,0,0,696.71,140Z"/><path class="cls-18" d="M715.07,140.92a6.8,6.8,0,0,0,.23,1.67,10,10,0,0,0,.66,1.81,9.62,9.62,0,0,0,1.07,1.74,8.25,8.25,0,0,0,1.47,1.48,7,7,0,0,0,1.84,1,6.15,6.15,0,0,0,2.21.38,6,6,0,0,0,1.56-.19,6.18,6.18,0,0,0,1.35-.53,8.77,8.77,0,0,0,1.2-.78q.58-.44,1.15-.95l.6.58A16.48,16.48,0,0,1,727,148.8a11.6,11.6,0,0,1-2.09,1.67,12.07,12.07,0,0,1-2.86,1.3,12.35,12.35,0,0,1-3.72.52,11.33,11.33,0,0,1-4.07-.76,10.11,10.11,0,0,1-3.52-2.27,11.13,11.13,0,0,1-2.46-3.77,15.25,15.25,0,0,1-.37-9.3,12.87,12.87,0,0,1,1.5-3.29,12.23,12.23,0,0,1,2.21-2.57,13.72,13.72,0,0,1,2.65-1.84,13.1,13.1,0,0,1,2.85-1.11,11.66,11.66,0,0,1,5.9,0,6.93,6.93,0,0,1,2.2,1,4.29,4.29,0,0,1,1.31,1.5,3.91,3.91,0,0,1,.43,1.79,3.39,3.39,0,0,1-.65,2,6,6,0,0,1-1.73,1.57ZM719.9,136a3.81,3.81,0,0,0,.52-.37,1.34,1.34,0,0,0,.32-.43,2.32,2.32,0,0,0,.18-.62,6,6,0,0,0,.06-.92,7.61,7.61,0,0,0-.13-1.33,5.37,5.37,0,0,0-.44-1.38,3.44,3.44,0,0,0-.79-1.08,1.66,1.66,0,0,0-1.15-.43A2.22,2.22,0,0,0,717,130a4,4,0,0,0-1,1.33,8.32,8.32,0,0,0-.62,1.86,20.9,20.9,0,0,0-.35,2.1q-.12,1.06-.14,2t0,1.65Z"/><path class="cls-18" d="M739.31,132.08a19.81,19.81,0,0,1,1.95-2.52,13,13,0,0,1,.94-.94,9,9,0,0,1,1-.82,5.51,5.51,0,0,1,1.12-.58,3.27,3.27,0,0,1,1.15-.22,2.53,2.53,0,0,1,1.92.73,2.86,2.86,0,0,1,.7,2.05,9.17,9.17,0,0,1-.13,1.57,11.68,11.68,0,0,1-.52,1.84h-.67a2.22,2.22,0,0,0-.67-1.24,2.18,2.18,0,0,0-1.54-.49,4.07,4.07,0,0,0-1.47.28,9.08,9.08,0,0,0-1.41.68,12.4,12.4,0,0,0-1.3.89q-.61.48-1.12.91v15.59a3.53,3.53,0,0,1-.1.74,1.71,1.71,0,0,1-.47.82,3,3,0,0,1-1.11.66,5.87,5.87,0,0,1-2,.28,5.42,5.42,0,0,1-2-.3,3.14,3.14,0,0,1-1.12-.71,1.81,1.81,0,0,1-.48-.84,3.37,3.37,0,0,1-.1-.7V131.24a2.24,2.24,0,0,0-.32-1.21,1.19,1.19,0,0,0-1.09-.52,1.54,1.54,0,0,0-.7.14,3.76,3.76,0,0,0-.62.41l-.5-.6a13.39,13.39,0,0,1,1.24-.9,9.56,9.56,0,0,1,1.48-.78,10.67,10.67,0,0,1,1.71-.55A8.33,8.33,0,0,1,735,127a5,5,0,0,1,1.77.28,3.54,3.54,0,0,1,1.2.72,3.39,3.39,0,0,1,.73,1,5.51,5.51,0,0,1,.4,1.12,6,6,0,0,1,.16,1.08Q739.31,131.72,739.31,132.08Z"/><path class="cls-18" d="M763,116.22a2.9,2.9,0,0,0-1.27.29,2.71,2.71,0,0,0-1,.92,5.14,5.14,0,0,0-.71,1.62,9.27,9.27,0,0,0-.26,2.38v5.91H765v1.73h-5.26V148a20.38,20.38,0,0,1-.85,6,13.14,13.14,0,0,1-2.58,4.77,11.87,11.87,0,0,1-4.33,3.14,15.07,15.07,0,0,1-6.05,1.13,13.26,13.26,0,0,1-2.36-.2,9.69,9.69,0,0,1-2-.56,4.48,4.48,0,0,1-1.38-.85,1.49,1.49,0,0,1-.52-1.09,3.34,3.34,0,0,1,.12-.88,2.72,2.72,0,0,1,.36-.8,2.07,2.07,0,0,1,.59-.59,1.43,1.43,0,0,1,.8-.23.59.59,0,0,1,.47.26,5.41,5.41,0,0,1,.42.65l.49.85a3.56,3.56,0,0,0,.71.85,3.79,3.79,0,0,0,1.07.65,4,4,0,0,0,1.55.26,4.58,4.58,0,0,0,2.16-.49,4.93,4.93,0,0,0,1.61-1.36,8,8,0,0,0,1.13-2,15,15,0,0,0,.72-2.52,23.68,23.68,0,0,0,.37-2.81q.11-1.47.11-2.93V129.08h-4.42v-1.73h4.42v-2.81a11.84,11.84,0,0,1,.52-3.69,8.87,8.87,0,0,1,1.37-2.68,7.75,7.75,0,0,1,1.93-1.8,11.12,11.12,0,0,1,2.2-1.11,10.46,10.46,0,0,1,2.17-.55,13.9,13.9,0,0,1,1.85-.14,16.25,16.25,0,0,1,3,.25,9.29,9.29,0,0,1,2.21.67,3.85,3.85,0,0,1,1.35,1,1.77,1.77,0,0,1,.46,1.13,3.08,3.08,0,0,1-.13.88,3.16,3.16,0,0,1-.37.82,2,2,0,0,1-.59.6,1.39,1.39,0,0,1-.78.23.61.61,0,0,1-.48-.29,6.34,6.34,0,0,1-.46-.72l-.53-.94a4.66,4.66,0,0,0-.71-.94,3.66,3.66,0,0,0-1-.72A3,3,0,0,0,763,116.22Z"/><path class="cls-18" d="M772.9,140.92a6.8,6.8,0,0,0,.23,1.67,10,10,0,0,0,.66,1.81,9.62,9.62,0,0,0,1.07,1.74,8.25,8.25,0,0,0,1.47,1.48,7,7,0,0,0,1.84,1,6.15,6.15,0,0,0,2.21.38,6,6,0,0,0,1.56-.19,6.18,6.18,0,0,0,1.35-.53,8.77,8.77,0,0,0,1.2-.78q.58-.44,1.15-.95l.6.58a16.48,16.48,0,0,1-1.42,1.63,11.6,11.6,0,0,1-2.09,1.67,12.07,12.07,0,0,1-2.86,1.3,12.35,12.35,0,0,1-3.72.52,11.33,11.33,0,0,1-4.07-.76,10.11,10.11,0,0,1-3.52-2.27,11.13,11.13,0,0,1-2.46-3.77,15.25,15.25,0,0,1-.37-9.3,12.87,12.87,0,0,1,1.5-3.29,12.23,12.23,0,0,1,2.21-2.57,13.72,13.72,0,0,1,2.65-1.84,13.1,13.1,0,0,1,2.85-1.11,11.66,11.66,0,0,1,5.9,0,6.93,6.93,0,0,1,2.2,1,4.29,4.29,0,0,1,1.31,1.5,3.91,3.91,0,0,1,.43,1.79,3.39,3.39,0,0,1-.65,2,6,6,0,0,1-1.73,1.57Zm4.83-4.88a3.81,3.81,0,0,0,.52-.37,1.34,1.34,0,0,0,.32-.43,2.32,2.32,0,0,0,.18-.62,6,6,0,0,0,.06-.92,7.61,7.61,0,0,0-.13-1.33,5.37,5.37,0,0,0-.44-1.38,3.44,3.44,0,0,0-.79-1.08,1.66,1.66,0,0,0-1.15-.43,2.22,2.22,0,0,0-1.48.52,4,4,0,0,0-1,1.33,8.32,8.32,0,0,0-.62,1.86,20.9,20.9,0,0,0-.35,2.1q-.12,1.06-.14,2t0,1.65Z"/><path class="cls-18" d="M797.19,128.93a3.7,3.7,0,0,0-1,.14,2.38,2.38,0,0,0-.88.47,2.22,2.22,0,0,0-.6.82,2.88,2.88,0,0,0-.22,1.17,3.11,3.11,0,0,0,.68,1.86,16.15,16.15,0,0,0,1.71,1.92q1,1,2.21,2.07a24.52,24.52,0,0,1,2.21,2.26,12.79,12.79,0,0,1,1.71,2.54,6.27,6.27,0,0,1,.68,2.88,7.6,7.6,0,0,1-.59,3.08,6.27,6.27,0,0,1-1.68,2.28,7.48,7.48,0,0,1-2.64,1.43,11.35,11.35,0,0,1-3.45.49,9.09,9.09,0,0,1-3-.47,10.86,10.86,0,0,1-2.39-1.15,10.45,10.45,0,0,1-1.79-1.45,9.68,9.68,0,0,1-1.15-1.39l.84-.6a8.15,8.15,0,0,0,.79.78,7.77,7.77,0,0,0,1.07.78,6.24,6.24,0,0,0,1.26.59,4.23,4.23,0,0,0,1.37.23,4.6,4.6,0,0,0,2.84-.83,2.88,2.88,0,0,0,1.11-2.46,3.59,3.59,0,0,0-.6-1.89,14.82,14.82,0,0,0-1.51-2q-.91-1-2-2.14a28.91,28.91,0,0,1-2-2.28,13.5,13.5,0,0,1-1.51-2.43,5.92,5.92,0,0,1-.6-2.6,5.46,5.46,0,0,1,.61-2.64,5.59,5.59,0,0,1,1.63-1.87,7.32,7.32,0,0,1,2.33-1.12,9.84,9.84,0,0,1,2.7-.37,13.77,13.77,0,0,1,2.93.29,7.19,7.19,0,0,1,2.27.88,4.24,4.24,0,0,1,1.47,1.48,4,4,0,0,1,.52,2.07,2.3,2.3,0,0,1-.6,1.59,2.14,2.14,0,0,1-1.68.67,2.42,2.42,0,0,1-1.57-.44,1.49,1.49,0,0,1-.54-1.21,1.16,1.16,0,0,1,.25-.79,2.23,2.23,0,0,1,.56-.47l.56-.31a.39.39,0,0,0,.25-.35,1.2,1.2,0,0,0-.72-1.07A3.82,3.82,0,0,0,797.19,128.93Z"/><path class="cls-18" d="M815.43,129.08v17.76a2.52,2.52,0,0,0,.48,1.77,1.76,1.76,0,0,0,1.32.49,1.94,1.94,0,0,0,1.15-.36,4.22,4.22,0,0,0,.86-.82,5.09,5.09,0,0,0,.74-1.18l.74.34q-.36.77-.85,1.68a6.66,6.66,0,0,1-3.36,3,8,8,0,0,1-3.11.53,6.6,6.6,0,0,1-2-.31,4.76,4.76,0,0,1-1.73-1,4.93,4.93,0,0,1-1.21-1.68,5.86,5.86,0,0,1-.46-2.43v-17.8h-2.69v-1.73a7.25,7.25,0,0,0,1.87-.35,9.35,9.35,0,0,0,2.46-1.17,9.79,9.79,0,0,0,2.34-2.19,8.36,8.36,0,0,0,1.54-3.39h1.92v7.09h3.92q1.92,0,1.92-.65a.32.32,0,0,0-.24-.32l-.54-.22a1.75,1.75,0,0,1-.54-.37,1.09,1.09,0,0,1-.24-.79,1.36,1.36,0,0,1,.42-1.06,1.56,1.56,0,0,1,1.09-.38,1.53,1.53,0,0,1,.76.18,1.64,1.64,0,0,1,.54.48,2.17,2.17,0,0,1,.32.68,2.83,2.83,0,0,1,.11.77,3.41,3.41,0,0,1-.9,2.49,3.9,3.9,0,0,1-2.9.92Z"/><path class="cls-18" d="M462.92,136.29c.58-1.23,1.34-2.23,2.87-2.26a2.83,2.83,0,0,1,2.94,2.33,2.88,2.88,0,0,1-1.72,3.26,2.94,2.94,0,0,1-3.65-1.23c-.15-.26-.3-.53-.44-.79Zm4.43.63a1.47,1.47,0,0,0-2.94,0,1.47,1.47,0,0,0,2.94,0Z"/><path class="cls-18" d="M481.8,112.28v10.27h33.39v3H478.83V112.28Z"/><path class="cls-18" d="M515.89,135.14v2.94H471v-2.94Z"/><path class="cls-18" d="M831.52,156.08v-2.94h36.67v13.27h-2.86c0-.33,0-.65,0-1q0-4,0-8c0-1.32,0-1.32-1.28-1.32H831.52Z"/><path class="cls-18" d="M876,140.68v2.84h-44.5v-2.84Z"/><path class="cls-18" d="M854.18,111.15v18.31H831.55v-3h19.6c0-.47,0-.84,0-1.2q0-6.44,0-12.88c0-1.24,0-1.24,1.28-1.24Z"/><path class="cls-18" d="M492.85,167.42V149.26H515.5v2.93H497c-1.2,0-1.2,0-1.2,1.24q0,6.39,0,12.79v1.2Z"/><path class="cls-18" d="M484.57,104.59a4.55,4.55,0,0,1-4.57,4.63,4.64,4.64,0,1,1,0-9.29A4.57,4.57,0,0,1,484.57,104.59ZM480,103a1.57,1.57,0,0,0-1.63,1.56,1.54,1.54,0,0,0,1.58,1.6,1.6,1.6,0,0,0,1.6-1.5A1.63,1.63,0,0,0,480,103Z"/><path class="cls-18" d="M871.08,173.66a4.64,4.64,0,0,1-9.29,0,4.64,4.64,0,1,1,9.29,0Zm-4.59-1.57a1.58,1.58,0,0,0-1.63,1.55,1.64,1.64,0,0,0,1.55,1.65,1.71,1.71,0,0,0,1.66-1.57A1.67,1.67,0,0,0,866.49,172.09Z"/><path class="cls-18" d="M884,138.7a3.09,3.09,0,1,1-3.14,3.1A3.08,3.08,0,0,1,884,138.7Z"/><path class="cls-18" d="M491.28,174.18a3,3,0,0,1,3.07-3.13,3.09,3.09,0,1,1,0,6.17A3,3,0,0,1,491.28,174.18Z"/><path class="cls-18" d="M853,108.82a2.9,2.9,0,1,1,2.92-2.87A2.88,2.88,0,0,1,853,108.82Zm0-1.45a1.45,1.45,0,1,0,0-2.9,1.45,1.45,0,0,0-1.44,1.49A1.47,1.47,0,0,0,853,107.37Z"/><path class="cls-18" d="M554.87,64.73H558l-7.47,22.07H547.4l-5.71-18.22-5.8,18.22h-3.12l-7.44-22.07h3.25l5.83,18.82,5.8-18.82h3l5.83,18.82Z"/><path class="cls-18" d="M572,72.31a9.37,9.37,0,0,1,2,6.35c0,.42,0,.74,0,.95H560.73a5.68,5.68,0,0,0,1.88,3.56,5.55,5.55,0,0,0,3.77,1.32,7.05,7.05,0,0,0,2.76-.54,6.62,6.62,0,0,0,2.22-1.51L573,84.12a8.41,8.41,0,0,1-3,2,9.86,9.86,0,0,1-3.85.73,8.85,8.85,0,0,1-4.37-1.06,7.41,7.41,0,0,1-3-3,9.59,9.59,0,0,1,0-8.75,7.69,7.69,0,0,1,2.95-3A8.5,8.5,0,0,1,566.09,70,7.35,7.35,0,0,1,572,72.31Zm-.66,5a4.83,4.83,0,0,0-5.17-4.89,5.27,5.27,0,0,0-3.67,1.32,5.55,5.55,0,0,0-1.75,3.56Z"/><path class="cls-18" d="M596.38,86.79V84.46q-1.86,2.46-5.83,2.46a6.65,6.65,0,0,1-3-.66,4.88,4.88,0,0,1-2-1.83,4.94,4.94,0,0,1-.71-2.62,4.28,4.28,0,0,1,1.65-3.55,7.41,7.41,0,0,1,4.62-1.34h5.3v-.79a3.45,3.45,0,0,0-1.09-2.73,4.65,4.65,0,0,0-3.17-1,9.07,9.07,0,0,0-5.14,1.8l-1.23-2a15.26,15.26,0,0,1,3.33-1.69A11.35,11.35,0,0,1,592.7,70a7,7,0,0,1,4.82,1.53,5.54,5.54,0,0,1,1.73,4.27l0,11Zm-1.75-3.29a3.92,3.92,0,0,0,1.72-2.63V79.2h-4.89a5.7,5.7,0,0,0-2.95.6,2.07,2.07,0,0,0-1,1.89,2.46,2.46,0,0,0,1,2,4.17,4.17,0,0,0,2.62.76A6,6,0,0,0,594.63,83.5Z"/><path class="cls-18" d="M609.78,71a6.94,6.94,0,0,1,3.59-1v2.84A5.36,5.36,0,0,0,607.45,78v8.79h-2.93V70.12h2.93v3.59A6,6,0,0,1,609.78,71Z"/><path class="cls-18" d="M629.1,72.31a9.37,9.37,0,0,1,2,6.35c0,.42,0,.74,0,.95H617.88a5.68,5.68,0,0,0,1.88,3.56,5.55,5.55,0,0,0,3.77,1.32,7.05,7.05,0,0,0,2.76-.54,6.62,6.62,0,0,0,2.22-1.51l1.61,1.67a8.41,8.41,0,0,1-3,2,9.86,9.86,0,0,1-3.85.73,8.85,8.85,0,0,1-4.37-1.06,7.41,7.41,0,0,1-3-3,9.59,9.59,0,0,1,0-8.75,7.69,7.69,0,0,1,2.95-3A8.5,8.5,0,0,1,623.24,70,7.35,7.35,0,0,1,629.1,72.31Zm-.66,5a4.83,4.83,0,0,0-5.17-4.89,5.27,5.27,0,0,0-3.67,1.32,5.55,5.55,0,0,0-1.75,3.56Z"/><path class="cls-18" d="M650.29,72.64a5.8,5.8,0,0,0-2.92.73,5.14,5.14,0,0,0-2,2,6.26,6.26,0,0,0-.73,3.06,6.38,6.38,0,0,0,.71,3.06,5.22,5.22,0,0,0,2,2.07,5.47,5.47,0,0,0,2.85.74,7.49,7.49,0,0,0,2.9-.54,5.51,5.51,0,0,0,2.14-1.54l1.67,1.7A7.38,7.38,0,0,1,654,86.13a9.87,9.87,0,0,1-4,.76,8.6,8.6,0,0,1-4.32-1.07,7.57,7.57,0,0,1-2.95-3,8.86,8.86,0,0,1-1.06-4.37,9,9,0,0,1,1.06-4.38,7.55,7.55,0,0,1,2.95-3A8.6,8.6,0,0,1,650,70a10.56,10.56,0,0,1,3.8.65,7.35,7.35,0,0,1,2.82,1.88l-1.61,2A6.6,6.6,0,0,0,650.29,72.64Z"/><path class="cls-18" d="M672.89,72.31a9.37,9.37,0,0,1,2,6.35c0,.42,0,.74,0,.95H661.67a5.68,5.68,0,0,0,1.88,3.56,5.55,5.55,0,0,0,3.77,1.32,7.05,7.05,0,0,0,2.76-.54,6.62,6.62,0,0,0,2.22-1.51l1.61,1.67a8.41,8.41,0,0,1-3,2,9.86,9.86,0,0,1-3.85.73,8.85,8.85,0,0,1-4.37-1.06,7.41,7.41,0,0,1-3-3,9.59,9.59,0,0,1,0-8.75,7.69,7.69,0,0,1,2.95-3A8.5,8.5,0,0,1,667,70,7.35,7.35,0,0,1,672.89,72.31Zm-.66,5a4.83,4.83,0,0,0-5.17-4.89,5.27,5.27,0,0,0-3.67,1.32,5.55,5.55,0,0,0-1.75,3.56Z"/><path class="cls-18" d="M679,63.41H682V86.79H679Z"/><path class="cls-18" d="M700.41,72.31a9.37,9.37,0,0,1,2,6.35c0,.42,0,.74,0,.95H689.19a5.68,5.68,0,0,0,1.88,3.56,5.55,5.55,0,0,0,3.77,1.32,7.05,7.05,0,0,0,2.76-.54,6.62,6.62,0,0,0,2.22-1.51l1.61,1.67a8.41,8.41,0,0,1-3,2,9.86,9.86,0,0,1-3.85.73,8.85,8.85,0,0,1-4.37-1.06,7.41,7.41,0,0,1-3-3,9.59,9.59,0,0,1,0-8.75,7.69,7.69,0,0,1,2.95-3A8.5,8.5,0,0,1,694.54,70,7.35,7.35,0,0,1,700.41,72.31Zm-.66,5a4.83,4.83,0,0,0-5.17-4.89,5.27,5.27,0,0,0-3.67,1.32,5.55,5.55,0,0,0-1.75,3.56Z"/><path class="cls-18" d="M719.83,71.1a7.36,7.36,0,0,1,2.84,3,10.13,10.13,0,0,1,0,8.78,7.2,7.2,0,0,1-2.81,3,8.07,8.07,0,0,1-4.15,1.06A7.6,7.6,0,0,1,712,86a6.32,6.32,0,0,1-2.52-2.52v3.31h-2.93V63.41h2.93v10A6.36,6.36,0,0,1,712,70.91a7.45,7.45,0,0,1,3.67-.88A8.07,8.07,0,0,1,719.83,71.1ZM718,83.58a5.21,5.21,0,0,0,2-2.11,6.5,6.5,0,0,0,.71-3.06,6.31,6.31,0,0,0-.73-3,5.36,5.36,0,0,0-2-2.11,5.47,5.47,0,0,0-2.87-.76,5.55,5.55,0,0,0-2.88.76,5.32,5.32,0,0,0-2,2.11,6.78,6.78,0,0,0,0,6.1,5.33,5.33,0,0,0,2,2.1,5.87,5.87,0,0,0,5.77,0Z"/><path class="cls-18" d="M733,71a6.94,6.94,0,0,1,3.59-1v2.84A5.36,5.36,0,0,0,730.7,78v8.79h-2.93V70.12h2.93v3.59A6,6,0,0,1,733,71Z"/><path class="cls-18" d="M749.27,86.79V84.46q-1.86,2.46-5.83,2.46a6.65,6.65,0,0,1-3-.66,4.88,4.88,0,0,1-2-1.83,4.94,4.94,0,0,1-.71-2.62,4.28,4.28,0,0,1,1.65-3.55,7.41,7.41,0,0,1,4.62-1.34h5.3v-.79a3.45,3.45,0,0,0-1.09-2.73,4.65,4.65,0,0,0-3.17-1,9.07,9.07,0,0,0-5.14,1.8l-1.23-2a15.26,15.26,0,0,1,3.33-1.69,11.35,11.35,0,0,1,3.64-.52,7,7,0,0,1,4.82,1.53,5.54,5.54,0,0,1,1.73,4.27l0,11Zm-1.75-3.29a3.92,3.92,0,0,0,1.72-2.63V79.2h-4.89a5.7,5.7,0,0,0-2.95.6,2.07,2.07,0,0,0-1,1.89,2.46,2.46,0,0,0,1,2,4.17,4.17,0,0,0,2.62.76A6,6,0,0,0,747.52,83.5Z"/><path class="cls-18" d="M766.35,85.69a7.19,7.19,0,0,1-3.91,1.23,4.45,4.45,0,0,1-3.22-1.18A4.75,4.75,0,0,1,758,82.16V72.92h-2.36V70.69H758V66.21h3v4.48h5.11v2.24H761v8.7a3.09,3.09,0,0,0,.5,2,1.87,1.87,0,0,0,1.51.6,5.29,5.29,0,0,0,2.58-.79Z"/><path class="cls-18" d="M772.67,64a2,2,0,0,1,0,2.71,1.86,1.86,0,0,1-2.62,0,2,2,0,0,1,0-2.71,1.86,1.86,0,0,1,2.62,0Zm-2.76,6.12h2.93V86.79h-2.93Z"/><path class="cls-18" d="M792.42,71.74a6.52,6.52,0,0,1,1.67,4.74V86.79h-2.93V77.28A4.45,4.45,0,0,0,790,74a4.41,4.41,0,0,0-3.26-1.18,5,5,0,0,0-3.64,1.43,5.63,5.63,0,0,0-1.59,3.64v8.92h-2.93V70.12h2.93v3.53q1.67-3.56,6.34-3.62A6.12,6.12,0,0,1,792.42,71.74Z"/><path class="cls-18" d="M814.08,70.12v15A8.12,8.12,0,0,1,813,89.29,7,7,0,0,1,810,92a9.89,9.89,0,0,1-4.48,1,11.39,11.39,0,0,1-6.87-2.33L800,88.53a8.88,8.88,0,0,0,2.55,1.5,8.33,8.33,0,0,0,2.9.49,5.79,5.79,0,0,0,4.13-1.45,5.07,5.07,0,0,0,1.54-3.88V82.85a6.2,6.2,0,0,1-2.4,2.35,7.06,7.06,0,0,1-3.47.83,7.57,7.57,0,0,1-4-1,7,7,0,0,1-2.66-2.85,9,9,0,0,1-.95-4.19,8.73,8.73,0,0,1,.95-4.13A6.92,6.92,0,0,1,801.3,71a7.67,7.67,0,0,1,4-1,7.14,7.14,0,0,1,3.48.82,6.11,6.11,0,0,1,2.38,2.33V70.12Zm-5.52,12.83a5.07,5.07,0,0,0,1.88-2,6.05,6.05,0,0,0,.68-2.88,6.12,6.12,0,0,0-.68-2.92,5.07,5.07,0,0,0-1.88-2,5.19,5.19,0,0,0-2.74-.72,5.27,5.27,0,0,0-2.76.72,5.14,5.14,0,0,0-1.91,2,6,6,0,0,0-.69,2.92,5.76,5.76,0,0,0,1.51,4,5,5,0,0,0,3.85,1.58A5.19,5.19,0,0,0,808.56,82.95Z"/></svg>