<svg id="Layer_1" data-name="Layer 1" xmlns="http://www.w3.org/2000/svg" viewBox="0 0 102 21"><defs><style>.cls-1{fill:#fff;}.cls-2{fill:#ff544e;}</style></defs><title>prs</title><path class="cls-1" d="M27.81,10.35h1v2.92a5.08,5.08,0,0,1-3,1,4.19,4.19,0,0,1-2.1-.54,4,4,0,0,1-2.06-3.53,3.88,3.88,0,0,1,.56-2,4,4,0,0,1,1.52-1.46,4.33,4.33,0,0,1,2.14-.53,4.6,4.6,0,0,1,1.62.29,4.38,4.38,0,0,1,1.37.81l-.62.8a3.44,3.44,0,0,0-1.1-.69,3.4,3.4,0,0,0-1.27-.25,3.09,3.09,0,0,0-1.57.41,3,3,0,0,0-1.13,1.11,3.08,3.08,0,0,0,0,3.1,3.11,3.11,0,0,0,1.14,1.13,3.07,3.07,0,0,0,1.57.42,3.35,3.35,0,0,0,1-.17,3.77,3.77,0,0,0,1-.46Z"/><path class="cls-1" d="M35.27,9A3.37,3.37,0,0,1,36,11.31c0,.15,0,.27,0,.34H31.22a2,2,0,0,0,.68,1.28,2,2,0,0,0,1.36.48,2.54,2.54,0,0,0,1-.19,2.39,2.39,0,0,0,.8-.55l.58.6a3,3,0,0,1-1.07.74,3.57,3.57,0,0,1-1.39.26,3.19,3.19,0,0,1-1.57-.38,2.67,2.67,0,0,1-1.07-1.07,3.23,3.23,0,0,1-.38-1.58,3.19,3.19,0,0,1,.38-1.57A2.78,2.78,0,0,1,31.6,8.59a3.06,3.06,0,0,1,1.56-.39A2.65,2.65,0,0,1,35.27,9ZM35,10.83a1.74,1.74,0,0,0-1.86-1.76,1.91,1.91,0,0,0-1.32.48,2,2,0,0,0-.63,1.28Z"/><path class="cls-1" d="M40.65,13.84a2.59,2.59,0,0,1-1.41.44,1.6,1.6,0,0,1-1.16-.43,1.71,1.71,0,0,1-.44-1.29V9.24h-.85V8.43h.85V6.82h1.07V8.43h1.84v.81H38.71v3.14a1.11,1.11,0,0,0,.18.72.67.67,0,0,0,.55.22,1.91,1.91,0,0,0,.93-.28Z"/><path class="cls-1" d="M50.35,6.8a3.8,3.8,0,0,1,1.47,1.43,3.93,3.93,0,0,1,.53,2,3.9,3.9,0,0,1-.54,2,3.82,3.82,0,0,1-1.48,1.43,4.31,4.31,0,0,1-2.11.52H45v-8h3.24A4.25,4.25,0,0,1,50.35,6.8Zm-.57,6.06a2.83,2.83,0,0,0,1.07-1.07,3.15,3.15,0,0,0,0-3.06,2.89,2.89,0,0,0-1.09-1.07,3,3,0,0,0-1.53-.39H46.11v6h2.17A3,3,0,0,0,49.78,12.86Z"/><path class="cls-1" d="M54.8,6a.73.73,0,0,1,0,1,.67.67,0,0,1-.94,0,.73.73,0,0,1,0-1,.67.67,0,0,1,.94,0Zm-1,2.21h1.06v6H53.81Z"/><path class="cls-1" d="M58.82,8.54a2.5,2.5,0,0,1,1.3-.35v1A1.93,1.93,0,0,0,58,11.07v3.17H56.92v-6H58V9.52A2.17,2.17,0,0,1,58.82,8.54Z"/><path class="cls-1" d="M65.78,9a3.37,3.37,0,0,1,.72,2.29c0,.15,0,.27,0,.34H61.74a2,2,0,0,0,.68,1.28,2,2,0,0,0,1.36.48,2.54,2.54,0,0,0,1-.19,2.39,2.39,0,0,0,.8-.55l.58.6a3,3,0,0,1-1.07.74,3.57,3.57,0,0,1-1.39.26,3.19,3.19,0,0,1-1.57-.38,2.67,2.67,0,0,1-1.07-1.07,3.23,3.23,0,0,1-.38-1.58,3.19,3.19,0,0,1,.38-1.57,2.78,2.78,0,0,1,1.06-1.08,3.06,3.06,0,0,1,1.56-.39A2.65,2.65,0,0,1,65.78,9Zm-.24,1.81a1.74,1.74,0,0,0-1.86-1.76,1.91,1.91,0,0,0-1.32.48,2,2,0,0,0-.63,1.28Z"/><path class="cls-1" d="M70.44,9.14a2.09,2.09,0,0,0-1.05.26,1.85,1.85,0,0,0-.72.74,2.26,2.26,0,0,0-.26,1.1,2.3,2.3,0,0,0,.26,1.1,1.88,1.88,0,0,0,.71.74,2,2,0,0,0,1,.27,2.7,2.7,0,0,0,1-.19,2,2,0,0,0,.77-.56l.6.61a2.67,2.67,0,0,1-1,.78,3.56,3.56,0,0,1-1.43.27,3.11,3.11,0,0,1-1.56-.39,2.73,2.73,0,0,1-1.06-1.07,3.19,3.19,0,0,1-.38-1.57,3.22,3.22,0,0,1,.38-1.58,2.72,2.72,0,0,1,1.06-1.08,3.1,3.1,0,0,1,1.56-.39,3.81,3.81,0,0,1,1.37.23,2.64,2.64,0,0,1,1,.68l-.58.73A2.38,2.38,0,0,0,70.44,9.14Z"/><path class="cls-1" d="M77.55,13.84a2.58,2.58,0,0,1-1.41.44A1.6,1.6,0,0,1,75,13.86a1.71,1.71,0,0,1-.44-1.29V9.24h-.85V8.43h.85V6.82h1.07V8.43h1.84v.81H75.61v3.14a1.11,1.11,0,0,0,.18.72.67.67,0,0,0,.54.22,1.9,1.9,0,0,0,.93-.28Z"/><path class="cls-1" d="M79.83,6a.73.73,0,0,1,0,1,.67.67,0,0,1-.94,0,.73.73,0,0,1,0-1,.67.67,0,0,1,.94,0Zm-1,2.21h1.06v6H78.84Z"/><path class="cls-1" d="M86,8.58a2.78,2.78,0,0,1,1.09,1.07,3.11,3.11,0,0,1,.39,1.57,3.15,3.15,0,0,1-.39,1.58A2.77,2.77,0,0,1,86,13.89a3.52,3.52,0,0,1-3.2,0,2.78,2.78,0,0,1-1.09-1.07,3.15,3.15,0,0,1-.39-1.58,3.12,3.12,0,0,1,.39-1.57,2.78,2.78,0,0,1,1.09-1.07,3.51,3.51,0,0,1,3.2,0Zm-2.65.81a1.89,1.89,0,0,0-.72.76,2.31,2.31,0,0,0-.25,1.1,2.37,2.37,0,0,0,.25,1.11,1.84,1.84,0,0,0,.72.76,2.06,2.06,0,0,0,1.05.27,2,2,0,0,0,1-.27,1.84,1.84,0,0,0,.72-.76,2.35,2.35,0,0,0,.26-1.11,2.3,2.3,0,0,0-.26-1.1,1.89,1.89,0,0,0-.72-.76,2,2,0,0,0-1-.27A2,2,0,0,0,83.4,9.39Z"/><path class="cls-1" d="M94,8.81a2.35,2.35,0,0,1,.6,1.71v3.71H93.55V10.81a1.61,1.61,0,0,0-.43-1.19,1.59,1.59,0,0,0-1.18-.43,1.81,1.81,0,0,0-1.31.52A2,2,0,0,0,90.06,11v3.21H89v-6h1.06V9.5a2.32,2.32,0,0,1,2.28-1.31A2.21,2.21,0,0,1,94,8.81Z"/><path class="cls-1" d="M99,9.19a3,3,0,0,0-.86-.14,1.47,1.47,0,0,0-.77.18.59.59,0,0,0-.29.54.6.6,0,0,0,.32.55,4.7,4.7,0,0,0,1,.38,7.63,7.63,0,0,1,1,.36,1.8,1.8,0,0,1,.68.53,1.46,1.46,0,0,1,.28.93,1.48,1.48,0,0,1-.64,1.29,2.74,2.74,0,0,1-1.6.44,4,4,0,0,1-1.3-.22,3,3,0,0,1-1.06-.61l.4-.77a2.8,2.8,0,0,0,.93.55,3.09,3.09,0,0,0,1.07.2,1.61,1.61,0,0,0,.84-.19.64.64,0,0,0,.32-.59.67.67,0,0,0-.33-.61,4.56,4.56,0,0,0-1-.41,6.77,6.77,0,0,1-1-.35,1.75,1.75,0,0,1-.65-.52A1.39,1.39,0,0,1,96,9.86a1.42,1.42,0,0,1,.61-1.26,2.65,2.65,0,0,1,1.53-.42,3.85,3.85,0,0,1,1.07.15,3.22,3.22,0,0,1,.92.41l-.39.81A3.69,3.69,0,0,0,99,9.19Z"/><path class="cls-2" d="M1.31,8.93V8.21c0-.18.06-.36.09-.54a6.2,6.2,0,0,1,5-5.19l.76-.14h.72l.57.09a6.2,6.2,0,0,1,5.12,4.82c.07.31.12.63.17.95v.72a1.28,1.28,0,0,0-.07.24,6,6,0,0,1-1.29,3.24l-2.34,3c-.66.86-1.31,1.72-2,2.58A.61.61,0,0,1,7,18l-.18-.23L2.63,12.36A5.88,5.88,0,0,1,1.52,10C1.44,9.65,1.38,9.29,1.31,8.93Zm6.21,1.65A2.63,2.63,0,1,0,4.89,8,2.64,2.64,0,0,0,7.53,10.58Z"/></svg>