<svg id="Layer_1" data-name="Layer 1" xmlns="http://www.w3.org/2000/svg" viewBox="0 0 96 129.23"><defs><style>.cls-1{fill:#fff;}</style></defs><title>doc icons</title><path class="cls-1" d="M92.2,1.62H3.8A2.29,2.29,0,0,0,1.51,3.9v60h83.4v42.88H1.6v0l-.09.06v18.48a2.29,2.29,0,0,0,2.28,2.28H92.2a2.29,2.29,0,0,0,2.28-2.28V3.9A2.29,2.29,0,0,0,92.2,1.62ZM55.34,39H12.56V35.12H55.34ZM82.9,29.24H12.56V25.33H82.9Zm0-9.79H12.56V15.55H82.9Z"/><path class="cls-1" d="M22.37,74.67a11.34,11.34,0,0,1,4,4.57,15.37,15.37,0,0,1,0,13,11.41,11.41,0,0,1-4,4.57,10.25,10.25,0,0,1-5.71,1.66H8V73H16.7A10.13,10.13,0,0,1,22.37,74.67ZM20.83,94.1a8.51,8.51,0,0,0,2.89-3.42,11.77,11.77,0,0,0,0-9.79,8.68,8.68,0,0,0-2.93-3.44,7.21,7.21,0,0,0-4.13-1.26H10.9V95.34h5.86A7.1,7.1,0,0,0,20.83,94.1Z"/><path class="cls-1" d="M49.53,74.51a12,12,0,0,1,4.1,4.68,14.26,14.26,0,0,1,1.5,6.54,14.48,14.48,0,0,1-1.5,6.57A12,12,0,0,1,49.53,97a10.24,10.24,0,0,1-11.39,0A12,12,0,0,1,34,92.3a14.46,14.46,0,0,1-1.5-6.57A14.25,14.25,0,0,1,34,79.19a12,12,0,0,1,4.08-4.68,10.36,10.36,0,0,1,11.41,0ZM39.7,77.24a9.28,9.28,0,0,0-3.05,3.55,10.75,10.75,0,0,0-1.14,4.93,10.86,10.86,0,0,0,1.14,5,9.39,9.39,0,0,0,3.05,3.59,7.16,7.16,0,0,0,4.16,1.33A7,7,0,0,0,48,94.26a9.38,9.38,0,0,0,3-3.59,11,11,0,0,0,1.12-5A10.86,10.86,0,0,0,51,80.79a9.26,9.26,0,0,0-3-3.55,7.09,7.09,0,0,0-4.13-1.31A7.23,7.23,0,0,0,39.7,77.24Z"/><path class="cls-1" d="M74.52,76.75a7.12,7.12,0,0,0-3.35-.86A7.2,7.2,0,0,0,67,77.2a9.08,9.08,0,0,0-3,3.55,11.52,11.52,0,0,0,0,9.85,9.06,9.06,0,0,0,3,3.57,7.21,7.21,0,0,0,4.18,1.31,7.31,7.31,0,0,0,3.32-.82,9.65,9.65,0,0,0,2.89-2.24l1.78,2.29a12,12,0,0,1-3.78,3A9.67,9.67,0,0,1,71,98.76,9.78,9.78,0,0,1,65.41,97a12,12,0,0,1-4-4.72,14.68,14.68,0,0,1-1.47-6.59,14.38,14.38,0,0,1,1.49-6.54,11.89,11.89,0,0,1,4.07-4.68,10.13,10.13,0,0,1,10-.71,10.78,10.78,0,0,1,3.64,2.82l-1.75,2.51A9.05,9.05,0,0,0,74.52,76.75Z"/></svg>