<svg id="Layer_1" data-name="Layer 1" xmlns="http://www.w3.org/2000/svg" viewBox="0 0 92 92"><defs><style>.cls-1{fill:#fff;}.cls-2{fill:#273274;}</style></defs><title>footer button</title><circle class="cls-1" cx="46" cy="46" r="44.67"/><path class="cls-2" d="M25.11,45.9c2.6-2.19,5.19-4.4,7.79-6.58q5.37-4.5,10.77-9a3.26,3.26,0,0,1,4.67,0l6,5c0-1.41,0-2.62,0-3.83,0-2.05,0-2.05,2-2.05,1.11,0,2.23,0,3.34,0s1.25.22,1.25,1.27c0,3.13,0,6.25,0,9.38a1.87,1.87,0,0,0,.57,1.22c1.75,1.56,3.56,3.06,5.35,4.57v.56c-.51.62-1,1.25-1.53,1.85-.66.77-1,.8-1.78.14L50,37.11l-4-3.31-5.12,4.26L28.42,48.46c-.78.65-1.12.63-1.78-.14-.52-.61-1-1.24-1.53-1.85Z"/><path class="cls-2" d="M46,36.1l9.91,8.16c1.5,1.24,3,2.46,4.49,3.74a1.61,1.61,0,0,1,.52,1.07c0,3.84,0,7.67,0,11.51,0,1.41-.64,2-2,2H49.33V52.7H42.67v9.91c-3.42,0-6.72,0-10,0a1.61,1.61,0,0,1-1.57-1.74c0-4,0-8,0-12a1,1,0,0,1,.31-.71Q38.66,42.13,46,36.1Z"/></svg>