<svg id="Layer_1" data-name="Layer 1" xmlns="http://www.w3.org/2000/svg" viewBox="0 0 92 92"><defs><style>.cls-1{fill:#fff;}.cls-2{fill:#273274;}</style></defs><title>footer button</title><circle class="cls-1" cx="46" cy="46" r="44.67"/><path class="cls-2" d="M36.56,53.82,33.75,45.5c-1.57.51-3.06,1-4.57,1.46a3.41,3.41,0,0,1-3.78-1.38,3.5,3.5,0,0,1,.16-4.13,5.49,5.49,0,0,1,1.94-1.28c1.28-.54,2.62-.93,4-1.4-.49-1.54-1-3-1.4-4.48a3.4,3.4,0,0,1,2.13-4,3.44,3.44,0,0,1,4.24,1.43A8.53,8.53,0,0,1,37,33.17c.38,1.1.75,2.21,1.15,3.4l8.38-2.81c-.46-1.34-.9-2.62-1.33-3.9-.77-2.29,0-4.19,2.1-4.87s3.77.32,4.55,2.57c.45,1.28.88,2.56,1.35,3.94,1.42-.46,2.77-.94,4.14-1.33a3.47,3.47,0,0,1,4.57,3.72,3.35,3.35,0,0,1-2.46,3c-1.31.46-2.63.88-4.05,1.35l2.8,8.31c1.45-.46,2.83-.93,4.23-1.35a3.45,3.45,0,0,1,4.23,1.46,3.53,3.53,0,0,1-2.06,5.21c-1.34.48-2.7.93-4.14,1.42.47,1.44,1,2.78,1.35,4.14a3.51,3.51,0,0,1-4.4,4.42,3.43,3.43,0,0,1-2.28-2.33c-.45-1.31-.88-2.64-1.34-4l-8.31,2.8c.35,1.08.68,2.1,1,3.13A13.77,13.77,0,0,1,47,63a3.4,3.4,0,0,1-2.3,4A3.44,3.44,0,0,1,40.32,65c-.57-1.43-1-2.9-1.57-4.44-1.48.47-2.9,1-4.33,1.37a3.34,3.34,0,0,1-3.77-1.37,3.26,3.26,0,0,1,0-4,6.2,6.2,0,0,1,2.21-1.46C34.06,54.55,35.31,54.23,36.56,53.82Zm6.67-2.22,8.34-2.82-2.82-8.34-8.33,2.83Z"/></svg>