<svg id="Layer_1" data-name="Layer 1" xmlns="http://www.w3.org/2000/svg" xmlns:xlink="http://www.w3.org/1999/xlink" viewBox="0 0 517 203"><defs><style>.cls-1{fill:#ff8c58;stroke-width:8px;}.cls-1,.cls-3{stroke:#fff;stroke-miterlimit:10;}.cls-2{fill:#273274;}.cls-10,.cls-3{fill:#fff;}.cls-3{stroke-width:13px;}.cls-4{fill:#493636;}.cls-5{fill:#b27f6f;}.cls-6{fill:#b18070;}.cls-7{fill:url(#radial-gradient);}.cls-8{fill:url(#radial-gradient-2);}.cls-9{fill:#050505;}.cls-11{fill:url(#radial-gradient-3);}.cls-12{fill:url(#radial-gradient-4);}.cls-13{fill:url(#radial-gradient-5);}.cls-14{fill:#4b3838;}</style><radialGradient id="radial-gradient" cx="29.49" cy="52.15" r="24.95" gradientUnits="userSpaceOnUse"><stop offset="0" stop-color="#3192c3"/><stop offset="1" stop-color="#3192c3"/></radialGradient><radialGradient id="radial-gradient-2" cx="90.46" cy="52.14" r="24.95" xlink:href="#radial-gradient"/><radialGradient id="radial-gradient-3" cx="58.98" cy="66.57" r="5.04" xlink:href="#radial-gradient"/><radialGradient id="radial-gradient-4" cx="60.23" cy="49.15" r="3.6" xlink:href="#radial-gradient"/><radialGradient id="radial-gradient-5" cx="65.82" cy="66.04" r="2.77" xlink:href="#radial-gradient"/></defs><title>hacktober elements</title><rect class="cls-1" x="44.16" y="45.73" width="472.84" height="147.27" rx="49.5" ry="49.5"/><path class="cls-2" d="M224.21,114.82H213.14c-2.64,0-4.39-1.29-4.39-3.6V76c0-2.31,1.74-3.6,4.39-3.6h11.08c2.92,0,4.61,2.08,4.61,3.88v34.69C228.82,112.74,227.14,114.82,224.21,114.82Zm-2.08-38h-6.58c-.84,0-1.18.39-1.18,1.24v31c0,.84.34,1.24,1.18,1.24h6.58a1.13,1.13,0,0,0,1.07-1.18V78A1.13,1.13,0,0,0,222.13,76.87Z"/><path class="cls-2" d="M232.76,114.26c0-.73,2.42-2.3,2.42-3.94V76.87c0-1.63-2.42-3.21-2.42-3.94,0-.39.22-.56.62-.56h16.7c3.37,0,5.17,1.41,5.17,4.67v14.9a4.25,4.25,0,0,1-2,3.09L241.48,103a1.6,1.6,0,0,0-.67,1.46v5.9c0,1.63,2.42,3.21,2.42,3.94,0,.39-.22.56-.62.56h-9.22C233,114.82,232.76,114.65,232.76,114.26Zm8-36.27V96.32c0,.34.17.56.39.56a1.8,1.8,0,0,0,1-.45l5.74-3.82c1.24-.9,1.74-1.58,1.74-2.53V78.61c0-1.29-.45-1.74-1.74-1.74h-6.13A1,1,0,0,0,240.8,78Z"/><path class="cls-2" d="M273.92,78a1,1,0,0,0-1-1.12h-6.64c-.51,0-.79.28-.79.9v17l7.14-4.33a3,3,0,0,1,1.18-.56c.34,0,.51.34.51.73v4.5c0,.67-.39,1-1.18,1.46l-7.65,4.61v8.27a.81.81,0,0,0,.84.9h6.47a1.13,1.13,0,0,0,1.07-1.18v-3.71c0-1,.17-1.35.56-1.63,0,0,3.77-2.42,4.33-2.42s.73.28.73.79v11.08c0,1-.51,1.57-1.69,1.57H258.12c-.39,0-.62-.17-.62-.56,0-.73,2.42-2.3,2.42-3.94V76.87c0-1.63-2.42-3.21-2.42-3.94,0-.39.22-.56.62-.56H277.8c1.24,0,1.74.56,1.74,1.35v6.35c0,1-.17,1.35-.56,1.63,0,0-3.77,2.7-4.33,2.7s-.73-.28-.73-.79Z"/><path class="cls-2" d="M304.85,114.82c-.84,0-1.24-.56-1.86-1.69L291,88.06c-.28-.56-.34-.73-.62-.73s-.28.17-.28.62v22.38c0,1.63,2.42,3.21,2.42,3.94,0,.39-.22.56-.62.56H283c-.39,0-.62-.17-.62-.56,0-.73,2.42-2.3,2.42-3.94V76.87c0-1.63-2.42-3.21-2.42-3.94,0-.39.22-.56.62-.56h6.41c.84,0,1.35.56,1.86,1.69l12.31,27.16c.11.22.22.45.39.45s.17-.34.17-.34V76.87c0-1.63-2.42-3.21-2.42-3.94,0-.39.23-.56.62-.56h8.94c.39,0,.62.17.62.56,0,.73-2.42,2.31-2.42,3.94V113.7a1,1,0,0,1-1.07,1.13Z"/><path class="cls-2" d="M330.26,78a1,1,0,0,0-1-1.12h-6.64c-.51,0-.79.28-.79.9v17L329,90.42a3,3,0,0,1,1.18-.56c.34,0,.51.34.51.73v4.5c0,.67-.39,1-1.18,1.46l-7.65,4.61v8.27a.81.81,0,0,0,.84.9h6.47a1.13,1.13,0,0,0,1.07-1.18v-3.71c0-1,.17-1.35.56-1.63,0,0,3.77-2.42,4.33-2.42s.73.28.73.79v11.08c0,1-.51,1.57-1.69,1.57H314.46c-.39,0-.62-.17-.62-.56,0-.73,2.42-2.3,2.42-3.94V76.87c0-1.63-2.42-3.21-2.42-3.94,0-.39.22-.56.62-.56h19.68c1.24,0,1.74.56,1.74,1.35v6.35c0,1-.17,1.35-.56,1.63,0,0-3.77,2.7-4.33,2.7s-.73-.28-.73-.79Z"/><path class="cls-2" d="M341.12,76.87c0-1.63-2.42-3.21-2.42-3.94,0-.39.22-.56.62-.56H356c3.37,0,5.17,1.41,5.17,4.67v9.28c0,1.8-2,3.21-2.92,3.94-.28.23-.39.34-.39.51s.11.28.34.45c1,.56,4.44,2.53,4.44,4.39v15.63c0,2.31-1.74,3.6-4.39,3.6H339.32c-.39,0-.62-.17-.62-.56,0-.73,2.42-2.3,2.42-3.94ZM346.74,78V91.21c0,.39.17.56.56.56s5.29-3.6,6.52-4.5,1.74-1.57,1.74-2.53V78.61c0-1.29-.45-1.74-1.74-1.74h-6.13A1,1,0,0,0,346.74,78Zm.84,32.33h7.7a1.57,1.57,0,0,0,1.74-1.8V98.24c0-.45-.34-.79-.9-1.24l-2.36-1.91a2.25,2.25,0,0,0-1.12-.67,3.2,3.2,0,0,0-1.52.79l-3.54,2.59a1.81,1.81,0,0,0-.84,1.57v10.07A.81.81,0,0,0,347.58,110.33Z"/><path class="cls-2" d="M371.93,85.08a3.08,3.08,0,0,0,1.46,2.76l9.39,6.75c1.74,1.24,2.47,2.19,2.47,4.27v12.37c0,2.31-1.74,3.6-4.39,3.6h-10c-2.92,0-4.61-2.08-4.61-3.88V100.2c0-.51.23-.79.73-.79s4.33,2.7,4.33,2.7c.39.28.56.67.56,1.63v5.4a1.13,1.13,0,0,0,1.07,1.18h5.45c.84,0,1.18-.39,1.18-1.24v-8a3,3,0,0,0-1.41-2.59l-9.28-6.69c-1.63-1.18-2.64-2.14-2.64-4.22V76c0-2.31,1.74-3.6,4.39-3.6h10c2.92,0,4.61,2.08,4.61,3.88V85.3c0,.51-.22.79-.73.79s-4.33-2.7-4.33-2.7c-.39-.28-.56-.67-.56-1.63V78a1.07,1.07,0,0,0-1.07-1.18h-5.45c-.84,0-1.18.39-1.18,1.24Z"/><path class="cls-2" d="M156.49,138.21a.86.86,0,0,0-.81-.9h-5c-.64,0-.9.3-.9.94v23.61c0,.64.26.94.9.94h5a.86.86,0,0,0,.81-.9v-4.11c0-.73.13-1,.43-1.24a22.16,22.16,0,0,1,3.3-2.06c.39,0,.56.21.56.6v8.18a3.26,3.26,0,0,1-3.51,3h-8.44c-2,0-3.34-1-3.34-2.74V136.63c0-1.76,1.33-2.74,3.34-2.74h8.44a3.26,3.26,0,0,1,3.51,3V141c0,.73-.13,1-.43,1.24a22.14,22.14,0,0,1-3.3,2.06c-.39,0-.56-.21-.56-.6Z"/><path class="cls-2" d="M176,166.23h-8.44c-2,0-3.34-1-3.34-2.74V136.63c0-1.76,1.33-2.74,3.34-2.74H176a3.26,3.26,0,0,1,3.51,3v26.44A3.26,3.26,0,0,1,176,166.23Zm-1.58-28.92h-5c-.64,0-.9.3-.9.94v23.61c0,.64.26.94.9.94h5a.86.86,0,0,0,.81-.9V138.21A.86.86,0,0,0,174.39,137.31Z"/><path class="cls-2" d="M199.63,166.23c-.64,0-.94-.43-1.41-1.29l-9.13-19.11c-.21-.43-.26-.56-.47-.56s-.21.13-.21.47v17.05c0,1.24,1.84,2.44,1.84,3,0,.3-.17.43-.47.43H183c-.3,0-.47-.13-.47-.43,0-.56,1.84-1.76,1.84-3V137.31c0-1.24-1.84-2.44-1.84-3,0-.3.17-.43.47-.43h4.88c.64,0,1,.43,1.41,1.29l9.38,20.69c.09.17.17.34.3.34s.13-.26.13-.26V137.31c0-1.24-1.84-2.44-1.84-3,0-.3.17-.43.47-.43h6.81c.3,0,.47.13.47.43,0,.56-1.84,1.76-1.84,3v28.06a.75.75,0,0,1-.81.86Z"/><path class="cls-2" d="M219.08,134.31c1.24,0,3.08-.43,3.64-.43.3,0,.43.17.43.47v5.4c0,.3-.13.47-.43.47s-.56-.39-1.63-1.63c-.69-.81-1.76-.9-3.51-.9a.72.72,0,0,0-.73.73v24.38c0,1.24,1.84,2.44,1.84,3,0,.3-.17.43-.47.43h-7c-.3,0-.47-.13-.47-.43,0-.56,1.84-1.76,1.84-3V138.43a.72.72,0,0,0-.73-.73c-1.76,0-2.83.09-3.51.9-1.07,1.24-1.33,1.63-1.63,1.63s-.43-.17-.43-.47v-5.4c0-.3.13-.47.43-.47.56,0,2.4.43,3.64.43Z"/><path class="cls-2" d="M224.64,165.81c0-.56,1.84-1.76,1.84-3V137.31c0-1.24-1.84-2.44-1.84-3,0-.3.17-.43.47-.43h13.15c2.57,0,3.94,1.07,3.94,3.56v10.5a2.54,2.54,0,0,1-1.2,2.14l-2.83,2c1.58,4.8,3.64,10.63,4.11,11.31,1,1.5,2,1.89,2,2.44,0,.3-.17.43-.47.43h-6.9c-.3,0-.47-.13-.47-.43,0-.56.94-.81.94-1.54a5.6,5.6,0,0,0-.21-.86c-.56-1.93-1.88-5.57-3.13-8.87l-2.74,1.8a1.22,1.22,0,0,0-.51,1.11v5.36c0,1.24,1.84,2.44,1.84,3,0,.3-.17.43-.47.43h-7C224.82,166.23,224.64,166.11,224.64,165.81Zm6.13-27.64v13.07c0,.3.13.47.3.47a1.62,1.62,0,0,0,.6-.26l4.93-3.21c.94-.69,1.33-1.2,1.33-1.93v-7.67c0-1-.34-1.33-1.33-1.33h-5.1A.79.79,0,0,0,230.77,138.17Z"/><path class="cls-2" d="M252.06,162.81c0,1.24,1.84,2.44,1.84,3,0,.3-.17.43-.47.43h-7c-.3,0-.47-.13-.47-.43,0-.56,1.84-1.76,1.84-3V137.31c0-1.24-1.84-2.44-1.84-3,0-.3.17-.43.47-.43h7c.3,0,.47.13.47.43,0,.56-1.84,1.76-1.84,3Z"/><path class="cls-2" d="M257.68,137.31c0-1.24-1.84-2.44-1.84-3,0-.3.17-.43.47-.43H269c2.57,0,3.94,1.07,3.94,3.56v7.07c0,1.37-1.54,2.44-2.23,3-.21.17-.3.26-.3.39s.09.21.26.34c.73.43,3.38,1.93,3.38,3.34v11.91c0,1.76-1.33,2.74-3.34,2.74H256.31c-.3,0-.47-.13-.47-.43,0-.56,1.84-1.76,1.84-3Zm4.29.86v10.07c0,.3.13.43.43.43s4-2.74,5-3.43,1.33-1.2,1.33-1.93v-4.67c0-1-.34-1.33-1.33-1.33h-4.67A.79.79,0,0,0,262,138.17Zm.64,24.64h5.87a1.19,1.19,0,0,0,1.33-1.37v-7.84c0-.34-.26-.6-.69-.94l-1.8-1.46a1.72,1.72,0,0,0-.86-.51,2.43,2.43,0,0,0-1.16.6l-2.7,2a1.38,1.38,0,0,0-.64,1.2v7.67A.62.62,0,0,0,262.6,162.81Z"/><path class="cls-2" d="M293.37,163.28a3.26,3.26,0,0,1-3.51,3h-8.44c-2,0-3.34-1-3.34-2.74V137.31c0-1.24-1.84-2.44-1.84-3,0-.3.17-.43.47-.43h7c.3,0,.47.13.47.43,0,.56-1.84,1.76-1.84,3v24.55c0,.64.26.94.9.94h5a.86.86,0,0,0,.81-.9V137.31c0-1.24-1.84-2.44-1.84-3,0-.3.17-.43.47-.43h7c.3,0,.47.13.47.43,0,.56-1.84,1.76-1.84,3Z"/><path class="cls-2" d="M309.3,134.31c1.24,0,3.08-.43,3.64-.43.3,0,.43.17.43.47v5.4c0,.3-.13.47-.43.47s-.56-.39-1.63-1.63c-.69-.81-1.76-.9-3.51-.9a.72.72,0,0,0-.73.73v24.38c0,1.24,1.84,2.44,1.84,3,0,.3-.17.43-.47.43h-7c-.3,0-.47-.13-.47-.43,0-.56,1.84-1.76,1.84-3V138.43a.72.72,0,0,0-.73-.73c-1.76,0-2.83.09-3.51.9-1.07,1.24-1.33,1.63-1.63,1.63s-.43-.17-.43-.47v-5.4c0-.3.13-.47.43-.47.56,0,2.4.43,3.64.43Z"/><path class="cls-2" d="M327.38,138.17a.79.79,0,0,0-.73-.86H321.6c-.39,0-.6.21-.6.69v12.94l5.44-3.3a2.27,2.27,0,0,1,.9-.43c.26,0,.39.26.39.56v3.43c0,.51-.3.73-.9,1.11L321,155.82v6.3a.62.62,0,0,0,.64.69h4.93a.86.86,0,0,0,.81-.9v-2.83c0-.73.13-1,.43-1.24a22.68,22.68,0,0,1,3.3-1.84c.39,0,.56.21.56.6V165c0,.77-.38,1.2-1.29,1.2h-15c-.3,0-.47-.13-.47-.43,0-.56,1.84-1.76,1.84-3V137.31c0-1.24-1.84-2.44-1.84-3,0-.3.17-.43.47-.43h15c.94,0,1.33.43,1.33,1v4.84c0,.73-.13,1-.43,1.24a22.16,22.16,0,0,1-3.3,2.06c-.39,0-.56-.21-.56-.6Z"/><path class="cls-2" d="M351.2,163.49c0,1.76-1.33,2.74-3.34,2.74H334.28c-.3,0-.47-.13-.47-.43,0-.56,1.84-1.76,1.84-3V137.31c0-1.24-1.84-2.44-1.84-3,0-.3.17-.43.47-.43h13c2.57,0,3.94,1.07,3.94,3.56Zm-4.29-24.85c0-1-.34-1.33-1.33-1.33h-4.93a.79.79,0,0,0-.73.86v24a.62.62,0,0,0,.64.69h5a1.19,1.19,0,0,0,1.33-1.37Z"/><path class="cls-2" d="M370.44,162.81c0,1.24,1.84,2.44,1.84,3,0,.3-.17.43-.47.43h-7c-.3,0-.47-.13-.47-.43,0-.56,1.84-1.76,1.84-3V137.31c0-1.24-1.84-2.44-1.84-3,0-.3.17-.43.47-.43h7c.3,0,.47.13.47.43,0,.56-1.84,1.76-1.84,3Z"/><path class="cls-2" d="M378.92,143.57a2.34,2.34,0,0,0,1.11,2.1l7.16,5.14c1.33.94,1.88,1.67,1.88,3.26v9.43c0,1.76-1.33,2.74-3.34,2.74h-7.58a3.26,3.26,0,0,1-3.51-3v-8.18c0-.38.17-.6.56-.6a22.19,22.19,0,0,1,3.3,2.06c.3.21.43.51.43,1.24v4.11a.86.86,0,0,0,.81.9h4.16c.64,0,.9-.3.9-.94v-6.08a2.29,2.29,0,0,0-1.07-2l-7.07-5.1c-1.24-.9-2-1.63-2-3.21v-8.87c0-1.76,1.33-2.74,3.34-2.74h7.58a3.26,3.26,0,0,1,3.51,3v6.9c0,.38-.17.6-.56.6a22.16,22.16,0,0,1-3.3-2.06c-.3-.21-.43-.51-.43-1.24v-2.83a.81.81,0,0,0-.81-.9h-4.16c-.64,0-.9.3-.9.94Z"/><path class="cls-2" d="M395.93,143.57a2.34,2.34,0,0,0,1.11,2.1l7.16,5.14c1.33.94,1.88,1.67,1.88,3.26v9.43c0,1.76-1.33,2.74-3.34,2.74h-7.58a3.26,3.26,0,0,1-3.51-3v-8.18c0-.38.17-.6.56-.6a22.19,22.19,0,0,1,3.3,2.06c.3.21.43.51.43,1.24v4.11a.86.86,0,0,0,.81.9h4.16c.64,0,.9-.3.9-.94v-6.08a2.29,2.29,0,0,0-1.07-2l-7.07-5.1c-1.24-.9-2-1.63-2-3.21v-8.87c0-1.76,1.33-2.74,3.34-2.74h7.58a3.26,3.26,0,0,1,3.51,3v6.9c0,.38-.17.6-.56.6a22.16,22.16,0,0,1-3.3-2.06c-.3-.21-.43-.51-.43-1.24v-2.83a.81.81,0,0,0-.81-.9h-4.16c-.64,0-.9.3-.9.94Z"/><path class="cls-2" d="M425.15,163.28a3.26,3.26,0,0,1-3.51,3h-8.44c-2,0-3.34-1-3.34-2.74V137.31c0-1.24-1.84-2.44-1.84-3,0-.3.17-.43.47-.43h7c.3,0,.47.13.47.43,0,.56-1.84,1.76-1.84,3v24.55c0,.64.26.94.9.94h5a.86.86,0,0,0,.81-.9V137.31c0-1.24-1.84-2.44-1.84-3,0-.3.17-.43.47-.43h7c.3,0,.47.13.47.43,0,.56-1.84,1.76-1.84,3Z"/><path class="cls-2" d="M441,138.17a.79.79,0,0,0-.73-.86h-5.06c-.39,0-.6.21-.6.69v12.94l5.44-3.3a2.27,2.27,0,0,1,.9-.43c.26,0,.39.26.39.56v3.43c0,.51-.3.73-.9,1.11l-5.83,3.51v6.3a.62.62,0,0,0,.64.69h4.93a.86.86,0,0,0,.81-.9v-2.83c0-.73.13-1,.43-1.24a22.68,22.68,0,0,1,3.3-1.84c.39,0,.56.21.56.6V165c0,.77-.38,1.2-1.29,1.2H429c-.3,0-.47-.13-.47-.43,0-.56,1.84-1.76,1.84-3V137.31c0-1.24-1.84-2.44-1.84-3,0-.3.17-.43.47-.43h15c.94,0,1.33.43,1.33,1v4.84c0,.73-.13,1-.43,1.24a22.16,22.16,0,0,1-3.3,2.06c-.39,0-.56-.21-.56-.6Z"/><path class="cls-2" d="M451.67,143.57a2.34,2.34,0,0,0,1.11,2.1l7.16,5.14c1.33.94,1.88,1.67,1.88,3.26v9.43c0,1.76-1.33,2.74-3.34,2.74h-7.58a3.26,3.26,0,0,1-3.51-3v-8.18c0-.38.17-.6.56-.6a22.19,22.19,0,0,1,3.3,2.06c.3.21.43.51.43,1.24v4.11a.86.86,0,0,0,.81.9h4.16c.64,0,.9-.3.9-.94v-6.08a2.29,2.29,0,0,0-1.07-2l-7.07-5.1c-1.24-.9-2-1.63-2-3.21v-8.87c0-1.76,1.33-2.74,3.34-2.74h7.58a3.26,3.26,0,0,1,3.51,3v6.9c0,.38-.17.6-.56.6a22.16,22.16,0,0,1-3.3-2.06c-.3-.21-.43-.51-.43-1.24v-2.83a.81.81,0,0,0-.81-.9h-4.16c-.64,0-.9.3-.9.94Z"/><path class="cls-3" d="M110,32.2v4.5a4.68,4.68,0,0,0-.18.8A57.51,57.51,0,0,1,107.66,50,154.49,154.49,0,0,1,92.78,84.69c-.76,1.34-.76,1.7.31,2.56,6.63,5.33,8.9,12.55,8.34,20.64-.49,7-1.59,13.94-2.57,20.89-.85,6-2,11.95-2.84,17.94a81.59,81.59,0,0,1-5.43,20.82,2.93,2.93,0,0,0-.05,1.74A15.08,15.08,0,0,1,87.48,183a26.05,26.05,0,0,1-17.89,9.81l-3.55.43H59.62a3.93,3.93,0,0,0-.8-.22c-1.49-.09-3-.12-4.48-.24A46.21,46.21,0,0,1,40.78,190c-4.38-1.75-7.91-4.49-9.45-9.13a50.56,50.56,0,0,1-1.27-6.06c-.23-.25-.52-.44-.62-.69-1.72-4.26-3.51-8.49-5.1-12.8a28.55,28.55,0,0,1-1.71-6.6c-.78-7-1.37-14-1.95-21s-1-14-1.59-21c-.85-9.45,2.57-17.23,9.07-23.85,1.16-1.18,1.2-1.3.43-2.74-2.21-4.15-4.51-8.26-6.57-12.48A121.18,121.18,0,0,1,12.43,48.4C11,42.2,9.92,36,11,29.56c1.35-7.89,5.54-13.37,13.3-15.87.84-.27,1.68-.51,2.52-.76h3.43a2.16,2.16,0,0,0,.48.2,11.77,11.77,0,0,1,7.33,4.25,29.91,29.91,0,0,1,5,8.53c3.35,8.46,4.71,17.38,5.74,26.34.54,4.67.68,9.39,1.13,14.07a17.16,17.16,0,0,0,1.16,3.59l.32-.07a11,11,0,0,0,.88-6.58l1.7,1.84a7.41,7.41,0,0,1,4.84-3c.75-.12.93-.42.93-1.11q0-3.53,0-7.07A1.15,1.15,0,0,0,59,52.6a3.5,3.5,0,0,1-2-4,3.56,3.56,0,0,1,3.59-2.77A3.49,3.49,0,0,1,64,48.86a3.43,3.43,0,0,1-2.36,3.85.93.93,0,0,0-.74,1.08c0,2.39,0,4.78,0,7.17,0,.73.25.94.95,1.09a7.49,7.49,0,0,1,5.92,5.39c.08.25.2.49.32.78a8.36,8.36,0,0,1,1.27-.94,1.92,1.92,0,0,0,1.15-1.82c.41-5,.86-10,1.37-15a100.4,100.4,0,0,1,4.29-20.68c1.49-4.61,3.35-9,6.68-12.67a12.08,12.08,0,0,1,6.63-3.86l1.66-.33h1.71c1,.19,2,.3,2.9.58,7.47,2.19,11.84,7.26,13.55,14.74C109.57,29.55,109.73,30.88,110,32.2Z"/><path class="cls-4" d="M27.19,12.71h2.5c.07.11.19.08.29.09a11.57,11.57,0,0,1,3.12.8,13.82,13.82,0,0,1,5.92,5,38.47,38.47,0,0,1,5.37,11.16,96.14,96.14,0,0,1,2.55,10.7Q48,46,48.65,51.56c.36,3.11.5,6.23.78,9.35a25.68,25.68,0,0,0-1.67,4.18,25.48,25.48,0,0,0-1.21,5,33.79,33.79,0,0,1-1.15-11.39,39.13,39.13,0,0,0-1.79,4.64,10.58,10.58,0,0,1,0-1.24c.05-2.53,0-5.05-.13-7.57A106.4,106.4,0,0,0,42,41.81a49.49,49.49,0,0,0-4.47-13.73,18.32,18.32,0,0,0-4-5.56,9,9,0,0,0-5.79-2.68A11.27,11.27,0,0,0,16.37,28a20.66,20.66,0,0,0-.81,9.8A75.83,75.83,0,0,0,18.25,50.2,96.66,96.66,0,0,0,31.06,76.7a36.38,36.38,0,0,0,6.08,7.05c1.22,1.07,1.85.94,2.64-.47a22.91,22.91,0,0,0,2.12-5.45c.34-1.29.62-2.6.92-3.9a19,19,0,0,0,.94,3.22c.7,1.56,1.2,3.26,2.86,4.17a.3.3,0,0,1,.14.39,9.38,9.38,0,0,0,.12,4.55,29.33,29.33,0,0,0,1.42,4.62,21.28,21.28,0,0,0,1.24,2.77,10.17,10.17,0,0,1,.17-4.51,13.42,13.42,0,0,1,1.78-4.21,35.51,35.51,0,0,0,2.28,16.33,1.82,1.82,0,0,0,.06-.25,63,63,0,0,1,.37-8.52,17.56,17.56,0,0,1,1.18-5,3.73,3.73,0,0,1,1.78-2.1c.26-.12.42-.11.54.18a31.17,31.17,0,0,1,2.09,6.29A10.21,10.21,0,0,1,60,96.22c0,.09-.06.21,0,.24s.21-.1.28-.19a21.9,21.9,0,0,0,4.22-9.17,13.34,13.34,0,0,0,.17-2.6c0-.85-.25-1.67-.3-2.51h0A20.85,20.85,0,0,1,67,84.8a17,17,0,0,1,3.31,6.37,10.85,10.85,0,0,1,.35,3.73c-.08.73-.28,1.44-.31,2.18l-.07.1,0,0,0-.12c.08-.13.17-.25.24-.39A37.51,37.51,0,0,0,73,90.36a20.57,20.57,0,0,0,.86-5.94c0-.24,0-.47-.06-.77a3.17,3.17,0,0,1,.9.85,8.78,8.78,0,0,1,1.38,3.77c.16.9.3,1.81.46,2.71a6.9,6.9,0,0,0,.5-1.25,18.09,18.09,0,0,0,.9-7.66,7.33,7.33,0,0,0-1.19-3.31.48.48,0,0,1,0-.64,7.43,7.43,0,0,0,.84-1.94,1.59,1.59,0,0,1,.06.17,26,26,0,0,0,2.45,6.84c.84,1.52,1.48,1.62,2.79.46A31.35,31.35,0,0,0,87,79.23a91,91,0,0,0,9.6-16,85.78,85.78,0,0,0,7.13-21.48,32.11,32.11,0,0,0,.68-10.28,15.45,15.45,0,0,0-3-7.6A11,11,0,0,0,95,20.1a8.55,8.55,0,0,0-7.46,1.55,14.33,14.33,0,0,0-3.33,3.5,38.4,38.4,0,0,0-4.42,9.52A61.66,61.66,0,0,0,77.43,45c-.38,2.62-.69,5.25-.86,7.89-.08,1.23-.17,2.46-.22,3.69-.08,2-.07,4,0,6.05,0,1.46.23,2.92.21,4.38-.29-.76-.58-1.52-.87-2.28-.19-.48-.39-1-.59-1.43.07,1.32,0,2.61,0,3.9a10.09,10.09,0,0,1-.66,3.65,3.63,3.63,0,0,1-2.18,2.36c-.34.12-.53.09-.65-.3a6,6,0,0,1-.17-2.86,11.07,11.07,0,0,1,1.62-3.84c.06-.1.18-.21.13-.33s-.24-.09-.37-.08a7.83,7.83,0,0,0-2.71.65c.29-3.68.56-7.36.91-11s.79-7.5,1.38-11.22a95.75,95.75,0,0,1,4.19-16.7,30.07,30.07,0,0,1,6-10.68A12.11,12.11,0,0,1,93.9,12.95a17.23,17.23,0,0,1,9.41,4.64c4.21,3.92,6,8.93,6.31,14.56v4.24a40,40,0,0,1-.31,4,70,70,0,0,1-2.63,12.1,163.41,163.41,0,0,1-12,28.2c-.72,1.37-1.51,2.71-2.31,4a1.39,1.39,0,0,0,.36,2.16l.29.23a20.61,20.61,0,0,1,3.42,3.42,22.53,22.53,0,0,1,4.16,9.1,27.69,27.69,0,0,1,.68,7.65c-.11,2-.35,3.89-.59,5.83-.27,2.18-.51,4.37-.8,6.55-.36,2.7-.77,5.39-1.13,8.09-.47,3.46-1.06,6.9-1.63,10.34-.55,3.28-1.08,6.55-1.62,9.83-.38,2.34-.67,4.7-1.18,7a81.11,81.11,0,0,1-4.29,13c-.16-.09-.15-.26-.21-.4-.25-.61-.46-1.24-.75-1.84a47.28,47.28,0,0,0-7.88-11.45,43.12,43.12,0,0,0-8.9-7.31,26.84,26.84,0,0,0-11.52-4.2,17.52,17.52,0,0,0-8.53,1.27A27.11,27.11,0,0,0,44,149.53a53,53,0,0,0-8.55,10.09A36.9,36.9,0,0,0,31,169.37c-.44,1.51-.65,3.06-1,4.58L29.66,175l-.17-.34c-1.43-3.25-2.8-6.52-4.06-9.83a59.22,59.22,0,0,1-2.76-8.45,70.74,70.74,0,0,1-1.11-10.09q-.23-3.18-.44-6.36c-.12-1.78-.38-3.55-.58-5.32-.26-2.34-.36-4.7-.48-7-.14-2.74-.4-5.47-.65-8.19q-.34-3.7-.6-7.41a28.53,28.53,0,0,1,.48-8,30.41,30.41,0,0,1,6.38-12.8,25.29,25.29,0,0,1,2.7-2.85,1.22,1.22,0,0,0,.31-1.73l-.22-.41c-3.33-5.87-6.45-11.85-9.19-18a107.46,107.46,0,0,1-7.85-23.5,52.8,52.8,0,0,1-1.07-9c0-.09.06-.22-.09-.27v-1.3c.13,0,.09-.14.09-.23A24.08,24.08,0,0,1,10.54,31a24.79,24.79,0,0,1,2.37-8.38c2.51-5.06,6.78-7.92,12.05-9.48C25.69,13,26.45,12.87,27.19,12.71ZM73.52,133.06c.42,0,.83,0,1.25,0s.83-.09,1.24-.15a24.43,24.43,0,0,0,14.13-7.27,9,9,0,0,0,2.38-9.46,18.47,18.47,0,0,0-8.25-10.55,8.69,8.69,0,0,0-7.46-.83A12.56,12.56,0,0,0,71.65,108a25,25,0,0,0-6.7,12.41,14.71,14.71,0,0,0,1.37,10.07A4.46,4.46,0,0,0,70,133.1C71.19,133.23,72.35,133,73.52,133.06Zm-26,.13h.76a5,5,0,0,0,4.54-2.26A13,13,0,0,0,54.76,125a20.09,20.09,0,0,0-.93-7,20.19,20.19,0,0,0-10-12.76,7.71,7.71,0,0,0-5.61-.93,14.13,14.13,0,0,0-6.75,4.06A19.84,19.84,0,0,0,27,115.63a8.69,8.69,0,0,0,1.29,8.83,20.22,20.22,0,0,0,4.32,4.08A26.19,26.19,0,0,0,47.55,133.19Z"/><path class="cls-5" d="M90.08,168c.16.7.34,1.4.48,2.11a14.93,14.93,0,0,1-2.89,12.21,26,26,0,0,1-13.21,9.28,30.09,30.09,0,0,1-8.27,1.3c-.14,0-.31-.08-.42.09H59.39c-.06-.13-.18-.09-.28-.09a77.11,77.11,0,0,1-11-1,34.25,34.25,0,0,1-9-2.65c-6.12-2.95-9.1-7.85-9.12-14.6,0-.23.12-.49-.08-.7.38-1.52.59-3.07,1-4.58a36.9,36.9,0,0,1,4.46-9.75A53,53,0,0,1,44,149.53a27.11,27.11,0,0,1,8.26-5.42,17.52,17.52,0,0,1,8.53-1.27A26.84,26.84,0,0,1,72.33,147a43.12,43.12,0,0,1,8.9,7.31,47.28,47.28,0,0,1,7.88,11.45c.29.59.5,1.22.75,1.84C89.93,167.77,89.92,167.94,90.08,168Zm-9.51,9a.93.93,0,0,0-.39.24,45.13,45.13,0,0,1-8.67,5.35,24.48,24.48,0,0,1-14.76,1.67,45.14,45.14,0,0,1-11.94-4.31c-1.65-.83-3.24-1.77-4.85-2.66h0c0,.24.19.38.32.54a28.9,28.9,0,0,0,13.62,9.53,21.89,21.89,0,0,0,25.26-8,10.73,10.73,0,0,0,1.43-2.3l0-.05,0,0ZM82,163.49a2.31,2.31,0,0,0-.51-1.74A10.42,10.42,0,0,0,79,159.31a5.29,5.29,0,0,0-6.78.55,5.75,5.75,0,0,0-1.5,3.92,15.71,15.71,0,0,1-2.38,7.34c-.75,1.24-1.57,2.43-2.42,3.61a1.06,1.06,0,0,0,.39,1.73,1.71,1.71,0,0,0,1.6,0,43.6,43.6,0,0,0,10.5-6A9,9,0,0,0,82,163.49Zm-41.83.94a4.93,4.93,0,0,0,.77,2.73,15.36,15.36,0,0,0,4.6,4.61A59.4,59.4,0,0,0,53.2,176a9.39,9.39,0,0,0,1.61.56,1.56,1.56,0,0,0,1.48-.4.72.72,0,0,0,.23-.94,3.66,3.66,0,0,0-.77-1.14c-.15-.15-.35-.32-.32-.54a.85.85,0,0,0-.32-.72c-.19-.2-.36-.42-.53-.64a15.13,15.13,0,0,1-3.05-8.7,5.16,5.16,0,0,0-6-5.09A6.43,6.43,0,0,0,40.22,164.43Z"/><path class="cls-6" d="M109.62,32.15h.09v4.26h-.08Q109.63,34.27,109.62,32.15Z"/><path class="cls-7" d="M42.82,73.94c-.31,1.3-.59,2.61-.92,3.9a22.91,22.91,0,0,1-2.12,5.45c-.79,1.41-1.42,1.54-2.64.47a36.38,36.38,0,0,1-6.08-7.05A96.66,96.66,0,0,1,18.25,50.2a75.83,75.83,0,0,1-2.69-12.43,20.66,20.66,0,0,1,.81-9.8,11.27,11.27,0,0,1,11.39-8.13,9,9,0,0,1,5.79,2.68,18.32,18.32,0,0,1,4,5.56A49.49,49.49,0,0,1,42,41.81,106.4,106.4,0,0,1,43.51,54.5c.15,2.52.18,5,.13,7.57a10.58,10.58,0,0,0,0,1.24c0,.15-.07.3-.11.45a25.93,25.93,0,0,0-.94,7.2C42.58,72,42.73,72.94,42.82,73.94Z"/><path class="cls-8" d="M76.56,67c0-1.46-.16-2.92-.21-4.38-.06-2-.08-4,0-6.05,0-1.23.14-2.46.22-3.69.17-2.64.48-5.27.86-7.89a61.66,61.66,0,0,1,2.31-10.34,38.4,38.4,0,0,1,4.42-9.52,14.33,14.33,0,0,1,3.33-3.5A8.55,8.55,0,0,1,95,20.1a11,11,0,0,1,6.48,3.81,15.45,15.45,0,0,1,3,7.6,32.11,32.11,0,0,1-.68,10.28,85.78,85.78,0,0,1-7.13,21.48,91,91,0,0,1-9.6,16,31.35,31.35,0,0,1-4.11,4.44c-1.31,1.16-2,1.06-2.79-.46a26,26,0,0,1-2.45-6.84,1.6,1.6,0,0,0-.06-.17,12,12,0,0,0,0-5A35.72,35.72,0,0,0,76.56,67Z"/><path class="cls-9" d="M76.56,67a35.72,35.72,0,0,1,1.09,4.19,12,12,0,0,1,0,5,7.43,7.43,0,0,1-.84,1.94.48.48,0,0,0,0,.64A7.33,7.33,0,0,1,78,82.07a18.09,18.09,0,0,1-.9,7.66,6.9,6.9,0,0,1-.5,1.25c-.15-.9-.29-1.81-.46-2.71a8.78,8.78,0,0,0-1.38-3.77,3.17,3.17,0,0,0-.9-.85c0,.3.05.54.06.77A20.57,20.57,0,0,1,73,90.36a37.51,37.51,0,0,1-2.41,6.33c-.07.14-.16.26-.24.39h0c0-.74.23-1.45.31-2.18a10.85,10.85,0,0,0-.35-3.73A17,17,0,0,0,67,84.8,20.85,20.85,0,0,0,64.38,82l0,0,0,0c.05.84.28,1.66.3,2.51a13.34,13.34,0,0,1-.17,2.6,21.9,21.9,0,0,1-4.22,9.17c-.07.09-.13.24-.28.19s-.07-.16,0-.24a10.21,10.21,0,0,0-.16-4.33,31.17,31.17,0,0,0-2.09-6.29c-.13-.29-.29-.3-.54-.18a3.73,3.73,0,0,0-1.78,2.1,17.56,17.56,0,0,0-1.18,5,63,63,0,0,0-.37,8.52,1.82,1.82,0,0,1-.06.25A35.51,35.51,0,0,1,51.5,84.95a13.42,13.42,0,0,0-1.78,4.21,10.17,10.17,0,0,0-.17,4.51,21.28,21.28,0,0,1-1.24-2.77,29.33,29.33,0,0,1-1.42-4.62,9.38,9.38,0,0,1-.12-4.55.3.3,0,0,0-.14-.39c-1.66-.91-2.16-2.61-2.86-4.17a19,19,0,0,1-.94-3.22c-.1-1-.24-2-.26-3a25.93,25.93,0,0,1,.94-7.2c0-.15.07-.3.11-.45a39.14,39.14,0,0,1,1.79-4.64,33.79,33.79,0,0,0,1.15,11.39,25.48,25.48,0,0,1,1.21-5,25.68,25.68,0,0,1,1.67-4.18l0,.37a.58.58,0,0,0-.08.16,9.86,9.86,0,0,0,0,3.21,4.35,4.35,0,0,0,.42,1.63,14.31,14.31,0,0,0,1.42,3.6c.82-2.29,1.59-4.45.89-6.82l0,0a14.64,14.64,0,0,1,1.74,1.86,29.94,29.94,0,0,1,2,3,21.14,21.14,0,0,1,1.27,2.93,26.48,26.48,0,0,1,2.55-7.3,22.28,22.28,0,0,0,2.32,8,8,8,0,0,0,.88-1.35A9.29,9.29,0,0,0,64,63.94a5.77,5.77,0,0,1-.28-1.3l.09,0a32.84,32.84,0,0,1,3.09,6.75,9.85,9.85,0,0,1,.87-1.28,7.43,7.43,0,0,1,2.33-1.68,7.83,7.83,0,0,1,2.71-.65c.13,0,.3-.08.37.08s-.07.22-.13.33a11.07,11.07,0,0,0-1.62,3.84,6,6,0,0,0,.17,2.86c.12.39.31.41.65.3a3.63,3.63,0,0,0,2.18-2.36,10.09,10.09,0,0,0,.66-3.65c0-1.29,0-2.58,0-3.9.2.48.4,1,.59,1.43C76,65.49,76.27,66.26,76.56,67Z"/><path class="cls-10" d="M73.52,133.06c-1.17,0-2.33.18-3.51,0a4.46,4.46,0,0,1-3.69-2.63,14.71,14.71,0,0,1-1.37-10.07A25,25,0,0,1,71.65,108a12.56,12.56,0,0,1,5.16-3.21,8.69,8.69,0,0,1,7.46.83,18.47,18.47,0,0,1,8.25,10.55,9,9,0,0,1-2.38,9.46A24.43,24.43,0,0,1,76,132.9c-.41.07-.82.13-1.24.15S73.93,133.06,73.52,133.06Zm1.59-.72a8.15,8.15,0,0,0,2.11-.16A8,8,0,0,0,83,127.07a6.14,6.14,0,0,0,.66-3.07,1.63,1.63,0,0,0-2.36-1.44,8.51,8.51,0,0,0-.82.41,5.27,5.27,0,0,1-1,.42,2.63,2.63,0,0,1-3.06-1.22,2.36,2.36,0,0,1,.09-3.09c.25-.31.56-.57.82-.88a1.71,1.71,0,0,0-1-2.89,8,8,0,0,0-4.4.38,7.8,7.8,0,0,0-5.27,5.61,10.93,10.93,0,0,0,.56,6.47,6.69,6.69,0,0,0,4.43,4.12A11.15,11.15,0,0,0,75.11,132.34Z"/><path class="cls-10" d="M47.55,133.19a26.19,26.19,0,0,1-14.9-4.65,20.22,20.22,0,0,1-4.32-4.08A8.69,8.69,0,0,1,27,115.63a19.84,19.84,0,0,1,4.45-7.21,14.13,14.13,0,0,1,6.75-4.06,7.71,7.71,0,0,1,5.61.93,20.19,20.19,0,0,1,10,12.76,20.09,20.09,0,0,1,.93,7,13,13,0,0,1-1.91,5.91,5,5,0,0,1-4.54,2.26ZM35.81,124c0,.26,0,.68.1,1.09a6.76,6.76,0,0,0,.18.9,8.05,8.05,0,0,0,5.66,6.12,13.06,13.06,0,0,0,2.79.27,7.14,7.14,0,0,0,4.69-1.15,7.53,7.53,0,0,0,3.68-7.28c-.12-1.34-1.23-2.25-2.61-1.19a4.83,4.83,0,0,1-.78.49,2.4,2.4,0,0,1-2.76-.26,2.61,2.61,0,0,1-.18-4.36c.15-.14.3-.27.43-.42a1.55,1.55,0,0,0,.16-2.06,2,2,0,0,0-1.54-.9,9.43,9.43,0,0,0-2.62.08A8.58,8.58,0,0,0,35.81,124Z"/><path class="cls-9" d="M70.4,97.08l0,.12,0,0,.07-.1Z"/><path class="cls-9" d="M82,163.49a9,9,0,0,1-3.66,6.94,43.6,43.6,0,0,1-10.5,6,1.71,1.71,0,0,1-1.6,0,1.06,1.06,0,0,1-.39-1.73c.85-1.17,1.67-2.37,2.42-3.61a15.71,15.71,0,0,0,2.38-7.34,5.75,5.75,0,0,1,1.5-3.92,5.29,5.29,0,0,1,6.78-.55,10.42,10.42,0,0,1,2.57,2.44A2.31,2.31,0,0,1,82,163.49Z"/><path class="cls-9" d="M40.22,164.43a6.43,6.43,0,0,1,5.31-6,5.16,5.16,0,0,1,6,5.09,15.13,15.13,0,0,0,3.05,8.7c.17.22.34.44.53.64a.85.85,0,0,1,.32.72c0,.22.17.38.32.54a3.66,3.66,0,0,1,.77,1.14.72.72,0,0,1-.23.94,1.56,1.56,0,0,1-1.48.4A9.39,9.39,0,0,1,53.2,176a59.4,59.4,0,0,1-7.61-4.24,15.36,15.36,0,0,1-4.6-4.61A4.93,4.93,0,0,1,40.22,164.43Z"/><path class="cls-10" d="M40,177.28c1.62.89,3.2,1.84,4.85,2.66a45.14,45.14,0,0,0,11.94,4.31,24.48,24.48,0,0,0,14.76-1.67,45.13,45.13,0,0,0,8.67-5.35.93.93,0,0,1,.39-.24l0,0a10.8,10.8,0,0,1-1.43,2.3,21.89,21.89,0,0,1-25.26,8,28.9,28.9,0,0,1-13.62-9.53c-.13-.16-.32-.3-.32-.54Z"/><path class="cls-10" d="M80.57,177l0-.06,0,0,0,.05Z"/><path class="cls-10" d="M40,177.28h0Z"/><path class="cls-11" d="M63.74,62.65a5.77,5.77,0,0,0,.28,1.3,9.29,9.29,0,0,1-1.22,6.21,8,8,0,0,1-.88,1.35,22.28,22.28,0,0,1-2.32-8,26.48,26.48,0,0,0-2.55,7.3,21.14,21.14,0,0,0-1.27-2.93,29.94,29.94,0,0,0-2-3,7.61,7.61,0,0,1,5.36-3.17l.36-.07a5.56,5.56,0,0,0,1.16,0,9.72,9.72,0,0,1,2.7.72A.6.6,0,0,1,63.74,62.65Z"/><path class="cls-12" d="M59.55,52.69a3.63,3.63,0,1,1,1.14,0A5.31,5.31,0,0,1,59.55,52.69Z"/><path class="cls-9" d="M59.55,52.69a5.31,5.31,0,0,0,1.14,0q0,3.91,0,7.82c0,.37,0,.74,0,1.11a5.56,5.56,0,0,1-1.16,0Z"/><path class="cls-13" d="M67.8,68.14a9.85,9.85,0,0,0-.87,1.28,32.84,32.84,0,0,0-3.09-6.75,5.81,5.81,0,0,1,2.29,1.84,7.42,7.42,0,0,1,1.6,3.42A1.3,1.3,0,0,0,67.8,68.14Z"/><path class="cls-14" d="M49.75,66.27a4.35,4.35,0,0,1-.42-1.63,9.86,9.86,0,0,1,0-3.21.58.58,0,0,1,.08-.16C49.55,62.94,49.68,64.6,49.75,66.27Z"/><path class="cls-9" d="M52.06,63.05,52,63l0,0,0,.08Z"/><path class="cls-14" d="M64.38,82l0,0,0,0Z"/><path class="cls-9" d="M75.11,132.34a11.15,11.15,0,0,1-3.46-.45,6.69,6.69,0,0,1-4.43-4.12,10.93,10.93,0,0,1-.56-6.47,7.8,7.8,0,0,1,5.27-5.61,8,8,0,0,1,4.4-.38,1.71,1.71,0,0,1,1,2.89c-.26.3-.57.57-.82.88a2.36,2.36,0,0,0-.09,3.09,2.63,2.63,0,0,0,3.06,1.22,5.27,5.27,0,0,0,1-.42,8.51,8.51,0,0,1,.82-.41A1.63,1.63,0,0,1,83.63,124a6.14,6.14,0,0,1-.66,3.07,8,8,0,0,1-5.75,5.12A8.15,8.15,0,0,1,75.11,132.34Z"/><path class="cls-9" d="M35.81,124A8.58,8.58,0,0,1,43,115.29a9.43,9.43,0,0,1,2.62-.08,2,2,0,0,1,1.54.9,1.55,1.55,0,0,1-.16,2.06c-.13.15-.28.28-.43.42a2.61,2.61,0,0,0,.18,4.36,2.4,2.4,0,0,0,2.76.26,4.83,4.83,0,0,0,.78-.49c1.37-1.06,2.48-.15,2.61,1.19a7.53,7.53,0,0,1-3.68,7.28,7.14,7.14,0,0,1-4.69,1.15,13.06,13.06,0,0,1-2.79-.27A8.05,8.05,0,0,1,36.08,126a6.76,6.76,0,0,1-.18-.9C35.85,124.65,35.83,124.23,35.81,124Z"/></svg>