<svg id="Layer_1" data-name="Layer 1" xmlns="http://www.w3.org/2000/svg" viewBox="0 0 147 209"><defs><style>.cls-1{fill:#f7fdfb;}.cls-2{fill:#ff544e;}.cls-3,.cls-4,.cls-5{fill:none;stroke:#ff544e;stroke-miterlimit:10;stroke-width:4px;}.cls-4{stroke-dasharray:8.06 8.06;}.cls-5{stroke-dasharray:7.86 7.86;}</style></defs><title>images winner</title><path class="cls-1" d="M15.69,103.06c14.26-1.73,28.51-3.6,42.79-5.14,20.48-2.2,41-4.16,61.48-6.21A29.67,29.67,0,0,1,123,91.5c7.37,0,13.51,5.47,13.63,12,.12,6.79-6,12.79-13.55,12.57-7-.2-14-1-21-1.73q-39.92-4.4-79.82-9c-2.2-.25-4.37-.69-6.56-1Z"/><path class="cls-1" d="M15.07,90.11c7.09-8.84,13.38-16.83,19.84-24.69q13.24-16.12,26.72-32a39.08,39.08,0,0,1,7.47-6.94c3.13-2.15,7.19-2.11,9.28,1,1.53,2.29,1.56,6,1.28,8.94-.16,1.74-2,3.62-3.5,4.88Q47,65.43,17.69,89.4C17.36,89.66,16.81,89.65,15.07,90.11Z"/><path class="cls-1" d="M15.32,116c9.45,7.55,19,15,28.33,22.69,10.84,9,21.48,18.17,32.21,27.27a25.07,25.07,0,0,1,2.24,2.12c3.68,4,4.13,8.8,1.15,12-3.2,3.46-8,3.33-12.34-.63a67.91,67.91,0,0,1-6.61-7.19q-22-26.84-44-53.75c-.53-.64-1-1.35-1.46-2Z"/><path class="cls-2" d="M19.62,183c7,1.26,11.74-.89,14.88-7.36.81,7.26,4.61,11.12,11.85,12.15-6.82,2.72-9.13,7.65-7.58,16-5.5-6.4-10.63-7.69-17.07-4.32C25.49,193.21,24.42,188,19.62,183Z"/><path class="cls-2" d="M99.38,75c1.72-7.11-.64-11.65-8.4-15.05,7.69-1.27,13.13-3.13,13.5-11.15,3.28,6.11,7.52,9.13,14.59,8.12-4.86,4.78-6.38,9.84-3.12,16.19C109.87,70,104.51,69.86,99.38,75Z"/><path class="cls-2" d="M92.38,148.18C99,145,101,140.25,99.26,133.3c5.36,4.43,10.69,5.64,16.81,1.53-3.18,6.38-2,11.55,4.28,16.82-7.57-.55-13.18.26-15.25,8.09C103.44,152.55,99.59,148.71,92.38,148.18Z"/><path class="cls-2" d="M21.92,8.13c6.5,3.6,11.43,1.8,16.31-2.89-1.25,7.16,1.52,11.68,8,14.5-6.61,1.4-11.16,4.3-11.47,12-3.48-6-8.26-8.57-15.32-7.1C24.59,19.53,25.43,14.33,21.92,8.13Z"/><line class="cls-3" x1="11.28" y1="81.1" x2="12.45" y2="77.27"/><line class="cls-4" x1="14.81" y1="69.56" x2="23.07" y2="42.58"/><line class="cls-3" x1="24.25" y1="38.72" x2="25.42" y2="34.9"/><line class="cls-3" x1="32.02" y1="92.41" x2="35.73" y2="90.92"/><line class="cls-5" x1="43.02" y1="87.98" x2="83.12" y2="71.81"/><line class="cls-3" x1="86.76" y1="70.34" x2="90.47" y2="68.84"/><line class="cls-3" x1="10.33" y1="128.24" x2="11.5" y2="132.06"/><line class="cls-4" x1="13.86" y1="139.77" x2="22.12" y2="166.76"/><line class="cls-3" x1="23.3" y1="170.61" x2="24.48" y2="174.44"/><line class="cls-3" x1="31.07" y1="116.92" x2="34.78" y2="118.42"/><line class="cls-5" x1="42.08" y1="121.36" x2="82.17" y2="137.53"/><line class="cls-3" x1="85.82" y1="139" x2="89.53" y2="140.5"/></svg>