<svg id="Layer_1" data-name="Layer 1" xmlns="http://www.w3.org/2000/svg" viewBox="0 0 1080 324"><defs><style>.cls-1{fill:#273274;}.cls-2,.cls-3{fill:none;stroke:#273274;stroke-miterlimit:10;}.cls-2{stroke-width:3px;}.cls-3{stroke-width:2px;}.cls-4{fill:#ff544e;}</style></defs><title>mobile hack</title><path class="cls-1" d="M263.32,93.12h8.4V66.87a4.63,4.63,0,0,0-.23-1.61,2.26,2.26,0,0,0-.65-.95,2.19,2.19,0,0,0-1-.46,6.53,6.53,0,0,0-1.27-.12,12.32,12.32,0,0,0-2.51.32,20.93,20.93,0,0,0-3.16,1,26.51,26.51,0,0,0-3.35,1.59,16.21,16.21,0,0,0-3,2.15,10.74,10.74,0,0,0-2.15,2.68,6.39,6.39,0,0,0-.83,3.18A5.85,5.85,0,0,0,254,77a3.7,3.7,0,0,0,.9,1.31,2.37,2.37,0,0,0,1,.55,3.84,3.84,0,0,0,2.65-.28,11,11,0,0,0,1.34-.83L261,76.9a2,2,0,0,1,1.22-.39,3.13,3.13,0,0,1,1.18.25,3.35,3.35,0,0,1,1.15.81,4.58,4.58,0,0,1,.9,1.45,5.79,5.79,0,0,1,.37,2.19,6.66,6.66,0,0,1-.72,3.18,7.11,7.11,0,0,1-1.84,2.24A7.66,7.66,0,0,1,260.71,88a10.33,10.33,0,0,1-6.87-.32,8.8,8.8,0,0,1-3-2.1,9,9,0,0,1-1.89-3.14,11.26,11.26,0,0,1-.65-3.83,14.48,14.48,0,0,1,1.15-5.84A16.45,16.45,0,0,1,252.59,68a21.35,21.35,0,0,1,4.71-3.71,31.07,31.07,0,0,1,5.84-2.65A39.17,39.17,0,0,1,269.68,60a44.42,44.42,0,0,1,6.83-.53,19,19,0,0,1,5.88.71,7.82,7.82,0,0,1,3.09,1.73,4,4,0,0,1,1.18,2.12,11.7,11.7,0,0,1,.18,1.85V93.12h17V70.93a37.43,37.43,0,0,1,2-13,26,26,0,0,1,5.12-8.74,19.25,19.25,0,0,1,7-4.94,20.69,20.69,0,0,1,7.71-1.54,30.83,30.83,0,0,1,5,.39,17.33,17.33,0,0,1,4.15,1.18,8.25,8.25,0,0,1,2.84,2A4,4,0,0,1,338.7,49a4.15,4.15,0,0,1-.78,2.45,3,3,0,0,1-.85.81,1.86,1.86,0,0,1-1,.3,2.32,2.32,0,0,1-1.48-.51,6.87,6.87,0,0,1-1.22-1.27c-.39-.51-.76-1.06-1.13-1.66A11.11,11.11,0,0,0,331,47.47a6.53,6.53,0,0,0-1.57-1.27,4.08,4.08,0,0,0-2.08-.51,6.31,6.31,0,0,0-4.47,1.55,9.81,9.81,0,0,0-2.54,4.52,33.37,33.37,0,0,0-1.13,7.4Q319,63.59,319,69.32V93.12h9.27v4.06H319v28.05a3.61,3.61,0,0,0,.58,2.15,2,2,0,0,0,1.78.81,6.18,6.18,0,0,0,2.4-.46q1.11-.46,1.94-.88l.78,1.71q-1,.69-2.38,1.45a27.53,27.53,0,0,1-3,1.43,23.5,23.5,0,0,1-3.51,1.11,17,17,0,0,1-3.9.44,13,13,0,0,1-5.07-.83,7.39,7.39,0,0,1-3-2.19,7.25,7.25,0,0,1-1.41-3.07,17.37,17.37,0,0,1-.35-3.46V97.18h-17v23a24.58,24.58,0,0,1-2.28,10.93,22.1,22.1,0,0,1-6.25,7.77,27.08,27.08,0,0,1-9.34,4.66,41.51,41.51,0,0,1-11.51,1.55,25.43,25.43,0,0,1-4.52-.39,18.6,18.6,0,0,1-3.83-1.08,8.59,8.59,0,0,1-2.65-1.64,2.81,2.81,0,0,1-1-2.05,6.47,6.47,0,0,1,.23-1.68,5.28,5.28,0,0,1,.69-1.55,4.28,4.28,0,0,1,1.13-1.15,2.58,2.58,0,0,1,1.5-.46,1.13,1.13,0,0,1,.9.51,9.64,9.64,0,0,1,.81,1.27q.42.76.95,1.64a7.21,7.21,0,0,0,1.38,1.64,7.33,7.33,0,0,0,2.05,1.27,7.71,7.71,0,0,0,3,.51,13.45,13.45,0,0,0,6.11-1.29,11.37,11.37,0,0,0,4.22-3.65,16.54,16.54,0,0,0,2.47-5.61,29.64,29.64,0,0,0,.81-7.13v-27h-8.4Z"/><path class="cls-1" d="M349.41,84.36a10.9,10.9,0,0,0-2.91.37,10,10,0,0,0-2.31.92,5.52,5.52,0,0,0-1.52,1.22,2,2,0,0,0-.55,1.27,1,1,0,0,0,.72,1l1.59.69A5.3,5.3,0,0,1,346,90.93a3,3,0,0,1,.72,2.19,4,4,0,0,1-.39,1.78,4.82,4.82,0,0,1-2.63,2.4,5.16,5.16,0,0,1-1.87.35,5.37,5.37,0,0,1-4.18-1.75,6.67,6.67,0,0,1-1.59-4.66,7.92,7.92,0,0,1,1.48-4.82,11.53,11.53,0,0,1,3.85-3.3,19.51,19.51,0,0,1,5.37-1.91,29.88,29.88,0,0,1,12.87.16,17.45,17.45,0,0,1,5.79,2.49,12.9,12.9,0,0,1,4,4.34,12.67,12.67,0,0,1,1.5,6.37v26.07c0,.28,0,.58,0,.92a2.84,2.84,0,0,0,.23.92,1.71,1.71,0,0,0,.55.69,1.75,1.75,0,0,0,1.06.28,2.31,2.31,0,0,0,1.54-.62,12.08,12.08,0,0,0,1.27-1.27l1.15,1q-.69,1-1.66,2.12a13.28,13.28,0,0,1-5.58,3.88,11.9,11.9,0,0,1-4.2.69,8.28,8.28,0,0,1-5.17-1.73,8.39,8.39,0,0,1-3-5.33,19.62,19.62,0,0,1-3.07,3.32,16.63,16.63,0,0,1-3.25,2.17,14.4,14.4,0,0,1-3.35,1.2,15.81,15.81,0,0,1-3.39.37,13.48,13.48,0,0,1-4.29-.69,10.24,10.24,0,0,1-3.71-2.19,10.76,10.76,0,0,1-2.63-3.9,15.36,15.36,0,0,1-1-5.86,12.87,12.87,0,0,1,1.66-6.87,14.83,14.83,0,0,1,4.36-4.5,29.45,29.45,0,0,1,6.13-3.11q3.44-1.29,7-2.72a7.52,7.52,0,0,0,3.9-3.16,8.48,8.48,0,0,0,1.22-4.31,7.49,7.49,0,0,0-2-5.47A7.3,7.3,0,0,0,349.41,84.36Zm7.34,20.21a2.13,2.13,0,0,0-.74-1.75,2.91,2.91,0,0,0-1.89-.6,6.69,6.69,0,0,0-3.07.74,7.58,7.58,0,0,0-2.56,2.17,11,11,0,0,0-1.75,3.53,16.6,16.6,0,0,0-.65,4.87,20.68,20.68,0,0,0,.39,4.43,8.65,8.65,0,0,0,1.06,2.79,3.83,3.83,0,0,0,1.55,1.45,4.25,4.25,0,0,0,1.85.42,4.4,4.4,0,0,0,2.26-.62,6.77,6.77,0,0,0,1.84-1.59,8,8,0,0,0,1.25-2.17,6.66,6.66,0,0,0,.46-2.4Z"/><path class="cls-1" d="M412.34,96.54a5.79,5.79,0,0,1-2.4-.44,4.2,4.2,0,0,1-1.57-1.18,4.83,4.83,0,0,1-.88-1.64,6.33,6.33,0,0,1-.28-1.87,17.19,17.19,0,0,1,.16-2.4,8,8,0,0,0,0-2.08,2.32,2.32,0,0,0-.72-1.48,3.13,3.13,0,0,0-2.12-.55,7.5,7.5,0,0,0-3.41.92,9.63,9.63,0,0,0-3.28,2.91,16.91,16.91,0,0,0-2.44,5.1,25.4,25.4,0,0,0-1,7.5,40.3,40.3,0,0,0,.9,8.84,21.22,21.22,0,0,0,2.7,6.8,13,13,0,0,0,4.48,4.36,13.32,13.32,0,0,0,9.34,1.18,13.57,13.57,0,0,0,2.75-1,17.57,17.57,0,0,0,2.47-1.5q1.18-.85,2.28-1.82l1.15,1.11a31.79,31.79,0,0,1-2.72,3.14,22.2,22.2,0,0,1-4,3.21,23.11,23.11,0,0,1-5.49,2.49,23.73,23.73,0,0,1-7.15,1,20.61,20.61,0,0,1-7.82-1.55,20.24,20.24,0,0,1-6.76-4.5,22.18,22.18,0,0,1-4.73-7.17,24.62,24.62,0,0,1-1.78-9.62,26.71,26.71,0,0,1,1.06-7.73A25.43,25.43,0,0,1,384,92.15a24.09,24.09,0,0,1,4.24-5,26.91,26.91,0,0,1,5.1-3.62,24.64,24.64,0,0,1,5.47-2.19,21,21,0,0,1,5.37-.74,20.23,20.23,0,0,1,6,.78,13.4,13.4,0,0,1,4.22,2.08,8.51,8.51,0,0,1,2.51,3,7.78,7.78,0,0,1,.83,3.48,9.36,9.36,0,0,1-.35,2.56,6.47,6.47,0,0,1-1,2.12A4.89,4.89,0,0,1,414.69,96,5,5,0,0,1,412.34,96.54Z"/><path class="cls-1" d="M440.11,93.12q1.62-2.17,3.46-4.41a31.87,31.87,0,0,1,4-4,20.28,20.28,0,0,1,4.61-3,12.81,12.81,0,0,1,5.44-1.15,8.48,8.48,0,0,1,4.38,1,9.56,9.56,0,0,1,2.84,2.49,9.19,9.19,0,0,1,1.52,3,10.21,10.21,0,0,1,.44,2.68,18,18,0,0,1-.53,4.22,15.85,15.85,0,0,1-1.8,4.34,19.32,19.32,0,0,1-3.39,4.15,23.18,23.18,0,0,1-5.35,3.67,158.86,158.86,0,0,0,8.44,15.8,79,79,0,0,0,7.91,10.89,31,31,0,0,0,7.31,6.3,13.4,13.4,0,0,0,6.69,2,4.55,4.55,0,0,0,1.11-.14,7.88,7.88,0,0,0,1-.32,10.07,10.07,0,0,0,1.06-.46l.88,1.62q-1.25.69-2.54,1.31a17.77,17.77,0,0,1-3,1.08,27.43,27.43,0,0,1-3.83.74,41.58,41.58,0,0,1-5.17.28,22.68,22.68,0,0,1-5.38-.65,18.38,18.38,0,0,1-5.33-2.31,30.08,30.08,0,0,1-5.42-4.43,49.39,49.39,0,0,1-5.63-7A100.68,100.68,0,0,1,448,120.8q-3-5.86-6.32-13.7a48.38,48.38,0,0,0,7-6.07A29.78,29.78,0,0,0,452.43,96,13.22,13.22,0,0,0,454,92a17.13,17.13,0,0,0,.32-3c0-.12,0-.33,0-.62a2.08,2.08,0,0,0-.3-.85,2.39,2.39,0,0,0-.74-.74,2.44,2.44,0,0,0-1.36-.32,5.45,5.45,0,0,0-3.46,1.45,20.48,20.48,0,0,0-3.35,3.6,34.7,34.7,0,0,0-2.88,4.61q-1.29,2.47-2.12,4.5V124.4a6.07,6.07,0,0,1-.21,1.43,3.33,3.33,0,0,1-1,1.57,6.19,6.19,0,0,1-2.21,1.27,11.67,11.67,0,0,1-3.9.53,10.24,10.24,0,0,1-3.83-.58,5.35,5.35,0,0,1-2.05-1.36,3.51,3.51,0,0,1-.83-1.61,7.3,7.3,0,0,1-.16-1.34V64.79a4.3,4.3,0,0,0-.62-2.33,2.28,2.28,0,0,0-2.1-1,3.36,3.36,0,0,0-1.36.25,5.79,5.79,0,0,0-1.22.76l-.92-1.11a27.75,27.75,0,0,1,2.35-1.73,17.1,17.1,0,0,1,2.84-1.5,21.2,21.2,0,0,1,3.3-1.06,16,16,0,0,1,3.69-.42,10.87,10.87,0,0,1,4.66.81,6,6,0,0,1,2.45,2A5.71,5.71,0,0,1,440,62a19.22,19.22,0,0,1,.16,2.33Z"/><path class="cls-1" d="M491,84.54v34.1a4.83,4.83,0,0,0,.92,3.39,3.38,3.38,0,0,0,2.54.95,3.71,3.71,0,0,0,2.21-.69,8.06,8.06,0,0,0,1.66-1.57,9.74,9.74,0,0,0,1.43-2.26l1.43.65q-.69,1.48-1.64,3.23a12.78,12.78,0,0,1-6.46,5.77,15.29,15.29,0,0,1-6,1,12.69,12.69,0,0,1-3.9-.6,9.15,9.15,0,0,1-3.32-1.89,9.48,9.48,0,0,1-2.33-3.23,11.27,11.27,0,0,1-.88-4.66V84.54h-5.17V81.22a13.91,13.91,0,0,0,3.6-.67,17.93,17.93,0,0,0,4.73-2.24,18.8,18.8,0,0,0,4.5-4.2,16.06,16.06,0,0,0,3-6.51H491V81.22h7.52q3.69,0,3.69-1.25a.62.62,0,0,0-.46-.62q-.46-.16-1-.42a3.34,3.34,0,0,1-1-.71,2.09,2.09,0,0,1-.46-1.52,2.61,2.61,0,0,1,.81-2,3,3,0,0,1,2.1-.74,3,3,0,0,1,1.45.35,3.15,3.15,0,0,1,1,.92,4.14,4.14,0,0,1,.62,1.31A5.4,5.4,0,0,1,505.4,78a6.55,6.55,0,0,1-1.73,4.77q-1.73,1.78-5.56,1.78Z"/><path class="cls-1" d="M504,104.84a29.31,29.31,0,0,1,1.75-10.59,22.43,22.43,0,0,1,4.68-7.59,19,19,0,0,1,6.81-4.57,22,22,0,0,1,8.12-1.52A23.62,23.62,0,0,1,533.45,82a18.55,18.55,0,0,1,6.81,4.31,21.1,21.1,0,0,1,4.68,7.36,28.74,28.74,0,0,1,1.75,10.54,30.29,30.29,0,0,1-1.75,10.7,23.82,23.82,0,0,1-4.68,7.84,19.47,19.47,0,0,1-6.81,4.82,20.66,20.66,0,0,1-8.12,1.64,21.72,21.72,0,0,1-8.12-1.55,19.22,19.22,0,0,1-6.81-4.59,22.38,22.38,0,0,1-4.68-7.61A29.49,29.49,0,0,1,504,104.84Zm28.37-.46q0-3.69-.25-7.13a32.06,32.06,0,0,0-1-6.11A10.79,10.79,0,0,0,529,86.87a4.6,4.6,0,0,0-3.65-1.59A4.49,4.49,0,0,0,521.69,87a11.65,11.65,0,0,0-2.12,4.43,32.32,32.32,0,0,0-1,6.25q-.23,3.51-.23,7.2t.23,7.22a32.81,32.81,0,0,0,1,6.3,11.63,11.63,0,0,0,2.12,4.45,4.49,4.49,0,0,0,3.65,1.68,4.42,4.42,0,0,0,3.65-1.75,12.36,12.36,0,0,0,2.12-4.61,36.23,36.23,0,0,0,1-6.46Q532.34,108.07,532.34,104.38Z"/><path class="cls-1" d="M553.8,64.79a4.28,4.28,0,0,0-.62-2.33,2.28,2.28,0,0,0-2.1-1,3.36,3.36,0,0,0-1.36.25,5.87,5.87,0,0,0-1.22.76l-.92-1.11a25.68,25.68,0,0,1,2.38-1.73,18.49,18.49,0,0,1,2.84-1.5,20.52,20.52,0,0,1,3.28-1.06,16,16,0,0,1,3.69-.42,9.8,9.8,0,0,1,4.31.81,6.6,6.6,0,0,1,2.49,2A6.53,6.53,0,0,1,567.68,62a12.72,12.72,0,0,1,.28,2.51V85.09q.55-.51,1.43-1.27a12.87,12.87,0,0,1,2.21-1.5,14.63,14.63,0,0,1,3.21-1.25,16.94,16.94,0,0,1,4.41-.51,14,14,0,0,1,5.91,1.36,14.84,14.84,0,0,1,5.31,4.27,23,23,0,0,1,3.83,7.47,35.94,35.94,0,0,1,1.48,11,32.46,32.46,0,0,1-1.36,9.5,23.17,23.17,0,0,1-4,7.82,19,19,0,0,1-6.69,5.28,21.2,21.2,0,0,1-9.32,1.94,22.6,22.6,0,0,1-9.71-1.87,16.84,16.84,0,0,1-6.34-5,19.9,19.9,0,0,1-3.44-7.36,36.72,36.72,0,0,1-1-8.86Zm27.5,40.69a64.64,64.64,0,0,0-.41-7.54,29.31,29.31,0,0,0-1.34-6.18,11.86,11.86,0,0,0-2.35-4.2,4.79,4.79,0,0,0-6.11-.78,7.36,7.36,0,0,0-1.78,1.73,7.48,7.48,0,0,0-1,1.91,5,5,0,0,0-.32,1.27v13.8q0,10.06,1.68,14.63t5,4.57q3.46,0,5.07-4.66T581.29,105.49Z"/><path class="cls-1" d="M616.54,107.29a13.1,13.1,0,0,0,.44,3.21,19.1,19.1,0,0,0,1.27,3.48,18.45,18.45,0,0,0,2.05,3.35,15.86,15.86,0,0,0,2.81,2.84,13.46,13.46,0,0,0,3.53,2,11.83,11.83,0,0,0,4.24.74,11.6,11.6,0,0,0,3-.37,11.85,11.85,0,0,0,2.58-1,16.86,16.86,0,0,0,2.31-1.5q1.11-.85,2.22-1.82l1.15,1.11a31.79,31.79,0,0,1-2.72,3.14,22.2,22.2,0,0,1-4,3.21,23.11,23.11,0,0,1-5.49,2.49,23.73,23.73,0,0,1-7.15,1,21.74,21.74,0,0,1-7.82-1.45,19.42,19.42,0,0,1-6.76-4.36,21.4,21.4,0,0,1-4.73-7.24,29.28,29.28,0,0,1-.71-17.86,24.7,24.7,0,0,1,2.88-6.32,23.55,23.55,0,0,1,4.24-4.94,26.4,26.4,0,0,1,5.1-3.53,25.09,25.09,0,0,1,5.47-2.12,22.39,22.39,0,0,1,11.33,0,13.31,13.31,0,0,1,4.22,2,8.23,8.23,0,0,1,2.51,2.88,7.5,7.5,0,0,1,.83,3.44,6.51,6.51,0,0,1-1.25,3.9,11.51,11.51,0,0,1-3.32,3Zm9.27-9.37a7.32,7.32,0,0,0,1-.71,2.61,2.61,0,0,0,.62-.83,4.49,4.49,0,0,0,.35-1.2,11.59,11.59,0,0,0,.12-1.78,14.44,14.44,0,0,0-.25-2.56,10.31,10.31,0,0,0-.85-2.65,6.58,6.58,0,0,0-1.52-2.08,3.2,3.2,0,0,0-2.21-.83,4.25,4.25,0,0,0-2.84,1,7.67,7.67,0,0,0-1.94,2.56,16,16,0,0,0-1.2,3.58,39.91,39.91,0,0,0-.67,4q-.23,2-.28,3.9t0,3.16Z"/><path class="cls-1" d="M663.1,90.31a38,38,0,0,1,3.74-4.84,24.83,24.83,0,0,1,1.8-1.8,17.34,17.34,0,0,1,2-1.57A10.58,10.58,0,0,1,672.78,81a6.28,6.28,0,0,1,2.22-.42A4.85,4.85,0,0,1,678.69,82,5.49,5.49,0,0,1,680,85.92a17.6,17.6,0,0,1-.25,3,22.51,22.51,0,0,1-1,3.53h-1.29a4.27,4.27,0,0,0-1.29-2.38,4.18,4.18,0,0,0-3-.95,7.8,7.8,0,0,0-2.81.53,17.43,17.43,0,0,0-2.7,1.31,23.83,23.83,0,0,0-2.49,1.71q-1.18.92-2.15,1.75V124.4a6.81,6.81,0,0,1-.19,1.43,3.28,3.28,0,0,1-.9,1.57,5.72,5.72,0,0,1-2.12,1.27,11.26,11.26,0,0,1-3.85.53,10.43,10.43,0,0,1-3.85-.58,6,6,0,0,1-2.15-1.36,3.49,3.49,0,0,1-.92-1.61,6.54,6.54,0,0,1-.18-1.34V88.69a4.3,4.3,0,0,0-.62-2.33,2.28,2.28,0,0,0-2.1-1,3,3,0,0,0-1.34.28,7.25,7.25,0,0,0-1.2.78l-1-1.15a25.68,25.68,0,0,1,2.38-1.73,18.4,18.4,0,0,1,2.84-1.5A20.43,20.43,0,0,1,651.19,81a16,16,0,0,1,3.69-.42,9.65,9.65,0,0,1,3.39.53,6.81,6.81,0,0,1,2.31,1.38A6.49,6.49,0,0,1,662,84.4a10.59,10.59,0,0,1,.76,2.15,11.54,11.54,0,0,1,.3,2.08C663.08,89.29,663.1,89.85,663.1,90.31Z"/><path class="cls-1" d="M708.63,59.86a5.57,5.57,0,0,0-2.44.55,5.21,5.21,0,0,0-2,1.78,9.86,9.86,0,0,0-1.36,3.11,17.81,17.81,0,0,0-.51,4.57V81.22h10.1v3.32h-10.1V120.9a39.14,39.14,0,0,1-1.64,11.58,25.25,25.25,0,0,1-5,9.16,22.81,22.81,0,0,1-8.31,6,28.93,28.93,0,0,1-11.63,2.17,25.35,25.35,0,0,1-4.52-.39,18.58,18.58,0,0,1-3.83-1.08,8.61,8.61,0,0,1-2.65-1.64,2.86,2.86,0,0,1-1-2.1,6.47,6.47,0,0,1,.23-1.68,5.24,5.24,0,0,1,.69-1.55,4,4,0,0,1,1.13-1.13,2.75,2.75,0,0,1,1.54-.44,1.13,1.13,0,0,1,.9.51,10.34,10.34,0,0,1,.81,1.25q.42.74.95,1.64a6.84,6.84,0,0,0,1.36,1.64,7.25,7.25,0,0,0,2.05,1.25,7.77,7.77,0,0,0,3,.51,8.81,8.81,0,0,0,4.15-.95,9.47,9.47,0,0,0,3.09-2.61,15.47,15.47,0,0,0,2.17-3.92,28.8,28.8,0,0,0,1.38-4.84,45.39,45.39,0,0,0,.72-5.4q.21-2.81.21-5.63V84.54h-8.49V81.22h8.49v-5.4a22.73,22.73,0,0,1,1-7.08,17,17,0,0,1,2.63-5.14,14.83,14.83,0,0,1,3.71-3.46A21.24,21.24,0,0,1,699.71,58,20,20,0,0,1,703.88,57a26.64,26.64,0,0,1,3.55-.28,31.28,31.28,0,0,1,5.81.48,17.87,17.87,0,0,1,4.24,1.29,7.4,7.4,0,0,1,2.58,1.87,3.4,3.4,0,0,1,.88,2.17,5.91,5.91,0,0,1-.25,1.68,6,6,0,0,1-.72,1.57,3.86,3.86,0,0,1-1.13,1.15,2.67,2.67,0,0,1-1.5.44,1.17,1.17,0,0,1-.92-.55,12.07,12.07,0,0,1-.88-1.38l-1-1.8a9,9,0,0,0-1.36-1.8,7,7,0,0,0-1.91-1.38A5.82,5.82,0,0,0,708.63,59.86Z"/><path class="cls-1" d="M727.6,107.29a13.1,13.1,0,0,0,.44,3.21A19.1,19.1,0,0,0,729.3,114a18.45,18.45,0,0,0,2.05,3.35,15.86,15.86,0,0,0,2.81,2.84,13.46,13.46,0,0,0,3.53,2,11.83,11.83,0,0,0,4.24.74,11.6,11.6,0,0,0,3-.37,11.85,11.85,0,0,0,2.58-1,16.86,16.86,0,0,0,2.31-1.5q1.11-.85,2.22-1.82l1.15,1.11a31.79,31.79,0,0,1-2.72,3.14,22.2,22.2,0,0,1-4,3.21,23.11,23.11,0,0,1-5.49,2.49,23.73,23.73,0,0,1-7.15,1,21.74,21.74,0,0,1-7.82-1.45,19.42,19.42,0,0,1-6.76-4.36,21.4,21.4,0,0,1-4.73-7.24,29.28,29.28,0,0,1-.71-17.86,24.7,24.7,0,0,1,2.88-6.32,23.55,23.55,0,0,1,4.24-4.94,26.4,26.4,0,0,1,5.1-3.53,25.09,25.09,0,0,1,5.47-2.12,22.39,22.39,0,0,1,11.33,0,13.31,13.31,0,0,1,4.22,2,8.23,8.23,0,0,1,2.51,2.88,7.5,7.5,0,0,1,.83,3.44,6.51,6.51,0,0,1-1.25,3.9,11.51,11.51,0,0,1-3.32,3Zm9.27-9.37a7.32,7.32,0,0,0,1-.71,2.61,2.61,0,0,0,.62-.83,4.49,4.49,0,0,0,.35-1.2,11.59,11.59,0,0,0,.12-1.78,14.44,14.44,0,0,0-.25-2.56,10.31,10.31,0,0,0-.85-2.65,6.58,6.58,0,0,0-1.52-2.08,3.2,3.2,0,0,0-2.21-.83,4.25,4.25,0,0,0-2.84,1,7.67,7.67,0,0,0-1.94,2.56,16,16,0,0,0-1.2,3.58,39.91,39.91,0,0,0-.67,4q-.23,2-.28,3.9t0,3.16Z"/><path class="cls-1" d="M774.24,84.26a7.12,7.12,0,0,0-2,.28,4.56,4.56,0,0,0-1.68.9A4.24,4.24,0,0,0,769.4,87a5.53,5.53,0,0,0-.41,2.24,6,6,0,0,0,1.31,3.58,31,31,0,0,0,3.28,3.69q2,1.91,4.25,4a47,47,0,0,1,4.24,4.34,24.49,24.49,0,0,1,3.28,4.87,12,12,0,0,1,1.31,5.54,14.61,14.61,0,0,1-1.13,5.91,12.05,12.05,0,0,1-3.23,4.38,14.39,14.39,0,0,1-5.07,2.75,21.82,21.82,0,0,1-6.62.95,17.44,17.44,0,0,1-5.77-.9,20.82,20.82,0,0,1-4.59-2.21,20.05,20.05,0,0,1-3.44-2.79,18.59,18.59,0,0,1-2.22-2.68l1.62-1.15a15.54,15.54,0,0,0,1.52,1.5,14.9,14.9,0,0,0,2.05,1.5,12,12,0,0,0,2.42,1.13,8.11,8.11,0,0,0,2.63.44,8.83,8.83,0,0,0,5.44-1.59,5.54,5.54,0,0,0,2.12-4.73,6.9,6.9,0,0,0-1.15-3.62,28.4,28.4,0,0,0-2.91-3.85q-1.75-2-3.78-4.11a55.52,55.52,0,0,1-3.78-4.38,25.79,25.79,0,0,1-2.91-4.66,11.34,11.34,0,0,1-1.15-5A10.48,10.48,0,0,1,757.88,87a10.71,10.71,0,0,1,3.14-3.6,14,14,0,0,1,4.47-2.15,18.88,18.88,0,0,1,5.19-.72,26.46,26.46,0,0,1,5.63.55,13.79,13.79,0,0,1,4.36,1.68,8.14,8.14,0,0,1,2.81,2.84,7.75,7.75,0,0,1,1,4,4.42,4.42,0,0,1-1.15,3A4.1,4.1,0,0,1,780.1,94a4.65,4.65,0,0,1-3-.85,2.85,2.85,0,0,1-1-2.33,2.23,2.23,0,0,1,.49-1.52,4.24,4.24,0,0,1,1.08-.9l1.08-.6a.76.76,0,0,0,.49-.67A2.29,2.29,0,0,0,777.79,85,7.33,7.33,0,0,0,774.24,84.26Z"/><path class="cls-1" d="M809.26,84.54v34.1a4.83,4.83,0,0,0,.92,3.39,3.38,3.38,0,0,0,2.54.95,3.71,3.71,0,0,0,2.21-.69,8.06,8.06,0,0,0,1.66-1.57,9.74,9.74,0,0,0,1.43-2.26l1.43.65q-.69,1.48-1.64,3.23a12.78,12.78,0,0,1-6.46,5.77,15.29,15.29,0,0,1-6,1,12.69,12.69,0,0,1-3.9-.6,9.15,9.15,0,0,1-3.32-1.89,9.48,9.48,0,0,1-2.33-3.23,11.27,11.27,0,0,1-.88-4.66V84.54h-5.17V81.22a13.91,13.91,0,0,0,3.6-.67,17.93,17.93,0,0,0,4.73-2.24,18.8,18.8,0,0,0,4.5-4.2,16.06,16.06,0,0,0,3-6.51h3.69V81.22h7.52q3.69,0,3.69-1.25a.62.62,0,0,0-.46-.62q-.46-.16-1-.42a3.34,3.34,0,0,1-1-.71,2.09,2.09,0,0,1-.46-1.52,2.61,2.61,0,0,1,.81-2,3,3,0,0,1,2.1-.74,3,3,0,0,1,1.45.35,3.15,3.15,0,0,1,1,.92,4.14,4.14,0,0,1,.62,1.31A5.4,5.4,0,0,1,823.7,78,6.55,6.55,0,0,1,822,82.76q-1.73,1.78-5.56,1.78Z"/><polyline class="cls-2" points="839.59 82.14 880.43 82.14 880.43 49.72"/><line class="cls-2" x1="839.59" y1="109.17" x2="925.47" y2="109.17"/><polyline class="cls-2" points="839.59 133.19 907.46 133.19 907.46 156.01"/><polyline class="cls-2" points="233.2 125.68 192.36 125.68 192.36 158.11"/><line class="cls-2" x1="233.8" y1="98.65" x2="147.32" y2="98.65"/><polyline class="cls-2" points="232.6 74.63 165.34 74.63 165.34 51.81"/><circle class="cls-2" cx="906.85" cy="169.82" r="6.01"/><circle class="cls-3" cx="881.03" cy="39.33" r="4.2"/><circle class="cls-1" cx="940.48" cy="108.57" r="6.01"/><circle class="cls-2" cx="164.74" cy="41.01" r="6.01"/><circle class="cls-3" cx="137.71" cy="99.26" r="4.2"/><circle class="cls-1" cx="192.36" cy="170.72" r="6.01"/><path class="cls-4" d="M139.36,222.09a13.38,13.38,0,0,1,5.06,4.87,13,13,0,0,1,1.86,6.8,13.15,13.15,0,0,1-1.86,6.84,13.43,13.43,0,0,1-5.06,4.93,14.62,14.62,0,0,1-14.06,0,13.43,13.43,0,0,1-5.06-4.93,13.15,13.15,0,0,1-1.86-6.84,13,13,0,0,1,1.86-6.8,13.42,13.42,0,0,1,5-4.87,14.8,14.8,0,0,1,14.08,0Zm-12.13,2.84a10.36,10.36,0,0,0-3.77,3.69,10.13,10.13,0,0,0,0,10.29,10.46,10.46,0,0,0,3.77,3.73,10,10,0,0,0,5.13,1.38,9.81,9.81,0,0,0,5.1-1.38,10.4,10.4,0,0,0,3.71-3.73,10.25,10.25,0,0,0,0-10.29,10.3,10.3,0,0,0-3.71-3.69,9.92,9.92,0,0,0-5.1-1.36A10.11,10.11,0,0,0,127.24,224.93Z"/><path class="cls-4" d="M167.31,228.19a8.84,8.84,0,0,1,3.41,3.6,12.18,12.18,0,0,1,0,10.55,8.65,8.65,0,0,1-3.37,3.56,9.73,9.73,0,0,1-5,1.27,9.13,9.13,0,0,1-4.47-1.06,7.58,7.58,0,0,1-3-3v11.33h-3.53V227h3.53v4a7.62,7.62,0,0,1,3-3,9,9,0,0,1,4.41-1.06A9.7,9.7,0,0,1,167.31,228.19Zm-2.22,15a6.26,6.26,0,0,0,2.39-2.54,7.82,7.82,0,0,0,.85-3.68,7.6,7.6,0,0,0-.87-3.64,6.44,6.44,0,0,0-2.39-2.54,6.56,6.56,0,0,0-3.45-.91,6.67,6.67,0,0,0-3.47.91,6.4,6.4,0,0,0-2.41,2.54,8.16,8.16,0,0,0,0,7.33,6.42,6.42,0,0,0,2.41,2.52,7.06,7.06,0,0,0,6.93,0Z"/><path class="cls-4" d="M191.94,229.65q2.39,2.75,2.39,7.64c0,.51,0,.88,0,1.14H178.45a6.83,6.83,0,0,0,2.25,4.28,6.68,6.68,0,0,0,4.53,1.59,8.47,8.47,0,0,0,3.31-.64,8,8,0,0,0,2.67-1.82l1.93,2a10.14,10.14,0,0,1-3.56,2.46,11.86,11.86,0,0,1-4.62.87,10.65,10.65,0,0,1-5.25-1.27,8.91,8.91,0,0,1-3.56-3.58,11.52,11.52,0,0,1,0-10.52,9.23,9.23,0,0,1,3.54-3.6,10.22,10.22,0,0,1,5.19-1.31Q189.55,226.9,191.94,229.65Zm-.8,6a5.81,5.81,0,0,0-6.21-5.87,6.34,6.34,0,0,0-4.41,1.59,6.68,6.68,0,0,0-2.1,4.28Z"/><path class="cls-4" d="M215.81,229a7.84,7.84,0,0,1,2,5.7v12.39H214.3V235.62a4.92,4.92,0,0,0-5.34-5.38,6.05,6.05,0,0,0-4.38,1.72,6.78,6.78,0,0,0-1.91,4.38v10.72h-3.52V227h3.52v4.24q2-4.28,7.62-4.36A7.36,7.36,0,0,1,215.81,229Z"/><path class="cls-4" d="M224.45,220.54h18.42v3.3H228.09V232h13.22v3.3H228.09v8.45h15.23v3.3H224.45Z"/><path class="cls-4" d="M266.91,222.3a5.77,5.77,0,0,1,2.33,4.87A5.87,5.87,0,0,1,268,231a6.26,6.26,0,0,1-3.52,2.1,6.89,6.89,0,0,1,4.34,2.22,6.58,6.58,0,0,1,1.57,4.49,6.27,6.27,0,0,1-2.56,5.32,11.56,11.56,0,0,1-7.07,1.91H249.19V220.54h11.33A10.37,10.37,0,0,1,266.91,222.3Zm-2.77,8.45a3.54,3.54,0,0,0,1.35-3,3.45,3.45,0,0,0-1.35-2.92,6,6,0,0,0-3.81-1h-7.5v7.92h7.5A6.1,6.1,0,0,0,264.14,230.75Zm.81,11.86a3.72,3.72,0,0,0,1.67-3.24,3.61,3.61,0,0,0-1.67-3.15,8.12,8.12,0,0,0-4.62-1.14h-7.5v8.64h7.5A7.84,7.84,0,0,0,265,242.61Z"/><path class="cls-4" d="M287.83,224.31a13,13,0,0,0-3.66-.59,6.76,6.76,0,0,0-3.69.89,2.77,2.77,0,0,0-1.38,2.45,3.22,3.22,0,0,0,.83,2.29,5.89,5.89,0,0,0,2,1.4q1.21.51,3.37,1.19a38,38,0,0,1,4.36,1.59,7.53,7.53,0,0,1,2.84,2.25,6.23,6.23,0,0,1,1.18,4,6.62,6.62,0,0,1-1.23,4,7.87,7.87,0,0,1-3.45,2.63,13.08,13.08,0,0,1-5.1.93,14.83,14.83,0,0,1-5.68-1.14,15.41,15.41,0,0,1-4.77-3l1.63-3.14a13.66,13.66,0,0,0,4.26,2.86,11.75,11.75,0,0,0,4.6,1,7.35,7.35,0,0,0,4.19-1A3.25,3.25,0,0,0,289.7,240a3.29,3.29,0,0,0-.84-2.31,5.86,5.86,0,0,0-2.1-1.44,36.09,36.09,0,0,0-3.43-1.17A34.74,34.74,0,0,1,279,233.5a7.46,7.46,0,0,1-2.82-2.24,6.16,6.16,0,0,1-1.16-3.9,6.24,6.24,0,0,1,1.18-3.75,7.41,7.41,0,0,1,3.3-2.5,12.88,12.88,0,0,1,4.93-.87,15.91,15.91,0,0,1,4.68.7,15.69,15.69,0,0,1,4.07,1.88l-1.51,3.26A15.3,15.3,0,0,0,287.83,224.31Z"/><path class="cls-4" d="M325.25,228.19a8.84,8.84,0,0,1,3.41,3.6,12.18,12.18,0,0,1,0,10.55,8.65,8.65,0,0,1-3.37,3.56,9.73,9.73,0,0,1-5,1.27,9.13,9.13,0,0,1-4.47-1.06,7.58,7.58,0,0,1-3-3v11.33h-3.53V227h3.53v4a7.62,7.62,0,0,1,3-3,9,9,0,0,1,4.41-1.06A9.7,9.7,0,0,1,325.25,228.19Zm-2.22,15a6.26,6.26,0,0,0,2.39-2.54,7.82,7.82,0,0,0,.85-3.68,7.6,7.6,0,0,0-.87-3.64,6.44,6.44,0,0,0-2.39-2.54,6.56,6.56,0,0,0-3.45-.91,6.67,6.67,0,0,0-3.47.91,6.4,6.4,0,0,0-2.41,2.54,8.16,8.16,0,0,0,0,7.33,6.42,6.42,0,0,0,2.41,2.52,7.06,7.06,0,0,0,6.93,0Z"/><path class="cls-4" d="M341.12,228.06a8.35,8.35,0,0,1,4.32-1.16v3.41a6.44,6.44,0,0,0-7.12,6.18v10.57h-3.52V227h3.52v4.32A7.26,7.26,0,0,1,341.12,228.06Z"/><path class="cls-4" d="M362.93,228.19a9.27,9.27,0,0,1,3.64,3.58,10.4,10.4,0,0,1,1.31,5.25,10.51,10.51,0,0,1-1.31,5.27,9.22,9.22,0,0,1-3.64,3.6,11.72,11.72,0,0,1-10.68,0,9.26,9.26,0,0,1-3.64-3.58,11.27,11.27,0,0,1,0-10.53,9.27,9.27,0,0,1,3.64-3.58,11.72,11.72,0,0,1,10.68,0Zm-8.83,2.69a6.29,6.29,0,0,0-2.39,2.52,7.71,7.71,0,0,0-.85,3.66,7.9,7.9,0,0,0,.85,3.71,6.13,6.13,0,0,0,2.39,2.52,6.86,6.86,0,0,0,3.51.89,6.79,6.79,0,0,0,3.47-.89,6.13,6.13,0,0,0,2.39-2.52,7.9,7.9,0,0,0,.85-3.71,7.71,7.71,0,0,0-.85-3.66,6.29,6.29,0,0,0-2.39-2.52,6.68,6.68,0,0,0-3.47-.91A6.75,6.75,0,0,0,354.1,230.88Z"/><path class="cls-4" d="M369.77,251.53a2.48,2.48,0,0,0,2.2-1,5,5,0,0,0,.76-3V227h3.56v21a7,7,0,0,1-1.5,4.79,5.36,5.36,0,0,1-4.23,1.69,9.41,9.41,0,0,1-3.45-.68l.83-2.69A6.87,6.87,0,0,0,369.77,251.53ZM376,219.67a2.44,2.44,0,0,1,0,3.26,2.24,2.24,0,0,1-3.14,0,2.44,2.44,0,0,1,0-3.26,2.24,2.24,0,0,1,3.14,0Z"/><path class="cls-4" d="M397.85,229.65q2.39,2.75,2.39,7.64c0,.51,0,.88,0,1.14H384.36a6.83,6.83,0,0,0,2.25,4.28,6.68,6.68,0,0,0,4.53,1.59,8.47,8.47,0,0,0,3.31-.64,8,8,0,0,0,2.67-1.82l1.93,2a10.14,10.14,0,0,1-3.56,2.46,11.86,11.86,0,0,1-4.62.87,10.65,10.65,0,0,1-5.25-1.27,8.91,8.91,0,0,1-3.56-3.58,11.52,11.52,0,0,1,0-10.52,9.23,9.23,0,0,1,3.54-3.6,10.22,10.22,0,0,1,5.19-1.31Q395.46,226.9,397.85,229.65Zm-.8,6a5.81,5.81,0,0,0-6.21-5.87,6.34,6.34,0,0,0-4.41,1.59,6.68,6.68,0,0,0-2.1,4.28Z"/><path class="cls-4" d="M413.38,230a7,7,0,0,0-3.51.87,6.2,6.2,0,0,0-2.41,2.46,7.54,7.54,0,0,0-.87,3.68,7.67,7.67,0,0,0,.85,3.68,6.27,6.27,0,0,0,2.35,2.48,6.58,6.58,0,0,0,3.43.89,9,9,0,0,0,3.49-.64,6.65,6.65,0,0,0,2.58-1.86l2,2a8.85,8.85,0,0,1-3.47,2.61,11.86,11.86,0,0,1-4.76.91,10.34,10.34,0,0,1-5.19-1.29,9.1,9.1,0,0,1-3.54-3.58,11.52,11.52,0,0,1,0-10.52,9.08,9.08,0,0,1,3.54-3.6,10.34,10.34,0,0,1,5.19-1.29,12.7,12.7,0,0,1,4.57.78,8.83,8.83,0,0,1,3.39,2.26l-1.93,2.42A7.94,7.94,0,0,0,413.38,230Z"/><path class="cls-4" d="M437.1,245.74a8.64,8.64,0,0,1-4.7,1.48,5.34,5.34,0,0,1-3.86-1.42,5.71,5.71,0,0,1-1.48-4.3v-11.1h-2.84V227.7h2.84v-5.38h3.56v5.38h6.14v2.69h-6.14v10.46a3.7,3.7,0,0,0,.61,2.39A2.24,2.24,0,0,0,433,244a6.35,6.35,0,0,0,3.11-.95Z"/><path class="cls-4" d="M454.63,219.67a2.44,2.44,0,0,1,0,3.26,2.24,2.24,0,0,1-3.15,0,2.44,2.44,0,0,1,0-3.26,2.24,2.24,0,0,1,3.15,0ZM451.31,227h3.52v20h-3.52Z"/><path class="cls-4" d="M469.9,230.24a9.84,9.84,0,0,0-2.86-.46,4.89,4.89,0,0,0-2.56.59,2,2,0,0,0-1,1.8,2,2,0,0,0,1.08,1.84,15.64,15.64,0,0,0,3.28,1.27,25.74,25.74,0,0,1,3.41,1.21,6.06,6.06,0,0,1,2.25,1.78,5.51,5.51,0,0,1-1.21,7.43,9.15,9.15,0,0,1-5.32,1.48,13.32,13.32,0,0,1-4.34-.72,9.85,9.85,0,0,1-3.54-2l1.33-2.58a9.38,9.38,0,0,0,3.09,1.82,10.27,10.27,0,0,0,3.58.68,5.36,5.36,0,0,0,2.8-.64,2.15,2.15,0,0,0,1.06-2,2.24,2.24,0,0,0-1.12-2,15.14,15.14,0,0,0-3.39-1.36,22.68,22.68,0,0,1-3.28-1.16,5.81,5.81,0,0,1-2.16-1.72,4.66,4.66,0,0,1-.89-3,4.76,4.76,0,0,1,2-4.21,8.84,8.84,0,0,1,5.12-1.4,12.81,12.81,0,0,1,3.58.51,10.78,10.78,0,0,1,3.05,1.38l-1.29,2.69A12,12,0,0,0,469.9,230.24Z"/><path class="cls-4" d="M489.24,218.95h3.53v28.12h-3.53Z"/><path class="cls-4" d="M513.52,228.19a9.27,9.27,0,0,1,3.64,3.58,10.4,10.4,0,0,1,1.31,5.25,10.51,10.51,0,0,1-1.31,5.27,9.22,9.22,0,0,1-3.64,3.6,11.72,11.72,0,0,1-10.68,0,9.26,9.26,0,0,1-3.64-3.58,11.27,11.27,0,0,1,0-10.53,9.27,9.27,0,0,1,3.64-3.58,11.72,11.72,0,0,1,10.68,0Zm-8.83,2.69a6.29,6.29,0,0,0-2.39,2.52,7.71,7.71,0,0,0-.85,3.66,7.9,7.9,0,0,0,.85,3.71,6.13,6.13,0,0,0,2.39,2.52,6.86,6.86,0,0,0,3.51.89,6.79,6.79,0,0,0,3.47-.89,6.13,6.13,0,0,0,2.39-2.52,7.9,7.9,0,0,0,.85-3.71,7.71,7.71,0,0,0-.85-3.66,6.29,6.29,0,0,0-2.39-2.52,6.68,6.68,0,0,0-3.47-.91A6.75,6.75,0,0,0,504.69,230.88Z"/><path class="cls-4" d="M537,228.19a9.27,9.27,0,0,1,3.64,3.58A10.4,10.4,0,0,1,542,237a10.51,10.51,0,0,1-1.31,5.27,9.22,9.22,0,0,1-3.64,3.6,11.72,11.72,0,0,1-10.68,0,9.26,9.26,0,0,1-3.64-3.58,11.27,11.27,0,0,1,0-10.53,9.27,9.27,0,0,1,3.64-3.58,11.72,11.72,0,0,1,10.68,0Zm-8.83,2.69a6.29,6.29,0,0,0-2.39,2.52,7.71,7.71,0,0,0-.85,3.66,7.9,7.9,0,0,0,.85,3.71,6.13,6.13,0,0,0,2.39,2.52,6.86,6.86,0,0,0,3.51.89,6.79,6.79,0,0,0,3.47-.89,6.13,6.13,0,0,0,2.39-2.52,7.9,7.9,0,0,0,.85-3.71,7.71,7.71,0,0,0-.85-3.66,6.29,6.29,0,0,0-2.39-2.52,6.68,6.68,0,0,0-3.47-.91A6.75,6.75,0,0,0,528.22,230.88Z"/><path class="cls-4" d="M560.94,247.06l-6.4-9.74-3.9,4.05v5.68h-3.53V218.95h3.53v17.92l9.7-9.85h4.13L557,234.79l8.18,12.28Z"/><path class="cls-4" d="M572.29,219.67a2.44,2.44,0,0,1,0,3.26,2.24,2.24,0,0,1-3.15,0,2.44,2.44,0,0,1,0-3.26,2.24,2.24,0,0,1,3.15,0ZM569,227h3.52v20H569Z"/><path class="cls-4" d="M596,229a7.84,7.84,0,0,1,2,5.7v12.39h-3.52V235.62a4.92,4.92,0,0,0-5.34-5.38,6.05,6.05,0,0,0-4.38,1.72,6.78,6.78,0,0,0-1.91,4.38v10.72h-3.52V227h3.52v4.24q2-4.28,7.62-4.36A7.36,7.36,0,0,1,596,229Z"/><path class="cls-4" d="M622.06,227v18a9.76,9.76,0,0,1-1.27,5,8.42,8.42,0,0,1-3.58,3.32,11.9,11.9,0,0,1-5.38,1.16,13.71,13.71,0,0,1-8.26-2.8l1.55-2.58a10.69,10.69,0,0,0,3.07,1.8,10,10,0,0,0,3.49.59,7,7,0,0,0,5-1.74,6.09,6.09,0,0,0,1.86-4.66v-2.8a7.43,7.43,0,0,1-2.88,2.82,8.48,8.48,0,0,1-4.17,1,9.09,9.09,0,0,1-4.76-1.23,8.38,8.38,0,0,1-3.2-3.43,10.81,10.81,0,0,1-1.14-5,10.5,10.5,0,0,1,1.14-5,8.31,8.31,0,0,1,3.2-3.37,9.22,9.22,0,0,1,4.76-1.21,8.59,8.59,0,0,1,4.19,1,7.35,7.35,0,0,1,2.86,2.8V227Zm-6.63,15.42a6.1,6.1,0,0,0,2.26-2.41,7.3,7.3,0,0,0,.81-3.47,7.37,7.37,0,0,0-.81-3.5,6.1,6.1,0,0,0-2.26-2.41,6.23,6.23,0,0,0-3.3-.87,6.33,6.33,0,0,0-3.32.87,6.17,6.17,0,0,0-2.29,2.41,7.21,7.21,0,0,0-.83,3.5,6.92,6.92,0,0,0,1.82,4.85,6.05,6.05,0,0,0,4.62,1.89A6.23,6.23,0,0,0,615.43,242.44Z"/><path class="cls-4" d="M643.54,222.7a3.08,3.08,0,0,0-.91,2.39v2.61h5.53v2.69h-5.53v16.67h-3.53V230.39H636.5V227.7h2.61v-2.16a7.09,7.09,0,0,1,.93-3.73,6,6,0,0,1,2.44-2.31,7,7,0,0,1,3.26-.78,7.8,7.8,0,0,1,3.49.91l-.83,2.88a6.06,6.06,0,0,0-2.58-.64A3.24,3.24,0,0,0,643.54,222.7Z"/><path class="cls-4" d="M664.67,228.19a9.27,9.27,0,0,1,3.64,3.58,10.4,10.4,0,0,1,1.31,5.25,10.51,10.51,0,0,1-1.31,5.27,9.22,9.22,0,0,1-3.64,3.6,11.72,11.72,0,0,1-10.68,0,9.26,9.26,0,0,1-3.64-3.58,11.27,11.27,0,0,1,0-10.53,9.27,9.27,0,0,1,3.64-3.58,11.72,11.72,0,0,1,10.68,0Zm-8.83,2.69a6.29,6.29,0,0,0-2.39,2.52,7.71,7.71,0,0,0-.85,3.66,7.9,7.9,0,0,0,.85,3.71,6.13,6.13,0,0,0,2.39,2.52,6.86,6.86,0,0,0,3.51.89,6.79,6.79,0,0,0,3.47-.89,6.13,6.13,0,0,0,2.39-2.52,7.9,7.9,0,0,0,.85-3.71,7.71,7.71,0,0,0-.85-3.66,6.29,6.29,0,0,0-2.39-2.52,6.68,6.68,0,0,0-3.47-.91A6.75,6.75,0,0,0,655.84,230.88Z"/><path class="cls-4" d="M680.87,228.06a8.35,8.35,0,0,1,4.32-1.16v3.41a6.44,6.44,0,0,0-7.12,6.18v10.57h-3.52V227h3.52v4.32A7.26,7.26,0,0,1,680.87,228.06Z"/><path class="cls-4" d="M707.28,230a7,7,0,0,0-3.51.87,6.2,6.2,0,0,0-2.41,2.46,7.54,7.54,0,0,0-.87,3.68,7.67,7.67,0,0,0,.85,3.68,6.27,6.27,0,0,0,2.35,2.48,6.58,6.58,0,0,0,3.43.89,9,9,0,0,0,3.49-.64,6.65,6.65,0,0,0,2.58-1.86l2,2a8.85,8.85,0,0,1-3.47,2.61,11.86,11.86,0,0,1-4.76.91,10.34,10.34,0,0,1-5.19-1.29,9.1,9.1,0,0,1-3.54-3.58,11.52,11.52,0,0,1,0-10.52,9.08,9.08,0,0,1,3.54-3.6A10.34,10.34,0,0,1,707,226.9a12.7,12.7,0,0,1,4.57.78,8.83,8.83,0,0,1,3.39,2.26L713,232.36A7.94,7.94,0,0,0,707.28,230Z"/><path class="cls-4" d="M733,228.19a9.27,9.27,0,0,1,3.64,3.58A10.4,10.4,0,0,1,738,237a10.51,10.51,0,0,1-1.31,5.27,9.22,9.22,0,0,1-3.64,3.6,11.72,11.72,0,0,1-10.68,0,9.26,9.26,0,0,1-3.64-3.58,11.27,11.27,0,0,1,0-10.53,9.27,9.27,0,0,1,3.64-3.58,11.72,11.72,0,0,1,10.68,0Zm-8.83,2.69a6.29,6.29,0,0,0-2.39,2.52,7.71,7.71,0,0,0-.85,3.66,7.9,7.9,0,0,0,.85,3.71,6.13,6.13,0,0,0,2.39,2.52,6.86,6.86,0,0,0,3.51.89,6.79,6.79,0,0,0,3.47-.89,6.13,6.13,0,0,0,2.39-2.52,7.9,7.9,0,0,0,.85-3.71,7.71,7.71,0,0,0-.85-3.66,6.29,6.29,0,0,0-2.39-2.52,6.68,6.68,0,0,0-3.47-.91A6.75,6.75,0,0,0,724.2,230.88Z"/><path class="cls-4" d="M759.57,229a7.84,7.84,0,0,1,2,5.7v12.39h-3.52V235.62a4.92,4.92,0,0,0-5.34-5.38,6.05,6.05,0,0,0-4.38,1.72,6.78,6.78,0,0,0-1.91,4.38v10.72H742.9V227h3.52v4.24q2-4.28,7.62-4.36A7.36,7.36,0,0,1,759.57,229Z"/><path class="cls-4" d="M778.63,245.74a8.64,8.64,0,0,1-4.7,1.48,5.34,5.34,0,0,1-3.86-1.42,5.71,5.71,0,0,1-1.48-4.3v-11.1h-2.84V227.7h2.84v-5.38h3.56v5.38h6.14v2.69h-6.14v10.46a3.7,3.7,0,0,0,.61,2.39,2.24,2.24,0,0,0,1.82.72,6.35,6.35,0,0,0,3.11-.95Z"/><path class="cls-4" d="M789.24,228.06a8.35,8.35,0,0,1,4.32-1.16v3.41a6.44,6.44,0,0,0-7.12,6.18v10.57h-3.52V227h3.52v4.32A7.26,7.26,0,0,1,789.24,228.06Z"/><path class="cls-4" d="M800.7,219.67a2.44,2.44,0,0,1,0,3.26,2.24,2.24,0,0,1-3.15,0,2.44,2.44,0,0,1,0-3.26,2.24,2.24,0,0,1,3.15,0ZM797.39,227h3.52v20h-3.52Z"/><path class="cls-4" d="M823.91,228.19a8.84,8.84,0,0,1,3.41,3.6,12.18,12.18,0,0,1,0,10.55,8.65,8.65,0,0,1-3.37,3.56,9.73,9.73,0,0,1-5,1.27,9.13,9.13,0,0,1-4.47-1.06,7.58,7.58,0,0,1-3-3v4H808V218.95h3.53v12a7.62,7.62,0,0,1,3-3,9,9,0,0,1,4.41-1.06A9.7,9.7,0,0,1,823.91,228.19Zm-2.22,15a6.26,6.26,0,0,0,2.39-2.54,7.82,7.82,0,0,0,.85-3.68,7.6,7.6,0,0,0-.87-3.64,6.44,6.44,0,0,0-2.39-2.54,6.56,6.56,0,0,0-3.45-.91,6.67,6.67,0,0,0-3.47.91,6.4,6.4,0,0,0-2.41,2.54,8.16,8.16,0,0,0,0,7.33,6.42,6.42,0,0,0,2.41,2.52,7.06,7.06,0,0,0,6.93,0Z"/><path class="cls-4" d="M851.19,227v20h-3.56v-4.24q-2,4.28-7.43,4.36a7.18,7.18,0,0,1-5.46-2.06,7.93,7.93,0,0,1-2-5.7V227h3.56v11.44a5.44,5.44,0,0,0,1.38,4,5.07,5.07,0,0,0,3.81,1.42,5.63,5.63,0,0,0,4.45-2,7.45,7.45,0,0,0,1.65-5V227Z"/><path class="cls-4" d="M868.81,245.74a8.64,8.64,0,0,1-4.7,1.48,5.34,5.34,0,0,1-3.86-1.42,5.71,5.71,0,0,1-1.48-4.3v-11.1h-2.84V227.7h2.84v-5.38h3.56v5.38h6.14v2.69h-6.14v10.46a3.7,3.7,0,0,0,.61,2.39,2.24,2.24,0,0,0,1.82.72,6.35,6.35,0,0,0,3.11-.95Z"/><path class="cls-4" d="M876.41,219.67a2.44,2.44,0,0,1,0,3.26,2.24,2.24,0,0,1-3.15,0,2.44,2.44,0,0,1,0-3.26,2.24,2.24,0,0,1,3.15,0ZM873.1,227h3.52v20H873.1Z"/><path class="cls-4" d="M897.14,228.19a9.27,9.27,0,0,1,3.64,3.58,10.4,10.4,0,0,1,1.31,5.25,10.51,10.51,0,0,1-1.31,5.27,9.22,9.22,0,0,1-3.64,3.6,11.72,11.72,0,0,1-10.68,0,9.26,9.26,0,0,1-3.64-3.58,11.27,11.27,0,0,1,0-10.53,9.27,9.27,0,0,1,3.64-3.58,11.72,11.72,0,0,1,10.68,0Zm-8.83,2.69a6.29,6.29,0,0,0-2.39,2.52,7.71,7.71,0,0,0-.85,3.66,7.9,7.9,0,0,0,.85,3.71,6.13,6.13,0,0,0,2.39,2.52,6.86,6.86,0,0,0,3.51.89,6.79,6.79,0,0,0,3.47-.89,6.13,6.13,0,0,0,2.39-2.52,7.9,7.9,0,0,0,.85-3.71,7.71,7.71,0,0,0-.85-3.66,6.29,6.29,0,0,0-2.39-2.52,6.68,6.68,0,0,0-3.47-.91A6.75,6.75,0,0,0,888.31,230.88Z"/><path class="cls-4" d="M923.68,229a7.84,7.84,0,0,1,2,5.7v12.39h-3.52V235.62a4.92,4.92,0,0,0-5.34-5.38,6.05,6.05,0,0,0-4.38,1.72,6.78,6.78,0,0,0-1.91,4.38v10.72H907V227h3.52v4.24q2-4.28,7.62-4.36A7.36,7.36,0,0,1,923.68,229Z"/><path class="cls-4" d="M940.19,230.24a9.84,9.84,0,0,0-2.86-.46,4.89,4.89,0,0,0-2.56.59,2,2,0,0,0-1,1.8,2,2,0,0,0,1.08,1.84,15.64,15.64,0,0,0,3.28,1.27,25.74,25.74,0,0,1,3.41,1.21,6.06,6.06,0,0,1,2.25,1.78,5.51,5.51,0,0,1-1.21,7.43,9.15,9.15,0,0,1-5.32,1.48,13.32,13.32,0,0,1-4.34-.72,9.85,9.85,0,0,1-3.54-2l1.33-2.58a9.38,9.38,0,0,0,3.09,1.82,10.27,10.27,0,0,0,3.58.68,5.36,5.36,0,0,0,2.8-.64,2.15,2.15,0,0,0,1.06-2,2.24,2.24,0,0,0-1.12-2,15.14,15.14,0,0,0-3.39-1.36,22.68,22.68,0,0,1-3.28-1.16,5.81,5.81,0,0,1-2.16-1.72,4.66,4.66,0,0,1-.89-3,4.76,4.76,0,0,1,2-4.21,8.84,8.84,0,0,1,5.12-1.4,12.81,12.81,0,0,1,3.58.51,10.78,10.78,0,0,1,3.05,1.38l-1.29,2.69A12,12,0,0,0,940.19,230.24Z"/><path class="cls-4" d="M961.71,243.65a2.15,2.15,0,0,1,.59,1.55,2.22,2.22,0,0,1-.59,1.57,1.92,1.92,0,0,1-1.46.62,2,2,0,0,1-1.48-.62,2.18,2.18,0,0,1-.61-1.57,2.11,2.11,0,0,1,.61-1.55,2,2,0,0,1,1.48-.61A2,2,0,0,1,961.71,243.65Zm-3.17-22.74H962v6.48l-.57,11.52h-2.31l-.53-11.52Z"/><path class="cls-4" d="M112.12,266h3.79l-9,26.53h-3.79l-6.86-21.9-7,21.9H85.55L76.61,266h3.9l7,22.62,7-22.62h3.64l7,22.62Z"/><path class="cls-4" d="M132.65,275.12q2.39,2.75,2.39,7.64c0,.51,0,.88,0,1.14H119.16a6.83,6.83,0,0,0,2.25,4.28,6.68,6.68,0,0,0,4.53,1.59,8.47,8.47,0,0,0,3.31-.64,8,8,0,0,0,2.67-1.82l1.93,2a10.14,10.14,0,0,1-3.56,2.46,11.86,11.86,0,0,1-4.62.87,10.65,10.65,0,0,1-5.25-1.27,8.91,8.91,0,0,1-3.56-3.58,11.52,11.52,0,0,1,0-10.52,9.23,9.23,0,0,1,3.54-3.6,10.22,10.22,0,0,1,5.19-1.31Q130.27,272.38,132.65,275.12Zm-.8,6a5.81,5.81,0,0,0-6.21-5.87,6.34,6.34,0,0,0-4.41,1.59,6.68,6.68,0,0,0-2.1,4.28Z"/><path class="cls-4" d="M162,292.54v-2.8q-2.24,3-7,3a8,8,0,0,1-3.66-.8,5.85,5.85,0,0,1-2.42-2.2,5.92,5.92,0,0,1-.85-3.14,5.14,5.14,0,0,1,2-4.26,8.9,8.9,0,0,1,5.55-1.61H162v-.95a4.14,4.14,0,0,0-1.31-3.28,5.58,5.58,0,0,0-3.81-1.16,10.91,10.91,0,0,0-6.18,2.16L149.21,275a18.36,18.36,0,0,1,4-2,13.64,13.64,0,0,1,4.38-.63,8.38,8.38,0,0,1,5.8,1.84,6.66,6.66,0,0,1,2.08,5.13l0,13.19Zm-2.1-4a4.7,4.7,0,0,0,2.06-3.16v-2h-5.87a6.86,6.86,0,0,0-3.54.72,2.48,2.48,0,0,0-1.15,2.27,3,3,0,0,0,1.17,2.46,5,5,0,0,0,3.14.91A7.18,7.18,0,0,0,159.92,288.58Z"/><path class="cls-4" d="M178.12,273.53a8.35,8.35,0,0,1,4.32-1.16v3.41a6.44,6.44,0,0,0-7.12,6.18v10.57H171.8v-20h3.52v4.32A7.26,7.26,0,0,1,178.12,273.53Z"/><path class="cls-4" d="M201.35,275.12q2.39,2.75,2.39,7.64c0,.51,0,.88,0,1.14H187.86a6.83,6.83,0,0,0,2.25,4.28,6.68,6.68,0,0,0,4.53,1.59,8.47,8.47,0,0,0,3.31-.64,8,8,0,0,0,2.67-1.82l1.93,2a10.14,10.14,0,0,1-3.56,2.46,11.86,11.86,0,0,1-4.62.87,10.65,10.65,0,0,1-5.25-1.27,8.91,8.91,0,0,1-3.56-3.58,11.52,11.52,0,0,1,0-10.52,9.23,9.23,0,0,1,3.54-3.6,10.22,10.22,0,0,1,5.19-1.31Q199,272.38,201.35,275.12Zm-.8,6a5.81,5.81,0,0,0-6.21-5.87,6.34,6.34,0,0,0-4.41,1.59,6.68,6.68,0,0,0-2.1,4.28Z"/><path class="cls-4" d="M226.82,275.52a7,7,0,0,0-3.51.87,6.2,6.2,0,0,0-2.41,2.46,7.54,7.54,0,0,0-.87,3.68,7.67,7.67,0,0,0,.85,3.68,6.27,6.27,0,0,0,2.35,2.48,6.58,6.58,0,0,0,3.43.89,9,9,0,0,0,3.49-.64,6.65,6.65,0,0,0,2.58-1.86l2,2a8.85,8.85,0,0,1-3.47,2.61,11.86,11.86,0,0,1-4.76.91,10.34,10.34,0,0,1-5.19-1.29,9.1,9.1,0,0,1-3.54-3.58,11.52,11.52,0,0,1,0-10.52,9.08,9.08,0,0,1,3.54-3.6,10.34,10.34,0,0,1,5.19-1.29,12.7,12.7,0,0,1,4.57.78,8.83,8.83,0,0,1,3.39,2.26l-1.93,2.42A7.94,7.94,0,0,0,226.82,275.52Z"/><path class="cls-4" d="M254,275.12q2.39,2.75,2.39,7.64c0,.51,0,.88,0,1.14H240.5a6.83,6.83,0,0,0,2.25,4.28,6.68,6.68,0,0,0,4.53,1.59,8.47,8.47,0,0,0,3.31-.64,8,8,0,0,0,2.67-1.82l1.93,2a10.14,10.14,0,0,1-3.56,2.46,11.86,11.86,0,0,1-4.62.87,10.65,10.65,0,0,1-5.25-1.27,8.91,8.91,0,0,1-3.56-3.58,11.52,11.52,0,0,1,0-10.52,9.23,9.23,0,0,1,3.54-3.6,10.22,10.22,0,0,1,5.19-1.31Q251.6,272.38,254,275.12Zm-.8,6a5.81,5.81,0,0,0-6.21-5.87,6.34,6.34,0,0,0-4.41,1.59,6.68,6.68,0,0,0-2.1,4.28Z"/><path class="cls-4" d="M261.37,264.42h3.53v28.12h-3.53Z"/><path class="cls-4" d="M287.07,275.12q2.39,2.75,2.39,7.64c0,.51,0,.88,0,1.14H273.58a6.83,6.83,0,0,0,2.25,4.28,6.68,6.68,0,0,0,4.53,1.59,8.47,8.47,0,0,0,3.31-.64,8,8,0,0,0,2.67-1.82l1.93,2a10.14,10.14,0,0,1-3.56,2.46,11.86,11.86,0,0,1-4.62.87,10.65,10.65,0,0,1-5.25-1.27,8.91,8.91,0,0,1-3.56-3.58,11.52,11.52,0,0,1,0-10.52,9.23,9.23,0,0,1,3.54-3.6,10.22,10.22,0,0,1,5.19-1.31Q284.68,272.38,287.07,275.12Zm-.8,6a5.81,5.81,0,0,0-6.21-5.87,6.34,6.34,0,0,0-4.41,1.59,6.68,6.68,0,0,0-2.1,4.28Z"/><path class="cls-4" d="M310.41,273.66a8.84,8.84,0,0,1,3.41,3.6,12.18,12.18,0,0,1,0,10.55,8.65,8.65,0,0,1-3.37,3.56,9.73,9.73,0,0,1-5,1.27,9.13,9.13,0,0,1-4.47-1.06,7.58,7.58,0,0,1-3-3v4h-3.53V264.42H298v12a7.62,7.62,0,0,1,3-3,9,9,0,0,1,4.41-1.06A9.7,9.7,0,0,1,310.41,273.66Zm-2.22,15a6.26,6.26,0,0,0,2.39-2.54,7.82,7.82,0,0,0,.85-3.68,7.6,7.6,0,0,0-.87-3.64,6.44,6.44,0,0,0-2.39-2.54,6.56,6.56,0,0,0-3.45-.91,6.67,6.67,0,0,0-3.47.91,6.4,6.4,0,0,0-2.41,2.54,8.16,8.16,0,0,0,0,7.33,6.42,6.42,0,0,0,2.41,2.52,7.06,7.06,0,0,0,6.93,0Z"/><path class="cls-4" d="M326.28,273.53a8.35,8.35,0,0,1,4.32-1.16v3.41a6.44,6.44,0,0,0-7.12,6.18v10.57H320v-20h3.52v4.32A7.26,7.26,0,0,1,326.28,273.53Z"/><path class="cls-4" d="M345.8,292.54v-2.8q-2.24,3-7,3a8,8,0,0,1-3.66-.8,5.85,5.85,0,0,1-2.42-2.2,5.92,5.92,0,0,1-.85-3.14,5.14,5.14,0,0,1,2-4.26,8.9,8.9,0,0,1,5.55-1.61h6.37v-.95a4.14,4.14,0,0,0-1.31-3.28,5.58,5.58,0,0,0-3.81-1.16,10.91,10.91,0,0,0-6.18,2.16L333,275a18.36,18.36,0,0,1,4-2,13.64,13.64,0,0,1,4.38-.63,8.38,8.38,0,0,1,5.8,1.84,6.66,6.66,0,0,1,2.08,5.13l0,13.19Zm-2.1-4a4.7,4.7,0,0,0,2.06-3.16v-2h-5.87a6.86,6.86,0,0,0-3.54.72,2.48,2.48,0,0,0-1.15,2.27,3,3,0,0,0,1.17,2.46,5,5,0,0,0,3.14.91A7.18,7.18,0,0,0,343.7,288.58Z"/><path class="cls-4" d="M366.34,291.21a8.64,8.64,0,0,1-4.7,1.48,5.34,5.34,0,0,1-3.86-1.42,5.71,5.71,0,0,1-1.48-4.3v-11.1h-2.84v-2.69h2.84v-5.38h3.56v5.38H366v2.69h-6.14v10.46a3.7,3.7,0,0,0,.61,2.39,2.24,2.24,0,0,0,1.82.72,6.35,6.35,0,0,0,3.11-.95Z"/><path class="cls-4" d="M373.94,265.14a2.44,2.44,0,0,1,0,3.26,2.24,2.24,0,0,1-3.15,0,2.44,2.44,0,0,1,0-3.26,2.24,2.24,0,0,1,3.15,0Zm-3.32,7.35h3.52v20h-3.52Z"/><path class="cls-4" d="M397.68,274.44a7.84,7.84,0,0,1,2,5.7v12.39h-3.52V281.09a4.92,4.92,0,0,0-5.34-5.38,6.05,6.05,0,0,0-4.38,1.72,6.78,6.78,0,0,0-1.91,4.38v10.72H381v-20h3.52v4.24q2-4.28,7.62-4.36A7.36,7.36,0,0,1,397.68,274.44Z"/><path class="cls-4" d="M423.71,272.49v18a9.76,9.76,0,0,1-1.27,5,8.42,8.42,0,0,1-3.58,3.32,11.9,11.9,0,0,1-5.38,1.16,13.71,13.71,0,0,1-8.26-2.8l1.55-2.58a10.69,10.69,0,0,0,3.07,1.8,10,10,0,0,0,3.49.59,7,7,0,0,0,5-1.74,6.09,6.09,0,0,0,1.86-4.66v-2.8a7.43,7.43,0,0,1-2.88,2.82,8.48,8.48,0,0,1-4.17,1,9.09,9.09,0,0,1-4.76-1.23,8.38,8.38,0,0,1-3.2-3.43,10.81,10.81,0,0,1-1.14-5,10.5,10.5,0,0,1,1.14-5,8.31,8.31,0,0,1,3.2-3.37,9.22,9.22,0,0,1,4.76-1.21,8.59,8.59,0,0,1,4.19,1,7.35,7.35,0,0,1,2.86,2.8v-3.68Zm-6.63,15.42a6.1,6.1,0,0,0,2.26-2.41,7.3,7.3,0,0,0,.81-3.47,7.37,7.37,0,0,0-.81-3.5,6.1,6.1,0,0,0-2.26-2.41,6.23,6.23,0,0,0-3.3-.87,6.33,6.33,0,0,0-3.32.87,6.17,6.17,0,0,0-2.29,2.41,7.21,7.21,0,0,0-.83,3.5,6.92,6.92,0,0,0,1.82,4.85,6.05,6.05,0,0,0,4.62,1.89A6.23,6.23,0,0,0,417.08,287.91Z"/><path class="cls-4" d="M450.84,291.21a8.64,8.64,0,0,1-4.7,1.48,5.34,5.34,0,0,1-3.86-1.42,5.71,5.71,0,0,1-1.48-4.3v-11.1H438v-2.69h2.84v-5.38h3.56v5.38h6.14v2.69h-6.14v10.46a3.7,3.7,0,0,0,.61,2.39,2.24,2.24,0,0,0,1.82.72,6.35,6.35,0,0,0,3.11-.95Z"/><path class="cls-4" d="M472,274.44a7.84,7.84,0,0,1,2,5.7v12.39H470.5V281.09a5.36,5.36,0,0,0-1.42-4,5.3,5.3,0,0,0-3.92-1.42,6,6,0,0,0-4.62,2,7.28,7.28,0,0,0-1.71,5v9.85h-3.53V264.42h3.53v12.39q2-4.36,7.65-4.43A7.36,7.36,0,0,1,472,274.44Z"/><path class="cls-4" d="M495.4,275.12q2.39,2.75,2.39,7.64c0,.51,0,.88,0,1.14H481.91a6.83,6.83,0,0,0,2.25,4.28,6.68,6.68,0,0,0,4.53,1.59,8.47,8.47,0,0,0,3.31-.64,8,8,0,0,0,2.67-1.82l1.93,2a10.14,10.14,0,0,1-3.56,2.46,11.86,11.86,0,0,1-4.62.87,10.65,10.65,0,0,1-5.25-1.27,8.91,8.91,0,0,1-3.56-3.58,11.52,11.52,0,0,1,0-10.52,9.23,9.23,0,0,1,3.54-3.6,10.22,10.22,0,0,1,5.19-1.31Q493,272.38,495.4,275.12Zm-.8,6a5.81,5.81,0,0,0-6.21-5.87,6.34,6.34,0,0,0-4.41,1.59,6.68,6.68,0,0,0-2.1,4.28Z"/><path class="cls-4" d="M543.83,274.46a7.93,7.93,0,0,1,2,5.68v12.39h-3.56V281.09a5.51,5.51,0,0,0-1.38-4,5,5,0,0,0-3.81-1.44,5.75,5.75,0,0,0-4.47,2,7.44,7.44,0,0,0-1.63,5v9.89h-3.56V281.09a5.56,5.56,0,0,0-1.36-4,5,5,0,0,0-3.83-1.44,5.81,5.81,0,0,0-4.49,2,7.38,7.38,0,0,0-1.65,5v9.89h-3.52v-20h3.52v4.21q2-4.24,7.46-4.32a7.68,7.68,0,0,1,4.61,1.33,6.5,6.5,0,0,1,2.48,3.71q1.86-5,7.81-5A7.1,7.1,0,0,1,543.83,274.46Z"/><path class="cls-4" d="M565.75,273.66a9.27,9.27,0,0,1,3.64,3.58,10.4,10.4,0,0,1,1.31,5.25,10.51,10.51,0,0,1-1.31,5.27,9.22,9.22,0,0,1-3.64,3.6,11.72,11.72,0,0,1-10.68,0,9.26,9.26,0,0,1-3.64-3.58,11.27,11.27,0,0,1,0-10.53,9.27,9.27,0,0,1,3.64-3.58,11.72,11.72,0,0,1,10.68,0Zm-8.83,2.69a6.29,6.29,0,0,0-2.39,2.52,7.71,7.71,0,0,0-.85,3.66,7.9,7.9,0,0,0,.85,3.71,6.13,6.13,0,0,0,2.39,2.52,6.86,6.86,0,0,0,3.51.89,6.79,6.79,0,0,0,3.47-.89,6.13,6.13,0,0,0,2.39-2.52,7.9,7.9,0,0,0,.85-3.71,7.71,7.71,0,0,0-.85-3.66,6.29,6.29,0,0,0-2.39-2.52,6.68,6.68,0,0,0-3.47-.91A6.75,6.75,0,0,0,556.92,276.35Z"/><path class="cls-4" d="M592.29,274.44a7.84,7.84,0,0,1,2,5.7v12.39h-3.52V281.09a4.92,4.92,0,0,0-5.34-5.38,6.05,6.05,0,0,0-4.38,1.72,6.78,6.78,0,0,0-1.91,4.38v10.72h-3.52v-20h3.52v4.24q2-4.28,7.62-4.36A7.36,7.36,0,0,1,592.29,274.44Z"/><path class="cls-4" d="M611.35,291.21a8.64,8.64,0,0,1-4.7,1.48,5.34,5.34,0,0,1-3.86-1.42,5.71,5.71,0,0,1-1.48-4.3v-11.1h-2.84v-2.69h2.84v-5.38h3.56v5.38H611v2.69h-6.14v10.46a3.7,3.7,0,0,0,.61,2.39,2.24,2.24,0,0,0,1.82.72,6.35,6.35,0,0,0,3.11-.95Z"/><path class="cls-4" d="M632.53,274.44a7.84,7.84,0,0,1,2,5.7v12.39H631V281.09a5.36,5.36,0,0,0-1.42-4,5.3,5.3,0,0,0-3.92-1.42,6,6,0,0,0-4.62,2,7.28,7.28,0,0,0-1.71,5v9.85h-3.53V264.42h3.53v12.39q2-4.36,7.65-4.43A7.36,7.36,0,0,1,632.53,274.44Z"/><path class="cls-4" d="M650.95,264.42h3.53v28.12h-3.53Z"/><path class="cls-4" d="M675.22,273.66a9.27,9.27,0,0,1,3.64,3.58,10.4,10.4,0,0,1,1.31,5.25,10.51,10.51,0,0,1-1.31,5.27,9.22,9.22,0,0,1-3.64,3.6,11.72,11.72,0,0,1-10.68,0,9.26,9.26,0,0,1-3.64-3.58,11.27,11.27,0,0,1,0-10.53,9.27,9.27,0,0,1,3.64-3.58,11.72,11.72,0,0,1,10.68,0Zm-8.83,2.69a6.29,6.29,0,0,0-2.39,2.52,7.71,7.71,0,0,0-.85,3.66,7.9,7.9,0,0,0,.85,3.71,6.13,6.13,0,0,0,2.39,2.52,6.86,6.86,0,0,0,3.51.89,6.79,6.79,0,0,0,3.47-.89,6.13,6.13,0,0,0,2.39-2.52,7.9,7.9,0,0,0,.85-3.71,7.71,7.71,0,0,0-.85-3.66,6.29,6.29,0,0,0-2.39-2.52,6.68,6.68,0,0,0-3.47-.91A6.75,6.75,0,0,0,666.39,276.35Z"/><path class="cls-4" d="M701.76,274.44a7.84,7.84,0,0,1,2,5.7v12.39h-3.52V281.09a4.92,4.92,0,0,0-5.34-5.38,6.05,6.05,0,0,0-4.38,1.72,6.78,6.78,0,0,0-1.91,4.38v10.72h-3.52v-20h3.52v4.24q2-4.28,7.62-4.36A7.36,7.36,0,0,1,701.76,274.44Z"/><path class="cls-4" d="M727.8,272.49v18a9.76,9.76,0,0,1-1.27,5,8.42,8.42,0,0,1-3.58,3.32,11.9,11.9,0,0,1-5.38,1.16,13.71,13.71,0,0,1-8.26-2.8l1.55-2.58a10.69,10.69,0,0,0,3.07,1.8,10,10,0,0,0,3.49.59,7,7,0,0,0,5-1.74,6.09,6.09,0,0,0,1.86-4.66v-2.8a7.43,7.43,0,0,1-2.88,2.82,8.48,8.48,0,0,1-4.17,1,9.09,9.09,0,0,1-4.76-1.23,8.38,8.38,0,0,1-3.2-3.43,10.81,10.81,0,0,1-1.14-5,10.5,10.5,0,0,1,1.14-5,8.31,8.31,0,0,1,3.2-3.37,9.22,9.22,0,0,1,4.76-1.21,8.59,8.59,0,0,1,4.19,1,7.35,7.35,0,0,1,2.86,2.8v-3.68Zm-6.63,15.42a6.1,6.1,0,0,0,2.26-2.41,7.3,7.3,0,0,0,.81-3.47,7.37,7.37,0,0,0-.81-3.5,6.1,6.1,0,0,0-2.26-2.41,6.23,6.23,0,0,0-3.3-.87,6.33,6.33,0,0,0-3.32.87,6.17,6.17,0,0,0-2.29,2.41,7.21,7.21,0,0,0-.83,3.5,6.92,6.92,0,0,0,1.82,4.85,6.05,6.05,0,0,0,4.62,1.89A6.23,6.23,0,0,0,721.17,287.91Z"/><path class="cls-4" d="M744.51,266h3.64v11.82H763.3V266H767v26.53H763.3V281.13H748.14v11.41h-3.64Z"/><path class="cls-4" d="M786.46,292.54v-2.8q-2.24,3-7,3a8,8,0,0,1-3.66-.8,5.85,5.85,0,0,1-2.42-2.2,5.92,5.92,0,0,1-.85-3.14,5.14,5.14,0,0,1,2-4.26,8.9,8.9,0,0,1,5.55-1.61h6.37v-.95a4.14,4.14,0,0,0-1.31-3.28,5.58,5.58,0,0,0-3.81-1.16,10.91,10.91,0,0,0-6.18,2.16L773.65,275a18.36,18.36,0,0,1,4-2,13.64,13.64,0,0,1,4.38-.63,8.38,8.38,0,0,1,5.8,1.84,6.66,6.66,0,0,1,2.08,5.13l0,13.19Zm-2.1-4a4.7,4.7,0,0,0,2.06-3.16v-2h-5.87a6.86,6.86,0,0,0-3.54.72,2.48,2.48,0,0,0-1.15,2.27,3,3,0,0,0,1.17,2.46,5,5,0,0,0,3.14.91A7.18,7.18,0,0,0,784.35,288.58Z"/><path class="cls-4" d="M804.57,275.52a7,7,0,0,0-3.51.87,6.2,6.2,0,0,0-2.41,2.46,7.54,7.54,0,0,0-.87,3.68,7.67,7.67,0,0,0,.85,3.68,6.27,6.27,0,0,0,2.35,2.48,6.58,6.58,0,0,0,3.43.89,9,9,0,0,0,3.49-.64,6.65,6.65,0,0,0,2.58-1.86l2,2a8.85,8.85,0,0,1-3.47,2.61,11.86,11.86,0,0,1-4.76.91,10.34,10.34,0,0,1-5.19-1.29,9.1,9.1,0,0,1-3.54-3.58,11.52,11.52,0,0,1,0-10.52,9.08,9.08,0,0,1,3.54-3.6,10.34,10.34,0,0,1,5.19-1.29,12.7,12.7,0,0,1,4.57.78,8.83,8.83,0,0,1,3.39,2.26l-1.93,2.42A7.94,7.94,0,0,0,804.57,275.52Z"/><path class="cls-4" d="M831.55,292.54l-6.4-9.74-3.9,4.05v5.68h-3.53V264.42h3.53v17.92l9.7-9.85h4.13l-7.46,7.77,8.18,12.28Z"/><path class="cls-4" d="M850.34,291.21a8.64,8.64,0,0,1-4.7,1.48,5.34,5.34,0,0,1-3.86-1.42,5.71,5.71,0,0,1-1.48-4.3v-11.1h-2.84v-2.69h2.84v-5.38h3.56v5.38H850v2.69h-6.14v10.46a3.7,3.7,0,0,0,.61,2.39,2.24,2.24,0,0,0,1.82.72,6.35,6.35,0,0,0,3.11-.95Z"/><path class="cls-4" d="M868,273.66a9.27,9.27,0,0,1,3.64,3.58,10.4,10.4,0,0,1,1.31,5.25,10.51,10.51,0,0,1-1.31,5.27,9.22,9.22,0,0,1-3.64,3.6,11.72,11.72,0,0,1-10.68,0,9.26,9.26,0,0,1-3.64-3.58,11.27,11.27,0,0,1,0-10.53,9.27,9.27,0,0,1,3.64-3.58,11.72,11.72,0,0,1,10.68,0Zm-8.83,2.69a6.29,6.29,0,0,0-2.39,2.52,7.71,7.71,0,0,0-.85,3.66,7.9,7.9,0,0,0,.85,3.71,6.13,6.13,0,0,0,2.39,2.52,6.86,6.86,0,0,0,3.51.89,6.79,6.79,0,0,0,3.47-.89,6.13,6.13,0,0,0,2.39-2.52,7.9,7.9,0,0,0,.85-3.71,7.71,7.71,0,0,0-.85-3.66,6.29,6.29,0,0,0-2.39-2.52,6.68,6.68,0,0,0-3.47-.91A6.75,6.75,0,0,0,859.19,276.35Z"/><path class="cls-4" d="M894,273.66a8.84,8.84,0,0,1,3.41,3.6,12.18,12.18,0,0,1,0,10.55,8.65,8.65,0,0,1-3.37,3.56,9.73,9.73,0,0,1-5,1.27,9.13,9.13,0,0,1-4.47-1.06,7.58,7.58,0,0,1-3-3v4h-3.53V264.42h3.53v12a7.62,7.62,0,0,1,3-3,9,9,0,0,1,4.41-1.06A9.7,9.7,0,0,1,894,273.66Zm-2.22,15a6.26,6.26,0,0,0,2.39-2.54,7.82,7.82,0,0,0,.85-3.68,7.6,7.6,0,0,0-.87-3.64,6.44,6.44,0,0,0-2.39-2.54,6.56,6.56,0,0,0-3.45-.91,6.67,6.67,0,0,0-3.47.91,6.4,6.4,0,0,0-2.41,2.54,8.16,8.16,0,0,0,0,7.33,6.42,6.42,0,0,0,2.41,2.52,7.06,7.06,0,0,0,6.93,0Z"/><path class="cls-4" d="M918.66,275.12q2.39,2.75,2.39,7.64c0,.51,0,.88,0,1.14H905.17a6.83,6.83,0,0,0,2.25,4.28,6.68,6.68,0,0,0,4.53,1.59,8.47,8.47,0,0,0,3.31-.64,8,8,0,0,0,2.67-1.82l1.93,2a10.14,10.14,0,0,1-3.56,2.46,11.86,11.86,0,0,1-4.62.87,10.65,10.65,0,0,1-5.25-1.27,8.91,8.91,0,0,1-3.56-3.58,11.52,11.52,0,0,1,0-10.52,9.23,9.23,0,0,1,3.54-3.6,10.22,10.22,0,0,1,5.19-1.31Q916.28,272.38,918.66,275.12Zm-.8,6a5.81,5.81,0,0,0-6.21-5.87,6.34,6.34,0,0,0-4.41,1.59,6.68,6.68,0,0,0-2.1,4.28Z"/><path class="cls-4" d="M932.19,273.53a8.35,8.35,0,0,1,4.32-1.16v3.41a6.44,6.44,0,0,0-7.12,6.18v10.57h-3.52v-20h3.52v4.32A7.26,7.26,0,0,1,932.19,273.53Z"/><path class="cls-4" d="M945.45,268.17a3.08,3.08,0,0,0-.91,2.39v2.61h5.53v2.69h-5.53v16.67H941V275.86h-2.61v-2.69H941V271a7.09,7.09,0,0,1,.93-3.73,6,6,0,0,1,2.44-2.31,7,7,0,0,1,3.26-.78,7.8,7.8,0,0,1,3.49.91L950.3,268a6.06,6.06,0,0,0-2.58-.64A3.24,3.24,0,0,0,945.45,268.17Z"/><path class="cls-4" d="M968,275.12q2.39,2.75,2.39,7.64c0,.51,0,.88,0,1.14H954.51a6.83,6.83,0,0,0,2.25,4.28,6.68,6.68,0,0,0,4.53,1.59,8.47,8.47,0,0,0,3.31-.64,8,8,0,0,0,2.67-1.82l1.93,2a10.14,10.14,0,0,1-3.56,2.46,11.86,11.86,0,0,1-4.62.87,10.65,10.65,0,0,1-5.25-1.27,8.91,8.91,0,0,1-3.56-3.58,11.52,11.52,0,0,1,0-10.52,9.23,9.23,0,0,1,3.54-3.6,10.22,10.22,0,0,1,5.19-1.31Q965.61,272.38,968,275.12Zm-.8,6a5.81,5.81,0,0,0-6.21-5.87,6.34,6.34,0,0,0-4.41,1.59,6.68,6.68,0,0,0-2.1,4.28Z"/><path class="cls-4" d="M983.4,275.71a9.84,9.84,0,0,0-2.86-.46,4.89,4.89,0,0,0-2.56.59,2,2,0,0,0-1,1.8,2,2,0,0,0,1.08,1.84,15.64,15.64,0,0,0,3.28,1.27,25.74,25.74,0,0,1,3.41,1.21,6.06,6.06,0,0,1,2.25,1.78,5.51,5.51,0,0,1-1.21,7.43,9.15,9.15,0,0,1-5.32,1.48,13.32,13.32,0,0,1-4.34-.72,9.85,9.85,0,0,1-3.54-2l1.33-2.58a9.38,9.38,0,0,0,3.09,1.82,10.27,10.27,0,0,0,3.58.68,5.36,5.36,0,0,0,2.8-.64,2.15,2.15,0,0,0,1.06-2,2.24,2.24,0,0,0-1.12-2,15.14,15.14,0,0,0-3.39-1.36,22.68,22.68,0,0,1-3.28-1.16,5.81,5.81,0,0,1-2.16-1.72,4.66,4.66,0,0,1-.89-3,4.76,4.76,0,0,1,2-4.21,8.84,8.84,0,0,1,5.12-1.4,12.81,12.81,0,0,1,3.58.51,10.78,10.78,0,0,1,3.05,1.38l-1.29,2.69A12,12,0,0,0,983.4,275.71Z"/><path class="cls-4" d="M1003.39,291.21a8.64,8.64,0,0,1-4.7,1.48,5.34,5.34,0,0,1-3.86-1.42,5.71,5.71,0,0,1-1.48-4.3v-11.1h-2.84v-2.69h2.84v-5.38h3.56v5.38h6.14v2.69h-6.14v10.46a3.7,3.7,0,0,0,.61,2.39,2.24,2.24,0,0,0,1.82.72,6.35,6.35,0,0,0,3.11-.95Z"/></svg>