<svg id="Layer_1" data-name="Layer 1" xmlns="http://www.w3.org/2000/svg" viewBox="0 0 547 176"><defs><style>.cls-1{fill:none;stroke:#fff;stroke-width:4px;}.cls-1,.cls-5{stroke-miterlimit:10;}.cls-2{fill:#fff;}.cls-3{fill:#f3e7b0;}.cls-4,.cls-5{fill:#273274;}.cls-5{stroke:#fcfcfc;stroke-width:3px;}</style></defs><title>pr elements</title><rect class="cls-1" x="25.92" y="27" width="518" height="146"/><path class="cls-2" d="M33.68,3.28A26.61,26.61,0,0,1,56.35,30.12a25.86,25.86,0,0,1-8.56,19,3.26,3.26,0,0,0-1.12,2.67c0,7.56,0,15.13,0,22.69,0,1.3-.05,2.47-1.42,3.19S43,77.74,42,76.92c-3.29-2.57-6.65-5-10-7.54-.23-.17-.57-.3-.67-.52-.85-2.06-1.86-.93-2.86-.18Q22.83,72.9,17.2,77.12c-.91.68-1.8,1.21-3,.62s-1.4-1.69-1.4-2.89c0-7.79,0-15.58,0-23.38a2.74,2.74,0,0,0-.93-2.22c-7.81-7.49-10.63-16.6-7.64-27C7.19,12.1,14.21,5.86,24.6,3.51c.51-.12,1.18.1,1.54-.51h6.19C32.71,3.43,33.2,3.31,33.68,3.28ZM54,29.63c-.51-10.2-5.23-17.74-14.57-22.12a23.15,23.15,0,0,0-16.77-1,23.14,23.14,0,0,0-12.9,9.58,24,24,0,0,0,6.79,33.77,30.27,30.27,0,0,0,10.15,3.94A16.8,16.8,0,0,0,33,53.57a25.58,25.58,0,0,0,9.73-3.41A25.84,25.84,0,0,0,52,39.1C53.4,36.1,53.69,32.92,54,29.63Z"/><path class="cls-3" d="M33.68,3.28c-.47,0-1,.15-1.34-.28h1.38Q33.7,3.14,33.68,3.28Z"/><path class="cls-4" d="M54,29.63c-.31,3.28-.6,6.47-2,9.46a25.84,25.84,0,0,1-9.24,11.06A25.58,25.58,0,0,1,33,53.57a16.8,16.8,0,0,1-6.27.22,30.27,30.27,0,0,1-10.15-3.94A24,24,0,0,1,9.77,16.08,23.14,23.14,0,0,1,22.66,6.5a23.15,23.15,0,0,1,16.77,1C48.77,11.89,53.49,19.43,54,29.63Zm-46.09.53A21.91,21.91,0,0,0,29,51.39,21.68,21.68,0,0,0,51.51,30.66c.57-12-8.16-21.69-20.1-22.79A22,22,0,0,0,7.91,30.16Z"/><path class="cls-2" d="M7.91,30.16A22,22,0,0,1,31.42,7.87C43.35,9,52.09,18.67,51.51,30.66A21.68,21.68,0,0,1,29,51.39,21.91,21.91,0,0,1,7.91,30.16Zm22-19.9C19.36,10.06,10.2,19.1,10.4,29.57c.22,11,8.13,20.33,22.45,19.36,4.29-.29,8.07-2.89,11.09-6.18a19.55,19.55,0,0,0,5.2-13.21C49.38,19.26,39.87,10.16,29.88,10.26Z"/><path class="cls-4" d="M29.88,10.26C19.36,10.06,10.2,19.1,10.4,29.57c.22,11,8.13,20.33,22.45,19.36,4.29-.29,8.07-2.89,11.09-6.18a19.55,19.55,0,0,0,5.2-13.21C49.38,19.26,39.87,10.16,29.88,10.26Z"/><polygon class="cls-5" points="30.08 20.5 32.77 25.96 38.8 26.84 34.44 31.09 35.47 37.1 30.08 34.27 24.68 37.1 25.71 31.09 21.35 26.84 27.38 25.96 30.08 20.5"/></svg>