<svg id="Layer_1" data-name="Layer 1" xmlns="http://www.w3.org/2000/svg" viewBox="0 0 54 17"><defs><style>.cls-1{fill:#fff;}</style></defs><title>pr icon white </title><path class="cls-1" d="M9.47,3.58l.67.75-.83.86L7.24,2.92,9.32.64l.85.84-.71.8.63,0a3.06,3.06,0,0,1,2.73,3.16q0,3.23,0,6.46a.61.61,0,0,0,.32.63,1.82,1.82,0,0,1,.81,2A1.85,1.85,0,0,1,12.22,16a1.86,1.86,0,0,1-.91-3.44.6.6,0,0,0,.34-.62c0-2.12,0-4.25,0-6.37A1.85,1.85,0,0,0,9.47,3.58Zm3.36,10.57a.62.62,0,0,0-.57-.64.6.6,0,0,0-.62.58.62.62,0,0,0,.59.67A.64.64,0,0,0,12.82,14.15Z"/><path class="cls-1" d="M3.3,8.51c0-1.17,0-2.33,0-3.5A.67.67,0,0,0,3,4.55a1.91,1.91,0,0,1-.85-2.12A1.85,1.85,0,0,1,3.91,1.05a1.83,1.83,0,0,1,1.7,1.41,1.83,1.83,0,0,1-.86,2.06A.51.51,0,0,0,4.46,5q0,3.5,0,7a.47.47,0,0,0,.27.48,1.83,1.83,0,0,1,.85,2.14A1.81,1.81,0,0,1,3.8,16a1.86,1.86,0,0,1-1.67-1.61A1.82,1.82,0,0,1,3,12.53.51.51,0,0,0,3.3,12C3.29,10.85,3.3,9.68,3.3,8.51Zm.61-5a.6.6,0,0,0,.57-.63.62.62,0,0,0-.6-.62.64.64,0,0,0-.6.66A.62.62,0,0,0,3.91,3.54Zm.57,10.59a.6.6,0,0,0-.59-.62.62.62,0,0,0-.61.6.65.65,0,0,0,.62.65A.62.62,0,0,0,4.48,14.13Z"/><path class="cls-1" d="M31.1,5.2a3.73,3.73,0,0,1,1.22,3,4,4,0,0,1-1.23,3.1,5,5,0,0,1-3.45,1.1h-3V16.1H23v-12h4.62A5.12,5.12,0,0,1,31.1,5.2Zm-1.17,5a2.43,2.43,0,0,0,.82-2,2.34,2.34,0,0,0-.82-1.94,3.69,3.69,0,0,0-2.36-.66l-2.91,0v5.25h2.91A3.62,3.62,0,0,0,29.93,10.21Z"/><path class="cls-1" d="M42.21,16.1l-2.38-3.76-.67,0h-3V16.1H34.49v-12h4.68a5.28,5.28,0,0,1,3.51,1.05,3.7,3.7,0,0,1,1.24,3,4.24,4.24,0,0,1-.68,2.44A3.78,3.78,0,0,1,41.31,12L44.1,16.1Zm-3-5.21a3.62,3.62,0,0,0,2.36-.68,2.43,2.43,0,0,0,.82-2,2.34,2.34,0,0,0-.82-1.94,3.69,3.69,0,0,0-2.36-.66h-3v5.26Z"/><path class="cls-1" d="M50.39,8.51a4.44,4.44,0,0,0-1.29-.21,2.2,2.2,0,0,0-1.15.27.88.88,0,0,0-.44.81.9.9,0,0,0,.49.83,7.08,7.08,0,0,0,1.48.57,11.55,11.55,0,0,1,1.54.55,2.73,2.73,0,0,1,1,.8,2.2,2.2,0,0,1,.42,1.4,2.22,2.22,0,0,1-1,1.95,4.13,4.13,0,0,1-2.4.67,6,6,0,0,1-2-.33,4.45,4.45,0,0,1-1.6-.92l.6-1.16a4.23,4.23,0,0,0,1.39.82,4.63,4.63,0,0,0,1.62.31,2.42,2.42,0,0,0,1.26-.29,1,1,0,0,0,.48-.89,1,1,0,0,0-.5-.92,6.87,6.87,0,0,0-1.53-.62,10.23,10.23,0,0,1-1.48-.52,2.62,2.62,0,0,1-1-.78A2.1,2.1,0,0,1,46,9.52a2.15,2.15,0,0,1,.92-1.9A4,4,0,0,1,49.22,7a5.77,5.77,0,0,1,1.62.23,4.86,4.86,0,0,1,1.38.62l-.58,1.21A5.44,5.44,0,0,0,50.39,8.51Z"/></svg>