<svg id="Layer_1" data-name="Layer 1" xmlns="http://www.w3.org/2000/svg" xmlns:xlink="http://www.w3.org/1999/xlink" viewBox="0 0 417 292"><defs><style>.cls-1{fill:url(#linear-gradient);}.cls-2{fill:none;stroke:#fff;stroke-miterlimit:10;stroke-width:4px;}.cls-3{fill:#fff;}</style><linearGradient id="linear-gradient" x1="93.16" y1="-53.78" x2="323.84" y2="345.78" gradientUnits="userSpaceOnUse"><stop offset="0.23" stop-color="#ff8c58"/><stop offset="1" stop-color="#ff544e"/></linearGradient></defs><title>pr mobile</title><rect class="cls-1" width="417" height="292"/><rect class="cls-2" x="56.5" y="59" width="303" height="174"/><path class="cls-3" d="M134.08,97.66a6,6,0,0,0-1.79-.32,2.51,2.51,0,0,0-1.37.32,1,1,0,0,0-.5.9,1.18,1.18,0,0,0,.35.87,2.77,2.77,0,0,0,.88.58,14.24,14.24,0,0,0,1.45.5,15.84,15.84,0,0,1,2.1.76,3.75,3.75,0,0,1,1.4,1.12,3.07,3.07,0,0,1,.58,1.94,3.32,3.32,0,0,1-.62,2,3.89,3.89,0,0,1-1.71,1.31,6.49,6.49,0,0,1-2.49.45,7.84,7.84,0,0,1-2.88-.55,8.14,8.14,0,0,1-2.45-1.47l1-2.05a7.38,7.38,0,0,0,2.14,1.39,5.7,5.7,0,0,0,2.21.5,2.81,2.81,0,0,0,1.58-.39,1.27,1.27,0,0,0,.22-1.94,2.62,2.62,0,0,0-.89-.57q-.54-.22-1.48-.49a17.45,17.45,0,0,1-2.09-.74,3.61,3.61,0,0,1-1.39-1.09,3,3,0,0,1-.58-1.92,3.22,3.22,0,0,1,.58-1.92A3.76,3.76,0,0,1,130,95.59a6.35,6.35,0,0,1,2.47-.45,8.39,8.39,0,0,1,2.42.36,8.2,8.2,0,0,1,2.13,1l-1,2.11A9.15,9.15,0,0,0,134.08,97.66Z"/><path class="cls-3" d="M148.26,98.31v9.63H145.9v-1.78a3.46,3.46,0,0,1-3.35,1.87,3.35,3.35,0,0,1-2.56-1,3.77,3.77,0,0,1-.94-2.7v-6h2.36v5.35a2.2,2.2,0,0,0,.55,1.58,2,2,0,0,0,1.52.58,2.23,2.23,0,0,0,1.76-.79,3,3,0,0,0,.65-2V98.31Z"/><path class="cls-3" d="M159.23,98.86a4.19,4.19,0,0,1,1.6,1.74,5.61,5.61,0,0,1,.57,2.57,5.52,5.52,0,0,1-.56,2.54,4.11,4.11,0,0,1-1.58,1.71,4.55,4.55,0,0,1-2.38.61,4.14,4.14,0,0,1-1.91-.42,3.6,3.6,0,0,1-1.37-1.23v1.57h-2.34V94.58h2.34v5.31a3.48,3.48,0,0,1,1.34-1.23,4.1,4.1,0,0,1,1.9-.42A4.54,4.54,0,0,1,159.23,98.86Zm-1,6.34a3,3,0,0,0,.76-2.1,2.94,2.94,0,0,0-.76-2.09,2.76,2.76,0,0,0-3.91,0,3.29,3.29,0,0,0,0,4.19,2.56,2.56,0,0,0,2,.81A2.53,2.53,0,0,0,158.27,105.19Z"/><path class="cls-3" d="M178.63,99.22a3.81,3.81,0,0,1,.94,2.71v6H177.2v-5.33a2.22,2.22,0,0,0-.57-1.61,2,2,0,0,0-1.54-.58,2.31,2.31,0,0,0-1.77.81,2.93,2.93,0,0,0-.66,2v4.75h-2.36v-5.33a2.24,2.24,0,0,0-.56-1.61,2,2,0,0,0-1.53-.58,2.33,2.33,0,0,0-1.79.81,2.92,2.92,0,0,0-.66,2v4.75h-2.34V98.31h2.34v1.78a3.54,3.54,0,0,1,3.38-1.87,3.58,3.58,0,0,1,2.12.6,3.16,3.16,0,0,1,1.2,1.7,3.56,3.56,0,0,1,3.58-2.3A3.36,3.36,0,0,1,178.63,99.22Z"/><path class="cls-3" d="M184.28,94.56a1.4,1.4,0,0,1,.38,1,1.38,1.38,0,0,1-.38,1,1.35,1.35,0,0,1-1.91,0,1.38,1.38,0,0,1-.38-1,1.4,1.4,0,0,1,.38-1,1.35,1.35,0,0,1,1.91,0Zm-2.11,3.74h2.34v9.63h-2.34Z"/><path class="cls-3" d="M193,107.34a4.57,4.57,0,0,1-2.41.7,2.88,2.88,0,0,1-2-.73,2.78,2.78,0,0,1-.79-2.15v-4.75h-1.35l0-1.71h1.37V96.06h2.32V98.7h2.75v1.71h-2.75v4.34a1.4,1.4,0,0,0,.25.94,1,1,0,0,0,.76.28,3.34,3.34,0,0,0,1.37-.4Z"/><path class="cls-3" d="M208.22,96.47a4,4,0,0,1,1.31,3.2,4.33,4.33,0,0,1-1.31,3.36,5.24,5.24,0,0,1-3.68,1.2h-2.75v3.71h-2.41V95.34h5.17A5.44,5.44,0,0,1,208.22,96.47Zm-1.71,5a2.14,2.14,0,0,0,.73-1.76,2.07,2.07,0,0,0-.73-1.73,3.32,3.32,0,0,0-2.1-.58h-2.63v4.66h2.63A3.25,3.25,0,0,0,206.51,101.51Z"/><path class="cls-3" d="M219.41,107.94l-2.18-3.73-.45,0h-2.84v3.71h-2.41V95.34h5.26a5.67,5.67,0,0,1,3.78,1.13,4,4,0,0,1,1.33,3.2,4.74,4.74,0,0,1-.64,2.52,3.92,3.92,0,0,1-1.86,1.57l2.77,4.18Zm-5.47-5.83h2.84a3.21,3.21,0,0,0,2.09-.59,2.16,2.16,0,0,0,.72-1.76,2.08,2.08,0,0,0-.72-1.73,3.28,3.28,0,0,0-2.09-.58h-2.84Z"/><path class="cls-3" d="M228.71,100.27a4.63,4.63,0,0,0-1.38-.23,1.86,1.86,0,0,0-.95.21.69.69,0,0,0-.35.64.76.76,0,0,0,.44.69,7.13,7.13,0,0,0,1.39.51,13.46,13.46,0,0,1,1.66.6,3.13,3.13,0,0,1,1.13.88,2.36,2.36,0,0,1,.48,1.54,2.48,2.48,0,0,1-1.08,2.16,4.63,4.63,0,0,1-2.72.76,6.91,6.91,0,0,1-2.18-.35,5.13,5.13,0,0,1-1.8-1l.81-1.64a4.73,4.73,0,0,0,1.55.87,5.16,5.16,0,0,0,1.71.32,2.06,2.06,0,0,0,1-.22.73.73,0,0,0,.39-.68.81.81,0,0,0-.45-.76,8,8,0,0,0-1.46-.56,12.33,12.33,0,0,1-1.58-.57,2.86,2.86,0,0,1-1.06-.85,2.32,2.32,0,0,1-.45-1.49,2.51,2.51,0,0,1,1-2.17,4.33,4.33,0,0,1,2.6-.75,6.67,6.67,0,0,1,1.88.27,5.83,5.83,0,0,1,1.65.76l-.85,1.69A6.91,6.91,0,0,0,228.71,100.27Z"/><path class="cls-3" d="M243.17,107.34a4.57,4.57,0,0,1-2.41.7,2.88,2.88,0,0,1-2-.73,2.78,2.78,0,0,1-.79-2.15v-4.75h-1.35l0-1.71h1.37V96.06h2.32V98.7H243v1.71h-2.75v4.34a1.4,1.4,0,0,0,.25.94,1,1,0,0,0,.76.28,3.34,3.34,0,0,0,1.37-.4Z"/><path class="cls-3" d="M251.76,98.85a4.42,4.42,0,0,1,1.78,1.72,5,5,0,0,1,.64,2.55,5.09,5.09,0,0,1-.64,2.57,4.4,4.4,0,0,1-1.78,1.73,5.5,5.5,0,0,1-2.64.61,5.59,5.59,0,0,1-2.66-.61,4.39,4.39,0,0,1-1.79-1.73,5.09,5.09,0,0,1-.64-2.57,5,5,0,0,1,.64-2.55,4.41,4.41,0,0,1,1.79-1.72,5.59,5.59,0,0,1,2.66-.61A5.5,5.5,0,0,1,251.76,98.85Zm-4.62,2.2a3.31,3.31,0,0,0,0,4.21,2.58,2.58,0,0,0,2,.81,2.54,2.54,0,0,0,1.94-.81,3.31,3.31,0,0,0,0-4.21,2.54,2.54,0,0,0-1.94-.81A2.58,2.58,0,0,0,247.15,101Z"/><path class="cls-3" d="M266.26,107.34a4.57,4.57,0,0,1-2.41.7,2.88,2.88,0,0,1-2-.73,2.78,2.78,0,0,1-.79-2.15v-4.75h-1.35l0-1.71H261V96.06h2.32V98.7h2.75v1.71h-2.75v4.34a1.4,1.4,0,0,0,.25.94,1,1,0,0,0,.76.28,3.34,3.34,0,0,0,1.37-.4Z"/><path class="cls-3" d="M276.61,99.22a3.76,3.76,0,0,1,1,2.71v6h-2.36v-5.33a2.17,2.17,0,0,0-.58-1.59,2.1,2.1,0,0,0-1.57-.58,2.4,2.4,0,0,0-1.85.79,2.88,2.88,0,0,0-.68,2v4.73h-2.34V94.58h2.34v5.56A3.65,3.65,0,0,1,274,98.22,3.44,3.44,0,0,1,276.61,99.22Z"/><path class="cls-3" d="M287.67,99.55a5.38,5.38,0,0,1,1.16,3.69q0,.47,0,.7h-7.11a2.68,2.68,0,0,0,2.75,2.2,3.65,3.65,0,0,0,1.41-.28,3.46,3.46,0,0,0,1.18-.8l1.26,1.31a4.88,4.88,0,0,1-1.75,1.22,5.9,5.9,0,0,1-2.29.43,5.36,5.36,0,0,1-2.6-.61,4.27,4.27,0,0,1-1.74-1.72,5.59,5.59,0,0,1,0-5.1,4.4,4.4,0,0,1,1.74-1.74,5.13,5.13,0,0,1,2.54-.62A4.38,4.38,0,0,1,287.67,99.55Zm-1,2.83a2.34,2.34,0,0,0-.7-1.69,2.74,2.74,0,0,0-3.48,0,2.74,2.74,0,0,0-.86,1.7Z"/><path class="cls-3" d="M117.6,120.82a3.76,3.76,0,0,1,1,2.71v6h-2.36v-5.33a2.17,2.17,0,0,0-.58-1.59A2.1,2.1,0,0,0,114,122a2.4,2.4,0,0,0-1.85.79,2.88,2.88,0,0,0-.68,2v4.73h-2.34V116.18h2.34v5.56a3.65,3.65,0,0,1,3.47-1.93A3.44,3.44,0,0,1,117.6,120.82Z"/><path class="cls-3" d="M126.87,129.54v-1.17a3.16,3.16,0,0,1-1.3,1,4.77,4.77,0,0,1-1.82.32,3.87,3.87,0,0,1-1.77-.39,2.83,2.83,0,0,1-1.18-1.07,2.89,2.89,0,0,1-.41-1.53,2.56,2.56,0,0,1,1-2.12,4.3,4.3,0,0,1,2.7-.78h2.81v-.25a1.62,1.62,0,0,0-.56-1.31,2.46,2.46,0,0,0-1.62-.47,5.57,5.57,0,0,0-2.86.9L121,121a10.68,10.68,0,0,1,2.06-.91,7.57,7.57,0,0,1,2.17-.28,4.29,4.29,0,0,1,2.91.9,3.21,3.21,0,0,1,1.05,2.52l0,6.3Zm-.83-2.17a1.66,1.66,0,0,0,.81-1.18v-.86h-2.43a2.64,2.64,0,0,0-1.38.28,1,1,0,0,0-.44.91,1.17,1.17,0,0,0,.46,1,2,2,0,0,0,1.25.36A3.06,3.06,0,0,0,126,127.37Z"/><path class="cls-3" d="M135.9,121.89a2.46,2.46,0,0,0-1.9.79,2.91,2.91,0,0,0-.73,2.05,3,3,0,0,0,.73,2.09,2.46,2.46,0,0,0,1.9.79,3.05,3.05,0,0,0,2.59-1.13l1.46,1.21a4.26,4.26,0,0,1-1.71,1.44,5.7,5.7,0,0,1-2.47.5,5.13,5.13,0,0,1-2.53-.61,4.29,4.29,0,0,1-1.72-1.72,5.62,5.62,0,0,1,0-5.12,4.36,4.36,0,0,1,1.73-1.73,5.18,5.18,0,0,1,2.55-.61,5.75,5.75,0,0,1,2.35.46,4.25,4.25,0,0,1,1.68,1.3L138.42,123A3.26,3.26,0,0,0,135.9,121.89Z"/><path class="cls-3" d="M147.58,128.95a4.57,4.57,0,0,1-2.41.7,2.88,2.88,0,0,1-2-.73,2.78,2.78,0,0,1-.79-2.15V122H141l0-1.71h1.37v-2.65h2.32v2.65h2.75V122h-2.75v4.34a1.4,1.4,0,0,0,.25.94,1,1,0,0,0,.76.28,3.34,3.34,0,0,0,1.37-.4Z"/><path class="cls-3" d="M156.18,120.45a4.42,4.42,0,0,1,1.78,1.72,5,5,0,0,1,.64,2.55,5.09,5.09,0,0,1-.64,2.57,4.4,4.4,0,0,1-1.78,1.73,5.5,5.5,0,0,1-2.64.61,5.59,5.59,0,0,1-2.66-.61,4.39,4.39,0,0,1-1.79-1.73,5.09,5.09,0,0,1-.64-2.57,5,5,0,0,1,.64-2.55,4.41,4.41,0,0,1,1.79-1.72,5.59,5.59,0,0,1,2.66-.61A5.5,5.5,0,0,1,156.18,120.45Zm-4.62,2.2a3.31,3.31,0,0,0,0,4.21,2.58,2.58,0,0,0,2,.81,2.54,2.54,0,0,0,1.94-.81,3.31,3.31,0,0,0,0-4.21,2.54,2.54,0,0,0-1.94-.81A2.58,2.58,0,0,0,151.56,122.65Z"/><path class="cls-3" d="M168.69,120.46a4.19,4.19,0,0,1,1.6,1.74,5.61,5.61,0,0,1,.57,2.57,5.52,5.52,0,0,1-.56,2.54,4.11,4.11,0,0,1-1.58,1.71,4.55,4.55,0,0,1-2.38.61,4.14,4.14,0,0,1-1.91-.42,3.6,3.6,0,0,1-1.37-1.23v1.57h-2.34V116.18h2.34v5.31a3.48,3.48,0,0,1,1.34-1.23,4.1,4.1,0,0,1,1.9-.42A4.54,4.54,0,0,1,168.69,120.46Zm-1,6.34a3,3,0,0,0,.76-2.1,2.94,2.94,0,0,0-.76-2.09,2.76,2.76,0,0,0-3.91,0,3.29,3.29,0,0,0,0,4.19,2.56,2.56,0,0,0,2,.81A2.53,2.53,0,0,0,167.73,126.79Z"/><path class="cls-3" d="M180.37,121.15a5.38,5.38,0,0,1,1.16,3.69q0,.47,0,.7H174.4a2.68,2.68,0,0,0,2.75,2.2,3.65,3.65,0,0,0,1.41-.28,3.46,3.46,0,0,0,1.18-.8L181,128a4.88,4.88,0,0,1-1.75,1.22,5.9,5.9,0,0,1-2.29.43,5.36,5.36,0,0,1-2.6-.61,4.27,4.27,0,0,1-1.74-1.72,5.59,5.59,0,0,1,0-5.1,4.4,4.4,0,0,1,1.74-1.74,5.13,5.13,0,0,1,2.54-.62A4.38,4.38,0,0,1,180.37,121.15Zm-1,2.83a2.34,2.34,0,0,0-.7-1.69,2.74,2.74,0,0,0-3.48,0,2.74,2.74,0,0,0-.86,1.7Z"/><path class="cls-3" d="M187.21,120.33a3.89,3.89,0,0,1,2-.51v2.27a3.18,3.18,0,0,0-2.38.69,2.67,2.67,0,0,0-.89,2.12v4.64h-2.34v-9.63h2.34v1.85A3.49,3.49,0,0,1,187.21,120.33Z"/><path class="cls-3" d="M193.92,118.4a1.15,1.15,0,0,0-.35.92v1H196V122h-2.41v7.52h-2.34V122H190V120.3h1.26v-.92a3.33,3.33,0,0,1,.47-1.81,3,3,0,0,1,1.25-1.12,3.86,3.86,0,0,1,1.7-.38,4,4,0,0,1,1.76.41l-.41,1.89a3.38,3.38,0,0,0-1.19-.29A1.31,1.31,0,0,0,193.92,118.4Z"/><path class="cls-3" d="M204.67,121.15a5.38,5.38,0,0,1,1.16,3.69q0,.47,0,.7H198.7a2.68,2.68,0,0,0,2.75,2.2,3.65,3.65,0,0,0,1.41-.28,3.46,3.46,0,0,0,1.18-.8l1.26,1.31a4.88,4.88,0,0,1-1.75,1.22,5.9,5.9,0,0,1-2.29.43,5.36,5.36,0,0,1-2.6-.61,4.27,4.27,0,0,1-1.74-1.72,5.59,5.59,0,0,1,0-5.1,4.4,4.4,0,0,1,1.74-1.74,5.13,5.13,0,0,1,2.54-.62A4.38,4.38,0,0,1,204.67,121.15Zm-1,2.83a2.34,2.34,0,0,0-.7-1.69,2.74,2.74,0,0,0-3.48,0,2.74,2.74,0,0,0-.86,1.7Z"/><path class="cls-3" d="M212.11,121.87a4.63,4.63,0,0,0-1.38-.23,1.86,1.86,0,0,0-.95.21.69.69,0,0,0-.35.64.76.76,0,0,0,.44.69,7.13,7.13,0,0,0,1.39.51,13.46,13.46,0,0,1,1.66.6,3.13,3.13,0,0,1,1.13.88,2.36,2.36,0,0,1,.48,1.54,2.48,2.48,0,0,1-1.08,2.16,4.63,4.63,0,0,1-2.72.76,6.91,6.91,0,0,1-2.18-.35,5.13,5.13,0,0,1-1.8-1l.81-1.64a4.73,4.73,0,0,0,1.55.87,5.16,5.16,0,0,0,1.71.32,2.06,2.06,0,0,0,1-.22.73.73,0,0,0,.39-.68.81.81,0,0,0-.45-.76,8,8,0,0,0-1.46-.56,12.33,12.33,0,0,1-1.58-.57,2.86,2.86,0,0,1-1.06-.85,2.32,2.32,0,0,1-.45-1.49,2.51,2.51,0,0,1,1-2.17,4.33,4.33,0,0,1,2.6-.75,6.67,6.67,0,0,1,1.88.27,5.83,5.83,0,0,1,1.65.76l-.85,1.69A6.91,6.91,0,0,0,212.11,121.87Z"/><path class="cls-3" d="M222.16,128.95a4.57,4.57,0,0,1-2.41.7,2.88,2.88,0,0,1-2-.73,2.78,2.78,0,0,1-.79-2.15V122h-1.35l0-1.71h1.37v-2.65h2.32v2.65H222V122h-2.75v4.34a1.4,1.4,0,0,0,.25.94,1,1,0,0,0,.76.28,3.34,3.34,0,0,0,1.37-.4Z"/><path class="cls-3" d="M230.51,116.17a1.4,1.4,0,0,1,.38,1,1.38,1.38,0,0,1-.38,1,1.35,1.35,0,0,1-1.91,0,1.38,1.38,0,0,1-.38-1,1.4,1.4,0,0,1,.38-1,1.35,1.35,0,0,1,1.91,0Zm-2.11,3.74h2.34v9.63H228.4Z"/><path class="cls-3" d="M237.9,121.87a4.63,4.63,0,0,0-1.38-.23,1.86,1.86,0,0,0-.95.21.69.69,0,0,0-.35.64.76.76,0,0,0,.44.69,7.13,7.13,0,0,0,1.39.51,13.46,13.46,0,0,1,1.66.6,3.13,3.13,0,0,1,1.13.88,2.36,2.36,0,0,1,.48,1.54,2.48,2.48,0,0,1-1.08,2.16,4.63,4.63,0,0,1-2.72.76,6.91,6.91,0,0,1-2.18-.35,5.13,5.13,0,0,1-1.8-1l.81-1.64a4.73,4.73,0,0,0,1.55.87,5.16,5.16,0,0,0,1.71.32,2.06,2.06,0,0,0,1-.22.73.73,0,0,0,.39-.68.81.81,0,0,0-.45-.76,8,8,0,0,0-1.46-.56,12.33,12.33,0,0,1-1.58-.57,2.86,2.86,0,0,1-1.06-.85,2.32,2.32,0,0,1-.45-1.49,2.51,2.51,0,0,1,1-2.17,4.33,4.33,0,0,1,2.6-.75,6.67,6.67,0,0,1,1.88.27,5.83,5.83,0,0,1,1.65.76l-.85,1.69A6.91,6.91,0,0,0,237.9,121.87Z"/><path class="cls-3" d="M246.57,121.87a4.63,4.63,0,0,0-1.38-.23,1.86,1.86,0,0,0-.95.21.69.69,0,0,0-.35.64.76.76,0,0,0,.44.69,7.13,7.13,0,0,0,1.39.51,13.46,13.46,0,0,1,1.66.6,3.13,3.13,0,0,1,1.13.88,2.36,2.36,0,0,1,.48,1.54,2.48,2.48,0,0,1-1.08,2.16,4.63,4.63,0,0,1-2.72.76,6.91,6.91,0,0,1-2.18-.35,5.13,5.13,0,0,1-1.8-1l.81-1.64a4.73,4.73,0,0,0,1.55.87,5.16,5.16,0,0,0,1.71.32,2.06,2.06,0,0,0,1-.22.73.73,0,0,0,.39-.68.81.81,0,0,0-.45-.76,8,8,0,0,0-1.46-.56,12.33,12.33,0,0,1-1.58-.57,2.86,2.86,0,0,1-1.06-.85,2.32,2.32,0,0,1-.45-1.49,2.51,2.51,0,0,1,1-2.17,4.33,4.33,0,0,1,2.6-.75,6.67,6.67,0,0,1,1.88.27,5.83,5.83,0,0,1,1.65.76l-.85,1.69A6.91,6.91,0,0,0,246.57,121.87Z"/><path class="cls-3" d="M259.88,119.91v9.63h-2.36v-1.78a3.46,3.46,0,0,1-3.35,1.87,3.35,3.35,0,0,1-2.56-1,3.77,3.77,0,0,1-.94-2.7v-6H253v5.35a2.2,2.2,0,0,0,.55,1.58,2,2,0,0,0,1.52.58,2.23,2.23,0,0,0,1.76-.79,3,3,0,0,0,.65-2v-4.75Z"/><path class="cls-3" d="M270.28,121.15a5.38,5.38,0,0,1,1.16,3.69q0,.47,0,.7h-7.11a2.68,2.68,0,0,0,2.75,2.2,3.65,3.65,0,0,0,1.41-.28,3.46,3.46,0,0,0,1.18-.8l1.26,1.31a4.88,4.88,0,0,1-1.75,1.22,5.9,5.9,0,0,1-2.29.43,5.36,5.36,0,0,1-2.6-.61,4.27,4.27,0,0,1-1.74-1.72,5.59,5.59,0,0,1,0-5.1,4.4,4.4,0,0,1,1.74-1.74,5.13,5.13,0,0,1,2.54-.62A4.38,4.38,0,0,1,270.28,121.15Zm-1,2.83a2.34,2.34,0,0,0-.7-1.69,2.74,2.74,0,0,0-3.48,0,2.74,2.74,0,0,0-.86,1.7Z"/><path class="cls-3" d="M277.71,121.87a4.63,4.63,0,0,0-1.38-.23,1.86,1.86,0,0,0-.95.21.69.69,0,0,0-.35.64.76.76,0,0,0,.44.69,7.13,7.13,0,0,0,1.39.51,13.46,13.46,0,0,1,1.66.6,3.13,3.13,0,0,1,1.13.88,2.36,2.36,0,0,1,.48,1.54,2.48,2.48,0,0,1-1.08,2.16,4.63,4.63,0,0,1-2.72.76,6.91,6.91,0,0,1-2.18-.35,5.13,5.13,0,0,1-1.8-1l.81-1.64a4.73,4.73,0,0,0,1.55.87,5.16,5.16,0,0,0,1.71.32,2.06,2.06,0,0,0,1-.22.73.73,0,0,0,.39-.68.81.81,0,0,0-.45-.76,8,8,0,0,0-1.46-.56,12.33,12.33,0,0,1-1.58-.57,2.86,2.86,0,0,1-1.06-.85,2.32,2.32,0,0,1-.45-1.49,2.51,2.51,0,0,1,1-2.17,4.33,4.33,0,0,1,2.6-.75,6.67,6.67,0,0,1,1.88.27,5.83,5.83,0,0,1,1.65.76l-.85,1.69A6.91,6.91,0,0,0,277.71,121.87Z"/><path class="cls-3" d="M293.39,120.45a4.42,4.42,0,0,1,1.78,1.72,5,5,0,0,1,.64,2.55,5.09,5.09,0,0,1-.64,2.57,4.4,4.4,0,0,1-1.78,1.73,5.5,5.5,0,0,1-2.64.61,5.59,5.59,0,0,1-2.66-.61,4.39,4.39,0,0,1-1.79-1.73,5.09,5.09,0,0,1-.64-2.57,5,5,0,0,1,.64-2.55,4.41,4.41,0,0,1,1.79-1.72,5.59,5.59,0,0,1,2.66-.61A5.5,5.5,0,0,1,293.39,120.45Zm-4.62,2.2a3.31,3.31,0,0,0,0,4.21,2.58,2.58,0,0,0,2,.81,2.54,2.54,0,0,0,1.94-.81,3.31,3.31,0,0,0,0-4.21,2.54,2.54,0,0,0-1.94-.81A2.58,2.58,0,0,0,288.78,122.65Z"/><path class="cls-3" d="M306.25,120.82a3.76,3.76,0,0,1,1,2.71v6h-2.36v-5.33a2.17,2.17,0,0,0-.58-1.59,2.1,2.1,0,0,0-1.57-.58,2.37,2.37,0,0,0-1.85.79,2.91,2.91,0,0,0-.67,2v4.73h-2.34v-9.63h2.34v1.8a3.65,3.65,0,0,1,3.46-1.89A3.44,3.44,0,0,1,306.25,120.82Z"/><path class="cls-3" d="M137.35,139.22a6.44,6.44,0,0,1,2.42,8.88,6.41,6.41,0,0,1-2.42,2.35,7.17,7.17,0,0,1-6.82,0,6.4,6.4,0,0,1-2.42-2.35,6.38,6.38,0,0,1,2.42-8.88,7.3,7.3,0,0,1,6.82,0Zm-5.52,1.88a4.31,4.31,0,0,0-1.56,5.9,4.34,4.34,0,0,0,1.57,1.57,4.13,4.13,0,0,0,2.13.58,4.05,4.05,0,0,0,2.11-.58,4.23,4.23,0,0,0,1.54-1.57,4.31,4.31,0,0,0,.57-2.18,4.26,4.26,0,0,0-.57-2.17,4.19,4.19,0,0,0-1.54-1.55,4.11,4.11,0,0,0-2.11-.57A4.24,4.24,0,0,0,131.83,141.1Z"/><path class="cls-3" d="M150.74,142.06a4.19,4.19,0,0,1,1.6,1.74,5.61,5.61,0,0,1,.57,2.57,5.52,5.52,0,0,1-.56,2.54,4.11,4.11,0,0,1-1.58,1.71,4.55,4.55,0,0,1-2.38.61,4.14,4.14,0,0,1-1.91-.42,3.6,3.6,0,0,1-1.37-1.23v5.06h-2.34V141.51h2.34v1.58a3.48,3.48,0,0,1,1.34-1.23,4.1,4.1,0,0,1,1.9-.42A4.54,4.54,0,0,1,150.74,142.06Zm-1,6.34a3,3,0,0,0,.76-2.1,2.94,2.94,0,0,0-.76-2.09,2.76,2.76,0,0,0-3.91,0,3.29,3.29,0,0,0,0,4.19,2.56,2.56,0,0,0,2,.81A2.53,2.53,0,0,0,149.78,148.39Z"/><path class="cls-3" d="M162.42,142.75a5.38,5.38,0,0,1,1.16,3.69q0,.47,0,.7h-7.11a2.68,2.68,0,0,0,2.75,2.2,3.65,3.65,0,0,0,1.41-.28,3.46,3.46,0,0,0,1.18-.8l1.26,1.31a4.88,4.88,0,0,1-1.75,1.22,5.9,5.9,0,0,1-2.29.43,5.36,5.36,0,0,1-2.6-.61,4.27,4.27,0,0,1-1.74-1.72,5.59,5.59,0,0,1,0-5.1,4.4,4.4,0,0,1,1.74-1.74,5.13,5.13,0,0,1,2.54-.62A4.38,4.38,0,0,1,162.42,142.75Zm-1,2.83a2.34,2.34,0,0,0-.7-1.69,2.74,2.74,0,0,0-3.48,0,2.74,2.74,0,0,0-.86,1.7Z"/><path class="cls-3" d="M174,142.42a3.76,3.76,0,0,1,1,2.71v6H172.6v-5.33a2.17,2.17,0,0,0-.58-1.59,2.1,2.1,0,0,0-1.57-.58,2.37,2.37,0,0,0-1.85.79,2.91,2.91,0,0,0-.67,2v4.73H165.6v-9.63h2.34v1.8a3.65,3.65,0,0,1,3.46-1.89A3.44,3.44,0,0,1,174,142.42Z"/><path class="cls-3" d="M177.68,138.54h9.23v2.11h-6.82v3.11h6.12v2.11h-6.12V149h7v2.11h-9.45Z"/><path class="cls-3" d="M198.35,139.38a2.7,2.7,0,0,1,1.16,2.3,2.76,2.76,0,0,1-2.2,2.79,3.25,3.25,0,0,1,2,1.08,3.17,3.17,0,0,1,.71,2.11,3,3,0,0,1-1.25,2.55,5.61,5.61,0,0,1-3.41.93h-5.76v-12.6h5.6A5.29,5.29,0,0,1,198.35,139.38Zm-1.84,3.89a1.38,1.38,0,0,0,.53-1.15,1.31,1.31,0,0,0-.53-1.12,2.34,2.34,0,0,0-1.47-.38H192v3.06H195A2.33,2.33,0,0,0,196.52,143.27Zm.33,5.35a1.45,1.45,0,0,0,.65-1.26,1.39,1.39,0,0,0-.65-1.21,3.09,3.09,0,0,0-1.8-.42H192v3.33H195A3,3,0,0,0,196.85,148.62Z"/><path class="cls-3" d="M208.27,140.86a6,6,0,0,0-1.79-.32,2.51,2.51,0,0,0-1.37.32,1,1,0,0,0-.5.9,1.18,1.18,0,0,0,.35.87,2.77,2.77,0,0,0,.88.58,14.24,14.24,0,0,0,1.45.5,15.84,15.84,0,0,1,2.1.76,3.75,3.75,0,0,1,1.4,1.12,3.07,3.07,0,0,1,.58,1.94,3.32,3.32,0,0,1-.62,2,3.89,3.89,0,0,1-1.71,1.31,6.49,6.49,0,0,1-2.49.45,7.84,7.84,0,0,1-2.88-.55,8.14,8.14,0,0,1-2.45-1.47l1-2.05a7.38,7.38,0,0,0,2.14,1.39,5.7,5.7,0,0,0,2.21.5,2.81,2.81,0,0,0,1.58-.39,1.27,1.27,0,0,0,.22-1.94,2.62,2.62,0,0,0-.89-.57q-.54-.22-1.48-.49a17.45,17.45,0,0,1-2.09-.74,3.61,3.61,0,0,1-1.39-1.09A3,3,0,0,1,202,142a3.22,3.22,0,0,1,.58-1.92,3.76,3.76,0,0,1,1.66-1.27,6.35,6.35,0,0,1,2.47-.45,8.39,8.39,0,0,1,2.42.36,8.2,8.2,0,0,1,2.13,1l-1,2.11A9.15,9.15,0,0,0,208.27,140.86Z"/><path class="cls-3" d="M223.65,151.14V150a3.16,3.16,0,0,1-1.3,1,4.77,4.77,0,0,1-1.82.32,3.87,3.87,0,0,1-1.77-.39,2.83,2.83,0,0,1-1.18-1.07,2.89,2.89,0,0,1-.41-1.53,2.56,2.56,0,0,1,1-2.12,4.3,4.3,0,0,1,2.7-.78h2.81v-.25a1.62,1.62,0,0,0-.56-1.31,2.46,2.46,0,0,0-1.62-.47,5.57,5.57,0,0,0-2.86.9l-.85-1.62a10.68,10.68,0,0,1,2.06-.91,7.57,7.57,0,0,1,2.17-.28,4.29,4.29,0,0,1,2.91.9,3.21,3.21,0,0,1,1.05,2.52l0,6.3Zm-.83-2.17a1.66,1.66,0,0,0,.81-1.18v-.86H221.2a2.64,2.64,0,0,0-1.38.28,1,1,0,0,0-.44.91,1.17,1.17,0,0,0,.46,1,2,2,0,0,0,1.25.36A3.06,3.06,0,0,0,222.82,149Z"/><path class="cls-3" d="M237,142.42a3.76,3.76,0,0,1,1,2.71v6h-2.36v-5.33a2.17,2.17,0,0,0-.58-1.59,2.1,2.1,0,0,0-1.57-.58,2.37,2.37,0,0,0-1.85.79,2.91,2.91,0,0,0-.67,2v4.73h-2.34v-9.63h2.34v1.8a3.65,3.65,0,0,1,3.46-1.89A3.44,3.44,0,0,1,237,142.42Z"/><path class="cls-3" d="M249.86,137.78v13.36h-2.34v-1.55a3.47,3.47,0,0,1-1.34,1.23,4.08,4.08,0,0,1-1.9.42,4.58,4.58,0,0,1-2.4-.62,4.24,4.24,0,0,1-1.61-1.75,5.58,5.58,0,0,1-.58-2.58,5.51,5.51,0,0,1,.57-2.55,4.15,4.15,0,0,1,1.6-1.72,4.57,4.57,0,0,1,2.37-.61,4.1,4.1,0,0,1,1.93.43,3.67,3.67,0,0,1,1.37,1.24v-5.31Zm-3.11,10.68a3.3,3.3,0,0,0,0-4.23,2.58,2.58,0,0,0-2-.82,2.55,2.55,0,0,0-2,.82,3.28,3.28,0,0,0,0,4.23,2.55,2.55,0,0,0,2,.82A2.58,2.58,0,0,0,246.75,148.47Z"/><path class="cls-3" d="M255.8,141.53l2.41,0,2.36,7.27,2.29-7.27h2.36l2.32,7.27,2.3-7.27h2.36l-3.49,9.63h-2.39l-2.3-6.79-2.29,6.79h-2.39Z"/><path class="cls-3" d="M275.67,137.76a1.4,1.4,0,0,1,.38,1,1.38,1.38,0,0,1-.38,1,1.35,1.35,0,0,1-1.91,0,1.38,1.38,0,0,1-.38-1,1.4,1.4,0,0,1,.38-1,1.35,1.35,0,0,1,1.91,0Zm-2.11,3.74h2.34v9.63h-2.34Z"/><path class="cls-3" d="M287.21,142.42a3.76,3.76,0,0,1,1,2.71v6H285.8v-5.33a2.17,2.17,0,0,0-.58-1.59,2.1,2.1,0,0,0-1.57-.58,2.37,2.37,0,0,0-1.85.79,2.91,2.91,0,0,0-.67,2v4.73H278.8v-9.63h2.34v1.8a3.65,3.65,0,0,1,3.46-1.89A3.44,3.44,0,0,1,287.21,142.42Z"/><path class="cls-3" d="M92.34,165.09a2.46,2.46,0,0,0-1.9.79,2.91,2.91,0,0,0-.73,2.05,3,3,0,0,0,.73,2.09,2.46,2.46,0,0,0,1.9.79,3.05,3.05,0,0,0,2.59-1.13l1.46,1.21a4.26,4.26,0,0,1-1.71,1.44,5.7,5.7,0,0,1-2.47.5,5.13,5.13,0,0,1-2.53-.61A4.29,4.29,0,0,1,88,170.5a5.62,5.62,0,0,1,0-5.12,4.36,4.36,0,0,1,1.73-1.73,5.18,5.18,0,0,1,2.55-.61,5.75,5.75,0,0,1,2.35.46,4.25,4.25,0,0,1,1.68,1.3l-1.42,1.35A3.26,3.26,0,0,0,92.34,165.09Z"/><path class="cls-3" d="M104.9,163.65a4.42,4.42,0,0,1,1.78,1.72,5,5,0,0,1,.64,2.55,5.09,5.09,0,0,1-.64,2.57,4.4,4.4,0,0,1-1.78,1.73,5.5,5.5,0,0,1-2.64.61,5.59,5.59,0,0,1-2.66-.61,4.39,4.39,0,0,1-1.79-1.73,5.09,5.09,0,0,1-.64-2.57,5,5,0,0,1,.64-2.55,4.41,4.41,0,0,1,1.79-1.72,5.59,5.59,0,0,1,2.66-.61A5.5,5.5,0,0,1,104.9,163.65Zm-4.62,2.2a3.31,3.31,0,0,0,0,4.21,2.58,2.58,0,0,0,2,.81,2.54,2.54,0,0,0,1.94-.81,3.31,3.31,0,0,0,0-4.21,2.54,2.54,0,0,0-1.94-.81A2.58,2.58,0,0,0,100.28,165.85Z"/><path class="cls-3" d="M116.2,163.65a4.42,4.42,0,0,1,1.78,1.72,5,5,0,0,1,.64,2.55,5.09,5.09,0,0,1-.64,2.57,4.4,4.4,0,0,1-1.78,1.73,5.5,5.5,0,0,1-2.64.61,5.59,5.59,0,0,1-2.66-.61,4.39,4.39,0,0,1-1.79-1.73,5.09,5.09,0,0,1-.64-2.57,5,5,0,0,1,.64-2.55,4.41,4.41,0,0,1,1.79-1.72,5.59,5.59,0,0,1,2.66-.61A5.5,5.5,0,0,1,116.2,163.65Zm-4.62,2.2a3.31,3.31,0,0,0,0,4.21,2.58,2.58,0,0,0,2,.81,2.54,2.54,0,0,0,1.94-.81,3.31,3.31,0,0,0,0-4.21,2.54,2.54,0,0,0-1.94-.81A2.58,2.58,0,0,0,111.58,165.85Z"/><path class="cls-3" d="M120.75,159.38h2.34v13.36h-2.34Z"/><path class="cls-3" d="M125.7,166.44h4.52v1.62H125.7Z"/><path class="cls-3" d="M132.84,159.38h2.34v13.36h-2.34Z"/><path class="cls-3" d="M145,163.65a4.42,4.42,0,0,1,1.78,1.72,5,5,0,0,1,.64,2.55,5.09,5.09,0,0,1-.64,2.57,4.4,4.4,0,0,1-1.78,1.73,5.5,5.5,0,0,1-2.64.61,5.59,5.59,0,0,1-2.66-.61,4.39,4.39,0,0,1-1.79-1.73,5.09,5.09,0,0,1-.64-2.57,5,5,0,0,1,.64-2.55,4.41,4.41,0,0,1,1.79-1.72,5.59,5.59,0,0,1,2.66-.61A5.5,5.5,0,0,1,145,163.65Zm-4.62,2.2a3.31,3.31,0,0,0,0,4.21,2.58,2.58,0,0,0,2,.81,2.54,2.54,0,0,0,1.94-.81,3.31,3.31,0,0,0,0-4.21,2.54,2.54,0,0,0-1.94-.81A2.58,2.58,0,0,0,140.42,165.85Z"/><path class="cls-3" d="M156.34,163.65a4.42,4.42,0,0,1,1.78,1.72,5,5,0,0,1,.64,2.55,5.09,5.09,0,0,1-.64,2.57,4.4,4.4,0,0,1-1.78,1.73,5.5,5.5,0,0,1-2.64.61,5.59,5.59,0,0,1-2.66-.61,4.39,4.39,0,0,1-1.79-1.73,5.09,5.09,0,0,1-.64-2.57,5,5,0,0,1,.64-2.55,4.41,4.41,0,0,1,1.79-1.72,5.59,5.59,0,0,1,2.66-.61A5.5,5.5,0,0,1,156.34,163.65Zm-4.62,2.2a3.31,3.31,0,0,0,0,4.21,2.58,2.58,0,0,0,2,.81,2.54,2.54,0,0,0,1.94-.81,3.31,3.31,0,0,0,0-4.21,2.54,2.54,0,0,0-1.94-.81A2.58,2.58,0,0,0,151.72,165.85Z"/><path class="cls-3" d="M167.31,172.74l-2.61-4.21-1.48,1.55v2.66h-2.34V159.38h2.34v7.74l4-4h2.7l-3.56,3.71,3.78,5.9Z"/><path class="cls-3" d="M173.79,159.37a1.4,1.4,0,0,1,.38,1,1.38,1.38,0,0,1-.38,1,1.35,1.35,0,0,1-1.91,0,1.38,1.38,0,0,1-.38-1,1.4,1.4,0,0,1,.38-1,1.35,1.35,0,0,1,1.91,0Zm-2.11,3.74H174v9.63h-2.34Z"/><path class="cls-3" d="M185.33,164a3.76,3.76,0,0,1,1,2.71v6h-2.36v-5.33a2.17,2.17,0,0,0-.58-1.59,2.1,2.1,0,0,0-1.57-.58,2.37,2.37,0,0,0-1.85.79,2.91,2.91,0,0,0-.67,2v4.73h-2.34v-9.63h2.34v1.8a3.65,3.65,0,0,1,3.46-1.89A3.44,3.44,0,0,1,185.33,164Z"/><path class="cls-3" d="M197.71,163.11v8.71a4.48,4.48,0,0,1-.62,2.38,4.08,4.08,0,0,1-1.76,1.57,6.08,6.08,0,0,1-2.66.55A7.07,7.07,0,0,1,188.6,175l.94-1.69a5,5,0,0,0,3,1,3,3,0,0,0,2.06-.67,2.29,2.29,0,0,0,.76-1.82v-1.13a3.2,3.2,0,0,1-1.26,1.13,4,4,0,0,1-1.8.39,4.24,4.24,0,0,1-2.23-.58,4,4,0,0,1-1.51-1.64,5.23,5.23,0,0,1-.54-2.42,5.07,5.07,0,0,1,.54-2.38,4,4,0,0,1,1.51-1.61,4.3,4.3,0,0,1,2.23-.58,3.92,3.92,0,0,1,1.79.4,3.31,3.31,0,0,1,1.27,1.12v-1.44Zm-3.05,6.54a3.14,3.14,0,0,0,0-4,2.6,2.6,0,0,0-3.69,0,3.07,3.07,0,0,0,0,4,2.61,2.61,0,0,0,3.69,0Z"/><path class="cls-3" d="M213.39,164a3.76,3.76,0,0,1,1,2.71v6H212v-5.33a2.17,2.17,0,0,0-.58-1.59,2.1,2.1,0,0,0-1.57-.58A2.4,2.4,0,0,0,208,166a2.88,2.88,0,0,0-.68,2v4.73H205V159.38h2.34v5.56a3.65,3.65,0,0,1,3.47-1.93A3.44,3.44,0,0,1,213.39,164Z"/><path class="cls-3" d="M222.66,172.74v-1.17a3.16,3.16,0,0,1-1.3,1,4.77,4.77,0,0,1-1.82.32,3.87,3.87,0,0,1-1.77-.39,2.83,2.83,0,0,1-1.18-1.07,2.89,2.89,0,0,1-.41-1.53,2.56,2.56,0,0,1,1-2.12,4.3,4.3,0,0,1,2.7-.78h2.81v-.25a1.62,1.62,0,0,0-.56-1.31,2.46,2.46,0,0,0-1.62-.47,5.57,5.57,0,0,0-2.86.9l-.85-1.62a10.68,10.68,0,0,1,2.06-.91A7.57,7.57,0,0,1,221,163a4.29,4.29,0,0,1,2.91.9,3.21,3.21,0,0,1,1.05,2.52l0,6.3Zm-.83-2.17a1.66,1.66,0,0,0,.81-1.18v-.86h-2.43a2.64,2.64,0,0,0-1.38.28,1,1,0,0,0-.44.91,1.17,1.17,0,0,0,.46,1,2,2,0,0,0,1.25.36A3.06,3.06,0,0,0,221.83,170.57Z"/><path class="cls-3" d="M231.69,165.09a2.46,2.46,0,0,0-1.9.79,2.91,2.91,0,0,0-.73,2.05,3,3,0,0,0,.73,2.09,2.46,2.46,0,0,0,1.9.79,3.05,3.05,0,0,0,2.59-1.13l1.46,1.21a4.26,4.26,0,0,1-1.71,1.44,5.7,5.7,0,0,1-2.47.5,5.13,5.13,0,0,1-2.53-.61,4.29,4.29,0,0,1-1.72-1.72,5.62,5.62,0,0,1,0-5.12,4.36,4.36,0,0,1,1.73-1.73,5.18,5.18,0,0,1,2.55-.61,5.75,5.75,0,0,1,2.35.46,4.25,4.25,0,0,1,1.68,1.3l-1.42,1.35A3.26,3.26,0,0,0,231.69,165.09Z"/><path class="cls-3" d="M244.26,172.74l-2.61-4.21-1.48,1.55v2.66h-2.34V159.38h2.34v7.74l4-4h2.7l-3.56,3.71,3.78,5.9Z"/><path class="cls-3" d="M254.27,172.15a4.57,4.57,0,0,1-2.41.7,2.88,2.88,0,0,1-2-.73A2.78,2.78,0,0,1,249,170v-4.75h-1.35l0-1.71H249v-2.65h2.32v2.65h2.75v1.71h-2.75v4.34a1.4,1.4,0,0,0,.25.94,1,1,0,0,0,.76.28,3.34,3.34,0,0,0,1.37-.4Z"/><path class="cls-3" d="M262.86,163.65a4.42,4.42,0,0,1,1.78,1.72,5,5,0,0,1,.64,2.55,5.09,5.09,0,0,1-.64,2.57,4.4,4.4,0,0,1-1.78,1.73,5.5,5.5,0,0,1-2.64.61,5.59,5.59,0,0,1-2.66-.61,4.39,4.39,0,0,1-1.79-1.73,5.09,5.09,0,0,1-.64-2.57,5,5,0,0,1,.64-2.55,4.41,4.41,0,0,1,1.79-1.72,5.59,5.59,0,0,1,2.66-.61A5.5,5.5,0,0,1,262.86,163.65Zm-4.62,2.2a3.31,3.31,0,0,0,0,4.21,2.58,2.58,0,0,0,2,.81,2.54,2.54,0,0,0,1.94-.81,3.31,3.31,0,0,0,0-4.21,2.54,2.54,0,0,0-1.94-.81A2.58,2.58,0,0,0,258.25,165.85Z"/><path class="cls-3" d="M275.37,163.66a4.19,4.19,0,0,1,1.6,1.74,5.61,5.61,0,0,1,.57,2.57,5.52,5.52,0,0,1-.56,2.54,4.11,4.11,0,0,1-1.58,1.71,4.55,4.55,0,0,1-2.38.61,4.14,4.14,0,0,1-1.91-.42,3.6,3.6,0,0,1-1.37-1.23v1.57h-2.34V159.38h2.34v5.31a3.48,3.48,0,0,1,1.34-1.23A4.1,4.1,0,0,1,273,163,4.54,4.54,0,0,1,275.37,163.66Zm-1,6.34a3,3,0,0,0,.76-2.1,2.94,2.94,0,0,0-.76-2.09,2.76,2.76,0,0,0-3.91,0,3.29,3.29,0,0,0,0,4.19,2.56,2.56,0,0,0,2,.81A2.53,2.53,0,0,0,274.41,170Z"/><path class="cls-3" d="M287.05,164.35a5.38,5.38,0,0,1,1.16,3.69q0,.47,0,.7h-7.11a2.68,2.68,0,0,0,2.75,2.2,3.65,3.65,0,0,0,1.41-.28,3.46,3.46,0,0,0,1.18-.8l1.26,1.31a4.88,4.88,0,0,1-1.75,1.22,5.9,5.9,0,0,1-2.29.43,5.36,5.36,0,0,1-2.6-.61,4.27,4.27,0,0,1-1.74-1.72,5.59,5.59,0,0,1,0-5.1,4.4,4.4,0,0,1,1.74-1.74,5.13,5.13,0,0,1,2.54-.62A4.38,4.38,0,0,1,287.05,164.35Zm-1,2.83a2.34,2.34,0,0,0-.7-1.69,2.74,2.74,0,0,0-3.48,0,2.74,2.74,0,0,0-.86,1.7Z"/><path class="cls-3" d="M293.89,163.53a3.89,3.89,0,0,1,2-.51v2.27a3.18,3.18,0,0,0-2.38.69,2.67,2.67,0,0,0-.89,2.12v4.64h-2.34v-9.63h2.34V165A3.49,3.49,0,0,1,293.89,163.53Z"/><path class="cls-3" d="M300.61,161.6a1.15,1.15,0,0,0-.35.92v1h2.41v1.71h-2.41v7.52h-2.34v-7.52h-1.26V163.5h1.26v-.92a3.33,3.33,0,0,1,.47-1.81,3,3,0,0,1,1.25-1.12,3.86,3.86,0,0,1,1.7-.38,4,4,0,0,1,1.76.41l-.41,1.89a3.38,3.38,0,0,0-1.19-.29A1.31,1.31,0,0,0,300.61,161.6Z"/><path class="cls-3" d="M311.35,164.35a5.38,5.38,0,0,1,1.16,3.69q0,.47,0,.7h-7.11a2.68,2.68,0,0,0,2.75,2.2,3.65,3.65,0,0,0,1.41-.28,3.46,3.46,0,0,0,1.18-.8l1.26,1.31a4.88,4.88,0,0,1-1.75,1.22,5.9,5.9,0,0,1-2.29.43,5.36,5.36,0,0,1-2.6-.61,4.27,4.27,0,0,1-1.74-1.72,5.59,5.59,0,0,1,0-5.1,4.4,4.4,0,0,1,1.74-1.74,5.13,5.13,0,0,1,2.54-.62A4.38,4.38,0,0,1,311.35,164.35Zm-1,2.83a2.34,2.34,0,0,0-.7-1.69,2.74,2.74,0,0,0-3.48,0,2.74,2.74,0,0,0-.86,1.7Z"/><path class="cls-3" d="M318.79,165.07a4.63,4.63,0,0,0-1.38-.23,1.86,1.86,0,0,0-.95.21.69.69,0,0,0-.35.64.76.76,0,0,0,.44.69,7.13,7.13,0,0,0,1.39.51,13.46,13.46,0,0,1,1.66.6,3.13,3.13,0,0,1,1.13.88,2.36,2.36,0,0,1,.48,1.54,2.48,2.48,0,0,1-1.08,2.16,4.63,4.63,0,0,1-2.72.76,6.91,6.91,0,0,1-2.18-.35,5.13,5.13,0,0,1-1.8-1l.81-1.64a4.73,4.73,0,0,0,1.55.87,5.16,5.16,0,0,0,1.71.32,2.06,2.06,0,0,0,1-.22.73.73,0,0,0,.39-.68.81.81,0,0,0-.45-.76,8,8,0,0,0-1.46-.56,12.33,12.33,0,0,1-1.58-.57,2.86,2.86,0,0,1-1.06-.85,2.32,2.32,0,0,1-.45-1.49,2.51,2.51,0,0,1,1-2.17,4.33,4.33,0,0,1,2.6-.75,6.67,6.67,0,0,1,1.88.27,5.83,5.83,0,0,1,1.65.76l-.85,1.69A6.91,6.91,0,0,0,318.79,165.07Z"/><path class="cls-3" d="M328.84,172.15a4.57,4.57,0,0,1-2.41.7,2.88,2.88,0,0,1-2-.73,2.78,2.78,0,0,1-.79-2.15v-4.75h-1.35l0-1.71h1.37v-2.65h2.32v2.65h2.75v1.71h-2.75v4.34a1.4,1.4,0,0,0,.25.94,1,1,0,0,0,.76.28,3.34,3.34,0,0,0,1.37-.4Z"/><path class="cls-3" d="M142,182.42a6.44,6.44,0,0,1,2.42,8.88,6.41,6.41,0,0,1-2.42,2.35,7.17,7.17,0,0,1-6.82,0,6.4,6.4,0,0,1-2.42-2.35,6.38,6.38,0,0,1,2.42-8.88,7.3,7.3,0,0,1,6.82,0Zm-5.52,1.88a4.31,4.31,0,0,0-1.56,5.9,4.34,4.34,0,0,0,1.57,1.57,4.13,4.13,0,0,0,2.13.58,4.05,4.05,0,0,0,2.11-.58,4.23,4.23,0,0,0,1.54-1.57,4.31,4.31,0,0,0,.57-2.18,4.26,4.26,0,0,0-.57-2.17,4.19,4.19,0,0,0-1.54-1.55,4.11,4.11,0,0,0-2.11-.57A4.24,4.24,0,0,0,136.48,184.3Z"/><path class="cls-3" d="M155.39,185.26A4.19,4.19,0,0,1,157,187a5.61,5.61,0,0,1,.57,2.57,5.52,5.52,0,0,1-.56,2.54,4.11,4.11,0,0,1-1.58,1.71,4.55,4.55,0,0,1-2.38.61,4.14,4.14,0,0,1-1.91-.42,3.6,3.6,0,0,1-1.37-1.23v5.06h-2.34V184.71h2.34v1.58a3.48,3.48,0,0,1,1.34-1.23,4.1,4.1,0,0,1,1.9-.42A4.54,4.54,0,0,1,155.39,185.26Zm-1,6.34a3,3,0,0,0,.76-2.1,2.94,2.94,0,0,0-.76-2.09,2.76,2.76,0,0,0-3.91,0,3.29,3.29,0,0,0,0,4.19,2.56,2.56,0,0,0,2,.81A2.53,2.53,0,0,0,154.42,191.59Z"/><path class="cls-3" d="M167.07,186a5.38,5.38,0,0,1,1.16,3.69q0,.47,0,.7H161.1a2.68,2.68,0,0,0,2.75,2.2,3.65,3.65,0,0,0,1.41-.28,3.46,3.46,0,0,0,1.18-.8l1.26,1.31A4.88,4.88,0,0,1,166,194a5.9,5.9,0,0,1-2.29.43,5.36,5.36,0,0,1-2.6-.61,4.27,4.27,0,0,1-1.74-1.72,5.59,5.59,0,0,1,0-5.1,4.4,4.4,0,0,1,1.74-1.74,5.13,5.13,0,0,1,2.54-.62A4.38,4.38,0,0,1,167.07,186Zm-1,2.83a2.34,2.34,0,0,0-.7-1.69,2.74,2.74,0,0,0-3.48,0,2.74,2.74,0,0,0-.86,1.7Z"/><path class="cls-3" d="M178.65,185.62a3.76,3.76,0,0,1,1,2.71v6h-2.36V189a2.17,2.17,0,0,0-.58-1.59,2.1,2.1,0,0,0-1.57-.58,2.37,2.37,0,0,0-1.85.79,2.91,2.91,0,0,0-.67,2v4.73h-2.34v-9.63h2.34v1.8a3.65,3.65,0,0,1,3.46-1.89A3.44,3.44,0,0,1,178.65,185.62Z"/><path class="cls-3" d="M182.32,181.74h9.23v2.11h-6.82V187h6.12v2.11h-6.12v3.17h7v2.11h-9.45Z"/><path class="cls-3" d="M203,182.58a2.7,2.7,0,0,1,1.16,2.3,2.76,2.76,0,0,1-2.2,2.79,3.25,3.25,0,0,1,2,1.08,3.17,3.17,0,0,1,.71,2.11,3,3,0,0,1-1.25,2.55,5.61,5.61,0,0,1-3.41.93h-5.76v-12.6h5.6A5.29,5.29,0,0,1,203,182.58Zm-1.84,3.89a1.38,1.38,0,0,0,.53-1.15,1.31,1.31,0,0,0-.53-1.12,2.34,2.34,0,0,0-1.47-.38h-3.06v3.06h3.06A2.33,2.33,0,0,0,201.16,186.47Zm.33,5.35a1.45,1.45,0,0,0,.65-1.26,1.39,1.39,0,0,0-.65-1.21,3.09,3.09,0,0,0-1.8-.42h-3.06v3.33h3.06A3,3,0,0,0,201.49,191.82Z"/><path class="cls-3" d="M212.91,184.06a6,6,0,0,0-1.79-.32,2.51,2.51,0,0,0-1.37.32,1,1,0,0,0-.5.9,1.18,1.18,0,0,0,.35.87,2.77,2.77,0,0,0,.88.58,14.24,14.24,0,0,0,1.45.5,15.84,15.84,0,0,1,2.1.76,3.75,3.75,0,0,1,1.4,1.12,3.07,3.07,0,0,1,.58,1.94,3.32,3.32,0,0,1-.62,2,3.89,3.89,0,0,1-1.71,1.31,6.49,6.49,0,0,1-2.49.45,7.84,7.84,0,0,1-2.88-.55,8.14,8.14,0,0,1-2.45-1.47l1-2.05A7.38,7.38,0,0,0,209,191.8a5.7,5.7,0,0,0,2.21.5,2.81,2.81,0,0,0,1.58-.39A1.27,1.27,0,0,0,213,190a2.62,2.62,0,0,0-.89-.57q-.54-.22-1.48-.49a17.45,17.45,0,0,1-2.09-.74,3.61,3.61,0,0,1-1.39-1.09,3,3,0,0,1-.58-1.92,3.22,3.22,0,0,1,.58-1.92,3.76,3.76,0,0,1,1.66-1.27,6.35,6.35,0,0,1,2.47-.45,8.39,8.39,0,0,1,2.42.36,8.2,8.2,0,0,1,2.13,1l-1,2.11A9.15,9.15,0,0,0,212.91,184.06Z"/><path class="cls-3" d="M228.24,193.75a4.57,4.57,0,0,1-2.41.7,2.88,2.88,0,0,1-2-.73,2.78,2.78,0,0,1-.79-2.15v-4.75h-1.35l0-1.71H223v-2.65h2.32v2.65h2.75v1.71h-2.75v4.34a1.4,1.4,0,0,0,.25.94,1,1,0,0,0,.76.28,3.34,3.34,0,0,0,1.37-.4Z"/><path class="cls-3" d="M229.68,188h4.52v1.62h-4.52Z"/><path class="cls-3" d="M241,186.67a4.63,4.63,0,0,0-1.38-.23,1.86,1.86,0,0,0-.95.21.69.69,0,0,0-.35.64.76.76,0,0,0,.44.69,7.13,7.13,0,0,0,1.39.51,13.46,13.46,0,0,1,1.66.6,3.13,3.13,0,0,1,1.13.88,2.36,2.36,0,0,1,.48,1.54,2.48,2.48,0,0,1-1.08,2.16,4.63,4.63,0,0,1-2.72.76,6.91,6.91,0,0,1-2.18-.35,5.13,5.13,0,0,1-1.8-1l.81-1.64a4.73,4.73,0,0,0,1.55.87,5.16,5.16,0,0,0,1.71.32,2.06,2.06,0,0,0,1-.22.73.73,0,0,0,.39-.68.81.81,0,0,0-.45-.76,8,8,0,0,0-1.46-.56,12.33,12.33,0,0,1-1.58-.57,2.86,2.86,0,0,1-1.06-.85,2.32,2.32,0,0,1-.45-1.49,2.51,2.51,0,0,1,1-2.17,4.33,4.33,0,0,1,2.6-.75,6.67,6.67,0,0,1,1.88.27,5.83,5.83,0,0,1,1.65.76l-.85,1.69A6.91,6.91,0,0,0,241,186.67Z"/><path class="cls-3" d="M253.92,185.62a3.76,3.76,0,0,1,1,2.71v6h-2.36V189a2.17,2.17,0,0,0-.58-1.59,2.1,2.1,0,0,0-1.57-.58,2.4,2.4,0,0,0-1.85.79,2.88,2.88,0,0,0-.68,2v4.73H245.5V181h2.34v5.56a3.65,3.65,0,0,1,3.47-1.93A3.44,3.44,0,0,1,253.92,185.62Z"/><path class="cls-3" d="M259.61,181a1.4,1.4,0,0,1,.38,1,1.38,1.38,0,0,1-.38,1,1.35,1.35,0,0,1-1.91,0,1.38,1.38,0,0,1-.38-1,1.4,1.4,0,0,1,.38-1,1.35,1.35,0,0,1,1.91,0Zm-2.11,3.74h2.34v9.63h-2.34Z"/><path class="cls-3" d="M266.41,185.13a3.89,3.89,0,0,1,2-.51v2.27a3.18,3.18,0,0,0-2.38.69,2.67,2.67,0,0,0-.89,2.12v4.64h-2.34v-9.63h2.34v1.85A3.49,3.49,0,0,1,266.41,185.13Z"/><path class="cls-3" d="M275.63,193.75a4.57,4.57,0,0,1-2.41.7,2.88,2.88,0,0,1-2-.73,2.78,2.78,0,0,1-.79-2.15v-4.75H269l0-1.71h1.37v-2.65h2.32v2.65h2.75v1.71h-2.75v4.34a1.4,1.4,0,0,0,.25.94,1,1,0,0,0,.76.28,3.34,3.34,0,0,0,1.37-.4Z"/><path class="cls-3" d="M281.72,186.67a4.63,4.63,0,0,0-1.38-.23,1.86,1.86,0,0,0-.95.21.69.69,0,0,0-.35.64.76.76,0,0,0,.44.69,7.13,7.13,0,0,0,1.39.51,13.46,13.46,0,0,1,1.66.6,3.13,3.13,0,0,1,1.13.88,2.36,2.36,0,0,1,.48,1.54,2.48,2.48,0,0,1-1.08,2.16,4.63,4.63,0,0,1-2.72.76,6.91,6.91,0,0,1-2.18-.35,5.13,5.13,0,0,1-1.8-1l.81-1.64a4.73,4.73,0,0,0,1.55.87,5.16,5.16,0,0,0,1.71.32,2.06,2.06,0,0,0,1-.22.73.73,0,0,0,.39-.68.81.81,0,0,0-.45-.76,8,8,0,0,0-1.46-.56,12.33,12.33,0,0,1-1.58-.57,2.86,2.86,0,0,1-1.06-.85,2.32,2.32,0,0,1-.45-1.49,2.51,2.51,0,0,1,1-2.17,4.33,4.33,0,0,1,2.6-.75,6.67,6.67,0,0,1,1.88.27,5.83,5.83,0,0,1,1.65.76l-.85,1.69A6.91,6.91,0,0,0,281.72,186.67Z"/></svg>