<svg id="Layer_1" data-name="Layer 1" xmlns="http://www.w3.org/2000/svg" xmlns:xlink="http://www.w3.org/1999/xlink" viewBox="0 0 1080 1182"><defs><style>.cls-1{fill:url(#linear-gradient);}.cls-2{fill:#f3e7b0;}.cls-3{fill:none;stroke:#fff;}.cls-3,.cls-6{stroke-miterlimit:10;stroke-width:6px;}.cls-4{fill:#fff;}.cls-5,.cls-6{fill:#273274;}.cls-6{stroke:#fcfcfc;}</style><linearGradient id="linear-gradient" x1="148.4" y1="-87.28" x2="931.6" y2="1269.28" gradientUnits="userSpaceOnUse"><stop offset="0.23" stop-color="#ff8c58"/><stop offset="1" stop-color="#ff544e"/></linearGradient></defs><title>pr mobile</title><rect class="cls-1" x="-2.78" width="1085.55" height="1182"/><path class="cls-2" d="M542.33,149.72c-1.68.1-3.44.55-4.79-1h4.91Q542.4,149.23,542.33,149.72Z"/><path class="cls-2" d="M542.33,276.74c-1.68.1-3.44.55-4.79-1h4.91Q542.4,276.24,542.33,276.74Z"/><rect class="cls-3" x="142.5" y="239.91" width="795" height="569.13"/><path class="cls-4" d="M554.13,139.72c47.81,7.47,81.82,48.3,80.93,95.8-.5,26.72-11,49.46-30.54,67.75a11.64,11.64,0,0,0-4,9.53c.12,27,0,54,.12,81,0,4.62-.18,8.81-5.06,11.37s-8.12.33-11.86-2.59c-11.73-9.16-23.72-18-35.61-26.93-.82-.61-2.05-1.05-2.39-1.87-3-7.34-6.63-3.32-10.21-.63q-20.1,15.08-40.21,30.15c-3.24,2.44-6.42,4.32-10.65,2.22-4.42-2.19-5-6-5-10.31,0-27.81-.06-55.62,0-83.43a9.77,9.77,0,0,0-3.31-7.92c-27.89-26.73-38-59.27-27.26-96.32,10.47-36.31,35.55-58.58,72.65-67,1.82-.41,4.2.36,5.49-1.81h22.1C550.69,140.27,552.44,139.82,554.13,139.72Zm72.54,94.07c-1.82-36.41-18.67-63.33-52-79-19.23-9-39.46-9.58-59.86-3.62-19.57,5.72-35,17.72-46,34.18-27.24,40.52-16.36,93.66,24.24,120.54,11.13,7.37,23.63,11.16,36.23,14.07,7.08,1.63,14.9.41,22.4-.79,12.36-2,24.34-5.57,34.74-12.16,15-9.5,25.29-23.48,33-39.49C624.53,256.88,625.56,245.51,626.67,233.79Z"/><path class="cls-5" d="M626.44,233.79c-1.11,11.72-2.14,23.09-7.28,33.78-7.7,16-18,30-33,39.49-10.4,6.59-22.38,10.18-34.74,12.16-7.49,1.2-15.31,2.42-22.4.79-12.61-2.9-25.1-6.69-36.23-14.07-40.6-26.88-51.48-80-24.24-120.54,11.07-16.47,26.46-28.46,46-34.18,20.4-6,40.64-5.4,59.86,3.62C607.78,170.46,624.63,197.39,626.44,233.79Zm-164.52,1.88c.33,34.16,28.08,73.81,75.2,75.77,39.69,1.65,78.26-28.36,80.44-74,2-42.8-29.13-77.43-71.73-81.36C505.45,152.38,461.31,185.17,461.92,235.68Z"/><path class="cls-4" d="M462.14,235.68c-.61-50.5,43.53-83.3,83.91-79.58,42.6,3.93,73.78,38.56,71.73,81.36-2.18,45.64-40.75,75.64-80.44,74C490.21,309.49,462.46,269.84,462.14,235.68Zm78.43-71c-37.55-.72-70.26,31.58-69.53,68.95.77,39.37,29,72.56,80.13,69.1,15.31-1,28.8-10.31,39.57-22,12.23-13.32,18.14-29.18,18.56-47.14C610.16,196.75,576.21,164.27,540.57,164.63Z"/><path class="cls-5" d="M540.39,164.63c-37.55-.72-70.26,31.58-69.53,68.95.77,39.37,29,72.56,80.13,69.1,15.31-1,28.8-10.31,39.57-22,12.23-13.32,18.14-29.18,18.56-47.14C610,196.75,576,164.27,540.39,164.63Z"/><polygon class="cls-6" points="540 201.19 549.63 220.7 571.15 223.83 555.58 239.01 559.25 260.45 540 250.32 520.75 260.45 524.42 239.01 508.85 223.83 530.37 220.7 540 201.19"/><path class="cls-4" d="M327,463.47a17.85,17.85,0,0,0-5-.81,9.27,9.27,0,0,0-5.07,1.22,3.8,3.8,0,0,0-1.9,3.35,4.42,4.42,0,0,0,1.14,3.15,8.09,8.09,0,0,0,2.81,1.92q1.66.7,4.63,1.64a52.44,52.44,0,0,1,6,2.18,10.37,10.37,0,0,1,3.9,3.09,8.56,8.56,0,0,1,1.61,5.43,9.08,9.08,0,0,1-1.69,5.46,10.82,10.82,0,0,1-4.73,3.61,18,18,0,0,1-7,1.27,20.34,20.34,0,0,1-7.8-1.56,21.14,21.14,0,0,1-6.55-4.16l2.24-4.32a18.76,18.76,0,0,0,5.85,3.93,16.12,16.12,0,0,0,6.32,1.38,10.1,10.1,0,0,0,5.75-1.43,4.46,4.46,0,0,0,2.11-3.87,4.52,4.52,0,0,0-1.14-3.17,8.07,8.07,0,0,0-2.89-2,49.51,49.51,0,0,0-4.71-1.61,48,48,0,0,1-5.93-2.13,10.24,10.24,0,0,1-3.87-3.07,8.45,8.45,0,0,1-1.59-5.36,8.57,8.57,0,0,1,1.61-5.15,10.18,10.18,0,0,1,4.52-3.43,17.7,17.7,0,0,1,6.76-1.2,21.85,21.85,0,0,1,6.42,1,21.57,21.57,0,0,1,5.59,2.57l-2.08,4.47A21,21,0,0,0,327,463.47Z"/><path class="cls-4" d="M366.95,467.19V494.7h-4.89v-5.82q-2.7,5.88-10.19,6a9.85,9.85,0,0,1-7.49-2.83q-2.7-2.83-2.7-7.83v-17h4.89v15.7a7.46,7.46,0,0,0,1.9,5.43,7,7,0,0,0,5.23,2,7.73,7.73,0,0,0,6.11-2.73,10.23,10.23,0,0,0,2.26-6.84V467.19Z"/><path class="cls-4" d="M398.51,468.8a12.14,12.14,0,0,1,4.68,4.94,16.71,16.71,0,0,1,0,14.48,11.87,11.87,0,0,1-4.63,4.89,13.33,13.33,0,0,1-6.84,1.74,12.54,12.54,0,0,1-6.14-1.46,10.43,10.43,0,0,1-4.16-4.16v5.46h-4.84V456.11h4.84v16.54a10.49,10.49,0,0,1,4.13-4.16,12.29,12.29,0,0,1,6.06-1.46A13.32,13.32,0,0,1,398.51,468.8Zm-3,20.59a8.58,8.58,0,0,0,3.28-3.48,10.71,10.71,0,0,0,1.17-5,10.42,10.42,0,0,0-1.2-5,8.84,8.84,0,0,0-3.28-3.48,9,9,0,0,0-4.73-1.25,9.16,9.16,0,0,0-4.76,1.25,8.76,8.76,0,0,0-3.3,3.48,11.18,11.18,0,0,0,0,10.06,8.8,8.8,0,0,0,3.3,3.46,9.69,9.69,0,0,0,9.52,0Z"/><path class="cls-4" d="M454.57,469.89a10.89,10.89,0,0,1,2.7,7.8v17h-4.89V479a7.56,7.56,0,0,0-1.9-5.46,6.91,6.91,0,0,0-5.23-2,7.89,7.89,0,0,0-6.14,2.76,10.2,10.2,0,0,0-2.24,6.81V494.7H432V479a7.62,7.62,0,0,0-1.87-5.46,6.89,6.89,0,0,0-5.25-2,8,8,0,0,0-6.16,2.76,10.13,10.13,0,0,0-2.26,6.81V494.7h-4.84V467.19h4.84V473q2.7-5.82,10.24-5.93a10.52,10.52,0,0,1,6.32,1.82,8.92,8.92,0,0,1,3.41,5.1q2.55-6.81,10.71-6.92A9.74,9.74,0,0,1,454.57,469.89Z"/><path class="cls-4" d="M470.45,457.1a3.34,3.34,0,0,1,0,4.47,3.08,3.08,0,0,1-4.32,0,3.34,3.34,0,0,1,0-4.47,3.08,3.08,0,0,1,4.32,0Zm-4.55,10.09h4.84V494.7H465.9Z"/><path class="cls-4" d="M494.92,492.88a11.85,11.85,0,0,1-6.45,2,7.33,7.33,0,0,1-5.3-2q-2-1.95-2-5.9V471.82h-3.9v-3.69h3.9v-7.38H486v7.38h8.42v3.69H486v14.35a5.09,5.09,0,0,0,.83,3.28,3.08,3.08,0,0,0,2.5,1,8.72,8.72,0,0,0,4.26-1.3Z"/><path class="cls-4" d="M539.9,461.6q3.8,3.3,3.8,9.33,0,6.34-3.82,9.85t-10.74,3.51H521.9v10.4h-8.22V458.3h15.44Q536.1,458.3,539.9,461.6ZM534,475.85a5.8,5.8,0,0,0,1.85-4.65,5.58,5.58,0,0,0-1.85-4.55,8.15,8.15,0,0,0-5.33-1.53H521.9v12.32h6.81A8,8,0,0,0,534,475.85Z"/><path class="cls-4" d="M571.3,494.7l-5.77-10.4h-8.37v10.4h-8.22V458.3h15.81q7.13,0,11,3.3t3.9,9.33a14.07,14.07,0,0,1-1.74,7.2,11.19,11.19,0,0,1-5.07,4.55l7.75,12Zm-14.14-17.26h7.59a7.86,7.86,0,0,0,5.28-1.59,5.8,5.8,0,0,0,1.85-4.65,5.58,5.58,0,0,0-1.85-4.55,8.06,8.06,0,0,0-5.28-1.53h-7.59Z"/><path class="cls-4" d="M599.54,472.94a13.55,13.55,0,0,0-4-.7,4.59,4.59,0,0,0-2.34.52,1.7,1.7,0,0,0-.88,1.56,1.93,1.93,0,0,0,1.2,1.77,22.86,22.86,0,0,0,3.9,1.4,41.33,41.33,0,0,1,4.89,1.74,9.13,9.13,0,0,1,3.33,2.55,6.73,6.73,0,0,1,1.4,4.45,7.53,7.53,0,0,1-3.2,6.47,13.63,13.63,0,0,1-8.19,2.31,21.54,21.54,0,0,1-6.6-1,17,17,0,0,1-5.51-2.89l2.6-5.41a16.37,16.37,0,0,0,4.76,2.57,15.17,15.17,0,0,0,5,.91,5.21,5.21,0,0,0,2.57-.55,1.77,1.77,0,0,0,1-1.64,2.07,2.07,0,0,0-1.22-1.87,20.5,20.5,0,0,0-3.93-1.46,39.63,39.63,0,0,1-4.76-1.66,8.47,8.47,0,0,1-3.25-2.52,6.82,6.82,0,0,1-1.35-4.39,7.53,7.53,0,0,1,3.12-6.45,13,13,0,0,1,7.9-2.29,21,21,0,0,1,5.72.81,19.15,19.15,0,0,1,5.2,2.31l-2.76,5.46A23.37,23.37,0,0,0,599.54,472.94Z"/><path class="cls-4" d="M641.66,492.88a11.85,11.85,0,0,1-6.45,2,7.33,7.33,0,0,1-5.3-2q-2-1.95-2-5.9V471.82H624v-3.69h3.9v-7.38h4.89v7.38h8.42v3.69h-8.42v14.35a5.09,5.09,0,0,0,.83,3.28,3.08,3.08,0,0,0,2.5,1,8.72,8.72,0,0,0,4.26-1.3Z"/><path class="cls-4" d="M665.92,468.8a12.71,12.71,0,0,1,5,4.91,15.41,15.41,0,0,1,0,14.43,12.66,12.66,0,0,1-5,4.94,16.09,16.09,0,0,1-14.66,0,12.7,12.7,0,0,1-5-4.91,15.46,15.46,0,0,1,0-14.46,12.71,12.71,0,0,1,5-4.91,16.08,16.08,0,0,1,14.66,0Zm-12.12,3.69a8.63,8.63,0,0,0-3.28,3.46,10.56,10.56,0,0,0-1.17,5,10.82,10.82,0,0,0,1.17,5.1,8.41,8.41,0,0,0,3.28,3.46,9.4,9.4,0,0,0,4.81,1.22,9.3,9.3,0,0,0,4.76-1.22,8.41,8.41,0,0,0,3.28-3.46,10.82,10.82,0,0,0,1.17-5.1,10.56,10.56,0,0,0-1.17-5,8.63,8.63,0,0,0-3.28-3.46,9.15,9.15,0,0,0-4.76-1.25A9.25,9.25,0,0,0,653.8,472.49Z"/><path class="cls-4" d="M707.85,492.88a11.85,11.85,0,0,1-6.45,2,7.33,7.33,0,0,1-5.3-2q-2-1.95-2-5.9V471.82h-3.9v-3.69h3.9v-7.38H699v7.38h8.42v3.69H699v14.35a5.09,5.09,0,0,0,.83,3.28,3.08,3.08,0,0,0,2.5,1,8.72,8.72,0,0,0,4.26-1.3Z"/><path class="cls-4" d="M736.92,469.87a10.75,10.75,0,0,1,2.76,7.83v17h-4.84V479a6.76,6.76,0,0,0-7.33-7.38,8.18,8.18,0,0,0-6.34,2.7,10,10,0,0,0-2.34,6.86V494.7H714V456.11h4.84v17q2.76-6,10.5-6.08A10.1,10.1,0,0,1,736.92,469.87Z"/><path class="cls-4" d="M769,470.8q3.28,3.77,3.28,10.48,0,1-.05,1.56H750.49a9.37,9.37,0,0,0,3.09,5.88,9.16,9.16,0,0,0,6.21,2.18,11.63,11.63,0,0,0,4.55-.88,10.93,10.93,0,0,0,3.67-2.5l2.65,2.76a13.88,13.88,0,0,1-4.89,3.38,16.29,16.29,0,0,1-6.34,1.2,14.61,14.61,0,0,1-7.2-1.74,12.23,12.23,0,0,1-4.89-4.91,15.82,15.82,0,0,1,0-14.43,12.69,12.69,0,0,1,4.86-4.94,14,14,0,0,1,7.12-1.79Q765.73,467,769,470.8Zm-1.09,8.29a8,8,0,0,0-8.53-8.06,8.7,8.7,0,0,0-6.06,2.18,9.16,9.16,0,0,0-2.89,5.88Z"/><path class="cls-4" d="M242.33,520.7h5v16.22h20.8V520.7h5v36.4h-5V541.45h-20.8V557.1h-5Z"/><path class="cls-4" d="M299.89,557.1v-3.85q-3.07,4.06-9.62,4.06a11,11,0,0,1-5-1.09,8,8,0,0,1-3.33-3,8.15,8.15,0,0,1-1.17-4.32,7.06,7.06,0,0,1,2.73-5.85q2.73-2.16,7.62-2.21h8.74v-1.3A5.69,5.69,0,0,0,298,535a7.66,7.66,0,0,0-5.23-1.59,15,15,0,0,0-8.48,3l-2-3.33a25.16,25.16,0,0,1,5.49-2.78,18.71,18.71,0,0,1,6-.86q5.15,0,8,2.52a9.14,9.14,0,0,1,2.86,7l.05,18.1ZM297,551.66a6.46,6.46,0,0,0,2.83-4.34v-2.76h-8.06a9.41,9.41,0,0,0-4.86,1,3.41,3.41,0,0,0-1.59,3.12,4,4,0,0,0,1.61,3.38,6.87,6.87,0,0,0,4.32,1.25A9.84,9.84,0,0,0,297,551.66Z"/><path class="cls-4" d="M324.75,533.75a9.56,9.56,0,0,0-4.81,1.2,8.5,8.5,0,0,0-3.3,3.38,10.33,10.33,0,0,0-1.2,5,10.52,10.52,0,0,0,1.17,5,8.59,8.59,0,0,0,3.22,3.41,9,9,0,0,0,4.71,1.22,12.38,12.38,0,0,0,4.78-.88,9.11,9.11,0,0,0,3.54-2.55l2.76,2.81a12.16,12.16,0,0,1-4.76,3.59,16.29,16.29,0,0,1-6.53,1.25,14.19,14.19,0,0,1-7.12-1.77,12.5,12.5,0,0,1-4.86-4.91,14.62,14.62,0,0,1-1.74-7.2,14.77,14.77,0,0,1,1.74-7.23,12.46,12.46,0,0,1,4.86-4.94,14.2,14.2,0,0,1,7.12-1.77,17.43,17.43,0,0,1,6.27,1.07,12.14,12.14,0,0,1,4.65,3.09l-2.65,3.33A10.89,10.89,0,0,0,324.75,533.75Z"/><path class="cls-4" d="M361.77,557.1,353,543.73l-5.36,5.56v7.8h-4.84V518.51h4.84v24.6l13.31-13.52h5.67l-10.24,10.66L367.6,557.1Z"/><path class="cls-4" d="M387.57,555.28a11.85,11.85,0,0,1-6.45,2,7.33,7.33,0,0,1-5.3-2q-2-1.95-2-5.9V534.22h-3.9v-3.69h3.9v-7.38h4.89v7.38h8.42v3.69h-8.42v14.35a5.09,5.09,0,0,0,.83,3.28,3.08,3.08,0,0,0,2.5,1,8.72,8.72,0,0,0,4.26-1.3Z"/><path class="cls-4" d="M411.82,531.2a12.71,12.71,0,0,1,5,4.91,15.41,15.41,0,0,1,0,14.43,12.66,12.66,0,0,1-5,4.94,16.09,16.09,0,0,1-14.66,0,12.7,12.7,0,0,1-5-4.91,15.46,15.46,0,0,1,0-14.46,12.71,12.71,0,0,1,5-4.91,16.08,16.08,0,0,1,14.66,0Zm-12.12,3.69a8.63,8.63,0,0,0-3.28,3.46,10.56,10.56,0,0,0-1.17,5,10.82,10.82,0,0,0,1.17,5.1,8.41,8.41,0,0,0,3.28,3.46,9.4,9.4,0,0,0,4.81,1.22,9.3,9.3,0,0,0,4.76-1.22,8.41,8.41,0,0,0,3.28-3.46,10.82,10.82,0,0,0,1.17-5.1,10.56,10.56,0,0,0-1.17-5,8.63,8.63,0,0,0-3.28-3.46,9.15,9.15,0,0,0-4.76-1.25A9.25,9.25,0,0,0,399.71,534.89Z"/><path class="cls-4" d="M447.52,531.2a12.14,12.14,0,0,1,4.68,4.94,16.71,16.71,0,0,1,0,14.48,11.87,11.87,0,0,1-4.63,4.89,13.33,13.33,0,0,1-6.84,1.74,12.54,12.54,0,0,1-6.14-1.46,10.43,10.43,0,0,1-4.16-4.16v5.46h-4.84V518.51h4.84V535a10.49,10.49,0,0,1,4.13-4.16,12.29,12.29,0,0,1,6.06-1.46A13.32,13.32,0,0,1,447.52,531.2Zm-3,20.59a8.58,8.58,0,0,0,3.28-3.48,10.71,10.71,0,0,0,1.17-5,10.42,10.42,0,0,0-1.2-5,8.84,8.84,0,0,0-3.28-3.48,9,9,0,0,0-4.73-1.25,9.16,9.16,0,0,0-4.76,1.25,8.76,8.76,0,0,0-3.3,3.48,11.18,11.18,0,0,0,0,10.06,8.8,8.8,0,0,0,3.3,3.46,9.69,9.69,0,0,0,9.52,0Z"/><path class="cls-4" d="M481.32,533.2q3.28,3.77,3.28,10.48,0,1-.05,1.56H462.81a9.37,9.37,0,0,0,3.09,5.88,9.16,9.16,0,0,0,6.21,2.18,11.63,11.63,0,0,0,4.55-.88,10.93,10.93,0,0,0,3.67-2.5l2.65,2.76a13.88,13.88,0,0,1-4.89,3.38,16.29,16.29,0,0,1-6.34,1.2,14.61,14.61,0,0,1-7.2-1.74,12.23,12.23,0,0,1-4.89-4.91,15.82,15.82,0,0,1,0-14.43,12.69,12.69,0,0,1,4.86-4.94,14,14,0,0,1,7.12-1.79Q478,529.43,481.32,533.2Zm-1.09,8.29a8,8,0,0,0-8.53-8.06,8.7,8.7,0,0,0-6.06,2.18,9.16,9.16,0,0,0-2.89,5.88Z"/><path class="cls-4" d="M499.88,531a11.45,11.45,0,0,1,5.93-1.59v4.68a8.85,8.85,0,0,0-9.78,8.48V557.1H491.2V529.59H496v5.93A10,10,0,0,1,499.88,531Z"/><path class="cls-4" d="M518.08,523.66a4.22,4.22,0,0,0-1.25,3.28v3.59h7.59v3.69h-7.59V557.1H512V534.22h-3.59v-3.69H512v-3a9.71,9.71,0,0,1,1.27-5.12,8.3,8.3,0,0,1,3.35-3.17,9.67,9.67,0,0,1,4.47-1.07,10.7,10.7,0,0,1,4.78,1.25l-1.14,4a8.3,8.3,0,0,0-3.54-.88A4.44,4.44,0,0,0,518.08,523.66Z"/><path class="cls-4" d="M549,533.2q3.28,3.77,3.28,10.48,0,1-.05,1.56H530.51a9.37,9.37,0,0,0,3.09,5.88,9.16,9.16,0,0,0,6.21,2.18,11.63,11.63,0,0,0,4.55-.88,10.93,10.93,0,0,0,3.67-2.5l2.65,2.76a13.88,13.88,0,0,1-4.89,3.38,16.29,16.29,0,0,1-6.34,1.2,14.61,14.61,0,0,1-7.2-1.74,12.23,12.23,0,0,1-4.89-4.91,15.82,15.82,0,0,1,0-14.43,12.69,12.69,0,0,1,4.86-4.94,14,14,0,0,1,7.12-1.79Q545.75,529.43,549,533.2Zm-1.09,8.29a8,8,0,0,0-8.53-8.06,8.7,8.7,0,0,0-6.06,2.18,9.16,9.16,0,0,0-2.89,5.88Z"/><path class="cls-4" d="M570.16,534a13.51,13.51,0,0,0-3.93-.62,6.71,6.71,0,0,0-3.51.81,2.69,2.69,0,0,0-1.33,2.47,2.75,2.75,0,0,0,1.48,2.52,21.53,21.53,0,0,0,4.5,1.74,35.22,35.22,0,0,1,4.68,1.66,8.32,8.32,0,0,1,3.09,2.44,7.57,7.57,0,0,1-1.66,10.19,12.56,12.56,0,0,1-7.31,2,18.25,18.25,0,0,1-6-1,13.52,13.52,0,0,1-4.86-2.81l1.82-3.54a12.89,12.89,0,0,0,4.24,2.5,14.08,14.08,0,0,0,4.91.94,7.35,7.35,0,0,0,3.85-.88,3,3,0,0,0,1.46-2.7,3.08,3.08,0,0,0-1.53-2.81,20.9,20.9,0,0,0-4.65-1.87,31.06,31.06,0,0,1-4.5-1.59,8,8,0,0,1-3-2.37,6.38,6.38,0,0,1-1.22-4.06,6.53,6.53,0,0,1,2.81-5.77,12.14,12.14,0,0,1,7-1.92,17.54,17.54,0,0,1,4.91.7,14.8,14.8,0,0,1,4.19,1.9l-1.77,3.69A16.47,16.47,0,0,0,570.16,534Z"/><path class="cls-4" d="M597.59,555.28a11.85,11.85,0,0,1-6.45,2,7.33,7.33,0,0,1-5.3-2q-2-1.95-2-5.9V534.22h-3.9v-3.69h3.9v-7.38h4.89v7.38h8.42v3.69H588.7v14.35a5.09,5.09,0,0,0,.83,3.28,3.08,3.08,0,0,0,2.5,1,8.72,8.72,0,0,0,4.26-1.3Z"/><path class="cls-4" d="M621.64,519.5a3.34,3.34,0,0,1,0,4.47,3.08,3.08,0,0,1-4.32,0,3.34,3.34,0,0,1,0-4.47,3.08,3.08,0,0,1,4.32,0Zm-4.55,10.09h4.84V557.1h-4.84Z"/><path class="cls-4" d="M642.6,534a13.51,13.51,0,0,0-3.93-.62,6.71,6.71,0,0,0-3.51.81,2.69,2.69,0,0,0-1.33,2.47,2.75,2.75,0,0,0,1.48,2.52,21.53,21.53,0,0,0,4.5,1.74,35.22,35.22,0,0,1,4.68,1.66,8.32,8.32,0,0,1,3.09,2.44,7.57,7.57,0,0,1-1.66,10.19,12.56,12.56,0,0,1-7.31,2,18.25,18.25,0,0,1-6-1,13.52,13.52,0,0,1-4.86-2.81l1.82-3.54a12.89,12.89,0,0,0,4.24,2.5,14.08,14.08,0,0,0,4.91.94,7.35,7.35,0,0,0,3.85-.88,3,3,0,0,0,1.46-2.7,3.08,3.08,0,0,0-1.53-2.81,20.9,20.9,0,0,0-4.65-1.87,31.06,31.06,0,0,1-4.5-1.59,8,8,0,0,1-3-2.37,6.38,6.38,0,0,1-1.22-4.06,6.53,6.53,0,0,1,2.81-5.77,12.14,12.14,0,0,1,7-1.92,17.54,17.54,0,0,1,4.91.7,14.8,14.8,0,0,1,4.19,1.9l-1.77,3.69A16.47,16.47,0,0,0,642.6,534Z"/><path class="cls-4" d="M666.52,534a13.51,13.51,0,0,0-3.93-.62,6.71,6.71,0,0,0-3.51.81,2.69,2.69,0,0,0-1.33,2.47,2.75,2.75,0,0,0,1.48,2.52,21.53,21.53,0,0,0,4.5,1.74,35.22,35.22,0,0,1,4.68,1.66,8.32,8.32,0,0,1,3.09,2.44,7.57,7.57,0,0,1-1.66,10.19,12.56,12.56,0,0,1-7.31,2,18.25,18.25,0,0,1-6-1,13.52,13.52,0,0,1-4.86-2.81l1.82-3.54a12.89,12.89,0,0,0,4.24,2.5,14.08,14.08,0,0,0,4.91.94,7.35,7.35,0,0,0,3.85-.88,3,3,0,0,0,1.46-2.7,3.08,3.08,0,0,0-1.53-2.81,20.9,20.9,0,0,0-4.65-1.87,31.06,31.06,0,0,1-4.5-1.59,8,8,0,0,1-3-2.37,6.38,6.38,0,0,1-1.22-4.06,6.53,6.53,0,0,1,2.81-5.77,12.14,12.14,0,0,1,7-1.92,17.54,17.54,0,0,1,4.91.7,14.8,14.8,0,0,1,4.19,1.9l-1.77,3.69A16.47,16.47,0,0,0,666.52,534Z"/><path class="cls-4" d="M703.52,529.59V557.1h-4.89v-5.82q-2.7,5.88-10.19,6a9.85,9.85,0,0,1-7.49-2.83q-2.7-2.83-2.7-7.83v-17h4.89v15.7a7.46,7.46,0,0,0,1.9,5.43,7,7,0,0,0,5.23,2,7.73,7.73,0,0,0,6.11-2.73,10.23,10.23,0,0,0,2.26-6.84V529.59Z"/><path class="cls-4" d="M733.62,533.2q3.28,3.77,3.28,10.48,0,1-.05,1.56H715.11a9.37,9.37,0,0,0,3.09,5.88,9.16,9.16,0,0,0,6.21,2.18,11.63,11.63,0,0,0,4.55-.88,10.93,10.93,0,0,0,3.67-2.5l2.65,2.76a13.88,13.88,0,0,1-4.89,3.38,16.29,16.29,0,0,1-6.34,1.2,14.61,14.61,0,0,1-7.2-1.74A12.23,12.23,0,0,1,712,550.6a15.82,15.82,0,0,1,0-14.43,12.69,12.69,0,0,1,4.86-4.94,14,14,0,0,1,7.12-1.79Q730.35,529.43,733.62,533.2Zm-1.09,8.29a8,8,0,0,0-8.53-8.06,8.7,8.7,0,0,0-6.06,2.18,9.16,9.16,0,0,0-2.89,5.88Z"/><path class="cls-4" d="M754.76,534a13.51,13.51,0,0,0-3.93-.62,6.71,6.71,0,0,0-3.51.81,2.69,2.69,0,0,0-1.33,2.47,2.75,2.75,0,0,0,1.48,2.52,21.53,21.53,0,0,0,4.5,1.74,35.22,35.22,0,0,1,4.68,1.66,8.32,8.32,0,0,1,3.09,2.44,7.57,7.57,0,0,1-1.66,10.19,12.56,12.56,0,0,1-7.31,2,18.25,18.25,0,0,1-6-1,13.52,13.52,0,0,1-4.86-2.81l1.82-3.54a12.89,12.89,0,0,0,4.24,2.5,14.08,14.08,0,0,0,4.91.94,7.35,7.35,0,0,0,3.85-.88,3,3,0,0,0,1.46-2.7,3.08,3.08,0,0,0-1.53-2.81,20.9,20.9,0,0,0-4.65-1.87,31.06,31.06,0,0,1-4.5-1.59,8,8,0,0,1-3-2.37,6.38,6.38,0,0,1-1.22-4.06,6.53,6.53,0,0,1,2.81-5.77,12.14,12.14,0,0,1,7-1.92,17.54,17.54,0,0,1,4.91.7,14.8,14.8,0,0,1,4.19,1.9l-1.77,3.69A16.47,16.47,0,0,0,754.76,534Z"/><path class="cls-4" d="M799.79,531.2a12.71,12.71,0,0,1,5,4.91,15.41,15.41,0,0,1,0,14.43,12.66,12.66,0,0,1-5,4.94,16.09,16.09,0,0,1-14.66,0,12.7,12.7,0,0,1-5-4.91,15.46,15.46,0,0,1,0-14.46,12.71,12.71,0,0,1,5-4.91,16.08,16.08,0,0,1,14.66,0Zm-12.12,3.69a8.63,8.63,0,0,0-3.28,3.46,10.56,10.56,0,0,0-1.17,5,10.82,10.82,0,0,0,1.17,5.1,8.41,8.41,0,0,0,3.28,3.46,9.4,9.4,0,0,0,4.81,1.22,9.3,9.3,0,0,0,4.76-1.22,8.41,8.41,0,0,0,3.28-3.46,10.82,10.82,0,0,0,1.17-5.1,10.56,10.56,0,0,0-1.17-5,8.63,8.63,0,0,0-3.28-3.46,9.15,9.15,0,0,0-4.76-1.25A9.25,9.25,0,0,0,787.68,534.89Z"/><path class="cls-4" d="M836.22,532.27a10.75,10.75,0,0,1,2.76,7.83v17h-4.84v-15.7a7.35,7.35,0,0,0-2-5.43,7.27,7.27,0,0,0-5.38-1.95,8.3,8.3,0,0,0-6,2.37,9.29,9.29,0,0,0-2.63,6V557.1h-4.84V529.59h4.84v5.82q2.76-5.88,10.45-6A10.1,10.1,0,0,1,836.22,532.27Z"/><path class="cls-4" d="M277,585.23a18.37,18.37,0,0,1,6.94,6.68,17.78,17.78,0,0,1,2.55,9.33,18,18,0,0,1-2.55,9.39,18.43,18.43,0,0,1-6.94,6.76,20.07,20.07,0,0,1-19.29,0,18.42,18.42,0,0,1-6.94-6.76,18,18,0,0,1-2.55-9.39,17.77,17.77,0,0,1,2.55-9.33,18.41,18.41,0,0,1,6.92-6.68,20.31,20.31,0,0,1,19.32,0Zm-16.64,3.9a14.22,14.22,0,0,0-5.17,5.07,13.91,13.91,0,0,0,0,14.12,14.36,14.36,0,0,0,5.17,5.12,13.72,13.72,0,0,0,7,1.9,13.45,13.45,0,0,0,7-1.9,14.29,14.29,0,0,0,5.1-5.12,14.07,14.07,0,0,0,0-14.12,14.15,14.15,0,0,0-5.1-5.07,13.6,13.6,0,0,0-7-1.87A13.87,13.87,0,0,0,260.35,589.13Z"/><path class="cls-4" d="M315.34,593.6a12.14,12.14,0,0,1,4.68,4.94A16.71,16.71,0,0,1,320,613a11.87,11.87,0,0,1-4.63,4.89,13.33,13.33,0,0,1-6.84,1.74,12.54,12.54,0,0,1-6.14-1.46,10.43,10.43,0,0,1-4.16-4.16v15.55h-4.84V592h4.84v5.46a10.49,10.49,0,0,1,4.13-4.16,12.29,12.29,0,0,1,6.06-1.46A13.32,13.32,0,0,1,315.34,593.6Zm-3,20.59a8.58,8.58,0,0,0,3.28-3.48,10.71,10.71,0,0,0,1.17-5,10.42,10.42,0,0,0-1.2-5,8.84,8.84,0,0,0-3.28-3.48,9,9,0,0,0-4.73-1.25,9.16,9.16,0,0,0-4.76,1.25,8.76,8.76,0,0,0-3.3,3.48,11.18,11.18,0,0,0,0,10.06,8.8,8.8,0,0,0,3.3,3.46,9.69,9.69,0,0,0,9.52,0Z"/><path class="cls-4" d="M349.14,595.6q3.28,3.77,3.28,10.48,0,1-.05,1.56H330.62a9.37,9.37,0,0,0,3.09,5.88,9.16,9.16,0,0,0,6.21,2.18,11.63,11.63,0,0,0,4.55-.88,10.93,10.93,0,0,0,3.67-2.5l2.65,2.76a13.88,13.88,0,0,1-4.89,3.38,16.29,16.29,0,0,1-6.34,1.2,14.61,14.61,0,0,1-7.2-1.74,12.23,12.23,0,0,1-4.89-4.91,15.82,15.82,0,0,1,0-14.43,12.69,12.69,0,0,1,4.86-4.94,14,14,0,0,1,7.12-1.79Q345.86,591.83,349.14,595.6ZM348,603.9a8,8,0,0,0-8.53-8.06,8.7,8.7,0,0,0-6.06,2.18,9.16,9.16,0,0,0-2.89,5.88Z"/><path class="cls-4" d="M381.9,594.67a10.75,10.75,0,0,1,2.76,7.83v17h-4.84v-15.7a7.35,7.35,0,0,0-2-5.43,7.27,7.27,0,0,0-5.38-1.95,8.3,8.3,0,0,0-6,2.37,9.29,9.29,0,0,0-2.63,6V619.5H359V592h4.84v5.82q2.76-5.88,10.45-6A10.1,10.1,0,0,1,381.9,594.67Z"/><path class="cls-4" d="M393.75,583.1H419v4.52H398.74v11.23h18.15v4.52H398.74V615h20.9v4.52h-25.9Z"/><path class="cls-4" d="M452,585.52a7.91,7.91,0,0,1,3.2,6.68,8.06,8.06,0,0,1-1.77,5.28,8.6,8.6,0,0,1-4.84,2.89,9.47,9.47,0,0,1,6,3,9,9,0,0,1,2.16,6.16,8.61,8.61,0,0,1-3.51,7.31q-3.51,2.63-9.7,2.63H427.71V583.1h15.55Q448.82,583.1,452,585.52Zm-3.8,11.6a4.86,4.86,0,0,0,1.85-4.08,4.73,4.73,0,0,0-1.85-4,8.27,8.27,0,0,0-5.23-1.35H432.7v10.87H443A8.36,8.36,0,0,0,448.22,597.11Zm1.12,16.28a5.1,5.1,0,0,0,2.29-4.45,4.94,4.94,0,0,0-2.29-4.32,11.15,11.15,0,0,0-6.34-1.56H432.7v11.86H443A10.75,10.75,0,0,0,449.34,613.39Z"/><path class="cls-4" d="M480.72,588.27a17.85,17.85,0,0,0-5-.81,9.27,9.27,0,0,0-5.07,1.22,3.8,3.8,0,0,0-1.9,3.35,4.42,4.42,0,0,0,1.14,3.15,8.09,8.09,0,0,0,2.81,1.92q1.66.7,4.63,1.64a52.44,52.44,0,0,1,6,2.18,10.37,10.37,0,0,1,3.9,3.09,8.56,8.56,0,0,1,1.61,5.43,9.08,9.08,0,0,1-1.69,5.46,10.82,10.82,0,0,1-4.73,3.61,18,18,0,0,1-7,1.27,20.34,20.34,0,0,1-7.8-1.56,21.14,21.14,0,0,1-6.55-4.16l2.24-4.32a18.76,18.76,0,0,0,5.85,3.93,16.12,16.12,0,0,0,6.32,1.38,10.1,10.1,0,0,0,5.75-1.43,4.46,4.46,0,0,0,2.11-3.87,4.52,4.52,0,0,0-1.14-3.17,8.07,8.07,0,0,0-2.89-2,49.51,49.51,0,0,0-4.71-1.61,48,48,0,0,1-5.93-2.13,10.24,10.24,0,0,1-3.87-3.07,8.45,8.45,0,0,1-1.59-5.36,8.57,8.57,0,0,1,1.61-5.15,10.18,10.18,0,0,1,4.52-3.43,17.7,17.7,0,0,1,6.76-1.2,21.85,21.85,0,0,1,6.42,1,21.57,21.57,0,0,1,5.59,2.57L486,590.69A21,21,0,0,0,480.72,588.27Z"/><path class="cls-4" d="M526.72,619.5v-3.85q-3.07,4.06-9.62,4.06a11,11,0,0,1-5-1.09,8,8,0,0,1-3.33-3,8.15,8.15,0,0,1-1.17-4.32,7.06,7.06,0,0,1,2.73-5.85q2.73-2.16,7.62-2.21h8.74v-1.3a5.69,5.69,0,0,0-1.79-4.5,7.66,7.66,0,0,0-5.23-1.59,15,15,0,0,0-8.48,3l-2-3.33a25.16,25.16,0,0,1,5.49-2.78,18.71,18.71,0,0,1,6-.86q5.15,0,8,2.52a9.14,9.14,0,0,1,2.86,7l.05,18.1Zm-2.89-5.43a6.46,6.46,0,0,0,2.83-4.34V607H518.6a9.41,9.41,0,0,0-4.86,1,3.41,3.41,0,0,0-1.59,3.12,4,4,0,0,0,1.61,3.38,6.87,6.87,0,0,0,4.32,1.25A9.84,9.84,0,0,0,523.83,614.06Z"/><path class="cls-4" d="M563,594.67a10.75,10.75,0,0,1,2.76,7.83v17h-4.84v-15.7a7.35,7.35,0,0,0-2-5.43,7.27,7.27,0,0,0-5.38-1.95,8.3,8.3,0,0,0-6,2.37,9.29,9.29,0,0,0-2.63,6V619.5h-4.84V592H545v5.82q2.76-5.88,10.45-6A10.1,10.1,0,0,1,563,594.67Z"/><path class="cls-4" d="M600,580.91V619.5H595.2V614a10.93,10.93,0,0,1-4.19,4.24,12.22,12.22,0,0,1-6.11,1.48A13.13,13.13,0,0,1,578,618a12.32,12.32,0,0,1-4.65-5,15.59,15.59,0,0,1-1.66-7.31,15.16,15.16,0,0,1,1.66-7.2,12.23,12.23,0,0,1,4.65-4.91,13.19,13.19,0,0,1,6.84-1.77,12.66,12.66,0,0,1,6.19,1.46,10.36,10.36,0,0,1,4.16,4.21V580.91Zm-9.33,33.44a8.76,8.76,0,0,0,3.3-3.48,10.53,10.53,0,0,0,1.2-5,10.64,10.64,0,0,0-1.2-5.1,8.77,8.77,0,0,0-3.3-3.48,9.26,9.26,0,0,0-4.81-1.25,9.11,9.11,0,0,0-4.81,1.27,9,9,0,0,0-3.3,3.51,11.23,11.23,0,0,0,0,10.09,8.76,8.76,0,0,0,3.3,3.48,9.89,9.89,0,0,0,9.62,0Z"/><path class="cls-4" d="M618.81,592h5l7.7,22.72L639.14,592h5l7.64,22.72L659.42,592h5L654.27,619.5h-5l-7.59-21.63L634,619.5h-5Z"/><path class="cls-4" d="M673.48,581.9a3.34,3.34,0,0,1,0,4.47,3.08,3.08,0,0,1-4.32,0,3.34,3.34,0,0,1,0-4.47,3.08,3.08,0,0,1,4.32,0ZM668.93,592h4.84V619.5h-4.84Z"/><path class="cls-4" d="M706.06,594.67a10.75,10.75,0,0,1,2.76,7.83v17H704v-15.7a7.35,7.35,0,0,0-2-5.43,7.27,7.27,0,0,0-5.38-1.95,8.3,8.3,0,0,0-6,2.37,9.29,9.29,0,0,0-2.63,6V619.5h-4.84V592H688v5.82q2.76-5.88,10.45-6A10.1,10.1,0,0,1,706.06,594.67Z"/><path class="cls-4" d="M742.51,596.15a9.56,9.56,0,0,0-4.81,1.2,8.5,8.5,0,0,0-3.3,3.38,10.33,10.33,0,0,0-1.2,5,10.52,10.52,0,0,0,1.17,5,8.59,8.59,0,0,0,3.22,3.41,9,9,0,0,0,4.71,1.22,12.38,12.38,0,0,0,4.78-.88,9.11,9.11,0,0,0,3.54-2.55l2.76,2.81a12.16,12.16,0,0,1-4.76,3.59,16.29,16.29,0,0,1-6.53,1.25,14.19,14.19,0,0,1-7.12-1.77,12.5,12.5,0,0,1-4.86-4.91,14.62,14.62,0,0,1-1.74-7.2,14.77,14.77,0,0,1,1.74-7.23A12.46,12.46,0,0,1,735,593.6a14.2,14.2,0,0,1,7.12-1.77,17.43,17.43,0,0,1,6.27,1.07A12.14,12.14,0,0,1,753,596l-2.65,3.33A10.89,10.89,0,0,0,742.51,596.15Z"/><path class="cls-4" d="M777.85,593.6a12.71,12.71,0,0,1,5,4.91,15.41,15.41,0,0,1,0,14.43,12.66,12.66,0,0,1-5,4.94,16.09,16.09,0,0,1-14.66,0,12.7,12.7,0,0,1-5-4.91,15.46,15.46,0,0,1,0-14.46,12.71,12.71,0,0,1,5-4.91,16.08,16.08,0,0,1,14.66,0Zm-12.12,3.69a8.63,8.63,0,0,0-3.28,3.46,10.56,10.56,0,0,0-1.17,5,10.82,10.82,0,0,0,1.17,5.1,8.41,8.41,0,0,0,3.28,3.46,9.4,9.4,0,0,0,4.81,1.22,9.3,9.3,0,0,0,4.76-1.22,8.41,8.41,0,0,0,3.28-3.46,10.82,10.82,0,0,0,1.17-5.1,10.56,10.56,0,0,0-1.17-5,8.63,8.63,0,0,0-3.28-3.46,9.15,9.15,0,0,0-4.76-1.25A9.25,9.25,0,0,0,765.73,597.29Z"/><path class="cls-4" d="M810.14,593.6a12.71,12.71,0,0,1,5,4.91,15.41,15.41,0,0,1,0,14.43,12.66,12.66,0,0,1-5,4.94,16.09,16.09,0,0,1-14.66,0,12.7,12.7,0,0,1-5-4.91,15.46,15.46,0,0,1,0-14.46,12.71,12.71,0,0,1,5-4.91,16.08,16.08,0,0,1,14.66,0ZM798,597.29a8.63,8.63,0,0,0-3.28,3.46,10.56,10.56,0,0,0-1.17,5,10.82,10.82,0,0,0,1.17,5.1,8.41,8.41,0,0,0,3.28,3.46,9.4,9.4,0,0,0,4.81,1.22,9.3,9.3,0,0,0,4.76-1.22,8.41,8.41,0,0,0,3.28-3.46,10.82,10.82,0,0,0,1.17-5.1,10.56,10.56,0,0,0-1.17-5,8.63,8.63,0,0,0-3.28-3.46,9.15,9.15,0,0,0-4.76-1.25A9.25,9.25,0,0,0,798,597.29Z"/><path class="cls-4" d="M823.94,580.91h4.84V619.5h-4.84Z"/><path class="cls-4" d="M364.4,645.5h5v16.22h20.8V645.5h5v36.4h-5V666.25h-20.8V681.9h-5Z"/><path class="cls-4" d="M422,681.9V678q-3.07,4.06-9.62,4.06a11,11,0,0,1-5-1.09,8,8,0,0,1-3.33-3,8.15,8.15,0,0,1-1.17-4.32,7.06,7.06,0,0,1,2.73-5.85q2.73-2.16,7.62-2.21h8.74v-1.3a5.69,5.69,0,0,0-1.79-4.5,7.66,7.66,0,0,0-5.23-1.59,15,15,0,0,0-8.48,3l-2-3.33a25.16,25.16,0,0,1,5.49-2.78,18.71,18.71,0,0,1,6-.86q5.15,0,8,2.52a9.14,9.14,0,0,1,2.86,7l.05,18.1Zm-2.89-5.43a6.46,6.46,0,0,0,2.83-4.34v-2.76h-8.06a9.41,9.41,0,0,0-4.86,1,3.41,3.41,0,0,0-1.59,3.12,4,4,0,0,0,1.61,3.38,6.87,6.87,0,0,0,4.32,1.25A9.84,9.84,0,0,0,419.08,676.46Z"/><path class="cls-4" d="M446.82,658.55a9.56,9.56,0,0,0-4.81,1.2,8.5,8.5,0,0,0-3.3,3.38,10.33,10.33,0,0,0-1.2,5,10.52,10.52,0,0,0,1.17,5,8.59,8.59,0,0,0,3.22,3.41,9,9,0,0,0,4.71,1.22,12.38,12.38,0,0,0,4.78-.88,9.11,9.11,0,0,0,3.54-2.55l2.76,2.81a12.16,12.16,0,0,1-4.76,3.59,16.29,16.29,0,0,1-6.53,1.25,14.19,14.19,0,0,1-7.12-1.77,12.5,12.5,0,0,1-4.86-4.91,14.62,14.62,0,0,1-1.74-7.2,14.77,14.77,0,0,1,1.74-7.23,12.46,12.46,0,0,1,4.86-4.94,14.2,14.2,0,0,1,7.12-1.77,17.43,17.43,0,0,1,6.27,1.07,12.14,12.14,0,0,1,4.65,3.09l-2.65,3.33A10.89,10.89,0,0,0,446.82,658.55Z"/><path class="cls-4" d="M483.84,681.9l-8.79-13.36-5.36,5.56v7.8h-4.84V643.31h4.84v24.6L483,654.39h5.67L478.43,665l11.23,16.85Z"/><path class="cls-4" d="M509.63,680.08a11.85,11.85,0,0,1-6.45,2,7.33,7.33,0,0,1-5.3-2q-2-1.95-2-5.9V659H492v-3.69h3.9v-7.38h4.89v7.38h8.42V659h-8.42v14.35a5.09,5.09,0,0,0,.83,3.28,3.08,3.08,0,0,0,2.5,1,8.72,8.72,0,0,0,4.26-1.3Z"/><path class="cls-4" d="M533.89,656a12.71,12.71,0,0,1,5,4.91,15.41,15.41,0,0,1,0,14.43,12.66,12.66,0,0,1-5,4.94,16.09,16.09,0,0,1-14.66,0,12.7,12.7,0,0,1-5-4.91,15.46,15.46,0,0,1,0-14.46,12.71,12.71,0,0,1,5-4.91,16.08,16.08,0,0,1,14.66,0Zm-12.12,3.69a8.63,8.63,0,0,0-3.28,3.46,10.56,10.56,0,0,0-1.17,5,10.82,10.82,0,0,0,1.17,5.1,8.41,8.41,0,0,0,3.28,3.46,9.4,9.4,0,0,0,4.81,1.22,9.3,9.3,0,0,0,4.76-1.22,8.41,8.41,0,0,0,3.28-3.46,10.82,10.82,0,0,0,1.17-5.1,10.56,10.56,0,0,0-1.17-5,8.63,8.63,0,0,0-3.28-3.46,9.15,9.15,0,0,0-4.76-1.25A9.25,9.25,0,0,0,521.78,659.69Z"/><path class="cls-4" d="M569.59,656a12.14,12.14,0,0,1,4.68,4.94,16.71,16.71,0,0,1,0,14.48,11.87,11.87,0,0,1-4.63,4.89,13.33,13.33,0,0,1-6.84,1.74,12.54,12.54,0,0,1-6.14-1.46,10.43,10.43,0,0,1-4.16-4.16v5.46H547.7V643.31h4.84v16.54a10.49,10.49,0,0,1,4.13-4.16,12.29,12.29,0,0,1,6.06-1.46A13.32,13.32,0,0,1,569.59,656Zm-3,20.59a8.58,8.58,0,0,0,3.28-3.48,10.71,10.71,0,0,0,1.17-5,10.42,10.42,0,0,0-1.2-5,8.84,8.84,0,0,0-3.28-3.48,9,9,0,0,0-4.73-1.25,9.16,9.16,0,0,0-4.76,1.25,8.76,8.76,0,0,0-3.3,3.48,11.18,11.18,0,0,0,0,10.06,8.8,8.8,0,0,0,3.3,3.46,9.69,9.69,0,0,0,9.52,0Z"/><path class="cls-4" d="M603.39,658q3.28,3.77,3.28,10.48,0,1-.05,1.56H584.88a9.37,9.37,0,0,0,3.09,5.88,9.16,9.16,0,0,0,6.21,2.18,11.63,11.63,0,0,0,4.55-.88,10.93,10.93,0,0,0,3.67-2.5l2.65,2.76a13.88,13.88,0,0,1-4.89,3.38,16.29,16.29,0,0,1-6.34,1.2,14.61,14.61,0,0,1-7.2-1.74,12.23,12.23,0,0,1-4.89-4.91,15.82,15.82,0,0,1,0-14.43,12.69,12.69,0,0,1,4.86-4.94,14,14,0,0,1,7.12-1.79Q600.11,654.23,603.39,658Zm-1.09,8.29a8,8,0,0,0-8.53-8.06,8.7,8.7,0,0,0-6.06,2.18,9.16,9.16,0,0,0-2.89,5.88Z"/><path class="cls-4" d="M622,655.82a11.45,11.45,0,0,1,5.93-1.59v4.68a8.85,8.85,0,0,0-9.78,8.48V681.9h-4.84V654.39h4.84v5.93A10,10,0,0,1,622,655.82Z"/><path class="cls-4" d="M640.15,648.46a4.22,4.22,0,0,0-1.25,3.28v3.59h7.59V659H638.9V681.9h-4.84V659h-3.59v-3.69h3.59v-3a9.71,9.71,0,0,1,1.27-5.12,8.3,8.3,0,0,1,3.35-3.17,9.67,9.67,0,0,1,4.47-1.07,10.7,10.7,0,0,1,4.78,1.25l-1.14,4a8.3,8.3,0,0,0-3.54-.88A4.44,4.44,0,0,0,640.15,648.46Z"/><path class="cls-4" d="M671.09,658q3.28,3.77,3.28,10.48,0,1-.05,1.56H652.58a9.37,9.37,0,0,0,3.09,5.88,9.16,9.16,0,0,0,6.21,2.18,11.63,11.63,0,0,0,4.55-.88,10.93,10.93,0,0,0,3.67-2.5l2.65,2.76a13.88,13.88,0,0,1-4.89,3.38,16.29,16.29,0,0,1-6.34,1.2,14.61,14.61,0,0,1-7.2-1.74,12.23,12.23,0,0,1-4.89-4.91,15.82,15.82,0,0,1,0-14.43A12.69,12.69,0,0,1,654.3,656a14,14,0,0,1,7.12-1.79Q667.82,654.23,671.09,658ZM670,666.3a8,8,0,0,0-8.53-8.06,8.7,8.7,0,0,0-6.06,2.18,9.16,9.16,0,0,0-2.89,5.88Z"/><path class="cls-4" d="M692.23,658.81a13.51,13.51,0,0,0-3.93-.62,6.71,6.71,0,0,0-3.51.81,2.69,2.69,0,0,0-1.33,2.47A2.75,2.75,0,0,0,685,664a21.53,21.53,0,0,0,4.5,1.74,35.22,35.22,0,0,1,4.68,1.66,8.32,8.32,0,0,1,3.09,2.44A7.57,7.57,0,0,1,695.56,680a12.56,12.56,0,0,1-7.31,2,18.25,18.25,0,0,1-6-1,13.52,13.52,0,0,1-4.86-2.81l1.82-3.54a12.89,12.89,0,0,0,4.24,2.5,14.08,14.08,0,0,0,4.91.94,7.35,7.35,0,0,0,3.85-.88,3,3,0,0,0,1.46-2.7,3.08,3.08,0,0,0-1.53-2.81,20.9,20.9,0,0,0-4.65-1.87,31.06,31.06,0,0,1-4.5-1.59,8,8,0,0,1-3-2.37,6.38,6.38,0,0,1-1.22-4.06,6.53,6.53,0,0,1,2.81-5.77,12.14,12.14,0,0,1,7-1.92,17.54,17.54,0,0,1,4.91.7,14.8,14.8,0,0,1,4.19,1.9L696,660.47A16.47,16.47,0,0,0,692.23,658.81Z"/><path class="cls-4" d="M719.66,680.08a11.85,11.85,0,0,1-6.45,2,7.33,7.33,0,0,1-5.3-2q-2-1.95-2-5.9V659H702v-3.69h3.9v-7.38h4.89v7.38h8.42V659h-8.42v14.35a5.09,5.09,0,0,0,.83,3.28,3.08,3.08,0,0,0,2.5,1,8.72,8.72,0,0,0,4.26-1.3Z"/><path class="cls-4" d="M344.82,709.87a18.62,18.62,0,0,1,7,25.66,18.53,18.53,0,0,1-7,6.79,20.7,20.7,0,0,1-19.71,0,18.52,18.52,0,0,1-7-6.79,18.43,18.43,0,0,1,7-25.66,21.08,21.08,0,0,1,19.71,0Zm-15.94,5.43a12.46,12.46,0,0,0-4.5,17,12.57,12.57,0,0,0,4.52,4.52,12,12,0,0,0,6.16,1.66,11.72,11.72,0,0,0,6.08-1.66,12.23,12.23,0,0,0,4.45-4.52,12.43,12.43,0,0,0,1.64-6.29,12.29,12.29,0,0,0-1.64-6.27,12.09,12.09,0,0,0-4.45-4.47,11.87,11.87,0,0,0-6.08-1.64A12.24,12.24,0,0,0,328.88,715.31Z"/><path class="cls-4" d="M383.51,718.06a12.12,12.12,0,0,1,4.63,5,16.2,16.2,0,0,1,1.64,7.44,16,16,0,0,1-1.61,7.33,11.88,11.88,0,0,1-4.58,4.94,13.14,13.14,0,0,1-6.86,1.77,12,12,0,0,1-5.51-1.22,10.37,10.37,0,0,1-4-3.56v14.61H360.5V716.48h6.76v4.58a10,10,0,0,1,3.87-3.56,11.79,11.79,0,0,1,5.49-1.22A13.13,13.13,0,0,1,383.51,718.06Zm-2.78,18.3a8.58,8.58,0,0,0,2.18-6.06,8.49,8.49,0,0,0-2.18-6,8,8,0,0,0-11.28,0,9.5,9.5,0,0,0,0,12.12,7.4,7.4,0,0,0,5.67,2.34A7.3,7.3,0,0,0,380.73,736.37Z"/><path class="cls-4" d="M417.26,720.07q3.35,3.8,3.35,10.66,0,1.35-.05,2H400a7.75,7.75,0,0,0,8,6.34,10.58,10.58,0,0,0,4.08-.81,10,10,0,0,0,3.41-2.31l3.64,3.8a14.07,14.07,0,0,1-5.07,3.54,17.05,17.05,0,0,1-6.63,1.25,15.47,15.47,0,0,1-7.51-1.77,12.36,12.36,0,0,1-5-5,16.15,16.15,0,0,1,0-14.74,12.7,12.7,0,0,1,5-5,14.82,14.82,0,0,1,7.33-1.79Q413.9,716.27,417.26,720.07Zm-2.83,8.16a6.75,6.75,0,0,0-2-4.89,7.91,7.91,0,0,0-10.06,0,7.92,7.92,0,0,0-2.47,4.91Z"/><path class="cls-4" d="M450.72,719.1a10.86,10.86,0,0,1,2.76,7.83V744.3h-6.81V728.91a6.28,6.28,0,0,0-1.66-4.6,6.07,6.07,0,0,0-4.52-1.69,6.86,6.86,0,0,0-5.33,2.29,8.39,8.39,0,0,0-2,5.72V744.3h-6.76V716.48h6.76v5.2q2.86-5.35,10-5.46A9.93,9.93,0,0,1,450.72,719.1Z"/><path class="cls-4" d="M461.32,707.9H488V714H468.29v9H486v6.08H468.29v9.15h20.33v6.08h-27.3Z"/><path class="cls-4" d="M521,710.34A7.8,7.8,0,0,1,524.4,717a8,8,0,0,1-6.34,8.06,9.4,9.4,0,0,1,5.69,3.12,9.14,9.14,0,0,1,2.05,6.08,8.66,8.66,0,0,1-3.61,7.36q-3.62,2.68-9.85,2.68H495.7V707.9h16.17Q517.69,707.9,521,710.34Zm-5.3,11.23a4,4,0,0,0,1.53-3.33,3.79,3.79,0,0,0-1.53-3.22,6.73,6.73,0,0,0-4.24-1.09h-8.84v8.84h8.84A6.73,6.73,0,0,0,515.74,721.57Zm1,15.44a4.18,4.18,0,0,0,1.87-3.64,4,4,0,0,0-1.87-3.51,8.91,8.91,0,0,0-5.2-1.22h-8.84v9.62h8.84A8.76,8.76,0,0,0,516.71,737Z"/><path class="cls-4" d="M549.7,714.61a17.36,17.36,0,0,0-5.17-.94,7.24,7.24,0,0,0-4,.94,2.93,2.93,0,0,0-1.46,2.6,3.42,3.42,0,0,0,1,2.52,7.92,7.92,0,0,0,2.55,1.66,40.34,40.34,0,0,0,4.19,1.43,45.79,45.79,0,0,1,6.06,2.18,10.81,10.81,0,0,1,4,3.22,8.88,8.88,0,0,1,1.66,5.62,9.61,9.61,0,0,1-1.79,5.8,11.24,11.24,0,0,1-4.94,3.77,18.73,18.73,0,0,1-7.2,1.3,22.66,22.66,0,0,1-8.32-1.59,23.62,23.62,0,0,1-7.07-4.24L532.2,733a21.29,21.29,0,0,0,6.19,4,16.45,16.45,0,0,0,6.4,1.46,8.11,8.11,0,0,0,4.58-1.12,3.68,3.68,0,0,0,.65-5.62,7.54,7.54,0,0,0-2.57-1.64q-1.56-.62-4.26-1.4a50.41,50.41,0,0,1-6-2.13,10.47,10.47,0,0,1-4-3.15,8.67,8.67,0,0,1-1.66-5.54,9.28,9.28,0,0,1,1.69-5.54,10.88,10.88,0,0,1,4.78-3.67,18.34,18.34,0,0,1,7.15-1.3,24.18,24.18,0,0,1,7,1,23.66,23.66,0,0,1,6.16,2.81l-2.81,6.08A26.33,26.33,0,0,0,549.7,714.61Z"/><path class="cls-4" d="M573.9,707.9H603.6v6.19H592.26V744.3h-7V714.09H573.9Z"/><path class="cls-4" d="M607.13,726.1h13.05v4.68H607.13Z"/><path class="cls-4" d="M639.81,722.15a13.4,13.4,0,0,0-4-.68,5.37,5.37,0,0,0-2.73.6,2,2,0,0,0-1,1.85,2.19,2.19,0,0,0,1.27,2,20.53,20.53,0,0,0,4,1.48,38.91,38.91,0,0,1,4.78,1.74,9,9,0,0,1,3.25,2.55,6.82,6.82,0,0,1,1.38,4.45,7.16,7.16,0,0,1-3.12,6.24,13.37,13.37,0,0,1-7.85,2.18,19.92,19.92,0,0,1-6.29-1,14.81,14.81,0,0,1-5.2-2.89l2.34-4.73a13.69,13.69,0,0,0,4.47,2.52,15,15,0,0,0,4.94.91,5.93,5.93,0,0,0,3-.65,2.12,2.12,0,0,0,1.12-2,2.36,2.36,0,0,0-1.3-2.18,23,23,0,0,0-4.21-1.61,35.71,35.71,0,0,1-4.58-1.64,8.27,8.27,0,0,1-3.07-2.44,6.69,6.69,0,0,1-1.3-4.29,7.25,7.25,0,0,1,3-6.27,12.52,12.52,0,0,1,7.51-2.16,19.34,19.34,0,0,1,5.43.78,16.87,16.87,0,0,1,4.76,2.18L644,724A20,20,0,0,0,639.81,722.15Z"/><path class="cls-4" d="M677.17,719.1a10.86,10.86,0,0,1,2.76,7.83V744.3h-6.81V728.91a6.28,6.28,0,0,0-1.66-4.6,6.06,6.06,0,0,0-4.52-1.69,6.94,6.94,0,0,0-5.36,2.29,8.31,8.31,0,0,0-2,5.72V744.3h-6.76V705.71h6.76v16.07q2.86-5.46,10-5.56A9.93,9.93,0,0,1,677.17,719.1Z"/><path class="cls-4" d="M693.61,705.66a4,4,0,0,1,1.09,2.91,4,4,0,0,1-1.09,2.86,3.89,3.89,0,0,1-5.51,0,4,4,0,0,1-1.09-2.86,4,4,0,0,1,1.09-2.91,3.89,3.89,0,0,1,5.51,0Zm-6.08,10.82h6.76V744.3h-6.76Z"/><path class="cls-4" d="M713.24,717.7a11.25,11.25,0,0,1,5.64-1.48v6.55a9.18,9.18,0,0,0-6.89,2,7.72,7.72,0,0,0-2.57,6.11V744.3h-6.76V716.48h6.76v5.36A10.05,10.05,0,0,1,713.24,717.7Z"/><path class="cls-4" d="M739.89,742.58a13.2,13.2,0,0,1-7,2A8.34,8.34,0,0,1,727,742.5q-2.29-2.11-2.29-6.21V722.56h-3.9l-.05-4.94h4V710h6.71v7.64h8v4.94h-8v12.53a4,4,0,0,0,.73,2.73,2.79,2.79,0,0,0,2.18.81,9.68,9.68,0,0,0,4-1.14Z"/><path class="cls-4" d="M757.49,722.15a13.4,13.4,0,0,0-4-.68,5.37,5.37,0,0,0-2.73.6,2,2,0,0,0-1,1.85,2.19,2.19,0,0,0,1.27,2,20.53,20.53,0,0,0,4,1.48,38.91,38.91,0,0,1,4.78,1.74,9,9,0,0,1,3.25,2.55,6.82,6.82,0,0,1,1.38,4.45,7.16,7.16,0,0,1-3.12,6.24,13.37,13.37,0,0,1-7.85,2.18,19.92,19.92,0,0,1-6.29-1,14.81,14.81,0,0,1-5.2-2.89l2.34-4.73a13.69,13.69,0,0,0,4.47,2.52,15,15,0,0,0,4.94.91,5.93,5.93,0,0,0,3-.65,2.12,2.12,0,0,0,1.12-2,2.36,2.36,0,0,0-1.3-2.18,23,23,0,0,0-4.21-1.61,35.71,35.71,0,0,1-4.58-1.64,8.27,8.27,0,0,1-3.07-2.44,6.69,6.69,0,0,1-1.3-4.29,7.25,7.25,0,0,1,3-6.27,12.52,12.52,0,0,1,7.51-2.16,19.34,19.34,0,0,1,5.43.78,16.87,16.87,0,0,1,4.76,2.18L761.67,724A20,20,0,0,0,757.49,722.15Z"/></svg>