<svg id="Layer_1" data-name="Layer 1" xmlns="http://www.w3.org/2000/svg" xmlns:xlink="http://www.w3.org/1999/xlink" viewBox="0 0 494 680"><defs><style>.cls-1{fill:url(#linear-gradient);}.cls-2{fill:#fff;}.cls-3{fill:none;stroke:#fff;stroke-miterlimit:10;stroke-width:4px;}.cls-4{fill:#273274;}</style><linearGradient id="linear-gradient" x1="35.18" y1="-26.88" x2="458.82" y2="706.88" gradientUnits="userSpaceOnUse"><stop offset="0.23" stop-color="#ff8c58"/><stop offset="1" stop-color="#ff544e"/></linearGradient></defs><title>PR section</title><rect class="cls-1" x="-10.5" y="-0.5" width="515" height="681"/><path class="cls-2" d="M167.16,276.7a6.54,6.54,0,0,0-1.84-.29,3.39,3.39,0,0,0-1.86.45,1.39,1.39,0,0,0-.69,1.23,1.61,1.61,0,0,0,.42,1.15,3,3,0,0,0,1,.7q.61.26,1.69.6a19.18,19.18,0,0,1,2.19.8,3.79,3.79,0,0,1,1.43,1.13,3.13,3.13,0,0,1,.59,2,3.32,3.32,0,0,1-.62,2,4,4,0,0,1-1.73,1.32,6.58,6.58,0,0,1-2.56.47,7.44,7.44,0,0,1-2.86-.57,7.73,7.73,0,0,1-2.4-1.52l.82-1.58a6.85,6.85,0,0,0,2.14,1.44,5.88,5.88,0,0,0,2.31.5,3.7,3.7,0,0,0,2.1-.52,1.63,1.63,0,0,0,.77-1.42,1.65,1.65,0,0,0-.42-1.16,3,3,0,0,0-1.06-.72,18,18,0,0,0-1.72-.59,17.6,17.6,0,0,1-2.17-.78,3.74,3.74,0,0,1-1.42-1.12,3.09,3.09,0,0,1-.58-2,3.14,3.14,0,0,1,.59-1.88,3.72,3.72,0,0,1,1.66-1.26,6.47,6.47,0,0,1,2.47-.44,8,8,0,0,1,2.35.35,7.9,7.9,0,0,1,2,.94l-.76,1.64A7.71,7.71,0,0,0,167.16,276.7Z"/><path class="cls-2" d="M181.76,278.06v10.07H180V286a3.78,3.78,0,0,1-3.73,2.19,3.61,3.61,0,0,1-2.74-1,4,4,0,0,1-1-2.86v-6.22h1.79v5.75a2.73,2.73,0,0,0,.69,2,2.55,2.55,0,0,0,1.91.71,2.83,2.83,0,0,0,2.24-1A3.74,3.74,0,0,0,180,283v-4.95Z"/><path class="cls-2" d="M193.31,278.65a4.45,4.45,0,0,1,1.71,1.81,6.11,6.11,0,0,1,0,5.3,4.34,4.34,0,0,1-1.69,1.79,4.88,4.88,0,0,1-2.5.64,4.59,4.59,0,0,1-2.25-.53,3.82,3.82,0,0,1-1.52-1.52v2H185.3V274h1.77v6.05a3.83,3.83,0,0,1,1.51-1.52,4.5,4.5,0,0,1,2.22-.53A4.88,4.88,0,0,1,193.31,278.65Zm-1.11,7.54a3.13,3.13,0,0,0,1.2-1.27,3.91,3.91,0,0,0,.43-1.85,3.81,3.81,0,0,0-.44-1.83,3.24,3.24,0,0,0-1.2-1.27,3.3,3.3,0,0,0-1.73-.46,3.35,3.35,0,0,0-1.74.46,3.21,3.21,0,0,0-1.21,1.27,4.09,4.09,0,0,0,0,3.68,3.21,3.21,0,0,0,1.21,1.26,3.55,3.55,0,0,0,3.48,0Z"/><path class="cls-2" d="M213.83,279.05a4,4,0,0,1,1,2.85v6.22H213v-5.75a2.77,2.77,0,0,0-.7-2,2.53,2.53,0,0,0-1.91-.72,2.89,2.89,0,0,0-2.25,1,3.73,3.73,0,0,0-.82,2.49v5h-1.79v-5.75a2.79,2.79,0,0,0-.69-2,2.52,2.52,0,0,0-1.92-.72,2.92,2.92,0,0,0-2.25,1,3.7,3.7,0,0,0-.83,2.49v5h-1.77V278.06h1.77v2.11a3.8,3.8,0,0,1,3.75-2.17,3.85,3.85,0,0,1,2.31.67,3.27,3.27,0,0,1,1.25,1.86A3.82,3.82,0,0,1,211.1,278,3.56,3.56,0,0,1,213.83,279.05Z"/><path class="cls-2" d="M219.64,274.37a1.22,1.22,0,0,1,0,1.64,1.12,1.12,0,0,1-1.58,0,1.22,1.22,0,0,1,0-1.64,1.12,1.12,0,0,1,1.58,0ZM218,278.06h1.77v10.07H218Z"/><path class="cls-2" d="M228.59,287.46a4.33,4.33,0,0,1-2.36.74,2.69,2.69,0,0,1-1.94-.71,2.87,2.87,0,0,1-.74-2.16v-5.58h-1.43V278.4h1.43v-2.7h1.79v2.7h3.08v1.35h-3.08V285a1.86,1.86,0,0,0,.3,1.2,1.13,1.13,0,0,0,.91.36,3.19,3.19,0,0,0,1.56-.48Z"/><path class="cls-2" d="M245,276a4.28,4.28,0,0,1,1.39,3.42A4.65,4.65,0,0,1,245,283a5.59,5.59,0,0,1-3.93,1.28h-2.65v3.81h-3V274.81h5.65A5.81,5.81,0,0,1,245,276Zm-2.14,5.21a2.12,2.12,0,0,0,.68-1.7,2,2,0,0,0-.68-1.67,3,3,0,0,0-2-.56h-2.49v4.51H241A2.91,2.91,0,0,0,242.91,281.23Z"/><path class="cls-2" d="M256.54,288.13l-2.11-3.81h-3.06v3.81h-3V274.81h5.78a6.07,6.07,0,0,1,4,1.21,4.23,4.23,0,0,1,1.43,3.42,5.15,5.15,0,0,1-.64,2.64,4.1,4.1,0,0,1-1.86,1.67l2.84,4.4Zm-5.18-6.32h2.78a2.88,2.88,0,0,0,1.93-.58,2.12,2.12,0,0,0,.68-1.7,2,2,0,0,0-.68-1.67,3,3,0,0,0-1.93-.56h-2.78Z"/><path class="cls-2" d="M266.88,280.16a5,5,0,0,0-1.46-.26,1.69,1.69,0,0,0-.86.19.62.62,0,0,0-.32.57.71.71,0,0,0,.44.65,8.27,8.27,0,0,0,1.43.51,15.18,15.18,0,0,1,1.79.64,3.33,3.33,0,0,1,1.22.93,2.47,2.47,0,0,1,.51,1.63,2.76,2.76,0,0,1-1.17,2.37,5,5,0,0,1-3,.85,7.9,7.9,0,0,1-2.42-.37,6.26,6.26,0,0,1-2-1.06l1-2a6,6,0,0,0,1.74.94,5.56,5.56,0,0,0,1.82.33,1.92,1.92,0,0,0,.94-.2.65.65,0,0,0,.35-.6.76.76,0,0,0-.45-.68,7.49,7.49,0,0,0-1.44-.53,14.54,14.54,0,0,1-1.74-.61,3.11,3.11,0,0,1-1.19-.92,2.49,2.49,0,0,1-.49-1.61,2.76,2.76,0,0,1,1.14-2.36,4.76,4.76,0,0,1,2.89-.84,7.67,7.67,0,0,1,2.09.29,7,7,0,0,1,1.9.85l-1,2A8.59,8.59,0,0,0,266.88,280.16Z"/><path class="cls-2" d="M281.76,287.46a4.34,4.34,0,0,1-2.36.74,2.68,2.68,0,0,1-1.94-.71,2.86,2.86,0,0,1-.74-2.16v-5.58h-1.43V278.4h1.43v-2.7h1.79v2.7h3.08v1.35H278.5V285a1.86,1.86,0,0,0,.3,1.2,1.12,1.12,0,0,0,.91.36,3.19,3.19,0,0,0,1.56-.48Z"/><path class="cls-2" d="M290.63,278.65a4.66,4.66,0,0,1,1.83,1.8,5.23,5.23,0,0,1,.66,2.63,5.28,5.28,0,0,1-.66,2.65,4.64,4.64,0,0,1-1.83,1.81,5.89,5.89,0,0,1-5.37,0,4.66,4.66,0,0,1-1.83-1.8,5.66,5.66,0,0,1,0-5.29,4.66,4.66,0,0,1,1.83-1.8,5.89,5.89,0,0,1,5.37,0ZM286.2,280a3.16,3.16,0,0,0-1.2,1.27,3.85,3.85,0,0,0-.43,1.84A4,4,0,0,0,285,285a3.07,3.07,0,0,0,1.2,1.27,3.44,3.44,0,0,0,1.76.45,3.4,3.4,0,0,0,1.74-.45,3.07,3.07,0,0,0,1.2-1.27,4,4,0,0,0,.43-1.86,3.86,3.86,0,0,0-.43-1.84,3.16,3.16,0,0,0-1.2-1.27,3.35,3.35,0,0,0-1.74-.46A3.39,3.39,0,0,0,286.2,280Z"/><path class="cls-2" d="M306,287.46a4.34,4.34,0,0,1-2.36.74,2.68,2.68,0,0,1-1.94-.71,2.86,2.86,0,0,1-.74-2.16v-5.58h-1.43V278.4h1.43v-2.7h1.79v2.7h3.08v1.35h-3.08V285a1.86,1.86,0,0,0,.3,1.2,1.12,1.12,0,0,0,.91.36,3.19,3.19,0,0,0,1.56-.48Z"/><path class="cls-2" d="M316.62,279a3.93,3.93,0,0,1,1,2.86v6.22h-1.77v-5.75a2.69,2.69,0,0,0-.71-2,2.66,2.66,0,0,0-2-.71,3,3,0,0,0-2.32,1,3.65,3.65,0,0,0-.86,2.51v4.95h-1.77V274H310v6.22a3.89,3.89,0,0,1,3.84-2.23A3.7,3.7,0,0,1,316.62,279Z"/><path class="cls-2" d="M328.36,279.38a5.65,5.65,0,0,1,1.2,3.83c0,.25,0,.44,0,.57h-8a3.43,3.43,0,0,0,1.13,2.15,3.35,3.35,0,0,0,2.27.8,4.25,4.25,0,0,0,1.67-.32,4,4,0,0,0,1.34-.91l1,1a5.1,5.1,0,0,1-1.79,1.24,6,6,0,0,1-2.32.44,5.35,5.35,0,0,1-2.63-.64,4.48,4.48,0,0,1-1.79-1.8,5.79,5.79,0,0,1,0-5.28,4.64,4.64,0,0,1,1.78-1.81,5.14,5.14,0,0,1,2.61-.66A4.43,4.43,0,0,1,328.36,279.38Zm-.4,3a2.92,2.92,0,0,0-3.12-2.95,3.18,3.18,0,0,0-2.22.8,3.35,3.35,0,0,0-1.06,2.15Z"/><path class="cls-2" d="M165.64,301.88a3.93,3.93,0,0,1,1,2.86V311h-1.77v-5.75a2.69,2.69,0,0,0-.71-2,2.66,2.66,0,0,0-2-.71,3,3,0,0,0-2.32,1A3.65,3.65,0,0,0,159,306V311h-1.77V296.84H159v6.22a3.89,3.89,0,0,1,3.84-2.23A3.7,3.7,0,0,1,165.64,301.88Z"/><path class="cls-2" d="M175.95,311v-1.41a4.13,4.13,0,0,1-3.52,1.48,4,4,0,0,1-1.84-.4,2.94,2.94,0,0,1-1.22-1.1,3,3,0,0,1-.43-1.58,2.58,2.58,0,0,1,1-2.14,4.47,4.47,0,0,1,2.79-.81h3.2v-.48a2.08,2.08,0,0,0-.66-1.65,2.8,2.8,0,0,0-1.91-.58,5.47,5.47,0,0,0-3.1,1.08l-.74-1.22a9.24,9.24,0,0,1,2-1,6.86,6.86,0,0,1,2.2-.31,4.21,4.21,0,0,1,2.91.92,3.34,3.34,0,0,1,1,2.58l0,6.62Zm-1.06-2a2.36,2.36,0,0,0,1-1.59v-1h-3a3.44,3.44,0,0,0-1.78.36,1.25,1.25,0,0,0-.58,1.14,1.48,1.48,0,0,0,.59,1.24,2.51,2.51,0,0,0,1.58.46A3.6,3.6,0,0,0,174.89,309Z"/><path class="cls-2" d="M185,302.42a3.51,3.51,0,0,0-1.76.44,3.12,3.12,0,0,0-1.21,1.24,3.79,3.79,0,0,0-.44,1.85,3.84,3.84,0,0,0,.43,1.85,3.15,3.15,0,0,0,1.18,1.25,3.3,3.3,0,0,0,1.72.45,4.53,4.53,0,0,0,1.75-.32,3.32,3.32,0,0,0,1.29-.93l1,1a4.45,4.45,0,0,1-1.74,1.31,6,6,0,0,1-2.39.46,5.19,5.19,0,0,1-2.61-.65,4.58,4.58,0,0,1-1.78-1.8,5.35,5.35,0,0,1-.64-2.64,5.41,5.41,0,0,1,.64-2.65,4.57,4.57,0,0,1,1.78-1.81,5.2,5.2,0,0,1,2.61-.65,6.37,6.37,0,0,1,2.29.39,4.43,4.43,0,0,1,1.7,1.13l-1,1.22A4,4,0,0,0,185,302.42Z"/><path class="cls-2" d="M197,310.3a4.33,4.33,0,0,1-2.36.74,2.69,2.69,0,0,1-1.94-.71,2.87,2.87,0,0,1-.74-2.16v-5.58h-1.43v-1.35h1.43v-2.7h1.79v2.7h3.08v1.35H193.7v5.25a1.86,1.86,0,0,0,.3,1.2,1.13,1.13,0,0,0,.91.36,3.19,3.19,0,0,0,1.56-.48Z"/><path class="cls-2" d="M205.83,301.49a4.65,4.65,0,0,1,1.83,1.8,5.22,5.22,0,0,1,.66,2.63,5.27,5.27,0,0,1-.66,2.65,4.64,4.64,0,0,1-1.83,1.81,5.89,5.89,0,0,1-5.37,0,4.66,4.66,0,0,1-1.83-1.8,5.66,5.66,0,0,1,0-5.29,4.66,4.66,0,0,1,1.83-1.8,5.89,5.89,0,0,1,5.37,0Zm-4.43,1.35a3.16,3.16,0,0,0-1.2,1.27,3.86,3.86,0,0,0-.43,1.84,4,4,0,0,0,.43,1.86,3.07,3.07,0,0,0,1.2,1.27,3.65,3.65,0,0,0,3.5,0,3.08,3.08,0,0,0,1.2-1.27,4,4,0,0,0,.43-1.86,3.86,3.86,0,0,0-.43-1.84,3.16,3.16,0,0,0-1.2-1.27,3.58,3.58,0,0,0-3.5,0Z"/><path class="cls-2" d="M218.9,301.49a4.44,4.44,0,0,1,1.71,1.81,6.11,6.11,0,0,1,0,5.3,4.36,4.36,0,0,1-1.69,1.79,4.88,4.88,0,0,1-2.5.64,4.59,4.59,0,0,1-2.25-.53,3.83,3.83,0,0,1-1.52-1.52v2h-1.77V296.84h1.77v6.05a3.85,3.85,0,0,1,1.51-1.52,4.5,4.5,0,0,1,2.22-.53A4.88,4.88,0,0,1,218.9,301.49ZM217.78,309a3.13,3.13,0,0,0,1.2-1.27,3.92,3.92,0,0,0,.43-1.85,3.81,3.81,0,0,0-.44-1.83,3.23,3.23,0,0,0-1.2-1.27,3.3,3.3,0,0,0-1.73-.46,3.35,3.35,0,0,0-1.74.46,3.2,3.2,0,0,0-1.21,1.27,4.09,4.09,0,0,0,0,3.68A3.21,3.21,0,0,0,214.3,309a3.55,3.55,0,0,0,3.48,0Z"/><path class="cls-2" d="M231.26,302.22a5.65,5.65,0,0,1,1.2,3.83c0,.25,0,.44,0,.57h-8a3.43,3.43,0,0,0,1.13,2.15,3.35,3.35,0,0,0,2.27.8,4.25,4.25,0,0,0,1.67-.32,4,4,0,0,0,1.34-.91l1,1a5.1,5.1,0,0,1-1.79,1.24,6,6,0,0,1-2.32.44,5.35,5.35,0,0,1-2.63-.64,4.48,4.48,0,0,1-1.79-1.8,5.79,5.79,0,0,1,0-5.28,4.64,4.64,0,0,1,1.78-1.81,5.14,5.14,0,0,1,2.61-.66A4.43,4.43,0,0,1,231.26,302.22Zm-.4,3a2.92,2.92,0,0,0-3.12-2.95,3.18,3.18,0,0,0-2.22.8,3.35,3.35,0,0,0-1.06,2.15Z"/><path class="cls-2" d="M238.06,301.42a4.19,4.19,0,0,1,2.17-.58v1.71a3.24,3.24,0,0,0-3.58,3.1V311h-1.77V300.9h1.77v2.17A3.64,3.64,0,0,1,238.06,301.42Z"/><path class="cls-2" d="M244.72,298.73a1.54,1.54,0,0,0-.46,1.2v1.31H247v1.35h-2.78V311h-1.77v-8.37h-1.31v-1.35h1.31v-1.08a3.55,3.55,0,0,1,.47-1.87,3,3,0,0,1,1.23-1.16,3.54,3.54,0,0,1,1.64-.39,3.91,3.91,0,0,1,1.75.46l-.42,1.45a3,3,0,0,0-1.29-.32A1.62,1.62,0,0,0,244.72,298.73Z"/><path class="cls-2" d="M256,302.22a5.65,5.65,0,0,1,1.2,3.83c0,.25,0,.44,0,.57h-8a3.43,3.43,0,0,0,1.13,2.15,3.35,3.35,0,0,0,2.27.8,4.26,4.26,0,0,0,1.67-.32,4,4,0,0,0,1.34-.91l1,1a5.08,5.08,0,0,1-1.79,1.24,6,6,0,0,1-2.32.44,5.35,5.35,0,0,1-2.63-.64,4.47,4.47,0,0,1-1.79-1.8,5.78,5.78,0,0,1,0-5.28,4.64,4.64,0,0,1,1.78-1.81,5.13,5.13,0,0,1,2.61-.66A4.44,4.44,0,0,1,256,302.22Zm-.4,3a2.92,2.92,0,0,0-3.12-2.95,3.18,3.18,0,0,0-2.22.8,3.35,3.35,0,0,0-1.06,2.15Z"/><path class="cls-2" d="M263.77,302.51a5,5,0,0,0-1.44-.23,2.44,2.44,0,0,0-1.28.29,1,1,0,0,0-.49.9,1,1,0,0,0,.54.92,7.84,7.84,0,0,0,1.65.64,12.87,12.87,0,0,1,1.71.61,3,3,0,0,1,1.13.89,2.45,2.45,0,0,1,.47,1.56,2.47,2.47,0,0,1-1.08,2.17,4.6,4.6,0,0,1-2.67.74,6.67,6.67,0,0,1-2.18-.36,4.94,4.94,0,0,1-1.78-1l.67-1.29a4.71,4.71,0,0,0,1.55.91,5.15,5.15,0,0,0,1.8.34,2.69,2.69,0,0,0,1.41-.32,1.08,1.08,0,0,0,.53-1,1.13,1.13,0,0,0-.56-1,7.68,7.68,0,0,0-1.7-.68,11.48,11.48,0,0,1-1.65-.58,2.93,2.93,0,0,1-1.08-.87,2.34,2.34,0,0,1-.45-1.48,2.39,2.39,0,0,1,1-2.11,4.45,4.45,0,0,1,2.57-.7,6.43,6.43,0,0,1,1.8.26,5.42,5.42,0,0,1,1.53.7l-.65,1.35A6,6,0,0,0,263.77,302.51Z"/><path class="cls-2" d="M273.81,310.3a4.33,4.33,0,0,1-2.36.74,2.68,2.68,0,0,1-1.94-.71,2.86,2.86,0,0,1-.74-2.16v-5.58h-1.43v-1.35h1.43v-2.7h1.79v2.7h3.08v1.35h-3.08v5.25a1.86,1.86,0,0,0,.3,1.2,1.13,1.13,0,0,0,.91.36,3.19,3.19,0,0,0,1.56-.48Z"/><path class="cls-2" d="M282.61,297.2a1.22,1.22,0,0,1,0,1.64,1.13,1.13,0,0,1-1.58,0,1.22,1.22,0,0,1,0-1.64,1.13,1.13,0,0,1,1.58,0Zm-1.67,3.69h1.77V311h-1.77Z"/><path class="cls-2" d="M290.28,302.51a4.94,4.94,0,0,0-1.44-.23,2.45,2.45,0,0,0-1.28.29,1,1,0,0,0-.49.9,1,1,0,0,0,.54.92,7.84,7.84,0,0,0,1.65.64,12.94,12.94,0,0,1,1.71.61,3.05,3.05,0,0,1,1.13.89,2.77,2.77,0,0,1-.61,3.73,4.6,4.6,0,0,1-2.67.74,6.68,6.68,0,0,1-2.18-.36,5,5,0,0,1-1.78-1l.67-1.29a4.72,4.72,0,0,0,1.55.91,5.15,5.15,0,0,0,1.8.34,2.69,2.69,0,0,0,1.41-.32,1.08,1.08,0,0,0,.53-1,1.13,1.13,0,0,0-.56-1,7.66,7.66,0,0,0-1.7-.68,11.39,11.39,0,0,1-1.65-.58,2.93,2.93,0,0,1-1.09-.87,2.34,2.34,0,0,1-.45-1.48,2.39,2.39,0,0,1,1-2.11,4.45,4.45,0,0,1,2.57-.7,6.43,6.43,0,0,1,1.8.26,5.42,5.42,0,0,1,1.53.7l-.65,1.35A6,6,0,0,0,290.28,302.51Z"/><path class="cls-2" d="M299,302.51a4.93,4.93,0,0,0-1.44-.23,2.44,2.44,0,0,0-1.28.29,1,1,0,0,0-.49.9,1,1,0,0,0,.54.92A7.83,7.83,0,0,0,298,305a12.82,12.82,0,0,1,1.71.61,3,3,0,0,1,1.13.89,2.77,2.77,0,0,1-.61,3.73,4.6,4.6,0,0,1-2.67.74,6.67,6.67,0,0,1-2.18-.36,4.92,4.92,0,0,1-1.78-1l.67-1.29a4.7,4.7,0,0,0,1.55.91,5.15,5.15,0,0,0,1.8.34,2.69,2.69,0,0,0,1.41-.32,1.08,1.08,0,0,0,.53-1,1.13,1.13,0,0,0-.56-1,7.72,7.72,0,0,0-1.7-.68,11.49,11.49,0,0,1-1.65-.58,2.92,2.92,0,0,1-1.08-.87,2.33,2.33,0,0,1-.45-1.48,2.39,2.39,0,0,1,1-2.11,4.45,4.45,0,0,1,2.57-.7,6.43,6.43,0,0,1,1.8.26,5.42,5.42,0,0,1,1.53.7l-.65,1.35A6,6,0,0,0,299,302.51Z"/><path class="cls-2" d="M312.57,300.9V311h-1.79v-2.13a3.78,3.78,0,0,1-3.73,2.19,3.61,3.61,0,0,1-2.74-1,4,4,0,0,1-1-2.86V300.9h1.79v5.75a2.73,2.73,0,0,0,.7,2,2.54,2.54,0,0,0,1.91.71,2.83,2.83,0,0,0,2.24-1,3.75,3.75,0,0,0,.83-2.5V300.9Z"/><path class="cls-2" d="M323.59,302.22a5.65,5.65,0,0,1,1.2,3.83q0,.38,0,.57h-8a3.42,3.42,0,0,0,1.13,2.15,3.35,3.35,0,0,0,2.27.8,4.25,4.25,0,0,0,1.66-.32,4,4,0,0,0,1.34-.91l1,1a5.09,5.09,0,0,1-1.79,1.24,6,6,0,0,1-2.32.44,5.35,5.35,0,0,1-2.64-.64,4.48,4.48,0,0,1-1.79-1.8,5.79,5.79,0,0,1,0-5.28,4.65,4.65,0,0,1,1.78-1.81,5.14,5.14,0,0,1,2.61-.66A4.43,4.43,0,0,1,323.59,302.22Zm-.4,3a2.92,2.92,0,0,0-3.12-2.95,3.18,3.18,0,0,0-2.22.8,3.35,3.35,0,0,0-1.06,2.15Z"/><path class="cls-2" d="M331.32,302.51a4.93,4.93,0,0,0-1.44-.23,2.44,2.44,0,0,0-1.28.29,1,1,0,0,0-.49.9,1,1,0,0,0,.54.92,7.83,7.83,0,0,0,1.65.64,12.82,12.82,0,0,1,1.71.61,3,3,0,0,1,1.13.89,2.77,2.77,0,0,1-.61,3.73,4.6,4.6,0,0,1-2.67.74,6.67,6.67,0,0,1-2.18-.36,4.92,4.92,0,0,1-1.78-1l.67-1.29a4.7,4.7,0,0,0,1.55.91,5.15,5.15,0,0,0,1.8.34,2.69,2.69,0,0,0,1.41-.32,1.08,1.08,0,0,0,.53-1,1.13,1.13,0,0,0-.56-1,7.72,7.72,0,0,0-1.7-.68A11.49,11.49,0,0,1,328,306a2.92,2.92,0,0,1-1.08-.87,2.33,2.33,0,0,1-.45-1.48,2.39,2.39,0,0,1,1-2.11,4.45,4.45,0,0,1,2.57-.7,6.43,6.43,0,0,1,1.8.26,5.42,5.42,0,0,1,1.53.7l-.65,1.35A6,6,0,0,0,331.32,302.51Z"/><path class="cls-2" d="M196.35,324.32a4.65,4.65,0,0,1,1.83,1.8,5.22,5.22,0,0,1,.66,2.63,5.27,5.27,0,0,1-.66,2.65,4.64,4.64,0,0,1-1.83,1.81,5.89,5.89,0,0,1-5.37,0,4.66,4.66,0,0,1-1.83-1.8,5.66,5.66,0,0,1,0-5.29,4.66,4.66,0,0,1,1.83-1.8,5.89,5.89,0,0,1,5.37,0Zm-4.43,1.35a3.16,3.16,0,0,0-1.2,1.27,3.86,3.86,0,0,0-.43,1.84,4,4,0,0,0,.43,1.86,3.07,3.07,0,0,0,1.2,1.27,3.65,3.65,0,0,0,3.5,0,3.08,3.08,0,0,0,1.2-1.27,4,4,0,0,0,.43-1.86,3.86,3.86,0,0,0-.43-1.84,3.16,3.16,0,0,0-1.2-1.27,3.58,3.58,0,0,0-3.5,0Z"/><path class="cls-2" d="M209.68,324.71a3.93,3.93,0,0,1,1,2.86v6.22h-1.77V328a2.69,2.69,0,0,0-.71-2,2.66,2.66,0,0,0-2-.71,3,3,0,0,0-2.2.87,3.4,3.4,0,0,0-1,2.2v5.38H201.3V323.73h1.77v2.13a3.89,3.89,0,0,1,3.82-2.19A3.7,3.7,0,0,1,209.68,324.71Z"/><path class="cls-2" d="M228.35,321.26a6.73,6.73,0,0,1,2.54,2.45,6.51,6.51,0,0,1,.93,3.42,6.61,6.61,0,0,1-.93,3.43,6.76,6.76,0,0,1-2.54,2.47,7.35,7.35,0,0,1-7.06,0,6.74,6.74,0,0,1-2.54-2.47,6.6,6.6,0,0,1-.93-3.43,6.5,6.5,0,0,1,.93-3.42,6.73,6.73,0,0,1,2.53-2.45,7.43,7.43,0,0,1,7.07,0Zm-6.09,1.43a5.2,5.2,0,0,0-1.89,1.85,4.91,4.91,0,0,0-.7,2.58,5,5,0,0,0,.7,2.59,5.25,5.25,0,0,0,1.89,1.87,5,5,0,0,0,2.58.69,4.93,4.93,0,0,0,2.56-.69,5.24,5.24,0,0,0,1.87-1.87,5,5,0,0,0,.69-2.59,5,5,0,0,0-.69-2.58,5.19,5.19,0,0,0-1.87-1.85,5,5,0,0,0-2.56-.69A5.07,5.07,0,0,0,222.26,322.68Z"/><path class="cls-2" d="M242.39,324.32a4.44,4.44,0,0,1,1.71,1.81,6.11,6.11,0,0,1,0,5.3,4.36,4.36,0,0,1-1.69,1.79,4.88,4.88,0,0,1-2.5.64,4.59,4.59,0,0,1-2.25-.53,3.83,3.83,0,0,1-1.52-1.52v5.69h-1.77V323.73h1.77v2a3.85,3.85,0,0,1,1.51-1.52,4.5,4.5,0,0,1,2.22-.53A4.88,4.88,0,0,1,242.39,324.32Zm-1.11,7.54a3.13,3.13,0,0,0,1.2-1.27,3.92,3.92,0,0,0,.43-1.85,3.81,3.81,0,0,0-.44-1.83,3.23,3.23,0,0,0-1.2-1.27,3.3,3.3,0,0,0-1.73-.46,3.35,3.35,0,0,0-1.74.46,3.2,3.2,0,0,0-1.21,1.27,4.09,4.09,0,0,0,0,3.68,3.21,3.21,0,0,0,1.21,1.26,3.55,3.55,0,0,0,3.48,0Z"/><path class="cls-2" d="M254.75,325.05a5.65,5.65,0,0,1,1.2,3.83c0,.25,0,.44,0,.57h-8a3.43,3.43,0,0,0,1.13,2.15,3.35,3.35,0,0,0,2.27.8,4.26,4.26,0,0,0,1.67-.32,4,4,0,0,0,1.34-.91l1,1a5.08,5.08,0,0,1-1.79,1.24,6,6,0,0,1-2.32.44,5.35,5.35,0,0,1-2.63-.64,4.47,4.47,0,0,1-1.79-1.8,5.78,5.78,0,0,1,0-5.28,4.64,4.64,0,0,1,1.78-1.81,5.13,5.13,0,0,1,2.61-.66A4.44,4.44,0,0,1,254.75,325.05Zm-.4,3a2.92,2.92,0,0,0-3.12-2.95,3.18,3.18,0,0,0-2.22.8,3.35,3.35,0,0,0-1.06,2.15Z"/><path class="cls-2" d="M266.74,324.71a3.93,3.93,0,0,1,1,2.86v6.22H266V328a2.69,2.69,0,0,0-.71-2,2.66,2.66,0,0,0-2-.71,3,3,0,0,0-2.2.87,3.4,3.4,0,0,0-1,2.2v5.38h-1.77V323.73h1.77v2.13a3.89,3.89,0,0,1,3.82-2.19A3.7,3.7,0,0,1,266.74,324.71Z"/><path class="cls-2" d="M271.08,320.48h9.25v1.66h-7.42v4.11h6.64v1.66h-6.64v4.24h7.65v1.66h-9.48Z"/><path class="cls-2" d="M292.4,321.36a2.89,2.89,0,0,1,1.17,2.45,3,3,0,0,1-.65,1.93,3.14,3.14,0,0,1-1.77,1.06,3.47,3.47,0,0,1,2.18,1.11,3.31,3.31,0,0,1,.79,2.25,3.15,3.15,0,0,1-1.28,2.67,5.81,5.81,0,0,1-3.55,1h-5.78V320.48h5.69A5.2,5.2,0,0,1,292.4,321.36ZM291,325.61a1.78,1.78,0,0,0,.68-1.49,1.73,1.73,0,0,0-.68-1.46,3,3,0,0,0-1.91-.5h-3.77v4h3.77A3.06,3.06,0,0,0,291,325.61Zm.41,6a1.87,1.87,0,0,0,.84-1.63,1.81,1.81,0,0,0-.84-1.58,4.09,4.09,0,0,0-2.32-.57h-3.77v4.34h3.77A3.93,3.93,0,0,0,291.42,331.56Z"/><path class="cls-2" d="M302.91,322.37a6.54,6.54,0,0,0-1.84-.29,3.39,3.39,0,0,0-1.86.45,1.39,1.39,0,0,0-.69,1.23,1.61,1.61,0,0,0,.42,1.15,3,3,0,0,0,1,.7q.61.26,1.69.6a19.18,19.18,0,0,1,2.19.8,3.79,3.79,0,0,1,1.43,1.13,3.13,3.13,0,0,1,.59,2,3.32,3.32,0,0,1-.62,2,4,4,0,0,1-1.73,1.32,6.58,6.58,0,0,1-2.56.47,7.44,7.44,0,0,1-2.86-.57,7.73,7.73,0,0,1-2.4-1.52l.82-1.58a6.85,6.85,0,0,0,2.14,1.44,5.88,5.88,0,0,0,2.31.5,3.7,3.7,0,0,0,2.1-.52,1.63,1.63,0,0,0,.77-1.42,1.65,1.65,0,0,0-.42-1.16,3,3,0,0,0-1.06-.72,18,18,0,0,0-1.72-.59,17.6,17.6,0,0,1-2.17-.78,3.74,3.74,0,0,1-1.42-1.12,3.09,3.09,0,0,1-.58-2,3.14,3.14,0,0,1,.59-1.88,3.72,3.72,0,0,1,1.66-1.26,6.47,6.47,0,0,1,2.47-.44,8,8,0,0,1,2.35.35,7.9,7.9,0,0,1,2,.94l-.76,1.64A7.71,7.71,0,0,0,302.91,322.37Z"/><path class="cls-2" d="M156.58,356.63v-1.41a4.13,4.13,0,0,1-3.52,1.48,4,4,0,0,1-1.84-.4,3,3,0,0,1-1.22-1.1,3,3,0,0,1-.43-1.58,2.58,2.58,0,0,1,1-2.14,4.47,4.47,0,0,1,2.79-.81h3.2v-.48a2.08,2.08,0,0,0-.66-1.65A2.8,2.8,0,0,0,154,348a5.47,5.47,0,0,0-3.1,1.08l-.74-1.22a9.23,9.23,0,0,1,2-1,6.86,6.86,0,0,1,2.2-.31,4.21,4.21,0,0,1,2.91.92,3.34,3.34,0,0,1,1,2.58l0,6.62Zm-1.06-2a2.37,2.37,0,0,0,1-1.59v-1h-3a3.44,3.44,0,0,0-1.78.36,1.25,1.25,0,0,0-.58,1.14,1.48,1.48,0,0,0,.59,1.24,2.51,2.51,0,0,0,1.58.46A3.61,3.61,0,0,0,155.52,354.64Z"/><path class="cls-2" d="M169.86,347.54a3.93,3.93,0,0,1,1,2.86v6.22H169.1v-5.75a2.69,2.69,0,0,0-.71-2,2.66,2.66,0,0,0-2-.71,3,3,0,0,0-2.2.87,3.4,3.4,0,0,0-1,2.2v5.38h-1.77V346.56h1.77v2.13a3.89,3.89,0,0,1,3.83-2.19A3.7,3.7,0,0,1,169.86,347.54Z"/><path class="cls-2" d="M183.41,342.51v14.12h-1.77v-2a4,4,0,0,1-1.53,1.55,4.47,4.47,0,0,1-2.24.54,4.8,4.8,0,0,1-2.52-.66,4.51,4.51,0,0,1-1.7-1.83,5.71,5.71,0,0,1-.61-2.67,5.55,5.55,0,0,1,.61-2.64,4.47,4.47,0,0,1,1.7-1.8,4.82,4.82,0,0,1,2.5-.65,4.63,4.63,0,0,1,2.26.53,3.8,3.8,0,0,1,1.52,1.54v-6.05ZM180,354.75a3.2,3.2,0,0,0,1.21-1.28,3.83,3.83,0,0,0,.44-1.85,3.88,3.88,0,0,0-.44-1.86,3.2,3.2,0,0,0-1.21-1.28,3.4,3.4,0,0,0-1.76-.46,3.34,3.34,0,0,0-1.76.47,3.28,3.28,0,0,0-1.21,1.28,4.11,4.11,0,0,0,0,3.69,3.21,3.21,0,0,0,1.21,1.28,3.62,3.62,0,0,0,3.52,0Z"/><path class="cls-2" d="M190.28,346.56h1.85l2.82,8.32,2.78-8.32h1.85l2.8,8.32,2.78-8.32H207l-3.71,10.07h-1.85l-2.78-7.92-2.78,7.92H194Z"/><path class="cls-2" d="M210.29,342.87a1.22,1.22,0,0,1,0,1.64,1.13,1.13,0,0,1-1.58,0,1.22,1.22,0,0,1,0-1.64,1.13,1.13,0,0,1,1.58,0Zm-1.67,3.69h1.77v10.07h-1.77Z"/><path class="cls-2" d="M222.21,347.54a3.93,3.93,0,0,1,1,2.86v6.22h-1.77v-5.75a2.47,2.47,0,0,0-2.68-2.7,3,3,0,0,0-2.2.87,3.39,3.39,0,0,0-1,2.2v5.38h-1.77V346.56h1.77v2.13a3.88,3.88,0,0,1,3.82-2.19A3.69,3.69,0,0,1,222.21,347.54Z"/><path class="cls-2" d="M235.55,348.09a3.51,3.51,0,0,0-1.76.44,3.11,3.11,0,0,0-1.21,1.24,3.78,3.78,0,0,0-.44,1.85,3.85,3.85,0,0,0,.43,1.85,3.15,3.15,0,0,0,1.18,1.25,3.3,3.3,0,0,0,1.72.45,4.53,4.53,0,0,0,1.75-.32,3.33,3.33,0,0,0,1.29-.93l1,1a4.46,4.46,0,0,1-1.74,1.31,6,6,0,0,1-2.39.46,5.2,5.2,0,0,1-2.61-.65,4.58,4.58,0,0,1-1.78-1.8,5.36,5.36,0,0,1-.64-2.64A5.42,5.42,0,0,1,231,349a4.57,4.57,0,0,1,1.78-1.81,5.21,5.21,0,0,1,2.61-.65,6.38,6.38,0,0,1,2.29.39,4.44,4.44,0,0,1,1.7,1.13l-1,1.22A4,4,0,0,0,235.55,348.09Z"/><path class="cls-2" d="M248.48,347.15a4.65,4.65,0,0,1,1.83,1.8,5.22,5.22,0,0,1,.66,2.63,5.27,5.27,0,0,1-.66,2.65,4.64,4.64,0,0,1-1.83,1.81,5.89,5.89,0,0,1-5.37,0,4.66,4.66,0,0,1-1.83-1.8,5.66,5.66,0,0,1,0-5.29,4.66,4.66,0,0,1,1.83-1.8,5.89,5.89,0,0,1,5.37,0ZM244,348.51a3.16,3.16,0,0,0-1.2,1.27,3.86,3.86,0,0,0-.43,1.84,4,4,0,0,0,.43,1.86,3.07,3.07,0,0,0,1.2,1.27,3.65,3.65,0,0,0,3.5,0,3.08,3.08,0,0,0,1.2-1.27,4,4,0,0,0,.43-1.86,3.86,3.86,0,0,0-.43-1.84,3.16,3.16,0,0,0-1.2-1.27,3.58,3.58,0,0,0-3.5,0Z"/><path class="cls-2" d="M260.29,347.15a4.65,4.65,0,0,1,1.83,1.8,5.22,5.22,0,0,1,.66,2.63,5.27,5.27,0,0,1-.66,2.65,4.64,4.64,0,0,1-1.83,1.81,5.89,5.89,0,0,1-5.37,0,4.66,4.66,0,0,1-1.83-1.8,5.66,5.66,0,0,1,0-5.29,4.66,4.66,0,0,1,1.83-1.8,5.89,5.89,0,0,1,5.37,0Zm-4.43,1.35a3.16,3.16,0,0,0-1.2,1.27,3.86,3.86,0,0,0-.43,1.84,4,4,0,0,0,.43,1.86,3.07,3.07,0,0,0,1.2,1.27,3.65,3.65,0,0,0,3.5,0,3.08,3.08,0,0,0,1.2-1.27,4,4,0,0,0,.43-1.86,3.86,3.86,0,0,0-.43-1.84,3.16,3.16,0,0,0-1.2-1.27,3.58,3.58,0,0,0-3.5,0Z"/><path class="cls-2" d="M265.34,342.51h1.77v14.12h-1.77Z"/><path class="cls-2" d="M270.14,350.22h4.55v1.28h-4.55Z"/><path class="cls-2" d="M277.73,342.51h1.77v14.12h-1.77Z"/><path class="cls-2" d="M289.92,347.15a4.65,4.65,0,0,1,1.83,1.8,5.22,5.22,0,0,1,.66,2.63,5.27,5.27,0,0,1-.66,2.65,4.64,4.64,0,0,1-1.83,1.81,5.89,5.89,0,0,1-5.37,0,4.66,4.66,0,0,1-1.83-1.8,5.66,5.66,0,0,1,0-5.29,4.66,4.66,0,0,1,1.83-1.8,5.89,5.89,0,0,1,5.37,0Zm-4.43,1.35a3.16,3.16,0,0,0-1.2,1.27,3.86,3.86,0,0,0-.43,1.84,4,4,0,0,0,.43,1.86,3.07,3.07,0,0,0,1.2,1.27,3.65,3.65,0,0,0,3.5,0,3.08,3.08,0,0,0,1.2-1.27,4,4,0,0,0,.43-1.86,3.86,3.86,0,0,0-.43-1.84,3.16,3.16,0,0,0-1.2-1.27,3.58,3.58,0,0,0-3.5,0Z"/><path class="cls-2" d="M301.74,347.15a4.65,4.65,0,0,1,1.83,1.8,5.22,5.22,0,0,1,.66,2.63,5.27,5.27,0,0,1-.66,2.65,4.64,4.64,0,0,1-1.83,1.81,5.89,5.89,0,0,1-5.37,0,4.66,4.66,0,0,1-1.83-1.8,5.66,5.66,0,0,1,0-5.29,4.66,4.66,0,0,1,1.83-1.8,5.89,5.89,0,0,1,5.37,0Zm-4.43,1.35a3.16,3.16,0,0,0-1.2,1.27,3.86,3.86,0,0,0-.43,1.84,4,4,0,0,0,.43,1.86,3.07,3.07,0,0,0,1.2,1.27,3.65,3.65,0,0,0,3.5,0,3.08,3.08,0,0,0,1.2-1.27,4,4,0,0,0,.43-1.86,3.86,3.86,0,0,0-.43-1.84,3.16,3.16,0,0,0-1.2-1.27,3.58,3.58,0,0,0-3.5,0Z"/><path class="cls-2" d="M313.73,356.63l-3.22-4.89-2,2v2.85h-1.77V342.51h1.77v9l4.87-4.95h2.07l-3.75,3.9,4.11,6.17Z"/><path class="cls-2" d="M319.43,342.87a1.22,1.22,0,0,1,0,1.64,1.13,1.13,0,0,1-1.58,0,1.22,1.22,0,0,1,0-1.64,1.13,1.13,0,0,1,1.58,0Zm-1.67,3.69h1.77v10.07h-1.77Z"/><path class="cls-2" d="M331.35,347.54a3.93,3.93,0,0,1,1,2.86v6.22h-1.77v-5.75a2.47,2.47,0,0,0-2.68-2.7,3,3,0,0,0-2.2.87,3.39,3.39,0,0,0-1,2.2v5.38H323V346.56h1.77v2.13a3.89,3.89,0,0,1,3.83-2.19A3.69,3.69,0,0,1,331.35,347.54Z"/><path class="cls-2" d="M344.42,346.56v9a4.91,4.91,0,0,1-.64,2.53,4.23,4.23,0,0,1-1.8,1.67,6,6,0,0,1-2.7.58,6.88,6.88,0,0,1-4.15-1.41l.78-1.29a5.38,5.38,0,0,0,1.54.9,5,5,0,0,0,1.75.29,3.5,3.5,0,0,0,2.49-.87,3.06,3.06,0,0,0,.93-2.34v-1.41a3.73,3.73,0,0,1-1.45,1.42,4.26,4.26,0,0,1-2.09.5,4.57,4.57,0,0,1-2.39-.62,4.22,4.22,0,0,1-1.61-1.72,5.44,5.44,0,0,1-.57-2.53,5.28,5.28,0,0,1,.57-2.49,4.18,4.18,0,0,1,1.61-1.69,4.63,4.63,0,0,1,2.39-.61,4.32,4.32,0,0,1,2.1.49,3.7,3.7,0,0,1,1.44,1.41v-1.85Zm-3.33,7.75a3.06,3.06,0,0,0,1.13-1.21,3.66,3.66,0,0,0,.41-1.74,3.7,3.7,0,0,0-.41-1.76,3.06,3.06,0,0,0-1.13-1.21,3.13,3.13,0,0,0-1.66-.44,3.18,3.18,0,0,0-1.67.44,3.1,3.1,0,0,0-1.15,1.21,3.63,3.63,0,0,0-.42,1.76,3.49,3.49,0,0,0,.91,2.44,3,3,0,0,0,2.32,1A3.13,3.13,0,0,0,341.09,354.31Z"/><path class="cls-2" d="M190.1,370.38a3.93,3.93,0,0,1,1,2.86v6.22h-1.77v-5.75a2.69,2.69,0,0,0-.71-2,2.66,2.66,0,0,0-2-.71,3,3,0,0,0-2.32,1,3.65,3.65,0,0,0-.86,2.51v4.95H181.7V365.35h1.77v6.22a3.89,3.89,0,0,1,3.84-2.23A3.7,3.7,0,0,1,190.1,370.38Z"/><path class="cls-2" d="M200.41,379.46v-1.41a4.13,4.13,0,0,1-3.52,1.48,4,4,0,0,1-1.84-.4,2.94,2.94,0,0,1-1.22-1.1,3,3,0,0,1-.43-1.58,2.58,2.58,0,0,1,1-2.14,4.47,4.47,0,0,1,2.79-.81h3.2V373a2.08,2.08,0,0,0-.66-1.65,2.8,2.8,0,0,0-1.91-.58,5.47,5.47,0,0,0-3.1,1.08l-.74-1.22a9.24,9.24,0,0,1,2-1,6.86,6.86,0,0,1,2.2-.31,4.21,4.21,0,0,1,2.91.92,3.34,3.34,0,0,1,1,2.58l0,6.62Zm-1.06-2a2.36,2.36,0,0,0,1-1.59v-1h-3a3.44,3.44,0,0,0-1.78.36,1.25,1.25,0,0,0-.58,1.14,1.48,1.48,0,0,0,.59,1.24,2.51,2.51,0,0,0,1.58.46A3.6,3.6,0,0,0,199.35,377.48Z"/><path class="cls-2" d="M209.5,370.92a3.51,3.51,0,0,0-1.76.44,3.12,3.12,0,0,0-1.21,1.24,3.79,3.79,0,0,0-.44,1.85,3.84,3.84,0,0,0,.43,1.85,3.15,3.15,0,0,0,1.18,1.25,3.3,3.3,0,0,0,1.72.45,4.53,4.53,0,0,0,1.75-.32,3.32,3.32,0,0,0,1.29-.93l1,1a4.45,4.45,0,0,1-1.74,1.31,6,6,0,0,1-2.39.46,5.19,5.19,0,0,1-2.61-.65,4.58,4.58,0,0,1-1.78-1.8,5.35,5.35,0,0,1-.64-2.64,5.41,5.41,0,0,1,.64-2.65,4.57,4.57,0,0,1,1.78-1.81,5.2,5.2,0,0,1,2.61-.65,6.37,6.37,0,0,1,2.29.39,4.43,4.43,0,0,1,1.7,1.13l-1,1.22A4,4,0,0,0,209.5,370.92Z"/><path class="cls-2" d="M223.05,379.46l-3.22-4.89-2,2v2.85h-1.77V365.35h1.77v9l4.87-4.95h2.07l-3.75,3.9,4.11,6.17Z"/><path class="cls-2" d="M232.49,378.8a4.33,4.33,0,0,1-2.36.74,2.69,2.69,0,0,1-1.94-.71,2.87,2.87,0,0,1-.74-2.16v-5.58H226v-1.35h1.43V367h1.79v2.7h3.08v1.35h-3.08v5.25a1.86,1.86,0,0,0,.3,1.2,1.13,1.13,0,0,0,.91.36,3.19,3.19,0,0,0,1.56-.48Z"/><path class="cls-2" d="M241.37,370a4.65,4.65,0,0,1,1.83,1.8,5.22,5.22,0,0,1,.66,2.63,5.27,5.27,0,0,1-.66,2.65,4.64,4.64,0,0,1-1.83,1.81,5.89,5.89,0,0,1-5.37,0,4.66,4.66,0,0,1-1.83-1.8,5.66,5.66,0,0,1,0-5.29A4.66,4.66,0,0,1,236,370a5.89,5.89,0,0,1,5.37,0Zm-4.43,1.35a3.16,3.16,0,0,0-1.2,1.27,3.86,3.86,0,0,0-.43,1.84,4,4,0,0,0,.43,1.86,3.07,3.07,0,0,0,1.2,1.27,3.65,3.65,0,0,0,3.5,0,3.08,3.08,0,0,0,1.2-1.27,4,4,0,0,0,.43-1.86,3.86,3.86,0,0,0-.43-1.84,3.16,3.16,0,0,0-1.2-1.27,3.58,3.58,0,0,0-3.5,0Z"/><path class="cls-2" d="M254.43,370a4.44,4.44,0,0,1,1.71,1.81,6.11,6.11,0,0,1,0,5.3,4.36,4.36,0,0,1-1.69,1.79,4.88,4.88,0,0,1-2.5.64,4.59,4.59,0,0,1-2.25-.53,3.83,3.83,0,0,1-1.52-1.52v2h-1.77V365.35h1.77v6.05a3.85,3.85,0,0,1,1.51-1.52,4.5,4.5,0,0,1,2.22-.53A4.88,4.88,0,0,1,254.43,370Zm-1.11,7.54a3.13,3.13,0,0,0,1.2-1.27,3.92,3.92,0,0,0,.43-1.85,3.81,3.81,0,0,0-.44-1.83,3.23,3.23,0,0,0-1.2-1.27,3.3,3.3,0,0,0-1.73-.46,3.35,3.35,0,0,0-1.74.46,3.2,3.2,0,0,0-1.21,1.27,4.09,4.09,0,0,0,0,3.68,3.21,3.21,0,0,0,1.21,1.26,3.55,3.55,0,0,0,3.48,0Z"/><path class="cls-2" d="M266.8,370.72a5.65,5.65,0,0,1,1.2,3.83c0,.25,0,.44,0,.57h-8a3.43,3.43,0,0,0,1.13,2.15,3.35,3.35,0,0,0,2.27.8,4.25,4.25,0,0,0,1.67-.32,4,4,0,0,0,1.34-.91l1,1a5.1,5.1,0,0,1-1.79,1.24,6,6,0,0,1-2.32.44,5.35,5.35,0,0,1-2.63-.64,4.48,4.48,0,0,1-1.79-1.8,5.79,5.79,0,0,1,0-5.28,4.64,4.64,0,0,1,1.78-1.81,5.14,5.14,0,0,1,2.61-.66A4.43,4.43,0,0,1,266.8,370.72Zm-.4,3a2.92,2.92,0,0,0-3.12-2.95,3.18,3.18,0,0,0-2.22.8,3.35,3.35,0,0,0-1.06,2.15Z"/><path class="cls-2" d="M273.59,369.92a4.19,4.19,0,0,1,2.17-.58v1.71a3.24,3.24,0,0,0-3.58,3.1v5.31h-1.77V369.4h1.77v2.17A3.64,3.64,0,0,1,273.59,369.92Z"/><path class="cls-2" d="M280.25,367.23a1.54,1.54,0,0,0-.46,1.2v1.31h2.78v1.35H279.8v8.37H278v-8.37h-1.31v-1.35H278v-1.08a3.55,3.55,0,0,1,.47-1.87,3,3,0,0,1,1.23-1.16,3.54,3.54,0,0,1,1.64-.39,3.91,3.91,0,0,1,1.75.46l-.42,1.45a3,3,0,0,0-1.29-.32A1.62,1.62,0,0,0,280.25,367.23Z"/><path class="cls-2" d="M291.58,370.72a5.65,5.65,0,0,1,1.2,3.83c0,.25,0,.44,0,.57h-8a3.43,3.43,0,0,0,1.13,2.15,3.35,3.35,0,0,0,2.27.8,4.26,4.26,0,0,0,1.67-.32,4,4,0,0,0,1.34-.91l1,1a5.08,5.08,0,0,1-1.79,1.24,6,6,0,0,1-2.32.44,5.35,5.35,0,0,1-2.63-.64,4.47,4.47,0,0,1-1.79-1.8,5.78,5.78,0,0,1,0-5.28,4.64,4.64,0,0,1,1.78-1.81,5.13,5.13,0,0,1,2.61-.66A4.44,4.44,0,0,1,291.58,370.72Zm-.4,3a2.92,2.92,0,0,0-3.12-2.95,3.18,3.18,0,0,0-2.22.8,3.35,3.35,0,0,0-1.06,2.15Z"/><path class="cls-2" d="M299.31,371a4.94,4.94,0,0,0-1.44-.23,2.45,2.45,0,0,0-1.28.29,1,1,0,0,0-.49.9,1,1,0,0,0,.54.92,7.84,7.84,0,0,0,1.65.64,12.94,12.94,0,0,1,1.71.61,3.05,3.05,0,0,1,1.13.89,2.77,2.77,0,0,1-.61,3.73,4.6,4.6,0,0,1-2.67.74,6.68,6.68,0,0,1-2.18-.36,5,5,0,0,1-1.78-1l.67-1.29a4.72,4.72,0,0,0,1.55.91,5.15,5.15,0,0,0,1.8.34,2.69,2.69,0,0,0,1.41-.32,1.08,1.08,0,0,0,.53-1,1.13,1.13,0,0,0-.56-1,7.66,7.66,0,0,0-1.7-.68,11.39,11.39,0,0,1-1.65-.58,2.93,2.93,0,0,1-1.09-.87,2.34,2.34,0,0,1-.45-1.48,2.39,2.39,0,0,1,1-2.11,4.45,4.45,0,0,1,2.57-.7,6.43,6.43,0,0,1,1.8.26,5.42,5.42,0,0,1,1.53.7l-.65,1.35A6,6,0,0,0,299.31,371Z"/><path class="cls-2" d="M309.35,378.8a4.33,4.33,0,0,1-2.36.74,2.68,2.68,0,0,1-1.94-.71,2.86,2.86,0,0,1-.74-2.16v-5.58h-1.43v-1.35h1.43V367h1.79v2.7h3.08v1.35h-3.08v5.25a1.86,1.86,0,0,0,.3,1.2,1.13,1.13,0,0,0,.91.36,3.19,3.19,0,0,0,1.56-.48Z"/><path class="cls-2" d="M176.58,389.67a6.81,6.81,0,0,1,0,11.94,7.76,7.76,0,0,1-7.27,0,6.76,6.76,0,0,1-2.58-2.47,6.8,6.8,0,0,1,2.57-9.47,7.85,7.85,0,0,1,7.28,0ZM170.92,392a4.1,4.1,0,0,0-1.5,1.53,4.39,4.39,0,0,0,0,4.28,4.28,4.28,0,0,0,1.5,1.54,3.88,3.88,0,0,0,2,.57,3.83,3.83,0,0,0,2-.56,4.08,4.08,0,0,0,1.46-1.54,4.38,4.38,0,0,0,.54-2.16,4.29,4.29,0,0,0-.54-2.13A4.1,4.1,0,0,0,175,392a3.83,3.83,0,0,0-2-.56A4,4,0,0,0,170.92,392Z"/><path class="cls-2" d="M190.8,392.62a4.4,4.4,0,0,1,1.69,1.86,6.09,6.09,0,0,1,.6,2.76,6,6,0,0,1-.59,2.71,4.36,4.36,0,0,1-1.67,1.82,4.76,4.76,0,0,1-2.5.65,4.23,4.23,0,0,1-1.89-.41,3.81,3.81,0,0,1-1.4-1.19V406h-2.93V392.06H185v1.5a3.66,3.66,0,0,1,1.38-1.19,4.13,4.13,0,0,1,1.85-.41A4.81,4.81,0,0,1,190.8,392.62Zm-1.38,6.56a3.3,3.3,0,0,0,0-4.07,2.33,2.33,0,0,0-1.83-.79,2.36,2.36,0,0,0-1.84.79,3.27,3.27,0,0,0,0,4.08,2.37,2.37,0,0,0,1.84.78A2.33,2.33,0,0,0,189.42,399.19Z"/><path class="cls-2" d="M203.19,393.39a5.74,5.74,0,0,1,1.28,4c0,.3,0,.54,0,.7h-7.35a2.6,2.6,0,0,0,2.65,2.06,3.58,3.58,0,0,0,1.39-.28,3.66,3.66,0,0,0,1.2-.81l1.54,1.56a5.2,5.2,0,0,1-1.89,1.34,6.37,6.37,0,0,1-2.48.47,5.89,5.89,0,0,1-2.83-.65,4.54,4.54,0,0,1-1.87-1.83,6,6,0,0,1,0-5.47,4.66,4.66,0,0,1,1.87-1.85,5.61,5.61,0,0,1,2.74-.66A4.8,4.8,0,0,1,203.19,393.39Zm-1.47,2.95a2.32,2.32,0,0,0-.65-1.62,2.19,2.19,0,0,0-1.62-.61,2.23,2.23,0,0,0-1.59.6,2.78,2.78,0,0,0-.81,1.63Z"/><path class="cls-2" d="M215.59,393a4,4,0,0,1,1,2.85v6.43h-2.93v-5.58a2.11,2.11,0,0,0-.54-1.53,2,2,0,0,0-1.47-.56,2.2,2.2,0,0,0-1.71.75,2.78,2.78,0,0,0-.63,1.87v5h-2.93V392.06h2.93v1.79a3.82,3.82,0,0,1,3.54-1.9A3.6,3.6,0,0,1,215.59,393Z"/><path class="cls-2" d="M219.2,389h10.14v2.49h-7.14v2.89h6.41v2.49h-6.41v2.95h7.34v2.49H219.2Z"/><path class="cls-2" d="M241.52,389.87a2.82,2.82,0,0,1,1.28,2.44,2.92,2.92,0,0,1-.62,1.86,3.08,3.08,0,0,1-1.68,1.08,3.26,3.26,0,0,1,2.78,3.37,3.17,3.17,0,0,1-1.35,2.7,6.1,6.1,0,0,1-3.67,1h-6.34V389H238A6,6,0,0,1,241.52,389.87ZM239.23,394a1.32,1.32,0,0,0,.49-1.09,1.28,1.28,0,0,0-.49-1.07,2,2,0,0,0-1.34-.36h-3v2.91h3A2.08,2.08,0,0,0,239.23,394Zm.33,5.46a1.37,1.37,0,0,0,.61-1.19,1.32,1.32,0,0,0-.61-1.14,2.83,2.83,0,0,0-1.67-.4h-3v3.16h3A2.87,2.87,0,0,0,239.56,399.42Z"/><path class="cls-2" d="M252.05,391.69a6.62,6.62,0,0,0-2-.37,2.32,2.32,0,0,0-1.24.29.93.93,0,0,0-.46.84,1.17,1.17,0,0,0,.66,1.08,10.14,10.14,0,0,0,2,.77,17.33,17.33,0,0,1,2.25.8,4,4,0,0,1,1.51,1.2,3.32,3.32,0,0,1,.63,2.11,3.63,3.63,0,0,1-.67,2.2,4.17,4.17,0,0,1-1.86,1.4,7.13,7.13,0,0,1-2.68.48,9.18,9.18,0,0,1-3.18-.57,8.57,8.57,0,0,1-2.7-1.56l1.2-2.46a8.1,8.1,0,0,0,2.32,1.47,6.24,6.24,0,0,0,2.4.55,2.64,2.64,0,0,0,1.46-.34,1.19,1.19,0,0,0,.17-1.84,2.73,2.73,0,0,0-.89-.54q-.54-.21-1.49-.48a16.84,16.84,0,0,1-2.24-.76,3.94,3.94,0,0,1-1.49-1.16,3.21,3.21,0,0,1-.63-2.07,3.52,3.52,0,0,1,.65-2.1,4.1,4.1,0,0,1,1.81-1.39,7,7,0,0,1,2.7-.49,9.34,9.34,0,0,1,2.7.4,9.17,9.17,0,0,1,2.36,1.07l-1.16,2.49A10.06,10.06,0,0,0,252.05,391.69Z"/><path class="cls-2" d="M268.31,401.73a4.78,4.78,0,0,1-1.27.52,5.51,5.51,0,0,1-1.4.18,3.31,3.31,0,0,1-2.32-.82,3,3,0,0,1-.89-2.34v-4.74H261v-2h1.43V389.7h2.91v2.82h2.78v2h-2.78v4.22q0,1.18.93,1.18a3.29,3.29,0,0,0,1.43-.38Z"/><path class="cls-2" d="M269.76,395.51h4.91v1.94h-4.91Z"/><path class="cls-2" d="M282,394.34a5,5,0,0,0-1.46-.26,1.69,1.69,0,0,0-.86.19.62.62,0,0,0-.32.57.71.71,0,0,0,.44.65,8.27,8.27,0,0,0,1.43.51,15.18,15.18,0,0,1,1.79.64,3.33,3.33,0,0,1,1.22.93,2.47,2.47,0,0,1,.51,1.63,2.76,2.76,0,0,1-1.17,2.37,5,5,0,0,1-3,.85,7.9,7.9,0,0,1-2.42-.37,6.26,6.26,0,0,1-2-1.06l1-2a6,6,0,0,0,1.74.94,5.56,5.56,0,0,0,1.82.33,1.92,1.92,0,0,0,.94-.2.65.65,0,0,0,.35-.6.76.76,0,0,0-.45-.68,7.49,7.49,0,0,0-1.44-.53,14.54,14.54,0,0,1-1.74-.61,3.11,3.11,0,0,1-1.19-.92,2.49,2.49,0,0,1-.49-1.61,2.76,2.76,0,0,1,1.14-2.36,4.76,4.76,0,0,1,2.89-.84,7.67,7.67,0,0,1,2.09.29,7,7,0,0,1,1.9.85l-1,2A8.59,8.59,0,0,0,282,394.34Z"/><path class="cls-2" d="M296,393a4,4,0,0,1,1,2.85v6.43h-2.93v-5.58a2.11,2.11,0,0,0-.54-1.53,2,2,0,0,0-1.48-.56,2.22,2.22,0,0,0-1.72.75,2.75,2.75,0,0,0-.64,1.87v5h-2.93V388.18h2.93v5.69a3.82,3.82,0,0,1,3.54-1.92A3.63,3.63,0,0,1,296,393Z"/><path class="cls-2" d="M302.1,388a1.78,1.78,0,0,1,0,2.36,1.54,1.54,0,0,1-1.15.46,1.5,1.5,0,0,1-1.13-.47,1.77,1.77,0,0,1,0-2.35,1.52,1.52,0,0,1,1.13-.46A1.54,1.54,0,0,1,302.1,388Zm-2.6,4.09h2.93V402.3H299.5Z"/><path class="cls-2" d="M309.57,392.46a4.06,4.06,0,0,1,2-.51v2.76l-.46,0a3,3,0,0,0-2.14.73,2.53,2.53,0,0,0-.79,2v4.93h-2.93V392.06h2.93v1.85A3.73,3.73,0,0,1,309.57,392.46Z"/><path class="cls-2" d="M319.5,401.73a4.78,4.78,0,0,1-1.27.52,5.51,5.51,0,0,1-1.4.18,3.31,3.31,0,0,1-2.32-.82,3,3,0,0,1-.89-2.34v-4.74h-1.43v-2h1.43V389.7h2.91v2.82h2.78v2h-2.78v4.22q0,1.18.93,1.18a3.29,3.29,0,0,0,1.43-.38Z"/><path class="cls-2" d="M326.06,394.34a5,5,0,0,0-1.46-.26,1.69,1.69,0,0,0-.86.19.62.62,0,0,0-.32.57.7.7,0,0,0,.44.65,8.25,8.25,0,0,0,1.43.51,15,15,0,0,1,1.79.64,3.34,3.34,0,0,1,1.22.93,2.47,2.47,0,0,1,.51,1.63,2.76,2.76,0,0,1-1.17,2.37,5,5,0,0,1-3,.85,7.89,7.89,0,0,1-2.42-.37,6.24,6.24,0,0,1-2-1.06l1-2a6,6,0,0,0,1.74.94,5.56,5.56,0,0,0,1.82.33,1.92,1.92,0,0,0,.94-.2.65.65,0,0,0,.35-.6.76.76,0,0,0-.45-.68,7.49,7.49,0,0,0-1.44-.53,14.54,14.54,0,0,1-1.74-.61,3.1,3.1,0,0,1-1.19-.92,2.49,2.49,0,0,1-.5-1.61,2.75,2.75,0,0,1,1.14-2.36,4.76,4.76,0,0,1,2.89-.84,7.66,7.66,0,0,1,2.09.29,7,7,0,0,1,1.9.85l-1,2A8.59,8.59,0,0,0,326.06,394.34Z"/><rect class="cls-3" x="111" y="226.02" width="272" height="227.96"/><path class="cls-4" d="M246.51,341.25a.92.92,0,0,1,0-.52A1.83,1.83,0,0,1,247,340a1.35,1.35,0,0,1,1.27-.46,1.54,1.54,0,0,0,2.05-.54,1.51,1.51,0,0,0-.54-2.05,4.47,4.47,0,0,0-5.86,5.83,1.51,1.51,0,0,0,2.05.54,1.54,1.54,0,0,0,.54-2.05Z"/></svg>