<svg id="Layer_1" data-name="Layer 1" xmlns="http://www.w3.org/2000/svg" viewBox="0 0 352 353"><defs><style>.cls-1{fill:#4a3736;}.cls-2{fill:#4f2403;}.cls-3{fill:#24605e;}.cls-4{fill:#62b2b2;}.cls-5{fill:#ff4b00;}.cls-6{fill:#f8f7f5;}.cls-7{fill:#e6ac92;}.cls-8{fill:#fdbf5e;}.cls-9{fill:#c68d77;}.cls-10{fill:#654237;}.cls-11{fill:#f85e51;}.cls-12{fill:#ce957e;}.cls-13{fill:#a3be92;}.cls-14{fill:#dcb605;}.cls-15{fill:#2d1515;}.cls-16{fill:#d3e8f5;}.cls-17{fill:#bf6b26;}.cls-18{fill:#ef8813;}.cls-19{fill:#7c9b62;}.cls-20{fill:#25829f;}.cls-21{fill:#060c0c;}.cls-22{fill:#37a9bc;}</style></defs><title>cafe sitting</title><path class="cls-1" d="M40.43,309h2.75v6.14h7.17V309H53.1v14.37H50.35v-5.83H43.19v5.83H40.43Z"/><path class="cls-1" d="M65.08,313.85a6.15,6.15,0,0,1,1.32,4.21c0,.36,0,.62,0,.8H58.28a3.06,3.06,0,0,0,3.14,2.5A4.18,4.18,0,0,0,63,321a3.94,3.94,0,0,0,1.34-.91l1.44,1.5a5.56,5.56,0,0,1-2,1.4,6.74,6.74,0,0,1-2.62.49,6.11,6.11,0,0,1-3-.7,4.87,4.87,0,0,1-2-2,6.38,6.38,0,0,1,0-5.82,5,5,0,0,1,2-2,5.85,5.85,0,0,1,2.89-.71A5,5,0,0,1,65.08,313.85ZM64,317.07a2.66,2.66,0,0,0-.8-1.93,3.12,3.12,0,0,0-4,0,3.13,3.13,0,0,0-1,1.94Z"/><path class="cls-1" d="M71.55,326.83a3.78,3.78,0,0,1-2.27.69,4.2,4.2,0,0,1-1.45-.24,4.54,4.54,0,0,1-1.28-.75l1.15-2a3.4,3.4,0,0,0,.72.42,1.84,1.84,0,0,0,.7.13,1.68,1.68,0,0,0,1.6-1.11l.33-.72-4.54-10.8h2.77l3.12,8,2.85-8h2.69L73,324.79A4.31,4.31,0,0,1,71.55,326.83Z"/><path class="cls-1" d="M81.37,321.05a1.44,1.44,0,0,1,.4,1,1.5,1.5,0,0,1-.4,1.08,1.34,1.34,0,0,1-1,.42,1.31,1.31,0,0,1-1-.43,1.51,1.51,0,0,1-.4-1.07,1.44,1.44,0,0,1,.4-1,1.34,1.34,0,0,1,1-.41A1.36,1.36,0,0,1,81.37,321.05Zm-2.29-11.87h2.57v3.57l-.45,6H79.53l-.45-6Z"/><path class="cls-1" d="M91.48,308.16a1.6,1.6,0,0,1,.43,1.15,1.57,1.57,0,0,1-.43,1.13,1.54,1.54,0,0,1-2.18,0,1.57,1.57,0,0,1-.43-1.13,1.59,1.59,0,0,1,.43-1.15,1.54,1.54,0,0,1,2.18,0Zm-2.4,4.27h2.67v11H89.08Z"/><path class="cls-1" d="M98.61,310.71a1.31,1.31,0,0,0-.4,1v1.13H101v2H98.21v8.58H95.54v-8.58H94.11v-2h1.44v-1a3.8,3.8,0,0,1,.54-2.06,3.4,3.4,0,0,1,1.43-1.28,4.41,4.41,0,0,1,1.94-.43,4.61,4.61,0,0,1,2,.47l-.47,2.16a3.83,3.83,0,0,0-1.35-.33A1.49,1.49,0,0,0,98.61,310.71Z"/><path class="cls-1" d="M110.81,326.83a3.78,3.78,0,0,1-2.27.69,4.2,4.2,0,0,1-1.45-.24,4.54,4.54,0,0,1-1.28-.75l1.15-2a3.4,3.4,0,0,0,.72.42,1.84,1.84,0,0,0,.7.13,1.68,1.68,0,0,0,1.6-1.11l.33-.72-4.54-10.8h2.77l3.12,8,2.85-8h2.69l-4.93,12.36A4.31,4.31,0,0,1,110.81,326.83Z"/><path class="cls-1" d="M126.17,313a5.06,5.06,0,0,1,2,2,5.71,5.71,0,0,1,.73,2.91,5.81,5.81,0,0,1-.73,2.94,5,5,0,0,1-2,2,6.27,6.27,0,0,1-3,.7,6.37,6.37,0,0,1-3-.7,5,5,0,0,1-2-2,5.8,5.8,0,0,1-.73-2.94,5.7,5.7,0,0,1,.73-2.91,5,5,0,0,1,2-2,6.38,6.38,0,0,1,3-.7A6.28,6.28,0,0,1,126.17,313Zm-5.27,2.5a3.78,3.78,0,0,0,0,4.8,2.94,2.94,0,0,0,2.26.92,2.89,2.89,0,0,0,2.22-.92,3.77,3.77,0,0,0,0-4.8,2.89,2.89,0,0,0-2.22-.92A2.94,2.94,0,0,0,120.9,315.55Z"/><path class="cls-1" d="M141.39,312.43v11H138.7v-2a3.94,3.94,0,0,1-3.82,2.14,3.82,3.82,0,0,1-2.92-1.13,4.3,4.3,0,0,1-1.07-3.08v-6.88h2.69v6.1a2.51,2.51,0,0,0,.63,1.81A2.28,2.28,0,0,0,136,321a2.54,2.54,0,0,0,2-.9,3.37,3.37,0,0,0,.74-2.24v-5.42Z"/><path class="cls-1" d="M156.24,323.42v-1.33a3.61,3.61,0,0,1-1.48,1.09,5.45,5.45,0,0,1-2.07.37,4.42,4.42,0,0,1-2-.44,3.24,3.24,0,0,1-1.34-1.22,3.31,3.31,0,0,1-.47-1.75,2.92,2.92,0,0,1,1.09-2.41,4.9,4.9,0,0,1,3.08-.89h3.2v-.29a1.85,1.85,0,0,0-.64-1.5,2.81,2.81,0,0,0-1.85-.53,6.34,6.34,0,0,0-3.26,1l-1-1.85a12.07,12.07,0,0,1,2.35-1,8.63,8.63,0,0,1,2.47-.32,4.9,4.9,0,0,1,3.32,1,3.66,3.66,0,0,1,1.2,2.88l0,7.19Zm-.95-2.47a1.89,1.89,0,0,0,.92-1.34v-1h-2.77a3,3,0,0,0-1.57.32,1.13,1.13,0,0,0-.5,1,1.34,1.34,0,0,0,.52,1.11,2.25,2.25,0,0,0,1.43.41A3.48,3.48,0,0,0,155.29,320.94Z"/><path class="cls-1" d="M166,312.91a4.44,4.44,0,0,1,2.23-.58v2.59a3.62,3.62,0,0,0-2.72.79,3.05,3.05,0,0,0-1,2.41v5.3h-2.67v-11h2.67v2.12A4,4,0,0,1,166,312.91Z"/><path class="cls-1" d="M178.67,313.85a6.15,6.15,0,0,1,1.32,4.21q0,.53,0,.8h-8.11a3.06,3.06,0,0,0,3.14,2.5,4.19,4.19,0,0,0,1.61-.32,4,4,0,0,0,1.34-.91l1.44,1.5a5.56,5.56,0,0,1-2,1.4,6.74,6.74,0,0,1-2.62.49,6.1,6.1,0,0,1-3-.7,4.88,4.88,0,0,1-2-2,6.38,6.38,0,0,1,0-5.82,5,5,0,0,1,2-2,5.86,5.86,0,0,1,2.9-.71A5,5,0,0,1,178.67,313.85Zm-1.12,3.22a2.66,2.66,0,0,0-.8-1.93,3.12,3.12,0,0,0-4,0,3.13,3.13,0,0,0-1,1.94Z"/><path class="cls-1" d="M189.73,308.16a1.59,1.59,0,0,1,.43,1.15,1.57,1.57,0,0,1-.43,1.13,1.54,1.54,0,0,1-2.18,0,1.57,1.57,0,0,1-.43-1.13,1.6,1.6,0,0,1,.43-1.15,1.53,1.53,0,0,1,2.18,0Zm-2.4,4.27H190v11h-2.67Z"/><path class="cls-1" d="M202.89,313.47a4.29,4.29,0,0,1,1.09,3.09v6.86h-2.69v-6.08a2.48,2.48,0,0,0-.66-1.82,2.39,2.39,0,0,0-1.79-.67,2.71,2.71,0,0,0-2.11.9A3.32,3.32,0,0,0,196,318v5.4H193.3v-11H196v2.05a4.16,4.16,0,0,1,3.94-2.16A3.92,3.92,0,0,1,202.89,313.47Z"/><path class="cls-1" d="M222.12,310a3.08,3.08,0,0,1,1.32,2.63,3.14,3.14,0,0,1-2.5,3.18,3.71,3.71,0,0,1,2.25,1.23,3.61,3.61,0,0,1,.81,2.4,3.42,3.42,0,0,1-1.43,2.91,6.4,6.4,0,0,1-3.89,1.06h-6.57V309h6.38A6,6,0,0,1,222.12,310ZM220,314.44a1.58,1.58,0,0,0,.61-1.31,1.5,1.5,0,0,0-.61-1.27,2.66,2.66,0,0,0-1.67-.43h-3.49v3.49h3.49A2.66,2.66,0,0,0,220,314.44Zm.38,6.1a1.65,1.65,0,0,0,.74-1.44,1.59,1.59,0,0,0-.74-1.39,3.52,3.52,0,0,0-2.05-.48h-3.49V321h3.49A3.45,3.45,0,0,0,220.4,320.54Z"/><path class="cls-1" d="M233.05,323.42v-1.33a3.6,3.6,0,0,1-1.48,1.09,5.44,5.44,0,0,1-2.07.37,4.42,4.42,0,0,1-2-.44,3.24,3.24,0,0,1-1.35-1.22,3.3,3.3,0,0,1-.47-1.75,2.92,2.92,0,0,1,1.09-2.41,4.9,4.9,0,0,1,3.08-.89H233v-.29a1.85,1.85,0,0,0-.64-1.5,2.81,2.81,0,0,0-1.85-.53,6.35,6.35,0,0,0-3.26,1l-1-1.85a12.1,12.1,0,0,1,2.35-1,8.63,8.63,0,0,1,2.47-.32,4.9,4.9,0,0,1,3.32,1,3.66,3.66,0,0,1,1.2,2.88l0,7.19Zm-.94-2.47a1.89,1.89,0,0,0,.92-1.34v-1h-2.77a3,3,0,0,0-1.57.32,1.13,1.13,0,0,0-.5,1,1.33,1.33,0,0,0,.52,1.11,2.25,2.25,0,0,0,1.43.41A3.48,3.48,0,0,0,232.11,320.94Z"/><path class="cls-1" d="M248.27,313.47a4.29,4.29,0,0,1,1.09,3.09v6.86h-2.69v-6.08a2.48,2.48,0,0,0-.66-1.82,2.4,2.4,0,0,0-1.79-.67,2.71,2.71,0,0,0-2.1.9,3.32,3.32,0,0,0-.77,2.26v5.4h-2.67v-11h2.67v2.05a4.16,4.16,0,0,1,3.94-2.16A3.92,3.92,0,0,1,248.27,313.47Z"/><path class="cls-1" d="M262.39,312.43v9.94a5.11,5.11,0,0,1-.71,2.72,4.66,4.66,0,0,1-2,1.79,6.93,6.93,0,0,1-3,.63A8.07,8.07,0,0,1,252,326l1.07-1.93a5.65,5.65,0,0,0,3.43,1.15,3.45,3.45,0,0,0,2.35-.76,2.6,2.6,0,0,0,.87-2.07v-1.29a3.64,3.64,0,0,1-1.44,1.28,4.52,4.52,0,0,1-2.05.44,4.83,4.83,0,0,1-2.55-.67,4.55,4.55,0,0,1-1.73-1.87,6,6,0,0,1-.62-2.76,5.8,5.8,0,0,1,.62-2.72,4.52,4.52,0,0,1,1.73-1.84,4.89,4.89,0,0,1,2.55-.66,4.47,4.47,0,0,1,2,.45,3.76,3.76,0,0,1,1.45,1.27v-1.64Zm-3.48,7.46a3.58,3.58,0,0,0,0-4.54,3,3,0,0,0-4.21,0,3.5,3.5,0,0,0,0,4.53,3,3,0,0,0,4.21,0Z"/><path class="cls-1" d="M272,323.42v-1.33a3.6,3.6,0,0,1-1.48,1.09,5.45,5.45,0,0,1-2.07.37,4.42,4.42,0,0,1-2-.44,3.24,3.24,0,0,1-1.34-1.22,3.3,3.3,0,0,1-.47-1.75,2.92,2.92,0,0,1,1.09-2.41,4.9,4.9,0,0,1,3.08-.89H272v-.29a1.85,1.85,0,0,0-.64-1.5,2.81,2.81,0,0,0-1.85-.53,6.35,6.35,0,0,0-3.27,1l-1-1.85a12.13,12.13,0,0,1,2.35-1,8.63,8.63,0,0,1,2.47-.32,4.9,4.9,0,0,1,3.32,1,3.66,3.66,0,0,1,1.2,2.88l0,7.19Zm-.94-2.47a1.89,1.89,0,0,0,.92-1.34v-1h-2.77a3,3,0,0,0-1.57.32,1.13,1.13,0,0,0-.5,1,1.33,1.33,0,0,0,.52,1.11,2.25,2.25,0,0,0,1.43.41A3.49,3.49,0,0,0,271.08,320.94Z"/><path class="cls-1" d="M277.75,308.18h2.67v15.24h-2.67Z"/><path class="cls-1" d="M291.66,313a5.06,5.06,0,0,1,2,2,5.71,5.71,0,0,1,.73,2.91,5.81,5.81,0,0,1-.73,2.94,5,5,0,0,1-2,2,6.28,6.28,0,0,1-3,.7,6.37,6.37,0,0,1-3-.7,5,5,0,0,1-2-2,5.81,5.81,0,0,1-.73-2.94,5.71,5.71,0,0,1,.73-2.91,5,5,0,0,1,2-2,6.38,6.38,0,0,1,3-.7A6.29,6.29,0,0,1,291.66,313Zm-5.27,2.5a3.78,3.78,0,0,0,0,4.8,3,3,0,0,0,2.26.92,2.9,2.9,0,0,0,2.22-.92,3.78,3.78,0,0,0,0-4.8,2.9,2.9,0,0,0-2.22-.92A3,3,0,0,0,286.39,315.55Z"/><path class="cls-1" d="M300.92,312.91a4.44,4.44,0,0,1,2.23-.58v2.59a3.62,3.62,0,0,0-2.72.79,3.05,3.05,0,0,0-1,2.41v5.3h-2.67v-11h2.67v2.12A4,4,0,0,1,300.92,312.91Z"/><path class="cls-1" d="M313.55,313.85a6.15,6.15,0,0,1,1.32,4.21q0,.53,0,.8h-8.11a3.06,3.06,0,0,0,3.14,2.5,4.18,4.18,0,0,0,1.61-.32,4,4,0,0,0,1.35-.91l1.44,1.5a5.57,5.57,0,0,1-2,1.4,6.74,6.74,0,0,1-2.62.49,6.11,6.11,0,0,1-3-.7,4.88,4.88,0,0,1-2-2,6.37,6.37,0,0,1,0-5.82,5,5,0,0,1,2-2,5.86,5.86,0,0,1,2.9-.71A5,5,0,0,1,313.55,313.85Zm-1.12,3.22a2.66,2.66,0,0,0-.8-1.93,3.12,3.12,0,0,0-4,0,3.13,3.13,0,0,0-1,1.94Z"/><path class="cls-1" d="M318.78,321.07a1.39,1.39,0,0,1,.4,1,1.59,1.59,0,0,1-.09.55,5.48,5.48,0,0,1-.28.6l-1.29,2.48h-1.33l.86-2.44a1.34,1.34,0,0,1-.62-1.19,1.42,1.42,0,0,1,.39-1,1.31,1.31,0,0,1,1-.4A1.34,1.34,0,0,1,318.78,321.07Z"/><path class="cls-1" d="M7.68,349.9a1.18,1.18,0,0,0,1-.44,2.16,2.16,0,0,0,.36-1.34v-11h2.67v11.46a3.69,3.69,0,0,1-.91,2.66,3.34,3.34,0,0,1-2.54,1,5.61,5.61,0,0,1-2.14-.41l.58-2A3.31,3.31,0,0,0,7.68,349.9Zm3.8-17.1a1.6,1.6,0,0,1,.43,1.15,1.57,1.57,0,0,1-.43,1.13,1.54,1.54,0,0,1-2.18,0,1.57,1.57,0,0,1-.43-1.13,1.59,1.59,0,0,1,.43-1.15,1.53,1.53,0,0,1,2.18,0Z"/><path class="cls-1" d="M22.72,337.69a5.06,5.06,0,0,1,2,2,5.71,5.71,0,0,1,.73,2.91,5.81,5.81,0,0,1-.73,2.94,5,5,0,0,1-2,2,6.27,6.27,0,0,1-3,.7,6.37,6.37,0,0,1-3-.7,5,5,0,0,1-2-2,5.8,5.8,0,0,1-.73-2.94,5.7,5.7,0,0,1,.73-2.91,5,5,0,0,1,2-2,6.38,6.38,0,0,1,3-.7A6.28,6.28,0,0,1,22.72,337.69Zm-5.27,2.5a3.78,3.78,0,0,0,0,4.8,2.94,2.94,0,0,0,2.26.92,2.89,2.89,0,0,0,2.22-.92,3.77,3.77,0,0,0,0-4.8,2.89,2.89,0,0,0-2.22-.92A2.94,2.94,0,0,0,17.46,340.19Z"/><path class="cls-1" d="M30.21,332.8a1.6,1.6,0,0,1,.43,1.15,1.57,1.57,0,0,1-.43,1.13,1.54,1.54,0,0,1-2.18,0,1.57,1.57,0,0,1-.43-1.13A1.59,1.59,0,0,1,28,332.8a1.54,1.54,0,0,1,2.18,0Zm-2.4,4.27h2.67v11H27.81Z"/><path class="cls-1" d="M43.37,338.11a4.28,4.28,0,0,1,1.09,3.09v6.86H41.77V342a2.48,2.48,0,0,0-.66-1.82,2.39,2.39,0,0,0-1.79-.67,2.71,2.71,0,0,0-2.1.9,3.31,3.31,0,0,0-.77,2.26v5.4H33.78v-11h2.67v2.05A4.16,4.16,0,0,1,40.39,337,3.92,3.92,0,0,1,43.37,338.11Z"/><path class="cls-1" d="M58.91,347.38a5.2,5.2,0,0,1-2.75.8,3.29,3.29,0,0,1-2.32-.83,3.17,3.17,0,0,1-.9-2.45v-5.42H51.4l0-2h1.56v-3h2.65v3h3.14v2H55.59v4.95a1.6,1.6,0,0,0,.29,1.08,1.1,1.1,0,0,0,.86.32,3.83,3.83,0,0,0,1.56-.45Z"/><path class="cls-1" d="M70.72,338.11a4.29,4.29,0,0,1,1.09,3.09v6.86H69.12V342a2.48,2.48,0,0,0-.66-1.82,2.4,2.4,0,0,0-1.79-.67,2.74,2.74,0,0,0-2.12.9,3.29,3.29,0,0,0-.78,2.26v5.4H61.11V332.82h2.67v6.34a4.16,4.16,0,0,1,4-2.2A3.92,3.92,0,0,1,70.72,338.11Z"/><path class="cls-1" d="M83.34,338.49a6.15,6.15,0,0,1,1.32,4.21q0,.53,0,.8H76.53a3.06,3.06,0,0,0,3.14,2.5,4.18,4.18,0,0,0,1.61-.32,4,4,0,0,0,1.35-.91l1.44,1.5a5.57,5.57,0,0,1-2,1.4,6.74,6.74,0,0,1-2.62.49,6.11,6.11,0,0,1-3-.7,4.88,4.88,0,0,1-2-2,6.37,6.37,0,0,1,0-5.82,5,5,0,0,1,2-2,5.86,5.86,0,0,1,2.9-.71A5,5,0,0,1,83.34,338.49Zm-1.12,3.22a2.66,2.66,0,0,0-.8-1.93,3.12,3.12,0,0,0-4,0,3.13,3.13,0,0,0-1,1.94Z"/><path class="cls-1" d="M92.09,333.68h2.75v6.14H102v-6.14h2.75v14.37H102v-5.83H94.85v5.83H92.09Z"/><path class="cls-1" d="M114.7,348.05v-1.33a3.61,3.61,0,0,1-1.48,1.09,5.45,5.45,0,0,1-2.07.37,4.42,4.42,0,0,1-2-.44,3.23,3.23,0,0,1-1.34-1.22,3.3,3.3,0,0,1-.47-1.75,2.92,2.92,0,0,1,1.09-2.41,4.9,4.9,0,0,1,3.08-.89h3.2v-.29a1.85,1.85,0,0,0-.64-1.5,2.81,2.81,0,0,0-1.85-.53,6.34,6.34,0,0,0-3.26,1l-1-1.85a12.1,12.1,0,0,1,2.35-1,8.63,8.63,0,0,1,2.47-.32,4.9,4.9,0,0,1,3.32,1,3.66,3.66,0,0,1,1.2,2.88l0,7.19Zm-.94-2.47a1.89,1.89,0,0,0,.92-1.34v-1h-2.77a3,3,0,0,0-1.57.32,1.13,1.13,0,0,0-.5,1,1.34,1.34,0,0,0,.52,1.11,2.25,2.25,0,0,0,1.43.41A3.48,3.48,0,0,0,113.76,345.58Z"/><path class="cls-1" d="M125,339.33a2.81,2.81,0,0,0-2.17.9,3.32,3.32,0,0,0-.83,2.34,3.38,3.38,0,0,0,.83,2.38,2.81,2.81,0,0,0,2.17.9,3.48,3.48,0,0,0,3-1.29l1.66,1.38a4.86,4.86,0,0,1-2,1.64,6.49,6.49,0,0,1-2.81.58,5.86,5.86,0,0,1-2.89-.7,4.91,4.91,0,0,1-2-2,6.42,6.42,0,0,1,0-5.84,5,5,0,0,1,2-2,5.91,5.91,0,0,1,2.91-.7,6.55,6.55,0,0,1,2.68.52A4.84,4.84,0,0,1,129.5,339l-1.62,1.54A3.72,3.72,0,0,0,125,339.33Z"/><path class="cls-1" d="M138.33,347.38a5.21,5.21,0,0,1-2.75.8,3.3,3.3,0,0,1-2.32-.83,3.18,3.18,0,0,1-.9-2.45v-5.42h-1.54l0-2h1.56v-3H135v3h3.14v2H135v4.95a1.6,1.6,0,0,0,.29,1.08,1.1,1.1,0,0,0,.86.32,3.83,3.83,0,0,0,1.56-.45Z"/><path class="cls-1" d="M148.14,337.69a5.06,5.06,0,0,1,2,2,5.71,5.71,0,0,1,.73,2.91,5.81,5.81,0,0,1-.73,2.94,5,5,0,0,1-2,2,6.28,6.28,0,0,1-3,.7,6.37,6.37,0,0,1-3-.7,5,5,0,0,1-2-2,5.81,5.81,0,0,1-.73-2.94,5.71,5.71,0,0,1,.73-2.91,5,5,0,0,1,2-2,6.38,6.38,0,0,1,3-.7A6.29,6.29,0,0,1,148.14,337.69Zm-5.27,2.5a3.78,3.78,0,0,0,0,4.8,3,3,0,0,0,2.26.92,2.9,2.9,0,0,0,2.22-.92,3.78,3.78,0,0,0,0-4.8,2.9,2.9,0,0,0-2.22-.92A3,3,0,0,0,142.87,340.19Z"/><path class="cls-1" d="M162.41,337.7a4.8,4.8,0,0,1,1.83,2,6.41,6.41,0,0,1,.65,2.94,6.31,6.31,0,0,1-.64,2.9,4.69,4.69,0,0,1-1.81,2,5.19,5.19,0,0,1-2.71.7,4.71,4.71,0,0,1-2.18-.48,4.08,4.08,0,0,1-1.56-1.41v1.79h-2.67V332.82H156v6.06a4,4,0,0,1,1.53-1.41,4.66,4.66,0,0,1,2.17-.48A5.19,5.19,0,0,1,162.41,337.7Zm-1.1,7.23a3.39,3.39,0,0,0,.86-2.39,3.35,3.35,0,0,0-.86-2.38,3.15,3.15,0,0,0-4.46,0,3.75,3.75,0,0,0,0,4.78,2.92,2.92,0,0,0,2.24.92A2.88,2.88,0,0,0,161.31,344.92Z"/><path class="cls-1" d="M175.73,338.49a6.15,6.15,0,0,1,1.32,4.21q0,.53,0,.8h-8.11a3.06,3.06,0,0,0,3.14,2.5,4.19,4.19,0,0,0,1.61-.32,4,4,0,0,0,1.34-.91l1.44,1.5a5.56,5.56,0,0,1-2,1.4,6.74,6.74,0,0,1-2.62.49,6.1,6.1,0,0,1-3-.7,4.88,4.88,0,0,1-2-2,6.38,6.38,0,0,1,0-5.82,5,5,0,0,1,2-2,5.86,5.86,0,0,1,2.9-.71A5,5,0,0,1,175.73,338.49Zm-1.12,3.22a2.66,2.66,0,0,0-.8-1.93,3.12,3.12,0,0,0-4,0,3.13,3.13,0,0,0-1,1.94Z"/><path class="cls-1" d="M183.54,337.55a4.44,4.44,0,0,1,2.23-.58v2.59a3.62,3.62,0,0,0-2.72.79,3.05,3.05,0,0,0-1,2.41v5.3h-2.67v-11H182v2.12A4,4,0,0,1,183.54,337.55Z"/><path class="cls-1" d="M191.19,335.34a1.32,1.32,0,0,0-.4,1v1.13h2.75v2h-2.75v8.58h-2.67v-8.58h-1.44v-2h1.44v-1a3.81,3.81,0,0,1,.53-2.06,3.41,3.41,0,0,1,1.43-1.28,4.41,4.41,0,0,1,1.94-.43,4.61,4.61,0,0,1,2,.47l-.47,2.16a3.84,3.84,0,0,0-1.35-.33A1.5,1.5,0,0,0,191.19,335.34Z"/><path class="cls-1" d="M203.45,338.49a6.15,6.15,0,0,1,1.32,4.21q0,.53,0,.8h-8.11a3.06,3.06,0,0,0,3.14,2.5,4.18,4.18,0,0,0,1.61-.32,4,4,0,0,0,1.35-.91l1.44,1.5a5.57,5.57,0,0,1-2,1.4,6.74,6.74,0,0,1-2.62.49,6.11,6.11,0,0,1-3-.7,4.88,4.88,0,0,1-2-2,6.37,6.37,0,0,1,0-5.82,5,5,0,0,1,2-2,5.86,5.86,0,0,1,2.9-.71A5,5,0,0,1,203.45,338.49Zm-1.12,3.22a2.66,2.66,0,0,0-.8-1.93,3.12,3.12,0,0,0-4,0,3.13,3.13,0,0,0-1,1.94Z"/><path class="cls-1" d="M211.93,339.31a5.29,5.29,0,0,0-1.57-.27,2.13,2.13,0,0,0-1.08.24.79.79,0,0,0-.4.73.86.86,0,0,0,.5.79,8.1,8.1,0,0,0,1.59.59,15.29,15.29,0,0,1,1.89.69,3.55,3.55,0,0,1,1.28,1,2.7,2.7,0,0,1,.54,1.76,2.83,2.83,0,0,1-1.23,2.46,5.27,5.27,0,0,1-3.1.86,7.87,7.87,0,0,1-2.48-.4,5.84,5.84,0,0,1-2.05-1.14l.92-1.87a5.41,5.41,0,0,0,1.77,1,5.91,5.91,0,0,0,2,.36,2.34,2.34,0,0,0,1.18-.26.84.84,0,0,0,.44-.77.93.93,0,0,0-.51-.86,9.12,9.12,0,0,0-1.66-.64,14,14,0,0,1-1.81-.65,3.27,3.27,0,0,1-1.21-1,2.65,2.65,0,0,1-.51-1.69,2.86,2.86,0,0,1,1.18-2.47,4.94,4.94,0,0,1,3-.85,7.65,7.65,0,0,1,2.15.31,6.67,6.67,0,0,1,1.88.86l-1,1.93A7.9,7.9,0,0,0,211.93,339.31Z"/><path class="cls-1" d="M223.4,347.38a5.21,5.21,0,0,1-2.75.8,3.29,3.29,0,0,1-2.32-.83,3.17,3.17,0,0,1-.9-2.45v-5.42h-1.54l0-2h1.56v-3h2.65v3h3.14v2h-3.14v4.95a1.6,1.6,0,0,0,.29,1.08,1.1,1.1,0,0,0,.86.32,3.82,3.82,0,0,0,1.56-.45Z"/><path class="cls-1" d="M237,348.05v-1.33a3.6,3.6,0,0,1-1.48,1.09,5.45,5.45,0,0,1-2.07.37,4.42,4.42,0,0,1-2-.44,3.24,3.24,0,0,1-1.34-1.22,3.3,3.3,0,0,1-.47-1.75,2.92,2.92,0,0,1,1.09-2.41,4.9,4.9,0,0,1,3.08-.89H237v-.29a1.85,1.85,0,0,0-.64-1.5,2.81,2.81,0,0,0-1.85-.53,6.35,6.35,0,0,0-3.27,1l-1-1.85a12.13,12.13,0,0,1,2.35-1,8.63,8.63,0,0,1,2.47-.32,4.9,4.9,0,0,1,3.32,1,3.66,3.66,0,0,1,1.2,2.88l0,7.19Zm-.94-2.47a1.89,1.89,0,0,0,.92-1.34v-1h-2.77a3,3,0,0,0-1.57.32,1.13,1.13,0,0,0-.5,1,1.33,1.33,0,0,0,.52,1.11,2.25,2.25,0,0,0,1.43.41A3.49,3.49,0,0,0,236.07,345.58Z"/><path class="cls-1" d="M247.32,339.33a2.81,2.81,0,0,0-2.17.9,3.32,3.32,0,0,0-.83,2.34,3.38,3.38,0,0,0,.83,2.38,2.81,2.81,0,0,0,2.17.9,3.48,3.48,0,0,0,3-1.29l1.66,1.38a4.85,4.85,0,0,1-2,1.64,6.49,6.49,0,0,1-2.81.58,5.86,5.86,0,0,1-2.88-.7,4.91,4.91,0,0,1-2-2,6.43,6.43,0,0,1,0-5.84,5,5,0,0,1,2-2,5.91,5.91,0,0,1,2.91-.7,6.55,6.55,0,0,1,2.68.52,4.84,4.84,0,0,1,1.92,1.49l-1.62,1.54A3.72,3.72,0,0,0,247.32,339.33Z"/><path class="cls-1" d="M260.65,347.38a5.21,5.21,0,0,1-2.75.8,3.29,3.29,0,0,1-2.32-.83,3.17,3.17,0,0,1-.9-2.45v-5.42h-1.54l0-2h1.56v-3h2.65v3h3.14v2h-3.14v4.95a1.6,1.6,0,0,0,.29,1.08,1.1,1.1,0,0,0,.86.32,3.82,3.82,0,0,0,1.56-.45Z"/><path class="cls-1" d="M265.14,332.8a1.6,1.6,0,0,1,.43,1.15,1.57,1.57,0,0,1-.43,1.13,1.54,1.54,0,0,1-2.18,0,1.57,1.57,0,0,1-.43-1.13,1.59,1.59,0,0,1,.43-1.15,1.54,1.54,0,0,1,2.18,0Zm-2.4,4.27h2.67v11h-2.67Z"/><path class="cls-1" d="M267,337.09l2.79,0,2.87,8.36,2.81-8.36h2.69l-4.19,11h-2.75Z"/><path class="cls-1" d="M282.14,332.8a1.59,1.59,0,0,1,.43,1.15,1.57,1.57,0,0,1-.43,1.13,1.54,1.54,0,0,1-2.18,0,1.57,1.57,0,0,1-.43-1.13,1.6,1.6,0,0,1,.43-1.15,1.53,1.53,0,0,1,2.18,0Zm-2.4,4.27h2.67v11h-2.67Z"/><path class="cls-1" d="M292.14,347.38a5.21,5.21,0,0,1-2.75.8,3.3,3.3,0,0,1-2.32-.83,3.18,3.18,0,0,1-.9-2.45v-5.42h-1.54l0-2h1.56v-3h2.65v3H292v2h-3.14v4.95a1.6,1.6,0,0,0,.29,1.08,1.1,1.1,0,0,0,.86.32,3.83,3.83,0,0,0,1.56-.45Z"/><path class="cls-1" d="M296.64,332.8a1.6,1.6,0,0,1,.43,1.15,1.57,1.57,0,0,1-.43,1.13,1.54,1.54,0,0,1-2.18,0,1.57,1.57,0,0,1-.43-1.13,1.59,1.59,0,0,1,.43-1.15,1.53,1.53,0,0,1,2.18,0Zm-2.4,4.27h2.67v11h-2.67Z"/><path class="cls-1" d="M308.74,338.49a6.15,6.15,0,0,1,1.32,4.21q0,.53,0,.8h-8.11a3.06,3.06,0,0,0,3.14,2.5,4.18,4.18,0,0,0,1.61-.32,4,4,0,0,0,1.35-.91l1.44,1.5a5.57,5.57,0,0,1-2,1.4,6.74,6.74,0,0,1-2.62.49,6.11,6.11,0,0,1-3-.7,4.88,4.88,0,0,1-2-2,6.37,6.37,0,0,1,0-5.82,5,5,0,0,1,2-2,5.86,5.86,0,0,1,2.9-.71A5,5,0,0,1,308.74,338.49Zm-1.12,3.22a2.66,2.66,0,0,0-.8-1.93,3.12,3.12,0,0,0-4,0,3.13,3.13,0,0,0-1,1.94Z"/><path class="cls-1" d="M317.22,339.31a5.29,5.29,0,0,0-1.57-.27,2.13,2.13,0,0,0-1.08.24.79.79,0,0,0-.4.73.86.86,0,0,0,.5.79,8.1,8.1,0,0,0,1.59.59,15.29,15.29,0,0,1,1.89.69,3.55,3.55,0,0,1,1.28,1,2.7,2.7,0,0,1,.54,1.76,2.83,2.83,0,0,1-1.23,2.46,5.27,5.27,0,0,1-3.1.86,7.87,7.87,0,0,1-2.48-.4,5.84,5.84,0,0,1-2.05-1.14l.92-1.87a5.41,5.41,0,0,0,1.77,1,5.91,5.91,0,0,0,2,.36,2.34,2.34,0,0,0,1.18-.26.84.84,0,0,0,.44-.77.93.93,0,0,0-.51-.86,9.12,9.12,0,0,0-1.66-.64,14,14,0,0,1-1.81-.65,3.27,3.27,0,0,1-1.21-1,2.65,2.65,0,0,1-.51-1.69,2.86,2.86,0,0,1,1.18-2.47,4.94,4.94,0,0,1,3-.85,7.65,7.65,0,0,1,2.15.31,6.67,6.67,0,0,1,1.88.86l-1,1.93A7.9,7.9,0,0,0,317.22,339.31Z"/><path class="cls-1" d="M333.78,348.05v-1.33a3.61,3.61,0,0,1-1.48,1.09,5.45,5.45,0,0,1-2.07.37,4.42,4.42,0,0,1-2-.44,3.23,3.23,0,0,1-1.34-1.22,3.3,3.3,0,0,1-.47-1.75,2.92,2.92,0,0,1,1.09-2.41,4.9,4.9,0,0,1,3.08-.89h3.2v-.29a1.85,1.85,0,0,0-.64-1.5,2.81,2.81,0,0,0-1.85-.53,6.34,6.34,0,0,0-3.26,1l-1-1.85a12.1,12.1,0,0,1,2.35-1,8.63,8.63,0,0,1,2.47-.32,4.9,4.9,0,0,1,3.32,1,3.66,3.66,0,0,1,1.2,2.88l0,7.19Zm-.94-2.47a1.89,1.89,0,0,0,.92-1.34v-1H331a3,3,0,0,0-1.57.32,1.13,1.13,0,0,0-.5,1,1.34,1.34,0,0,0,.52,1.11,2.25,2.25,0,0,0,1.43.41A3.48,3.48,0,0,0,332.84,345.58Z"/><path class="cls-1" d="M345.84,347.38a5.21,5.21,0,0,1-2.75.8,3.29,3.29,0,0,1-2.32-.83,3.17,3.17,0,0,1-.9-2.45v-5.42h-1.54l0-2h1.56v-3h2.65v3h3.14v2h-3.14v4.95a1.6,1.6,0,0,0,.29,1.08,1.1,1.1,0,0,0,.86.32,3.82,3.82,0,0,0,1.56-.45Z"/><path class="cls-2" d="M265.6,92.13l8.21,8.9s6.84-11,2.74-17.11v-.68Z"/><path class="cls-2" d="M280,112c1.45-3.69,6.79-12.13,7.43-16.1a52.61,52.61,0,0,0-1.55-23.58c2.85-3.53,5.06-7.34,5.51-12a1.6,1.6,0,0,1,.88-1.22c7.66,14.52,7.34,29-.27,43.42a125.79,125.79,0,0,1-9.27,12.87C281.44,114.78,281.49,112.21,280,112Z"/><path class="cls-2" d="M213.25,226.25c.85-.88,1.92.11,2.83-.33,2.47,2.1,4.58,4.58,7.25,6.47,9.2,6.49,19.5,7.64,30.32,6.47,1.3-.14,1-.7.45-1.42a16.15,16.15,0,0,1-3.7-8c-.2-1.55-.91-1.76-2.19-1.69A29.46,29.46,0,0,1,235.33,226c-4.07-1.67-7.88-3.76-10.16-7.8,3-2.48,5.34-5.64,8.45-8l16.3,15.34.75-5.66c-1.7.32-2.22,1.84-3.49,2.71.25-3.61,3.08-5.59,4.93-8.34-1.43,0-2,1.3-3.14,1.11l0,0a2.81,2.81,0,0,1,.84-1.52c2.34-3,5.72-5.06,7.92-8.26a6.48,6.48,0,0,1,3.69-2.69l.07.09-1,2.52-.15.32.3-.17c.82-.63,1.64-1.25,2.45-1.89a9,9,0,0,1,5.37-2.46c-.88,1.27-2.53,1.68-2.57,3.48,8.06-2.21,14.45.53,19.87,6.58,3.74-7.85,6.07-15.68,4.75-24.23l3.42-.72a44.93,44.93,0,0,1-29.65,65.45C243.27,256.59,221.62,245.64,213.25,226.25Z"/><polygon class="cls-2" points="121.87 243.38 134.88 236.54 125.29 234.49 121.87 243.38"/><path class="cls-2" d="M274.66,162.54s18.63,18.8,22.92,32.72l-14.18-4.57-12.16-18.57Z"/><path class="cls-3" d="M67.45,135.41c-.56-38.73,71.38-109.13,110.1-109S290.71,97.57,286.54,136c-4.11,37.81-70,110.71-107.86,107.3C140.1,239.79,68,174.14,67.45,135.41Z"/><path class="cls-2" d="M123.85,239l-1.26,4.22a51.49,51.49,0,0,1-19,5.7c-22.35,2.09-44.26-14.83-47.73-37-2.94-18.81,4.93-36.51,20.67-46.18,2-1.23,4-2.6,6.45-3,.84.89-.31,1.14-.6,1.5C73.65,175.3,72.11,187.76,75,201.13a3.42,3.42,0,0,1-.58,1.65,19,19,0,0,0-.73,16.7c.69,1.71,1,2.44-1.43,2.65-4.15.36-5.43,2.65-4.14,6.55,2-2.19,2.27-2.16,4.16.35.71.95,1.38,1.93,2.16,2.82,2.8,3.22,5.1,3.27,7.9,0a1.69,1.69,0,0,1,2.41-.56,18.11,18.11,0,0,0,17.24-.63c.5-.27,1-.76,1.62-.39C110,234.19,116.41,237.72,123.85,239Z"/><path class="cls-4" d="M75,201.13c-2.94-13.37-1.4-25.83,7.34-36.89.29-.36,1.44-.61.6-1.5,5.05-3.4,9.93-7,15.17-10.17,3.33-1.36,6.66-2.73,10-4.06.78-.31,1.57-1,2.47-.27a23.27,23.27,0,0,0,3.56,8.85c0,1.21-.79,1.54-1.76,1.91a76.68,76.68,0,0,0-11.65,5.39c-5.35,3.11-10.3,6.68-12.92,12.61-.36.72-.77,1.42-1.06,2.17C84.94,184,85,189,85.32,194c-.91.3-1.81.61-2.72.89C79.22,195.93,77.34,198.78,75,201.13Z"/><path class="cls-4" d="M210.93,49.3c.66-2.2,2.8-2.9,4.33-4.22,1.32-1.14,3.21-1.59,4.05-3.32,1.28.09,2.22-.74,3.28-1.23a30.94,30.94,0,0,1,15.78-2.65c1.41.37,2.82.74,4.23,1.12,6,1.65,11.22,5,16.52,8.17-.43,1.31-1.52,2.16-2.27,3.25-2.34,3.4-4.2,7-4.33,11.23-.28,9.13,9.81,18.51,19.42,18.1,5.83-.25,10.06-3.5,13.91-7.45a52.61,52.61,0,0,1,1.55,23.58c-.64,4-2.3,7.58-3.75,11.28-3.24,4.72-6.87,9.07-11.65,12.36a84,84,0,0,1-20.12,9.76,2,2,0,0,1-1.72,0c-1-3.08-1.61-6.28-3.36-9.08,0-1.3,1-1.47,1.87-1.82,2.66-1.06,5.47-1.76,7.87-3.4,13.45-3.49,23.88-20.71,19.79-31.52l-7.87,7c-1.05-.16-1.59-1-2.25-1.7Q256,78.47,245.75,68.17a5.23,5.23,0,0,0-2.07-1.62l-.08-.6c2.74-2.8,5.47-5.61,8.24-8.37.76-.76.56-1.17-.24-1.67-3.78-2.35-7.57-4.69-11.88-5.94-3.83-1.11-7.69-1.38-11.35.75-3.37.72-5.86,3-8.51,4.93a3.74,3.74,0,0,1-2.59,1Z"/><path class="cls-5" d="M261.37,202.83a6.48,6.48,0,0,0-3.69,2.69c-2.2,3.2-5.57,5.23-7.92,8.26a2.81,2.81,0,0,0-.84,1.52l-.32.44.25.13.11-.54c1.14.19,1.71-1.09,3.14-1.11-1.84,2.74-4.67,4.72-4.93,8.34,1.27-.87,1.79-2.39,3.49-2.71l-.75,5.66c-5.3-5-7.57-7.07-13.06-12.24.69-1.26,20.49-27.28,21.47-27.4l14.26,14.56c4,4.09,4.28,4,6-1.65,3.22-10.87-1.63-17.65-13-20.88-1-.89-2.36-1.13-3.54-1.68-.7-.33-1.56-.54-1.78-1.47,1.73-2.85,2.27-6.08,3-9.25,1.71-1.22,3.18.19,4.55.67a45.28,45.28,0,0,1,14.21,7.52,24.88,24.88,0,0,1,8.49,13.39c1.32,8.56-1,16.38-4.75,24.24-5.42-6.05-11.81-8.79-19.87-6.58,0-1.8,1.69-2.21,2.57-3.48a9,9,0,0,0-5.37,2.46c-.8.65-1.63,1.26-2.45,1.89l-.15-.15,1-2.52a.84.84,0,0,0,.83-.51l.08-.15-.06.17A.85.85,0,0,0,261.37,202.83Z"/><path class="cls-6" d="M197,113c-1.24-5.5-3.32-10.74-5-16.12-1.13-3.68-2.3-7.35-3.55-11-.42-1.23-.3-1.85,1.06-2.28q9.86-3.09,19.67-6.34c1.4-.47,1.84.07,2.21,1.25,1.35,4.31,2.75,8.61,4.15,12.91a10.9,10.9,0,0,0,1.55,3.66,2.45,2.45,0,0,0,.62,1.65,3.71,3.71,0,0,0,.33,2.36c.86,2.67,1.66,5.36,2.61,8,.56,1.55.16,2.26-1.41,2.72-2.75.81-5.45,1.82-8.17,2.75a62.81,62.81,0,0,0-9.64,3c-2.11.77-3.53.8-4.08-1.71Zm17.24-12.94c-.11-.59.13-1.43-.75-1.57s-.87.84-1.37,1.19c-1.5.24-.78,2.46-2.36,2.63h0c-.49,0-1.16,0-1.23-.58-.3-2.66-1.64-1.26-2.77-.76h0a2.67,2.67,0,0,0-2.22.88h0c-1.12,0-2.27-.1-3.11.89-.87.15-2.11-.41-2.35,1.21,1.13.07,1.67-.7,2.34-1.22,1.81.64,1.81,1.06,0,2.67h0c-.56.16-1-1-1.69-.08s.55.92.5,1.2c-.22,1.36,1.5,2.36.91,3.48s0,.79.62,1.05c1.91.79,2.44-1.51,3.95-1.62.36,0,0-.37-.23-.55-.56-.42-1-1.1-.33-1.58s1.37.07,1.66.69c.6,1.3,1.15,1.91,2.33.5a1.32,1.32,0,0,1,1.64-.27.87.87,0,0,1,.22,1.35c-.43.56-.15.75.3,1s.74.25,1-.07.51-.69,0-1.13c-1.09-1-.85-2.2.54-2,1.57.21,2-.71,2.74-1.48.52-.32,1.79.71,1.61-.49C216,103.52,215.65,101.56,214.26,100.07ZM204,96.46q0-.2,0-.4c2.46-.85,4.93-1.68,7.39-2.56.49-.17,1.64-.09.67-1.16a1.31,1.31,0,0,0-.11-.42l.09-.81-.63-.45c.38-1.3-.58-.81-1.14-.84V89c.23-.17.62-.3.67-.51.12-.58-.38-.53-.7-.44-.93.25-1.84.56-2.75.86l-12.24,4c-.4.13-1,.14-.86.76,0,.13.48.18.74.27v.77a.57.57,0,0,0,0,1l0,.9.4.46.13.59c0,.31,0,.62.31.8l.18.59c0,.3.06.71.4.65a44.43,44.43,0,0,0,7.69-2.41C204.66,97.09,204.39,96.65,204,96.46Zm5.7-12.27c-.34-.74-.15-2.08-1.88-1.5-4.68,1.58-9.41,3.06-14.12,4.56-.91.29-1.35.69-1,1.77s.8,1.48,1.94,1.11c4.63-1.52,9.27-3,13.9-4.5C209.22,85.41,209.94,85.22,209.72,84.18Zm-18,1.27C197.35,84,203,82.52,208.23,80A88.55,88.55,0,0,0,191.74,85.45Zm12.1,26.86c-1.15-.27-1.91-.33-2.36.58-.14.28-.07.69.23.71C202.64,113.66,202.76,112.53,203.84,112.31Zm11.27-4c.75-.09,1.5,1,2.12,0a1,1,0,0,0-.3-.95C216.09,107.19,215.89,108.28,215.11,108.36Zm-9.23,3.35c-.11-.58-.53-.51-.84-.57-.5-.11-.59.25-.56.63s.2.74.66.56A3,3,0,0,0,205.88,111.71ZM209.49,100l.34-.14s-.08-.14-.12-.14a2.16,2.16,0,0,0-.37,0Z"/><path class="cls-2" d="M265.49,177.89c11.41,3.23,16.27,10,13,20.88-1.67,5.64-1.94,5.74-6,1.65l-14.26-14.56c.74-2.05,2.71-3,4-4.58C263.33,180.11,264.43,179,265.49,177.89Z"/><path class="cls-7" d="M257.29,173.2a16.43,16.43,0,0,0-8.69-.36c-2.62.54-5.27-.29-7.89-.72-.92-.15-1.21-.58-.72-1.34.71-1.09,0-1.4-.81-1.7-2-.71-4-1.46-6.07-2.13-1.13-.37-1.93-.94-1.49-2.23s1.4-1.08,2.39-.72c.69.25,1.4.47,2.1.71,3.34,1.14,3.92.86,5.29-2.55s2.5-3.82,5.88-2.61c2.91,1,5.92,1.8,8.23,4.16a4.52,4.52,0,0,0,3.91,1.12,4.7,4.7,0,0,1,2.93.53c-3.4.27-3.44.26-4,3.81C258.08,170.56,257.2,171.76,257.29,173.2Z"/><path class="cls-7" d="M246.21,129.26a8.12,8.12,0,0,0-5.37,2c-2.54,2.1-6.11,2-9.12,3.26a1.34,1.34,0,0,1-.94-.36c.34-2.44-2.94-1.67-3-3.18,0-1.07-.06-1.49-.95-2.13s-.77-1.72.51-2.12c.9-.28,1.85-.41,3.29-.72-2.37,0-4.22-.08-6.06,0-1.15.07-2.47.4-2.66-1.11s1.26-1.2,2.22-1.37c3.58-.65,7.26,0,11.25-1-1.26-.62-2.25-1.1-3.22-1.6s-1.84-1.21-1.26-2.44,1.55-.4,2.27-.09c2.85,1.23,5.9,2,8.58,3.59.66.41,1.44.51,1.84-.44a1,1,0,0,1,1.26-.62,3.56,3.56,0,0,0-.37,4.05C245.15,126.43,245.65,127.86,246.21,129.26Z"/><path class="cls-7" d="M211.24,184.58a13.25,13.25,0,0,0,1.38,9.25c-1.94-.73-3.55.52-5.31.87-2,.39-3.17,1.35-3.07,3.51-1.12-1.19-.32-2.66-.55-4-.5-2.9-3.15-4.37-4.23-6.85-.72-1.94-1.4-3.89-2.16-5.81-.49-1.24-.2-2,1-2.72a25.1,25.1,0,0,0,6.17-4.8c1.13-1.36,2.23-.7,3.24,1.86Z"/><path class="cls-8" d="M236.36,152.17c6.79-2.28,13.62-4.43,20.54-6.29l.5,2.25-20.53,6.17Z"/><path class="cls-8" d="M246.21,129.26c-.56-1.4-1.06-2.83-1.7-4.19a3.56,3.56,0,0,1,.37-4.05c.8.08,1.2-.74,1.92-.85,1.75,2.79,2.39,6,3.36,9.08C248.84,129.09,247.54,131.32,246.21,129.26Z"/><path class="cls-8" d="M257.29,173.2c-.08-1.45.79-2.65,1-4,.61-3.55.65-3.54,4-3.81l.81.11c-.74,3.17-1.28,6.4-3,9.25l-2.34-.84-.45-.41A.57.57,0,0,1,257.29,173.2Z"/><path class="cls-9" d="M211.24,184.58l-3.54-8.68c1.59-.84,2.67-.27,3.39,1.25C210.7,179.64,212.27,182.08,211.24,184.58Z"/><path class="cls-10" d="M257.4,148.13l-.5-2.25c.63-.59,1.41-.35,2.14-.37l.14,1.68A1.81,1.81,0,0,1,257.4,148.13Z"/><path class="cls-7" d="M236.36,152.17l.51,2.13c-.75,0-1.81.53-2.07-.42S235.48,152.43,236.36,152.17Z"/><path class="cls-7" d="M259.18,147.2l-.14-1.68c.79-.85,1.52-.56,1.74.37C261.08,147.11,260.13,147.26,259.18,147.2Z"/><path class="cls-10" d="M194.6,116l.36-.36Z"/><path class="cls-10" d="M195,115.52l.37-.36Z"/><path class="cls-7" d="M257.37,173.48l.45.41Z"/><path class="cls-10" d="M195.93,114.63l.37-.36Z"/><path class="cls-2" d="M62.94,78.79A45,45,0,0,1,88.28,6c23.78-5.29,48,10.21,53.36,34.14a3.12,3.12,0,0,1,0,.66,22.7,22.7,0,0,1-5.53-3.52,29.12,29.12,0,0,0-10.57-4.88c-5.53-1.43-11.13-1-16.72-.76-3.84-12.2-23.21-17-32.55-5.52A6.29,6.29,0,0,1,75,27.36c-5.59,3.84-8.1,9.15-7.31,15.86.89,7.63,4.12,13.74,11.79,16.59,1.52.56,3.14.85,4.72,1.26a45,45,0,0,0,3.26,14.19c1.29,3.4,3.37,6.38,5,9.61a37.22,37.22,0,0,0-6.17,6c-2.57,3.11-7.48,1.42-8.49-1.77a31,31,0,0,0-2-4.44c-2.1-4.16-5.39-6.35-10.17-6C64.72,78.74,63.83,78.75,62.94,78.79Z"/><path class="cls-11" d="M108.82,31.69c5.6-.22,11.2-.67,16.72.76a29.12,29.12,0,0,1,10.57,4.88,22.7,22.7,0,0,0,5.53,3.52c1.8,2.11,2.29,4.93,3.86,7.17.88,1.26,1.64,2.61,2.45,3.91.51,3.14,2.31,5.85,3.06,8.92a33.64,33.64,0,0,0,1.1,3.56c.29.78-.37,1-.65,1.49l-7.91,1.92a2.83,2.83,0,0,1-1-1.65c-1.41-4.33-2.77-8.7-5.06-12.67-1.65-2.86-3.34-5.72-6.47-7.29,0-1-.79-1.17-1.37-1.56a21.86,21.86,0,0,0-9.51-3.33,20.84,20.84,0,0,0-6.94,0L124,52.91c-3,3.46-6.41,6.5-9.58,9.78-1.22,1.25-2.77,2.22-3.47,3.94-2.24,1.12-3.6,3.23-5.38,4.86s-3.12,3.16-4.73,4.67a2,2,0,0,0-.25,3.06,87.58,87.58,0,0,0,7.88,9.57c.65.68,1.52,1.29,1,2.46-2.35,1.47-4,3.68-5.94,5.61-2.8-1.14-4.1-3.85-6-5.88s-3.35-4.07-5-6.12c-1.62-3.22-3.7-6.2-5-9.61a45,45,0,0,1-3.26-14.19c1.85,0,3.7,0,5.55-.12a19.6,19.6,0,0,0,10.6-3.51,19.81,19.81,0,0,1,5.39-2.85A12.78,12.78,0,0,0,112.85,49c-3.12.07-5.14,2.81-8.24,2.25,2.32-1.86,4.78-3.38,6.19-6.26-1.37.23-2.35,1.25-4,.89C110.41,41.45,110.27,36.64,108.82,31.69Z"/><path class="cls-12" d="M133,145.45c-.14,1-.62,1.71.84,2.59,1.89,1.13-.31,1.82-1.29,2.82,1.69-.09,3.06-.13,4.43-.23,1-.07,1.88.06,2,1.21s-.88,1.31-1.67,1.38c-2.79.26-5.59.42-8.39.64-.86.07-1.79-.09-2.55.74.76.89,1.93,1,2.84,1.58a1.68,1.68,0,0,1,.84,2.24c-.43,1-1.27.46-1.91.26-1.68-.52-3.25-1.41-5-1.64a19.7,19.7,0,0,1-3.38-1.61c-1.32-1-2.1-.47-2.89.59a9.72,9.72,0,0,0-.57-3.43c-.47-1.43-1.47-2.74-1.25-4.37a10.56,10.56,0,0,0,4.82-2.32c2.49-2.14,6-2.24,9-3.46.58-.23,1.45.29,1.26.85-.85,2.45,1,1.45,1.94,1.66A4.29,4.29,0,0,1,133,145.45Z"/><path class="cls-13" d="M141.83,112.61c-.44-.36-.87-.64-1.23-1-5.93-5.7-11.84-11.42-17.81-17.08-1-.91-.81-1.44,0-2.29q6-6.11,11.9-12.33c.86-.91,1.38-1,2.29-.07q8.91,8.7,17.92,17.29c.85.81.84,1.33.05,2.13-4.05,4.12-8.07,8.28-12.11,12.42C142.58,112,142.24,112.26,141.83,112.61Zm-5.28-30.71c-.8.07-1.12.62-1.52,1-3,3.14-6,6.36-9.11,9.42-1.23,1.21-1.08,1.9.09,3q7.11,6.71,14.05,13.59c1,1,1.63.83,2.51-.11,3-3.25,6.08-6.49,9.22-9.62,1.13-1.12,1.05-1.79-.06-2.84-4.73-4.48-9.39-9-14.08-13.57C137.3,82.47,136.88,82.18,136.56,81.91Z"/><path class="cls-14" d="M119.71,122.58l.71.12.51.49a1.27,1.27,0,0,1,.11.42c-.43,3.88-.49,4-4.28,3.21-7.59-1.51-15.16-3.1-22.74-4.62-3.6-.72-4.06-1.79-2.09-5.19l.52-.05.74.07c.6,2.9,3.47,2,5,2.35,5.85,1.47,11.87,2.23,17.73,3.79C117.21,123.51,118.69,124.29,119.71,122.58Z"/><path class="cls-8" d="M119.71,122.58c-1,1.71-2.5.93-3.78.59-5.85-1.57-11.88-2.32-17.73-3.79-1.54-.39-4.41.55-5-2.35,7.13,1.07,14.13,2.84,21.2,4.22A20.45,20.45,0,0,1,119.71,122.58Z"/><path class="cls-8" d="M115,148.23c-.22,1.63.78,2.94,1.25,4.37a9.72,9.72,0,0,1,.57,3.43l-2.61,1.06a23.27,23.27,0,0,1-3.56-8.85C112.08,147.91,113.53,146.49,115,148.23Z"/><path class="cls-8" d="M120.93,123.19l-.51-.49C120.7,122.75,121,122.73,120.93,123.19Z"/><path class="cls-8" d="M92.44,117l-.52.05C92,116.52,92.26,116.86,92.44,117Z"/><path class="cls-15" d="M292.24,59.1a1.6,1.6,0,0,0-.88,1.22c-.44,4.64-2.66,8.46-5.51,12-3.85,3.95-8.08,7.19-13.91,7.45-9.6.41-19.7-9-19.42-18.1.13-4.23,2-7.82,4.33-11.23.75-1.09,1.84-1.94,2.27-3.25,2.89-2.32,5.61-4.87,9.4-5.8,1.21-.3,2.69-.13,3.58-1.37,1.68.75,3.51.27,5.23.67,1,.23.83-.47.92-1,.65-3.92,3.26-5.83,7.24-5.31a12.39,12.39,0,0,1,9.83,8.55c1,3.59-.33,6.32-3.8,7.56-.92.33-1.39.52-.88,1.62C291.67,54.28,291.09,56.89,292.24,59.1Z"/><path class="cls-2" d="M272.1,40c-.89,1.24-2.37,1.07-3.58,1.37-3.79.93-6.51,3.48-9.4,5.8C253.82,44,248.64,40.65,242.6,39c-1.41-.39-2.82-.75-4.23-1.12C249.9,34.06,261.15,34.58,272.1,40Z"/><path class="cls-2" d="M228.37,50.72c3.66-2.14,7.52-1.86,11.35-.75,4.3,1.25,8.1,3.59,11.88,5.94.81.5,1,.91.24,1.67-2.77,2.77-5.5,5.58-8.24,8.37Z"/><path class="cls-6" d="M178.11,43.84c.06-4.17,1.88-7.07,5.36-8.74a9.19,9.19,0,0,1,10,1.12c.75.56,1.28,1.26,2.5.9a.91.91,0,0,1,1,1.48c-.7,1-.43,1.71-.23,2.67.8,3.86-.15,7.25-3.29,9.73a9.47,9.47,0,0,1-15.35-7.16Zm16.08-.25a6.64,6.64,0,1,0-6.55,6.65A6.49,6.49,0,0,0,194.19,43.59Z"/><path class="cls-5" d="M213.77,196.66a3.73,3.73,0,0,1,1.9,2.54c2,6,4.18,12,7.82,17.25a5.09,5.09,0,0,0,1.68,1.72c2.28,4,6.1,6.13,10.16,7.8a29.46,29.46,0,0,0,12.87,1.81c1.28-.06,2,.14,2.19,1.69a16.15,16.15,0,0,0,3.7,8c.57.72.86,1.28-.45,1.42-10.82,1.17-21.12,0-30.32-6.47-2.68-1.89-4.78-4.37-7.25-6.47-2-3.62-4.52-6.87-6.25-10.64a117.44,117.44,0,0,1-5.14-13.41,3.78,3.78,0,0,1-.18-2.17H205a50.34,50.34,0,0,0,8.4-2.63Z"/><path class="cls-6" d="M127.37,181.7c1.05-4.8,2.11-9.59,3.15-14.4.12-.56.31-1,1-.94,8.14,2.25,16.36,4.13,24.66,5.7a9.15,9.15,0,0,1,1,.45c3.34,1.09,3.32,1.08,2.58,4.39q-2.12,9.41-4.2,18.83c-1.66-1.55-1.66-1.55-3.12-.54-.22-.48.57-1,0-1.39s-.71.09-.92.5-.64.51-.64-.08c0-1-.36-1-1.2-1a8.2,8.2,0,0,1-3.68-.77c-1.82-1-2-.14-2,1.3l-.86-.26c.29-1,.37-1.58-1-2a12.46,12.46,0,0,0-3.4-.67c-2.26-.08-4.42-.87-6.68-1.12a24.23,24.23,0,0,0-5.87-.17h0c-.1-1.31.76-2.52.37-3.86l.12-.65c.06,0,.16-.07.16-.11a1.84,1.84,0,0,0-.08-.34l-.11,0-.1.06.54-1.33C127.61,182.89,127.49,182.29,127.37,181.7Z"/><path class="cls-4" d="M123.85,239c-7.43-1.25-13.89-4.79-20.19-8.66a31.1,31.1,0,0,0,6.85-9.06c3.9,2.26,7.8,4.56,12.17,5.82,4.78,1.38,9.35,1.06,13.58-1.79,2.67-1,4.69-3,6.85-4.69a3.14,3.14,0,0,1,2.93-.9,11.46,11.46,0,0,0,6.43,6.87,2.68,2.68,0,0,1-.87,1.74c-5.46,4.75-11.27,8.86-18.52,10.43A26.27,26.27,0,0,1,123.85,239Z"/><path class="cls-2" d="M136.26,225.28c-4.23,2.85-8.8,3.17-13.58,1.79-4.38-1.26-8.27-3.56-12.17-5.82-.55-.54.06-1,.15-1.43L120,209.6c.91.11,1.35.86,1.91,1.42Q129.12,218.13,136.26,225.28Z"/><path class="cls-12" d="M166.18,209.56c.68-.4,1.38-.67,1.95.11s0,1.37-.5,1.9c-2.53,2.45-5,4.92-7.62,7.34a4.65,4.65,0,0,1-2,1.24,5.4,5.4,0,0,0-3.54,2.69l-.44.06c-.85-.27-1.06-1.18-1.68-1.68-1.39-1.12-2.2-3-4.26-3.23a2.51,2.51,0,0,0,1.95-2.76,52.94,52.94,0,0,1,.92-7.9c.1-.66,0-1.65,1.11-1.6s1.33.8,1.5,1.66-.24,1.91.3,2.94c1.48-.69,1.89-2.2,2.68-3.36,1.08-1.59,2-3.26,3.07-4.87.46-.7.87-1.79,2-1.17s.6,1.49.16,2.3c-.18.32-.34.66-.5,1a7.86,7.86,0,0,0-1.82,3l-.44.89-.15.31.29-.17.55-.82a6.37,6.37,0,0,0,2.13-2.62c.81-1,1.42-3,3-2.07s-.23,2.2-.68,3.29a3.62,3.62,0,0,0-.13.84c-.3,0-.42.18-.44.45l-.58.12.1.17.45-.31.45-.44a3.34,3.34,0,0,0,.54-.35c.74-.7,1.53-1.66,2.56-.64s-.18,1.66-.67,2.38c-.2.3-.45.56-.68.84a5.83,5.83,0,0,0-2.32,3A8.42,8.42,0,0,0,166.18,209.56Z"/><path class="cls-13" d="M120,209.6l-9.4,10.22c.42-3.09-.36-6.18-.1-9.25.57-6.82-2.68-11.34-8.29-14.62a5.61,5.61,0,0,0-3.4-.7c-3.81.29-7.34-1.29-11-1.66L95.51,185c1.08.11,1.56,1,2.22,1.68q6.66,6.56,13.27,13.17,3.75,3.85,7.49,7.7C119.09,208.16,119.86,208.66,120,209.6Z"/><path class="cls-16" d="M179.1,208.57c-4.89-1.39-7.6-4.38-8-8.6s3.08-9.38,7.64-10.19a9.67,9.67,0,0,1,10.8,6.15,9.5,9.5,0,0,1-4.64,11.69c-.94.49-2.14.65-2.12,2.15,0,.48-.54.65-1,.65-1.2,0-1-1.12-1.31-1.77.54-.63.37-2.86,2.08-.9l.64-2.31.14.08c.81,0,1.56,0,1.55-1.1l1.12-1.13c1.83-.34,1.93-1.84,2-3.22.1-2.05.27-4.19-1.8-5.56-.16-.11-.43,0-.65-.07a.21.21,0,0,1-.22-.22c-.3-2.16-2.06-2.37-3.63-2.43-1.94-.07-4.24-.68-5.21,2l-1.13,1.13c-2.38.19-2.1,2.31-2.29,3.67s-.31,3.41,1.65,4.29h0c-.06,1.54.68,2.28,2.22,2.22l0-.07c0,1,.7,1.31,1.42,1.37C180.43,206.54,180.21,207.38,179.1,208.57Z"/><path class="cls-8" d="M148,218c2.07.23,2.87,2.11,4.26,3.23.62.5.83,1.41,1.68,1.68l.17,2.16-1,.91a.59.59,0,0,0-.68.56l0,0a11.46,11.46,0,0,1-6.43-6.87l0,0c.28,0,.41-.11.4-.39l.77-.4a.41.41,0,0,0,.2-.19.31.31,0,0,1,.14-.26l.34-.34Z"/><path class="cls-8" d="M213.36,197.09a50.33,50.33,0,0,1-8.4,2.63c-.09-.49,0-1.06-.65-1.26a.19.19,0,0,1-.08-.26c-.1-2.15,1.07-3.11,3.07-3.5,1.76-.35,3.37-1.6,5.31-.87v0a1.87,1.87,0,0,0,.8,2.26.24.24,0,0,1,.12.27Z"/><path class="cls-16" d="M126.09,189.56a24.23,24.23,0,0,1,5.87.17c2.27.25,4.42,1,6.68,1.12a12.46,12.46,0,0,1,3.4.67c1.38.44,1.29,1,1,2A125,125,0,0,1,126.09,189.56Z"/><path class="cls-16" d="M143.91,193.79c0-1.45.18-2.32,2-1.3a8.2,8.2,0,0,0,3.68.77c.84,0,1.21,0,1.2,1,0,.58.41.51.64.08s.35-.88.92-.5-.21.91,0,1.39c1.46-1,1.46-1,3.12.54-.41.85-1.16.51-1.73.38C150.47,195.38,147.2,194.57,143.91,193.79Zm2.52-.16.06-.16-.2.11Z"/><path class="cls-6" d="M183.15,205.43l-.64,2.31c-1.71-2-1.54.27-2.08.9l-1.33-.06c1.12-1.19,1.33-2-.74-2.22-.72-.06-1.47-.38-1.42-1.37A9.1,9.1,0,0,0,183.15,205.43Z"/><path class="cls-16" d="M126.47,185.71c.38,1.34-.47,2.55-.37,3.86C125.15,188.18,126.09,187,126.47,185.71Z"/><path class="cls-13" d="M154.15,225.06,154,222.9l.44-.06C154.48,223.6,155.22,224.44,154.15,225.06Z"/><path class="cls-7" d="M204.31,198.46c.64.2.56.77.65,1.26h-.46Z"/><path class="cls-13" d="M152.5,226.53a.59.59,0,0,1,.68-.56A.73.73,0,0,1,152.5,226.53Z"/><path class="cls-16" d="M126.67,184.61a1.85,1.85,0,0,1,.08.34s-.1.07-.16.11Z"/><path class="cls-7" d="M147.94,218.06l-.34.34Z"/><path class="cls-7" d="M147.46,218.66a.41.41,0,0,1-.2.19A.18.18,0,0,1,147.46,218.66Z"/><path class="cls-13" d="M146.49,219.25c0,.28-.13.41-.4.39Z"/><path class="cls-17" d="M260.55,205.59l-.3.17.15-.32Z"/><path class="cls-5" d="M87.82,193.6c3.71.37,7.23,1.94,11,1.66a5.61,5.61,0,0,1,3.4.7c5.61,3.28,8.86,7.81,8.29,14.62-.26,3.07.52,6.16.1,9.25-.09.47-.7.89-.15,1.43a31.14,31.14,0,0,1-6.85,9.06c-.66-.37-1.12.11-1.62.39a18.11,18.11,0,0,1-17.24.63,1.69,1.69,0,0,0-2.41.56c-2.8,3.22-5.1,3.18-7.9,0-.77-.89-1.44-1.87-2.16-2.82-1.89-2.51-2.18-2.54-4.16-.35-1.29-3.89,0-6.18,4.14-6.55,2.4-.21,2.12-.94,1.43-2.65a19,19,0,0,1,.73-16.7,3.42,3.42,0,0,0,.58-1.65c2.29-2.35,4.17-5.2,7.55-6.23.91-.28,1.81-.59,2.72-.89A3.79,3.79,0,0,0,87.82,193.6ZM75.35,222.92c-.38,2.76,3.44,7.36,5.9,7.38.32,0,.65,0,.68-.36a1,1,0,0,0-.3-.74A71.13,71.13,0,0,1,75.35,222.92Z"/><path class="cls-2" d="M87.82,193.6a3.79,3.79,0,0,1-2.5.4c-.37-5-.37-10,1.49-14.85.29-.75.7-1.45,1.06-2.17,2.67,2.55,5.6,4.84,7.64,8Z"/><path class="cls-2" d="M261.37,202.83a.85.85,0,0,1,.92-.4l0,0a.84.84,0,0,1-.83.51Z"/><path class="cls-2" d="M249,215.34l-.11.54-.25-.13.32-.44Z"/><path class="cls-2" d="M262.29,202.43l.06-.17-.08.15Z"/><path class="cls-7" d="M213.41,196.13a1.87,1.87,0,0,1-.8-2.26A3.48,3.48,0,0,1,213.41,196.13Z"/><path class="cls-7" d="M213.36,197.09l.17-.69a.36.36,0,0,1,.24.25Z"/><path class="cls-16" d="M205.78,101c1.13-.51,2.47-1.9,2.77.76.07.63.74.55,1.23.58-.3.44-.94.66-.89,1.33a1.68,1.68,0,0,0-2.4.25c-.59.72-.13,1.53.07,2.32.26,1,1.11,1.08,1.85,1.33a.58.58,0,0,0,.76-.28c.21-.48-.06-.54-.5-.67-1-.31-1.69-.75-.21-1.52.49-.26.42-.9.43-1.42.62.74,1.32,1.19,2.3.62.4-.23.77-.45.59-1-.33-1-1.18-1-2-.94,1.58-.17.86-2.39,2.36-2.63,1.3.88,1.53,4.94.4,6.17-.15.16-1.07-.31-.45.44.19.23.82.57,1.09,0a4.12,4.12,0,0,0,.13-1.29c.46.31.68,1,1.37.92h0c-.75.77-1.18,1.69-2.74,1.48-1.4-.19-1.63,1-.54,2,.47.44.26.8,0,1.13s-.67.22-1,.07-.73-.4-.3-1a.87.87,0,0,0-.22-1.35,1.32,1.32,0,0,0-1.64.27c-1.18,1.41-1.73.79-2.33-.5-.28-.61-1.06-1.11-1.66-.69s-.23,1.16.33,1.58c.24.18.59.52.23.55-1.5.12-2,2.42-3.95,1.62-.62-.26-1.25.14-.62-1.05s-1.12-2.12-.91-3.48c0-.28-1.25-.25-.5-1.2s1.13.23,1.69.08c-.35.8-1,1.74.56,1.89a1,1,0,0,0,1.15-1c-.1-1.15-1-.78-1.7-.87,1.81-1.6,1.81-2,0-2.67h0c.84-1,2-.89,3.11-.89-.33.55-1.6.41-1.17,1.48s1.3.71,2.07.74c-1.05.85-.27,1.33.37,1.83.35.27.75.28.87-.18.24-1-.22-1.55-1.23-1.65.6-1.1.69-2-.89-2.23a2.67,2.67,0,0,1,2.22-.88c-.41.91-.9,1.93.7,2,.51,0,1.53-.1,1.41-1C207.72,100.74,206.62,101,205.78,101Z"/><path class="cls-18" d="M209.72,84.18c.22,1-.49,1.23-1.11,1.43-4.63,1.51-9.28,3-13.9,4.5-1.14.37-1.57-.1-1.94-1.11s0-1.48,1-1.77c4.71-1.5,9.43-3,14.12-4.56C209.56,82.1,209.38,83.44,209.72,84.18Z"/><path class="cls-19" d="M195.1,93.95c-.26-.09-.72-.15-.74-.27-.1-.62.47-.63.86-.76l12.24-4c.91-.3,1.82-.6,2.75-.86.32-.09.82-.14.7.44,0,.21-.43.34-.67.51Z"/><path class="cls-19" d="M196,98.43c-.33-.18-.33-.48-.31-.8A54.14,54.14,0,0,0,204,94.75l0,0c.39,0,.84.13.92-.47l0,0c.58.2,1.1.24,1.37-.46l0,0c.56.16,1.12.3,1.37-.46l0,0c1.66.29,3-.63,4.5-1.09,1,1.07-.18,1-.67,1.16-2.46.87-4.92,1.71-7.39,2.56-.38,0-.82-.07-.89.49l0,0a1.64,1.64,0,0,0-1.82.46l0,0c-.39,0-.85-.14-.92.47l0,0a1.54,1.54,0,0,0-1.82.46l0,0C197.69,97.66,196.87,98.26,196,98.43Z"/><path class="cls-19" d="M195.09,95.69a.57.57,0,0,1,0-1l15.16-4.9c.56,0,1.51-.46,1.14.84-.59,0-1.23-.07-1.62.54l0,0c-.53-.06-1.05-.09-1.37.46l0,0c-.4,0-.86-.16-.92.47l0,0a27.15,27.15,0,0,0-9.83,3.13l0,0a1.62,1.62,0,0,0-1.82.46l0,0Z"/><path class="cls-7" d="M191.74,85.45A88.55,88.55,0,0,1,208.23,80C203,82.52,197.35,84,191.74,85.45Z"/><path class="cls-19" d="M195.53,97l-.4-.46c.22-.39.9-.35.88-1l0,0a1.52,1.52,0,0,0,1.82-.46l0,0a43.49,43.49,0,0,0,9.83-3.13l0,0c.38,0,.85.14.92-.47l0,0c.57.19,1.1.23,1.37-.46l0,0,2.26-.09-.09.81a12.61,12.61,0,0,0-4.39,1.5l0,0c-.53,0-1-.07-1.37.46l0,0c-.52,0-1.05-.1-1.37.46l0,0c-.4,0-.84-.13-.92.47l0,0C201,94.86,198.37,96.33,195.53,97Z"/><path class="cls-16" d="M210.25,89.82l-15.16,4.9q0-.38,0-.77L210.25,89Q210.25,89.43,210.25,89.82Z"/><path class="cls-19" d="M204,96.46c.37.2.64.64.21.8a44.43,44.43,0,0,1-7.69,2.41c-.34.06-.4-.34-.4-.65.85-.37,1.94-.23,2.54-1.16l0,0a1.63,1.63,0,0,0,1.82-.46l0,0c.39,0,.85.14.92-.47l0,0a1.51,1.51,0,0,0,1.82-.46l0,0Z"/><path class="cls-16" d="M214.26,100.07c1.39,1.5,1.73,3.46,2,5.32.18,1.2-1.09.17-1.61.49h0c.34-.49,1.18-.77.71-1.59s-1.2-.08-1.77-.29C213.88,102.7,213.2,101.24,214.26,100.07Z"/><path class="cls-6" d="M214.26,100.07c-1.06,1.17-.38,2.63-.65,3.94a1,1,0,0,0-.31,1,4.12,4.12,0,0,1-.13,1.29c-.27.6-.9.26-1.09,0-.62-.74.3-.27.45-.44,1.14-1.23.9-5.29-.4-6.17.51-.35.56-1.32,1.37-1.19S214.15,99.47,214.26,100.07Z"/><path class="cls-16" d="M195.53,97c2.85-.71,5.49-2.19,8.49-2.3a54.13,54.13,0,0,1-8.37,2.89Z"/><path class="cls-16" d="M207.54,93.43a12.61,12.61,0,0,1,4.39-1.5,1.31,1.31,0,0,1,.11.41C210.56,92.8,209.2,93.72,207.54,93.43Z"/><path class="cls-16" d="M203.84,112.31c-1.08.22-1.2,1.35-2.13,1.29-.3,0-.36-.43-.23-.71C201.93,112,202.69,112,203.84,112.31Z"/><path class="cls-16" d="M215.11,108.36c.77-.08,1-1.17,1.82-1a1,1,0,0,1,.3.95C216.61,109.35,215.86,108.27,215.11,108.36Z"/><path class="cls-16" d="M200.44,102.76c-.67.51-1.21,1.28-2.34,1.22.24-1.62,1.48-1.06,2.35-1.21Z"/><path class="cls-16" d="M205.88,111.71a3,3,0,0,1-.74.61c-.46.19-.62-.17-.66-.56s.05-.74.56-.63C205.35,111.2,205.77,111.12,205.88,111.71Z"/><path class="cls-16" d="M198.68,97.86c-.6.93-1.68.79-2.54,1.16l-.18-.59C196.87,98.26,197.69,97.66,198.68,97.86Z"/><path class="cls-16" d="M212,91.12l-2.26.09c.4-.61,1-.51,1.62-.54Z"/><path class="cls-16" d="M196,95.63c0,.61-.66.57-.88,1l0-.9Z"/><path class="cls-16" d="M209.49,100l-.15-.25a2.16,2.16,0,0,1,.37,0s.08.09.12.14Z"/><path class="cls-16" d="M204,96.46l-.93.09c.08-.56.52-.47.89-.49Q204,96.26,204,96.46Z"/><path class="cls-8" d="M108.82,31.69c1.45,5,1.59,9.76-2,14.24,1.61.36,2.6-.67,4-.89-1.41,2.87-3.88,4.39-6.19,6.26,3.1.56,5.12-2.18,8.24-2.25a12.78,12.78,0,0,1-7.14,5.54,19.81,19.81,0,0,0-5.39,2.85,19.6,19.6,0,0,1-10.6,3.51c-1.84.12-3.7.09-5.55.12-1.58-.41-3.2-.69-4.72-1.26-7.67-2.85-10.9-9-11.79-16.59-.78-6.7,1.72-12,7.31-15.86a6.29,6.29,0,0,0,1.29-1.2C85.61,14.71,105,19.48,108.82,31.69Z"/><path class="cls-2" d="M131,46.2,124,52.91,113.22,41.29a20.84,20.84,0,0,1,6.94,0,21.86,21.86,0,0,1,9.51,3.33C130.25,45,131.08,45.24,131,46.2Z"/><path class="cls-6" d="M136.56,81.91c.33.27.74.56,1.11.91,4.69,4.53,9.34,9.09,14.08,13.57,1.11,1.05,1.18,1.72.06,2.84-3.15,3.13-6.19,6.37-9.22,9.62-.88.94-1.49,1.12-2.51.11q-7-6.87-14.05-13.59c-1.17-1.11-1.32-1.8-.09-3C129,89.3,132,86.08,135,82.94,135.43,82.53,135.76,82,136.56,81.91Zm2.21,23.59a4.09,4.09,0,0,0,1-.58q4.17-4.58,8.29-9.19a1,1,0,0,0-.12-1.56,1,1,0,0,0-1.57.21c-1,1.14-2,2.32-3.08,3.47-1.63,1.8-3.28,3.59-4.92,5.39-.41.45-.83.92-.44,1.56A3.68,3.68,0,0,0,138.77,105.5Zm12.27-8a6.51,6.51,0,0,0-.82-1c-.64-.53-1.08,0-1.5.4-2.88,2.85-5.54,5.89-8.14,9-.49.59-.76,1.08-.09,1.69s1.2,0,1.61-.47q4.12-4.31,8.19-8.67C150.53,98.14,150.74,97.84,151,97.46Zm-14.76,5.68a1.61,1.61,0,0,0,1.5-.68c2.61-2.89,5.19-5.8,7.81-8.68a1,1,0,0,0-.07-1.69c-.71-.63-1.21-.21-1.68.31q-4.06,4.49-8.11,9c-.28.32-.74.67-.38,1.12A3.08,3.08,0,0,0,136.28,103.14Zm1.58-5.86a2.82,2.82,0,0,0,.62-.42q2.56-2.76,5.08-5.56c.46-.5.2-.94-.2-1.35-.64-.67-1.18-.39-1.69.17l-4.78,5.24c-.32.35-.55.73-.23,1.18A1.46,1.46,0,0,0,137.86,97.28Z"/><path class="cls-13" d="M194.19,43.59a6.64,6.64,0,1,1-6.6-6.63A6.46,6.46,0,0,1,194.19,43.59Zm-6.53,5.75a5.73,5.73,0,1,0-5.84-5.72A5.82,5.82,0,0,0,187.66,49.33Z"/><path class="cls-16" d="M127.37,181.7c.12.59.24,1.19-.38,1.61A2.08,2.08,0,0,1,127.37,181.7Z"/><path class="cls-19" d="M159,208.1l.44-.89.25.21-.55.82Z"/><path class="cls-20" d="M163.51,207.3l-.45.31-.1-.17.58-.12Z"/><path class="cls-20" d="M163.53,207.32c0-.27.15-.45.44-.45h0l-.45.45Z"/><path class="cls-19" d="M159.11,208.25l-.29.17.15-.31Z"/><path class="cls-13" d="M183.15,205.43a9.1,9.1,0,0,1-6.22-.45l0,.07a6.76,6.76,0,0,0-2.22-2.22h0c-.9-2.74-1.21-5.44.64-8l1.13-1.13a7.34,7.34,0,0,1,8.84.46.21.21,0,0,0,.23.22,7.29,7.29,0,0,1,.45,8.85l-1.12,1.13-1.55,1.09Zm-2.46-.65a5.65,5.65,0,1,0-5.77-5.49A5.57,5.57,0,0,0,180.69,204.77Z"/><path class="cls-6" d="M185.29,194.2a7.34,7.34,0,0,0-8.84-.46c1-2.65,3.28-2,5.21-2C183.23,191.84,185,192,185.29,194.2Z"/><path class="cls-6" d="M186,203.28a7.29,7.29,0,0,0-.45-8.85c.22,0,.49,0,.65.07,2.07,1.37,1.9,3.51,1.8,5.56C187.9,201.43,187.8,202.93,186,203.28Z"/><path class="cls-6" d="M175.31,194.87c-1.85,2.52-1.54,5.22-.64,8-2-.87-1.86-2.77-1.65-4.29S172.94,195.06,175.31,194.87Z"/><path class="cls-6" d="M174.67,202.83a6.76,6.76,0,0,1,2.22,2.22C175.35,205.11,174.6,204.37,174.67,202.83Z"/><path class="cls-6" d="M183.29,205.5l1.55-1.09C184.86,205.52,184.1,205.55,183.29,205.5Z"/><path class="cls-6" d="M146.43,193.62l-.14-.05.2-.11Z"/><path class="cls-19" d="M75.35,222.92a71.13,71.13,0,0,0,6.28,6.28,1,1,0,0,1,.3.74c0,.35-.36.36-.68.36C78.79,230.28,75,225.68,75.35,222.92Z"/><path class="cls-6" d="M208.9,103.66c0,.52.07,1.17-.43,1.42-1.48.77-.78,1.21.21,1.52.43.14.71.19.5.67a.58.58,0,0,1-.76.28c-.74-.25-1.59-.31-1.85-1.33-.2-.79-.66-1.6-.07-2.32a1.68,1.68,0,0,1,2.4-.25Z"/><path class="cls-6" d="M208.89,103.65c0-.67.59-.89.89-1.33h0c.82,0,1.67-.1,2,.94.18.57-.19.79-.59,1-1,.57-1.67.12-2.3-.62Z"/><path class="cls-6" d="M204.44,104.1c-.77,0-1.69.2-2.07-.74s.84-.93,1.17-1.48h0c1.57.23,1.48,1.13.89,2.23Z"/><path class="cls-6" d="M205.78,101c.84.05,1.94-.24,2.1,1,.12.92-.9,1-1.41,1-1.61-.09-1.12-1.11-.7-2Z"/><path class="cls-6" d="M200.45,105.43c.67.09,1.59-.28,1.7.87a1,1,0,0,1-1.15,1c-1.55-.15-.91-1.1-.56-1.89Z"/><path class="cls-6" d="M213.31,105a1,1,0,0,1,.31-1c.57.21,1.32-.5,1.77.29s-.37,1.11-.71,1.59C214,105.92,213.76,105.27,213.31,105Z"/><path class="cls-6" d="M204.44,104.1c1,.1,1.47.67,1.23,1.65-.11.46-.52.45-.87.18-.64-.5-1.42-1-.37-1.83Z"/><path class="cls-16" d="M203.13,96.53a1.51,1.51,0,0,1-1.82.46A1.64,1.64,0,0,1,203.13,96.53Z"/><path class="cls-16" d="M200.46,97.42a1.63,1.63,0,0,1-1.82.46A1.54,1.54,0,0,1,200.46,97.42Z"/><path class="cls-16" d="M206.2,93.87c.33-.54.85-.51,1.37-.46C207.32,94.17,206.77,94,206.2,93.87Z"/><path class="cls-16" d="M204.87,94.32c.32-.56.85-.5,1.37-.46C206,94.56,205.45,94.51,204.87,94.32Z"/><path class="cls-16" d="M204,94.77c.08-.6.53-.49.92-.47C204.83,94.9,204.37,94.77,204,94.77Z"/><path class="cls-16" d="M201.35,97c-.08.61-.53.48-.92.47C200.5,96.83,201,97,201.35,97Z"/><path class="cls-16" d="M207.58,92.08a43.49,43.49,0,0,1-9.83,3.13A27.15,27.15,0,0,1,207.58,92.08Z"/><path class="cls-16" d="M197.79,95.19a1.52,1.52,0,0,1-1.82.46A1.62,1.62,0,0,1,197.79,95.19Z"/><path class="cls-16" d="M209.8,91.18c-.28.69-.8.65-1.37.46C208.75,91.09,209.27,91.12,209.8,91.18Z"/><path class="cls-16" d="M208.46,91.63c-.07.62-.54.46-.92.47C207.61,91.47,208.07,91.61,208.46,91.63Z"/><path class="cls-16" d="M138.77,105.5a3.68,3.68,0,0,1-.85-.71c-.4-.63,0-1.11.44-1.56,1.64-1.8,3.29-3.58,4.92-5.39,1-1.15,2-2.33,3.08-3.47a1,1,0,0,1,1.57-.21,1,1,0,0,1,.12,1.56q-4.12,4.62-8.29,9.19A4.09,4.09,0,0,1,138.77,105.5Z"/><path class="cls-16" d="M151,97.46c-.3.38-.5.68-.75.94q-4.09,4.34-8.19,8.67c-.41.43-.8,1.21-1.61.47s-.4-1.1.09-1.69c2.6-3.11,5.26-6.15,8.14-9,.42-.41.85-.94,1.5-.4A6.51,6.51,0,0,1,151,97.46Z"/><path class="cls-16" d="M136.28,103.14a3.08,3.08,0,0,1-.93-.61c-.36-.45.1-.8.38-1.12q4.05-4.51,8.11-9c.47-.52,1-.95,1.68-.31a1,1,0,0,1,.07,1.69c-2.62,2.88-5.2,5.79-7.81,8.68A1.61,1.61,0,0,1,136.28,103.14Z"/><path class="cls-16" d="M137.86,97.28a1.46,1.46,0,0,1-1.19-.74c-.32-.45-.09-.83.23-1.18l4.78-5.24c.51-.56,1-.84,1.69-.17.4.41.66.85.2,1.35q-2.52,2.79-5.08,5.56A2.82,2.82,0,0,1,137.86,97.28Z"/><path class="cls-2" d="M187.66,49.33a5.73,5.73,0,1,1,5.61-5.72A5.83,5.83,0,0,1,187.66,49.33Z"/><path class="cls-2" d="M180.69,204.77a5.65,5.65,0,1,1,5.56-5.7A5.54,5.54,0,0,1,180.69,204.77Z"/><path class="cls-2" d="M55.26,63.17S58.68,83,81.38,92.34L75.33,75Z"/><path class="cls-7" d="M207.18,64.88l-4.63,4.06a1.19,1.19,0,0,1-1,.41.87.87,0,0,1-.57-1.39,2.78,2.78,0,0,1,.42-.43l4.17-3.66c.11-.1.26-.18.31-.3s.09-.37,0-.45a.5.5,0,0,0-.46-.12,7.53,7.53,0,0,0-.88.69,1.06,1.06,0,0,1-1.58,0,1.11,1.11,0,0,1,.12-1.59c.24-.23.5-.44.75-.66s.29-.35.1-.56a.4.4,0,0,0-.61,0c-.22.19-.43.39-.66.57a1,1,0,0,1-1.33,0,.92.92,0,0,1,.17-1.31c.43-.39.87-.77,1.31-1.14.22-.19.39-.39.16-.66s-.47-.11-.69.06-.71.59-1.1.84a.57.57,0,0,1-.89-.38.83.83,0,0,1,.17-.62A47.8,47.8,0,0,1,207.34,52a1.68,1.68,0,0,1,2.52.33q2.29,2.64,4.6,5.25a2.25,2.25,0,0,1,.62,1.73c-.12,2.24-.2,4.48-.3,6.72a1.36,1.36,0,0,1-.94,1.4c-.42.13-.66.06-.77-.37a10.93,10.93,0,0,1-.4-2.16c-.05-1.24,0-2.49,0-3.73a1.43,1.43,0,0,0,0-.43.29.29,0,0,0-.47-.19,2.89,2.89,0,0,0-.41.32Z"/><path class="cls-7" d="M147.52,80.26l1.66,5.36a1.14,1.14,0,0,0,.59.83.72.72,0,0,0,1-.78,2.74,2.74,0,0,0-.12-.54l-1.49-4.84a1,1,0,0,1-.1-.38c0-.13.09-.32.18-.35a.42.42,0,0,1,.39.13,7.42,7.42,0,0,1,.35,1,.93.93,0,0,0,1.18.74,1,1,0,0,0,.59-1.27c-.08-.29-.18-.58-.26-.87s-.06-.41.17-.48.38.07.45.29.15.51.24.75a.85.85,0,0,0,1,.63.82.82,0,0,0,.43-1.08c-.15-.5-.31-1-.47-1.51-.08-.25-.12-.49.16-.58s.39.15.48.38c.15.39.27.8.44,1.18a.47.47,0,0,0,.82.14.76.76,0,0,0,.14-.55,47.14,47.14,0,0,0-2.42-8.09,1.46,1.46,0,0,0-2-1c-1.87.59-3.74,1.18-5.62,1.74a1.82,1.82,0,0,0-1.2,1c-.87,1.76-1.77,3.51-2.66,5.26a1.3,1.3,0,0,0,.09,1.53c.25.31.46.37.72.09a9.09,9.09,0,0,0,1.21-1.45c.57-.92,1.05-1.9,1.57-2.85a1.21,1.21,0,0,1,.22-.3c.16-.15.32-.12.42.09a2.85,2.85,0,0,1,.16.44Z"/><polygon class="cls-8" points="211 49.12 208.23 50.92 214.93 59.43 217.38 56.98 211 49.12"/><path class="cls-8" d="M152.37,69.87c-2.8-.1-5.24,1.39-7.92,1.8-.24-1.3-1.1-2.46-.89-3.87l7.91-1.92C151.41,67.3,152.17,68.52,152.37,69.87Z"/><path class="cls-7" d="M108.63,94.21l.29-.18c.15.11.25,0,.36,0a4.47,4.47,0,0,1,3.86.37c1.78,1,3.55,2.11,5.32,3.19a1.61,1.61,0,0,1,.79,1.74c-.18.57-.82.76-1.49.42s-1.34-.7-2-1.06a.44.44,0,0,0,.11.29l4.54,7.45a1,1,0,0,1-.13,1.37,1,1,0,0,1-1.32-.46l-1.25-2-1.62-2.6c-.12-.2-.27-.3-.43-.21s-.17.27-.06.47.14.24.22.37c1.12,1.86,2.24,3.71,3.38,5.56a1.15,1.15,0,0,1,.13,1.06c0,.07-.08.12,0,.21l-.34.21c-.63.07-1.06-.29-1.45-.94-1.08-1.8-2.19-3.58-3.3-5.36l-.13-.22c-.12-.18-.27-.24-.42-.16s-.17.25-.06.44l.15.25q1.52,2.51,3,5c.37.61.3,1.19-.15,1.46s-1,0-1.33-.6l-3.47-5.61c-.14-.23-.3-.52-.56-.37s-.08.42.07.66q1.19,1.94,2.36,3.89a1,1,0,0,1,0,1.23.8.8,0,0,1-1.05.05,1.89,1.89,0,0,1-.53-.64c-1.76-2.86-3.53-5.71-5.24-8.61A4.78,4.78,0,0,1,106.6,96c.24-.39.6-.63.82-1l.17-.11A3.37,3.37,0,0,0,108.63,94.21Z"/><path class="cls-8" d="M111.36,94.32c-2.09,1-3.46,2.82-4.87,4.57-1.55.14-2-1.31-3-2,1.93-1.92,3.59-4.13,5.94-5.61C110.1,92.26,111.51,92.8,111.36,94.32Z"/><path class="cls-15" d="M177,69.07l-.45-.28c-.26-.25-.4-.63-.8-.73l-.25-.31V67.6a12.66,12.66,0,0,1,4.62-4.72,16.41,16.41,0,0,0,4.38-3.95,14.14,14.14,0,0,1,4.29-3.29,1.16,1.16,0,0,1,1.69.71c.09.27.2.53.31.79l-.37.32a1.8,1.8,0,0,0-2.08-.55,6.62,6.62,0,0,0-3.69,2.77,2.12,2.12,0,0,0,0,2.8l-.3.27-.32-.21a.48.48,0,0,0-.68,0c-.31.3-.12.58,0,.87l-.31.27a2.38,2.38,0,0,0-3.05-.13,7.07,7.07,0,0,0-2,1.7c-.88,1-1.48,2.16-.81,3.55Z"/><path class="cls-11" d="M183.06,63.72l.31-.27a4.75,4.75,0,0,1-2.24,7.18,3.21,3.21,0,0,1-2.82-.43A6.86,6.86,0,0,1,177,69.07l.27-.24c.25.21.51.41.75.63a3.11,3.11,0,0,0,4.07.25A4.39,4.39,0,0,0,183.06,63.72Z"/><path class="cls-11" d="M190.39,57.46l.37-.32c.23.37.5.72.7,1.1a3.43,3.43,0,0,1-1.36,4.85,4.56,4.56,0,0,1-5.74-.33l.3-.27a4.15,4.15,0,0,0,4.76.55A3.28,3.28,0,0,0,190.39,57.46Z"/><path class="cls-21" d="M175.72,68.07c.4.1.54.48.8.73C176,68.8,175.93,68.37,175.72,68.07Z"/><path class="cls-21" d="M175.47,67.6v.17C175.4,67.7,175.41,67.65,175.47,67.6Z"/><path class="cls-22" d="M190.39,57.46a3.28,3.28,0,0,1-1,5.57,4.15,4.15,0,0,1-4.76-.55,2.12,2.12,0,0,1,0-2.8,6.62,6.62,0,0,1,3.69-2.77A1.8,1.8,0,0,1,190.39,57.46Z"/><path class="cls-22" d="M183.06,63.72a4.39,4.39,0,0,1-1,6,3.11,3.11,0,0,1-4.07-.25c-.24-.22-.5-.42-.75-.63-.67-1.4-.07-2.51.81-3.55a7.07,7.07,0,0,1,2-1.7A2.38,2.38,0,0,1,183.06,63.72Z"/></svg>