<svg id="Layer_1" data-name="Layer 1" xmlns="http://www.w3.org/2000/svg" xmlns:xlink="http://www.w3.org/1999/xlink" viewBox="0 0 1343 690"><defs><style>.cls-1,.cls-3,.cls-4{fill:none;}.cls-10,.cls-11,.cls-12,.cls-17,.cls-2{fill:#273274;}.cls-3,.cls-4{stroke:#273274;}.cls-10,.cls-11,.cls-12,.cls-13,.cls-14,.cls-16,.cls-17,.cls-3,.cls-4,.cls-8,.cls-9{stroke-miterlimit:10;}.cls-10,.cls-13,.cls-3{stroke-width:4px;}.cls-11,.cls-12,.cls-16,.cls-4,.cls-9{stroke-width:2px;}.cls-5{clip-path:url(#clip-path);}.cls-6{fill:#fff;}.cls-14,.cls-7,.cls-8,.cls-9{fill:#ff544e;}.cls-14,.cls-8,.cls-9{stroke:#fff;}.cls-17,.cls-8{stroke-width:3px;}.cls-10,.cls-11,.cls-13,.cls-16,.cls-17{stroke:#f7f7f7;}.cls-12{stroke:#f9f9f9;}.cls-13,.cls-15,.cls-16{fill:#ff8c58;}.cls-14{stroke-width:5px;}</style><clipPath id="clip-path"><rect class="cls-1" x="180" y="420.35" width="994" height="270.3"/></clipPath></defs><title>cover image hacktober</title><path class="cls-2" d="M471.38,136.85h6.07v-19a3.33,3.33,0,0,0-.17-1.17,1.63,1.63,0,0,0-.47-.68,1.58,1.58,0,0,0-.72-.33,4.71,4.71,0,0,0-.92-.08,9,9,0,0,0-1.82.23,15.17,15.17,0,0,0-2.29.7,19.18,19.18,0,0,0-2.42,1.15,11.76,11.76,0,0,0-2.17,1.55,7.79,7.79,0,0,0-1.55,1.94,4.62,4.62,0,0,0-.6,2.3,4.22,4.22,0,0,0,.28,1.7,2.67,2.67,0,0,0,.65,1,1.7,1.7,0,0,0,.75.4,2.94,2.94,0,0,0,.55.08,2.9,2.9,0,0,0,1.37-.28,8,8,0,0,0,1-.6l.82-.6a1.45,1.45,0,0,1,.88-.28,2.27,2.27,0,0,1,.85.18,2.43,2.43,0,0,1,.83.58,3.33,3.33,0,0,1,.65,1.05,4.18,4.18,0,0,1,.27,1.59,4.82,4.82,0,0,1-.52,2.3,5.13,5.13,0,0,1-1.33,1.62,5.53,5.53,0,0,1-1.87,1,7.19,7.19,0,0,1-2.09.32,7.26,7.26,0,0,1-2.89-.55,6.38,6.38,0,0,1-2.19-1.52A6.52,6.52,0,0,1,461,129.1a8.12,8.12,0,0,1-.47-2.77,10.48,10.48,0,0,1,.83-4.22,11.89,11.89,0,0,1,2.29-3.45A15.45,15.45,0,0,1,467,116a22.41,22.41,0,0,1,4.22-1.92A28.37,28.37,0,0,1,476,112.9a32.16,32.16,0,0,1,4.94-.38,13.75,13.75,0,0,1,4.25.52,5.66,5.66,0,0,1,2.24,1.25,2.9,2.9,0,0,1,.85,1.53,8.43,8.43,0,0,1,.13,1.33v19.69h12.28V120.8a27.07,27.07,0,0,1,1.44-9.38,18.81,18.81,0,0,1,3.7-6.32,13.92,13.92,0,0,1,5.07-3.57,15,15,0,0,1,5.57-1.12,22.25,22.25,0,0,1,3.62.28,12.48,12.48,0,0,1,3,.85,6,6,0,0,1,2.05,1.42,2.87,2.87,0,0,1,.77,2,3,3,0,0,1-.57,1.77,2.19,2.19,0,0,1-.62.58,1.35,1.35,0,0,1-.72.22,1.68,1.68,0,0,1-1.07-.37,5,5,0,0,1-.88-.92q-.42-.55-.82-1.2a8.09,8.09,0,0,0-.9-1.2,4.76,4.76,0,0,0-1.13-.92,3,3,0,0,0-1.5-.37,4.56,4.56,0,0,0-3.24,1.12,7.1,7.1,0,0,0-1.84,3.27,24.15,24.15,0,0,0-.82,5.36q-.18,3.2-.18,7.34v17.22h6.71v2.94h-6.71v20.29a2.61,2.61,0,0,0,.42,1.55,1.47,1.47,0,0,0,1.28.58,4.46,4.46,0,0,0,1.74-.33q.8-.33,1.4-.63l.57,1.23q-.73.5-1.72,1.05a19.69,19.69,0,0,1-2.17,1,17,17,0,0,1-2.54.8,12.32,12.32,0,0,1-2.82.32,9.43,9.43,0,0,1-3.67-.6,5.35,5.35,0,0,1-2.17-1.58,5.26,5.26,0,0,1-1-2.22,12.56,12.56,0,0,1-.25-2.5v-19H488.4V156.4a17.77,17.77,0,0,1-1.65,7.91,16,16,0,0,1-4.52,5.62,19.59,19.59,0,0,1-6.76,3.37,30,30,0,0,1-8.33,1.12,18.36,18.36,0,0,1-3.27-.28,13.39,13.39,0,0,1-2.77-.78,6.22,6.22,0,0,1-1.92-1.18,2,2,0,0,1-.72-1.49,4.67,4.67,0,0,1,.17-1.22,3.8,3.8,0,0,1,.5-1.12,3.07,3.07,0,0,1,.82-.83,1.86,1.86,0,0,1,1.08-.33.82.82,0,0,1,.65.37,7,7,0,0,1,.58.92q.3.55.68,1.18a5.21,5.21,0,0,0,1,1.18,5.34,5.34,0,0,0,1.49.92,5.59,5.59,0,0,0,2.17.37,9.72,9.72,0,0,0,4.42-.93,8.22,8.22,0,0,0,3.05-2.64,12,12,0,0,0,1.79-4.05,21.4,21.4,0,0,0,.58-5.16V139.78h-6.07Z"/><path class="cls-2" d="M533.65,130.51a7.89,7.89,0,0,0-2.1.27,7.27,7.27,0,0,0-1.67.67,4,4,0,0,0-1.1.88,1.47,1.47,0,0,0-.4.92.74.74,0,0,0,.52.72l1.15.5a3.86,3.86,0,0,1,1.15.8,2.16,2.16,0,0,1,.52,1.58,2.91,2.91,0,0,1-.28,1.28,3.48,3.48,0,0,1-1.9,1.74,3.74,3.74,0,0,1-1.35.25,3.88,3.88,0,0,1-3-1.27,4.82,4.82,0,0,1-1.15-3.37,5.72,5.72,0,0,1,1.07-3.49,8.33,8.33,0,0,1,2.79-2.39,14.09,14.09,0,0,1,3.89-1.38,21.61,21.61,0,0,1,9.31.12,12.63,12.63,0,0,1,4.19,1.8,9.33,9.33,0,0,1,2.9,3.14,9.16,9.16,0,0,1,1.08,4.6v18.85q0,.3,0,.67a2.08,2.08,0,0,0,.17.67,1.25,1.25,0,0,0,.4.5,1.26,1.26,0,0,0,.77.2,1.67,1.67,0,0,0,1.12-.45,8.91,8.91,0,0,0,.92-.92l.83.7q-.5.7-1.2,1.53a9.62,9.62,0,0,1-4,2.8,8.61,8.61,0,0,1-3,.5,6,6,0,0,1-3.74-1.25,6.07,6.07,0,0,1-2.14-3.85,14.13,14.13,0,0,1-2.22,2.4,12,12,0,0,1-2.35,1.57,10.39,10.39,0,0,1-2.42.87,11.43,11.43,0,0,1-2.45.27,9.75,9.75,0,0,1-3.1-.5,7.4,7.4,0,0,1-2.69-1.58,7.77,7.77,0,0,1-1.9-2.82,11.09,11.09,0,0,1-.72-4.24,9.29,9.29,0,0,1,1.2-5,10.72,10.72,0,0,1,3.15-3.25,21.28,21.28,0,0,1,4.44-2.25q2.49-.93,5.09-2a5.44,5.44,0,0,0,2.82-2.29,6.13,6.13,0,0,0,.88-3.12,5.41,5.41,0,0,0-1.45-4A5.28,5.28,0,0,0,533.65,130.51ZM539,145.12a1.54,1.54,0,0,0-.53-1.27,2.1,2.1,0,0,0-1.37-.43,4.84,4.84,0,0,0-2.22.53,5.49,5.49,0,0,0-1.85,1.57,7.94,7.94,0,0,0-1.27,2.55,12,12,0,0,0-.47,3.52,15,15,0,0,0,.28,3.2,6.24,6.24,0,0,0,.77,2,2.77,2.77,0,0,0,1.12,1.05,3.08,3.08,0,0,0,1.33.3,3.18,3.18,0,0,0,1.64-.45,4.9,4.9,0,0,0,1.33-1.15,5.77,5.77,0,0,0,.9-1.57,4.81,4.81,0,0,0,.33-1.74Z"/><path class="cls-2" d="M579.17,139.32a4.2,4.2,0,0,1-1.73-.32,3,3,0,0,1-1.13-.85,3.49,3.49,0,0,1-.63-1.18,4.57,4.57,0,0,1-.2-1.35,12.39,12.39,0,0,1,.12-1.74,5.77,5.77,0,0,0,0-1.5,1.69,1.69,0,0,0-.52-1.07,2.27,2.27,0,0,0-1.54-.4,5.43,5.43,0,0,0-2.47.67,7,7,0,0,0-2.37,2.1,12.25,12.25,0,0,0-1.77,3.69,18.4,18.4,0,0,0-.7,5.42,29.1,29.1,0,0,0,.65,6.39,15.33,15.33,0,0,0,2,4.92,9.41,9.41,0,0,0,3.24,3.15,9.63,9.63,0,0,0,6.76.85,9.81,9.81,0,0,0,2-.73,12.72,12.72,0,0,0,1.78-1.08q.85-.62,1.65-1.32l.83.8a22.88,22.88,0,0,1-2,2.27,16.11,16.11,0,0,1-2.9,2.32,16.76,16.76,0,0,1-4,1.8,17.15,17.15,0,0,1-5.17.72,14.9,14.9,0,0,1-5.66-1.12,14.64,14.64,0,0,1-4.89-3.25,16,16,0,0,1-3.42-5.19,17.8,17.8,0,0,1-1.28-7,19.34,19.34,0,0,1,.77-5.59,18.4,18.4,0,0,1,2.09-4.62,17.38,17.38,0,0,1,3.07-3.64,19.44,19.44,0,0,1,3.69-2.62,17.83,17.83,0,0,1,4-1.58,15.19,15.19,0,0,1,3.89-.53,14.64,14.64,0,0,1,4.3.57,9.69,9.69,0,0,1,3.05,1.5,6.15,6.15,0,0,1,1.82,2.15,5.63,5.63,0,0,1,.6,2.52,6.77,6.77,0,0,1-.25,1.85,4.69,4.69,0,0,1-.73,1.54,3.54,3.54,0,0,1-1.22,1A3.62,3.62,0,0,1,579.17,139.32Z"/><path class="cls-2" d="M599.26,136.85q1.17-1.57,2.5-3.19a23,23,0,0,1,2.87-2.92A14.67,14.67,0,0,1,608,128.6a9.26,9.26,0,0,1,3.94-.83,6.14,6.14,0,0,1,3.17.75,6.9,6.9,0,0,1,2.05,1.8,6.66,6.66,0,0,1,1.1,2.19,7.4,7.4,0,0,1,.32,1.94,13,13,0,0,1-.38,3.05,11.45,11.45,0,0,1-1.3,3.14,14,14,0,0,1-2.45,3,16.76,16.76,0,0,1-3.87,2.65,115.12,115.12,0,0,0,6.11,11.43,57.19,57.19,0,0,0,5.72,7.87,22.44,22.44,0,0,0,5.29,4.56,9.69,9.69,0,0,0,4.84,1.47,3.3,3.3,0,0,0,.8-.1,5.72,5.72,0,0,0,.73-.23,7.38,7.38,0,0,0,.77-.33l.63,1.17q-.9.5-1.84,1a12.87,12.87,0,0,1-2.14.78,19.79,19.79,0,0,1-2.77.53,30,30,0,0,1-3.74.2,16.41,16.41,0,0,1-3.89-.47,13.28,13.28,0,0,1-3.85-1.67,21.78,21.78,0,0,1-3.92-3.2,35.74,35.74,0,0,1-4.07-5.07,72.89,72.89,0,0,1-4.29-7.31q-2.2-4.24-4.57-9.91a35,35,0,0,0,5-4.39,21.48,21.48,0,0,0,2.77-3.65,9.51,9.51,0,0,0,1.17-2.9,12.31,12.31,0,0,0,.23-2.17c0-.09,0-.24,0-.45a1.47,1.47,0,0,0-.22-.62,1.75,1.75,0,0,0-.53-.53,1.77,1.77,0,0,0-1-.23,4,4,0,0,0-2.5,1.05,14.82,14.82,0,0,0-2.42,2.6,25.17,25.17,0,0,0-2.09,3.34q-.93,1.79-1.53,3.25v17.22a4.36,4.36,0,0,1-.15,1,2.4,2.4,0,0,1-.7,1.13,4.49,4.49,0,0,1-1.6.92,8.44,8.44,0,0,1-2.82.38,7.39,7.39,0,0,1-2.77-.42,3.87,3.87,0,0,1-1.49-1,2.56,2.56,0,0,1-.6-1.17,5.3,5.3,0,0,1-.12-1v-43a3.1,3.1,0,0,0-.45-1.69A1.65,1.65,0,0,0,587,114a2.44,2.44,0,0,0-1,.18,4.21,4.21,0,0,0-.88.55l-.67-.8a19.89,19.89,0,0,1,1.7-1.25,12.37,12.37,0,0,1,2.05-1.08,15.34,15.34,0,0,1,2.39-.77,11.56,11.56,0,0,1,2.67-.3,7.88,7.88,0,0,1,3.37.58,4.33,4.33,0,0,1,1.77,1.44,4.13,4.13,0,0,1,.68,1.8,14.08,14.08,0,0,1,.12,1.69Z"/><path class="cls-2" d="M636,130.64V155.3a3.5,3.5,0,0,0,.67,2.45,2.45,2.45,0,0,0,1.84.68,2.69,2.69,0,0,0,1.6-.5,5.86,5.86,0,0,0,1.2-1.13,7.06,7.06,0,0,0,1-1.64l1,.47q-.5,1.07-1.18,2.34a9.26,9.26,0,0,1-4.67,4.17,11.05,11.05,0,0,1-4.32.73,9.17,9.17,0,0,1-2.82-.43,6.62,6.62,0,0,1-2.4-1.37,6.85,6.85,0,0,1-1.69-2.34,8.13,8.13,0,0,1-.63-3.37V130.64h-3.74v-2.4a10.07,10.07,0,0,0,2.6-.48,13,13,0,0,0,3.42-1.62,13.6,13.6,0,0,0,3.25-3,11.61,11.61,0,0,0,2.14-4.71H636v9.84h5.44q2.67,0,2.67-.9a.45.45,0,0,0-.33-.45q-.33-.12-.75-.3a2.43,2.43,0,0,1-.75-.52A1.52,1.52,0,0,1,642,125a1.89,1.89,0,0,1,.58-1.47,2.16,2.16,0,0,1,1.52-.53,2.13,2.13,0,0,1,1.05.25,2.28,2.28,0,0,1,.75.67,3,3,0,0,1,.45,1,3.93,3.93,0,0,1,.15,1.07,4.74,4.74,0,0,1-1.25,3.45,5.42,5.42,0,0,1-4,1.28Z"/><path class="cls-2" d="M645.44,145.32a21.21,21.21,0,0,1,1.27-7.66,16.22,16.22,0,0,1,3.39-5.49,13.72,13.72,0,0,1,4.92-3.3,15.92,15.92,0,0,1,5.87-1.1,17.08,17.08,0,0,1,5.87,1,13.4,13.4,0,0,1,4.92,3.12,15.25,15.25,0,0,1,3.39,5.32,20.77,20.77,0,0,1,1.27,7.63,21.89,21.89,0,0,1-1.27,7.74,17.22,17.22,0,0,1-3.39,5.67,14.08,14.08,0,0,1-4.92,3.49,14.94,14.94,0,0,1-5.87,1.18,15.72,15.72,0,0,1-5.87-1.12,13.91,13.91,0,0,1-4.92-3.32,16.19,16.19,0,0,1-3.39-5.51A21.34,21.34,0,0,1,645.44,145.32ZM666,145q0-2.67-.18-5.16a23.13,23.13,0,0,0-.72-4.42,7.8,7.8,0,0,0-1.53-3.09,3.32,3.32,0,0,0-2.64-1.15,3.25,3.25,0,0,0-2.64,1.22,8.43,8.43,0,0,0-1.53,3.2,23.36,23.36,0,0,0-.7,4.52q-.17,2.54-.17,5.21t.17,5.22a23.72,23.72,0,0,0,.7,4.55,8.42,8.42,0,0,0,1.53,3.22,3.24,3.24,0,0,0,2.64,1.22,3.2,3.2,0,0,0,2.64-1.27,8.94,8.94,0,0,0,1.53-3.34,26.15,26.15,0,0,0,.72-4.67Q666,147.66,666,145Z"/><path class="cls-2" d="M681.48,116.36a3.1,3.1,0,0,0-.45-1.69,1.65,1.65,0,0,0-1.52-.72,2.44,2.44,0,0,0-1,.18,4.23,4.23,0,0,0-.88.55l-.67-.8a18.75,18.75,0,0,1,1.72-1.25,13.4,13.4,0,0,1,2.05-1.08,14.76,14.76,0,0,1,2.37-.77,11.56,11.56,0,0,1,2.67-.3,7.1,7.1,0,0,1,3.12.58,4.78,4.78,0,0,1,1.8,1.44,4.69,4.69,0,0,1,.82,1.84,9.17,9.17,0,0,1,.2,1.82V131l1-.92a9.26,9.26,0,0,1,1.6-1.08,10.54,10.54,0,0,1,2.32-.9,12.26,12.26,0,0,1,3.19-.37,10.13,10.13,0,0,1,4.27,1,10.74,10.74,0,0,1,3.84,3.09,16.67,16.67,0,0,1,2.77,5.41,26,26,0,0,1,1.07,7.94,23.51,23.51,0,0,1-1,6.87,16.76,16.76,0,0,1-2.92,5.66,13.76,13.76,0,0,1-4.84,3.82,15.34,15.34,0,0,1-6.74,1.4,16.34,16.34,0,0,1-7-1.35,12.18,12.18,0,0,1-4.59-3.64,14.41,14.41,0,0,1-2.49-5.32,26.61,26.61,0,0,1-.75-6.41Zm19.89,29.43a46.83,46.83,0,0,0-.3-5.46,21.25,21.25,0,0,0-1-4.47,8.58,8.58,0,0,0-1.7-3,3.29,3.29,0,0,0-2.5-1.12,3.26,3.26,0,0,0-1.92.55,5.3,5.3,0,0,0-1.28,1.25,5.42,5.42,0,0,0-.73,1.38,3.65,3.65,0,0,0-.23.92v10q0,7.28,1.22,10.58t3.59,3.3q2.5,0,3.67-3.37T701.37,145.79Z"/><path class="cls-2" d="M726.86,147.09a9.44,9.44,0,0,0,.32,2.32,13.82,13.82,0,0,0,.92,2.52,13.36,13.36,0,0,0,1.49,2.42,11.49,11.49,0,0,0,2,2.05,9.76,9.76,0,0,0,2.55,1.44,8.55,8.55,0,0,0,3.07.53,8.38,8.38,0,0,0,2.17-.27,8.57,8.57,0,0,0,1.87-.73,12.15,12.15,0,0,0,1.67-1.08q.8-.62,1.6-1.32l.83.8a23,23,0,0,1-2,2.27,16.13,16.13,0,0,1-2.9,2.32,16.8,16.8,0,0,1-4,1.8,17.16,17.16,0,0,1-5.17.72,15.74,15.74,0,0,1-5.66-1.05,14,14,0,0,1-4.89-3.15,15.46,15.46,0,0,1-3.42-5.24,21.18,21.18,0,0,1-.52-12.91,17.88,17.88,0,0,1,2.09-4.57,17,17,0,0,1,3.07-3.57,19.06,19.06,0,0,1,3.69-2.55,18.2,18.2,0,0,1,4-1.54,16.19,16.19,0,0,1,8.19,0,9.62,9.62,0,0,1,3.05,1.44,6,6,0,0,1,1.82,2.09,5.43,5.43,0,0,1,.6,2.49,4.71,4.71,0,0,1-.9,2.82,8.34,8.34,0,0,1-2.4,2.19Zm6.71-6.77a5.3,5.3,0,0,0,.72-.52,1.88,1.88,0,0,0,.45-.6,3.25,3.25,0,0,0,.25-.87,8.37,8.37,0,0,0,.08-1.28,10.52,10.52,0,0,0-.18-1.85,7.45,7.45,0,0,0-.62-1.92,4.77,4.77,0,0,0-1.1-1.5,2.31,2.31,0,0,0-1.6-.6,3.08,3.08,0,0,0-2.05.72,5.56,5.56,0,0,0-1.4,1.85,11.55,11.55,0,0,0-.87,2.59,29,29,0,0,0-.48,2.92q-.17,1.47-.2,2.82t0,2.29Z"/><path class="cls-2" d="M760.53,134.81a27.51,27.51,0,0,1,2.7-3.5,18.12,18.12,0,0,1,1.3-1.3,12.53,12.53,0,0,1,1.45-1.13,7.63,7.63,0,0,1,1.55-.8,4.54,4.54,0,0,1,1.6-.3,3.51,3.51,0,0,1,2.67,1,4,4,0,0,1,1,2.85,12.79,12.79,0,0,1-.18,2.19,16.22,16.22,0,0,1-.72,2.55h-.93a3.09,3.09,0,0,0-.93-1.72,3,3,0,0,0-2.14-.68,5.65,5.65,0,0,0-2,.38,12.66,12.66,0,0,0-2,1,17.2,17.2,0,0,0-1.8,1.23q-.85.67-1.55,1.27v21.66a4.9,4.9,0,0,1-.13,1,2.38,2.38,0,0,1-.65,1.13,4.14,4.14,0,0,1-1.53.92,8.14,8.14,0,0,1-2.79.38,7.53,7.53,0,0,1-2.79-.42,4.37,4.37,0,0,1-1.55-1,2.52,2.52,0,0,1-.67-1.17,4.71,4.71,0,0,1-.13-1V133.64a3.11,3.11,0,0,0-.45-1.69,1.66,1.66,0,0,0-1.52-.72,2.14,2.14,0,0,0-1,.2,5.22,5.22,0,0,0-.87.57l-.7-.83a18.73,18.73,0,0,1,1.72-1.25,13.32,13.32,0,0,1,2.05-1.08,14.84,14.84,0,0,1,2.37-.77,11.56,11.56,0,0,1,2.67-.3,7,7,0,0,1,2.45.38,4.9,4.9,0,0,1,1.67,1,4.69,4.69,0,0,1,1,1.38,7.62,7.62,0,0,1,.55,1.55,8.38,8.38,0,0,1,.22,1.5C760.52,134.07,760.53,134.48,760.53,134.81Z"/><path class="cls-2" d="M793.47,112.79a4,4,0,0,0-1.77.4,3.77,3.77,0,0,0-1.45,1.28,7.14,7.14,0,0,0-1,2.25,12.9,12.9,0,0,0-.37,3.3v8.21h7.31v2.4h-7.31v26.3a28.29,28.29,0,0,1-1.18,8.38,18.23,18.23,0,0,1-3.59,6.62,16.49,16.49,0,0,1-6,4.35,20.93,20.93,0,0,1-8.41,1.57,18.43,18.43,0,0,1-3.27-.28,13.46,13.46,0,0,1-2.77-.78,6.21,6.21,0,0,1-1.92-1.18,2.06,2.06,0,0,1-.72-1.52,4.62,4.62,0,0,1,.17-1.22,3.75,3.75,0,0,1,.5-1.12,2.86,2.86,0,0,1,.82-.82,2,2,0,0,1,1.12-.32.81.81,0,0,1,.65.37,7.58,7.58,0,0,1,.58.9c.2.36.43.75.68,1.18a5,5,0,0,0,1,1.18,5.26,5.26,0,0,0,1.48.9,5.63,5.63,0,0,0,2.15.37,6.37,6.37,0,0,0,3-.68,6.84,6.84,0,0,0,2.24-1.89,11.16,11.16,0,0,0,1.57-2.84,20.78,20.78,0,0,0,1-3.5,33,33,0,0,0,.52-3.9q.15-2,.15-4.07v-28h-6.14v-2.4h6.14v-3.9a16.46,16.46,0,0,1,.72-5.12,12.3,12.3,0,0,1,1.9-3.72A10.77,10.77,0,0,1,784,113a15.44,15.44,0,0,1,3.05-1.54,14.53,14.53,0,0,1,3-.77,19.29,19.29,0,0,1,2.57-.2,22.57,22.57,0,0,1,4.2.35,12.91,12.91,0,0,1,3.07.93,5.36,5.36,0,0,1,1.87,1.35,2.45,2.45,0,0,1,.63,1.57,4.25,4.25,0,0,1-.18,1.22,4.37,4.37,0,0,1-.52,1.13,2.77,2.77,0,0,1-.82.83,1.93,1.93,0,0,1-1.09.32.84.84,0,0,1-.67-.4,8.74,8.74,0,0,1-.63-1l-.73-1.3a6.46,6.46,0,0,0-1-1.3,5.1,5.1,0,0,0-1.38-1A4.21,4.21,0,0,0,793.47,112.79Z"/><path class="cls-2" d="M807.18,147.09a9.4,9.4,0,0,0,.32,2.32,13.89,13.89,0,0,0,.92,2.52,13.37,13.37,0,0,0,1.49,2.42,11.45,11.45,0,0,0,2,2.05,9.74,9.74,0,0,0,2.55,1.44,8.55,8.55,0,0,0,3.07.53,8.38,8.38,0,0,0,2.17-.27,8.57,8.57,0,0,0,1.87-.73,12.14,12.14,0,0,0,1.67-1.08q.8-.62,1.6-1.32l.83.8a22.79,22.79,0,0,1-2,2.27,16.13,16.13,0,0,1-2.9,2.32,16.76,16.76,0,0,1-4,1.8,17.15,17.15,0,0,1-5.17.72,15.74,15.74,0,0,1-5.66-1.05,14.06,14.06,0,0,1-4.89-3.15,15.47,15.47,0,0,1-3.42-5.24,21.2,21.2,0,0,1-.52-12.91,17.93,17.93,0,0,1,2.09-4.57,17,17,0,0,1,3.07-3.57,19.08,19.08,0,0,1,3.69-2.55,18.19,18.19,0,0,1,4-1.54,16.2,16.2,0,0,1,8.19,0,9.63,9.63,0,0,1,3.05,1.44,6,6,0,0,1,1.82,2.09,5.43,5.43,0,0,1,.6,2.49,4.7,4.7,0,0,1-.9,2.82,8.32,8.32,0,0,1-2.4,2.19Zm6.71-6.77a5.29,5.29,0,0,0,.72-.52,1.87,1.87,0,0,0,.45-.6,3.25,3.25,0,0,0,.25-.87,8.36,8.36,0,0,0,.08-1.28,10.52,10.52,0,0,0-.18-1.85,7.45,7.45,0,0,0-.62-1.92,4.77,4.77,0,0,0-1.1-1.5,2.31,2.31,0,0,0-1.6-.6,3.08,3.08,0,0,0-2.05.72,5.57,5.57,0,0,0-1.4,1.85,11.55,11.55,0,0,0-.87,2.59,29.33,29.33,0,0,0-.48,2.92q-.17,1.47-.2,2.82t0,2.29Z"/><path class="cls-2" d="M840.92,130.44a5.13,5.13,0,0,0-1.45.2,3.3,3.3,0,0,0-1.22.65,3.08,3.08,0,0,0-.83,1.13,4,4,0,0,0-.3,1.62,4.32,4.32,0,0,0,1,2.59,22.43,22.43,0,0,0,2.37,2.67q1.42,1.39,3.07,2.87a34,34,0,0,1,3.07,3.14,17.77,17.77,0,0,1,2.37,3.52,8.7,8.7,0,0,1,1,4,10.57,10.57,0,0,1-.82,4.27,8.71,8.71,0,0,1-2.34,3.17,10.39,10.39,0,0,1-3.67,2,15.76,15.76,0,0,1-4.79.68,12.62,12.62,0,0,1-4.17-.65,15,15,0,0,1-3.32-1.6,14.48,14.48,0,0,1-2.49-2,13.41,13.41,0,0,1-1.6-1.94l1.17-.83A11.3,11.3,0,0,0,829,157a10.77,10.77,0,0,0,1.49,1.08,8.65,8.65,0,0,0,1.75.82,5.87,5.87,0,0,0,1.9.32,6.39,6.39,0,0,0,3.94-1.15,4,4,0,0,0,1.53-3.42,5,5,0,0,0-.83-2.62,20.67,20.67,0,0,0-2.1-2.79q-1.27-1.43-2.74-3a40.27,40.27,0,0,1-2.74-3.17,18.71,18.71,0,0,1-2.1-3.37,8.21,8.21,0,0,1-.83-3.6,7.59,7.59,0,0,1,.85-3.67,7.75,7.75,0,0,1,2.27-2.6,10.15,10.15,0,0,1,3.24-1.55,13.66,13.66,0,0,1,3.75-.52,19.11,19.11,0,0,1,4.07.4,10,10,0,0,1,3.15,1.22,5.89,5.89,0,0,1,2,2.05,5.6,5.6,0,0,1,.72,2.87,3.2,3.2,0,0,1-.83,2.2,3,3,0,0,1-2.34.93,3.37,3.37,0,0,1-2.19-.62,2.07,2.07,0,0,1-.75-1.69,1.62,1.62,0,0,1,.35-1.1,3.09,3.09,0,0,1,.78-.65l.78-.43a.55.55,0,0,0,.35-.48,1.66,1.66,0,0,0-1-1.48A5.3,5.3,0,0,0,840.92,130.44Z"/><path class="cls-2" d="M866.25,130.64V155.3a3.5,3.5,0,0,0,.67,2.45,2.45,2.45,0,0,0,1.84.68,2.69,2.69,0,0,0,1.6-.5,5.87,5.87,0,0,0,1.2-1.13,7.08,7.08,0,0,0,1-1.64l1,.47q-.5,1.07-1.18,2.34a9.27,9.27,0,0,1-4.67,4.17,11.05,11.05,0,0,1-4.32.73,9.17,9.17,0,0,1-2.82-.43,6.61,6.61,0,0,1-2.4-1.37,6.85,6.85,0,0,1-1.68-2.34,8.12,8.12,0,0,1-.63-3.37V130.64h-3.74v-2.4a10.07,10.07,0,0,0,2.6-.48,13,13,0,0,0,3.42-1.62,13.58,13.58,0,0,0,3.25-3,11.6,11.6,0,0,0,2.14-4.71h2.67v9.84h5.44q2.67,0,2.67-.9a.45.45,0,0,0-.33-.45q-.33-.12-.75-.3a2.43,2.43,0,0,1-.75-.52,1.52,1.52,0,0,1-.33-1.1,1.89,1.89,0,0,1,.58-1.47,2.16,2.16,0,0,1,1.52-.53,2.13,2.13,0,0,1,1.05.25,2.28,2.28,0,0,1,.75.67,3,3,0,0,1,.45,1,4,4,0,0,1,.15,1.07,4.73,4.73,0,0,1-1.25,3.45,5.42,5.42,0,0,1-4,1.28Z"/><polyline class="cls-3" points="888.18 128.91 917.72 128.91 917.72 105.45"/><line class="cls-3" x1="888.18" y1="148.45" x2="950.3" y2="148.45"/><polyline class="cls-3" points="888.18 165.82 937.27 165.82 937.27 182.33"/><polyline class="cls-3" points="449.6 160.39 420.06 160.39 420.06 183.85"/><line class="cls-3" x1="450.03" y1="140.85" x2="387.49" y2="140.85"/><polyline class="cls-3" points="449.17 123.47 400.52 123.47 400.52 106.97"/><circle class="cls-3" cx="936.83" cy="192.32" r="4.34"/><circle class="cls-4" cx="918.16" cy="97.13" r="3.04"/><circle class="cls-2" cx="961.16" cy="148.02" r="4.34"/><circle class="cls-3" cx="400.09" cy="99.15" r="4.34"/><circle class="cls-4" cx="380.54" cy="141.28" r="3.04"/><circle class="cls-2" cx="420.06" cy="192.97" r="4.34"/><g class="cls-5"><circle class="cls-6" cx="1218.03" cy="523.27" r="3.44"/><path class="cls-7" d="M1084.65,608q0-5.41,0-10.81c0-8.17,0-16.34,0-24.51a4.89,4.89,0,0,0-1-3.07c-3.1-4.3-6.18-8.62-9.18-13-.62-.9-1.89-2.21-.9-3.09s2.14.5,3,1.24c2.62,2.37,5.15,4.85,8.1,7.65,0-5.33-.2-10.25.06-15.15s.52-9.68,2.51-14.42a5.17,5.17,0,0,1,1.53,3.59c1.27,8,1.48,16.1,1.76,24.19.79,23.43,1.23,46.87,1.69,70.3.08,4,.26,8.09.32,12.13,0,1.24.25,1.57,1.54,1.12a47.19,47.19,0,0,0,15.92-9.83c10.68-9.48,18.13-20.93,20.87-35.13,2-10.38.72-20.57-2.26-30.57-4.52-15.17-12.09-28.59-23.44-39.75a52.26,52.26,0,0,0-6.5-5.26c-5.62-4-11.47-4.54-17.78-1.75-12.09,5.35-21.76,13.73-30,23.91-6.69,8.31-11.68,17.53-13.66,28.13-2.38,12.68.25,24.59,6.32,35.75,8.07,14.84,19.46,26.26,35.25,32.88,1.28.54,2.64.88,4,1.33s1.77.2,1.76-1.27q0-11.31.07-22.62a3.8,3.8,0,0,0-1.13-2.57c-5.86-7.19-12-14.14-17.51-21.63a29.6,29.6,0,0,1-3.93-7.58c-.2-.56-.85-1.36,0-1.88.62-.4,1.2.23,1.65.6,1.66,1.38,3.33,2.76,4.88,4.26C1074.06,596.53,1079,602.38,1084.65,608Z"/><circle class="cls-8" cx="1057.23" cy="582.59" r="3.48"/><circle class="cls-9" cx="1068.74" cy="549.44" r="2.96"/><path class="cls-7" d="M1087.76,703.88l-2.95.05a6.83,6.83,0,0,0-.79-1.47q0-4.38.09-8.76a1.89,1.89,0,0,0,.69-1.16c.07-.81-.53-1.58-.74-2.38.1.27.14-.8.19-1a3.1,3.1,0,0,0-.49-3.16l.46,0q0-2.55,0-5.11c0-4.31,0-8.62,0-12.93a1.74,1.74,0,0,0,.11-2.12l0,0c.14-.21-.23-.58-.28-.79a4.44,4.44,0,0,1-.09-.76c.24-.26.27-.39.23-.42a1.22,1.22,0,0,0-.07-1.3c.42-5.09-1.16-10.06,4.07-14.94,2.39.51,2.37,1.22,2.69,1.84,2.06,4,2.41,8.09,2.84,12.16,1.28,12,2,24,2.75,36.06.13,2.07.51,4.14.49,6.2a1,1,0,0,0,0,.13C1093.92,703.9,1090.86,703.83,1087.76,703.88Z"/><circle class="cls-6" cx="1129.39" cy="647.07" r="3.26"/><path class="cls-2" d="M990.58,593.76q0-7.45,0-14.91c0-11.27,0-22.53,0-33.8a6.75,6.75,0,0,0-1.38-4.24c-4.28-5.93-8.52-11.88-12.65-17.91-.85-1.24-2.61-3-1.24-4.27s2.95.69,4.08,1.72c3.62,3.27,7.11,6.68,11.17,10.55,0-7.36-.27-14.14.08-20.89s.72-13.35,3.47-19.88c1.73,1.52,1.84,3.29,2.1,5,1.76,11.05,2,22.21,2.43,33.36,1.09,32.31,1.7,64.63,2.33,97,.11,5.58.36,11.15.44,16.73,0,1.71.34,2.17,2.13,1.55,8.35-2.87,15.45-7.78,22-13.56,14.72-13.08,25-28.86,28.78-48.45,2.77-14.32,1-28.36-3.12-42.16-6.23-20.93-16.67-39.43-32.33-54.82a72.07,72.07,0,0,0-9-7.26c-7.75-5.49-15.82-6.27-24.53-2.41-16.68,7.38-30,18.93-41.32,33-9.23,11.47-16.1,24.17-18.84,38.79-3.28,17.49.34,33.92,8.71,49.3,11.13,20.46,26.84,36.21,48.62,45.34,1.77.74,3.64,1.22,5.46,1.83,1.64.55,2.44.28,2.43-1.75q-.06-15.6.1-31.19a5.24,5.24,0,0,0-1.56-3.54c-8.08-9.92-16.58-19.5-24.15-29.84a40.82,40.82,0,0,1-5.42-10.45c-.28-.77-1.17-1.88-.06-2.59.85-.55,1.65.31,2.28.83,2.29,1.91,4.59,3.81,6.74,5.88C976,577.95,982.82,586,990.58,593.76Z"/><circle class="cls-10" cx="966.56" cy="513.63" r="4.8"/><path class="cls-2" d="M994.86,726l-4.07.07a9.41,9.41,0,0,0-1.09-2q0-6,.12-12.08a2.61,2.61,0,0,0,.95-1.61c.1-1.11-.73-2.18-1-3.28.14.38.2-1.1.27-1.37.37-1.44.59-3-.68-4.36l.63-.05q0-3.52,0-7c0-5.94,0-11.89.06-17.83a2.4,2.4,0,0,0,.15-2.92l0-.06c.19-.29-.32-.8-.39-1.08a6.12,6.12,0,0,1-.12-1c.34-.36.38-.54.31-.58a1.68,1.68,0,0,0-.1-1.79c.57-7-1.59-13.87,5.61-20.6,3.3.7,3.28,1.68,3.71,2.54,2.84,5.55,3.33,11.16,3.92,16.77,1.76,16.57,2.78,33.15,3.79,49.73.17,2.85.7,5.7.67,8.56a1.32,1.32,0,0,0,0,.18C1003.35,726,999.14,725.92,994.86,726Z"/><circle class="cls-11" cx="954.52" cy="558.29" r="3.9"/><path class="cls-7" d="M857.36,544.2q0-6.74,0-13.47c0-10.18,0-20.36,0-30.54a6.1,6.1,0,0,1,1.25-3.83c3.87-5.35,7.7-10.74,11.43-16.18.77-1.12,2.36-2.75,1.12-3.85s-2.66.63-3.69,1.55c-3.27,3-6.42,6-10.1,9.53,0-6.65.25-12.78-.07-18.88s-.65-12.07-3.13-18c-1.56,1.37-1.66,3-1.9,4.48-1.59,10-1.85,20.07-2.19,30.14-1,29.19-1.54,58.4-2.1,87.6-.1,5-.33,10.08-.39,15.11,0,1.55-.31,2-1.92,1.4-7.55-2.59-14-7-19.83-12.25-13.3-11.81-22.59-26.08-26-43.77-2.5-12.94-.89-25.63,2.82-38.09,5.63-18.91,15.06-35.62,29.21-49.53a65.11,65.11,0,0,1,8.09-6.56c7-5,14.3-5.66,22.16-2.18,15.07,6.67,27.12,17.1,37.33,29.79,8.34,10.36,14.55,21.84,17,35,3,15.8-.31,30.64-7.87,44.54-10.06,18.49-24.25,32.72-43.92,41-1.6.67-3.29,1.1-4.94,1.65-1.48.5-2.2.25-2.2-1.58q.06-14.09-.09-28.18a4.73,4.73,0,0,1,1.41-3.2c7.3-9,15-17.62,21.82-27a36.88,36.88,0,0,0,4.9-9.44c.25-.7,1.06-1.7.05-2.34-.77-.49-1.49.28-2.06.75-2.07,1.72-4.15,3.44-6.09,5.31C870.56,529.91,864.36,537.2,857.36,544.2Z"/><circle class="cls-6" cx="879.06" cy="471.81" r="4.34"/><path class="cls-7" d="M853.49,716.57l3.68.12a20.43,20.43,0,0,1,1-3.2q0-9.57-.11-19.14a5.38,5.38,0,0,1-.86-2.54c-.09-1.76.66-3.46.93-5.2-.13.6-.18-1.74-.24-2.17-.34-2.28-.54-4.69.62-6.92l-.57-.08q0-5.58,0-11.17c0-9.42,0-18.84-.05-28.26a6.18,6.18,0,0,1-.13-4.63l0-.1c-.17-.46.29-1.27.35-1.72s.09-1.11.11-1.66c-.3-.56-.34-.85-.28-.93a4.42,4.42,0,0,1,.09-2.83c-.52-11.12,1.44-22-5.07-32.64-3,1.11-3,2.66-3.36,4-2.57,8.8-3,17.69-3.54,26.57-1.59,26.27-2.51,52.54-3.42,78.81-.16,4.52-.64,9-.61,13.56,0,.1,0,.2,0,.29C845.81,716.61,849.62,716.46,853.49,716.57Z"/><path class="cls-7" d="M405.41,660.57q0-4.6,0-9.21c0-7,0-13.91,0-20.87a4.17,4.17,0,0,1,.85-2.62c2.64-3.66,5.26-7.34,7.81-11.06.53-.77,1.61-1.88.76-2.63s-1.82.43-2.52,1.06c-2.24,2-4.39,4.13-6.9,6.51,0-4.54.17-8.73,0-12.9s-.44-8.25-2.14-12.28a4.41,4.41,0,0,0-1.3,3.06,166.84,166.84,0,0,0-1.5,20.6c-.68,20-1.05,39.91-1.44,59.87-.07,3.44-.22,6.89-.27,10.33,0,1.06-.21,1.34-1.31,1A40.19,40.19,0,0,1,383.84,683c-9.09-8.07-15.44-17.82-17.78-29.92-1.71-8.84-.61-17.52,1.93-26a77.51,77.51,0,0,1,20-33.85,44.51,44.51,0,0,1,5.53-4.48,14.4,14.4,0,0,1,15.15-1.49c10.3,4.56,18.53,11.69,25.52,20.36,5.7,7.08,9.94,14.93,11.64,24,2,10.8-.21,20.94-5.38,30.44-6.88,12.63-16.57,22.36-30,28-1.09.46-2.25.75-3.37,1.13s-1.51.17-1.5-1.08q0-9.63-.06-19.26a3.23,3.23,0,0,1,1-2.19c5-6.12,10.24-12,14.91-18.43a25.21,25.21,0,0,0,3.35-6.46c.17-.48.73-1.16,0-1.6-.53-.34-1,.19-1.41.51-1.41,1.18-2.84,2.35-4.16,3.63C414.44,650.81,410.2,655.79,405.41,660.57Z"/><circle class="cls-6" cx="420.25" cy="611.09" r="2.97"/><path class="cls-2" d="M284.66,645.12q0-3.31,0-6.62c0-5,0-10,0-15a3,3,0,0,1,.61-1.88c1.9-2.63,3.78-5.27,5.62-8,.38-.55,1.16-1.35.55-1.89s-1.31.31-1.81.76c-1.61,1.45-3.15,3-5,4.68,0-3.27.12-6.28,0-9.27a25.44,25.44,0,0,0-1.54-8.83,3.17,3.17,0,0,0-.93,2.2,119.94,119.94,0,0,0-1.08,14.81c-.49,14.34-.76,28.69-1,43,0,2.48-.16,5-.19,7.43,0,.76-.15,1-.94.69a28.89,28.89,0,0,1-9.74-6c-6.54-5.8-11.1-12.81-12.78-21.51A38.93,38.93,0,0,1,257.76,621a55.71,55.71,0,0,1,14.35-24.34,32,32,0,0,1,4-3.22A10.35,10.35,0,0,1,287,592.4,49,49,0,0,1,305.32,607a38.72,38.72,0,0,1,8.36,17.22c1.45,7.77-.15,15.06-3.87,21.88-4.94,9.08-11.91,16.08-21.58,20.13-.78.33-1.62.54-2.43.81s-1.08.12-1.08-.78q0-6.92,0-13.85a2.33,2.33,0,0,1,.69-1.57c3.59-4.4,7.36-8.66,10.72-13.24a18.12,18.12,0,0,0,2.41-4.64c.12-.34.52-.83,0-1.15s-.73.14-1,.37c-1,.85-2,1.69-3,2.61C291.15,638.1,288.11,641.68,284.66,645.12Z"/><circle class="cls-12" cx="295.33" cy="609.55" r="2.13"/><path class="cls-2" d="M282.76,703.82l1.81,0a4.18,4.18,0,0,1,.48-.9q0-2.68-.05-5.36a1.16,1.16,0,0,1-.42-.71c0-.49.32-1,.45-1.46-.06.17-.09-.49-.12-.61a1.9,1.9,0,0,1,.3-1.94l-.28,0q0-1.56,0-3.13c0-2.64,0-5.28,0-7.92a1.06,1.06,0,0,1-.07-1.3v0c-.08-.13.14-.35.17-.48a2.72,2.72,0,0,0,.05-.47c-.15-.16-.17-.24-.14-.26a.75.75,0,0,1,0-.79c-.25-3.11.71-6.16-2.49-9.14-1.47.31-1.45.75-1.65,1.13a20.14,20.14,0,0,0-1.74,7.44c-.78,7.36-1.23,14.72-1.68,22.08-.08,1.27-.31,2.53-.3,3.8a.59.59,0,0,1,0,.08C279,703.83,280.86,703.79,282.76,703.82Z"/><path class="cls-7" d="M693.55,577.65q0-6.55,0-13.11c0-9.9,0-19.81,0-29.71a5.93,5.93,0,0,1,1.21-3.72c3.76-5.21,7.49-10.44,11.12-15.75.75-1.09,2.29-2.68,1.09-3.75s-2.59.61-3.59,1.51c-3.18,2.87-6.25,5.88-9.82,9.27,0-6.47.24-12.43-.07-18.37s-.63-11.74-3-17.48c-1.52,1.34-1.62,2.89-1.85,4.35-1.54,9.71-1.8,19.52-2.13,29.33-1,28.4-1.5,56.81-2,85.22-.09,4.9-.32,9.8-.38,14.71,0,1.51-.3,1.9-1.87,1.36-7.34-2.52-13.58-6.84-19.3-11.92-12.94-11.49-22-25.37-25.3-42.59-2.43-12.59-.87-24.93,2.74-37.06,5.48-18.39,14.65-34.66,28.42-48.19a63.35,63.35,0,0,1,7.87-6.38c6.81-4.83,13.91-5.51,21.56-2.12,14.66,6.49,26.38,16.64,36.32,29,8.12,10.08,14.15,21.25,16.56,34.09,2.88,15.38-.3,29.81-7.66,43.33-9.79,18-23.59,31.83-42.73,39.86-1.55.65-3.2,1.07-4.8,1.61-1.44.49-2.14.24-2.14-1.54q.06-13.71-.09-27.42a4.6,4.6,0,0,1,1.37-3.11c7.1-8.72,14.57-17.14,21.22-26.23a35.88,35.88,0,0,0,4.77-9.19c.24-.68,1-1.65.05-2.28-.75-.48-1.45.27-2,.73-2,1.68-4,3.35-5.92,5.16C706.4,563.74,700.37,570.83,693.55,577.65Z"/><circle class="cls-8" cx="727.66" cy="546.84" r="4.22"/><circle class="cls-9" cx="712.84" cy="506.66" r="3.59"/><path class="cls-7" d="M689.78,693.88l3.58.06a8.28,8.28,0,0,1,1-1.78q0-5.31-.11-10.62a2.29,2.29,0,0,1-.83-1.41c-.09-1,.64-1.92.9-2.89-.13.33-.17-1-.24-1.2a3.76,3.76,0,0,1,.6-3.84l-.56,0q0-3.1,0-6.19c0-5.22,0-10.45-.05-15.67a2.11,2.11,0,0,1-.13-2.57l0-.05c-.16-.25.28-.7.34-1a5.38,5.38,0,0,0,.11-.92c-.3-.31-.33-.47-.27-.51a1.48,1.48,0,0,1,.08-1.57c-.5-6.17,1.4-12.19-4.93-18.11-2.9.62-2.88,1.48-3.26,2.23-2.5,4.88-2.92,9.81-3.45,14.74-1.55,14.57-2.44,29.14-3.33,43.72-.15,2.51-.62,5-.59,7.52a1.16,1.16,0,0,1,0,.16C682.32,693.9,686,693.82,689.78,693.88Z"/><path class="cls-2" d="M782.93,618.06q0-4.95,0-9.89c0-7.48,0-15,0-22.43a4.48,4.48,0,0,1,.92-2.81c2.84-3.93,5.66-7.89,8.4-11.89.56-.83,1.73-2,.82-2.83s-2,.46-2.71,1.14c-2.4,2.17-4.72,4.44-7.42,7,0-4.88.18-9.38-.05-13.87s-.48-8.86-2.3-13.2a4.73,4.73,0,0,0-1.4,3.29,179.3,179.3,0,0,0-1.61,22.14c-.73,21.44-1.13,42.89-1.54,64.34-.07,3.7-.24,7.4-.29,11.1,0,1.14-.22,1.44-1.41,1a43.19,43.19,0,0,1-14.57-9C750,633.5,743.16,623,740.64,610c-1.84-9.5-.66-18.82,2.07-28a83.29,83.29,0,0,1,21.46-36.38,47.83,47.83,0,0,1,5.94-4.82,15.47,15.47,0,0,1,16.28-1.6c11.07,4.9,19.92,12.56,27.42,21.88,6.13,7.61,10.69,16,12.5,25.74,2.18,11.61-.23,22.51-5.78,32.72-7.39,13.58-17.81,24-32.26,30.09-1.17.49-2.42.81-3.63,1.22s-1.62.18-1.61-1.16q0-10.35-.07-20.7a3.48,3.48,0,0,1,1-2.35c5.36-6.58,11-12.94,16-19.8a27.09,27.09,0,0,0,3.6-6.94c.18-.51.78-1.25,0-1.72-.57-.36-1.1.21-1.51.55-1.52,1.27-3,2.53-4.47,3.9C792.63,607.56,788.08,612.91,782.93,618.06Z"/><circle class="cls-11" cx="808.68" cy="594.8" r="3.19"/><circle class="cls-6" cx="798.87" cy="564.88" r="3.19"/><path class="cls-2" d="M780.09,713.83l2.7.06a7.65,7.65,0,0,1,.72-1.55q0-4.63-.08-9.26a2.08,2.08,0,0,1-.63-1.23,8.94,8.94,0,0,1,.68-2.52c-.1.29-.13-.84-.18-1a3.69,3.69,0,0,1,.45-3.35l-.42,0q0-2.7,0-5.4c0-4.56,0-9.12,0-13.67a2.07,2.07,0,0,1-.1-2.24l0,0c-.12-.22.21-.61.26-.83a5.4,5.4,0,0,0,.08-.8c-.22-.27-.25-.41-.21-.45a1.46,1.46,0,0,1,.06-1.37c-.38-5.38,1.06-10.64-3.72-15.8-2.19.54-2.17,1.29-2.46,1.95-1.89,4.26-2.21,8.56-2.6,12.86-1.17,12.71-1.85,25.42-2.51,38.14-.11,2.19-.47,4.37-.45,6.56a1.17,1.17,0,0,1,0,.14C774.45,713.85,777.24,713.77,780.09,713.83Z"/><path class="cls-7" d="M234.84,577.36q0-5.62,0-11.24c0-8.49,0-17,0-25.47a5.09,5.09,0,0,1,1-3.19c3.23-4.47,6.42-9,9.54-13.5.64-.94,2-2.3.93-3.22s-2.22.52-3.08,1.29c-2.73,2.46-5.36,5-8.42,7.95,0-5.54.21-10.66-.06-15.75s-.54-10.07-2.61-15c-1.3,1.15-1.39,2.48-1.59,3.73-1.32,8.33-1.54,16.74-1.83,25.15-.83,24.35-1.28,48.72-1.75,73.08-.08,4.2-.27,8.41-.33,12.61,0,1.29-.26,1.63-1.6,1.17a49.06,49.06,0,0,1-16.55-10.22c-11.1-9.86-18.84-21.76-21.7-36.52-2.09-10.79-.74-21.38,2.35-31.78,4.7-15.77,12.56-29.72,24.37-41.32a54.32,54.32,0,0,1,6.75-5.47c5.84-4.14,11.93-4.72,18.49-1.82,12.57,5.56,22.62,14.27,31.15,24.86,7,8.64,12.14,18.22,14.2,29.24,2.47,13.18-.26,25.56-6.57,37.16-8.39,15.42-20.23,27.3-36.64,34.18-1.33.56-2.75.92-4.12,1.38s-1.84.21-1.83-1.32q0-11.76-.08-23.51a4,4,0,0,1,1.18-2.67c6.09-7.48,12.5-14.7,18.2-22.49a30.77,30.77,0,0,0,4.09-7.88c.21-.58.89-1.41,0-2-.64-.41-1.24.23-1.72.63-1.72,1.44-3.46,2.87-5.08,4.43C245.86,565.44,240.69,571.52,234.84,577.36Z"/><circle class="cls-9" cx="264.09" cy="550.95" r="3.62"/><circle class="cls-6" cx="252.95" cy="516.97" r="3.62"/><path class="cls-7" d="M231.61,697l3.07.07a10.89,10.89,0,0,1,.82-2q0-6.1-.09-12.21a2.93,2.93,0,0,1-.72-1.62c-.08-1.13.55-2.21.77-3.32-.11.38-.15-1.11-.2-1.38a5.53,5.53,0,0,1,.51-4.41l-.48-.05q0-3.56,0-7.12c0-6,0-12,0-18a3.09,3.09,0,0,1-.11-3l0-.06c-.14-.29.24-.81.29-1.1a8.22,8.22,0,0,0,.09-1.06c-.25-.36-.28-.54-.24-.59a2.2,2.2,0,0,1,.07-1.81c-.43-7.09,1.2-14-4.23-20.82-2.49.71-2.47,1.7-2.8,2.56-2.14,5.61-2.51,11.28-3,16.95-1.33,16.75-2.1,33.51-2.85,50.26-.13,2.88-.53,5.77-.51,8.65a1.78,1.78,0,0,1,0,.19C225.21,697,228.39,696.91,231.61,697Z"/><circle class="cls-6" cx="639.32" cy="625" r="3.95"/><circle class="cls-13" cx="627.18" cy="587.95" r="3.95"/><path class="cls-7" d="M468.81,572.91q0-5.62,0-11.24c0-8.49,0-17,0-25.47a5.09,5.09,0,0,1,1-3.19c3.23-4.47,6.42-9,9.54-13.5.64-.94,2-2.3.93-3.22s-2.22.52-3.08,1.29c-2.73,2.46-5.36,5-8.42,7.95,0-5.54.21-10.66-.06-15.75s-.54-10.07-2.61-15c-1.3,1.15-1.39,2.48-1.59,3.73-1.32,8.33-1.54,16.74-1.83,25.15-.83,24.35-1.28,48.72-1.75,73.08-.08,4.2-.27,8.41-.33,12.61,0,1.29-.26,1.63-1.6,1.17a49.06,49.06,0,0,1-16.55-10.22c-11.1-9.86-18.84-21.76-21.7-36.52C418.7,553,420,542.41,423.14,532c4.7-15.77,12.56-29.72,24.37-41.32a54.32,54.32,0,0,1,6.75-5.47c5.84-4.14,11.93-4.72,18.49-1.82,12.57,5.56,22.62,14.27,31.15,24.86,7,8.64,12.14,18.22,14.2,29.24,2.47,13.18-.26,25.56-6.57,37.16-8.39,15.42-20.23,27.3-36.64,34.18-1.33.56-2.75.92-4.12,1.38s-1.84.21-1.83-1.32q0-11.76-.08-23.51a4,4,0,0,1,1.18-2.67c6.09-7.48,12.5-14.7,18.2-22.49a30.77,30.77,0,0,0,4.09-7.88c.21-.58.89-1.41,0-2-.64-.41-1.24.23-1.72.63-1.72,1.44-3.46,2.87-5.08,4.43C479.83,561,474.66,567.06,468.81,572.91Z"/><circle class="cls-14" cx="498.06" cy="546.49" r="3.62"/><circle class="cls-9" cx="486.92" cy="512.51" r="3.62"/><path class="cls-7" d="M465.58,695.79l3.07.08a11.63,11.63,0,0,1,.82-2.13q0-6.36-.09-12.71a3.11,3.11,0,0,1-.72-1.69c-.08-1.17.55-2.3.77-3.46-.11.4-.15-1.16-.2-1.44a6,6,0,0,1,.51-4.59l-.48-.05q0-3.71,0-7.42c0-6.26,0-12.51,0-18.77a3.34,3.34,0,0,1-.11-3.07l0-.06c-.14-.3.24-.84.29-1.14a8.91,8.91,0,0,0,.09-1.1c-.25-.37-.28-.56-.24-.62a2.38,2.38,0,0,1,.07-1.88c-.43-7.38,1.2-14.6-4.23-21.68-2.49.74-2.47,1.77-2.8,2.67-2.14,5.84-2.51,11.75-3,17.65-1.33,17.45-2.1,34.9-2.85,52.35-.13,3-.53,6-.51,9a1.93,1.93,0,0,1,0,.19C459.18,695.82,462.36,695.72,465.58,695.79Z"/><path class="cls-15" d="M915.84,620.75q0-5,0-9.93c0-7.5,0-15,0-22.5a4.49,4.49,0,0,1,.92-2.82c2.85-3.95,5.68-7.91,8.43-11.93.57-.83,1.74-2,.82-2.84s-2,.46-2.72,1.14c-2.41,2.18-4.73,4.45-7.44,7,0-4.9.18-9.42-.05-13.91s-.48-8.89-2.31-13.24a4.75,4.75,0,0,0-1.4,3.3,179.89,179.89,0,0,0-1.62,22.21c-.73,21.51-1.13,43-1.55,64.56-.07,3.71-.24,7.43-.29,11.14,0,1.14-.23,1.44-1.42,1a43.34,43.34,0,0,1-14.62-9c-9.8-8.71-16.65-19.22-19.17-32.26-1.84-9.53-.66-18.89,2.08-28.07A83.57,83.57,0,0,1,897,548.13a48,48,0,0,1,6-4.83,15.52,15.52,0,0,1,16.33-1.61c11.11,4.92,20,12.6,27.51,22,6.15,7.64,10.72,16.09,12.55,25.83,2.18,11.65-.23,22.58-5.8,32.83-7.41,13.62-17.87,24.11-32.37,30.19-1.18.49-2.43.81-3.64,1.22s-1.62.18-1.62-1.16q0-10.38-.07-20.77a3.49,3.49,0,0,1,1-2.36c5.38-6.6,11-13,16.08-19.87a27.18,27.18,0,0,0,3.61-7c.18-.51.78-1.25,0-1.73-.57-.36-1.1.21-1.52.55-1.52,1.27-3.06,2.54-4.49,3.91C925.57,610.22,921,615.59,915.84,620.75Z"/><circle class="cls-15" cx="941.67" cy="597.42" r="3.2"/><path class="cls-15" d="M913,708.8l2.71,0a6.27,6.27,0,0,1,.72-1.35q0-4-.08-8a1.74,1.74,0,0,1-.63-1.07c-.07-.74.49-1.45.68-2.19-.1.25-.13-.73-.18-.91a2.85,2.85,0,0,1,.45-2.91l-.42,0q0-2.35,0-4.69c0-4,0-7.91,0-11.87a1.6,1.6,0,0,1-.1-1.94l0,0c-.12-.19.21-.53.26-.72a4.08,4.08,0,0,0,.08-.7c-.22-.24-.25-.36-.21-.39a1.12,1.12,0,0,1,.06-1.19c-.38-4.67,1.06-9.24-3.74-13.72-2.2.47-2.18,1.12-2.47,1.69-1.89,3.7-2.21,7.43-2.61,11.17-1.17,11-1.85,22.08-2.52,33.12-.12,1.9-.47,3.8-.45,5.7a.88.88,0,0,1,0,.12C907.33,708.81,910.13,708.75,913,708.8Z"/><path class="cls-15" d="M352.81,587.25q0-6.91,0-13.83c0-10.45,0-20.89,0-31.34a6.26,6.26,0,0,1,1.28-3.93c4-5.5,7.9-11,11.73-16.61.79-1.15,2.42-2.82,1.15-4s-2.73.64-3.78,1.59c-3.36,3-6.59,6.2-10.36,9.78,0-6.82.25-13.11-.07-19.38s-.66-12.38-3.21-18.44c-1.6,1.41-1.71,3.05-2,4.59-1.63,10.25-1.9,20.6-2.25,30.94-1,30-1.58,59.94-2.16,89.91-.1,5.17-.34,10.34-.4,15.51,0,1.59-.31,2-2,1.44-7.75-2.66-14.32-7.22-20.36-12.58-13.65-12.13-23.18-26.77-26.69-44.93-2.57-13.28-.92-26.3,2.89-39.09,5.78-19.4,15.46-36.57,30-50.84a66.83,66.83,0,0,1,8.31-6.73c7.18-5.09,14.67-5.81,22.74-2.24,15.47,6.85,27.83,17.55,38.32,30.58,8.56,10.63,14.93,22.41,17.47,36,3,16.22-.32,31.45-8.08,45.72-10.32,19-24.89,33.58-45.08,42-1.64.69-3.38,1.13-5.07,1.7-1.52.51-2.26.26-2.25-1.62q.06-14.46-.09-28.93a4.86,4.86,0,0,1,1.45-3.29c7.49-9.2,15.38-18.08,22.39-27.67a37.85,37.85,0,0,0,5-9.69c.26-.72,1.09-1.74.05-2.4-.79-.51-1.53.29-2.11.77-2.12,1.77-4.26,3.53-6.25,5.45C366.36,572.59,360,580.07,352.81,587.25Z"/><circle class="cls-16" cx="375.08" cy="512.95" r="4.45"/><path class="cls-15" d="M348.84,709.88l3.77.07a8.73,8.73,0,0,1,1-1.87q0-5.6-.11-11.2a2.42,2.42,0,0,1-.88-1.49c-.09-1,.68-2,.95-3-.13.35-.18-1-.25-1.27-.35-1.34-.55-2.74.63-4l-.59,0q0-3.27,0-6.53c0-5.51,0-11-.05-16.53a2.22,2.22,0,0,1-.14-2.71l0-.06c-.17-.27.3-.74.36-1a5.68,5.68,0,0,0,.11-1c-.31-.33-.35-.5-.29-.54a1.56,1.56,0,0,1,.09-1.66c-.53-6.51,1.48-12.86-5.2-19.1-3.06.65-3,1.56-3.44,2.35-2.64,5.15-3.08,10.35-3.64,15.55-1.64,15.37-2.58,30.75-3.51,46.12-.16,2.65-.65,5.29-.62,7.93a1.22,1.22,0,0,1,0,.17C341,709.9,344.87,709.81,348.84,709.88Z"/><circle class="cls-6" cx="387.23" cy="554.4" r="3.62"/><circle class="cls-9" cx="430" cy="636.39" r="3.62"/><path class="cls-2" d="M539.83,570.47q0-6.91,0-13.83c0-10.45,0-20.89,0-31.34a6.26,6.26,0,0,1,1.28-3.93c4-5.5,7.9-11,11.73-16.61.79-1.15,2.42-2.82,1.15-4s-2.73.64-3.78,1.59c-3.36,3-6.59,6.2-10.36,9.78,0-6.82.25-13.11-.07-19.38s-.66-12.38-3.21-18.44c-1.6,1.41-1.71,3.05-2,4.59-1.63,10.25-1.9,20.6-2.25,30.94-1,30-1.58,59.94-2.16,89.91-.1,5.17-.34,10.34-.4,15.51,0,1.59-.31,2-2,1.44-7.75-2.66-14.32-7.22-20.36-12.58-13.65-12.13-23.18-26.77-26.69-44.93-2.57-13.28-.92-26.3,2.89-39.09,5.78-19.4,15.46-36.57,30-50.84a66.83,66.83,0,0,1,8.31-6.73c7.18-5.09,14.67-5.81,22.74-2.24,15.47,6.85,27.83,17.55,38.32,30.58,8.56,10.63,14.93,22.41,17.47,36,3,16.22-.32,31.45-8.08,45.72-10.32,19-24.89,33.58-45.08,42-1.64.69-3.38,1.13-5.07,1.7-1.52.51-2.26.26-2.25-1.62q.06-14.46-.09-28.93a4.86,4.86,0,0,1,1.45-3.29c7.49-9.2,15.38-18.08,22.39-27.67a37.85,37.85,0,0,0,5-9.69c.26-.72,1.09-1.74.05-2.4-.79-.51-1.53.29-2.11.77-2.12,1.77-4.26,3.53-6.25,5.45C553.39,555.81,547,563.28,539.83,570.47Z"/><circle class="cls-17" cx="562.11" cy="496.17" r="4.45"/><path class="cls-2" d="M535.86,693.1l3.77.07a8.73,8.73,0,0,1,1-1.87q0-5.6-.11-11.2a2.42,2.42,0,0,1-.88-1.49c-.09-1,.68-2,.95-3-.13.35-.18-1-.25-1.27-.35-1.34-.55-2.74.63-4l-.59,0q0-3.27,0-6.53c0-5.51,0-11-.05-16.53a2.22,2.22,0,0,1-.14-2.71l0-.06c-.17-.27.3-.74.36-1a5.68,5.68,0,0,0,.11-1c-.31-.33-.35-.5-.29-.54a1.56,1.56,0,0,1,.09-1.66c-.53-6.51,1.48-12.86-5.2-19.1-3.06.65-3,1.56-3.44,2.35-2.64,5.15-3.08,10.35-3.64,15.55-1.64,15.37-2.58,30.75-3.51,46.12-.16,2.65-.65,5.29-.62,7.93a1.22,1.22,0,0,1,0,.17C528,693.12,531.89,693,535.86,693.1Z"/><circle class="cls-11" cx="573.27" cy="537.58" r="3.62"/><path class="cls-15" d="M607.43,653.8q0-6.13,0-12.25c0-9.26,0-18.52,0-27.78a5.55,5.55,0,0,1,1.14-3.48c3.52-4.87,7-9.77,10.4-14.72.7-1,2.15-2.5,1-3.51s-2.42.57-3.35,1.41c-3,2.69-5.84,5.49-9.18,8.67,0-6,.22-11.62-.06-17.17s-.59-11-2.85-16.34c-1.42,1.25-1.51,2.71-1.73,4.07-1.44,9.08-1.68,18.25-2,27.42-.9,26.56-1.4,53.12-1.91,79.69-.09,4.58-.3,9.17-.36,13.75,0,1.41-.28,1.78-1.75,1.27-6.87-2.36-12.69-6.4-18-11.15-12.1-10.75-20.55-23.72-23.66-39.82-2.27-11.77-.81-23.31,2.56-34.65,5.12-17.2,13.7-32.41,26.57-45.05a59.23,59.23,0,0,1,7.36-6c6.37-4.52,13-5.15,20.16-2,13.71,6.07,24.67,15.56,34,27.1,7.59,9.42,13.23,19.86,15.49,31.88,2.69,14.38-.28,27.87-7.16,40.52-9.15,16.82-22.06,29.76-40,37.27-1.45.61-3,1-4.49,1.51s-2,.23-2-1.44q.05-12.82-.08-25.64a4.3,4.3,0,0,1,1.29-2.91c6.64-8.15,13.63-16,19.84-24.52a33.55,33.55,0,0,0,4.46-8.59c.23-.64,1-1.54,0-2.13-.7-.45-1.36.26-1.87.68-1.88,1.57-3.78,3.13-5.54,4.83C619.45,640.8,613.81,647.43,607.43,653.8Z"/><circle class="cls-6" cx="931.83" cy="567.4" r="3.2"/><circle class="cls-6" cx="623.75" cy="587.74" r="3.2"/><circle class="cls-16" cx="639.57" cy="621.45" r="4.45"/></g><path class="cls-7" d="M452.64,217.3a7.21,7.21,0,0,1,2.73,2.63,7,7,0,0,1,1,3.67,7.09,7.09,0,0,1-1,3.69,7.23,7.23,0,0,1-2.73,2.66,7.88,7.88,0,0,1-7.58,0,7.23,7.23,0,0,1-2.73-2.66,7.08,7.08,0,0,1-1-3.69,7,7,0,0,1,1-3.67,7.24,7.24,0,0,1,2.72-2.63,8,8,0,0,1,7.59,0Zm-6.54,1.53a5.59,5.59,0,0,0-2,2,5.47,5.47,0,0,0,0,5.55,5.64,5.64,0,0,0,2,2,5.39,5.39,0,0,0,2.77.75,5.28,5.28,0,0,0,2.75-.75,5.61,5.61,0,0,0,2-2,5.53,5.53,0,0,0,0-5.55,5.57,5.57,0,0,0-2-2,5.34,5.34,0,0,0-2.75-.74A5.44,5.44,0,0,0,446.11,218.84Z"/><path class="cls-7" d="M467.71,220.59a4.77,4.77,0,0,1,1.84,1.94,6.56,6.56,0,0,1,0,5.69,4.67,4.67,0,0,1-1.82,1.92,5.24,5.24,0,0,1-2.69.68,4.93,4.93,0,0,1-2.41-.57,4.11,4.11,0,0,1-1.63-1.63v6.11h-1.9V220H461v2.15a4.13,4.13,0,0,1,1.62-1.63,4.83,4.83,0,0,1,2.38-.57A5.23,5.23,0,0,1,467.71,220.59Zm-1.2,8.09a3.37,3.37,0,0,0,1.29-1.37,4.21,4.21,0,0,0,.46-2,4.09,4.09,0,0,0-.47-2,3.47,3.47,0,0,0-1.29-1.37,3.55,3.55,0,0,0-1.86-.49,3.6,3.6,0,0,0-1.87.49,3.44,3.44,0,0,0-1.3,1.37,4.39,4.39,0,0,0,0,4,3.46,3.46,0,0,0,1.3,1.36,3.81,3.81,0,0,0,3.74,0Z"/><path class="cls-7" d="M481,221.38a6.07,6.07,0,0,1,1.29,4.12q0,.41,0,.61h-8.54a3.68,3.68,0,0,0,1.21,2.31,3.6,3.6,0,0,0,2.44.86,4.56,4.56,0,0,0,1.79-.35,4.29,4.29,0,0,0,1.44-1l1,1.08a5.46,5.46,0,0,1-1.92,1.33,6.4,6.4,0,0,1-2.49.47,5.74,5.74,0,0,1-2.83-.68,4.8,4.8,0,0,1-1.92-1.93,6.21,6.21,0,0,1,0-5.67,5,5,0,0,1,1.91-1.94,5.51,5.51,0,0,1,2.8-.71A4.76,4.76,0,0,1,481,221.38Zm-.43,3.26a3.13,3.13,0,0,0-3.35-3.17,3.42,3.42,0,0,0-2.38.86,3.6,3.6,0,0,0-1.13,2.31Z"/><path class="cls-7" d="M493.86,221a4.22,4.22,0,0,1,1.08,3.07v6.68H493V224.6a2.89,2.89,0,0,0-.77-2.14,2.86,2.86,0,0,0-2.11-.77,3.26,3.26,0,0,0-2.36.93,3.65,3.65,0,0,0-1,2.36v5.78h-1.9V220h1.9v2.29a4.17,4.17,0,0,1,4.11-2.35A4,4,0,0,1,493.86,221Z"/><path class="cls-7" d="M498.52,216.47h9.93v1.78h-8v4.41h7.13v1.78h-7.13V229h8.21v1.78H498.52Z"/><path class="cls-7" d="M521.41,217.42a3.11,3.11,0,0,1,1.26,2.63,3.17,3.17,0,0,1-.69,2.07,3.38,3.38,0,0,1-1.9,1.13,3.72,3.72,0,0,1,2.34,1.2,3.55,3.55,0,0,1,.85,2.42,3.38,3.38,0,0,1-1.38,2.87,6.23,6.23,0,0,1-3.81,1h-6.21v-14.3H518A5.58,5.58,0,0,1,521.41,217.42ZM519.92,222a1.91,1.91,0,0,0,.73-1.6,1.86,1.86,0,0,0-.73-1.57,3.25,3.25,0,0,0-2.05-.53h-4v4.27h4A3.28,3.28,0,0,0,519.92,222Zm.44,6.4a2,2,0,0,0,.9-1.75,1.94,1.94,0,0,0-.9-1.7,4.38,4.38,0,0,0-2.49-.61h-4V229h4A4.23,4.23,0,0,0,520.36,228.37Z"/><path class="cls-7" d="M532.69,218.5a7,7,0,0,0-2-.32,3.64,3.64,0,0,0-2,.48A1.49,1.49,0,0,0,528,220a1.73,1.73,0,0,0,.45,1.24,3.17,3.17,0,0,0,1.1.76q.65.28,1.82.64a20.58,20.58,0,0,1,2.35.86,4.08,4.08,0,0,1,1.53,1.22,3.36,3.36,0,0,1,.63,2.14,3.57,3.57,0,0,1-.66,2.15,4.25,4.25,0,0,1-1.86,1.42,7.06,7.06,0,0,1-2.75.5,8,8,0,0,1-3.07-.61,8.31,8.31,0,0,1-2.57-1.63l.88-1.7a7.37,7.37,0,0,0,2.3,1.54,6.33,6.33,0,0,0,2.48.54,4,4,0,0,0,2.26-.56,1.75,1.75,0,0,0,.83-1.52,1.77,1.77,0,0,0-.45-1.25,3.18,3.18,0,0,0-1.13-.78,19.44,19.44,0,0,0-1.85-.63,18.83,18.83,0,0,1-2.33-.84,4,4,0,0,1-1.52-1.21,3.32,3.32,0,0,1-.62-2.1,3.37,3.37,0,0,1,.63-2,4,4,0,0,1,1.78-1.35,7,7,0,0,1,2.66-.47,8.58,8.58,0,0,1,2.52.38,8.48,8.48,0,0,1,2.2,1l-.82,1.76A8.24,8.24,0,0,0,532.69,218.5Z"/><path class="cls-7" d="M552.86,220.59a4.77,4.77,0,0,1,1.84,1.94,6.56,6.56,0,0,1,0,5.69,4.67,4.67,0,0,1-1.82,1.92,5.24,5.24,0,0,1-2.69.68,4.93,4.93,0,0,1-2.41-.57,4.11,4.11,0,0,1-1.63-1.63v6.11h-1.9V220h1.9v2.15a4.13,4.13,0,0,1,1.62-1.63,4.83,4.83,0,0,1,2.38-.57A5.23,5.23,0,0,1,552.86,220.59Zm-1.2,8.09a3.37,3.37,0,0,0,1.29-1.37,4.21,4.21,0,0,0,.46-2,4.09,4.09,0,0,0-.47-2,3.47,3.47,0,0,0-1.29-1.37,3.55,3.55,0,0,0-1.86-.49,3.6,3.6,0,0,0-1.87.49,3.44,3.44,0,0,0-1.3,1.37,4.39,4.39,0,0,0,0,4,3.46,3.46,0,0,0,1.3,1.36,3.81,3.81,0,0,0,3.74,0Z"/><path class="cls-7" d="M561.42,220.52a4.49,4.49,0,0,1,2.33-.62v1.84a3.47,3.47,0,0,0-3.84,3.33v5.7H558V220h1.9v2.33A3.9,3.9,0,0,1,561.42,220.52Z"/><path class="cls-7" d="M573.18,220.59a5,5,0,0,1,2,1.93,6.05,6.05,0,0,1,0,5.67,5,5,0,0,1-2,1.94,6.32,6.32,0,0,1-5.76,0,5,5,0,0,1-2-1.93,6.08,6.08,0,0,1,0-5.68,5,5,0,0,1,2-1.93,6.32,6.32,0,0,1,5.76,0ZM568.42,222a3.39,3.39,0,0,0-1.29,1.36,4.15,4.15,0,0,0-.46,2,4.25,4.25,0,0,0,.46,2,3.3,3.3,0,0,0,1.29,1.36,3.69,3.69,0,0,0,1.89.48,3.65,3.65,0,0,0,1.87-.48,3.3,3.3,0,0,0,1.29-1.36,4.25,4.25,0,0,0,.46-2,4.15,4.15,0,0,0-.46-2,3.38,3.38,0,0,0-1.29-1.36,3.59,3.59,0,0,0-1.87-.49A3.63,3.63,0,0,0,568.42,222Z"/><path class="cls-7" d="M576.87,233.18a1.34,1.34,0,0,0,1.19-.53,2.69,2.69,0,0,0,.41-1.61V220h1.92V231.3a3.77,3.77,0,0,1-.81,2.58,2.89,2.89,0,0,1-2.28.91,5.08,5.08,0,0,1-1.86-.37l.45-1.45A3.7,3.7,0,0,0,576.87,233.18ZM580.25,216a1.31,1.31,0,0,1,0,1.76,1.21,1.21,0,0,1-1.7,0,1.31,1.31,0,0,1,0-1.76,1.21,1.21,0,0,1,1.7,0Z"/><path class="cls-7" d="M592,221.38a6.07,6.07,0,0,1,1.29,4.12q0,.41,0,.61h-8.54a3.68,3.68,0,0,0,1.21,2.31,3.6,3.6,0,0,0,2.44.86,4.56,4.56,0,0,0,1.79-.35,4.29,4.29,0,0,0,1.44-1l1,1.08a5.46,5.46,0,0,1-1.92,1.33,6.4,6.4,0,0,1-2.49.47,5.74,5.74,0,0,1-2.83-.68,4.8,4.8,0,0,1-1.92-1.93,6.21,6.21,0,0,1,0-5.67,5,5,0,0,1,1.91-1.94,5.51,5.51,0,0,1,2.8-.71A4.76,4.76,0,0,1,592,221.38Zm-.43,3.26a3.13,3.13,0,0,0-3.35-3.17,3.42,3.42,0,0,0-2.38.86,3.6,3.6,0,0,0-1.13,2.31Z"/><path class="cls-7" d="M600.38,221.6a3.76,3.76,0,0,0-1.89.47,3.34,3.34,0,0,0-1.3,1.33,4.06,4.06,0,0,0-.47,2,4.13,4.13,0,0,0,.46,2,3.36,3.36,0,0,0,1.27,1.34,3.54,3.54,0,0,0,1.85.48,4.86,4.86,0,0,0,1.88-.35,3.57,3.57,0,0,0,1.39-1l1.08,1.1a4.77,4.77,0,0,1-1.87,1.41,6.4,6.4,0,0,1-2.56.49,5.57,5.57,0,0,1-2.8-.69,4.91,4.91,0,0,1-1.91-1.93,5.74,5.74,0,0,1-.68-2.83,5.8,5.8,0,0,1,.68-2.84,4.9,4.9,0,0,1,1.91-1.94,5.58,5.58,0,0,1,2.8-.69,6.85,6.85,0,0,1,2.46.42,4.77,4.77,0,0,1,1.83,1.22l-1,1.31A4.28,4.28,0,0,0,600.38,221.6Z"/><path class="cls-7" d="M613.17,230.05a4.66,4.66,0,0,1-2.53.8,2.88,2.88,0,0,1-2.08-.77,3.08,3.08,0,0,1-.8-2.32v-6h-1.53v-1.45h1.53v-2.9h1.92v2.9H613v1.45h-3.31v5.64a2,2,0,0,0,.33,1.29,1.21,1.21,0,0,0,1,.39,3.42,3.42,0,0,0,1.67-.51Z"/><path class="cls-7" d="M622.62,216a1.31,1.31,0,0,1,0,1.76,1.21,1.21,0,0,1-1.7,0,1.31,1.31,0,0,1,0-1.76,1.21,1.21,0,0,1,1.7,0Zm-1.79,4h1.9v10.81h-1.9Z"/><path class="cls-7" d="M630.86,221.7a5.31,5.31,0,0,0-1.54-.25,2.63,2.63,0,0,0-1.38.32,1.06,1.06,0,0,0-.52,1,1.08,1.08,0,0,0,.58,1,8.48,8.48,0,0,0,1.77.68,13.86,13.86,0,0,1,1.84.65,3.27,3.27,0,0,1,1.22,1,3,3,0,0,1-.65,4,4.93,4.93,0,0,1-2.87.8,7.17,7.17,0,0,1-2.34-.39,5.31,5.31,0,0,1-1.91-1.1l.72-1.39a5,5,0,0,0,1.67,1,5.53,5.53,0,0,0,1.93.37,2.89,2.89,0,0,0,1.51-.35,1.16,1.16,0,0,0,.57-1.06,1.21,1.21,0,0,0-.6-1.1A8.19,8.19,0,0,0,629,226a12.29,12.29,0,0,1-1.77-.62,3.13,3.13,0,0,1-1.16-.93,2.51,2.51,0,0,1-.48-1.59,2.57,2.57,0,0,1,1.1-2.27,4.77,4.77,0,0,1,2.76-.76,6.9,6.9,0,0,1,1.93.28,5.79,5.79,0,0,1,1.64.75l-.69,1.45A6.5,6.5,0,0,0,630.86,221.7Z"/><path class="cls-7" d="M641.29,215.61h1.9v15.16h-1.9Z"/><path class="cls-7" d="M654.37,220.59a5,5,0,0,1,2,1.93,6.05,6.05,0,0,1,0,5.67,5,5,0,0,1-2,1.94,6.32,6.32,0,0,1-5.76,0,5,5,0,0,1-2-1.93,6.08,6.08,0,0,1,0-5.68,5,5,0,0,1,2-1.93,6.32,6.32,0,0,1,5.76,0ZM649.61,222a3.39,3.39,0,0,0-1.29,1.36,4.15,4.15,0,0,0-.46,2,4.25,4.25,0,0,0,.46,2,3.3,3.3,0,0,0,1.29,1.36,3.69,3.69,0,0,0,1.89.48,3.65,3.65,0,0,0,1.87-.48,3.3,3.3,0,0,0,1.29-1.36,4.25,4.25,0,0,0,.46-2,4.15,4.15,0,0,0-.46-2,3.38,3.38,0,0,0-1.29-1.36,3.59,3.59,0,0,0-1.87-.49A3.63,3.63,0,0,0,649.61,222Z"/><path class="cls-7" d="M667.06,220.59a5,5,0,0,1,2,1.93,6.05,6.05,0,0,1,0,5.67,5,5,0,0,1-2,1.94,6.32,6.32,0,0,1-5.76,0,5,5,0,0,1-2-1.93,6.07,6.07,0,0,1,0-5.68,5,5,0,0,1,2-1.93,6.32,6.32,0,0,1,5.76,0ZM662.3,222A3.4,3.4,0,0,0,661,223.4a4.16,4.16,0,0,0-.46,2,4.26,4.26,0,0,0,.46,2,3.31,3.31,0,0,0,1.29,1.36,3.7,3.7,0,0,0,1.89.48,3.65,3.65,0,0,0,1.87-.48,3.3,3.3,0,0,0,1.29-1.36,4.25,4.25,0,0,0,.46-2,4.15,4.15,0,0,0-.46-2,3.39,3.39,0,0,0-1.29-1.36,3.59,3.59,0,0,0-1.87-.49A3.63,3.63,0,0,0,662.3,222Z"/><path class="cls-7" d="M679.94,230.77l-3.45-5.25-2.1,2.19v3.06h-1.9V215.61h1.9v9.66l5.23-5.31h2.23l-4,4.19,4.41,6.62Z"/><path class="cls-7" d="M686.06,216a1.31,1.31,0,0,1,0,1.76,1.21,1.21,0,0,1-1.7,0,1.31,1.31,0,0,1,0-1.76,1.21,1.21,0,0,1,1.7,0Zm-1.79,4h1.9v10.81h-1.9Z"/><path class="cls-7" d="M698.86,221a4.22,4.22,0,0,1,1.08,3.07v6.68H698V224.6a2.65,2.65,0,0,0-2.88-2.9,3.27,3.27,0,0,0-2.36.93,3.65,3.65,0,0,0-1,2.36v5.78h-1.9V220h1.9v2.29a4.17,4.17,0,0,1,4.11-2.35A4,4,0,0,1,698.86,221Z"/><path class="cls-7" d="M712.89,220v9.7a5.26,5.26,0,0,1-.68,2.72,4.55,4.55,0,0,1-1.93,1.79,6.41,6.41,0,0,1-2.9.62,7.39,7.39,0,0,1-4.45-1.51l.84-1.39a5.77,5.77,0,0,0,1.65,1,5.4,5.4,0,0,0,1.88.32,3.76,3.76,0,0,0,2.68-.94,3.29,3.29,0,0,0,1-2.51v-1.51a4,4,0,0,1-1.55,1.52,4.58,4.58,0,0,1-2.25.54,4.91,4.91,0,0,1-2.56-.66,4.53,4.53,0,0,1-1.73-1.85,5.83,5.83,0,0,1-.61-2.72,5.67,5.67,0,0,1,.61-2.68,4.49,4.49,0,0,1,1.73-1.82,5,5,0,0,1,2.56-.65,4.63,4.63,0,0,1,2.26.53,4,4,0,0,1,1.54,1.51v-2Zm-3.58,8.31a3.28,3.28,0,0,0,1.22-1.3,3.92,3.92,0,0,0,.44-1.87,4,4,0,0,0-.44-1.89,3.29,3.29,0,0,0-1.22-1.3,3.36,3.36,0,0,0-1.78-.47,3.41,3.41,0,0,0-1.79.47,3.34,3.34,0,0,0-1.24,1.3,3.89,3.89,0,0,0-.45,1.89,3.73,3.73,0,0,0,1,2.62,3.26,3.26,0,0,0,2.49,1A3.36,3.36,0,0,0,709.32,228.28Z"/><path class="cls-7" d="M724.48,217.63a1.66,1.66,0,0,0-.49,1.29v1.41h3v1.45h-3v9h-1.9v-9h-1.41v-1.45h1.41v-1.16a3.82,3.82,0,0,1,.5-2,3.26,3.26,0,0,1,1.32-1.25,3.8,3.8,0,0,1,1.76-.42,4.2,4.2,0,0,1,1.88.49l-.45,1.55a3.26,3.26,0,0,0-1.39-.35A1.75,1.75,0,0,0,724.48,217.63Z"/><path class="cls-7" d="M735.87,220.59a5,5,0,0,1,2,1.93,6.05,6.05,0,0,1,0,5.67,5,5,0,0,1-2,1.94,6.32,6.32,0,0,1-5.76,0,5,5,0,0,1-2-1.93,6.07,6.07,0,0,1,0-5.68,5,5,0,0,1,2-1.93,6.32,6.32,0,0,1,5.76,0ZM731.1,222a3.39,3.39,0,0,0-1.29,1.36,4.15,4.15,0,0,0-.46,2,4.25,4.25,0,0,0,.46,2,3.3,3.3,0,0,0,1.29,1.36,3.69,3.69,0,0,0,1.89.48,3.65,3.65,0,0,0,1.87-.48,3.31,3.31,0,0,0,1.29-1.36,4.26,4.26,0,0,0,.46-2,4.16,4.16,0,0,0-.46-2,3.4,3.4,0,0,0-1.29-1.36,3.6,3.6,0,0,0-1.87-.49A3.63,3.63,0,0,0,731.1,222Z"/><path class="cls-7" d="M744.6,220.52a4.49,4.49,0,0,1,2.33-.62v1.84a3.48,3.48,0,0,0-3.84,3.33v5.7h-1.9V220h1.9v2.33A3.91,3.91,0,0,1,744.6,220.52Z"/><path class="cls-7" d="M758.84,221.6a3.76,3.76,0,0,0-1.89.47,3.33,3.33,0,0,0-1.3,1.33,4.06,4.06,0,0,0-.47,2,4.13,4.13,0,0,0,.46,2,3.38,3.38,0,0,0,1.27,1.34,3.55,3.55,0,0,0,1.85.48,4.86,4.86,0,0,0,1.88-.35,3.58,3.58,0,0,0,1.39-1l1.08,1.1a4.77,4.77,0,0,1-1.87,1.41,6.4,6.4,0,0,1-2.56.49,5.57,5.57,0,0,1-2.8-.69A4.91,4.91,0,0,1,754,228.2a5.73,5.73,0,0,1-.68-2.83,5.79,5.79,0,0,1,.68-2.84,4.9,4.9,0,0,1,1.91-1.94,5.58,5.58,0,0,1,2.8-.69,6.85,6.85,0,0,1,2.46.42,4.76,4.76,0,0,1,1.83,1.22l-1,1.31A4.28,4.28,0,0,0,758.84,221.6Z"/><path class="cls-7" d="M772.72,220.59a5,5,0,0,1,2,1.93,6.05,6.05,0,0,1,0,5.67,5,5,0,0,1-2,1.94,6.32,6.32,0,0,1-5.76,0,5,5,0,0,1-2-1.93,6.07,6.07,0,0,1,0-5.68,5,5,0,0,1,2-1.93,6.32,6.32,0,0,1,5.76,0ZM768,222a3.39,3.39,0,0,0-1.29,1.36,4.15,4.15,0,0,0-.46,2,4.25,4.25,0,0,0,.46,2,3.3,3.3,0,0,0,1.29,1.36,3.69,3.69,0,0,0,1.89.48,3.65,3.65,0,0,0,1.87-.48,3.31,3.31,0,0,0,1.29-1.36,4.26,4.26,0,0,0,.46-2,4.16,4.16,0,0,0-.46-2,3.4,3.4,0,0,0-1.29-1.36,3.6,3.6,0,0,0-1.87-.49A3.63,3.63,0,0,0,768,222Z"/><path class="cls-7" d="M787,221a4.22,4.22,0,0,1,1.08,3.07v6.68h-1.9V224.6a2.65,2.65,0,0,0-2.88-2.9,3.26,3.26,0,0,0-2.36.93,3.65,3.65,0,0,0-1,2.36v5.78H778V220h1.9v2.29A4.17,4.17,0,0,1,784,219.9,4,4,0,0,1,787,221Z"/><path class="cls-7" d="M797.31,230.05a4.66,4.66,0,0,1-2.53.8,2.88,2.88,0,0,1-2.08-.77,3.08,3.08,0,0,1-.8-2.32v-6h-1.53v-1.45h1.53v-2.9h1.92v2.9h3.31v1.45h-3.31v5.64a2,2,0,0,0,.33,1.29,1.21,1.21,0,0,0,1,.39,3.42,3.42,0,0,0,1.67-.51Z"/><path class="cls-7" d="M803,220.52a4.49,4.49,0,0,1,2.33-.62v1.84a3.48,3.48,0,0,0-3.84,3.33v5.7h-1.9V220h1.9v2.33A3.91,3.91,0,0,1,803,220.52Z"/><path class="cls-7" d="M809.21,216a1.31,1.31,0,0,1,0,1.76,1.21,1.21,0,0,1-1.7,0,1.31,1.31,0,0,1,0-1.76,1.21,1.21,0,0,1,1.7,0Zm-1.79,4h1.9v10.81h-1.9Z"/><path class="cls-7" d="M821.72,220.59a4.78,4.78,0,0,1,1.84,1.94,6.57,6.57,0,0,1,0,5.69,4.66,4.66,0,0,1-1.82,1.92,5.24,5.24,0,0,1-2.69.68,4.93,4.93,0,0,1-2.41-.57,4.1,4.1,0,0,1-1.63-1.63v2.15h-1.9V215.61H815v6.5a4.12,4.12,0,0,1,1.62-1.63,4.83,4.83,0,0,1,2.38-.57A5.24,5.24,0,0,1,821.72,220.59Zm-1.2,8.09a3.37,3.37,0,0,0,1.29-1.37,4.21,4.21,0,0,0,.46-2,4.1,4.1,0,0,0-.47-2,3.47,3.47,0,0,0-1.29-1.37,3.55,3.55,0,0,0-1.86-.49,3.6,3.6,0,0,0-1.87.49,3.44,3.44,0,0,0-1.3,1.37,4.39,4.39,0,0,0,0,4,3.46,3.46,0,0,0,1.3,1.36,3.81,3.81,0,0,0,3.74,0Z"/><path class="cls-7" d="M836.43,220v10.81h-1.92v-2.29a4.06,4.06,0,0,1-4,2.35,3.87,3.87,0,0,1-2.94-1.11,4.27,4.27,0,0,1-1.06-3.07V220h1.92v6.17a2.93,2.93,0,0,0,.75,2.13,2.73,2.73,0,0,0,2.05.77,3,3,0,0,0,2.4-1.07,4,4,0,0,0,.89-2.69V220Z"/><path class="cls-7" d="M845.93,230.05a4.66,4.66,0,0,1-2.53.8,2.88,2.88,0,0,1-2.08-.77,3.08,3.08,0,0,1-.8-2.32v-6H839v-1.45h1.53v-2.9h1.92v2.9h3.31v1.45h-3.31v5.64a2,2,0,0,0,.33,1.29,1.21,1.21,0,0,0,1,.39,3.42,3.42,0,0,0,1.67-.51Z"/><path class="cls-7" d="M850,216a1.31,1.31,0,0,1,0,1.76,1.21,1.21,0,0,1-1.7,0,1.31,1.31,0,0,1,0-1.76,1.21,1.21,0,0,1,1.7,0Zm-1.79,4h1.9v10.81h-1.9Z"/><path class="cls-7" d="M861.2,220.59a5,5,0,0,1,2,1.93,6.05,6.05,0,0,1,0,5.67,5,5,0,0,1-2,1.94,6.32,6.32,0,0,1-5.76,0,5,5,0,0,1-2-1.93,6.07,6.07,0,0,1,0-5.68,5,5,0,0,1,2-1.93,6.32,6.32,0,0,1,5.76,0ZM856.44,222a3.39,3.39,0,0,0-1.29,1.36,4.15,4.15,0,0,0-.46,2,4.25,4.25,0,0,0,.46,2,3.3,3.3,0,0,0,1.29,1.36,3.69,3.69,0,0,0,1.89.48,3.65,3.65,0,0,0,1.87-.48,3.31,3.31,0,0,0,1.29-1.36,4.26,4.26,0,0,0,.46-2,4.16,4.16,0,0,0-.46-2A3.4,3.4,0,0,0,860.2,222a3.6,3.6,0,0,0-1.87-.49A3.63,3.63,0,0,0,856.44,222Z"/><path class="cls-7" d="M875.51,221a4.22,4.22,0,0,1,1.08,3.07v6.68h-1.9V224.6a2.65,2.65,0,0,0-2.88-2.9,3.26,3.26,0,0,0-2.36.93,3.65,3.65,0,0,0-1,2.36v5.78h-1.9V220h1.9v2.29a4.17,4.17,0,0,1,4.11-2.35A4,4,0,0,1,875.51,221Z"/><path class="cls-7" d="M884.41,221.7a5.31,5.31,0,0,0-1.54-.25,2.64,2.64,0,0,0-1.38.32,1.06,1.06,0,0,0-.52,1,1.08,1.08,0,0,0,.58,1,8.48,8.48,0,0,0,1.77.68,13.91,13.91,0,0,1,1.84.65,3.27,3.27,0,0,1,1.22,1,3,3,0,0,1-.65,4,4.93,4.93,0,0,1-2.87.8,7.18,7.18,0,0,1-2.34-.39,5.32,5.32,0,0,1-1.91-1.1l.71-1.39a5.07,5.07,0,0,0,1.67,1,5.54,5.54,0,0,0,1.93.37,2.89,2.89,0,0,0,1.51-.35,1.16,1.16,0,0,0,.57-1.06,1.21,1.21,0,0,0-.6-1.1,8.19,8.19,0,0,0-1.83-.74,12.2,12.2,0,0,1-1.77-.62,3.13,3.13,0,0,1-1.16-.93,2.51,2.51,0,0,1-.48-1.59,2.57,2.57,0,0,1,1.1-2.27,4.77,4.77,0,0,1,2.76-.76,6.9,6.9,0,0,1,1.93.28,5.79,5.79,0,0,1,1.64.75l-.69,1.45A6.5,6.5,0,0,0,884.41,221.7Z"/><path class="cls-7" d="M896,228.93a1.16,1.16,0,0,1,.32.84,1.19,1.19,0,0,1-.32.85,1,1,0,0,1-.79.34,1.07,1.07,0,0,1-.8-.34,1.17,1.17,0,0,1-.33-.85,1.14,1.14,0,0,1,.33-.84,1.08,1.08,0,0,1,.8-.33A1,1,0,0,1,896,228.93Zm-1.71-12.26h1.84v3.49l-.31,6.21H894.6l-.29-6.21Z"/><path class="cls-7" d="M433.75,241h2l-4.84,14.3h-2l-3.7-11.81-3.76,11.81h-2L414.6,241h2.1l3.78,12.2,3.76-12.2h2l3.78,12.2Z"/><path class="cls-7" d="M444.82,245.9a6.07,6.07,0,0,1,1.29,4.12q0,.41,0,.61h-8.54a3.68,3.68,0,0,0,1.22,2.31,3.6,3.6,0,0,0,2.44.86,4.57,4.57,0,0,0,1.79-.35,4.29,4.29,0,0,0,1.44-1l1,1.08a5.44,5.44,0,0,1-1.92,1.33,6.4,6.4,0,0,1-2.49.47,5.74,5.74,0,0,1-2.83-.68,4.8,4.8,0,0,1-1.92-1.93,6.21,6.21,0,0,1,0-5.67,5,5,0,0,1,1.91-1.94,5.51,5.51,0,0,1,2.8-.71A4.76,4.76,0,0,1,444.82,245.9Zm-.43,3.26A3.13,3.13,0,0,0,441,246a3.42,3.42,0,0,0-2.38.86,3.61,3.61,0,0,0-1.13,2.31Z"/><path class="cls-7" d="M460.65,255.29v-1.51a4.43,4.43,0,0,1-3.78,1.59,4.32,4.32,0,0,1-2-.43,3.16,3.16,0,0,1-1.31-1.19,3.21,3.21,0,0,1-.46-1.7,2.78,2.78,0,0,1,1.07-2.3,4.8,4.8,0,0,1,3-.87h3.43v-.51a2.24,2.24,0,0,0-.71-1.77,3,3,0,0,0-2.05-.62,5.88,5.88,0,0,0-3.33,1.16l-.8-1.31a9.91,9.91,0,0,1,2.16-1.09,7.35,7.35,0,0,1,2.36-.34,4.52,4.52,0,0,1,3.13,1,3.59,3.59,0,0,1,1.12,2.77l0,7.11Zm-1.13-2.13a2.54,2.54,0,0,0,1.11-1.71v-1.08h-3.17a3.7,3.7,0,0,0-1.91.39,1.34,1.34,0,0,0-.62,1.23,1.59,1.59,0,0,0,.63,1.33,2.7,2.7,0,0,0,1.7.49A3.87,3.87,0,0,0,459.52,253.15Z"/><path class="cls-7" d="M469.33,245a4.5,4.5,0,0,1,2.33-.62v1.84a3.48,3.48,0,0,0-3.84,3.33v5.7h-1.9V244.48h1.9v2.33A3.92,3.92,0,0,1,469.33,245Z"/><path class="cls-7" d="M481.86,245.9a6.07,6.07,0,0,1,1.29,4.12q0,.41,0,.61h-8.54a3.68,3.68,0,0,0,1.21,2.31,3.6,3.6,0,0,0,2.44.86,4.56,4.56,0,0,0,1.79-.35,4.29,4.29,0,0,0,1.44-1l1,1.08a5.46,5.46,0,0,1-1.92,1.33,6.4,6.4,0,0,1-2.49.47,5.74,5.74,0,0,1-2.83-.68,4.8,4.8,0,0,1-1.92-1.93,6.21,6.21,0,0,1,0-5.67,5,5,0,0,1,1.91-1.94,5.51,5.51,0,0,1,2.8-.71A4.76,4.76,0,0,1,481.86,245.9Zm-.43,3.26a3.13,3.13,0,0,0-3.35-3.17,3.42,3.42,0,0,0-2.38.86,3.6,3.6,0,0,0-1.13,2.31Z"/><path class="cls-7" d="M495.59,246.11a3.76,3.76,0,0,0-1.89.47,3.34,3.34,0,0,0-1.3,1.33,4.06,4.06,0,0,0-.47,2,4.13,4.13,0,0,0,.46,2,3.38,3.38,0,0,0,1.27,1.34,3.54,3.54,0,0,0,1.85.48,4.86,4.86,0,0,0,1.88-.35,3.58,3.58,0,0,0,1.39-1l1.08,1.1a4.78,4.78,0,0,1-1.87,1.41,6.39,6.39,0,0,1-2.56.49,5.57,5.57,0,0,1-2.8-.69,4.91,4.91,0,0,1-1.91-1.93,5.73,5.73,0,0,1-.68-2.83,5.79,5.79,0,0,1,.68-2.84,4.9,4.9,0,0,1,1.91-1.94,5.58,5.58,0,0,1,2.8-.69,6.85,6.85,0,0,1,2.46.42,4.76,4.76,0,0,1,1.83,1.22l-1,1.31A4.28,4.28,0,0,0,495.59,246.11Z"/><path class="cls-7" d="M510.24,245.9a6.07,6.07,0,0,1,1.29,4.12q0,.41,0,.61H503a3.68,3.68,0,0,0,1.21,2.31,3.6,3.6,0,0,0,2.44.86,4.56,4.56,0,0,0,1.79-.35,4.29,4.29,0,0,0,1.44-1l1,1.08a5.46,5.46,0,0,1-1.92,1.33,6.4,6.4,0,0,1-2.49.47,5.74,5.74,0,0,1-2.83-.68,4.8,4.8,0,0,1-1.92-1.93,6.21,6.21,0,0,1,0-5.67,5,5,0,0,1,1.91-1.94,5.51,5.51,0,0,1,2.8-.71A4.76,4.76,0,0,1,510.24,245.9Zm-.43,3.26a3.13,3.13,0,0,0-3.35-3.17,3.42,3.42,0,0,0-2.38.86,3.6,3.6,0,0,0-1.13,2.31Z"/><path class="cls-7" d="M514.22,240.13h1.9v15.16h-1.9Z"/><path class="cls-7" d="M528.07,245.9a6.07,6.07,0,0,1,1.29,4.12q0,.41,0,.61H520.8a3.68,3.68,0,0,0,1.22,2.31,3.6,3.6,0,0,0,2.44.86,4.57,4.57,0,0,0,1.79-.35,4.29,4.29,0,0,0,1.44-1l1,1.08a5.44,5.44,0,0,1-1.92,1.33,6.4,6.4,0,0,1-2.49.47,5.74,5.74,0,0,1-2.83-.68,4.8,4.8,0,0,1-1.92-1.93,6.21,6.21,0,0,1,0-5.67,5,5,0,0,1,1.91-1.94,5.51,5.51,0,0,1,2.8-.71A4.76,4.76,0,0,1,528.07,245.9Zm-.43,3.26a3.13,3.13,0,0,0-3.35-3.17,3.42,3.42,0,0,0-2.38.86,3.61,3.61,0,0,0-1.13,2.31Z"/><path class="cls-7" d="M540.66,245.11a4.78,4.78,0,0,1,1.84,1.94,6.57,6.57,0,0,1,0,5.69,4.66,4.66,0,0,1-1.82,1.92,5.24,5.24,0,0,1-2.69.68,4.93,4.93,0,0,1-2.41-.57,4.1,4.1,0,0,1-1.63-1.63v2.15h-1.9V240.13H534v6.5a4.12,4.12,0,0,1,1.62-1.63,4.83,4.83,0,0,1,2.38-.57A5.24,5.24,0,0,1,540.66,245.11Zm-1.2,8.09a3.37,3.37,0,0,0,1.29-1.37,4.21,4.21,0,0,0,.46-2,4.09,4.09,0,0,0-.47-2,3.47,3.47,0,0,0-1.29-1.37,3.54,3.54,0,0,0-1.86-.49,3.6,3.6,0,0,0-1.87.49,3.45,3.45,0,0,0-1.3,1.37,4.39,4.39,0,0,0,0,4,3.46,3.46,0,0,0,1.3,1.36,3.81,3.81,0,0,0,3.74,0Z"/><path class="cls-7" d="M549.22,245a4.49,4.49,0,0,1,2.33-.62v1.84a3.47,3.47,0,0,0-3.84,3.33v5.7h-1.9V244.48h1.9v2.33A3.9,3.9,0,0,1,549.22,245Z"/><path class="cls-7" d="M559.74,255.29v-1.51a4.43,4.43,0,0,1-3.78,1.59,4.32,4.32,0,0,1-2-.43,3.16,3.16,0,0,1-1.31-1.19,3.21,3.21,0,0,1-.46-1.7,2.78,2.78,0,0,1,1.07-2.3,4.8,4.8,0,0,1,3-.87h3.43v-.51a2.24,2.24,0,0,0-.71-1.77A3,3,0,0,0,557,246a5.88,5.88,0,0,0-3.33,1.16l-.8-1.31a9.91,9.91,0,0,1,2.16-1.09,7.35,7.35,0,0,1,2.36-.34,4.52,4.52,0,0,1,3.13,1,3.59,3.59,0,0,1,1.12,2.77l0,7.11Zm-1.13-2.13a2.54,2.54,0,0,0,1.11-1.71v-1.08h-3.17a3.7,3.7,0,0,0-1.91.39A1.34,1.34,0,0,0,554,252a1.59,1.59,0,0,0,.63,1.33,2.7,2.7,0,0,0,1.7.49A3.87,3.87,0,0,0,558.6,253.15Z"/><path class="cls-7" d="M570.81,254.57a4.66,4.66,0,0,1-2.53.8,2.88,2.88,0,0,1-2.08-.77,3.08,3.08,0,0,1-.8-2.32v-6h-1.53v-1.45h1.53v-2.9h1.92v2.9h3.31v1.45h-3.31v5.64a2,2,0,0,0,.33,1.29,1.21,1.21,0,0,0,1,.39,3.42,3.42,0,0,0,1.68-.51Z"/><path class="cls-7" d="M574.91,240.51a1.31,1.31,0,0,1,0,1.76,1.21,1.21,0,0,1-1.7,0,1.31,1.31,0,0,1,0-1.76,1.21,1.21,0,0,1,1.7,0Zm-1.79,4H575v10.81h-1.9Z"/><path class="cls-7" d="M587.71,245.53a4.22,4.22,0,0,1,1.08,3.07v6.68h-1.9v-6.17a2.89,2.89,0,0,0-.77-2.14,2.86,2.86,0,0,0-2.11-.77,3.26,3.26,0,0,0-2.36.93,3.65,3.65,0,0,0-1,2.36v5.78h-1.9V244.48h1.9v2.29a4.17,4.17,0,0,1,4.11-2.35A4,4,0,0,1,587.71,245.53Z"/><path class="cls-7" d="M601.74,244.48v9.7a5.26,5.26,0,0,1-.68,2.72,4.54,4.54,0,0,1-1.93,1.79,6.41,6.41,0,0,1-2.9.62,7.39,7.39,0,0,1-4.45-1.51l.84-1.39a5.76,5.76,0,0,0,1.66,1,5.39,5.39,0,0,0,1.88.32,3.75,3.75,0,0,0,2.68-.94,3.29,3.29,0,0,0,1-2.51v-1.51a4,4,0,0,1-1.55,1.52,4.57,4.57,0,0,1-2.25.54,4.91,4.91,0,0,1-2.56-.66,4.52,4.52,0,0,1-1.73-1.85,5.82,5.82,0,0,1-.61-2.72,5.65,5.65,0,0,1,.61-2.68,4.48,4.48,0,0,1,1.73-1.82,5,5,0,0,1,2.56-.65,4.63,4.63,0,0,1,2.26.53,4,4,0,0,1,1.54,1.51v-2Zm-3.58,8.31a3.28,3.28,0,0,0,1.22-1.3,3.93,3.93,0,0,0,.44-1.87,4,4,0,0,0-.44-1.89,3.29,3.29,0,0,0-1.22-1.3,3.36,3.36,0,0,0-1.78-.47,3.42,3.42,0,0,0-1.79.47,3.34,3.34,0,0,0-1.24,1.3,3.89,3.89,0,0,0-.45,1.89,3.74,3.74,0,0,0,1,2.62,3.27,3.27,0,0,0,2.49,1A3.36,3.36,0,0,0,598.17,252.79Z"/><path class="cls-7" d="M616.37,254.57a4.66,4.66,0,0,1-2.53.8,2.88,2.88,0,0,1-2.08-.77,3.08,3.08,0,0,1-.8-2.32v-6h-1.53v-1.45H611v-2.9h1.92v2.9h3.31v1.45h-3.31v5.64a2,2,0,0,0,.33,1.29,1.21,1.21,0,0,0,1,.39,3.42,3.42,0,0,0,1.68-.51Z"/><path class="cls-7" d="M627.79,245.53a4.22,4.22,0,0,1,1.08,3.07v6.68H627v-6.17a2.65,2.65,0,0,0-2.88-2.9,3.22,3.22,0,0,0-2.49,1.06,3.93,3.93,0,0,0-.92,2.7v5.31h-1.9V240.13h1.9v6.68a4.18,4.18,0,0,1,4.13-2.39A4,4,0,0,1,627.79,245.53Z"/><path class="cls-7" d="M640.4,245.9a6.07,6.07,0,0,1,1.29,4.12q0,.41,0,.61h-8.54a3.68,3.68,0,0,0,1.22,2.31,3.6,3.6,0,0,0,2.44.86,4.57,4.57,0,0,0,1.79-.35,4.29,4.29,0,0,0,1.44-1l1,1.08a5.44,5.44,0,0,1-1.92,1.33,6.4,6.4,0,0,1-2.49.47,5.74,5.74,0,0,1-2.83-.68,4.8,4.8,0,0,1-1.92-1.93,6.21,6.21,0,0,1,0-5.67,5,5,0,0,1,1.91-1.94,5.51,5.51,0,0,1,2.8-.71A4.76,4.76,0,0,1,640.4,245.9Zm-.43,3.26a3.13,3.13,0,0,0-3.35-3.17,3.42,3.42,0,0,0-2.38.86,3.61,3.61,0,0,0-1.13,2.31Z"/><path class="cls-7" d="M666.51,245.54a4.28,4.28,0,0,1,1.06,3.06v6.68h-1.92v-6.17a3,3,0,0,0-.75-2.15,2.71,2.71,0,0,0-2.05-.78,3.1,3.1,0,0,0-2.41,1.08,4,4,0,0,0-.88,2.68v5.33h-1.92v-6.17a3,3,0,0,0-.74-2.15,2.71,2.71,0,0,0-2.06-.78,3.13,3.13,0,0,0-2.42,1.08,4,4,0,0,0-.89,2.68v5.33h-1.9V244.48h1.9v2.27a4.09,4.09,0,0,1,4-2.33,4.14,4.14,0,0,1,2.48.72,3.51,3.51,0,0,1,1.34,2,4.1,4.1,0,0,1,4.21-2.72A3.83,3.83,0,0,1,666.51,245.54Z"/><path class="cls-7" d="M678.32,245.11a5,5,0,0,1,2,1.93,6.05,6.05,0,0,1,0,5.67,5,5,0,0,1-2,1.94,6.32,6.32,0,0,1-5.76,0,5,5,0,0,1-2-1.93,6.07,6.07,0,0,1,0-5.68,5,5,0,0,1,2-1.93,6.32,6.32,0,0,1,5.76,0Zm-4.76,1.45a3.4,3.4,0,0,0-1.29,1.36,4.16,4.16,0,0,0-.46,2,4.26,4.26,0,0,0,.46,2,3.31,3.31,0,0,0,1.29,1.36,3.7,3.7,0,0,0,1.89.48,3.65,3.65,0,0,0,1.87-.48,3.3,3.3,0,0,0,1.29-1.36,4.25,4.25,0,0,0,.46-2,4.15,4.15,0,0,0-.46-2,3.39,3.39,0,0,0-1.29-1.36,3.59,3.59,0,0,0-1.87-.49A3.63,3.63,0,0,0,673.56,246.56Z"/><path class="cls-7" d="M692.64,245.53a4.22,4.22,0,0,1,1.08,3.07v6.68h-1.9v-6.17a2.89,2.89,0,0,0-.77-2.14,2.86,2.86,0,0,0-2.11-.77,3.26,3.26,0,0,0-2.36.93,3.65,3.65,0,0,0-1,2.36v5.78h-1.9V244.48h1.9v2.29a4.17,4.17,0,0,1,4.11-2.35A4,4,0,0,1,692.64,245.53Z"/><path class="cls-7" d="M702.91,254.57a4.66,4.66,0,0,1-2.53.8,2.88,2.88,0,0,1-2.08-.77,3.08,3.08,0,0,1-.8-2.32v-6H696v-1.45h1.53v-2.9h1.92v2.9h3.31v1.45h-3.31v5.64a2,2,0,0,0,.33,1.29,1.21,1.21,0,0,0,1,.39,3.42,3.42,0,0,0,1.68-.51Z"/><path class="cls-7" d="M714.33,245.53a4.22,4.22,0,0,1,1.08,3.07v6.68h-1.9v-6.17a2.65,2.65,0,0,0-2.88-2.9,3.22,3.22,0,0,0-2.49,1.06,3.93,3.93,0,0,0-.92,2.7v5.31h-1.9V240.13h1.9v6.68a4.18,4.18,0,0,1,4.13-2.39A4,4,0,0,1,714.33,245.53Z"/><path class="cls-7" d="M724.26,240.13h1.9v15.16h-1.9Z"/><path class="cls-7" d="M737.35,245.11a5,5,0,0,1,2,1.93,6.05,6.05,0,0,1,0,5.67,5,5,0,0,1-2,1.94,6.32,6.32,0,0,1-5.76,0,5,5,0,0,1-2-1.93,6.07,6.07,0,0,1,0-5.68,5,5,0,0,1,2-1.93,6.32,6.32,0,0,1,5.76,0Zm-4.76,1.45a3.39,3.39,0,0,0-1.29,1.36,4.15,4.15,0,0,0-.46,2,4.25,4.25,0,0,0,.46,2,3.3,3.3,0,0,0,1.29,1.36,3.69,3.69,0,0,0,1.89.48,3.65,3.65,0,0,0,1.87-.48,3.31,3.31,0,0,0,1.29-1.36,4.26,4.26,0,0,0,.46-2,4.16,4.16,0,0,0-.46-2,3.4,3.4,0,0,0-1.29-1.36,3.6,3.6,0,0,0-1.87-.49A3.63,3.63,0,0,0,732.59,246.56Z"/><path class="cls-7" d="M751.66,245.53a4.22,4.22,0,0,1,1.08,3.07v6.68h-1.9v-6.17a2.65,2.65,0,0,0-2.88-2.9,3.26,3.26,0,0,0-2.36.93,3.65,3.65,0,0,0-1,2.36v5.78h-1.9V244.48h1.9v2.29a4.17,4.17,0,0,1,4.11-2.35A4,4,0,0,1,751.66,245.53Z"/><path class="cls-7" d="M765.69,244.48v9.7a5.26,5.26,0,0,1-.68,2.72,4.55,4.55,0,0,1-1.93,1.79,6.41,6.41,0,0,1-2.9.62,7.39,7.39,0,0,1-4.45-1.51l.84-1.39a5.76,5.76,0,0,0,1.66,1,5.39,5.39,0,0,0,1.88.32,3.75,3.75,0,0,0,2.68-.94,3.29,3.29,0,0,0,1-2.51v-1.51a4,4,0,0,1-1.55,1.52,4.57,4.57,0,0,1-2.25.54,4.91,4.91,0,0,1-2.56-.66,4.52,4.52,0,0,1-1.73-1.85,5.82,5.82,0,0,1-.61-2.72,5.65,5.65,0,0,1,.61-2.68,4.48,4.48,0,0,1,1.73-1.82,5,5,0,0,1,2.56-.65,4.63,4.63,0,0,1,2.26.53,4,4,0,0,1,1.54,1.51v-2Zm-3.58,8.31a3.29,3.29,0,0,0,1.21-1.3,3.92,3.92,0,0,0,.44-1.87,4,4,0,0,0-.44-1.89,3.29,3.29,0,0,0-1.21-1.3,3.37,3.37,0,0,0-1.78-.47,3.42,3.42,0,0,0-1.79.47,3.34,3.34,0,0,0-1.24,1.3,3.89,3.89,0,0,0-.45,1.89,3.74,3.74,0,0,0,1,2.62,3.26,3.26,0,0,0,2.49,1A3.37,3.37,0,0,0,762.12,252.79Z"/><path class="cls-7" d="M774.7,241h2v6.37h8.17V241h2v14.3h-2v-6.15h-8.17v6.15h-2Z"/><path class="cls-7" d="M797.32,255.29v-1.51a4.43,4.43,0,0,1-3.78,1.59,4.32,4.32,0,0,1-2-.43,3.16,3.16,0,0,1-1.31-1.19,3.2,3.2,0,0,1-.46-1.7,2.77,2.77,0,0,1,1.07-2.3,4.8,4.8,0,0,1,3-.87h3.43v-.51a2.23,2.23,0,0,0-.71-1.77,3,3,0,0,0-2.05-.62,5.88,5.88,0,0,0-3.33,1.16l-.8-1.31a9.89,9.89,0,0,1,2.16-1.09,7.34,7.34,0,0,1,2.36-.34,4.52,4.52,0,0,1,3.13,1,3.59,3.59,0,0,1,1.12,2.77l0,7.11Zm-1.13-2.13a2.53,2.53,0,0,0,1.11-1.71v-1.08h-3.17a3.7,3.7,0,0,0-1.91.39,1.34,1.34,0,0,0-.62,1.23,1.59,1.59,0,0,0,.63,1.33,2.7,2.7,0,0,0,1.7.49A3.87,3.87,0,0,0,796.18,253.15Z"/><path class="cls-7" d="M807.08,246.11a3.76,3.76,0,0,0-1.89.47,3.33,3.33,0,0,0-1.3,1.33,4.06,4.06,0,0,0-.47,2,4.13,4.13,0,0,0,.46,2,3.38,3.38,0,0,0,1.27,1.34,3.55,3.55,0,0,0,1.85.48,4.86,4.86,0,0,0,1.88-.35,3.58,3.58,0,0,0,1.39-1l1.08,1.1a4.77,4.77,0,0,1-1.87,1.41,6.4,6.4,0,0,1-2.56.49,5.57,5.57,0,0,1-2.8-.69,4.91,4.91,0,0,1-1.91-1.93,5.73,5.73,0,0,1-.68-2.83,5.79,5.79,0,0,1,.68-2.84,4.9,4.9,0,0,1,1.91-1.94,5.58,5.58,0,0,1,2.8-.69,6.85,6.85,0,0,1,2.46.42,4.76,4.76,0,0,1,1.83,1.22l-1,1.31A4.28,4.28,0,0,0,807.08,246.11Z"/><path class="cls-7" d="M821.63,255.29,818.18,250l-2.1,2.19v3.06h-1.9V240.13h1.9v9.66l5.23-5.31h2.23l-4,4.19,4.41,6.62Z"/><path class="cls-7" d="M831.76,254.57a4.66,4.66,0,0,1-2.53.8,2.88,2.88,0,0,1-2.08-.77,3.08,3.08,0,0,1-.8-2.32v-6h-1.53v-1.45h1.53v-2.9h1.92v2.9h3.31v1.45h-3.31v5.64a2,2,0,0,0,.33,1.29,1.21,1.21,0,0,0,1,.39,3.42,3.42,0,0,0,1.67-.51Z"/><path class="cls-7" d="M841.29,245.11a5,5,0,0,1,2,1.93,6.05,6.05,0,0,1,0,5.67,5,5,0,0,1-2,1.94,6.32,6.32,0,0,1-5.76,0,5,5,0,0,1-2-1.93,6.07,6.07,0,0,1,0-5.68,5,5,0,0,1,2-1.93,6.32,6.32,0,0,1,5.76,0Zm-4.76,1.45a3.39,3.39,0,0,0-1.29,1.36,4.15,4.15,0,0,0-.46,2,4.25,4.25,0,0,0,.46,2,3.3,3.3,0,0,0,1.29,1.36,3.69,3.69,0,0,0,1.89.48,3.65,3.65,0,0,0,1.87-.48,3.31,3.31,0,0,0,1.29-1.36,4.26,4.26,0,0,0,.46-2,4.16,4.16,0,0,0-.46-2,3.4,3.4,0,0,0-1.29-1.36,3.6,3.6,0,0,0-1.87-.49A3.63,3.63,0,0,0,836.53,246.56Z"/><path class="cls-7" d="M855.32,245.11a4.78,4.78,0,0,1,1.84,1.94,6.57,6.57,0,0,1,0,5.69,4.66,4.66,0,0,1-1.82,1.92,5.24,5.24,0,0,1-2.69.68,4.93,4.93,0,0,1-2.41-.57,4.1,4.1,0,0,1-1.63-1.63v2.15h-1.9V240.13h1.9v6.5a4.12,4.12,0,0,1,1.62-1.63,4.83,4.83,0,0,1,2.38-.57A5.24,5.24,0,0,1,855.32,245.11Zm-1.2,8.09a3.37,3.37,0,0,0,1.29-1.37,4.21,4.21,0,0,0,.46-2,4.1,4.1,0,0,0-.47-2,3.47,3.47,0,0,0-1.29-1.37,3.55,3.55,0,0,0-1.86-.49,3.6,3.6,0,0,0-1.87.49,3.44,3.44,0,0,0-1.3,1.37,4.39,4.39,0,0,0,0,4,3.46,3.46,0,0,0,1.3,1.36,3.81,3.81,0,0,0,3.74,0Z"/><path class="cls-7" d="M868.6,245.9a6.07,6.07,0,0,1,1.29,4.12q0,.41,0,.61h-8.54a3.69,3.69,0,0,0,1.22,2.31,3.6,3.6,0,0,0,2.44.86,4.57,4.57,0,0,0,1.79-.35,4.3,4.3,0,0,0,1.44-1l1,1.08a5.46,5.46,0,0,1-1.92,1.33,6.4,6.4,0,0,1-2.49.47,5.74,5.74,0,0,1-2.83-.68,4.8,4.8,0,0,1-1.92-1.93,6.21,6.21,0,0,1,0-5.67,5,5,0,0,1,1.91-1.94,5.51,5.51,0,0,1,2.8-.71A4.76,4.76,0,0,1,868.6,245.9Zm-.43,3.26a3.13,3.13,0,0,0-3.35-3.17,3.42,3.42,0,0,0-2.38.86,3.6,3.6,0,0,0-1.13,2.31Z"/><path class="cls-7" d="M875.89,245a4.49,4.49,0,0,1,2.33-.62v1.84a3.48,3.48,0,0,0-3.84,3.33v5.7h-1.9V244.48h1.9v2.33A3.91,3.91,0,0,1,875.89,245Z"/><path class="cls-7" d="M883,242.15a1.66,1.66,0,0,0-.49,1.29v1.41h3v1.45h-3v9h-1.9v-9h-1.41v-1.45h1.41v-1.16a3.82,3.82,0,0,1,.5-2,3.26,3.26,0,0,1,1.32-1.25,3.8,3.8,0,0,1,1.76-.42,4.2,4.2,0,0,1,1.88.49l-.45,1.55a3.26,3.26,0,0,0-1.39-.35A1.75,1.75,0,0,0,883,242.15Z"/><path class="cls-7" d="M895.2,245.9a6.07,6.07,0,0,1,1.29,4.12q0,.41,0,.61h-8.54a3.69,3.69,0,0,0,1.22,2.31,3.6,3.6,0,0,0,2.44.86,4.57,4.57,0,0,0,1.79-.35,4.3,4.3,0,0,0,1.44-1l1,1.08a5.46,5.46,0,0,1-1.92,1.33,6.4,6.4,0,0,1-2.49.47,5.74,5.74,0,0,1-2.83-.68,4.8,4.8,0,0,1-1.92-1.93,6.21,6.21,0,0,1,0-5.67,5,5,0,0,1,1.91-1.94,5.51,5.51,0,0,1,2.8-.71A4.76,4.76,0,0,1,895.2,245.9Zm-.43,3.26a3.13,3.13,0,0,0-3.35-3.17,3.42,3.42,0,0,0-2.38.86,3.6,3.6,0,0,0-1.13,2.31Z"/><path class="cls-7" d="M903.5,246.21A5.31,5.31,0,0,0,902,246a2.64,2.64,0,0,0-1.38.32,1.06,1.06,0,0,0-.52,1,1.08,1.08,0,0,0,.58,1,8.48,8.48,0,0,0,1.77.68,13.91,13.91,0,0,1,1.84.65,3.27,3.27,0,0,1,1.22,1,3,3,0,0,1-.65,4,4.93,4.93,0,0,1-2.87.8,7.18,7.18,0,0,1-2.34-.39,5.32,5.32,0,0,1-1.91-1.1l.71-1.39a5.07,5.07,0,0,0,1.67,1,5.54,5.54,0,0,0,1.93.37,2.89,2.89,0,0,0,1.51-.35,1.16,1.16,0,0,0,.57-1.06,1.21,1.21,0,0,0-.6-1.1,8.19,8.19,0,0,0-1.83-.74,12.2,12.2,0,0,1-1.77-.62,3.13,3.13,0,0,1-1.16-.93,2.51,2.51,0,0,1-.48-1.59,2.57,2.57,0,0,1,1.1-2.27,4.77,4.77,0,0,1,2.76-.76,6.9,6.9,0,0,1,1.93.28,5.79,5.79,0,0,1,1.64.75l-.69,1.45A6.5,6.5,0,0,0,903.5,246.21Z"/><path class="cls-7" d="M914.28,254.57a4.66,4.66,0,0,1-2.53.8,2.88,2.88,0,0,1-2.08-.77,3.08,3.08,0,0,1-.8-2.32v-6h-1.53v-1.45h1.53v-2.9h1.92v2.9h3.31v1.45h-3.31v5.64a2,2,0,0,0,.33,1.29,1.21,1.21,0,0,0,1,.39,3.42,3.42,0,0,0,1.67-.51Z"/><path class="cls-7" d="M923.22,253.45a1.16,1.16,0,0,1,.32.84,1.19,1.19,0,0,1-.32.85,1,1,0,0,1-.79.34,1.07,1.07,0,0,1-.8-.34,1.17,1.17,0,0,1-.33-.85,1.14,1.14,0,0,1,.33-.84,1.08,1.08,0,0,1,.8-.33A1,1,0,0,1,923.22,253.45Zm-1.71-12.26h1.84v3.49l-.31,6.21H921.8l-.29-6.21Z"/><path class="cls-7" d="M927.43,253.45a1.16,1.16,0,0,1,.32.84,1.19,1.19,0,0,1-.32.85,1,1,0,0,1-.79.34,1.07,1.07,0,0,1-.8-.34,1.17,1.17,0,0,1-.33-.85,1.14,1.14,0,0,1,.33-.84,1.08,1.08,0,0,1,.8-.33A1,1,0,0,1,927.43,253.45Zm-1.71-12.26h1.84v3.49l-.31,6.21H926l-.29-6.21Z"/></svg>