<svg id="Layer_1" data-name="Layer 1" xmlns="http://www.w3.org/2000/svg" viewBox="0 0 284 61"><defs><style>.cls-1{fill:#24605e;}.cls-2{fill:#fff;}</style></defs><title>hacktober bottom sec</title><rect class="cls-1" x="2.14" y="0.24" width="279.56" height="60.52" rx="30.26" ry="30.26"/><path class="cls-2" d="M71.36,17.63A5.12,5.12,0,0,0,69.93,19a14.52,14.52,0,0,0-1.32,2.17,24,24,0,0,0-1.15,2.7q-.52,1.46-.9,3a28.54,28.54,0,0,0-.59,3,18.87,18.87,0,0,0-.21,2.69A9.34,9.34,0,0,0,65.87,34a4.71,4.71,0,0,0,.33,1.17,1.93,1.93,0,0,0,.57.76,1.34,1.34,0,0,0,.85.27,2.62,2.62,0,0,0,1.61-.62,7.69,7.69,0,0,0,1.55-1.7,15.36,15.36,0,0,0,1.39-2.5,23.42,23.42,0,0,0,1.11-3A27.6,27.6,0,0,0,74,25a20.87,20.87,0,0,0,.27-3.31,16,16,0,0,0-.16-2.44,4.48,4.48,0,0,0-.62-1.75,2.78,2.78,0,0,0-1.25-1.05,5.14,5.14,0,0,0-2.06-.35,10.75,10.75,0,0,0-3.49.57,9.09,9.09,0,0,0-2.94,1.64,7.9,7.9,0,0,0-2,2.59A7.66,7.66,0,0,0,61,24.3a4.15,4.15,0,0,0,.05.76,4.31,4.31,0,0,0,.11.47,1.75,1.75,0,0,0,.11.29.48.48,0,0,1,.05.2A4,4,0,0,1,59,25.41a2.38,2.38,0,0,1-.85-2.07,5.31,5.31,0,0,1,.48-2.2,7.94,7.94,0,0,1,1.36-2.05A11.49,11.49,0,0,1,62,17.29a14.18,14.18,0,0,1,2.63-1.41,17.1,17.1,0,0,1,3-.93A16,16,0,0,1,71,14.62a9.15,9.15,0,0,1,3.55.61,5.92,5.92,0,0,1,2.33,1.69,6.74,6.74,0,0,1,1.29,2.59,12.89,12.89,0,0,1,.4,3.28,21.55,21.55,0,0,1-1.19,6.88,20.24,20.24,0,0,1-1.56,3.42A12.8,12.8,0,0,1,73.53,36a10.51,10.51,0,0,1-3,2,9.1,9.1,0,0,1-3.77.76,7.38,7.38,0,0,1-2.31-.34,4.52,4.52,0,0,1-1.81-1.11,5.11,5.11,0,0,1-1.18-2,9.2,9.2,0,0,1-.42-3,19.68,19.68,0,0,1,.24-2.91A24.73,24.73,0,0,1,62,26.17a23.81,23.81,0,0,1,1.21-3.25,14,14,0,0,1,1.68-2.82,8.32,8.32,0,0,1,2.16-2,4.88,4.88,0,0,1,2.64-.75,7.06,7.06,0,0,1,.81,0A3.56,3.56,0,0,1,71.36,17.63Z"/><path class="cls-2" d="M75.93,46.55l5.33-25.13h4.6l-.51,2.4a6.38,6.38,0,0,1,1.61-1,5.33,5.33,0,0,1,2.12-.39,4.5,4.5,0,0,1,1.53.26,3,3,0,0,1,1.24.84,4.19,4.19,0,0,1,.83,1.55,8,8,0,0,1,.3,2.39,20,20,0,0,1-.15,2.33,16,16,0,0,1-.51,2.51,13.81,13.81,0,0,1-.94,2.42,8.1,8.1,0,0,1-1.46,2.05,6.74,6.74,0,0,1-2.07,1.43,6.59,6.59,0,0,1-2.74.54,5.28,5.28,0,0,1-1.06-.09,3.26,3.26,0,0,1-.77-.25,1.94,1.94,0,0,1-.53-.37,2.61,2.61,0,0,1-.35-.43L80.75,45.4Zm7-11.3a1.16,1.16,0,0,0,.38.5,1.3,1.3,0,0,0,.83.23,2.67,2.67,0,0,0,1.5-.43,4.29,4.29,0,0,0,1.15-1.14,7.24,7.24,0,0,0,.84-1.61,14.28,14.28,0,0,0,.56-1.86,16.25,16.25,0,0,0,.32-1.88,15.61,15.61,0,0,0,.1-1.68,4.92,4.92,0,0,0-.17-1.45,2.18,2.18,0,0,0-.41-.79,1.06,1.06,0,0,0-.52-.33,1.84,1.84,0,0,0-1.65.33,3.45,3.45,0,0,0-1.05,1.18Z"/><path class="cls-2" d="M107.11,32.85A18.24,18.24,0,0,1,105.58,35a11.53,11.53,0,0,1-1.95,1.89,9.66,9.66,0,0,1-2.4,1.33,8,8,0,0,1-2.89.51,6.86,6.86,0,0,1-2.06-.29,4.06,4.06,0,0,1-1.57-.9,3.93,3.93,0,0,1-1-1.57,6.75,6.75,0,0,1-.35-2.32,14,14,0,0,1,.19-2.12,16.42,16.42,0,0,1,.59-2.46,14,14,0,0,1,1.08-2.48,9.78,9.78,0,0,1,1.62-2.18,7.5,7.5,0,0,1,2.23-1.54,6.94,6.94,0,0,1,2.92-.58,5,5,0,0,1,1.75.26,2.85,2.85,0,0,1,1.08.68,2.23,2.23,0,0,1,.54,1,4.38,4.38,0,0,1,.15,1.15,5.61,5.61,0,0,1-.61,2.58A6.89,6.89,0,0,1,103.25,30a8.43,8.43,0,0,1-2.35,1.43,8.67,8.67,0,0,1-2.76.64c0,.24,0,.46-.05.68s0,.41,0,.6a5,5,0,0,0,.15,1.33,1.89,1.89,0,0,0,.44.82,1.55,1.55,0,0,0,.72.41,3.88,3.88,0,0,0,1,.12,5.6,5.6,0,0,0,1.72-.25,6,6,0,0,0,1.44-.69,8.07,8.07,0,0,0,1.27-1q.6-.59,1.21-1.26ZM98.4,30.59a4.27,4.27,0,0,0,1.75-.51,5.3,5.3,0,0,0,1.48-1.18,5.81,5.81,0,0,0,1-1.65,5,5,0,0,0,.38-1.92,2.22,2.22,0,0,0-.17-1,.63.63,0,0,0-.62-.36,1.7,1.7,0,0,0-1.19.58,6.7,6.7,0,0,0-1.1,1.52A13.11,13.11,0,0,0,99,28.22,18.49,18.49,0,0,0,98.4,30.59Z"/><path class="cls-2" d="M104.81,38.57l3.38-16h4.6l-.34,1.65a5.84,5.84,0,0,1,1-.93,4.76,4.76,0,0,1,1-.54,4.16,4.16,0,0,1,.91-.25,5.54,5.54,0,0,1,.8-.06,4.79,4.79,0,0,1,1.42.2,2.82,2.82,0,0,1,1.87,1.76,4.55,4.55,0,0,1,.27,1.64,8.87,8.87,0,0,1-.12,1.38q-.12.74-.29,1.51T119,30.51q-.19.76-.37,1.47t-.29,1.3a5.58,5.58,0,0,0-.12,1.05,1.6,1.6,0,0,0,.27,1,1.17,1.17,0,0,0,1,.37,1.9,1.9,0,0,0,1.06-.2,4.29,4.29,0,0,1-.44,1.49,3.48,3.48,0,0,1-.79,1,3,3,0,0,1-1.06.59,4,4,0,0,1-1.21.19,3.5,3.5,0,0,1-1.54-.3,2.66,2.66,0,0,1-1-.81,3.17,3.17,0,0,1-.53-1.15,5.68,5.68,0,0,1-.16-1.33,9.47,9.47,0,0,1,.23-1.89q.23-1.08.49-2.22t.49-2.2a9,9,0,0,0,.23-1.82q0-1.64-1.15-1.64a1.5,1.5,0,0,0-.81.23,2.68,2.68,0,0,0-.69.63,4.69,4.69,0,0,0-.56.94,9.11,9.11,0,0,0-.44,1.15l-2.17,10.24Z"/><path class="cls-2" d="M136,33.14a9.86,9.86,0,0,1-1.63,2.51,10.49,10.49,0,0,1-4.87,3.08,10,10,0,0,1-2.85.41,7,7,0,0,1-2.66-.46,4.87,4.87,0,0,1-2.88-3,6.6,6.6,0,0,1-.34-2.14,8.7,8.7,0,0,1,.4-2.57,9.62,9.62,0,0,1,1.16-2.46,8.52,8.52,0,0,1,1.86-2,6.67,6.67,0,0,1,2.49-1.22,4.47,4.47,0,0,1-1.49-1.75,5,5,0,0,1-.46-2.08,6.21,6.21,0,0,1,.52-2.46,7.46,7.46,0,0,1,1.45-2.21,7.31,7.31,0,0,1,2.21-1.59,6.5,6.5,0,0,1,2.81-.61,6,6,0,0,1,1.79.26,4.37,4.37,0,0,1,1.46.76,3.44,3.44,0,0,1,1,1.25,4,4,0,0,1,.35,1.73,4.48,4.48,0,0,1-.19,1.33,3.48,3.48,0,0,1-.51,1.05,2.51,2.51,0,0,1-.76.69,1.78,1.78,0,0,1-.91.25,1.82,1.82,0,0,1-1.5-.86,1.26,1.26,0,0,0,.54-.39,3.29,3.29,0,0,0,.45-.69,3.91,3.91,0,0,0,.3-.84,3.75,3.75,0,0,0,.11-.87,2,2,0,0,0-.16-.83,1.59,1.59,0,0,0-.4-.55,1.46,1.46,0,0,0-.56-.3,2.33,2.33,0,0,0-.65-.09,2.37,2.37,0,0,0-1.32.39,3.62,3.62,0,0,0-1,1A5.18,5.18,0,0,0,129,19.3a5.73,5.73,0,0,0-.24,1.65,5.31,5.31,0,0,0,.18,1.37,4,4,0,0,0,.57,1.24,3.9,3.9,0,0,0,1,1,4.75,4.75,0,0,0,1.47.66,5.61,5.61,0,0,0-1.62.62,7.39,7.39,0,0,0-1.39,1,8.15,8.15,0,0,0-1.13,1.33,9.89,9.89,0,0,0-.85,1.52,8.88,8.88,0,0,0-.54,1.58,6.7,6.7,0,0,0-.19,1.53,4.53,4.53,0,0,0,.17,1.26,2.83,2.83,0,0,0,.53,1,2.43,2.43,0,0,0,.94.69,3.49,3.49,0,0,0,1.39.25,6.87,6.87,0,0,0,1.58-.2,7.56,7.56,0,0,0,3.17-1.64,5.22,5.22,0,0,0,1.15-1.42Z"/><path class="cls-2" d="M138.38,38.57l4.33-20.32,4.72-.62-1.5,7.08h.19a3.59,3.59,0,0,0,1.79-.47A5.19,5.19,0,0,0,149.37,23a6.11,6.11,0,0,0,1-1.67,4.91,4.91,0,0,0,.37-1.82,3.6,3.6,0,0,0-.23-1.29,3,3,0,0,0-.73-1.1,3.58,3.58,0,0,0-1.3-.77,5.76,5.76,0,0,0-1.94-.29,8.81,8.81,0,0,0-1.89.21,8.24,8.24,0,0,0-1.84.64A8.39,8.39,0,0,0,141.12,18a6.7,6.7,0,0,0-1.35,1.5,7.68,7.68,0,0,0-.9,1.95,8.1,8.1,0,0,0-.33,2.39,5.68,5.68,0,0,0,.07,1,3.56,3.56,0,0,0,.16.61,2.57,2.57,0,0,0,.16.35A.46.46,0,0,1,139,26a4.21,4.21,0,0,1-2.52-.66,2.64,2.64,0,0,1-.9-2.28,5.59,5.59,0,0,1,.44-2.16,7.72,7.72,0,0,1,1.22-2,10.35,10.35,0,0,1,1.87-1.73,13.27,13.27,0,0,1,2.37-1.36,14.07,14.07,0,0,1,2.73-.9,13.63,13.63,0,0,1,3-.32,9.58,9.58,0,0,1,3,.43,6.42,6.42,0,0,1,2.11,1.13,4.47,4.47,0,0,1,1.24,1.62,4.66,4.66,0,0,1,.41,1.9,5.27,5.27,0,0,1-.2,1.43,5.39,5.39,0,0,1-.61,1.37,6.6,6.6,0,0,1-2.39,2.26,4.45,4.45,0,0,1,1.75.68,4.23,4.23,0,0,1,1.17,1.19,4.87,4.87,0,0,1,.66,1.54,7.46,7.46,0,0,1,.2,1.75,11.88,11.88,0,0,1-.15,1.75,12.78,12.78,0,0,1-.48,2,11.81,11.81,0,0,1-.86,2,7.24,7.24,0,0,1-1.31,1.75,6.24,6.24,0,0,1-1.82,1.23,5.73,5.73,0,0,1-2.38.47,6.54,6.54,0,0,1-1.08-.09,3,3,0,0,1-1-.36,2.27,2.27,0,0,1-.76-.73,2.12,2.12,0,0,1-.3-1.19,4.23,4.23,0,0,1,.09-.86,5.92,5.92,0,0,1,.31-1,4.12,4.12,0,0,0,1.11.9,2.3,2.3,0,0,0,1,.25,2.09,2.09,0,0,0,1.47-.55,4.16,4.16,0,0,0,1-1.4,7.6,7.6,0,0,0,.54-1.86,12.14,12.14,0,0,0,.16-1.92,7.92,7.92,0,0,0-.15-1.57,3.75,3.75,0,0,0-.5-1.29,2.6,2.6,0,0,0-.93-.88,2.9,2.9,0,0,0-1.45-.33l-.61,0a6.46,6.46,0,0,0-.86.09L143,38.57Z"/><path class="cls-2" d="M173.3,18.92a4,4,0,0,1-.18,1.22,3.06,3.06,0,0,1-.49,1,2.15,2.15,0,0,1-.76.62,2.23,2.23,0,0,1-1,.22,2.33,2.33,0,0,1-1.1-.26,2.48,2.48,0,0,1-.85-.74,3.15,3.15,0,0,0,1-1.16,3.46,3.46,0,0,0,.36-1.55,2.18,2.18,0,0,0-.61-1.63A2.27,2.27,0,0,0,168,16a2.85,2.85,0,0,0-1.18.24,2.71,2.71,0,0,0-.92.67,3.07,3.07,0,0,0-.59,1,3.84,3.84,0,0,0-.21,1.29,4.08,4.08,0,0,0,.51,2,10.77,10.77,0,0,0,1.29,1.84q.78.91,1.68,1.83a19.38,19.38,0,0,1,1.68,2,10.94,10.94,0,0,1,1.29,2.28,6.9,6.9,0,0,1,.51,2.71,6.49,6.49,0,0,1-.66,2.91,7,7,0,0,1-1.82,2.31,8.69,8.69,0,0,1-2.73,1.53,10.11,10.11,0,0,1-3.39.55,9,9,0,0,1-2.77-.4,6.2,6.2,0,0,1-2.12-1.14,5.14,5.14,0,0,1-1.36-1.77,5.33,5.33,0,0,1-.48-2.29,5.61,5.61,0,0,1,.34-2A5.11,5.11,0,0,1,158,30a4.33,4.33,0,0,1,1.4-1.07,3.94,3.94,0,0,1,1.73-.39,3.1,3.1,0,0,1,1.89.56,2.4,2.4,0,0,1,1,1.54,4.57,4.57,0,0,0-1.51.23,3.31,3.31,0,0,0-1.14.65,2.89,2.89,0,0,0-.72,1,3.39,3.39,0,0,0-.26,1.35,2.82,2.82,0,0,0,3,3,3.94,3.94,0,0,0,1.56-.3,3.71,3.71,0,0,0,1.23-.83,3.88,3.88,0,0,0,.81-1.26,4.21,4.21,0,0,0,.3-1.59,4.92,4.92,0,0,0-.29-1.68,7.8,7.8,0,0,0-.77-1.56,14.89,14.89,0,0,0-1.09-1.49l-1.25-1.47q-.64-.74-1.25-1.49a14.15,14.15,0,0,1-1.09-1.54,8.12,8.12,0,0,1-.77-1.63,5.42,5.42,0,0,1-.29-1.78A5.11,5.11,0,0,1,161,18a5.62,5.62,0,0,1,1.5-1.85,7.23,7.23,0,0,1,2.27-1.22,8.84,8.84,0,0,1,2.85-.44,8,8,0,0,1,2.34.32,5.43,5.43,0,0,1,1.79.9,4.07,4.07,0,0,1,1.15,1.41A4.13,4.13,0,0,1,173.3,18.92Z"/><path class="cls-2" d="M197.47,33.14a8.31,8.31,0,0,1-1.73,2.74,10.17,10.17,0,0,1-2.36,1.84,10.54,10.54,0,0,1-2.59,1,10.35,10.35,0,0,1-5.51-.09,5,5,0,0,1-2.17-1.36,5.91,5.91,0,0,1-1.29-2.43,13.44,13.44,0,0,1-.43-3.65,23.18,23.18,0,0,1,.13-2.38,24.43,24.43,0,0,1,.43-2.66,26.54,26.54,0,0,1,.76-2.76,19.18,19.18,0,0,1,1.12-2.67,15.67,15.67,0,0,1,1.51-2.41,10.42,10.42,0,0,1,1.93-1.95,8.85,8.85,0,0,1,2.39-1.3,8.38,8.38,0,0,1,2.88-.48,8.61,8.61,0,0,1,2.08.24,5,5,0,0,1,1.7.76,3.61,3.61,0,0,1,1.14,1.33,4.24,4.24,0,0,1,.41,1.95,5.53,5.53,0,0,1-.12,1.18,2.63,2.63,0,0,1-.39.94,1.86,1.86,0,0,1-.7.62,2.25,2.25,0,0,1-1,.22,3.2,3.2,0,0,1-.87-.14,2,2,0,0,1-.94-.69,1.84,1.84,0,0,0,.55-.44,3.46,3.46,0,0,0,.47-.7,4.46,4.46,0,0,0,.33-.87,3.67,3.67,0,0,0,.13-.94,2.73,2.73,0,0,0-.1-.73,1.58,1.58,0,0,0-.34-.62,1.72,1.72,0,0,0-.61-.43,2.25,2.25,0,0,0-.9-.16,2.76,2.76,0,0,0-1.72.66A7.51,7.51,0,0,0,190,18.54a15.3,15.3,0,0,0-1.36,2.6,24.27,24.27,0,0,0-1.05,3.13,29.94,29.94,0,0,0-.69,3.4,23.88,23.88,0,0,0-.25,3.37,11.45,11.45,0,0,0,.16,2,4.17,4.17,0,0,0,.59,1.57,2.9,2.9,0,0,0,1.17,1,4.3,4.3,0,0,0,1.91.37,7.4,7.4,0,0,0,3.49-.84,8,8,0,0,0,2.73-2.35Z"/><path class="cls-2" d="M214.78,32.85a14.34,14.34,0,0,1-1,2.25,9.5,9.5,0,0,1-1.1,1.61,6.24,6.24,0,0,1-1.16,1.06,5.7,5.7,0,0,1-1.15.62,5.06,5.06,0,0,1-1.08.3,6.3,6.3,0,0,1-.93.08,3.06,3.06,0,0,1-2.16-.74,3.4,3.4,0,0,1-1-2.19,12.67,12.67,0,0,1-.86,1.07,6.44,6.44,0,0,1-1,.94,5.29,5.29,0,0,1-1.29.67,4.56,4.56,0,0,1-1.57.26,4.82,4.82,0,0,1-1.59-.27,3.46,3.46,0,0,1-1.36-.87,4.41,4.41,0,0,1-1-1.59,7.06,7.06,0,0,1-.36-2.4,13.7,13.7,0,0,1,.22-2.34,14.87,14.87,0,0,1,.67-2.5,14.32,14.32,0,0,1,1.13-2.39,9.61,9.61,0,0,1,1.59-2A7.25,7.25,0,0,1,201.9,23a6.09,6.09,0,0,1,2.54-.52,3.28,3.28,0,0,1,2,.47,1.4,1.4,0,0,1,.62,1.15v.23l.34-1.7H212l-2.29,10.85a3.21,3.21,0,0,0-.11.52,4.08,4.08,0,0,0,0,.51q0,1.37,1.31,1.37a1.63,1.63,0,0,0,.87-.24,2.82,2.82,0,0,0,.72-.65,4.4,4.4,0,0,0,.58-1,8.49,8.49,0,0,0,.42-1.16Zm-8-7.2a1.36,1.36,0,0,0-.27-.76,1.2,1.2,0,0,0-.4-.33,1.36,1.36,0,0,0-.64-.13,2.13,2.13,0,0,0-1.27.44,4.71,4.71,0,0,0-1.1,1.16,9.34,9.34,0,0,0-.89,1.64,16.07,16.07,0,0,0-1.08,3.81,11.6,11.6,0,0,0-.14,1.69,4.57,4.57,0,0,0,.17,1.42,1.93,1.93,0,0,0,.41.74,1,1,0,0,0,.52.29,3.07,3.07,0,0,0,.5,0,1.85,1.85,0,0,0,.76-.18,2.77,2.77,0,0,0,.76-.53,3.88,3.88,0,0,0,.67-.88,4.38,4.38,0,0,0,.46-1.23Z"/><path class="cls-2" d="M216.15,20.08a8.33,8.33,0,0,1,1-2.78,5.84,5.84,0,0,1,1.47-1.65,4.63,4.63,0,0,1,1.68-.79,7.35,7.35,0,0,1,1.65-.2,4,4,0,0,1,1.39.25,3.83,3.83,0,0,1,1.2.7,3.53,3.53,0,0,1,.84,1.08,3.08,3.08,0,0,1,.32,1.41,8,8,0,0,1-.09,1.31h-1.5c0-.18,0-.33,0-.45s0-.26,0-.41a1,1,0,0,0-.37-.82,1.39,1.39,0,0,0-.85-.27,1.8,1.8,0,0,0-.57.11,1.89,1.89,0,0,0-.64.4,2.89,2.89,0,0,0-.59.8,4.73,4.73,0,0,0-.43,1.31l-.54,2.53h2.34l-.23,1.28H220l-3.68,17.24a8.57,8.57,0,0,1-1,2.78,5.86,5.86,0,0,1-1.43,1.65,4.41,4.41,0,0,1-1.65.79,7.13,7.13,0,0,1-1.64.2,4,4,0,0,1-1.4-.25,4,4,0,0,1-1.21-.7,3.47,3.47,0,0,1-.85-1.08,3.08,3.08,0,0,1-.32-1.41,3.71,3.71,0,0,1,.43-1.86,4,4,0,0,1,1.18-1.29,7.47,7.47,0,0,1,1.75-.91q1-.37,2.14-.72Zm-4.08,19.29a12.86,12.86,0,0,0-1.4.55,5,5,0,0,0-1.12.7,3.05,3.05,0,0,0-.73.9,2.39,2.39,0,0,0-.27,1.14.83.83,0,0,0,.09.37,1.08,1.08,0,0,0,.27.34,1.56,1.56,0,0,0,.41.25,1.28,1.28,0,0,0,.51.1,1.21,1.21,0,0,0,.51-.12,1.46,1.46,0,0,0,.5-.41,3,3,0,0,0,.44-.77,6.89,6.89,0,0,0,.36-1.2Z"/><path class="cls-2" d="M232,34a7,7,0,0,1-.78,2.29,4.82,4.82,0,0,1-1.26,1.45,4.48,4.48,0,0,1-1.62.76,7.75,7.75,0,0,1-1.86.22,6.73,6.73,0,0,1-2-.29,4,4,0,0,1-1.56-.9,4,4,0,0,1-1-1.57,6.62,6.62,0,0,1-.36-2.32,14,14,0,0,1,.19-2.12,16.31,16.31,0,0,1,.59-2.46,14,14,0,0,1,1.08-2.48A9.78,9.78,0,0,1,225,24.45a7.52,7.52,0,0,1,2.23-1.54,6.94,6.94,0,0,1,2.92-.58,5,5,0,0,1,1.75.26,2.85,2.85,0,0,1,1.08.68,2.22,2.22,0,0,1,.54,1,4.38,4.38,0,0,1,.15,1.15,5.6,5.6,0,0,1-.61,2.58A6.89,6.89,0,0,1,231.42,30a8.41,8.41,0,0,1-2.35,1.43,8.67,8.67,0,0,1-2.76.64c0,.18,0,.35-.05.51s0,.31,0,.46a4.49,4.49,0,0,0,.16,1.28,2.19,2.19,0,0,0,.42.82,1.44,1.44,0,0,0,.62.43,2.33,2.33,0,0,0,.78.13,3.64,3.64,0,0,0,1-.14,6,6,0,0,0,1-.37,8.25,8.25,0,0,0,1-.54A6.44,6.44,0,0,0,232,34Zm-5.46-3.45a3.9,3.9,0,0,0,1.76-.49,5.54,5.54,0,0,0,1.49-1.18,5.7,5.7,0,0,0,1-1.66,5.06,5.06,0,0,0,.38-1.93,2.22,2.22,0,0,0-.17-1,.63.63,0,0,0-.62-.36,1.69,1.69,0,0,0-1.19.6,6.77,6.77,0,0,0-1.09,1.55,15.45,15.45,0,0,0-.92,2.12A19.33,19.33,0,0,0,226.54,30.59Z"/></svg>