<svg id="Layer_1" data-name="Layer 1" xmlns="http://www.w3.org/2000/svg" xmlns:xlink="http://www.w3.org/1999/xlink" viewBox="0 0 414 269"><defs><style>.cls-1{fill:url(#linear-gradient);}.cls-2{fill:none;stroke:#fff;stroke-miterlimit:10;stroke-width:4px;}.cls-3{fill:#fff;}</style><linearGradient id="linear-gradient" x1="97.13" y1="-56.66" x2="317.87" y2="325.66" gradientUnits="userSpaceOnUse"><stop offset="0.23" stop-color="#ff8c58"/><stop offset="1" stop-color="#ff544e"/></linearGradient></defs><title>hacktober mobile bottom</title><rect class="cls-1" x="-1" width="417" height="269"/><rect class="cls-2" x="55.5" y="46" width="303" height="174"/><path class="cls-3" d="M133.08,85.08a6,6,0,0,0-1.79-.32,2.51,2.51,0,0,0-1.37.32,1,1,0,0,0-.5.9,1.18,1.18,0,0,0,.35.87,2.77,2.77,0,0,0,.88.58,14.24,14.24,0,0,0,1.45.5,15.84,15.84,0,0,1,2.1.76,3.75,3.75,0,0,1,1.4,1.12,3.07,3.07,0,0,1,.58,1.94,3.32,3.32,0,0,1-.62,2A3.89,3.89,0,0,1,133.84,95a6.49,6.49,0,0,1-2.49.45,7.84,7.84,0,0,1-2.88-.55A8.14,8.14,0,0,1,126,93.48l1-2.05a7.38,7.38,0,0,0,2.14,1.39,5.7,5.7,0,0,0,2.21.5,2.81,2.81,0,0,0,1.58-.39,1.27,1.27,0,0,0,.22-1.94,2.62,2.62,0,0,0-.89-.57q-.54-.22-1.48-.49a17.45,17.45,0,0,1-2.09-.74,3.61,3.61,0,0,1-1.39-1.09,3,3,0,0,1-.58-1.92,3.22,3.22,0,0,1,.58-1.92A3.76,3.76,0,0,1,129,83a6.35,6.35,0,0,1,2.47-.45,8.39,8.39,0,0,1,2.42.36,8.2,8.2,0,0,1,2.13,1l-1,2.11A9.15,9.15,0,0,0,133.08,85.08Z"/><path class="cls-3" d="M147.26,85.73v9.63H144.9V93.57a3.46,3.46,0,0,1-3.35,1.87,3.35,3.35,0,0,1-2.56-1,3.77,3.77,0,0,1-.94-2.7v-6h2.36v5.35a2.2,2.2,0,0,0,.55,1.58,2,2,0,0,0,1.52.58,2.23,2.23,0,0,0,1.76-.79,3,3,0,0,0,.65-2V85.73Z"/><path class="cls-3" d="M158.23,86.27a4.19,4.19,0,0,1,1.6,1.74,5.61,5.61,0,0,1,.57,2.57,5.52,5.52,0,0,1-.56,2.54,4.11,4.11,0,0,1-1.58,1.71,4.55,4.55,0,0,1-2.38.61A4.14,4.14,0,0,1,154,95a3.6,3.6,0,0,1-1.37-1.23v1.57h-2.34V82h2.34v5.31a3.48,3.48,0,0,1,1.34-1.23,4.1,4.1,0,0,1,1.9-.42A4.54,4.54,0,0,1,158.23,86.27Zm-1,6.34a3,3,0,0,0,.76-2.1,2.94,2.94,0,0,0-.76-2.09,2.76,2.76,0,0,0-3.91,0,3.29,3.29,0,0,0,0,4.19,2.56,2.56,0,0,0,2,.81A2.53,2.53,0,0,0,157.27,92.61Z"/><path class="cls-3" d="M177.63,86.63a3.81,3.81,0,0,1,.94,2.71v6H176.2V90a2.22,2.22,0,0,0-.57-1.61,2,2,0,0,0-1.54-.58,2.31,2.31,0,0,0-1.77.81,2.93,2.93,0,0,0-.66,2v4.75h-2.36V90a2.24,2.24,0,0,0-.56-1.61,2,2,0,0,0-1.53-.58,2.33,2.33,0,0,0-1.79.81,2.92,2.92,0,0,0-.66,2v4.75h-2.34V85.73h2.34v1.78a3.54,3.54,0,0,1,3.38-1.87,3.58,3.58,0,0,1,2.12.6,3.16,3.16,0,0,1,1.2,1.7,3.56,3.56,0,0,1,3.58-2.3A3.36,3.36,0,0,1,177.63,86.63Z"/><path class="cls-3" d="M183.28,82a1.4,1.4,0,0,1,.38,1,1.38,1.38,0,0,1-.38,1,1.35,1.35,0,0,1-1.91,0,1.38,1.38,0,0,1-.38-1,1.4,1.4,0,0,1,.38-1,1.35,1.35,0,0,1,1.91,0Zm-2.11,3.74h2.34v9.63h-2.34Z"/><path class="cls-3" d="M192,94.76a4.57,4.57,0,0,1-2.41.7,2.88,2.88,0,0,1-2-.73,2.78,2.78,0,0,1-.79-2.15V87.83h-1.35l0-1.71h1.37V83.48h2.32v2.65h2.75v1.71h-2.75v4.34a1.4,1.4,0,0,0,.25.94,1,1,0,0,0,.76.28,3.34,3.34,0,0,0,1.37-.4Z"/><path class="cls-3" d="M207.22,83.89a4,4,0,0,1,1.31,3.2,4.33,4.33,0,0,1-1.31,3.36,5.24,5.24,0,0,1-3.68,1.2h-2.75v3.71h-2.41V82.76h5.17A5.44,5.44,0,0,1,207.22,83.89Zm-1.71,5a2.14,2.14,0,0,0,.73-1.76,2.07,2.07,0,0,0-.73-1.73,3.32,3.32,0,0,0-2.1-.58h-2.63v4.66h2.63A3.25,3.25,0,0,0,205.51,88.93Z"/><path class="cls-3" d="M218.41,95.36l-2.18-3.73-.45,0h-2.84v3.71h-2.41V82.76h5.26a5.67,5.67,0,0,1,3.78,1.13,4,4,0,0,1,1.33,3.2,4.74,4.74,0,0,1-.64,2.52,3.92,3.92,0,0,1-1.86,1.57l2.77,4.18Zm-5.47-5.83h2.84a3.21,3.21,0,0,0,2.09-.59,2.16,2.16,0,0,0,.72-1.76,2.08,2.08,0,0,0-.72-1.73,3.28,3.28,0,0,0-2.09-.58h-2.84Z"/><path class="cls-3" d="M227.71,87.69a4.63,4.63,0,0,0-1.38-.23,1.86,1.86,0,0,0-.95.21.69.69,0,0,0-.35.64.76.76,0,0,0,.44.69,7.13,7.13,0,0,0,1.39.51,13.46,13.46,0,0,1,1.66.6,3.13,3.13,0,0,1,1.13.88,2.36,2.36,0,0,1,.48,1.54A2.48,2.48,0,0,1,229,94.69a4.63,4.63,0,0,1-2.72.76,6.91,6.91,0,0,1-2.18-.35,5.13,5.13,0,0,1-1.8-1l.81-1.64a4.73,4.73,0,0,0,1.55.87,5.16,5.16,0,0,0,1.71.32,2.06,2.06,0,0,0,1-.22.73.73,0,0,0,.39-.68.81.81,0,0,0-.45-.76,8,8,0,0,0-1.46-.56,12.33,12.33,0,0,1-1.58-.57,2.86,2.86,0,0,1-1.06-.85,2.32,2.32,0,0,1-.45-1.49,2.51,2.51,0,0,1,1-2.17,4.33,4.33,0,0,1,2.6-.75,6.67,6.67,0,0,1,1.88.27,5.83,5.83,0,0,1,1.65.76l-.85,1.69A6.91,6.91,0,0,0,227.71,87.69Z"/><path class="cls-3" d="M242.17,94.76a4.57,4.57,0,0,1-2.41.7,2.88,2.88,0,0,1-2-.73,2.78,2.78,0,0,1-.79-2.15V87.83h-1.35l0-1.71h1.37V83.48h2.32v2.65H242v1.71h-2.75v4.34a1.4,1.4,0,0,0,.25.94,1,1,0,0,0,.76.28,3.34,3.34,0,0,0,1.37-.4Z"/><path class="cls-3" d="M250.76,86.27A4.42,4.42,0,0,1,252.55,88a5,5,0,0,1,.64,2.55,5.09,5.09,0,0,1-.64,2.57,4.4,4.4,0,0,1-1.78,1.73,5.5,5.5,0,0,1-2.64.61,5.59,5.59,0,0,1-2.66-.61,4.39,4.39,0,0,1-1.79-1.73,5.09,5.09,0,0,1-.64-2.57,5,5,0,0,1,.64-2.55,4.41,4.41,0,0,1,1.79-1.72,5.59,5.59,0,0,1,2.66-.61A5.5,5.5,0,0,1,250.76,86.27Zm-4.62,2.2a3.31,3.31,0,0,0,0,4.21,2.58,2.58,0,0,0,2,.81,2.54,2.54,0,0,0,1.94-.81,3.31,3.31,0,0,0,0-4.21,2.54,2.54,0,0,0-1.94-.81A2.58,2.58,0,0,0,246.15,88.46Z"/><path class="cls-3" d="M265.26,94.76a4.57,4.57,0,0,1-2.41.7,2.88,2.88,0,0,1-2-.73,2.78,2.78,0,0,1-.79-2.15V87.83h-1.35l0-1.71H260V83.48h2.32v2.65h2.75v1.71h-2.75v4.34a1.4,1.4,0,0,0,.25.94,1,1,0,0,0,.76.28,3.34,3.34,0,0,0,1.37-.4Z"/><path class="cls-3" d="M275.61,86.63a3.76,3.76,0,0,1,1,2.71v6h-2.36V90a2.17,2.17,0,0,0-.58-1.59,2.1,2.1,0,0,0-1.57-.58,2.4,2.4,0,0,0-1.85.79,2.88,2.88,0,0,0-.68,2v4.73h-2.34V82h2.34v5.56A3.65,3.65,0,0,1,273,85.64,3.44,3.44,0,0,1,275.61,86.63Z"/><path class="cls-3" d="M286.67,87a5.38,5.38,0,0,1,1.16,3.69q0,.47,0,.7h-7.11a2.68,2.68,0,0,0,2.75,2.2,3.65,3.65,0,0,0,1.41-.28,3.46,3.46,0,0,0,1.18-.8l1.26,1.31A4.88,4.88,0,0,1,285.56,95a5.9,5.9,0,0,1-2.29.43,5.36,5.36,0,0,1-2.6-.61,4.27,4.27,0,0,1-1.74-1.72,5.59,5.59,0,0,1,0-5.1,4.4,4.4,0,0,1,1.74-1.74,5.13,5.13,0,0,1,2.54-.62A4.38,4.38,0,0,1,286.67,87Zm-1,2.83a2.34,2.34,0,0,0-.7-1.69,2.74,2.74,0,0,0-3.48,0,2.74,2.74,0,0,0-.86,1.7Z"/><path class="cls-3" d="M116.6,108.24a3.76,3.76,0,0,1,1,2.71v6h-2.36v-5.33a2.17,2.17,0,0,0-.58-1.59,2.1,2.1,0,0,0-1.57-.58,2.4,2.4,0,0,0-1.85.79,2.88,2.88,0,0,0-.68,2V117h-2.34V103.6h2.34v5.56a3.65,3.65,0,0,1,3.47-1.93A3.44,3.44,0,0,1,116.6,108.24Z"/><path class="cls-3" d="M125.87,117v-1.17a3.16,3.16,0,0,1-1.3,1,4.77,4.77,0,0,1-1.82.32,3.87,3.87,0,0,1-1.77-.39,2.83,2.83,0,0,1-1.18-1.07,2.89,2.89,0,0,1-.41-1.53,2.56,2.56,0,0,1,1-2.12,4.3,4.3,0,0,1,2.7-.78h2.81v-.25a1.62,1.62,0,0,0-.56-1.31,2.46,2.46,0,0,0-1.62-.47,5.57,5.57,0,0,0-2.86.9l-.85-1.62a10.68,10.68,0,0,1,2.06-.91,7.57,7.57,0,0,1,2.17-.28,4.29,4.29,0,0,1,2.91.9,3.21,3.21,0,0,1,1.05,2.52l0,6.3Zm-.83-2.17a1.66,1.66,0,0,0,.81-1.18v-.86h-2.43A2.64,2.64,0,0,0,122,113a1,1,0,0,0-.44.91,1.17,1.17,0,0,0,.46,1,2,2,0,0,0,1.25.36A3.06,3.06,0,0,0,125,114.79Z"/><path class="cls-3" d="M134.9,109.31a2.46,2.46,0,0,0-1.9.79,2.91,2.91,0,0,0-.73,2.05,3,3,0,0,0,.73,2.09,2.46,2.46,0,0,0,1.9.79,3.05,3.05,0,0,0,2.59-1.13L139,115.1a4.26,4.26,0,0,1-1.71,1.44,5.7,5.7,0,0,1-2.47.5,5.13,5.13,0,0,1-2.53-.61,4.29,4.29,0,0,1-1.72-1.72,5.62,5.62,0,0,1,0-5.12,4.36,4.36,0,0,1,1.73-1.73,5.18,5.18,0,0,1,2.55-.61,5.75,5.75,0,0,1,2.35.46,4.25,4.25,0,0,1,1.68,1.3l-1.42,1.35A3.26,3.26,0,0,0,134.9,109.31Z"/><path class="cls-3" d="M146.58,116.36a4.57,4.57,0,0,1-2.41.7,2.88,2.88,0,0,1-2-.73,2.78,2.78,0,0,1-.79-2.15v-4.75H140l0-1.71h1.37v-2.65h2.32v2.65h2.75v1.71h-2.75v4.34a1.4,1.4,0,0,0,.25.94,1,1,0,0,0,.76.28,3.34,3.34,0,0,0,1.37-.4Z"/><path class="cls-3" d="M155.18,107.87a4.42,4.42,0,0,1,1.78,1.72,5,5,0,0,1,.64,2.55,5.09,5.09,0,0,1-.64,2.57,4.4,4.4,0,0,1-1.78,1.73,5.5,5.5,0,0,1-2.64.61,5.59,5.59,0,0,1-2.66-.61,4.39,4.39,0,0,1-1.79-1.73,5.09,5.09,0,0,1-.64-2.57,5,5,0,0,1,.64-2.55,4.41,4.41,0,0,1,1.79-1.72,5.59,5.59,0,0,1,2.66-.61A5.5,5.5,0,0,1,155.18,107.87Zm-4.62,2.2a3.31,3.31,0,0,0,0,4.21,2.58,2.58,0,0,0,2,.81,2.54,2.54,0,0,0,1.94-.81,3.31,3.31,0,0,0,0-4.21,2.54,2.54,0,0,0-1.94-.81A2.58,2.58,0,0,0,150.56,110.06Z"/><path class="cls-3" d="M167.69,107.88a4.19,4.19,0,0,1,1.6,1.74,5.61,5.61,0,0,1,.57,2.57,5.52,5.52,0,0,1-.56,2.54,4.11,4.11,0,0,1-1.58,1.71,4.55,4.55,0,0,1-2.38.61,4.14,4.14,0,0,1-1.91-.42,3.6,3.6,0,0,1-1.37-1.23V117h-2.34V103.6h2.34v5.31a3.48,3.48,0,0,1,1.34-1.23,4.1,4.1,0,0,1,1.9-.42A4.54,4.54,0,0,1,167.69,107.88Zm-1,6.34a3,3,0,0,0,.76-2.1,2.94,2.94,0,0,0-.76-2.09,2.76,2.76,0,0,0-3.91,0,3.29,3.29,0,0,0,0,4.19,2.56,2.56,0,0,0,2,.81A2.53,2.53,0,0,0,166.73,114.21Z"/><path class="cls-3" d="M179.37,108.57a5.38,5.38,0,0,1,1.16,3.69q0,.47,0,.7H173.4a2.68,2.68,0,0,0,2.75,2.2,3.65,3.65,0,0,0,1.41-.28,3.46,3.46,0,0,0,1.18-.8l1.26,1.31a4.88,4.88,0,0,1-1.75,1.22A5.9,5.9,0,0,1,176,117a5.36,5.36,0,0,1-2.6-.61,4.27,4.27,0,0,1-1.74-1.72,5.59,5.59,0,0,1,0-5.1,4.4,4.4,0,0,1,1.74-1.74,5.13,5.13,0,0,1,2.54-.62A4.38,4.38,0,0,1,179.37,108.57Zm-1,2.83a2.34,2.34,0,0,0-.7-1.69,2.74,2.74,0,0,0-3.48,0,2.74,2.74,0,0,0-.86,1.7Z"/><path class="cls-3" d="M186.21,107.75a3.89,3.89,0,0,1,2-.51v2.27a3.18,3.18,0,0,0-2.38.69,2.67,2.67,0,0,0-.89,2.12V117h-2.34v-9.63h2.34v1.85A3.49,3.49,0,0,1,186.21,107.75Z"/><path class="cls-3" d="M192.92,105.81a1.15,1.15,0,0,0-.35.92v1H195v1.71h-2.41V117h-2.34v-7.52H189v-1.71h1.26v-.92a3.33,3.33,0,0,1,.47-1.81,3,3,0,0,1,1.25-1.12,3.86,3.86,0,0,1,1.7-.38,4,4,0,0,1,1.76.41L195,105.8a3.38,3.38,0,0,0-1.19-.29A1.31,1.31,0,0,0,192.92,105.81Z"/><path class="cls-3" d="M203.67,108.57a5.38,5.38,0,0,1,1.16,3.69q0,.47,0,.7H197.7a2.68,2.68,0,0,0,2.75,2.2,3.65,3.65,0,0,0,1.41-.28,3.46,3.46,0,0,0,1.18-.8l1.26,1.31a4.88,4.88,0,0,1-1.75,1.22,5.9,5.9,0,0,1-2.29.43,5.36,5.36,0,0,1-2.6-.61,4.27,4.27,0,0,1-1.74-1.72,5.59,5.59,0,0,1,0-5.1,4.4,4.4,0,0,1,1.74-1.74,5.13,5.13,0,0,1,2.54-.62A4.38,4.38,0,0,1,203.67,108.57Zm-1,2.83a2.34,2.34,0,0,0-.7-1.69,2.74,2.74,0,0,0-3.48,0,2.74,2.74,0,0,0-.86,1.7Z"/><path class="cls-3" d="M211.11,109.29a4.63,4.63,0,0,0-1.38-.23,1.86,1.86,0,0,0-.95.21.69.69,0,0,0-.35.64.76.76,0,0,0,.44.69,7.13,7.13,0,0,0,1.39.51,13.46,13.46,0,0,1,1.66.6,3.13,3.13,0,0,1,1.13.88,2.36,2.36,0,0,1,.48,1.54,2.48,2.48,0,0,1-1.08,2.16,4.63,4.63,0,0,1-2.72.76,6.91,6.91,0,0,1-2.18-.35,5.13,5.13,0,0,1-1.8-1l.81-1.64a4.73,4.73,0,0,0,1.55.87,5.16,5.16,0,0,0,1.71.32,2.06,2.06,0,0,0,1-.22.73.73,0,0,0,.39-.68.81.81,0,0,0-.45-.76,8,8,0,0,0-1.46-.56,12.33,12.33,0,0,1-1.58-.57,2.86,2.86,0,0,1-1.06-.85,2.32,2.32,0,0,1-.45-1.49,2.51,2.51,0,0,1,1-2.17,4.33,4.33,0,0,1,2.6-.75,6.67,6.67,0,0,1,1.88.27,5.83,5.83,0,0,1,1.65.76l-.85,1.69A6.91,6.91,0,0,0,211.11,109.29Z"/><path class="cls-3" d="M221.16,116.36a4.57,4.57,0,0,1-2.41.7,2.88,2.88,0,0,1-2-.73,2.78,2.78,0,0,1-.79-2.15v-4.75h-1.35l0-1.71h1.37v-2.65h2.32v2.65H221v1.71h-2.75v4.34a1.4,1.4,0,0,0,.25.94,1,1,0,0,0,.76.28,3.34,3.34,0,0,0,1.37-.4Z"/><path class="cls-3" d="M229.51,103.58a1.4,1.4,0,0,1,.38,1,1.38,1.38,0,0,1-.38,1,1.35,1.35,0,0,1-1.91,0,1.38,1.38,0,0,1-.38-1,1.4,1.4,0,0,1,.38-1,1.35,1.35,0,0,1,1.91,0Zm-2.11,3.74h2.34V117H227.4Z"/><path class="cls-3" d="M236.9,109.29a4.63,4.63,0,0,0-1.38-.23,1.86,1.86,0,0,0-.95.21.69.69,0,0,0-.35.64.76.76,0,0,0,.44.69,7.13,7.13,0,0,0,1.39.51,13.46,13.46,0,0,1,1.66.6,3.13,3.13,0,0,1,1.13.88,2.36,2.36,0,0,1,.48,1.54,2.48,2.48,0,0,1-1.08,2.16,4.63,4.63,0,0,1-2.72.76,6.91,6.91,0,0,1-2.18-.35,5.13,5.13,0,0,1-1.8-1l.81-1.64a4.73,4.73,0,0,0,1.55.87,5.16,5.16,0,0,0,1.71.32,2.06,2.06,0,0,0,1-.22.73.73,0,0,0,.39-.68.81.81,0,0,0-.45-.76,8,8,0,0,0-1.46-.56,12.33,12.33,0,0,1-1.58-.57,2.86,2.86,0,0,1-1.06-.85,2.32,2.32,0,0,1-.45-1.49,2.51,2.51,0,0,1,1-2.17,4.33,4.33,0,0,1,2.6-.75,6.67,6.67,0,0,1,1.88.27,5.83,5.83,0,0,1,1.65.76l-.85,1.69A6.91,6.91,0,0,0,236.9,109.29Z"/><path class="cls-3" d="M245.57,109.29a4.63,4.63,0,0,0-1.38-.23,1.86,1.86,0,0,0-.95.21.69.69,0,0,0-.35.64.76.76,0,0,0,.44.69,7.13,7.13,0,0,0,1.39.51,13.46,13.46,0,0,1,1.66.6,3.13,3.13,0,0,1,1.13.88,2.36,2.36,0,0,1,.48,1.54,2.48,2.48,0,0,1-1.08,2.16,4.63,4.63,0,0,1-2.72.76,6.91,6.91,0,0,1-2.18-.35,5.13,5.13,0,0,1-1.8-1l.81-1.64a4.73,4.73,0,0,0,1.55.87,5.16,5.16,0,0,0,1.71.32,2.06,2.06,0,0,0,1-.22.73.73,0,0,0,.39-.68.81.81,0,0,0-.45-.76,8,8,0,0,0-1.46-.56,12.33,12.33,0,0,1-1.58-.57,2.86,2.86,0,0,1-1.06-.85,2.32,2.32,0,0,1-.45-1.49,2.51,2.51,0,0,1,1-2.17,4.33,4.33,0,0,1,2.6-.75,6.67,6.67,0,0,1,1.88.27,5.83,5.83,0,0,1,1.65.76l-.85,1.69A6.91,6.91,0,0,0,245.57,109.29Z"/><path class="cls-3" d="M258.88,107.33V117h-2.36v-1.78a3.46,3.46,0,0,1-3.35,1.87,3.35,3.35,0,0,1-2.56-1,3.77,3.77,0,0,1-.94-2.7v-6H252v5.35a2.2,2.2,0,0,0,.55,1.58,2,2,0,0,0,1.52.58,2.23,2.23,0,0,0,1.76-.79,3,3,0,0,0,.65-2v-4.75Z"/><path class="cls-3" d="M269.28,108.57a5.38,5.38,0,0,1,1.16,3.69q0,.47,0,.7h-7.11a2.68,2.68,0,0,0,2.75,2.2,3.65,3.65,0,0,0,1.41-.28,3.46,3.46,0,0,0,1.18-.8l1.26,1.31a4.88,4.88,0,0,1-1.75,1.22,5.9,5.9,0,0,1-2.29.43,5.36,5.36,0,0,1-2.6-.61,4.27,4.27,0,0,1-1.74-1.72,5.59,5.59,0,0,1,0-5.1,4.4,4.4,0,0,1,1.74-1.74,5.13,5.13,0,0,1,2.54-.62A4.38,4.38,0,0,1,269.28,108.57Zm-1,2.83a2.34,2.34,0,0,0-.7-1.69,2.74,2.74,0,0,0-3.48,0,2.74,2.74,0,0,0-.86,1.7Z"/><path class="cls-3" d="M276.71,109.29a4.63,4.63,0,0,0-1.38-.23,1.86,1.86,0,0,0-.95.21.69.69,0,0,0-.35.64.76.76,0,0,0,.44.69,7.13,7.13,0,0,0,1.39.51,13.46,13.46,0,0,1,1.66.6,3.13,3.13,0,0,1,1.13.88,2.36,2.36,0,0,1,.48,1.54,2.48,2.48,0,0,1-1.08,2.16,4.63,4.63,0,0,1-2.72.76,6.91,6.91,0,0,1-2.18-.35,5.13,5.13,0,0,1-1.8-1l.81-1.64a4.73,4.73,0,0,0,1.55.87,5.16,5.16,0,0,0,1.71.32,2.06,2.06,0,0,0,1-.22.73.73,0,0,0,.39-.68.81.81,0,0,0-.45-.76,8,8,0,0,0-1.46-.56,12.33,12.33,0,0,1-1.58-.57,2.86,2.86,0,0,1-1.06-.85,2.32,2.32,0,0,1-.45-1.49,2.51,2.51,0,0,1,1-2.17,4.33,4.33,0,0,1,2.6-.75,6.67,6.67,0,0,1,1.88.27,5.83,5.83,0,0,1,1.65.76l-.85,1.69A6.91,6.91,0,0,0,276.71,109.29Z"/><path class="cls-3" d="M292.39,107.87a4.42,4.42,0,0,1,1.78,1.72,5,5,0,0,1,.64,2.55,5.09,5.09,0,0,1-.64,2.57,4.4,4.4,0,0,1-1.78,1.73,5.5,5.5,0,0,1-2.64.61,5.59,5.59,0,0,1-2.66-.61,4.39,4.39,0,0,1-1.79-1.73,5.09,5.09,0,0,1-.64-2.57,5,5,0,0,1,.64-2.55,4.41,4.41,0,0,1,1.79-1.72,5.59,5.59,0,0,1,2.66-.61A5.5,5.5,0,0,1,292.39,107.87Zm-4.62,2.2a3.31,3.31,0,0,0,0,4.21,2.58,2.58,0,0,0,2,.81,2.54,2.54,0,0,0,1.94-.81,3.31,3.31,0,0,0,0-4.21,2.54,2.54,0,0,0-1.94-.81A2.58,2.58,0,0,0,287.78,110.06Z"/><path class="cls-3" d="M305.25,108.24a3.76,3.76,0,0,1,1,2.71v6h-2.36v-5.33a2.17,2.17,0,0,0-.58-1.59,2.1,2.1,0,0,0-1.57-.58,2.37,2.37,0,0,0-1.85.79,2.91,2.91,0,0,0-.67,2V117h-2.34v-9.63h2.34v1.8a3.65,3.65,0,0,1,3.46-1.89A3.44,3.44,0,0,1,305.25,108.24Z"/><path class="cls-3" d="M136.35,126.64a6.44,6.44,0,0,1,2.42,8.88,6.41,6.41,0,0,1-2.42,2.35,7.17,7.17,0,0,1-6.82,0,6.4,6.4,0,0,1-2.42-2.35,6.38,6.38,0,0,1,2.42-8.88,7.3,7.3,0,0,1,6.82,0Zm-5.52,1.88a4.31,4.31,0,0,0-1.56,5.9,4.34,4.34,0,0,0,1.57,1.57,4.13,4.13,0,0,0,2.13.58,4.05,4.05,0,0,0,2.11-.58,4.23,4.23,0,0,0,1.54-1.57,4.31,4.31,0,0,0,.57-2.18,4.26,4.26,0,0,0-.57-2.17,4.19,4.19,0,0,0-1.54-1.55A4.11,4.11,0,0,0,133,128,4.24,4.24,0,0,0,130.83,128.52Z"/><path class="cls-3" d="M149.74,129.47a4.19,4.19,0,0,1,1.6,1.74,5.61,5.61,0,0,1,.57,2.57,5.52,5.52,0,0,1-.56,2.54,4.11,4.11,0,0,1-1.58,1.71,4.55,4.55,0,0,1-2.38.61,4.14,4.14,0,0,1-1.91-.42,3.6,3.6,0,0,1-1.37-1.23V142h-2.34V128.93h2.34v1.58a3.48,3.48,0,0,1,1.34-1.23,4.1,4.1,0,0,1,1.9-.42A4.54,4.54,0,0,1,149.74,129.47Zm-1,6.34a3,3,0,0,0,.76-2.1,2.94,2.94,0,0,0-.76-2.09,2.76,2.76,0,0,0-3.91,0,3.29,3.29,0,0,0,0,4.19,2.56,2.56,0,0,0,2,.81A2.53,2.53,0,0,0,148.78,135.81Z"/><path class="cls-3" d="M161.42,130.17a5.38,5.38,0,0,1,1.16,3.69q0,.47,0,.7h-7.11a2.68,2.68,0,0,0,2.75,2.2,3.65,3.65,0,0,0,1.41-.28,3.46,3.46,0,0,0,1.18-.8l1.26,1.31a4.88,4.88,0,0,1-1.75,1.22,5.9,5.9,0,0,1-2.29.43,5.36,5.36,0,0,1-2.6-.61,4.27,4.27,0,0,1-1.74-1.72,5.59,5.59,0,0,1,0-5.1,4.4,4.4,0,0,1,1.74-1.74,5.13,5.13,0,0,1,2.54-.62A4.38,4.38,0,0,1,161.42,130.17Zm-1,2.83a2.34,2.34,0,0,0-.7-1.69,2.74,2.74,0,0,0-3.48,0,2.74,2.74,0,0,0-.86,1.7Z"/><path class="cls-3" d="M173,129.83a3.76,3.76,0,0,1,1,2.71v6H171.6v-5.33a2.17,2.17,0,0,0-.58-1.59,2.1,2.1,0,0,0-1.57-.58,2.37,2.37,0,0,0-1.85.79,2.91,2.91,0,0,0-.67,2v4.73H164.6v-9.63h2.34v1.8a3.65,3.65,0,0,1,3.46-1.89A3.44,3.44,0,0,1,173,129.83Z"/><path class="cls-3" d="M176.68,126h9.23v2.11h-6.82v3.11h6.12v2.11h-6.12v3.17h7v2.11h-9.45Z"/><path class="cls-3" d="M197.35,126.8a2.7,2.7,0,0,1,1.16,2.3,2.76,2.76,0,0,1-2.2,2.79,3.25,3.25,0,0,1,2,1.08,3.17,3.17,0,0,1,.71,2.11,3,3,0,0,1-1.25,2.55,5.61,5.61,0,0,1-3.41.93h-5.76V126h5.6A5.29,5.29,0,0,1,197.35,126.8Zm-1.84,3.89a1.38,1.38,0,0,0,.53-1.15,1.31,1.31,0,0,0-.53-1.12A2.34,2.34,0,0,0,194,128H191v3.06H194A2.33,2.33,0,0,0,195.52,130.69Zm.33,5.35a1.45,1.45,0,0,0,.65-1.26,1.39,1.39,0,0,0-.65-1.21,3.09,3.09,0,0,0-1.8-.42H191v3.33H194A3,3,0,0,0,195.85,136Z"/><path class="cls-3" d="M207.27,128.28a6,6,0,0,0-1.79-.32,2.51,2.51,0,0,0-1.37.32,1,1,0,0,0-.5.9,1.18,1.18,0,0,0,.35.87,2.77,2.77,0,0,0,.88.58,14.24,14.24,0,0,0,1.45.5,15.84,15.84,0,0,1,2.1.76,3.75,3.75,0,0,1,1.4,1.12,3.07,3.07,0,0,1,.58,1.94,3.32,3.32,0,0,1-.62,2,3.89,3.89,0,0,1-1.71,1.31,6.49,6.49,0,0,1-2.49.45,7.84,7.84,0,0,1-2.88-.55,8.14,8.14,0,0,1-2.45-1.47l1-2.05a7.38,7.38,0,0,0,2.14,1.39,5.7,5.7,0,0,0,2.21.5,2.81,2.81,0,0,0,1.58-.39,1.27,1.27,0,0,0,.22-1.94,2.62,2.62,0,0,0-.89-.57q-.54-.22-1.48-.49a17.45,17.45,0,0,1-2.09-.74,3.61,3.61,0,0,1-1.39-1.09,3,3,0,0,1-.58-1.92,3.22,3.22,0,0,1,.58-1.92,3.76,3.76,0,0,1,1.66-1.27,6.35,6.35,0,0,1,2.47-.45,8.39,8.39,0,0,1,2.42.36,8.2,8.2,0,0,1,2.13,1l-1,2.11A9.15,9.15,0,0,0,207.27,128.28Z"/><path class="cls-3" d="M222.65,138.56v-1.17a3.16,3.16,0,0,1-1.3,1,4.77,4.77,0,0,1-1.82.32,3.87,3.87,0,0,1-1.77-.39,2.83,2.83,0,0,1-1.18-1.07,2.89,2.89,0,0,1-.41-1.53,2.56,2.56,0,0,1,1-2.12,4.3,4.3,0,0,1,2.7-.78h2.81v-.25a1.62,1.62,0,0,0-.56-1.31,2.46,2.46,0,0,0-1.62-.47,5.57,5.57,0,0,0-2.86.9l-.85-1.62a10.68,10.68,0,0,1,2.06-.91,7.57,7.57,0,0,1,2.17-.28,4.29,4.29,0,0,1,2.91.9,3.21,3.21,0,0,1,1.05,2.52l0,6.3Zm-.83-2.17a1.66,1.66,0,0,0,.81-1.18v-.86H220.2a2.64,2.64,0,0,0-1.38.28,1,1,0,0,0-.44.91,1.17,1.17,0,0,0,.46,1,2,2,0,0,0,1.25.36A3.06,3.06,0,0,0,221.82,136.39Z"/><path class="cls-3" d="M236,129.83a3.76,3.76,0,0,1,1,2.71v6h-2.36v-5.33a2.17,2.17,0,0,0-.58-1.59,2.1,2.1,0,0,0-1.57-.58,2.37,2.37,0,0,0-1.85.79,2.91,2.91,0,0,0-.67,2v4.73h-2.34v-9.63h2.34v1.8a3.65,3.65,0,0,1,3.46-1.89A3.44,3.44,0,0,1,236,129.83Z"/><path class="cls-3" d="M248.86,125.2v13.36h-2.34V137a3.47,3.47,0,0,1-1.34,1.23,4.08,4.08,0,0,1-1.9.42,4.58,4.58,0,0,1-2.4-.62,4.24,4.24,0,0,1-1.61-1.75,5.58,5.58,0,0,1-.58-2.58,5.51,5.51,0,0,1,.57-2.55,4.15,4.15,0,0,1,1.6-1.72,4.57,4.57,0,0,1,2.37-.61,4.1,4.1,0,0,1,1.93.43,3.67,3.67,0,0,1,1.37,1.24V125.2Zm-3.11,10.68a3.3,3.3,0,0,0,0-4.23,2.58,2.58,0,0,0-2-.82,2.55,2.55,0,0,0-2,.82,3.28,3.28,0,0,0,0,4.23,2.55,2.55,0,0,0,2,.82A2.58,2.58,0,0,0,245.75,135.88Z"/><path class="cls-3" d="M254.8,128.94l2.41,0,2.36,7.27,2.29-7.27h2.36l2.32,7.27,2.3-7.27h2.36l-3.49,9.63h-2.39l-2.3-6.79-2.29,6.79h-2.39Z"/><path class="cls-3" d="M274.67,125.18a1.4,1.4,0,0,1,.38,1,1.38,1.38,0,0,1-.38,1,1.35,1.35,0,0,1-1.91,0,1.38,1.38,0,0,1-.38-1,1.4,1.4,0,0,1,.38-1,1.35,1.35,0,0,1,1.91,0Zm-2.11,3.74h2.34v9.63h-2.34Z"/><path class="cls-3" d="M286.21,129.83a3.76,3.76,0,0,1,1,2.71v6H284.8v-5.33a2.17,2.17,0,0,0-.58-1.59,2.1,2.1,0,0,0-1.57-.58,2.37,2.37,0,0,0-1.85.79,2.91,2.91,0,0,0-.67,2v4.73H277.8v-9.63h2.34v1.8a3.65,3.65,0,0,1,3.46-1.89A3.44,3.44,0,0,1,286.21,129.83Z"/><path class="cls-3" d="M91.34,152.51a2.46,2.46,0,0,0-1.9.79,2.91,2.91,0,0,0-.73,2.05,3,3,0,0,0,.73,2.09,2.46,2.46,0,0,0,1.9.79,3.05,3.05,0,0,0,2.59-1.13l1.46,1.21a4.26,4.26,0,0,1-1.71,1.44,5.7,5.7,0,0,1-2.47.5,5.13,5.13,0,0,1-2.53-.61A4.29,4.29,0,0,1,87,157.92a5.62,5.62,0,0,1,0-5.12,4.36,4.36,0,0,1,1.73-1.73,5.18,5.18,0,0,1,2.55-.61,5.75,5.75,0,0,1,2.35.46,4.25,4.25,0,0,1,1.68,1.3l-1.42,1.35A3.26,3.26,0,0,0,91.34,152.51Z"/><path class="cls-3" d="M103.9,151.07a4.42,4.42,0,0,1,1.78,1.72,5,5,0,0,1,.64,2.55,5.09,5.09,0,0,1-.64,2.57,4.4,4.4,0,0,1-1.78,1.73,5.5,5.5,0,0,1-2.64.61,5.59,5.59,0,0,1-2.66-.61,4.39,4.39,0,0,1-1.79-1.73,5.09,5.09,0,0,1-.64-2.57,5,5,0,0,1,.64-2.55,4.41,4.41,0,0,1,1.79-1.72,5.59,5.59,0,0,1,2.66-.61A5.5,5.5,0,0,1,103.9,151.07Zm-4.62,2.2a3.31,3.31,0,0,0,0,4.21,2.58,2.58,0,0,0,2,.81,2.54,2.54,0,0,0,1.94-.81,3.31,3.31,0,0,0,0-4.21,2.54,2.54,0,0,0-1.94-.81A2.58,2.58,0,0,0,99.28,153.26Z"/><path class="cls-3" d="M115.2,151.07a4.42,4.42,0,0,1,1.78,1.72,5,5,0,0,1,.64,2.55,5.09,5.09,0,0,1-.64,2.57,4.4,4.4,0,0,1-1.78,1.73,5.5,5.5,0,0,1-2.64.61,5.59,5.59,0,0,1-2.66-.61,4.39,4.39,0,0,1-1.79-1.73,5.09,5.09,0,0,1-.64-2.57,5,5,0,0,1,.64-2.55,4.41,4.41,0,0,1,1.79-1.72,5.59,5.59,0,0,1,2.66-.61A5.5,5.5,0,0,1,115.2,151.07Zm-4.62,2.2a3.31,3.31,0,0,0,0,4.21,2.58,2.58,0,0,0,2,.81,2.54,2.54,0,0,0,1.94-.81,3.31,3.31,0,0,0,0-4.21,2.54,2.54,0,0,0-1.94-.81A2.58,2.58,0,0,0,110.58,153.26Z"/><path class="cls-3" d="M119.75,146.8h2.34v13.36h-2.34Z"/><path class="cls-3" d="M124.7,153.86h4.52v1.62H124.7Z"/><path class="cls-3" d="M131.84,146.8h2.34v13.36h-2.34Z"/><path class="cls-3" d="M144,151.07a4.42,4.42,0,0,1,1.78,1.72,5,5,0,0,1,.64,2.55,5.09,5.09,0,0,1-.64,2.57,4.4,4.4,0,0,1-1.78,1.73,5.5,5.5,0,0,1-2.64.61,5.59,5.59,0,0,1-2.66-.61,4.39,4.39,0,0,1-1.79-1.73,5.09,5.09,0,0,1-.64-2.57,5,5,0,0,1,.64-2.55,4.41,4.41,0,0,1,1.79-1.72,5.59,5.59,0,0,1,2.66-.61A5.5,5.5,0,0,1,144,151.07Zm-4.62,2.2a3.31,3.31,0,0,0,0,4.21,2.58,2.58,0,0,0,2,.81,2.54,2.54,0,0,0,1.94-.81,3.31,3.31,0,0,0,0-4.21,2.54,2.54,0,0,0-1.94-.81A2.58,2.58,0,0,0,139.42,153.26Z"/><path class="cls-3" d="M155.34,151.07a4.42,4.42,0,0,1,1.78,1.72,5,5,0,0,1,.64,2.55,5.09,5.09,0,0,1-.64,2.57,4.4,4.4,0,0,1-1.78,1.73,5.5,5.5,0,0,1-2.64.61,5.59,5.59,0,0,1-2.66-.61,4.39,4.39,0,0,1-1.79-1.73,5.09,5.09,0,0,1-.64-2.57,5,5,0,0,1,.64-2.55,4.41,4.41,0,0,1,1.79-1.72,5.59,5.59,0,0,1,2.66-.61A5.5,5.5,0,0,1,155.34,151.07Zm-4.62,2.2a3.31,3.31,0,0,0,0,4.21,2.58,2.58,0,0,0,2,.81,2.54,2.54,0,0,0,1.94-.81,3.31,3.31,0,0,0,0-4.21,2.54,2.54,0,0,0-1.94-.81A2.58,2.58,0,0,0,150.72,153.26Z"/><path class="cls-3" d="M166.31,160.16l-2.61-4.21-1.48,1.55v2.66h-2.34V146.8h2.34v7.74l4-4h2.7l-3.56,3.71,3.78,5.9Z"/><path class="cls-3" d="M172.79,146.78a1.4,1.4,0,0,1,.38,1,1.38,1.38,0,0,1-.38,1,1.35,1.35,0,0,1-1.91,0,1.38,1.38,0,0,1-.38-1,1.4,1.4,0,0,1,.38-1,1.35,1.35,0,0,1,1.91,0Zm-2.11,3.74H173v9.63h-2.34Z"/><path class="cls-3" d="M184.33,151.44a3.76,3.76,0,0,1,1,2.71v6h-2.36v-5.33a2.17,2.17,0,0,0-.58-1.59,2.1,2.1,0,0,0-1.57-.58,2.37,2.37,0,0,0-1.85.79,2.91,2.91,0,0,0-.67,2v4.73h-2.34v-9.63h2.34v1.8a3.65,3.65,0,0,1,3.46-1.89A3.44,3.44,0,0,1,184.33,151.44Z"/><path class="cls-3" d="M196.71,150.53v8.71a4.48,4.48,0,0,1-.62,2.38,4.08,4.08,0,0,1-1.76,1.57,6.08,6.08,0,0,1-2.66.55,7.07,7.07,0,0,1-4.07-1.28l.94-1.69a5,5,0,0,0,3,1,3,3,0,0,0,2.06-.67,2.29,2.29,0,0,0,.76-1.82v-1.13a3.2,3.2,0,0,1-1.26,1.13,4,4,0,0,1-1.8.39,4.24,4.24,0,0,1-2.23-.58,4,4,0,0,1-1.51-1.64A5.23,5.23,0,0,1,187,155a5.07,5.07,0,0,1,.54-2.38,4,4,0,0,1,1.51-1.61,4.3,4.3,0,0,1,2.23-.58,3.92,3.92,0,0,1,1.79.4,3.31,3.31,0,0,1,1.27,1.12v-1.44Zm-3.05,6.54a3.14,3.14,0,0,0,0-4,2.6,2.6,0,0,0-3.69,0,3.07,3.07,0,0,0,0,4,2.61,2.61,0,0,0,3.69,0Z"/><path class="cls-3" d="M212.39,151.44a3.76,3.76,0,0,1,1,2.71v6H211v-5.33a2.17,2.17,0,0,0-.58-1.59,2.1,2.1,0,0,0-1.57-.58,2.4,2.4,0,0,0-1.85.79,2.88,2.88,0,0,0-.68,2v4.73H204V146.8h2.34v5.56a3.65,3.65,0,0,1,3.47-1.93A3.44,3.44,0,0,1,212.39,151.44Z"/><path class="cls-3" d="M221.66,160.16V159a3.16,3.16,0,0,1-1.3,1,4.77,4.77,0,0,1-1.82.32,3.87,3.87,0,0,1-1.77-.39,2.83,2.83,0,0,1-1.18-1.07,2.89,2.89,0,0,1-.41-1.53,2.56,2.56,0,0,1,1-2.12,4.3,4.3,0,0,1,2.7-.78h2.81v-.25a1.62,1.62,0,0,0-.56-1.31,2.46,2.46,0,0,0-1.62-.47,5.57,5.57,0,0,0-2.86.9l-.85-1.62a10.68,10.68,0,0,1,2.06-.91,7.57,7.57,0,0,1,2.17-.28,4.29,4.29,0,0,1,2.91.9,3.21,3.21,0,0,1,1.05,2.52l0,6.3Zm-.83-2.17a1.66,1.66,0,0,0,.81-1.18v-.86h-2.43a2.64,2.64,0,0,0-1.38.28,1,1,0,0,0-.44.91,1.17,1.17,0,0,0,.46,1,2,2,0,0,0,1.25.36A3.06,3.06,0,0,0,220.83,158Z"/><path class="cls-3" d="M230.69,152.51a2.46,2.46,0,0,0-1.9.79,2.91,2.91,0,0,0-.73,2.05,3,3,0,0,0,.73,2.09,2.46,2.46,0,0,0,1.9.79,3.05,3.05,0,0,0,2.59-1.13l1.46,1.21a4.26,4.26,0,0,1-1.71,1.44,5.7,5.7,0,0,1-2.47.5,5.13,5.13,0,0,1-2.53-.61,4.29,4.29,0,0,1-1.72-1.72,5.62,5.62,0,0,1,0-5.12,4.36,4.36,0,0,1,1.73-1.73,5.18,5.18,0,0,1,2.55-.61,5.75,5.75,0,0,1,2.35.46,4.25,4.25,0,0,1,1.68,1.3l-1.42,1.35A3.26,3.26,0,0,0,230.69,152.51Z"/><path class="cls-3" d="M243.26,160.16l-2.61-4.21-1.48,1.55v2.66h-2.34V146.8h2.34v7.74l4-4h2.7l-3.56,3.71,3.78,5.9Z"/><path class="cls-3" d="M253.27,159.56a4.57,4.57,0,0,1-2.41.7,2.88,2.88,0,0,1-2-.73,2.78,2.78,0,0,1-.79-2.15v-4.75h-1.35l0-1.71H248v-2.65h2.32v2.65h2.75v1.71h-2.75V157a1.4,1.4,0,0,0,.25.94,1,1,0,0,0,.76.28,3.34,3.34,0,0,0,1.37-.4Z"/><path class="cls-3" d="M261.86,151.07a4.42,4.42,0,0,1,1.78,1.72,5,5,0,0,1,.64,2.55,5.09,5.09,0,0,1-.64,2.57,4.4,4.4,0,0,1-1.78,1.73,5.5,5.5,0,0,1-2.64.61,5.59,5.59,0,0,1-2.66-.61,4.39,4.39,0,0,1-1.79-1.73,5.09,5.09,0,0,1-.64-2.57,5,5,0,0,1,.64-2.55,4.41,4.41,0,0,1,1.79-1.72,5.59,5.59,0,0,1,2.66-.61A5.5,5.5,0,0,1,261.86,151.07Zm-4.62,2.2a3.31,3.31,0,0,0,0,4.21,2.58,2.58,0,0,0,2,.81,2.54,2.54,0,0,0,1.94-.81,3.31,3.31,0,0,0,0-4.21,2.54,2.54,0,0,0-1.94-.81A2.58,2.58,0,0,0,257.25,153.26Z"/><path class="cls-3" d="M274.37,151.08a4.19,4.19,0,0,1,1.6,1.74,5.61,5.61,0,0,1,.57,2.57,5.52,5.52,0,0,1-.56,2.54,4.11,4.11,0,0,1-1.58,1.71,4.55,4.55,0,0,1-2.38.61,4.14,4.14,0,0,1-1.91-.42,3.6,3.6,0,0,1-1.37-1.23v1.57h-2.34V146.8h2.34v5.31a3.48,3.48,0,0,1,1.34-1.23,4.1,4.1,0,0,1,1.9-.42A4.54,4.54,0,0,1,274.37,151.08Zm-1,6.34a3,3,0,0,0,.76-2.1,2.94,2.94,0,0,0-.76-2.09,2.76,2.76,0,0,0-3.91,0,3.29,3.29,0,0,0,0,4.19,2.56,2.56,0,0,0,2,.81A2.53,2.53,0,0,0,273.41,157.41Z"/><path class="cls-3" d="M286.05,151.77a5.38,5.38,0,0,1,1.16,3.69q0,.47,0,.7h-7.11a2.68,2.68,0,0,0,2.75,2.2,3.65,3.65,0,0,0,1.41-.28,3.46,3.46,0,0,0,1.18-.8l1.26,1.31a4.88,4.88,0,0,1-1.75,1.22,5.9,5.9,0,0,1-2.29.43,5.36,5.36,0,0,1-2.6-.61,4.27,4.27,0,0,1-1.74-1.72,5.59,5.59,0,0,1,0-5.1,4.4,4.4,0,0,1,1.74-1.74,5.13,5.13,0,0,1,2.54-.62A4.38,4.38,0,0,1,286.05,151.77Zm-1,2.83a2.34,2.34,0,0,0-.7-1.69,2.74,2.74,0,0,0-3.48,0,2.74,2.74,0,0,0-.86,1.7Z"/><path class="cls-3" d="M292.89,150.95a3.89,3.89,0,0,1,2-.51v2.27a3.18,3.18,0,0,0-2.38.69,2.67,2.67,0,0,0-.89,2.12v4.64h-2.34v-9.63h2.34v1.85A3.49,3.49,0,0,1,292.89,150.95Z"/><path class="cls-3" d="M299.61,149a1.15,1.15,0,0,0-.35.92v1h2.41v1.71h-2.41v7.52h-2.34v-7.52h-1.26v-1.71h1.26V150a3.33,3.33,0,0,1,.47-1.81,3,3,0,0,1,1.25-1.12,3.86,3.86,0,0,1,1.7-.38,4,4,0,0,1,1.76.41l-.41,1.89a3.38,3.38,0,0,0-1.19-.29A1.31,1.31,0,0,0,299.61,149Z"/><path class="cls-3" d="M310.35,151.77a5.38,5.38,0,0,1,1.16,3.69q0,.47,0,.7h-7.11a2.68,2.68,0,0,0,2.75,2.2,3.65,3.65,0,0,0,1.41-.28,3.46,3.46,0,0,0,1.18-.8l1.26,1.31a4.88,4.88,0,0,1-1.75,1.22,5.9,5.9,0,0,1-2.29.43,5.36,5.36,0,0,1-2.6-.61,4.27,4.27,0,0,1-1.74-1.72,5.59,5.59,0,0,1,0-5.1,4.4,4.4,0,0,1,1.74-1.74,5.13,5.13,0,0,1,2.54-.62A4.38,4.38,0,0,1,310.35,151.77Zm-1,2.83a2.34,2.34,0,0,0-.7-1.69,2.74,2.74,0,0,0-3.48,0,2.74,2.74,0,0,0-.86,1.7Z"/><path class="cls-3" d="M317.79,152.49a4.63,4.63,0,0,0-1.38-.23,1.86,1.86,0,0,0-.95.21.69.69,0,0,0-.35.64.76.76,0,0,0,.44.69,7.13,7.13,0,0,0,1.39.51,13.46,13.46,0,0,1,1.66.6,3.13,3.13,0,0,1,1.13.88,2.36,2.36,0,0,1,.48,1.54,2.48,2.48,0,0,1-1.08,2.16,4.63,4.63,0,0,1-2.72.76,6.91,6.91,0,0,1-2.18-.35,5.13,5.13,0,0,1-1.8-1l.81-1.64a4.73,4.73,0,0,0,1.55.87,5.16,5.16,0,0,0,1.71.32,2.06,2.06,0,0,0,1-.22.73.73,0,0,0,.39-.68.81.81,0,0,0-.45-.76,8,8,0,0,0-1.46-.56,12.33,12.33,0,0,1-1.58-.57,2.86,2.86,0,0,1-1.06-.85,2.32,2.32,0,0,1-.45-1.49,2.51,2.51,0,0,1,1-2.17,4.33,4.33,0,0,1,2.6-.75,6.67,6.67,0,0,1,1.88.27,5.83,5.83,0,0,1,1.65.76l-.85,1.69A6.91,6.91,0,0,0,317.79,152.49Z"/><path class="cls-3" d="M327.84,159.56a4.57,4.57,0,0,1-2.41.7,2.88,2.88,0,0,1-2-.73,2.78,2.78,0,0,1-.79-2.15v-4.75h-1.35l0-1.71h1.37v-2.65h2.32v2.65h2.75v1.71h-2.75V157a1.4,1.4,0,0,0,.25.94,1,1,0,0,0,.76.28,3.34,3.34,0,0,0,1.37-.4Z"/><path class="cls-3" d="M141,169.84a6.44,6.44,0,0,1,2.42,8.88,6.41,6.41,0,0,1-2.42,2.35,7.17,7.17,0,0,1-6.82,0,6.4,6.4,0,0,1-2.42-2.35,6.38,6.38,0,0,1,2.42-8.88,7.3,7.3,0,0,1,6.82,0Zm-5.52,1.88a4.31,4.31,0,0,0-1.56,5.9,4.34,4.34,0,0,0,1.57,1.57,4.13,4.13,0,0,0,2.13.58,4.05,4.05,0,0,0,2.11-.58,4.23,4.23,0,0,0,1.54-1.57,4.31,4.31,0,0,0,.57-2.18,4.26,4.26,0,0,0-.57-2.17,4.19,4.19,0,0,0-1.54-1.55,4.11,4.11,0,0,0-2.11-.57A4.24,4.24,0,0,0,135.48,171.72Z"/><path class="cls-3" d="M154.39,172.67a4.19,4.19,0,0,1,1.6,1.74,5.61,5.61,0,0,1,.57,2.57,5.52,5.52,0,0,1-.56,2.54,4.11,4.11,0,0,1-1.58,1.71,4.55,4.55,0,0,1-2.38.61,4.14,4.14,0,0,1-1.91-.42,3.6,3.6,0,0,1-1.37-1.23v5.06h-2.34V172.13h2.34v1.58a3.48,3.48,0,0,1,1.34-1.23,4.1,4.1,0,0,1,1.9-.42A4.54,4.54,0,0,1,154.39,172.67Zm-1,6.34a3,3,0,0,0,.76-2.1,2.94,2.94,0,0,0-.76-2.09,2.76,2.76,0,0,0-3.91,0,3.29,3.29,0,0,0,0,4.19,2.56,2.56,0,0,0,2,.81A2.53,2.53,0,0,0,153.42,179Z"/><path class="cls-3" d="M166.07,173.37a5.38,5.38,0,0,1,1.16,3.69q0,.47,0,.7H160.1a2.68,2.68,0,0,0,2.75,2.2,3.65,3.65,0,0,0,1.41-.28,3.46,3.46,0,0,0,1.18-.8l1.26,1.31a4.88,4.88,0,0,1-1.75,1.22,5.9,5.9,0,0,1-2.29.43,5.36,5.36,0,0,1-2.6-.61,4.27,4.27,0,0,1-1.74-1.72,5.59,5.59,0,0,1,0-5.1,4.4,4.4,0,0,1,1.74-1.74,5.13,5.13,0,0,1,2.54-.62A4.38,4.38,0,0,1,166.07,173.37Zm-1,2.83a2.34,2.34,0,0,0-.7-1.69,2.74,2.74,0,0,0-3.48,0,2.74,2.74,0,0,0-.86,1.7Z"/><path class="cls-3" d="M177.65,173a3.76,3.76,0,0,1,1,2.71v6h-2.36v-5.33a2.17,2.17,0,0,0-.58-1.59,2.1,2.1,0,0,0-1.57-.58,2.37,2.37,0,0,0-1.85.79,2.91,2.91,0,0,0-.67,2v4.73h-2.34v-9.63h2.34v1.8A3.65,3.65,0,0,1,175,172,3.44,3.44,0,0,1,177.65,173Z"/><path class="cls-3" d="M181.32,169.16h9.23v2.11h-6.82v3.11h6.12v2.11h-6.12v3.17h7v2.11h-9.45Z"/><path class="cls-3" d="M202,170a2.7,2.7,0,0,1,1.16,2.3,2.76,2.76,0,0,1-2.2,2.79,3.25,3.25,0,0,1,2,1.08,3.17,3.17,0,0,1,.71,2.11,3,3,0,0,1-1.25,2.55,5.61,5.61,0,0,1-3.41.93h-5.76v-12.6h5.6A5.29,5.29,0,0,1,202,170Zm-1.84,3.89a1.38,1.38,0,0,0,.53-1.15,1.31,1.31,0,0,0-.53-1.12,2.34,2.34,0,0,0-1.47-.38h-3.06v3.06h3.06A2.33,2.33,0,0,0,200.16,173.89Zm.33,5.35a1.45,1.45,0,0,0,.65-1.26,1.39,1.39,0,0,0-.65-1.21,3.09,3.09,0,0,0-1.8-.42h-3.06v3.33h3.06A3,3,0,0,0,200.49,179.24Z"/><path class="cls-3" d="M211.91,171.48a6,6,0,0,0-1.79-.32,2.51,2.51,0,0,0-1.37.32,1,1,0,0,0-.5.9,1.18,1.18,0,0,0,.35.87,2.77,2.77,0,0,0,.88.58,14.24,14.24,0,0,0,1.45.5,15.84,15.84,0,0,1,2.1.76,3.75,3.75,0,0,1,1.4,1.12,3.07,3.07,0,0,1,.58,1.94,3.32,3.32,0,0,1-.62,2,3.89,3.89,0,0,1-1.71,1.31,6.49,6.49,0,0,1-2.49.45,7.84,7.84,0,0,1-2.88-.55,8.14,8.14,0,0,1-2.45-1.47l1-2.05a7.38,7.38,0,0,0,2.14,1.39,5.7,5.7,0,0,0,2.21.5,2.81,2.81,0,0,0,1.58-.39,1.27,1.27,0,0,0,.22-1.94,2.62,2.62,0,0,0-.89-.57q-.54-.22-1.48-.49a17.45,17.45,0,0,1-2.09-.74,3.61,3.61,0,0,1-1.39-1.09,3,3,0,0,1-.58-1.92,3.22,3.22,0,0,1,.58-1.92,3.76,3.76,0,0,1,1.66-1.27,6.35,6.35,0,0,1,2.47-.45,8.39,8.39,0,0,1,2.42.36,8.2,8.2,0,0,1,2.13,1l-1,2.11A9.15,9.15,0,0,0,211.91,171.48Z"/><path class="cls-3" d="M227.24,181.16a4.57,4.57,0,0,1-2.41.7,2.88,2.88,0,0,1-2-.73A2.78,2.78,0,0,1,222,179v-4.75h-1.35l0-1.71H222v-2.65h2.32v2.65h2.75v1.71h-2.75v4.34a1.4,1.4,0,0,0,.25.94,1,1,0,0,0,.76.28,3.34,3.34,0,0,0,1.37-.4Z"/><path class="cls-3" d="M228.68,175.46h4.52v1.62h-4.52Z"/><path class="cls-3" d="M240,174.09a4.63,4.63,0,0,0-1.38-.23,1.86,1.86,0,0,0-.95.21.69.69,0,0,0-.35.64.76.76,0,0,0,.44.69,7.13,7.13,0,0,0,1.39.51,13.46,13.46,0,0,1,1.66.6,3.13,3.13,0,0,1,1.13.88,2.36,2.36,0,0,1,.48,1.54,2.48,2.48,0,0,1-1.08,2.16,4.63,4.63,0,0,1-2.72.76,6.91,6.91,0,0,1-2.18-.35,5.13,5.13,0,0,1-1.8-1l.81-1.64a4.73,4.73,0,0,0,1.55.87,5.16,5.16,0,0,0,1.71.32,2.06,2.06,0,0,0,1-.22.73.73,0,0,0,.39-.68.81.81,0,0,0-.45-.76,8,8,0,0,0-1.46-.56,12.33,12.33,0,0,1-1.58-.57,2.86,2.86,0,0,1-1.06-.85,2.32,2.32,0,0,1-.45-1.49,2.51,2.51,0,0,1,1-2.17,4.33,4.33,0,0,1,2.6-.75,6.67,6.67,0,0,1,1.88.27,5.83,5.83,0,0,1,1.65.76l-.85,1.69A6.91,6.91,0,0,0,240,174.09Z"/><path class="cls-3" d="M252.92,173a3.76,3.76,0,0,1,1,2.71v6h-2.36v-5.33a2.17,2.17,0,0,0-.58-1.59,2.1,2.1,0,0,0-1.57-.58,2.4,2.4,0,0,0-1.85.79,2.88,2.88,0,0,0-.68,2v4.73H244.5V168.4h2.34V174a3.65,3.65,0,0,1,3.47-1.93A3.44,3.44,0,0,1,252.92,173Z"/><path class="cls-3" d="M258.61,168.38a1.4,1.4,0,0,1,.38,1,1.38,1.38,0,0,1-.38,1,1.35,1.35,0,0,1-1.91,0,1.38,1.38,0,0,1-.38-1,1.4,1.4,0,0,1,.38-1,1.35,1.35,0,0,1,1.91,0Zm-2.11,3.74h2.34v9.63h-2.34Z"/><path class="cls-3" d="M265.41,172.55a3.89,3.89,0,0,1,2-.51v2.27A3.18,3.18,0,0,0,265,175a2.67,2.67,0,0,0-.89,2.12v4.64h-2.34v-9.63h2.34V174A3.49,3.49,0,0,1,265.41,172.55Z"/><path class="cls-3" d="M274.63,181.16a4.57,4.57,0,0,1-2.41.7,2.88,2.88,0,0,1-2-.73,2.78,2.78,0,0,1-.79-2.15v-4.75H268l0-1.71h1.37v-2.65h2.32v2.65h2.75v1.71h-2.75v4.34a1.4,1.4,0,0,0,.25.94,1,1,0,0,0,.76.28,3.34,3.34,0,0,0,1.37-.4Z"/><path class="cls-3" d="M280.72,174.09a4.63,4.63,0,0,0-1.38-.23,1.86,1.86,0,0,0-.95.21.69.69,0,0,0-.35.64.76.76,0,0,0,.44.69,7.13,7.13,0,0,0,1.39.51,13.46,13.46,0,0,1,1.66.6,3.13,3.13,0,0,1,1.13.88,2.36,2.36,0,0,1,.48,1.54,2.48,2.48,0,0,1-1.08,2.16,4.63,4.63,0,0,1-2.72.76,6.91,6.91,0,0,1-2.18-.35,5.13,5.13,0,0,1-1.8-1l.81-1.64a4.73,4.73,0,0,0,1.55.87,5.16,5.16,0,0,0,1.71.32,2.06,2.06,0,0,0,1-.22.73.73,0,0,0,.39-.68.81.81,0,0,0-.45-.76,8,8,0,0,0-1.46-.56,12.33,12.33,0,0,1-1.58-.57,2.86,2.86,0,0,1-1.06-.85,2.32,2.32,0,0,1-.45-1.49,2.51,2.51,0,0,1,1-2.17,4.33,4.33,0,0,1,2.6-.75,6.67,6.67,0,0,1,1.88.27A5.83,5.83,0,0,1,283,173l-.85,1.69A6.91,6.91,0,0,0,280.72,174.09Z"/></svg>