<svg id="Layer_1" data-name="Layer 1" xmlns="http://www.w3.org/2000/svg" xmlns:xlink="http://www.w3.org/1999/xlink" viewBox="0 0 631 552"><defs><style>.cls-1,.cls-17{fill:none;}.cls-2{fill:#273274;}.cls-3{clip-path:url(#clip-path);}.cls-4{opacity:0.8;}.cls-5{clip-path:url(#clip-path-2);}.cls-16,.cls-6,.cls-7,.cls-8{fill:#f7f7f7;}.cls-10,.cls-11,.cls-12,.cls-14,.cls-15,.cls-16,.cls-7,.cls-8{stroke:#273274;}.cls-10,.cls-11,.cls-12,.cls-14,.cls-15,.cls-16,.cls-17,.cls-7,.cls-8{stroke-miterlimit:10;}.cls-12,.cls-7{stroke-width:4px;}.cls-11,.cls-15,.cls-8{stroke-width:2px;}.cls-10,.cls-11,.cls-14,.cls-9{fill:#ff544e;}.cls-10,.cls-16{stroke-width:3px;}.cls-12,.cls-13,.cls-15{fill:#ff8c58;}.cls-14{stroke-width:5px;}.cls-17{stroke:#fff;stroke-width:19px;}.cls-18{fill:#fff;}</style><clipPath id="clip-path"><circle class="cls-1" cx="323.5" cy="334.16" r="131.49"/></clipPath><clipPath id="clip-path-2"><rect class="cls-1" x="15" y="263.94" width="752.37" height="204.59"/></clipPath></defs><title>hack section openebs</title><rect class="cls-2" width="631" height="552"/><g class="cls-3"><g class="cls-4"><g class="cls-5"><path class="cls-6" d="M628.53,395.2q0-5.64,0-11.28c0-8.53,0-17.05,0-25.58a5.11,5.11,0,0,0-1-3.21c-3.24-4.49-6.45-9-9.58-13.56-.64-.94-2-2.3-.93-3.23s2.23.52,3.09,1.3c2.74,2.47,5.38,5.06,8.46,8,0-5.57-.21-10.7.06-15.81s.54-10.11,2.62-15.05c1.31,1.15,1.39,2.49,1.59,3.75,1.33,8.36,1.55,16.81,1.84,25.25.83,24.46,1.29,48.92,1.76,73.39.08,4.22.27,8.44.33,12.66,0,1.3.26,1.64,1.61,1.17,6.32-2.17,11.69-5.89,16.62-10.27,11.15-9.9,18.92-21.85,21.79-36.67,2.09-10.84.75-21.47-2.36-31.91-4.72-15.84-12.62-29.84-24.47-41.49a54.55,54.55,0,0,0-6.78-5.49c-5.86-4.16-12-4.74-18.56-1.83-12.62,5.59-22.72,14.33-31.28,25-7,8.68-12.19,18.29-14.26,29.36-2.48,13.24.26,25.67,6.59,37.31,8.43,15.49,20.31,27.41,36.8,34.32,1.34.56,2.76.92,4.14,1.39s1.85.21,1.84-1.32q0-11.81.08-23.61A4,4,0,0,0,627.3,405c-6.12-7.51-12.55-14.76-18.28-22.58a30.9,30.9,0,0,1-4.1-7.91c-.21-.58-.89-1.42,0-2,.65-.41,1.25.24,1.72.63,1.73,1.44,3.48,2.88,5.1,4.45C617.47,383.23,622.66,389.33,628.53,395.2Z"/><circle class="cls-7" cx="610.35" cy="334.55" r="3.64"/><path class="cls-6" d="M631.77,495.29l-3.08.05a7.13,7.13,0,0,0-.82-1.53q0-4.57.09-9.14a2,2,0,0,0,.72-1.22c.08-.84-.55-1.65-.77-2.49.11.28.15-.83.2-1a3.24,3.24,0,0,0-.52-3.3l.48,0q0-2.67,0-5.33c0-4.5,0-9,0-13.5a1.81,1.81,0,0,0,.11-2.21l0,0c.14-.22-.24-.6-.29-.82a4.64,4.64,0,0,1-.09-.79c.25-.27.28-.41.24-.44a1.27,1.27,0,0,0-.07-1.35c.43-5.31-1.21-10.5,4.25-15.59,2.5.53,2.48,1.27,2.81,1.92,2.15,4.2,2.52,8.45,3,12.69,1.33,12.55,2.1,25.09,2.87,37.64.13,2.16.53,4.32.51,6.48a1,1,0,0,0,0,.14C638.2,495.31,635,495.23,631.77,495.29Z"/><circle class="cls-8" cx="601.24" cy="368.35" r="2.96"/><path class="cls-9" d="M527.7,357.69q0-5.1,0-10.2c0-7.7,0-15.41,0-23.11a4.62,4.62,0,0,1,.94-2.9c2.93-4.05,5.83-8.13,8.65-12.25.58-.85,1.78-2.08.84-2.92s-2,.47-2.79,1.17c-2.48,2.24-4.86,4.57-7.64,7.21,0-5,.19-9.67-.05-14.29s-.49-9.13-2.37-13.6a4.88,4.88,0,0,0-1.44,3.39c-1.2,7.56-1.4,15.19-1.66,22.81-.75,22.1-1.16,44.2-1.59,66.3-.07,3.81-.25,7.63-.3,11.44,0,1.17-.23,1.48-1.46,1.06a44.51,44.51,0,0,1-15-9.27c-10.07-8.94-17.1-19.74-19.68-33.13-1.89-9.79-.68-19.4,2.13-28.83a85.83,85.83,0,0,1,22.11-37.49,49.28,49.28,0,0,1,6.13-5,15.94,15.94,0,0,1,16.77-1.65c11.41,5,20.52,12.94,28.26,22.55,6.31,7.84,11,16.53,12.88,26.53,2.24,12-.23,23.19-6,33.71-7.61,14-18.35,24.76-33.25,31-1.21.51-2.49.83-3.74,1.25s-1.67.19-1.66-1.2q0-10.67-.07-21.33a3.58,3.58,0,0,1,1.07-2.42c5.53-6.78,11.34-13.33,16.51-20.4A27.91,27.91,0,0,0,549,339c.19-.53.8-1.28,0-1.77-.58-.37-1.13.21-1.56.57-1.56,1.31-3.14,2.61-4.61,4C537.69,346.87,533,352.38,527.7,357.69Z"/><circle class="cls-2" cx="544.12" cy="302.89" r="3.29"/><path class="cls-9" d="M524.77,488.15l2.78.09a15.46,15.46,0,0,1,.74-2.42q0-7.24-.08-14.49a4.07,4.07,0,0,1-.65-1.93,20,20,0,0,1,.7-3.94c-.1.45-.14-1.32-.18-1.64a8.37,8.37,0,0,1,.47-5.23l-.43-.06q0-4.23,0-8.45c0-7.13,0-14.26,0-21.39a4.68,4.68,0,0,1-.1-3.5l0-.07c-.13-.35.22-1,.27-1.3s.07-.84.08-1.26c-.23-.43-.26-.64-.21-.7a3.35,3.35,0,0,1,.07-2.14c-.39-8.41,1.09-16.64-3.84-24.71-2.26.84-2.24,2-2.54,3-1.94,6.66-2.27,13.39-2.68,20.11-1.21,19.88-1.9,39.77-2.59,59.66-.12,3.42-.48,6.84-.46,10.26,0,.08,0,.15,0,.22C519,488.19,521.84,488.07,524.77,488.15Z"/><path class="cls-9" d="M185.62,445.77q0-3.48,0-7c0-5.27,0-10.53,0-15.8a3.16,3.16,0,0,1,.65-2c2-2.77,4-5.55,5.91-8.37.4-.58,1.22-1.42.58-2s-1.38.32-1.91.8c-1.69,1.53-3.32,3.12-5.22,4.93,0-3.44.13-6.61,0-9.77s-.34-6.24-1.62-9.29a3.33,3.33,0,0,0-1,2.32,126.29,126.29,0,0,0-1.13,15.59c-.51,15.1-.8,30.21-1.09,45.32-.05,2.61-.17,5.21-.2,7.82,0,.8-.16,1-1,.72a30.42,30.42,0,0,1-10.26-6.34c-6.88-6.11-11.69-13.49-13.45-22.65-1.29-6.69-.46-13.26,1.46-19.7a58.66,58.66,0,0,1,15.11-25.62,33.69,33.69,0,0,1,4.19-3.39,10.9,10.9,0,0,1,11.46-1.13c7.8,3.45,14,8.85,19.31,15.41a40.77,40.77,0,0,1,8.81,18.13c1.53,8.18-.16,15.85-4.07,23-5.2,9.56-12.54,16.93-22.72,21.19-.83.35-1.7.57-2.55.86s-1.14.13-1.14-.82q0-7.29,0-14.58a2.45,2.45,0,0,1,.73-1.66c3.78-4.64,7.75-9.11,11.29-13.95A19.08,19.08,0,0,0,200.2,433c.13-.36.55-.88,0-1.21s-.77.15-1.06.39c-1.07.89-2.15,1.78-3.15,2.75C192.45,438.38,189.24,442.15,185.62,445.77Z"/><circle class="cls-2" cx="196.84" cy="408.31" r="2.25"/><path class="cls-9" d="M183.61,507.58l1.9,0a4.4,4.4,0,0,1,.51-.94q0-2.82-.06-5.65a1.22,1.22,0,0,1-.44-.75c0-.52.34-1,.48-1.53-.07.18-.09-.51-.12-.64a2,2,0,0,1,.32-2l-.3,0q0-1.65,0-3.29c0-2.78,0-5.56,0-8.33a1.12,1.12,0,0,1-.07-1.36v0c-.09-.13.15-.37.18-.51a2.86,2.86,0,0,0,.06-.49c-.16-.17-.18-.25-.15-.27a.79.79,0,0,1,0-.83c-.27-3.28.74-6.48-2.62-9.63-1.54.33-1.53.79-1.74,1.19-1.33,2.6-1.55,5.22-1.83,7.84-.82,7.75-1.3,15.5-1.77,23.25-.08,1.33-.33,2.67-.31,4a.62.62,0,0,1,0,.09C179.64,507.59,181.61,507.54,183.61,507.58Z"/><path class="cls-6" d="M94.22,434.07q0-2.5,0-5c0-3.79,0-7.57,0-11.36a2.27,2.27,0,0,1,.46-1.42c1.44-2,2.86-4,4.25-6,.29-.42.88-1,.42-1.43s-1,.23-1.37.58c-1.22,1.1-2.39,2.25-3.75,3.54,0-2.47.09-4.75,0-7A19.26,19.26,0,0,0,93,399.25a2.4,2.4,0,0,0-.71,1.66,90.78,90.78,0,0,0-.82,11.21c-.37,10.86-.57,21.72-.78,32.58,0,1.87-.12,3.75-.15,5.62,0,.58-.11.73-.72.52a21.87,21.87,0,0,1-7.38-4.56A28.74,28.74,0,0,1,72.81,430a29.46,29.46,0,0,1,1-14.16,42.17,42.17,0,0,1,10.86-18.42,24.22,24.22,0,0,1,3-2.44,7.83,7.83,0,0,1,8.24-.81,37.12,37.12,0,0,1,13.88,11.08,29.31,29.31,0,0,1,6.33,13,24.46,24.46,0,0,1-2.93,16.56c-3.74,6.87-9,12.17-16.34,15.24-.59.25-1.22.41-1.84.62s-.82.09-.82-.59q0-5.24,0-10.48a1.76,1.76,0,0,1,.53-1.19c2.72-3.33,5.57-6.55,8.11-10a13.72,13.72,0,0,0,1.82-3.51c.09-.26.39-.63,0-.87s-.55.1-.77.28c-.77.64-1.54,1.28-2.26,2C99.13,428.75,96.83,431.46,94.22,434.07Z"/><circle class="cls-8" cx="102.29" cy="407.15" r="1.61"/><path class="cls-6" d="M92.78,478.5l1.37,0a3.16,3.16,0,0,1,.37-.68q0-2,0-4.06a.88.88,0,0,1-.32-.54c0-.37.25-.73.34-1.1,0,.13-.07-.37-.09-.46a1.44,1.44,0,0,1,.23-1.47l-.21,0q0-1.18,0-2.37c0-2,0-4,0-6a.81.81,0,0,1,0-1v0c-.06-.1.11-.27.13-.36a2.06,2.06,0,0,0,0-.35c-.11-.12-.13-.18-.1-.2a.57.57,0,0,1,0-.6c-.19-2.36.54-4.66-1.89-6.92-1.11.24-1.1.56-1.25.85A15.24,15.24,0,0,0,90,458.89c-.59,5.57-.93,11.14-1.27,16.71-.06,1-.24,1.92-.23,2.87a.44.44,0,0,1,0,.06C89.93,478.51,91.34,478.48,92.78,478.5Z"/><path class="cls-9" d="M403.71,383q0-5,0-9.92c0-7.5,0-15,0-22.49a4.49,4.49,0,0,1,.92-2.82c2.85-3.94,5.67-7.91,8.42-11.92.57-.83,1.74-2,.82-2.84s-2,.46-2.72,1.14c-2.41,2.17-4.73,4.45-7.43,7,0-4.89.18-9.41-.05-13.9s-.48-8.89-2.31-13.23a4.75,4.75,0,0,0-1.4,3.3,179.75,179.75,0,0,0-1.61,22.2c-.73,21.5-1.13,43-1.55,64.51-.07,3.71-.24,7.42-.29,11.13,0,1.14-.23,1.44-1.42,1a43.3,43.3,0,0,1-14.61-9c-9.8-8.7-16.63-19.2-19.15-32.23-1.84-9.53-.66-18.87,2.08-28a83.5,83.5,0,0,1,21.51-36.47,48,48,0,0,1,6-4.83A15.51,15.51,0,0,1,407.18,304c11.1,4.91,20,12.59,27.49,21.94,6.14,7.63,10.71,16.08,12.54,25.81,2.18,11.64-.23,22.56-5.8,32.8-7.41,13.61-17.86,24.09-32.35,30.17-1.18.49-2.42.81-3.64,1.22s-1.62.18-1.62-1.16q0-10.38-.07-20.75a3.48,3.48,0,0,1,1-2.36c5.38-6.6,11-13,16.06-19.85a27.16,27.16,0,0,0,3.61-7c.18-.51.78-1.25,0-1.73-.57-.36-1.1.21-1.51.55-1.52,1.27-3.06,2.53-4.48,3.91C413.43,372.48,408.87,377.84,403.71,383Z"/><circle class="cls-10" cx="429.52" cy="359.68" r="3.2"/><circle class="cls-11" cx="418.31" cy="329.27" r="2.72"/><path class="cls-9" d="M400.86,471l2.71,0a6.26,6.26,0,0,1,.72-1.34q0-4-.08-8a1.73,1.73,0,0,1-.63-1.07c-.07-.74.49-1.45.68-2.18-.1.25-.13-.73-.18-.91a2.84,2.84,0,0,1,.45-2.9l-.42,0q0-2.34,0-4.69c0-4,0-7.91,0-11.86a1.6,1.6,0,0,1-.1-1.94l0,0c-.12-.19.21-.53.26-.72a4.08,4.08,0,0,0,.08-.7c-.22-.24-.25-.36-.21-.39a1.12,1.12,0,0,1,.06-1.19c-.38-4.67,1.06-9.23-3.73-13.7-2.2.47-2.18,1.12-2.47,1.69-1.89,3.69-2.21,7.43-2.61,11.16-1.17,11-1.85,22.06-2.52,33.09-.12,1.9-.47,3.8-.45,5.69a.88.88,0,0,1,0,.12C395.21,471,398,470.93,400.86,471Z"/><path class="cls-9" d="M56.51,382.79q0-4.25,0-8.51c0-6.43,0-12.85,0-19.28a3.85,3.85,0,0,1,.79-2.42c2.44-3.38,4.86-6.78,7.22-10.22.49-.71,1.49-1.74.7-2.43s-1.68.4-2.33,1c-2.06,1.86-4.05,3.81-6.37,6,0-4.2.16-8.07,0-11.92s-.41-7.62-2-11.34a4.07,4.07,0,0,0-1.2,2.83,154.14,154.14,0,0,0-1.38,19c-.62,18.43-1,36.87-1.33,55.31-.06,3.18-.21,6.36-.25,9.54,0,1-.19,1.24-1.21.88a37.13,37.13,0,0,1-12.52-7.74c-8.4-7.46-14.26-16.47-16.42-27.64-1.58-8.17-.56-16.18,1.78-24.05a71.6,71.6,0,0,1,18.45-31.27,41.12,41.12,0,0,1,5.11-4.14,13.3,13.3,0,0,1,14-1.38c9.52,4.21,17.12,10.8,23.57,18.81,5.27,6.54,9.19,13.79,10.75,22.13,1.87,10-.19,19.35-5,28.13C82.49,395.78,73.53,404.77,61.11,410c-1,.42-2.08.69-3.12,1s-1.39.16-1.39-1q0-8.9-.06-17.8a3,3,0,0,1,.89-2c4.61-5.66,9.46-11.12,13.78-17a23.29,23.29,0,0,0,3.09-6c.16-.44.67-1.07,0-1.48-.49-.31-.94.18-1.3.48-1.3,1.09-2.62,2.17-3.84,3.35C64.85,373.76,60.94,378.36,56.51,382.79Z"/><circle class="cls-11" cx="78.65" cy="362.79" r="2.74"/><circle class="cls-2" cx="70.21" cy="337.07" r="2.74"/><path class="cls-9" d="M54.07,473.33l2.32.06a8.25,8.25,0,0,1,.62-1.55q0-4.62-.07-9.24a2.22,2.22,0,0,1-.54-1.23,10.07,10.07,0,0,1,.58-2.51c-.08.29-.11-.84-.15-1a4.19,4.19,0,0,1,.39-3.34l-.36,0q0-2.7,0-5.39c0-4.55,0-9.09,0-13.64a2.34,2.34,0,0,1-.08-2.23l0,0c-.11-.22.18-.61.22-.83a6.22,6.22,0,0,0,.07-.8c-.19-.27-.21-.41-.18-.45a1.66,1.66,0,0,1,.05-1.37c-.33-5.37.91-10.61-3.2-15.76-1.88.54-1.87,1.29-2.12,1.94-1.62,4.25-1.9,8.54-2.24,12.83-1,12.68-1.59,25.36-2.16,38-.1,2.18-.4,4.36-.38,6.55a1.35,1.35,0,0,1,0,.14C49.22,473.35,51.62,473.27,54.07,473.33Z"/><circle class="cls-2" cx="362.66" cy="418.84" r="2.99"/><circle class="cls-12" cx="353.47" cy="390.8" r="2.99"/><path class="cls-13" d="M335.86,522.9l2.53,0a5.86,5.86,0,0,1,.68-1.26q0-3.76-.08-7.51a1.62,1.62,0,0,1-.59-1c-.06-.69.46-1.36.64-2-.09.23-.12-.68-.17-.85a2.66,2.66,0,0,1,.42-2.71l-.39,0q0-2.19,0-4.38c0-3.7,0-7.39,0-11.09a1.49,1.49,0,0,1-.09-1.82l0,0c-.12-.18.2-.5.24-.67a3.81,3.81,0,0,0,.08-.65c-.21-.22-.23-.33-.19-.36a1,1,0,0,1,.06-1.11c-.36-4.36,1-8.63-3.49-12.81-2.05.44-2,1-2.31,1.58-1.77,3.45-2.07,6.94-2.44,10.43-1.1,10.31-1.73,20.62-2.36,30.94-.11,1.77-.44,3.55-.42,5.32a.82.82,0,0,1,0,.11C330.58,522.92,333.2,522.86,335.86,522.9Z"/><path class="cls-9" d="M233.6,379.41q0-4.25,0-8.51c0-6.43,0-12.85,0-19.28a3.85,3.85,0,0,1,.79-2.42c2.44-3.38,4.86-6.78,7.22-10.22.49-.71,1.49-1.74.7-2.43s-1.68.4-2.33,1c-2.06,1.86-4.05,3.81-6.37,6,0-4.2.16-8.07,0-11.92s-.41-7.62-2-11.34a4.07,4.07,0,0,0-1.2,2.83,154.14,154.14,0,0,0-1.38,19c-.62,18.43-1,36.87-1.33,55.31-.06,3.18-.21,6.36-.25,9.54,0,1-.19,1.24-1.21.88a37.13,37.13,0,0,1-12.52-7.74c-8.4-7.46-14.26-16.47-16.42-27.64-1.58-8.17-.56-16.18,1.78-24.05a71.6,71.6,0,0,1,18.45-31.27,41.12,41.12,0,0,1,5.11-4.14,13.3,13.3,0,0,1,14-1.38c9.52,4.21,17.12,10.8,23.57,18.81,5.27,6.54,9.19,13.79,10.75,22.13,1.87,10-.19,19.35-5,28.13-6.35,11.67-15.31,20.66-27.74,25.87-1,.42-2.08.69-3.12,1s-1.39.16-1.39-1q0-8.9-.06-17.8a3,3,0,0,1,.89-2c4.61-5.66,9.46-11.12,13.78-17a23.29,23.29,0,0,0,3.09-6c.16-.44.67-1.07,0-1.48-.49-.31-.94.18-1.3.48-1.3,1.09-2.62,2.17-3.84,3.35C241.94,370.39,238,375,233.6,379.41Z"/><circle class="cls-14" cx="255.74" cy="359.42" r="2.74"/><circle class="cls-11" cx="247.31" cy="333.7" r="2.74"/><path class="cls-9" d="M231.16,472.42l2.32.06a8.8,8.8,0,0,1,.62-1.61q0-4.81-.07-9.62a2.36,2.36,0,0,1-.54-1.28,10.85,10.85,0,0,1,.58-2.62c-.08.3-.11-.88-.15-1.09a4.52,4.52,0,0,1,.39-3.48l-.36,0q0-2.81,0-5.61c0-4.74,0-9.47,0-14.21a2.53,2.53,0,0,1-.08-2.33l0,0c-.11-.23.18-.64.22-.86a6.74,6.74,0,0,0,.07-.84c-.19-.28-.21-.43-.18-.47A1.8,1.8,0,0,1,234,427c-.33-5.59.91-11.05-3.2-16.41-1.88.56-1.87,1.34-2.12,2-1.62,4.42-1.9,8.89-2.24,13.36-1,13.21-1.59,26.42-2.16,39.63-.1,2.27-.4,4.55-.38,6.82a1.46,1.46,0,0,1,0,.15C226.31,472.45,228.72,472.37,231.16,472.42Z"/><path class="cls-13" d="M572,415.63q0-3.76,0-7.51c0-5.68,0-11.36,0-17a3.4,3.4,0,0,1,.7-2.14c2.16-3,4.3-6,6.38-9,.43-.63,1.32-1.53.62-2.15s-1.49.35-2.06.86c-1.82,1.65-3.58,3.37-5.63,5.31,0-3.71.14-7.13,0-10.53s-.36-6.73-1.75-10a3.6,3.6,0,0,0-1.06,2.5,136.16,136.16,0,0,0-1.22,16.81c-.55,16.28-.86,32.57-1.17,48.86-.05,2.81-.18,5.62-.22,8.43,0,.86-.17,1.09-1.07.78a32.8,32.8,0,0,1-11.06-6.84c-7.42-6.59-12.6-14.55-14.51-24.42-1.39-7.22-.5-14.29,1.57-21.25a63.25,63.25,0,0,1,16.29-27.63,36.32,36.32,0,0,1,4.51-3.66,11.75,11.75,0,0,1,12.36-1.22c8.41,3.72,15.13,9.54,20.83,16.62a44,44,0,0,1,9.5,19.55c1.65,8.82-.17,17.09-4.39,24.85C594.91,427.11,587,435,576,439.65c-.89.37-1.84.61-2.75.92s-1.23.14-1.22-.88q0-7.86-.05-15.72a2.64,2.64,0,0,1,.79-1.79c4.07-5,8.36-9.83,12.17-15a20.57,20.57,0,0,0,2.73-5.27c.14-.39.59-.95,0-1.31s-.83.16-1.15.42c-1.15,1-2.32,1.92-3.39,3C579.32,407.66,575.87,411.72,572,415.63Z"/><circle class="cls-13" cx="591.51" cy="397.96" r="2.42"/><path class="cls-13" d="M569.8,482.27l2.05,0a4.74,4.74,0,0,1,.55-1q0-3-.06-6.09a1.31,1.31,0,0,1-.48-.81c-.05-.56.37-1.1.52-1.65-.07.19-.1-.55-.13-.69a2.15,2.15,0,0,1,.34-2.2l-.32,0q0-1.78,0-3.55c0-3,0-6,0-9a1.21,1.21,0,0,1-.07-1.47v0c-.09-.15.16-.4.2-.55a3.09,3.09,0,0,0,.06-.53c-.17-.18-.19-.27-.16-.29a.85.85,0,0,1,0-.9c-.29-3.54.8-7-2.83-10.38-1.66.35-1.65.85-1.87,1.28-1.43,2.8-1.68,5.63-2,8.45-.89,8.35-1.4,16.71-1.91,25.07-.09,1.44-.35,2.87-.34,4.31a.66.66,0,0,1,0,.09C565.52,482.28,567.64,482.23,569.8,482.27Z"/><path class="cls-13" d="M145.8,390.27q0-5.23,0-10.47c0-7.91,0-15.82,0-23.72a4.74,4.74,0,0,1,1-3c3-4.16,6-8.34,8.88-12.57.6-.87,1.83-2.14.87-3s-2.07.49-2.86,1.2c-2.54,2.29-5,4.69-7.84,7.4,0-5.16.19-9.93-.05-14.67s-.5-9.37-2.43-14a5,5,0,0,0-1.48,3.48c-1.23,7.76-1.44,15.59-1.7,23.42-.77,22.68-1.19,45.37-1.63,68.05-.08,3.91-.25,7.83-.31,11.74,0,1.2-.24,1.52-1.49,1.09a45.68,45.68,0,0,1-15.41-9.52c-10.34-9.18-17.55-20.26-20.2-34-1.94-10.05-.69-19.91,2.19-29.59,4.37-14.69,11.7-27.68,22.69-38.48a50.59,50.59,0,0,1,6.29-5.1c5.44-3.86,11.11-4.4,17.21-1.69,11.71,5.18,21.07,13.29,29,23.15,6.48,8,11.3,17,13.23,27.23,2.3,12.28-.24,23.81-6.12,34.6-7.82,14.36-18.84,25.42-34.12,31.83-1.24.52-2.56.85-3.83,1.29s-1.71.19-1.71-1.23q0-10.95-.07-21.9a3.68,3.68,0,0,1,1.1-2.49c5.67-7,11.64-13.69,16.95-20.94a28.65,28.65,0,0,0,3.81-7.34c.19-.54.82-1.32,0-1.82-.6-.38-1.16.22-1.6.58-1.61,1.34-3.22,2.67-4.73,4.12C156.06,379.17,151.24,384.83,145.8,390.27Z"/><circle class="cls-15" cx="162.66" cy="334.03" r="3.37"/><path class="cls-13" d="M142.79,483.09l2.86.05a6.61,6.61,0,0,1,.76-1.42q0-4.24-.09-8.48a1.83,1.83,0,0,1-.67-1.13c-.07-.78.51-1.53.72-2.3-.1.26-.14-.77-.19-1a3,3,0,0,1,.48-3.06l-.44,0q0-2.47,0-4.95c0-4.17,0-8.34,0-12.52a1.68,1.68,0,0,1-.1-2l0,0c-.13-.2.22-.56.27-.76a4.3,4.3,0,0,0,.09-.74c-.24-.25-.26-.38-.22-.41a1.18,1.18,0,0,1,.07-1.25c-.4-4.92,1.12-9.74-3.94-14.46-2.32.49-2.3,1.18-2.61,1.78-2,3.9-2.33,7.84-2.75,11.77-1.24,11.63-2,23.27-2.66,34.91-.12,2-.49,4-.47,6a.93.93,0,0,1,0,.13C136.83,483.11,139.79,483,142.79,483.09Z"/><circle class="cls-2" cx="171.85" cy="365.4" r="2.74"/><circle class="cls-11" cx="204.23" cy="427.46" r="2.74"/><path class="cls-6" d="M287.36,377.57q0-5.23,0-10.47c0-7.91,0-15.82,0-23.72a4.74,4.74,0,0,1,1-3c3-4.16,6-8.34,8.88-12.57.6-.87,1.83-2.14.87-3s-2.07.49-2.86,1.2c-2.54,2.29-5,4.69-7.84,7.4,0-5.16.19-9.93-.05-14.67s-.5-9.37-2.43-14a5,5,0,0,0-1.48,3.48c-1.23,7.76-1.44,15.59-1.7,23.42-.77,22.68-1.19,45.37-1.63,68.05-.08,3.91-.25,7.83-.31,11.74,0,1.2-.24,1.52-1.49,1.09a45.68,45.68,0,0,1-15.41-9.52c-10.34-9.18-17.55-20.26-20.2-34-1.94-10.05-.69-19.91,2.19-29.59,4.37-14.69,11.7-27.68,22.69-38.48a50.59,50.59,0,0,1,6.29-5.1c5.44-3.86,11.11-4.4,17.21-1.69,11.71,5.18,21.07,13.29,29,23.15,6.48,8,11.3,17,13.23,27.23,2.3,12.28-.24,23.81-6.12,34.6C319.32,393.56,308.3,404.62,293,411c-1.24.52-2.56.85-3.83,1.29s-1.71.19-1.71-1.23q0-10.95-.07-21.9a3.68,3.68,0,0,1,1.1-2.49c5.67-7,11.64-13.69,16.95-20.94a28.65,28.65,0,0,0,3.81-7.34c.19-.54.82-1.32,0-1.82-.6-.38-1.16.22-1.6.58-1.61,1.34-3.22,2.67-4.73,4.12C297.62,366.47,292.8,372.13,287.36,377.57Z"/><circle class="cls-16" cx="304.22" cy="321.33" r="3.37"/><path class="cls-6" d="M284.35,470.39l2.86.05A6.61,6.61,0,0,1,288,469q0-4.24-.09-8.48a1.83,1.83,0,0,1-.67-1.13c-.07-.78.51-1.53.72-2.3-.1.26-.14-.77-.19-1a3,3,0,0,1,.48-3.06l-.44,0q0-2.47,0-4.95c0-4.17,0-8.34,0-12.52a1.68,1.68,0,0,1-.1-2l0,0c-.13-.2.22-.56.27-.76A4.3,4.3,0,0,0,288,432c-.24-.25-.26-.38-.22-.41a1.18,1.18,0,0,1,.07-1.25c-.4-4.92,1.12-9.74-3.94-14.46-2.32.49-2.3,1.18-2.61,1.78-2,3.9-2.33,7.84-2.75,11.77-1.24,11.63-2,23.27-2.66,34.91-.12,2-.49,4-.47,6a.93.93,0,0,1,0,.13C278.39,470.4,281.35,470.34,284.35,470.39Z"/><circle class="cls-8" cx="312.67" cy="352.67" r="2.74"/><path class="cls-13" d="M338.53,440.64q0-4.64,0-9.27c0-7,0-14,0-21a4.2,4.2,0,0,1,.86-2.64c2.66-3.69,5.3-7.39,7.87-11.14.53-.77,1.62-1.89.77-2.65s-1.83.43-2.54,1.07c-2.25,2-4.42,4.16-7,6.56,0-4.58.17-8.8,0-13s-.45-8.31-2.16-12.37a4.44,4.44,0,0,0-1.31,3.08A168.07,168.07,0,0,0,333.5,400c-.68,20.1-1.06,40.21-1.45,60.31-.07,3.47-.23,6.94-.27,10.41,0,1.07-.21,1.35-1.32,1a40.49,40.49,0,0,1-13.66-8.44c-9.16-8.13-15.55-18-17.91-30.14-1.72-8.91-.61-17.64,1.94-26.22a78.07,78.07,0,0,1,20.11-34.1,44.83,44.83,0,0,1,5.57-4.52,14.5,14.5,0,0,1,15.26-1.5c10.38,4.59,18.67,11.78,25.71,20.51,5.74,7.13,10,15,11.72,24.13,2,10.88-.21,21.1-5.42,30.67-6.93,12.73-16.69,22.53-30.24,28.21-1.1.46-2.27.76-3.4,1.14s-1.52.17-1.51-1.09q0-9.7-.06-19.4a3.26,3.26,0,0,1,1-2.2c5-6.17,10.31-12.13,15-18.56a25.39,25.39,0,0,0,3.37-6.5c.17-.48.73-1.17,0-1.61-.53-.34-1,.19-1.42.52-1.42,1.19-2.86,2.37-4.19,3.66C347.62,430.8,343.35,435.82,338.53,440.64Z"/><circle class="cls-2" cx="584.06" cy="375.24" r="2.42"/><circle class="cls-2" cx="350.88" cy="390.64" r="2.42"/><circle class="cls-15" cx="362.85" cy="416.16" r="3.37"/></g></g></g><circle class="cls-17" cx="323.5" cy="336.69" r="131.49"/><path class="cls-18" d="M199.44,127h3.77V115.22a2.07,2.07,0,0,0-.1-.73,1,1,0,0,0-.29-.42,1,1,0,0,0-.45-.21,2.92,2.92,0,0,0-.57-.05,5.55,5.55,0,0,0-1.13.14,9.42,9.42,0,0,0-1.42.44,11.91,11.91,0,0,0-1.5.71,7.3,7.3,0,0,0-1.35,1,4.84,4.84,0,0,0-1,1.2,2.87,2.87,0,0,0-.37,1.43,2.62,2.62,0,0,0,.18,1.06,1.66,1.66,0,0,0,.4.59,1.06,1.06,0,0,0,.47.25,1.83,1.83,0,0,0,.34.05,1.8,1.8,0,0,0,.85-.18,5,5,0,0,0,.6-.37l.51-.37a.9.9,0,0,1,.55-.18,1.41,1.41,0,0,1,.53.11,1.51,1.51,0,0,1,.52.36,2.07,2.07,0,0,1,.4.65,2.6,2.6,0,0,1,.17,1,3,3,0,0,1-.32,1.43,3.19,3.19,0,0,1-.83,1,3.43,3.43,0,0,1-1.16.6,4.46,4.46,0,0,1-1.29.2,4.51,4.51,0,0,1-1.79-.34,4,4,0,0,1-1.36-.94,4,4,0,0,1-.85-1.41,5,5,0,0,1-.29-1.72,6.5,6.5,0,0,1,.52-2.62,7.38,7.38,0,0,1,1.42-2.14,9.59,9.59,0,0,1,2.11-1.67,13.91,13.91,0,0,1,2.62-1.19,17.61,17.61,0,0,1,2.94-.71,20,20,0,0,1,3.07-.24,8.54,8.54,0,0,1,2.64.32,3.52,3.52,0,0,1,1.39.78,1.8,1.8,0,0,1,.53,1,5.24,5.24,0,0,1,.08.83V127h7.62V117a16.81,16.81,0,0,1,.89-5.82,11.68,11.68,0,0,1,2.3-3.93,8.64,8.64,0,0,1,3.15-2.22,9.29,9.29,0,0,1,3.46-.69,13.81,13.81,0,0,1,2.25.18,7.75,7.75,0,0,1,1.86.53,3.7,3.7,0,0,1,1.27.88,1.78,1.78,0,0,1,.48,1.23,1.86,1.86,0,0,1-.35,1.1,1.36,1.36,0,0,1-.38.36.84.84,0,0,1-.45.13,1,1,0,0,1-.66-.23,3.07,3.07,0,0,1-.55-.57q-.26-.34-.51-.75a5,5,0,0,0-.56-.75,3,3,0,0,0-.7-.57,1.83,1.83,0,0,0-.93-.23,2.83,2.83,0,0,0-2,.69,4.41,4.41,0,0,0-1.14,2,15,15,0,0,0-.51,3.33q-.11,2-.11,4.56V127h4.16v1.82h-4.16v12.6a1.62,1.62,0,0,0,.26,1,.91.91,0,0,0,.8.36,2.77,2.77,0,0,0,1.08-.21q.5-.21.87-.39l.35.77q-.46.31-1.07.65a12.22,12.22,0,0,1-1.35.64,10.58,10.58,0,0,1-1.57.5,7.65,7.65,0,0,1-1.75.2,5.85,5.85,0,0,1-2.28-.37,3.32,3.32,0,0,1-1.35-1,3.27,3.27,0,0,1-.63-1.38,7.8,7.8,0,0,1-.16-1.55V128.84H210v10.32a11,11,0,0,1-1,4.91,9.93,9.93,0,0,1-2.81,3.49,12.16,12.16,0,0,1-4.2,2.09,18.64,18.64,0,0,1-5.17.69,11.4,11.4,0,0,1-2-.18,8.31,8.31,0,0,1-1.72-.49,3.86,3.86,0,0,1-1.19-.74,1.26,1.26,0,0,1-.45-.92,2.9,2.9,0,0,1,.1-.76,2.36,2.36,0,0,1,.31-.69,1.91,1.91,0,0,1,.51-.52,1.16,1.16,0,0,1,.67-.21.51.51,0,0,1,.4.23,4.34,4.34,0,0,1,.36.57q.19.34.42.74a3.23,3.23,0,0,0,.62.74,3.31,3.31,0,0,0,.92.57,3.47,3.47,0,0,0,1.35.23,6,6,0,0,0,2.75-.58,5.1,5.1,0,0,0,1.9-1.64,7.42,7.42,0,0,0,1.11-2.52,13.29,13.29,0,0,0,.36-3.2V128.84h-3.77Z"/><path class="cls-18" d="M238.09,123.08a4.9,4.9,0,0,0-1.31.17,4.52,4.52,0,0,0-1,.41,2.46,2.46,0,0,0-.68.55.91.91,0,0,0-.25.57.46.46,0,0,0,.32.45l.71.31a2.39,2.39,0,0,1,.71.5,1.34,1.34,0,0,1,.32,1,1.81,1.81,0,0,1-.18.8,2.16,2.16,0,0,1-1.18,1.08,2.32,2.32,0,0,1-.84.16,2.41,2.41,0,0,1-1.87-.79,3,3,0,0,1-.71-2.09,3.55,3.55,0,0,1,.66-2.16,5.17,5.17,0,0,1,1.73-1.48,8.74,8.74,0,0,1,2.41-.86,13.42,13.42,0,0,1,5.78.07,7.84,7.84,0,0,1,2.6,1.12,5.79,5.79,0,0,1,1.8,1.95,5.69,5.69,0,0,1,.67,2.86v11.71q0,.19,0,.41a1.29,1.29,0,0,0,.1.41.77.77,0,0,0,.25.31.78.78,0,0,0,.48.12,1,1,0,0,0,.69-.28,5.53,5.53,0,0,0,.57-.57l.52.44q-.31.43-.75,1a6,6,0,0,1-2.51,1.74,5.35,5.35,0,0,1-1.89.31,3.72,3.72,0,0,1-2.32-.78,3.77,3.77,0,0,1-1.33-2.39,8.77,8.77,0,0,1-1.38,1.49,7.46,7.46,0,0,1-1.46,1,6.45,6.45,0,0,1-1.5.54,7.1,7.1,0,0,1-1.52.17,6.05,6.05,0,0,1-1.93-.31,4.6,4.6,0,0,1-1.67-1,4.83,4.83,0,0,1-1.18-1.75,6.89,6.89,0,0,1-.45-2.63,5.77,5.77,0,0,1,.75-3.09,6.66,6.66,0,0,1,2-2A13.21,13.21,0,0,1,236,131q1.54-.58,3.16-1.22a3.38,3.38,0,0,0,1.75-1.42,3.81,3.81,0,0,0,.55-1.94,3.36,3.36,0,0,0-.9-2.45A3.28,3.28,0,0,0,238.09,123.08Zm3.29,9.07a1,1,0,0,0-.33-.79,1.3,1.3,0,0,0-.85-.27,3,3,0,0,0-1.38.33,3.41,3.41,0,0,0-1.15,1,4.93,4.93,0,0,0-.79,1.58,7.44,7.44,0,0,0-.29,2.19,9.32,9.32,0,0,0,.18,2,3.88,3.88,0,0,0,.48,1.25,1.72,1.72,0,0,0,.69.65,1.91,1.91,0,0,0,.83.19,2,2,0,0,0,1-.28,3,3,0,0,0,.83-.71,3.58,3.58,0,0,0,.56-1,3,3,0,0,0,.21-1.08Z"/><path class="cls-18" d="M266.35,128.55a2.61,2.61,0,0,1-1.08-.2,1.89,1.89,0,0,1-.7-.53,2.17,2.17,0,0,1-.39-.74,2.83,2.83,0,0,1-.12-.84,7.69,7.69,0,0,1,.07-1.08,3.58,3.58,0,0,0,0-.93,1,1,0,0,0-.32-.66,1.41,1.41,0,0,0-1-.25,3.37,3.37,0,0,0-1.53.41,4.32,4.32,0,0,0-1.47,1.31,7.6,7.6,0,0,0-1.1,2.29,11.42,11.42,0,0,0-.43,3.37,18.06,18.06,0,0,0,.4,4,9.51,9.51,0,0,0,1.21,3.06,5.84,5.84,0,0,0,2,2,6,6,0,0,0,4.2.53,6.09,6.09,0,0,0,1.23-.46,7.9,7.9,0,0,0,1.11-.67q.53-.38,1-.82l.52.5a14.21,14.21,0,0,1-1.22,1.41,10,10,0,0,1-1.8,1.44,10.4,10.4,0,0,1-2.47,1.12,10.65,10.65,0,0,1-3.21.45,9.25,9.25,0,0,1-3.51-.69,9.09,9.09,0,0,1-3-2,10,10,0,0,1-2.12-3.22,11,11,0,0,1-.8-4.32,12,12,0,0,1,.48-3.47,11.43,11.43,0,0,1,1.29-2.87,10.79,10.79,0,0,1,1.91-2.26,12.07,12.07,0,0,1,2.29-1.63,11.07,11.07,0,0,1,2.46-1,9.43,9.43,0,0,1,2.41-.33,9.09,9.09,0,0,1,2.67.35,6,6,0,0,1,1.9.93A3.82,3.82,0,0,1,268.4,124a3.49,3.49,0,0,1,.37,1.56,4.2,4.2,0,0,1-.16,1.15,2.91,2.91,0,0,1-.46,1,2.2,2.2,0,0,1-.76.64A2.25,2.25,0,0,1,266.35,128.55Z"/><path class="cls-18" d="M278.82,127q.72-1,1.55-2a14.26,14.26,0,0,1,1.78-1.81,9.11,9.11,0,0,1,2.07-1.33,5.75,5.75,0,0,1,2.44-.52,3.81,3.81,0,0,1,2,.47,4.29,4.29,0,0,1,1.27,1.12,4.14,4.14,0,0,1,.68,1.36,4.59,4.59,0,0,1,.2,1.2,8.06,8.06,0,0,1-.24,1.9,7.11,7.11,0,0,1-.81,1.95,8.67,8.67,0,0,1-1.52,1.86,10.4,10.4,0,0,1-2.4,1.65,71.47,71.47,0,0,0,3.79,7.1,35.5,35.5,0,0,0,3.55,4.89,13.93,13.93,0,0,0,3.28,2.83,6,6,0,0,0,3,.91,2.05,2.05,0,0,0,.5-.06,3.55,3.55,0,0,0,.46-.15,4.58,4.58,0,0,0,.48-.21l.39.73q-.56.31-1.14.59a8,8,0,0,1-1.33.49,12.29,12.29,0,0,1-1.72.33,18.64,18.64,0,0,1-2.32.12,10.19,10.19,0,0,1-2.41-.29,8.25,8.25,0,0,1-2.39-1,13.52,13.52,0,0,1-2.43-2A22.19,22.19,0,0,1,285,144a45.25,45.25,0,0,1-2.66-4.54q-1.37-2.63-2.84-6.15a21.7,21.7,0,0,0,3.13-2.72,13.34,13.34,0,0,0,1.72-2.27,5.91,5.91,0,0,0,.73-1.8,7.64,7.64,0,0,0,.15-1.35c0-.06,0-.15,0-.28a.91.91,0,0,0-.13-.38,1.08,1.08,0,0,0-.33-.33,1.1,1.1,0,0,0-.61-.15,2.45,2.45,0,0,0-1.55.65,9.2,9.2,0,0,0-1.5,1.62,15.63,15.63,0,0,0-1.29,2.07q-.58,1.11-1,2v10.69a2.71,2.71,0,0,1-.09.64,1.49,1.49,0,0,1-.44.7,2.79,2.79,0,0,1-1,.57,5.24,5.24,0,0,1-1.75.24,4.59,4.59,0,0,1-1.72-.26,2.4,2.4,0,0,1-.92-.61,1.59,1.59,0,0,1-.37-.73,3.29,3.29,0,0,1-.07-.6V114.29a1.93,1.93,0,0,0-.28-1,1,1,0,0,0-.94-.45,1.51,1.51,0,0,0-.61.11,2.61,2.61,0,0,0-.55.34l-.41-.5a12.35,12.35,0,0,1,1.06-.78,7.68,7.68,0,0,1,1.27-.67,9.52,9.52,0,0,1,1.48-.48,7.18,7.18,0,0,1,1.66-.19,4.89,4.89,0,0,1,2.09.36,2.69,2.69,0,0,1,1.1.89,2.56,2.56,0,0,1,.42,1.12,8.74,8.74,0,0,1,.07,1Z"/><path class="cls-18" d="M301.65,123.16v15.31a2.17,2.17,0,0,0,.41,1.52,1.52,1.52,0,0,0,1.14.42,1.67,1.67,0,0,0,1-.31,3.64,3.64,0,0,0,.75-.7,4.39,4.39,0,0,0,.64-1l.64.29q-.31.66-.74,1.45a5.75,5.75,0,0,1-2.9,2.59,6.86,6.86,0,0,1-2.68.46,5.69,5.69,0,0,1-1.75-.27,4.11,4.11,0,0,1-1.49-.85,4.25,4.25,0,0,1-1-1.45,5,5,0,0,1-.39-2.09V123.16h-2.32v-1.49a6.25,6.25,0,0,0,1.62-.3,8.06,8.06,0,0,0,2.12-1,8.44,8.44,0,0,0,2-1.89,7.21,7.21,0,0,0,1.33-2.92h1.66v6.11H305q1.66,0,1.66-.56a.28.28,0,0,0-.21-.28l-.47-.19a1.51,1.51,0,0,1-.47-.32.94.94,0,0,1-.21-.68,1.17,1.17,0,0,1,.36-.91,1.34,1.34,0,0,1,.94-.33,1.32,1.32,0,0,1,.65.16,1.41,1.41,0,0,1,.47.41,1.87,1.87,0,0,1,.28.59,2.44,2.44,0,0,1,.09.66,2.94,2.94,0,0,1-.78,2.14,3.36,3.36,0,0,1-2.5.8Z"/><path class="cls-18" d="M307.5,132.27a13.17,13.17,0,0,1,.79-4.75,10.07,10.07,0,0,1,2.1-3.41,8.52,8.52,0,0,1,3.06-2.05,9.88,9.88,0,0,1,3.65-.68,10.61,10.61,0,0,1,3.65.63,8.32,8.32,0,0,1,3.06,1.94,9.46,9.46,0,0,1,2.1,3.3,12.9,12.9,0,0,1,.79,4.73,13.59,13.59,0,0,1-.79,4.81,10.69,10.69,0,0,1-2.1,3.52,8.74,8.74,0,0,1-3.06,2.16,9.28,9.28,0,0,1-3.65.74,9.76,9.76,0,0,1-3.65-.69,8.64,8.64,0,0,1-3.06-2.06,10.05,10.05,0,0,1-2.1-3.42A13.25,13.25,0,0,1,307.5,132.27Zm12.74-.21q0-1.66-.11-3.2a14.36,14.36,0,0,0-.45-2.75,4.84,4.84,0,0,0-1-1.92,2.06,2.06,0,0,0-1.64-.71,2,2,0,0,0-1.64.76,5.23,5.23,0,0,0-1,2,14.5,14.5,0,0,0-.44,2.81q-.1,1.57-.1,3.23t.1,3.24a14.72,14.72,0,0,0,.44,2.83,5.23,5.23,0,0,0,1,2,2,2,0,0,0,1.64.76,2,2,0,0,0,1.64-.79,5.55,5.55,0,0,0,1-2.07,16.23,16.23,0,0,0,.45-2.9Q320.24,133.73,320.24,132.07Z"/><path class="cls-18" d="M329.87,114.29a1.93,1.93,0,0,0-.28-1,1,1,0,0,0-.94-.45,1.51,1.51,0,0,0-.61.11,2.63,2.63,0,0,0-.55.34l-.41-.5a11.64,11.64,0,0,1,1.07-.78,8.32,8.32,0,0,1,1.27-.67,9.16,9.16,0,0,1,1.47-.48,7.18,7.18,0,0,1,1.66-.19,4.41,4.41,0,0,1,1.94.36,3,3,0,0,1,1.12.89,2.91,2.91,0,0,1,.51,1.14,5.69,5.69,0,0,1,.12,1.13v9.24l.64-.57a5.75,5.75,0,0,1,1-.67,6.54,6.54,0,0,1,1.44-.56,7.61,7.61,0,0,1,2-.23,6.29,6.29,0,0,1,2.65.61,6.67,6.67,0,0,1,2.38,1.92,10.35,10.35,0,0,1,1.72,3.36,16.14,16.14,0,0,1,.66,4.93,14.59,14.59,0,0,1-.61,4.27,10.4,10.4,0,0,1-1.81,3.51,8.54,8.54,0,0,1-3,2.37,9.52,9.52,0,0,1-4.18.87,10.15,10.15,0,0,1-4.36-.84,7.56,7.56,0,0,1-2.85-2.26,8.94,8.94,0,0,1-1.54-3.3,16.52,16.52,0,0,1-.47-4Zm12.35,18.27a29.07,29.07,0,0,0-.19-3.39,13.19,13.19,0,0,0-.6-2.78,5.33,5.33,0,0,0-1.06-1.89,2,2,0,0,0-1.55-.69,2,2,0,0,0-1.19.34,3.29,3.29,0,0,0-.8.78,3.37,3.37,0,0,0-.46.86,2.27,2.27,0,0,0-.14.57v6.19a20.61,20.61,0,0,0,.76,6.57q.76,2.05,2.23,2.05t2.28-2.09A21.5,21.5,0,0,0,342.22,132.56Z"/><path class="cls-18" d="M358,133.37a5.86,5.86,0,0,0,.2,1.44,8.58,8.58,0,0,0,.57,1.56,8.29,8.29,0,0,0,.92,1.5,7.11,7.11,0,0,0,1.26,1.27,6,6,0,0,0,1.58.89,5.31,5.31,0,0,0,1.91.33,5.2,5.2,0,0,0,1.35-.17,5.33,5.33,0,0,0,1.16-.46,7.56,7.56,0,0,0,1-.67q.5-.38,1-.82l.52.5a14.21,14.21,0,0,1-1.22,1.41,10,10,0,0,1-1.8,1.44,10.4,10.4,0,0,1-2.47,1.12,10.65,10.65,0,0,1-3.21.45,9.77,9.77,0,0,1-3.51-.65,8.72,8.72,0,0,1-3-2,9.6,9.6,0,0,1-2.12-3.25,13.15,13.15,0,0,1-.32-8,11.1,11.1,0,0,1,1.29-2.84,10.55,10.55,0,0,1,1.91-2.22,11.83,11.83,0,0,1,2.29-1.58,11.29,11.29,0,0,1,2.46-1,10.05,10.05,0,0,1,5.09,0,6,6,0,0,1,1.9.89,3.7,3.7,0,0,1,1.13,1.29,3.37,3.37,0,0,1,.37,1.54,2.92,2.92,0,0,1-.56,1.75,5.17,5.17,0,0,1-1.49,1.36Zm4.16-4.21a3.29,3.29,0,0,0,.45-.32,1.16,1.16,0,0,0,.28-.37,2,2,0,0,0,.16-.54,5.19,5.19,0,0,0,.05-.8A6.56,6.56,0,0,0,363,126a4.63,4.63,0,0,0-.38-1.19,3,3,0,0,0-.68-.93,1.44,1.44,0,0,0-1-.37,1.91,1.91,0,0,0-1.27.45,3.45,3.45,0,0,0-.87,1.15,7.17,7.17,0,0,0-.54,1.61,18,18,0,0,0-.3,1.81q-.1.91-.12,1.75t0,1.42Z"/><path class="cls-18" d="M378.95,125.75a17.08,17.08,0,0,1,1.68-2.18,11.25,11.25,0,0,1,.81-.81,7.75,7.75,0,0,1,.9-.7,4.75,4.75,0,0,1,1-.5,2.82,2.82,0,0,1,1-.19A2.18,2.18,0,0,1,386,122a2.47,2.47,0,0,1,.6,1.77,7.91,7.91,0,0,1-.11,1.36,10.07,10.07,0,0,1-.45,1.58h-.58a1.92,1.92,0,0,0-.58-1.07,1.88,1.88,0,0,0-1.33-.42,3.51,3.51,0,0,0-1.26.24,7.83,7.83,0,0,0-1.21.59,10.69,10.69,0,0,0-1.12.77q-.53.41-1,.79v13.45a3,3,0,0,1-.08.64,1.48,1.48,0,0,1-.4.7,2.58,2.58,0,0,1-1,.57,5.06,5.06,0,0,1-1.73.24,4.67,4.67,0,0,1-1.73-.26,2.71,2.71,0,0,1-1-.61,1.56,1.56,0,0,1-.41-.73,2.9,2.9,0,0,1-.08-.6V125a1.93,1.93,0,0,0-.28-1,1,1,0,0,0-.94-.45,1.33,1.33,0,0,0-.6.12,3.24,3.24,0,0,0-.54.35l-.44-.52a11.54,11.54,0,0,1,1.07-.78,8.24,8.24,0,0,1,1.27-.67,9.2,9.2,0,0,1,1.47-.48,7.18,7.18,0,0,1,1.66-.19,4.33,4.33,0,0,1,1.52.24,3,3,0,0,1,1,.62,2.92,2.92,0,0,1,.63.86,4.75,4.75,0,0,1,.34,1,5.2,5.2,0,0,1,.13.93Q378.95,125.44,378.95,125.75Z"/><path class="cls-18" d="M399.4,112.08a2.5,2.5,0,0,0-1.1.25,2.34,2.34,0,0,0-.9.8,4.44,4.44,0,0,0-.61,1.4,8,8,0,0,0-.23,2.05v5.1h4.54v1.49h-4.54v16.33a17.57,17.57,0,0,1-.74,5.2,11.33,11.33,0,0,1-2.23,4.11,10.23,10.23,0,0,1-3.73,2.7,13,13,0,0,1-5.22,1,11.44,11.44,0,0,1-2-.18,8.36,8.36,0,0,1-1.72-.49,3.86,3.86,0,0,1-1.19-.74,1.28,1.28,0,0,1-.45-.94,2.88,2.88,0,0,1,.1-.76,2.34,2.34,0,0,1,.31-.69,1.78,1.78,0,0,1,.51-.51,1.24,1.24,0,0,1,.69-.2.5.5,0,0,1,.4.23,4.66,4.66,0,0,1,.36.56l.42.74a3.07,3.07,0,0,0,.61.74,3.27,3.27,0,0,0,.92.56,3.49,3.49,0,0,0,1.34.23,4,4,0,0,0,1.86-.42,4.25,4.25,0,0,0,1.39-1.17,6.94,6.94,0,0,0,1-1.76,12.9,12.9,0,0,0,.62-2.18,20.42,20.42,0,0,0,.32-2.42q.09-1.26.09-2.53V123.16h-3.81v-1.49h3.81v-2.42a10.21,10.21,0,0,1,.45-3.18,7.65,7.65,0,0,1,1.18-2.31,6.68,6.68,0,0,1,1.67-1.55,9.59,9.59,0,0,1,1.9-1,9,9,0,0,1,1.87-.48,12,12,0,0,1,1.6-.12,14,14,0,0,1,2.61.22,8,8,0,0,1,1.91.58,3.32,3.32,0,0,1,1.16.84,1.52,1.52,0,0,1,.39,1,2.65,2.65,0,0,1-.11.76,2.72,2.72,0,0,1-.32.7,1.73,1.73,0,0,1-.51.52,1.2,1.2,0,0,1-.67.2.52.52,0,0,1-.41-.25,5.47,5.47,0,0,1-.39-.62l-.46-.81a4,4,0,0,0-.61-.81,3.15,3.15,0,0,0-.86-.62A2.61,2.61,0,0,0,399.4,112.08Z"/><path class="cls-18" d="M407.91,133.37a5.86,5.86,0,0,0,.2,1.44,8.58,8.58,0,0,0,.57,1.56,8.29,8.29,0,0,0,.92,1.5,7.11,7.11,0,0,0,1.26,1.27,6,6,0,0,0,1.58.89,5.31,5.31,0,0,0,1.91.33,5.2,5.2,0,0,0,1.35-.17,5.33,5.33,0,0,0,1.16-.46,7.56,7.56,0,0,0,1-.67q.5-.38,1-.82l.52.5a14.21,14.21,0,0,1-1.22,1.41,10,10,0,0,1-1.8,1.44,10.4,10.4,0,0,1-2.47,1.12,10.65,10.65,0,0,1-3.21.45,9.77,9.77,0,0,1-3.51-.65,8.72,8.72,0,0,1-3-2,9.6,9.6,0,0,1-2.12-3.25,13.15,13.15,0,0,1-.32-8,11.1,11.1,0,0,1,1.29-2.84,10.55,10.55,0,0,1,1.91-2.22,11.83,11.83,0,0,1,2.29-1.58,11.29,11.29,0,0,1,2.46-1,10.05,10.05,0,0,1,5.09,0,6,6,0,0,1,1.9.89,3.7,3.7,0,0,1,1.13,1.29,3.37,3.37,0,0,1,.37,1.54,2.92,2.92,0,0,1-.56,1.75,5.17,5.17,0,0,1-1.49,1.36Zm4.16-4.21a3.29,3.29,0,0,0,.45-.32,1.16,1.16,0,0,0,.28-.37,2,2,0,0,0,.16-.54,5.19,5.19,0,0,0,.05-.8,6.56,6.56,0,0,0-.11-1.15,4.63,4.63,0,0,0-.38-1.19,3,3,0,0,0-.68-.93,1.44,1.44,0,0,0-1-.37,1.91,1.91,0,0,0-1.27.45,3.45,3.45,0,0,0-.87,1.15,7.17,7.17,0,0,0-.54,1.61,18,18,0,0,0-.3,1.81q-.1.91-.12,1.75t0,1.42Z"/><path class="cls-18" d="M428.86,123a3.19,3.19,0,0,0-.9.12,2.05,2.05,0,0,0-.76.4,1.91,1.91,0,0,0-.52.7,2.49,2.49,0,0,0-.19,1,2.69,2.69,0,0,0,.59,1.61,13.92,13.92,0,0,0,1.47,1.66q.88.86,1.91,1.78a21.14,21.14,0,0,1,1.91,1.95,11,11,0,0,1,1.47,2.19,5.4,5.4,0,0,1,.59,2.49,6.56,6.56,0,0,1-.51,2.65,5.41,5.41,0,0,1-1.45,2,6.45,6.45,0,0,1-2.28,1.23,9.78,9.78,0,0,1-3,.42,7.84,7.84,0,0,1-2.59-.4,9.36,9.36,0,0,1-2.06-1,9,9,0,0,1-1.54-1.25,8.35,8.35,0,0,1-1-1.2l.72-.52a7,7,0,0,0,.68.67,6.7,6.7,0,0,0,.92.67,5.38,5.38,0,0,0,1.09.51,3.65,3.65,0,0,0,1.18.2,4,4,0,0,0,2.44-.71,2.49,2.49,0,0,0,1-2.12,3.1,3.1,0,0,0-.52-1.63,12.78,12.78,0,0,0-1.31-1.73q-.79-.89-1.7-1.84a24.93,24.93,0,0,1-1.7-2,11.64,11.64,0,0,1-1.31-2.09,5.1,5.1,0,0,1-.52-2.24,4.71,4.71,0,0,1,.53-2.28,4.82,4.82,0,0,1,1.41-1.62,6.31,6.31,0,0,1,2-1,8.48,8.48,0,0,1,2.33-.32,11.87,11.87,0,0,1,2.53.25,6.2,6.2,0,0,1,2,.76,3.66,3.66,0,0,1,1.26,1.27,3.48,3.48,0,0,1,.45,1.78,2,2,0,0,1-.52,1.37,1.84,1.84,0,0,1-1.45.58,2.09,2.09,0,0,1-1.36-.38,1.28,1.28,0,0,1-.47-1,1,1,0,0,1,.22-.68,1.92,1.92,0,0,1,.49-.4l.49-.27a.34.34,0,0,0,.22-.3,1,1,0,0,0-.62-.92A3.29,3.29,0,0,0,428.86,123Z"/><path class="cls-18" d="M444.58,123.16v15.31A2.17,2.17,0,0,0,445,140a1.52,1.52,0,0,0,1.14.42,1.67,1.67,0,0,0,1-.31,3.64,3.64,0,0,0,.75-.7,4.39,4.39,0,0,0,.64-1l.64.29q-.31.66-.74,1.45a5.75,5.75,0,0,1-2.9,2.59,6.86,6.86,0,0,1-2.68.46,5.69,5.69,0,0,1-1.75-.27,4.11,4.11,0,0,1-1.49-.85,4.25,4.25,0,0,1-1-1.45,5,5,0,0,1-.39-2.09V123.16h-2.32v-1.49a6.25,6.25,0,0,0,1.62-.3,8.06,8.06,0,0,0,2.12-1,8.44,8.44,0,0,0,2-1.89,7.21,7.21,0,0,0,1.33-2.92h1.66v6.11H448q1.66,0,1.66-.56a.28.28,0,0,0-.21-.28l-.47-.19a1.51,1.51,0,0,1-.47-.32.94.94,0,0,1-.21-.68,1.17,1.17,0,0,1,.36-.91,1.34,1.34,0,0,1,.94-.33,1.32,1.32,0,0,1,.65.16,1.41,1.41,0,0,1,.47.41,1.87,1.87,0,0,1,.28.59,2.44,2.44,0,0,1,.09.66,2.94,2.94,0,0,1-.78,2.14,3.36,3.36,0,0,1-2.5.8Z"/><path class="cls-18" d="M140.64,129.38a2.76,2.76,0,0,1,2.48-2,2.44,2.44,0,0,1,2.53,2,2.49,2.49,0,0,1-1.49,2.81,2.54,2.54,0,0,1-3.14-1.06c-.13-.22-.25-.45-.38-.68Zm3.82.54a1.27,1.27,0,0,0-2.54,0,1.27,1.27,0,0,0,2.54,0Z"/><path class="cls-18" d="M156.92,108.68v8.85h28.79v2.6H154.36V108.68Z"/><path class="cls-18" d="M186.31,128.39v2.53h-38.7v-2.53Z"/><path class="cls-18" d="M458.45,146.44v-2.53h31.62v11.44H487.6c0-.28,0-.56,0-.85q0-3.46,0-6.92c0-1.14,0-1.14-1.11-1.14h-28Z"/><path class="cls-18" d="M496.84,133.17v2.45H458.47v-2.45Z"/><path class="cls-18" d="M478,107.71v15.79H458.48v-2.58h16.9v-1q0-5.55,0-11.1c0-1.07,0-1.07,1.11-1.07Z"/><path class="cls-18" d="M166.45,156.22V140.57H186v2.53H170c-1,0-1,0-1,1.07q0,5.51,0,11v1Z"/><path class="cls-18" d="M159.31,103.78a3.92,3.92,0,0,1-3.94,4,4,4,0,1,1,0-8A3.94,3.94,0,0,1,159.31,103.78Zm-3.93-1.37a1.35,1.35,0,0,0-1.4,1.34,1.33,1.33,0,0,0,1.36,1.38,1.38,1.38,0,0,0,1.38-1.29A1.4,1.4,0,0,0,155.38,102.41Z"/><path class="cls-18" d="M492.56,161.6a4,4,0,0,1-8,0,4,4,0,1,1,8,0Zm-4-1.36a1.36,1.36,0,0,0-1.4,1.34,1.42,1.42,0,0,0,1.34,1.42,1.47,1.47,0,0,0,1.43-1.36A1.44,1.44,0,0,0,488.6,160.25Z"/><path class="cls-18" d="M503.69,131.46a2.66,2.66,0,1,1-2.71,2.67A2.65,2.65,0,0,1,503.69,131.46Z"/><path class="cls-18" d="M165.1,162a2.57,2.57,0,0,1,2.65-2.7,2.66,2.66,0,1,1,0,5.32A2.55,2.55,0,0,1,165.1,162Z"/><path class="cls-18" d="M477,105.69a2.5,2.5,0,1,1,2.52-2.47A2.48,2.48,0,0,1,477,105.69Zm0-1.25a1.25,1.25,0,1,0,0-2.5,1.25,1.25,0,0,0-1.25,1.29A1.27,1.27,0,0,0,477,104.44Z"/><path class="cls-13" d="M170.21,509.89a5,5,0,0,1,1.88,6.91,5,5,0,0,1-1.88,1.83,5.57,5.57,0,0,1-5.31,0A5,5,0,0,1,163,516.8a5,5,0,0,1,1.88-6.91,5.68,5.68,0,0,1,5.31,0Zm-4.29,1.46a3.35,3.35,0,0,0-1.21,4.58,3.38,3.38,0,0,0,1.22,1.22,3.22,3.22,0,0,0,1.66.45,3.15,3.15,0,0,0,1.64-.45,3.29,3.29,0,0,0,1.2-1.22,3.35,3.35,0,0,0,.44-1.69,3.31,3.31,0,0,0-.44-1.69,3.25,3.25,0,0,0-1.2-1.2,3.19,3.19,0,0,0-1.64-.44A3.3,3.3,0,0,0,165.92,511.35Z"/><path class="cls-13" d="M180.63,512.1a3.26,3.26,0,0,1,1.25,1.35,4.36,4.36,0,0,1,.44,2,4.3,4.3,0,0,1-.43,2,3.2,3.2,0,0,1-1.23,1.33,3.54,3.54,0,0,1-1.85.48,3.21,3.21,0,0,1-1.48-.33,2.79,2.79,0,0,1-1.06-1v3.93h-1.82V511.67h1.82v1.23a2.7,2.7,0,0,1,1-1,3.18,3.18,0,0,1,1.48-.33A3.53,3.53,0,0,1,180.63,512.1Zm-.75,4.93a2.31,2.31,0,0,0,.59-1.63,2.28,2.28,0,0,0-.59-1.62,2.15,2.15,0,0,0-3,0,2.56,2.56,0,0,0,0,3.26,2,2,0,0,0,1.53.63A2,2,0,0,0,179.88,517Z"/><path class="cls-13" d="M189.71,512.64a4.19,4.19,0,0,1,.9,2.87c0,.24,0,.42,0,.55h-5.53a2.09,2.09,0,0,0,2.14,1.71,2.83,2.83,0,0,0,1.1-.22,2.67,2.67,0,0,0,.92-.62l1,1a3.8,3.8,0,0,1-1.37,1,4.6,4.6,0,0,1-1.79.34,4.17,4.17,0,0,1-2-.48,3.33,3.33,0,0,1-1.35-1.34,4.35,4.35,0,0,1,0-4A3.41,3.41,0,0,1,185,512.1a4,4,0,0,1,2-.48A3.41,3.41,0,0,1,189.71,512.64Zm-.76,2.2a1.82,1.82,0,0,0-.55-1.32,2.13,2.13,0,0,0-2.71,0,2.13,2.13,0,0,0-.67,1.32Z"/><path class="cls-13" d="M198.72,512.38a2.93,2.93,0,0,1,.74,2.11v4.68h-1.83V515a1.69,1.69,0,0,0-.45-1.24,1.63,1.63,0,0,0-1.22-.46,1.85,1.85,0,0,0-1.44.62,2.26,2.26,0,0,0-.52,1.54v3.68h-1.82v-7.49H194v1.4a2.84,2.84,0,0,1,2.69-1.47A2.67,2.67,0,0,1,198.72,512.38Z"/><path class="cls-13" d="M201.58,509.36h7.18V511h-5.31v2.42h4.76v1.64h-4.76v2.46h5.47v1.64h-7.35Z"/><path class="cls-13" d="M217.66,510a2.1,2.1,0,0,1,.9,1.79,2.14,2.14,0,0,1-1.71,2.17,2.53,2.53,0,0,1,1.53.84,2.46,2.46,0,0,1,.55,1.64,2.33,2.33,0,0,1-1,2,4.37,4.37,0,0,1-2.65.72h-4.48v-9.8h4.35A4.12,4.12,0,0,1,217.66,510Zm-1.43,3a1.07,1.07,0,0,0,.41-.9,1,1,0,0,0-.41-.87,1.82,1.82,0,0,0-1.14-.29h-2.38v2.38h2.38A1.81,1.81,0,0,0,216.23,513Zm.26,4.16a1.13,1.13,0,0,0,.5-1,1.08,1.08,0,0,0-.5-.95,2.4,2.4,0,0,0-1.4-.33h-2.38v2.59h2.38A2.36,2.36,0,0,0,216.49,517.2Z"/><path class="cls-13" d="M225.37,511.17a4.67,4.67,0,0,0-1.39-.25,2,2,0,0,0-1.06.25.79.79,0,0,0-.39.7.92.92,0,0,0,.27.68,2.11,2.11,0,0,0,.69.45,10.7,10.7,0,0,0,1.13.38,12.31,12.31,0,0,1,1.63.59,2.91,2.91,0,0,1,1.08.87,2.39,2.39,0,0,1,.45,1.51,2.58,2.58,0,0,1-.48,1.56,3,3,0,0,1-1.33,1,5,5,0,0,1-1.94.35,6.11,6.11,0,0,1-2.24-.43,6.36,6.36,0,0,1-1.9-1.14l.78-1.6a5.75,5.75,0,0,0,1.67,1.08,4.42,4.42,0,0,0,1.72.39,2.18,2.18,0,0,0,1.23-.3,1,1,0,0,0,.17-1.51,2,2,0,0,0-.69-.44q-.42-.17-1.15-.38a13.47,13.47,0,0,1-1.62-.57,2.82,2.82,0,0,1-1.08-.85,2.33,2.33,0,0,1-.45-1.49,2.5,2.5,0,0,1,.46-1.49,2.93,2.93,0,0,1,1.29-1,4.94,4.94,0,0,1,1.93-.35,6.51,6.51,0,0,1,1.88.28,6.35,6.35,0,0,1,1.66.76l-.76,1.64A7.06,7.06,0,0,0,225.37,511.17Z"/><path class="cls-13" d="M239.17,512.1a3.26,3.26,0,0,1,1.25,1.35,4.36,4.36,0,0,1,.44,2,4.3,4.3,0,0,1-.43,2,3.2,3.2,0,0,1-1.23,1.33,3.54,3.54,0,0,1-1.85.48,3.21,3.21,0,0,1-1.48-.33,2.79,2.79,0,0,1-1.06-1v3.93H233V511.67h1.82v1.23a2.7,2.7,0,0,1,1-1,3.18,3.18,0,0,1,1.48-.33A3.53,3.53,0,0,1,239.17,512.1Zm-.75,4.93a2.31,2.31,0,0,0,.59-1.63,2.28,2.28,0,0,0-.59-1.62,2.15,2.15,0,0,0-3,0,2.56,2.56,0,0,0,0,3.26,2,2,0,0,0,1.53.63A2,2,0,0,0,238.42,517Z"/><path class="cls-13" d="M245.29,512a3,3,0,0,1,1.52-.4v1.76a2.47,2.47,0,0,0-1.85.54,2.08,2.08,0,0,0-.69,1.65v3.61h-1.82v-7.49h1.82v1.44A2.7,2.7,0,0,1,245.29,512Z"/><path class="cls-13" d="M253.41,512.09a3.44,3.44,0,0,1,1.39,1.34,3.89,3.89,0,0,1,.5,2,4,4,0,0,1-.5,2,3.43,3.43,0,0,1-1.39,1.34,4.28,4.28,0,0,1-2.05.48,4.35,4.35,0,0,1-2.07-.48,3.42,3.42,0,0,1-1.39-1.34,4,4,0,0,1-.5-2,3.89,3.89,0,0,1,.5-2,3.43,3.43,0,0,1,1.39-1.34,4.35,4.35,0,0,1,2.07-.48A4.28,4.28,0,0,1,253.41,512.09Zm-3.59,1.71a2.58,2.58,0,0,0,0,3.28,2,2,0,0,0,1.54.63,2,2,0,0,0,1.51-.63,2.58,2.58,0,0,0,0-3.28,2,2,0,0,0-1.51-.63A2,2,0,0,0,249.82,513.8Z"/><path class="cls-13" d="M255.92,520.42a.81.81,0,0,0,.71-.3,1.47,1.47,0,0,0,.24-.92v-7.53h1.82v7.81a2.52,2.52,0,0,1-.62,1.81,2.28,2.28,0,0,1-1.73.65,3.82,3.82,0,0,1-1.46-.28l.39-1.37A2.21,2.21,0,0,0,255.92,520.42Zm2.59-11.66a1.09,1.09,0,0,1,.29.78,1.07,1.07,0,0,1-.29.77,1,1,0,0,1-1.48,0,1.07,1.07,0,0,1-.29-.77,1.09,1.09,0,0,1,.29-.78,1,1,0,0,1,1.48,0Z"/><path class="cls-13" d="M266.67,512.64a4.19,4.19,0,0,1,.9,2.87c0,.24,0,.42,0,.55H262a2.09,2.09,0,0,0,2.14,1.71,2.83,2.83,0,0,0,1.1-.22,2.67,2.67,0,0,0,.92-.62l1,1a3.8,3.8,0,0,1-1.37,1,4.6,4.6,0,0,1-1.79.34,4.17,4.17,0,0,1-2-.48,3.33,3.33,0,0,1-1.35-1.34,4.35,4.35,0,0,1,0-4A3.41,3.41,0,0,1,262,512.1a4,4,0,0,1,2-.48A3.41,3.41,0,0,1,266.67,512.64Zm-.76,2.2a1.82,1.82,0,0,0-.55-1.32,2.13,2.13,0,0,0-2.71,0,2.13,2.13,0,0,0-.67,1.32Z"/><path class="cls-13" d="M272.33,513.21a1.92,1.92,0,0,0-1.48.62,2.27,2.27,0,0,0-.57,1.6,2.3,2.3,0,0,0,.57,1.62,1.92,1.92,0,0,0,1.48.62,2.37,2.37,0,0,0,2-.88l1.13.94a3.31,3.31,0,0,1-1.33,1.12,4.44,4.44,0,0,1-1.92.39,4,4,0,0,1-2-.48,3.35,3.35,0,0,1-1.34-1.34,4.38,4.38,0,0,1,0-4,3.38,3.38,0,0,1,1.34-1.34,4,4,0,0,1,2-.48,4.46,4.46,0,0,1,1.83.36,3.3,3.3,0,0,1,1.31,1l-1.11,1A2.53,2.53,0,0,0,272.33,513.21Z"/><path class="cls-13" d="M281.42,518.7a3.55,3.55,0,0,1-1.88.55,2.24,2.24,0,0,1-1.58-.57,2.16,2.16,0,0,1-.62-1.67v-3.7h-1V512h1.06v-2.06h1.81V512h2.14v1.33h-2.14v3.37a1.09,1.09,0,0,0,.2.73.75.75,0,0,0,.59.22,2.6,2.6,0,0,0,1.06-.31Z"/><path class="cls-13" d="M287.91,508.76a1.09,1.09,0,0,1,.29.78,1.07,1.07,0,0,1-.29.77,1,1,0,0,1-1.48,0,1.07,1.07,0,0,1-.29-.77,1.09,1.09,0,0,1,.29-.78,1,1,0,0,1,1.48,0Zm-1.64,2.91h1.82v7.49h-1.82Z"/><path class="cls-13" d="M293.66,513.2a3.61,3.61,0,0,0-1.07-.18,1.44,1.44,0,0,0-.73.16.54.54,0,0,0-.27.5.59.59,0,0,0,.34.54,5.49,5.49,0,0,0,1.08.4,10.64,10.64,0,0,1,1.29.47,2.43,2.43,0,0,1,.88.69,1.84,1.84,0,0,1,.37,1.2,1.93,1.93,0,0,1-.84,1.68,3.61,3.61,0,0,1-2.11.59,5.34,5.34,0,0,1-1.69-.27,4,4,0,0,1-1.4-.78l.63-1.27a3.67,3.67,0,0,0,1.2.68,4,4,0,0,0,1.33.25,1.59,1.59,0,0,0,.81-.17.57.57,0,0,0,.3-.52.63.63,0,0,0-.35-.59,6.3,6.3,0,0,0-1.13-.43,9.55,9.55,0,0,1-1.23-.44,2.23,2.23,0,0,1-.83-.66,1.8,1.8,0,0,1-.35-1.16,2,2,0,0,1,.8-1.69,3.37,3.37,0,0,1,2-.58,5.2,5.2,0,0,1,1.46.21,4.56,4.56,0,0,1,1.28.59l-.66,1.32A5.39,5.39,0,0,0,293.66,513.2Z"/><path class="cls-13" d="M300.6,508.77h1.82v10.39H300.6Z"/><path class="cls-13" d="M310.08,512.09a3.44,3.44,0,0,1,1.39,1.34,3.89,3.89,0,0,1,.5,2,4,4,0,0,1-.5,2,3.43,3.43,0,0,1-1.39,1.34,4.28,4.28,0,0,1-2.05.48,4.35,4.35,0,0,1-2.07-.48,3.41,3.41,0,0,1-1.39-1.34,4,4,0,0,1-.5-2,3.88,3.88,0,0,1,.5-2,3.43,3.43,0,0,1,1.39-1.34,4.35,4.35,0,0,1,2.07-.48A4.28,4.28,0,0,1,310.08,512.09Zm-3.59,1.71a2.58,2.58,0,0,0,0,3.28,2,2,0,0,0,1.54.63,2,2,0,0,0,1.51-.63,2.58,2.58,0,0,0,0-3.28,2,2,0,0,0-1.51-.63A2,2,0,0,0,306.49,513.8Z"/><path class="cls-13" d="M318.87,512.09a3.44,3.44,0,0,1,1.39,1.34,3.89,3.89,0,0,1,.5,2,4,4,0,0,1-.5,2,3.43,3.43,0,0,1-1.39,1.34,4.28,4.28,0,0,1-2.05.48,4.35,4.35,0,0,1-2.07-.48,3.41,3.41,0,0,1-1.39-1.34,4,4,0,0,1-.5-2,3.88,3.88,0,0,1,.5-2,3.43,3.43,0,0,1,1.39-1.34,4.35,4.35,0,0,1,2.07-.48A4.28,4.28,0,0,1,318.87,512.09Zm-3.59,1.71a2.58,2.58,0,0,0,0,3.28,2,2,0,0,0,1.54.63,2,2,0,0,0,1.51-.63,2.58,2.58,0,0,0,0-3.28,2,2,0,0,0-1.51-.63A2,2,0,0,0,315.28,513.8Z"/><path class="cls-13" d="M327.41,519.16l-2-3.28-1.15,1.2v2.07h-1.82V508.77h1.82v6l3.08-3.11h2.1l-2.77,2.88,2.94,4.59Z"/><path class="cls-13" d="M332.45,508.76a1.09,1.09,0,0,1,.29.78,1.07,1.07,0,0,1-.29.77,1,1,0,0,1-1.48,0,1.07,1.07,0,0,1-.29-.77,1.09,1.09,0,0,1,.29-.78,1,1,0,0,1,1.48,0Zm-1.64,2.91h1.82v7.49h-1.82Z"/><path class="cls-13" d="M341.42,512.38a2.92,2.92,0,0,1,.74,2.11v4.68h-1.83V515a1.69,1.69,0,0,0-.45-1.24,1.63,1.63,0,0,0-1.22-.46,1.85,1.85,0,0,0-1.44.62,2.26,2.26,0,0,0-.52,1.54v3.68h-1.82v-7.49h1.82v1.4a2.84,2.84,0,0,1,2.69-1.47A2.68,2.68,0,0,1,341.42,512.38Z"/><path class="cls-13" d="M351.05,511.67v6.78a3.49,3.49,0,0,1-.48,1.86,3.18,3.18,0,0,1-1.37,1.22,4.73,4.73,0,0,1-2.07.43,5.49,5.49,0,0,1-3.16-1l.73-1.32a3.85,3.85,0,0,0,2.34.78,2.36,2.36,0,0,0,1.6-.52,1.78,1.78,0,0,0,.59-1.41v-.88a2.49,2.49,0,0,1-1,.88,3.09,3.09,0,0,1-1.4.3,3.3,3.3,0,0,1-1.74-.46,3.1,3.1,0,0,1-1.18-1.27,4.07,4.07,0,0,1-.42-1.88,4,4,0,0,1,.42-1.85,3.08,3.08,0,0,1,1.18-1.25,3.34,3.34,0,0,1,1.74-.45,3,3,0,0,1,1.39.31,2.57,2.57,0,0,1,1,.87v-1.12Zm-2.37,5.09a2.44,2.44,0,0,0,0-3.09,2,2,0,0,0-2.87,0,2.38,2.38,0,0,0,0,3.09,2,2,0,0,0,2.87,0Z"/><path class="cls-13" d="M359.05,510.49a.9.9,0,0,0-.27.71V512h1.88v1.33h-1.88v5.85H357v-5.85h-1V512h1v-.71a2.6,2.6,0,0,1,.36-1.41,2.32,2.32,0,0,1,1-.87,3,3,0,0,1,1.32-.29A3.14,3.14,0,0,1,361,509l-.32,1.47a2.61,2.61,0,0,0-.92-.22A1,1,0,0,0,359.05,510.49Z"/><path class="cls-13" d="M366.92,512.09a3.44,3.44,0,0,1,1.39,1.34,3.89,3.89,0,0,1,.5,2,4,4,0,0,1-.5,2,3.43,3.43,0,0,1-1.39,1.34,4.28,4.28,0,0,1-2.05.48,4.35,4.35,0,0,1-2.07-.48,3.41,3.41,0,0,1-1.39-1.34,4,4,0,0,1-.5-2,3.88,3.88,0,0,1,.5-2,3.43,3.43,0,0,1,1.39-1.34,4.35,4.35,0,0,1,2.07-.48A4.28,4.28,0,0,1,366.92,512.09Zm-3.59,1.71a2.58,2.58,0,0,0,0,3.28,2,2,0,0,0,1.54.63,2,2,0,0,0,1.51-.63,2.58,2.58,0,0,0,0-3.28,2,2,0,0,0-1.51-.63A2,2,0,0,0,363.33,513.8Z"/><path class="cls-13" d="M373.24,512a3,3,0,0,1,1.52-.4v1.76a2.47,2.47,0,0,0-1.85.54,2.08,2.08,0,0,0-.69,1.65v3.61h-1.82v-7.49h1.82v1.44A2.7,2.7,0,0,1,373.24,512Z"/><path class="cls-13" d="M382.65,513.21a1.92,1.92,0,0,0-1.48.62,2.27,2.27,0,0,0-.57,1.6,2.3,2.3,0,0,0,.57,1.62,1.92,1.92,0,0,0,1.48.62,2.38,2.38,0,0,0,2-.88l1.13.94a3.32,3.32,0,0,1-1.33,1.12,4.44,4.44,0,0,1-1.92.39,4,4,0,0,1-2-.48,3.35,3.35,0,0,1-1.34-1.34,4.38,4.38,0,0,1,0-4,3.38,3.38,0,0,1,1.34-1.34,4,4,0,0,1,2-.48,4.46,4.46,0,0,1,1.83.36,3.3,3.3,0,0,1,1.31,1l-1.11,1A2.53,2.53,0,0,0,382.65,513.21Z"/><path class="cls-13" d="M392.42,512.09a3.44,3.44,0,0,1,1.39,1.34,3.89,3.89,0,0,1,.5,2,4,4,0,0,1-.5,2,3.43,3.43,0,0,1-1.39,1.34,4.28,4.28,0,0,1-2.05.48,4.35,4.35,0,0,1-2.07-.48,3.41,3.41,0,0,1-1.39-1.34,4,4,0,0,1-.5-2,3.88,3.88,0,0,1,.5-2,3.43,3.43,0,0,1,1.39-1.34,4.35,4.35,0,0,1,2.07-.48A4.28,4.28,0,0,1,392.42,512.09Zm-3.59,1.71a2.58,2.58,0,0,0,0,3.28,2,2,0,0,0,1.54.63,2,2,0,0,0,1.51-.63,2.58,2.58,0,0,0,0-3.28,2,2,0,0,0-1.51-.63A2,2,0,0,0,388.82,513.8Z"/><path class="cls-13" d="M402.42,512.38a2.92,2.92,0,0,1,.74,2.11v4.68h-1.83V515a1.69,1.69,0,0,0-.45-1.24,1.63,1.63,0,0,0-1.22-.46,1.85,1.85,0,0,0-1.44.62,2.26,2.26,0,0,0-.52,1.54v3.68h-1.82v-7.49h1.82v1.4a2.84,2.84,0,0,1,2.69-1.47A2.68,2.68,0,0,1,402.42,512.38Z"/><path class="cls-13" d="M409.59,518.7a3.55,3.55,0,0,1-1.88.55,2.25,2.25,0,0,1-1.58-.57,2.16,2.16,0,0,1-.62-1.67v-3.7h-1.05V512h1.06v-2.06h1.81V512h2.14v1.33h-2.14v3.37a1.09,1.09,0,0,0,.2.73.75.75,0,0,0,.59.22,2.6,2.6,0,0,0,1.06-.31Z"/><path class="cls-13" d="M413.86,512a3,3,0,0,1,1.52-.4v1.76a2.47,2.47,0,0,0-1.85.54,2.08,2.08,0,0,0-.69,1.65v3.61H411v-7.49h1.82v1.44A2.7,2.7,0,0,1,413.86,512Z"/><path class="cls-13" d="M418.29,508.76a1.09,1.09,0,0,1,.29.78,1.07,1.07,0,0,1-.29.77,1,1,0,0,1-1.48,0,1.07,1.07,0,0,1-.29-.77,1.09,1.09,0,0,1,.29-.78,1,1,0,0,1,1.48,0Zm-1.64,2.91h1.82v7.49h-1.82Z"/><path class="cls-13" d="M427,512.1a3.26,3.26,0,0,1,1.25,1.35,4.35,4.35,0,0,1,.44,2,4.3,4.3,0,0,1-.43,2,3.21,3.21,0,0,1-1.23,1.33,3.54,3.54,0,0,1-1.85.48,3.21,3.21,0,0,1-1.48-.33,2.78,2.78,0,0,1-1.06-1v1.22H420.8V508.77h1.82v4.13a2.7,2.7,0,0,1,1-1,3.18,3.18,0,0,1,1.48-.33A3.54,3.54,0,0,1,427,512.1Zm-.75,4.93a2.31,2.31,0,0,0,.59-1.63,2.29,2.29,0,0,0-.59-1.62,2.15,2.15,0,0,0-3,0,2.56,2.56,0,0,0,0,3.26,2,2,0,0,0,1.53.63A2,2,0,0,0,426.25,517Z"/><path class="cls-13" d="M437.18,511.67v7.49h-1.83v-1.39a2.69,2.69,0,0,1-2.6,1.46,2.6,2.6,0,0,1-2-.77,2.93,2.93,0,0,1-.73-2.1v-4.69h1.83v4.16a1.71,1.71,0,0,0,.43,1.23,1.55,1.55,0,0,0,1.18.45,1.73,1.73,0,0,0,1.37-.62,2.3,2.3,0,0,0,.5-1.53v-3.7Z"/><path class="cls-13" d="M443.83,518.7a3.55,3.55,0,0,1-1.88.55,2.25,2.25,0,0,1-1.58-.57,2.16,2.16,0,0,1-.62-1.67v-3.7h-1.05V512h1.06v-2.06h1.81V512h2.14v1.33h-2.14v3.37a1.09,1.09,0,0,0,.2.73.75.75,0,0,0,.59.22,2.6,2.6,0,0,0,1.06-.31Z"/><path class="cls-13" d="M446.9,508.76a1.09,1.09,0,0,1,.29.78,1.07,1.07,0,0,1-.29.77,1,1,0,0,1-1.48,0,1.07,1.07,0,0,1-.29-.77,1.09,1.09,0,0,1,.29-.78,1,1,0,0,1,1.48,0Zm-1.64,2.91h1.82v7.49h-1.82Z"/><path class="cls-13" d="M454.66,512.09a3.44,3.44,0,0,1,1.39,1.34,3.89,3.89,0,0,1,.5,2,4,4,0,0,1-.5,2,3.43,3.43,0,0,1-1.39,1.34,4.28,4.28,0,0,1-2.05.48,4.35,4.35,0,0,1-2.07-.48,3.41,3.41,0,0,1-1.39-1.34,4,4,0,0,1-.5-2,3.88,3.88,0,0,1,.5-2,3.43,3.43,0,0,1,1.39-1.34,4.35,4.35,0,0,1,2.07-.48A4.28,4.28,0,0,1,454.66,512.09Zm-3.59,1.71a2.58,2.58,0,0,0,0,3.28,2,2,0,0,0,1.54.63,2,2,0,0,0,1.51-.63,2.58,2.58,0,0,0,0-3.28,2,2,0,0,0-1.51-.63A2,2,0,0,0,451.07,513.8Z"/><path class="cls-13" d="M464.66,512.38a2.92,2.92,0,0,1,.74,2.11v4.68h-1.83V515a1.69,1.69,0,0,0-.45-1.24,1.63,1.63,0,0,0-1.22-.46,1.85,1.85,0,0,0-1.44.62,2.26,2.26,0,0,0-.52,1.54v3.68h-1.82v-7.49h1.82v1.4a2.84,2.84,0,0,1,2.69-1.47A2.68,2.68,0,0,1,464.66,512.38Z"/><path class="cls-13" d="M470.76,513.2a3.62,3.62,0,0,0-1.07-.18,1.45,1.45,0,0,0-.74.16.54.54,0,0,0-.27.5.59.59,0,0,0,.34.54,5.48,5.48,0,0,0,1.08.4,10.66,10.66,0,0,1,1.29.47,2.42,2.42,0,0,1,.88.69,1.83,1.83,0,0,1,.37,1.2,1.93,1.93,0,0,1-.84,1.68,3.6,3.6,0,0,1-2.11.59A5.35,5.35,0,0,1,468,519a4,4,0,0,1-1.4-.78l.63-1.27a3.67,3.67,0,0,0,1.2.68,4,4,0,0,0,1.33.25,1.59,1.59,0,0,0,.8-.17.57.57,0,0,0,.3-.52.63.63,0,0,0-.35-.59,6.29,6.29,0,0,0-1.13-.43,9.51,9.51,0,0,1-1.23-.44,2.23,2.23,0,0,1-.83-.66,1.8,1.8,0,0,1-.35-1.16,2,2,0,0,1,.8-1.69,3.37,3.37,0,0,1,2-.58,5.19,5.19,0,0,1,1.46.21,4.55,4.55,0,0,1,1.28.59l-.66,1.32A5.38,5.38,0,0,0,470.76,513.2Z"/><path class="cls-13" d="M478.91,517.55a1,1,0,0,1,.27.71,1,1,0,0,1-.27.73.91.91,0,0,1-.69.29.89.89,0,0,1-.68-.29,1,1,0,0,1-.27-.73,1,1,0,0,1,.27-.71.91.91,0,0,1,.68-.28A.93.93,0,0,1,478.91,517.55Zm-1.56-8.09h1.75v2.44l-.31,4.07h-1.13l-.31-4.07Z"/><path class="cls-13" d="M155.33,526.16h1.95L154,536H152l-2.24-7.43L147.49,536h-1.92l-3.3-9.8h2l2.31,7.77,2.3-7.77h1.85L153,534Z"/><path class="cls-13" d="M163.47,529.44a4.19,4.19,0,0,1,.9,2.87c0,.24,0,.42,0,.55h-5.53a2.09,2.09,0,0,0,2.14,1.71,2.85,2.85,0,0,0,1.1-.22,2.69,2.69,0,0,0,.92-.62l1,1a3.79,3.79,0,0,1-1.37,1,4.58,4.58,0,0,1-1.79.34,4.17,4.17,0,0,1-2-.48,3.33,3.33,0,0,1-1.35-1.34,4.35,4.35,0,0,1,0-4,3.42,3.42,0,0,1,1.35-1.35,4,4,0,0,1,2-.48A3.41,3.41,0,0,1,163.47,529.44Zm-.76,2.2a1.82,1.82,0,0,0-.55-1.32,2.13,2.13,0,0,0-2.71,0,2.13,2.13,0,0,0-.67,1.32Z"/><path class="cls-13" d="M173.79,536V535a2.45,2.45,0,0,1-1,.74,3.71,3.71,0,0,1-1.41.25,3,3,0,0,1-1.38-.3,2.21,2.21,0,0,1-.92-.83,2.26,2.26,0,0,1-.32-1.19,2,2,0,0,1,.74-1.64,3.34,3.34,0,0,1,2.1-.61h2.18v-.2a1.26,1.26,0,0,0-.43-1,1.91,1.91,0,0,0-1.26-.36,4.33,4.33,0,0,0-2.23.7l-.66-1.26a8.31,8.31,0,0,1,1.6-.71,5.85,5.85,0,0,1,1.69-.22,3.34,3.34,0,0,1,2.26.7,2.5,2.5,0,0,1,.82,2V536Zm-.64-1.69a1.29,1.29,0,0,0,.63-.92v-.67h-1.89a2.05,2.05,0,0,0-1.07.22.77.77,0,0,0-.34.71.91.91,0,0,0,.36.76,1.53,1.53,0,0,0,1,.28A2.37,2.37,0,0,0,173.15,534.27Z"/><path class="cls-13" d="M180.48,528.8a3,3,0,0,1,1.52-.4v1.76a2.47,2.47,0,0,0-1.85.54,2.08,2.08,0,0,0-.69,1.64V536h-1.82v-7.49h1.82v1.44A2.7,2.7,0,0,1,180.48,528.8Z"/><path class="cls-13" d="M189.09,529.44a4.19,4.19,0,0,1,.9,2.87c0,.24,0,.42,0,.55h-5.53a2.09,2.09,0,0,0,2.14,1.71,2.85,2.85,0,0,0,1.1-.22,2.69,2.69,0,0,0,.92-.62l1,1a3.79,3.79,0,0,1-1.37,1,4.58,4.58,0,0,1-1.79.34,4.17,4.17,0,0,1-2-.48,3.33,3.33,0,0,1-1.35-1.34,4.35,4.35,0,0,1,0-4,3.42,3.42,0,0,1,1.35-1.35,4,4,0,0,1,2-.48A3.41,3.41,0,0,1,189.09,529.44Zm-.76,2.2a1.82,1.82,0,0,0-.55-1.32,2.13,2.13,0,0,0-2.71,0,2.13,2.13,0,0,0-.67,1.32Z"/><path class="cls-13" d="M198.18,530a1.91,1.91,0,0,0-1.48.62,2.26,2.26,0,0,0-.57,1.6,2.3,2.3,0,0,0,.57,1.62,1.91,1.91,0,0,0,1.48.62,2.37,2.37,0,0,0,2-.88l1.13.94a3.31,3.31,0,0,1-1.33,1.12,4.42,4.42,0,0,1-1.92.39,4,4,0,0,1-2-.48,3.35,3.35,0,0,1-1.34-1.34,4.38,4.38,0,0,1,0-4,3.39,3.39,0,0,1,1.34-1.34,4,4,0,0,1,2-.48,4.48,4.48,0,0,1,1.83.36,3.3,3.3,0,0,1,1.31,1l-1.11,1A2.53,2.53,0,0,0,198.18,530Z"/><path class="cls-13" d="M208.44,529.44a4.19,4.19,0,0,1,.9,2.87c0,.24,0,.42,0,.55H203.8a2.09,2.09,0,0,0,2.14,1.71,2.85,2.85,0,0,0,1.1-.22,2.69,2.69,0,0,0,.92-.62l1,1a3.79,3.79,0,0,1-1.37,1,4.58,4.58,0,0,1-1.79.34,4.17,4.17,0,0,1-2-.48,3.33,3.33,0,0,1-1.35-1.34,4.35,4.35,0,0,1,0-4,3.42,3.42,0,0,1,1.35-1.35,4,4,0,0,1,2-.48A3.41,3.41,0,0,1,208.44,529.44Zm-.76,2.2a1.82,1.82,0,0,0-.55-1.32,2.13,2.13,0,0,0-2.71,0,2.13,2.13,0,0,0-.67,1.32Z"/><path class="cls-13" d="M211,525.57h1.82V536H211Z"/><path class="cls-13" d="M221,529.44a4.19,4.19,0,0,1,.9,2.87c0,.24,0,.42,0,.55h-5.53a2.09,2.09,0,0,0,2.14,1.71,2.85,2.85,0,0,0,1.1-.22,2.69,2.69,0,0,0,.92-.62l1,1a3.79,3.79,0,0,1-1.37,1,4.58,4.58,0,0,1-1.79.34,4.17,4.17,0,0,1-2-.48,3.33,3.33,0,0,1-1.35-1.34,4.35,4.35,0,0,1,0-4,3.42,3.42,0,0,1,1.35-1.35,4,4,0,0,1,2-.48A3.41,3.41,0,0,1,221,529.44Zm-.76,2.2a1.82,1.82,0,0,0-.55-1.32,2.13,2.13,0,0,0-2.71,0,2.13,2.13,0,0,0-.67,1.32Z"/><path class="cls-13" d="M229.69,528.9a3.26,3.26,0,0,1,1.25,1.35,4.36,4.36,0,0,1,.44,2,4.3,4.3,0,0,1-.43,2,3.2,3.2,0,0,1-1.23,1.33,3.54,3.54,0,0,1-1.85.48,3.23,3.23,0,0,1-1.48-.33,2.8,2.8,0,0,1-1.06-1V536H223.5V525.57h1.82v4.13a2.69,2.69,0,0,1,1-1,3.17,3.17,0,0,1,1.48-.33A3.54,3.54,0,0,1,229.69,528.9Zm-.75,4.93a2.31,2.31,0,0,0,.59-1.63,2.29,2.29,0,0,0-.59-1.62,2.15,2.15,0,0,0-3,0,2.56,2.56,0,0,0,0,3.26,2,2,0,0,0,1.53.63A2,2,0,0,0,228.94,533.83Z"/><path class="cls-13" d="M235.81,528.8a3,3,0,0,1,1.52-.4v1.76a2.47,2.47,0,0,0-1.85.54,2.08,2.08,0,0,0-.69,1.64V536H233v-7.49h1.82v1.44A2.7,2.7,0,0,1,235.81,528.8Z"/><path class="cls-13" d="M242.76,536V535a2.45,2.45,0,0,1-1,.74,3.71,3.71,0,0,1-1.41.25,3,3,0,0,1-1.38-.3,2.21,2.21,0,0,1-.92-.83,2.26,2.26,0,0,1-.32-1.19,2,2,0,0,1,.74-1.64,3.34,3.34,0,0,1,2.1-.61h2.18v-.2a1.26,1.26,0,0,0-.43-1,1.91,1.91,0,0,0-1.26-.36,4.33,4.33,0,0,0-2.23.7l-.66-1.26a8.31,8.31,0,0,1,1.6-.71,5.85,5.85,0,0,1,1.69-.22,3.34,3.34,0,0,1,2.26.7,2.5,2.5,0,0,1,.82,2V536Zm-.64-1.69a1.29,1.29,0,0,0,.63-.92v-.67h-1.89a2.05,2.05,0,0,0-1.07.22.77.77,0,0,0-.34.71.91.91,0,0,0,.36.76,1.53,1.53,0,0,0,1,.28A2.37,2.37,0,0,0,242.12,534.27Z"/><path class="cls-13" d="M251,535.5a3.56,3.56,0,0,1-1.88.55,2.24,2.24,0,0,1-1.58-.57,2.16,2.16,0,0,1-.62-1.67v-3.7h-1v-1.33h1.06v-2.06h1.81v2.06h2.14v1.33h-2.14v3.37a1.09,1.09,0,0,0,.2.74.75.75,0,0,0,.59.22,2.61,2.61,0,0,0,1.06-.31Z"/><path class="cls-13" d="M254,525.56a1.09,1.09,0,0,1,.29.78,1.07,1.07,0,0,1-.29.77,1,1,0,0,1-1.48,0,1.07,1.07,0,0,1-.29-.77,1.09,1.09,0,0,1,.29-.78,1,1,0,0,1,1.48,0Zm-1.64,2.91h1.82V536H252.4Z"/><path class="cls-13" d="M263,529.18a2.92,2.92,0,0,1,.74,2.11V536h-1.83v-4.14a1.69,1.69,0,0,0-.45-1.24,1.63,1.63,0,0,0-1.22-.46,1.85,1.85,0,0,0-1.44.62,2.26,2.26,0,0,0-.52,1.54V536h-1.82v-7.49h1.82v1.4A2.84,2.84,0,0,1,261,528.4,2.68,2.68,0,0,1,263,529.18Z"/><path class="cls-13" d="M272.65,528.47v6.78a3.49,3.49,0,0,1-.48,1.85,3.17,3.17,0,0,1-1.37,1.22,4.71,4.71,0,0,1-2.06.43,5.5,5.5,0,0,1-3.16-1l.73-1.32a3.86,3.86,0,0,0,2.34.78,2.36,2.36,0,0,0,1.6-.52,1.78,1.78,0,0,0,.6-1.41v-.88a2.49,2.49,0,0,1-1,.88,3.09,3.09,0,0,1-1.4.3,3.31,3.31,0,0,1-1.74-.46,3.11,3.11,0,0,1-1.18-1.27,4.07,4.07,0,0,1-.42-1.88,4,4,0,0,1,.42-1.86,3.08,3.08,0,0,1,1.18-1.25,3.35,3.35,0,0,1,1.74-.45,3,3,0,0,1,1.39.31,2.57,2.57,0,0,1,1,.87v-1.12Zm-2.37,5.09a2.44,2.44,0,0,0,0-3.09,2,2,0,0,0-2.87,0,2.38,2.38,0,0,0,0,3.09,2,2,0,0,0,2.87,0Z"/><path class="cls-13" d="M282.6,535.5a3.56,3.56,0,0,1-1.88.55,2.24,2.24,0,0,1-1.58-.57,2.16,2.16,0,0,1-.62-1.67v-3.7h-1v-1.33h1.06v-2.06h1.81v2.06h2.14v1.33h-2.14v3.37a1.09,1.09,0,0,0,.2.74.75.75,0,0,0,.59.22,2.61,2.61,0,0,0,1.06-.31Z"/><path class="cls-13" d="M290.65,529.18a2.92,2.92,0,0,1,.74,2.11V536h-1.83v-4.14a1.69,1.69,0,0,0-.45-1.24,1.63,1.63,0,0,0-1.22-.46,1.87,1.87,0,0,0-1.44.62,2.24,2.24,0,0,0-.53,1.54V536H284.1V525.57h1.82v4.33a2.84,2.84,0,0,1,2.7-1.5A2.68,2.68,0,0,1,290.65,529.18Z"/><path class="cls-13" d="M299.26,529.44a4.19,4.19,0,0,1,.9,2.87c0,.24,0,.42,0,.55h-5.53a2.09,2.09,0,0,0,2.14,1.71,2.85,2.85,0,0,0,1.1-.22,2.67,2.67,0,0,0,.92-.62l1,1a3.78,3.78,0,0,1-1.37,1,4.58,4.58,0,0,1-1.79.34,4.16,4.16,0,0,1-2-.48,3.32,3.32,0,0,1-1.35-1.34,4.35,4.35,0,0,1,0-4,3.42,3.42,0,0,1,1.35-1.35,4,4,0,0,1,2-.48A3.41,3.41,0,0,1,299.26,529.44Zm-.76,2.2a1.82,1.82,0,0,0-.55-1.32,2.13,2.13,0,0,0-2.71,0,2.13,2.13,0,0,0-.66,1.32Z"/><path class="cls-13" d="M317,529.18a3,3,0,0,1,.73,2.11V536h-1.83v-4.14a1.73,1.73,0,0,0-.44-1.25,1.59,1.59,0,0,0-1.2-.46,1.8,1.8,0,0,0-1.38.63,2.28,2.28,0,0,0-.51,1.53V536H310.5v-4.14a1.74,1.74,0,0,0-.43-1.25,1.57,1.57,0,0,0-1.19-.46,1.82,1.82,0,0,0-1.39.63,2.28,2.28,0,0,0-.51,1.53V536h-1.82v-7.49H307v1.39a3.11,3.11,0,0,1,4.28-1,2.46,2.46,0,0,1,.93,1.32A2.77,2.77,0,0,1,315,528.4,2.61,2.61,0,0,1,317,529.18Z"/><path class="cls-13" d="M325.06,528.89a3.44,3.44,0,0,1,1.39,1.34,3.89,3.89,0,0,1,.5,2,4,4,0,0,1-.5,2,3.43,3.43,0,0,1-1.39,1.34A4.28,4.28,0,0,1,323,536a4.35,4.35,0,0,1-2.07-.48,3.42,3.42,0,0,1-1.39-1.34,4,4,0,0,1-.5-2,3.88,3.88,0,0,1,.5-2,3.43,3.43,0,0,1,1.39-1.34,4.35,4.35,0,0,1,2.07-.48A4.28,4.28,0,0,1,325.06,528.89Zm-3.59,1.71a2.58,2.58,0,0,0,0,3.28,2,2,0,0,0,1.54.63,2,2,0,0,0,1.51-.63,2.58,2.58,0,0,0,0-3.28A2,2,0,0,0,323,530,2,2,0,0,0,321.47,530.6Z"/><path class="cls-13" d="M335.06,529.18a2.92,2.92,0,0,1,.74,2.11V536H334v-4.14a1.69,1.69,0,0,0-.45-1.24,1.63,1.63,0,0,0-1.22-.46,1.85,1.85,0,0,0-1.44.62,2.26,2.26,0,0,0-.52,1.54V536h-1.82v-7.49h1.82v1.4A2.84,2.84,0,0,1,333,528.4,2.68,2.68,0,0,1,335.06,529.18Z"/><path class="cls-13" d="M342.23,535.5a3.56,3.56,0,0,1-1.88.55,2.25,2.25,0,0,1-1.58-.57,2.16,2.16,0,0,1-.62-1.67v-3.7H337.1v-1.33h1.06v-2.06H340v2.06h2.14v1.33H340v3.37a1.09,1.09,0,0,0,.2.74.75.75,0,0,0,.59.22,2.61,2.61,0,0,0,1.06-.31Z"/><path class="cls-13" d="M350.28,529.18a2.92,2.92,0,0,1,.74,2.11V536h-1.83v-4.14a1.69,1.69,0,0,0-.45-1.24,1.63,1.63,0,0,0-1.22-.46,1.87,1.87,0,0,0-1.44.62,2.24,2.24,0,0,0-.53,1.54V536h-1.82V525.57h1.82v4.33a2.84,2.84,0,0,1,2.7-1.5A2.68,2.68,0,0,1,350.28,529.18Z"/><path class="cls-13" d="M356.56,525.57h1.82V536h-1.82Z"/><path class="cls-13" d="M366,528.89a3.44,3.44,0,0,1,1.39,1.34,3.89,3.89,0,0,1,.5,2,4,4,0,0,1-.5,2,3.43,3.43,0,0,1-1.39,1.34A4.28,4.28,0,0,1,364,536a4.35,4.35,0,0,1-2.07-.48,3.42,3.42,0,0,1-1.39-1.34,4,4,0,0,1-.5-2,3.88,3.88,0,0,1,.5-2,3.43,3.43,0,0,1,1.39-1.34,4.35,4.35,0,0,1,2.07-.48A4.28,4.28,0,0,1,366,528.89Zm-3.59,1.71a2.58,2.58,0,0,0,0,3.28,2,2,0,0,0,1.54.63,2,2,0,0,0,1.51-.63,2.58,2.58,0,0,0,0-3.28A2,2,0,0,0,364,530,2,2,0,0,0,362.46,530.6Z"/><path class="cls-13" d="M376.05,529.18a2.92,2.92,0,0,1,.74,2.11V536H375v-4.14a1.69,1.69,0,0,0-.45-1.24,1.63,1.63,0,0,0-1.22-.46,1.85,1.85,0,0,0-1.44.62,2.26,2.26,0,0,0-.52,1.54V536h-1.82v-7.49h1.82v1.4A2.84,2.84,0,0,1,374,528.4,2.68,2.68,0,0,1,376.05,529.18Z"/><path class="cls-13" d="M385.68,528.47v6.78a3.49,3.49,0,0,1-.48,1.85,3.17,3.17,0,0,1-1.37,1.22,4.71,4.71,0,0,1-2.07.43,5.5,5.5,0,0,1-3.16-1l.73-1.32a3.85,3.85,0,0,0,2.34.78,2.36,2.36,0,0,0,1.6-.52,1.78,1.78,0,0,0,.59-1.41v-.88a2.49,2.49,0,0,1-1,.88,3.09,3.09,0,0,1-1.4.3,3.31,3.31,0,0,1-1.74-.46,3.11,3.11,0,0,1-1.18-1.27,4.07,4.07,0,0,1-.42-1.88,4,4,0,0,1,.42-1.86,3.08,3.08,0,0,1,1.18-1.25,3.35,3.35,0,0,1,1.74-.45,3,3,0,0,1,1.39.31,2.57,2.57,0,0,1,1,.87v-1.12Zm-2.37,5.09a2.44,2.44,0,0,0,0-3.09,2,2,0,0,0-2.87,0,2.38,2.38,0,0,0,0,3.09,2,2,0,0,0,2.87,0Z"/><path class="cls-13" d="M391.33,526.16h1.88v4.19h4.89v-4.19H400V536h-1.88v-4H393.2v4h-1.88Z"/><path class="cls-13" d="M406.74,536V535a2.44,2.44,0,0,1-1,.74,3.71,3.71,0,0,1-1.41.25,3,3,0,0,1-1.38-.3,2.21,2.21,0,0,1-.92-.83,2.26,2.26,0,0,1-.32-1.19,2,2,0,0,1,.74-1.64,3.34,3.34,0,0,1,2.1-.61h2.18v-.2a1.26,1.26,0,0,0-.43-1,1.91,1.91,0,0,0-1.26-.36,4.33,4.33,0,0,0-2.23.7l-.66-1.26a8.28,8.28,0,0,1,1.6-.71,5.84,5.84,0,0,1,1.69-.22,3.33,3.33,0,0,1,2.26.7,2.5,2.5,0,0,1,.82,2V536Zm-.64-1.69a1.29,1.29,0,0,0,.63-.92v-.67h-1.89a2.06,2.06,0,0,0-1.07.22.77.77,0,0,0-.34.71.91.91,0,0,0,.36.76,1.53,1.53,0,0,0,1,.28A2.37,2.37,0,0,0,406.1,534.27Z"/><path class="cls-13" d="M413.77,530a1.91,1.91,0,0,0-1.48.62,2.26,2.26,0,0,0-.57,1.6,2.3,2.3,0,0,0,.57,1.62,1.91,1.91,0,0,0,1.48.62,2.38,2.38,0,0,0,2-.88l1.13.94a3.31,3.31,0,0,1-1.33,1.12,4.43,4.43,0,0,1-1.92.39,4,4,0,0,1-2-.48,3.35,3.35,0,0,1-1.34-1.34,4.38,4.38,0,0,1,0-4,3.39,3.39,0,0,1,1.34-1.34,4,4,0,0,1,2-.48,4.48,4.48,0,0,1,1.83.36,3.3,3.3,0,0,1,1.31,1l-1.11,1A2.53,2.53,0,0,0,413.77,530Z"/><path class="cls-13" d="M423.54,536l-2-3.28-1.15,1.2V536h-1.82V525.57h1.82v6l3.08-3.11h2.1l-2.77,2.88,2.94,4.59Z"/><path class="cls-13" d="M431.32,535.5a3.56,3.56,0,0,1-1.88.55,2.25,2.25,0,0,1-1.58-.57,2.16,2.16,0,0,1-.62-1.67v-3.7H426.2v-1.33h1.06v-2.06h1.81v2.06h2.14v1.33h-2.14v3.37a1.09,1.09,0,0,0,.2.74.75.75,0,0,0,.59.22,2.61,2.61,0,0,0,1.06-.31Z"/><path class="cls-13" d="M438,528.89a3.44,3.44,0,0,1,1.39,1.34,3.89,3.89,0,0,1,.5,2,4,4,0,0,1-.5,2,3.43,3.43,0,0,1-1.39,1.34A4.28,4.28,0,0,1,436,536a4.35,4.35,0,0,1-2.07-.48,3.42,3.42,0,0,1-1.39-1.34,4,4,0,0,1-.5-2,3.88,3.88,0,0,1,.5-2,3.43,3.43,0,0,1,1.39-1.34,4.35,4.35,0,0,1,2.07-.48A4.28,4.28,0,0,1,438,528.89Zm-3.59,1.71a2.58,2.58,0,0,0,0,3.28,2,2,0,0,0,1.54.63,2,2,0,0,0,1.51-.63,2.58,2.58,0,0,0,0-3.28A2,2,0,0,0,436,530,2,2,0,0,0,434.42,530.6Z"/><path class="cls-13" d="M447.74,528.9a3.26,3.26,0,0,1,1.25,1.35,4.35,4.35,0,0,1,.44,2,4.3,4.3,0,0,1-.43,2,3.21,3.21,0,0,1-1.23,1.33,3.54,3.54,0,0,1-1.85.48,3.23,3.23,0,0,1-1.48-.33,2.79,2.79,0,0,1-1.06-1V536h-1.82V525.57h1.82v4.13a2.69,2.69,0,0,1,1-1,3.17,3.17,0,0,1,1.48-.33A3.54,3.54,0,0,1,447.74,528.9Zm-.75,4.93a2.31,2.31,0,0,0,.59-1.63,2.29,2.29,0,0,0-.59-1.62,2.15,2.15,0,0,0-3,0,2.56,2.56,0,0,0,0,3.26,2,2,0,0,0,1.53.63A2,2,0,0,0,447,533.83Z"/><path class="cls-13" d="M456.82,529.44a4.19,4.19,0,0,1,.9,2.87c0,.24,0,.42,0,.55h-5.53a2.09,2.09,0,0,0,2.14,1.71,2.85,2.85,0,0,0,1.1-.22,2.68,2.68,0,0,0,.92-.62l1,1a3.8,3.8,0,0,1-1.37,1,4.58,4.58,0,0,1-1.79.34,4.16,4.16,0,0,1-2-.48,3.32,3.32,0,0,1-1.35-1.34,4.35,4.35,0,0,1,0-4,3.42,3.42,0,0,1,1.35-1.35,4,4,0,0,1,2-.48A3.41,3.41,0,0,1,456.82,529.44Zm-.76,2.2a1.82,1.82,0,0,0-.55-1.32,2.13,2.13,0,0,0-2.71,0,2.13,2.13,0,0,0-.67,1.32Z"/><path class="cls-13" d="M462.14,528.8a3,3,0,0,1,1.52-.4v1.76a2.47,2.47,0,0,0-1.85.54,2.07,2.07,0,0,0-.69,1.64V536h-1.82v-7.49h1.82v1.44A2.7,2.7,0,0,1,462.14,528.8Z"/><path class="cls-13" d="M467.37,527.29a.89.89,0,0,0-.27.71v.77H469v1.33h-1.88V536h-1.82v-5.85h-1v-1.33h1v-.71a2.6,2.6,0,0,1,.36-1.41,2.32,2.32,0,0,1,1-.87,3,3,0,0,1,1.32-.29,3.14,3.14,0,0,1,1.37.32l-.32,1.47a2.63,2.63,0,0,0-.92-.22A1,1,0,0,0,467.37,527.29Z"/><path class="cls-13" d="M475.72,529.44a4.19,4.19,0,0,1,.9,2.87c0,.24,0,.42,0,.55h-5.53a2.09,2.09,0,0,0,2.14,1.71,2.85,2.85,0,0,0,1.1-.22,2.68,2.68,0,0,0,.92-.62l1,1a3.8,3.8,0,0,1-1.37,1,4.58,4.58,0,0,1-1.79.34,4.16,4.16,0,0,1-2-.48,3.32,3.32,0,0,1-1.35-1.34,4.35,4.35,0,0,1,0-4,3.42,3.42,0,0,1,1.35-1.35,4,4,0,0,1,2-.48A3.41,3.41,0,0,1,475.72,529.44Zm-.76,2.2a1.82,1.82,0,0,0-.55-1.32,2.13,2.13,0,0,0-2.71,0,2.13,2.13,0,0,0-.67,1.32Z"/><path class="cls-13" d="M481.5,530a3.62,3.62,0,0,0-1.07-.18,1.45,1.45,0,0,0-.74.16.54.54,0,0,0-.27.5.59.59,0,0,0,.34.54,5.55,5.55,0,0,0,1.08.4,10.33,10.33,0,0,1,1.29.47,2.43,2.43,0,0,1,.88.69,1.84,1.84,0,0,1,.37,1.2,1.93,1.93,0,0,1-.84,1.68,3.6,3.6,0,0,1-2.11.59,5.37,5.37,0,0,1-1.69-.27,4,4,0,0,1-1.4-.78l.63-1.27a3.69,3.69,0,0,0,1.2.68,4,4,0,0,0,1.33.25,1.6,1.6,0,0,0,.8-.17.57.57,0,0,0,.3-.53.63.63,0,0,0-.35-.59,6.15,6.15,0,0,0-1.13-.43,9.65,9.65,0,0,1-1.23-.44,2.23,2.23,0,0,1-.83-.66,1.8,1.8,0,0,1-.35-1.16,2,2,0,0,1,.8-1.69,3.37,3.37,0,0,1,2-.58,5.23,5.23,0,0,1,1.46.21,4.55,4.55,0,0,1,1.28.59l-.66,1.32A5.38,5.38,0,0,0,481.5,530Z"/><path class="cls-13" d="M489.32,535.5a3.56,3.56,0,0,1-1.88.55,2.25,2.25,0,0,1-1.58-.57,2.16,2.16,0,0,1-.62-1.67v-3.7H484.2v-1.33h1.06v-2.06h1.81v2.06h2.14v1.33h-2.14v3.37a1.09,1.09,0,0,0,.2.74.75.75,0,0,0,.59.22,2.61,2.61,0,0,0,1.06-.31Z"/><path class="cls-13" d="M495.46,534.35a1,1,0,0,1,.27.71,1,1,0,0,1-.27.74.91.91,0,0,1-.69.29.89.89,0,0,1-.68-.29,1,1,0,0,1-.27-.73,1,1,0,0,1,.27-.71.91.91,0,0,1,.68-.28A.93.93,0,0,1,495.46,534.35Zm-1.56-8.09h1.75v2.44l-.31,4.07h-1.13l-.31-4.07Z"/><path class="cls-13" d="M498.57,534.35a1,1,0,0,1,.27.71,1,1,0,0,1-.27.74.91.91,0,0,1-.69.29.89.89,0,0,1-.68-.29,1,1,0,0,1-.27-.73,1,1,0,0,1,.27-.71.91.91,0,0,1,.68-.28A.93.93,0,0,1,498.57,534.35ZM497,526.26h1.75v2.44l-.31,4.07h-1.13l-.31-4.07Z"/></svg>