<svg id="Layer_1" data-name="Layer 1" xmlns="http://www.w3.org/2000/svg" xmlns:xlink="http://www.w3.org/1999/xlink" viewBox="0 0 1350 668"><defs><style>.cls-1,.cls-4,.cls-5{fill:none;}.cls-2{fill:#fff;}.cls-10,.cls-11,.cls-12,.cls-17,.cls-3{fill:#273274;}.cls-4,.cls-5{stroke:#273274;}.cls-10,.cls-11,.cls-12,.cls-13,.cls-14,.cls-16,.cls-17,.cls-4,.cls-5,.cls-8,.cls-9{stroke-miterlimit:10;}.cls-10,.cls-13,.cls-4{stroke-width:4px;}.cls-11,.cls-12,.cls-16,.cls-5,.cls-9{stroke-width:2px;}.cls-6{clip-path:url(#clip-path);}.cls-14,.cls-7,.cls-8,.cls-9{fill:#ff544e;}.cls-14,.cls-8,.cls-9{stroke:#fff;}.cls-17,.cls-8{stroke-width:3px;}.cls-10,.cls-11,.cls-13,.cls-16,.cls-17{stroke:#f7f7f7;}.cls-12{stroke:#f9f9f9;}.cls-13,.cls-15,.cls-16{fill:#ff8c58;}.cls-14{stroke-width:5px;}</style><clipPath id="clip-path"><rect class="cls-1" x="181" y="397.35" width="994" height="270.3"/></clipPath></defs><title>header hacktober</title><rect class="cls-2" width="1350" height="667"/><path class="cls-3" d="M509.27,119.06h5.26V102.62a2.9,2.9,0,0,0-.14-1,1.42,1.42,0,0,0-.4-.59,1.38,1.38,0,0,0-.62-.29,4.09,4.09,0,0,0-.79-.07,7.72,7.72,0,0,0-1.57.2,13.09,13.09,0,0,0-2,.61,16.55,16.55,0,0,0-2.09,1,10.13,10.13,0,0,0-1.88,1.34,6.74,6.74,0,0,0-1.34,1.68,4,4,0,0,0-.52,2,3.66,3.66,0,0,0,.25,1.47,2.33,2.33,0,0,0,.56.82,1.48,1.48,0,0,0,.65.35,2.55,2.55,0,0,0,.48.07,2.51,2.51,0,0,0,1.18-.25,6.8,6.8,0,0,0,.84-.52l.71-.52a1.25,1.25,0,0,1,.77-.25,2,2,0,0,1,.74.16,2.1,2.1,0,0,1,.72.51,2.89,2.89,0,0,1,.56.91,3.62,3.62,0,0,1,.23,1.37,4.17,4.17,0,0,1-.45,2,4.45,4.45,0,0,1-1.16,1.4,4.79,4.79,0,0,1-1.62.84,6.47,6.47,0,0,1-4.3-.2,5.52,5.52,0,0,1-1.89-1.31,5.65,5.65,0,0,1-1.18-2,7,7,0,0,1-.4-2.4,9.06,9.06,0,0,1,.72-3.65,10.29,10.29,0,0,1,2-3A13.4,13.4,0,0,1,505.5,101a19.43,19.43,0,0,1,3.65-1.66,24.51,24.51,0,0,1,4.1-1,27.83,27.83,0,0,1,4.28-.33,11.9,11.9,0,0,1,3.68.45,4.9,4.9,0,0,1,1.94,1.08,2.5,2.5,0,0,1,.74,1.33A7.31,7.31,0,0,1,524,102v17h10.63V105.16A23.44,23.44,0,0,1,535.87,97a16.28,16.28,0,0,1,3.21-5.47,12.06,12.06,0,0,1,4.39-3.09,13,13,0,0,1,4.82-1,19.3,19.3,0,0,1,3.13.25,10.83,10.83,0,0,1,2.6.74,5.16,5.16,0,0,1,1.78,1.23,2.49,2.49,0,0,1,.66,1.72A2.59,2.59,0,0,1,556,93a1.89,1.89,0,0,1-.53.51,1.16,1.16,0,0,1-.62.19,1.45,1.45,0,0,1-.92-.32,4.3,4.3,0,0,1-.77-.79q-.36-.48-.71-1a7,7,0,0,0-.78-1,4.12,4.12,0,0,0-1-.79,2.56,2.56,0,0,0-1.3-.32,4,4,0,0,0-2.8,1A6.15,6.15,0,0,0,545,93.16a20.92,20.92,0,0,0-.71,4.64q-.16,2.77-.16,6.35v14.91h5.81v2.54h-5.81v17.56a2.26,2.26,0,0,0,.36,1.34,1.27,1.27,0,0,0,1.11.51,3.86,3.86,0,0,0,1.5-.29q.69-.29,1.21-.55l.49,1.07q-.64.43-1.49.91a17.09,17.09,0,0,1-1.88.9,14.77,14.77,0,0,1-2.2.69,10.68,10.68,0,0,1-2.44.27,8.16,8.16,0,0,1-3.18-.52,4.63,4.63,0,0,1-1.88-1.37,4.55,4.55,0,0,1-.88-1.92,10.87,10.87,0,0,1-.22-2.17V121.6H524V136a15.38,15.38,0,0,1-1.43,6.85,13.84,13.84,0,0,1-3.91,4.87,16.94,16.94,0,0,1-5.85,2.92,26,26,0,0,1-7.21,1,15.89,15.89,0,0,1-2.83-.25,11.59,11.59,0,0,1-2.4-.68,5.38,5.38,0,0,1-1.66-1,1.76,1.76,0,0,1-.62-1.29,4,4,0,0,1,.14-1.05,3.28,3.28,0,0,1,.43-1,2.67,2.67,0,0,1,.71-.72,1.62,1.62,0,0,1,.94-.29.7.7,0,0,1,.56.32,6,6,0,0,1,.51.79q.26.48.59,1a4.51,4.51,0,0,0,.87,1,4.62,4.62,0,0,0,1.29.79,4.84,4.84,0,0,0,1.88.32,8.41,8.41,0,0,0,3.83-.81,7.11,7.11,0,0,0,2.64-2.28A10.34,10.34,0,0,0,514,143a18.51,18.51,0,0,0,.51-4.46V121.6h-5.26Z"/><path class="cls-3" d="M563.17,113.57a6.84,6.84,0,0,0-1.82.23,6.28,6.28,0,0,0-1.44.58,3.44,3.44,0,0,0-1,.77,1.27,1.27,0,0,0-.35.79.64.64,0,0,0,.45.62l1,.43a3.34,3.34,0,0,1,1,.69,1.87,1.87,0,0,1,.45,1.37,2.51,2.51,0,0,1-.25,1.11,3,3,0,0,1-1.65,1.5,3.23,3.23,0,0,1-1.17.22,3.36,3.36,0,0,1-2.61-1.1,4.17,4.17,0,0,1-1-2.92,5,5,0,0,1,.92-3,7.21,7.21,0,0,1,2.41-2.07,12.19,12.19,0,0,1,3.37-1.2,18.7,18.7,0,0,1,8.06.1,10.93,10.93,0,0,1,3.63,1.56,8.08,8.08,0,0,1,2.51,2.72,7.93,7.93,0,0,1,.94,4v16.32q0,.26,0,.58a1.79,1.79,0,0,0,.14.58,1.07,1.07,0,0,0,.35.43,1.09,1.09,0,0,0,.66.17,1.45,1.45,0,0,0,1-.39,7.61,7.61,0,0,0,.79-.79l.72.61q-.43.61-1,1.33a8.33,8.33,0,0,1-3.5,2.43,7.45,7.45,0,0,1-2.63.43,5.18,5.18,0,0,1-3.24-1.08,5.26,5.26,0,0,1-1.85-3.34,12.25,12.25,0,0,1-1.92,2.08,10.41,10.41,0,0,1-2,1.36,9,9,0,0,1-2.09.75,9.91,9.91,0,0,1-2.12.23,8.44,8.44,0,0,1-2.69-.43,6.41,6.41,0,0,1-2.33-1.37,6.73,6.73,0,0,1-1.65-2.44,9.61,9.61,0,0,1-.62-3.67,8.05,8.05,0,0,1,1-4.3,9.29,9.29,0,0,1,2.73-2.82,18.46,18.46,0,0,1,3.84-1.95q2.15-.81,4.41-1.7a4.7,4.7,0,0,0,2.44-2,5.3,5.3,0,0,0,.77-2.7,4.69,4.69,0,0,0-1.26-3.42A4.57,4.57,0,0,0,563.17,113.57Zm4.59,12.65a1.33,1.33,0,0,0-.46-1.1,1.82,1.82,0,0,0-1.18-.38,4.19,4.19,0,0,0-1.92.46,4.74,4.74,0,0,0-1.6,1.36,6.88,6.88,0,0,0-1.1,2.21,10.37,10.37,0,0,0-.4,3,13,13,0,0,0,.25,2.77,5.43,5.43,0,0,0,.66,1.75,2.4,2.4,0,0,0,1,.91,2.67,2.67,0,0,0,1.16.26,2.75,2.75,0,0,0,1.42-.39,4.23,4.23,0,0,0,1.16-1,5,5,0,0,0,.78-1.36,4.16,4.16,0,0,0,.29-1.5Z"/><path class="cls-3" d="M602.57,121.2a3.64,3.64,0,0,1-1.5-.27,2.63,2.63,0,0,1-1-.74,3,3,0,0,1-.55-1,4,4,0,0,1-.17-1.17,10.83,10.83,0,0,1,.1-1.5,5,5,0,0,0,0-1.3,1.46,1.46,0,0,0-.45-.92,2,2,0,0,0-1.33-.35,4.7,4.7,0,0,0-2.14.58,6,6,0,0,0-2.05,1.82,10.58,10.58,0,0,0-1.53,3.19,15.93,15.93,0,0,0-.61,4.69,25.18,25.18,0,0,0,.56,5.53,13.27,13.27,0,0,0,1.69,4.26,8.14,8.14,0,0,0,2.8,2.73,8.34,8.34,0,0,0,5.85.74,8.49,8.49,0,0,0,1.72-.64,11,11,0,0,0,1.55-.94q.74-.53,1.43-1.14l.72.69a19.75,19.75,0,0,1-1.7,2,13.91,13.91,0,0,1-2.51,2,14.49,14.49,0,0,1-3.44,1.56,14.84,14.84,0,0,1-4.48.62,12.9,12.9,0,0,1-4.9-1,12.66,12.66,0,0,1-4.23-2.82,13.85,13.85,0,0,1-3-4.49,15.39,15.39,0,0,1-1.11-6,16.73,16.73,0,0,1,.66-4.84,16,16,0,0,1,1.81-4,15.08,15.08,0,0,1,2.66-3.15A16.85,16.85,0,0,1,590.7,113a15.43,15.43,0,0,1,3.42-1.37,13.17,13.17,0,0,1,3.37-.46,12.66,12.66,0,0,1,3.73.49,8.38,8.38,0,0,1,2.64,1.3,5.31,5.31,0,0,1,1.57,1.86A4.87,4.87,0,0,1,606,117a5.85,5.85,0,0,1-.22,1.6,4.05,4.05,0,0,1-.64,1.33,3.06,3.06,0,0,1-1.05.9A3.14,3.14,0,0,1,602.57,121.2Z"/><path class="cls-3" d="M620,119.06q1-1.36,2.17-2.76a19.92,19.92,0,0,1,2.48-2.53,12.71,12.71,0,0,1,2.89-1.85,8,8,0,0,1,3.41-.72,5.31,5.31,0,0,1,2.74.65,6,6,0,0,1,1.78,1.56,5.77,5.77,0,0,1,1,1.89,6.42,6.42,0,0,1,.27,1.68,11.26,11.26,0,0,1-.33,2.64,9.93,9.93,0,0,1-1.13,2.72,12.07,12.07,0,0,1-2.12,2.6,14.49,14.49,0,0,1-3.35,2.3,99.52,99.52,0,0,0,5.29,9.89,49.51,49.51,0,0,0,5,6.82,19.43,19.43,0,0,0,4.58,3.94,8.39,8.39,0,0,0,4.19,1.27,2.83,2.83,0,0,0,.69-.09,5,5,0,0,0,.64-.2,6.39,6.39,0,0,0,.66-.29l.55,1q-.78.43-1.59.82a11.1,11.1,0,0,1-1.85.68,17.26,17.26,0,0,1-2.4.46,26,26,0,0,1-3.24.17,14.18,14.18,0,0,1-3.37-.4,11.5,11.5,0,0,1-3.34-1.44,18.86,18.86,0,0,1-3.39-2.77,31,31,0,0,1-3.52-4.39,63.13,63.13,0,0,1-3.71-6.33q-1.91-3.67-4-8.58a30.26,30.26,0,0,0,4.36-3.8,18.64,18.64,0,0,0,2.4-3.16,8.25,8.25,0,0,0,1-2.51,10.61,10.61,0,0,0,.2-1.88c0-.08,0-.21,0-.39a1.27,1.27,0,0,0-.19-.53,1.51,1.51,0,0,0-.46-.46,1.53,1.53,0,0,0-.85-.2,3.42,3.42,0,0,0-2.17.91A12.82,12.82,0,0,0,623.1,118a21.76,21.76,0,0,0-1.81,2.89q-.81,1.55-1.33,2.82v14.91a3.76,3.76,0,0,1-.13.9,2.08,2.08,0,0,1-.61,1,3.89,3.89,0,0,1-1.39.79,7.31,7.31,0,0,1-2.44.33,6.41,6.41,0,0,1-2.4-.36,3.36,3.36,0,0,1-1.29-.85,2.21,2.21,0,0,1-.52-1,4.53,4.53,0,0,1-.1-.84V101.32a2.69,2.69,0,0,0-.39-1.46,1.43,1.43,0,0,0-1.31-.62,2.11,2.11,0,0,0-.85.16,3.65,3.65,0,0,0-.77.48l-.58-.69a17.13,17.13,0,0,1,1.47-1.08,10.69,10.69,0,0,1,1.78-.94,13.29,13.29,0,0,1,2.07-.66,10,10,0,0,1,2.31-.26,6.82,6.82,0,0,1,2.92.51A3.75,3.75,0,0,1,619.27,98a3.58,3.58,0,0,1,.59,1.56A12.24,12.24,0,0,1,620,101Z"/><path class="cls-3" d="M651.79,113.69V135a3,3,0,0,0,.58,2.12,2.12,2.12,0,0,0,1.59.59,2.33,2.33,0,0,0,1.39-.43,5.07,5.07,0,0,0,1-1,6.13,6.13,0,0,0,.9-1.42l.9.4q-.43.92-1,2a8,8,0,0,1-4,3.61,9.57,9.57,0,0,1-3.74.64,8,8,0,0,1-2.44-.38,5.73,5.73,0,0,1-2.08-1.18,5.93,5.93,0,0,1-1.46-2,7,7,0,0,1-.55-2.92v-21.4H639.6v-2.08a8.71,8.71,0,0,0,2.25-.42,11.23,11.23,0,0,0,3-1.4,11.76,11.76,0,0,0,2.82-2.63,10,10,0,0,0,1.85-4.07h2.31v8.52h4.71q2.31,0,2.31-.78a.39.39,0,0,0-.29-.39l-.65-.26a2.12,2.12,0,0,1-.65-.45,1.31,1.31,0,0,1-.29-1,1.63,1.63,0,0,1,.51-1.27,1.87,1.87,0,0,1,1.31-.46,1.84,1.84,0,0,1,.91.22,2,2,0,0,1,.65.58,2.62,2.62,0,0,1,.39.82,3.39,3.39,0,0,1,.13.92,4.1,4.1,0,0,1-1.08,3,4.69,4.69,0,0,1-3.48,1.11Z"/><path class="cls-3" d="M659.94,126.4a18.36,18.36,0,0,1,1.1-6.63A14,14,0,0,1,664,115a11.88,11.88,0,0,1,4.26-2.86,13.78,13.78,0,0,1,5.08-1,14.79,14.79,0,0,1,5.08.88,11.61,11.61,0,0,1,4.26,2.7,13.2,13.2,0,0,1,2.93,4.61,18,18,0,0,1,1.1,6.6,19,19,0,0,1-1.1,6.7,14.9,14.9,0,0,1-2.93,4.91,12.18,12.18,0,0,1-4.26,3,12.93,12.93,0,0,1-5.08,1,13.6,13.6,0,0,1-5.08-1,12,12,0,0,1-4.26-2.87A14,14,0,0,1,661,133,18.47,18.47,0,0,1,659.94,126.4Zm17.77-.29q0-2.31-.16-4.46a20.08,20.08,0,0,0-.62-3.83,6.75,6.75,0,0,0-1.33-2.67,2.88,2.88,0,0,0-2.28-1A2.81,2.81,0,0,0,671,115.2,7.3,7.3,0,0,0,669.7,118a20.18,20.18,0,0,0-.61,3.91q-.15,2.2-.14,4.51t.14,4.52a20.49,20.49,0,0,0,.61,3.94,7.29,7.29,0,0,0,1.33,2.79,2.81,2.81,0,0,0,2.28,1.05,2.76,2.76,0,0,0,2.28-1.1,7.73,7.73,0,0,0,1.33-2.89,22.71,22.71,0,0,0,.62-4Q677.71,128.42,677.71,126.11Z"/><path class="cls-3" d="M691.14,101.32a2.69,2.69,0,0,0-.39-1.46,1.43,1.43,0,0,0-1.31-.62,2.11,2.11,0,0,0-.85.16,3.69,3.69,0,0,0-.77.48l-.58-.69a16.21,16.21,0,0,1,1.49-1.08,11.52,11.52,0,0,1,1.78-.94,12.79,12.79,0,0,1,2.05-.66,10,10,0,0,1,2.31-.26,6.14,6.14,0,0,1,2.7.51A4.14,4.14,0,0,1,699.13,98a4.07,4.07,0,0,1,.71,1.59,8,8,0,0,1,.17,1.57V114l.9-.79a8,8,0,0,1,1.39-.94,9.14,9.14,0,0,1,2-.78,10.6,10.6,0,0,1,2.76-.32,8.77,8.77,0,0,1,3.7.85,9.31,9.31,0,0,1,3.32,2.67,14.42,14.42,0,0,1,2.4,4.68,22.5,22.5,0,0,1,.92,6.88,20.33,20.33,0,0,1-.85,6,14.51,14.51,0,0,1-2.53,4.9,11.92,11.92,0,0,1-4.19,3.31,13.28,13.28,0,0,1-5.83,1.21,14.15,14.15,0,0,1-6.08-1.17,10.55,10.55,0,0,1-4-3.15,12.46,12.46,0,0,1-2.15-4.61,23.06,23.06,0,0,1-.65-5.55Zm17.22,25.48a40.39,40.39,0,0,0-.26-4.72,18.43,18.43,0,0,0-.84-3.87,7.41,7.41,0,0,0-1.47-2.63,2.85,2.85,0,0,0-2.17-1,2.82,2.82,0,0,0-1.66.48,4.58,4.58,0,0,0-1.11,1.08,4.64,4.64,0,0,0-.64,1.2,3.12,3.12,0,0,0-.2.79v8.64q0,6.3,1.05,9.16t3.1,2.86q2.17,0,3.18-2.92A30,30,0,0,0,708.35,126.8Z"/><path class="cls-3" d="M730.42,127.93a8.18,8.18,0,0,0,.27,2,11.85,11.85,0,0,0,.79,2.18,11.47,11.47,0,0,0,1.29,2.09,9.9,9.9,0,0,0,1.76,1.78,8.42,8.42,0,0,0,2.21,1.24,7.39,7.39,0,0,0,2.66.46,7.24,7.24,0,0,0,1.88-.23,7.42,7.42,0,0,0,1.62-.64,10.48,10.48,0,0,0,1.44-.94q.69-.53,1.39-1.14l.72.69a19.77,19.77,0,0,1-1.71,2,13.89,13.89,0,0,1-2.51,2A14.49,14.49,0,0,1,738.8,141a14.84,14.84,0,0,1-4.48.62,13.62,13.62,0,0,1-4.9-.91,12.17,12.17,0,0,1-4.23-2.73,13.37,13.37,0,0,1-3-4.54,18.32,18.32,0,0,1-.45-11.18,15.44,15.44,0,0,1,1.81-4,14.7,14.7,0,0,1,2.66-3.09,16.5,16.5,0,0,1,3.19-2.21,15.77,15.77,0,0,1,3.42-1.33,13.56,13.56,0,0,1,3.37-.45,13.42,13.42,0,0,1,3.73.46,8.34,8.34,0,0,1,2.64,1.24,5.16,5.16,0,0,1,1.57,1.81,4.7,4.7,0,0,1,.52,2.15,4.07,4.07,0,0,1-.78,2.44,7.2,7.2,0,0,1-2.08,1.89Zm5.81-5.86a4.54,4.54,0,0,0,.62-.45,1.61,1.61,0,0,0,.39-.52,2.83,2.83,0,0,0,.22-.75,7.32,7.32,0,0,0,.07-1.11,9.15,9.15,0,0,0-.16-1.6,6.48,6.48,0,0,0-.53-1.66,4.15,4.15,0,0,0-1-1.3,2,2,0,0,0-1.39-.52,2.67,2.67,0,0,0-1.78.62,4.83,4.83,0,0,0-1.21,1.6,10,10,0,0,0-.75,2.24,25.38,25.38,0,0,0-.42,2.53q-.15,1.27-.17,2.44t0,2Z"/><path class="cls-3" d="M759.57,117.3a23.84,23.84,0,0,1,2.34-3,15.51,15.51,0,0,1,1.13-1.13,10.83,10.83,0,0,1,1.26-1,6.62,6.62,0,0,1,1.34-.69,3.93,3.93,0,0,1,1.39-.26,3,3,0,0,1,2.31.88,3.45,3.45,0,0,1,.84,2.47,11,11,0,0,1-.16,1.89,14.12,14.12,0,0,1-.62,2.21h-.81a2.68,2.68,0,0,0-.81-1.49,2.62,2.62,0,0,0-1.85-.59,4.89,4.89,0,0,0-1.76.33,11,11,0,0,0-1.69.82,14.9,14.9,0,0,0-1.56,1.07q-.74.58-1.34,1.1v18.75a4.22,4.22,0,0,1-.12.9,2.05,2.05,0,0,1-.56,1,3.59,3.59,0,0,1-1.33.79,7.05,7.05,0,0,1-2.41.33,6.52,6.52,0,0,1-2.41-.36,3.79,3.79,0,0,1-1.34-.85,2.18,2.18,0,0,1-.58-1,4,4,0,0,1-.12-.84v-22.3a2.68,2.68,0,0,0-.39-1.46,1.43,1.43,0,0,0-1.31-.62,1.86,1.86,0,0,0-.84.17,4.52,4.52,0,0,0-.75.49l-.61-.72a16.08,16.08,0,0,1,1.49-1.08,11.52,11.52,0,0,1,1.78-.94,12.82,12.82,0,0,1,2.05-.66,10,10,0,0,1,2.31-.26,6,6,0,0,1,2.12.33,4.26,4.26,0,0,1,1.44.87,4.07,4.07,0,0,1,.88,1.2,6.63,6.63,0,0,1,.48,1.34,7.24,7.24,0,0,1,.19,1.3Q759.57,116.86,759.57,117.3Z"/><path class="cls-3" d="M788.08,98.23a3.5,3.5,0,0,0-1.53.35,3.26,3.26,0,0,0-1.26,1.11,6.18,6.18,0,0,0-.85,1.95,11.17,11.17,0,0,0-.32,2.86v7.11h6.33v2.08h-6.33v22.76a24.51,24.51,0,0,1-1,7.25,15.81,15.81,0,0,1-3.11,5.73,14.28,14.28,0,0,1-5.2,3.77,18.11,18.11,0,0,1-7.28,1.36,16,16,0,0,1-2.83-.25,11.65,11.65,0,0,1-2.4-.68,5.41,5.41,0,0,1-1.66-1,1.79,1.79,0,0,1-.62-1.31,4.06,4.06,0,0,1,.14-1.05,3.3,3.3,0,0,1,.43-1,2.49,2.49,0,0,1,.71-.71,1.73,1.73,0,0,1,1-.27.7.7,0,0,1,.56.32,6.34,6.34,0,0,1,.51.78l.59,1a4.31,4.31,0,0,0,.85,1,4.54,4.54,0,0,0,1.29.78,4.86,4.86,0,0,0,1.86.32,5.51,5.51,0,0,0,2.6-.59,5.93,5.93,0,0,0,1.93-1.63,9.68,9.68,0,0,0,1.36-2.46,18,18,0,0,0,.87-3,28.39,28.39,0,0,0,.45-3.38q.13-1.76.13-3.52V113.69h-5.31v-2.08h5.31v-3.38a14.25,14.25,0,0,1,.62-4.43,10.68,10.68,0,0,1,1.65-3.22,9.32,9.32,0,0,1,2.33-2.17,13.35,13.35,0,0,1,2.64-1.33,12.59,12.59,0,0,1,2.61-.66,16.79,16.79,0,0,1,2.22-.17,19.56,19.56,0,0,1,3.64.3,11.18,11.18,0,0,1,2.66.81,4.64,4.64,0,0,1,1.62,1.17,2.13,2.13,0,0,1,.55,1.36,3.7,3.7,0,0,1-.16,1.05,3.81,3.81,0,0,1-.45,1,2.4,2.4,0,0,1-.71.72,1.67,1.67,0,0,1-.94.27.73.73,0,0,1-.58-.35,7.58,7.58,0,0,1-.55-.87l-.64-1.13a5.61,5.61,0,0,0-.85-1.13,4.42,4.42,0,0,0-1.2-.87A3.64,3.64,0,0,0,788.08,98.23Z"/><path class="cls-3" d="M800,127.93a8.18,8.18,0,0,0,.27,2,11.85,11.85,0,0,0,.79,2.18,11.47,11.47,0,0,0,1.29,2.09,9.9,9.9,0,0,0,1.76,1.78,8.42,8.42,0,0,0,2.21,1.24,7.39,7.39,0,0,0,2.66.46,7.24,7.24,0,0,0,1.88-.23,7.42,7.42,0,0,0,1.62-.64,10.48,10.48,0,0,0,1.44-.94q.69-.53,1.39-1.14l.72.69a19.77,19.77,0,0,1-1.71,2,13.89,13.89,0,0,1-2.51,2,14.49,14.49,0,0,1-3.44,1.56,14.84,14.84,0,0,1-4.48.62,13.62,13.62,0,0,1-4.9-.91,12.17,12.17,0,0,1-4.23-2.73,13.37,13.37,0,0,1-3-4.54,18.32,18.32,0,0,1-.45-11.18,15.44,15.44,0,0,1,1.81-4,14.7,14.7,0,0,1,2.66-3.09A16.5,16.5,0,0,1,799,113a15.77,15.77,0,0,1,3.42-1.33,13.56,13.56,0,0,1,3.37-.45,13.42,13.42,0,0,1,3.73.46,8.34,8.34,0,0,1,2.64,1.24,5.16,5.16,0,0,1,1.57,1.81,4.7,4.7,0,0,1,.52,2.15,4.07,4.07,0,0,1-.78,2.44,7.2,7.2,0,0,1-2.08,1.89Zm5.81-5.86a4.54,4.54,0,0,0,.62-.45,1.61,1.61,0,0,0,.39-.52,2.83,2.83,0,0,0,.22-.75,7.32,7.32,0,0,0,.07-1.11,9.15,9.15,0,0,0-.16-1.6,6.48,6.48,0,0,0-.53-1.66,4.15,4.15,0,0,0-1-1.3,2,2,0,0,0-1.39-.52,2.67,2.67,0,0,0-1.78.62,4.83,4.83,0,0,0-1.21,1.6,10,10,0,0,0-.75,2.24,25.38,25.38,0,0,0-.42,2.53q-.15,1.27-.17,2.44t0,2Z"/><path class="cls-3" d="M829.16,113.51a4.44,4.44,0,0,0-1.26.17,2.86,2.86,0,0,0-1.05.56,2.67,2.67,0,0,0-.72,1,3.47,3.47,0,0,0-.26,1.4,3.74,3.74,0,0,0,.82,2.24,19.45,19.45,0,0,0,2.05,2.31q1.23,1.2,2.66,2.48a29.58,29.58,0,0,1,2.66,2.72,15.38,15.38,0,0,1,2.05,3,7.54,7.54,0,0,1,.82,3.47,9.15,9.15,0,0,1-.71,3.7,7.55,7.55,0,0,1-2,2.74,9,9,0,0,1-3.18,1.72,13.65,13.65,0,0,1-4.15.59,10.92,10.92,0,0,1-3.61-.56,13.05,13.05,0,0,1-2.87-1.39,12.56,12.56,0,0,1-2.15-1.75,11.68,11.68,0,0,1-1.39-1.68l1-.72a9.82,9.82,0,0,0,1,.94,9.37,9.37,0,0,0,1.29.94,7.52,7.52,0,0,0,1.52.71,5.09,5.09,0,0,0,1.65.27,5.53,5.53,0,0,0,3.41-1,3.47,3.47,0,0,0,1.33-3,4.32,4.32,0,0,0-.72-2.27,17.84,17.84,0,0,0-1.82-2.41q-1.1-1.24-2.37-2.57a34.8,34.8,0,0,1-2.37-2.74,16.22,16.22,0,0,1-1.82-2.92,7.11,7.11,0,0,1-.72-3.12,6.56,6.56,0,0,1,.74-3.18,6.71,6.71,0,0,1,2-2.25,8.79,8.79,0,0,1,2.8-1.34,11.82,11.82,0,0,1,3.25-.45,16.58,16.58,0,0,1,3.52.35,8.64,8.64,0,0,1,2.73,1.05,5.11,5.11,0,0,1,1.76,1.78,4.87,4.87,0,0,1,.62,2.48,2.77,2.77,0,0,1-.72,1.91,2.57,2.57,0,0,1-2,.81,2.91,2.91,0,0,1-1.89-.53,1.79,1.79,0,0,1-.65-1.46,1.4,1.4,0,0,1,.3-1,2.69,2.69,0,0,1,.68-.56l.68-.38a.47.47,0,0,0,.3-.42,1.44,1.44,0,0,0-.87-1.29A4.59,4.59,0,0,0,829.16,113.51Z"/><path class="cls-3" d="M851.08,113.69V135a3,3,0,0,0,.58,2.12,2.12,2.12,0,0,0,1.59.59,2.33,2.33,0,0,0,1.39-.43,5.07,5.07,0,0,0,1-1,6.13,6.13,0,0,0,.9-1.42l.9.4q-.43.92-1,2a8,8,0,0,1-4,3.61,9.57,9.57,0,0,1-3.74.64,8,8,0,0,1-2.44-.38,5.73,5.73,0,0,1-2.08-1.18,5.94,5.94,0,0,1-1.46-2,7,7,0,0,1-.55-2.92v-21.4h-3.24v-2.08a8.71,8.71,0,0,0,2.25-.42,11.23,11.23,0,0,0,3-1.4,11.76,11.76,0,0,0,2.82-2.63,10,10,0,0,0,1.85-4.07h2.31v8.52h4.71q2.31,0,2.31-.78a.39.39,0,0,0-.29-.39l-.65-.26a2.1,2.1,0,0,1-.65-.45,1.31,1.31,0,0,1-.29-1,1.63,1.63,0,0,1,.51-1.27A1.87,1.87,0,0,1,858,107a1.84,1.84,0,0,1,.91.22,2,2,0,0,1,.65.58,2.62,2.62,0,0,1,.39.82,3.39,3.39,0,0,1,.13.92,4.1,4.1,0,0,1-1.08,3,4.69,4.69,0,0,1-3.48,1.11Z"/><polyline class="cls-4" points="870.07 112.18 895.64 112.18 895.64 91.88"/><line class="cls-4" x1="870.07" y1="129.1" x2="923.84" y2="129.1"/><polyline class="cls-4" points="870.07 144.14 912.56 144.14 912.56 158.43"/><polyline class="cls-4" points="490.41 139.44 464.85 139.44 464.85 159.74"/><line class="cls-4" x1="490.79" y1="122.52" x2="436.65" y2="122.52"/><polyline class="cls-4" points="490.04 107.48 447.93 107.48 447.93 93.19"/><circle class="cls-4" cx="912.19" cy="167.08" r="3.76"/><circle class="cls-5" cx="896.02" cy="97.1" r="2.63"/><circle class="cls-3" cx="933.24" cy="128.73" r="3.76"/><circle class="cls-4" cx="447.55" cy="90.43" r="3.76"/><circle class="cls-5" cx="430.63" cy="122.9" r="2.63"/><circle class="cls-3" cx="464.85" cy="167.64" r="3.76"/><g class="cls-6"><circle class="cls-2" cx="1219.03" cy="500.27" r="3.44"/><path class="cls-7" d="M1085.65,585q0-5.41,0-10.81c0-8.17,0-16.34,0-24.51a4.89,4.89,0,0,0-1-3.07c-3.1-4.3-6.18-8.62-9.18-13-.62-.9-1.89-2.21-.9-3.09s2.14.5,3,1.24c2.62,2.37,5.15,4.85,8.1,7.65,0-5.33-.2-10.25.06-15.15s.52-9.68,2.51-14.42a5.17,5.17,0,0,1,1.53,3.59c1.27,8,1.48,16.1,1.76,24.19.79,23.43,1.23,46.87,1.69,70.3.08,4,.26,8.09.32,12.13,0,1.24.25,1.57,1.54,1.12a47.19,47.19,0,0,0,15.92-9.83c10.68-9.48,18.13-20.93,20.87-35.13,2-10.38.72-20.57-2.26-30.57-4.52-15.17-12.09-28.59-23.44-39.75a52.26,52.26,0,0,0-6.5-5.26c-5.62-4-11.47-4.54-17.78-1.75-12.09,5.35-21.76,13.73-30,23.91-6.69,8.31-11.68,17.53-13.66,28.13-2.38,12.68.25,24.59,6.32,35.75,8.07,14.84,19.46,26.26,35.25,32.88,1.28.54,2.64.88,4,1.33s1.77.2,1.76-1.27q0-11.31.07-22.62a3.8,3.8,0,0,0-1.13-2.57c-5.86-7.19-12-14.14-17.51-21.63a29.6,29.6,0,0,1-3.93-7.58c-.2-.56-.85-1.36,0-1.88.62-.4,1.2.23,1.65.6,1.66,1.38,3.33,2.76,4.88,4.26C1075.06,573.53,1080,579.38,1085.65,585Z"/><circle class="cls-8" cx="1058.23" cy="559.59" r="3.48"/><circle class="cls-9" cx="1069.74" cy="526.44" r="2.96"/><path class="cls-7" d="M1088.76,680.88l-2.95.05a6.83,6.83,0,0,0-.79-1.47q0-4.38.09-8.76a1.89,1.89,0,0,0,.69-1.16c.07-.81-.53-1.58-.74-2.38.1.27.14-.8.19-1a3.1,3.1,0,0,0-.49-3.16l.46,0q0-2.55,0-5.11c0-4.31,0-8.62,0-12.93a1.74,1.74,0,0,0,.11-2.12l0,0c.14-.21-.23-.58-.28-.79a4.44,4.44,0,0,1-.09-.76c.24-.26.27-.39.23-.42a1.22,1.22,0,0,0-.07-1.3c.42-5.09-1.16-10.06,4.07-14.94,2.39.51,2.37,1.22,2.69,1.84,2.06,4,2.41,8.09,2.84,12.16,1.28,12,2,24,2.75,36.06.13,2.07.51,4.14.49,6.2a1,1,0,0,0,0,.13C1094.92,680.9,1091.86,680.83,1088.76,680.88Z"/><circle class="cls-2" cx="1130.39" cy="624.07" r="3.26"/><path class="cls-3" d="M991.58,570.76q0-7.45,0-14.91c0-11.27,0-22.53,0-33.8a6.75,6.75,0,0,0-1.38-4.24c-4.28-5.93-8.52-11.88-12.65-17.91-.85-1.24-2.61-3-1.24-4.27s2.95.69,4.08,1.72c3.62,3.27,7.11,6.68,11.17,10.55,0-7.36-.27-14.14.08-20.89s.72-13.35,3.47-19.88c1.73,1.52,1.84,3.29,2.1,5,1.76,11.05,2,22.21,2.43,33.36,1.09,32.31,1.7,64.63,2.33,97,.11,5.58.36,11.15.44,16.73,0,1.71.34,2.17,2.13,1.55,8.35-2.87,15.45-7.78,22-13.56,14.72-13.08,25-28.86,28.78-48.45,2.77-14.32,1-28.36-3.12-42.16-6.23-20.93-16.67-39.43-32.33-54.82a72.07,72.07,0,0,0-9-7.26c-7.75-5.49-15.82-6.27-24.53-2.41-16.68,7.38-30,18.93-41.32,33-9.23,11.47-16.1,24.17-18.84,38.79-3.28,17.49.34,33.92,8.71,49.3,11.13,20.46,26.84,36.21,48.62,45.34,1.77.74,3.64,1.22,5.46,1.83,1.64.55,2.44.28,2.43-1.75q-.06-15.6.1-31.19a5.24,5.24,0,0,0-1.56-3.54c-8.08-9.92-16.58-19.5-24.15-29.84a40.82,40.82,0,0,1-5.42-10.45c-.28-.77-1.17-1.88-.06-2.59.85-.55,1.65.31,2.28.83,2.29,1.91,4.59,3.81,6.74,5.88C977,554.95,983.82,563,991.58,570.76Z"/><circle class="cls-10" cx="967.56" cy="490.63" r="4.8"/><path class="cls-3" d="M995.86,703l-4.07.07a9.41,9.41,0,0,0-1.09-2q0-6,.12-12.08a2.61,2.61,0,0,0,.95-1.61c.1-1.11-.73-2.18-1-3.28.14.38.2-1.1.27-1.37.37-1.44.59-3-.68-4.36l.63-.05q0-3.52,0-7c0-5.94,0-11.89.06-17.83a2.4,2.4,0,0,0,.15-2.92l0-.06c.19-.29-.32-.8-.39-1.08a6.12,6.12,0,0,1-.12-1c.34-.36.38-.54.31-.58a1.68,1.68,0,0,0-.1-1.79c.57-7-1.59-13.87,5.61-20.6,3.3.7,3.28,1.68,3.71,2.54,2.84,5.55,3.33,11.16,3.92,16.77,1.76,16.57,2.78,33.15,3.79,49.73.17,2.85.7,5.7.67,8.56a1.32,1.32,0,0,0,0,.18C1004.35,703,1000.14,702.92,995.86,703Z"/><circle class="cls-11" cx="955.52" cy="535.29" r="3.9"/><path class="cls-7" d="M858.36,521.2q0-6.74,0-13.47c0-10.18,0-20.36,0-30.54a6.1,6.1,0,0,1,1.25-3.83c3.87-5.35,7.7-10.74,11.43-16.18.77-1.12,2.36-2.75,1.12-3.85s-2.66.63-3.69,1.55c-3.27,3-6.42,6-10.1,9.53,0-6.65.25-12.78-.07-18.88s-.65-12.07-3.13-18c-1.56,1.37-1.66,3-1.9,4.48-1.59,10-1.85,20.07-2.19,30.14-1,29.19-1.54,58.4-2.1,87.6-.1,5-.33,10.08-.39,15.11,0,1.55-.31,2-1.92,1.4-7.55-2.59-14-7-19.83-12.25-13.3-11.81-22.59-26.08-26-43.77-2.5-12.94-.89-25.63,2.82-38.09,5.63-18.91,15.06-35.62,29.21-49.53a65.11,65.11,0,0,1,8.09-6.56c7-5,14.3-5.66,22.16-2.18,15.07,6.67,27.12,17.1,37.33,29.79,8.34,10.36,14.55,21.84,17,35,3,15.8-.31,30.64-7.87,44.54-10.06,18.49-24.25,32.72-43.92,41-1.6.67-3.29,1.1-4.94,1.65-1.48.5-2.2.25-2.2-1.58q.06-14.09-.09-28.18a4.73,4.73,0,0,1,1.41-3.2c7.3-9,15-17.62,21.82-27a36.88,36.88,0,0,0,4.9-9.44c.25-.7,1.06-1.7.05-2.34-.77-.49-1.49.28-2.06.75-2.07,1.72-4.15,3.44-6.09,5.31C871.56,506.91,865.36,514.2,858.36,521.2Z"/><circle class="cls-2" cx="880.06" cy="448.81" r="4.34"/><path class="cls-7" d="M854.49,693.57l3.68.12a20.43,20.43,0,0,1,1-3.2q0-9.57-.11-19.14a5.38,5.38,0,0,1-.86-2.54c-.09-1.76.66-3.46.93-5.2-.13.6-.18-1.74-.24-2.17-.34-2.28-.54-4.69.62-6.92l-.57-.08q0-5.58,0-11.17c0-9.42,0-18.84-.05-28.26a6.18,6.18,0,0,1-.13-4.63l0-.1c-.17-.46.29-1.27.35-1.72s.09-1.11.11-1.66c-.3-.56-.34-.85-.28-.93a4.42,4.42,0,0,1,.09-2.83c-.52-11.12,1.44-22-5.07-32.64-3,1.11-3,2.66-3.36,4-2.57,8.8-3,17.69-3.54,26.57-1.59,26.27-2.51,52.54-3.42,78.81-.16,4.52-.64,9-.61,13.56,0,.1,0,.2,0,.29C846.81,693.61,850.62,693.46,854.49,693.57Z"/><path class="cls-7" d="M406.41,637.57q0-4.6,0-9.21c0-7,0-13.91,0-20.87a4.17,4.17,0,0,1,.85-2.62c2.64-3.66,5.26-7.34,7.81-11.06.53-.77,1.61-1.88.76-2.63s-1.82.43-2.52,1.06c-2.24,2-4.39,4.13-6.9,6.51,0-4.54.17-8.73,0-12.9s-.44-8.25-2.14-12.28a4.41,4.41,0,0,0-1.3,3.06,166.84,166.84,0,0,0-1.5,20.6c-.68,20-1.05,39.91-1.44,59.87-.07,3.44-.22,6.89-.27,10.33,0,1.06-.21,1.34-1.31,1A40.19,40.19,0,0,1,384.84,660c-9.09-8.07-15.44-17.82-17.78-29.92-1.71-8.84-.61-17.52,1.93-26a77.51,77.51,0,0,1,20-33.85,44.51,44.51,0,0,1,5.53-4.48,14.4,14.4,0,0,1,15.15-1.49c10.3,4.56,18.53,11.69,25.52,20.36,5.7,7.08,9.94,14.93,11.64,24,2,10.8-.21,20.94-5.38,30.44-6.88,12.63-16.57,22.36-30,28-1.09.46-2.25.75-3.37,1.13s-1.51.17-1.5-1.08q0-9.63-.06-19.26a3.23,3.23,0,0,1,1-2.19c5-6.12,10.24-12,14.91-18.43a25.21,25.21,0,0,0,3.35-6.46c.17-.48.73-1.16,0-1.6-.53-.34-1,.19-1.41.51-1.41,1.18-2.84,2.35-4.16,3.63C415.44,627.81,411.2,632.79,406.41,637.57Z"/><circle class="cls-2" cx="421.25" cy="588.09" r="2.97"/><path class="cls-3" d="M285.66,622.12q0-3.31,0-6.62c0-5,0-10,0-15a3,3,0,0,1,.61-1.88c1.9-2.63,3.78-5.27,5.62-8,.38-.55,1.16-1.35.55-1.89s-1.31.31-1.81.76c-1.61,1.45-3.15,3-5,4.68,0-3.27.12-6.28,0-9.27a25.44,25.44,0,0,0-1.54-8.83,3.17,3.17,0,0,0-.93,2.2,119.94,119.94,0,0,0-1.08,14.81c-.49,14.34-.76,28.69-1,43,0,2.48-.16,5-.19,7.43,0,.76-.15,1-.94.69a28.89,28.89,0,0,1-9.74-6c-6.54-5.8-11.1-12.81-12.78-21.51A38.93,38.93,0,0,1,258.76,598a55.71,55.71,0,0,1,14.35-24.34,32,32,0,0,1,4-3.22A10.35,10.35,0,0,1,288,569.4,49,49,0,0,1,306.32,584a38.72,38.72,0,0,1,8.36,17.22c1.45,7.77-.15,15.06-3.87,21.88-4.94,9.08-11.91,16.08-21.58,20.13-.78.33-1.62.54-2.43.81s-1.08.12-1.08-.78q0-6.92,0-13.85a2.33,2.33,0,0,1,.69-1.57c3.59-4.4,7.36-8.66,10.72-13.24a18.12,18.12,0,0,0,2.41-4.64c.12-.34.52-.83,0-1.15s-.73.14-1,.37c-1,.85-2,1.69-3,2.61C292.15,615.1,289.11,618.68,285.66,622.12Z"/><circle class="cls-12" cx="296.33" cy="586.55" r="2.13"/><path class="cls-3" d="M283.76,680.82l1.81,0a4.18,4.18,0,0,1,.48-.9q0-2.68-.05-5.36a1.16,1.16,0,0,1-.42-.71c0-.49.32-1,.45-1.46-.06.17-.09-.49-.12-.61a1.9,1.9,0,0,1,.3-1.94l-.28,0q0-1.56,0-3.13c0-2.64,0-5.28,0-7.92a1.06,1.06,0,0,1-.07-1.3v0c-.08-.13.14-.35.17-.48a2.72,2.72,0,0,0,.05-.47c-.15-.16-.17-.24-.14-.26a.75.75,0,0,1,0-.79c-.25-3.11.71-6.16-2.49-9.14-1.47.31-1.45.75-1.65,1.13a20.14,20.14,0,0,0-1.74,7.44c-.78,7.36-1.23,14.72-1.68,22.08-.08,1.27-.31,2.53-.3,3.8a.59.59,0,0,1,0,.08C280,680.83,281.86,680.79,283.76,680.82Z"/><path class="cls-7" d="M694.55,554.65q0-6.55,0-13.11c0-9.9,0-19.81,0-29.71a5.93,5.93,0,0,1,1.21-3.72c3.76-5.21,7.49-10.44,11.12-15.75.75-1.09,2.29-2.68,1.09-3.75s-2.59.61-3.59,1.51c-3.18,2.87-6.25,5.88-9.82,9.27,0-6.47.24-12.43-.07-18.37s-.63-11.74-3-17.48c-1.52,1.34-1.62,2.89-1.85,4.35-1.54,9.71-1.8,19.52-2.13,29.33-1,28.4-1.5,56.81-2,85.22-.09,4.9-.32,9.8-.38,14.71,0,1.51-.3,1.9-1.87,1.36-7.34-2.52-13.58-6.84-19.3-11.92-12.94-11.49-22-25.37-25.3-42.59-2.43-12.59-.87-24.93,2.74-37.06,5.48-18.39,14.65-34.66,28.42-48.19a63.35,63.35,0,0,1,7.87-6.38c6.81-4.83,13.91-5.51,21.56-2.12,14.66,6.49,26.38,16.64,36.32,29,8.12,10.08,14.15,21.25,16.56,34.09,2.88,15.38-.3,29.81-7.66,43.33-9.79,18-23.59,31.83-42.73,39.86-1.55.65-3.2,1.07-4.8,1.61-1.44.49-2.14.24-2.14-1.54q.06-13.71-.09-27.42a4.6,4.6,0,0,1,1.37-3.11c7.1-8.72,14.57-17.14,21.22-26.23a35.88,35.88,0,0,0,4.77-9.19c.24-.68,1-1.65.05-2.28-.75-.48-1.45.27-2,.73-2,1.68-4,3.35-5.92,5.16C707.4,540.74,701.37,547.83,694.55,554.65Z"/><circle class="cls-8" cx="728.66" cy="523.84" r="4.22"/><circle class="cls-9" cx="713.84" cy="483.66" r="3.59"/><path class="cls-7" d="M690.78,670.88l3.58.06a8.28,8.28,0,0,1,1-1.78q0-5.31-.11-10.62a2.29,2.29,0,0,1-.83-1.41c-.09-1,.64-1.92.9-2.89-.13.33-.17-1-.24-1.2a3.76,3.76,0,0,1,.6-3.84l-.56,0q0-3.1,0-6.19c0-5.22,0-10.45-.05-15.67a2.11,2.11,0,0,1-.13-2.57l0-.05c-.16-.25.28-.7.34-1a5.38,5.38,0,0,0,.11-.92c-.3-.31-.33-.47-.27-.51a1.48,1.48,0,0,1,.08-1.57c-.5-6.17,1.4-12.19-4.93-18.11-2.9.62-2.88,1.48-3.26,2.23-2.5,4.88-2.92,9.81-3.45,14.74-1.55,14.57-2.44,29.14-3.33,43.72-.15,2.51-.62,5-.59,7.52a1.16,1.16,0,0,1,0,.16C683.32,670.9,687,670.82,690.78,670.88Z"/><path class="cls-3" d="M783.93,595.06q0-4.95,0-9.89c0-7.48,0-15,0-22.43a4.48,4.48,0,0,1,.92-2.81c2.84-3.93,5.66-7.89,8.4-11.89.56-.83,1.73-2,.82-2.83s-2,.46-2.71,1.14c-2.4,2.17-4.72,4.44-7.42,7,0-4.88.18-9.38-.05-13.87s-.48-8.86-2.3-13.2a4.73,4.73,0,0,0-1.4,3.29,179.3,179.3,0,0,0-1.61,22.14c-.73,21.44-1.13,42.89-1.54,64.34-.07,3.7-.24,7.4-.29,11.1,0,1.14-.22,1.44-1.41,1a43.19,43.19,0,0,1-14.57-9C751,610.5,744.16,600,741.64,587c-1.84-9.5-.66-18.82,2.07-28a83.29,83.29,0,0,1,21.46-36.38,47.83,47.83,0,0,1,5.94-4.82,15.47,15.47,0,0,1,16.28-1.6c11.07,4.9,19.92,12.56,27.42,21.88,6.13,7.61,10.69,16,12.5,25.74,2.18,11.61-.23,22.51-5.78,32.72-7.39,13.58-17.81,24-32.26,30.09-1.17.49-2.42.81-3.63,1.22s-1.62.18-1.61-1.16q0-10.35-.07-20.7a3.48,3.48,0,0,1,1-2.35c5.36-6.58,11-12.94,16-19.8a27.09,27.09,0,0,0,3.6-6.94c.18-.51.78-1.25,0-1.72-.57-.36-1.1.21-1.51.55-1.52,1.27-3,2.53-4.47,3.9C793.63,584.56,789.08,589.91,783.93,595.06Z"/><circle class="cls-11" cx="809.68" cy="571.8" r="3.19"/><circle class="cls-2" cx="799.87" cy="541.88" r="3.19"/><path class="cls-3" d="M781.09,690.83l2.7.06a7.65,7.65,0,0,1,.72-1.55q0-4.63-.08-9.26a2.08,2.08,0,0,1-.63-1.23,8.94,8.94,0,0,1,.68-2.52c-.1.29-.13-.84-.18-1a3.69,3.69,0,0,1,.45-3.35l-.42,0q0-2.7,0-5.4c0-4.56,0-9.12,0-13.67a2.07,2.07,0,0,1-.1-2.24l0,0c-.12-.22.21-.61.26-.83a5.4,5.4,0,0,0,.08-.8c-.22-.27-.25-.41-.21-.45a1.46,1.46,0,0,1,.06-1.37c-.38-5.38,1.06-10.64-3.72-15.8-2.19.54-2.17,1.29-2.46,1.95-1.89,4.26-2.21,8.56-2.6,12.86-1.17,12.71-1.85,25.42-2.51,38.14-.11,2.19-.47,4.37-.45,6.56a1.17,1.17,0,0,1,0,.14C775.45,690.85,778.24,690.77,781.09,690.83Z"/><path class="cls-7" d="M235.84,554.36q0-5.62,0-11.24c0-8.49,0-17,0-25.47a5.09,5.09,0,0,1,1-3.19c3.23-4.47,6.42-9,9.54-13.5.64-.94,2-2.3.93-3.22s-2.22.52-3.08,1.29c-2.73,2.46-5.36,5-8.42,7.95,0-5.54.21-10.66-.06-15.75s-.54-10.07-2.61-15c-1.3,1.15-1.39,2.48-1.59,3.73-1.32,8.33-1.54,16.74-1.83,25.15-.83,24.35-1.28,48.72-1.75,73.08-.08,4.2-.27,8.41-.33,12.61,0,1.29-.26,1.63-1.6,1.17a49.06,49.06,0,0,1-16.55-10.22c-11.1-9.86-18.84-21.76-21.7-36.52-2.09-10.79-.74-21.38,2.35-31.78,4.7-15.77,12.56-29.72,24.37-41.32a54.32,54.32,0,0,1,6.75-5.47c5.84-4.14,11.93-4.72,18.49-1.82,12.57,5.56,22.62,14.27,31.15,24.86,7,8.64,12.14,18.22,14.2,29.24,2.47,13.18-.26,25.56-6.57,37.16-8.39,15.42-20.23,27.3-36.64,34.18-1.33.56-2.75.92-4.12,1.38s-1.84.21-1.83-1.32q0-11.76-.08-23.51a4,4,0,0,1,1.18-2.67c6.09-7.48,12.5-14.7,18.2-22.49a30.77,30.77,0,0,0,4.09-7.88c.21-.58.89-1.41,0-2-.64-.41-1.24.23-1.72.63-1.72,1.44-3.46,2.87-5.08,4.43C246.86,542.44,241.69,548.52,235.84,554.36Z"/><circle class="cls-9" cx="265.09" cy="527.95" r="3.62"/><circle class="cls-2" cx="253.95" cy="493.97" r="3.62"/><path class="cls-7" d="M232.61,674l3.07.07a10.89,10.89,0,0,1,.82-2q0-6.1-.09-12.21a2.93,2.93,0,0,1-.72-1.62c-.08-1.13.55-2.21.77-3.32-.11.38-.15-1.11-.2-1.38a5.53,5.53,0,0,1,.51-4.41l-.48-.05q0-3.56,0-7.12c0-6,0-12,0-18a3.09,3.09,0,0,1-.11-3l0-.06c-.14-.29.24-.81.29-1.1a8.22,8.22,0,0,0,.09-1.06c-.25-.36-.28-.54-.24-.59a2.2,2.2,0,0,1,.07-1.81c-.43-7.09,1.2-14-4.23-20.82-2.49.71-2.47,1.7-2.8,2.56-2.14,5.61-2.51,11.28-3,16.95-1.33,16.75-2.1,33.51-2.85,50.26-.13,2.88-.53,5.77-.51,8.65a1.78,1.78,0,0,1,0,.19C226.21,674,229.39,673.91,232.61,674Z"/><circle class="cls-2" cx="640.32" cy="602" r="3.95"/><circle class="cls-13" cx="628.18" cy="564.95" r="3.95"/><path class="cls-7" d="M469.81,549.91q0-5.62,0-11.24c0-8.49,0-17,0-25.47a5.09,5.09,0,0,1,1-3.19c3.23-4.47,6.42-9,9.54-13.5.64-.94,2-2.3.93-3.22s-2.22.52-3.08,1.29c-2.73,2.46-5.36,5-8.42,7.95,0-5.54.21-10.66-.06-15.75s-.54-10.07-2.61-15c-1.3,1.15-1.39,2.48-1.59,3.73-1.32,8.33-1.54,16.74-1.83,25.15-.83,24.35-1.28,48.72-1.75,73.08-.08,4.2-.27,8.41-.33,12.61,0,1.29-.26,1.63-1.6,1.17a49.06,49.06,0,0,1-16.55-10.22c-11.1-9.86-18.84-21.76-21.7-36.52C419.7,530,421,519.41,424.14,509c4.7-15.77,12.56-29.72,24.37-41.32a54.32,54.32,0,0,1,6.75-5.47c5.84-4.14,11.93-4.72,18.49-1.82,12.57,5.56,22.62,14.27,31.15,24.86,7,8.64,12.14,18.22,14.2,29.24,2.47,13.18-.26,25.56-6.57,37.16-8.39,15.42-20.23,27.3-36.64,34.18-1.33.56-2.75.92-4.12,1.38s-1.84.21-1.83-1.32q0-11.76-.08-23.51a4,4,0,0,1,1.18-2.67c6.09-7.48,12.5-14.7,18.2-22.49a30.77,30.77,0,0,0,4.09-7.88c.21-.58.89-1.41,0-2-.64-.41-1.24.23-1.72.63-1.72,1.44-3.46,2.87-5.08,4.43C480.83,538,475.66,544.06,469.81,549.91Z"/><circle class="cls-14" cx="499.06" cy="523.49" r="3.62"/><circle class="cls-9" cx="487.92" cy="489.51" r="3.62"/><path class="cls-7" d="M466.58,672.79l3.07.08a11.63,11.63,0,0,1,.82-2.13q0-6.36-.09-12.71a3.11,3.11,0,0,1-.72-1.69c-.08-1.17.55-2.3.77-3.46-.11.4-.15-1.16-.2-1.44a6,6,0,0,1,.51-4.59l-.48-.05q0-3.71,0-7.42c0-6.26,0-12.51,0-18.77a3.34,3.34,0,0,1-.11-3.07l0-.06c-.14-.3.24-.84.29-1.14a8.91,8.91,0,0,0,.09-1.1c-.25-.37-.28-.56-.24-.62a2.38,2.38,0,0,1,.07-1.88c-.43-7.38,1.2-14.6-4.23-21.68-2.49.74-2.47,1.77-2.8,2.67-2.14,5.84-2.51,11.75-3,17.65-1.33,17.45-2.1,34.9-2.85,52.35-.13,3-.53,6-.51,9a1.93,1.93,0,0,1,0,.19C460.18,672.82,463.36,672.72,466.58,672.79Z"/><path class="cls-15" d="M916.84,597.75q0-5,0-9.93c0-7.5,0-15,0-22.5a4.49,4.49,0,0,1,.92-2.82c2.85-3.95,5.68-7.91,8.43-11.93.57-.83,1.74-2,.82-2.84s-2,.46-2.72,1.14c-2.41,2.18-4.73,4.45-7.44,7,0-4.9.18-9.42-.05-13.91s-.48-8.89-2.31-13.24a4.75,4.75,0,0,0-1.4,3.3,179.89,179.89,0,0,0-1.62,22.21c-.73,21.51-1.13,43-1.55,64.56-.07,3.71-.24,7.43-.29,11.14,0,1.14-.23,1.44-1.42,1a43.34,43.34,0,0,1-14.62-9c-9.8-8.71-16.65-19.22-19.17-32.26-1.84-9.53-.66-18.89,2.08-28.07A83.57,83.57,0,0,1,898,525.13a48,48,0,0,1,6-4.83,15.52,15.52,0,0,1,16.33-1.61c11.11,4.92,20,12.6,27.51,22,6.15,7.64,10.72,16.09,12.55,25.83,2.18,11.65-.23,22.58-5.8,32.83-7.41,13.62-17.87,24.11-32.37,30.19-1.18.49-2.43.81-3.64,1.22s-1.62.18-1.62-1.16q0-10.38-.07-20.77a3.49,3.49,0,0,1,1-2.36c5.38-6.6,11-13,16.08-19.87a27.18,27.18,0,0,0,3.61-7c.18-.51.78-1.25,0-1.73-.57-.36-1.1.21-1.52.55-1.52,1.27-3.06,2.54-4.49,3.91C926.57,587.22,922,592.59,916.84,597.75Z"/><circle class="cls-15" cx="942.67" cy="574.42" r="3.2"/><path class="cls-15" d="M914,685.8l2.71,0a6.27,6.27,0,0,1,.72-1.35q0-4-.08-8a1.74,1.74,0,0,1-.63-1.07c-.07-.74.49-1.45.68-2.19-.1.25-.13-.73-.18-.91a2.85,2.85,0,0,1,.45-2.91l-.42,0q0-2.35,0-4.69c0-4,0-7.91,0-11.87a1.6,1.6,0,0,1-.1-1.94l0,0c-.12-.19.21-.53.26-.72a4.08,4.08,0,0,0,.08-.7c-.22-.24-.25-.36-.21-.39a1.12,1.12,0,0,1,.06-1.19c-.38-4.67,1.06-9.24-3.74-13.72-2.2.47-2.18,1.12-2.47,1.69-1.89,3.7-2.21,7.43-2.61,11.17-1.17,11-1.85,22.08-2.52,33.12-.12,1.9-.47,3.8-.45,5.7a.88.88,0,0,1,0,.12C908.33,685.81,911.13,685.75,914,685.8Z"/><path class="cls-15" d="M353.81,564.25q0-6.91,0-13.83c0-10.45,0-20.89,0-31.34a6.26,6.26,0,0,1,1.28-3.93c4-5.5,7.9-11,11.73-16.61.79-1.15,2.42-2.82,1.15-4s-2.73.64-3.78,1.59c-3.36,3-6.59,6.2-10.36,9.78,0-6.82.25-13.11-.07-19.38s-.66-12.38-3.21-18.44c-1.6,1.41-1.71,3.05-2,4.59-1.63,10.25-1.9,20.6-2.25,30.94-1,30-1.58,59.94-2.16,89.91-.1,5.17-.34,10.34-.4,15.51,0,1.59-.31,2-2,1.44-7.75-2.66-14.32-7.22-20.36-12.58-13.65-12.13-23.18-26.77-26.69-44.93-2.57-13.28-.92-26.3,2.89-39.09,5.78-19.4,15.46-36.57,30-50.84a66.83,66.83,0,0,1,8.31-6.73c7.18-5.09,14.67-5.81,22.74-2.24,15.47,6.85,27.83,17.55,38.32,30.58,8.56,10.63,14.93,22.41,17.47,36,3,16.22-.32,31.45-8.08,45.72-10.32,19-24.89,33.58-45.08,42-1.64.69-3.38,1.13-5.07,1.7-1.52.51-2.26.26-2.25-1.62q.06-14.46-.09-28.93a4.86,4.86,0,0,1,1.45-3.29c7.49-9.2,15.38-18.08,22.39-27.67a37.85,37.85,0,0,0,5-9.69c.26-.72,1.09-1.74.05-2.4-.79-.51-1.53.29-2.11.77-2.12,1.77-4.26,3.53-6.25,5.45C367.36,549.59,361,557.07,353.81,564.25Z"/><circle class="cls-16" cx="376.08" cy="489.95" r="4.45"/><path class="cls-15" d="M349.84,686.88l3.77.07a8.73,8.73,0,0,1,1-1.87q0-5.6-.11-11.2a2.42,2.42,0,0,1-.88-1.49c-.09-1,.68-2,.95-3-.13.35-.18-1-.25-1.27-.35-1.34-.55-2.74.63-4l-.59,0q0-3.27,0-6.53c0-5.51,0-11-.05-16.53a2.22,2.22,0,0,1-.14-2.71l0-.06c-.17-.27.3-.74.36-1a5.68,5.68,0,0,0,.11-1c-.31-.33-.35-.5-.29-.54a1.56,1.56,0,0,1,.09-1.66c-.53-6.51,1.48-12.86-5.2-19.1-3.06.65-3,1.56-3.44,2.35-2.64,5.15-3.08,10.35-3.64,15.55-1.64,15.37-2.58,30.75-3.51,46.12-.16,2.65-.65,5.29-.62,7.93a1.22,1.22,0,0,1,0,.17C342,686.9,345.87,686.81,349.84,686.88Z"/><circle class="cls-2" cx="388.23" cy="531.4" r="3.62"/><circle class="cls-9" cx="431" cy="613.39" r="3.62"/><path class="cls-3" d="M540.83,547.47q0-6.91,0-13.83c0-10.45,0-20.89,0-31.34a6.26,6.26,0,0,1,1.28-3.93c4-5.5,7.9-11,11.73-16.61.79-1.15,2.42-2.82,1.15-4s-2.73.64-3.78,1.59c-3.36,3-6.59,6.2-10.36,9.78,0-6.82.25-13.11-.07-19.38s-.66-12.38-3.21-18.44c-1.6,1.41-1.71,3.05-2,4.59-1.63,10.25-1.9,20.6-2.25,30.94-1,30-1.58,59.94-2.16,89.91-.1,5.17-.34,10.34-.4,15.51,0,1.59-.31,2-2,1.44-7.75-2.66-14.32-7.22-20.36-12.58-13.65-12.13-23.18-26.77-26.69-44.93-2.57-13.28-.92-26.3,2.89-39.09,5.78-19.4,15.46-36.57,30-50.84a66.83,66.83,0,0,1,8.31-6.73c7.18-5.09,14.67-5.81,22.74-2.24,15.47,6.85,27.83,17.55,38.32,30.58,8.56,10.63,14.93,22.41,17.47,36,3,16.22-.32,31.45-8.08,45.72-10.32,19-24.89,33.58-45.08,42-1.64.69-3.38,1.13-5.07,1.7-1.52.51-2.26.26-2.25-1.62q.06-14.46-.09-28.93a4.86,4.86,0,0,1,1.45-3.29c7.49-9.2,15.38-18.08,22.39-27.67a37.85,37.85,0,0,0,5-9.69c.26-.72,1.09-1.74.05-2.4-.79-.51-1.53.29-2.11.77-2.12,1.77-4.26,3.53-6.25,5.45C554.39,532.81,548,540.28,540.83,547.47Z"/><circle class="cls-17" cx="563.11" cy="473.17" r="4.45"/><path class="cls-3" d="M536.86,670.1l3.77.07a8.73,8.73,0,0,1,1-1.87q0-5.6-.11-11.2a2.42,2.42,0,0,1-.88-1.49c-.09-1,.68-2,.95-3-.13.35-.18-1-.25-1.27-.35-1.34-.55-2.74.63-4l-.59,0q0-3.27,0-6.53c0-5.51,0-11-.05-16.53a2.22,2.22,0,0,1-.14-2.71l0-.06c-.17-.27.3-.74.36-1a5.68,5.68,0,0,0,.11-1c-.31-.33-.35-.5-.29-.54a1.56,1.56,0,0,1,.09-1.66c-.53-6.51,1.48-12.86-5.2-19.1-3.06.65-3,1.56-3.44,2.35-2.64,5.15-3.08,10.35-3.64,15.55-1.64,15.37-2.58,30.75-3.51,46.12-.16,2.65-.65,5.29-.62,7.93a1.22,1.22,0,0,1,0,.17C529,670.12,532.89,670,536.86,670.1Z"/><circle class="cls-11" cx="574.27" cy="514.58" r="3.62"/><path class="cls-15" d="M608.43,630.8q0-6.13,0-12.25c0-9.26,0-18.52,0-27.78a5.55,5.55,0,0,1,1.14-3.48c3.52-4.87,7-9.77,10.4-14.72.7-1,2.15-2.5,1-3.51s-2.42.57-3.35,1.41c-3,2.69-5.84,5.49-9.18,8.67,0-6,.22-11.62-.06-17.17s-.59-11-2.85-16.34c-1.42,1.25-1.51,2.71-1.73,4.07-1.44,9.08-1.68,18.25-2,27.42-.9,26.56-1.4,53.12-1.91,79.69-.09,4.58-.3,9.17-.36,13.75,0,1.41-.28,1.78-1.75,1.27-6.87-2.36-12.69-6.4-18-11.15-12.1-10.75-20.55-23.72-23.66-39.82-2.27-11.77-.81-23.31,2.56-34.65,5.12-17.2,13.7-32.41,26.57-45.05a59.23,59.23,0,0,1,7.36-6c6.37-4.52,13-5.15,20.16-2,13.71,6.07,24.67,15.56,34,27.1,7.59,9.42,13.23,19.86,15.49,31.88,2.69,14.38-.28,27.87-7.16,40.52-9.15,16.82-22.06,29.76-40,37.27-1.45.61-3,1-4.49,1.51s-2,.23-2-1.44q.05-12.82-.08-25.64a4.3,4.3,0,0,1,1.29-2.91c6.64-8.15,13.63-16,19.84-24.52a33.55,33.55,0,0,0,4.46-8.59c.23-.64,1-1.54,0-2.13-.7-.45-1.36.26-1.87.68-1.88,1.57-3.78,3.13-5.54,4.83C620.45,617.8,614.81,624.43,608.43,630.8Z"/><circle class="cls-2" cx="932.83" cy="544.4" r="3.2"/><circle class="cls-2" cx="624.75" cy="564.74" r="3.2"/><circle class="cls-16" cx="640.57" cy="598.45" r="4.45"/></g></svg>