<svg id="Layer_1" data-name="Layer 1" xmlns="http://www.w3.org/2000/svg" viewBox="0 0 674 355"><defs><style>.cls-1{fill:#273274;}.cls-2{fill:#606060;}.cls-3{fill:#fff;}</style></defs><title>hacktober elements</title><polygon class="cls-1" points="517 238 137 238 154.84 208.53 137 179.06 517 179.06 499.16 208.53 517 238"/><path class="cls-1" d="M186.8,79.17H193l-10.57,31.22h-6.2l-7.14-23.68-7.27,23.68h-6.11L145.19,79.17h6.42L159,103.93l7.31-24.75h5.89L179.53,104Z"/><path class="cls-1" d="M208.56,110.39v-2.9a7.81,7.81,0,0,1-3.21,2.36,11.82,11.82,0,0,1-4.5.8,9.6,9.6,0,0,1-4.39-1,7,7,0,0,1-2.92-2.65,7.17,7.17,0,0,1-1-3.79A6.35,6.35,0,0,1,194.87,98a10.64,10.64,0,0,1,6.69-1.94h7v-.62a4,4,0,0,0-1.38-3.26,6.1,6.1,0,0,0-4-1.16A13.79,13.79,0,0,0,196,93.27l-2.1-4A26.42,26.42,0,0,1,199,87a18.75,18.75,0,0,1,5.37-.69q4.64,0,7.2,2.23a8,8,0,0,1,2.61,6.24l0,15.61ZM206.51,105a4.11,4.11,0,0,0,2-2.92V100h-6a6.54,6.54,0,0,0-3.41.69A2.46,2.46,0,0,0,198,102.9a2.9,2.9,0,0,0,1.14,2.41,4.89,4.89,0,0,0,3.1.89A7.57,7.57,0,0,0,206.51,105Z"/><path class="cls-1" d="M241.61,88.79A9.32,9.32,0,0,1,244,95.5v14.9h-5.84V97.19a5.38,5.38,0,0,0-1.43-3.95,5.2,5.2,0,0,0-3.88-1.45,5.88,5.88,0,0,0-4.57,2,7.19,7.19,0,0,0-1.67,4.91v11.73h-5.8V86.53h5.8V91q2.45-4.59,8.56-4.68A8.52,8.52,0,0,1,241.61,88.79Z"/><path class="cls-1" d="M264.45,108.92a11.32,11.32,0,0,1-6,1.74,7.15,7.15,0,0,1-5-1.81,6.89,6.89,0,0,1-2-5.33V91.75h-3.34l0-4.24h3.39V81h5.75v6.56H264v4.24h-6.82V102.5a3.48,3.48,0,0,0,.62,2.34,2.4,2.4,0,0,0,1.87.69,8.31,8.31,0,0,0,3.39-1Z"/><path class="cls-1" d="M290.47,91.39a11.51,11.51,0,0,0-3.41-.58,4.61,4.61,0,0,0-2.34.51,1.71,1.71,0,0,0-.87,1.58,1.88,1.88,0,0,0,1.09,1.72,17.58,17.58,0,0,0,3.46,1.27,33.22,33.22,0,0,1,4.1,1.49,7.72,7.72,0,0,1,2.79,2.19,5.85,5.85,0,0,1,1.18,3.81,6.14,6.14,0,0,1-2.68,5.35,11.46,11.46,0,0,1-6.73,1.87,17.11,17.11,0,0,1-5.4-.87,12.71,12.71,0,0,1-4.46-2.48l2-4.06a11.74,11.74,0,0,0,3.84,2.16,12.82,12.82,0,0,0,4.24.78,5.09,5.09,0,0,0,2.56-.56,1.81,1.81,0,0,0,1-1.67,2,2,0,0,0-1.11-1.87,19.78,19.78,0,0,0-3.61-1.38,30.72,30.72,0,0,1-3.92-1.41,7.09,7.09,0,0,1-2.63-2.1,5.74,5.74,0,0,1-1.12-3.68A6.22,6.22,0,0,1,281,88.12a10.73,10.73,0,0,1,6.44-1.85,16.58,16.58,0,0,1,4.66.67,14.5,14.5,0,0,1,4.08,1.87L294.06,93A17.17,17.17,0,0,0,290.47,91.39Z"/><path class="cls-1" d="M318.39,87.87a11,11,0,0,1,4.42,4.26,12.4,12.4,0,0,1,1.58,6.31,12.61,12.61,0,0,1-1.58,6.38,10.94,10.94,0,0,1-4.42,4.28,13.64,13.64,0,0,1-6.53,1.52,13.86,13.86,0,0,1-6.6-1.52,10.89,10.89,0,0,1-4.44-4.28,12.6,12.6,0,0,1-1.58-6.38,12.39,12.39,0,0,1,1.58-6.31,10.93,10.93,0,0,1,4.44-4.26,13.86,13.86,0,0,1,6.6-1.52A13.64,13.64,0,0,1,318.39,87.87ZM307,93.31a8.21,8.21,0,0,0,0,10.44,6.4,6.4,0,0,0,4.91,2,6.29,6.29,0,0,0,4.82-2,8.21,8.21,0,0,0,0-10.44,6.29,6.29,0,0,0-4.82-2A6.4,6.4,0,0,0,307,93.31Z"/><path class="cls-1" d="M367.07,88.79a9.43,9.43,0,0,1,2.32,6.71v14.9h-5.84V97.19a5.49,5.49,0,0,0-1.4-4,5.07,5.07,0,0,0-3.81-1.45,5.73,5.73,0,0,0-4.39,2,7.25,7.25,0,0,0-1.63,4.86v11.77h-5.84V97.19a5.55,5.55,0,0,0-1.38-4,5,5,0,0,0-3.79-1.45,5.78,5.78,0,0,0-4.44,2,7.25,7.25,0,0,0-1.63,4.86v11.77h-5.8V86.53h5.8v4.42q2.36-4.55,8.39-4.64a8.87,8.87,0,0,1,5.24,1.49,7.84,7.84,0,0,1,3,4.21q2.27-5.62,8.88-5.71A8.32,8.32,0,0,1,367.07,88.79Z"/><path class="cls-1" d="M394.39,89.61q2.88,3.26,2.88,9.14,0,1.16,0,1.74H379.61a6.64,6.64,0,0,0,6.82,5.44,9.08,9.08,0,0,0,3.5-.69,8.56,8.56,0,0,0,2.92-2l3.12,3.26a12.06,12.06,0,0,1-4.35,3,14.62,14.62,0,0,1-5.69,1.07,13.27,13.27,0,0,1-6.44-1.52,10.6,10.6,0,0,1-4.3-4.26,13.85,13.85,0,0,1,0-12.64,10.89,10.89,0,0,1,4.3-4.3,12.71,12.71,0,0,1,6.29-1.54Q391.51,86.35,394.39,89.61Zm-2.43,7a5.79,5.79,0,0,0-1.74-4.19,6.78,6.78,0,0,0-8.63,0,6.79,6.79,0,0,0-2.12,4.21Z"/><path class="cls-1" d="M434.29,88.79a9.32,9.32,0,0,1,2.36,6.71v14.9h-5.84V97.19a5.38,5.38,0,0,0-1.43-3.95,5.2,5.2,0,0,0-3.88-1.45,6,6,0,0,0-4.59,2,7.13,7.13,0,0,0-1.69,4.91v11.73h-5.8V77.3h5.8V91.08q2.45-4.68,8.61-4.77A8.52,8.52,0,0,1,434.29,88.79Z"/><path class="cls-1" d="M461.69,89.61q2.88,3.26,2.88,9.14,0,1.16,0,1.74H446.91a6.64,6.64,0,0,0,6.82,5.44,9.08,9.08,0,0,0,3.5-.69,8.56,8.56,0,0,0,2.92-2l3.12,3.26a12.06,12.06,0,0,1-4.35,3,14.62,14.62,0,0,1-5.69,1.07,13.27,13.27,0,0,1-6.44-1.52,10.6,10.6,0,0,1-4.3-4.26,13.85,13.85,0,0,1,0-12.64,10.89,10.89,0,0,1,4.3-4.3,12.71,12.71,0,0,1,6.29-1.54Q458.82,86.35,461.69,89.61Zm-2.43,7a5.79,5.79,0,0,0-1.74-4.19,6.78,6.78,0,0,0-8.63,0,6.79,6.79,0,0,0-2.12,4.21Z"/><path class="cls-1" d="M469.79,77.3h5.8v33.09h-5.8Z"/><path class="cls-1" d="M503,87.89a10.39,10.39,0,0,1,4,4.3,13.9,13.9,0,0,1,1.4,6.38,13.7,13.7,0,0,1-1.38,6.29,10.2,10.2,0,0,1-3.92,4.24,11.27,11.27,0,0,1-5.89,1.52,10.24,10.24,0,0,1-4.73-1,8.89,8.89,0,0,1-3.39-3.05V119h-5.8V86.53h5.8v3.92a8.61,8.61,0,0,1,3.32-3.06,10.12,10.12,0,0,1,4.71-1A11.26,11.26,0,0,1,503,87.89Zm-2.39,15.7a7.36,7.36,0,0,0,1.87-5.2,7.28,7.28,0,0,0-1.87-5.17,6.84,6.84,0,0,0-9.68,0,8.14,8.14,0,0,0,0,10.39,6.35,6.35,0,0,0,4.86,2A6.26,6.26,0,0,0,500.61,103.59Z"/><path class="cls-2" d="M150.12,142.61h3.72l5.68,16.76,5.6-16.76h3.72l5.64,16.76,5.6-16.76h3.68l-7.48,20.29h-3.72l-5.6-16-5.6,16h-3.72Z"/><path class="cls-2" d="M190.46,135.17a2.47,2.47,0,0,1,0,3.3,2.27,2.27,0,0,1-3.18,0,2.47,2.47,0,0,1,0-3.3,2.27,2.27,0,0,1,3.18,0Zm-3.36,7.44h3.57V162.9H187.1Z"/><path class="cls-2" d="M208.5,161.56a8.74,8.74,0,0,1-4.76,1.5,5.41,5.41,0,0,1-3.91-1.44,5.78,5.78,0,0,1-1.5-4.35V146h-2.88V143.3h2.88v-5.45h3.61v5.45h6.21V146h-6.21v10.59a3.76,3.76,0,0,0,.61,2.42,2.27,2.27,0,0,0,1.84.73,6.43,6.43,0,0,0,3.15-1Z"/><path class="cls-2" d="M229.94,144.59a7.93,7.93,0,0,1,2,5.77V162.9h-3.57V151.32a5,5,0,0,0-5.41-5.45,6,6,0,0,0-4.68,2,7.37,7.37,0,0,0-1.73,5.06v10H213V134.44h3.57V147q2-4.41,7.75-4.49A7.45,7.45,0,0,1,229.94,144.59Z"/><path class="cls-2" d="M266.86,138.43a8.36,8.36,0,0,1,2.74,6.67,8.86,8.86,0,0,1-2.76,7q-2.76,2.47-7.75,2.47h-6.67v8.36h-3.68V136.05h10.36Q264.12,136.05,266.86,138.43Zm-2.63,11.26a5.45,5.45,0,0,0,1.84-4.47,5.25,5.25,0,0,0-1.84-4.35,8.29,8.29,0,0,0-5.29-1.48l-6.52,0V151.2h6.52A8.13,8.13,0,0,0,264.23,149.69Z"/><path class="cls-2" d="M291.81,162.9l-5.33-8.44q-.92.08-1.5.08h-6.83v8.36h-3.68V136.05H285q5.1,0,7.88,2.36a8.3,8.3,0,0,1,2.78,6.69,9.52,9.52,0,0,1-1.52,5.49,8.48,8.48,0,0,1-4.35,3.22L296,162.9ZM285,151.2a8.13,8.13,0,0,0,5.29-1.51,5.45,5.45,0,0,0,1.84-4.47,5.25,5.25,0,0,0-1.84-4.35,8.29,8.29,0,0,0-5.29-1.48h-6.83V151.2Z"/><path class="cls-2" d="M324.3,162.9v-2.84q-2.26,3-7.1,3a8.09,8.09,0,0,1-3.7-.81A5.93,5.93,0,0,1,311,160a6,6,0,0,1-.86-3.18,5.21,5.21,0,0,1,2-4.32,9,9,0,0,1,5.62-1.63h6.44v-1a4.19,4.19,0,0,0-1.32-3.32,5.65,5.65,0,0,0-3.85-1.17,11,11,0,0,0-6.25,2.19l-1.5-2.46a18.54,18.54,0,0,1,4-2.05,13.77,13.77,0,0,1,4.43-.63,8.49,8.49,0,0,1,5.87,1.86,6.74,6.74,0,0,1,2.11,5.2l0,13.35Zm-2.13-4a4.77,4.77,0,0,0,2.09-3.2v-2h-5.95a6.94,6.94,0,0,0-3.59.73,2.51,2.51,0,0,0-1.17,2.3,3,3,0,0,0,1.19,2.49,5.06,5.06,0,0,0,3.18.92A7.27,7.27,0,0,0,322.17,158.89Z"/><path class="cls-2" d="M351.07,144.59a7.93,7.93,0,0,1,2,5.77V162.9h-3.57V151.32a5,5,0,0,0-5.41-5.45,6.12,6.12,0,0,0-4.43,1.75,6.85,6.85,0,0,0-1.94,4.43V162.9H334.2V142.61h3.57v4.3q2-4.33,7.71-4.41A7.45,7.45,0,0,1,351.07,144.59Z"/><path class="cls-2" d="M378.38,134.44V162.9h-3.57v-4a8.06,8.06,0,0,1-3.09,3.13,9,9,0,0,1-4.51,1.09,9.68,9.68,0,0,1-5.08-1.32,9.09,9.09,0,0,1-3.43-3.68,11.51,11.51,0,0,1-1.23-5.39,11.19,11.19,0,0,1,1.23-5.31,9,9,0,0,1,3.43-3.62,9.72,9.72,0,0,1,5-1.3,9.34,9.34,0,0,1,4.56,1.07,7.64,7.64,0,0,1,3.07,3.11v-12.2Zm-6.89,24.66a6.47,6.47,0,0,0,2.44-2.57,7.77,7.77,0,0,0,.88-3.72,7.85,7.85,0,0,0-.88-3.76,6.47,6.47,0,0,0-2.44-2.57,6.83,6.83,0,0,0-3.55-.92,6.72,6.72,0,0,0-3.55.94,6.61,6.61,0,0,0-2.44,2.59,8.29,8.29,0,0,0,0,7.44,6.47,6.47,0,0,0,2.44,2.57,7.3,7.3,0,0,0,7.1,0Z"/><path class="cls-2" d="M400.15,169.31a6.08,6.08,0,0,1-3.74,1.19,7,7,0,0,1-2.38-.38,7.11,7.11,0,0,1-2.07-1.19l1.53-2.8a4.65,4.65,0,0,0,2.72,1q2.3,0,3.45-2.61l.77-1.8L392,142.61h3.76l6.44,16.26,6.1-16.26H412l-9.28,23.17A8.11,8.11,0,0,1,400.15,169.31Z"/><path class="cls-2" d="M428.46,143.8a9.38,9.38,0,0,1,3.68,3.63,10.53,10.53,0,0,1,1.32,5.31,10.64,10.64,0,0,1-1.32,5.33,9.33,9.33,0,0,1-3.68,3.64,11.86,11.86,0,0,1-10.82,0,9.37,9.37,0,0,1-3.68-3.62,11.4,11.4,0,0,1,0-10.66,9.38,9.38,0,0,1,3.68-3.62,11.86,11.86,0,0,1,10.82,0Zm-8.94,2.72a6.36,6.36,0,0,0-2.42,2.55,7.79,7.79,0,0,0-.86,3.7,8,8,0,0,0,.86,3.76,6.2,6.2,0,0,0,2.42,2.55,6.94,6.94,0,0,0,3.55.9,6.87,6.87,0,0,0,3.51-.9,6.2,6.2,0,0,0,2.42-2.55,8,8,0,0,0,.86-3.76,7.78,7.78,0,0,0-.86-3.7,6.36,6.36,0,0,0-2.42-2.55,6.75,6.75,0,0,0-3.51-.92A6.82,6.82,0,0,0,419.52,146.52Z"/><path class="cls-2" d="M456.4,142.61V162.9h-3.61v-4.3q-2,4.33-7.52,4.41a7.27,7.27,0,0,1-5.52-2.09,8,8,0,0,1-2-5.77V142.61h3.61V154.2a5.5,5.5,0,0,0,1.4,4,5.13,5.13,0,0,0,3.85,1.44,5.7,5.7,0,0,0,4.51-2,7.54,7.54,0,0,0,1.67-5v-10Z"/><path class="cls-2" d="M465.28,135a2,2,0,0,1,.59,1.53,2.52,2.52,0,0,1-.17.88q-.17.46-.36.88l-2.07,4.37h-2l1.53-4.33a1.82,1.82,0,0,1-.81-.75,2.12,2.12,0,0,1-.27-1.06,2.05,2.05,0,0,1,.59-1.51,2.11,2.11,0,0,1,2.92,0Z"/><path class="cls-2" d="M477.57,143.67a8.45,8.45,0,0,1,4.37-1.17v3.45a6.53,6.53,0,0,0-7.21,6.25v10.7h-3.57V142.61h3.57V147A7.34,7.34,0,0,1,477.57,143.67Z"/><path class="cls-2" d="M501.08,145.28q2.42,2.78,2.42,7.73c0,.51,0,.9,0,1.15h-16a6.91,6.91,0,0,0,2.28,4.33,6.75,6.75,0,0,0,4.58,1.61,8.57,8.57,0,0,0,3.36-.65,8.06,8.06,0,0,0,2.7-1.84l2,2a10.24,10.24,0,0,1-3.61,2.49A12,12,0,0,1,494,163a10.77,10.77,0,0,1-5.31-1.29,9,9,0,0,1-3.61-3.62,10.89,10.89,0,0,1-1.28-5.33,10.78,10.78,0,0,1,1.28-5.31,9.35,9.35,0,0,1,3.59-3.64,10.34,10.34,0,0,1,5.25-1.32Q498.67,142.5,501.08,145.28Zm-.81,6.12a5.88,5.88,0,0,0-6.29-5.95,6.42,6.42,0,0,0-4.47,1.61,6.76,6.76,0,0,0-2.13,4.33Z"/><path class="cls-3" d="M185.19,189a3.47,3.47,0,0,1,.94,2.5,3.41,3.41,0,0,1-.94,2.45,3.34,3.34,0,0,1-4.73,0,3.41,3.41,0,0,1-.94-2.45,3.47,3.47,0,0,1,.94-2.5,3.34,3.34,0,0,1,4.73,0ZM180,198.32h5.8v23.86H180Z"/><path class="cls-3" d="M213.78,200.58a9.32,9.32,0,0,1,2.36,6.71v14.9H210.3V209a5.38,5.38,0,0,0-1.43-3.95,5.2,5.2,0,0,0-3.88-1.45,5.88,5.88,0,0,0-4.57,2,7.19,7.19,0,0,0-1.67,4.91v11.73H193V198.32h5.8v4.46q2.45-4.59,8.56-4.68A8.52,8.52,0,0,1,213.78,200.58Z"/><path class="cls-3" d="M255.55,193.06a6.69,6.69,0,0,1,2.88,5.71,6.83,6.83,0,0,1-5.44,6.91,8.06,8.06,0,0,1,4.88,2.68,7.84,7.84,0,0,1,1.76,5.22,7.43,7.43,0,0,1-3.1,6.31q-3.1,2.3-8.45,2.3H233.81V191h13.87A13.13,13.13,0,0,1,255.55,193.06ZM251,202.7a3.42,3.42,0,0,0,1.32-2.85,3.25,3.25,0,0,0-1.32-2.77,5.78,5.78,0,0,0-3.63-.94h-7.58v7.58h7.58A5.78,5.78,0,0,0,251,202.7Zm.83,13.25a3.59,3.59,0,0,0,1.61-3.12,3.45,3.45,0,0,0-1.61-3,7.63,7.63,0,0,0-4.46-1h-7.58V217h7.58A7.51,7.51,0,0,0,251.83,215.94Z"/><path class="cls-3" d="M279.3,222.19v-2.9a7.81,7.81,0,0,1-3.21,2.36,11.82,11.82,0,0,1-4.5.8,9.6,9.6,0,0,1-4.39-1,7,7,0,0,1-2.92-2.65,7.17,7.17,0,0,1-1-3.79,6.35,6.35,0,0,1,2.36-5.24,10.64,10.64,0,0,1,6.69-1.94h7v-.62a4,4,0,0,0-1.38-3.26,6.1,6.1,0,0,0-4-1.16,13.79,13.79,0,0,0-7.09,2.23l-2.1-4a26.42,26.42,0,0,1,5.11-2.25,18.75,18.75,0,0,1,5.37-.69q4.64,0,7.2,2.23a8,8,0,0,1,2.61,6.24l0,15.61Zm-2.05-5.37a4.11,4.11,0,0,0,2-2.92v-2.14h-6a6.54,6.54,0,0,0-3.41.69,2.46,2.46,0,0,0-1.09,2.25,2.9,2.9,0,0,0,1.14,2.41,4.89,4.89,0,0,0,3.1.89A7.57,7.57,0,0,0,277.25,216.81Z"/><path class="cls-3" d="M312.35,200.58a9.32,9.32,0,0,1,2.36,6.71v14.9h-5.84V209a5.38,5.38,0,0,0-1.43-3.95,5.2,5.2,0,0,0-3.88-1.45,5.88,5.88,0,0,0-4.57,2,7.19,7.19,0,0,0-1.67,4.91v11.73h-5.8V198.32h5.8v4.46q2.45-4.59,8.56-4.68A8.52,8.52,0,0,1,312.35,200.58Z"/><path class="cls-3" d="M343,198.32v21.59a11.11,11.11,0,0,1-1.54,5.91,10.12,10.12,0,0,1-4.37,3.88,15,15,0,0,1-6.58,1.36,17.52,17.52,0,0,1-10.08-3.17l2.32-4.19a12.28,12.28,0,0,0,7.45,2.5,7.51,7.51,0,0,0,5.11-1.65,5.67,5.67,0,0,0,1.9-4.5v-2.81a7.93,7.93,0,0,1-3.12,2.79,9.85,9.85,0,0,1-4.46,1,10.52,10.52,0,0,1-5.53-1.45,9.89,9.89,0,0,1-3.75-4.06,13,13,0,0,1-1.34-6,12.59,12.59,0,0,1,1.34-5.91,9.81,9.81,0,0,1,3.75-4,10.64,10.64,0,0,1,5.53-1.43,9.71,9.71,0,0,1,4.44,1,8.19,8.19,0,0,1,3.14,2.77v-3.57Zm-7.56,16.21a7.77,7.77,0,0,0,0-9.86,6.43,6.43,0,0,0-9.14,0,7.59,7.59,0,0,0,0,9.83,6.46,6.46,0,0,0,9.14,0Z"/><path class="cls-3" d="M364,222.19v-2.9a7.81,7.81,0,0,1-3.21,2.36,11.82,11.82,0,0,1-4.5.8,9.6,9.6,0,0,1-4.39-1,7,7,0,0,1-2.92-2.65,7.17,7.17,0,0,1-1-3.79,6.35,6.35,0,0,1,2.36-5.24,10.64,10.64,0,0,1,6.69-1.94h7v-.62a4,4,0,0,0-1.38-3.26,6.1,6.1,0,0,0-4-1.16,13.79,13.79,0,0,0-7.09,2.23l-2.1-4a26.42,26.42,0,0,1,5.11-2.25,18.75,18.75,0,0,1,5.37-.69q4.64,0,7.2,2.23a8,8,0,0,1,2.61,6.24l0,15.61Zm-2.05-5.37a4.11,4.11,0,0,0,2-2.92v-2.14h-6a6.54,6.54,0,0,0-3.41.69,2.46,2.46,0,0,0-1.09,2.25,2.9,2.9,0,0,0,1.14,2.41,4.89,4.89,0,0,0,3.1.89A7.57,7.57,0,0,0,361.9,216.81Z"/><path class="cls-3" d="M376.39,189.09h5.8v33.09h-5.8Z"/><path class="cls-3" d="M406.61,199.66a11,11,0,0,1,4.42,4.26,12.4,12.4,0,0,1,1.58,6.31,12.61,12.61,0,0,1-1.58,6.38,10.94,10.94,0,0,1-4.42,4.28,13.64,13.64,0,0,1-6.53,1.52,13.86,13.86,0,0,1-6.6-1.52,10.89,10.89,0,0,1-4.44-4.28,12.6,12.6,0,0,1-1.58-6.38,12.39,12.39,0,0,1,1.58-6.31,10.93,10.93,0,0,1,4.44-4.26,13.86,13.86,0,0,1,6.6-1.52A13.64,13.64,0,0,1,406.61,199.66Zm-11.44,5.44a8.21,8.21,0,0,0,0,10.44,6.4,6.4,0,0,0,4.91,2,6.29,6.29,0,0,0,4.82-2,8.21,8.21,0,0,0,0-10.44,6.29,6.29,0,0,0-4.82-2A6.4,6.4,0,0,0,395.17,205.1Z"/><path class="cls-3" d="M426.73,199.37a9.65,9.65,0,0,1,4.84-1.27v5.62a7.87,7.87,0,0,0-5.91,1.72,6.62,6.62,0,0,0-2.21,5.24v11.51h-5.8V198.32h5.8v4.59A8.62,8.62,0,0,1,426.73,199.37Z"/><path class="cls-3" d="M454.16,201.4q2.88,3.26,2.88,9.14,0,1.16,0,1.74H439.37a6.64,6.64,0,0,0,6.82,5.44,9.08,9.08,0,0,0,3.5-.69,8.56,8.56,0,0,0,2.92-2l3.12,3.26a12.06,12.06,0,0,1-4.35,3,14.62,14.62,0,0,1-5.69,1.07,13.27,13.27,0,0,1-6.44-1.52,10.6,10.6,0,0,1-4.3-4.26A13.85,13.85,0,0,1,435,204a10.89,10.89,0,0,1,4.3-4.3,12.71,12.71,0,0,1,6.29-1.54Q451.28,198.15,454.16,201.4Zm-2.43,7a5.79,5.79,0,0,0-1.74-4.19,6.78,6.78,0,0,0-8.63,0,6.79,6.79,0,0,0-2.12,4.21Z"/><path class="cls-3" d="M462,193.53a9.42,9.42,0,0,1,6.87-2.48,10.44,10.44,0,0,1,6.67,2,6.75,6.75,0,0,1,2.48,5.62,7.25,7.25,0,0,1-.58,3,8.32,8.32,0,0,1-1.38,2.18,25.66,25.66,0,0,1-2.19,2.1,16.91,16.91,0,0,0-2.74,2.83,5.25,5.25,0,0,0-.91,3.14h-4.46a8.37,8.37,0,0,1,.54-3.12,8,8,0,0,1,1.27-2.21,21.51,21.51,0,0,1,2-2,15.31,15.31,0,0,0,2.23-2.41,4.43,4.43,0,0,0,.71-2.59,3.13,3.13,0,0,0-1.09-2.61,4.79,4.79,0,0,0-3.06-.87,4.05,4.05,0,0,0-4.46,4.33h-4.5A9.25,9.25,0,0,1,462,193.53Zm8.09,23.53a3.12,3.12,0,0,1,.87,2.27,3.26,3.26,0,0,1-.87,2.34,2.92,2.92,0,0,1-2.21.91,2.83,2.83,0,0,1-2.16-.94,3.28,3.28,0,0,1-.87-2.32,3.12,3.12,0,0,1,.87-2.27,2.9,2.9,0,0,1,2.16-.89A3,3,0,0,1,470.12,217.06Z"/><path class="cls-2" d="M165.39,264.89a10.9,10.9,0,0,0-10.15.32,10.32,10.32,0,0,0-3.9,3.92,11.27,11.27,0,0,0,0,11,10.48,10.48,0,0,0,3.9,3.94,10.63,10.63,0,0,0,5.45,1.44,11.47,11.47,0,0,0,4.61-1,13.2,13.2,0,0,0,4.1-2.8l3.62,4a18.94,18.94,0,0,1-5.87,4.06,16.54,16.54,0,0,1-6.78,1.49,16.79,16.79,0,0,1-8.48-2.2,16.12,16.12,0,0,1-6.05-6,16.33,16.33,0,0,1-2.2-8.37,16,16,0,0,1,2.25-8.34,16.14,16.14,0,0,1,6.12-5.91,17.76,17.76,0,0,1,15.33-.78,16.56,16.56,0,0,1,5.64,3.8L169.4,268A12.1,12.1,0,0,0,165.39,264.89Z"/><path class="cls-2" d="M194.63,267.64a11.28,11.28,0,0,1,4.54,4.38,12.75,12.75,0,0,1,1.63,6.49,13,13,0,0,1-1.63,6.55,11.24,11.24,0,0,1-4.54,4.4,14,14,0,0,1-6.72,1.56,14.24,14.24,0,0,1-6.78-1.56,11.19,11.19,0,0,1-4.56-4.4,13,13,0,0,1-1.63-6.55,12.73,12.73,0,0,1,1.63-6.49,11.23,11.23,0,0,1,4.56-4.38,14.26,14.26,0,0,1,6.78-1.56A14,14,0,0,1,194.63,267.64Zm-11.76,5.59a8.43,8.43,0,0,0,0,10.73,6.58,6.58,0,0,0,5,2.06,6.47,6.47,0,0,0,5-2.06,8.43,8.43,0,0,0,0-10.73,6.47,6.47,0,0,0-5-2.06A6.58,6.58,0,0,0,182.88,273.23Z"/><path class="cls-2" d="M244.66,268.58a9.68,9.68,0,0,1,2.38,6.9v15.31h-6V277.22a5.65,5.65,0,0,0-1.44-4.1,5.21,5.21,0,0,0-3.92-1.49,5.88,5.88,0,0,0-4.52,2.06,7.45,7.45,0,0,0-1.67,5v12.1h-6V277.22a5.7,5.7,0,0,0-1.42-4.1,5.13,5.13,0,0,0-3.9-1.49,5.94,5.94,0,0,0-4.56,2.06,7.45,7.45,0,0,0-1.67,5v12.1h-6V266.26h6v4.54q2.43-4.68,8.62-4.77a9.12,9.12,0,0,1,5.39,1.54,8,8,0,0,1,3,4.33q2.34-5.78,9.12-5.87A8.55,8.55,0,0,1,244.66,268.58Z"/><path class="cls-2" d="M272.74,269.42q3,3.35,3,9.4,0,1.19,0,1.79H257.54a6.83,6.83,0,0,0,7,5.59,9.33,9.33,0,0,0,3.6-.71,8.8,8.8,0,0,0,3-2l3.21,3.35a12.4,12.4,0,0,1-4.47,3.12,15,15,0,0,1-5.84,1.1,13.64,13.64,0,0,1-6.62-1.56,10.89,10.89,0,0,1-4.42-4.38,14.23,14.23,0,0,1,0-13,11.19,11.19,0,0,1,4.42-4.42,13.06,13.06,0,0,1,6.46-1.58Q269.78,266.08,272.74,269.42Zm-2.5,7.2a6,6,0,0,0-1.79-4.31,7,7,0,0,0-8.87,0,7,7,0,0,0-2.18,4.33Z"/><path class="cls-2" d="M288.3,266.31l6.23,0L301,284.92l6.28-18.66h6l-9.35,24.52h-6.14Z"/><path class="cls-2" d="M322,256.73a3.57,3.57,0,0,1,1,2.57,3.51,3.51,0,0,1-1,2.52,3.43,3.43,0,0,1-4.86,0,3.51,3.51,0,0,1-1-2.52,3.57,3.57,0,0,1,1-2.57,3.43,3.43,0,0,1,4.86,0Zm-5.36,9.53h6v24.52h-6Z"/><path class="cls-2" d="M340.85,271.26a11.83,11.83,0,0,0-3.51-.6,4.73,4.73,0,0,0-2.41.53,1.76,1.76,0,0,0-.89,1.63,1.93,1.93,0,0,0,1.12,1.76,18,18,0,0,0,3.55,1.31,34.23,34.23,0,0,1,4.22,1.54,7.94,7.94,0,0,1,2.86,2.25,6,6,0,0,1,1.21,3.92,6.31,6.31,0,0,1-2.75,5.5,11.78,11.78,0,0,1-6.92,1.93,17.54,17.54,0,0,1-5.55-.89,13,13,0,0,1-4.58-2.54l2.06-4.17a12.07,12.07,0,0,0,3.94,2.22,13.18,13.18,0,0,0,4.35.8,5.22,5.22,0,0,0,2.64-.57,1.86,1.86,0,0,0,1-1.72,2.08,2.08,0,0,0-1.15-1.92,20.28,20.28,0,0,0-3.71-1.42,31.65,31.65,0,0,1-4-1.44,7.29,7.29,0,0,1-2.7-2.15,5.9,5.9,0,0,1-1.15-3.78,6.39,6.39,0,0,1,2.64-5.52,11,11,0,0,1,6.62-1.9,17,17,0,0,1,4.79.69,14.86,14.86,0,0,1,4.19,1.92l-2.15,4.31A17.68,17.68,0,0,0,340.85,271.26Z"/><path class="cls-2" d="M357.47,256.73a3.57,3.57,0,0,1,1,2.57,3.51,3.51,0,0,1-1,2.52,3.43,3.43,0,0,1-4.86,0,3.51,3.51,0,0,1-1-2.52,3.57,3.57,0,0,1,1-2.57,3.43,3.43,0,0,1,4.86,0Zm-5.36,9.53h6v24.52h-6Z"/><path class="cls-2" d="M379.79,289.27a11.64,11.64,0,0,1-6.14,1.79,7.35,7.35,0,0,1-5.18-1.86,7.08,7.08,0,0,1-2-5.48v-12.1H363l0-4.35h3.48v-6.74h5.91v6.74h7v4.35h-7v11a3.57,3.57,0,0,0,.64,2.41,2.46,2.46,0,0,0,1.92.71,8.53,8.53,0,0,0,3.48-1Z"/><path class="cls-2" d="M418.34,266.26v24.52h-6v-4.54q-2.48,4.77-8.53,4.77a8.53,8.53,0,0,1-6.51-2.52,9.6,9.6,0,0,1-2.38-6.88V266.26h6v13.61a5.6,5.6,0,0,0,1.4,4,5.09,5.09,0,0,0,3.87,1.47,5.67,5.67,0,0,0,4.49-2,7.52,7.52,0,0,0,1.65-5v-12.1Z"/><path class="cls-2" d="M436.61,271.26a11.83,11.83,0,0,0-3.51-.6,4.73,4.73,0,0,0-2.41.53,1.76,1.76,0,0,0-.89,1.63,1.93,1.93,0,0,0,1.12,1.76,18,18,0,0,0,3.55,1.31,34.23,34.23,0,0,1,4.22,1.54,7.94,7.94,0,0,1,2.86,2.25,6,6,0,0,1,1.21,3.92,6.31,6.31,0,0,1-2.75,5.5A11.78,11.78,0,0,1,433.1,291a17.54,17.54,0,0,1-5.55-.89,13,13,0,0,1-4.58-2.54L425,283.4a12.07,12.07,0,0,0,3.94,2.22,13.18,13.18,0,0,0,4.35.8,5.22,5.22,0,0,0,2.64-.57,1.86,1.86,0,0,0,1-1.72,2.08,2.08,0,0,0-1.15-1.92,20.28,20.28,0,0,0-3.71-1.42,31.65,31.65,0,0,1-4-1.44,7.29,7.29,0,0,1-2.7-2.15,5.9,5.9,0,0,1-1.15-3.78,6.39,6.39,0,0,1,2.64-5.52,11,11,0,0,1,6.62-1.9,17,17,0,0,1,4.79.69,14.86,14.86,0,0,1,4.19,1.92l-2.15,4.31A17.68,17.68,0,0,0,436.61,271.26Z"/><path class="cls-2" d="M473.57,290.78v-3a8,8,0,0,1-3.3,2.43,12.16,12.16,0,0,1-4.63.83,9.86,9.86,0,0,1-4.52-1,7.22,7.22,0,0,1-3-2.73,7.37,7.37,0,0,1-1.05-3.9,6.52,6.52,0,0,1,2.43-5.39,10.92,10.92,0,0,1,6.88-2h7.15v-.64a4.13,4.13,0,0,0-1.42-3.35,6.27,6.27,0,0,0-4.13-1.19,14.16,14.16,0,0,0-7.29,2.29l-2.15-4.13a27.18,27.18,0,0,1,5.25-2.31,19.24,19.24,0,0,1,5.52-.71q4.77,0,7.4,2.29a8.18,8.18,0,0,1,2.68,6.42l0,16Zm-2.11-5.52a4.22,4.22,0,0,0,2.06-3v-2.2h-6.19a6.73,6.73,0,0,0-3.51.71,2.53,2.53,0,0,0-1.12,2.31,3,3,0,0,0,1.17,2.48,5,5,0,0,0,3.19.92A7.79,7.79,0,0,0,471.47,285.26Z"/><path class="cls-2" d="M500.48,289.27a11.64,11.64,0,0,1-6.14,1.79,7.35,7.35,0,0,1-5.18-1.86,7.08,7.08,0,0,1-2-5.48v-12.1H483.7l0-4.35h3.48v-6.74h5.91v6.74h7v4.35h-7v11a3.57,3.57,0,0,0,.64,2.41,2.46,2.46,0,0,0,1.92.71,8.53,8.53,0,0,0,3.48-1Z"/></svg>