<svg id="Layer_1" data-name="Layer 1" xmlns="http://www.w3.org/2000/svg" viewBox="0 0 73 73"><defs><style>.cls-1{fill:#fff;}.cls-2{fill:#273274;}</style></defs><title>icons footer</title><circle class="cls-1" cx="36.5" cy="36.5" r="36.36"/><path class="cls-2" d="M29.4,42.38l-2.12-6.26c-1.18.38-2.3.77-3.44,1.1a2.56,2.56,0,0,1-2.85-1,2.63,2.63,0,0,1,.12-3.11,4.13,4.13,0,0,1,1.46-1c1-.4,2-.7,3-1.05-.37-1.16-.76-2.25-1.05-3.37a2.56,2.56,0,0,1,1.6-3,2.59,2.59,0,0,1,3.19,1.08,6.42,6.42,0,0,1,.44,1.1c.29.83.56,1.66.86,2.56l6.3-2.11c-.34-1-.67-2-1-2.93-.58-1.72,0-3.15,1.58-3.66s2.84.24,3.43,1.93c.34,1,.66,1.93,1,3,1.07-.35,2.08-.71,3.11-1a2.61,2.61,0,0,1,3.44,2.8,2.52,2.52,0,0,1-1.85,2.22c-1,.35-2,.66-3.05,1l2.11,6.25c1.09-.35,2.13-.7,3.18-1A2.6,2.6,0,0,1,52.07,37a2.66,2.66,0,0,1-1.55,3.92c-1,.36-2,.7-3.11,1.07.35,1.08.72,2.09,1,3.12a2.64,2.64,0,0,1-3.31,3.33,2.58,2.58,0,0,1-1.72-1.76c-.34-1-.66-2-1-3l-6.25,2.11c.26.81.51,1.58.75,2.36a10.37,10.37,0,0,1,.36,1.22,2.56,2.56,0,0,1-1.73,3,2.59,2.59,0,0,1-3.28-1.55c-.43-1.08-.78-2.18-1.18-3.34-1.12.35-2.18.72-3.26,1a2.51,2.51,0,0,1-2.84-1,2.46,2.46,0,0,1,0-3,4.66,4.66,0,0,1,1.66-1.1C27.52,42.93,28.45,42.69,29.4,42.38Zm5-1.67,6.28-2.12-2.13-6.28L32.3,34.44Z"/></svg>