<svg id="Layer_1" data-name="Layer 1" xmlns="http://www.w3.org/2000/svg" viewBox="0 0 73 73"><defs><style>.cls-1{fill:#fff;}.cls-2{fill:#273274;}</style></defs><title>icons footer</title><circle class="cls-1" cx="36.5" cy="36.5" r="36.36"/><path class="cls-2" d="M20.91,46.81a14.74,14.74,0,0,0,8.93-2.95c-3-.42-4.95-1.73-6-4.38l2.81-.23c-3.2-1.26-5-3.13-5.18-6.38l2.9.7c-2.83-2.62-3.57-5.35-2.06-8.79a19,19,0,0,0,13.35,6.77A20.81,20.81,0,0,1,36,28.42a6.41,6.41,0,0,1,10-3.7,2.85,2.85,0,0,0,3.13.32,5.68,5.68,0,0,1,2.09-.55l-2.35,3.08,3.24-.77a26.19,26.19,0,0,1-2.33,2.41,2.16,2.16,0,0,0-.87,1.85A18.49,18.49,0,0,1,34.53,49,17.56,17.56,0,0,1,20.91,46.81Z"/></svg>