<svg id="Layer_1" data-name="Layer 1" xmlns="http://www.w3.org/2000/svg" xmlns:xlink="http://www.w3.org/1999/xlink" viewBox="0 0 438 179"><defs><style>.cls-1{fill:#ff8c58;stroke-width:8px;}.cls-1,.cls-5{stroke:#fff;stroke-miterlimit:10;}.cls-2{font-size:46.22px;fill:#273274;font-family:BoucherieBlock, Boucherie Block;}.cls-3{font-size:35.22px;}.cls-4{letter-spacing:-0.01em;}.cls-12,.cls-5{fill:#fff;}.cls-5{stroke-width:13px;}.cls-6{fill:#493636;}.cls-7{fill:#b27f6f;}.cls-8{fill:#b18070;}.cls-9{fill:url(#radial-gradient);}.cls-10{fill:url(#radial-gradient-2);}.cls-11{fill:#050505;}.cls-13{fill:url(#radial-gradient-3);}.cls-14{fill:url(#radial-gradient-4);}.cls-15{fill:url(#radial-gradient-5);}.cls-16{fill:#4b3838;}</style><radialGradient id="radial-gradient" cx="26.09" cy="48.79" r="20.53" gradientTransform="translate(0 -0.59)" gradientUnits="userSpaceOnUse"><stop offset="0" stop-color="#3192c3"/><stop offset="1" stop-color="#3192c3"/></radialGradient><radialGradient id="radial-gradient-2" cx="76.28" cy="48.78" r="20.53" xlink:href="#radial-gradient"/><radialGradient id="radial-gradient-3" cx="50.37" cy="60.67" r="4.15" xlink:href="#radial-gradient"/><radialGradient id="radial-gradient-4" cx="51.39" cy="46.32" r="2.96" xlink:href="#radial-gradient"/><radialGradient id="radial-gradient-5" cx="55.99" cy="60.23" r="2.28" xlink:href="#radial-gradient"/></defs><title>Hacktober page 2</title><rect class="cls-1" x="38.17" y="42.87" width="389.21" height="121.06" rx="15.96" ry="15.96"/><text class="cls-2" transform="translate(172 99.66)">OpenEBS <tspan class="cls-3"><tspan x="-51.46" y="42.26">contributed issu</tspan><tspan class="cls-4" x="182.23" y="42.26">e</tspan><tspan x="197.41" y="42.26">s</tspan></tspan></text><path class="cls-5" d="M92.33,31.74v3.7a3.84,3.84,0,0,0-.15.66,47.21,47.21,0,0,1-1.74,10.29,126.9,126.9,0,0,1-12.24,28.5c-.63,1.1-.63,1.4.25,2.11,5.46,4.38,7.33,10.32,6.86,17-.4,5.75-1.31,11.46-2.12,17.17-.7,4.93-1.64,9.82-2.34,14.75A67,67,0,0,1,76.38,143a2.4,2.4,0,0,0,0,1.43,12.38,12.38,0,0,1-2.51,11.31A21.45,21.45,0,0,1,59.1,163.8l-2.92.35H50.89a3.24,3.24,0,0,0-.66-.18c-1.23-.08-2.46-.1-3.69-.2a38.08,38.08,0,0,1-11.16-2.29c-3.6-1.44-6.51-3.69-7.78-7.5a41.51,41.51,0,0,1-1-5c-.19-.21-.43-.36-.51-.57-1.42-3.5-2.89-7-4.19-10.52a23.44,23.44,0,0,1-1.41-5.42c-.64-5.73-1.13-11.48-1.6-17.24S18,103.74,17.53,98c-.7-7.77,2.11-14.16,7.46-19.6,1-1,1-1.07.35-2.25-1.82-3.41-3.71-6.79-5.41-10.26A99.53,99.53,0,0,1,12,45.06C10.84,40,10,34.83,10.88,29.57c1.11-6.48,4.56-11,11-13,.69-.22,1.38-.42,2.08-.63h2.82a1.78,1.78,0,0,0,.4.16,9.69,9.69,0,0,1,6,3.49,24.58,24.58,0,0,1,4.14,7c2.76,7,3.88,14.28,4.73,21.65.44,3.84.56,7.71.93,11.56a14.09,14.09,0,0,0,1,2.95l.26-.06a9,9,0,0,0,.72-5.41l1.4,1.51a6.1,6.1,0,0,1,4-2.5c.61-.1.77-.35.76-.91q0-2.9,0-5.81a.94.94,0,0,0-.68-1,2.87,2.87,0,0,1-1.68-3.32,2.93,2.93,0,0,1,3-2.28,2.87,2.87,0,0,1,2.82,2.53,2.82,2.82,0,0,1-1.94,3.16.77.77,0,0,0-.61.89c0,2,0,3.93,0,5.9,0,.6.21.77.78.89a6.17,6.17,0,0,1,4.88,4.43c.06.21.16.4.26.64a6.88,6.88,0,0,1,1-.78,1.58,1.58,0,0,0,.94-1.49c.34-4.12.71-8.23,1.13-12.34a82.43,82.43,0,0,1,3.53-17C65.72,26,67.25,22.33,70,19.33a10,10,0,0,1,5.46-3.17l1.36-.27h1.41c.8.16,1.61.25,2.39.48,6.15,1.8,9.74,6,11.16,12.12C92,29.56,92.14,30.66,92.33,31.74Z"/><path class="cls-6" d="M24.2,15.72h2.06c.06.09.16.06.24.07a9.53,9.53,0,0,1,2.56.65,11.37,11.37,0,0,1,4.87,4.1,31.6,31.6,0,0,1,4.42,9.17,78.94,78.94,0,0,1,2.1,8.8q.87,4.54,1.4,9.14c.29,2.55.42,5.12.64,7.68a21.09,21.09,0,0,0-1.37,3.43,20.92,20.92,0,0,0-1,4.09,27.74,27.74,0,0,1-.95-9.36,32.14,32.14,0,0,0-1.48,3.81,8.69,8.69,0,0,1,0-1c0-2.08,0-4.15-.11-6.23a87.35,87.35,0,0,0-1.24-10.43,40.64,40.64,0,0,0-3.68-11.28,15.06,15.06,0,0,0-3.28-4.57,7.43,7.43,0,0,0-4.76-2.2,9.27,9.27,0,0,0-9.37,6.68,17,17,0,0,0-.67,8.06,62.25,62.25,0,0,0,2.21,10.22A79.41,79.41,0,0,0,27.38,68.32a29.92,29.92,0,0,0,5,5.8c1,.88,1.52.77,2.17-.39a18.82,18.82,0,0,0,1.75-4.48c.28-1.06.51-2.14.76-3.2a15.57,15.57,0,0,0,.77,2.65c.58,1.28,1,2.68,2.36,3.42a.25.25,0,0,1,.12.32,7.7,7.7,0,0,0,.1,3.74A24.08,24.08,0,0,0,41.58,80a17.48,17.48,0,0,0,1,2.28,8.35,8.35,0,0,1,.14-3.7,11,11,0,0,1,1.47-3.46,29.15,29.15,0,0,0,1.87,13.42,1.49,1.49,0,0,0,0-.2,51.67,51.67,0,0,1,.31-7,14.42,14.42,0,0,1,1-4.11,3.07,3.07,0,0,1,1.46-1.73c.21-.1.34-.09.45.15A25.59,25.59,0,0,1,51,80.81a8.38,8.38,0,0,1,.14,3.56c0,.07,0,.17,0,.2s.17-.08.23-.16a18,18,0,0,0,3.48-7.54,11,11,0,0,0,.14-2.14c0-.7-.2-1.37-.25-2.06h0A17.14,17.14,0,0,1,57,75a14,14,0,0,1,2.72,5.24A8.91,8.91,0,0,1,60,83.28c-.06.6-.23,1.19-.25,1.79l-.05.08,0,0,0-.1c.07-.11.14-.21.2-.32a30.81,30.81,0,0,0,2-5.2,16.89,16.89,0,0,0,.71-4.88c0-.19,0-.39,0-.64a2.61,2.61,0,0,1,.74.7,7.21,7.21,0,0,1,1.14,3.1c.14.74.25,1.49.37,2.23a5.66,5.66,0,0,0,.41-1,14.85,14.85,0,0,0,.74-6.3A6,6,0,0,0,65,70a.4.4,0,0,1,0-.53,6.11,6.11,0,0,0,.69-1.59,1.31,1.31,0,0,1,0,.14,21.32,21.32,0,0,0,2,5.62c.69,1.25,1.22,1.33,2.3.38a25.79,25.79,0,0,0,3.38-3.65,74.79,74.79,0,0,0,7.9-13.12,70.44,70.44,0,0,0,5.87-17.66,26.36,26.36,0,0,0,.56-8.45,12.69,12.69,0,0,0-2.48-6.24A9.1,9.1,0,0,0,80,21.79a7,7,0,0,0-6.14,1.27,11.79,11.79,0,0,0-2.74,2.87,31.54,31.54,0,0,0-3.64,7.82,50.62,50.62,0,0,0-1.9,8.5c-.31,2.15-.57,4.31-.71,6.49-.06,1-.14,2-.18,3-.06,1.66-.05,3.32,0,5,0,1.2.19,2.4.17,3.6-.24-.62-.47-1.25-.72-1.87-.16-.39-.32-.78-.49-1.18.05,1.08,0,2.15,0,3.21a8.28,8.28,0,0,1-.54,3,3,3,0,0,1-1.79,1.94c-.28.1-.43.08-.54-.24a4.92,4.92,0,0,1-.14-2.35A9.09,9.09,0,0,1,62,59.71c.05-.09.15-.17.11-.27s-.2-.07-.31-.07a6.46,6.46,0,0,0-2.23.53c.23-3,.46-6.05.75-9.08s.65-6.16,1.14-9.22a78.62,78.62,0,0,1,3.45-13.72,24.71,24.71,0,0,1,5-8.78,10,10,0,0,1,9.26-3.18,14.19,14.19,0,0,1,7.75,3.82c3.47,3.22,4.94,7.34,5.19,12v3.48a32.83,32.83,0,0,1-.26,3.33,57.44,57.44,0,0,1-2.16,9.95,134.23,134.23,0,0,1-9.86,23.18c-.59,1.13-1.24,2.23-1.9,3.33a1.14,1.14,0,0,0,.3,1.78l.24.19a17,17,0,0,1,2.82,2.81,18.51,18.51,0,0,1,3.43,7.48,22.73,22.73,0,0,1,.56,6.29c-.09,1.61-.29,3.2-.48,4.79-.22,1.8-.42,3.59-.66,5.39-.3,2.22-.64,4.43-.93,6.65-.38,2.84-.87,5.67-1.35,8.5s-.89,5.39-1.33,8.08c-.32,1.92-.55,3.86-1,5.76A66.61,66.61,0,0,1,76,143.39c-.13-.07-.13-.21-.17-.33-.21-.5-.38-1-.62-1.51a38.86,38.86,0,0,0-6.49-9.41,35.48,35.48,0,0,0-7.33-6,22.12,22.12,0,0,0-9.48-3.45,14.44,14.44,0,0,0-7,1,22.31,22.31,0,0,0-6.8,4.46,43.56,43.56,0,0,0-7,8.3,30.32,30.32,0,0,0-3.67,8c-.36,1.24-.54,2.51-.85,3.76l-.27.86-.14-.28c-1.17-2.67-2.31-5.36-3.35-8.08a48.63,48.63,0,0,1-2.27-6.94,58.07,58.07,0,0,1-.91-8.29q-.19-2.61-.36-5.23c-.1-1.47-.31-2.92-.48-4.38-.22-1.93-.3-3.86-.4-5.79-.12-2.25-.33-4.49-.53-6.74q-.28-3-.49-6.09a23.42,23.42,0,0,1,.4-6.57,25,25,0,0,1,5.25-10.52,20.8,20.8,0,0,1,2.22-2.34,1,1,0,0,0,.26-1.42l-.18-.33c-2.74-4.82-5.31-9.74-7.56-14.81A88.25,88.25,0,0,1,11.22,42a43.35,43.35,0,0,1-.88-7.41c0-.08,0-.18-.07-.23V33.29c.1,0,.08-.12.07-.19a19.77,19.77,0,0,1,.15-2.31,20.35,20.35,0,0,1,1.95-6.89c2.07-4.16,5.58-6.51,9.92-7.79C23,15.94,23.59,15.85,24.2,15.72Zm38.13,98.93c.34,0,.69,0,1,0s.68-.07,1-.13a20.12,20.12,0,0,0,11.63-6,7.43,7.43,0,0,0,2-7.78,15.18,15.18,0,0,0-6.79-8.68A7.16,7.16,0,0,0,65,91.4,10.34,10.34,0,0,0,60.79,94a20.54,20.54,0,0,0-5.52,10.2,12.08,12.08,0,0,0,1.13,8.28,3.67,3.67,0,0,0,3,2.16C60.41,114.79,61.37,114.62,62.33,114.65ZM41,114.75h.62a4.11,4.11,0,0,0,3.73-1.86A10.67,10.67,0,0,0,46.89,108a16.49,16.49,0,0,0-.77-5.72,16.6,16.6,0,0,0-8.21-10.49,6.35,6.35,0,0,0-4.61-.76,11.63,11.63,0,0,0-5.55,3.34,16.31,16.31,0,0,0-3.67,5.92,7.13,7.13,0,0,0,1.06,7.26,16.64,16.64,0,0,0,3.56,3.35A21.58,21.58,0,0,0,41,114.75Z"/><path class="cls-7" d="M76,143.39c.13.58.28,1.15.39,1.73a12.26,12.26,0,0,1-2.38,10,21.43,21.43,0,0,1-10.87,7.62,24.8,24.8,0,0,1-6.81,1.07c-.12,0-.26-.07-.35.07H50.7c-.05-.11-.15-.07-.23-.07a63.56,63.56,0,0,1-9-.84,28.23,28.23,0,0,1-7.37-2.18c-5-2.42-7.49-6.45-7.51-12,0-.19.1-.4-.06-.57.31-1.25.49-2.52.85-3.76a30.32,30.32,0,0,1,3.67-8,43.56,43.56,0,0,1,7-8.3,22.31,22.31,0,0,1,6.8-4.46,14.44,14.44,0,0,1,7-1,22.12,22.12,0,0,1,9.48,3.45,35.48,35.48,0,0,1,7.33,6,38.86,38.86,0,0,1,6.49,9.41c.24.49.41,1,.62,1.51C75.84,143.18,75.84,143.32,76,143.39Zm-7.83,7.38a.76.76,0,0,0-.32.2,37.16,37.16,0,0,1-7.13,4.4,20.18,20.18,0,0,1-12.15,1.37,37.19,37.19,0,0,1-9.83-3.55c-1.36-.68-2.67-1.46-4-2.19h0c0,.2.15.31.26.45a23.79,23.79,0,0,0,11.21,7.84A18,18,0,0,0,67,152.68a8.82,8.82,0,0,0,1.18-1.89l0,0,0,0Zm1.22-11.11a1.9,1.9,0,0,0-.42-1.43,8.57,8.57,0,0,0-2.11-2,4.36,4.36,0,0,0-5.58.45A4.73,4.73,0,0,0,60,139.9a12.9,12.9,0,0,1-2,6c-.62,1-1.29,2-2,3a.87.87,0,0,0,.32,1.42,1.41,1.41,0,0,0,1.32,0,35.9,35.9,0,0,0,8.64-5A7.4,7.4,0,0,0,69.35,139.66Zm-34.43.77a4,4,0,0,0,.63,2.24,12.63,12.63,0,0,0,3.78,3.79,48.91,48.91,0,0,0,6.27,3.48,7.74,7.74,0,0,0,1.32.46,1.29,1.29,0,0,0,1.22-.33.59.59,0,0,0,.19-.78,3,3,0,0,0-.64-.94c-.13-.13-.29-.26-.27-.44a.7.7,0,0,0-.26-.59c-.15-.17-.3-.35-.44-.53a12.43,12.43,0,0,1-2.51-7.15,4.25,4.25,0,0,0-4.94-4.18A5.28,5.28,0,0,0,34.92,140.43Z"/><path class="cls-8" d="M92.05,31.7h.07v3.5h-.07Z"/><path class="cls-9" d="M37.06,66c-.25,1.07-.48,2.14-.76,3.2a18.82,18.82,0,0,1-1.75,4.48c-.65,1.16-1.17,1.26-2.17.39a29.92,29.92,0,0,1-5-5.8A79.41,79.41,0,0,1,16.84,46.54a62.25,62.25,0,0,1-2.21-10.22,17,17,0,0,1,.67-8.06,9.27,9.27,0,0,1,9.37-6.68,7.43,7.43,0,0,1,4.76,2.2,15.06,15.06,0,0,1,3.28,4.57,40.64,40.64,0,0,1,3.68,11.28,87.35,87.35,0,0,1,1.24,10.43c.13,2.07.15,4.15.11,6.23a8.69,8.69,0,0,0,0,1c0,.12-.05.25-.09.37a21.28,21.28,0,0,0-.77,5.91C36.86,64.42,37,65.23,37.06,66Z"/><path class="cls-10" d="M64.84,60.36c0-1.2-.13-2.4-.17-3.6-.05-1.66-.06-3.32,0-5,0-1,.11-2,.18-3,.14-2.17.4-4.33.71-6.49a50.62,50.62,0,0,1,1.9-8.5,31.54,31.54,0,0,1,3.64-7.82,11.79,11.79,0,0,1,2.74-2.87A7,7,0,0,1,80,21.79a9.1,9.1,0,0,1,5.34,3.13,12.69,12.69,0,0,1,2.48,6.24,26.36,26.36,0,0,1-.56,8.45,70.44,70.44,0,0,1-5.87,17.66,74.79,74.79,0,0,1-7.9,13.12A25.79,25.79,0,0,1,70.08,74c-1.08,1-1.61.87-2.3-.38a21.32,21.32,0,0,1-2-5.62,1.31,1.31,0,0,0,0-.14,9.81,9.81,0,0,0,0-4.1A29.33,29.33,0,0,0,64.84,60.36Z"/><path class="cls-11" d="M64.84,60.36a29.33,29.33,0,0,1,.89,3.44,9.81,9.81,0,0,1,0,4.1A6.11,6.11,0,0,1,65,69.49.4.4,0,0,0,65,70a6,6,0,0,1,1,2.72,14.85,14.85,0,0,1-.74,6.3,5.66,5.66,0,0,1-.41,1c-.12-.74-.24-1.49-.37-2.23a7.21,7.21,0,0,0-1.14-3.1,2.61,2.61,0,0,0-.74-.7c0,.25,0,.44,0,.64a16.89,16.89,0,0,1-.71,4.88,30.81,30.81,0,0,1-2,5.2c-.05.11-.13.21-.2.32h0c0-.6.19-1.19.25-1.79a8.91,8.91,0,0,0-.29-3.06A14,14,0,0,0,57,75a17.15,17.15,0,0,0-2.19-2.3l0,0,0,0c0,.69.23,1.36.25,2.06a11,11,0,0,1-.14,2.14,18,18,0,0,1-3.48,7.54c-.06.08-.1.2-.23.16s-.06-.13,0-.2A8.38,8.38,0,0,0,51,80.81a25.59,25.59,0,0,0-1.72-5.17c-.1-.24-.24-.25-.45-.15a3.07,3.07,0,0,0-1.46,1.73,14.42,14.42,0,0,0-1,4.11,51.67,51.67,0,0,0-.31,7,1.49,1.49,0,0,1,0,.2A29.15,29.15,0,0,1,44.21,75.1a11,11,0,0,0-1.47,3.46,8.35,8.35,0,0,0-.14,3.7,17.48,17.48,0,0,1-1-2.28,24.08,24.08,0,0,1-1.17-3.8,7.7,7.7,0,0,1-.1-3.74.25.25,0,0,0-.12-.32c-1.37-.74-1.78-2.14-2.36-3.42A15.57,15.57,0,0,1,37.06,66c-.08-.82-.2-1.63-.22-2.45a21.28,21.28,0,0,1,.77-5.91c0-.12.06-.24.09-.37a32.14,32.14,0,0,1,1.48-3.81,27.74,27.74,0,0,0,.95,9.36,20.92,20.92,0,0,1,1-4.09,21.09,21.09,0,0,1,1.37-3.43l0,.3a.47.47,0,0,0-.07.13,8.09,8.09,0,0,0,0,2.64,3.57,3.57,0,0,0,.35,1.34,11.76,11.76,0,0,0,1.17,3c.67-1.88,1.31-3.66.73-5.6v0a12,12,0,0,1,1.43,1.53,24.61,24.61,0,0,1,1.62,2.47,17.37,17.37,0,0,1,1,2.41,21.75,21.75,0,0,1,2.1-6A18.3,18.3,0,0,0,52.79,64a6.61,6.61,0,0,0,.72-1.11,7.62,7.62,0,0,0,1-5.1,4.74,4.74,0,0,1-.23-1.07l.08,0a27,27,0,0,1,2.55,5.55,8.1,8.1,0,0,1,.72-1.05,6.12,6.12,0,0,1,1.92-1.38,6.46,6.46,0,0,1,2.23-.53c.1,0,.25-.06.31.07s-.06.18-.11.27a9.09,9.09,0,0,0-1.33,3.16,4.92,4.92,0,0,0,.14,2.35c.1.32.25.34.54.24a3,3,0,0,0,1.79-1.94,8.28,8.28,0,0,0,.54-3c0-1.06,0-2.12,0-3.21.16.39.33.78.49,1.18C64.36,59.11,64.6,59.74,64.84,60.36Z"/><path class="cls-12" d="M62.33,114.65c-1,0-1.92.15-2.89,0a3.67,3.67,0,0,1-3-2.16,12.08,12.08,0,0,1-1.13-8.28A20.54,20.54,0,0,1,60.79,94,10.34,10.34,0,0,1,65,91.4a7.16,7.16,0,0,1,6.14.68A15.18,15.18,0,0,1,78,100.76a7.43,7.43,0,0,1-2,7.78,20.12,20.12,0,0,1-11.63,6c-.34.05-.68.1-1,.13S62.67,114.65,62.33,114.65Zm1.31-.59a6.72,6.72,0,0,0,1.74-.13,6.58,6.58,0,0,0,4.73-4.21,5,5,0,0,0,.54-2.53A1.34,1.34,0,0,0,68.72,106a7,7,0,0,0-.67.34,4.34,4.34,0,0,1-.8.35,2.17,2.17,0,0,1-2.52-1,1.94,1.94,0,0,1,.08-2.54c.2-.26.46-.47.67-.72a1.41,1.41,0,0,0-.82-2.38,6.61,6.61,0,0,0-3.63.31A6.42,6.42,0,0,0,56.69,105a9,9,0,0,0,.46,5.32,5.51,5.51,0,0,0,3.64,3.39A9.19,9.19,0,0,0,63.64,114.06Z"/><path class="cls-12" d="M41,114.75a21.58,21.58,0,0,1-12.26-3.82,16.64,16.64,0,0,1-3.56-3.35,7.13,7.13,0,0,1-1.06-7.26,16.31,16.31,0,0,1,3.67-5.92,11.63,11.63,0,0,1,5.55-3.34,6.35,6.35,0,0,1,4.61.76,16.6,16.6,0,0,1,8.21,10.49,16.49,16.49,0,0,1,.77,5.72,10.67,10.67,0,0,1-1.57,4.86,4.11,4.11,0,0,1-3.73,1.86Zm-9.67-7.58c0,.22,0,.56.08.9a5.55,5.55,0,0,0,.15.74,6.62,6.62,0,0,0,4.66,5,10.77,10.77,0,0,0,2.29.23,5.88,5.88,0,0,0,3.86-.94,6.19,6.19,0,0,0,3-6c-.1-1.1-1-1.85-2.15-1a4,4,0,0,1-.64.4,2,2,0,0,1-2.27-.22,2.14,2.14,0,0,1-.15-3.58c.12-.11.24-.22.35-.34a1.27,1.27,0,0,0,.13-1.69,1.66,1.66,0,0,0-1.26-.74,7.77,7.77,0,0,0-2.15.06A7.06,7.06,0,0,0,31.29,107.18Z"/><path class="cls-11" d="M59.76,85.07l0,.1,0,0,.05-.08Z"/><path class="cls-11" d="M69.35,139.66a7.4,7.4,0,0,1-3,5.7,35.9,35.9,0,0,1-8.64,5,1.41,1.41,0,0,1-1.32,0,.87.87,0,0,1-.32-1.42c.7-1,1.37-1.95,2-3a12.9,12.9,0,0,0,2-6,4.73,4.73,0,0,1,1.23-3.22,4.36,4.36,0,0,1,5.58-.45,8.57,8.57,0,0,1,2.11,2A1.9,1.9,0,0,1,69.35,139.66Z"/><path class="cls-11" d="M34.92,140.43a5.28,5.28,0,0,1,4.37-5,4.25,4.25,0,0,1,4.94,4.18,12.43,12.43,0,0,0,2.51,7.15c.14.18.28.36.44.53a.7.7,0,0,1,.26.59c0,.18.14.31.27.44a3,3,0,0,1,.64.94.59.59,0,0,1-.19.78,1.29,1.29,0,0,1-1.22.33,7.74,7.74,0,0,1-1.32-.46,48.91,48.91,0,0,1-6.27-3.48,12.63,12.63,0,0,1-3.78-3.79A4,4,0,0,1,34.92,140.43Z"/><path class="cls-12" d="M34.71,151c1.33.73,2.64,1.51,4,2.19a37.19,37.19,0,0,0,9.83,3.55,20.18,20.18,0,0,0,12.15-1.37,37.16,37.16,0,0,0,7.13-4.4.76.76,0,0,1,.32-.2l0,0A8.87,8.87,0,0,1,67,152.68a18,18,0,0,1-20.79,6.6A23.79,23.79,0,0,1,35,151.44c-.11-.13-.26-.25-.26-.45Z"/><path class="cls-12" d="M68.14,150.77l0,0,0,0,0,0Z"/><path class="cls-12" d="M34.71,151h0Z"/><path class="cls-13" d="M54.28,56.77a4.74,4.74,0,0,0,.23,1.07,7.62,7.62,0,0,1-1,5.1A6.61,6.61,0,0,1,52.79,64a18.3,18.3,0,0,1-1.91-6.54,21.75,21.75,0,0,0-2.1,6,17.37,17.37,0,0,0-1-2.41,24.61,24.61,0,0,0-1.62-2.47A6.26,6.26,0,0,1,50.53,56l.3-.06a4.58,4.58,0,0,0,1,0,8,8,0,0,1,2.22.59A.49.49,0,0,1,54.28,56.77Z"/><path class="cls-14" d="M50.83,48.58a3,3,0,1,1,.94,0A4.38,4.38,0,0,1,50.83,48.58Z"/><path class="cls-11" d="M50.83,48.58a4.38,4.38,0,0,0,.94,0q0,3.21,0,6.42c0,.3,0,.61,0,.91a4.58,4.58,0,0,1-1,0Z"/><path class="cls-15" d="M57.62,61.28a8.1,8.1,0,0,0-.72,1.05,27,27,0,0,0-2.55-5.55,4.78,4.78,0,0,1,1.89,1.51,6.09,6.09,0,0,1,1.31,2.81A1.07,1.07,0,0,0,57.62,61.28Z"/><path class="cls-16" d="M42.77,59.75a3.57,3.57,0,0,1-.35-1.34,8.09,8.09,0,0,1,0-2.64.47.47,0,0,1,.07-.13C42.6,57,42.71,58.38,42.77,59.75Z"/><path class="cls-11" d="M44.67,57.1l-.05,0,0,0,0,.06Z"/><path class="cls-16" d="M54.81,72.68l0,0,0,0Z"/><path class="cls-11" d="M63.64,114.06a9.19,9.19,0,0,1-2.85-.37,5.51,5.51,0,0,1-3.64-3.39,9,9,0,0,1-.46-5.32A6.42,6.42,0,0,1,61,100.37a6.61,6.61,0,0,1,3.63-.31,1.41,1.41,0,0,1,.82,2.38c-.21.25-.47.47-.67.72a1.94,1.94,0,0,0-.08,2.54,2.17,2.17,0,0,0,2.52,1,4.34,4.34,0,0,0,.8-.35,7,7,0,0,1,.67-.34,1.34,1.34,0,0,1,1.94,1.18,5,5,0,0,1-.54,2.53,6.58,6.58,0,0,1-4.73,4.21A6.72,6.72,0,0,1,63.64,114.06Z"/><path class="cls-11" d="M31.29,107.18A7.06,7.06,0,0,1,37.22,100a7.77,7.77,0,0,1,2.15-.06,1.66,1.66,0,0,1,1.26.74,1.27,1.27,0,0,1-.13,1.69c-.11.12-.23.23-.35.34a2.14,2.14,0,0,0,.15,3.58,2,2,0,0,0,2.27.22,4,4,0,0,0,.64-.4c1.13-.87,2-.12,2.15,1a6.19,6.19,0,0,1-3,6,5.88,5.88,0,0,1-3.86.94,10.77,10.77,0,0,1-2.29-.23,6.62,6.62,0,0,1-4.66-5,5.55,5.55,0,0,1-.15-.74C31.33,107.73,31.31,107.39,31.29,107.18Z"/></svg>