<svg id="Layer_1" data-name="Layer 1" xmlns="http://www.w3.org/2000/svg" viewBox="0 0 255 328"><defs><style>.cls-1{fill:none;stroke:#fff;stroke-miterlimit:10;stroke-width:6px;}.cls-2{fill:#fff;}.cls-3{fill:#f3e7b0;}.cls-4{fill:#273274;}</style></defs><title>pr image</title><rect class="cls-1" x="6.5" y="53" width="242" height="270"/><path class="cls-2" d="M54.78,167.55a6.15,6.15,0,0,0-1.74-.28,3.2,3.2,0,0,0-1.76.42,1.31,1.31,0,0,0-.66,1.16,1.53,1.53,0,0,0,.4,1.09,2.8,2.8,0,0,0,1,.67q.58.24,1.6.57a18,18,0,0,1,2.07.76A3.59,3.59,0,0,1,57,173a3,3,0,0,1,.56,1.88,3.14,3.14,0,0,1-.58,1.89A3.75,3.75,0,0,1,55.36,178a6.23,6.23,0,0,1-2.42.44,7.05,7.05,0,0,1-2.7-.54A7.32,7.32,0,0,1,48,176.48l.77-1.49a6.51,6.51,0,0,0,2,1.36,5.58,5.58,0,0,0,2.19.48,3.49,3.49,0,0,0,2-.5,1.54,1.54,0,0,0,.73-1.34,1.56,1.56,0,0,0-.4-1.1,2.81,2.81,0,0,0-1-.68q-.6-.25-1.63-.56a16.58,16.58,0,0,1-2.05-.74,3.53,3.53,0,0,1-1.34-1.06,2.92,2.92,0,0,1-.55-1.85,3,3,0,0,1,.56-1.78A3.52,3.52,0,0,1,50.83,166a6.14,6.14,0,0,1,2.34-.41,7.57,7.57,0,0,1,2.22.33,7.47,7.47,0,0,1,1.94.89l-.72,1.55A7.24,7.24,0,0,0,54.78,167.55Z"/><path class="cls-2" d="M68.6,168.83v9.52H66.91v-2a3.58,3.58,0,0,1-3.53,2.07,3.41,3.41,0,0,1-2.59-1,3.77,3.77,0,0,1-.94-2.71v-5.89h1.69v5.44a2.58,2.58,0,0,0,.66,1.88,2.41,2.41,0,0,0,1.81.67,2.67,2.67,0,0,0,2.11-.94,3.54,3.54,0,0,0,.78-2.37v-4.68Z"/><path class="cls-2" d="M79.52,169.39a4.2,4.2,0,0,1,1.62,1.71,5.78,5.78,0,0,1,0,5,4.11,4.11,0,0,1-1.6,1.69,4.61,4.61,0,0,1-2.37.6,4.34,4.34,0,0,1-2.12-.5,3.61,3.61,0,0,1-1.44-1.44v1.89H71.94V165h1.67v5.72A3.63,3.63,0,0,1,75,169.28a4.25,4.25,0,0,1,2.1-.5A4.61,4.61,0,0,1,79.52,169.39Zm-1.05,7.13a3,3,0,0,0,1.13-1.21,3.71,3.71,0,0,0,.4-1.75,3.6,3.6,0,0,0-.41-1.73,3.05,3.05,0,0,0-1.13-1.21,3.12,3.12,0,0,0-1.64-.43,3.17,3.17,0,0,0-1.65.43A3,3,0,0,0,74,171.84a3.87,3.87,0,0,0,0,3.48,3,3,0,0,0,1.14,1.2,3.36,3.36,0,0,0,3.29,0Z"/><path class="cls-2" d="M98.93,169.77a3.77,3.77,0,0,1,.94,2.7v5.89H98.17v-5.44a2.62,2.62,0,0,0-.66-1.89,2.39,2.39,0,0,0-1.81-.68,2.73,2.73,0,0,0-2.12,1,3.53,3.53,0,0,0-.77,2.36v4.7H91.11v-5.44a2.64,2.64,0,0,0-.65-1.89,2.38,2.38,0,0,0-1.82-.68,2.76,2.76,0,0,0-2.13,1,3.5,3.5,0,0,0-.78,2.36v4.7H84.06v-9.52h1.67v2a3.6,3.6,0,0,1,3.55-2.05,3.64,3.64,0,0,1,2.19.63,3.09,3.09,0,0,1,1.18,1.76,3.61,3.61,0,0,1,3.71-2.39A3.37,3.37,0,0,1,98.93,169.77Z"/><path class="cls-2" d="M104.43,165.34a1.16,1.16,0,0,1,0,1.55,1.07,1.07,0,0,1-1.49,0,1.16,1.16,0,0,1,0-1.55,1.06,1.06,0,0,1,1.49,0Zm-1.57,3.49h1.67v9.52h-1.67Z"/><path class="cls-2" d="M112.89,177.73a4.1,4.1,0,0,1-2.23.7,2.54,2.54,0,0,1-1.84-.67,2.71,2.71,0,0,1-.7-2v-5.27h-1.35v-1.28h1.35V166.6h1.69v2.56h2.92v1.28h-2.92v5a1.76,1.76,0,0,0,.29,1.13,1.06,1.06,0,0,0,.86.34,3,3,0,0,0,1.48-.45Z"/><path class="cls-2" d="M128.46,166.9a4.06,4.06,0,0,1,1.31,3.23,4.4,4.4,0,0,1-1.32,3.41,5.29,5.29,0,0,1-3.72,1.22h-2.5v3.6h-2.84v-12.6h5.35A5.5,5.5,0,0,1,128.46,166.9Zm-2,4.93a2,2,0,0,0,.64-1.61,1.93,1.93,0,0,0-.64-1.58,2.82,2.82,0,0,0-1.85-.53h-2.36v4.27h2.36A2.75,2.75,0,0,0,126.44,171.83Z"/><path class="cls-2" d="M139.34,178.36l-2-3.6h-2.9v3.6H131.6v-12.6h5.47a5.74,5.74,0,0,1,3.82,1.14,4,4,0,0,1,1.35,3.23,4.86,4.86,0,0,1-.6,2.49,3.86,3.86,0,0,1-1.75,1.58l2.68,4.16Zm-4.9-6h2.63a2.72,2.72,0,0,0,1.83-.55,2,2,0,0,0,.64-1.61,1.93,1.93,0,0,0-.64-1.58,2.79,2.79,0,0,0-1.83-.53h-2.63Z"/><path class="cls-2" d="M149.11,170.82a4.69,4.69,0,0,0-1.39-.24,1.59,1.59,0,0,0-.81.18.59.59,0,0,0-.31.54.67.67,0,0,0,.41.61,7.87,7.87,0,0,0,1.35.49,14.39,14.39,0,0,1,1.69.6,3.16,3.16,0,0,1,1.15.88,2.33,2.33,0,0,1,.49,1.54,2.61,2.61,0,0,1-1.11,2.24,4.72,4.72,0,0,1-2.84.8,7.45,7.45,0,0,1-2.29-.35,5.86,5.86,0,0,1-1.91-1l.9-1.87a5.65,5.65,0,0,0,1.65.89,5.25,5.25,0,0,0,1.72.31,1.8,1.8,0,0,0,.89-.19.61.61,0,0,0,.33-.57.72.72,0,0,0-.42-.65,7.06,7.06,0,0,0-1.36-.5,13.73,13.73,0,0,1-1.65-.58,3,3,0,0,1-1.12-.87,2.36,2.36,0,0,1-.47-1.52,2.61,2.61,0,0,1,1.08-2.23,4.5,4.5,0,0,1,2.74-.79,7.29,7.29,0,0,1,2,.28,6.65,6.65,0,0,1,1.8.8l-1,1.89A8.08,8.08,0,0,0,149.11,170.82Z"/><path class="cls-2" d="M163.69,177.73a4.1,4.1,0,0,1-2.23.7,2.54,2.54,0,0,1-1.84-.67,2.72,2.72,0,0,1-.7-2v-5.27h-1.35v-1.28h1.35V166.6h1.69v2.56h2.92v1.28h-2.92v5a1.76,1.76,0,0,0,.29,1.13,1.06,1.06,0,0,0,.86.34,3,3,0,0,0,1.48-.45Z"/><path class="cls-2" d="M172.09,169.39a4.4,4.4,0,0,1,1.73,1.7,4.94,4.94,0,0,1,.62,2.49,5,5,0,0,1-.62,2.5,4.39,4.39,0,0,1-1.73,1.71,5.57,5.57,0,0,1-5.08,0,4.41,4.41,0,0,1-1.73-1.7,5.35,5.35,0,0,1,0-5,4.4,4.4,0,0,1,1.73-1.7,5.57,5.57,0,0,1,5.08,0Zm-4.19,1.28a3,3,0,0,0-1.13,1.2,3.65,3.65,0,0,0-.41,1.74,3.74,3.74,0,0,0,.41,1.76,2.91,2.91,0,0,0,1.13,1.2,3.26,3.26,0,0,0,1.67.42,3.22,3.22,0,0,0,1.65-.42,2.91,2.91,0,0,0,1.13-1.2,3.74,3.74,0,0,0,.41-1.76,3.65,3.65,0,0,0-.41-1.74,3,3,0,0,0-1.13-1.2,3.17,3.17,0,0,0-1.65-.43A3.2,3.2,0,0,0,167.89,170.67Z"/><path class="cls-2" d="M186.6,177.73a4.11,4.11,0,0,1-2.23.7,2.54,2.54,0,0,1-1.84-.67,2.72,2.72,0,0,1-.7-2v-5.27h-1.35v-1.28h1.35V166.6h1.69v2.56h2.92v1.28h-2.92v5a1.76,1.76,0,0,0,.29,1.13,1.06,1.06,0,0,0,.86.34,3,3,0,0,0,1.48-.45Z"/><path class="cls-2" d="M196.67,169.76a3.73,3.73,0,0,1,1,2.71v5.89h-1.67v-5.44a2.34,2.34,0,0,0-2.54-2.56,2.84,2.84,0,0,0-2.2.94,3.46,3.46,0,0,0-.81,2.38v4.68h-1.67V165h1.67v5.89a3.68,3.68,0,0,1,3.64-2.11A3.5,3.5,0,0,1,196.67,169.76Z"/><path class="cls-2" d="M207.77,170.08a5.35,5.35,0,0,1,1.13,3.63c0,.24,0,.42,0,.54h-7.52a3.24,3.24,0,0,0,1.07,2,3.17,3.17,0,0,0,2.15.76,4,4,0,0,0,1.57-.31,3.79,3.79,0,0,0,1.27-.86l.92,1a4.82,4.82,0,0,1-1.69,1.17,5.63,5.63,0,0,1-2.2.41,5.05,5.05,0,0,1-2.49-.6,4.23,4.23,0,0,1-1.69-1.7,5.48,5.48,0,0,1,0-5A4.39,4.39,0,0,1,202,169.4a4.86,4.86,0,0,1,2.47-.62A4.2,4.2,0,0,1,207.77,170.08Zm-.38,2.87a2.76,2.76,0,0,0-3-2.79,3,3,0,0,0-2.1.76,3.17,3.17,0,0,0-1,2Z"/><path class="cls-2" d="M39.34,187.36h1.73V193h7.2v-5.62H50V200H48.27v-5.42h-7.2V200H39.34Z"/><path class="cls-2" d="M59.26,200v-1.33a3.91,3.91,0,0,1-3.33,1.4,3.8,3.8,0,0,1-1.74-.38,2.79,2.79,0,0,1-1.15-1,2.82,2.82,0,0,1-.4-1.49,2.44,2.44,0,0,1,.94-2,4.23,4.23,0,0,1,2.64-.76h3v-.45a2,2,0,0,0-.62-1.56,2.65,2.65,0,0,0-1.81-.55,5.19,5.19,0,0,0-2.93,1l-.7-1.15a8.73,8.73,0,0,1,1.9-1,6.5,6.5,0,0,1,2.08-.3,4,4,0,0,1,2.75.87,3.16,3.16,0,0,1,1,2.44l0,6.26Zm-1-1.88a2.24,2.24,0,0,0,1-1.5v-1H56.46a3.26,3.26,0,0,0-1.68.34,1.18,1.18,0,0,0-.55,1.08,1.4,1.4,0,0,0,.56,1.17,2.37,2.37,0,0,0,1.49.43A3.41,3.41,0,0,0,58.27,198.08Z"/><path class="cls-2" d="M67.87,191.87a3.31,3.31,0,0,0-1.67.41,2.94,2.94,0,0,0-1.14,1.17,3.57,3.57,0,0,0-.41,1.75,3.65,3.65,0,0,0,.4,1.75,3,3,0,0,0,1.12,1.18,3.12,3.12,0,0,0,1.63.42,4.29,4.29,0,0,0,1.66-.31,3.15,3.15,0,0,0,1.22-.88l1,1A4.21,4.21,0,0,1,70,199.58a5.64,5.64,0,0,1-2.26.43,4.92,4.92,0,0,1-2.47-.61,4.33,4.33,0,0,1-1.68-1.7,5.47,5.47,0,0,1,0-5A4.32,4.32,0,0,1,65.26,191a4.91,4.91,0,0,1,2.47-.61,6,6,0,0,1,2.17.37,4.2,4.2,0,0,1,1.61,1.07L70.59,193A3.77,3.77,0,0,0,67.87,191.87Z"/><path class="cls-2" d="M80.68,200l-3-4.63-1.85,1.93V200H74.11V186.6h1.67v8.51l4.61-4.68h2l-3.55,3.69L82.7,200Z"/><path class="cls-2" d="M89.61,199.33a4.1,4.1,0,0,1-2.23.7,2.54,2.54,0,0,1-1.84-.67,2.71,2.71,0,0,1-.7-2V192H83.49v-1.28h1.35V188.2h1.69v2.56h2.92V192H86.53v5a1.76,1.76,0,0,0,.29,1.13,1.06,1.06,0,0,0,.86.34,3,3,0,0,0,1.48-.45Z"/><path class="cls-2" d="M98,191a4.4,4.4,0,0,1,1.73,1.7,4.94,4.94,0,0,1,.62,2.49,5,5,0,0,1-.62,2.5A4.39,4.39,0,0,1,98,199.4a5.57,5.57,0,0,1-5.08,0,4.4,4.4,0,0,1-1.73-1.7,5.35,5.35,0,0,1,0-5,4.4,4.4,0,0,1,1.73-1.7A5.57,5.57,0,0,1,98,191Zm-4.19,1.28a3,3,0,0,0-1.13,1.2,3.66,3.66,0,0,0-.4,1.74,3.74,3.74,0,0,0,.4,1.76,2.91,2.91,0,0,0,1.13,1.2,3.25,3.25,0,0,0,1.67.42,3.22,3.22,0,0,0,1.65-.42,2.91,2.91,0,0,0,1.13-1.2,3.75,3.75,0,0,0,.41-1.76,3.66,3.66,0,0,0-.41-1.74,3,3,0,0,0-1.13-1.2,3.17,3.17,0,0,0-1.65-.43A3.2,3.2,0,0,0,93.81,192.27Z"/><path class="cls-2" d="M110.37,191A4.2,4.2,0,0,1,112,192.7a5.78,5.78,0,0,1,0,5,4.11,4.11,0,0,1-1.6,1.69,4.61,4.61,0,0,1-2.37.6,4.34,4.34,0,0,1-2.12-.5,3.61,3.61,0,0,1-1.44-1.44V200h-1.67V186.6h1.67v5.72a3.63,3.63,0,0,1,1.43-1.44,4.25,4.25,0,0,1,2.1-.5A4.61,4.61,0,0,1,110.37,191Zm-1.05,7.13a3,3,0,0,0,1.13-1.21,3.71,3.71,0,0,0,.4-1.75,3.6,3.6,0,0,0-.41-1.73,3.05,3.05,0,0,0-1.13-1.21,3.12,3.12,0,0,0-1.64-.43,3.17,3.17,0,0,0-1.65.43,3,3,0,0,0-1.14,1.21,3.87,3.87,0,0,0,0,3.48,3,3,0,0,0,1.14,1.2,3.36,3.36,0,0,0,3.29,0Z"/><path class="cls-2" d="M122.06,191.68a5.35,5.35,0,0,1,1.13,3.63c0,.24,0,.42,0,.54h-7.52a3.24,3.24,0,0,0,1.07,2,3.17,3.17,0,0,0,2.15.76,4,4,0,0,0,1.57-.31,3.79,3.79,0,0,0,1.27-.86l.92,1a4.8,4.8,0,0,1-1.69,1.17,5.63,5.63,0,0,1-2.2.41,5.06,5.06,0,0,1-2.49-.6,4.23,4.23,0,0,1-1.69-1.7,5.47,5.47,0,0,1,0-5,4.39,4.39,0,0,1,1.68-1.71,4.86,4.86,0,0,1,2.47-.62A4.2,4.2,0,0,1,122.06,191.68Zm-.38,2.87a2.76,2.76,0,0,0-3-2.79,3,3,0,0,0-2.1.76,3.17,3.17,0,0,0-1,2Z"/><path class="cls-2" d="M128.49,190.93a4,4,0,0,1,2.05-.55V192a3.06,3.06,0,0,0-3.38,2.93v5h-1.67v-9.52h1.67v2.05A3.45,3.45,0,0,1,128.49,190.93Z"/><path class="cls-2" d="M134.79,188.38a1.46,1.46,0,0,0-.43,1.13v1.24H137V192h-2.63V200h-1.67V192h-1.24v-1.28h1.24v-1a3.37,3.37,0,0,1,.44-1.77,2.87,2.87,0,0,1,1.16-1.1,3.35,3.35,0,0,1,1.55-.37,3.7,3.7,0,0,1,1.66.43l-.4,1.37a2.88,2.88,0,0,0-1.22-.31A1.54,1.54,0,0,0,134.79,188.38Z"/><path class="cls-2" d="M145.5,191.68a5.35,5.35,0,0,1,1.13,3.63c0,.24,0,.42,0,.54h-7.52a3.24,3.24,0,0,0,1.07,2,3.17,3.17,0,0,0,2.15.76,4,4,0,0,0,1.58-.31,3.79,3.79,0,0,0,1.27-.86l.92,1a4.8,4.8,0,0,1-1.69,1.17,5.63,5.63,0,0,1-2.2.41,5.06,5.06,0,0,1-2.49-.6,4.24,4.24,0,0,1-1.69-1.7,5.48,5.48,0,0,1,0-5,4.39,4.39,0,0,1,1.68-1.71,4.85,4.85,0,0,1,2.47-.62A4.2,4.2,0,0,1,145.5,191.68Zm-.38,2.87a2.76,2.76,0,0,0-3-2.79,3,3,0,0,0-2.1.76,3.17,3.17,0,0,0-1,2Z"/><path class="cls-2" d="M152.82,192a4.7,4.7,0,0,0-1.36-.22,2.32,2.32,0,0,0-1.21.28.93.93,0,0,0-.46.85,1,1,0,0,0,.51.87,7.43,7.43,0,0,0,1.56.6,12.13,12.13,0,0,1,1.62.58,2.89,2.89,0,0,1,1.07.85,2.62,2.62,0,0,1-.58,3.53,4.34,4.34,0,0,1-2.53.7,6.3,6.3,0,0,1-2.06-.34,4.68,4.68,0,0,1-1.68-1l.63-1.22a4.44,4.44,0,0,0,1.47.86,4.87,4.87,0,0,0,1.7.32,2.55,2.55,0,0,0,1.33-.31,1,1,0,0,0,.5-.94,1.06,1.06,0,0,0-.53-1,7.24,7.24,0,0,0-1.61-.65,10.63,10.63,0,0,1-1.56-.55,2.76,2.76,0,0,1-1-.82,2.21,2.21,0,0,1-.42-1.4,2.26,2.26,0,0,1,1-2,4.2,4.2,0,0,1,2.43-.67,6.07,6.07,0,0,1,1.7.24,5.11,5.11,0,0,1,1.45.66l-.61,1.28A5.73,5.73,0,0,0,152.82,192Z"/><path class="cls-2" d="M162.31,199.33a4.1,4.1,0,0,1-2.23.7,2.54,2.54,0,0,1-1.84-.67,2.72,2.72,0,0,1-.7-2V192h-1.35v-1.28h1.35V188.2h1.69v2.56h2.92V192h-2.92v5a1.76,1.76,0,0,0,.29,1.13,1.06,1.06,0,0,0,.86.34,3,3,0,0,0,1.48-.45Z"/><path class="cls-2" d="M170.64,186.94a1.16,1.16,0,0,1,0,1.55,1.06,1.06,0,0,1-1.49,0,1.15,1.15,0,0,1,0-1.55,1.06,1.06,0,0,1,1.49,0Zm-1.58,3.49h1.67V200h-1.67Z"/><path class="cls-2" d="M177.89,192a4.69,4.69,0,0,0-1.36-.22,2.31,2.31,0,0,0-1.21.28.93.93,0,0,0-.46.85,1,1,0,0,0,.51.87,7.45,7.45,0,0,0,1.56.6,12.17,12.17,0,0,1,1.62.58,2.87,2.87,0,0,1,1.07.85,2.31,2.31,0,0,1,.44,1.48,2.34,2.34,0,0,1-1,2.05,4.34,4.34,0,0,1-2.53.7,6.31,6.31,0,0,1-2.06-.34,4.68,4.68,0,0,1-1.68-1l.63-1.22a4.45,4.45,0,0,0,1.47.86,4.88,4.88,0,0,0,1.7.32,2.55,2.55,0,0,0,1.33-.31,1,1,0,0,0,.5-.94,1.07,1.07,0,0,0-.53-1,7.2,7.2,0,0,0-1.61-.65,10.76,10.76,0,0,1-1.56-.55,2.75,2.75,0,0,1-1-.82,2.21,2.21,0,0,1-.42-1.4,2.26,2.26,0,0,1,1-2,4.2,4.2,0,0,1,2.43-.67,6.07,6.07,0,0,1,1.7.24,5.1,5.1,0,0,1,1.45.66l-.61,1.28A5.71,5.71,0,0,0,177.89,192Z"/><path class="cls-2" d="M186.17,192a4.7,4.7,0,0,0-1.36-.22,2.31,2.31,0,0,0-1.21.28.93.93,0,0,0-.46.85,1,1,0,0,0,.51.87,7.43,7.43,0,0,0,1.56.6,12.15,12.15,0,0,1,1.62.58,2.88,2.88,0,0,1,1.07.85,2.62,2.62,0,0,1-.58,3.53,4.34,4.34,0,0,1-2.53.7,6.3,6.3,0,0,1-2.06-.34,4.67,4.67,0,0,1-1.68-1l.63-1.22a4.45,4.45,0,0,0,1.47.86,4.87,4.87,0,0,0,1.7.32,2.54,2.54,0,0,0,1.33-.31,1,1,0,0,0,.5-.94,1.06,1.06,0,0,0-.53-1,7.24,7.24,0,0,0-1.61-.65,10.67,10.67,0,0,1-1.56-.55,2.76,2.76,0,0,1-1-.82,2.21,2.21,0,0,1-.42-1.4,2.26,2.26,0,0,1,1-2,4.2,4.2,0,0,1,2.43-.67,6.07,6.07,0,0,1,1.7.24,5.1,5.1,0,0,1,1.45.66l-.61,1.28A5.75,5.75,0,0,0,186.17,192Z"/><path class="cls-2" d="M199,190.43V200h-1.69v-2a3.58,3.58,0,0,1-3.53,2.07,3.41,3.41,0,0,1-2.59-1,3.77,3.77,0,0,1-.94-2.71v-5.89h1.69v5.44a2.58,2.58,0,0,0,.66,1.88,2.41,2.41,0,0,0,1.81.67,2.67,2.67,0,0,0,2.11-.94,3.54,3.54,0,0,0,.78-2.37v-4.68Z"/><path class="cls-2" d="M209.4,191.68a5.35,5.35,0,0,1,1.13,3.63c0,.24,0,.42,0,.54H203a3.24,3.24,0,0,0,1.07,2,3.17,3.17,0,0,0,2.15.76,4,4,0,0,0,1.58-.31,3.79,3.79,0,0,0,1.27-.86l.92,1a4.8,4.8,0,0,1-1.69,1.17,5.63,5.63,0,0,1-2.2.41,5.06,5.06,0,0,1-2.49-.6,4.24,4.24,0,0,1-1.69-1.7,5.48,5.48,0,0,1,0-5,4.39,4.39,0,0,1,1.68-1.71,4.85,4.85,0,0,1,2.47-.62A4.2,4.2,0,0,1,209.4,191.68Zm-.38,2.87a2.76,2.76,0,0,0-3-2.79,3,3,0,0,0-2.1.76,3.17,3.17,0,0,0-1,2Z"/><path class="cls-2" d="M216.72,192a4.7,4.7,0,0,0-1.36-.22,2.32,2.32,0,0,0-1.21.28.93.93,0,0,0-.46.85,1,1,0,0,0,.51.87,7.43,7.43,0,0,0,1.56.6,12.13,12.13,0,0,1,1.62.58,2.89,2.89,0,0,1,1.07.85,2.62,2.62,0,0,1-.58,3.53,4.34,4.34,0,0,1-2.53.7,6.3,6.3,0,0,1-2.06-.34,4.68,4.68,0,0,1-1.68-1l.63-1.22a4.44,4.44,0,0,0,1.47.86,4.87,4.87,0,0,0,1.7.32,2.55,2.55,0,0,0,1.33-.31,1,1,0,0,0,.5-.94,1.06,1.06,0,0,0-.53-1,7.24,7.24,0,0,0-1.61-.65,10.63,10.63,0,0,1-1.56-.55,2.76,2.76,0,0,1-1-.82,2.21,2.21,0,0,1-.42-1.4,2.26,2.26,0,0,1,1-2,4.2,4.2,0,0,1,2.43-.67,6.07,6.07,0,0,1,1.7.24,5.11,5.11,0,0,1,1.45.66l-.61,1.28A5.73,5.73,0,0,0,216.72,192Z"/><path class="cls-2" d="M80.29,212.59a4.4,4.4,0,0,1,1.73,1.7,4.94,4.94,0,0,1,.62,2.49,5,5,0,0,1-.62,2.5A4.39,4.39,0,0,1,80.29,221a5.57,5.57,0,0,1-5.08,0,4.4,4.4,0,0,1-1.73-1.7,5.35,5.35,0,0,1,0-5,4.4,4.4,0,0,1,1.73-1.7,5.57,5.57,0,0,1,5.08,0Zm-4.19,1.28a3,3,0,0,0-1.13,1.2,3.66,3.66,0,0,0-.4,1.74,3.74,3.74,0,0,0,.4,1.76,2.91,2.91,0,0,0,1.13,1.2,3.25,3.25,0,0,0,1.67.42,3.22,3.22,0,0,0,1.65-.42,2.91,2.91,0,0,0,1.13-1.2,3.75,3.75,0,0,0,.41-1.76,3.66,3.66,0,0,0-.41-1.74,3,3,0,0,0-1.13-1.2,3.17,3.17,0,0,0-1.65-.43A3.2,3.2,0,0,0,76.09,213.87Z"/><path class="cls-2" d="M92.9,213a3.72,3.72,0,0,1,1,2.71v5.89H92.18v-5.44a2.34,2.34,0,0,0-2.54-2.56,2.87,2.87,0,0,0-2.08.82,3.21,3.21,0,0,0-.91,2.08v5.09H85V212h1.67v2A3.68,3.68,0,0,1,90.27,212,3.5,3.5,0,0,1,92.9,213Z"/><path class="cls-2" d="M110.56,209.69A6.36,6.36,0,0,1,113,212a6.15,6.15,0,0,1,.88,3.23,6.24,6.24,0,0,1-.88,3.25,6.38,6.38,0,0,1-2.4,2.34,7,7,0,0,1-6.68,0,6.38,6.38,0,0,1-2.4-2.34,6.24,6.24,0,0,1-.88-3.25,6.15,6.15,0,0,1,.88-3.23,6.38,6.38,0,0,1,2.39-2.31,7,7,0,0,1,6.69,0ZM104.8,211A4.91,4.91,0,0,0,103,212.8a4.64,4.64,0,0,0-.67,2.44,4.69,4.69,0,0,0,.67,2.45,5,5,0,0,0,1.79,1.77,4.75,4.75,0,0,0,2.44.66,4.66,4.66,0,0,0,2.42-.66,5,5,0,0,0,1.76-1.77,4.74,4.74,0,0,0,.66-2.45,4.69,4.69,0,0,0-.66-2.44,4.9,4.9,0,0,0-1.76-1.75,4.7,4.7,0,0,0-2.42-.65A4.79,4.79,0,0,0,104.8,211Z"/><path class="cls-2" d="M123.84,212.59a4.2,4.2,0,0,1,1.62,1.71,5.78,5.78,0,0,1,0,5,4.11,4.11,0,0,1-1.6,1.69,4.61,4.61,0,0,1-2.37.6,4.34,4.34,0,0,1-2.12-.5,3.61,3.61,0,0,1-1.44-1.44V225h-1.67V212h1.67v1.89a3.63,3.63,0,0,1,1.43-1.44,4.25,4.25,0,0,1,2.1-.5A4.61,4.61,0,0,1,123.84,212.59Zm-1.05,7.13a3,3,0,0,0,1.13-1.21,3.71,3.71,0,0,0,.4-1.75,3.6,3.6,0,0,0-.41-1.73,3.05,3.05,0,0,0-1.13-1.21,3.12,3.12,0,0,0-1.64-.43,3.17,3.17,0,0,0-1.65.43,3,3,0,0,0-1.14,1.21,3.87,3.87,0,0,0,0,3.48,3,3,0,0,0,1.14,1.2,3.36,3.36,0,0,0,3.29,0Z"/><path class="cls-2" d="M135.54,213.28a5.35,5.35,0,0,1,1.13,3.63c0,.24,0,.42,0,.54h-7.52a3.24,3.24,0,0,0,1.07,2,3.17,3.17,0,0,0,2.15.76,4,4,0,0,0,1.58-.31,3.78,3.78,0,0,0,1.27-.86l.92,1a4.79,4.79,0,0,1-1.69,1.17,5.63,5.63,0,0,1-2.2.41,5.06,5.06,0,0,1-2.49-.6,4.24,4.24,0,0,1-1.69-1.7,5.47,5.47,0,0,1,0-5,4.39,4.39,0,0,1,1.68-1.71,4.86,4.86,0,0,1,2.47-.62A4.2,4.2,0,0,1,135.54,213.28Zm-.38,2.87a2.76,2.76,0,0,0-3-2.79,3,3,0,0,0-2.1.76,3.17,3.17,0,0,0-1,2Z"/><path class="cls-2" d="M146.88,213a3.72,3.72,0,0,1,1,2.71v5.89h-1.67v-5.44a2.34,2.34,0,0,0-2.54-2.56,2.87,2.87,0,0,0-2.08.82,3.21,3.21,0,0,0-.91,2.08v5.09H139V212h1.67v2a3.68,3.68,0,0,1,3.62-2.07A3.5,3.5,0,0,1,146.88,213Z"/><path class="cls-2" d="M151,209h8.75v1.57h-7v3.89H159V216h-6.28v4h7.24v1.57h-9Z"/><path class="cls-2" d="M171.15,209.79a2.74,2.74,0,0,1,1.11,2.31,2.79,2.79,0,0,1-.61,1.83,3,3,0,0,1-1.67,1A3.28,3.28,0,0,1,172,216a3.13,3.13,0,0,1,.75,2.13,3,3,0,0,1-1.21,2.53,5.5,5.5,0,0,1-3.36.91h-5.47V209h5.38A4.92,4.92,0,0,1,171.15,209.79Zm-1.31,4a1.68,1.68,0,0,0,.64-1.41,1.64,1.64,0,0,0-.64-1.39,2.86,2.86,0,0,0-1.81-.47h-3.56v3.76H168A2.89,2.89,0,0,0,169.84,213.81Zm.39,5.63a1.76,1.76,0,0,0,.79-1.54,1.71,1.71,0,0,0-.79-1.49,3.87,3.87,0,0,0-2.2-.54h-3.56V220H168A3.73,3.73,0,0,0,170.22,219.44Z"/><path class="cls-2" d="M181.09,210.75a6.15,6.15,0,0,0-1.74-.28,3.21,3.21,0,0,0-1.76.42,1.32,1.32,0,0,0-.66,1.16,1.53,1.53,0,0,0,.4,1.09,2.8,2.8,0,0,0,1,.67q.58.24,1.6.57a18,18,0,0,1,2.07.76,3.6,3.6,0,0,1,1.35,1.07,3,3,0,0,1,.56,1.88,3.14,3.14,0,0,1-.58,1.89,3.75,3.75,0,0,1-1.64,1.25,6.22,6.22,0,0,1-2.42.44,7.06,7.06,0,0,1-2.7-.54,7.33,7.33,0,0,1-2.27-1.44l.77-1.49a6.52,6.52,0,0,0,2,1.36,5.58,5.58,0,0,0,2.19.48,3.48,3.48,0,0,0,2-.5,1.54,1.54,0,0,0,.73-1.34,1.56,1.56,0,0,0-.4-1.1,2.81,2.81,0,0,0-1-.68q-.6-.25-1.63-.56a16.62,16.62,0,0,1-2.05-.74,3.53,3.53,0,0,1-1.34-1.06,2.92,2.92,0,0,1-.55-1.85,3,3,0,0,1,.56-1.78,3.52,3.52,0,0,1,1.57-1.19,6.14,6.14,0,0,1,2.34-.41,7.57,7.57,0,0,1,2.22.33,7.46,7.46,0,0,1,1.93.89l-.72,1.55A7.24,7.24,0,0,0,181.09,210.75Z"/><path class="cls-2" d="M79.08,243.16v-1.33a3.91,3.91,0,0,1-3.33,1.4,3.8,3.8,0,0,1-1.74-.38,2.79,2.79,0,0,1-1.15-1,2.82,2.82,0,0,1-.4-1.49,2.44,2.44,0,0,1,.94-2,4.23,4.23,0,0,1,2.64-.76h3v-.45a2,2,0,0,0-.62-1.56,2.65,2.65,0,0,0-1.81-.55,5.19,5.19,0,0,0-2.93,1l-.7-1.15a8.73,8.73,0,0,1,1.9-1,6.5,6.5,0,0,1,2.08-.3,4,4,0,0,1,2.75.87,3.16,3.16,0,0,1,1,2.44l0,6.26Zm-1-1.88a2.24,2.24,0,0,0,1-1.5v-1H76.27a3.26,3.26,0,0,0-1.68.34,1.18,1.18,0,0,0-.55,1.08,1.4,1.4,0,0,0,.56,1.17,2.37,2.37,0,0,0,1.49.43A3.41,3.41,0,0,0,78.08,241.28Z"/><path class="cls-2" d="M91.65,234.56a3.72,3.72,0,0,1,1,2.71v5.89H90.93v-5.44a2.34,2.34,0,0,0-2.54-2.56,2.87,2.87,0,0,0-2.08.82,3.21,3.21,0,0,0-.91,2.08v5.09H83.73v-9.52H85.4v2A3.68,3.68,0,0,1,89,233.58,3.5,3.5,0,0,1,91.65,234.56Z"/><path class="cls-2" d="M104.46,229.8v13.36h-1.67v-1.89a3.79,3.79,0,0,1-1.45,1.47,4.24,4.24,0,0,1-2.12.51,4.54,4.54,0,0,1-2.38-.62,4.27,4.27,0,0,1-1.61-1.73,5.4,5.4,0,0,1-.58-2.53,5.26,5.26,0,0,1,.58-2.49,4.24,4.24,0,0,1,1.61-1.7,4.57,4.57,0,0,1,2.37-.61,4.38,4.38,0,0,1,2.14.5,3.59,3.59,0,0,1,1.44,1.46V229.8Zm-3.23,11.57a3,3,0,0,0,1.14-1.21,3.64,3.64,0,0,0,.41-1.75,3.69,3.69,0,0,0-.41-1.76,3,3,0,0,0-1.14-1.21,3.2,3.2,0,0,0-1.66-.43,3.15,3.15,0,0,0-1.67.44,3.1,3.1,0,0,0-1.14,1.21,3.89,3.89,0,0,0,0,3.49,3,3,0,0,0,1.14,1.21,3.42,3.42,0,0,0,3.33,0Z"/><path class="cls-2" d="M111,233.63h1.75l2.66,7.87,2.63-7.87h1.75l2.65,7.87,2.63-7.87h1.73l-3.51,9.52h-1.75l-2.63-7.49-2.63,7.49h-1.75Z"/><path class="cls-2" d="M129.89,230.14a1.16,1.16,0,0,1,0,1.55,1.07,1.07,0,0,1-1.49,0,1.16,1.16,0,0,1,0-1.55,1.06,1.06,0,0,1,1.49,0Zm-1.58,3.49H130v9.52h-1.67Z"/><path class="cls-2" d="M141.16,234.56a3.72,3.72,0,0,1,1,2.71v5.89h-1.67v-5.44a2.34,2.34,0,0,0-2.54-2.56,2.87,2.87,0,0,0-2.08.82,3.21,3.21,0,0,0-.91,2.08v5.09h-1.67v-9.52h1.67v2a3.68,3.68,0,0,1,3.62-2.07A3.5,3.5,0,0,1,141.16,234.56Z"/><path class="cls-2" d="M153.78,235.07a3.31,3.31,0,0,0-1.67.41,2.93,2.93,0,0,0-1.14,1.17,3.57,3.57,0,0,0-.41,1.75,3.65,3.65,0,0,0,.4,1.75,3,3,0,0,0,1.12,1.18,3.12,3.12,0,0,0,1.63.42,4.29,4.29,0,0,0,1.66-.31,3.15,3.15,0,0,0,1.22-.88l1,1a4.21,4.21,0,0,1-1.65,1.24,5.64,5.64,0,0,1-2.26.43,4.93,4.93,0,0,1-2.47-.61,4.33,4.33,0,0,1-1.68-1.7,5.47,5.47,0,0,1,0-5,4.32,4.32,0,0,1,1.68-1.71,4.92,4.92,0,0,1,2.47-.61,6,6,0,0,1,2.17.37,4.2,4.2,0,0,1,1.61,1.07l-.92,1.15A3.77,3.77,0,0,0,153.78,235.07Z"/><path class="cls-2" d="M166,234.19a4.4,4.4,0,0,1,1.73,1.7,4.94,4.94,0,0,1,.62,2.49,5,5,0,0,1-.62,2.5A4.39,4.39,0,0,1,166,242.6a5.57,5.57,0,0,1-5.08,0,4.41,4.41,0,0,1-1.73-1.7,5.35,5.35,0,0,1,0-5,4.4,4.4,0,0,1,1.73-1.7,5.57,5.57,0,0,1,5.08,0Zm-4.19,1.28a3,3,0,0,0-1.13,1.2,3.65,3.65,0,0,0-.41,1.74,3.74,3.74,0,0,0,.41,1.76,2.9,2.9,0,0,0,1.13,1.2,3.25,3.25,0,0,0,1.67.42,3.22,3.22,0,0,0,1.65-.42,2.91,2.91,0,0,0,1.13-1.2,3.75,3.75,0,0,0,.4-1.76,3.66,3.66,0,0,0-.4-1.74,3,3,0,0,0-1.13-1.2,3.17,3.17,0,0,0-1.65-.43A3.2,3.2,0,0,0,161.82,235.47Z"/><path class="cls-2" d="M177.19,234.19a4.4,4.4,0,0,1,1.73,1.7,4.94,4.94,0,0,1,.62,2.49,5,5,0,0,1-.62,2.5,4.39,4.39,0,0,1-1.73,1.71,5.57,5.57,0,0,1-5.08,0,4.41,4.41,0,0,1-1.73-1.7,5.35,5.35,0,0,1,0-5,4.4,4.4,0,0,1,1.73-1.7,5.57,5.57,0,0,1,5.08,0ZM173,235.47a3,3,0,0,0-1.13,1.2,3.65,3.65,0,0,0-.41,1.74,3.74,3.74,0,0,0,.41,1.76,2.9,2.9,0,0,0,1.13,1.2,3.25,3.25,0,0,0,1.67.42,3.22,3.22,0,0,0,1.65-.42,2.91,2.91,0,0,0,1.13-1.2,3.75,3.75,0,0,0,.4-1.76,3.66,3.66,0,0,0-.4-1.74,3,3,0,0,0-1.13-1.2,3.17,3.17,0,0,0-1.65-.43A3.2,3.2,0,0,0,173,235.47Z"/><path class="cls-2" d="M182,229.8h1.67v13.36H182Z"/><path class="cls-2" d="M67.71,252.16h1.73v5.62h7.2v-5.62h1.75v12.6H76.64v-5.42h-7.2v5.42H67.71Z"/><path class="cls-2" d="M87.64,264.76v-1.33a3.91,3.91,0,0,1-3.33,1.4,3.8,3.8,0,0,1-1.74-.38,2.79,2.79,0,0,1-1.15-1,2.82,2.82,0,0,1-.4-1.49,2.44,2.44,0,0,1,.94-2,4.23,4.23,0,0,1,2.64-.76h3v-.45a2,2,0,0,0-.62-1.56,2.65,2.65,0,0,0-1.81-.55,5.19,5.19,0,0,0-2.93,1l-.7-1.15a8.73,8.73,0,0,1,1.9-1,6.5,6.5,0,0,1,2.08-.3,4,4,0,0,1,2.75.87,3.16,3.16,0,0,1,1,2.44l0,6.26Zm-1-1.88a2.24,2.24,0,0,0,1-1.5v-1H84.83a3.26,3.26,0,0,0-1.68.34,1.18,1.18,0,0,0-.55,1.08,1.4,1.4,0,0,0,.56,1.17,2.37,2.37,0,0,0,1.49.43A3.41,3.41,0,0,0,86.64,262.88Z"/><path class="cls-2" d="M96.24,256.67a3.31,3.31,0,0,0-1.67.41,2.94,2.94,0,0,0-1.14,1.17A3.57,3.57,0,0,0,93,260a3.65,3.65,0,0,0,.4,1.75,3,3,0,0,0,1.12,1.18,3.12,3.12,0,0,0,1.63.42,4.29,4.29,0,0,0,1.66-.31,3.15,3.15,0,0,0,1.22-.88l1,1a4.21,4.21,0,0,1-1.65,1.24,5.64,5.64,0,0,1-2.26.43,4.92,4.92,0,0,1-2.47-.61A4.33,4.33,0,0,1,92,262.5a5.47,5.47,0,0,1,0-5,4.32,4.32,0,0,1,1.68-1.71,4.91,4.91,0,0,1,2.47-.61,6,6,0,0,1,2.17.37,4.2,4.2,0,0,1,1.61,1.07L99,257.77A3.77,3.77,0,0,0,96.24,256.67Z"/><path class="cls-2" d="M109.06,264.76l-3-4.63-1.85,1.93v2.7h-1.67V251.4h1.67v8.51l4.61-4.68h2l-3.55,3.69,3.89,5.83Z"/><path class="cls-2" d="M118,264.13a4.1,4.1,0,0,1-2.23.7,2.54,2.54,0,0,1-1.84-.67,2.71,2.71,0,0,1-.7-2v-5.27h-1.35v-1.28h1.35V253h1.69v2.56h2.92v1.28h-2.92v5a1.76,1.76,0,0,0,.29,1.13,1.06,1.06,0,0,0,.86.34,3,3,0,0,0,1.48-.45Z"/><path class="cls-2" d="M126.38,255.79a4.4,4.4,0,0,1,1.73,1.7,4.94,4.94,0,0,1,.62,2.49,5,5,0,0,1-.62,2.5,4.39,4.39,0,0,1-1.73,1.71,5.57,5.57,0,0,1-5.08,0,4.4,4.4,0,0,1-1.73-1.7,5.35,5.35,0,0,1,0-5,4.4,4.4,0,0,1,1.73-1.7,5.57,5.57,0,0,1,5.08,0Zm-4.19,1.28a3,3,0,0,0-1.13,1.2,3.66,3.66,0,0,0-.4,1.74,3.74,3.74,0,0,0,.4,1.76,2.91,2.91,0,0,0,1.13,1.2,3.25,3.25,0,0,0,1.67.42,3.22,3.22,0,0,0,1.65-.42,2.91,2.91,0,0,0,1.13-1.2A3.75,3.75,0,0,0,127,260a3.66,3.66,0,0,0-.41-1.74,3,3,0,0,0-1.13-1.2,3.17,3.17,0,0,0-1.65-.43A3.2,3.2,0,0,0,122.19,257.07Z"/><path class="cls-2" d="M138.74,255.79a4.21,4.21,0,0,1,1.62,1.71,5.78,5.78,0,0,1,0,5,4.12,4.12,0,0,1-1.6,1.69,4.61,4.61,0,0,1-2.37.6,4.34,4.34,0,0,1-2.12-.5,3.61,3.61,0,0,1-1.44-1.44v1.89h-1.67V251.4h1.67v5.72a3.63,3.63,0,0,1,1.43-1.44,4.26,4.26,0,0,1,2.1-.5A4.61,4.61,0,0,1,138.74,255.79Zm-1.05,7.13a3,3,0,0,0,1.13-1.21,3.7,3.7,0,0,0,.41-1.75,3.6,3.6,0,0,0-.41-1.73,3.06,3.06,0,0,0-1.13-1.21,3.12,3.12,0,0,0-1.64-.43,3.17,3.17,0,0,0-1.65.43,3,3,0,0,0-1.14,1.21,3.87,3.87,0,0,0,0,3.48,3,3,0,0,0,1.14,1.2,3.36,3.36,0,0,0,3.29,0Z"/><path class="cls-2" d="M150.44,256.48a5.35,5.35,0,0,1,1.13,3.63c0,.24,0,.42,0,.54H144a3.25,3.25,0,0,0,1.07,2,3.17,3.17,0,0,0,2.15.76,4,4,0,0,0,1.57-.31,3.78,3.78,0,0,0,1.27-.86l.92,1a4.81,4.81,0,0,1-1.69,1.17,5.63,5.63,0,0,1-2.2.41,5.06,5.06,0,0,1-2.49-.6,4.23,4.23,0,0,1-1.69-1.7,5.47,5.47,0,0,1,0-5,4.39,4.39,0,0,1,1.68-1.71,4.86,4.86,0,0,1,2.47-.62A4.2,4.2,0,0,1,150.44,256.48Zm-.38,2.87a2.76,2.76,0,0,0-3-2.79,3,3,0,0,0-2.1.76,3.17,3.17,0,0,0-1,2Z"/><path class="cls-2" d="M156.87,255.73a4,4,0,0,1,2.05-.55v1.62a3.06,3.06,0,0,0-3.38,2.93v5h-1.67v-9.52h1.67v2.05A3.45,3.45,0,0,1,156.87,255.73Z"/><path class="cls-2" d="M163.17,253.18a1.46,1.46,0,0,0-.43,1.13v1.24h2.63v1.28h-2.63v7.92h-1.67v-7.92h-1.24v-1.28h1.24v-1a3.38,3.38,0,0,1,.44-1.77,2.88,2.88,0,0,1,1.16-1.1,3.34,3.34,0,0,1,1.55-.37,3.7,3.7,0,0,1,1.66.43l-.4,1.37a2.88,2.88,0,0,0-1.22-.31A1.54,1.54,0,0,0,163.17,253.18Z"/><path class="cls-2" d="M173.88,256.48a5.35,5.35,0,0,1,1.13,3.63c0,.24,0,.42,0,.54h-7.52a3.24,3.24,0,0,0,1.07,2,3.17,3.17,0,0,0,2.15.76,4,4,0,0,0,1.58-.31,3.78,3.78,0,0,0,1.27-.86l.92,1a4.79,4.79,0,0,1-1.69,1.17,5.63,5.63,0,0,1-2.2.41,5.06,5.06,0,0,1-2.49-.6,4.24,4.24,0,0,1-1.69-1.7,5.47,5.47,0,0,1,0-5,4.4,4.4,0,0,1,1.68-1.71,4.86,4.86,0,0,1,2.47-.62A4.2,4.2,0,0,1,173.88,256.48Zm-.38,2.87a2.76,2.76,0,0,0-3-2.79,3,3,0,0,0-2.1.76,3.17,3.17,0,0,0-1,2Z"/><path class="cls-2" d="M181.2,256.76a4.7,4.7,0,0,0-1.36-.22,2.31,2.31,0,0,0-1.21.28.93.93,0,0,0-.46.85,1,1,0,0,0,.51.87,7.43,7.43,0,0,0,1.56.6,12.15,12.15,0,0,1,1.62.58,2.88,2.88,0,0,1,1.07.85,2.62,2.62,0,0,1-.58,3.53,4.34,4.34,0,0,1-2.53.7,6.3,6.3,0,0,1-2.06-.34,4.67,4.67,0,0,1-1.68-1l.63-1.22a4.45,4.45,0,0,0,1.47.86,4.87,4.87,0,0,0,1.7.32,2.54,2.54,0,0,0,1.33-.31,1,1,0,0,0,.5-.94,1.06,1.06,0,0,0-.53-1,7.24,7.24,0,0,0-1.61-.65A10.67,10.67,0,0,1,178,260a2.76,2.76,0,0,1-1-.82,2.21,2.21,0,0,1-.42-1.4,2.26,2.26,0,0,1,1-2,4.2,4.2,0,0,1,2.43-.67,6.07,6.07,0,0,1,1.7.24,5.1,5.1,0,0,1,1.45.66l-.61,1.28A5.75,5.75,0,0,0,181.2,256.76Z"/><path class="cls-2" d="M190.69,264.13a4.11,4.11,0,0,1-2.23.7,2.54,2.54,0,0,1-1.84-.67,2.72,2.72,0,0,1-.7-2v-5.27h-1.35v-1.28h1.35V253h1.69v2.56h2.92v1.28h-2.92v5a1.76,1.76,0,0,0,.29,1.13,1.06,1.06,0,0,0,.86.34,3,3,0,0,0,1.48-.45Z"/><path class="cls-2" d="M60,274.4a6.44,6.44,0,0,1,0,11.29,7.34,7.34,0,0,1-6.88,0A6.34,6.34,0,0,1,49.8,280a6.33,6.33,0,0,1,3.32-5.63,7.43,7.43,0,0,1,6.88,0Zm-5.35,2.17A3.88,3.88,0,0,0,53.24,278a4.08,4.08,0,0,0,1.43,5.51,3.66,3.66,0,0,0,1.94.54,3.62,3.62,0,0,0,1.92-.53,3.85,3.85,0,0,0,1.39-1.46,4.14,4.14,0,0,0,.51-2,4.06,4.06,0,0,0-.51-2,3.88,3.88,0,0,0-1.39-1.45,3.62,3.62,0,0,0-1.92-.53A3.76,3.76,0,0,0,54.67,276.57Z"/><path class="cls-2" d="M73.47,277.2a4.17,4.17,0,0,1,1.6,1.75,5.77,5.77,0,0,1,.57,2.61,5.63,5.63,0,0,1-.56,2.57,4.13,4.13,0,0,1-1.58,1.72,4.5,4.5,0,0,1-2.37.61,4,4,0,0,1-1.79-.39A3.6,3.6,0,0,1,68,285v4.9H65.25V276.67H68v1.42A3.46,3.46,0,0,1,69.33,277a3.91,3.91,0,0,1,1.75-.39A4.55,4.55,0,0,1,73.47,277.2Zm-1.31,6.21a3.12,3.12,0,0,0,0-3.85,2.21,2.21,0,0,0-1.73-.75,2.23,2.23,0,0,0-1.74.75,3.1,3.1,0,0,0,0,3.86,2.25,2.25,0,0,0,1.74.74A2.21,2.21,0,0,0,72.16,283.41Z"/><path class="cls-2" d="M85.18,277.93a5.42,5.42,0,0,1,1.21,3.76c0,.29,0,.51,0,.67H79.43a2.46,2.46,0,0,0,2.5,1.94,3.39,3.39,0,0,0,1.31-.26,3.46,3.46,0,0,0,1.13-.76l1.46,1.48A4.91,4.91,0,0,1,84,286a6,6,0,0,1-2.35.44,5.58,5.58,0,0,1-2.67-.61,4.3,4.3,0,0,1-1.76-1.73,5.66,5.66,0,0,1,0-5.17A4.41,4.41,0,0,1,79,277.2a5.31,5.31,0,0,1,2.59-.62A4.54,4.54,0,0,1,85.18,277.93Zm-1.4,2.79a2.19,2.19,0,0,0-.61-1.53,2.07,2.07,0,0,0-1.53-.58,2.11,2.11,0,0,0-1.5.57,2.63,2.63,0,0,0-.76,1.54Z"/><path class="cls-2" d="M96.92,277.57a3.75,3.75,0,0,1,1,2.7v6.08H95.11v-5.27a2,2,0,0,0-.51-1.45,1.85,1.85,0,0,0-1.4-.53,2.07,2.07,0,0,0-1.62.71,2.63,2.63,0,0,0-.59,1.77v4.77H88.22v-9.68H91v1.69a3.62,3.62,0,0,1,3.35-1.8A3.41,3.41,0,0,1,96.92,277.57Z"/><path class="cls-2" d="M100.33,273.76h9.59v2.36h-6.75v2.74h6.07v2.36h-6.07V284h6.95v2.36h-9.79Z"/><path class="cls-2" d="M121.44,274.6a2.67,2.67,0,0,1,1.21,2.3,2.76,2.76,0,0,1-.58,1.75,2.92,2.92,0,0,1-1.59,1,3.08,3.08,0,0,1,2.63,3.19,3,3,0,0,1-1.28,2.56,5.77,5.77,0,0,1-3.47.94h-6v-12.6h5.8A5.65,5.65,0,0,1,121.44,274.6Zm-2.17,3.86a1.26,1.26,0,0,0,.46-1,1.21,1.21,0,0,0-.46-1,1.94,1.94,0,0,0-1.27-.34H115.2v2.75H118A2,2,0,0,0,119.28,278.46Zm.31,5.17a1.3,1.3,0,0,0,.58-1.12,1.24,1.24,0,0,0-.58-1.08A2.67,2.67,0,0,0,118,281H115.2v3H118A2.72,2.72,0,0,0,119.59,283.63Z"/><path class="cls-2" d="M131.41,276.32a6.26,6.26,0,0,0-1.86-.35,2.2,2.2,0,0,0-1.17.27.88.88,0,0,0-.43.79,1.11,1.11,0,0,0,.62,1,9.63,9.63,0,0,0,1.92.73,16.64,16.64,0,0,1,2.13.76,3.77,3.77,0,0,1,1.43,1.13,3.15,3.15,0,0,1,.59,2,3.42,3.42,0,0,1-.64,2.08,3.94,3.94,0,0,1-1.75,1.32,6.74,6.74,0,0,1-2.54.45,8.68,8.68,0,0,1-3-.54,8.12,8.12,0,0,1-2.56-1.48l1.13-2.32a7.65,7.65,0,0,0,2.2,1.39,5.91,5.91,0,0,0,2.27.52,2.5,2.5,0,0,0,1.38-.32,1.13,1.13,0,0,0,.16-1.74,2.55,2.55,0,0,0-.85-.51q-.51-.2-1.41-.45a16.11,16.11,0,0,1-2.11-.72,3.72,3.72,0,0,1-1.41-1.1,3,3,0,0,1-.59-2,3.32,3.32,0,0,1,.61-2,3.88,3.88,0,0,1,1.71-1.31,6.6,6.6,0,0,1,2.56-.46,8.85,8.85,0,0,1,2.56.38,8.66,8.66,0,0,1,2.23,1l-1.1,2.36A9.58,9.58,0,0,0,131.41,276.32Z"/><path class="cls-2" d="M139.61,273.76h10.53v2.41h-3.85v10.19h-2.84V276.17h-3.83Z"/><path class="cls-2" d="M151.31,279.93h4.64v1.84h-4.64Z"/><path class="cls-2" d="M162.84,278.82a4.68,4.68,0,0,0-1.39-.24,1.59,1.59,0,0,0-.81.18.59.59,0,0,0-.31.54.67.67,0,0,0,.41.61,7.82,7.82,0,0,0,1.35.49,14.37,14.37,0,0,1,1.69.6,3.15,3.15,0,0,1,1.15.88,2.33,2.33,0,0,1,.49,1.54,2.61,2.61,0,0,1-1.11,2.24,4.71,4.71,0,0,1-2.83.8,7.46,7.46,0,0,1-2.29-.35,5.87,5.87,0,0,1-1.91-1l.9-1.87a5.66,5.66,0,0,0,1.65.89,5.26,5.26,0,0,0,1.72.31,1.81,1.81,0,0,0,.89-.19.61.61,0,0,0,.33-.57.72.72,0,0,0-.42-.65,7.15,7.15,0,0,0-1.36-.5,13.79,13.79,0,0,1-1.65-.58,2.94,2.94,0,0,1-1.12-.87,2.37,2.37,0,0,1-.47-1.52,2.6,2.6,0,0,1,1.08-2.23,4.5,4.5,0,0,1,2.74-.79,7.29,7.29,0,0,1,2,.28,6.62,6.62,0,0,1,1.8.8l-1,1.89A8.14,8.14,0,0,0,162.84,278.82Z"/><path class="cls-2" d="M176.1,277.57a3.75,3.75,0,0,1,1,2.7v6.08h-2.77v-5.27a2,2,0,0,0-.51-1.45,1.85,1.85,0,0,0-1.4-.53,2.1,2.1,0,0,0-1.63.71,2.61,2.61,0,0,0-.6,1.77v4.77h-2.77V273h2.77v5.38a3.61,3.61,0,0,1,3.35-1.82A3.43,3.43,0,0,1,176.1,277.57Z"/><path class="cls-2" d="M181.9,272.8a1.68,1.68,0,0,1,0,2.23,1.46,1.46,0,0,1-1.09.43,1.42,1.42,0,0,1-1.07-.44,1.67,1.67,0,0,1,0-2.22,1.43,1.43,0,0,1,1.07-.43A1.46,1.46,0,0,1,181.9,272.8Zm-2.46,3.87h2.77v9.68h-2.77Z"/><path class="cls-2" d="M189,277a3.83,3.83,0,0,1,1.89-.49v2.61l-.43,0a2.86,2.86,0,0,0-2,.69,2.4,2.4,0,0,0-.75,1.84v4.66h-2.77v-9.68h2.77v1.75A3.52,3.52,0,0,1,189,277Z"/><path class="cls-2" d="M198.36,285.82a4.57,4.57,0,0,1-1.2.5,5.22,5.22,0,0,1-1.32.17,3.12,3.12,0,0,1-2.2-.77,2.85,2.85,0,0,1-.85-2.21V279h-1.35V277.1h1.35v-2.66h2.75v2.66h2.63V279h-2.63v4q0,1.12.88,1.12a3.12,3.12,0,0,0,1.35-.36Z"/><path class="cls-2" d="M204.57,278.82a4.68,4.68,0,0,0-1.39-.24,1.58,1.58,0,0,0-.81.18.59.59,0,0,0-.31.54.67.67,0,0,0,.41.61,7.85,7.85,0,0,0,1.35.49,14.39,14.39,0,0,1,1.69.6,3.15,3.15,0,0,1,1.15.88,2.33,2.33,0,0,1,.49,1.54,2.61,2.61,0,0,1-1.11,2.24,4.71,4.71,0,0,1-2.83.8,7.45,7.45,0,0,1-2.29-.35,5.86,5.86,0,0,1-1.91-1l.9-1.87a5.65,5.65,0,0,0,1.65.89,5.25,5.25,0,0,0,1.72.31,1.81,1.81,0,0,0,.89-.19.61.61,0,0,0,.33-.57.72.72,0,0,0-.42-.65,7.1,7.1,0,0,0-1.36-.5,13.71,13.71,0,0,1-1.65-.58,2.94,2.94,0,0,1-1.12-.87,2.36,2.36,0,0,1-.47-1.52,2.61,2.61,0,0,1,1.08-2.23,4.51,4.51,0,0,1,2.74-.79,7.29,7.29,0,0,1,2,.28,6.63,6.63,0,0,1,1.8.8l-1,1.89A8.11,8.11,0,0,0,204.57,278.82Z"/><path class="cls-2" d="M135.59,5.47A45.06,45.06,0,0,1,174,50.92c-.24,12.67-5.22,23.46-14.49,32.14a5.52,5.52,0,0,0-1.9,4.52c.06,12.81,0,25.61.05,38.42,0,2.19-.09,4.18-2.4,5.39s-3.85.16-5.63-1.23c-5.56-4.35-11.25-8.53-16.9-12.78-.39-.29-1-.5-1.13-.89-1.44-3.48-3.14-1.57-4.84-.3q-9.54,7.15-19.07,14.31c-1.54,1.16-3,2-5.05,1.06s-2.37-2.86-2.37-4.89c0-13.19,0-26.39,0-39.58a4.63,4.63,0,0,0-1.57-3.76c-13.23-12.68-18-28.12-12.93-45.7,5-17.22,16.87-27.79,34.46-31.78.86-.2,2,.17,2.61-.86h10.49C134,5.73,134.8,5.52,135.59,5.47ZM170,50.1c-.86-17.27-8.86-30-24.67-37.46-9.12-4.28-18.72-4.55-28.4-1.72A39.18,39.18,0,0,0,95.11,27.14a40.71,40.71,0,0,0,11.5,57.19c5.28,3.5,11.21,5.3,17.19,6.67,3.36.77,7.07.19,10.62-.38a43.32,43.32,0,0,0,16.48-5.77c7.11-4.51,12-11.14,15.65-18.73C169,61.05,169.48,55.66,170,50.1Z"/><path class="cls-3" d="M135.59,5.47c-.8,0-1.63.26-2.27-.47h2.33Q135.63,5.24,135.59,5.47Z"/><path class="cls-4" d="M170,50.1c-.53,5.56-1,11-3.46,16C162.9,73.72,158,80.35,150.9,84.86a43.32,43.32,0,0,1-16.48,5.77c-3.55.57-7.27,1.15-10.62.38-6-1.38-11.91-3.18-17.19-6.67a40.71,40.71,0,0,1-11.5-57.19,39.18,39.18,0,0,1,21.84-16.22c9.68-2.83,19.28-2.56,28.4,1.72C161.15,20.06,169.15,32.83,170,50.1ZM92,51c.16,16.21,13.32,35,35.67,35.95a36.72,36.72,0,0,0,38.16-35.1c1-20.3-13.82-36.73-34-38.6C112.61,11.47,91.67,27,92,51Z"/><path class="cls-2" d="M92,51c-.29-24,20.65-39.52,39.81-37.75,20.21,1.86,35,18.29,34,38.6a36.72,36.72,0,0,1-38.16,35.1C105.28,86,92.11,67.2,92,51Zm37.21-33.7c-17.81-.34-33.33,15-33,32.71.37,18.68,13.76,34.42,38,32.78,7.26-.49,13.67-4.89,18.77-10.46A33.11,33.11,0,0,0,161.78,50C162.18,32.53,146.08,17.12,129.17,17.29Z"/><path class="cls-4" d="M129.17,17.29c16.91-.17,33,15.24,32.61,32.67A33.11,33.11,0,0,1,153,72.32c-5.11,5.56-11.51,10-18.77,10.46-24.25,1.64-37.65-14.1-38-32.78C95.84,32.27,111.36,16.95,129.17,17.29Zm-11,45.57c.13,4.09.82,4.47,4.49,2.43a17.39,17.39,0,0,0,1.74-1c3-2.2,5.79-2.66,9,.17,1.23,1.09,3.41,2.81,5.44,1.54s.83-3.4.38-5c-1.2-4.43-.55-8.1,3.51-10.77a9.14,9.14,0,0,0,1.45-1.42c.76-.8,1.35-1.67.89-2.85a2.17,2.17,0,0,0-2.37-1.32c-6.2.35-9.79-2.67-11.39-8.49-.3-1.08-.8-2.29-2.25-2.35-1.61-.06-2.21,1.23-2.51,2.41-1.54,6-5.4,8.67-11.47,8.42a.94.94,0,0,0-.29,0c-.78.22-2-.21-2.2.93s-.41,2.24.67,3.2c1.71,1.51,3.22,3.26,5,4.7a3.14,3.14,0,0,1,1.11,3C119.26,58.62,117.7,60.52,118.19,62.86Z"/><path class="cls-2" d="M118.19,62.86c-.49-2.34,1.07-4.24,1.14-6.44a3.14,3.14,0,0,0-1.11-3c-1.76-1.45-3.27-3.19-5-4.7-1.08-1-.85-2.13-.67-3.2s1.41-.71,2.2-.93a.94.94,0,0,1,.29,0c6.07.25,9.93-2.44,11.47-8.42.3-1.18.9-2.47,2.51-2.41,1.45.06,1.95,1.26,2.25,2.35,1.6,5.82,5.19,8.85,11.39,8.49a2.17,2.17,0,0,1,2.37,1.32c.46,1.18-.12,2.05-.89,2.85a9.14,9.14,0,0,1-1.45,1.42c-4.06,2.67-4.71,6.34-3.51,10.77.45,1.65,1.61,3.81-.38,5s-4.21-.45-5.44-1.54c-3.18-2.84-5.94-2.37-9-.17a17.39,17.39,0,0,1-1.74,1C119,67.33,118.32,66.95,118.19,62.86Zm16.61-2.61c-1-4.17-1.38-7.71,2.36-10.64,1.7-1.33-.26-1.79-1.36-1.84-2.79-.13-4.75-1.23-5.56-4.06A15.76,15.76,0,0,0,129,41.16c-3.14,5.94-3.32,6.11-6.63,6.55-.93.12-2.32-.13-2.57.82s.75,2,1.69,2.48c2.45,1.29,2.63,3.31,2.11,5.67-.23,1-.34,2.06-.64,4C127.09,56.71,130.9,56.71,134.8,60.25Z"/><path class="cls-4" d="M134.8,60.25c-3.9-3.54-7.71-3.54-11.86.46.31-2,.42-3,.64-4,.52-2.36.35-4.38-2.11-5.67-.94-.49-2-1.46-1.69-2.48s1.64-.7,2.57-.82c3.31-.44,3.48-.6,6.63-6.55a15.76,15.76,0,0,1,1.26,2.54c.82,2.83,2.78,3.93,5.56,4.06,1.1.05,3.06.51,1.36,1.84C133.42,52.54,133.83,56.08,134.8,60.25Z"/></svg>