<svg id="Layer_1" data-name="Layer 1" xmlns="http://www.w3.org/2000/svg" xmlns:xlink="http://www.w3.org/1999/xlink" viewBox="0 0 515 229"><defs><style>.cls-1{fill:url(#linear-gradient);}.cls-2{fill:#273274;}.cls-3{fill:#f3f2f1;}</style><linearGradient id="linear-gradient" x1="45.1" y1="-478.75" x2="470.9" y2="258.75" gradientUnits="userSpaceOnUse"><stop offset="0.23" stop-color="#ff8c58"/><stop offset="1" stop-color="#ff544e"/></linearGradient></defs><title>pr image</title><rect class="cls-1" x="0.5" y="-453" width="515" height="686"/><rect class="cls-2" x="134.5" y="16.16" width="246" height="50.67" rx="25.34" ry="25.34"/><path class="cls-3" d="M204.71,34.25a6.75,6.75,0,0,0-1.89-.3,3.5,3.5,0,0,0-1.91.46,1.43,1.43,0,0,0-.72,1.27,1.66,1.66,0,0,0,.43,1.19,3,3,0,0,0,1.06.73q.63.27,1.75.62a19.85,19.85,0,0,1,2.26.82,3.91,3.91,0,0,1,1.47,1.17,3.23,3.23,0,0,1,.61,2,3.42,3.42,0,0,1-.64,2.06,4.08,4.08,0,0,1-1.79,1.36,6.77,6.77,0,0,1-2.64.48,7.67,7.67,0,0,1-2.94-.59A8,8,0,0,1,197.29,44l.84-1.63a7.06,7.06,0,0,0,2.21,1.48,6.08,6.08,0,0,0,2.38.52,3.8,3.8,0,0,0,2.17-.54,1.68,1.68,0,0,0,.79-1.46,1.71,1.71,0,0,0-.43-1.2,3.06,3.06,0,0,0-1.09-.75,18.68,18.68,0,0,0-1.77-.61,18.11,18.11,0,0,1-2.24-.8,3.87,3.87,0,0,1-1.46-1.16,3.19,3.19,0,0,1-.6-2,3.24,3.24,0,0,1,.61-1.94,3.84,3.84,0,0,1,1.71-1.29,6.68,6.68,0,0,1,2.55-.45,8.23,8.23,0,0,1,2.42.36,8.14,8.14,0,0,1,2.11,1l-.79,1.69A7.92,7.92,0,0,0,204.71,34.25Z"/><path class="cls-3" d="M219.77,35.65V46h-1.84v-2.2a3.9,3.9,0,0,1-3.84,2.26A3.71,3.71,0,0,1,211.25,45a4.1,4.1,0,0,1-1-3V35.65h1.84v5.92a2.81,2.81,0,0,0,.72,2,2.62,2.62,0,0,0,2,.74,2.92,2.92,0,0,0,2.3-1,3.86,3.86,0,0,0,.85-2.58v-5.1Z"/><path class="cls-3" d="M231.67,36.26a4.58,4.58,0,0,1,1.77,1.86,6.3,6.3,0,0,1,0,5.46,4.47,4.47,0,0,1-1.75,1.84,5,5,0,0,1-2.58.66,4.73,4.73,0,0,1-2.31-.55A3.94,3.94,0,0,1,225.24,44V46h-1.82V31.48h1.82v6.24a4,4,0,0,1,1.56-1.57,4.63,4.63,0,0,1,2.29-.55A5,5,0,0,1,231.67,36.26ZM230.53,44a3.24,3.24,0,0,0,1.24-1.31,4,4,0,0,0,.44-1.9,3.93,3.93,0,0,0-.45-1.88,3.34,3.34,0,0,0-1.24-1.31,3.41,3.41,0,0,0-1.79-.47,3.46,3.46,0,0,0-1.79.47,3.32,3.32,0,0,0-1.25,1.31,4.22,4.22,0,0,0,0,3.8,3.32,3.32,0,0,0,1.25,1.3,3.66,3.66,0,0,0,3.59,0Z"/><path class="cls-3" d="M252.82,36.67a4.11,4.11,0,0,1,1,2.94V46H252V40.11a2.85,2.85,0,0,0-.72-2.06,2.61,2.61,0,0,0-2-.75,3,3,0,0,0-2.32,1,3.85,3.85,0,0,0-.84,2.57V46h-1.84V40.11A2.88,2.88,0,0,0,243.6,38a2.6,2.6,0,0,0-2-.75,3,3,0,0,0-2.33,1,3.82,3.82,0,0,0-.85,2.57V46h-1.82V35.65h1.82v2.18a3.92,3.92,0,0,1,3.86-2.24,4,4,0,0,1,2.38.69A3.36,3.36,0,0,1,246,38.2a3.94,3.94,0,0,1,4-2.61A3.68,3.68,0,0,1,252.82,36.67Z"/><path class="cls-3" d="M258.81,31.85a1.26,1.26,0,0,1,0,1.69,1.16,1.16,0,0,1-1.63,0,1.26,1.26,0,0,1,0-1.69,1.16,1.16,0,0,1,1.63,0Zm-1.72,3.81h1.82V46H257.1Z"/><path class="cls-3" d="M268,45.34a4.47,4.47,0,0,1-2.43.76,2.77,2.77,0,0,1-2-.74,3,3,0,0,1-.76-2.23V37.4h-1.47V36h1.47V33.22h1.84V36h3.18V37.4h-3.18v5.41A1.92,1.92,0,0,0,265,44a1.16,1.16,0,0,0,.94.37,3.28,3.28,0,0,0,1.61-.49Z"/><path class="cls-3" d="M285.35,32.3h1.86V46h-1.9L277.46,35.4V46h-1.88V32.3h1.9L285.35,43Z"/><path class="cls-3" d="M298,36.26a4.8,4.8,0,0,1,1.88,1.85,5.39,5.39,0,0,1,.68,2.72,5.44,5.44,0,0,1-.68,2.73A4.77,4.77,0,0,1,298,45.42a6.07,6.07,0,0,1-5.53,0,4.8,4.8,0,0,1-1.88-1.85,5.83,5.83,0,0,1,0-5.45,4.8,4.8,0,0,1,1.88-1.85,6.07,6.07,0,0,1,5.53,0Zm-4.57,1.39a3.26,3.26,0,0,0-1.24,1.3,4,4,0,0,0-.44,1.89,4.08,4.08,0,0,0,.44,1.92,3.18,3.18,0,0,0,1.24,1.3,3.76,3.76,0,0,0,3.61,0,3.17,3.17,0,0,0,1.24-1.3,4.08,4.08,0,0,0,.44-1.92,4,4,0,0,0-.44-1.89,3.25,3.25,0,0,0-1.24-1.3,3.69,3.69,0,0,0-3.61,0Z"/><path class="cls-3" d="M301.08,35.65H303l2.9,8.57,2.87-8.57h1.9l2.88,8.57,2.86-8.57h1.88L314.46,46h-1.9l-2.86-8.16L306.83,46h-1.9Z"/></svg>