<svg id="Layer_1" data-name="Layer 1" xmlns="http://www.w3.org/2000/svg" viewBox="0 0 250 55"><defs><style>.cls-1{fill:#273274;}.cls-2{fill:#f3f2f1;}</style></defs><title>pr image</title><rect class="cls-1" x="2" y="2.16" width="246" height="50.67" rx="25.34" ry="25.34"/><path class="cls-2" d="M72.21,20.25a6.75,6.75,0,0,0-1.89-.3,3.5,3.5,0,0,0-1.91.46,1.43,1.43,0,0,0-.72,1.27,1.66,1.66,0,0,0,.43,1.19,3,3,0,0,0,1.06.73q.63.27,1.75.62a19.85,19.85,0,0,1,2.26.82,3.91,3.91,0,0,1,1.47,1.17,3.23,3.23,0,0,1,.61,2,3.42,3.42,0,0,1-.64,2.06,4.08,4.08,0,0,1-1.79,1.36,6.77,6.77,0,0,1-2.64.48,7.67,7.67,0,0,1-2.94-.59A8,8,0,0,1,64.79,30l.84-1.63a7.06,7.06,0,0,0,2.21,1.48,6.08,6.08,0,0,0,2.38.52,3.8,3.8,0,0,0,2.17-.54,1.68,1.68,0,0,0,.79-1.46,1.71,1.71,0,0,0-.43-1.2,3.06,3.06,0,0,0-1.09-.75,18.68,18.68,0,0,0-1.77-.61,18.11,18.11,0,0,1-2.24-.8,3.87,3.87,0,0,1-1.46-1.16,3.19,3.19,0,0,1-.6-2,3.24,3.24,0,0,1,.61-1.94,3.84,3.84,0,0,1,1.71-1.29,6.68,6.68,0,0,1,2.55-.45,8.23,8.23,0,0,1,2.42.36,8.14,8.14,0,0,1,2.11,1l-.79,1.69A7.92,7.92,0,0,0,72.21,20.25Z"/><path class="cls-2" d="M87.27,21.65V32H85.42v-2.2a3.9,3.9,0,0,1-3.84,2.26A3.71,3.71,0,0,1,78.75,31a4.1,4.1,0,0,1-1-3V21.65h1.84v5.92a2.81,2.81,0,0,0,.72,2,2.62,2.62,0,0,0,2,.74,2.92,2.92,0,0,0,2.3-1,3.86,3.86,0,0,0,.85-2.58v-5.1Z"/><path class="cls-2" d="M99.17,22.26a4.58,4.58,0,0,1,1.77,1.86,6.3,6.3,0,0,1,0,5.46,4.47,4.47,0,0,1-1.75,1.84,5,5,0,0,1-2.58.66,4.73,4.73,0,0,1-2.31-.55A3.94,3.94,0,0,1,92.74,30V32H90.92V17.48h1.82v6.24a4,4,0,0,1,1.56-1.57,4.63,4.63,0,0,1,2.29-.55A5,5,0,0,1,99.17,22.26ZM98,30a3.24,3.24,0,0,0,1.24-1.31,4,4,0,0,0,.44-1.9,3.93,3.93,0,0,0-.45-1.88A3.34,3.34,0,0,0,98,23.62a3.41,3.41,0,0,0-1.79-.47,3.46,3.46,0,0,0-1.79.47,3.32,3.32,0,0,0-1.25,1.31,4.22,4.22,0,0,0,0,3.8A3.32,3.32,0,0,0,94.44,30,3.66,3.66,0,0,0,98,30Z"/><path class="cls-2" d="M120.32,22.67a4.11,4.11,0,0,1,1,2.94V32H119.5V26.11a2.85,2.85,0,0,0-.72-2.06,2.61,2.61,0,0,0-2-.75,3,3,0,0,0-2.32,1,3.85,3.85,0,0,0-.84,2.57V32h-1.84V26.11A2.88,2.88,0,0,0,111.1,24a2.6,2.6,0,0,0-2-.75,3,3,0,0,0-2.33,1,3.82,3.82,0,0,0-.85,2.57V32h-1.82V21.65h1.82v2.18a3.92,3.92,0,0,1,3.86-2.24,4,4,0,0,1,2.38.69,3.36,3.36,0,0,1,1.28,1.92,3.94,3.94,0,0,1,4-2.61A3.68,3.68,0,0,1,120.32,22.67Z"/><path class="cls-2" d="M126.31,17.85a1.26,1.26,0,0,1,0,1.69,1.16,1.16,0,0,1-1.63,0,1.26,1.26,0,0,1,0-1.69,1.16,1.16,0,0,1,1.63,0Zm-1.72,3.81h1.82V32H124.6Z"/><path class="cls-2" d="M135.54,31.34a4.47,4.47,0,0,1-2.43.76,2.77,2.77,0,0,1-2-.74,3,3,0,0,1-.76-2.23V23.4h-1.47V22h1.47V19.22h1.84V22h3.18V23.4h-3.18v5.41A1.92,1.92,0,0,0,132.5,30a1.16,1.16,0,0,0,.94.37,3.28,3.28,0,0,0,1.61-.49Z"/><path class="cls-2" d="M152.85,18.3h1.86V32h-1.9L145,21.4V32h-1.88V18.3H145L152.85,29Z"/><path class="cls-2" d="M165.55,22.26a4.8,4.8,0,0,1,1.88,1.85,5.39,5.39,0,0,1,.68,2.72,5.44,5.44,0,0,1-.68,2.73,4.77,4.77,0,0,1-1.88,1.86,6.07,6.07,0,0,1-5.53,0,4.8,4.8,0,0,1-1.88-1.85,5.83,5.83,0,0,1,0-5.45A4.8,4.8,0,0,1,160,22.26a6.07,6.07,0,0,1,5.53,0ZM161,23.66a3.26,3.26,0,0,0-1.24,1.3,4,4,0,0,0-.44,1.89,4.08,4.08,0,0,0,.44,1.92,3.18,3.18,0,0,0,1.24,1.3,3.76,3.76,0,0,0,3.61,0,3.17,3.17,0,0,0,1.24-1.3,4.08,4.08,0,0,0,.44-1.92,4,4,0,0,0-.44-1.89,3.25,3.25,0,0,0-1.24-1.3,3.69,3.69,0,0,0-3.61,0Z"/><path class="cls-2" d="M168.58,21.65h1.9l2.9,8.57,2.87-8.57h1.9L181,30.23l2.86-8.57h1.88L182,32h-1.9l-2.86-8.16L174.33,32h-1.9Z"/></svg>