<svg id="Layer_1" data-name="Layer 1" xmlns="http://www.w3.org/2000/svg" viewBox="0 0 114 135"><defs><style>.cls-1{fill:#fff;}.cls-2{fill:#00bbb6;}</style></defs><title>button new</title><circle class="cls-1" cx="57" cy="50" r="49"/><path class="cls-1" d="M27.85,120.14a6.4,6.4,0,0,0-8,2.66,6.39,6.39,0,0,0,0,6.4,6.41,6.41,0,0,0,2.32,2.31,6.27,6.27,0,0,0,3.23.86,6.42,6.42,0,0,0,2.46-.49A7,7,0,0,0,30,130.52l.91,1a8.76,8.76,0,0,1-2.59,1.65,7.65,7.65,0,0,1-3,.61,7.85,7.85,0,0,1-6.81-3.87A7.49,7.49,0,0,1,17.44,126a7.33,7.33,0,0,1,1.06-3.87,8,8,0,0,1,6.84-3.82,8.1,8.1,0,0,1,5.5,2.17l-.89,1A6.69,6.69,0,0,0,27.85,120.14Z"/><path class="cls-1" d="M41,133.63l0-1.91a4.12,4.12,0,0,1-1.76,1.49,6,6,0,0,1-2.5.49,4.43,4.43,0,0,1-2-.45,3.24,3.24,0,0,1-1.84-3A2.74,2.74,0,0,1,34,127.94a5.16,5.16,0,0,1,3.14-.85H41v-.87a2.69,2.69,0,0,0-.8-2.08,3.35,3.35,0,0,0-2.35-.74,6.16,6.16,0,0,0-3.67,1.37l-.65-1a9.69,9.69,0,0,1,2.19-1.18,7,7,0,0,1,2.39-.38,4.57,4.57,0,0,1,3.19,1,3.74,3.74,0,0,1,1.15,2.86l0,7.54Zm-1.44-1.86a3.47,3.47,0,0,0,1.42-2v-1.56H37.34a4.26,4.26,0,0,0-2.28.5,1.66,1.66,0,0,0-.78,1.5,2,2,0,0,0,.75,1.64,3,3,0,0,0,2,.62A4.52,4.52,0,0,0,39.59,131.77Z"/><path class="cls-1" d="M49.43,122.91A4.68,4.68,0,0,1,52,122.2v1.37a3.89,3.89,0,0,0-2.9,1.05,4.45,4.45,0,0,0-1.25,2.92v6.08H46.36V122.25h1.46v2.65A4.36,4.36,0,0,1,49.43,122.91Z"/><path class="cls-1" d="M62.78,123.89a6.49,6.49,0,0,1,1.28,4.53H54.57a4.37,4.37,0,0,0,1.35,2.94,4.16,4.16,0,0,0,3,1.12,5.18,5.18,0,0,0,2-.39A4.65,4.65,0,0,0,62.5,131l.83.83a5.67,5.67,0,0,1-2,1.38,6.52,6.52,0,0,1-2.55.49,5.83,5.83,0,0,1-2.93-.73,5.2,5.2,0,0,1-2-2,6.43,6.43,0,0,1,0-5.94,5.19,5.19,0,0,1,2-2,5.75,5.75,0,0,1,2.89-.73A4.94,4.94,0,0,1,62.78,123.89Zm0,3.4a4.17,4.17,0,0,0-1.18-2.83,3.85,3.85,0,0,0-2.81-1.05,4.06,4.06,0,0,0-2.87,1.06,4.26,4.26,0,0,0-1.33,2.82Z"/><path class="cls-1" d="M75.57,123.89a6.49,6.49,0,0,1,1.28,4.53H67.36a4.37,4.37,0,0,0,1.35,2.94,4.16,4.16,0,0,0,3,1.12,5.18,5.18,0,0,0,2-.39A4.65,4.65,0,0,0,75.29,131l.83.83a5.67,5.67,0,0,1-2,1.38,6.52,6.52,0,0,1-2.55.49,5.83,5.83,0,0,1-2.93-.73,5.2,5.2,0,0,1-2-2,6.43,6.43,0,0,1,0-5.94,5.19,5.19,0,0,1,2-2,5.75,5.75,0,0,1,2.89-.73A4.94,4.94,0,0,1,75.57,123.89Zm0,3.4a4.17,4.17,0,0,0-1.18-2.83,3.85,3.85,0,0,0-2.81-1.05,4.06,4.06,0,0,0-2.87,1.06,4.26,4.26,0,0,0-1.33,2.82Z"/><path class="cls-1" d="M83,122.91a4.68,4.68,0,0,1,2.53-.71v1.37a3.89,3.89,0,0,0-2.9,1.05,4.45,4.45,0,0,0-1.25,2.92v6.08H79.9V122.25h1.46v2.65A4.36,4.36,0,0,1,83,122.91Z"/><path class="cls-1" d="M92.28,123.63a5.78,5.78,0,0,0-1.59-.23,3.21,3.21,0,0,0-1.75.42,1.41,1.41,0,0,0-.66,1.27,1.32,1.32,0,0,0,.36,1,2.71,2.71,0,0,0,.89.6,14,14,0,0,0,1.49.51,15,15,0,0,1,1.91.68,3.45,3.45,0,0,1,1.26,1,2.58,2.58,0,0,1,.52,1.68,2.69,2.69,0,0,1-1.17,2.36,5,5,0,0,1-2.93.81,7,7,0,0,1-2.39-.41,5.29,5.29,0,0,1-1.93-1.17l.59-1a5.52,5.52,0,0,0,1.75,1.06,5.64,5.64,0,0,0,2.05.39,3.37,3.37,0,0,0,1.88-.48,1.56,1.56,0,0,0,.73-1.39,1.46,1.46,0,0,0-.37-1A2.55,2.55,0,0,0,92,129q-.55-.23-1.53-.53a15.34,15.34,0,0,1-1.87-.67,3.3,3.3,0,0,1-1.22-.95,2.5,2.5,0,0,1-.5-1.62A2.55,2.55,0,0,1,88,122.94a4.85,4.85,0,0,1,2.79-.76,6.85,6.85,0,0,1,1.89.26,6.15,6.15,0,0,1,1.63.72l-.56,1.11A5.55,5.55,0,0,0,92.28,123.63Z"/><path class="cls-2" d="M66.13,37.49H74c2.79,0,4.28,1.48,4.29,4.27,0,2.62,0,5.23,0,7.85,0,.25,0,.49,0,.78H35.72c0-.29,0-.53,0-.78,0-2.64,0-5.28,0-7.92s1.53-4.19,4.22-4.19h7.93c0-.31,0-.57,0-.84,0-1.07,0-2.14,0-3.2a2.14,2.14,0,0,1,2.16-2q6.93,0,13.86,0a2.14,2.14,0,0,1,2.16,2c.07,1,0,2,0,3C66.14,36.8,66.13,37.1,66.13,37.49Zm-3.07-3H51v3h12.1Z"/><path class="cls-2" d="M35.75,52.77h15.9c0,1.09,0,2.15,0,3.21,0,1.56.54,2.09,2.12,2.09h6.48c1.55,0,2.08-.54,2.1-2.12,0-1,0-2,0-3a1.09,1.09,0,0,1,0-.2H78.26a3.58,3.58,0,0,1,.06.48c0,3.53,0,7.06,0,10.59a3.76,3.76,0,0,1-2.8,4,4.32,4.32,0,0,1-1.2.13H39.65a3.68,3.68,0,0,1-3.94-3.74c-.08-3.73,0-7.47,0-11.2A1.11,1.11,0,0,1,35.75,52.77Z"/><path class="cls-2" d="M60,52.79v2.92H54V52.79Z"/></svg>