<svg id="Layer_1" data-name="Layer 1" xmlns="http://www.w3.org/2000/svg" viewBox="0 0 114 135"><defs><style>.cls-1{fill:#fff;}.cls-2{fill:#00bbb6;}</style></defs><title>button new</title><circle class="cls-1" cx="57" cy="50" r="49"/><path class="cls-1" d="M12.39,118.44h1.48v15.18H12.28L2.88,120.77v12.86H1.38V118.44H3l9.43,12.86Z"/><path class="cls-1" d="M26.88,123.89a6.49,6.49,0,0,1,1.28,4.53H18.67A4.36,4.36,0,0,0,20,131.36a4.16,4.16,0,0,0,3,1.12,5.18,5.18,0,0,0,2-.39A4.65,4.65,0,0,0,26.6,131l.83.83a5.66,5.66,0,0,1-2,1.38,6.51,6.51,0,0,1-2.55.49,5.83,5.83,0,0,1-2.93-.73,5.21,5.21,0,0,1-2-2,6.43,6.43,0,0,1,0-5.94,5.2,5.2,0,0,1,2-2,5.76,5.76,0,0,1,2.89-.73A4.94,4.94,0,0,1,26.88,123.89Zm0,3.4a4.17,4.17,0,0,0-1.18-2.83,3.85,3.85,0,0,0-2.81-1.05A4.06,4.06,0,0,0,20,124.46a4.26,4.26,0,0,0-1.33,2.82Z"/><path class="cls-1" d="M28.81,122.25h1.56l3.5,9.93,3.45-9.93h1.54l3.48,9.93,3.48-9.93h1.52l-4.26,11.38H41.57L38.09,124l-3.48,9.62H33.09Z"/><path class="cls-1" d="M53.8,123.63a5.78,5.78,0,0,0-1.59-.23,3.21,3.21,0,0,0-1.75.42,1.41,1.41,0,0,0-.66,1.27,1.31,1.31,0,0,0,.36,1,2.69,2.69,0,0,0,.89.6,14,14,0,0,0,1.49.51,15,15,0,0,1,1.91.68,3.45,3.45,0,0,1,1.26,1,2.58,2.58,0,0,1,.52,1.68,2.69,2.69,0,0,1-1.17,2.36,5,5,0,0,1-2.93.81,7,7,0,0,1-2.39-.41,5.29,5.29,0,0,1-1.93-1.17l.59-1a5.52,5.52,0,0,0,1.75,1.06,5.65,5.65,0,0,0,2.05.39,3.37,3.37,0,0,0,1.88-.48,1.56,1.56,0,0,0,.73-1.39,1.46,1.46,0,0,0-.37-1,2.54,2.54,0,0,0-.92-.63q-.55-.23-1.53-.53a15.4,15.4,0,0,1-1.87-.67,3.3,3.3,0,0,1-1.22-.95,2.5,2.5,0,0,1-.5-1.62,2.55,2.55,0,0,1,1.12-2.26,4.86,4.86,0,0,1,2.79-.76,6.84,6.84,0,0,1,1.89.26,6.17,6.17,0,0,1,1.63.72l-.57,1.11A5.56,5.56,0,0,0,53.8,123.63Z"/><path class="cls-1" d="M59.23,117.51h1.46v16.12H59.23Z"/><path class="cls-1" d="M73.52,123.89a6.49,6.49,0,0,1,1.28,4.53H65.31a4.37,4.37,0,0,0,1.35,2.94,4.16,4.16,0,0,0,3,1.12,5.18,5.18,0,0,0,2-.39A4.65,4.65,0,0,0,73.24,131l.83.83a5.67,5.67,0,0,1-2,1.38,6.52,6.52,0,0,1-2.55.49,5.83,5.83,0,0,1-2.93-.73,5.2,5.2,0,0,1-2-2,6.43,6.43,0,0,1,0-5.94,5.19,5.19,0,0,1,2-2,5.75,5.75,0,0,1,2.89-.73A4.94,4.94,0,0,1,73.52,123.89Zm0,3.4a4.17,4.17,0,0,0-1.18-2.83,3.85,3.85,0,0,0-2.81-1.05,4.06,4.06,0,0,0-2.87,1.06,4.26,4.26,0,0,0-1.33,2.82Z"/><path class="cls-1" d="M83.58,132.85a4.65,4.65,0,0,1-2.52.85,2.71,2.71,0,0,1-2.06-.8,3.39,3.39,0,0,1-.76-2.41V123.7H76.6l0-1.13h1.65v-2.93h1.46v2.93l3.69,0v1.15H79.69v6.54q0,2.11,1.56,2.11a3.75,3.75,0,0,0,1.89-.61Z"/><path class="cls-1" d="M91.94,132.85a4.65,4.65,0,0,1-2.52.85,2.71,2.71,0,0,1-2.06-.8,3.39,3.39,0,0,1-.76-2.41V123.7H85l0-1.13H86.6v-2.93h1.46v2.93l3.69,0v1.15H88.05v6.54q0,2.11,1.56,2.11a3.75,3.75,0,0,0,1.89-.61Z"/><path class="cls-1" d="M102.87,123.89a6.49,6.49,0,0,1,1.28,4.53H94.66A4.36,4.36,0,0,0,96,131.36a4.16,4.16,0,0,0,3,1.12,5.18,5.18,0,0,0,2-.39,4.65,4.65,0,0,0,1.61-1.11l.83.83a5.66,5.66,0,0,1-2,1.38,6.51,6.51,0,0,1-2.55.49,5.83,5.83,0,0,1-2.93-.73,5.21,5.21,0,0,1-2-2,6.43,6.43,0,0,1,0-5.94,5.2,5.2,0,0,1,2-2,5.76,5.76,0,0,1,2.89-.73A4.94,4.94,0,0,1,102.87,123.89Zm0,3.4a4.17,4.17,0,0,0-1.18-2.83,3.85,3.85,0,0,0-2.81-1.05A4.06,4.06,0,0,0,96,124.46a4.26,4.26,0,0,0-1.33,2.82Z"/><path class="cls-1" d="M110.27,122.91a4.67,4.67,0,0,1,2.53-.71v1.37a3.89,3.89,0,0,0-2.9,1.05,4.44,4.44,0,0,0-1.25,2.92v6.08h-1.46V122.25h1.46v2.65A4.36,4.36,0,0,1,110.27,122.91Z"/><path class="cls-2" d="M32.44,36.31h6.08v-3h43c0,.29,0,.54,0,.79q0,14,0,27.91a4.86,4.86,0,0,1-1.4,3.77,4.73,4.73,0,0,1-3.42,1.31c-4.18,0-8.36,0-12.53,0h-27a4.54,4.54,0,0,1-4.68-3.34,5.62,5.62,0,0,1-.17-1.44q0-12.65,0-25.3C32.4,36.77,32.42,36.57,32.44,36.31ZM41.55,64H76.39c1.63,0,2.16-.53,2.16-2.16q0-12.34,0-24.68c0-.27,0-.54,0-.83h-37ZM35.48,39.4c0,.26,0,.43,0,.61q0,11,0,22a3.83,3.83,0,0,0,.08.84,1.48,1.48,0,0,0,1.9,1.06c.79-.26,1.11-.76,1.11-1.88q0-11,0-22c0-.2,0-.4-.05-.63Z"/><path class="cls-2" d="M44.75,39.43H60V54.7H44.75ZM57,51.65V42.47H47.8v9.18Z"/><path class="cls-2" d="M44.75,60.86v-3H60v3Z"/><path class="cls-2" d="M75.4,48.56H63.23v-3H75.4Z"/><path class="cls-2" d="M75.38,60.86H63.22v-3H75.38Z"/><path class="cls-2" d="M63.23,51.72H75.39v3H63.23Z"/><path class="cls-2" d="M63.22,42.4v-3H75.37v3Z"/></svg>