<svg id="Layer_1" data-name="Layer 1" xmlns="http://www.w3.org/2000/svg" viewBox="0 0 161 38"><defs><style>.cls-1{fill:#ff8c58;}.cls-2{fill:#fff;}</style></defs><title>prs</title><path class="cls-1" d="M19.39,1.6H143.16a16.08,16.08,0,0,1,16.08,16.08v2.65A16.08,16.08,0,0,1,143.16,36.4H19.39a0,0,0,0,1,0,0V1.6A0,0,0,0,1,19.39,1.6Z"/><circle class="cls-2" cx="19.06" cy="18.89" r="17.29"/><path class="cls-2" d="M57.46,14.8h1.35l3,5.81,3-5.81h1.36v8.27H65.13v-6.6L62.18,22.2h-.7l-3-5.73v6.6H57.46Z"/><path class="cls-2" d="M73.15,17.64A3.51,3.51,0,0,1,73.9,20c0,.16,0,.28,0,.35H68.95a2.13,2.13,0,0,0,.7,1.33,2.08,2.08,0,0,0,1.41.5,2.64,2.64,0,0,0,1-.2,2.49,2.49,0,0,0,.83-.57l.6.63a3.16,3.16,0,0,1-1.11.77,3.71,3.71,0,0,1-1.44.27,3.32,3.32,0,0,1-1.64-.4,2.78,2.78,0,0,1-1.11-1.12,3.36,3.36,0,0,1-.4-1.64,3.32,3.32,0,0,1,.4-1.64,2.89,2.89,0,0,1,1.1-1.12A3.19,3.19,0,0,1,71,16.79,2.75,2.75,0,0,1,73.15,17.64Zm-.25,1.88A1.81,1.81,0,0,0,71,17.7a2,2,0,0,0-1.37.5,2.08,2.08,0,0,0-.66,1.34Z"/><path class="cls-2" d="M77.37,17.15a2.6,2.6,0,0,1,1.35-.36v1.06a2,2,0,0,0-2.22,1.93v3.3H75.4V16.82h1.1v1.35A2.26,2.26,0,0,1,77.37,17.15Z"/><path class="cls-2" d="M85.44,16.82v5.61A3,3,0,0,1,85,24a2.62,2.62,0,0,1-1.12,1,3.71,3.71,0,0,1-1.68.36,4.28,4.28,0,0,1-2.58-.87l.48-.8a3.35,3.35,0,0,0,1,.56,3.12,3.12,0,0,0,1.09.18,2.17,2.17,0,0,0,1.55-.54,1.9,1.9,0,0,0,.58-1.45v-.87a2.33,2.33,0,0,1-.9.88,2.65,2.65,0,0,1-1.3.31,2.84,2.84,0,0,1-1.48-.38,2.62,2.62,0,0,1-1-1.07,3.37,3.37,0,0,1-.35-1.57,3.27,3.27,0,0,1,.35-1.55,2.6,2.6,0,0,1,1-1.05,2.88,2.88,0,0,1,1.48-.38,2.69,2.69,0,0,1,1.31.31,2.3,2.3,0,0,1,.89.88V16.82Zm-2.07,4.81a1.9,1.9,0,0,0,.7-.75,2.44,2.44,0,0,0,0-2.17,1.88,1.88,0,0,0-.7-.75,1.94,1.94,0,0,0-1-.27,2,2,0,0,0-1,.27,1.93,1.93,0,0,0-.71.75,2.24,2.24,0,0,0-.26,1.09,2.16,2.16,0,0,0,.57,1.51,1.89,1.89,0,0,0,1.44.59A2,2,0,0,0,83.37,21.63Z"/><path class="cls-2" d="M92.15,17.64A3.51,3.51,0,0,1,92.89,20c0,.16,0,.28,0,.35H87.94a2.13,2.13,0,0,0,.7,1.33,2.09,2.09,0,0,0,1.41.5,2.64,2.64,0,0,0,1-.2,2.48,2.48,0,0,0,.83-.57l.6.63a3.16,3.16,0,0,1-1.11.77,3.71,3.71,0,0,1-1.44.27,3.32,3.32,0,0,1-1.64-.4,2.78,2.78,0,0,1-1.11-1.12A3.36,3.36,0,0,1,86.83,20a3.32,3.32,0,0,1,.39-1.64,2.88,2.88,0,0,1,1.11-1.12A3.19,3.19,0,0,1,90,16.79,2.75,2.75,0,0,1,92.15,17.64Zm-.25,1.88A1.81,1.81,0,0,0,90,17.7a2,2,0,0,0-1.38.5,2.09,2.09,0,0,0-.66,1.34Z"/><path class="cls-2" d="M100.22,14.3v8.77h-1.1V21.83a2.47,2.47,0,0,1-1,1,2.77,2.77,0,0,1-1.39.34,3,3,0,0,1-1.57-.41,2.79,2.79,0,0,1-1.06-1.13,3.53,3.53,0,0,1-.38-1.66,3.44,3.44,0,0,1,.38-1.64,2.77,2.77,0,0,1,1.06-1.12,3,3,0,0,1,1.55-.4,2.87,2.87,0,0,1,1.41.33,2.35,2.35,0,0,1,.95,1V14.3ZM98.1,21.9a2,2,0,0,0,.75-.79,2.58,2.58,0,0,0,0-2.3A2,2,0,0,0,98.1,18,2.1,2.1,0,0,0,97,17.73a2.07,2.07,0,0,0-1.09.29,2,2,0,0,0-.75.8,2.55,2.55,0,0,0,0,2.29,2,2,0,0,0,.75.79,2.25,2.25,0,0,0,2.19,0Z"/><path class="cls-2" d="M111.21,15.53a2.57,2.57,0,0,1,.85,2.06,2.73,2.73,0,0,1-.85,2.14,3.45,3.45,0,0,1-2.39.76h-2.05v2.58h-1.13V14.8h3.19A3.54,3.54,0,0,1,111.21,15.53ZM110.4,19a1.68,1.68,0,0,0,.57-1.38,1.62,1.62,0,0,0-.57-1.34,2.55,2.55,0,0,0-1.63-.46h-2v3.63h2A2.51,2.51,0,0,0,110.4,19Z"/><path class="cls-2" d="M118.89,23.07l-1.64-2.6-.46,0h-2.1v2.58h-1.13V14.8h3.24a3.65,3.65,0,0,1,2.43.73,2.56,2.56,0,0,1,.86,2.06,2.92,2.92,0,0,1-.47,1.69,2.62,2.62,0,0,1-1.34,1l1.93,2.8Zm-2.1-3.6a2.51,2.51,0,0,0,1.63-.47,1.68,1.68,0,0,0,.57-1.38,1.62,1.62,0,0,0-.57-1.34,2.55,2.55,0,0,0-1.63-.46h-2.1v3.64Z"/><path class="cls-2" d="M124.55,17.83a3.09,3.09,0,0,0-.89-.14,1.52,1.52,0,0,0-.8.18.61.61,0,0,0-.3.56.62.62,0,0,0,.34.57,4.9,4.9,0,0,0,1,.4,8.18,8.18,0,0,1,1.06.38,1.89,1.89,0,0,1,.7.55,1.72,1.72,0,0,1-.38,2.32,2.85,2.85,0,0,1-1.66.46,4.14,4.14,0,0,1-1.35-.22,3.07,3.07,0,0,1-1.11-.64l.41-.8a2.91,2.91,0,0,0,1,.57,3.2,3.2,0,0,0,1.12.21,1.67,1.67,0,0,0,.87-.2.67.67,0,0,0,.33-.61.7.7,0,0,0-.35-.64,4.74,4.74,0,0,0-1.06-.43,7.15,7.15,0,0,1-1-.36,1.81,1.81,0,0,1-.67-.54,1.46,1.46,0,0,1-.28-.92,1.48,1.48,0,0,1,.64-1.31,2.76,2.76,0,0,1,1.6-.44,4,4,0,0,1,1.12.16,3.33,3.33,0,0,1,1,.43l-.4.84A3.73,3.73,0,0,0,124.55,17.83Z"/></svg>