<svg id="Layer_1" data-name="Layer 1" xmlns="http://www.w3.org/2000/svg" viewBox="0 0 161 38"><defs><style>.cls-1{fill:#ff8c58;}.cls-2{fill:#fff;}</style></defs><title>prs</title><path class="cls-1" d="M19.39,1.6H143.16a16.08,16.08,0,0,1,16.08,16.08v2.65A16.08,16.08,0,0,1,143.16,36.4H19.39a0,0,0,0,1,0,0V1.6a0,0,0,0,1,0,0Z"/><circle class="cls-2" cx="19.06" cy="18.89" r="17.29"/><path class="cls-2" d="M56.34,15.72a4,4,0,0,0-1.14-.18,2.11,2.11,0,0,0-1.15.28.86.86,0,0,0-.43.76,1,1,0,0,0,.26.71,1.83,1.83,0,0,0,.64.44q.38.16,1.05.37a11.82,11.82,0,0,1,1.36.5,2.35,2.35,0,0,1,.89.7,1.94,1.94,0,0,1,.37,1.23,2.06,2.06,0,0,1-.38,1.24,2.46,2.46,0,0,1-1.08.82,4.08,4.08,0,0,1-1.59.29,4.62,4.62,0,0,1-1.77-.35,4.82,4.82,0,0,1-1.49-.94l.51-1a4.29,4.29,0,0,0,1.33.89,3.66,3.66,0,0,0,1.44.31,2.29,2.29,0,0,0,1.3-.32,1,1,0,0,0,.48-.88,1,1,0,0,0-.26-.72,1.84,1.84,0,0,0-.66-.45,11,11,0,0,0-1.07-.37,11.14,11.14,0,0,1-1.35-.48,2.31,2.31,0,0,1-.88-.7,1.91,1.91,0,0,1-.36-1.22,2,2,0,0,1,.37-1.17,2.31,2.31,0,0,1,1-.78,4,4,0,0,1,1.54-.27,4.94,4.94,0,0,1,1.46.22,4.88,4.88,0,0,1,1.27.58l-.47,1A4.76,4.76,0,0,0,56.34,15.72Z"/><path class="cls-2" d="M65.41,16.56v6.25H64.3V21.49A2.35,2.35,0,0,1,62,22.85a2.24,2.24,0,0,1-1.7-.64,2.47,2.47,0,0,1-.62-1.78V16.56h1.11v3.57a1.69,1.69,0,0,0,.43,1.23,1.58,1.58,0,0,0,1.19.44,1.75,1.75,0,0,0,1.39-.62,2.32,2.32,0,0,0,.51-1.55V16.56Z"/><path class="cls-2" d="M72.58,16.93a2.77,2.77,0,0,1,1.06,1.12,3.8,3.8,0,0,1,0,3.29,2.7,2.7,0,0,1-1.05,1.11,3,3,0,0,1-1.55.4,2.85,2.85,0,0,1-1.39-.33,2.37,2.37,0,0,1-.94-.94v1.24h-1.1V14h1.1V17.8a2.38,2.38,0,0,1,.94-.94A2.79,2.79,0,0,1,71,16.53,3,3,0,0,1,72.58,16.93Zm-.69,4.68a2,2,0,0,0,.75-.79,2.44,2.44,0,0,0,.27-1.15,2.38,2.38,0,0,0-.27-1.13,2,2,0,0,0-.75-.79,2,2,0,0,0-1.08-.28,2.07,2.07,0,0,0-1.08.28,2,2,0,0,0-.75.79,2.54,2.54,0,0,0,0,2.29,2,2,0,0,0,.75.79,2.2,2.2,0,0,0,2.16,0Z"/><path class="cls-2" d="M85.32,17.18A2.48,2.48,0,0,1,85.93,19v3.86H84.82V19.25A1.72,1.72,0,0,0,84.39,18a1.57,1.57,0,0,0-1.19-.45,1.8,1.8,0,0,0-1.39.63,2.32,2.32,0,0,0-.51,1.55v3.08H80.19V19.25A1.73,1.73,0,0,0,79.76,18a1.57,1.57,0,0,0-1.19-.45,1.82,1.82,0,0,0-1.4.63,2.3,2.3,0,0,0-.51,1.55v3.08h-1.1V16.56h1.1v1.31A2.36,2.36,0,0,1,79,16.53a2.4,2.4,0,0,1,1.44.41,2,2,0,0,1,.77,1.16,2.37,2.37,0,0,1,2.43-1.57A2.22,2.22,0,0,1,85.32,17.18Z"/><path class="cls-2" d="M88.93,14.27a.76.76,0,0,1,0,1,.7.7,0,0,1-1,0,.76.76,0,0,1,0-1,.7.7,0,0,1,1,0Zm-1,2.29H89v6.25h-1.1Z"/><path class="cls-2" d="M94.48,22.4a2.69,2.69,0,0,1-1.46.46,1.66,1.66,0,0,1-1.21-.44,1.78,1.78,0,0,1-.46-1.34V17.62h-.89v-.84h.89V15.1h1.11v1.68h1.91v.84H92.46v3.26a1.16,1.16,0,0,0,.19.74.7.7,0,0,0,.57.22,2,2,0,0,0,1-.3Z"/><path class="cls-2" d="M99.17,22.4a2.69,2.69,0,0,1-1.46.46,1.66,1.66,0,0,1-1.21-.44A1.78,1.78,0,0,1,96,21.08V17.62h-.89v-.84H96V15.1h1.11v1.68h1.91v.84H97.15v3.26a1.16,1.16,0,0,0,.19.74.7.7,0,0,0,.57.22,2,2,0,0,0,1-.3Z"/><path class="cls-2" d="M105.13,17.39a3.51,3.51,0,0,1,.75,2.38c0,.16,0,.28,0,.35h-4.94a2.13,2.13,0,0,0,.7,1.33A2.09,2.09,0,0,0,103,22a2.64,2.64,0,0,0,1-.2,2.48,2.48,0,0,0,.83-.57l.6.63a3.16,3.16,0,0,1-1.11.77,3.71,3.71,0,0,1-1.44.27,3.32,3.32,0,0,1-1.64-.4,2.78,2.78,0,0,1-1.11-1.12,3.36,3.36,0,0,1-.39-1.64,3.32,3.32,0,0,1,.39-1.64,2.88,2.88,0,0,1,1.11-1.12,3.19,3.19,0,0,1,1.62-.41A2.75,2.75,0,0,1,105.13,17.39Zm-.25,1.88a1.81,1.81,0,0,0-1.94-1.83,2,2,0,0,0-1.38.5,2.09,2.09,0,0,0-.66,1.34Z"/><path class="cls-2" d="M113.2,14v8.77h-1.1V21.57a2.47,2.47,0,0,1-1,1,2.77,2.77,0,0,1-1.39.34,3,3,0,0,1-1.57-.41,2.79,2.79,0,0,1-1.06-1.13,3.53,3.53,0,0,1-.38-1.66,3.44,3.44,0,0,1,.38-1.64,2.77,2.77,0,0,1,1.06-1.12,3,3,0,0,1,1.55-.4,2.87,2.87,0,0,1,1.41.33,2.35,2.35,0,0,1,.95,1V14Zm-2.12,7.6a2,2,0,0,0,.75-.79,2.58,2.58,0,0,0,0-2.3,2,2,0,0,0-.75-.79,2.1,2.1,0,0,0-1.09-.28,2.07,2.07,0,0,0-1.09.29,2,2,0,0,0-.75.8,2.55,2.55,0,0,0,0,2.29,2,2,0,0,0,.75.79,2.25,2.25,0,0,0,2.19,0Z"/><path class="cls-2" d="M124.19,15.28a2.57,2.57,0,0,1,.85,2.06,2.73,2.73,0,0,1-.85,2.14,3.45,3.45,0,0,1-2.39.76h-2.05v2.58h-1.13V14.54h3.19A3.54,3.54,0,0,1,124.19,15.28Zm-.81,3.47a1.68,1.68,0,0,0,.57-1.38,1.62,1.62,0,0,0-.57-1.34,2.55,2.55,0,0,0-1.63-.46h-2v3.63h2A2.51,2.51,0,0,0,123.38,18.74Z"/><path class="cls-2" d="M131.88,22.81l-1.64-2.6-.46,0h-2.1v2.58h-1.13V14.54h3.24a3.65,3.65,0,0,1,2.43.73,2.56,2.56,0,0,1,.86,2.06,2.92,2.92,0,0,1-.47,1.69,2.62,2.62,0,0,1-1.34,1l1.93,2.8Zm-2.1-3.6a2.51,2.51,0,0,0,1.63-.47,1.68,1.68,0,0,0,.57-1.38A1.62,1.62,0,0,0,131.4,16a2.55,2.55,0,0,0-1.63-.46h-2.1v3.64Z"/><path class="cls-2" d="M137.53,17.57a3.09,3.09,0,0,0-.89-.14,1.52,1.52,0,0,0-.8.18.61.61,0,0,0-.3.56.62.62,0,0,0,.34.57,4.9,4.9,0,0,0,1,.4,8.18,8.18,0,0,1,1.06.38,1.89,1.89,0,0,1,.7.55,1.72,1.72,0,0,1-.38,2.32,2.85,2.85,0,0,1-1.66.46,4.14,4.14,0,0,1-1.35-.22,3.07,3.07,0,0,1-1.11-.64l.41-.8a2.91,2.91,0,0,0,1,.57,3.2,3.2,0,0,0,1.12.21,1.67,1.67,0,0,0,.87-.2.67.67,0,0,0,.33-.61.7.7,0,0,0-.35-.64,4.74,4.74,0,0,0-1.06-.43,7.15,7.15,0,0,1-1-.36,1.81,1.81,0,0,1-.67-.54,1.46,1.46,0,0,1-.28-.92,1.48,1.48,0,0,1,.64-1.31,2.76,2.76,0,0,1,1.6-.44,4,4,0,0,1,1.12.16,3.33,3.33,0,0,1,1,.43l-.4.84A3.73,3.73,0,0,0,137.53,17.57Z"/></svg>