<svg id="Layer_1" data-name="Layer 1" xmlns="http://www.w3.org/2000/svg" xmlns:xlink="http://www.w3.org/1999/xlink" viewBox="0 0 1350 185"><defs><style>.cls-1{fill:none;}.cls-2{opacity:0.27;}.cls-3{clip-path:url(#clip-path);}.cls-4{fill:#273274;}.cls-12,.cls-5,.cls-6,.cls-7{fill:#ff544e;}.cls-10,.cls-11,.cls-12,.cls-14,.cls-15,.cls-6,.cls-7,.cls-9{stroke:#273274;stroke-miterlimit:10;}.cls-15,.cls-6{stroke-width:3px;}.cls-10,.cls-14,.cls-7{stroke-width:2px;}.cls-10,.cls-15,.cls-8,.cls-9{fill:#f7f7f7;}.cls-11,.cls-9{stroke-width:4px;}.cls-11,.cls-13,.cls-14{fill:#ff8c58;}.cls-12{stroke-width:5px;}.cls-16{clip-path:url(#clip-path-2);}</style><clipPath id="clip-path"><rect class="cls-1" x="-0.39" y="0.26" width="698.56" height="189.96"/></clipPath><clipPath id="clip-path-2"><rect class="cls-1" x="651.44" y="-4.86" width="698.56" height="189.96"/></clipPath></defs><title>Hacktober page 2</title><g class="cls-2"><g class="cls-3"><circle class="cls-4" cx="729.12" cy="72.59" r="2.42"/><path class="cls-5" d="M635.38,132.13q0-3.8,0-7.6c0-5.74,0-11.48,0-17.22a3.44,3.44,0,0,0-.7-2.16c-2.18-3-4.34-6.05-6.45-9.13-.43-.63-1.33-1.55-.63-2.17s1.5.35,2.08.87c1.84,1.67,3.62,3.41,5.69,5.37,0-3.75-.14-7.21,0-10.65s.37-6.81,1.77-10.13a3.64,3.64,0,0,1,1.07,2.52,137.68,137.68,0,0,1,1.24,17c.56,16.47.87,32.94,1.19,49.41.06,2.84.19,5.68.22,8.53,0,.87.17,1.1,1.08.79a33.17,33.17,0,0,0,11.19-6.91c7.5-6.66,12.74-14.71,14.67-24.69,1.41-7.3.5-14.45-1.59-21.48a64,64,0,0,0-16.48-27.93,36.73,36.73,0,0,0-4.56-3.7,11.88,11.88,0,0,0-12.5-1.23c-8.5,3.76-15.29,9.65-21.06,16.8-4.7,5.84-8.21,12.32-9.6,19.77-1.67,8.91.17,17.28,4.44,25.12,5.67,10.43,13.68,18.45,24.77,23.11.9.38,1.86.62,2.78.93s1.24.14,1.24-.89q0-7.95.05-15.9a2.67,2.67,0,0,0-.8-1.81c-4.12-5.05-8.45-9.94-12.3-15.2a20.8,20.8,0,0,1-2.76-5.33c-.14-.39-.6-1,0-1.32s.84.16,1.16.42c1.17,1,2.34,1.94,3.43,3C627.93,124.07,631.43,128.18,635.38,132.13Z"/><circle class="cls-6" cx="616.11" cy="114.27" r="2.45"/><circle class="cls-7" cx="624.2" cy="90.98" r="2.08"/><path class="cls-5" d="M637.57,199.52l-2.07,0a4.8,4.8,0,0,0-.55-1q0-3.08.06-6.15a1.33,1.33,0,0,0,.48-.82c.05-.57-.37-1.11-.52-1.67.07.19.1-.56.14-.7a2.18,2.18,0,0,0-.35-2.22l.32,0q0-1.8,0-3.59c0-3,0-6.06,0-9.09a1.22,1.22,0,0,0,.08-1.49v0c.1-.15-.16-.41-.2-.55a3.12,3.12,0,0,1-.06-.53c.17-.18.19-.27.16-.3a.86.86,0,0,0,0-.91c.29-3.57-.81-7.07,2.86-10.5,1.68.36,1.67.86,1.89,1.29,1.45,2.83,1.7,5.69,2,8.55.9,8.45,1.42,16.89,1.93,25.34.09,1.45.36,2.91.34,4.36a.67.67,0,0,0,0,.09C641.89,199.53,639.75,199.48,637.57,199.52Z"/><circle class="cls-4" cx="666.82" cy="159.59" r="2.29"/><path class="cls-8" d="M569.27,122.12q0-5.24,0-10.48c0-7.92,0-15.83,0-23.75a4.74,4.74,0,0,0-1-3c-3-4.16-6-8.35-8.89-12.59-.6-.87-1.83-2.14-.87-3s2.07.49,2.87,1.21c2.54,2.3,5,4.7,7.85,7.41,0-5.17-.19-9.94.05-14.68s.5-9.39,2.44-14a5,5,0,0,1,1.48,3.48c1.23,7.77,1.44,15.61,1.7,23.45.77,22.71,1.2,45.42,1.64,68.14.08,3.92.26,7.84.31,11.76,0,1.2.24,1.52,1.5,1.09a45.74,45.74,0,0,0,15.43-9.53c10.35-9.19,17.57-20.28,20.23-34,1.94-10.06.69-19.93-2.19-29.63-4.38-14.71-11.71-27.71-22.72-38.53a50.65,50.65,0,0,0-6.3-5.1c-5.44-3.86-11.12-4.4-17.24-1.7-11.72,5.19-21.09,13.3-29,23.17-6.49,8.06-11.32,17-13.24,27.26-2.3,12.29.24,23.83,6.12,34.65,7.82,14.38,18.86,25.45,34.17,31.87,1.24.52,2.56.85,3.84,1.29s1.71.19,1.71-1.23q0-11,.07-21.92a3.68,3.68,0,0,0-1.1-2.49c-5.68-7-11.65-13.7-17-21a28.69,28.69,0,0,1-3.81-7.35c-.19-.54-.83-1.32,0-1.82.6-.38,1.16.22,1.6.59,1.61,1.34,3.23,2.68,4.73,4.13C559,111,563.82,116.68,569.27,122.12Z"/><circle class="cls-9" cx="552.39" cy="65.81" r="3.38"/><path class="cls-8" d="M572.28,215.05l-2.86.05a6.62,6.62,0,0,0-.76-1.42q0-4.24.09-8.49a1.83,1.83,0,0,0,.67-1.13c.07-.78-.51-1.53-.72-2.31.1.26.14-.77.19-1a3,3,0,0,0-.48-3.07l.44,0q0-2.48,0-5c0-4.18,0-8.35,0-12.53a1.69,1.69,0,0,0,.1-2.05l0,0c.13-.2-.22-.56-.27-.76a4.3,4.3,0,0,1-.09-.74c.24-.25.26-.38.22-.41a1.18,1.18,0,0,0-.07-1.26c.4-4.93-1.12-9.75,3.94-14.48,2.32.49,2.3,1.18,2.61,1.78,2,3.9,2.34,7.85,2.76,11.78,1.24,11.65,2,23.3,2.66,35,.12,2,.49,4,.47,6a.93.93,0,0,0,0,.13C578.25,215.07,575.29,215,572.28,215.05Z"/><circle class="cls-10" cx="543.92" cy="97.2" r="2.74"/><path class="cls-5" d="M475.64,87.29q0-4.73,0-9.47c0-7.15,0-14.31,0-21.46a4.29,4.29,0,0,1,.88-2.69c2.72-3.76,5.41-7.54,8-11.37.54-.79,1.66-1.93.78-2.71s-1.87.44-2.59,1.09c-2.3,2.08-4.51,4.24-7.09,6.7,0-4.67.17-9,0-13.27s-.46-8.48-2.2-12.63A4.53,4.53,0,0,0,472,24.63a171.54,171.54,0,0,0-1.54,21.18c-.7,20.52-1.08,41-1.48,61.56-.07,3.54-.23,7.08-.28,10.62,0,1.09-.21,1.38-1.35,1a41.32,41.32,0,0,1-13.94-8.61c-9.35-8.3-15.87-18.33-18.28-30.76-1.76-9.09-.63-18,2-26.77A79.69,79.69,0,0,1,457.7,18a45.76,45.76,0,0,1,5.69-4.61A14.8,14.8,0,0,1,479,11.9c10.59,4.69,19.06,12,26.24,20.94,5.86,7.28,10.22,15.35,12,24.63,2.08,11.11-.22,21.53-5.53,31.3-7.07,13-17,23-30.87,28.79-1.12.47-2.31.77-3.47,1.16s-1.55.18-1.54-1.11q0-9.9-.06-19.81a3.33,3.33,0,0,1,1-2.25c5.13-6.3,10.53-12.38,15.33-18.94A25.92,25.92,0,0,0,495.45,70c.18-.49.75-1.19,0-1.65-.54-.35-1,.2-1.45.53-1.45,1.21-2.92,2.42-4.28,3.73C484.92,77.25,480.57,82.37,475.64,87.29Z"/><circle class="cls-4" cx="490.89" cy="36.42" r="3.05"/><path class="cls-5" d="M472.92,208.43l2.58.08a14.36,14.36,0,0,1,.69-2.25q0-6.73-.08-13.45a3.78,3.78,0,0,1-.6-1.79,18.53,18.53,0,0,1,.65-3.66c-.09.42-.13-1.23-.17-1.52a7.77,7.77,0,0,1,.43-4.86l-.4-.06q0-3.92,0-7.85c0-6.62,0-13.24,0-19.86a4.34,4.34,0,0,1-.09-3.25l0-.07c-.12-.32.2-.89.25-1.21s.06-.78.08-1.17c-.21-.4-.24-.6-.2-.65a3.11,3.11,0,0,1,.06-2c-.36-7.81,1-15.45-3.56-22.94a3.17,3.17,0,0,0-2.36,2.83c-1.8,6.18-2.11,12.43-2.49,18.68-1.12,18.46-1.77,36.92-2.4,55.39-.11,3.18-.45,6.35-.43,9.53,0,.07,0,.14,0,.21C467.53,208.46,470.21,208.35,472.92,208.43Z"/><path class="cls-5" d="M158,169.08q0-3.24,0-6.47c0-4.89,0-9.78,0-14.67a2.93,2.93,0,0,1,.6-1.84c1.86-2.57,3.7-5.16,5.49-7.77.37-.54,1.13-1.32.54-1.85s-1.28.3-1.77.74c-1.57,1.42-3.08,2.9-4.85,4.58,0-3.19.12-6.14,0-9.07a24.87,24.87,0,0,0-1.5-8.63,3.1,3.1,0,0,0-.91,2.15,117.25,117.25,0,0,0-1.05,14.48c-.48,14-.74,28.05-1,42.08,0,2.42-.16,4.84-.19,7.26,0,.74-.15.94-.92.67a28.25,28.25,0,0,1-9.53-5.89c-6.39-5.67-10.85-12.53-12.49-21a38.06,38.06,0,0,1,1.35-18.3,54.47,54.47,0,0,1,14-23.79,31.28,31.28,0,0,1,3.89-3.15,10.12,10.12,0,0,1,10.64-1,47.94,47.94,0,0,1,17.93,14.31,37.86,37.86,0,0,1,8.18,16.83c1.42,7.59-.15,14.72-3.78,21.4-4.83,8.88-11.65,15.72-21.1,19.68-.77.32-1.58.53-2.37.79s-1.06.12-1.05-.76q0-6.77,0-13.54a2.27,2.27,0,0,1,.68-1.54c3.51-4.3,7.2-8.46,10.48-12.95a17.72,17.72,0,0,0,2.35-4.54c.12-.34.51-.81,0-1.13s-.72.13-1,.36c-1,.83-2,1.65-2.92,2.55C164.37,162.21,161.39,165.71,158,169.08Z"/><circle class="cls-4" cx="168.45" cy="134.3" r="2.08"/><path class="cls-8" d="M73.17,158.22q0-2.33,0-4.65c0-3.51,0-7,0-10.54a2.11,2.11,0,0,1,.43-1.32c1.34-1.85,2.66-3.71,3.95-5.59.27-.39.81-.95.39-1.33s-.92.22-1.27.54c-1.13,1-2.22,2.09-3.49,3.29,0-2.29.08-4.41,0-6.52a17.88,17.88,0,0,0-1.08-6.2,2.23,2.23,0,0,0-.66,1.55,84.29,84.29,0,0,0-.76,10.41c-.34,10.08-.53,20.16-.73,30.25,0,1.74-.11,3.48-.14,5.22,0,.53-.11.68-.66.48a20.3,20.3,0,0,1-6.85-4.23,26.69,26.69,0,0,1-9-15.11,27.36,27.36,0,0,1,1-13.15,39.15,39.15,0,0,1,10.09-17.1,22.48,22.48,0,0,1,2.79-2.26,7.27,7.27,0,0,1,7.65-.75,34.46,34.46,0,0,1,12.89,10.29,27.21,27.21,0,0,1,5.88,12.1,22.71,22.71,0,0,1-2.72,15.38,30.47,30.47,0,0,1-15.17,14.15c-.55.23-1.14.38-1.7.57s-.76.09-.76-.55q0-4.87,0-9.73a1.63,1.63,0,0,1,.49-1.11c2.52-3.09,5.17-6.08,7.53-9.31a12.73,12.73,0,0,0,1.69-3.26c.09-.24.37-.59,0-.81s-.52.1-.71.26c-.71.6-1.43,1.19-2.1,1.83C77.73,153.28,75.59,155.8,73.17,158.22Z"/><circle class="cls-10" cx="80.66" cy="133.22" r="1.5"/><path class="cls-8" d="M71.83,199.47l1.27,0a2.94,2.94,0,0,1,.34-.63q0-1.88,0-3.77a.81.81,0,0,1-.3-.5c0-.35.23-.68.32-1,0,.12-.06-.34-.08-.43a1.33,1.33,0,0,1,.21-1.36l-.2,0q0-1.1,0-2.2c0-1.85,0-3.71,0-5.56a.75.75,0,0,1,0-.91v0c-.06-.09.1-.25.12-.34a1.91,1.91,0,0,0,0-.33c-.11-.11-.12-.17-.1-.18a.53.53,0,0,1,0-.56c-.18-2.19.5-4.33-1.75-6.43-1,.22-1,.52-1.16.79a14.15,14.15,0,0,0-1.22,5.23c-.55,5.17-.87,10.34-1.18,15.52-.05.89-.22,1.78-.21,2.67a.41.41,0,0,1,0,.06C69.18,199.48,70.5,199.45,71.83,199.47Z"/><path class="cls-5" d="M360.52,110.8q0-4.61,0-9.21c0-7,0-13.92,0-20.88a4.17,4.17,0,0,1,.85-2.62c2.64-3.66,5.27-7.34,7.82-11.07.53-.77,1.61-1.88.76-2.64s-1.82.43-2.52,1.06c-2.24,2-4.39,4.13-6.9,6.51,0-4.54.17-8.74,0-12.91s-.44-8.25-2.14-12.28a4.41,4.41,0,0,0-1.3,3.06,166.9,166.9,0,0,0-1.5,20.61c-.68,20-1.05,39.93-1.44,59.89-.07,3.45-.22,6.89-.27,10.33,0,1.06-.21,1.34-1.31,1a40.21,40.21,0,0,1-13.56-8.38c-9.1-8.08-15.44-17.83-17.78-29.93-1.71-8.85-.61-17.52,1.93-26a77.53,77.53,0,0,1,20-33.86,44.52,44.52,0,0,1,5.53-4.48,14.4,14.4,0,0,1,15.15-1.49C374,42,382.29,49.14,389.27,57.81c5.7,7.08,9.95,14.93,11.64,24,2,10.81-.21,21-5.38,30.45-6.88,12.64-16.58,22.37-30,28-1.09.46-2.25.75-3.38,1.13s-1.51.17-1.5-1.08q0-9.63-.06-19.27a3.24,3.24,0,0,1,1-2.19c5-6.13,10.24-12,14.92-18.43a25.22,25.22,0,0,0,3.35-6.46c.17-.48.73-1.16,0-1.6-.53-.34-1,.19-1.41.51-1.41,1.18-2.84,2.35-4.16,3.63C369.55,101,365.31,106,360.52,110.8Z"/><circle class="cls-6" cx="384.49" cy="89.15" r="2.97"/><circle class="cls-7" cx="374.08" cy="60.91" r="2.52"/><path class="cls-5" d="M357.88,192.48l2.51,0a5.82,5.82,0,0,1,.67-1.25q0-3.73-.07-7.46a1.61,1.61,0,0,1-.59-1c-.06-.69.45-1.35.63-2-.09.23-.12-.68-.17-.84a2.64,2.64,0,0,1,.42-2.7l-.39,0q0-2.18,0-4.35c0-3.67,0-7.34,0-11a1.48,1.48,0,0,1-.09-1.8l0,0c-.12-.18.2-.49.24-.67a3.78,3.78,0,0,0,.08-.65c-.21-.22-.23-.33-.19-.36a1,1,0,0,1,.06-1.1c-.35-4.33,1-8.57-3.47-12.72-2,.43-2,1-2.29,1.57-1.76,3.43-2.05,6.9-2.42,10.36-1.09,10.24-1.72,20.48-2.34,30.72-.11,1.76-.43,3.52-.42,5.29a.81.81,0,0,1,0,.11C352.63,192.5,355.23,192.44,357.88,192.48Z"/><path class="cls-8" d="M423.34,139.2q0-3.48,0-7c0-5.25,0-10.51,0-15.76a3.15,3.15,0,0,1,.64-2c2-2.76,4-5.54,5.9-8.35.4-.58,1.22-1.42.58-2s-1.38.32-1.9.8c-1.69,1.52-3.31,3.12-5.21,4.92,0-3.43.13-6.6,0-9.74a26.73,26.73,0,0,0-1.62-9.27,3.33,3.33,0,0,0-1,2.31,126,126,0,0,0-1.13,15.56c-.51,15.07-.79,30.14-1.09,45.22-.05,2.6-.17,5.2-.2,7.8,0,.8-.16,1-1,.72A30.36,30.36,0,0,1,407,156.15c-6.87-6.1-11.66-13.46-13.42-22.6-1.29-6.68-.46-13.23,1.46-19.66a58.54,58.54,0,0,1,15.08-25.57,33.61,33.61,0,0,1,4.18-3.39,10.87,10.87,0,0,1,11.44-1.13c7.78,3.44,14,8.83,19.27,15.38a40.68,40.68,0,0,1,8.79,18.09c1.53,8.16-.16,15.82-4.06,23-5.19,9.54-12.52,16.89-22.67,21.15-.82.35-1.7.57-2.55.85s-1.14.13-1.13-.82q0-7.27,0-14.55a2.44,2.44,0,0,1,.73-1.65c3.77-4.63,7.73-9.09,11.26-13.92a19,19,0,0,0,2.53-4.88c.13-.36.55-.88,0-1.21s-.77.14-1.06.39c-1.07.89-2.14,1.78-3.14,2.74C430.15,131.82,427,135.58,423.34,139.2Z"/><circle class="cls-10" cx="441.43" cy="122.85" r="2.24"/><circle class="cls-4" cx="434.54" cy="101.83" r="2.24"/><path class="cls-8" d="M421.34,206.5l1.9,0a5.37,5.37,0,0,1,.51-1.09q0-3.25-.06-6.51a1.46,1.46,0,0,1-.44-.87,6.28,6.28,0,0,1,.48-1.77c-.07.2-.09-.59-.12-.74a2.59,2.59,0,0,1,.32-2.35l-.29,0q0-1.9,0-3.8c0-3.2,0-6.41,0-9.61a1.45,1.45,0,0,1-.07-1.57v0c-.09-.16.15-.43.18-.58a3.79,3.79,0,0,0,.06-.57c-.16-.19-.18-.29-.15-.32a1,1,0,0,1,0-1c-.27-3.78.74-7.47-2.62-11.1-1.54.38-1.53.91-1.73,1.37-1.33,3-1.55,6-1.83,9-.82,8.93-1.3,17.87-1.77,26.8-.08,1.54-.33,3.07-.31,4.61a.82.82,0,0,1,0,.1C417.38,206.52,419.34,206.47,421.34,206.5Z"/><path class="cls-5" d="M38.16,110.6q0-3.95,0-7.9c0-6,0-11.94,0-17.9a3.58,3.58,0,0,1,.73-2.24c2.27-3.14,4.51-6.29,6.7-9.49.45-.66,1.38-1.61.65-2.26s-1.56.37-2.16.91c-1.92,1.73-3.76,3.54-5.92,5.59,0-3.9.14-7.49,0-11.07s-.38-7.07-1.84-10.53a3.78,3.78,0,0,0-1.11,2.62A143.11,143.11,0,0,0,33.87,76c-.58,17.12-.9,34.24-1.23,51.36-.06,3-.19,5.91-.23,8.86,0,.91-.18,1.15-1.13.82a34.48,34.48,0,0,1-11.63-7.18c-7.8-6.93-13.24-15.29-15.25-25.66-1.47-7.59-.52-15,1.65-22.33a66.48,66.48,0,0,1,17.13-29A38.18,38.18,0,0,1,27.93,49a12.35,12.35,0,0,1,13-1.28c8.83,3.91,15.9,10,21.89,17.47,4.89,6.07,8.53,12.8,10,20.55,1.74,9.27-.18,18-4.62,26.11-5.9,10.84-14.22,19.18-25.75,24-.94.39-1.93.64-2.89,1s-1.29.15-1.29-.93q0-8.26-.05-16.52a2.77,2.77,0,0,1,.83-1.88c4.28-5.25,8.78-10.33,12.79-15.8a21.62,21.62,0,0,0,2.87-5.54c.15-.41.62-1,0-1.37s-.87.16-1.21.44c-1.21,1-2.43,2-3.57,3.11C45.9,102.22,42.26,106.49,38.16,110.6Z"/><circle class="cls-7" cx="58.71" cy="92.04" r="2.54"/><circle class="cls-4" cx="50.88" cy="68.16" r="2.54"/><path class="cls-5" d="M35.89,194.67l2.15.05a7.66,7.66,0,0,1,.58-1.44q0-4.29-.06-8.58a2.06,2.06,0,0,1-.5-1.14,9.35,9.35,0,0,1,.54-2.33c-.08.27-.1-.78-.14-1a3.89,3.89,0,0,1,.36-3.1l-.33,0q0-2.5,0-5c0-4.22,0-8.44,0-12.66a2.17,2.17,0,0,1-.08-2.07l0,0c-.1-.2.17-.57.21-.77a5.78,5.78,0,0,0,.06-.75c-.18-.25-.2-.38-.17-.42a1.55,1.55,0,0,1,.05-1.27c-.3-5,.84-9.85-3-14.63-1.75.5-1.74,1.19-2,1.8-1.51,3.94-1.76,7.93-2.08,11.91-.93,11.77-1.47,23.55-2,35.32-.09,2-.37,4.05-.36,6.08a1.25,1.25,0,0,1,0,.13C31.39,194.69,33.62,194.62,35.89,194.67Z"/><circle class="cls-4" cx="322.41" cy="144.08" r="2.77"/><circle class="cls-11" cx="313.88" cy="118.04" r="2.77"/><path class="cls-5" d="M202.58,107.47q0-3.95,0-7.9c0-6,0-11.94,0-17.9a3.58,3.58,0,0,1,.73-2.24c2.27-3.14,4.51-6.29,6.7-9.49.45-.66,1.38-1.61.65-2.26s-1.56.37-2.16.91c-1.92,1.73-3.76,3.54-5.92,5.59,0-3.9.14-7.49,0-11.07s-.38-7.07-1.84-10.53a3.78,3.78,0,0,0-1.11,2.62,143.11,143.11,0,0,0-1.28,17.67c-.58,17.12-.9,34.24-1.23,51.36-.06,3-.19,5.91-.23,8.86,0,.91-.18,1.15-1.13.82a34.48,34.48,0,0,1-11.63-7.18c-7.8-6.93-13.24-15.29-15.25-25.66-1.47-7.59-.52-15,1.65-22.33a66.48,66.48,0,0,1,17.13-29,38.18,38.18,0,0,1,4.74-3.85,12.35,12.35,0,0,1,13-1.28c8.83,3.91,15.9,10,21.89,17.47,4.89,6.07,8.53,12.8,10,20.55,1.74,9.27-.18,18-4.62,26.11-5.9,10.84-14.22,19.18-25.75,24-.94.39-1.93.64-2.89,1s-1.29.15-1.29-.93q0-8.26-.05-16.52a2.77,2.77,0,0,1,.83-1.88c4.28-5.25,8.78-10.33,12.79-15.8A21.62,21.62,0,0,0,219.11,93c.15-.41.62-1,0-1.37s-.87.16-1.21.44c-1.21,1-2.43,2-3.57,3.11C210.33,99.09,206.69,103.36,202.58,107.47Z"/><circle class="cls-12" cx="223.14" cy="88.91" r="2.54"/><circle class="cls-7" cx="215.31" cy="65.02" r="2.54"/><path class="cls-5" d="M200.31,193.83l2.15.05a8.17,8.17,0,0,1,.58-1.5q0-4.47-.06-8.93a2.19,2.19,0,0,1-.5-1.19,10.08,10.08,0,0,1,.54-2.43c-.08.28-.1-.81-.14-1a4.2,4.2,0,0,1,.36-3.23l-.33,0q0-2.61,0-5.21c0-4.4,0-8.79,0-13.19a2.35,2.35,0,0,1-.08-2.16l0,0c-.1-.21.17-.59.21-.8a6.26,6.26,0,0,0,.06-.78c-.18-.26-.2-.4-.17-.43a1.67,1.67,0,0,1,.05-1.32c-.3-5.19.84-10.26-3-15.24-1.75.52-1.74,1.24-2,1.88-1.51,4.11-1.76,8.26-2.08,12.41-.93,12.26-1.47,24.53-2,36.79-.09,2.11-.37,4.22-.36,6.33a1.36,1.36,0,0,1,0,.14C195.82,193.85,198,193.78,200.31,193.83Z"/><path class="cls-13" d="M516.74,141.09q0-3.49,0-7c0-5.27,0-10.54,0-15.82a3.16,3.16,0,0,1,.65-2c2-2.77,4-5.56,5.92-8.38.4-.58,1.22-1.42.58-2s-1.38.32-1.91.8c-1.69,1.53-3.33,3.13-5.23,4.93,0-3.44.13-6.62,0-9.78s-.34-6.25-1.62-9.3a3.34,3.34,0,0,0-1,2.32A126.42,126.42,0,0,0,513,110.52c-.51,15.12-.8,30.24-1.09,45.37-.05,2.61-.17,5.22-.2,7.83,0,.8-.16,1-1,.73a30.46,30.46,0,0,1-10.27-6.35c-6.89-6.12-11.7-13.51-13.47-22.67-1.29-6.7-.46-13.27,1.46-19.73a58.73,58.73,0,0,1,15.13-25.65,33.72,33.72,0,0,1,4.19-3.4,10.91,10.91,0,0,1,11.48-1.13c7.8,3.45,14,8.86,19.34,15.43a40.82,40.82,0,0,1,8.82,18.15c1.53,8.19-.16,15.87-4.08,23.07-5.21,9.57-12.56,16.95-22.75,21.22-.83.35-1.7.57-2.56.86s-1.14.13-1.14-.82q0-7.3,0-14.6a2.45,2.45,0,0,1,.73-1.66c3.78-4.64,7.76-9.12,11.3-14a19.1,19.1,0,0,0,2.54-4.89c.13-.36.55-.88,0-1.21s-.77.15-1.07.39c-1.07.89-2.15,1.78-3.15,2.75C523.58,133.69,520.37,137.46,516.74,141.09Z"/><circle class="cls-13" cx="534.9" cy="124.69" r="2.25"/><path class="cls-13" d="M514.74,203l1.9,0a4.41,4.41,0,0,1,.51-.95q0-2.83-.06-5.65a1.22,1.22,0,0,1-.44-.75c0-.52.34-1,.48-1.54-.07.18-.09-.51-.13-.64a2,2,0,0,1,.32-2l-.3,0q0-1.65,0-3.3c0-2.78,0-5.56,0-8.34a1.12,1.12,0,0,1-.07-1.37v0c-.09-.14.15-.37.18-.51a2.87,2.87,0,0,0,.06-.49c-.16-.17-.18-.25-.15-.27a.79.79,0,0,1,0-.84c-.27-3.28.75-6.49-2.63-9.64-1.54.33-1.53.79-1.74,1.19-1.33,2.6-1.56,5.22-1.84,7.85-.83,7.76-1.3,15.51-1.77,23.27-.08,1.33-.33,2.67-.31,4a.62.62,0,0,1,0,.09C510.76,203,512.73,202.94,514.74,203Z"/><path class="cls-13" d="M121.06,117.55q0-4.86,0-9.72c0-7.34,0-14.68,0-22a4.4,4.4,0,0,1,.9-2.76c2.79-3.86,5.55-7.74,8.25-11.67.55-.81,1.7-2,.8-2.78s-1.92.45-2.66,1.12c-2.36,2.13-4.63,4.36-7.28,6.87,0-4.79.18-9.22-.05-13.62s-.47-8.7-2.26-13a4.65,4.65,0,0,0-1.37,3.23A176.08,176.08,0,0,0,115.79,75c-.71,21.06-1.11,42.12-1.52,63.19-.07,3.63-.24,7.27-.28,10.9,0,1.12-.22,1.41-1.39,1a42.42,42.42,0,0,1-14.31-8.84c-9.6-8.52-16.29-18.81-18.76-31.57-1.8-9.33-.64-18.48,2-27.47a81.79,81.79,0,0,1,21.07-35.73,47,47,0,0,1,5.84-4.73,15.19,15.19,0,0,1,16-1.57C135.33,45,144,52.5,151.39,61.65c6,7.47,10.49,15.75,12.28,25.28,2.14,11.4-.22,22.1-5.68,32.13-7.26,13.33-17.49,23.6-31.68,29.55-1.15.48-2.37.79-3.56,1.19s-1.59.18-1.58-1.14q0-10.16-.07-20.33a3.41,3.41,0,0,1,1-2.31c5.27-6.46,10.81-12.71,15.74-19.44a26.6,26.6,0,0,0,3.53-6.81c.18-.5.77-1.22,0-1.69-.56-.36-1.08.2-1.48.54-1.49,1.24-3,2.48-4.39,3.83C130.59,107.24,126.11,112.5,121.06,117.55Z"/><circle class="cls-14" cx="136.71" cy="65.33" r="3.13"/><path class="cls-13" d="M118.27,203.73l2.65,0a6.14,6.14,0,0,1,.71-1.32q0-3.94-.08-7.87a1.7,1.7,0,0,1-.62-1c-.07-.73.48-1.42.67-2.14-.09.24-.13-.72-.17-.89a2.79,2.79,0,0,1,.44-2.84l-.41,0q0-2.3,0-4.59c0-3.87,0-7.75,0-11.62a1.56,1.56,0,0,1-.1-1.9l0,0c-.12-.19.21-.52.25-.71a4,4,0,0,0,.08-.68c-.22-.23-.25-.35-.2-.38a1.1,1.1,0,0,1,.06-1.16c-.37-4.57,1-9-3.66-13.42-2.15.46-2.13,1.1-2.42,1.65-1.85,3.62-2.17,7.28-2.56,10.93-1.15,10.8-1.81,21.61-2.47,32.41-.11,1.86-.46,3.72-.44,5.58a.86.86,0,0,1,0,.12C112.73,203.75,115.48,203.68,118.27,203.73Z"/><circle class="cls-4" cx="145.25" cy="94.46" r="2.54"/><circle class="cls-7" cx="175.31" cy="152.08" r="2.54"/><path class="cls-8" d="M252.49,105.76q0-4.86,0-9.72c0-7.34,0-14.68,0-22a4.4,4.4,0,0,1,.9-2.76c2.79-3.86,5.55-7.74,8.25-11.67.55-.81,1.7-2,.8-2.78s-1.92.45-2.66,1.12c-2.36,2.13-4.63,4.36-7.28,6.87,0-4.79.18-9.22-.05-13.62s-.47-8.7-2.26-13a4.65,4.65,0,0,0-1.37,3.23,176.08,176.08,0,0,0-1.58,21.74c-.71,21.06-1.11,42.12-1.52,63.19-.07,3.63-.24,7.27-.28,10.9,0,1.12-.22,1.41-1.39,1a42.42,42.42,0,0,1-14.31-8.84c-9.6-8.52-16.29-18.81-18.76-31.57-1.8-9.33-.64-18.48,2-27.47a81.79,81.79,0,0,1,21.07-35.73,47,47,0,0,1,5.84-4.73,15.19,15.19,0,0,1,16-1.57c10.87,4.81,19.56,12.34,26.93,21.49,6,7.47,10.49,15.75,12.28,25.28,2.14,11.4-.22,22.1-5.68,32.13-7.26,13.33-17.49,23.6-31.68,29.55-1.15.48-2.37.79-3.56,1.19s-1.59.18-1.58-1.14q0-10.16-.07-20.33a3.41,3.41,0,0,1,1-2.31c5.27-6.46,10.81-12.71,15.74-19.44A26.6,26.6,0,0,0,272.82,88c.18-.5.77-1.22,0-1.69-.56-.36-1.08.2-1.48.54-1.49,1.24-3,2.48-4.39,3.83C262,95.45,257.55,100.71,252.49,105.76Z"/><circle class="cls-15" cx="268.15" cy="53.54" r="3.13"/><path class="cls-8" d="M249.7,191.93l2.65,0a6.14,6.14,0,0,1,.71-1.32q0-3.94-.08-7.87a1.7,1.7,0,0,1-.62-1c-.07-.73.48-1.42.67-2.14-.09.24-.13-.72-.17-.89a2.79,2.79,0,0,1,.44-2.84l-.41,0q0-2.3,0-4.59c0-3.87,0-7.75,0-11.62a1.56,1.56,0,0,1-.1-1.9l0,0c-.12-.19.21-.52.25-.71a4,4,0,0,0,.08-.68c-.22-.23-.25-.35-.2-.38a1.1,1.1,0,0,1,.06-1.16c-.37-4.57,1-9-3.66-13.42-2.15.46-2.13,1.1-2.42,1.65-1.85,3.62-2.17,7.28-2.56,10.93-1.15,10.8-1.81,21.61-2.47,32.41-.11,1.86-.46,3.72-.44,5.58a.86.86,0,0,1,0,.12C244.17,192,246.91,191.89,249.7,191.93Z"/><circle class="cls-10" cx="276" cy="82.64" r="2.54"/><path class="cls-13" d="M300,164.32q0-4.31,0-8.61c0-6.51,0-13,0-19.52a3.9,3.9,0,0,1,.8-2.45c2.47-3.42,4.92-6.86,7.31-10.35.49-.72,1.51-1.76.71-2.46s-1.7.4-2.36,1c-2.09,1.89-4.1,3.86-6.45,6.09,0-4.25.16-8.17,0-12.07s-.41-7.71-2-11.49a4.12,4.12,0,0,0-1.22,2.86,156,156,0,0,0-1.4,19.27c-.63,18.66-1,37.33-1.34,56-.06,3.22-.21,6.44-.25,9.66,0,1-.2,1.25-1.23.9a37.59,37.59,0,0,1-12.68-7.83c-8.5-7.55-14.44-16.67-16.63-28-1.6-8.27-.57-16.38,1.8-24.35a72.49,72.49,0,0,1,18.67-31.66,41.63,41.63,0,0,1,5.17-4.19A13.46,13.46,0,0,1,303,95.73c9.63,4.26,17.33,10.93,23.87,19,5.33,6.62,9.3,14,10.88,22.4,1.89,10.1-.2,19.59-5,28.47-6.43,11.82-15.5,20.92-28.08,26.19-1,.43-2.1.7-3.16,1.06s-1.41.16-1.4-1q0-9-.06-18a3,3,0,0,1,.9-2c4.67-5.73,9.58-11.26,13.95-17.23a23.58,23.58,0,0,0,3.13-6c.16-.45.68-1.08,0-1.5-.49-.32-1,.18-1.32.48-1.32,1.1-2.65,2.2-3.89,3.39C308.45,155.18,304.48,159.84,300,164.32Z"/><circle class="cls-4" cx="527.98" cy="103.6" r="2.25"/><circle class="cls-4" cx="311.47" cy="117.9" r="2.25"/><circle class="cls-14" cx="322.59" cy="141.59" r="3.13"/></g></g><g class="cls-2"><g class="cls-16"><path class="cls-5" d="M1287.21,127q0-3.8,0-7.6c0-5.74,0-11.48,0-17.22a3.44,3.44,0,0,0-.7-2.16c-2.18-3-4.34-6.05-6.45-9.13-.43-.63-1.33-1.55-.63-2.17s1.5.35,2.08.87c1.84,1.67,3.62,3.41,5.69,5.37,0-3.75-.14-7.21,0-10.65s.37-6.81,1.77-10.13a3.64,3.64,0,0,1,1.07,2.52,137.68,137.68,0,0,1,1.24,17c.56,16.47.87,32.94,1.19,49.41.06,2.84.19,5.68.22,8.53,0,.87.17,1.1,1.08.79a33.17,33.17,0,0,0,11.19-6.91c7.5-6.66,12.74-14.71,14.67-24.69,1.41-7.3.5-14.45-1.59-21.48a64,64,0,0,0-16.48-27.93,36.73,36.73,0,0,0-4.56-3.7,11.88,11.88,0,0,0-12.5-1.23c-8.5,3.76-15.29,9.65-21.06,16.8-4.7,5.84-8.21,12.32-9.6,19.77-1.67,8.91.17,17.28,4.44,25.12,5.67,10.43,13.68,18.45,24.77,23.11.9.38,1.86.62,2.78.93s1.24.14,1.24-.89q0-7.95.05-15.9a2.67,2.67,0,0,0-.8-1.81c-4.12-5.05-8.45-9.94-12.3-15.2a20.8,20.8,0,0,1-2.76-5.33c-.14-.39-.6-1,0-1.32s.84.16,1.16.42c1.17,1,2.34,1.94,3.43,3C1279.76,119,1283.26,123.06,1287.21,127Z"/><circle class="cls-6" cx="1267.94" cy="109.15" r="2.45"/><circle class="cls-7" cx="1276.03" cy="85.86" r="2.08"/><path class="cls-5" d="M1289.39,194.4l-2.07,0a4.8,4.8,0,0,0-.55-1q0-3.08.06-6.15a1.33,1.33,0,0,0,.48-.82c.05-.57-.37-1.11-.52-1.67.07.19.1-.56.14-.7a2.18,2.18,0,0,0-.35-2.22l.32,0q0-1.8,0-3.59c0-3,0-6.06,0-9.09a1.22,1.22,0,0,0,.08-1.49v0c.1-.15-.16-.41-.2-.55a3.12,3.12,0,0,1-.06-.53c.17-.18.19-.27.16-.3a.86.86,0,0,0,0-.91c.29-3.57-.81-7.07,2.86-10.5,1.68.36,1.67.86,1.89,1.29,1.45,2.83,1.7,5.69,2,8.55.9,8.45,1.42,16.89,1.93,25.34.09,1.45.36,2.91.34,4.36a.67.67,0,0,0,0,.09C1293.72,194.41,1291.57,194.36,1289.39,194.4Z"/><circle class="cls-4" cx="1318.65" cy="154.47" r="2.29"/><path class="cls-8" d="M1221.09,117q0-5.24,0-10.48c0-7.92,0-15.83,0-23.75a4.74,4.74,0,0,0-1-3c-3-4.16-6-8.35-8.89-12.59-.6-.87-1.83-2.14-.87-3s2.07.49,2.87,1.21c2.54,2.3,5,4.7,7.85,7.41,0-5.17-.19-9.94.05-14.68s.5-9.39,2.44-14a5,5,0,0,1,1.48,3.48c1.23,7.77,1.44,15.61,1.7,23.45.77,22.71,1.2,45.42,1.64,68.14.08,3.92.26,7.84.31,11.76,0,1.2.24,1.52,1.5,1.09a45.74,45.74,0,0,0,15.43-9.53c10.35-9.19,17.57-20.28,20.23-34,1.94-10.06.69-19.93-2.19-29.63C1259.3,64.17,1252,51.17,1241,40.35a50.65,50.65,0,0,0-6.3-5.1c-5.44-3.86-11.12-4.4-17.24-1.7-11.72,5.19-21.09,13.3-29,23.17-6.49,8.06-11.32,17-13.24,27.26-2.3,12.29.24,23.83,6.12,34.65,7.82,14.38,18.86,25.45,34.17,31.87,1.24.52,2.56.85,3.84,1.29s1.71.19,1.71-1.23q0-11,.07-21.92a3.68,3.68,0,0,0-1.1-2.49c-5.68-7-11.65-13.7-17-21a28.69,28.69,0,0,1-3.81-7.35c-.19-.54-.83-1.32,0-1.82.6-.38,1.16.22,1.6.59,1.61,1.34,3.23,2.68,4.73,4.13C1210.82,105.89,1215.64,111.56,1221.09,117Z"/><circle class="cls-9" cx="1204.21" cy="60.69" r="3.38"/><path class="cls-8" d="M1224.11,209.93l-2.86.05a6.62,6.62,0,0,0-.76-1.42q0-4.24.09-8.49a1.83,1.83,0,0,0,.67-1.13c.07-.78-.51-1.53-.72-2.31.1.26.14-.77.19-1a3,3,0,0,0-.48-3.07l.44,0q0-2.48,0-5c0-4.18,0-8.35,0-12.53a1.69,1.69,0,0,0,.1-2.05l0,0c.13-.2-.22-.56-.27-.76a4.3,4.3,0,0,1-.09-.74c.24-.25.26-.38.22-.41a1.18,1.18,0,0,0-.07-1.26c.4-4.93-1.12-9.75,3.94-14.48,2.32.49,2.3,1.18,2.61,1.78,2,3.9,2.34,7.85,2.76,11.78,1.24,11.65,2,23.3,2.66,35,.12,2,.49,4,.47,6a.93.93,0,0,0,0,.13C1230.07,210,1227.11,209.89,1224.11,209.93Z"/><circle class="cls-10" cx="1195.75" cy="92.08" r="2.74"/><path class="cls-5" d="M1127.47,82.18q0-4.73,0-9.47c0-7.15,0-14.31,0-21.46a4.29,4.29,0,0,1,.88-2.69c2.72-3.76,5.41-7.54,8-11.37.54-.79,1.66-1.93.78-2.71s-1.87.44-2.59,1.09c-2.3,2.08-4.51,4.24-7.09,6.7,0-4.67.17-9,0-13.27s-.46-8.48-2.2-12.63a4.53,4.53,0,0,0-1.34,3.15,171.54,171.54,0,0,0-1.54,21.18c-.7,20.52-1.08,41-1.48,61.56-.07,3.54-.23,7.08-.28,10.62,0,1.09-.21,1.38-1.35,1a41.32,41.32,0,0,1-13.94-8.61c-9.35-8.3-15.87-18.33-18.28-30.76-1.76-9.09-.63-18,2-26.77a79.69,79.69,0,0,1,20.53-34.81,45.76,45.76,0,0,1,5.69-4.61,14.8,14.8,0,0,1,15.57-1.53c10.59,4.69,19.06,12,26.24,20.94,5.86,7.28,10.22,15.35,12,24.63,2.08,11.11-.22,21.53-5.53,31.3-7.07,13-17,23-30.87,28.79-1.12.47-2.31.77-3.47,1.16s-1.55.18-1.54-1.11q0-9.9-.06-19.81a3.33,3.33,0,0,1,1-2.25c5.13-6.3,10.53-12.38,15.33-18.94a25.92,25.92,0,0,0,3.44-6.64c.18-.49.75-1.19,0-1.65-.54-.35-1,.2-1.45.53-1.45,1.21-2.92,2.42-4.28,3.73C1136.75,72.13,1132.4,77.25,1127.47,82.18Z"/><circle class="cls-4" cx="1142.72" cy="31.3" r="3.05"/><path class="cls-5" d="M1124.75,203.31l2.58.08a14.36,14.36,0,0,1,.69-2.25q0-6.73-.08-13.45a3.78,3.78,0,0,1-.6-1.79,18.53,18.53,0,0,1,.65-3.66c-.09.42-.13-1.23-.17-1.52a7.77,7.77,0,0,1,.43-4.86l-.4-.06q0-3.92,0-7.85c0-6.62,0-13.24,0-19.86a4.34,4.34,0,0,1-.09-3.25l0-.07c-.12-.32.2-.89.25-1.21s.06-.78.08-1.17c-.21-.4-.24-.6-.2-.65a3.11,3.11,0,0,1,.06-2c-.36-7.81,1-15.45-3.56-22.94a3.17,3.17,0,0,0-2.36,2.83c-1.8,6.18-2.11,12.43-2.49,18.68-1.12,18.46-1.77,36.92-2.4,55.39-.11,3.18-.45,6.35-.43,9.53,0,.07,0,.14,0,.21C1119.36,203.34,1122,203.24,1124.75,203.31Z"/><path class="cls-5" d="M809.86,164q0-3.24,0-6.47c0-4.89,0-9.78,0-14.67a2.93,2.93,0,0,1,.6-1.84c1.86-2.57,3.7-5.16,5.49-7.77.37-.54,1.13-1.32.54-1.85s-1.28.3-1.77.74c-1.57,1.42-3.08,2.9-4.85,4.58,0-3.19.12-6.14,0-9.07a24.87,24.87,0,0,0-1.5-8.63,3.1,3.1,0,0,0-.91,2.15,117.25,117.25,0,0,0-1.05,14.48c-.48,14-.74,28.05-1,42.08,0,2.42-.16,4.84-.19,7.26,0,.74-.15.94-.92.67a28.25,28.25,0,0,1-9.53-5.89c-6.39-5.67-10.85-12.53-12.49-21a38.06,38.06,0,0,1,1.35-18.3,54.47,54.47,0,0,1,14-23.79,31.28,31.28,0,0,1,3.89-3.15,10.12,10.12,0,0,1,10.64-1,47.94,47.94,0,0,1,17.93,14.31,37.86,37.86,0,0,1,8.18,16.83c1.42,7.59-.15,14.72-3.78,21.4-4.83,8.88-11.65,15.72-21.1,19.68-.77.32-1.58.53-2.37.79s-1.06.12-1.05-.76q0-6.77,0-13.54a2.27,2.27,0,0,1,.68-1.54c3.51-4.3,7.2-8.46,10.48-12.95a17.72,17.72,0,0,0,2.35-4.54c.12-.34.51-.81,0-1.13s-.72.13-1,.36c-1,.83-2,1.65-2.92,2.55C816.2,157.1,813.22,160.6,809.86,164Z"/><circle class="cls-4" cx="820.28" cy="129.18" r="2.08"/><path class="cls-8" d="M725,153.1q0-2.33,0-4.65c0-3.51,0-7,0-10.54a2.11,2.11,0,0,1,.43-1.32c1.34-1.85,2.66-3.71,3.95-5.59.27-.39.81-.95.39-1.33s-.92.22-1.27.54c-1.13,1-2.22,2.09-3.49,3.29,0-2.29.08-4.41,0-6.52a17.88,17.88,0,0,0-1.08-6.2,2.23,2.23,0,0,0-.66,1.55,84.29,84.29,0,0,0-.76,10.41c-.34,10.08-.53,20.16-.73,30.25,0,1.74-.11,3.48-.14,5.22,0,.53-.11.68-.66.48a20.3,20.3,0,0,1-6.85-4.23,26.69,26.69,0,0,1-9-15.11,27.36,27.36,0,0,1,1-13.15,39.15,39.15,0,0,1,10.09-17.1A22.48,22.48,0,0,1,719,116.8a7.27,7.27,0,0,1,7.65-.75,34.46,34.46,0,0,1,12.89,10.29,27.21,27.21,0,0,1,5.88,12.1,22.71,22.71,0,0,1-2.72,15.38A30.47,30.47,0,0,1,727.51,168c-.55.23-1.14.38-1.7.57s-.76.09-.76-.55q0-4.87,0-9.73a1.63,1.63,0,0,1,.49-1.11c2.52-3.09,5.17-6.08,7.53-9.31a12.73,12.73,0,0,0,1.69-3.26c.09-.24.37-.59,0-.81s-.52.1-.71.26c-.71.6-1.43,1.19-2.1,1.83C729.55,148.16,727.41,150.68,725,153.1Z"/><circle class="cls-10" cx="732.49" cy="128.1" r="1.5"/><path class="cls-8" d="M723.66,194.35l1.27,0a2.94,2.94,0,0,1,.34-.63q0-1.88,0-3.77a.81.81,0,0,1-.3-.5c0-.35.23-.68.32-1,0,.12-.06-.34-.08-.43a1.33,1.33,0,0,1,.21-1.36l-.2,0q0-1.1,0-2.2c0-1.85,0-3.71,0-5.56a.75.75,0,0,1,0-.91v0c-.06-.09.1-.25.12-.34a1.91,1.91,0,0,0,0-.33c-.11-.11-.12-.17-.1-.18a.53.53,0,0,1,0-.56c-.18-2.19.5-4.33-1.75-6.43-1,.22-1,.52-1.16.79a14.15,14.15,0,0,0-1.22,5.23c-.55,5.17-.87,10.34-1.18,15.52-.05.89-.22,1.78-.21,2.67a.41.41,0,0,1,0,.06C721,194.36,722.32,194.33,723.66,194.35Z"/><path class="cls-5" d="M1012.35,105.68q0-4.61,0-9.21c0-7,0-13.92,0-20.88a4.17,4.17,0,0,1,.85-2.62c2.64-3.66,5.27-7.34,7.82-11.07.53-.77,1.61-1.88.76-2.64s-1.82.43-2.52,1.06c-2.24,2-4.39,4.13-6.9,6.51,0-4.54.17-8.74,0-12.91s-.44-8.25-2.14-12.28a4.41,4.41,0,0,0-1.3,3.06,166.9,166.9,0,0,0-1.5,20.61c-.68,20-1.05,39.93-1.44,59.89-.07,3.45-.22,6.89-.27,10.33,0,1.06-.21,1.34-1.31,1a40.21,40.21,0,0,1-13.56-8.38c-9.1-8.08-15.44-17.83-17.78-29.93-1.71-8.85-.61-17.52,1.93-26a77.53,77.53,0,0,1,20-33.86,44.52,44.52,0,0,1,5.53-4.48,14.4,14.4,0,0,1,15.15-1.49c10.3,4.56,18.54,11.69,25.53,20.37,5.7,7.08,9.95,14.93,11.64,24,2,10.81-.21,21-5.38,30.45-6.88,12.64-16.58,22.37-30,28-1.09.46-2.25.75-3.38,1.13s-1.51.17-1.5-1.08q0-9.63-.06-19.27a3.24,3.24,0,0,1,1-2.19c5-6.13,10.24-12,14.92-18.43a25.22,25.22,0,0,0,3.35-6.46c.17-.48.73-1.16,0-1.6-.53-.34-1,.19-1.41.51-1.41,1.18-2.84,2.35-4.16,3.63C1021.38,95.91,1017.14,100.89,1012.35,105.68Z"/><circle class="cls-6" cx="1036.32" cy="84.03" r="2.97"/><circle class="cls-7" cx="1025.91" cy="55.79" r="2.52"/><path class="cls-5" d="M1009.7,187.36l2.51,0a5.82,5.82,0,0,1,.67-1.25q0-3.73-.07-7.46a1.61,1.61,0,0,1-.59-1c-.06-.69.45-1.35.63-2-.09.23-.12-.68-.17-.84a2.64,2.64,0,0,1,.42-2.7l-.39,0q0-2.18,0-4.35c0-3.67,0-7.34,0-11a1.48,1.48,0,0,1-.09-1.8l0,0c-.12-.18.2-.49.24-.67a3.78,3.78,0,0,0,.08-.65c-.21-.22-.23-.33-.19-.36a1,1,0,0,1,.06-1.1c-.35-4.33,1-8.57-3.47-12.72-2,.43-2,1-2.29,1.57-1.76,3.43-2.05,6.9-2.42,10.36-1.09,10.24-1.72,20.48-2.34,30.72-.11,1.76-.43,3.52-.42,5.29a.81.81,0,0,1,0,.11C1004.46,187.38,1007.06,187.32,1009.7,187.36Z"/><path class="cls-8" d="M1075.16,134.08q0-3.48,0-7c0-5.25,0-10.51,0-15.76a3.15,3.15,0,0,1,.64-2c2-2.76,4-5.54,5.9-8.35.4-.58,1.22-1.42.58-2s-1.38.32-1.9.8c-1.69,1.52-3.31,3.12-5.21,4.92,0-3.43.13-6.6,0-9.74a26.73,26.73,0,0,0-1.62-9.27,3.33,3.33,0,0,0-1,2.31,126,126,0,0,0-1.13,15.56c-.51,15.07-.79,30.14-1.09,45.22-.05,2.6-.17,5.2-.2,7.8,0,.8-.16,1-1,.72a30.36,30.36,0,0,1-10.24-6.33c-6.87-6.1-11.66-13.46-13.42-22.6-1.29-6.68-.46-13.23,1.46-19.66A58.54,58.54,0,0,1,1062,83.21a33.61,33.61,0,0,1,4.18-3.39,10.87,10.87,0,0,1,11.44-1.13c7.78,3.44,14,8.83,19.27,15.38a40.68,40.68,0,0,1,8.79,18.09c1.53,8.16-.16,15.82-4.06,23-5.19,9.54-12.52,16.89-22.67,21.15-.82.35-1.7.57-2.55.85s-1.14.13-1.13-.82q0-7.27,0-14.55a2.44,2.44,0,0,1,.73-1.65c3.77-4.63,7.73-9.09,11.26-13.92a19,19,0,0,0,2.53-4.88c.13-.36.55-.88,0-1.21s-.77.14-1.06.39c-1.07.89-2.14,1.78-3.14,2.74C1082,126.7,1078.78,130.47,1075.16,134.08Z"/><circle class="cls-10" cx="1093.26" cy="117.74" r="2.24"/><circle class="cls-4" cx="1086.37" cy="96.71" r="2.24"/><path class="cls-8" d="M1073.17,201.38l1.9,0a5.37,5.37,0,0,1,.51-1.09q0-3.25-.06-6.51a1.46,1.46,0,0,1-.44-.87,6.28,6.28,0,0,1,.48-1.77c-.07.2-.09-.59-.12-.74a2.59,2.59,0,0,1,.32-2.35l-.29,0q0-1.9,0-3.8c0-3.2,0-6.41,0-9.61a1.45,1.45,0,0,1-.07-1.57v0c-.09-.16.15-.43.18-.58a3.79,3.79,0,0,0,.06-.57c-.16-.19-.18-.29-.15-.32a1,1,0,0,1,0-1c-.27-3.78.74-7.47-2.62-11.1-1.54.38-1.53.91-1.73,1.37-1.33,3-1.55,6-1.83,9-.82,8.93-1.3,17.87-1.77,26.8-.08,1.54-.33,3.07-.31,4.61a.82.82,0,0,1,0,.1C1069.21,201.4,1071.17,201.35,1073.17,201.38Z"/><path class="cls-5" d="M690,105.48q0-3.95,0-7.9c0-6,0-11.94,0-17.9a3.58,3.58,0,0,1,.73-2.24c2.27-3.14,4.51-6.29,6.7-9.49.45-.66,1.38-1.61.65-2.26s-1.56.37-2.16.91c-1.92,1.73-3.76,3.54-5.92,5.59,0-3.9.14-7.49,0-11.07s-.38-7.07-1.84-10.53A3.78,3.78,0,0,0,687,53.21a143.11,143.11,0,0,0-1.28,17.67c-.58,17.12-.9,34.24-1.23,51.36-.06,3-.19,5.91-.23,8.86,0,.91-.18,1.15-1.13.82a34.48,34.48,0,0,1-11.63-7.18c-7.8-6.93-13.24-15.29-15.25-25.66-1.47-7.59-.52-15,1.65-22.33A66.48,66.48,0,0,1,675,47.7a38.18,38.18,0,0,1,4.74-3.85,12.35,12.35,0,0,1,13-1.28c8.83,3.91,15.9,10,21.89,17.47,4.89,6.07,8.53,12.8,10,20.55,1.74,9.27-.18,18-4.62,26.11-5.9,10.84-14.22,19.18-25.75,24-.94.39-1.93.64-2.89,1s-1.29.15-1.29-.93q0-8.26-.05-16.52a2.77,2.77,0,0,1,.83-1.88c4.28-5.25,8.78-10.33,12.79-15.8A21.62,21.62,0,0,0,706.51,91c.15-.41.62-1,0-1.37s-.87.16-1.21.44c-1.21,1-2.43,2-3.57,3.11C697.73,97.1,694.09,101.38,690,105.48Z"/><circle class="cls-7" cx="710.54" cy="86.92" r="2.54"/><circle class="cls-4" cx="702.71" cy="63.04" r="2.54"/><path class="cls-5" d="M687.71,189.55l2.15.05a7.66,7.66,0,0,1,.58-1.44q0-4.29-.06-8.58a2.06,2.06,0,0,1-.5-1.14,9.35,9.35,0,0,1,.54-2.33c-.08.27-.1-.78-.14-1a3.89,3.89,0,0,1,.36-3.1l-.33,0q0-2.5,0-5c0-4.22,0-8.44,0-12.66a2.17,2.17,0,0,1-.08-2.07l0,0c-.1-.2.17-.57.21-.77a5.78,5.78,0,0,0,.06-.75c-.18-.25-.2-.38-.17-.42a1.55,1.55,0,0,1,.05-1.27c-.3-5,.84-9.85-3-14.63-1.75.5-1.74,1.19-2,1.8-1.51,3.94-1.76,7.93-2.08,11.91-.93,11.77-1.47,23.55-2,35.32-.09,2-.37,4.05-.36,6.08a1.25,1.25,0,0,1,0,.13C683.21,189.57,685.45,189.5,687.71,189.55Z"/><circle class="cls-4" cx="974.24" cy="138.96" r="2.77"/><circle class="cls-11" cx="965.7" cy="112.92" r="2.77"/><path class="cls-5" d="M854.41,102.35q0-3.95,0-7.9c0-6,0-11.94,0-17.9a3.58,3.58,0,0,1,.73-2.24c2.27-3.14,4.51-6.29,6.7-9.49.45-.66,1.38-1.61.65-2.26s-1.56.37-2.16.91c-1.92,1.73-3.76,3.54-5.92,5.59,0-3.9.14-7.49,0-11.07s-.38-7.07-1.84-10.53a3.78,3.78,0,0,0-1.11,2.62,143.11,143.11,0,0,0-1.28,17.67c-.58,17.12-.9,34.24-1.23,51.36-.06,3-.19,5.91-.23,8.86,0,.91-.18,1.15-1.13.82a34.48,34.48,0,0,1-11.63-7.18c-7.8-6.93-13.24-15.29-15.25-25.66-1.47-7.59-.52-15,1.65-22.33a66.48,66.48,0,0,1,17.13-29,38.18,38.18,0,0,1,4.74-3.85,12.35,12.35,0,0,1,13-1.28c8.83,3.91,15.9,10,21.89,17.47,4.89,6.07,8.53,12.8,10,20.55,1.74,9.27-.18,18-4.62,26.11-5.9,10.84-14.22,19.18-25.75,24-.94.39-1.93.64-2.89,1s-1.29.15-1.29-.93q0-8.26-.05-16.52a2.77,2.77,0,0,1,.83-1.88c4.28-5.25,8.78-10.33,12.79-15.8a21.62,21.62,0,0,0,2.87-5.54c.15-.41.62-1,0-1.37s-.87.16-1.21.44c-1.21,1-2.43,2-3.57,3.11C862.15,94,858.52,98.24,854.41,102.35Z"/><circle class="cls-12" cx="874.97" cy="83.79" r="2.54"/><circle class="cls-7" cx="867.14" cy="59.9" r="2.54"/><path class="cls-5" d="M852.14,188.71l2.15.05a8.17,8.17,0,0,1,.58-1.5q0-4.47-.06-8.93a2.19,2.19,0,0,1-.5-1.19,10.08,10.08,0,0,1,.54-2.43c-.08.28-.1-.81-.14-1a4.2,4.2,0,0,1,.36-3.23l-.33,0q0-2.61,0-5.21c0-4.4,0-8.79,0-13.19a2.35,2.35,0,0,1-.08-2.16l0,0c-.1-.21.17-.59.21-.8a6.26,6.26,0,0,0,.06-.78c-.18-.26-.2-.4-.17-.43a1.67,1.67,0,0,1,.05-1.32c-.3-5.19.84-10.26-3-15.24-1.75.52-1.74,1.24-2,1.88-1.51,4.11-1.76,8.26-2.08,12.41-.93,12.26-1.47,24.53-2,36.79-.09,2.11-.37,4.22-.36,6.33a1.36,1.36,0,0,1,0,.14C847.64,188.73,849.87,188.66,852.14,188.71Z"/><path class="cls-13" d="M1168.57,136q0-3.49,0-7c0-5.27,0-10.54,0-15.82a3.16,3.16,0,0,1,.65-2c2-2.77,4-5.56,5.92-8.38.4-.58,1.22-1.42.58-2s-1.38.32-1.91.8c-1.69,1.53-3.33,3.13-5.23,4.93,0-3.44.13-6.62,0-9.78s-.34-6.25-1.62-9.3a3.34,3.34,0,0,0-1,2.32,126.42,126.42,0,0,0-1.14,15.61c-.51,15.12-.8,30.24-1.09,45.37-.05,2.61-.17,5.22-.2,7.83,0,.8-.16,1-1,.73a30.46,30.46,0,0,1-10.27-6.35c-6.89-6.12-11.7-13.51-13.47-22.67-1.29-6.7-.46-13.27,1.46-19.73a58.73,58.73,0,0,1,15.13-25.65,33.72,33.72,0,0,1,4.19-3.4A10.91,10.91,0,0,1,1171,80.41c7.8,3.45,14,8.86,19.34,15.43a40.82,40.82,0,0,1,8.82,18.15c1.53,8.19-.16,15.87-4.08,23.07-5.21,9.57-12.56,16.95-22.75,21.22-.83.35-1.7.57-2.56.86s-1.14.13-1.14-.82q0-7.3,0-14.6a2.45,2.45,0,0,1,.73-1.66c3.78-4.64,7.76-9.12,11.3-14a19.1,19.1,0,0,0,2.54-4.89c.13-.36.55-.88,0-1.21s-.77.15-1.07.39c-1.07.89-2.15,1.78-3.15,2.75C1175.41,128.57,1172.2,132.35,1168.57,136Z"/><circle class="cls-13" cx="1186.73" cy="119.57" r="2.25"/><path class="cls-13" d="M1166.56,197.85l1.9,0a4.41,4.41,0,0,1,.51-.95q0-2.83-.06-5.65a1.22,1.22,0,0,1-.44-.75c0-.52.34-1,.48-1.54-.07.18-.09-.51-.13-.64a2,2,0,0,1,.32-2l-.3,0q0-1.65,0-3.3c0-2.78,0-5.56,0-8.34a1.12,1.12,0,0,1-.07-1.37v0c-.09-.14.15-.37.18-.51a2.87,2.87,0,0,0,.06-.49c-.16-.17-.18-.25-.15-.27a.79.79,0,0,1,0-.84c-.27-3.28.75-6.49-2.63-9.64-1.54.33-1.53.79-1.74,1.19-1.33,2.6-1.56,5.22-1.84,7.85-.83,7.76-1.3,15.51-1.77,23.27-.08,1.33-.33,2.67-.31,4a.62.62,0,0,1,0,.09C1162.59,197.86,1164.56,197.82,1166.56,197.85Z"/><path class="cls-13" d="M772.89,112.43q0-4.86,0-9.72c0-7.34,0-14.68,0-22a4.4,4.4,0,0,1,.9-2.76c2.79-3.86,5.55-7.74,8.25-11.67.55-.81,1.7-2,.8-2.78s-1.92.45-2.66,1.12c-2.36,2.13-4.63,4.36-7.28,6.87,0-4.79.18-9.22-.05-13.62s-.47-8.7-2.26-13a4.65,4.65,0,0,0-1.37,3.23,176.08,176.08,0,0,0-1.58,21.74C766.9,90.92,766.51,112,766.1,133c-.07,3.63-.24,7.27-.28,10.9,0,1.12-.22,1.41-1.39,1a42.42,42.42,0,0,1-14.31-8.84c-9.6-8.52-16.29-18.81-18.76-31.57-1.8-9.33-.64-18.48,2-27.47a81.79,81.79,0,0,1,21.07-35.73,47,47,0,0,1,5.84-4.73,15.19,15.19,0,0,1,16-1.57c10.87,4.81,19.56,12.34,26.93,21.49,6,7.47,10.49,15.75,12.28,25.28,2.14,11.4-.22,22.1-5.68,32.13-7.26,13.33-17.49,23.6-31.68,29.55-1.15.48-2.37.79-3.56,1.19s-1.59.18-1.58-1.14q0-10.16-.07-20.33a3.41,3.41,0,0,1,1-2.31c5.27-6.46,10.81-12.71,15.74-19.44a26.6,26.6,0,0,0,3.53-6.81c.18-.5.77-1.22,0-1.69-.56-.36-1.08.2-1.48.54-1.49,1.24-3,2.48-4.39,3.83C782.41,102.12,777.94,107.38,772.89,112.43Z"/><circle class="cls-14" cx="788.54" cy="60.21" r="3.13"/><path class="cls-13" d="M770.09,198.61l2.65,0a6.14,6.14,0,0,1,.71-1.32q0-3.94-.08-7.87a1.7,1.7,0,0,1-.62-1c-.07-.73.48-1.42.67-2.14-.09.24-.13-.72-.17-.89a2.79,2.79,0,0,1,.44-2.84l-.41,0q0-2.3,0-4.59c0-3.87,0-7.75,0-11.62a1.56,1.56,0,0,1-.1-1.9l0,0c-.12-.19.21-.52.25-.71a4,4,0,0,0,.08-.68c-.22-.23-.25-.35-.2-.38a1.1,1.1,0,0,1,.06-1.16c-.37-4.57,1-9-3.66-13.42-2.15.46-2.13,1.1-2.42,1.65-1.85,3.62-2.17,7.28-2.56,10.93-1.15,10.8-1.81,21.61-2.47,32.41-.11,1.86-.46,3.72-.44,5.58a.86.86,0,0,1,0,.12C764.56,198.63,767.31,198.56,770.09,198.61Z"/><circle class="cls-4" cx="797.07" cy="89.34" r="2.54"/><circle class="cls-7" cx="827.14" cy="146.96" r="2.54"/><path class="cls-8" d="M904.32,100.64q0-4.86,0-9.72c0-7.34,0-14.68,0-22a4.4,4.4,0,0,1,.9-2.76c2.79-3.86,5.55-7.74,8.25-11.67.55-.81,1.7-2,.8-2.78s-1.92.45-2.66,1.12c-2.36,2.13-4.63,4.36-7.28,6.87,0-4.79.18-9.22-.05-13.62s-.47-8.7-2.26-13a4.65,4.65,0,0,0-1.37,3.23,176.08,176.08,0,0,0-1.58,21.74c-.71,21.06-1.11,42.12-1.52,63.19-.07,3.63-.24,7.27-.28,10.9,0,1.12-.22,1.41-1.39,1a42.42,42.42,0,0,1-14.31-8.84c-9.6-8.52-16.29-18.81-18.76-31.57-1.8-9.33-.64-18.48,2-27.47A81.79,81.79,0,0,1,885.9,29.55a47,47,0,0,1,5.84-4.73,15.19,15.19,0,0,1,16-1.57c10.87,4.81,19.56,12.34,26.93,21.49,6,7.47,10.49,15.75,12.28,25.28,2.14,11.4-.22,22.1-5.68,32.13-7.26,13.33-17.49,23.6-31.68,29.55-1.15.48-2.37.79-3.56,1.19s-1.59.18-1.58-1.14q0-10.16-.07-20.33a3.41,3.41,0,0,1,1-2.31c5.27-6.46,10.81-12.71,15.74-19.44a26.6,26.6,0,0,0,3.53-6.81c.18-.5.77-1.22,0-1.69-.56-.36-1.08.2-1.48.54-1.49,1.24-3,2.48-4.39,3.83C913.85,90.33,909.38,95.59,904.32,100.64Z"/><circle class="cls-15" cx="919.98" cy="48.42" r="3.13"/><path class="cls-8" d="M901.53,186.82l2.65,0a6.14,6.14,0,0,1,.71-1.32q0-3.94-.08-7.87a1.7,1.7,0,0,1-.62-1c-.07-.73.48-1.42.67-2.14-.09.24-.13-.72-.17-.89a2.79,2.79,0,0,1,.44-2.84l-.41,0q0-2.3,0-4.59c0-3.87,0-7.75,0-11.62a1.56,1.56,0,0,1-.1-1.9l0,0c-.12-.19.21-.52.25-.71a4,4,0,0,0,.08-.68c-.22-.23-.25-.35-.2-.38a1.1,1.1,0,0,1,.06-1.16c-.37-4.57,1-9-3.66-13.42-2.15.46-2.13,1.1-2.42,1.65-1.85,3.62-2.17,7.28-2.56,10.93-1.15,10.8-1.81,21.61-2.47,32.41-.11,1.86-.46,3.72-.44,5.58a.86.86,0,0,1,0,.12C896,186.83,898.74,186.77,901.53,186.82Z"/><circle class="cls-10" cx="927.82" cy="77.52" r="2.54"/><path class="cls-13" d="M951.83,159.2q0-4.31,0-8.61c0-6.51,0-13,0-19.52a3.9,3.9,0,0,1,.8-2.45c2.47-3.42,4.92-6.86,7.31-10.35.49-.72,1.51-1.76.71-2.46s-1.7.4-2.36,1c-2.09,1.89-4.1,3.86-6.45,6.09,0-4.25.16-8.17,0-12.07s-.41-7.71-2-11.49a4.12,4.12,0,0,0-1.22,2.86,156,156,0,0,0-1.4,19.27c-.63,18.66-1,37.33-1.34,56-.06,3.22-.21,6.44-.25,9.66,0,1-.2,1.25-1.23.9a37.59,37.59,0,0,1-12.68-7.83c-8.5-7.55-14.44-16.67-16.63-28-1.6-8.27-.57-16.38,1.8-24.35A72.49,72.49,0,0,1,935.51,96.2,41.63,41.63,0,0,1,940.68,92a13.46,13.46,0,0,1,14.17-1.39c9.63,4.26,17.33,10.93,23.87,19,5.33,6.62,9.3,14,10.88,22.4,1.89,10.1-.2,19.59-5,28.47-6.43,11.82-15.5,20.92-28.08,26.19-1,.43-2.1.7-3.16,1.06s-1.41.16-1.4-1q0-9-.06-18a3,3,0,0,1,.9-2c4.67-5.73,9.58-11.26,13.95-17.23a23.58,23.58,0,0,0,3.13-6c.16-.45.68-1.08,0-1.5-.49-.32-1,.18-1.32.48-1.32,1.1-2.65,2.2-3.89,3.39C960.27,150.07,956.31,154.72,951.83,159.2Z"/><circle class="cls-4" cx="1179.81" cy="98.48" r="2.25"/><circle class="cls-4" cx="963.3" cy="112.78" r="2.25"/><circle class="cls-14" cx="974.42" cy="136.47" r="3.13"/></g></g></svg>