<svg id="Layer_1" data-name="Layer 1" xmlns="http://www.w3.org/2000/svg" viewBox="0 0 161 38"><defs><style>.cls-1{fill:#ff8c58;}.cls-2{fill:#fff;}</style></defs><title>prs</title><path class="cls-1" d="M19.39,1.6H143.16a16.08,16.08,0,0,1,16.08,16.08v2.65A16.08,16.08,0,0,1,143.16,36.4H19.39a0,0,0,0,1,0,0V1.6a0,0,0,0,1,0,0Z"/><circle class="cls-2" cx="19.06" cy="18.89" r="17.29"/><path class="cls-2" d="M69.6,15.56a4.17,4.17,0,0,1,1.58,1.52,4,4,0,0,1,.58,2.12,4.11,4.11,0,0,1-.58,2.13,4.19,4.19,0,0,1-1.58,1.54,4.56,4.56,0,0,1-4.38,0,4.18,4.18,0,0,1-1.58-1.54,4.09,4.09,0,0,1-.58-2.13,4,4,0,0,1,.58-2.12,4.17,4.17,0,0,1,1.57-1.52,4.61,4.61,0,0,1,4.39,0Zm-3.78.89a3.24,3.24,0,0,0-1.18,1.15,3.16,3.16,0,0,0,0,3.21A3.26,3.26,0,0,0,65.82,22a3.12,3.12,0,0,0,1.6.43A3.06,3.06,0,0,0,69,22a3.25,3.25,0,0,0,1.16-1.16,3.11,3.11,0,0,0,.43-1.61,3.08,3.08,0,0,0-.43-1.6A3.23,3.23,0,0,0,69,16.45,3.09,3.09,0,0,0,67.42,16,3.15,3.15,0,0,0,65.82,16.45Z"/><path class="cls-2" d="M78.32,17.47a2.75,2.75,0,0,1,1.06,1.12,3.8,3.8,0,0,1,0,3.29A2.7,2.7,0,0,1,78.33,23a3,3,0,0,1-1.55.4,2.85,2.85,0,0,1-1.39-.33,2.38,2.38,0,0,1-.95-.95v3.53h-1.1V17.1h1.1v1.24a2.39,2.39,0,0,1,.94-.95,2.79,2.79,0,0,1,1.38-.33A3,3,0,0,1,78.32,17.47Zm-.69,4.68a1.93,1.93,0,0,0,.75-.79,2.44,2.44,0,0,0,.27-1.15,2.37,2.37,0,0,0-.27-1.13,2,2,0,0,0-.75-.79A2,2,0,0,0,76.54,18a2.08,2.08,0,0,0-1.08.28,2,2,0,0,0-.75.79,2.54,2.54,0,0,0,0,2.29,2,2,0,0,0,.75.79,2.2,2.2,0,0,0,2.16,0Z"/><path class="cls-2" d="M86,17.92a3.51,3.51,0,0,1,.74,2.38c0,.16,0,.28,0,.35H81.79a2.13,2.13,0,0,0,.7,1.33,2.08,2.08,0,0,0,1.41.5,2.63,2.63,0,0,0,1-.2,2.48,2.48,0,0,0,.83-.57l.6.63a3.15,3.15,0,0,1-1.11.77,3.7,3.7,0,0,1-1.44.27,3.31,3.31,0,0,1-1.64-.4,2.78,2.78,0,0,1-1.11-1.12,3.59,3.59,0,0,1,0-3.28,2.88,2.88,0,0,1,1.1-1.12,3.19,3.19,0,0,1,1.62-.41A2.76,2.76,0,0,1,86,17.92Zm-.25,1.88A1.81,1.81,0,0,0,83.81,18a2,2,0,0,0-1.38.5,2.09,2.09,0,0,0-.66,1.33Z"/><path class="cls-2" d="M93.44,17.71a2.45,2.45,0,0,1,.63,1.78v3.86H93V19.78a1.67,1.67,0,0,0-.44-1.23,1.65,1.65,0,0,0-1.22-.44,1.89,1.89,0,0,0-1.37.54,2.11,2.11,0,0,0-.6,1.37v3.34h-1.1V17.1h1.1v1.32a2.41,2.41,0,0,1,2.37-1.36A2.3,2.3,0,0,1,93.44,17.71Z"/><path class="cls-2" d="M104.81,15.81a2.57,2.57,0,0,1,.84,2.06A2.73,2.73,0,0,1,104.8,20a3.45,3.45,0,0,1-2.39.76h-2.06v2.58H99.23V15.08h3.19A3.54,3.54,0,0,1,104.81,15.81ZM104,19.28a1.68,1.68,0,0,0,.57-1.38,1.61,1.61,0,0,0-.57-1.34,2.56,2.56,0,0,0-1.63-.46h-2v3.63h2A2.51,2.51,0,0,0,104,19.28Z"/><path class="cls-2" d="M112.49,23.35l-1.64-2.6-.46,0h-2.1v2.58h-1.13V15.08h3.24a3.65,3.65,0,0,1,2.43.73,2.55,2.55,0,0,1,.86,2.06,2.94,2.94,0,0,1-.47,1.69,2.6,2.6,0,0,1-1.34,1l1.93,2.8Zm-2.1-3.6a2.51,2.51,0,0,0,1.63-.47,1.68,1.68,0,0,0,.57-1.38,1.61,1.61,0,0,0-.57-1.34,2.55,2.55,0,0,0-1.63-.46h-2.1v3.64Z"/><path class="cls-2" d="M118.15,18.1a3.06,3.06,0,0,0-.89-.14,1.52,1.52,0,0,0-.8.18.61.61,0,0,0-.3.56.63.63,0,0,0,.34.57,4.86,4.86,0,0,0,1,.4,8,8,0,0,1,1.06.38,1.88,1.88,0,0,1,.7.56,1.51,1.51,0,0,1,.29,1,1.53,1.53,0,0,1-.67,1.35,2.85,2.85,0,0,1-1.66.46,4.16,4.16,0,0,1-1.35-.22,3.07,3.07,0,0,1-1.1-.64l.41-.8a2.94,2.94,0,0,0,1,.57,3.19,3.19,0,0,0,1.12.21,1.67,1.67,0,0,0,.87-.2.67.67,0,0,0,.33-.61.7.7,0,0,0-.35-.64,4.75,4.75,0,0,0-1.06-.42,7,7,0,0,1-1-.36,1.82,1.82,0,0,1-.67-.54,1.45,1.45,0,0,1-.28-.92,1.48,1.48,0,0,1,.64-1.31,2.76,2.76,0,0,1,1.59-.44,4,4,0,0,1,1.12.16,3.37,3.37,0,0,1,1,.43l-.4.84A3.75,3.75,0,0,0,118.15,18.1Z"/></svg>