<svg id="Layer_1" data-name="Layer 1" xmlns="http://www.w3.org/2000/svg" viewBox="0 0 161 38"><defs><style>.cls-1{fill:#ff8c58;}.cls-2{fill:#fff;}</style></defs><title>prs</title><path class="cls-1" d="M19.39,1.6H143.16a16.08,16.08,0,0,1,16.08,16.08v2.65A16.08,16.08,0,0,1,143.16,36.4H19.39a0,0,0,0,1,0,0V1.6a0,0,0,0,1,0,0Z"/><circle class="cls-2" cx="19.06" cy="18.89" r="17.29"/><path class="cls-2" d="M45.31,14.27h6.46v1H49.1v7.23H48V15.31H45.31Z"/><path class="cls-2" d="M56.38,16.65a2.89,2.89,0,0,1,1.13,1.12,3.24,3.24,0,0,1,.41,1.64A3.28,3.28,0,0,1,57.51,21a2.88,2.88,0,0,1-1.13,1.12,3.65,3.65,0,0,1-3.33,0,2.89,2.89,0,0,1-1.13-1.12,3.51,3.51,0,0,1,0-3.28A2.89,2.89,0,0,1,53,16.65a3.65,3.65,0,0,1,3.33,0Zm-2.75.84a1.94,1.94,0,0,0-.75.79,2.41,2.41,0,0,0-.27,1.14,2.47,2.47,0,0,0,.27,1.16,1.9,1.9,0,0,0,.75.79,2.27,2.27,0,0,0,2.17,0,1.92,1.92,0,0,0,.75-.79,2.47,2.47,0,0,0,.27-1.16,2.41,2.41,0,0,0-.27-1.14,2,2,0,0,0-.75-.79,2.22,2.22,0,0,0-2.17,0Z"/><path class="cls-2" d="M62.81,22.12a2.7,2.7,0,0,1-1.46.46,1.67,1.67,0,0,1-1.21-.44,1.78,1.78,0,0,1-.46-1.34V17.34h-.89V16.5h.89V14.82h1.11V16.5H62.7v.84H60.79V20.6a1.16,1.16,0,0,0,.19.74.7.7,0,0,0,.57.22,2,2,0,0,0,1-.29Z"/><path class="cls-2" d="M68,22.54v-.87a2.56,2.56,0,0,1-2.19.92,2.5,2.5,0,0,1-1.14-.25,1.81,1.81,0,0,1-1-1.67,1.6,1.6,0,0,1,.62-1.33,2.78,2.78,0,0,1,1.73-.5h2v-.3a1.29,1.29,0,0,0-.41-1,1.74,1.74,0,0,0-1.19-.36,3.41,3.41,0,0,0-1.93.67L64,17.08a5.76,5.76,0,0,1,1.25-.63,4.26,4.26,0,0,1,1.37-.2,2.61,2.61,0,0,1,1.81.57,2.08,2.08,0,0,1,.65,1.6v4.11ZM67.3,21.3a1.47,1.47,0,0,0,.64-1v-.63H66.12a2.13,2.13,0,0,0-1.1.22.77.77,0,0,0-.36.71.92.92,0,0,0,.37.77,1.56,1.56,0,0,0,1,.28A2.24,2.24,0,0,0,67.3,21.3Z"/><path class="cls-2" d="M71.07,13.77h1.1v8.77h-1.1Z"/><path class="cls-2" d="M83.38,14.75A4.17,4.17,0,0,1,85,16.27a4,4,0,0,1,.58,2.12A4.11,4.11,0,0,1,85,20.52a4.19,4.19,0,0,1-1.58,1.54,4.56,4.56,0,0,1-4.38,0,4.18,4.18,0,0,1-1.58-1.54,4.09,4.09,0,0,1-.58-2.13,4,4,0,0,1,.58-2.12A4.17,4.17,0,0,1,79,14.75a4.61,4.61,0,0,1,4.39,0Zm-3.78.89a3.24,3.24,0,0,0-1.18,1.15,3.16,3.16,0,0,0,0,3.21,3.26,3.26,0,0,0,1.18,1.16,3.12,3.12,0,0,0,1.6.43,3.06,3.06,0,0,0,1.59-.43A3.25,3.25,0,0,0,83.95,20a3.11,3.11,0,0,0,.43-1.61,3.08,3.08,0,0,0-.43-1.6,3.23,3.23,0,0,0-1.16-1.15,3.09,3.09,0,0,0-1.59-.42A3.15,3.15,0,0,0,79.6,15.64Z"/><path class="cls-2" d="M92.09,16.65a2.75,2.75,0,0,1,1.06,1.12,3.8,3.8,0,0,1,0,3.29,2.7,2.7,0,0,1-1.05,1.11,3,3,0,0,1-1.55.4,2.85,2.85,0,0,1-1.39-.33,2.38,2.38,0,0,1-.95-.95v3.53h-1.1V16.29h1.1v1.24a2.39,2.39,0,0,1,.94-.95,2.79,2.79,0,0,1,1.38-.33A3,3,0,0,1,92.09,16.65Zm-.69,4.68a1.93,1.93,0,0,0,.75-.79,2.44,2.44,0,0,0,.27-1.15,2.37,2.37,0,0,0-.27-1.13,2,2,0,0,0-.75-.79,2,2,0,0,0-1.07-.28,2.08,2.08,0,0,0-1.08.28,2,2,0,0,0-.75.79,2.54,2.54,0,0,0,0,2.29,2,2,0,0,0,.75.79,2.2,2.2,0,0,0,2.16,0Z"/><path class="cls-2" d="M99.77,17.11a3.51,3.51,0,0,1,.74,2.38c0,.16,0,.28,0,.35H95.57a2.13,2.13,0,0,0,.7,1.33,2.08,2.08,0,0,0,1.41.5,2.63,2.63,0,0,0,1-.2,2.48,2.48,0,0,0,.83-.57l.6.63A3.15,3.15,0,0,1,99,22.3a3.7,3.7,0,0,1-1.44.27,3.31,3.31,0,0,1-1.64-.4,2.78,2.78,0,0,1-1.11-1.12,3.59,3.59,0,0,1,0-3.28A2.88,2.88,0,0,1,96,16.66a3.19,3.19,0,0,1,1.62-.41A2.76,2.76,0,0,1,99.77,17.11ZM99.53,19a1.81,1.81,0,0,0-1.94-1.83,2,2,0,0,0-1.38.5A2.09,2.09,0,0,0,95.56,19Z"/><path class="cls-2" d="M107.22,16.89a2.44,2.44,0,0,1,.63,1.78v3.86h-1.1V19a1.67,1.67,0,0,0-.44-1.23,1.65,1.65,0,0,0-1.22-.44,1.89,1.89,0,0,0-1.36.54,2.11,2.11,0,0,0-.6,1.37v3.34H102V16.29h1.1v1.32a2.41,2.41,0,0,1,2.37-1.36A2.3,2.3,0,0,1,107.22,16.89Z"/><path class="cls-2" d="M113.93,14a.76.76,0,0,1,0,1,.7.7,0,0,1-1,0,.76.76,0,0,1,0-1,.7.7,0,0,1,1,0Zm-1,2.29H114v6.25h-1.1Z"/><path class="cls-2" d="M118.69,17.29a3.07,3.07,0,0,0-.89-.14,1.52,1.52,0,0,0-.8.18.61.61,0,0,0-.3.56.62.62,0,0,0,.34.57,4.89,4.89,0,0,0,1,.4,8,8,0,0,1,1.06.38,1.88,1.88,0,0,1,.7.56,1.72,1.72,0,0,1-.38,2.32,2.86,2.86,0,0,1-1.66.46,4.15,4.15,0,0,1-1.35-.22,3.06,3.06,0,0,1-1.1-.64l.41-.8a2.93,2.93,0,0,0,1,.57,3.18,3.18,0,0,0,1.12.21,1.68,1.68,0,0,0,.88-.2.67.67,0,0,0,.33-.61.7.7,0,0,0-.35-.64,4.76,4.76,0,0,0-1.06-.42,7.09,7.09,0,0,1-1-.36,1.82,1.82,0,0,1-.67-.54,1.45,1.45,0,0,1-.28-.92,1.48,1.48,0,0,1,.64-1.31,2.76,2.76,0,0,1,1.59-.44,4,4,0,0,1,1.12.16,3.34,3.34,0,0,1,1,.43l-.4.84A3.77,3.77,0,0,0,118.69,17.29Z"/><path class="cls-2" d="M124.13,17.29a3.06,3.06,0,0,0-.89-.14,1.52,1.52,0,0,0-.8.18.61.61,0,0,0-.3.56.62.62,0,0,0,.34.57,4.9,4.9,0,0,0,1,.4,8,8,0,0,1,1.06.38,1.89,1.89,0,0,1,.7.56,1.72,1.72,0,0,1-.38,2.32,2.86,2.86,0,0,1-1.66.46,4.14,4.14,0,0,1-1.35-.22,3.06,3.06,0,0,1-1.11-.64l.41-.8a2.91,2.91,0,0,0,1,.57,3.17,3.17,0,0,0,1.12.21,1.67,1.67,0,0,0,.87-.2.67.67,0,0,0,.33-.61.7.7,0,0,0-.35-.64,4.75,4.75,0,0,0-1.06-.42,7.15,7.15,0,0,1-1-.36,1.81,1.81,0,0,1-.67-.54,1.45,1.45,0,0,1-.28-.92,1.48,1.48,0,0,1,.64-1.31,2.76,2.76,0,0,1,1.6-.44,4,4,0,0,1,1.12.16,3.33,3.33,0,0,1,1,.43l-.4.84A3.77,3.77,0,0,0,124.13,17.29Z"/><path class="cls-2" d="M132.53,16.29v6.25h-1.11V21.21a2.35,2.35,0,0,1-2.32,1.36,2.24,2.24,0,0,1-1.7-.64,2.47,2.47,0,0,1-.61-1.78V16.29h1.11v3.57a1.69,1.69,0,0,0,.43,1.23,1.58,1.58,0,0,0,1.19.44,1.76,1.76,0,0,0,1.39-.62,2.32,2.32,0,0,0,.51-1.55V16.29Z"/><path class="cls-2" d="M139.37,17.11a3.51,3.51,0,0,1,.74,2.38c0,.16,0,.28,0,.35h-4.94a2.13,2.13,0,0,0,.7,1.33,2.08,2.08,0,0,0,1.41.5,2.63,2.63,0,0,0,1-.2,2.48,2.48,0,0,0,.83-.57l.6.63a3.15,3.15,0,0,1-1.11.77,3.7,3.7,0,0,1-1.44.27,3.31,3.31,0,0,1-1.64-.4,2.78,2.78,0,0,1-1.11-1.12,3.59,3.59,0,0,1,0-3.28,2.88,2.88,0,0,1,1.1-1.12,3.19,3.19,0,0,1,1.62-.41A2.76,2.76,0,0,1,139.37,17.11ZM139.13,19a1.81,1.81,0,0,0-1.94-1.83,2,2,0,0,0-1.38.5,2.09,2.09,0,0,0-.66,1.33Z"/><path class="cls-2" d="M144.18,17.29a3.07,3.07,0,0,0-.89-.14,1.52,1.52,0,0,0-.8.18.61.61,0,0,0-.3.56.62.62,0,0,0,.34.57,4.89,4.89,0,0,0,1,.4,8,8,0,0,1,1.06.38,1.88,1.88,0,0,1,.7.56,1.72,1.72,0,0,1-.38,2.32,2.86,2.86,0,0,1-1.66.46,4.15,4.15,0,0,1-1.35-.22,3.06,3.06,0,0,1-1.1-.64l.41-.8a2.93,2.93,0,0,0,1,.57,3.18,3.18,0,0,0,1.12.21,1.68,1.68,0,0,0,.88-.2.67.67,0,0,0,.33-.61.7.7,0,0,0-.35-.64,4.76,4.76,0,0,0-1.06-.42,7.09,7.09,0,0,1-1-.36,1.82,1.82,0,0,1-.67-.54,1.45,1.45,0,0,1-.28-.92,1.48,1.48,0,0,1,.64-1.31,2.76,2.76,0,0,1,1.59-.44,4,4,0,0,1,1.12.16,3.34,3.34,0,0,1,1,.43l-.4.84A3.77,3.77,0,0,0,144.18,17.29Z"/></svg>