<svg id="Layer_1" data-name="Layer 1" xmlns="http://www.w3.org/2000/svg" xmlns:xlink="http://www.w3.org/1999/xlink" viewBox="0 0 674 184"><defs><style>.cls-1{fill:#ff544e;}.cls-2{clip-path:url(#clip-path);}.cls-3{fill:#273274;}.cls-4{fill:#1b285b;}.cls-5{fill:#ff8c58;}</style><clipPath id="clip-path"><rect class="cls-1" x="0.25" width="673.75" height="184"/></clipPath></defs><title>hacktober elements</title><rect class="cls-1" x="0.25" width="673.75" height="184"/><g class="cls-2"><rect class="cls-3" x="0.25" width="729.51" height="184"/><circle class="cls-4" cx="703.78" cy="143.95" r="88.75"/><circle class="cls-4" cx="534.93" cy="11.24" r="60.61"/><circle class="cls-4" cx="535.47" cy="157.89" r="48.16"/><circle class="cls-4" cx="377.45" cy="86.46" r="77.39"/><circle class="cls-4" cx="101.45" cy="179.54" r="55.74"/><circle class="cls-4" cx="251.89" cy="179.54" r="31.93"/><circle class="cls-4" cx="184.25" cy="26.39" r="59.53"/><circle class="cls-4" cx="0.25" cy="11.24" r="88.75"/></g><path class="cls-5" d="M148.23,66.7A12.36,12.36,0,0,0,144.79,70a34.91,34.91,0,0,0-3.18,5.23,57.92,57.92,0,0,0-2.77,6.51q-1.26,3.52-2.18,7.15A69.26,69.26,0,0,0,135.23,96a45.67,45.67,0,0,0-.51,6.49,22.66,22.66,0,0,0,.26,3.59,11.4,11.4,0,0,0,.79,2.82,4.68,4.68,0,0,0,1.37,1.84,3.24,3.24,0,0,0,2.05.66,6.33,6.33,0,0,0,3.9-1.51,18.52,18.52,0,0,0,3.74-4.1,37.25,37.25,0,0,0,3.35-6,56.14,56.14,0,0,0,2.67-7.34,66.66,66.66,0,0,0,1.79-8,50.38,50.38,0,0,0,.66-8,38.71,38.71,0,0,0-.4-5.89,10.82,10.82,0,0,0-1.49-4.23,6.72,6.72,0,0,0-3-2.54,12.41,12.41,0,0,0-5-.85A26,26,0,0,0,137,64.35a21.9,21.9,0,0,0-7.09,4A19.05,19.05,0,0,0,125,74.55a18.45,18.45,0,0,0-1.81,8.26,10.14,10.14,0,0,0,.13,1.83,10.84,10.84,0,0,0,.26,1.13,4.51,4.51,0,0,0,.26.7,1.11,1.11,0,0,1,.13.49,9.73,9.73,0,0,1-5.74-1.47q-2.05-1.47-2.05-5a12.83,12.83,0,0,1,1.17-5.31,19.23,19.23,0,0,1,3.27-4.95,27.64,27.64,0,0,1,5-4.33A34.29,34.29,0,0,1,132,62.49a41.25,41.25,0,0,1,7.34-2.24,38.79,38.79,0,0,1,7.94-.81,22.07,22.07,0,0,1,8.56,1.47A14.3,14.3,0,0,1,161.48,65a16.25,16.25,0,0,1,3.1,6.25,30.94,30.94,0,0,1,1,7.92,52.07,52.07,0,0,1-2.88,16.62A48.81,48.81,0,0,1,158.9,104a31,31,0,0,1-5.44,7,25.4,25.4,0,0,1-7.23,4.85,22,22,0,0,1-9.11,1.83,17.81,17.81,0,0,1-5.57-.83,10.88,10.88,0,0,1-4.37-2.67,12.32,12.32,0,0,1-2.86-4.8,22.18,22.18,0,0,1-1-7.17,47.73,47.73,0,0,1,.58-7,60.09,60.09,0,0,1,1.75-7.9,57.86,57.86,0,0,1,2.92-7.85,34,34,0,0,1,4.06-6.81,20.08,20.08,0,0,1,5.21-4.78,11.79,11.79,0,0,1,6.36-1.81,16.87,16.87,0,0,1,2,.11A8.69,8.69,0,0,1,148.23,66.7Z"/><path class="cls-5" d="M159.26,136.52l12.87-60.67h11.1L182,81.64a15.42,15.42,0,0,1,3.88-2.37,12.86,12.86,0,0,1,5.12-.94,10.84,10.84,0,0,1,3.69.62,7.25,7.25,0,0,1,3,2,10.09,10.09,0,0,1,2,3.75,19.43,19.43,0,0,1,.73,5.76,48.23,48.23,0,0,1-.36,5.63,38.46,38.46,0,0,1-1.22,6.06,33.29,33.29,0,0,1-2.28,5.83A19.53,19.53,0,0,1,193,113a16.33,16.33,0,0,1-5,3.44,15.92,15.92,0,0,1-6.6,1.3,12.78,12.78,0,0,1-2.56-.23,7.9,7.9,0,0,1-1.86-.6,4.71,4.71,0,0,1-1.28-.88,6.24,6.24,0,0,1-.85-1l-4,18.78Zm16.86-27.29a2.78,2.78,0,0,0,.92,1.2,3.13,3.13,0,0,0,2,.56,6.44,6.44,0,0,0,3.61-1,10.33,10.33,0,0,0,2.79-2.75,17.59,17.59,0,0,0,2-3.9,34.39,34.39,0,0,0,1.35-4.48,39.52,39.52,0,0,0,.77-4.54,37.72,37.72,0,0,0,.24-4,11.79,11.79,0,0,0-.41-3.5,5.26,5.26,0,0,0-1-1.92,2.56,2.56,0,0,0-1.26-.81,4.44,4.44,0,0,0-4,.79,8.34,8.34,0,0,0-2.54,2.84Z"/><path class="cls-5" d="M234.54,103.43a44.07,44.07,0,0,1-3.71,5.27,27.85,27.85,0,0,1-4.7,4.55,23.29,23.29,0,0,1-5.8,3.22,19.3,19.3,0,0,1-7,1.22,16.54,16.54,0,0,1-5-.7,9.8,9.8,0,0,1-3.8-2.16,9.52,9.52,0,0,1-2.43-3.78,16.33,16.33,0,0,1-.85-5.59,33.7,33.7,0,0,1,.45-5.12,39.15,39.15,0,0,1,1.43-5.95,33.73,33.73,0,0,1,2.6-6,23.55,23.55,0,0,1,3.91-5.25,18.1,18.1,0,0,1,5.38-3.73,16.76,16.76,0,0,1,7-1.41,12.12,12.12,0,0,1,4.23.62,6.85,6.85,0,0,1,2.6,1.64,5.43,5.43,0,0,1,1.32,2.35,10.68,10.68,0,0,1,.36,2.77,13.51,13.51,0,0,1-1.47,6.23,16.6,16.6,0,0,1-3.93,5,20.36,20.36,0,0,1-5.66,3.46,20.94,20.94,0,0,1-6.66,1.54q-.08.87-.13,1.64t-.06,1.45a12,12,0,0,0,.36,3.22,4.54,4.54,0,0,0,1.05,2,3.72,3.72,0,0,0,1.73,1,9.26,9.26,0,0,0,2.43.28,13.49,13.49,0,0,0,4.16-.6,14.54,14.54,0,0,0,3.48-1.66,19.54,19.54,0,0,0,3.07-2.48q1.45-1.43,2.92-3ZM213.5,98a10.31,10.31,0,0,0,4.22-1.24,12.82,12.82,0,0,0,3.58-2.84,14.12,14.12,0,0,0,2.47-4,12.1,12.1,0,0,0,.92-4.65,5.37,5.37,0,0,0-.41-2.3,1.52,1.52,0,0,0-1.51-.87,4.11,4.11,0,0,0-2.88,1.41,16.23,16.23,0,0,0-2.65,3.67,31.49,31.49,0,0,0-2.2,5.1A45.14,45.14,0,0,0,213.5,98Z"/><path class="cls-5" d="M229,117.25l8.17-38.54h11.1l-.83,4a14.2,14.2,0,0,1,2.47-2.24,11.53,11.53,0,0,1,2.39-1.3,10.22,10.22,0,0,1,2.2-.6,13.61,13.61,0,0,1,1.94-.15,11.56,11.56,0,0,1,3.42.49,6.81,6.81,0,0,1,4.52,4.25,11,11,0,0,1,.64,4,21.45,21.45,0,0,1-.28,3.33q-.28,1.79-.7,3.65t-.88,3.71q-.47,1.84-.88,3.54t-.7,3.14a13.52,13.52,0,0,0-.28,2.54,3.86,3.86,0,0,0,.66,2.33,2.82,2.82,0,0,0,2.43.9,4.56,4.56,0,0,0,2.56-.49,10.36,10.36,0,0,1-1.05,3.59,8.47,8.47,0,0,1-1.92,2.46,7.14,7.14,0,0,1-2.56,1.43,9.7,9.7,0,0,1-2.94.45,8.46,8.46,0,0,1-3.73-.73,6.43,6.43,0,0,1-2.41-2,7.65,7.65,0,0,1-1.28-2.79,13.68,13.68,0,0,1-.38-3.22,22.76,22.76,0,0,1,.55-4.57q.54-2.62,1.19-5.36t1.19-5.31a21.63,21.63,0,0,0,.55-4.4q0-4-2.79-4a3.62,3.62,0,0,0-2,.56,6.48,6.48,0,0,0-1.66,1.52,11.4,11.4,0,0,0-1.35,2.26,21.75,21.75,0,0,0-1.05,2.77l-5.23,24.73Z"/><path class="cls-5" d="M304.2,104.15a23.87,23.87,0,0,1-3.93,6.06,25.14,25.14,0,0,1-5.38,4.55,25.41,25.41,0,0,1-6.38,2.88,24.29,24.29,0,0,1-6.89,1,16.78,16.78,0,0,1-6.42-1.11,11.77,11.77,0,0,1-6.94-7.32,16,16,0,0,1-.83-5.16,20.92,20.92,0,0,1,1-6.21,23.09,23.09,0,0,1,2.8-5.93,20.56,20.56,0,0,1,4.48-4.86,16.12,16.12,0,0,1,6-3,10.8,10.8,0,0,1-3.59-4.23,12,12,0,0,1-1.11-5,15,15,0,0,1,1.26-5.93,18,18,0,0,1,3.5-5.33,17.62,17.62,0,0,1,5.34-3.84,15.69,15.69,0,0,1,6.79-1.47,14.55,14.55,0,0,1,4.31.62,10.55,10.55,0,0,1,3.52,1.83,8.32,8.32,0,0,1,2.35,3,9.73,9.73,0,0,1,.85,4.18,10.84,10.84,0,0,1-.45,3.2,8.42,8.42,0,0,1-1.24,2.54,6,6,0,0,1-1.83,1.67,4.3,4.3,0,0,1-2.2.6,4.38,4.38,0,0,1-3.61-2.07,3,3,0,0,0,1.3-.94A7.88,7.88,0,0,0,298,72.27a9.54,9.54,0,0,0,.73-2,9,9,0,0,0,.26-2.11,4.81,4.81,0,0,0-.38-2,3.86,3.86,0,0,0-1-1.34,3.56,3.56,0,0,0-1.35-.73,5.54,5.54,0,0,0-1.56-.23,5.73,5.73,0,0,0-3.18.94,8.75,8.75,0,0,0-2.48,2.46,12.5,12.5,0,0,0-1.62,3.48,13.87,13.87,0,0,0-.58,4,12.77,12.77,0,0,0,.43,3.31,9.67,9.67,0,0,0,1.37,3,9.41,9.41,0,0,0,2.43,2.41,11.41,11.41,0,0,0,3.56,1.6,13.53,13.53,0,0,0-3.9,1.51A17.68,17.68,0,0,0,287.4,89a19.78,19.78,0,0,0-2.73,3.22,23.58,23.58,0,0,0-2.05,3.67,21.47,21.47,0,0,0-1.3,3.82,16.08,16.08,0,0,0-.45,3.69,10.89,10.89,0,0,0,.41,3,6.85,6.85,0,0,0,1.28,2.48,5.87,5.87,0,0,0,2.26,1.66,8.41,8.41,0,0,0,3.35.6,16.48,16.48,0,0,0,3.82-.49,18.21,18.21,0,0,0,7.66-4,12.66,12.66,0,0,0,2.79-3.42Z"/><path class="cls-5" d="M310,117.25l10.46-49,11.4-1.51-3.61,17.09h.45A8.67,8.67,0,0,0,333,82.66a12.54,12.54,0,0,0,3.52-2.94,14.81,14.81,0,0,0,2.39-4,11.83,11.83,0,0,0,.88-4.4,8.69,8.69,0,0,0-.56-3.11,7.27,7.27,0,0,0-1.77-2.65,8.65,8.65,0,0,0-3.14-1.86,13.91,13.91,0,0,0-4.69-.7,21.27,21.27,0,0,0-4.57.51A19.85,19.85,0,0,0,320.63,65a20.38,20.38,0,0,0-4,2.58,16.12,16.12,0,0,0-3.26,3.63,18.39,18.39,0,0,0-2.18,4.71,19.47,19.47,0,0,0-.81,5.78,13.69,13.69,0,0,0,.17,2.39,8.72,8.72,0,0,0,.38,1.47,6.42,6.42,0,0,0,.38.85,1.12,1.12,0,0,1,.17.53,10.16,10.16,0,0,1-6.08-1.58q-2.16-1.58-2.16-5.5a13.49,13.49,0,0,1,1.05-5.21,18.68,18.68,0,0,1,3-4.82,24.93,24.93,0,0,1,4.52-4.18,32,32,0,0,1,5.72-3.29,34.13,34.13,0,0,1,6.59-2.16,32.91,32.91,0,0,1,7.13-.77,23.16,23.16,0,0,1,7.34,1,15.49,15.49,0,0,1,5.1,2.73,10.77,10.77,0,0,1,3,3.91,11.27,11.27,0,0,1,1,4.59,12.68,12.68,0,0,1-.49,3.46,13,13,0,0,1-1.47,3.31,15.91,15.91,0,0,1-5.76,5.46,10.79,10.79,0,0,1,4.22,1.64,10.23,10.23,0,0,1,2.82,2.86,11.8,11.8,0,0,1,1.58,3.71,18,18,0,0,1,.49,4.22,28.64,28.64,0,0,1-.36,4.22,31,31,0,0,1-1.15,4.84,28.49,28.49,0,0,1-2.07,4.84,17.51,17.51,0,0,1-3.16,4.22,15,15,0,0,1-4.38,3,13.82,13.82,0,0,1-5.74,1.13,15.82,15.82,0,0,1-2.6-.23,7.28,7.28,0,0,1-2.47-.87,5.45,5.45,0,0,1-1.84-1.75,5.13,5.13,0,0,1-.73-2.88,10.25,10.25,0,0,1,.23-2.07,14.48,14.48,0,0,1,.75-2.41,10,10,0,0,0,2.67,2.18,5.57,5.57,0,0,0,2.52.6,5,5,0,0,0,3.56-1.34,10,10,0,0,0,2.35-3.39,18.4,18.4,0,0,0,1.3-4.5,29.05,29.05,0,0,0,.4-4.63,19.28,19.28,0,0,0-.36-3.78,9.14,9.14,0,0,0-1.2-3.12,6.29,6.29,0,0,0-2.24-2.13,7,7,0,0,0-3.5-.79l-1.47,0a15.9,15.9,0,0,0-2.07.23l-6.32,29.51Z"/><path class="cls-5" d="M394.31,69.82a9.55,9.55,0,0,1-.43,3,7.34,7.34,0,0,1-1.19,2.3,5.17,5.17,0,0,1-1.84,1.49,5.38,5.38,0,0,1-2.37.53,5.63,5.63,0,0,1-2.65-.62,6,6,0,0,1-2.05-1.79,7.59,7.59,0,0,0,2.3-2.8,8.33,8.33,0,0,0,.87-3.74,5.28,5.28,0,0,0-1.47-3.93,5.48,5.48,0,0,0-4-1.45,6.86,6.86,0,0,0-2.84.58A6.5,6.5,0,0,0,376.37,65a7.37,7.37,0,0,0-1.43,2.46,9.28,9.28,0,0,0-.51,3.12,9.84,9.84,0,0,0,1.24,4.82,26,26,0,0,0,3.12,4.44q1.88,2.18,4.06,4.42A46.55,46.55,0,0,1,386.93,89a26.41,26.41,0,0,1,3.12,5.5,16.7,16.7,0,0,1,1.24,6.53,15.7,15.7,0,0,1-1.58,7,17,17,0,0,1-4.38,5.57,21,21,0,0,1-6.59,3.69,24.41,24.41,0,0,1-8.19,1.34,21.81,21.81,0,0,1-6.68-1,14.94,14.94,0,0,1-5.12-2.75,12.41,12.41,0,0,1-3.29-4.27,12.85,12.85,0,0,1-1.17-5.53,13.57,13.57,0,0,1,.83-4.78,12.37,12.37,0,0,1,2.26-3.86,10.47,10.47,0,0,1,3.39-2.58,9.52,9.52,0,0,1,4.18-.94,7.48,7.48,0,0,1,4.55,1.36,5.79,5.79,0,0,1,2.3,3.73,11.05,11.05,0,0,0-3.65.56,8,8,0,0,0-2.75,1.58,7,7,0,0,0-1.75,2.47,8.18,8.18,0,0,0-.62,3.25,6.82,6.82,0,0,0,7.3,7.34,9.54,9.54,0,0,0,3.76-.73,9,9,0,0,0,3-2,9.36,9.36,0,0,0,2-3,10.15,10.15,0,0,0,.71-3.84,11.88,11.88,0,0,0-.7-4,18.81,18.81,0,0,0-1.86-3.76,36.12,36.12,0,0,0-2.63-3.59q-1.47-1.77-3-3.56t-3-3.59a34.47,34.47,0,0,1-2.63-3.71A19.66,19.66,0,0,1,364,77.43a13.14,13.14,0,0,1-.7-4.29,12.33,12.33,0,0,1,1.3-5.63A13.57,13.57,0,0,1,368.24,63a17.51,17.51,0,0,1,5.48-3A21.32,21.32,0,0,1,380.61,59a19.28,19.28,0,0,1,5.65.77A13,13,0,0,1,390.56,62a9.81,9.81,0,0,1,2.77,3.41A10,10,0,0,1,394.31,69.82Z"/><path class="cls-5" d="M452.64,104.15a20.08,20.08,0,0,1-4.18,6.61,24.59,24.59,0,0,1-5.7,4.44,25.32,25.32,0,0,1-6.25,2.5,25,25,0,0,1-13.31-.23A12,12,0,0,1,418,114.2a14.27,14.27,0,0,1-3.12-5.87,32.35,32.35,0,0,1-1-8.81,56.26,56.26,0,0,1,.32-5.74,59,59,0,0,1,1-6.42A64.28,64.28,0,0,1,417,80.7a46.36,46.36,0,0,1,2.69-6.45,37.78,37.78,0,0,1,3.65-5.82A25.14,25.14,0,0,1,428,63.73a21.38,21.38,0,0,1,5.76-3.14,20.28,20.28,0,0,1,7-1.15,20.83,20.83,0,0,1,5,.58,12,12,0,0,1,4.1,1.83,8.71,8.71,0,0,1,2.75,3.2,10.27,10.27,0,0,1,1,4.71,13.4,13.4,0,0,1-.28,2.84,6.33,6.33,0,0,1-.94,2.26,4.5,4.5,0,0,1-1.69,1.49,5.45,5.45,0,0,1-2.5.53,7.74,7.74,0,0,1-2.09-.34,4.74,4.74,0,0,1-2.28-1.66,4.4,4.4,0,0,0,1.32-1.07,8.31,8.31,0,0,0,1.13-1.69A10.65,10.65,0,0,0,447,70a8.76,8.76,0,0,0,.3-2.26,6.47,6.47,0,0,0-.24-1.77,3.81,3.81,0,0,0-.81-1.51,4.14,4.14,0,0,0-1.47-1,5.44,5.44,0,0,0-2.18-.39,6.67,6.67,0,0,0-4.16,1.58,18.08,18.08,0,0,0-3.8,4.27,36.88,36.88,0,0,0-3.27,6.27,58.66,58.66,0,0,0-2.54,7.56,71.74,71.74,0,0,0-1.66,8.21,57.45,57.45,0,0,0-.6,8.13,27.65,27.65,0,0,0,.4,4.87,10.07,10.07,0,0,0,1.43,3.78,7,7,0,0,0,2.82,2.47,10.41,10.41,0,0,0,4.61.88,17.88,17.88,0,0,0,8.43-2,19.29,19.29,0,0,0,6.59-5.68Z"/><path class="cls-5" d="M494.42,103.43a34.65,34.65,0,0,1-2.37,5.42,22.91,22.91,0,0,1-2.65,3.88,15,15,0,0,1-2.8,2.56,13.9,13.9,0,0,1-2.79,1.51,12.26,12.26,0,0,1-2.6.71,15.25,15.25,0,0,1-2.26.19,7.39,7.39,0,0,1-5.21-1.79,8.23,8.23,0,0,1-2.35-5.29,30,30,0,0,1-2.07,2.58,15.41,15.41,0,0,1-2.52,2.26,12.8,12.8,0,0,1-3.1,1.62,11,11,0,0,1-3.78.62,11.62,11.62,0,0,1-3.84-.64,8.34,8.34,0,0,1-3.27-2.11,10.62,10.62,0,0,1-2.3-3.84,17,17,0,0,1-.87-5.8,32.86,32.86,0,0,1,.53-5.65,35.72,35.72,0,0,1,1.62-6,34.22,34.22,0,0,1,2.73-5.78A23.16,23.16,0,0,1,458.35,83a17.55,17.55,0,0,1,5-3.39,14.71,14.71,0,0,1,6.13-1.26,7.94,7.94,0,0,1,4.76,1.13,3.39,3.39,0,0,1,1.49,2.79v.56l.83-4.1h11.1l-5.53,26.2a7.7,7.7,0,0,0-.26,1.26,10.14,10.14,0,0,0-.08,1.22q0,3.31,3.16,3.31a4,4,0,0,0,2.09-.58,6.78,6.78,0,0,0,1.75-1.56,10.6,10.6,0,0,0,1.39-2.31,20.19,20.19,0,0,0,1-2.8ZM475,86a3.11,3.11,0,0,0-.15-.85,3,3,0,0,0-.51-1,2.89,2.89,0,0,0-1-.79,3.28,3.28,0,0,0-1.54-.32,5.13,5.13,0,0,0-3.07,1.05,11.42,11.42,0,0,0-2.65,2.8,22.36,22.36,0,0,0-2.15,4,38.59,38.59,0,0,0-2.6,9.2,28.09,28.09,0,0,0-.34,4.08,11,11,0,0,0,.41,3.42,4.64,4.64,0,0,0,1,1.79,2.31,2.31,0,0,0,1.26.7,7.41,7.41,0,0,0,1.2.11,4.44,4.44,0,0,0,1.83-.43,6.61,6.61,0,0,0,1.84-1.28,9.38,9.38,0,0,0,1.62-2.13,10.53,10.53,0,0,0,1.11-3Z"/><path class="cls-5" d="M497.73,72.61a20.08,20.08,0,0,1,2.43-6.7,14.11,14.11,0,0,1,3.56-4A11.14,11.14,0,0,1,507.78,60a17.66,17.66,0,0,1,4-.49,9.69,9.69,0,0,1,3.37.6,9.28,9.28,0,0,1,2.9,1.69,8.51,8.51,0,0,1,2,2.62,7.45,7.45,0,0,1,.77,3.41,19.42,19.42,0,0,1-.23,3.16H517q.07-.64.11-1.09c0-.3,0-.63,0-1a2.31,2.31,0,0,0-.88-2,3.34,3.34,0,0,0-2.05-.66,4.34,4.34,0,0,0-1.37.26,4.52,4.52,0,0,0-1.54,1,7,7,0,0,0-1.43,1.94,11.5,11.5,0,0,0-1,3.16l-1.32,6.1h5.65l-.56,3.09h-5.68L498,123.42a20.71,20.71,0,0,1-2.39,6.7,14.11,14.11,0,0,1-3.46,4,10.69,10.69,0,0,1-4,1.92,17.24,17.24,0,0,1-4,.49,9.69,9.69,0,0,1-3.37-.6,9.51,9.51,0,0,1-2.92-1.69,8.38,8.38,0,0,1-2.05-2.62,7.43,7.43,0,0,1-.77-3.41,9,9,0,0,1,1-4.5,9.74,9.74,0,0,1,2.84-3.12,18,18,0,0,1,4.22-2.2q2.41-.9,5.16-1.73Zm-9.86,46.56a30.68,30.68,0,0,0-3.37,1.34,12,12,0,0,0-2.69,1.69,7.38,7.38,0,0,0-1.77,2.16,5.77,5.77,0,0,0-.64,2.75,2,2,0,0,0,.23.9,2.61,2.61,0,0,0,.64.81,3.82,3.82,0,0,0,1,.6,3.09,3.09,0,0,0,1.24.24,2.93,2.93,0,0,0,1.22-.28,3.51,3.51,0,0,0,1.2-1,7.26,7.26,0,0,0,1.07-1.86,16.84,16.84,0,0,0,.87-2.9Z"/><path class="cls-5" d="M536,106.29a16.84,16.84,0,0,1-1.88,5.53,11.59,11.59,0,0,1-3,3.5,10.8,10.8,0,0,1-3.91,1.84,18.75,18.75,0,0,1-4.48.53,16.22,16.22,0,0,1-4.91-.7,9.66,9.66,0,0,1-3.76-2.16,9.79,9.79,0,0,1-2.43-3.78,16,16,0,0,1-.87-5.59,33.7,33.7,0,0,1,.45-5.12,39.15,39.15,0,0,1,1.43-5.95,33.7,33.7,0,0,1,2.6-6,23.55,23.55,0,0,1,3.91-5.25,18.1,18.1,0,0,1,5.38-3.73,16.75,16.75,0,0,1,7-1.41,12.12,12.12,0,0,1,4.23.62,6.85,6.85,0,0,1,2.6,1.64,5.42,5.42,0,0,1,1.32,2.35,10.66,10.66,0,0,1,.36,2.77,13.51,13.51,0,0,1-1.47,6.23,16.6,16.6,0,0,1-3.93,5,20.36,20.36,0,0,1-5.66,3.46,20.94,20.94,0,0,1-6.66,1.54q-.08.64-.13,1.22t-.06,1.11a10.79,10.79,0,0,0,.38,3.09,5.31,5.31,0,0,0,1,2,3.5,3.5,0,0,0,1.51,1,5.68,5.68,0,0,0,1.88.3,8.82,8.82,0,0,0,2.35-.34,14.78,14.78,0,0,0,2.41-.9,20.21,20.21,0,0,0,2.31-1.3A15.52,15.52,0,0,0,536,106.29ZM522.8,98a9.43,9.43,0,0,0,4.25-1.19,13.37,13.37,0,0,0,3.59-2.86,13.82,13.82,0,0,0,2.48-4,12.24,12.24,0,0,0,.92-4.67,5.37,5.37,0,0,0-.41-2.3,1.52,1.52,0,0,0-1.51-.87,4.07,4.07,0,0,0-2.88,1.45,16.37,16.37,0,0,0-2.63,3.75,37.28,37.28,0,0,0-2.22,5.12A46.61,46.61,0,0,0,522.8,98Z"/></svg>