<svg id="Layer_1" data-name="Layer 1" xmlns="http://www.w3.org/2000/svg" viewBox="0 0 65 62"><defs><style>.cls-1{fill:#bab1b1;}.cls-2{fill:#fff;}.cls-3{fill:#273274;}</style></defs><title>prs</title><path class="cls-1" d="M55.9,58H9.1a5.42,5.42,0,0,1-3.6-3.6V12.64C6.45,10,8.35,8.9,11.13,9c2,.1,4.05,0,6.19,0,0-1,0-1.89,0-2.75A2.3,2.3,0,0,1,18.46,4h1a2.07,2.07,0,0,1,1.24,2.22c-.07.9,0,1.81,0,2.77H30.87c0-.92.06-1.79,0-2.66A2.37,2.37,0,0,1,31.9,4h1.2c1.87,1.29.58,3.34,1.19,5H44.36c0-1,.06-1.88,0-2.78A2,2,0,0,1,45.58,4h1a2.33,2.33,0,0,1,1.15,2.31c0,.89,0,1.79,0,2.75,2.16,0,4.12.09,6.07,0,2.81-.16,4.78.9,5.75,3.6V54.4A5.47,5.47,0,0,1,55.9,58ZM34.13,12.47c0,1.1,0,2.1,0,3.09,0,1.28-.59,1.91-1.65,1.9s-1.59-.64-1.61-1.93c0-1,0-2,0-3H20.64c0,1,0,2,0,2.92,0,1.37-.54,2-1.62,2.06s-1.67-.69-1.7-2c0-1,0-2,0-3h-6.5c-1.71,0-2,.24-2,1.91q0,19.19,0,38.39c0,1.69.24,1.93,1.94,1.93H54.23c1.68,0,1.91-.24,1.91-2q0-19.13,0-38.27c0-.28.1-.64,0-.82-.32-.43-.73-1.1-1.13-1.12-2.38-.1-4.78-.05-7.31-.05,0,1.21.05,2.32,0,3.43a1.65,1.65,0,1,1-3.29-.12c0-1.07,0-2.14,0-3.26Z"/><path class="cls-2" d="M56.11,13.59c-.32-.43-.73-1.1-1.13-1.12-2.38-.1-4.78-.05-7.31-.05,0,1.21.05,2.32,0,3.43a1.65,1.65,0,1,1-3.29-.12c0-1.07,0-2.14,0-3.26H34.13c0,1.1,0,2.1,0,3.09,0,1.28-.59,1.91-1.65,1.9s-1.59-.64-1.61-1.93c0-1,0-2,0-3H20.64c0,1,0,2,0,2.92,0,1.37-.54,2-1.62,2.06s-1.67-.69-1.7-2c0-1,0-2,0-3h-6.5c-1.71,0-2,.24-2,1.91q0,19.19,0,38.39c0,1.69.24,1.93,1.94,1.93H54.23c1.68,0,1.91-.24,1.91-2q0-19.13,0-38.27C56.14,14.13,56.24,13.77,56.11,13.59Z"/><path class="cls-3" d="M29,24.2a4.59,4.59,0,0,1,1.74,1.67,4.44,4.44,0,0,1,.64,2.33,4.52,4.52,0,0,1-.64,2.35A4.61,4.61,0,0,1,29,32.24a5,5,0,0,1-4.82,0,4.61,4.61,0,0,1-1.74-1.69,4.52,4.52,0,0,1-.64-2.35,4.44,4.44,0,0,1,.64-2.33A4.61,4.61,0,0,1,24.2,24.2a5.07,5.07,0,0,1,4.83,0Zm-4.16,1a3.56,3.56,0,0,0-1.29,1.27,3.48,3.48,0,0,0,0,3.53,3.59,3.59,0,0,0,1.29,1.28,3.43,3.43,0,0,0,1.76.47,3.37,3.37,0,0,0,1.75-.47A3.57,3.57,0,0,0,29.65,30a3.52,3.52,0,0,0,0-3.53,3.54,3.54,0,0,0-1.27-1.27,3.41,3.41,0,0,0-1.75-.47A3.47,3.47,0,0,0,24.87,25.18Z"/><path class="cls-3" d="M35.94,26.93a2.39,2.39,0,0,0-1.2.3,2.12,2.12,0,0,0-.83.85,2.58,2.58,0,0,0-.3,1.26,2.64,2.64,0,0,0,.29,1.26,2.16,2.16,0,0,0,.81.85,2.26,2.26,0,0,0,1.18.3,3.07,3.07,0,0,0,1.2-.22A2.26,2.26,0,0,0,38,30.9l.69.7a3,3,0,0,1-1.19.9,4.08,4.08,0,0,1-1.63.31,3.55,3.55,0,0,1-1.78-.44,3.12,3.12,0,0,1-1.21-1.23,3.64,3.64,0,0,1-.44-1.8,3.69,3.69,0,0,1,.44-1.81,3.12,3.12,0,0,1,1.21-1.23,3.55,3.55,0,0,1,1.78-.44,4.35,4.35,0,0,1,1.57.27,3,3,0,0,1,1.16.77l-.66.83A2.72,2.72,0,0,0,35.94,26.93Z"/><path class="cls-3" d="M44.08,32.32a3,3,0,0,1-1.61.51,1.83,1.83,0,0,1-1.33-.49,2,2,0,0,1-.51-1.48V27.05h-1v-.92h1V24.28h1.22v1.85H44v.92H41.85v3.59a1.27,1.27,0,0,0,.21.82.77.77,0,0,0,.62.25,2.18,2.18,0,0,0,1.07-.33Z"/><path class="cls-3" d="M32.52,46.65v1.72H25.68V47L29,43.48a4.84,4.84,0,0,0,.72-.89,1.51,1.51,0,0,0,.27-.76.78.78,0,0,0-.33-.67,1.54,1.54,0,0,0-.92-.24,3,3,0,0,0-1.25.3,5.4,5.4,0,0,0-1.29.83l-.81-1.53a6,6,0,0,1,3.64-1.34,4.16,4.16,0,0,1,1.61.29,2.52,2.52,0,0,1,1.09.82,2,2,0,0,1,.39,1.23,2.74,2.74,0,0,1-.46,1.43,9.6,9.6,0,0,1-1.29,1.6l-2.09,2.11Z"/><path class="cls-3" d="M33.09,39.27h7.14v1.47l-3.59,7.63H34.47L37.93,41h-3v1.27H33.09Z"/></svg>