<svg width="65" height="62" xmlns="http://www.w3.org/2000/svg">
 <defs>
  <style>.cls-1{fill:#bab1b1;}.cls-2{fill:#fff;stroke:#fff;stroke-miterlimit:10;}.cls-3{fill:#273274;}</style>
 </defs>
 <title>prs</title>
 <g>
  <title>background</title>
  <rect fill="none" id="canvas_background" height="402" width="582" y="-1" x="-1"/>
 </g>
 <g>
  <title>Layer 1</title>
  <path id="svg_1" d="m55.9,58l-46.8,0a5.42,5.42 0 0 1 -3.6,-3.6l0,-41.76c0.95,-2.64 2.85,-3.74 5.63,-3.64c2,0.1 4.05,0 6.19,0c0,-1 0,-1.89 0,-2.75a2.3,2.3 0 0 1 1.14,-2.25l1,0a2.07,2.07 0 0 1 1.24,2.22c-0.07,0.9 0,1.81 0,2.77l10.17,0c0,-0.92 0.06,-1.79 0,-2.66a2.37,2.37 0 0 1 1.03,-2.33l1.2,0c1.87,1.29 0.58,3.34 1.19,5l10.07,0c0,-1 0.06,-1.88 0,-2.78a2,2 0 0 1 1.22,-2.22l1,0a2.33,2.33 0 0 1 1.15,2.31c0,0.89 0,1.79 0,2.75c2.16,0 4.12,0.09 6.07,0c2.81,-0.16 4.78,0.9 5.75,3.6l0,41.74a5.47,5.47 0 0 1 -3.65,3.6zm-21.77,-45.53c0,1.1 0,2.1 0,3.09c0,1.28 -0.59,1.91 -1.65,1.9s-1.59,-0.64 -1.61,-1.93c0,-1 0,-2 0,-3l-10.23,0c0,1 0,2 0,2.92c0,1.37 -0.54,2 -1.62,2.06s-1.67,-0.69 -1.7,-2c0,-1 0,-2 0,-3l-6.5,0c-1.71,0 -2,0.24 -2,1.91q0,19.19 0,38.39c0,1.69 0.24,1.93 1.94,1.93l43.47,0c1.68,0 1.91,-0.24 1.91,-2q0,-19.13 0,-38.27c0,-0.28 0.1,-0.64 0,-0.82c-0.32,-0.43 -0.73,-1.1 -1.13,-1.12c-2.38,-0.1 -4.78,-0.05 -7.31,-0.05c0,1.21 0.05,2.32 0,3.43a1.65,1.65 0 1 1 -3.29,-0.12c0,-1.07 0,-2.14 0,-3.26l-10.28,-0.06z" class="cls-1"/>
  <path id="svg_2" d="m56.11,13.59c-0.32,-0.43 -0.73,-1.1 -1.13,-1.12c-2.38,-0.1 -4.78,-0.05 -7.31,-0.05c0,1.21 0.05,2.32 0,3.43a1.65,1.65 0 1 1 -3.29,-0.12c0,-1.07 0,-2.14 0,-3.26l-10.25,0c0,1.1 0,2.1 0,3.09c0,1.28 -0.59,1.91 -1.65,1.9s-1.59,-0.64 -1.61,-1.93c0,-1 0,-2 0,-3l-10.23,0c0,1 0,2 0,2.92c0,1.37 -0.54,2 -1.62,2.06s-1.67,-0.69 -1.7,-2c0,-1 0,-2 0,-3l-6.5,0c-1.71,0 -2,0.24 -2,1.91q0,19.19 0,38.39c0,1.69 0.24,1.93 1.94,1.93l43.47,0c1.68,0 1.91,-0.24 1.91,-2q0,-19.13 0,-38.27c0,-0.34 0.1,-0.7 -0.03,-0.88z" class="cls-2"/>
  <path id="svg_3" d="m28.34,24.2a4.6,4.6 0 0 1 1.74,1.67a4.44,4.44 0 0 1 0.64,2.33a4.52,4.52 0 0 1 -0.64,2.35a4.61,4.61 0 0 1 -1.74,1.69a5,5 0 0 1 -4.82,0a4.61,4.61 0 0 1 -1.74,-1.69a4.52,4.52 0 0 1 -0.64,-2.35a4.44,4.44 0 0 1 0.64,-2.33a4.62,4.62 0 0 1 1.73,-1.67a5.08,5.08 0 0 1 4.83,0zm-4.16,1a3.56,3.56 0 0 0 -1.29,1.27a3.48,3.48 0 0 0 0,3.53a3.59,3.59 0 0 0 1.29,1.28a3.43,3.43 0 0 0 1.76,0.47a3.36,3.36 0 0 0 1.75,-0.47a3.57,3.57 0 0 0 1.31,-1.28a3.52,3.52 0 0 0 0,-3.53a3.54,3.54 0 0 0 -1.27,-1.27a3.4,3.4 0 0 0 -1.75,-0.47a3.47,3.47 0 0 0 -1.8,0.45l0,0.02z" class="cls-3"/>
  <path id="svg_4" d="m35.25,26.93a2.4,2.4 0 0 0 -1.2,0.3a2.11,2.11 0 0 0 -0.83,0.85a2.57,2.57 0 0 0 -0.3,1.26a2.63,2.63 0 0 0 0.29,1.26a2.15,2.15 0 0 0 0.81,0.85a2.26,2.26 0 0 0 1.18,0.3a3.08,3.08 0 0 0 1.2,-0.22a2.27,2.27 0 0 0 0.88,-0.64l0.69,0.7a3.06,3.06 0 0 1 -1.19,0.9a4.09,4.09 0 0 1 -1.63,0.31a3.54,3.54 0 0 1 -1.78,-0.44a3.13,3.13 0 0 1 -1.22,-1.23a3.65,3.65 0 0 1 -0.44,-1.8a3.7,3.7 0 0 1 0.44,-1.81a3.12,3.12 0 0 1 1.22,-1.23a3.54,3.54 0 0 1 1.78,-0.44a4.35,4.35 0 0 1 1.57,0.27a3,3 0 0 1 1.16,0.77l-0.66,0.83a2.72,2.72 0 0 0 -1.97,-0.79z" class="cls-3"/>
  <path id="svg_5" d="m43.39,32.32a3,3 0 0 1 -1.61,0.51a1.83,1.83 0 0 1 -1.33,-0.49a2,2 0 0 1 -0.51,-1.48l0,-3.81l-0.94,0l0,-0.92l1,0l0,-1.85l1.22,0l0,1.85l2.11,0l0,0.92l-2.16,0l0,3.59a1.27,1.27 0 0 0 0.21,0.82a0.77,0.77 0 0 0 0.62,0.25a2.18,2.18 0 0 0 1.07,-0.33l0.32,0.94z" class="cls-3"/>
  <text stroke="null" transform="matrix(0.7193882788565199,0,0,0.6454828301434006,2.4051348693123282,20.117711990475744) " font-weight="bold" xml:space="preserve" text-anchor="start" font-family="Helvetica, Arial, sans-serif" font-size="24" id="svg_9" y="44.624968" x="29.750006" stroke-opacity="null" stroke-width="0" fill="#273274">21</text>
 </g>
</svg>