<svg id="Layer_1" data-name="Layer 1" xmlns="http://www.w3.org/2000/svg" viewBox="0 0 65 62"><defs><style>.cls-1{fill:#bab1b1;}.cls-2{fill:#fff;stroke:#fff;stroke-miterlimit:10;}.cls-3{fill:#273274;}</style></defs><title>prs</title><path class="cls-1" d="M55.9,58H9.1a5.42,5.42,0,0,1-3.6-3.6V12.64C6.45,10,8.35,8.9,11.13,9c2,.1,4.05,0,6.19,0,0-1,0-1.89,0-2.75A2.3,2.3,0,0,1,18.46,4h1a2.07,2.07,0,0,1,1.24,2.22c-.07.9,0,1.81,0,2.77H30.87c0-.92.06-1.79,0-2.66A2.37,2.37,0,0,1,31.9,4h1.2c1.87,1.29.58,3.34,1.19,5H44.36c0-1,.06-1.88,0-2.78A2,2,0,0,1,45.58,4h1a2.33,2.33,0,0,1,1.15,2.31c0,.89,0,1.79,0,2.75,2.16,0,4.12.09,6.07,0,2.81-.16,4.78.9,5.75,3.6V54.4A5.47,5.47,0,0,1,55.9,58ZM34.13,12.47c0,1.1,0,2.1,0,3.09,0,1.28-.59,1.91-1.65,1.9s-1.59-.64-1.61-1.93c0-1,0-2,0-3H20.64c0,1,0,2,0,2.92,0,1.37-.54,2-1.62,2.06s-1.67-.69-1.7-2c0-1,0-2,0-3h-6.5c-1.71,0-2,.24-2,1.91q0,19.19,0,38.39c0,1.69.24,1.93,1.94,1.93H54.23c1.68,0,1.91-.24,1.91-2q0-19.13,0-38.27c0-.28.1-.64,0-.82-.32-.43-.73-1.1-1.13-1.12-2.38-.1-4.78-.05-7.31-.05,0,1.21.05,2.32,0,3.43a1.65,1.65,0,1,1-3.29-.12c0-1.07,0-2.14,0-3.26Z"/><path class="cls-2" d="M56.11,13.59c-.32-.43-.73-1.1-1.13-1.12-2.38-.1-4.78-.05-7.31-.05,0,1.21.05,2.32,0,3.43a1.65,1.65,0,1,1-3.29-.12c0-1.07,0-2.14,0-3.26H34.13c0,1.1,0,2.1,0,3.09,0,1.28-.59,1.91-1.65,1.9s-1.59-.64-1.61-1.93c0-1,0-2,0-3H20.64c0,1,0,2,0,2.92,0,1.37-.54,2-1.62,2.06s-1.67-.69-1.7-2c0-1,0-2,0-3h-6.5c-1.71,0-2,.24-2,1.91q0,19.19,0,38.39c0,1.69.24,1.93,1.94,1.93H54.23c1.68,0,1.91-.24,1.91-2q0-19.13,0-38.27C56.14,14.13,56.24,13.77,56.11,13.59Z"/><path class="cls-3" d="M28.34,24.2a4.6,4.6,0,0,1,1.74,1.67,4.44,4.44,0,0,1,.64,2.33,4.52,4.52,0,0,1-.64,2.35,4.61,4.61,0,0,1-1.74,1.69,5,5,0,0,1-4.82,0,4.61,4.61,0,0,1-1.74-1.69,4.52,4.52,0,0,1-.64-2.35,4.44,4.44,0,0,1,.64-2.33,4.62,4.62,0,0,1,1.73-1.67,5.08,5.08,0,0,1,4.83,0Zm-4.16,1a3.56,3.56,0,0,0-1.29,1.27,3.48,3.48,0,0,0,0,3.53,3.59,3.59,0,0,0,1.29,1.28,3.43,3.43,0,0,0,1.76.47,3.36,3.36,0,0,0,1.75-.47A3.57,3.57,0,0,0,29,30a3.52,3.52,0,0,0,0-3.53,3.54,3.54,0,0,0-1.27-1.27,3.4,3.4,0,0,0-1.75-.47A3.47,3.47,0,0,0,24.18,25.18Z"/><path class="cls-3" d="M35.25,26.93a2.4,2.4,0,0,0-1.2.3,2.11,2.11,0,0,0-.83.85,2.57,2.57,0,0,0-.3,1.26,2.63,2.63,0,0,0,.29,1.26,2.15,2.15,0,0,0,.81.85,2.26,2.26,0,0,0,1.18.3,3.08,3.08,0,0,0,1.2-.22,2.27,2.27,0,0,0,.88-.64l.69.7a3.06,3.06,0,0,1-1.19.9,4.09,4.09,0,0,1-1.63.31,3.54,3.54,0,0,1-1.78-.44,3.13,3.13,0,0,1-1.22-1.23,3.65,3.65,0,0,1-.44-1.8,3.7,3.7,0,0,1,.44-1.81,3.12,3.12,0,0,1,1.22-1.23,3.54,3.54,0,0,1,1.78-.44,4.35,4.35,0,0,1,1.57.27,3,3,0,0,1,1.16.77l-.66.83A2.72,2.72,0,0,0,35.25,26.93Z"/><path class="cls-3" d="M43.39,32.32a3,3,0,0,1-1.61.51,1.83,1.83,0,0,1-1.33-.49,2,2,0,0,1-.51-1.48V27.05H39v-.92h1V24.28h1.22v1.85h2.11v.92H41.17v3.59a1.27,1.27,0,0,0,.21.82.77.77,0,0,0,.62.25,2.18,2.18,0,0,0,1.07-.33Z"/><path class="cls-3" d="M31,40.39a5.12,5.12,0,0,1,1,3.43,5.13,5.13,0,0,1-1,3.43,3.65,3.65,0,0,1-2.94,1.2,3.69,3.69,0,0,1-3-1.2,5.11,5.11,0,0,1-1-3.43,5.1,5.1,0,0,1,1-3.43,3.7,3.7,0,0,1,3-1.2A3.66,3.66,0,0,1,31,40.39Zm-4.37,1.11a4.54,4.54,0,0,0-.46,2.33,4.55,4.55,0,0,0,.46,2.32,1.56,1.56,0,0,0,1.43.73,1.53,1.53,0,0,0,1.4-.73,4.54,4.54,0,0,0,.46-2.32,4.53,4.53,0,0,0-.46-2.33,1.54,1.54,0,0,0-1.4-.73A1.56,1.56,0,0,0,26.65,41.49Z"/><path class="cls-3" d="M38.33,40.94a3.55,3.55,0,0,0-1-.15,2.05,2.05,0,0,0-1.71.72,3,3,0,0,0-.55,2A2.29,2.29,0,0,1,36,42.7a3,3,0,0,1,1.34-.28,2.85,2.85,0,0,1,2.13.8,2.91,2.91,0,0,1,.79,2.14A3.23,3.23,0,0,1,39.81,47a2.73,2.73,0,0,1-1.15,1.08,4.14,4.14,0,0,1-3.77-.16,3.44,3.44,0,0,1-1.31-1.55,5.78,5.78,0,0,1-.46-2.4,6,6,0,0,1,.5-2.53,3.74,3.74,0,0,1,3.56-2.27,6.09,6.09,0,0,1,1.5.2,4.8,4.8,0,0,1,1.33.53l-.78,1.46A3.26,3.26,0,0,0,38.33,40.94Zm-2.61,3.41a1.49,1.49,0,0,0,0,2,1.53,1.53,0,0,0,1.15.41A1.58,1.58,0,0,0,38,46.41a1.38,1.38,0,0,0,.41-1.07,1.36,1.36,0,0,0-.39-1,1.49,1.49,0,0,0-1.08-.38A1.62,1.62,0,0,0,35.72,44.35Z"/></svg>