<svg id="Layer_1" data-name="Layer 1" xmlns="http://www.w3.org/2000/svg" viewBox="0 0 92 92"><defs><style>.cls-1{fill:#fff;}.cls-2{fill:#273274;}</style></defs><title>footer button</title><circle class="cls-1" cx="46" cy="46" r="44.67"/><path class="cls-2" d="M46,61.81H30.12a2.42,2.42,0,0,1-2.7-2.66q0-7.27,0-14.54c0-.56,0-.58.53-.32A58.15,58.15,0,0,0,40.57,49c.67.18.67.17.68.88,0,.47,0,.94,0,1.42a.84.84,0,0,0,.93.92h8.09a.84.84,0,0,0,.92-.93c0-.52,0-1,0-1.57s0-.57.55-.71a63.72,63.72,0,0,0,8.34-2.78,39.79,39.79,0,0,0,4-1.9c.51-.28.53-.26.53.34q0,5.54,0,11.07c0,1.18,0,2.36,0,3.54a2.41,2.41,0,0,1-1.43,2.34,2.36,2.36,0,0,1-1.05.21H46Z"/><path class="cls-2" d="M46.1,30.2h6A2.61,2.61,0,0,1,54.91,33c0,.56,0,1.12,0,1.68s0,.63.62.64h6.34A2.44,2.44,0,0,1,64.58,38c0,1.27,0,2.53,0,3.8a.88.88,0,0,1-.48.87,41.43,41.43,0,0,1-6.58,3.05c-1.88.71-3.8,1.33-5.73,1.91-.51.15-.59.09-.59-.45s0-.89,0-1.34a.83.83,0,0,0-.9-.88H42.13a.81.81,0,0,0-.88.86,10.73,10.73,0,0,0,0,1.6c0,.26-.08.37-.36.29a60.17,60.17,0,0,1-12.53-4.82c-1.14-.63-.92-.39-.93-1.56s0-2.36,0-3.54a2.38,2.38,0,0,1,2-2.47,3.26,3.26,0,0,1,.59,0h6.63c.57,0,.6,0,.6-.58s0-1.14,0-1.71A2.61,2.61,0,0,1,40,30.2Zm0,5.07h6.49c.45,0,.49,0,.5-.49s0-1.19,0-1.79-.26-.92-.94-.92H40c-.61,0-.88.28-.88.9s0,1.14,0,1.71,0,.59.58.59Z"/><path class="cls-2" d="M46.24,51.05H43.67c-.83,0-1.07-.25-1.07-1.07,0-1,0-2,0-3,0-.61.26-.9.88-.91q2.72,0,5.44,0c.66,0,.92.28.92.95q0,1.55,0,3.09c0,.61-.26.89-.88.91-.91,0-1.81,0-2.72,0Z"/></svg>