<svg id="Layer_1" data-name="Layer 1" xmlns="http://www.w3.org/2000/svg" xmlns:xlink="http://www.w3.org/1999/xlink" viewBox="0 0 415 381"><defs><style>.cls-1{fill:none;}.cls-10,.cls-15,.cls-2,.cls-7,.cls-8{fill:#273274;}.cls-3{clip-path:url(#clip-path);}.cls-12,.cls-4,.cls-5,.cls-6{fill:#ff544e;}.cls-12,.cls-5,.cls-6{stroke:#fff;}.cls-10,.cls-11,.cls-12,.cls-14,.cls-15,.cls-5,.cls-6,.cls-7,.cls-8{stroke-miterlimit:10;}.cls-15,.cls-5{stroke-width:3px;}.cls-10,.cls-14,.cls-6,.cls-8{stroke-width:2px;}.cls-11,.cls-14,.cls-15,.cls-7,.cls-8{stroke:#f7f7f7;}.cls-11,.cls-7{stroke-width:4px;}.cls-9{fill:#fff;}.cls-10{stroke:#f9f9f9;}.cls-11,.cls-13,.cls-14{fill:#ff8c58;}.cls-12{stroke-width:5px;}</style><clipPath id="clip-path"><rect class="cls-1" x="-36" y="242.57" width="507" height="137.87"/></clipPath></defs><title>hacktober mobile top</title><path class="cls-2" d="M90.33,80.64h3.55V69.55a1.94,1.94,0,0,0-.1-.68,1,1,0,0,0-.27-.4.93.93,0,0,0-.42-.19,2.73,2.73,0,0,0-.54,0,5.22,5.22,0,0,0-1.06.14,8.83,8.83,0,0,0-1.34.41,11.14,11.14,0,0,0-1.41.67,6.83,6.83,0,0,0-1.27.91,4.53,4.53,0,0,0-.91,1.13,2.7,2.7,0,0,0-.35,1.34,2.47,2.47,0,0,0,.17,1,1.56,1.56,0,0,0,.38.56,1,1,0,0,0,.44.23,1.72,1.72,0,0,0,.32,0,1.7,1.7,0,0,0,.8-.17,4.69,4.69,0,0,0,.57-.35l.48-.35a.84.84,0,0,1,.52-.17,1.33,1.33,0,0,1,.5.11,1.42,1.42,0,0,1,.49.34,1.93,1.93,0,0,1,.38.61,2.44,2.44,0,0,1,.16.93A2.81,2.81,0,0,1,91.1,77a3,3,0,0,1-.78.95,3.22,3.22,0,0,1-1.09.56,4.18,4.18,0,0,1-1.22.19,4.25,4.25,0,0,1-1.69-.32A3.72,3.72,0,0,1,85,77.44a3.81,3.81,0,0,1-.8-1.33A4.75,4.75,0,0,1,84,74.5,6.12,6.12,0,0,1,84.46,72a7,7,0,0,1,1.33-2,9,9,0,0,1,2-1.57,13,13,0,0,1,2.46-1.12A16.57,16.57,0,0,1,93,66.65a18.78,18.78,0,0,1,2.88-.22,8,8,0,0,1,2.48.3,3.3,3.3,0,0,1,1.31.73,1.69,1.69,0,0,1,.5.9,4.93,4.93,0,0,1,.08.78v11.5h7.17V71.26a15.82,15.82,0,0,1,.84-5.48,11,11,0,0,1,2.16-3.69,8.12,8.12,0,0,1,3-2.09,8.74,8.74,0,0,1,3.25-.65,13.06,13.06,0,0,1,2.11.17,7.32,7.32,0,0,1,1.75.5,3.49,3.49,0,0,1,1.2.83,1.68,1.68,0,0,1,.45,1.16,1.76,1.76,0,0,1-.33,1,1.29,1.29,0,0,1-.36.34.79.79,0,0,1-.42.13,1,1,0,0,1-.62-.21,2.88,2.88,0,0,1-.52-.54q-.24-.32-.48-.7a4.72,4.72,0,0,0-.53-.7,2.78,2.78,0,0,0-.66-.54,1.72,1.72,0,0,0-.88-.21,2.66,2.66,0,0,0-1.89.65,4.14,4.14,0,0,0-1.07,1.91,14.11,14.11,0,0,0-.48,3.13q-.11,1.87-.11,4.29V80.64h3.92v1.71h-3.92V94.2a1.52,1.52,0,0,0,.24.91.86.86,0,0,0,.75.34,2.62,2.62,0,0,0,1-.19c.31-.13.58-.25.82-.37l.33.72q-.43.29-1,.61a11.5,11.5,0,0,1-1.27.6,10,10,0,0,1-1.48.47,7.2,7.2,0,0,1-1.65.18,5.5,5.5,0,0,1-2.14-.35,3.12,3.12,0,0,1-1.27-.93,3.08,3.08,0,0,1-.59-1.3,7.33,7.33,0,0,1-.15-1.46V82.35h-7.17v9.7a10.38,10.38,0,0,1-1,4.62A9.33,9.33,0,0,1,96.66,100a11.44,11.44,0,0,1-3.95,2,17.54,17.54,0,0,1-4.86.65,10.77,10.77,0,0,1-1.91-.17,7.81,7.81,0,0,1-1.62-.46,3.63,3.63,0,0,1-1.12-.69,1.19,1.19,0,0,1-.42-.87,2.73,2.73,0,0,1,.1-.71,2.23,2.23,0,0,1,.29-.65,1.81,1.81,0,0,1,.48-.49,1.09,1.09,0,0,1,.63-.19.48.48,0,0,1,.38.21,4.11,4.11,0,0,1,.34.54q.18.32.4.69a3,3,0,0,0,.58.69,3.12,3.12,0,0,0,.87.54,3.27,3.27,0,0,0,1.27.21,5.67,5.67,0,0,0,2.58-.55,4.8,4.8,0,0,0,1.78-1.54,7,7,0,0,0,1-2.37,12.48,12.48,0,0,0,.34-3V82.35H90.33Z"/><path class="cls-2" d="M126.69,76.93a4.61,4.61,0,0,0-1.23.16,4.26,4.26,0,0,0-1,.39,2.29,2.29,0,0,0-.64.52.86.86,0,0,0-.23.54.43.43,0,0,0,.3.42l.67.29a2.26,2.26,0,0,1,.67.47,1.26,1.26,0,0,1,.3.93,1.69,1.69,0,0,1-.17.75,2,2,0,0,1-1.11,1,2.18,2.18,0,0,1-.79.15,2.27,2.27,0,0,1-1.76-.74,2.81,2.81,0,0,1-.67-2,3.34,3.34,0,0,1,.62-2,4.87,4.87,0,0,1,1.63-1.39,8.22,8.22,0,0,1,2.27-.81,12.6,12.6,0,0,1,5.44.07,7.36,7.36,0,0,1,2.45,1.05,5.45,5.45,0,0,1,1.7,1.83,5.35,5.35,0,0,1,.63,2.69v11q0,.18,0,.39a1.23,1.23,0,0,0,.1.39.73.73,0,0,0,.23.29.74.74,0,0,0,.45.12,1,1,0,0,0,.65-.26,5.36,5.36,0,0,0,.54-.54l.49.41q-.29.41-.7.9a5.62,5.62,0,0,1-2.36,1.64,5,5,0,0,1-1.77.29,3.5,3.5,0,0,1-2.18-.73A3.54,3.54,0,0,1,130,92.89a8.24,8.24,0,0,1-1.3,1.4,7,7,0,0,1-1.37.92,6,6,0,0,1-1.41.51,6.66,6.66,0,0,1-1.43.16,5.7,5.7,0,0,1-1.81-.29,4.33,4.33,0,0,1-1.57-.93A4.55,4.55,0,0,1,120,93a6.47,6.47,0,0,1-.42-2.47,5.44,5.44,0,0,1,.7-2.9,6.27,6.27,0,0,1,1.84-1.9,12.46,12.46,0,0,1,2.59-1.32q1.45-.54,3-1.15a3.18,3.18,0,0,0,1.65-1.34,3.58,3.58,0,0,0,.52-1.82A3.16,3.16,0,0,0,129,77.8,3.08,3.08,0,0,0,126.69,76.93Zm3.1,8.54a.9.9,0,0,0-.31-.74,1.23,1.23,0,0,0-.8-.25,2.82,2.82,0,0,0-1.3.31,3.2,3.2,0,0,0-1.08.92,4.62,4.62,0,0,0-.74,1.49,7,7,0,0,0-.27,2.06,8.75,8.75,0,0,0,.17,1.87,3.64,3.64,0,0,0,.45,1.18,1.62,1.62,0,0,0,.65.61,1.79,1.79,0,0,0,.78.18,1.86,1.86,0,0,0,1-.26,2.85,2.85,0,0,0,.78-.67,3.39,3.39,0,0,0,.53-.92,2.82,2.82,0,0,0,.19-1Z"/><path class="cls-2" d="M153.27,82.08a2.45,2.45,0,0,1-1-.19,1.77,1.77,0,0,1-.66-.5,2,2,0,0,1-.37-.69,2.66,2.66,0,0,1-.12-.79,7.28,7.28,0,0,1,.07-1,3.37,3.37,0,0,0,0-.88,1,1,0,0,0-.3-.62,1.33,1.33,0,0,0-.9-.23,3.18,3.18,0,0,0-1.44.39,4.07,4.07,0,0,0-1.38,1.23,7.13,7.13,0,0,0-1,2.15,10.73,10.73,0,0,0-.41,3.17,17,17,0,0,0,.38,3.73,9,9,0,0,0,1.14,2.87,5.49,5.49,0,0,0,1.89,1.84,5.2,5.2,0,0,0,2.65.65,5.27,5.27,0,0,0,1.3-.16,5.74,5.74,0,0,0,1.16-.43,7.45,7.45,0,0,0,1-.63q.5-.36,1-.77l.49.47A13.42,13.42,0,0,1,155.59,93a9.42,9.42,0,0,1-1.7,1.35,9.79,9.79,0,0,1-2.32,1.05,10,10,0,0,1-3,.42,8.7,8.7,0,0,1-3.3-.65,8.53,8.53,0,0,1-2.86-1.9,9.34,9.34,0,0,1-2-3,10.39,10.39,0,0,1-.75-4.06,11.27,11.27,0,0,1,.45-3.26,10.7,10.7,0,0,1,1.22-2.7,10.14,10.14,0,0,1,1.79-2.12,11.35,11.35,0,0,1,2.15-1.53,10.41,10.41,0,0,1,2.31-.93,8.9,8.9,0,0,1,2.27-.31,8.55,8.55,0,0,1,2.51.33,5.65,5.65,0,0,1,1.78.88,3.59,3.59,0,0,1,1.06,1.26,3.28,3.28,0,0,1,.35,1.47,4,4,0,0,1-.15,1.08,2.73,2.73,0,0,1-.43.9,2.07,2.07,0,0,1-.71.6A2.12,2.12,0,0,1,153.27,82.08Z"/><path class="cls-2" d="M165,80.64q.68-.92,1.46-1.86a13.46,13.46,0,0,1,1.68-1.7,8.56,8.56,0,0,1,1.95-1.25,5.41,5.41,0,0,1,2.3-.49,3.58,3.58,0,0,1,1.85.44,4,4,0,0,1,1.2,1.05,3.9,3.9,0,0,1,.64,1.28,4.32,4.32,0,0,1,.18,1.13A7.58,7.58,0,0,1,176,81a6.68,6.68,0,0,1-.76,1.83,8.15,8.15,0,0,1-1.43,1.75,9.76,9.76,0,0,1-2.26,1.55,67.39,67.39,0,0,0,3.57,6.67,33.39,33.39,0,0,0,3.34,4.6,13.09,13.09,0,0,0,3.09,2.66,5.66,5.66,0,0,0,2.83.86,1.93,1.93,0,0,0,.47-.06,3.31,3.31,0,0,0,.43-.14,4.22,4.22,0,0,0,.45-.19l.37.68q-.53.29-1.07.56a7.55,7.55,0,0,1-1.25.46,11.5,11.5,0,0,1-1.62.31,17.45,17.45,0,0,1-2.18.12,9.6,9.6,0,0,1-2.27-.27,7.76,7.76,0,0,1-2.25-1,12.71,12.71,0,0,1-2.29-1.87,20.83,20.83,0,0,1-2.38-3,42.45,42.45,0,0,1-2.5-4.27q-1.29-2.47-2.67-5.79A20.42,20.42,0,0,0,168.59,84a12.59,12.59,0,0,0,1.62-2.13,5.55,5.55,0,0,0,.68-1.7,7.13,7.13,0,0,0,.14-1.27c0-.05,0-.14,0-.26a.86.86,0,0,0-.13-.36,1,1,0,0,0-.31-.31,1,1,0,0,0-.58-.14,2.3,2.3,0,0,0-1.46.61,8.62,8.62,0,0,0-1.41,1.52,14.7,14.7,0,0,0-1.22,1.95q-.55,1-.9,1.9V93.85a2.55,2.55,0,0,1-.09.6,1.4,1.4,0,0,1-.41.66,2.61,2.61,0,0,1-.94.54,4.93,4.93,0,0,1-1.65.22,4.31,4.31,0,0,1-1.62-.24,2.26,2.26,0,0,1-.87-.57,1.5,1.5,0,0,1-.35-.68,3.09,3.09,0,0,1-.07-.57V68.67a1.81,1.81,0,0,0-.26-1,1,1,0,0,0-.89-.42,1.43,1.43,0,0,0-.57.11,2.45,2.45,0,0,0-.52.32l-.39-.47a11.61,11.61,0,0,1,1-.73,7.25,7.25,0,0,1,1.2-.63,9,9,0,0,1,1.39-.45,6.73,6.73,0,0,1,1.56-.18,4.61,4.61,0,0,1,2,.34,2.52,2.52,0,0,1,1,.84,2.41,2.41,0,0,1,.4,1.05,8.19,8.19,0,0,1,.07,1Z"/><path class="cls-2" d="M186.48,77v14.4a2,2,0,0,0,.39,1.43,1.43,1.43,0,0,0,1.07.4,1.57,1.57,0,0,0,.94-.29,3.43,3.43,0,0,0,.7-.66,4.1,4.1,0,0,0,.6-1l.6.27q-.29.62-.69,1.36a5.4,5.4,0,0,1-2.73,2.44,6.45,6.45,0,0,1-2.52.43,5.36,5.36,0,0,1-1.65-.25,3.86,3.86,0,0,1-1.4-.8,4,4,0,0,1-1-1.36,4.75,4.75,0,0,1-.37-2V77h-2.18v-1.4a5.9,5.9,0,0,0,1.52-.28,7.59,7.59,0,0,0,2-.94,7.94,7.94,0,0,0,1.9-1.77,6.77,6.77,0,0,0,1.25-2.75h1.56v5.75h3.18q1.56,0,1.56-.53a.26.26,0,0,0-.19-.26l-.44-.18a1.4,1.4,0,0,1-.44-.3.88.88,0,0,1-.2-.64,1.11,1.11,0,0,1,.34-.86,1.26,1.26,0,0,1,.89-.31,1.24,1.24,0,0,1,.61.15,1.33,1.33,0,0,1,.44.39,1.76,1.76,0,0,1,.26.55,2.3,2.3,0,0,1,.09.62,2.76,2.76,0,0,1-.73,2,3.16,3.16,0,0,1-2.35.75Z"/><path class="cls-2" d="M192,85.59a12.37,12.37,0,0,1,.74-4.47,9.46,9.46,0,0,1,2-3.21A8,8,0,0,1,197.56,76a9.29,9.29,0,0,1,3.43-.64,10,10,0,0,1,3.43.59,7.82,7.82,0,0,1,2.87,1.82,8.9,8.9,0,0,1,2,3.11,12.13,12.13,0,0,1,.74,4.45,12.79,12.79,0,0,1-.74,4.52,10.06,10.06,0,0,1-2,3.31,8.22,8.22,0,0,1-2.87,2,8.73,8.73,0,0,1-3.43.69,9.17,9.17,0,0,1-3.43-.65,8.11,8.11,0,0,1-2.87-1.94,9.44,9.44,0,0,1-2-3.22A12.45,12.45,0,0,1,192,85.59Zm12-.19q0-1.56-.11-3a13.5,13.5,0,0,0-.42-2.58,4.56,4.56,0,0,0-.9-1.8,1.94,1.94,0,0,0-1.54-.67,1.89,1.89,0,0,0-1.54.71,4.92,4.92,0,0,0-.9,1.87,13.61,13.61,0,0,0-.41,2.64q-.1,1.48-.1,3t.1,3a13.82,13.82,0,0,0,.41,2.66,4.92,4.92,0,0,0,.9,1.88,1.89,1.89,0,0,0,1.54.71,1.87,1.87,0,0,0,1.54-.74,5.22,5.22,0,0,0,.9-1.95,15.27,15.27,0,0,0,.42-2.73Q204,86.95,204,85.39Z"/><path class="cls-2" d="M213,68.67a1.82,1.82,0,0,0-.26-1,1,1,0,0,0-.89-.42,1.43,1.43,0,0,0-.58.11,2.45,2.45,0,0,0-.52.32l-.39-.47a10.91,10.91,0,0,1,1-.73,7.81,7.81,0,0,1,1.2-.63,8.64,8.64,0,0,1,1.38-.45,6.73,6.73,0,0,1,1.56-.18,4.15,4.15,0,0,1,1.82.34,2.79,2.79,0,0,1,1.05.84,2.73,2.73,0,0,1,.48,1.07,5.33,5.33,0,0,1,.12,1.06v8.69l.6-.54a5.42,5.42,0,0,1,.94-.63,6.15,6.15,0,0,1,1.35-.53,7.17,7.17,0,0,1,1.86-.21,5.91,5.91,0,0,1,2.49.58,6.27,6.27,0,0,1,2.24,1.8,9.73,9.73,0,0,1,1.62,3.16,15.19,15.19,0,0,1,.62,4.64,13.74,13.74,0,0,1-.58,4,9.79,9.79,0,0,1-1.7,3.3,8,8,0,0,1-2.83,2.23,9,9,0,0,1-3.94.82,9.55,9.55,0,0,1-4.1-.79A7.1,7.1,0,0,1,214.91,93a8.41,8.41,0,0,1-1.45-3.11,15.54,15.54,0,0,1-.44-3.74Zm11.61,17.19a27.28,27.28,0,0,0-.18-3.19,12.47,12.47,0,0,0-.56-2.61,5,5,0,0,0-1-1.77,2,2,0,0,0-2.58-.33,3.1,3.1,0,0,0-.75.73,3.15,3.15,0,0,0-.43.81A2.12,2.12,0,0,0,219,80v5.83a19.38,19.38,0,0,0,.71,6.18q.71,1.93,2.09,1.93t2.14-2A20.22,20.22,0,0,0,224.63,85.86Z"/><path class="cls-2" d="M239.52,86.62A5.51,5.51,0,0,0,239.7,88a8.08,8.08,0,0,0,.54,1.47,7.79,7.79,0,0,0,.87,1.41,6.71,6.71,0,0,0,1.19,1.2,5.68,5.68,0,0,0,1.49.84,5,5,0,0,0,1.79.31,4.92,4.92,0,0,0,1.27-.16,5,5,0,0,0,1.09-.43,7.1,7.1,0,0,0,1-.63q.47-.36.94-.77l.49.47A13.4,13.4,0,0,1,249.18,93a9.44,9.44,0,0,1-1.7,1.35,9.81,9.81,0,0,1-2.32,1.05,10,10,0,0,1-3,.42,9.19,9.19,0,0,1-3.3-.61A8.2,8.2,0,0,1,236,93.38a9,9,0,0,1-2-3.06,12.37,12.37,0,0,1-.3-7.54,10.46,10.46,0,0,1,1.22-2.67A9.89,9.89,0,0,1,236.7,78a11.11,11.11,0,0,1,2.15-1.49,10.65,10.65,0,0,1,2.31-.9,9.46,9.46,0,0,1,4.78,0,5.63,5.63,0,0,1,1.78.84,3.48,3.48,0,0,1,1.06,1.22,3.17,3.17,0,0,1,.35,1.45,2.75,2.75,0,0,1-.53,1.65,4.87,4.87,0,0,1-1.4,1.28Zm3.92-4a3.12,3.12,0,0,0,.42-.3,1.09,1.09,0,0,0,.26-.35,1.89,1.89,0,0,0,.15-.51,4.88,4.88,0,0,0,0-.75,6.15,6.15,0,0,0-.11-1.08,4.35,4.35,0,0,0-.36-1.12,2.79,2.79,0,0,0-.64-.88,1.35,1.35,0,0,0-.94-.35,1.8,1.8,0,0,0-1.2.42,3.25,3.25,0,0,0-.82,1.08,6.73,6.73,0,0,0-.51,1.51,16.89,16.89,0,0,0-.28,1.7q-.1.86-.12,1.65c0,.53,0,1,0,1.33Z"/><path class="cls-2" d="M259.18,79.45a16,16,0,0,1,1.58-2,10.52,10.52,0,0,1,.76-.76,7.28,7.28,0,0,1,.85-.66,4.45,4.45,0,0,1,.91-.47,2.66,2.66,0,0,1,.94-.18,2,2,0,0,1,1.56.59,2.32,2.32,0,0,1,.57,1.67,7.47,7.47,0,0,1-.11,1.28,9.49,9.49,0,0,1-.42,1.49h-.55a1.81,1.81,0,0,0-.55-1,1.77,1.77,0,0,0-1.25-.4,3.3,3.3,0,0,0-1.19.22,7.4,7.4,0,0,0-1.14.56,10,10,0,0,0-1.05.72q-.5.39-.91.74V93.85a2.87,2.87,0,0,1-.08.6,1.39,1.39,0,0,1-.38.66,2.41,2.41,0,0,1-.9.54,4.75,4.75,0,0,1-1.63.22,4.39,4.39,0,0,1-1.63-.24,2.56,2.56,0,0,1-.91-.57,1.47,1.47,0,0,1-.39-.68,2.75,2.75,0,0,1-.08-.57v-15a1.82,1.82,0,0,0-.26-1,1,1,0,0,0-.89-.42,1.26,1.26,0,0,0-.57.12,3,3,0,0,0-.51.33l-.41-.49a10.88,10.88,0,0,1,1-.73,7.83,7.83,0,0,1,1.2-.63,8.73,8.73,0,0,1,1.38-.45,6.77,6.77,0,0,1,1.56-.18,4.08,4.08,0,0,1,1.43.22,2.87,2.87,0,0,1,1,.58,2.74,2.74,0,0,1,.59.81,4.48,4.48,0,0,1,.32.91,4.89,4.89,0,0,1,.13.88C259.17,79,259.18,79.25,259.18,79.45Z"/><path class="cls-2" d="M278.41,66.59a2.35,2.35,0,0,0-1,.23,2.19,2.19,0,0,0-.85.75,4.18,4.18,0,0,0-.58,1.32,7.53,7.53,0,0,0-.21,1.93v4.79H280V77h-4.27V92.37a16.52,16.52,0,0,1-.69,4.89,10.65,10.65,0,0,1-2.09,3.87,9.63,9.63,0,0,1-3.51,2.54,12.22,12.22,0,0,1-4.91.92,10.79,10.79,0,0,1-1.91-.17A7.88,7.88,0,0,1,261,104a3.63,3.63,0,0,1-1.12-.69,1.2,1.2,0,0,1-.42-.89,2.7,2.7,0,0,1,.1-.71,2.19,2.19,0,0,1,.29-.65,1.67,1.67,0,0,1,.48-.48,1.17,1.17,0,0,1,.65-.18.48.48,0,0,1,.38.21,4.38,4.38,0,0,1,.34.53l.4.69a2.88,2.88,0,0,0,.58.69,3.06,3.06,0,0,0,.87.53,3.28,3.28,0,0,0,1.26.21,3.72,3.72,0,0,0,1.75-.4,4,4,0,0,0,1.31-1.1,6.53,6.53,0,0,0,.92-1.66,12.13,12.13,0,0,0,.58-2,19.26,19.26,0,0,0,.3-2.28q.09-1.19.09-2.38V77h-3.59v-1.4h3.59V73.33a9.61,9.61,0,0,1,.42-3,7.18,7.18,0,0,1,1.11-2.17,6.3,6.3,0,0,1,1.57-1.46,9,9,0,0,1,1.78-.9,8.51,8.51,0,0,1,1.76-.45,11.31,11.31,0,0,1,1.5-.12,13.2,13.2,0,0,1,2.46.2,7.55,7.55,0,0,1,1.79.55,3.13,3.13,0,0,1,1.09.79,1.43,1.43,0,0,1,.37.92,2.48,2.48,0,0,1-.11.71,2.56,2.56,0,0,1-.3.66,1.62,1.62,0,0,1-.48.49,1.13,1.13,0,0,1-.63.18.49.49,0,0,1-.39-.23,5,5,0,0,1-.37-.58l-.43-.76a3.78,3.78,0,0,0-.57-.76,3,3,0,0,0-.81-.58A2.45,2.45,0,0,0,278.41,66.59Z"/><path class="cls-2" d="M286.42,86.62a5.48,5.48,0,0,0,.19,1.35,8.12,8.12,0,0,0,.54,1.47,7.8,7.8,0,0,0,.87,1.41,6.69,6.69,0,0,0,1.19,1.2,5.67,5.67,0,0,0,1.49.84,5,5,0,0,0,1.79.31,4.92,4.92,0,0,0,1.27-.16,5,5,0,0,0,1.09-.43,7.09,7.09,0,0,0,1-.63q.47-.36.94-.77l.49.47A13.31,13.31,0,0,1,296.09,93a9.45,9.45,0,0,1-1.7,1.35,9.79,9.79,0,0,1-2.32,1.05,10,10,0,0,1-3,.42,9.19,9.19,0,0,1-3.3-.61,8.21,8.21,0,0,1-2.85-1.84,9,9,0,0,1-2-3.06,12.38,12.38,0,0,1-.3-7.54,10.48,10.48,0,0,1,1.22-2.67A9.89,9.89,0,0,1,283.61,78a11.13,11.13,0,0,1,2.15-1.49,10.64,10.64,0,0,1,2.31-.9,9.46,9.46,0,0,1,4.78,0,5.63,5.63,0,0,1,1.78.84,3.47,3.47,0,0,1,1.06,1.22,3.17,3.17,0,0,1,.35,1.45,2.74,2.74,0,0,1-.53,1.65,4.86,4.86,0,0,1-1.4,1.28Zm3.92-4a3.11,3.11,0,0,0,.42-.3A1.09,1.09,0,0,0,291,82a1.89,1.89,0,0,0,.15-.51,4.87,4.87,0,0,0,0-.75,6.15,6.15,0,0,0-.11-1.08,4.35,4.35,0,0,0-.36-1.12,2.79,2.79,0,0,0-.64-.88,1.35,1.35,0,0,0-.94-.35,1.8,1.8,0,0,0-1.2.42,3.25,3.25,0,0,0-.82,1.08,6.73,6.73,0,0,0-.51,1.51,17.07,17.07,0,0,0-.28,1.7q-.1.86-.12,1.65c0,.53,0,1,0,1.33Z"/><path class="cls-2" d="M306.12,76.89a3,3,0,0,0-.85.12,1.93,1.93,0,0,0-.71.38,1.8,1.8,0,0,0-.49.66,2.34,2.34,0,0,0-.18.94,2.52,2.52,0,0,0,.56,1.51,13.08,13.08,0,0,0,1.38,1.56q.83.81,1.79,1.68a19.76,19.76,0,0,1,1.79,1.83,10.36,10.36,0,0,1,1.38,2.06,5.08,5.08,0,0,1,.56,2.34,6.17,6.17,0,0,1-.48,2.49,5.09,5.09,0,0,1-1.36,1.85,6.06,6.06,0,0,1-2.14,1.16,9.2,9.2,0,0,1-2.8.4,7.37,7.37,0,0,1-2.44-.38,8.8,8.8,0,0,1-1.94-.94,8.47,8.47,0,0,1-1.45-1.18,7.83,7.83,0,0,1-.94-1.13l.68-.49a6.56,6.56,0,0,0,.64.63A6.24,6.24,0,0,0,300,93a5,5,0,0,0,1,.48,3.42,3.42,0,0,0,1.11.18,3.73,3.73,0,0,0,2.3-.67,2.34,2.34,0,0,0,.9-2,2.91,2.91,0,0,0-.49-1.53,12,12,0,0,0-1.23-1.63q-.74-.84-1.6-1.73a23.45,23.45,0,0,1-1.6-1.85,10.94,10.94,0,0,1-1.23-2,4.79,4.79,0,0,1-.49-2.1,4.43,4.43,0,0,1,.5-2.14,4.53,4.53,0,0,1,1.33-1.52,6,6,0,0,1,1.89-.91,8,8,0,0,1,2.19-.3,11.16,11.16,0,0,1,2.38.23,5.83,5.83,0,0,1,1.84.71,3.44,3.44,0,0,1,1.19,1.2,3.27,3.27,0,0,1,.42,1.68,1.87,1.87,0,0,1-.49,1.29,1.73,1.73,0,0,1-1.36.54,2,2,0,0,1-1.28-.36,1.21,1.21,0,0,1-.44-1,.94.94,0,0,1,.2-.64,1.8,1.8,0,0,1,.46-.38l.46-.25a.32.32,0,0,0,.2-.28,1,1,0,0,0-.58-.87A3.09,3.09,0,0,0,306.12,76.89Z"/><path class="cls-2" d="M320.92,77v14.4a2,2,0,0,0,.39,1.43,1.43,1.43,0,0,0,1.07.4,1.57,1.57,0,0,0,.94-.29,3.43,3.43,0,0,0,.7-.66,4.12,4.12,0,0,0,.6-1l.6.27q-.29.62-.69,1.36a5.57,5.57,0,0,1-1.06,1.37,5.5,5.5,0,0,1-1.67,1.06,6.45,6.45,0,0,1-2.52.43,5.36,5.36,0,0,1-1.65-.25,3.86,3.86,0,0,1-1.4-.8,4,4,0,0,1-1-1.36,4.74,4.74,0,0,1-.37-2V77h-2.18v-1.4a5.9,5.9,0,0,0,1.52-.28,7.58,7.58,0,0,0,2-.94,7.93,7.93,0,0,0,1.9-1.77,6.77,6.77,0,0,0,1.25-2.75h1.56v5.75h3.18q1.56,0,1.56-.53a.26.26,0,0,0-.19-.26l-.44-.18a1.4,1.4,0,0,1-.44-.3.89.89,0,0,1-.19-.64,1.1,1.1,0,0,1,.34-.86,1.26,1.26,0,0,1,.89-.31,1.25,1.25,0,0,1,.61.15,1.32,1.32,0,0,1,.44.39,1.77,1.77,0,0,1,.26.55,2.32,2.32,0,0,1,.09.62,2.76,2.76,0,0,1-.73,2,3.16,3.16,0,0,1-2.35.75Z"/><path class="cls-2" d="M363.69,107.25h-2.38c0-.71,0-1.38,0-2.05,0-1.79,0-3.58,0-5.37,0-.75-.23-.91-.94-.91q-12.71,0-25.43,0h-1V96.57h29.75Z"/><path class="cls-2" d="M333.92,88.73V86.42h36.13v2.31Z"/><path class="cls-2" d="M349.92,62.49h2.37V77.35H334V74.92h14.92c1,0,1,0,1-1q0-5.22,0-10.45C349.92,63.17,349.92,62.87,349.92,62.49Z"/><path class="cls-2" d="M358.56,113.16a3.73,3.73,0,1,1,3.75,3.79A3.69,3.69,0,0,1,358.56,113.16Zm5,0a1.3,1.3,0,1,0-2.59,0,1.3,1.3,0,0,0,2.59,0Z"/><path class="cls-2" d="M374,87.29a2.49,2.49,0,0,1,2.47-2.51A2.54,2.54,0,0,1,379,87.34a2.49,2.49,0,0,1-2.49,2.49A2.45,2.45,0,0,1,374,87.29Z"/><path class="cls-2" d="M349,58.85a2.34,2.34,0,1,1,2.31,2.37A2.27,2.27,0,0,1,349,58.85ZM351.37,60a1.17,1.17,0,0,0,0-2.35,1.16,1.16,0,0,0-1.18,1.12A1.18,1.18,0,0,0,351.37,60Z"/><path class="cls-2" d="M35,83c.43-1.16,1.09-2,2.49-2a2.3,2.3,0,0,1,2.29,2,2.37,2.37,0,0,1-1.49,2.54,2.35,2.35,0,0,1-2.84-.93c-.17-.27-.3-.57-.45-.85Zm2.49-.82a1.17,1.17,0,0,0-1.24,1.14,1.23,1.23,0,0,0,1.13,1.2,1.26,1.26,0,0,0,1.25-1.16A1.21,1.21,0,0,0,37.49,82.23Z"/><path class="cls-2" d="M47.93,74.17V63.41h2.35c0,.31,0,.6,0,.89,0,2.22,0,4.44,0,6.66,0,.64.21.8.82.8,8.48,0,17,0,25.43,0,.77,0,1,.2,1,1a12.5,12.5,0,0,0,0,1.48Z"/><path class="cls-2" d="M78,82v2.37H41.59V82Z"/><path class="cls-2" d="M59.32,93.36H77.68v2.38H61.76v12.41H59.32Z"/><path class="cls-2" d="M48.92,55a3.68,3.68,0,0,1,3.68,3.78,3.75,3.75,0,0,1-3.75,3.75,3.83,3.83,0,0,1-3.78-3.82A3.74,3.74,0,0,1,48.92,55Zm1.24,3.77a1.37,1.37,0,0,0-1.29-1.32,1.34,1.34,0,0,0-1.32,1.28,1.31,1.31,0,0,0,1.28,1.31A1.35,1.35,0,0,0,50.15,58.79Z"/><path class="cls-2" d="M60.53,116.05A2.5,2.5,0,1,1,63,113.58,2.44,2.44,0,0,1,60.53,116.05Z"/><g class="cls-3"><path class="cls-4" d="M425.43,338.28q0-2.76,0-5.51c0-4.17,0-8.33,0-12.5a2.5,2.5,0,0,0-.51-1.57c-1.58-2.19-3.15-4.39-4.68-6.63-.31-.46-1-1.13-.46-1.58s1.09.26,1.51.63c1.34,1.21,2.63,2.47,4.13,3.9,0-2.72-.1-5.23,0-7.73a21.2,21.2,0,0,1,1.28-7.35,2.64,2.64,0,0,1,.78,1.83,99.92,99.92,0,0,1,.9,12.34c.4,12,.63,23.9.86,35.86,0,2.06.13,4.12.16,6.19,0,.63.13.8.79.57a24.07,24.07,0,0,0,8.12-5c5.45-4.84,9.25-10.68,10.65-17.92a32.43,32.43,0,0,0-1.15-15.59,46.42,46.42,0,0,0-12-20.27,26.65,26.65,0,0,0-3.31-2.68,8.62,8.62,0,0,0-9.07-.89,40.86,40.86,0,0,0-15.28,12.2,32.26,32.26,0,0,0-7,14.35,26.92,26.92,0,0,0,3.22,18.23c4.12,7.57,9.93,13.39,18,16.77.65.27,1.35.45,2,.68s.9.1.9-.65q0-5.77,0-11.54a1.94,1.94,0,0,0-.58-1.31c-3-3.67-6.13-7.21-8.93-11a15.1,15.1,0,0,1-2-3.87c-.1-.29-.43-.69,0-1s.61.11.84.31c.85.71,1.7,1.41,2.49,2.17C420,332.43,422.56,335.41,425.43,338.28Z"/><circle class="cls-5" cx="411.44" cy="325.32" r="1.78"/><circle class="cls-6" cx="417.31" cy="308.41" r="1.51"/><path class="cls-2" d="M377.44,331q0-3.8,0-7.6c0-5.75,0-11.49,0-17.24a3.44,3.44,0,0,0-.7-2.16c-2.18-3-4.35-6.06-6.45-9.14-.43-.63-1.33-1.55-.63-2.18s1.5.35,2.08.87c1.85,1.67,3.62,3.41,5.7,5.38,0-3.75-.14-7.21,0-10.66s.37-6.81,1.77-10.14a3.64,3.64,0,0,1,1.07,2.53,137.8,137.8,0,0,1,1.24,17c.56,16.48.87,33,1.19,49.45.06,2.84.19,5.69.22,8.53,0,.87.17,1.1,1.09.79a33.2,33.2,0,0,0,11.2-6.92c7.51-6.67,12.75-14.72,14.68-24.71,1.41-7.3.5-14.47-1.59-21.5a64,64,0,0,0-16.49-28,36.76,36.76,0,0,0-4.57-3.7,11.89,11.89,0,0,0-12.51-1.23c-8.51,3.77-15.31,9.66-21.08,16.82-4.71,5.85-8.21,12.33-9.61,19.78-1.67,8.92.17,17.3,4.44,25.15,5.68,10.44,13.69,18.47,24.8,23.13.9.38,1.86.62,2.79.93s1.24.14,1.24-.89q0-8,.05-15.91a2.67,2.67,0,0,0-.8-1.81c-4.12-5.06-8.46-9.95-12.32-15.22a20.82,20.82,0,0,1-2.77-5.33c-.14-.39-.6-1,0-1.32s.84.16,1.16.42c1.17,1,2.34,1.94,3.44,3C370,322.95,373.49,327.06,377.44,331Z"/><circle class="cls-7" cx="365.19" cy="290.15" r="2.45"/><path class="cls-2" d="M379.63,398.46l-2.07,0a4.8,4.8,0,0,0-.55-1q0-3.08.06-6.16a1.33,1.33,0,0,0,.48-.82c.05-.57-.37-1.11-.52-1.67.07.19.1-.56.14-.7a2.18,2.18,0,0,0-.35-2.23l.32,0q0-1.8,0-3.59c0-3,0-6.06,0-9.09a1.22,1.22,0,0,0,.08-1.49v0c.1-.15-.16-.41-.2-.55a3.12,3.12,0,0,1-.06-.54c.17-.18.19-.27.16-.3a.86.86,0,0,0,0-.91c.29-3.58-.81-7.07,2.86-10.51,1.68.36,1.67.86,1.89,1.29,1.45,2.83,1.7,5.69,2,8.55.9,8.45,1.42,16.91,1.93,25.37.09,1.46.36,2.91.34,4.36a.67.67,0,0,0,0,.09C384,398.48,381.81,398.43,379.63,398.46Z"/><circle class="cls-8" cx="359.05" cy="312.92" r="1.99"/><path class="cls-4" d="M309.49,305.74q0-3.44,0-6.87c0-5.19,0-10.38,0-15.57a3.11,3.11,0,0,1,.64-2c2-2.73,3.93-5.48,5.83-8.26.39-.57,1.2-1.4.57-2s-1.36.32-1.88.79c-1.67,1.51-3.27,3.08-5.15,4.86,0-3.39.13-6.52,0-9.63a26.41,26.41,0,0,0-1.6-9.16,3.29,3.29,0,0,0-1,2.28,124.5,124.5,0,0,0-1.12,15.37c-.5,14.89-.78,29.78-1.07,44.68,0,2.57-.17,5.14-.2,7.71,0,.79-.16,1-1,.71a30,30,0,0,1-10.12-6.25c-6.79-6-11.52-13.3-13.26-22.33-1.27-6.6-.46-13.07,1.44-19.43a57.84,57.84,0,0,1,14.9-25.26,33.21,33.21,0,0,1,4.13-3.35A10.74,10.74,0,0,1,311.9,251c7.69,3.4,13.83,8.72,19,15.2a40.2,40.2,0,0,1,8.68,17.87c1.51,8.06-.16,15.63-4,22.72-5.13,9.43-12.37,16.69-22.4,20.9-.81.34-1.68.56-2.52.84s-1.12.13-1.12-.81q0-7.19,0-14.37a2.41,2.41,0,0,1,.72-1.63c3.72-4.57,7.64-9,11.13-13.75a18.81,18.81,0,0,0,2.5-4.82c.13-.36.54-.86,0-1.2s-.76.14-1,.38c-1.05.88-2.12,1.76-3.1,2.71C316.23,298.45,313.07,302.17,309.49,305.74Z"/><circle class="cls-9" cx="320.56" cy="268.81" r="2.21"/><path class="cls-4" d="M307.52,393.66l1.87.06a10.42,10.42,0,0,1,.5-1.63q0-4.88-.06-9.76a2.74,2.74,0,0,1-.44-1.3,13.45,13.45,0,0,1,.47-2.65c-.07.3-.09-.89-.12-1.11a5.64,5.64,0,0,1,.31-3.53l-.29,0q0-2.85,0-5.7c0-4.8,0-9.61,0-14.41a3.15,3.15,0,0,1-.07-2.36v0c-.09-.23.15-.65.18-.88s0-.57.06-.85c-.16-.29-.17-.43-.14-.47a2.26,2.26,0,0,1,0-1.44c-.26-5.67.73-11.21-2.59-16.65a2.3,2.3,0,0,0-1.71,2.05c-1.31,4.49-1.53,9-1.81,13.55-.81,13.4-1.28,26.8-1.75,40.2-.08,2.31-.32,4.61-.31,6.92,0,.05,0,.1,0,.15C303.6,393.68,305.55,393.6,307.52,393.66Z"/><path class="cls-4" d="M79,365.09q0-2.35,0-4.7c0-3.55,0-7.1,0-10.65a2.13,2.13,0,0,1,.44-1.33c1.35-1.87,2.68-3.74,4-5.64.27-.39.82-1,.39-1.34s-.93.22-1.29.54c-1.14,1-2.24,2.11-3.52,3.32,0-2.32.09-4.45,0-6.58a18.05,18.05,0,0,0-1.09-6.26,2.25,2.25,0,0,0-.66,1.56,85.1,85.1,0,0,0-.76,10.51c-.34,10.18-.54,20.36-.73,30.54,0,1.76-.11,3.51-.14,5.27,0,.54-.11.68-.67.49A20.5,20.5,0,0,1,68,376.54a26.94,26.94,0,0,1-9.07-15.26,27.62,27.62,0,0,1,1-13.28,39.53,39.53,0,0,1,10.18-17.27,22.7,22.7,0,0,1,2.82-2.29,7.34,7.34,0,0,1,7.73-.76,34.8,34.8,0,0,1,13,10.39,27.48,27.48,0,0,1,5.93,12.22,22.93,22.93,0,0,1-2.74,15.53,30.77,30.77,0,0,1-15.31,14.28c-.56.23-1.15.38-1.72.58s-.77.09-.77-.55q0-4.91,0-9.83a1.65,1.65,0,0,1,.49-1.12c2.55-3.12,5.22-6.14,7.61-9.4a12.86,12.86,0,0,0,1.71-3.29c.09-.24.37-.59,0-.82s-.52.1-.72.26c-.72.6-1.45,1.2-2.12,1.85C83.58,360.11,81.42,362.65,79,365.09Z"/><circle class="cls-9" cx="86.54" cy="339.85" r="1.51"/><path class="cls-2" d="M17.38,357.21q0-1.69,0-3.38c0-2.55,0-5.1,0-7.65a1.53,1.53,0,0,1,.31-1c1-1.34,1.93-2.69,2.87-4.06.19-.28.59-.69.28-1s-.67.16-.92.39c-.82.74-1.61,1.51-2.53,2.39,0-1.67.06-3.2,0-4.73a13,13,0,0,0-.78-4.5,1.62,1.62,0,0,0-.48,1.12,61.17,61.17,0,0,0-.55,7.55c-.25,7.32-.39,14.63-.53,22,0,1.26-.08,2.53-.1,3.79,0,.39-.08.49-.48.35a14.74,14.74,0,0,1-5-3.07,19.37,19.37,0,0,1-6.52-11,19.86,19.86,0,0,1,.71-9.55A28.42,28.42,0,0,1,11,332.51a16.32,16.32,0,0,1,2-1.64,5.28,5.28,0,0,1,5.55-.55,25,25,0,0,1,9.36,7.47,19.75,19.75,0,0,1,4.27,8.78,16.48,16.48,0,0,1-2,11.16,22.12,22.12,0,0,1-11,10.27c-.4.17-.82.28-1.24.41s-.55.06-.55-.4q0-3.53,0-7.06a1.19,1.19,0,0,1,.35-.8c1.83-2.25,3.75-4.41,5.47-6.76A9.24,9.24,0,0,0,24.45,351c.06-.17.27-.42,0-.59s-.37.07-.52.19c-.52.43-1,.86-1.53,1.33C20.69,353.63,19.14,355.45,17.38,357.21Z"/><circle class="cls-10" cx="22.82" cy="339.07" r="1.09"/><path class="cls-2" d="M16.41,387.15l.92,0a2.13,2.13,0,0,1,.25-.46q0-1.37,0-2.73a.59.59,0,0,1-.22-.36c0-.25.17-.49.23-.74,0,.09,0-.25-.06-.31a1,1,0,0,1,.15-1h-.14q0-.8,0-1.6c0-1.35,0-2.69,0-4a.54.54,0,0,1,0-.66h0c0-.07.07-.18.09-.25a1.39,1.39,0,0,0,0-.24c-.08-.08-.09-.12-.07-.13a.38.38,0,0,1,0-.4c-.13-1.59.36-3.14-1.27-4.66-.75.16-.74.38-.84.57a10.27,10.27,0,0,0-.89,3.8c-.4,3.75-.63,7.51-.86,11.26,0,.65-.16,1.29-.15,1.94a.3.3,0,0,1,0,0C14.49,387.16,15.44,387.13,16.41,387.15Z"/><path class="cls-4" d="M225.94,322.8q0-3.34,0-6.68c0-5.05,0-10.1,0-15.15a3,3,0,0,1,.62-1.9c1.92-2.66,3.82-5.33,5.67-8,.38-.56,1.17-1.37.55-1.91s-1.32.31-1.83.77c-1.62,1.47-3.19,3-5,4.73,0-3.3.12-6.34,0-9.37a25.69,25.69,0,0,0-1.55-8.92,3.2,3.2,0,0,0-.94,2.22,121.13,121.13,0,0,0-1.09,15c-.49,14.49-.76,29-1,43.47,0,2.5-.16,5-.2,7.5,0,.77-.15,1-1,.7a29.18,29.18,0,0,1-9.84-6.08c-6.6-5.86-11.21-12.94-12.9-21.72-1.24-6.42-.44-12.72,1.4-18.9a56.27,56.27,0,0,1,14.5-24.58,32.31,32.31,0,0,1,4-3.25,10.45,10.45,0,0,1,11-1.08,49.53,49.53,0,0,1,18.53,14.78,39.11,39.11,0,0,1,8.45,17.39c1.47,7.84-.15,15.21-3.91,22.1-5,9.17-12,16.24-21.8,20.33-.79.33-1.63.55-2.45.82s-1.09.12-1.09-.78q0-7,0-14a2.35,2.35,0,0,1,.7-1.59c3.62-4.45,7.43-8.74,10.83-13.38a18.3,18.3,0,0,0,2.43-4.69c.12-.35.53-.84,0-1.16s-.74.14-1,.37c-1,.86-2.06,1.71-3,2.63C232.49,315.7,229.42,319.32,225.94,322.8Z"/><circle class="cls-5" cx="243.34" cy="307.08" r="2.15"/><circle class="cls-6" cx="235.78" cy="286.59" r="1.83"/><path class="cls-4" d="M224,382.08l1.82,0a4.22,4.22,0,0,1,.49-.91q0-2.71-.05-5.41a1.17,1.17,0,0,1-.43-.72c0-.5.33-1,.46-1.47-.06.17-.09-.49-.12-.61a1.92,1.92,0,0,1,.31-2l-.28,0q0-1.58,0-3.16c0-2.66,0-5.33,0-8a1.07,1.07,0,0,1-.07-1.31v0c-.08-.13.14-.36.17-.49a2.75,2.75,0,0,0,.05-.47c-.15-.16-.17-.24-.14-.26a.75.75,0,0,1,0-.8c-.26-3.15.71-6.22-2.52-9.24-1.48.31-1.47.75-1.66,1.14a20.34,20.34,0,0,0-1.76,7.52c-.79,7.43-1.25,14.86-1.7,22.3-.08,1.28-.32,2.56-.3,3.84a.59.59,0,0,1,0,.08C220.21,382.09,222.1,382,224,382.08Z"/><path class="cls-2" d="M271.53,343.41q0-2.52,0-5c0-3.81,0-7.63,0-11.44a2.28,2.28,0,0,1,.47-1.43c1.45-2,2.89-4,4.28-6.06.29-.42.88-1,.42-1.44s-1,.23-1.38.58c-1.23,1.11-2.41,2.26-3.78,3.57,0-2.49.09-4.79,0-7.07a19.4,19.4,0,0,0-1.17-6.73,2.42,2.42,0,0,0-.71,1.68,91.45,91.45,0,0,0-.82,11.29c-.37,10.94-.58,21.88-.79,32.82,0,1.89-.12,3.77-.15,5.66,0,.58-.11.73-.72.52a22,22,0,0,1-7.43-4.59,29,29,0,0,1-9.74-16.4A29.68,29.68,0,0,1,251,325,42.48,42.48,0,0,1,262,306.49a24.4,24.4,0,0,1,3-2.46,7.89,7.89,0,0,1,8.3-.82,37.39,37.39,0,0,1,14,11.16,29.53,29.53,0,0,1,6.38,13.13,24.64,24.64,0,0,1-2.95,16.69c-3.77,6.93-9.08,12.26-16.46,15.35-.6.25-1.23.41-1.85.62s-.83.09-.82-.59q0-5.28,0-10.56a1.77,1.77,0,0,1,.53-1.2c2.74-3.36,5.61-6.6,8.17-10.1a13.82,13.82,0,0,0,1.84-3.54c.09-.26.4-.64,0-.88s-.56.11-.77.28c-.77.65-1.55,1.29-2.28,2C276.48,338.05,274.16,340.78,271.53,343.41Z"/><circle class="cls-8" cx="284.66" cy="331.55" r="1.63"/><circle class="cls-9" cx="279.66" cy="316.29" r="1.63"/><path class="cls-2" d="M270.08,392.26l1.38,0a3.9,3.9,0,0,1,.37-.79q0-2.36,0-4.72a1.06,1.06,0,0,1-.32-.63,4.56,4.56,0,0,1,.35-1.28c0,.15-.07-.43-.09-.53a1.88,1.88,0,0,1,.23-1.71l-.21,0q0-1.38,0-2.76c0-2.32,0-4.65,0-7a1.05,1.05,0,0,1-.05-1.14v0c-.06-.11.11-.31.13-.42a2.75,2.75,0,0,0,0-.41c-.11-.14-.13-.21-.11-.23a.75.75,0,0,1,0-.7c-.19-2.74.54-5.42-1.9-8.06-1.12.27-1.11.66-1.26,1a20.06,20.06,0,0,0-1.33,6.56c-.6,6.48-.94,13-1.28,19.45-.06,1.12-.24,2.23-.23,3.35a.59.59,0,0,1,0,.07C267.2,392.27,268.63,392.23,270.08,392.26Z"/><path class="cls-4" d="M-8,322.65q0-2.87,0-5.73c0-4.33,0-8.66,0-13a2.6,2.6,0,0,1,.53-1.63c1.65-2.28,3.28-4.57,4.86-6.89.33-.48,1-1.17.47-1.64s-1.13.27-1.57.66c-1.39,1.26-2.73,2.57-4.3,4.05,0-2.83.1-5.44,0-8a22,22,0,0,0-1.33-7.64,2.74,2.74,0,0,0-.81,1.9,103.87,103.87,0,0,0-.93,12.83c-.42,12.42-.65,24.85-.89,37.28,0,2.14-.14,4.29-.17,6.43,0,.66-.13.83-.82.6a25,25,0,0,1-8.44-5.21c-5.66-5-9.61-11.1-11.07-18.63a33.71,33.71,0,0,1,1.2-16.21,48.25,48.25,0,0,1,12.43-21.08,27.71,27.71,0,0,1,3.44-2.79A9,9,0,0,1-6,277,42.47,42.47,0,0,1,9.87,289.68a33.54,33.54,0,0,1,7.24,14.91,28,28,0,0,1-3.35,19C9.48,331.41,3.44,337.47-4.93,341c-.68.28-1.4.47-2.1.7S-8,341.79-8,341q0-6,0-12a2,2,0,0,1,.6-1.36c3.11-3.81,6.37-7.5,9.28-11.47a15.69,15.69,0,0,0,2.09-4c.11-.3.45-.72,0-1s-.63.12-.88.32c-.88.73-1.77,1.46-2.59,2.26C-2.41,316.57-5,319.67-8,322.65Z"/><circle class="cls-6" cx="6.89" cy="309.18" r="1.85"/><circle class="cls-9" cx="1.21" cy="291.85" r="1.85"/><circle class="cls-9" cx="198.28" cy="346.95" r="2.01"/><circle class="cls-11" cx="192.09" cy="328.05" r="2.01"/><path class="cls-4" d="M111.31,320.38q0-2.87,0-5.73c0-4.33,0-8.66,0-13a2.6,2.6,0,0,1,.53-1.63c1.65-2.28,3.28-4.57,4.86-6.89.33-.48,1-1.17.47-1.64s-1.13.27-1.57.66c-1.39,1.26-2.73,2.57-4.3,4.05,0-2.83.1-5.44,0-8a22,22,0,0,0-1.33-7.64,2.74,2.74,0,0,0-.81,1.9,103.87,103.87,0,0,0-.93,12.83c-.42,12.42-.65,24.85-.89,37.28,0,2.14-.14,4.29-.17,6.43,0,.66-.13.83-.82.6a25,25,0,0,1-8.44-5.21c-5.66-5-9.61-11.1-11.07-18.63A33.71,33.71,0,0,1,88,299.52a48.25,48.25,0,0,1,12.43-21.08,27.71,27.71,0,0,1,3.44-2.79,9,9,0,0,1,9.43-.93A42.47,42.47,0,0,1,129.2,287.4a33.54,33.54,0,0,1,7.24,14.91,28,28,0,0,1-3.35,19c-4.28,7.87-10.32,13.92-18.69,17.43-.68.28-1.4.47-2.1.7s-.94.11-.93-.67q0-6,0-12a2,2,0,0,1,.6-1.36c3.11-3.81,6.37-7.5,9.28-11.47a15.69,15.69,0,0,0,2.09-4c.11-.3.45-.72,0-1s-.63.12-.88.32c-.88.73-1.77,1.46-2.59,2.26C116.93,314.3,114.29,317.4,111.31,320.38Z"/><circle class="cls-12" cx="126.23" cy="306.91" r="1.85"/><circle class="cls-6" cx="120.55" cy="289.57" r="1.85"/><path class="cls-4" d="M109.67,383.06l1.56,0a5.93,5.93,0,0,1,.42-1.09q0-3.24,0-6.48a1.59,1.59,0,0,1-.37-.86,7.31,7.31,0,0,1,.39-1.76c-.06.2-.08-.59-.1-.73a3,3,0,0,1,.26-2.34l-.24,0q0-1.89,0-3.78c0-3.19,0-6.38,0-9.57a1.7,1.7,0,0,1-.06-1.57v0c-.07-.15.12-.43.15-.58a4.54,4.54,0,0,0,0-.56c-.13-.19-.14-.29-.12-.31a1.21,1.21,0,0,1,0-1c-.22-3.77.61-7.45-2.16-11.06-1.27.38-1.26.9-1.43,1.36a32.61,32.61,0,0,0-1.51,9c-.68,8.9-1.07,17.8-1.46,26.7-.07,1.53-.27,3.06-.26,4.59a1,1,0,0,1,0,.1C106.4,383.07,108,383,109.67,383.06Z"/><path class="cls-13" d="M339.32,344.78q0-2.53,0-5.06c0-3.83,0-7.65,0-11.48a2.29,2.29,0,0,1,.47-1.44c1.45-2,2.89-4,4.3-6.08.29-.42.89-1,.42-1.45s-1,.24-1.39.58c-1.23,1.11-2.41,2.27-3.79,3.58,0-2.5.09-4.8,0-7.1a19.46,19.46,0,0,0-1.18-6.75,2.42,2.42,0,0,0-.71,1.68,91.76,91.76,0,0,0-.82,11.33c-.37,11-.58,22-.79,32.93,0,1.89-.12,3.79-.15,5.68,0,.58-.11.74-.72.53a22.1,22.1,0,0,1-7.46-4.61,29.05,29.05,0,0,1-9.78-16.45,29.78,29.78,0,0,1,1.06-14.32,42.62,42.62,0,0,1,11-18.62,24.48,24.48,0,0,1,3-2.47,7.92,7.92,0,0,1,8.33-.82,37.52,37.52,0,0,1,14,11.2,29.63,29.63,0,0,1,6.4,13.17,24.72,24.72,0,0,1-3,16.74c-3.78,6.95-9.11,12.3-16.51,15.4-.6.25-1.24.41-1.86.62s-.83.09-.83-.59q0-5.3,0-10.59a1.78,1.78,0,0,1,.53-1.2c2.74-3.37,5.63-6.62,8.2-10.13a13.86,13.86,0,0,0,1.84-3.55c.09-.26.4-.64,0-.88s-.56.11-.77.28c-.78.65-1.56,1.29-2.29,2C344.28,339.41,342,342.15,339.32,344.78Z"/><circle class="cls-13" cx="352.5" cy="332.88" r="1.63"/><path class="cls-13" d="M337.87,389.69l1.38,0a3.2,3.2,0,0,1,.37-.69q0-2.05,0-4.1a.88.88,0,0,1-.32-.55c0-.38.25-.74.35-1.12,0,.13-.07-.37-.09-.46a1.45,1.45,0,0,1,.23-1.48l-.21,0q0-1.2,0-2.39c0-2,0-4,0-6.06a.81.81,0,0,1-.05-1v0c-.06-.1.11-.27.13-.37a2.08,2.08,0,0,0,0-.36c-.11-.12-.13-.18-.11-.2a.57.57,0,0,1,0-.61c-.2-2.38.54-4.71-1.91-7-1.12.24-1.11.57-1.26.86a15.41,15.41,0,0,0-1.33,5.69c-.6,5.63-.94,11.26-1.29,16.89-.06,1-.24,1.94-.23,2.91a.45.45,0,0,1,0,.06C335,389.7,336.41,389.67,337.87,389.69Z"/><path class="cls-13" d="M52.14,327.7q0-3.53,0-7.05c0-5.33,0-10.66,0-16a3.19,3.19,0,0,1,.65-2c2-2.8,4-5.62,6-8.47.4-.59,1.23-1.44.58-2s-1.39.33-1.93.81c-1.71,1.55-3.36,3.16-5.29,5,0-3.48.13-6.69,0-9.88s-.34-6.32-1.64-9.41a3.37,3.37,0,0,0-1,2.34,127.79,127.79,0,0,0-1.15,15.78c-.52,15.28-.81,30.57-1.1,45.86-.05,2.64-.17,5.27-.21,7.91,0,.81-.16,1-1,.73a30.79,30.79,0,0,1-10.38-6.41C28.66,338.71,23.8,331.24,22,322c-1.31-6.77-.47-13.42,1.48-19.94A59.36,59.36,0,0,1,38.77,276.1,34.09,34.09,0,0,1,43,272.67a11,11,0,0,1,11.6-1.14c7.89,3.49,14.2,9,19.55,15.6a41.26,41.26,0,0,1,8.91,18.35c1.55,8.27-.16,16-4.12,23.32-5.27,9.68-12.69,17.13-23,21.45-.84.35-1.72.58-2.58.87s-1.15.13-1.15-.83q0-7.38,0-14.75a2.48,2.48,0,0,1,.74-1.68c3.82-4.69,7.84-9.22,11.42-14.11a19.31,19.31,0,0,0,2.57-4.94c.13-.37.56-.89,0-1.23s-.78.15-1.08.39c-1.08.9-2.17,1.8-3.19,2.78C59.06,320.22,55.81,324,52.14,327.7Z"/><circle class="cls-14" cx="63.5" cy="289.8" r="2.27"/><path class="cls-13" d="M50.12,390.24l1.92,0a4.45,4.45,0,0,1,.51-1q0-2.86-.06-5.71a1.23,1.23,0,0,1-.45-.76c0-.53.35-1,.48-1.55-.07.18-.09-.52-.13-.65a2,2,0,0,1,.32-2.06l-.3,0q0-1.67,0-3.33c0-2.81,0-5.62,0-8.43a1.13,1.13,0,0,1-.07-1.38v0c-.09-.14.15-.38.18-.51a2.9,2.9,0,0,0,.06-.5c-.16-.17-.18-.25-.15-.28a.8.8,0,0,1,0-.84c-.27-3.32.75-6.56-2.65-9.74-1.56.33-1.55.8-1.76,1.2-1.34,2.63-1.57,5.28-1.86,7.93-.83,7.84-1.32,15.68-1.79,23.52-.08,1.35-.33,2.7-.32,4a.62.62,0,0,1,0,.09C46.1,390.26,48.09,390.21,50.12,390.24Z"/><circle class="cls-9" cx="69.7" cy="310.94" r="1.85"/><circle class="cls-6" cx="91.52" cy="352.76" r="1.85"/><path class="cls-2" d="M147.54,319.14q0-3.53,0-7.05c0-5.33,0-10.66,0-16a3.19,3.19,0,0,1,.65-2c2-2.8,4-5.62,6-8.47.4-.59,1.23-1.44.58-2s-1.39.33-1.93.81c-1.71,1.55-3.36,3.16-5.29,5,0-3.48.13-6.69,0-9.88s-.34-6.32-1.64-9.41a3.37,3.37,0,0,0-1,2.34,127.79,127.79,0,0,0-1.15,15.78c-.52,15.28-.81,30.57-1.1,45.86-.05,2.64-.17,5.27-.21,7.91,0,.81-.16,1-1,.73A30.79,30.79,0,0,1,131,336.33c-7-6.18-11.82-13.65-13.61-22.92-1.31-6.77-.47-13.42,1.48-19.94a59.36,59.36,0,0,1,15.29-25.93,34.09,34.09,0,0,1,4.24-3.43A11,11,0,0,1,150,263c7.89,3.49,14.2,9,19.55,15.6a41.26,41.26,0,0,1,8.91,18.35c1.55,8.27-.16,16-4.12,23.32-5.27,9.68-12.69,17.13-23,21.45-.84.35-1.72.58-2.58.87s-1.15.13-1.15-.83q0-7.38,0-14.75a2.48,2.48,0,0,1,.74-1.68c3.82-4.69,7.84-9.22,11.42-14.11a19.31,19.31,0,0,0,2.57-4.94c.13-.37.56-.89,0-1.23s-.78.15-1.08.39c-1.08.9-2.17,1.8-3.19,2.78C154.45,311.66,151.2,315.47,147.54,319.14Z"/><circle class="cls-15" cx="158.9" cy="281.24" r="2.27"/><path class="cls-2" d="M145.51,381.68l1.92,0a4.45,4.45,0,0,1,.51-1q0-2.86-.06-5.71a1.23,1.23,0,0,1-.45-.76c0-.53.35-1,.48-1.55-.07.18-.09-.52-.13-.65a2,2,0,0,1,.32-2.06l-.3,0q0-1.67,0-3.33c0-2.81,0-5.62,0-8.43a1.13,1.13,0,0,1-.07-1.38v0c-.09-.14.15-.38.18-.51a2.9,2.9,0,0,0,.06-.5c-.16-.17-.18-.25-.15-.28a.8.8,0,0,1,0-.84c-.27-3.32.75-6.56-2.65-9.74-1.56.33-1.55.8-1.76,1.2-1.34,2.63-1.57,5.28-1.86,7.93-.83,7.84-1.32,15.68-1.79,23.52-.08,1.35-.33,2.7-.32,4a.62.62,0,0,1,0,.09C141.49,381.7,143.48,381.65,145.51,381.68Z"/><circle class="cls-8" cx="164.59" cy="302.36" r="1.85"/><path class="cls-13" d="M182,361.64q0-3.12,0-6.25c0-4.72,0-9.45,0-14.17a2.83,2.83,0,0,1,.58-1.78c1.79-2.48,3.57-5,5.3-7.51.36-.52,1.09-1.28.52-1.79s-1.24.29-1.71.72c-1.52,1.37-3,2.8-4.68,4.42,0-3.08.11-5.93,0-8.76a24,24,0,0,0-1.45-8.34,3,3,0,0,0-.88,2.08,113.26,113.26,0,0,0-1,14c-.46,13.54-.71,27.09-1,40.64,0,2.34-.15,4.67-.18,7,0,.72-.14.91-.89.65a27.28,27.28,0,0,1-9.2-5.69c-6.17-5.48-10.48-12.1-12.07-20.31a36.76,36.76,0,0,1,1.31-17.67,52.61,52.61,0,0,1,13.55-23,30.21,30.21,0,0,1,3.76-3,9.77,9.77,0,0,1,10.28-1,46.31,46.31,0,0,1,17.32,13.82,36.57,36.57,0,0,1,7.9,16.26c1.37,7.33-.14,14.22-3.65,20.67-4.67,8.58-11.25,15.18-20.38,19-.74.31-1.53.51-2.29.77s-1,.12-1-.73q0-6.54,0-13.08a2.2,2.2,0,0,1,.66-1.49c3.39-4.16,7-8.17,10.12-12.51a17.11,17.11,0,0,0,2.27-4.38c.12-.32.49-.79,0-1.09s-.69.13-1,.35c-1,.8-1.93,1.6-2.82,2.46C188.14,355,185.27,358.39,182,361.64Z"/><circle class="cls-9" cx="347.48" cy="317.57" r="1.63"/><circle class="cls-9" cx="190.34" cy="327.95" r="1.63"/><circle class="cls-14" cx="198.41" cy="345.14" r="2.27"/></g><path class="cls-13" d="M90,138.51a6,6,0,0,1,2.27,2.18,5.82,5.82,0,0,1,.83,3.05,5.91,5.91,0,0,1-.83,3.07A6,6,0,0,1,90,149a6.55,6.55,0,0,1-6.31,0,6,6,0,0,1-2.27-2.21,5.9,5.9,0,0,1-.83-3.07,5.81,5.81,0,0,1,.83-3.05,6,6,0,0,1,2.26-2.18,6.64,6.64,0,0,1,6.32,0Zm-5.44,1.27a4.66,4.66,0,0,0-1.69,1.66,4.55,4.55,0,0,0,0,4.62,4.7,4.7,0,0,0,1.69,1.67,4.49,4.49,0,0,0,2.3.62,4.4,4.4,0,0,0,2.29-.62,4.68,4.68,0,0,0,1.67-1.67,4.6,4.6,0,0,0,0-4.62,4.63,4.63,0,0,0-1.67-1.66,4.45,4.45,0,0,0-2.29-.61A4.54,4.54,0,0,0,84.57,139.79Z"/><path class="cls-13" d="M102.54,141.25a4,4,0,0,1,1.53,1.62,5.46,5.46,0,0,1,0,4.73,3.88,3.88,0,0,1-1.51,1.6,4.35,4.35,0,0,1-2.24.57,4.09,4.09,0,0,1-2-.48A3.41,3.41,0,0,1,97,147.93V153H95.39V140.72H97v1.79a3.43,3.43,0,0,1,1.35-1.36,4,4,0,0,1,2-.48A4.36,4.36,0,0,1,102.54,141.25Zm-1,6.73a2.81,2.81,0,0,0,1.07-1.14,3.51,3.51,0,0,0,.38-1.65,3.4,3.4,0,0,0-.39-1.63,2.88,2.88,0,0,0-1.07-1.14A3,3,0,0,0,100,142a3,3,0,0,0-1.55.41,2.86,2.86,0,0,0-1.08,1.14,3.66,3.66,0,0,0,0,3.29A2.87,2.87,0,0,0,98.44,148a3.17,3.17,0,0,0,3.11,0Z"/><path class="cls-13" d="M113.59,141.9a5.06,5.06,0,0,1,1.07,3.43c0,.23,0,.4,0,.51h-7.11a3.06,3.06,0,0,0,1,1.92,3,3,0,0,0,2,.71,3.81,3.81,0,0,0,1.49-.29,3.57,3.57,0,0,0,1.2-.82l.87.9a4.56,4.56,0,0,1-1.6,1.11,5.34,5.34,0,0,1-2.07.39,4.76,4.76,0,0,1-2.35-.57,4,4,0,0,1-1.6-1.61,4.83,4.83,0,0,1-.57-2.36,4.77,4.77,0,0,1,.57-2.35,4.15,4.15,0,0,1,1.59-1.62,4.58,4.58,0,0,1,2.33-.59A4,4,0,0,1,113.59,141.9Zm-.36,2.71a2.61,2.61,0,0,0-2.79-2.63,2.84,2.84,0,0,0-2,.71,3,3,0,0,0-.94,1.92Z"/><path class="cls-13" d="M124.3,141.6a3.52,3.52,0,0,1,.9,2.56v5.56h-1.58v-5.13a2.21,2.21,0,0,0-2.4-2.41,2.72,2.72,0,0,0-2,.77,3,3,0,0,0-.86,2v4.81h-1.58v-9h1.58v1.9a3.47,3.47,0,0,1,3.42-2A3.3,3.3,0,0,1,124.3,141.6Z"/><path class="cls-13" d="M128.18,137.82h8.26v1.48h-6.63V143h5.93v1.48h-5.93v3.79h6.83v1.48h-8.47Z"/><path class="cls-13" d="M147.23,138.61a2.58,2.58,0,0,1,1,2.18,2.64,2.64,0,0,1-.58,1.73,2.82,2.82,0,0,1-1.58.94,3.09,3.09,0,0,1,1.95,1,3,3,0,0,1,.71,2,2.81,2.81,0,0,1-1.15,2.39,5.19,5.19,0,0,1-3.17.86h-5.17v-11.9h5.08A4.65,4.65,0,0,1,147.23,138.61ZM146,142.4a1.59,1.59,0,0,0,.6-1.33,1.55,1.55,0,0,0-.6-1.31,2.7,2.7,0,0,0-1.71-.44h-3.37v3.55h3.37A2.74,2.74,0,0,0,146,142.4Zm.37,5.32a1.67,1.67,0,0,0,.75-1.45,1.61,1.61,0,0,0-.75-1.41,3.64,3.64,0,0,0-2.07-.51h-3.37v3.88h3.37A3.51,3.51,0,0,0,146.35,147.72Z"/><path class="cls-13" d="M156.61,139.51a5.82,5.82,0,0,0-1.64-.26,3,3,0,0,0-1.66.4,1.24,1.24,0,0,0-.62,1.1,1.45,1.45,0,0,0,.37,1,2.69,2.69,0,0,0,.92.63q.54.23,1.51.54a17.07,17.07,0,0,1,2,.71,3.39,3.39,0,0,1,1.27,1,2.8,2.8,0,0,1,.53,1.78,3,3,0,0,1-.55,1.79,3.54,3.54,0,0,1-1.55,1.18,5.88,5.88,0,0,1-2.29.42,6.65,6.65,0,0,1-2.55-.51,6.9,6.9,0,0,1-2.14-1.36l.73-1.41a6.12,6.12,0,0,0,1.91,1.28,5.26,5.26,0,0,0,2.07.45,3.31,3.31,0,0,0,1.88-.47,1.46,1.46,0,0,0,.69-1.27,1.48,1.48,0,0,0-.37-1,2.66,2.66,0,0,0-.94-.65,15.81,15.81,0,0,0-1.54-.53,15.62,15.62,0,0,1-1.94-.7,3.34,3.34,0,0,1-1.27-1,2.76,2.76,0,0,1-.52-1.75,2.81,2.81,0,0,1,.53-1.68,3.33,3.33,0,0,1,1.48-1.12,5.78,5.78,0,0,1,2.21-.39,7.16,7.16,0,0,1,2.1.31,7.09,7.09,0,0,1,1.83.84l-.68,1.46A6.85,6.85,0,0,0,156.61,139.51Z"/><path class="cls-13" d="M173.4,141.25a4,4,0,0,1,1.53,1.62,5.46,5.46,0,0,1,0,4.73,3.88,3.88,0,0,1-1.51,1.6,4.35,4.35,0,0,1-2.24.57,4.09,4.09,0,0,1-2-.48,3.41,3.41,0,0,1-1.36-1.36V153h-1.58V140.72h1.58v1.79a3.43,3.43,0,0,1,1.35-1.36,4,4,0,0,1,2-.48A4.36,4.36,0,0,1,173.4,141.25Zm-1,6.73a2.81,2.81,0,0,0,1.07-1.14,3.51,3.51,0,0,0,.38-1.65,3.4,3.4,0,0,0-.39-1.63,2.88,2.88,0,0,0-1.07-1.14,3,3,0,0,0-1.55-.41,3,3,0,0,0-1.55.41,2.86,2.86,0,0,0-1.08,1.14,3.66,3.66,0,0,0,0,3.29,2.87,2.87,0,0,0,1.08,1.13,3.17,3.17,0,0,0,3.11,0Z"/><path class="cls-13" d="M180.52,141.19a3.74,3.74,0,0,1,1.94-.52v1.53a2.89,2.89,0,0,0-3.2,2.77v4.74h-1.58v-9h1.58v1.94A3.25,3.25,0,0,1,180.52,141.19Z"/><path class="cls-13" d="M190.31,141.25a4.17,4.17,0,0,1,1.63,1.61,4.67,4.67,0,0,1,.59,2.35,4.72,4.72,0,0,1-.59,2.36,4.14,4.14,0,0,1-1.63,1.62,5.26,5.26,0,0,1-4.79,0,4.16,4.16,0,0,1-1.63-1.61,5.06,5.06,0,0,1,0-4.73,4.17,4.17,0,0,1,1.63-1.61,5.26,5.26,0,0,1,4.79,0Zm-4,1.21a2.82,2.82,0,0,0-1.07,1.13,3.46,3.46,0,0,0-.38,1.64,3.54,3.54,0,0,0,.38,1.67,2.75,2.75,0,0,0,1.07,1.13,3.08,3.08,0,0,0,1.57.4,3,3,0,0,0,1.55-.4,2.75,2.75,0,0,0,1.07-1.13,3.54,3.54,0,0,0,.38-1.67,3.46,3.46,0,0,0-.38-1.64,2.83,2.83,0,0,0-1.07-1.13,3,3,0,0,0-1.55-.41A3,3,0,0,0,186.34,142.46Z"/><path class="cls-13" d="M193.37,151.72a1.11,1.11,0,0,0,1-.44,2.24,2.24,0,0,0,.34-1.34v-9.21h1.6v9.44a3.13,3.13,0,0,1-.67,2.15,2.41,2.41,0,0,1-1.9.76,4.24,4.24,0,0,1-1.55-.31l.37-1.21A3.13,3.13,0,0,0,193.37,151.72Zm2.81-14.3a1.09,1.09,0,0,1,0,1.46,1,1,0,0,1-1.41,0,1.09,1.09,0,0,1,0-1.46,1,1,0,0,1,1.41,0Z"/><path class="cls-13" d="M206,141.9a5.06,5.06,0,0,1,1.07,3.43c0,.23,0,.4,0,.51h-7.11a3.07,3.07,0,0,0,1,1.92,3,3,0,0,0,2,.71,3.81,3.81,0,0,0,1.49-.29,3.56,3.56,0,0,0,1.2-.82l.87.9a4.57,4.57,0,0,1-1.6,1.11,5.34,5.34,0,0,1-2.07.39,4.77,4.77,0,0,1-2.35-.57,4,4,0,0,1-1.6-1.61,4.83,4.83,0,0,1-.57-2.36,4.77,4.77,0,0,1,.57-2.35,4.15,4.15,0,0,1,1.59-1.62,4.59,4.59,0,0,1,2.33-.59A4,4,0,0,1,206,141.9Zm-.36,2.71a2.61,2.61,0,0,0-2.79-2.63,2.84,2.84,0,0,0-2,.71,3,3,0,0,0-.94,1.92Z"/><path class="cls-13" d="M212.94,142.08a3.12,3.12,0,0,0-1.57.39,2.78,2.78,0,0,0-1.08,1.1,3.38,3.38,0,0,0-.39,1.65,3.43,3.43,0,0,0,.38,1.65,2.8,2.8,0,0,0,1.05,1.11,2.94,2.94,0,0,0,1.54.4,4.06,4.06,0,0,0,1.56-.29,3,3,0,0,0,1.16-.83l.9.92a4,4,0,0,1-1.56,1.17,5.33,5.33,0,0,1-2.13.41,4.65,4.65,0,0,1-2.33-.58,4.08,4.08,0,0,1-1.59-1.61,5.17,5.17,0,0,1,0-4.72,4.07,4.07,0,0,1,1.59-1.62,4.65,4.65,0,0,1,2.33-.58,5.69,5.69,0,0,1,2,.35,4,4,0,0,1,1.52,1l-.87,1.09A3.56,3.56,0,0,0,212.94,142.08Z"/><path class="cls-13" d="M223.58,149.12a3.87,3.87,0,0,1-2.11.66,2.39,2.39,0,0,1-1.73-.64,2.56,2.56,0,0,1-.66-1.93v-5H217.8V141h1.28v-2.41h1.6V141h2.75v1.21h-2.75v4.69a1.67,1.67,0,0,0,.27,1.07,1,1,0,0,0,.82.32,2.85,2.85,0,0,0,1.39-.42Z"/><path class="cls-13" d="M231.45,137.43a1.09,1.09,0,0,1,0,1.46,1,1,0,0,1-1.41,0,1.09,1.09,0,0,1,0-1.46,1,1,0,0,1,1.41,0Zm-1.49,3.3h1.58v9H230Z"/><path class="cls-13" d="M238.3,142.17A4.43,4.43,0,0,0,237,142a2.19,2.19,0,0,0-1.15.26.88.88,0,0,0-.43.81.9.9,0,0,0,.48.82,7,7,0,0,0,1.47.57,11.62,11.62,0,0,1,1.53.54,2.72,2.72,0,0,1,1,.8,2.18,2.18,0,0,1,.42,1.39,2.21,2.21,0,0,1-1,1.94,4.1,4.1,0,0,1-2.39.66,6,6,0,0,1-1.95-.32,4.42,4.42,0,0,1-1.59-.92l.6-1.16a4.19,4.19,0,0,0,1.38.82,4.6,4.6,0,0,0,1.61.31,2.4,2.4,0,0,0,1.26-.29,1,1,0,0,0,.48-.88,1,1,0,0,0-.5-.92,6.84,6.84,0,0,0-1.52-.61,10.11,10.11,0,0,1-1.47-.52,2.61,2.61,0,0,1-1-.77,2.09,2.09,0,0,1-.4-1.33,2.14,2.14,0,0,1,.92-1.89,4,4,0,0,1,2.3-.63,5.76,5.76,0,0,1,1.61.23,4.79,4.79,0,0,1,1.37.62l-.58,1.21A5.43,5.43,0,0,0,238.3,142.17Z"/><path class="cls-13" d="M247,137.1h1.58v12.61H247Z"/><path class="cls-13" d="M257.86,141.25a4.17,4.17,0,0,1,1.63,1.61,4.67,4.67,0,0,1,.59,2.35,4.72,4.72,0,0,1-.59,2.36,4.15,4.15,0,0,1-1.63,1.62,5.26,5.26,0,0,1-4.79,0,4.16,4.16,0,0,1-1.63-1.61,5.06,5.06,0,0,1,0-4.73,4.17,4.17,0,0,1,1.63-1.61,5.26,5.26,0,0,1,4.79,0Zm-4,1.21a2.83,2.83,0,0,0-1.07,1.13,3.46,3.46,0,0,0-.38,1.64,3.54,3.54,0,0,0,.38,1.67A2.75,2.75,0,0,0,253.9,148a3.08,3.08,0,0,0,1.57.4A3,3,0,0,0,257,148a2.75,2.75,0,0,0,1.07-1.13,3.53,3.53,0,0,0,.38-1.67,3.44,3.44,0,0,0-.38-1.64,2.82,2.82,0,0,0-1.07-1.13,3,3,0,0,0-1.56-.41A3,3,0,0,0,253.9,142.46Z"/><path class="cls-13" d="M268.42,141.25a4.17,4.17,0,0,1,1.63,1.61,4.67,4.67,0,0,1,.59,2.35,4.72,4.72,0,0,1-.59,2.36,4.15,4.15,0,0,1-1.63,1.62,5.26,5.26,0,0,1-4.79,0,4.16,4.16,0,0,1-1.63-1.61,5.06,5.06,0,0,1,0-4.73,4.17,4.17,0,0,1,1.63-1.61,5.26,5.26,0,0,1,4.79,0Zm-4,1.21a2.83,2.83,0,0,0-1.07,1.13,3.46,3.46,0,0,0-.38,1.64,3.54,3.54,0,0,0,.38,1.67,2.75,2.75,0,0,0,1.07,1.13,3.08,3.08,0,0,0,1.57.4,3,3,0,0,0,1.56-.4,2.75,2.75,0,0,0,1.07-1.13,3.53,3.53,0,0,0,.38-1.67,3.44,3.44,0,0,0-.38-1.64,2.82,2.82,0,0,0-1.07-1.13A3,3,0,0,0,266,142,3,3,0,0,0,264.46,142.46Z"/><path class="cls-13" d="M279.14,149.72l-2.87-4.37-1.75,1.82v2.55h-1.58V137.1h1.58v8l4.35-4.42h1.85l-3.35,3.49,3.67,5.51Z"/><path class="cls-13" d="M284.23,137.43a1.09,1.09,0,0,1,0,1.46,1,1,0,0,1-1.41,0,1.09,1.09,0,0,1,0-1.46,1,1,0,0,1,1.41,0Zm-1.49,3.3h1.58v9h-1.58Z"/><path class="cls-13" d="M294.88,141.6a3.52,3.52,0,0,1,.9,2.56v5.56H294.2v-5.13a2.21,2.21,0,0,0-2.4-2.41,2.72,2.72,0,0,0-2,.77,3,3,0,0,0-.86,2v4.81H287.4v-9H289v1.9a3.47,3.47,0,0,1,3.42-2A3.31,3.31,0,0,1,294.88,141.6Z"/><path class="cls-13" d="M306.56,140.72v8.08a4.37,4.37,0,0,1-.57,2.26,3.78,3.78,0,0,1-1.61,1.49,5.33,5.33,0,0,1-2.41.52,6.14,6.14,0,0,1-3.71-1.26l.7-1.16a4.78,4.78,0,0,0,1.38.81,4.48,4.48,0,0,0,1.56.26,3.13,3.13,0,0,0,2.23-.78,2.73,2.73,0,0,0,.83-2.09v-1.26a3.34,3.34,0,0,1-1.29,1.27,3.8,3.8,0,0,1-1.87.45,4.09,4.09,0,0,1-2.13-.55,3.76,3.76,0,0,1-1.44-1.54,4.85,4.85,0,0,1-.51-2.26,4.71,4.71,0,0,1,.51-2.23,3.73,3.73,0,0,1,1.44-1.51,4.13,4.13,0,0,1,2.13-.54,3.86,3.86,0,0,1,1.88.44,3.3,3.3,0,0,1,1.28,1.26v-1.65Zm-3,6.92a2.73,2.73,0,0,0,1-1.08A3.26,3.26,0,0,0,305,145a3.3,3.3,0,0,0-.37-1.57,2.73,2.73,0,0,0-1-1.08,2.8,2.8,0,0,0-1.48-.39,2.84,2.84,0,0,0-1.49.39,2.77,2.77,0,0,0-1,1.08,3.24,3.24,0,0,0-.37,1.57,3.11,3.11,0,0,0,.82,2.18,2.72,2.72,0,0,0,2.07.85A2.8,2.8,0,0,0,303.58,147.64Z"/><path class="cls-13" d="M316.2,138.79a1.38,1.38,0,0,0-.41,1.07V141h2.48v1.21h-2.48v7.48h-1.58v-7.48H313V141h1.17v-1a3.17,3.17,0,0,1,.42-1.67,2.71,2.71,0,0,1,1.1-1,3.17,3.17,0,0,1,1.46-.35,3.5,3.5,0,0,1,1.56.41l-.37,1.29a2.71,2.71,0,0,0-1.16-.29A1.46,1.46,0,0,0,316.2,138.79Z"/><path class="cls-13" d="M325.68,141.25a4.17,4.17,0,0,1,1.63,1.61,4.67,4.67,0,0,1,.59,2.35,4.72,4.72,0,0,1-.59,2.36,4.15,4.15,0,0,1-1.63,1.62,5.26,5.26,0,0,1-4.79,0,4.16,4.16,0,0,1-1.63-1.61,5.06,5.06,0,0,1,0-4.73,4.17,4.17,0,0,1,1.63-1.61,5.26,5.26,0,0,1,4.79,0Zm-4,1.21a2.83,2.83,0,0,0-1.07,1.13,3.46,3.46,0,0,0-.38,1.64,3.54,3.54,0,0,0,.38,1.67,2.75,2.75,0,0,0,1.07,1.13,3.08,3.08,0,0,0,1.57.4,3,3,0,0,0,1.56-.4,2.75,2.75,0,0,0,1.07-1.13,3.53,3.53,0,0,0,.38-1.67,3.44,3.44,0,0,0-.38-1.64,2.82,2.82,0,0,0-1.07-1.13,3,3,0,0,0-1.56-.41A3,3,0,0,0,321.71,142.46Z"/><path class="cls-13" d="M332.94,141.19a3.74,3.74,0,0,1,1.94-.52v1.53a2.89,2.89,0,0,0-3.2,2.77v4.74H330.1v-9h1.58v1.94A3.26,3.26,0,0,1,332.94,141.19Z"/><path class="cls-13" d="M71.83,162.48a3.13,3.13,0,0,0-1.57.39,2.78,2.78,0,0,0-1.08,1.1,3.38,3.38,0,0,0-.39,1.65,3.44,3.44,0,0,0,.38,1.65,2.8,2.8,0,0,0,1.05,1.11,3,3,0,0,0,1.54.4,4.06,4.06,0,0,0,1.56-.29,3,3,0,0,0,1.16-.83l.9.92a4,4,0,0,1-1.56,1.17,5.33,5.33,0,0,1-2.13.41,4.65,4.65,0,0,1-2.33-.58A4.1,4.1,0,0,1,67.77,168a4.78,4.78,0,0,1-.57-2.35,4.82,4.82,0,0,1,.57-2.36,4.07,4.07,0,0,1,1.59-1.62,4.65,4.65,0,0,1,2.33-.58,5.69,5.69,0,0,1,2,.35,4,4,0,0,1,1.52,1l-.87,1.09A3.56,3.56,0,0,0,71.83,162.48Z"/><path class="cls-13" d="M83.38,161.65A4.15,4.15,0,0,1,85,163.26a4.66,4.66,0,0,1,.59,2.35A4.71,4.71,0,0,1,85,168a4.14,4.14,0,0,1-1.63,1.62,5.27,5.27,0,0,1-4.79,0A4.16,4.16,0,0,1,77,168a5,5,0,0,1,0-4.73,4.15,4.15,0,0,1,1.63-1.61,5.26,5.26,0,0,1,4.79,0Zm-4,1.21A2.81,2.81,0,0,0,78.34,164a3.45,3.45,0,0,0-.38,1.64,3.54,3.54,0,0,0,.38,1.67,2.76,2.76,0,0,0,1.07,1.13,3.07,3.07,0,0,0,1.57.4,3,3,0,0,0,1.56-.4,2.76,2.76,0,0,0,1.07-1.13,3.54,3.54,0,0,0,.38-1.67,3.45,3.45,0,0,0-.38-1.64,2.81,2.81,0,0,0-1.07-1.13,3,3,0,0,0-1.56-.41A3,3,0,0,0,79.42,162.86Z"/><path class="cls-13" d="M95.28,162a3.52,3.52,0,0,1,.9,2.56v5.56H94.6V165a2.21,2.21,0,0,0-2.4-2.41,2.72,2.72,0,0,0-2,.77,3,3,0,0,0-.86,2v4.81H87.8v-9h1.58V163a3.47,3.47,0,0,1,3.42-2A3.3,3.3,0,0,1,95.28,162Z"/><path class="cls-13" d="M103.83,169.52a3.88,3.88,0,0,1-2.11.66,2.4,2.4,0,0,1-1.73-.64,2.56,2.56,0,0,1-.66-1.93v-5H98.06v-1.21h1.27V159h1.6v2.41h2.75v1.21h-2.75v4.69a1.66,1.66,0,0,0,.27,1.07,1,1,0,0,0,.82.32,2.85,2.85,0,0,0,1.39-.43Z"/><path class="cls-13" d="M108.6,161.59a3.74,3.74,0,0,1,1.94-.52v1.53a2.89,2.89,0,0,0-3.2,2.77v4.74h-1.58v-9h1.58v1.94A3.26,3.26,0,0,1,108.6,161.59Z"/><path class="cls-13" d="M113.74,157.83a1.09,1.09,0,0,1,0,1.46,1,1,0,0,1-1.41,0,1.09,1.09,0,0,1,0-1.46,1,1,0,0,1,1.41,0Zm-1.49,3.3h1.58v9h-1.58Z"/><path class="cls-13" d="M124.15,161.65a4,4,0,0,1,1.53,1.62,5.46,5.46,0,0,1,0,4.73,3.88,3.88,0,0,1-1.51,1.6,4.35,4.35,0,0,1-2.24.57,4.1,4.1,0,0,1-2-.48,3.42,3.42,0,0,1-1.36-1.36v1.79H117V157.5h1.58v5.41a3.42,3.42,0,0,1,1.35-1.36,4,4,0,0,1,2-.48A4.36,4.36,0,0,1,124.15,161.65Zm-1,6.73a2.82,2.82,0,0,0,1.07-1.14,3.5,3.5,0,0,0,.38-1.65,3.4,3.4,0,0,0-.39-1.63,2.89,2.89,0,0,0-1.07-1.14,2.94,2.94,0,0,0-1.55-.41,3,3,0,0,0-1.56.41A2.86,2.86,0,0,0,119,164a3.65,3.65,0,0,0,0,3.29,2.88,2.88,0,0,0,1.08,1.13,3.18,3.18,0,0,0,3.11,0Z"/><path class="cls-13" d="M136.39,161.12v9h-1.6v-1.9a3.38,3.38,0,0,1-3.33,2,3.22,3.22,0,0,1-2.45-.93,3.55,3.55,0,0,1-.88-2.56v-5.56h1.6v5.13a2.44,2.44,0,0,0,.62,1.78,2.27,2.27,0,0,0,1.71.64,2.53,2.53,0,0,0,2-.89,3.35,3.35,0,0,0,.74-2.24v-4.42Z"/><path class="cls-13" d="M144.29,169.52a3.88,3.88,0,0,1-2.11.66,2.4,2.4,0,0,1-1.73-.64,2.56,2.56,0,0,1-.66-1.93v-5h-1.27v-1.21h1.27V159h1.6v2.41h2.75v1.21h-2.75v4.69a1.66,1.66,0,0,0,.27,1.07,1,1,0,0,0,.82.32,2.85,2.85,0,0,0,1.39-.43Z"/><path class="cls-13" d="M147.7,157.83a1.09,1.09,0,0,1,0,1.46,1,1,0,0,1-1.41,0,1.09,1.09,0,0,1,0-1.46,1,1,0,0,1,1.41,0Zm-1.49,3.3h1.58v9h-1.58Z"/><path class="cls-13" d="M157,161.65a4.16,4.16,0,0,1,1.63,1.61,4.67,4.67,0,0,1,.59,2.35,4.72,4.72,0,0,1-.59,2.36,4.15,4.15,0,0,1-1.63,1.62,5.27,5.27,0,0,1-4.79,0,4.17,4.17,0,0,1-1.63-1.61,5.06,5.06,0,0,1,0-4.73,4.16,4.16,0,0,1,1.63-1.61,5.26,5.26,0,0,1,4.79,0Zm-4,1.21A2.81,2.81,0,0,0,152,164a3.45,3.45,0,0,0-.38,1.64,3.55,3.55,0,0,0,.38,1.67,2.75,2.75,0,0,0,1.07,1.13,3.07,3.07,0,0,0,1.57.4,3,3,0,0,0,1.55-.4,2.76,2.76,0,0,0,1.07-1.13,3.55,3.55,0,0,0,.38-1.67,3.45,3.45,0,0,0-.38-1.64,2.81,2.81,0,0,0-1.07-1.13,3,3,0,0,0-1.55-.41A3,3,0,0,0,153,162.86Z"/><path class="cls-13" d="M168.91,162a3.52,3.52,0,0,1,.9,2.56v5.56h-1.58V165a2.4,2.4,0,0,0-.64-1.78,2.38,2.38,0,0,0-1.76-.64,2.72,2.72,0,0,0-2,.77,3,3,0,0,0-.86,2v4.81h-1.58v-9H163V163a3.47,3.47,0,0,1,3.42-2A3.3,3.3,0,0,1,168.91,162Z"/><path class="cls-13" d="M176.31,162.57a4.4,4.4,0,0,0-1.28-.2,2.19,2.19,0,0,0-1.15.26.88.88,0,0,0-.43.81.9.9,0,0,0,.49.82,7,7,0,0,0,1.47.57,11.49,11.49,0,0,1,1.53.54,2.73,2.73,0,0,1,1,.8,2.48,2.48,0,0,1-.54,3.33,4.1,4.1,0,0,1-2.39.66,6,6,0,0,1-1.95-.32,4.41,4.41,0,0,1-1.59-.92l.59-1.16a4.18,4.18,0,0,0,1.39.82,4.6,4.6,0,0,0,1.61.31,2.41,2.41,0,0,0,1.26-.29,1,1,0,0,0,.48-.88,1,1,0,0,0-.5-.92,6.81,6.81,0,0,0-1.52-.61,10.19,10.19,0,0,1-1.47-.52,2.61,2.61,0,0,1-1-.77,2.08,2.08,0,0,1-.4-1.33,2.14,2.14,0,0,1,.92-1.89,4,4,0,0,1,2.29-.63,5.72,5.72,0,0,1,1.61.23,4.81,4.81,0,0,1,1.37.62l-.58,1.21A5.39,5.39,0,0,0,176.31,162.57Z"/><path class="cls-13" d="M186,168.59a1,1,0,0,1,.26.7,1,1,0,0,1-.26.71.86.86,0,0,1-.65.28.89.89,0,0,1-.66-.28,1,1,0,0,1-.27-.71.94.94,0,0,1,.27-.7.9.9,0,0,1,.66-.27A.88.88,0,0,1,186,168.59Zm-1.42-10.2h1.53v2.91l-.26,5.17h-1l-.24-5.17Z"/><path class="cls-13" d="M207.33,158.22H209l-4,11.9h-1.7l-3.08-9.83-3.13,9.83h-1.68l-4-11.9h1.75l3.15,10.15,3.13-10.15h1.63l3.15,10.15Z"/><path class="cls-13" d="M216.54,162.3a5.05,5.05,0,0,1,1.07,3.43c0,.23,0,.4,0,.51h-7.11a3.07,3.07,0,0,0,1,1.92,3,3,0,0,0,2,.71,3.79,3.79,0,0,0,1.49-.29,3.56,3.56,0,0,0,1.2-.82l.87.9a4.57,4.57,0,0,1-1.6,1.1,5.32,5.32,0,0,1-2.07.39,4.78,4.78,0,0,1-2.35-.57,4,4,0,0,1-1.6-1.61,5.17,5.17,0,0,1,0-4.72,4.15,4.15,0,0,1,1.59-1.62,4.59,4.59,0,0,1,2.33-.59A4,4,0,0,1,216.54,162.3Zm-.36,2.71a2.61,2.61,0,0,0-2.79-2.63,2.84,2.84,0,0,0-2,.71,3,3,0,0,0-.94,1.92Z"/><path class="cls-13" d="M229.72,170.12v-1.26a3.69,3.69,0,0,1-3.15,1.33,3.58,3.58,0,0,1-1.64-.36,2.63,2.63,0,0,1-1.09-1,2.67,2.67,0,0,1-.38-1.41,2.31,2.31,0,0,1,.89-1.91,4,4,0,0,1,2.49-.72h2.86v-.42a1.86,1.86,0,0,0-.59-1.47,2.5,2.5,0,0,0-1.71-.52,4.9,4.9,0,0,0-2.77,1l-.66-1.09a8.27,8.27,0,0,1,1.79-.91,6.13,6.13,0,0,1,2-.28,3.77,3.77,0,0,1,2.6.82,3,3,0,0,1,.93,2.3l0,5.92Zm-.94-1.78a2.11,2.11,0,0,0,.93-1.42V166h-2.64a3.07,3.07,0,0,0-1.59.32,1.11,1.11,0,0,0-.52,1,1.32,1.32,0,0,0,.53,1.1,2.24,2.24,0,0,0,1.41.41A3.22,3.22,0,0,0,228.78,168.34Z"/><path class="cls-13" d="M236.94,161.59a3.74,3.74,0,0,1,1.94-.52v1.53a2.89,2.89,0,0,0-3.2,2.77v4.74h-1.58v-9h1.58v1.94A3.26,3.26,0,0,1,236.94,161.59Z"/><path class="cls-13" d="M247.37,162.3a5.05,5.05,0,0,1,1.07,3.43c0,.23,0,.4,0,.51h-7.11a3.07,3.07,0,0,0,1,1.92,3,3,0,0,0,2,.71,3.79,3.79,0,0,0,1.49-.29,3.56,3.56,0,0,0,1.2-.82l.87.9a4.57,4.57,0,0,1-1.6,1.1,5.32,5.32,0,0,1-2.07.39,4.78,4.78,0,0,1-2.35-.57,4,4,0,0,1-1.6-1.61,5.17,5.17,0,0,1,0-4.72,4.15,4.15,0,0,1,1.59-1.62,4.59,4.59,0,0,1,2.33-.59A4,4,0,0,1,247.37,162.3ZM247,165a2.61,2.61,0,0,0-2.79-2.63,2.84,2.84,0,0,0-2,.71,3,3,0,0,0-.94,1.92Z"/><path class="cls-13" d="M258.79,162.48a3.12,3.12,0,0,0-1.57.39,2.79,2.79,0,0,0-1.08,1.1,3.38,3.38,0,0,0-.39,1.65,3.43,3.43,0,0,0,.38,1.65,2.8,2.8,0,0,0,1.05,1.11,3,3,0,0,0,1.54.4,4.06,4.06,0,0,0,1.56-.29,3,3,0,0,0,1.16-.83l.9.92a4,4,0,0,1-1.56,1.17,5.33,5.33,0,0,1-2.13.41,4.64,4.64,0,0,1-2.33-.58,4.09,4.09,0,0,1-1.59-1.61,4.78,4.78,0,0,1-.57-2.35,4.82,4.82,0,0,1,.57-2.36,4.07,4.07,0,0,1,1.59-1.62,4.65,4.65,0,0,1,2.33-.58,5.69,5.69,0,0,1,2,.35,4,4,0,0,1,1.52,1l-.87,1.09A3.56,3.56,0,0,0,258.79,162.48Z"/><path class="cls-13" d="M271,162.3a5.05,5.05,0,0,1,1.07,3.43c0,.23,0,.4,0,.51h-7.11a3.07,3.07,0,0,0,1,1.92,3,3,0,0,0,2,.71,3.79,3.79,0,0,0,1.49-.29,3.56,3.56,0,0,0,1.2-.82l.87.9a4.57,4.57,0,0,1-1.6,1.1,5.32,5.32,0,0,1-2.07.39,4.78,4.78,0,0,1-2.35-.57,4,4,0,0,1-1.6-1.61,5.17,5.17,0,0,1,0-4.72,4.15,4.15,0,0,1,1.59-1.62,4.59,4.59,0,0,1,2.33-.59A4,4,0,0,1,271,162.3Zm-.36,2.71a2.61,2.61,0,0,0-2.79-2.63,2.84,2.84,0,0,0-2,.71,3,3,0,0,0-.94,1.92Z"/><path class="cls-13" d="M274.29,157.5h1.58v12.61h-1.58Z"/><path class="cls-13" d="M285.82,162.3a5.05,5.05,0,0,1,1.07,3.43c0,.23,0,.4,0,.51h-7.11a3.07,3.07,0,0,0,1,1.92,3,3,0,0,0,2,.71,3.79,3.79,0,0,0,1.49-.29,3.56,3.56,0,0,0,1.2-.82l.87.9a4.57,4.57,0,0,1-1.6,1.1,5.32,5.32,0,0,1-2.07.39,4.78,4.78,0,0,1-2.35-.57,4,4,0,0,1-1.6-1.61,5.17,5.17,0,0,1,0-4.72,4.15,4.15,0,0,1,1.59-1.62,4.59,4.59,0,0,1,2.33-.59A4,4,0,0,1,285.82,162.3Zm-.36,2.71a2.61,2.61,0,0,0-2.79-2.63,2.84,2.84,0,0,0-2,.71,3,3,0,0,0-.94,1.92Z"/><path class="cls-13" d="M296.29,161.65a4,4,0,0,1,1.53,1.62,5.46,5.46,0,0,1,0,4.73,3.88,3.88,0,0,1-1.51,1.6,4.35,4.35,0,0,1-2.24.57,4.1,4.1,0,0,1-2-.48,3.42,3.42,0,0,1-1.36-1.36v1.79h-1.58V157.5h1.58v5.41a3.42,3.42,0,0,1,1.35-1.36,4,4,0,0,1,2-.48A4.36,4.36,0,0,1,296.29,161.65Zm-1,6.73a2.81,2.81,0,0,0,1.07-1.14,3.51,3.51,0,0,0,.38-1.65,3.41,3.41,0,0,0-.39-1.63,2.89,2.89,0,0,0-1.07-1.14,2.94,2.94,0,0,0-1.55-.41,3,3,0,0,0-1.56.41,2.87,2.87,0,0,0-1.08,1.14,3.66,3.66,0,0,0,0,3.29,2.89,2.89,0,0,0,1.08,1.13,3.18,3.18,0,0,0,3.11,0Z"/><path class="cls-13" d="M303.42,161.59a3.74,3.74,0,0,1,1.94-.52v1.53a2.89,2.89,0,0,0-3.2,2.77v4.74h-1.58v-9h1.58v1.94A3.26,3.26,0,0,1,303.42,161.59Z"/><path class="cls-13" d="M312.17,170.12v-1.26a3.69,3.69,0,0,1-3.15,1.33,3.58,3.58,0,0,1-1.64-.36,2.63,2.63,0,0,1-1.09-1,2.67,2.67,0,0,1-.38-1.41,2.31,2.31,0,0,1,.89-1.91,4,4,0,0,1,2.49-.72h2.86v-.42a1.86,1.86,0,0,0-.59-1.47,2.5,2.5,0,0,0-1.71-.52,4.9,4.9,0,0,0-2.77,1l-.66-1.09a8.27,8.27,0,0,1,1.79-.91,6.13,6.13,0,0,1,2-.28,3.77,3.77,0,0,1,2.6.82,3,3,0,0,1,.93,2.3l0,5.92Zm-.94-1.78a2.11,2.11,0,0,0,.93-1.42V166h-2.64a3.07,3.07,0,0,0-1.59.32,1.11,1.11,0,0,0-.52,1,1.32,1.32,0,0,0,.53,1.1,2.24,2.24,0,0,0,1.41.41A3.22,3.22,0,0,0,311.23,168.34Z"/><path class="cls-13" d="M321.38,169.52a3.88,3.88,0,0,1-2.11.66,2.4,2.4,0,0,1-1.73-.64,2.56,2.56,0,0,1-.66-1.93v-5H315.6v-1.21h1.28V159h1.6v2.41h2.75v1.21h-2.75v4.69a1.66,1.66,0,0,0,.27,1.07,1,1,0,0,0,.82.32,2.86,2.86,0,0,0,1.39-.43Z"/><path class="cls-13" d="M324.79,157.83a1.09,1.09,0,0,1,0,1.46,1,1,0,0,1-1.41,0,1.09,1.09,0,0,1,0-1.46,1,1,0,0,1,1.41,0Zm-1.49,3.3h1.58v9H323.3Z"/><path class="cls-13" d="M335.44,162a3.52,3.52,0,0,1,.9,2.56v5.56h-1.58V165a2.21,2.21,0,0,0-2.4-2.41,2.72,2.72,0,0,0-2,.77,3,3,0,0,0-.86,2v4.81H328v-9h1.58V163a3.47,3.47,0,0,1,3.42-2A3.31,3.31,0,0,1,335.44,162Z"/><path class="cls-13" d="M347.12,161.12v8.08a4.38,4.38,0,0,1-.57,2.26,3.78,3.78,0,0,1-1.61,1.49,5.33,5.33,0,0,1-2.41.52,6.15,6.15,0,0,1-3.71-1.26l.7-1.16a4.76,4.76,0,0,0,1.38.81,4.5,4.5,0,0,0,1.56.26,3.12,3.12,0,0,0,2.23-.78,2.73,2.73,0,0,0,.83-2.09V168a3.35,3.35,0,0,1-1.29,1.27,3.8,3.8,0,0,1-1.87.45,4.1,4.1,0,0,1-2.13-.55,3.77,3.77,0,0,1-1.44-1.54,4.85,4.85,0,0,1-.51-2.26,4.72,4.72,0,0,1,.51-2.23,3.73,3.73,0,0,1,1.44-1.51,4.14,4.14,0,0,1,2.13-.54,3.86,3.86,0,0,1,1.88.44,3.31,3.31,0,0,1,1.28,1.26v-1.65Zm-3,6.92a2.73,2.73,0,0,0,1-1.08,3.26,3.26,0,0,0,.37-1.56,3.3,3.3,0,0,0-.37-1.57,2.72,2.72,0,0,0-1-1.08,2.79,2.79,0,0,0-1.48-.39,2.83,2.83,0,0,0-1.49.39,2.76,2.76,0,0,0-1,1.08,3.24,3.24,0,0,0-.37,1.57,3.11,3.11,0,0,0,.82,2.18,2.72,2.72,0,0,0,2.07.85A2.8,2.8,0,0,0,344.15,168Z"/><path class="cls-13" d="M80.83,189.92a3.88,3.88,0,0,1-2.11.66,2.4,2.4,0,0,1-1.73-.64,2.56,2.56,0,0,1-.66-1.93v-5H75v-1.21h1.27v-2.41h1.6v2.41h2.75V183H77.92v4.69a1.66,1.66,0,0,0,.27,1.07,1,1,0,0,0,.82.32,2.85,2.85,0,0,0,1.39-.43Z"/><path class="cls-13" d="M90.33,182.4a3.52,3.52,0,0,1,.9,2.56v5.56H89.65v-5.13a2.21,2.21,0,0,0-2.4-2.41,2.67,2.67,0,0,0-2.07.88,3.26,3.26,0,0,0-.77,2.24v4.42H82.83V177.9h1.58v5.56a3.48,3.48,0,0,1,3.43-2A3.3,3.3,0,0,1,90.33,182.4Z"/><path class="cls-13" d="M100.82,182.71a5.05,5.05,0,0,1,1.07,3.43c0,.23,0,.4,0,.51H94.77a3.06,3.06,0,0,0,1,1.92,3,3,0,0,0,2,.71A3.79,3.79,0,0,0,99.3,189a3.57,3.57,0,0,0,1.2-.82l.87.9a4.56,4.56,0,0,1-1.6,1.1,5.32,5.32,0,0,1-2.07.39,4.77,4.77,0,0,1-2.35-.57,4,4,0,0,1-1.6-1.61,5.17,5.17,0,0,1,0-4.72,4.16,4.16,0,0,1,1.59-1.62,4.59,4.59,0,0,1,2.33-.59A4,4,0,0,1,100.82,182.71Zm-.36,2.71a2.61,2.61,0,0,0-2.79-2.63,2.84,2.84,0,0,0-2,.71,3,3,0,0,0-.94,1.92Z"/><path class="cls-13" d="M122.54,182.41a3.56,3.56,0,0,1,.88,2.55v5.56h-1.6v-5.13a2.47,2.47,0,0,0-.62-1.79,2.26,2.26,0,0,0-1.71-.65,2.58,2.58,0,0,0-2,.9,3.34,3.34,0,0,0-.73,2.23v4.44h-1.6v-5.13a2.49,2.49,0,0,0-.61-1.79,2.25,2.25,0,0,0-1.72-.65,2.61,2.61,0,0,0-2,.9,3.31,3.31,0,0,0-.74,2.23v4.44H108.5v-9h1.58v1.89a3.4,3.4,0,0,1,3.35-1.94,3.44,3.44,0,0,1,2.07.59,2.92,2.92,0,0,1,1.11,1.67,3.41,3.41,0,0,1,3.5-2.26A3.18,3.18,0,0,1,122.54,182.41Z"/><path class="cls-13" d="M132.38,182.05a4.15,4.15,0,0,1,1.63,1.61,4.66,4.66,0,0,1,.59,2.35,4.71,4.71,0,0,1-.59,2.36,4.14,4.14,0,0,1-1.63,1.62,5.27,5.27,0,0,1-4.79,0,4.16,4.16,0,0,1-1.63-1.61,5,5,0,0,1,0-4.73,4.15,4.15,0,0,1,1.63-1.61,5.26,5.26,0,0,1,4.79,0Zm-4,1.21a2.81,2.81,0,0,0-1.07,1.13A3.45,3.45,0,0,0,127,186a3.54,3.54,0,0,0,.38,1.67,2.76,2.76,0,0,0,1.07,1.13,3.07,3.07,0,0,0,1.57.4,3,3,0,0,0,1.56-.4,2.76,2.76,0,0,0,1.07-1.13A3.54,3.54,0,0,0,133,186a3.45,3.45,0,0,0-.38-1.64,2.81,2.81,0,0,0-1.07-1.13,3,3,0,0,0-1.56-.41A3,3,0,0,0,128.42,183.26Z"/><path class="cls-13" d="M144.29,182.4a3.52,3.52,0,0,1,.9,2.56v5.56h-1.58v-5.13a2.21,2.21,0,0,0-2.4-2.41,2.72,2.72,0,0,0-2,.77,3,3,0,0,0-.86,2v4.81h-1.58v-9h1.58v1.9a3.47,3.47,0,0,1,3.42-2A3.3,3.3,0,0,1,144.29,182.4Z"/><path class="cls-13" d="M152.84,189.92a3.88,3.88,0,0,1-2.11.66,2.4,2.4,0,0,1-1.73-.64,2.56,2.56,0,0,1-.66-1.93v-5h-1.27v-1.21h1.27v-2.41h1.6v2.41h2.75V183h-2.75v4.69a1.66,1.66,0,0,0,.27,1.07,1,1,0,0,0,.82.32,2.85,2.85,0,0,0,1.39-.43Z"/><path class="cls-13" d="M162.34,182.4a3.52,3.52,0,0,1,.9,2.56v5.56h-1.58v-5.13a2.21,2.21,0,0,0-2.4-2.41,2.67,2.67,0,0,0-2.07.88,3.26,3.26,0,0,0-.77,2.24v4.42h-1.58V177.9h1.58v5.56a3.48,3.48,0,0,1,3.43-2A3.3,3.3,0,0,1,162.34,182.4Z"/><path class="cls-13" d="M170.6,177.9h1.58v12.61H170.6Z"/><path class="cls-13" d="M181.49,182.05a4.15,4.15,0,0,1,1.63,1.61,4.66,4.66,0,0,1,.59,2.35,4.71,4.71,0,0,1-.59,2.36,4.14,4.14,0,0,1-1.63,1.62,5.27,5.27,0,0,1-4.79,0,4.16,4.16,0,0,1-1.63-1.61,5,5,0,0,1,0-4.73,4.15,4.15,0,0,1,1.63-1.61,5.26,5.26,0,0,1,4.79,0Zm-4,1.21a2.81,2.81,0,0,0-1.07,1.13,3.45,3.45,0,0,0-.38,1.64,3.54,3.54,0,0,0,.38,1.67,2.76,2.76,0,0,0,1.07,1.13,3.07,3.07,0,0,0,1.57.4,3,3,0,0,0,1.56-.4,2.76,2.76,0,0,0,1.07-1.13,3.54,3.54,0,0,0,.38-1.67,3.45,3.45,0,0,0-.38-1.64,2.81,2.81,0,0,0-1.07-1.13,3,3,0,0,0-1.56-.41A3,3,0,0,0,177.53,183.26Z"/><path class="cls-13" d="M193.4,182.4a3.52,3.52,0,0,1,.9,2.56v5.56h-1.58v-5.13a2.21,2.21,0,0,0-2.4-2.41,2.72,2.72,0,0,0-2,.77,3,3,0,0,0-.86,2v4.81h-1.58v-9h1.58v1.9a3.47,3.47,0,0,1,3.42-2A3.3,3.3,0,0,1,193.4,182.4Z"/><path class="cls-13" d="M205.08,181.52v8.08a4.39,4.39,0,0,1-.57,2.26,3.79,3.79,0,0,1-1.61,1.49,5.33,5.33,0,0,1-2.41.52,6.15,6.15,0,0,1-3.71-1.26l.7-1.16a4.79,4.79,0,0,0,1.38.81,4.5,4.5,0,0,0,1.56.26,3.12,3.12,0,0,0,2.23-.78,2.73,2.73,0,0,0,.83-2.09v-1.26a3.35,3.35,0,0,1-1.29,1.27,3.8,3.8,0,0,1-1.87.45,4.1,4.1,0,0,1-2.13-.55,3.78,3.78,0,0,1-1.44-1.54,4.85,4.85,0,0,1-.51-2.26,4.72,4.72,0,0,1,.51-2.23,3.74,3.74,0,0,1,1.44-1.51,4.14,4.14,0,0,1,2.13-.54,3.86,3.86,0,0,1,1.88.44,3.31,3.31,0,0,1,1.28,1.26v-1.65Zm-3,6.92a2.74,2.74,0,0,0,1-1.08,3.27,3.27,0,0,0,.37-1.56,3.32,3.32,0,0,0-.37-1.57,2.73,2.73,0,0,0-1-1.08,2.79,2.79,0,0,0-1.48-.39,2.84,2.84,0,0,0-1.49.39,2.76,2.76,0,0,0-1,1.08,3.25,3.25,0,0,0-.37,1.57,3.11,3.11,0,0,0,.82,2.18,2.71,2.71,0,0,0,2.07.85A2.8,2.8,0,0,0,202.1,188.44Z"/><path class="cls-13" d="M212.58,178.62h1.63v5.3H221v-5.3h1.65v11.9H221V185.4h-6.8v5.12h-1.63Z"/><path class="cls-13" d="M231.4,190.52v-1.26a3.69,3.69,0,0,1-3.15,1.33,3.58,3.58,0,0,1-1.64-.36,2.63,2.63,0,0,1-1.09-1,2.67,2.67,0,0,1-.38-1.41,2.31,2.31,0,0,1,.89-1.91,4,4,0,0,1,2.49-.72h2.86v-.42a1.86,1.86,0,0,0-.59-1.47,2.5,2.5,0,0,0-1.71-.52,4.9,4.9,0,0,0-2.77,1l-.66-1.09a8.27,8.27,0,0,1,1.79-.91,6.13,6.13,0,0,1,2-.28,3.77,3.77,0,0,1,2.6.82,3,3,0,0,1,.93,2.3l0,5.92Zm-.94-1.78a2.11,2.11,0,0,0,.93-1.42v-.9h-2.64a3.07,3.07,0,0,0-1.59.32,1.11,1.11,0,0,0-.52,1,1.32,1.32,0,0,0,.53,1.1,2.24,2.24,0,0,0,1.41.41A3.22,3.22,0,0,0,230.45,188.74Z"/><path class="cls-13" d="M239.52,182.88a3.12,3.12,0,0,0-1.57.39,2.79,2.79,0,0,0-1.08,1.1,3.38,3.38,0,0,0-.39,1.65,3.43,3.43,0,0,0,.38,1.65,2.8,2.8,0,0,0,1.05,1.11,3,3,0,0,0,1.54.4,4.06,4.06,0,0,0,1.56-.29,3,3,0,0,0,1.16-.83l.9.92a4,4,0,0,1-1.56,1.17,5.33,5.33,0,0,1-2.13.41,4.64,4.64,0,0,1-2.33-.58,4.09,4.09,0,0,1-1.59-1.61,4.78,4.78,0,0,1-.57-2.35,4.82,4.82,0,0,1,.57-2.36,4.07,4.07,0,0,1,1.59-1.62,4.65,4.65,0,0,1,2.33-.58,5.69,5.69,0,0,1,2,.35,4,4,0,0,1,1.52,1l-.87,1.09A3.56,3.56,0,0,0,239.52,182.88Z"/><path class="cls-13" d="M251.63,190.52l-2.87-4.37L247,188v2.55h-1.58V177.9H247v8l4.35-4.42h1.85L249.86,185l3.67,5.51Z"/><path class="cls-13" d="M260.06,189.92a3.88,3.88,0,0,1-2.11.66,2.4,2.4,0,0,1-1.73-.64,2.56,2.56,0,0,1-.66-1.93v-5h-1.28v-1.21h1.28v-2.41h1.6v2.41h2.75V183h-2.75v4.69a1.66,1.66,0,0,0,.27,1.07,1,1,0,0,0,.82.32,2.86,2.86,0,0,0,1.39-.43Z"/><path class="cls-13" d="M268,182.05a4.16,4.16,0,0,1,1.63,1.61,4.67,4.67,0,0,1,.59,2.35,4.72,4.72,0,0,1-.59,2.36A4.15,4.15,0,0,1,268,190a5.27,5.27,0,0,1-4.79,0,4.17,4.17,0,0,1-1.63-1.61,5.06,5.06,0,0,1,0-4.73,4.16,4.16,0,0,1,1.63-1.61,5.26,5.26,0,0,1,4.79,0Zm-4,1.21a2.81,2.81,0,0,0-1.07,1.13,3.45,3.45,0,0,0-.38,1.64,3.55,3.55,0,0,0,.38,1.67,2.76,2.76,0,0,0,1.07,1.13,3.07,3.07,0,0,0,1.57.4,3,3,0,0,0,1.56-.4,2.75,2.75,0,0,0,1.07-1.13,3.53,3.53,0,0,0,.38-1.67,3.44,3.44,0,0,0-.38-1.64,2.81,2.81,0,0,0-1.07-1.13,3,3,0,0,0-1.56-.41A3,3,0,0,0,264,183.26Z"/><path class="cls-13" d="M279.66,182.05a4,4,0,0,1,1.53,1.62,5.46,5.46,0,0,1,0,4.73,3.88,3.88,0,0,1-1.51,1.6,4.35,4.35,0,0,1-2.24.57,4.1,4.1,0,0,1-2-.48,3.42,3.42,0,0,1-1.36-1.36v1.79H272.5V177.9h1.58v5.41a3.42,3.42,0,0,1,1.35-1.36,4,4,0,0,1,2-.48A4.36,4.36,0,0,1,279.66,182.05Zm-1,6.73a2.81,2.81,0,0,0,1.07-1.14,3.51,3.51,0,0,0,.38-1.65,3.41,3.41,0,0,0-.39-1.63,2.89,2.89,0,0,0-1.07-1.14,2.94,2.94,0,0,0-1.55-.41,3,3,0,0,0-1.56.41,2.87,2.87,0,0,0-1.08,1.14,3.66,3.66,0,0,0,0,3.29,2.89,2.89,0,0,0,1.08,1.13,3.18,3.18,0,0,0,3.11,0Z"/><path class="cls-13" d="M290.71,182.71a5.05,5.05,0,0,1,1.07,3.43c0,.23,0,.4,0,.51h-7.11a3.07,3.07,0,0,0,1,1.92,3,3,0,0,0,2,.71,3.79,3.79,0,0,0,1.49-.29,3.56,3.56,0,0,0,1.2-.82l.87.9a4.57,4.57,0,0,1-1.6,1.1,5.32,5.32,0,0,1-2.07.39,4.78,4.78,0,0,1-2.35-.57,4,4,0,0,1-1.6-1.61,5.17,5.17,0,0,1,0-4.72,4.15,4.15,0,0,1,1.59-1.62,4.59,4.59,0,0,1,2.33-.59A4,4,0,0,1,290.71,182.71Zm-.36,2.71a2.61,2.61,0,0,0-2.79-2.63,2.84,2.84,0,0,0-2,.71,3,3,0,0,0-.94,1.92Z"/><path class="cls-13" d="M296.78,182a3.74,3.74,0,0,1,1.94-.52V183a2.89,2.89,0,0,0-3.2,2.77v4.74h-1.58v-9h1.58v1.94A3.26,3.26,0,0,1,296.78,182Z"/><path class="cls-13" d="M302.73,179.59a1.38,1.38,0,0,0-.41,1.07v1.17h2.48V183h-2.48v7.48h-1.58V183h-1.17v-1.21h1.17v-1a3.17,3.17,0,0,1,.42-1.68,2.71,2.71,0,0,1,1.1-1,3.17,3.17,0,0,1,1.46-.35,3.49,3.49,0,0,1,1.56.41l-.37,1.29a2.73,2.73,0,0,0-1.16-.29A1.45,1.45,0,0,0,302.73,179.59Z"/><path class="cls-13" d="M312.84,182.71a5.05,5.05,0,0,1,1.07,3.43c0,.23,0,.4,0,.51h-7.11a3.07,3.07,0,0,0,1,1.92,3,3,0,0,0,2,.71,3.79,3.79,0,0,0,1.49-.29,3.56,3.56,0,0,0,1.2-.82l.87.9a4.57,4.57,0,0,1-1.6,1.1,5.32,5.32,0,0,1-2.07.39,4.78,4.78,0,0,1-2.35-.57,4,4,0,0,1-1.6-1.61,5.17,5.17,0,0,1,0-4.72,4.15,4.15,0,0,1,1.59-1.62,4.59,4.59,0,0,1,2.33-.59A4,4,0,0,1,312.84,182.71Zm-.36,2.71a2.61,2.61,0,0,0-2.79-2.63,2.84,2.84,0,0,0-2,.71,3,3,0,0,0-.94,1.92Z"/><path class="cls-13" d="M319.75,183a4.4,4.4,0,0,0-1.28-.2,2.19,2.19,0,0,0-1.15.26.88.88,0,0,0-.43.81.9.9,0,0,0,.48.82,7,7,0,0,0,1.47.57,11.47,11.47,0,0,1,1.53.54,2.72,2.72,0,0,1,1,.8,2.47,2.47,0,0,1-.54,3.33,4.1,4.1,0,0,1-2.39.66,6,6,0,0,1-1.95-.32,4.41,4.41,0,0,1-1.59-.92l.6-1.16a4.18,4.18,0,0,0,1.38.82,4.6,4.6,0,0,0,1.61.31,2.41,2.41,0,0,0,1.26-.29,1,1,0,0,0,.48-.88,1,1,0,0,0-.5-.92,6.85,6.85,0,0,0-1.52-.61,10.1,10.1,0,0,1-1.47-.52,2.61,2.61,0,0,1-1-.77,2.09,2.09,0,0,1-.4-1.33,2.14,2.14,0,0,1,.92-1.89,4,4,0,0,1,2.3-.63,5.73,5.73,0,0,1,1.61.23,4.82,4.82,0,0,1,1.37.62l-.58,1.21A5.39,5.39,0,0,0,319.75,183Z"/><path class="cls-13" d="M328.72,189.92a3.88,3.88,0,0,1-2.11.66,2.4,2.4,0,0,1-1.73-.64,2.56,2.56,0,0,1-.66-1.93v-5h-1.28v-1.21h1.28v-2.41h1.6v2.41h2.75V183h-2.75v4.69a1.66,1.66,0,0,0,.27,1.07,1,1,0,0,0,.82.32,2.86,2.86,0,0,0,1.39-.43Z"/><path class="cls-13" d="M336.16,189a1,1,0,0,1,.26.7,1,1,0,0,1-.26.71.86.86,0,0,1-.65.28.89.89,0,0,1-.66-.28,1,1,0,0,1-.27-.71.94.94,0,0,1,.27-.7.9.9,0,0,1,.66-.27A.88.88,0,0,1,336.16,189Zm-1.42-10.2h1.53v2.91l-.25,5.17h-1l-.24-5.17Z"/><path class="cls-13" d="M339.66,189a1,1,0,0,1,.26.7,1,1,0,0,1-.26.71.86.86,0,0,1-.65.28.89.89,0,0,1-.66-.28,1,1,0,0,1-.27-.71.94.94,0,0,1,.27-.7.9.9,0,0,1,.66-.27A.88.88,0,0,1,339.66,189Zm-1.42-10.2h1.53v2.91l-.25,5.17h-1l-.24-5.17Z"/></svg>