<svg id="Layer_1" data-name="Layer 1" xmlns="http://www.w3.org/2000/svg" xmlns:xlink="http://www.w3.org/1999/xlink" viewBox="0 0 1348 692"><defs><style>.cls-1,.cls-13,.cls-14{fill:none;}.cls-2{clip-path:url(#clip-path);}.cls-3,.cls-7,.cls-8{fill:#ff544e;}.cls-4{fill:#fff;}.cls-12,.cls-5,.cls-6,.cls-9{fill:#273274;}.cls-6{stroke:#f9f9f9;}.cls-11,.cls-12,.cls-13,.cls-14,.cls-6,.cls-7,.cls-8,.cls-9{stroke-miterlimit:10;}.cls-14,.cls-6,.cls-8,.cls-9{stroke-width:2px;}.cls-7,.cls-8{stroke:#fff;}.cls-12,.cls-7{stroke-width:5px;}.cls-11,.cls-12,.cls-9{stroke:#f7f7f7;}.cls-10,.cls-11{fill:#ff8c58;}.cls-11,.cls-13{stroke-width:4px;}.cls-13,.cls-14{stroke:#273274;}</style><clipPath id="clip-path"><rect class="cls-1" x="-9.5" y="263.5" width="1349" height="428.5"/></clipPath></defs><title>hacktober header</title><g class="cls-2"><path class="cls-3" d="M1197.07,448q0-10.62,0-21.23c0-16,0-32.08,0-48.13a9.61,9.61,0,0,1,2-6c6.1-8.44,12.14-16.92,18-25.51,1.21-1.77,3.72-4.34,1.76-6.07s-4.2,1-5.81,2.44c-5.15,4.65-10.12,9.52-15.91,15,0-10.47.39-20.14-.11-29.75-.49-9.45-1-19-4.94-28.32-2.46,2.17-2.62,4.69-3,7.05-2.5,15.73-2.92,31.63-3.45,47.51-1.56,46-2.42,92-3.31,138.06-.15,7.94-.52,15.88-.62,23.82,0,2.44-.48,3.08-3,2.21-11.89-4.09-22-11.08-31.26-19.31-21-18.62-35.6-41.1-41-69-3.94-20.39-1.41-40.39,4.44-60,8.87-29.8,23.74-56.15,46-78.06a102.62,102.62,0,0,1,12.76-10.34c11-7.82,22.53-8.92,34.92-3.44,23.75,10.51,42.74,27,58.84,47,13.15,16.33,22.93,34.42,26.83,55.23,4.67,24.91-.49,48.29-12.41,70.2-15.85,29.13-38.21,51.57-69.23,64.57-2.52,1.05-5.19,1.73-7.78,2.61-2.33.79-3.47.39-3.46-2.49q.09-22.21-.14-44.42c0-2.18,1-3.55,2.23-5,11.51-14.12,23.61-27.76,34.38-42.49a58.13,58.13,0,0,0,7.72-14.89c.39-1.1,1.67-2.67.08-3.69-1.21-.78-2.35.44-3.24,1.19-3.26,2.72-6.54,5.42-9.59,8.37C1217.88,425.5,1208.12,437,1197.07,448Z"/><circle class="cls-4" cx="1231.28" cy="333.92" r="6.84"/><path class="cls-3" d="M1191,719.69l5.79.18a32.2,32.2,0,0,1,1.55-5q0-15.08-.17-30.16a8.47,8.47,0,0,1-1.35-4c-.15-2.78,1-5.45,1.46-8.2-.21.94-.28-2.75-.38-3.42-.53-3.6-.85-7.39,1-10.9l-.9-.13q0-8.8,0-17.6c0-14.84,0-29.69-.08-44.53-1.17-2.34-.93-4.71-.21-7.29l0-.15c-.27-.72.45-2,.55-2.71.12-.88.14-1.75.17-2.62-.48-.89-.54-1.34-.44-1.46a7,7,0,0,1,.14-4.46c-.82-17.52,2.27-34.64-8-51.45-4.7,1.75-4.66,4.2-5.29,6.34-4,13.87-4.74,27.88-5.59,41.88-2.51,41.4-4,82.81-5.39,124.22-.25,7.12-1,14.25-1,21.37,0,.16,0,.32,0,.46C1178.88,719.76,1184.88,719.52,1191,719.69Z"/><path class="cls-3" d="M398.53,640.51q0-7.75,0-15.5c0-11.71,0-23.42,0-35.13a7,7,0,0,1,1.44-4.4c4.45-6.16,8.86-12.35,13.15-18.62.88-1.29,2.71-3.16,1.28-4.43s-3.07.72-4.24,1.78c-3.76,3.4-7.39,6.95-11.61,11,0-7.65.28-14.7-.08-21.72s-.74-13.88-3.6-20.67c-1.79,1.58-1.91,3.42-2.19,5.15-1.83,11.49-2.13,23.08-2.52,34.68-1.14,33.58-1.77,67.18-2.42,100.77-.11,5.8-.38,11.59-.45,17.39,0,1.78-.35,2.25-2.21,1.61-8.68-3-16.05-8.09-22.82-14.1-15.3-13.59-26-30-29.92-50.36-2.88-14.88-1-29.48,3.24-43.82,6.48-21.75,17.32-41,33.6-57a74.91,74.91,0,0,1,9.31-7.54c8.05-5.71,16.45-6.51,25.49-2.51,17.34,7.67,31.19,19.68,42.95,34.27,9.6,11.92,16.74,25.12,19.58,40.32,3.41,18.18-.35,35.25-9.06,51.24-11.57,21.27-27.89,37.64-50.53,47.13-1.84.77-3.79,1.26-5.68,1.9-1.7.58-2.53.29-2.53-1.82q.07-16.21-.1-32.42a5.44,5.44,0,0,1,1.63-3.68c8.4-10.31,17.23-20.27,25.1-31A42.43,42.43,0,0,0,431,612.15c.29-.8,1.22-2,.06-2.7-.89-.57-1.72.32-2.37.87-2.38,2-4.77,4-7,6.11C413.73,624.07,406.6,632.45,398.53,640.51Z"/><circle class="cls-4" cx="423.5" cy="557.22" r="4.99"/><path class="cls-5" d="M195.3,614.49q0-5.57,0-11.14c0-8.42,0-16.83,0-25.25a5,5,0,0,1,1-3.17c3.2-4.43,6.37-8.88,9.45-13.38.64-.93,2-2.28.92-3.19s-2.2.52-3,1.28c-2.7,2.44-5.31,5-8.35,7.88,0-5.5.2-10.57-.06-15.61s-.54-10-2.59-14.86c-1.29,1.14-1.37,2.46-1.57,3.7-1.31,8.26-1.53,16.59-1.81,24.93-.82,24.14-1.27,48.29-1.74,72.44-.08,4.17-.27,8.33-.33,12.5,0,1.28-.25,1.62-1.59,1.16a48.63,48.63,0,0,1-16.4-10.13c-11-9.77-18.68-21.57-21.51-36.2-2.07-10.7-.74-21.19,2.33-31.5,4.66-15.63,12.45-29.46,24.16-41a53.85,53.85,0,0,1,6.69-5.42c5.79-4.1,11.82-4.68,18.32-1.8,12.46,5.52,22.42,14.14,30.87,24.64,6.9,8.57,12,18.06,14.08,29,2.45,13.07-.25,25.34-6.51,36.83-8.32,15.29-20.05,27.06-36.32,33.88-1.32.55-2.72.91-4.08,1.37s-1.82.21-1.82-1.31q0-11.65-.08-23.31a3.91,3.91,0,0,1,1.17-2.65c6-7.41,12.39-14.57,18-22.29a30.5,30.5,0,0,0,4.05-7.81c.21-.58.88-1.4,0-1.94-.64-.41-1.23.23-1.7.62-1.71,1.43-3.43,2.85-5,4.39C206.22,602.67,201.09,608.7,195.3,614.49Z"/><circle class="cls-6" cx="213.24" cy="554.62" r="3.59"/><path class="cls-5" d="M192.1,713.29l3,.05a7,7,0,0,1,.81-1.51q0-4.51-.09-9a2,2,0,0,1-.71-1.2c-.08-.83.55-1.63.76-2.45-.11.28-.15-.82-.2-1a3.19,3.19,0,0,1,.51-3.26l-.47,0q0-2.63,0-5.26c0-4.44,0-8.88,0-13.32a1.79,1.79,0,0,1-.11-2.18l0,0c-.14-.22.24-.6.29-.81a4.58,4.58,0,0,0,.09-.78c-.25-.27-.28-.4-.23-.44a1.26,1.26,0,0,1,.07-1.33c-.43-5.24,1.19-10.36-4.19-15.39-2.47.52-2.45,1.26-2.77,1.9-2.12,4.15-2.49,8.34-2.93,12.53-1.32,12.38-2.08,24.77-2.83,37.16-.13,2.13-.53,4.26-.5,6.39a1,1,0,0,1,0,.14C185.75,713.31,188.9,713.24,192.1,713.29Z"/><path class="cls-3" d="M883.49,500.93q0-11,0-22.06c0-16.67,0-33.33,0-50a10,10,0,0,1,2-6.27c6.33-8.77,12.61-17.58,18.72-26.5,1.26-1.84,3.86-4.5,1.83-6.31s-4.36,1-6,2.54c-5.35,4.84-10.51,9.89-16.53,15.6,0-10.88.4-20.92-.11-30.91-.51-9.82-1.06-19.76-5.13-29.42-2.55,2.25-2.72,4.87-3.11,7.33-2.6,16.35-3,32.86-3.59,49.36-1.62,47.8-2.52,95.62-3.44,143.44-.16,8.25-.54,16.5-.64,24.75,0,2.53-.5,3.2-3.15,2.29-12.36-4.25-22.85-11.52-32.48-20.06C810,535.37,794.83,512,789.23,483c-4.09-21.18-1.46-42,4.62-62.37,9.22-31,24.66-58.33,47.83-81.1a106.62,106.62,0,0,1,13.25-10.74c11.46-8.13,23.41-9.27,36.28-3.57,24.67,10.92,44.4,28,61.13,48.79,13.66,17,23.82,35.76,27.88,57.38,4.85,25.88-.5,50.18-12.89,72.93-16.47,30.27-39.7,53.58-71.92,67.08-2.61,1.1-5.39,1.8-8.08,2.71-2.43.82-3.61.41-3.6-2.59q.1-23.07-.15-46.15c0-2.26,1-3.69,2.31-5.24,12-14.67,24.53-28.85,35.72-44.14a60.39,60.39,0,0,0,8-15.47c.41-1.14,1.74-2.78.09-3.84-1.26-.81-2.44.46-3.37,1.23-3.38,2.82-6.8,5.64-10,8.69C905.12,477.53,895,489.46,883.49,500.93Z"/><circle class="cls-7" cx="940.9" cy="449.09" r="7.11"/><circle class="cls-8" cx="915.96" cy="381.46" r="6.04"/><path class="cls-3" d="M877.15,696.56l6,.11a13.93,13.93,0,0,1,1.61-3q0-8.93-.18-17.87a3.86,3.86,0,0,1-1.41-2.38c-.15-1.65,1.08-3.23,1.51-4.86-.21.56-.29-1.63-.4-2-.55-2.13-.88-4.38,1-6.46l-.94-.07q0-5.21,0-10.42c0-8.79,0-17.59-.09-26.38-1.21-1.39-1-2.79-.22-4.32l0-.09c-.28-.43.47-1.18.58-1.61a9.06,9.06,0,0,0,.18-1.55c-.5-.53-.56-.79-.46-.87a2.49,2.49,0,0,1,.14-2.64c-.85-10.38,2.36-20.52-8.3-30.47-4.88,1-4.85,2.49-5.49,3.75-4.2,8.21-4.92,16.52-5.8,24.81-2.61,24.52-4.11,49-5.6,73.58-.26,4.22-1,8.44-1,12.66a2,2,0,0,1,0,.27C864.59,696.6,870.82,696.46,877.15,696.56Z"/><path class="cls-5" d="M611.06,540.65q0-8.33,0-16.65c0-12.58,0-25.17,0-37.75a7.54,7.54,0,0,1,1.54-4.73c4.78-6.62,9.52-13.27,14.13-20,1-1.39,2.92-3.4,1.38-4.76s-3.29.77-4.56,1.92c-4,3.65-7.94,7.47-12.48,11.78,0-8.22.3-15.79-.09-23.34s-.8-14.92-3.87-22.21c-1.93,1.7-2.05,3.68-2.35,5.53-2,12.34-2.29,24.81-2.71,37.26-1.22,36.09-1.9,72.19-2.6,108.3-.12,6.23-.41,12.46-.49,18.69,0,1.91-.38,2.42-2.38,1.73-9.33-3.21-17.25-8.69-24.52-15.15-16.45-14.6-27.92-32.24-32.15-54.12-3.09-16-1.1-31.68,3.48-47.09,7-23.37,18.62-44,36.11-61.23a80.5,80.5,0,0,1,10-8.11c8.65-6.14,17.67-7,27.39-2.7,18.63,8.25,33.52,21.14,46.16,36.83,10.31,12.81,18,27,21,43.33,3.66,19.54-.38,37.88-9.73,55.07-12.44,22.85-30,40.45-54.3,50.65-2,.83-4.07,1.36-6.1,2-1.83.62-2.72.31-2.71-2q.07-17.42-.11-34.84a5.85,5.85,0,0,1,1.75-4c9-11.08,18.52-21.78,27-33.33a45.6,45.6,0,0,0,6.06-11.68c.31-.86,1.31-2.1.06-2.9-1-.61-1.84.35-2.54.93-2.55,2.13-5.13,4.25-7.52,6.56C627.38,523,619.72,532,611.06,540.65Z"/><circle class="cls-9" cx="654.4" cy="501.51" r="5.37"/><circle class="cls-4" cx="637.89" cy="451.15" r="5.37"/><path class="cls-5" d="M606.27,701.84l4.54.09a12.87,12.87,0,0,1,1.21-2.61q0-7.79-.14-15.59a3.51,3.51,0,0,1-1.06-2.07c-.11-1.44.82-2.82,1.14-4.24-.16.48-.22-1.42-.3-1.76-.42-1.86-.66-3.82.76-5.63l-.71-.06q0-4.55,0-9.09c0-7.67,0-15.34-.07-23a3.48,3.48,0,0,1-.17-3.77l0-.08c-.21-.37.36-1,.43-1.4a9.08,9.08,0,0,0,.14-1.35c-.38-.46-.42-.69-.35-.75a2.46,2.46,0,0,1,.11-2.31c-.64-9.05,1.78-17.9-6.27-26.58-3.69.91-3.66,2.17-4.15,3.27-3.17,7.17-3.72,14.41-4.38,21.64-2,21.39-3.11,42.79-4.23,64.19-.19,3.68-.79,7.36-.75,11a2,2,0,0,1,0,.24C596.78,701.88,601.49,701.75,606.27,701.84Z"/><path class="cls-3" d="M111.45,500.46q0-9.46,0-18.91c0-14.29,0-28.58,0-42.88a8.56,8.56,0,0,1,1.75-5.37c5.43-7.52,10.81-15.07,16.05-22.73,1.08-1.58,3.31-3.86,1.57-5.41s-3.74.88-5.18,2.18c-4.59,4.15-9,8.48-14.18,13.38,0-9.33.35-17.94-.1-26.51s-.91-16.94-4.4-25.23c-2.19,1.93-2.33,4.18-2.67,6.28-2.23,14-2.6,28.18-3.08,42.32-1.39,41-2.16,82-3,123-.14,7.08-.46,14.15-.55,21.22,0,2.17-.43,2.75-2.7,2-10.6-3.64-19.59-9.87-27.85-17.21C48.45,530,35.42,510,30.62,485.11c-3.51-18.17-1.25-36,4-53.48,7.91-26.55,21.15-50,41-69.54A91.43,91.43,0,0,1,87,352.88c9.83-7,20.07-7.95,31.11-3.06,21.16,9.37,38.07,24,52.42,41.83,11.71,14.55,20.43,30.66,23.9,49.21,4.16,22.19-.43,43-11.05,62.54-14.12,26-34,45.94-61.67,57.52-2.24.94-4.62,1.54-6.93,2.32-2.08.7-3.09.35-3.08-2.22q.08-19.79-.13-39.57c0-1.94.9-3.16,2-4.5,10.25-12.58,21-24.74,30.63-37.85A51.79,51.79,0,0,0,151,465.85c.35-1,1.49-2.38.07-3.29-1.08-.69-2.1.39-2.89,1.06-2.9,2.42-5.83,4.83-8.55,7.45C130,480.39,121.29,490.62,111.45,500.46Z"/><circle class="cls-7" cx="160.67" cy="456" r="6.09"/><circle class="cls-4" cx="141.92" cy="398.81" r="6.09"/><path class="cls-3" d="M106,701.79l5.16.12a18.34,18.34,0,0,1,1.38-3.44q0-10.27-.15-20.54a4.93,4.93,0,0,1-1.2-2.73c-.13-1.89.93-3.71,1.3-5.59-.18.64-.25-1.87-.34-2.33-.48-2.45-.75-5,.86-7.42l-.8-.09q0-6,0-12c0-10.11,0-20.22-.07-30.33-1-1.59-.83-3.21-.19-5l0-.1c-.24-.49.4-1.36.49-1.85a13.84,13.84,0,0,0,.15-1.78c-.43-.61-.48-.91-.4-1a3.7,3.7,0,0,1,.12-3c-.73-11.93,2-23.59-7.12-35-4.19,1.2-4.16,2.86-4.71,4.32-3.61,9.44-4.22,19-5,28.52-2.24,28.19-3.53,56.4-4.8,84.6-.22,4.85-.89,9.7-.85,14.55a3,3,0,0,1,0,.31C95.24,701.84,100.58,701.67,106,701.79Z"/><path class="cls-10" d="M738.55,629.11q0-10.31,0-20.62c0-15.58,0-31.17,0-46.75a9.34,9.34,0,0,1,1.91-5.86c5.92-8.2,11.79-16.44,17.5-24.78,1.18-1.72,3.61-4.21,1.71-5.9s-4.08,1-5.65,2.37c-5,4.52-9.83,9.25-15.46,14.59,0-10.18.38-19.56-.11-28.9-.48-9.18-1-18.47-4.79-27.51-2.39,2.1-2.54,4.55-2.91,6.85-2.43,15.29-2.83,30.72-3.36,46.15-1.51,44.7-2.35,89.41-3.22,134.12-.15,7.71-.5,15.43-.6,23.14,0,2.37-.47,3-2.94,2.15-11.55-4-21.36-10.77-30.37-18.76-20.37-18.09-34.58-39.93-39.82-67-3.83-19.81-1.37-39.23,4.32-58.31,8.62-28.95,23.06-54.54,44.72-75.83a99.69,99.69,0,0,1,12.39-10c10.72-7.6,21.89-8.67,33.93-3.34,23.07,10.21,41.52,26.18,57.16,45.62C815.7,526.33,825.2,543.9,829,564.12c4.53,24.2-.47,46.91-12.05,68.19-15.4,28.3-37.12,50.09-67.25,62.72-2.44,1-5,1.68-7.56,2.53-2.27.77-3.37.38-3.36-2.42q.09-21.57-.14-43.15c0-2.11,1-3.45,2.16-4.9,11.18-13.72,22.94-27,33.4-41.27a56.47,56.47,0,0,0,7.5-14.46c.38-1.07,1.62-2.6.08-3.59-1.18-.76-2.28.43-3.15,1.15-3.16,2.64-6.35,5.27-9.32,8.13C758.77,607.23,749.28,618.39,738.55,629.11Z"/><circle class="cls-4" cx="792.22" cy="580.64" r="6.65"/><circle class="cls-11" cx="771.78" cy="518.27" r="6.65"/><path class="cls-3" d="M505.24,493q0-9.46,0-18.91c0-14.29,0-28.58,0-42.88a8.56,8.56,0,0,1,1.75-5.37c5.43-7.52,10.81-15.07,16.05-22.73,1.08-1.58,3.31-3.86,1.57-5.41s-3.74.88-5.18,2.18c-4.59,4.15-9,8.48-14.18,13.38,0-9.33.35-17.94-.1-26.51s-.91-16.94-4.4-25.23c-2.19,1.93-2.33,4.18-2.67,6.28-2.23,14-2.6,28.18-3.08,42.32-1.39,41-2.16,82-3,123-.14,7.08-.46,14.15-.55,21.22,0,2.17-.43,2.75-2.7,2-10.6-3.64-19.59-9.87-27.85-17.21-18.68-16.59-31.72-36.62-36.52-61.46-3.51-18.17-1.25-36,4-53.48,7.91-26.55,21.15-50,41-69.54a91.43,91.43,0,0,1,11.36-9.21c9.83-7,20.07-7.95,31.11-3.06,21.16,9.37,38.07,24,52.42,41.83,11.71,14.55,20.43,30.66,23.9,49.21,4.16,22.19-.43,43-11.05,62.54-14.12,26-34,45.94-61.67,57.52-2.24.94-4.62,1.54-6.93,2.32-2.08.7-3.09.35-3.08-2.22q.08-19.79-.13-39.57c0-1.94.9-3.16,2-4.5,10.25-12.58,21-24.74,30.63-37.85a51.79,51.79,0,0,0,6.88-13.26c.35-1,1.49-2.38.07-3.29-1.08-.69-2.1.39-2.89,1.06-2.9,2.42-5.83,4.83-8.55,7.45C523.78,472.89,515.08,483.12,505.24,493Z"/><circle class="cls-7" cx="554.46" cy="448.5" r="6.09"/><circle class="cls-8" cx="535.71" cy="391.31" r="6.09"/><path class="cls-3" d="M499.81,699.78l5.16.13a19.57,19.57,0,0,1,1.38-3.58q0-10.7-.15-21.4a5.24,5.24,0,0,1-1.2-2.84c-.13-2,.93-3.87,1.3-5.82-.18.67-.25-1.95-.34-2.42-.48-2.55-.75-5.24.86-7.73L506,656q0-6.24,0-12.48c0-10.53,0-21.06-.07-31.59-1-1.66-.83-3.34-.19-5.17l0-.11c-.24-.51.4-1.42.49-1.92a15,15,0,0,0,.15-1.86c-.43-.63-.48-.95-.4-1a4,4,0,0,1,.12-3.16c-.73-12.43,2-24.57-7.12-36.49-4.19,1.24-4.16,3-4.71,4.49-3.61,9.84-4.22,19.78-5,29.71-2.24,29.37-3.53,58.74-4.8,88.12-.22,5.05-.89,10.11-.85,15.16a3.25,3.25,0,0,1,0,.33C489,699.83,494.38,699.66,499.81,699.78Z"/><path class="cls-10" d="M1257.62,573.48q0-8.35,0-16.71c0-12.63,0-25.25,0-37.88a7.56,7.56,0,0,1,1.55-4.75c4.8-6.64,9.55-13.32,14.18-20.08,1-1.39,2.93-3.41,1.38-4.78s-3.3.78-4.57,1.92c-4.06,3.66-8,7.49-12.52,11.82,0-8.24.31-15.85-.09-23.41s-.8-15-3.88-22.28c-1.93,1.7-2.06,3.69-2.36,5.55-2,12.38-2.29,24.89-2.72,37.39-1.23,36.21-1.91,72.43-2.61,108.66-.12,6.25-.41,12.5-.49,18.75,0,1.92-.38,2.43-2.38,1.74-9.36-3.22-17.31-8.72-24.6-15.2-16.5-14.65-28-32.35-32.26-54.3-3.1-16-1.11-31.79,3.5-47.24,7-23.45,18.68-44.19,36.23-61.43a80.77,80.77,0,0,1,10-8.13c8.68-6.16,17.73-7,27.49-2.71,18.69,8.27,33.63,21.21,46.31,37,10.35,12.85,18,27.09,21.12,43.47,3.67,19.6-.38,38-9.76,55.25-12.48,22.93-30.08,40.58-54.48,50.81-2,.83-4.08,1.36-6.12,2.05-1.84.62-2.73.31-2.72-2q.07-17.48-.11-35a5.87,5.87,0,0,1,1.75-4c9.06-11.11,18.58-21.85,27.06-33.44a45.75,45.75,0,0,0,6.08-11.72c.31-.87,1.32-2.1.06-2.91-1-.61-1.85.35-2.55.93-2.56,2.14-5.15,4.27-7.55,6.58C1274,555.76,1266.31,564.8,1257.62,573.48Z"/><circle class="cls-10" cx="1301.1" cy="534.21" r="5.38"/><circle class="cls-4" cx="1284.54" cy="483.69" r="5.38"/><path class="cls-10" d="M1252.82,721.67l4.56.08a10.55,10.55,0,0,1,1.22-2.27q0-6.77-.14-13.53a2.92,2.92,0,0,1-1.06-1.8c-.11-1.25.82-2.45,1.15-3.68-.16.42-.22-1.23-.3-1.53-.42-1.61-.67-3.32.76-4.89l-.71-.06q0-3.95,0-7.9c0-6.66,0-13.32-.07-20-.92-1.05-.73-2.12-.17-3.27l0-.07c-.21-.32.36-.9.44-1.22a6.86,6.86,0,0,0,.14-1.18c-.38-.4-.42-.6-.35-.66a1.89,1.89,0,0,1,.11-2c-.64-7.86,1.79-15.54-6.29-23.08-3.7.79-3.67,1.88-4.16,2.84-3.18,6.22-3.73,12.51-4.4,18.79-2,18.57-3.12,37.16-4.24,55.74-.19,3.2-.79,6.39-.75,9.59a1.48,1.48,0,0,1,0,.21C1243.3,721.7,1248,721.59,1252.82,721.67Z"/><path class="cls-5" d="M1036.64,561.17q0-11.64,0-23.27c0-17.58,0-35.17,0-52.75a10.54,10.54,0,0,1,2.16-6.61c6.68-9.25,13.3-18.55,19.75-28,1.33-1.94,4.07-4.75,1.93-6.66s-4.6,1.08-6.37,2.68c-5.65,5.1-11.09,10.43-17.44,16.46,0-11.48.43-22.07-.12-32.61-.54-10.36-1.12-20.84-5.41-31-2.69,2.37-2.87,5.14-3.28,7.73-2.74,17.25-3.2,34.67-3.79,52.07-1.71,50.43-2.66,100.88-3.63,151.33-.17,8.71-.57,17.41-.68,26.11,0,2.67-.53,3.38-3.32,2.42-13-4.48-24.11-12.15-34.26-21.17-23-20.41-39-45.05-44.93-75.62-4.32-22.35-1.54-44.27,4.87-65.8,9.73-32.66,26-61.54,50.46-85.56a112.49,112.49,0,0,1,14-11.33c12.09-8.57,24.7-9.78,38.28-3.77,26,11.52,46.84,29.55,64.5,51.47,14.41,17.9,25.13,37.72,29.41,60.54,5.12,27.3-.53,52.93-13.6,76.95-17.38,31.93-41.89,56.52-75.88,70.77-2.76,1.16-5.69,1.9-8.53,2.86-2.56.86-3.81.43-3.79-2.73q.1-24.34-.16-48.69c0-2.38,1.11-3.89,2.44-5.53,12.61-15.48,25.88-30.43,37.69-46.57a63.71,63.71,0,0,0,8.46-16.32c.43-1.21,1.83-2.93.09-4-1.33-.85-2.58.49-3.55,1.3-3.57,3-7.17,5.95-10.51,9.17C1059.45,536.48,1048.74,549.07,1036.64,561.17Z"/><circle class="cls-12" cx="1074.13" cy="436.11" r="7.5"/><path class="cls-5" d="M1029.95,767.56l6.35.11a14.69,14.69,0,0,1,1.7-3.15q0-9.43-.19-18.85a4.07,4.07,0,0,1-1.48-2.51c-.16-1.74,1.14-3.41,1.6-5.13-.23.59-.31-1.72-.42-2.13-.58-2.25-.93-4.62,1.06-6.81l-1-.08q0-5.5,0-11c0-9.28.05-18.55-.09-27.83-1.28-1.46-1-2.95-.23-4.56l0-.09c-.29-.45.5-1.25.61-1.69a9.56,9.56,0,0,0,.19-1.64c-.53-.56-.59-.84-.49-.91a2.63,2.63,0,0,1,.15-2.79c-.9-10.95,2.49-21.65-8.76-32.15-5.15,1.1-5.11,2.62-5.8,4-4.44,8.67-5.19,17.42-6.12,26.17-2.75,25.87-4.34,51.75-5.91,77.63-.27,4.45-1.1,8.9-1,13.35a2.06,2.06,0,0,1,0,.29C1016.69,767.6,1023.27,767.45,1029.95,767.56Z"/><path class="cls-10" d="M310,517.1q0-11.64,0-23.27c0-17.58,0-35.17,0-52.75a10.54,10.54,0,0,1,2.16-6.61c6.68-9.25,13.3-18.55,19.75-28,1.33-1.94,4.07-4.75,1.93-6.66s-4.6,1.08-6.37,2.68C321.76,407.63,316.32,413,310,419c0-11.48.43-22.07-.12-32.61-.54-10.36-1.12-20.84-5.41-31-2.69,2.37-2.87,5.14-3.28,7.73-2.74,17.25-3.2,34.67-3.79,52.07-1.71,50.43-2.66,100.88-3.63,151.33-.17,8.71-.57,17.41-.68,26.11,0,2.67-.53,3.38-3.32,2.42-13-4.48-24.11-12.15-34.26-21.17-23-20.41-39-45.05-44.93-75.62-4.32-22.35-1.54-44.27,4.87-65.8,9.73-32.66,26-61.54,50.46-85.56a112.49,112.49,0,0,1,14-11.33c12.09-8.57,24.7-9.78,38.28-3.77,26,11.52,46.84,29.55,64.5,51.47C397,401.13,407.77,421,412,443.77c5.12,27.3-.53,52.93-13.6,76.95-17.38,31.93-41.89,56.52-75.88,70.77-2.76,1.16-5.69,1.9-8.53,2.86-2.56.86-3.81.43-3.79-2.73q.1-24.34-.16-48.69c0-2.38,1.11-3.89,2.44-5.53,12.61-15.48,25.88-30.43,37.69-46.57a63.71,63.71,0,0,0,8.46-16.32c.43-1.21,1.83-2.93.09-4-1.33-.85-2.58.49-3.55,1.3-3.57,3-7.17,5.95-10.51,9.17C332.81,492.42,322.1,505,310,517.1Z"/><circle class="cls-11" cx="347.49" cy="392.04" r="7.5"/><path class="cls-10" d="M303.31,723.49l6.35.11a14.69,14.69,0,0,1,1.7-3.15q0-9.43-.19-18.85a4.07,4.07,0,0,1-1.48-2.51c-.16-1.74,1.14-3.41,1.6-5.13-.23.59-.31-1.72-.42-2.13-.58-2.25-.93-4.62,1.06-6.81l-1-.08q0-5.5,0-11c0-9.28.05-18.55-.09-27.83-1.28-1.46-1-2.95-.23-4.56l0-.09c-.29-.45.5-1.25.61-1.69a9.56,9.56,0,0,0,.19-1.64c-.53-.56-.59-.84-.49-.91a2.63,2.63,0,0,1,.15-2.79c-.9-10.95,2.49-21.65-8.76-32.15-5.15,1.1-5.11,2.62-5.8,4-4.44,8.67-5.19,17.42-6.12,26.17-2.75,25.87-4.34,51.75-5.91,77.63-.27,4.45-1.1,8.9-1,13.35a2.06,2.06,0,0,1,0,.29C290.05,723.53,296.63,723.38,303.31,723.49Z"/><circle class="cls-4" cx="367.92" cy="461.81" r="6.09"/><circle class="cls-8" cx="439.92" cy="599.81" r="6.09"/><circle class="cls-9" cx="1092.92" cy="505.81" r="6.09"/></g><path class="cls-5" d="M404.92,111.37h8.33v-26a4.58,4.58,0,0,0-.23-1.6,2.24,2.24,0,0,0-.64-.94,2.17,2.17,0,0,0-1-.46,6.44,6.44,0,0,0-1.26-.11,12.27,12.27,0,0,0-2.49.32,20.75,20.75,0,0,0-3.14,1,26.17,26.17,0,0,0-3.32,1.58,16.08,16.08,0,0,0-3,2.13,10.67,10.67,0,0,0-2.13,2.65,6.34,6.34,0,0,0-.82,3.16,5.8,5.8,0,0,0,.39,2.33,3.67,3.67,0,0,0,.89,1.3,2.34,2.34,0,0,0,1,.55,4.08,4.08,0,0,0,.76.11,4,4,0,0,0,1.88-.39,10.87,10.87,0,0,0,1.33-.82l1.12-.82a2,2,0,0,1,1.21-.39,3.1,3.1,0,0,1,1.17.25,3.33,3.33,0,0,1,1.14.8,4.57,4.57,0,0,1,.89,1.44,5.73,5.73,0,0,1,.37,2.17,6.61,6.61,0,0,1-.71,3.16,7,7,0,0,1-1.83,2.22,7.59,7.59,0,0,1-2.56,1.33,9.85,9.85,0,0,1-2.86.44,10,10,0,0,1-4-.76,8.74,8.74,0,0,1-3-2.08,8.94,8.94,0,0,1-1.88-3.11,11.14,11.14,0,0,1-.64-3.8,14.37,14.37,0,0,1,1.14-5.79,16.31,16.31,0,0,1,3.14-4.74,21.21,21.21,0,0,1,4.67-3.68,30.77,30.77,0,0,1,5.79-2.63,38.89,38.89,0,0,1,6.5-1.58A44.07,44.07,0,0,1,418,78a18.86,18.86,0,0,1,5.83.71,7.76,7.76,0,0,1,3.07,1.72,4,4,0,0,1,1.17,2.1,11.57,11.57,0,0,1,.18,1.83v27H445.1v-22a37.13,37.13,0,0,1,2-12.86,25.8,25.8,0,0,1,5.08-8.67,19.09,19.09,0,0,1,7-4.9,20.51,20.51,0,0,1,7.64-1.53,30.54,30.54,0,0,1,5,.39,17.13,17.13,0,0,1,4.12,1.17,8.17,8.17,0,0,1,2.81,1.95,3.94,3.94,0,0,1,1.05,2.72,4.11,4.11,0,0,1-.78,2.43,3,3,0,0,1-.85.8,1.84,1.84,0,0,1-1,.3,2.3,2.3,0,0,1-1.46-.5,6.81,6.81,0,0,1-1.21-1.26q-.57-.76-1.12-1.65a11,11,0,0,0-1.24-1.65,6.49,6.49,0,0,0-1.56-1.26,4,4,0,0,0-2.06-.5A6.26,6.26,0,0,0,464,65.85a9.74,9.74,0,0,0-2.52,4.48,33.13,33.13,0,0,0-1.12,7.35q-.25,4.39-.25,10.07v23.62h9.2v4h-9.2v27.83a3.58,3.58,0,0,0,.57,2.13,2,2,0,0,0,1.76.8,6.12,6.12,0,0,0,2.38-.46q1.1-.46,1.92-.87l.78,1.69q-1,.69-2.36,1.44a27.21,27.21,0,0,1-3,1.42,23.34,23.34,0,0,1-3.48,1.1,16.9,16.9,0,0,1-3.87.44,12.93,12.93,0,0,1-5-.82,7.33,7.33,0,0,1-3-2.17,7.2,7.2,0,0,1-1.4-3,17.21,17.21,0,0,1-.34-3.43v-26H428.26v22.79A24.38,24.38,0,0,1,426,149a21.93,21.93,0,0,1-6.2,7.71,26.87,26.87,0,0,1-9.27,4.62,41.16,41.16,0,0,1-11.42,1.53,25.21,25.21,0,0,1-4.48-.39,18.41,18.41,0,0,1-3.8-1.08,8.54,8.54,0,0,1-2.63-1.62,2.79,2.79,0,0,1-1-2,6.39,6.39,0,0,1,.23-1.67,5.2,5.2,0,0,1,.69-1.53,4.22,4.22,0,0,1,1.12-1.14,2.56,2.56,0,0,1,1.49-.46,1.12,1.12,0,0,1,.89.5,9.6,9.6,0,0,1,.8,1.26q.41.76.94,1.62a7.12,7.12,0,0,0,1.37,1.63,7.3,7.3,0,0,0,2,1.26,7.66,7.66,0,0,0,3,.5,13.33,13.33,0,0,0,6.06-1.28,11.27,11.27,0,0,0,4.19-3.62,16.4,16.4,0,0,0,2.45-5.56,29.34,29.34,0,0,0,.8-7.07V115.39h-8.33Z"/><path class="cls-5" d="M490.32,102.67a10.83,10.83,0,0,0-2.88.37,9.94,9.94,0,0,0-2.29.92,5.44,5.44,0,0,0-1.51,1.21,2,2,0,0,0-.55,1.26,1,1,0,0,0,.71,1l1.58.69a5.28,5.28,0,0,1,1.58,1.1,3,3,0,0,1,.71,2.17,4,4,0,0,1-.39,1.76,4.77,4.77,0,0,1-2.61,2.38,5.13,5.13,0,0,1-1.85.34,5.33,5.33,0,0,1-4.14-1.74,6.61,6.61,0,0,1-1.58-4.62,7.84,7.84,0,0,1,1.46-4.78,11.44,11.44,0,0,1,3.82-3.27,19.34,19.34,0,0,1,5.33-1.9,29.65,29.65,0,0,1,12.77.16,17.32,17.32,0,0,1,5.74,2.47,12.8,12.8,0,0,1,4,4.3,12.56,12.56,0,0,1,1.49,6.32v25.86q0,.41,0,.92a2.86,2.86,0,0,0,.23.92,1.71,1.71,0,0,0,.55.69,1.73,1.73,0,0,0,1.05.27,2.29,2.29,0,0,0,1.53-.62,12.24,12.24,0,0,0,1.26-1.26l1.14,1q-.69,1-1.65,2.1a13.19,13.19,0,0,1-5.54,3.84,11.81,11.81,0,0,1-4.16.69,8.21,8.21,0,0,1-5.13-1.72,8.32,8.32,0,0,1-2.93-5.29,19.46,19.46,0,0,1-3,3.3,16.49,16.49,0,0,1-3.23,2.15,14.25,14.25,0,0,1-3.32,1.19,15.7,15.7,0,0,1-3.36.37,13.38,13.38,0,0,1-4.26-.69,10.16,10.16,0,0,1-3.68-2.17,10.66,10.66,0,0,1-2.61-3.87,15.22,15.22,0,0,1-1-5.81,12.76,12.76,0,0,1,1.65-6.82,14.71,14.71,0,0,1,4.33-4.46,29.19,29.19,0,0,1,6.09-3.09q3.41-1.28,7-2.7a7.45,7.45,0,0,0,3.87-3.14,8.4,8.4,0,0,0,1.21-4.28,7.43,7.43,0,0,0-2-5.42A7.24,7.24,0,0,0,490.32,102.67Zm7.28,20a2.11,2.11,0,0,0-.73-1.74,2.88,2.88,0,0,0-1.88-.59,6.64,6.64,0,0,0-3,.73,7.53,7.53,0,0,0-2.54,2.15,10.9,10.9,0,0,0-1.74,3.5,16.44,16.44,0,0,0-.64,4.83,20.6,20.6,0,0,0,.39,4.39,8.59,8.59,0,0,0,1.05,2.77A3.81,3.81,0,0,0,490,140.2a4.23,4.23,0,0,0,1.83.41,4.36,4.36,0,0,0,2.24-.62,6.72,6.72,0,0,0,1.83-1.58,7.91,7.91,0,0,0,1.24-2.15,6.59,6.59,0,0,0,.46-2.38Z"/><path class="cls-5" d="M552.74,114.75a5.76,5.76,0,0,1-2.38-.43,4.17,4.17,0,0,1-1.56-1.17,4.78,4.78,0,0,1-.87-1.62,6.26,6.26,0,0,1-.27-1.85,17.06,17.06,0,0,1,.16-2.38,7.9,7.9,0,0,0,0-2.06,2.31,2.31,0,0,0-.71-1.46,3.11,3.11,0,0,0-2.11-.55,7.45,7.45,0,0,0-3.39.92,9.54,9.54,0,0,0-3.25,2.88,16.79,16.79,0,0,0-2.43,5.06,25.23,25.23,0,0,0-1,7.44,39.89,39.89,0,0,0,.89,8.76A21,21,0,0,0,538.6,135a12.91,12.91,0,0,0,4.44,4.33,13.21,13.21,0,0,0,9.27,1.17,13.47,13.47,0,0,0,2.72-1,17.46,17.46,0,0,0,2.45-1.49q1.17-.85,2.27-1.81l1.14,1.1a31.34,31.34,0,0,1-2.7,3.11,22,22,0,0,1-4,3.18,23,23,0,0,1-5.45,2.47,23.53,23.53,0,0,1-7.09,1,20.44,20.44,0,0,1-7.76-1.53,20.09,20.09,0,0,1-6.71-4.46,22,22,0,0,1-4.69-7.12,24.41,24.41,0,0,1-1.76-9.54,26.53,26.53,0,0,1,1.05-7.67,25.25,25.25,0,0,1,2.86-6.34,23.86,23.86,0,0,1,4.21-5,26.67,26.67,0,0,1,5.06-3.59,24.44,24.44,0,0,1,5.42-2.17,20.85,20.85,0,0,1,5.33-.73,20.07,20.07,0,0,1,5.9.78,13.28,13.28,0,0,1,4.19,2.06,8.43,8.43,0,0,1,2.49,3,7.72,7.72,0,0,1,.82,3.46,9.27,9.27,0,0,1-.34,2.54,6.44,6.44,0,0,1-1,2.11,4.86,4.86,0,0,1-1.67,1.42A5,5,0,0,1,552.74,114.75Z"/><path class="cls-5" d="M580.29,111.37q1.6-2.15,3.43-4.37a31.53,31.53,0,0,1,3.94-4,20.12,20.12,0,0,1,4.58-2.93,12.7,12.7,0,0,1,5.4-1.14,8.42,8.42,0,0,1,4.35,1,9.47,9.47,0,0,1,2.81,2.47,9.14,9.14,0,0,1,1.51,3,10.15,10.15,0,0,1,.43,2.65,17.82,17.82,0,0,1-.53,4.19,15.73,15.73,0,0,1-1.79,4.3,19.13,19.13,0,0,1-3.36,4.12,23,23,0,0,1-5.31,3.64A157.91,157.91,0,0,0,604.14,140a78.43,78.43,0,0,0,7.85,10.8,30.77,30.77,0,0,0,7.25,6.25,13.29,13.29,0,0,0,6.64,2,4.5,4.5,0,0,0,1.1-.14,7.86,7.86,0,0,0,1-.32,10,10,0,0,0,1.05-.46l.87,1.6q-1.24.69-2.52,1.3a17.66,17.66,0,0,1-2.93,1.08,27.22,27.22,0,0,1-3.8.73,41.18,41.18,0,0,1-5.13.27,22.48,22.48,0,0,1-5.33-.64,18.23,18.23,0,0,1-5.29-2.29,29.89,29.89,0,0,1-5.38-4.39,49,49,0,0,1-5.58-7,100,100,0,0,1-5.88-10q-3-5.81-6.27-13.59a47.94,47.94,0,0,0,6.91-6,29.48,29.48,0,0,0,3.8-5,13.06,13.06,0,0,0,1.6-4,16.87,16.87,0,0,0,.32-3q0-.18,0-.62a2,2,0,0,0-.3-.85,2.39,2.39,0,0,0-.73-.73,2.43,2.43,0,0,0-1.35-.32,5.41,5.41,0,0,0-3.43,1.44,20.32,20.32,0,0,0-3.32,3.57,34.58,34.58,0,0,0-2.86,4.58q-1.28,2.45-2.1,4.46V142.4a6,6,0,0,1-.21,1.42,3.3,3.3,0,0,1-1,1.56,6.17,6.17,0,0,1-2.2,1.26,11.59,11.59,0,0,1-3.87.53,10.15,10.15,0,0,1-3.8-.57,5.31,5.31,0,0,1-2-1.35,3.5,3.5,0,0,1-.82-1.6,7.24,7.24,0,0,1-.16-1.33v-59a4.25,4.25,0,0,0-.62-2.31,2.27,2.27,0,0,0-2.08-1,3.33,3.33,0,0,0-1.35.25A5.74,5.74,0,0,0,561,81l-.92-1.1a27.44,27.44,0,0,1,2.33-1.72,17,17,0,0,1,2.81-1.49,21.12,21.12,0,0,1,3.27-1.05,15.85,15.85,0,0,1,3.66-.41,10.8,10.8,0,0,1,4.62.8,5.94,5.94,0,0,1,2.43,2,5.67,5.67,0,0,1,.94,2.47,19.28,19.28,0,0,1,.16,2.31Z"/><path class="cls-5" d="M630.73,102.85v33.82a4.8,4.8,0,0,0,.92,3.36,3.35,3.35,0,0,0,2.52.94,3.68,3.68,0,0,0,2.2-.69,8,8,0,0,0,1.65-1.56,9.71,9.71,0,0,0,1.42-2.24l1.42.64q-.69,1.46-1.62,3.2a12.69,12.69,0,0,1-6.41,5.72,15.16,15.16,0,0,1-5.93,1,12.59,12.59,0,0,1-3.87-.59,9.07,9.07,0,0,1-3.29-1.88,9.4,9.4,0,0,1-2.31-3.2,11.16,11.16,0,0,1-.87-4.62V102.85h-5.13V99.56a13.82,13.82,0,0,0,3.57-.66,17.82,17.82,0,0,0,4.69-2.22,18.66,18.66,0,0,0,4.46-4.17,15.92,15.92,0,0,0,2.93-6.45h3.66v13.5h7.46q3.66,0,3.66-1.24a.61.61,0,0,0-.46-.62q-.46-.16-1-.41a3.34,3.34,0,0,1-1-.71,2.08,2.08,0,0,1-.46-1.51,2.59,2.59,0,0,1,.8-2,3,3,0,0,1,2.08-.73,2.93,2.93,0,0,1,1.44.34,3.13,3.13,0,0,1,1,.92,4.13,4.13,0,0,1,.62,1.3,5.4,5.4,0,0,1,.21,1.46,6.5,6.5,0,0,1-1.72,4.74q-1.72,1.76-5.51,1.76Z"/><path class="cls-5" d="M643.63,123a29.09,29.09,0,0,1,1.74-10.5A22.24,22.24,0,0,1,650,105a18.82,18.82,0,0,1,6.75-4.53,21.83,21.83,0,0,1,8.05-1.51,23.43,23.43,0,0,1,8.06,1.4,18.39,18.39,0,0,1,6.75,4.28,20.93,20.93,0,0,1,4.65,7.3A28.5,28.5,0,0,1,686,122.35,30,30,0,0,1,684.27,133a23.63,23.63,0,0,1-4.65,7.78,19.3,19.3,0,0,1-6.75,4.78,20.49,20.49,0,0,1-8.06,1.63,21.55,21.55,0,0,1-8.05-1.53,19.07,19.07,0,0,1-6.75-4.55,22.2,22.2,0,0,1-4.65-7.55A29.27,29.27,0,0,1,643.63,123Zm28.15-.46q0-3.66-.25-7.07a31.77,31.77,0,0,0-1-6.06,10.7,10.7,0,0,0-2.11-4.23,4.56,4.56,0,0,0-3.62-1.58,4.45,4.45,0,0,0-3.62,1.67,11.57,11.57,0,0,0-2.11,4.39,32.09,32.09,0,0,0-1,6.2q-.23,3.48-.23,7.14t.23,7.16a32.58,32.58,0,0,0,1,6.25,11.56,11.56,0,0,0,2.11,4.42,4.45,4.45,0,0,0,3.62,1.67,4.38,4.38,0,0,0,3.62-1.74,12.26,12.26,0,0,0,2.11-4.58,35.93,35.93,0,0,0,1-6.41Q671.78,126.19,671.78,122.53Z"/><path class="cls-5" d="M693.06,83.27a4.25,4.25,0,0,0-.62-2.31,2.27,2.27,0,0,0-2.08-1,3.34,3.34,0,0,0-1.35.25,5.79,5.79,0,0,0-1.21.76l-.92-1.1a25.8,25.8,0,0,1,2.36-1.72,18.37,18.37,0,0,1,2.82-1.49,20.31,20.31,0,0,1,3.25-1.05,15.85,15.85,0,0,1,3.66-.41,9.74,9.74,0,0,1,4.28.8,6.56,6.56,0,0,1,2.47,2,6.46,6.46,0,0,1,1.12,2.52,12.62,12.62,0,0,1,.27,2.49V103.4q.55-.5,1.42-1.26a12.75,12.75,0,0,1,2.2-1.49,14.48,14.48,0,0,1,3.18-1.24,16.81,16.81,0,0,1,4.37-.5,13.9,13.9,0,0,1,5.86,1.35,14.73,14.73,0,0,1,5.26,4.23,22.84,22.84,0,0,1,3.8,7.41,35.64,35.64,0,0,1,1.46,10.89,32.25,32.25,0,0,1-1.35,9.43,23,23,0,0,1-4,7.76,18.88,18.88,0,0,1-6.64,5.24,21,21,0,0,1-9.25,1.92,22.43,22.43,0,0,1-9.63-1.85,16.72,16.72,0,0,1-6.29-5,19.76,19.76,0,0,1-3.41-7.3,36.49,36.49,0,0,1-1-8.79Zm27.28,40.37a64.19,64.19,0,0,0-.41-7.48A29.1,29.1,0,0,0,718.6,110a11.75,11.75,0,0,0-2.33-4.16,4.75,4.75,0,0,0-6.06-.78,7.28,7.28,0,0,0-1.76,1.72,7.42,7.42,0,0,0-1,1.9,5,5,0,0,0-.32,1.26v13.68q0,10,1.67,14.51t4.92,4.53q3.43,0,5-4.62T720.34,123.63Z"/><path class="cls-5" d="M755.3,125.42a13,13,0,0,0,.43,3.18,19,19,0,0,0,1.26,3.46,18.33,18.33,0,0,0,2,3.32,15.72,15.72,0,0,0,2.79,2.81,13.35,13.35,0,0,0,3.5,2,11.73,11.73,0,0,0,4.21.73,11.49,11.49,0,0,0,3-.37,11.77,11.77,0,0,0,2.56-1,16.75,16.75,0,0,0,2.29-1.49q1.1-.85,2.2-1.81l1.14,1.1a31.34,31.34,0,0,1-2.7,3.11,22.05,22.05,0,0,1-4,3.18,23,23,0,0,1-5.45,2.47,23.53,23.53,0,0,1-7.09,1,21.58,21.58,0,0,1-7.76-1.44,19.26,19.26,0,0,1-6.7-4.33,21.18,21.18,0,0,1-4.69-7.19,29,29,0,0,1-.71-17.71,24.51,24.51,0,0,1,2.86-6.27,23.35,23.35,0,0,1,4.21-4.9,26.17,26.17,0,0,1,5.06-3.5,25,25,0,0,1,5.42-2.11,21.48,21.48,0,0,1,5.33-.71,21.26,21.26,0,0,1,5.9.73,13.2,13.2,0,0,1,4.19,2,8.16,8.16,0,0,1,2.49,2.86,7.45,7.45,0,0,1,.82,3.41,6.45,6.45,0,0,1-1.24,3.87,11.41,11.41,0,0,1-3.29,3Zm9.2-9.29a7.19,7.19,0,0,0,1-.71,2.55,2.55,0,0,0,.62-.82,4.45,4.45,0,0,0,.34-1.19,11.47,11.47,0,0,0,.11-1.76,14.42,14.42,0,0,0-.25-2.54,10.23,10.23,0,0,0-.85-2.63,6.57,6.57,0,0,0-1.51-2.06,3.17,3.17,0,0,0-2.2-.82,4.22,4.22,0,0,0-2.81,1,7.61,7.61,0,0,0-1.92,2.54,15.85,15.85,0,0,0-1.19,3.55,39.74,39.74,0,0,0-.66,4q-.23,2-.28,3.87t0,3.13Z"/><path class="cls-5" d="M801.48,108.57a37.71,37.71,0,0,1,3.71-4.81A24.72,24.72,0,0,1,807,102a17.17,17.17,0,0,1,2-1.56,10.44,10.44,0,0,1,2.13-1.1,6.22,6.22,0,0,1,2.2-.41,4.81,4.81,0,0,1,3.66,1.4,5.45,5.45,0,0,1,1.33,3.91,17.49,17.49,0,0,1-.25,3,22.32,22.32,0,0,1-1,3.5h-1.28a4.24,4.24,0,0,0-1.28-2.36,4.15,4.15,0,0,0-2.93-.94,7.76,7.76,0,0,0-2.79.53,17.35,17.35,0,0,0-2.68,1.3,23.55,23.55,0,0,0-2.47,1.69q-1.17.92-2.13,1.74v29.7a6.74,6.74,0,0,1-.18,1.42,3.27,3.27,0,0,1-.89,1.56,5.7,5.7,0,0,1-2.11,1.26,11.18,11.18,0,0,1-3.82.53,10.34,10.34,0,0,1-3.82-.57,6,6,0,0,1-2.13-1.35,3.45,3.45,0,0,1-.92-1.6,6.43,6.43,0,0,1-.18-1.33V107a4.25,4.25,0,0,0-.62-2.31,2.27,2.27,0,0,0-2.08-1,2.94,2.94,0,0,0-1.33.27,7.12,7.12,0,0,0-1.19.78l-1-1.14a25.67,25.67,0,0,1,2.36-1.72,18.36,18.36,0,0,1,2.81-1.49,20.32,20.32,0,0,1,3.25-1.05,15.85,15.85,0,0,1,3.66-.41,9.58,9.58,0,0,1,3.36.53,6.75,6.75,0,0,1,2.29,1.37,6.45,6.45,0,0,1,1.4,1.9,10.51,10.51,0,0,1,.76,2.13,11.41,11.41,0,0,1,.3,2.06Q801.48,107.89,801.48,108.57Z"/><path class="cls-5" d="M846.65,78.37a5.53,5.53,0,0,0-2.42.55,5.17,5.17,0,0,0-2,1.76,9.82,9.82,0,0,0-1.35,3.09,17.63,17.63,0,0,0-.5,4.53V99.56h10v3.29h-10v36.06a38.79,38.79,0,0,1-1.62,11.49,25,25,0,0,1-4.92,9.08,22.61,22.61,0,0,1-8.24,6,28.71,28.71,0,0,1-11.53,2.15,25.22,25.22,0,0,1-4.49-.39,18.4,18.4,0,0,1-3.8-1.08,8.55,8.55,0,0,1-2.63-1.62,2.83,2.83,0,0,1-1-2.08,6.39,6.39,0,0,1,.23-1.67,5.21,5.21,0,0,1,.69-1.53,3.94,3.94,0,0,1,1.12-1.12,2.73,2.73,0,0,1,1.53-.43,1.11,1.11,0,0,1,.89.5,10.12,10.12,0,0,1,.8,1.24q.41.73.94,1.63a6.79,6.79,0,0,0,1.35,1.62,7.21,7.21,0,0,0,2,1.24,7.71,7.71,0,0,0,3,.5,8.73,8.73,0,0,0,4.12-.94,9.4,9.4,0,0,0,3.07-2.59A15.35,15.35,0,0,0,824,157a28.53,28.53,0,0,0,1.37-4.81,45,45,0,0,0,.71-5.35q.21-2.79.21-5.58v-38.4h-8.42V99.56h8.42V94.2a22.57,22.57,0,0,1,1-7,16.92,16.92,0,0,1,2.61-5.1,14.77,14.77,0,0,1,3.68-3.43,21.16,21.16,0,0,1,4.19-2.1,19.91,19.91,0,0,1,4.14-1.05,26.51,26.51,0,0,1,3.52-.27,31,31,0,0,1,5.77.48A17.74,17.74,0,0,1,855.44,77,7.34,7.34,0,0,1,858,78.83a3.36,3.36,0,0,1,.87,2.15,5.87,5.87,0,0,1-.25,1.67,6,6,0,0,1-.71,1.56,3.81,3.81,0,0,1-1.12,1.14,2.65,2.65,0,0,1-1.49.43,1.15,1.15,0,0,1-.92-.55,12,12,0,0,1-.87-1.37l-1-1.79a8.88,8.88,0,0,0-1.35-1.78,7,7,0,0,0-1.9-1.37A5.77,5.77,0,0,0,846.65,78.37Z"/><path class="cls-5" d="M865.46,125.42a13,13,0,0,0,.43,3.18,19,19,0,0,0,1.26,3.46,18.33,18.33,0,0,0,2,3.32,15.72,15.72,0,0,0,2.79,2.81,13.35,13.35,0,0,0,3.5,2,11.73,11.73,0,0,0,4.21.73,11.49,11.49,0,0,0,3-.37,11.77,11.77,0,0,0,2.56-1,16.75,16.75,0,0,0,2.29-1.49q1.1-.85,2.2-1.81l1.14,1.1a31.34,31.34,0,0,1-2.7,3.11,22.05,22.05,0,0,1-4,3.18,23,23,0,0,1-5.45,2.47,23.53,23.53,0,0,1-7.09,1,21.58,21.58,0,0,1-7.76-1.44,19.26,19.26,0,0,1-6.7-4.33,21.18,21.18,0,0,1-4.69-7.19,29,29,0,0,1-.71-17.71,24.51,24.51,0,0,1,2.86-6.27,23.35,23.35,0,0,1,4.21-4.9,26.17,26.17,0,0,1,5.06-3.5,25,25,0,0,1,5.42-2.11,21.48,21.48,0,0,1,5.33-.71,21.26,21.26,0,0,1,5.9.73,13.2,13.2,0,0,1,4.19,2,8.16,8.16,0,0,1,2.49,2.86,7.45,7.45,0,0,1,.82,3.41,6.45,6.45,0,0,1-1.24,3.87,11.41,11.41,0,0,1-3.29,3Zm9.2-9.29a7.19,7.19,0,0,0,1-.71,2.55,2.55,0,0,0,.62-.82,4.45,4.45,0,0,0,.34-1.19,11.47,11.47,0,0,0,.11-1.76,14.42,14.42,0,0,0-.25-2.54,10.23,10.23,0,0,0-.85-2.63,6.57,6.57,0,0,0-1.51-2.06,3.17,3.17,0,0,0-2.2-.82,4.22,4.22,0,0,0-2.81,1,7.61,7.61,0,0,0-1.92,2.54,15.85,15.85,0,0,0-1.19,3.55,39.74,39.74,0,0,0-.66,4q-.23,2-.28,3.87t0,3.13Z"/><path class="cls-5" d="M911.73,102.58a7.05,7.05,0,0,0-2,.27,4.53,4.53,0,0,0-1.67.89,4.21,4.21,0,0,0-1.14,1.56,5.49,5.49,0,0,0-.41,2.22,5.93,5.93,0,0,0,1.3,3.55,30.72,30.72,0,0,0,3.25,3.66q1.95,1.9,4.21,3.94a46.67,46.67,0,0,1,4.21,4.3,24.38,24.38,0,0,1,3.25,4.83,12,12,0,0,1,1.3,5.49,14.49,14.49,0,0,1-1.12,5.86,12,12,0,0,1-3.2,4.35,14.26,14.26,0,0,1-5,2.72,21.63,21.63,0,0,1-6.57.94,17.32,17.32,0,0,1-5.72-.89,20.68,20.68,0,0,1-4.55-2.2,19.87,19.87,0,0,1-3.41-2.77,18.44,18.44,0,0,1-2.2-2.65l1.6-1.14a15.45,15.45,0,0,0,1.51,1.49,14.84,14.84,0,0,0,2,1.49,11.92,11.92,0,0,0,2.4,1.12,8.06,8.06,0,0,0,2.61.43,8.76,8.76,0,0,0,5.4-1.58,5.49,5.49,0,0,0,2.11-4.69,6.85,6.85,0,0,0-1.14-3.59,28.33,28.33,0,0,0-2.88-3.82q-1.74-2-3.75-4.07a55.3,55.3,0,0,1-3.75-4.35,25.63,25.63,0,0,1-2.88-4.62,11.26,11.26,0,0,1-1.14-4.94,10.4,10.4,0,0,1,1.17-5,10.64,10.64,0,0,1,3.11-3.57,14,14,0,0,1,4.44-2.13,18.73,18.73,0,0,1,5.15-.71,26.28,26.28,0,0,1,5.58.55,13.69,13.69,0,0,1,4.32,1.67,8.09,8.09,0,0,1,2.79,2.81,7.69,7.69,0,0,1,1,3.94,4.39,4.39,0,0,1-1.14,3,4.07,4.07,0,0,1-3.2,1.28,4.62,4.62,0,0,1-3-.85,2.83,2.83,0,0,1-1-2.31,2.21,2.21,0,0,1,.48-1.51,4.23,4.23,0,0,1,1.08-.89l1.08-.59a.75.75,0,0,0,.48-.66,2.28,2.28,0,0,0-1.37-2A7.26,7.26,0,0,0,911.73,102.58Z"/><path class="cls-5" d="M946.47,102.85v33.82a4.79,4.79,0,0,0,.92,3.36,3.35,3.35,0,0,0,2.52.94,3.68,3.68,0,0,0,2.2-.69,8,8,0,0,0,1.65-1.56,9.72,9.72,0,0,0,1.42-2.24l1.42.64q-.69,1.46-1.62,3.2a12.69,12.69,0,0,1-6.41,5.72,15.16,15.16,0,0,1-5.93,1,12.59,12.59,0,0,1-3.87-.59,9.07,9.07,0,0,1-3.3-1.88,9.39,9.39,0,0,1-2.31-3.2,11.15,11.15,0,0,1-.87-4.62V102.85h-5.13V99.56a13.81,13.81,0,0,0,3.57-.66,17.8,17.8,0,0,0,4.69-2.22,18.64,18.64,0,0,0,4.46-4.17,15.92,15.92,0,0,0,2.93-6.45h3.66v13.5h7.46q3.66,0,3.66-1.24a.61.61,0,0,0-.46-.62q-.46-.16-1-.41a3.34,3.34,0,0,1-1-.71,2.08,2.08,0,0,1-.46-1.51,2.59,2.59,0,0,1,.8-2,3,3,0,0,1,2.08-.73,2.92,2.92,0,0,1,1.44.34,3.12,3.12,0,0,1,1,.92,4.1,4.1,0,0,1,.62,1.3,5.38,5.38,0,0,1,.21,1.46,6.5,6.5,0,0,1-1.72,4.74q-1.72,1.76-5.52,1.76Z"/><polyline class="cls-13" points="973.85 96.17 1005.56 96.17 1005.56 70.99"/><line class="cls-13" x1="973.39" y1="117.16" x2="1040.54" y2="117.16"/><polyline class="cls-13" points="974.32 135.81 1026.55 135.81 1026.55 153.53"/><polyline class="cls-13" points="368.55 128.35 336.84 128.35 336.84 153.53"/><line class="cls-13" x1="374.02" y1="107.37" x2="306.87" y2="107.37"/><polyline class="cls-13" points="373.08 88.71 320.86 88.71 320.86 70.99"/><circle class="cls-13" cx="1026.08" cy="164.26" r="4.66"/><circle class="cls-14" cx="1006.03" cy="64" r="3.26"/><circle class="cls-5" cx="1052.2" cy="116.69" r="4.66"/><circle class="cls-13" cx="320.39" cy="62.6" r="4.66"/><circle class="cls-14" cx="299.4" cy="107.83" r="3.26"/><circle class="cls-5" cx="336.84" cy="163.33" r="4.66"/></svg>