<svg id="Layer_1" data-name="Layer 1" xmlns="http://www.w3.org/2000/svg" xmlns:xlink="http://www.w3.org/1999/xlink" viewBox="0 0 1350 668"><defs><style>.cls-1{fill:none;}.cls-2,.cls-21,.cls-4{fill:#273274;}.cls-3,.cls-33,.cls-35,.cls-36{fill:#ff8c58;}.cls-3,.cls-7{stroke:#fff;}.cls-28,.cls-29,.cls-3,.cls-31,.cls-32,.cls-33,.cls-34,.cls-36,.cls-37,.cls-7{stroke-miterlimit:10;}.cls-3{stroke-width:8px;}.cls-4{font-size:46.22px;font-family:BoucherieBlock, Boucherie Block;}.cls-5{font-size:35.22px;}.cls-6{letter-spacing:-0.01em;}.cls-14,.cls-7{fill:#fff;}.cls-7{stroke-width:13px;}.cls-8{fill:#493636;}.cls-9{fill:#b27f6f;}.cls-10{fill:#b18070;}.cls-11{fill:url(#radial-gradient);}.cls-12{fill:url(#radial-gradient-2);}.cls-13{fill:#050505;}.cls-15{fill:url(#radial-gradient-3);}.cls-16{fill:url(#radial-gradient-4);}.cls-17{fill:url(#radial-gradient-5);}.cls-18{fill:#4b3838;}.cls-19{fill:#182354;}.cls-20{opacity:0.22;}.cls-21{font-size:14.55px;font-family:Montserrat-Medium, Montserrat;}.cls-22{letter-spacing:-0.01em;}.cls-23{letter-spacing:0em;}.cls-24{letter-spacing:0em;}.cls-25{opacity:0.27;}.cls-26{clip-path:url(#clip-path);}.cls-27,.cls-28,.cls-29,.cls-34{fill:#ff544e;}.cls-28,.cls-29,.cls-31,.cls-32,.cls-33,.cls-34,.cls-36,.cls-37{stroke:#273274;}.cls-28,.cls-37{stroke-width:3px;}.cls-29,.cls-32,.cls-36{stroke-width:2px;}.cls-30,.cls-31,.cls-32,.cls-37{fill:#f7f7f7;}.cls-31,.cls-33{stroke-width:4px;}.cls-34{stroke-width:5px;}.cls-38{clip-path:url(#clip-path-2);}</style><radialGradient id="radial-gradient" cx="186.09" cy="180.77" r="20.53" gradientTransform="translate(0 -0.38)" gradientUnits="userSpaceOnUse"><stop offset="0" stop-color="#3192c3"/><stop offset="1" stop-color="#3192c3"/></radialGradient><radialGradient id="radial-gradient-2" cx="236.28" cy="180.76" r="20.53" xlink:href="#radial-gradient"/><radialGradient id="radial-gradient-3" cx="210.37" cy="192.65" r="4.15" xlink:href="#radial-gradient"/><radialGradient id="radial-gradient-4" cx="211.39" cy="178.3" r="2.96" xlink:href="#radial-gradient"/><radialGradient id="radial-gradient-5" cx="215.99" cy="192.21" r="2.28" xlink:href="#radial-gradient"/><clipPath id="clip-path"><rect class="cls-1" x="0.61" y="483.26" width="698.56" height="189.96"/></clipPath><clipPath id="clip-path-2"><rect class="cls-1" x="652.44" y="478.14" width="698.56" height="189.96"/></clipPath></defs><title>Hacktober page 2</title><rect class="cls-2" x="1" y="1" width="1350" height="667"/><rect class="cls-3" x="198.17" y="174.87" width="389.21" height="121.06" rx="15.96" ry="15.96"/><text class="cls-4" transform="translate(332 231.66)">OpenEBS <tspan class="cls-5"><tspan x="-51.46" y="42.26">contributed issu</tspan><tspan class="cls-6" x="182.23" y="42.26">e</tspan><tspan x="197.41" y="42.26">s</tspan></tspan></text><path class="cls-7" d="M252.33,163.74v3.7a3.84,3.84,0,0,0-.15.66,47.21,47.21,0,0,1-1.74,10.29,126.9,126.9,0,0,1-12.24,28.5c-.63,1.1-.63,1.4.25,2.11,5.46,4.38,7.33,10.32,6.86,17-.4,5.75-1.31,11.46-2.12,17.17-.7,4.93-1.64,9.82-2.34,14.75A67,67,0,0,1,236.38,275a2.4,2.4,0,0,0,0,1.43,12.38,12.38,0,0,1-2.51,11.31,21.45,21.45,0,0,1-14.72,8.07l-2.92.35h-5.29a3.24,3.24,0,0,0-.66-.18c-1.23-.08-2.46-.1-3.69-.2a38.08,38.08,0,0,1-11.16-2.29c-3.6-1.44-6.51-3.69-7.78-7.5a41.51,41.51,0,0,1-1-5c-.19-.21-.43-.36-.51-.57-1.42-3.5-2.89-7-4.19-10.52a23.44,23.44,0,0,1-1.41-5.42c-.64-5.73-1.13-11.48-1.6-17.24s-.8-11.52-1.31-17.27c-.7-7.77,2.11-14.16,7.46-19.6,1-1,1-1.07.35-2.25-1.82-3.41-3.71-6.79-5.41-10.26A99.53,99.53,0,0,1,172,177.06c-1.2-5.1-2.06-10.23-1.16-15.49,1.11-6.48,4.56-11,11-13,.69-.22,1.38-.42,2.08-.63h2.82a1.78,1.78,0,0,0,.4.16,9.69,9.69,0,0,1,6,3.49,24.58,24.58,0,0,1,4.14,7c2.76,7,3.88,14.28,4.73,21.65.44,3.84.56,7.71.93,11.56a14.09,14.09,0,0,0,1,2.95l.26-.06a9,9,0,0,0,.72-5.41l1.4,1.51a6.1,6.1,0,0,1,4-2.5c.61-.1.77-.35.76-.91q0-2.9,0-5.81a.94.94,0,0,0-.68-1,2.87,2.87,0,0,1-1.68-3.32,2.93,2.93,0,0,1,3-2.28,2.87,2.87,0,0,1,2.82,2.53,2.82,2.82,0,0,1-1.94,3.16.77.77,0,0,0-.61.89c0,2,0,3.93,0,5.9,0,.6.21.77.78.89a6.17,6.17,0,0,1,4.88,4.43c.06.21.16.4.26.64a6.88,6.88,0,0,1,1-.78,1.58,1.58,0,0,0,.94-1.49c.34-4.12.71-8.23,1.13-12.34a82.43,82.43,0,0,1,3.53-17c1.23-3.79,2.76-7.42,5.5-10.41a10,10,0,0,1,5.46-3.17l1.36-.27h1.41c.8.16,1.61.25,2.39.48,6.15,1.8,9.74,6,11.16,12.12C252,161.56,252.14,162.66,252.33,163.74Z"/><path class="cls-8" d="M184.2,147.72h2.06c.06.09.16.06.24.07a9.53,9.53,0,0,1,2.56.65,11.37,11.37,0,0,1,4.87,4.1,31.6,31.6,0,0,1,4.42,9.17,78.94,78.94,0,0,1,2.1,8.8q.87,4.54,1.4,9.14c.29,2.55.42,5.12.64,7.68a27.87,27.87,0,0,0-2.37,7.53,27.74,27.74,0,0,1-.95-9.36,32.14,32.14,0,0,0-1.48,3.81,8.69,8.69,0,0,1,0-1c0-2.08,0-4.15-.11-6.23a87.35,87.35,0,0,0-1.24-10.43,40.64,40.64,0,0,0-3.68-11.28,15.06,15.06,0,0,0-3.28-4.57,7.43,7.43,0,0,0-4.76-2.2,9.27,9.27,0,0,0-9.37,6.68,17,17,0,0,0-.67,8.06,62.25,62.25,0,0,0,2.21,10.22,79.41,79.41,0,0,0,10.55,21.78,29.92,29.92,0,0,0,5,5.8c1,.88,1.52.77,2.17-.39a18.82,18.82,0,0,0,1.75-4.48c.28-1.06.51-2.14.76-3.2a15.57,15.57,0,0,0,.77,2.65c.58,1.28,1,2.68,2.36,3.42a.25.25,0,0,1,.12.32,7.7,7.7,0,0,0,.1,3.74,24.08,24.08,0,0,0,1.17,3.8,17.48,17.48,0,0,0,1,2.28,8.35,8.35,0,0,1,.14-3.7,11,11,0,0,1,1.47-3.46,29.15,29.15,0,0,0,1.87,13.42,1.49,1.49,0,0,0,0-.2,51.67,51.67,0,0,1,.31-7,14.42,14.42,0,0,1,1-4.11,3.07,3.07,0,0,1,1.46-1.73c.21-.1.34-.09.45.15a25.59,25.59,0,0,1,1.72,5.17,8.38,8.38,0,0,1,.14,3.56c0,.07,0,.17,0,.2s.17-.08.23-.16a18,18,0,0,0,3.48-7.54,11,11,0,0,0,.14-2.14c0-.7-.2-1.37-.25-2.06h0A17.14,17.14,0,0,1,217,207a14,14,0,0,1,2.72,5.24,8.91,8.91,0,0,1,.29,3.06c-.06.6-.23,1.19-.25,1.79l-.05.08,0,0,0-.1c.07-.11.14-.21.2-.32a30.81,30.81,0,0,0,2-5.2,16.89,16.89,0,0,0,.71-4.88c0-.19,0-.39,0-.64a2.61,2.61,0,0,1,.74.7,7.21,7.21,0,0,1,1.14,3.1c.14.74.25,1.49.37,2.23a5.66,5.66,0,0,0,.41-1,14.85,14.85,0,0,0,.74-6.3,6,6,0,0,0-1-2.72.4.4,0,0,1,0-.53,6.11,6.11,0,0,0,.69-1.59,1.31,1.31,0,0,1,0,.14,21.32,21.32,0,0,0,2,5.62c.69,1.25,1.22,1.33,2.3.38a25.79,25.79,0,0,0,3.38-3.65,74.79,74.79,0,0,0,7.9-13.12,70.44,70.44,0,0,0,5.87-17.66,26.36,26.36,0,0,0,.56-8.45,12.69,12.69,0,0,0-2.48-6.24,9.1,9.1,0,0,0-5.34-3.13,7,7,0,0,0-6.14,1.27,11.79,11.79,0,0,0-2.74,2.87,31.54,31.54,0,0,0-3.64,7.82,50.62,50.62,0,0,0-1.9,8.5c-.31,2.15-.57,4.31-.71,6.49-.06,1-.14,2-.18,3-.06,1.66-.05,3.32,0,5,0,1.2.19,2.4.17,3.6-.24-.62-.47-1.25-.72-1.87-.16-.39-.32-.78-.49-1.18.05,1.08,0,2.15,0,3.21a8.28,8.28,0,0,1-.54,3,3,3,0,0,1-1.79,1.94c-.28.1-.43.08-.54-.24a4.92,4.92,0,0,1-.14-2.35,9.09,9.09,0,0,1,1.33-3.16c.05-.09.15-.17.11-.27s-.2-.07-.31-.07a6.46,6.46,0,0,0-2.23.53c.23-3,.46-6.05.75-9.08s.65-6.16,1.14-9.22a78.62,78.62,0,0,1,3.45-13.72,24.71,24.71,0,0,1,5-8.78,10,10,0,0,1,9.26-3.18,14.19,14.19,0,0,1,7.75,3.82c3.47,3.22,4.94,7.34,5.19,12v3.48a32.83,32.83,0,0,1-.26,3.33,57.44,57.44,0,0,1-2.16,9.95,134.23,134.23,0,0,1-9.86,23.18c-.59,1.13-1.24,2.23-1.9,3.33a1.14,1.14,0,0,0,.3,1.78l.24.19a17,17,0,0,1,2.82,2.81,18.51,18.51,0,0,1,3.43,7.48,22.73,22.73,0,0,1,.56,6.29c-.09,1.61-.29,3.2-.48,4.79-.22,1.8-.42,3.59-.66,5.39-.3,2.22-.64,4.43-.93,6.65-.38,2.84-.87,5.67-1.35,8.5s-.89,5.39-1.33,8.08c-.32,1.92-.55,3.86-1,5.76a66.61,66.61,0,0,1-3.53,10.7c-.13-.07-.13-.21-.17-.33-.21-.5-.38-1-.62-1.51a38.86,38.86,0,0,0-6.49-9.41,35.48,35.48,0,0,0-7.33-6,22.12,22.12,0,0,0-9.48-3.45,14.44,14.44,0,0,0-7,1,22.31,22.31,0,0,0-6.8,4.46,43.56,43.56,0,0,0-7,8.3,30.32,30.32,0,0,0-3.67,8c-.36,1.24-.54,2.51-.85,3.76l-.27.86-.14-.28c-1.17-2.67-2.31-5.36-3.35-8.08a48.63,48.63,0,0,1-2.27-6.94,58.07,58.07,0,0,1-.91-8.29q-.19-2.61-.36-5.23c-.1-1.47-.31-2.92-.48-4.38-.22-1.93-.3-3.86-.4-5.79-.12-2.25-.33-4.49-.53-6.74q-.28-3-.49-6.09a23.42,23.42,0,0,1,.4-6.57,25,25,0,0,1,5.25-10.52,20.8,20.8,0,0,1,2.22-2.34,1,1,0,0,0,.26-1.42l-.18-.33c-2.74-4.82-5.31-9.74-7.56-14.81A88.25,88.25,0,0,1,171.22,174a43.35,43.35,0,0,1-.88-7.41c0-.08,0-.18-.07-.23v-1.06c.1,0,.08-.12.07-.19a19.77,19.77,0,0,1,.15-2.31,20.35,20.35,0,0,1,1.95-6.89c2.07-4.16,5.58-6.51,9.92-7.79C183,147.94,183.59,147.85,184.2,147.72Zm38.13,98.93c.34,0,.69,0,1,0s.68-.07,1-.13a20.12,20.12,0,0,0,11.63-6,7.43,7.43,0,0,0,2-7.78,15.18,15.18,0,0,0-6.79-8.68,7.16,7.16,0,0,0-6.14-.68,10.34,10.34,0,0,0-4.25,2.64,20.54,20.54,0,0,0-5.52,10.2,12.08,12.08,0,0,0,1.13,8.28,3.67,3.67,0,0,0,3,2.16C220.41,246.79,221.37,246.62,222.33,246.65Zm-21.37.11h.62a4.11,4.11,0,0,0,3.73-1.86,10.67,10.67,0,0,0,1.57-4.86,18.3,18.3,0,0,0-9-16.21,6.35,6.35,0,0,0-4.61-.76,11.63,11.63,0,0,0-5.55,3.34,16.31,16.31,0,0,0-3.67,5.92,7.13,7.13,0,0,0,1.06,7.26,16.64,16.64,0,0,0,3.56,3.35A21.58,21.58,0,0,0,201,246.75Z"/><path class="cls-9" d="M236,275.39c.13.58.28,1.15.39,1.73a12.26,12.26,0,0,1-2.38,10,21.43,21.43,0,0,1-10.87,7.62,24.8,24.8,0,0,1-6.81,1.07c-.12,0-.26-.07-.35.07H210.7c-.05-.11-.15-.07-.23-.07a63.56,63.56,0,0,1-9-.84,28.23,28.23,0,0,1-7.37-2.18c-5-2.42-7.49-6.45-7.51-12,0-.19.1-.4-.06-.57.31-1.25.49-2.52.85-3.76a30.32,30.32,0,0,1,3.67-8,43.56,43.56,0,0,1,7-8.3,22.31,22.31,0,0,1,6.8-4.46,14.44,14.44,0,0,1,7-1,22.12,22.12,0,0,1,9.48,3.45,35.48,35.48,0,0,1,7.33,6,38.86,38.86,0,0,1,6.49,9.41c.24.49.41,1,.62,1.51C235.84,275.18,235.84,275.32,236,275.39Zm-7.83,7.38a.76.76,0,0,0-.32.2,37.16,37.16,0,0,1-7.13,4.4,20.18,20.18,0,0,1-12.15,1.37,37.19,37.19,0,0,1-9.83-3.55c-1.36-.68-2.67-1.46-4-2.19h0c0,.2.15.31.26.45a23.79,23.79,0,0,0,11.21,7.84,18,18,0,0,0,20.79-6.6,8.82,8.82,0,0,0,1.18-1.89l0,0,0,0Zm1.22-11.11a1.9,1.9,0,0,0-.42-1.43,8.57,8.57,0,0,0-2.11-2,4.36,4.36,0,0,0-5.58.45A4.73,4.73,0,0,0,220,271.9a12.9,12.9,0,0,1-2,6c-.62,1-1.29,2-2,3a.87.87,0,0,0,.32,1.42,1.41,1.41,0,0,0,1.32,0,35.9,35.9,0,0,0,8.64-5A7.4,7.4,0,0,0,229.35,271.66Zm-34.43.77a4,4,0,0,0,.63,2.24,12.63,12.63,0,0,0,3.78,3.79,48.91,48.91,0,0,0,6.27,3.48,7.74,7.74,0,0,0,1.32.46,1.29,1.29,0,0,0,1.22-.33.59.59,0,0,0,.19-.78,3,3,0,0,0-.64-.94c-.13-.13-.29-.26-.27-.44a.7.7,0,0,0-.26-.59c-.15-.17-.3-.35-.44-.53a12.43,12.43,0,0,1-2.51-7.15,4.25,4.25,0,0,0-4.94-4.18A5.28,5.28,0,0,0,194.92,272.43Z"/><path class="cls-10" d="M252.05,163.7h.07v3.5h-.07Z"/><path class="cls-11" d="M197.06,198c-.25,1.07-.48,2.14-.76,3.2a18.82,18.82,0,0,1-1.75,4.48c-.65,1.16-1.17,1.26-2.17.39a29.92,29.92,0,0,1-5-5.8,79.41,79.41,0,0,1-10.55-21.78,62.25,62.25,0,0,1-2.21-10.22,17,17,0,0,1,.67-8.06,9.27,9.27,0,0,1,9.37-6.68,7.43,7.43,0,0,1,4.76,2.2,15.06,15.06,0,0,1,3.28,4.57,40.64,40.64,0,0,1,3.68,11.28,87.35,87.35,0,0,1,1.24,10.43c.13,2.07.15,4.15.11,6.23a8.69,8.69,0,0,0,0,1c0,.12-.05.25-.09.37a21.28,21.28,0,0,0-.77,5.91C196.86,196.42,197,197.23,197.06,198Z"/><path class="cls-12" d="M224.84,192.36c0-1.2-.13-2.4-.17-3.6-.05-1.66-.06-3.32,0-5,0-1,.11-2,.18-3,.14-2.17.4-4.33.71-6.49a50.62,50.62,0,0,1,1.9-8.5,31.54,31.54,0,0,1,3.64-7.82,11.79,11.79,0,0,1,2.74-2.87,7,7,0,0,1,6.14-1.27,9.1,9.1,0,0,1,5.34,3.13,12.69,12.69,0,0,1,2.48,6.24,26.36,26.36,0,0,1-.56,8.45,70.44,70.44,0,0,1-5.87,17.66,74.79,74.79,0,0,1-7.9,13.12,25.79,25.79,0,0,1-3.38,3.65c-1.08,1-1.61.87-2.3-.38a21.32,21.32,0,0,1-2-5.62,1.31,1.31,0,0,0,0-.14,9.81,9.81,0,0,0,0-4.1A29.33,29.33,0,0,0,224.84,192.36Z"/><path class="cls-13" d="M224.84,192.36a29.33,29.33,0,0,1,.89,3.44,9.81,9.81,0,0,1,0,4.1,6.11,6.11,0,0,1-.69,1.59.4.4,0,0,0,0,.53,6,6,0,0,1,1,2.72,14.85,14.85,0,0,1-.74,6.3,5.66,5.66,0,0,1-.41,1c-.12-.74-.24-1.49-.37-2.23a7.21,7.21,0,0,0-1.14-3.1,2.61,2.61,0,0,0-.74-.7c0,.25,0,.44,0,.64a16.89,16.89,0,0,1-.71,4.88,30.81,30.81,0,0,1-2,5.2c-.05.11-.13.21-.2.32h0c0-.6.19-1.19.25-1.79a8.91,8.91,0,0,0-.29-3.06A14,14,0,0,0,217,207a17.15,17.15,0,0,0-2.19-2.3l0,0,0,0c0,.69.23,1.36.25,2.06a11,11,0,0,1-.14,2.14,18,18,0,0,1-3.48,7.54c-.06.08-.1.2-.23.16s-.06-.13,0-.2a8.38,8.38,0,0,0-.14-3.56,25.59,25.59,0,0,0-1.72-5.17c-.1-.24-.24-.25-.45-.15a3.07,3.07,0,0,0-1.46,1.73,14.42,14.42,0,0,0-1,4.11,51.67,51.67,0,0,0-.31,7,1.49,1.49,0,0,1,0,.2,29.15,29.15,0,0,1-1.87-13.42,11,11,0,0,0-1.47,3.46,8.35,8.35,0,0,0-.14,3.7,17.48,17.48,0,0,1-1-2.28,24.08,24.08,0,0,1-1.17-3.8,7.7,7.7,0,0,1-.1-3.74.25.25,0,0,0-.12-.32c-1.37-.74-1.78-2.14-2.36-3.42a15.57,15.57,0,0,1-.77-2.65c-.08-.82-.2-1.63-.22-2.45a21.28,21.28,0,0,1,.77-5.91c0-.12.06-.24.09-.37a32.14,32.14,0,0,1,1.48-3.81,27.74,27.74,0,0,0,.95,9.36,27.87,27.87,0,0,1,2.37-7.53l0,.3a.47.47,0,0,0-.07.13,8.09,8.09,0,0,0,0,2.64,3.57,3.57,0,0,0,.35,1.34,11.76,11.76,0,0,0,1.17,3c.67-1.88,1.31-3.66.73-5.6v0a12,12,0,0,1,1.43,1.53,24.61,24.61,0,0,1,1.62,2.47,17.37,17.37,0,0,1,1,2.41,21.75,21.75,0,0,1,2.1-6,18.3,18.3,0,0,0,1.91,6.54,6.61,6.61,0,0,0,.72-1.11,7.62,7.62,0,0,0,1-5.1,4.74,4.74,0,0,1-.23-1.07l.08,0a27,27,0,0,1,2.55,5.55,8.1,8.1,0,0,1,.72-1.05,6.12,6.12,0,0,1,1.92-1.38,6.46,6.46,0,0,1,2.23-.53c.1,0,.25-.06.31.07s-.06.18-.11.27a9.09,9.09,0,0,0-1.33,3.16,4.92,4.92,0,0,0,.14,2.35c.1.32.25.34.54.24a3,3,0,0,0,1.79-1.94,8.28,8.28,0,0,0,.54-3c0-1.06,0-2.12,0-3.21.16.39.33.78.49,1.18C224.36,191.11,224.6,191.74,224.84,192.36Z"/><path class="cls-14" d="M222.33,246.65c-1,0-1.92.15-2.89,0a3.67,3.67,0,0,1-3-2.16,12.08,12.08,0,0,1-1.13-8.28,20.54,20.54,0,0,1,5.52-10.2A10.34,10.34,0,0,1,225,223.4a7.16,7.16,0,0,1,6.14.68,15.18,15.18,0,0,1,6.79,8.68,7.43,7.43,0,0,1-2,7.78,20.12,20.12,0,0,1-11.63,6c-.34.05-.68.1-1,.13S222.67,246.65,222.33,246.65Zm1.31-.59a6.72,6.72,0,0,0,1.74-.13,6.58,6.58,0,0,0,4.73-4.21,5,5,0,0,0,.54-2.53,1.34,1.34,0,0,0-1.94-1.18,7,7,0,0,0-.67.34,4.34,4.34,0,0,1-.8.35,2.17,2.17,0,0,1-2.52-1,1.94,1.94,0,0,1,.08-2.54c.2-.26.46-.47.67-.72a1.41,1.41,0,0,0-.82-2.38,6.61,6.61,0,0,0-3.63.31,6.42,6.42,0,0,0-4.33,4.61,9,9,0,0,0,.46,5.32,5.51,5.51,0,0,0,3.64,3.39A9.19,9.19,0,0,0,223.64,246.06Z"/><path class="cls-14" d="M201,246.75a21.58,21.58,0,0,1-12.26-3.82,16.64,16.64,0,0,1-3.56-3.35,7.13,7.13,0,0,1-1.06-7.26,16.31,16.31,0,0,1,3.67-5.92,11.63,11.63,0,0,1,5.55-3.34,6.35,6.35,0,0,1,4.61.76,18.3,18.3,0,0,1,9,16.21,10.67,10.67,0,0,1-1.57,4.86,4.11,4.11,0,0,1-3.73,1.86Zm-9.67-7.58c0,.22,0,.56.08.9a5.55,5.55,0,0,0,.15.74,6.62,6.62,0,0,0,4.66,5,10.77,10.77,0,0,0,2.29.23,5.88,5.88,0,0,0,3.86-.94,6.19,6.19,0,0,0,3-6c-.1-1.1-1-1.85-2.15-1a4,4,0,0,1-.64.4,2,2,0,0,1-2.27-.22,2.14,2.14,0,0,1-.15-3.58c.12-.11.24-.22.35-.34a1.27,1.27,0,0,0,.13-1.69,1.66,1.66,0,0,0-1.26-.74,7.77,7.77,0,0,0-2.15.06A7.06,7.06,0,0,0,191.29,239.18Z"/><path class="cls-13" d="M219.76,217.07l0,.1,0,0,.05-.08Z"/><path class="cls-13" d="M229.35,271.66a7.4,7.4,0,0,1-3,5.7,35.9,35.9,0,0,1-8.64,5,1.41,1.41,0,0,1-1.32,0,.87.87,0,0,1-.32-1.42c.7-1,1.37-1.95,2-3a12.9,12.9,0,0,0,2-6,4.73,4.73,0,0,1,1.23-3.22,4.36,4.36,0,0,1,5.58-.45,8.57,8.57,0,0,1,2.11,2A1.9,1.9,0,0,1,229.35,271.66Z"/><path class="cls-13" d="M194.92,272.43a5.28,5.28,0,0,1,4.37-5,4.25,4.25,0,0,1,4.94,4.18,12.43,12.43,0,0,0,2.51,7.15c.14.18.28.36.44.53a.7.7,0,0,1,.26.59c0,.18.14.31.27.44a3,3,0,0,1,.64.94.59.59,0,0,1-.19.78,1.29,1.29,0,0,1-1.22.33,7.74,7.74,0,0,1-1.32-.46,48.91,48.91,0,0,1-6.27-3.48,12.63,12.63,0,0,1-3.78-3.79A4,4,0,0,1,194.92,272.43Z"/><path class="cls-14" d="M194.71,283c1.33.73,2.64,1.51,4,2.19a37.19,37.19,0,0,0,9.83,3.55,20.18,20.18,0,0,0,12.15-1.37,37.16,37.16,0,0,0,7.13-4.4.76.76,0,0,1,.32-.2l0,0a8.87,8.87,0,0,1-1.18,1.89,18,18,0,0,1-20.79,6.6A23.79,23.79,0,0,1,195,283.44c-.11-.13-.26-.25-.26-.45Z"/><path class="cls-14" d="M228.14,282.77l0,0,0,0,0,0Z"/><path class="cls-14" d="M194.71,283h0Z"/><path class="cls-15" d="M214.28,188.77a4.74,4.74,0,0,0,.23,1.07,7.62,7.62,0,0,1-1,5.1,6.61,6.61,0,0,1-.72,1.11,18.3,18.3,0,0,1-1.91-6.54,21.75,21.75,0,0,0-2.1,6,17.37,17.37,0,0,0-1-2.41,24.61,24.61,0,0,0-1.62-2.47,6.26,6.26,0,0,1,4.41-2.61l.3-.06a4.58,4.58,0,0,0,1,0,8,8,0,0,1,2.22.59A.49.49,0,0,1,214.28,188.77Z"/><path class="cls-16" d="M210.83,180.58a3,3,0,1,1,.94,0A4.38,4.38,0,0,1,210.83,180.58Z"/><path class="cls-13" d="M210.83,180.58a4.38,4.38,0,0,0,.94,0q0,3.21,0,6.42c0,.3,0,.61,0,.91a4.58,4.58,0,0,1-1,0Z"/><path class="cls-17" d="M217.62,193.28a8.1,8.1,0,0,0-.72,1.05,27,27,0,0,0-2.55-5.55,4.78,4.78,0,0,1,1.89,1.51,6.09,6.09,0,0,1,1.31,2.81A1.07,1.07,0,0,0,217.62,193.28Z"/><path class="cls-18" d="M202.77,191.75a3.57,3.57,0,0,1-.35-1.34,8.09,8.09,0,0,1,0-2.64.47.47,0,0,1,.07-.13C202.6,189,202.71,190.38,202.77,191.75Z"/><path class="cls-13" d="M204.67,189.1l-.05,0,0,0,0,.06Z"/><path class="cls-18" d="M214.81,204.68l0,0,0,0Z"/><path class="cls-13" d="M223.64,246.06a9.19,9.19,0,0,1-2.85-.37,5.51,5.51,0,0,1-3.64-3.39,9,9,0,0,1-.46-5.32,6.42,6.42,0,0,1,4.33-4.61,6.61,6.61,0,0,1,3.63-.31,1.41,1.41,0,0,1,.82,2.38c-.21.25-.47.47-.67.72a1.94,1.94,0,0,0-.08,2.54,2.17,2.17,0,0,0,2.52,1,4.34,4.34,0,0,0,.8-.35,7,7,0,0,1,.67-.34,1.34,1.34,0,0,1,1.94,1.18,5,5,0,0,1-.54,2.53,6.58,6.58,0,0,1-4.73,4.21A6.72,6.72,0,0,1,223.64,246.06Z"/><path class="cls-13" d="M191.29,239.18a7.06,7.06,0,0,1,5.93-7.13,7.77,7.77,0,0,1,2.15-.06,1.66,1.66,0,0,1,1.26.74,1.27,1.27,0,0,1-.13,1.69c-.11.12-.23.23-.35.34a2.14,2.14,0,0,0,.15,3.58,2,2,0,0,0,2.27.22,4,4,0,0,0,.64-.4c1.13-.87,2-.12,2.15,1a6.19,6.19,0,0,1-3,6,5.88,5.88,0,0,1-3.86.94,10.77,10.77,0,0,1-2.29-.23,6.62,6.62,0,0,1-4.66-5,5.55,5.55,0,0,1-.15-.74C191.33,239.73,191.31,239.39,191.29,239.18Z"/><path class="cls-19" d="M749.94,171.69H776.5a0,0,0,0,1,0,0v43.62a0,0,0,0,1,0,0H749.94a12.25,12.25,0,0,1-12.25-12.25V183.94A12.25,12.25,0,0,1,749.94,171.69Z"/><path class="cls-20" d="M749.94,171.69H776.5a0,0,0,0,1,0,0v43.62a0,0,0,0,1,0,0H749.94a12.25,12.25,0,0,1-12.25-12.25V183.94A12.25,12.25,0,0,1,749.94,171.69Z"/><path class="cls-14" d="M792.35,171.69H937.47a0,0,0,0,1,0,0v43.62a0,0,0,0,1,0,0H792.35a12.25,12.25,0,0,1-12.25-12.25V183.94A12.25,12.25,0,0,1,792.35,171.69Z" transform="translate(1717.57 387) rotate(180)"/><path class="cls-19" d="M749.94,256.52H776.5a0,0,0,0,1,0,0v43.62a0,0,0,0,1,0,0H749.94a12.25,12.25,0,0,1-12.25-12.25V268.77A12.25,12.25,0,0,1,749.94,256.52Z"/><path class="cls-20" d="M749.94,256.52H776.5a0,0,0,0,1,0,0v43.62a0,0,0,0,1,0,0H749.94a12.25,12.25,0,0,1-12.25-12.25V268.77A12.25,12.25,0,0,1,749.94,256.52Z"/><path class="cls-14" d="M792.35,256.52H937.47a0,0,0,0,1,0,0v43.62a0,0,0,0,1,0,0H792.35a12.25,12.25,0,0,1-12.25-12.25V268.77A12.25,12.25,0,0,1,792.35,256.52Z" transform="translate(1717.57 556.66) rotate(180)"/><path class="cls-19" d="M987.47,171.69H1014a0,0,0,0,1,0,0v43.62a0,0,0,0,1,0,0H987.47a12.25,12.25,0,0,1-12.25-12.25V183.94A12.25,12.25,0,0,1,987.47,171.69Z"/><path class="cls-20" d="M987.47,171.69H1014a0,0,0,0,1,0,0v43.62a0,0,0,0,1,0,0H987.47a12.25,12.25,0,0,1-12.25-12.25V183.94A12.25,12.25,0,0,1,987.47,171.69Z"/><path class="cls-14" d="M1029.89,171.69H1175a0,0,0,0,1,0,0v43.62a0,0,0,0,1,0,0H1029.89a12.25,12.25,0,0,1-12.25-12.25V183.94A12.25,12.25,0,0,1,1029.89,171.69Z" transform="translate(2192.64 387) rotate(180)"/><path class="cls-19" d="M987.47,256.52H1014a0,0,0,0,1,0,0v43.62a0,0,0,0,1,0,0H987.47a12.25,12.25,0,0,1-12.25-12.25V268.77A12.25,12.25,0,0,1,987.47,256.52Z"/><path class="cls-20" d="M987.47,256.52H1014a0,0,0,0,1,0,0v43.62a0,0,0,0,1,0,0H987.47a12.25,12.25,0,0,1-12.25-12.25V268.77A12.25,12.25,0,0,1,987.47,256.52Z"/><path class="cls-14" d="M1029.89,256.52H1175a0,0,0,0,1,0,0v43.62a0,0,0,0,1,0,0H1029.89a12.25,12.25,0,0,1-12.25-12.25V268.77A12.25,12.25,0,0,1,1029.89,256.52Z" transform="translate(2192.64 556.66) rotate(180)"/><text class="cls-21" transform="translate(1074.56 283.21)">Ea<tspan class="cls-22" x="18.21" y="0">s</tspan><tspan class="cls-23" x="25.13" y="0">y</tspan></text><text class="cls-21" transform="translate(1064.08 199.22)">Di<tspan class="cls-24" x="15.49" y="0">f</tspan><tspan x="20.87" y="0">ficult</tspan></text><text class="cls-21" transform="translate(828.99 197.53)">Python</text><text class="cls-21" transform="translate(799.81 283.21)">Documentation</text><g class="cls-25"><g class="cls-26"><circle class="cls-2" cx="730.12" cy="555.59" r="2.42"/><path class="cls-27" d="M636.38,615.13q0-3.8,0-7.6c0-5.74,0-11.48,0-17.22a3.44,3.44,0,0,0-.7-2.16c-2.18-3-4.34-6.05-6.45-9.13-.43-.63-1.33-1.55-.63-2.17s1.5.35,2.08.87c1.84,1.67,3.62,3.41,5.69,5.37,0-3.75-.14-7.21,0-10.65s.37-6.81,1.77-10.13a3.64,3.64,0,0,1,1.07,2.52,137.68,137.68,0,0,1,1.24,17c.56,16.47.87,32.94,1.19,49.41.06,2.84.19,5.68.22,8.53,0,.87.17,1.1,1.08.79a33.17,33.17,0,0,0,11.19-6.91c7.5-6.66,12.74-14.71,14.67-24.69,1.41-7.3.5-14.45-1.59-21.48a64,64,0,0,0-16.48-27.93,36.73,36.73,0,0,0-4.56-3.7,11.88,11.88,0,0,0-12.5-1.23c-8.5,3.76-15.29,9.65-21.06,16.8-4.7,5.84-8.21,12.32-9.6,19.77-1.67,8.91.17,17.28,4.44,25.12,5.67,10.43,13.68,18.45,24.77,23.11.9.38,1.86.62,2.78.93s1.24.14,1.24-.89q0-7.95.05-15.9a2.67,2.67,0,0,0-.8-1.81c-4.12-5.05-8.45-9.94-12.3-15.2a20.8,20.8,0,0,1-2.76-5.33c-.14-.39-.6-1,0-1.32s.84.16,1.16.42c1.17,1,2.34,1.94,3.43,3C628.93,607.07,632.43,611.18,636.38,615.13Z"/><circle class="cls-28" cx="617.11" cy="597.27" r="2.45"/><circle class="cls-29" cx="625.2" cy="573.98" r="2.08"/><path class="cls-27" d="M638.57,682.52l-2.07,0a4.8,4.8,0,0,0-.55-1q0-3.08.06-6.15a1.33,1.33,0,0,0,.48-.82c.05-.57-.37-1.11-.52-1.67.07.19.1-.56.14-.7a2.18,2.18,0,0,0-.35-2.22l.32,0q0-1.8,0-3.59c0-3,0-6.06,0-9.09a1.22,1.22,0,0,0,.08-1.49v0c.1-.15-.16-.41-.2-.55a3.12,3.12,0,0,1-.06-.53c.17-.18.19-.27.16-.3a.86.86,0,0,0,0-.91c.29-3.57-.81-7.07,2.86-10.5,1.68.36,1.67.86,1.89,1.29,1.45,2.83,1.7,5.69,2,8.55.9,8.45,1.42,16.89,1.93,25.34.09,1.45.36,2.91.34,4.36a.67.67,0,0,0,0,.09C642.89,682.53,640.75,682.48,638.57,682.52Z"/><circle class="cls-2" cx="667.82" cy="642.59" r="2.29"/><path class="cls-30" d="M570.27,605.12q0-5.24,0-10.48c0-7.92,0-15.83,0-23.75a4.74,4.74,0,0,0-1-3c-3-4.16-6-8.35-8.89-12.59-.6-.87-1.83-2.14-.87-3s2.07.49,2.87,1.21c2.54,2.3,5,4.7,7.85,7.41,0-5.17-.19-9.94.05-14.68s.5-9.39,2.44-14a5,5,0,0,1,1.48,3.48c1.23,7.77,1.44,15.61,1.7,23.45.77,22.71,1.2,45.42,1.64,68.14.08,3.92.26,7.84.31,11.76,0,1.2.24,1.52,1.5,1.09a45.74,45.74,0,0,0,15.43-9.53c10.35-9.19,17.57-20.28,20.23-34,1.94-10.06.69-19.93-2.19-29.63-4.38-14.71-11.71-27.71-22.72-38.53a50.65,50.65,0,0,0-6.3-5.1c-5.44-3.86-11.12-4.4-17.24-1.7-11.72,5.19-21.09,13.3-29,23.17-6.49,8.06-11.32,17-13.24,27.26-2.3,12.29.24,23.83,6.12,34.65,7.82,14.38,18.86,25.45,34.17,31.87,1.24.52,2.56.85,3.84,1.29s1.71.19,1.71-1.23q0-11,.07-21.92a3.68,3.68,0,0,0-1.1-2.49c-5.68-7-11.65-13.7-17-21a28.69,28.69,0,0,1-3.81-7.35c-.19-.54-.83-1.32,0-1.82.6-.38,1.16.22,1.6.59,1.61,1.34,3.23,2.68,4.73,4.13C560,594,564.82,599.68,570.27,605.12Z"/><circle class="cls-31" cx="553.39" cy="548.81" r="3.38"/><path class="cls-30" d="M573.28,698.05l-2.86.05a6.62,6.62,0,0,0-.76-1.42q0-4.24.09-8.49a1.83,1.83,0,0,0,.67-1.13c.07-.78-.51-1.53-.72-2.31.1.26.14-.77.19-1a3,3,0,0,0-.48-3.07l.44,0q0-2.48,0-5c0-4.18,0-8.35,0-12.53a1.69,1.69,0,0,0,.1-2.05l0,0c.13-.2-.22-.56-.27-.76a4.3,4.3,0,0,1-.09-.74c.24-.25.26-.38.22-.41a1.18,1.18,0,0,0-.07-1.26c.4-4.93-1.12-9.75,3.94-14.48,2.32.49,2.3,1.18,2.61,1.78,2,3.9,2.34,7.85,2.76,11.78,1.24,11.65,2,23.3,2.66,35,.12,2,.49,4,.47,6a.93.93,0,0,0,0,.13C579.25,698.07,576.29,698,573.28,698.05Z"/><circle class="cls-32" cx="544.92" cy="580.2" r="2.74"/><path class="cls-27" d="M476.64,570.29q0-4.73,0-9.47c0-7.15,0-14.31,0-21.46a4.29,4.29,0,0,1,.88-2.69c2.72-3.76,5.41-7.54,8-11.37.54-.79,1.66-1.93.78-2.71s-1.87.44-2.59,1.09c-2.3,2.08-4.51,4.24-7.09,6.7,0-4.67.17-9,0-13.27s-.46-8.48-2.2-12.63a4.53,4.53,0,0,0-1.34,3.15,171.54,171.54,0,0,0-1.54,21.18c-.7,20.52-1.08,41-1.48,61.56-.07,3.54-.23,7.08-.28,10.62,0,1.09-.21,1.38-1.35,1a41.32,41.32,0,0,1-13.94-8.61c-9.35-8.3-15.87-18.33-18.28-30.76-1.76-9.09-.63-18,2-26.77A79.69,79.69,0,0,1,458.7,501a45.76,45.76,0,0,1,5.69-4.61A14.8,14.8,0,0,1,480,494.9c10.59,4.69,19.06,12,26.24,20.94,5.86,7.28,10.22,15.35,12,24.63,2.08,11.11-.22,21.53-5.53,31.3-7.07,13-17,23-30.87,28.79-1.12.47-2.31.77-3.47,1.16s-1.55.18-1.54-1.11q0-9.9-.06-19.81a3.33,3.33,0,0,1,1-2.25c5.13-6.3,10.53-12.38,15.33-18.94a25.92,25.92,0,0,0,3.44-6.64c.18-.49.75-1.19,0-1.65-.54-.35-1,.2-1.45.53-1.45,1.21-2.92,2.42-4.28,3.73C485.92,560.25,481.57,565.37,476.64,570.29Z"/><circle class="cls-2" cx="491.89" cy="519.42" r="3.05"/><path class="cls-27" d="M473.92,691.43l2.58.08a14.36,14.36,0,0,1,.69-2.25q0-6.73-.08-13.45a3.78,3.78,0,0,1-.6-1.79,18.53,18.53,0,0,1,.65-3.66c-.09.42-.13-1.23-.17-1.52a7.77,7.77,0,0,1,.43-4.86l-.4-.06q0-3.92,0-7.85c0-6.62,0-13.24,0-19.86a4.34,4.34,0,0,1-.09-3.25l0-.07c-.12-.32.2-.89.25-1.21s.06-.78.08-1.17c-.21-.4-.24-.6-.2-.65a3.11,3.11,0,0,1,.06-2c-.36-7.81,1-15.45-3.56-22.94a3.17,3.17,0,0,0-2.36,2.83c-1.8,6.18-2.11,12.43-2.49,18.68-1.12,18.46-1.77,36.92-2.4,55.39-.11,3.18-.45,6.35-.43,9.53,0,.07,0,.14,0,.21C468.53,691.46,471.21,691.35,473.92,691.43Z"/><path class="cls-27" d="M159,652.08q0-3.24,0-6.47c0-4.89,0-9.78,0-14.67a2.93,2.93,0,0,1,.6-1.84c1.86-2.57,3.7-5.16,5.49-7.77.37-.54,1.13-1.32.54-1.85s-1.28.3-1.77.74c-1.57,1.42-3.08,2.9-4.85,4.58,0-3.19.12-6.14,0-9.07a24.87,24.87,0,0,0-1.5-8.63,3.1,3.1,0,0,0-.91,2.15,117.25,117.25,0,0,0-1.05,14.48c-.48,14-.74,28.05-1,42.08,0,2.42-.16,4.84-.19,7.26,0,.74-.15.94-.92.67a28.25,28.25,0,0,1-9.53-5.89c-6.39-5.67-10.85-12.53-12.49-21a38.06,38.06,0,0,1,1.35-18.3,54.47,54.47,0,0,1,14-23.79,31.28,31.28,0,0,1,3.89-3.15,10.12,10.12,0,0,1,10.64-1,47.94,47.94,0,0,1,17.93,14.31,37.86,37.86,0,0,1,8.18,16.83c1.42,7.59-.15,14.72-3.78,21.4-4.83,8.88-11.65,15.72-21.1,19.68-.77.32-1.58.53-2.37.79s-1.06.12-1.05-.76q0-6.77,0-13.54a2.27,2.27,0,0,1,.68-1.54c3.51-4.3,7.2-8.46,10.48-12.95a17.72,17.72,0,0,0,2.35-4.54c.12-.34.51-.81,0-1.13s-.72.13-1,.36c-1,.83-2,1.65-2.92,2.55C165.37,645.21,162.39,648.71,159,652.08Z"/><circle class="cls-2" cx="169.45" cy="617.3" r="2.08"/><path class="cls-30" d="M74.17,641.22q0-2.33,0-4.65c0-3.51,0-7,0-10.54a2.11,2.11,0,0,1,.43-1.32c1.34-1.85,2.66-3.71,3.95-5.59.27-.39.81-.95.39-1.33s-.92.22-1.27.54c-1.13,1-2.22,2.09-3.49,3.29,0-2.29.08-4.41,0-6.52a17.88,17.88,0,0,0-1.08-6.2,2.23,2.23,0,0,0-.66,1.55,84.29,84.29,0,0,0-.76,10.41c-.34,10.08-.53,20.16-.73,30.25,0,1.74-.11,3.48-.14,5.22,0,.53-.11.68-.66.48a20.3,20.3,0,0,1-6.85-4.23,26.69,26.69,0,0,1-9-15.11,27.36,27.36,0,0,1,1-13.15,39.15,39.15,0,0,1,10.09-17.1,22.48,22.48,0,0,1,2.79-2.26,7.27,7.27,0,0,1,7.65-.75,34.46,34.46,0,0,1,12.89,10.29,27.21,27.21,0,0,1,5.88,12.1,22.71,22.71,0,0,1-2.72,15.38,30.47,30.47,0,0,1-15.17,14.15c-.55.23-1.14.38-1.7.57s-.76.09-.76-.55q0-4.87,0-9.73a1.63,1.63,0,0,1,.49-1.11c2.52-3.09,5.17-6.08,7.53-9.31a12.73,12.73,0,0,0,1.69-3.26c.09-.24.37-.59,0-.81s-.52.1-.71.26c-.71.6-1.43,1.19-2.1,1.83C78.73,636.28,76.59,638.8,74.17,641.22Z"/><circle class="cls-32" cx="81.66" cy="616.22" r="1.5"/><path class="cls-30" d="M72.83,682.47l1.27,0a2.94,2.94,0,0,1,.34-.63q0-1.88,0-3.77a.81.81,0,0,1-.3-.5c0-.35.23-.68.32-1,0,.12-.06-.34-.08-.43a1.33,1.33,0,0,1,.21-1.36l-.2,0q0-1.1,0-2.2c0-1.85,0-3.71,0-5.56a.75.75,0,0,1,0-.91v0c-.06-.09.1-.25.12-.34a1.91,1.91,0,0,0,0-.33c-.11-.11-.12-.17-.1-.18a.53.53,0,0,1,0-.56c-.18-2.19.5-4.33-1.75-6.43-1,.22-1,.52-1.16.79a14.15,14.15,0,0,0-1.22,5.23c-.55,5.17-.87,10.34-1.18,15.52-.05.89-.22,1.78-.21,2.67a.41.41,0,0,1,0,.06C70.18,682.48,71.5,682.45,72.83,682.47Z"/><path class="cls-27" d="M361.52,593.8q0-4.61,0-9.21c0-7,0-13.92,0-20.88a4.17,4.17,0,0,1,.85-2.62c2.64-3.66,5.27-7.34,7.82-11.07.53-.77,1.61-1.88.76-2.64s-1.82.43-2.52,1.06c-2.24,2-4.39,4.13-6.9,6.51,0-4.54.17-8.74,0-12.91s-.44-8.25-2.14-12.28a4.41,4.41,0,0,0-1.3,3.06,166.9,166.9,0,0,0-1.5,20.61c-.68,20-1.05,39.93-1.44,59.89-.07,3.45-.22,6.89-.27,10.33,0,1.06-.21,1.34-1.31,1a40.21,40.21,0,0,1-13.56-8.38c-9.1-8.08-15.44-17.83-17.78-29.93-1.71-8.85-.61-17.52,1.93-26a77.53,77.53,0,0,1,20-33.86,44.52,44.52,0,0,1,5.53-4.48,14.4,14.4,0,0,1,15.15-1.49c10.3,4.56,18.54,11.69,25.53,20.37,5.7,7.08,9.95,14.93,11.64,24,2,10.81-.21,21-5.38,30.45-6.88,12.64-16.58,22.37-30,28-1.09.46-2.25.75-3.38,1.13s-1.51.17-1.5-1.08q0-9.63-.06-19.27a3.24,3.24,0,0,1,1-2.19c5-6.13,10.24-12,14.92-18.43a25.22,25.22,0,0,0,3.35-6.46c.17-.48.73-1.16,0-1.6-.53-.34-1,.19-1.41.51-1.41,1.18-2.84,2.35-4.16,3.63C370.55,584,366.31,589,361.52,593.8Z"/><circle class="cls-28" cx="385.49" cy="572.15" r="2.97"/><circle class="cls-29" cx="375.08" cy="543.91" r="2.52"/><path class="cls-27" d="M358.88,675.48l2.51,0a5.82,5.82,0,0,1,.67-1.25q0-3.73-.07-7.46a1.61,1.61,0,0,1-.59-1c-.06-.69.45-1.35.63-2-.09.23-.12-.68-.17-.84a2.64,2.64,0,0,1,.42-2.7l-.39,0q0-2.18,0-4.35c0-3.67,0-7.34,0-11a1.48,1.48,0,0,1-.09-1.8l0,0c-.12-.18.2-.49.24-.67a3.78,3.78,0,0,0,.08-.65c-.21-.22-.23-.33-.19-.36a1,1,0,0,1,.06-1.1c-.35-4.33,1-8.57-3.47-12.72-2,.43-2,1-2.29,1.57-1.76,3.43-2.05,6.9-2.42,10.36-1.09,10.24-1.72,20.48-2.34,30.72-.11,1.76-.43,3.52-.42,5.29a.81.81,0,0,1,0,.11C353.63,675.5,356.23,675.44,358.88,675.48Z"/><path class="cls-30" d="M424.34,622.2q0-3.48,0-7c0-5.25,0-10.51,0-15.76a3.15,3.15,0,0,1,.64-2c2-2.76,4-5.54,5.9-8.35.4-.58,1.22-1.42.58-2s-1.38.32-1.9.8c-1.69,1.52-3.31,3.12-5.21,4.92,0-3.43.13-6.6,0-9.74a26.73,26.73,0,0,0-1.62-9.27,3.33,3.33,0,0,0-1,2.31,126,126,0,0,0-1.13,15.56c-.51,15.07-.79,30.14-1.09,45.22-.05,2.6-.17,5.2-.2,7.8,0,.8-.16,1-1,.72A30.36,30.36,0,0,1,408,639.15c-6.87-6.1-11.66-13.46-13.42-22.6-1.29-6.68-.46-13.23,1.46-19.66a58.54,58.54,0,0,1,15.08-25.57,33.61,33.61,0,0,1,4.18-3.39,10.87,10.87,0,0,1,11.44-1.13c7.78,3.44,14,8.83,19.27,15.38a40.68,40.68,0,0,1,8.79,18.09c1.53,8.16-.16,15.82-4.06,23-5.19,9.54-12.52,16.89-22.67,21.15-.82.35-1.7.57-2.55.85s-1.14.13-1.13-.82q0-7.27,0-14.55a2.44,2.44,0,0,1,.73-1.65c3.77-4.63,7.73-9.09,11.26-13.92a19,19,0,0,0,2.53-4.88c.13-.36.55-.88,0-1.21s-.77.14-1.06.39c-1.07.89-2.14,1.78-3.14,2.74C431.15,614.82,428,618.58,424.34,622.2Z"/><circle class="cls-32" cx="442.43" cy="605.85" r="2.24"/><circle class="cls-2" cx="435.54" cy="584.83" r="2.24"/><path class="cls-30" d="M422.34,689.5l1.9,0a5.37,5.37,0,0,1,.51-1.09q0-3.25-.06-6.51a1.46,1.46,0,0,1-.44-.87,6.28,6.28,0,0,1,.48-1.77c-.07.2-.09-.59-.12-.74a2.59,2.59,0,0,1,.32-2.35l-.29,0q0-1.9,0-3.8c0-3.2,0-6.41,0-9.61a1.45,1.45,0,0,1-.07-1.57v0c-.09-.16.15-.43.18-.58a3.79,3.79,0,0,0,.06-.57c-.16-.19-.18-.29-.15-.32a1,1,0,0,1,0-1c-.27-3.78.74-7.47-2.62-11.1-1.54.38-1.53.91-1.73,1.37-1.33,3-1.55,6-1.83,9-.82,8.93-1.3,17.87-1.77,26.8-.08,1.54-.33,3.07-.31,4.61a.82.82,0,0,1,0,.1C418.38,689.52,420.34,689.47,422.34,689.5Z"/><path class="cls-27" d="M39.16,593.6q0-3.95,0-7.9c0-6,0-11.94,0-17.9a3.58,3.58,0,0,1,.73-2.24c2.27-3.14,4.51-6.29,6.7-9.49.45-.66,1.38-1.61.65-2.26s-1.56.37-2.16.91c-1.92,1.73-3.76,3.54-5.92,5.59,0-3.9.14-7.49,0-11.07s-.38-7.07-1.84-10.53a3.78,3.78,0,0,0-1.11,2.62A143.11,143.11,0,0,0,34.87,559c-.58,17.12-.9,34.24-1.23,51.36-.06,3-.19,5.91-.23,8.86,0,.91-.18,1.15-1.13.82a34.48,34.48,0,0,1-11.63-7.18c-7.8-6.93-13.24-15.29-15.25-25.66-1.47-7.59-.52-15,1.65-22.33a66.48,66.48,0,0,1,17.13-29A38.18,38.18,0,0,1,28.93,532a12.35,12.35,0,0,1,13-1.28c8.83,3.91,15.9,10,21.89,17.47,4.89,6.07,8.53,12.8,10,20.55,1.74,9.27-.18,18-4.62,26.11-5.9,10.84-14.22,19.18-25.75,24-.94.39-1.93.64-2.89,1s-1.29.15-1.29-.93q0-8.26-.05-16.52a2.77,2.77,0,0,1,.83-1.88c4.28-5.25,8.78-10.33,12.79-15.8a21.62,21.62,0,0,0,2.87-5.54c.15-.41.62-1,0-1.37s-.87.16-1.21.44c-1.21,1-2.43,2-3.57,3.11C46.9,585.22,43.26,589.49,39.16,593.6Z"/><circle class="cls-29" cx="59.71" cy="575.04" r="2.54"/><circle class="cls-2" cx="51.88" cy="551.16" r="2.54"/><path class="cls-27" d="M36.89,677.67l2.15.05a7.66,7.66,0,0,1,.58-1.44q0-4.29-.06-8.58a2.06,2.06,0,0,1-.5-1.14,9.35,9.35,0,0,1,.54-2.33c-.08.27-.1-.78-.14-1a3.89,3.89,0,0,1,.36-3.1l-.33,0q0-2.5,0-5c0-4.22,0-8.44,0-12.66a2.17,2.17,0,0,1-.08-2.07l0,0c-.1-.2.17-.57.21-.77a5.78,5.78,0,0,0,.06-.75c-.18-.25-.2-.38-.17-.42a1.55,1.55,0,0,1,.05-1.27c-.3-5,.84-9.85-3-14.63-1.75.5-1.74,1.19-2,1.8-1.51,3.94-1.76,7.93-2.08,11.91-.93,11.77-1.47,23.55-2,35.32-.09,2-.37,4.05-.36,6.08a1.25,1.25,0,0,1,0,.13C32.39,677.69,34.62,677.62,36.89,677.67Z"/><circle class="cls-2" cx="323.41" cy="627.08" r="2.77"/><circle class="cls-33" cx="314.88" cy="601.04" r="2.77"/><path class="cls-27" d="M203.58,590.47q0-3.95,0-7.9c0-6,0-11.94,0-17.9a3.58,3.58,0,0,1,.73-2.24c2.27-3.14,4.51-6.29,6.7-9.49.45-.66,1.38-1.61.65-2.26s-1.56.37-2.16.91c-1.92,1.73-3.76,3.54-5.92,5.59,0-3.9.14-7.49,0-11.07s-.38-7.07-1.84-10.53a3.78,3.78,0,0,0-1.11,2.62,143.11,143.11,0,0,0-1.28,17.67c-.58,17.12-.9,34.24-1.23,51.36-.06,3-.19,5.91-.23,8.86,0,.91-.18,1.15-1.13.82a34.48,34.48,0,0,1-11.63-7.18c-7.8-6.93-13.24-15.29-15.25-25.66-1.47-7.59-.52-15,1.65-22.33a66.48,66.48,0,0,1,17.13-29,38.18,38.18,0,0,1,4.74-3.85,12.35,12.35,0,0,1,13-1.28c8.83,3.91,15.9,10,21.89,17.47,4.89,6.07,8.53,12.8,10,20.55,1.74,9.27-.18,18-4.62,26.11-5.9,10.84-14.22,19.18-25.75,24-.94.39-1.93.64-2.89,1s-1.29.15-1.29-.93q0-8.26-.05-16.52a2.77,2.77,0,0,1,.83-1.88c4.28-5.25,8.78-10.33,12.79-15.8a21.62,21.62,0,0,0,2.87-5.54c.15-.41.62-1,0-1.37s-.87.16-1.21.44c-1.21,1-2.43,2-3.57,3.11C211.33,582.09,207.69,586.36,203.58,590.47Z"/><circle class="cls-34" cx="224.14" cy="571.91" r="2.54"/><circle class="cls-29" cx="216.31" cy="548.02" r="2.54"/><path class="cls-27" d="M201.31,676.83l2.15.05a8.17,8.17,0,0,1,.58-1.5q0-4.47-.06-8.93a2.19,2.19,0,0,1-.5-1.19,10.08,10.08,0,0,1,.54-2.43c-.08.28-.1-.81-.14-1a4.2,4.2,0,0,1,.36-3.23l-.33,0q0-2.61,0-5.21c0-4.4,0-8.79,0-13.19a2.35,2.35,0,0,1-.08-2.16l0,0c-.1-.21.17-.59.21-.8a6.26,6.26,0,0,0,.06-.78c-.18-.26-.2-.4-.17-.43a1.67,1.67,0,0,1,.05-1.32c-.3-5.19.84-10.26-3-15.24-1.75.52-1.74,1.24-2,1.88-1.51,4.11-1.76,8.26-2.08,12.41-.93,12.26-1.47,24.53-2,36.79-.09,2.11-.37,4.22-.36,6.33a1.36,1.36,0,0,1,0,.14C196.82,676.85,199,676.78,201.31,676.83Z"/><path class="cls-35" d="M517.74,624.09q0-3.49,0-7c0-5.27,0-10.54,0-15.82a3.16,3.16,0,0,1,.65-2c2-2.77,4-5.56,5.92-8.38.4-.58,1.22-1.42.58-2s-1.38.32-1.91.8c-1.69,1.53-3.33,3.13-5.23,4.93,0-3.44.13-6.62,0-9.78s-.34-6.25-1.62-9.3a3.34,3.34,0,0,0-1,2.32A126.42,126.42,0,0,0,514,593.52c-.51,15.12-.8,30.24-1.09,45.37-.05,2.61-.17,5.22-.2,7.83,0,.8-.16,1-1,.73a30.46,30.46,0,0,1-10.27-6.35c-6.89-6.12-11.7-13.51-13.47-22.67-1.29-6.7-.46-13.27,1.46-19.73a58.73,58.73,0,0,1,15.13-25.65,33.72,33.72,0,0,1,4.19-3.4,10.91,10.91,0,0,1,11.48-1.13c7.8,3.45,14,8.86,19.34,15.43a40.82,40.82,0,0,1,8.82,18.15c1.53,8.19-.16,15.87-4.08,23.07-5.21,9.57-12.56,16.95-22.75,21.22-.83.35-1.7.57-2.56.86s-1.14.13-1.14-.82q0-7.3,0-14.6a2.45,2.45,0,0,1,.73-1.66c3.78-4.64,7.76-9.12,11.3-14a19.1,19.1,0,0,0,2.54-4.89c.13-.36.55-.88,0-1.21s-.77.15-1.07.39c-1.07.89-2.15,1.78-3.15,2.75C524.58,616.69,521.37,620.46,517.74,624.09Z"/><circle class="cls-35" cx="535.9" cy="607.69" r="2.25"/><path class="cls-35" d="M515.74,686l1.9,0a4.41,4.41,0,0,1,.51-.95q0-2.83-.06-5.65a1.22,1.22,0,0,1-.44-.75c0-.52.34-1,.48-1.54-.07.18-.09-.51-.13-.64a2,2,0,0,1,.32-2l-.3,0q0-1.65,0-3.3c0-2.78,0-5.56,0-8.34a1.12,1.12,0,0,1-.07-1.37v0c-.09-.14.15-.37.18-.51a2.87,2.87,0,0,0,.06-.49c-.16-.17-.18-.25-.15-.27a.79.79,0,0,1,0-.84c-.27-3.28.75-6.49-2.63-9.64-1.54.33-1.53.79-1.74,1.19-1.33,2.6-1.56,5.22-1.84,7.85-.83,7.76-1.3,15.51-1.77,23.27-.08,1.33-.33,2.67-.31,4a.62.62,0,0,1,0,.09C511.76,686,513.73,685.94,515.74,686Z"/><path class="cls-35" d="M122.06,600.55q0-4.86,0-9.72c0-7.34,0-14.68,0-22a4.4,4.4,0,0,1,.9-2.76c2.79-3.86,5.55-7.74,8.25-11.67.55-.81,1.7-2,.8-2.78s-1.92.45-2.66,1.12c-2.36,2.13-4.63,4.36-7.28,6.87,0-4.79.18-9.22-.05-13.62s-.47-8.7-2.26-13a4.65,4.65,0,0,0-1.37,3.23A176.08,176.08,0,0,0,116.79,558c-.71,21.06-1.11,42.12-1.52,63.19-.07,3.63-.24,7.27-.28,10.9,0,1.12-.22,1.41-1.39,1a42.42,42.42,0,0,1-14.31-8.84c-9.6-8.52-16.29-18.81-18.76-31.57-1.8-9.33-.64-18.48,2-27.47a81.79,81.79,0,0,1,21.07-35.73,47,47,0,0,1,5.84-4.73,15.19,15.19,0,0,1,16-1.57C136.33,528,145,535.5,152.39,544.65c6,7.47,10.49,15.75,12.28,25.28,2.14,11.4-.22,22.1-5.68,32.13-7.26,13.33-17.49,23.6-31.68,29.55-1.15.48-2.37.79-3.56,1.19s-1.59.18-1.58-1.14q0-10.16-.07-20.33a3.41,3.41,0,0,1,1-2.31c5.27-6.46,10.81-12.71,15.74-19.44a26.6,26.6,0,0,0,3.53-6.81c.18-.5.77-1.22,0-1.69-.56-.36-1.08.2-1.48.54-1.49,1.24-3,2.48-4.39,3.83C131.59,590.24,127.11,595.5,122.06,600.55Z"/><circle class="cls-36" cx="137.71" cy="548.33" r="3.13"/><path class="cls-35" d="M119.27,686.73l2.65,0a6.14,6.14,0,0,1,.71-1.32q0-3.94-.08-7.87a1.7,1.7,0,0,1-.62-1c-.07-.73.48-1.42.67-2.14-.09.24-.13-.72-.17-.89a2.79,2.79,0,0,1,.44-2.84l-.41,0q0-2.3,0-4.59c0-3.87,0-7.75,0-11.62a1.56,1.56,0,0,1-.1-1.9l0,0c-.12-.19.21-.52.25-.71a4,4,0,0,0,.08-.68c-.22-.23-.25-.35-.2-.38a1.1,1.1,0,0,1,.06-1.16c-.37-4.57,1-9-3.66-13.42-2.15.46-2.13,1.1-2.42,1.65-1.85,3.62-2.17,7.28-2.56,10.93-1.15,10.8-1.81,21.61-2.47,32.41-.11,1.86-.46,3.72-.44,5.58a.86.86,0,0,1,0,.12C113.73,686.75,116.48,686.68,119.27,686.73Z"/><circle class="cls-2" cx="146.25" cy="577.46" r="2.54"/><circle class="cls-29" cx="176.31" cy="635.08" r="2.54"/><path class="cls-30" d="M253.49,588.76q0-4.86,0-9.72c0-7.34,0-14.68,0-22a4.4,4.4,0,0,1,.9-2.76c2.79-3.86,5.55-7.74,8.25-11.67.55-.81,1.7-2,.8-2.78s-1.92.45-2.66,1.12c-2.36,2.13-4.63,4.36-7.28,6.87,0-4.79.18-9.22-.05-13.62s-.47-8.7-2.26-13a4.65,4.65,0,0,0-1.37,3.23,176.08,176.08,0,0,0-1.58,21.74c-.71,21.06-1.11,42.12-1.52,63.19-.07,3.63-.24,7.27-.28,10.9,0,1.12-.22,1.41-1.39,1a42.42,42.42,0,0,1-14.31-8.84c-9.6-8.52-16.29-18.81-18.76-31.57-1.8-9.33-.64-18.48,2-27.47a81.79,81.79,0,0,1,21.07-35.73,47,47,0,0,1,5.84-4.73,15.19,15.19,0,0,1,16-1.57c10.87,4.81,19.56,12.34,26.93,21.49,6,7.47,10.49,15.75,12.28,25.28,2.14,11.4-.22,22.1-5.68,32.13-7.26,13.33-17.49,23.6-31.68,29.55-1.15.48-2.37.79-3.56,1.19s-1.59.18-1.58-1.14q0-10.16-.07-20.33a3.41,3.41,0,0,1,1-2.31c5.27-6.46,10.81-12.71,15.74-19.44a26.6,26.6,0,0,0,3.53-6.81c.18-.5.77-1.22,0-1.69-.56-.36-1.08.2-1.48.54-1.49,1.24-3,2.48-4.39,3.83C263,578.45,258.55,583.71,253.49,588.76Z"/><circle class="cls-37" cx="269.15" cy="536.54" r="3.13"/><path class="cls-30" d="M250.7,674.93l2.65,0a6.14,6.14,0,0,1,.71-1.32q0-3.94-.08-7.87a1.7,1.7,0,0,1-.62-1c-.07-.73.48-1.42.67-2.14-.09.24-.13-.72-.17-.89a2.79,2.79,0,0,1,.44-2.84l-.41,0q0-2.3,0-4.59c0-3.87,0-7.75,0-11.62a1.56,1.56,0,0,1-.1-1.9l0,0c-.12-.19.21-.52.25-.71a4,4,0,0,0,.08-.68c-.22-.23-.25-.35-.2-.38a1.1,1.1,0,0,1,.06-1.16c-.37-4.57,1-9-3.66-13.42-2.15.46-2.13,1.1-2.42,1.65-1.85,3.62-2.17,7.28-2.56,10.93-1.15,10.8-1.81,21.61-2.47,32.41-.11,1.86-.46,3.72-.44,5.58a.86.86,0,0,1,0,.12C245.17,675,247.91,674.89,250.7,674.93Z"/><circle class="cls-32" cx="277" cy="565.64" r="2.54"/><path class="cls-35" d="M301,647.32q0-4.31,0-8.61c0-6.51,0-13,0-19.52a3.9,3.9,0,0,1,.8-2.45c2.47-3.42,4.92-6.86,7.31-10.35.49-.72,1.51-1.76.71-2.46s-1.7.4-2.36,1c-2.09,1.89-4.1,3.86-6.45,6.09,0-4.25.16-8.17,0-12.07s-.41-7.71-2-11.49a4.12,4.12,0,0,0-1.22,2.86,156,156,0,0,0-1.4,19.27c-.63,18.66-1,37.33-1.34,56-.06,3.22-.21,6.44-.25,9.66,0,1-.2,1.25-1.23.9a37.59,37.59,0,0,1-12.68-7.83c-8.5-7.55-14.44-16.67-16.63-28-1.6-8.27-.57-16.38,1.8-24.35a72.49,72.49,0,0,1,18.67-31.66,41.63,41.63,0,0,1,5.17-4.19A13.46,13.46,0,0,1,304,578.73c9.63,4.26,17.33,10.93,23.87,19,5.33,6.62,9.3,14,10.88,22.4,1.89,10.1-.2,19.59-5,28.47-6.43,11.82-15.5,20.92-28.08,26.19-1,.43-2.1.7-3.16,1.06s-1.41.16-1.4-1q0-9-.06-18a3,3,0,0,1,.9-2c4.67-5.73,9.58-11.26,13.95-17.23a23.58,23.58,0,0,0,3.13-6c.16-.45.68-1.08,0-1.5-.49-.32-1,.18-1.32.48-1.32,1.1-2.65,2.2-3.89,3.39C309.45,638.18,305.48,642.84,301,647.32Z"/><circle class="cls-2" cx="528.98" cy="586.6" r="2.25"/><circle class="cls-2" cx="312.47" cy="600.9" r="2.25"/><circle class="cls-36" cx="323.59" cy="624.59" r="3.13"/></g></g><g class="cls-25"><g class="cls-38"><path class="cls-27" d="M1288.21,610q0-3.8,0-7.6c0-5.74,0-11.48,0-17.22a3.44,3.44,0,0,0-.7-2.16c-2.18-3-4.34-6.05-6.45-9.13-.43-.63-1.33-1.55-.63-2.17s1.5.35,2.08.87c1.84,1.67,3.62,3.41,5.69,5.37,0-3.75-.14-7.21,0-10.65s.37-6.81,1.77-10.13a3.64,3.64,0,0,1,1.07,2.52,137.68,137.68,0,0,1,1.24,17c.56,16.47.87,32.94,1.19,49.41.06,2.84.19,5.68.22,8.53,0,.87.17,1.1,1.08.79a33.17,33.17,0,0,0,11.19-6.91c7.5-6.66,12.74-14.71,14.67-24.69,1.41-7.3.5-14.45-1.59-21.48a64,64,0,0,0-16.48-27.93,36.73,36.73,0,0,0-4.56-3.7,11.88,11.88,0,0,0-12.5-1.23c-8.5,3.76-15.29,9.65-21.06,16.8-4.7,5.84-8.21,12.32-9.6,19.77-1.67,8.91.17,17.28,4.44,25.12,5.67,10.43,13.68,18.45,24.77,23.11.9.38,1.86.62,2.78.93s1.24.14,1.24-.89q0-7.95.05-15.9a2.67,2.67,0,0,0-.8-1.81c-4.12-5.05-8.45-9.94-12.3-15.2a20.8,20.8,0,0,1-2.76-5.33c-.14-.39-.6-1,0-1.32s.84.16,1.16.42c1.17,1,2.34,1.94,3.43,3C1280.76,602,1284.26,606.06,1288.21,610Z"/><circle class="cls-28" cx="1268.94" cy="592.15" r="2.45"/><circle class="cls-29" cx="1277.03" cy="568.86" r="2.08"/><path class="cls-27" d="M1290.39,677.4l-2.07,0a4.8,4.8,0,0,0-.55-1q0-3.08.06-6.15a1.33,1.33,0,0,0,.48-.82c.05-.57-.37-1.11-.52-1.67.07.19.1-.56.14-.7a2.18,2.18,0,0,0-.35-2.22l.32,0q0-1.8,0-3.59c0-3,0-6.06,0-9.09a1.22,1.22,0,0,0,.08-1.49v0c.1-.15-.16-.41-.2-.55a3.12,3.12,0,0,1-.06-.53c.17-.18.19-.27.16-.3a.86.86,0,0,0,0-.91c.29-3.57-.81-7.07,2.86-10.5,1.68.36,1.67.86,1.89,1.29,1.45,2.83,1.7,5.69,2,8.55.9,8.45,1.42,16.89,1.93,25.34.09,1.45.36,2.91.34,4.36a.67.67,0,0,0,0,.09C1294.72,677.41,1292.57,677.36,1290.39,677.4Z"/><circle class="cls-2" cx="1319.65" cy="637.47" r="2.29"/><path class="cls-30" d="M1222.09,600q0-5.24,0-10.48c0-7.92,0-15.83,0-23.75a4.74,4.74,0,0,0-1-3c-3-4.16-6-8.35-8.89-12.59-.6-.87-1.83-2.14-.87-3s2.07.49,2.87,1.21c2.54,2.3,5,4.7,7.85,7.41,0-5.17-.19-9.94.05-14.68s.5-9.39,2.44-14a5,5,0,0,1,1.48,3.48c1.23,7.77,1.44,15.61,1.7,23.45.77,22.71,1.2,45.42,1.64,68.14.08,3.92.26,7.84.31,11.76,0,1.2.24,1.52,1.5,1.09a45.74,45.74,0,0,0,15.43-9.53c10.35-9.19,17.57-20.28,20.23-34,1.94-10.06.69-19.93-2.19-29.63-4.38-14.71-11.71-27.71-22.72-38.53a50.65,50.65,0,0,0-6.3-5.1c-5.44-3.86-11.12-4.4-17.24-1.7-11.72,5.19-21.09,13.3-29,23.17-6.49,8.06-11.32,17-13.24,27.26-2.3,12.29.24,23.83,6.12,34.65,7.82,14.38,18.86,25.45,34.17,31.87,1.24.52,2.56.85,3.84,1.29s1.71.19,1.71-1.23q0-11,.07-21.92a3.68,3.68,0,0,0-1.1-2.49c-5.68-7-11.65-13.7-17-21a28.69,28.69,0,0,1-3.81-7.35c-.19-.54-.83-1.32,0-1.82.6-.38,1.16.22,1.6.59,1.61,1.34,3.23,2.68,4.73,4.13C1211.82,588.89,1216.64,594.56,1222.09,600Z"/><circle class="cls-31" cx="1205.21" cy="543.69" r="3.38"/><path class="cls-30" d="M1225.11,692.93l-2.86.05a6.62,6.62,0,0,0-.76-1.42q0-4.24.09-8.49a1.83,1.83,0,0,0,.67-1.13c.07-.78-.51-1.53-.72-2.31.1.26.14-.77.19-1a3,3,0,0,0-.48-3.07l.44,0q0-2.48,0-5c0-4.18,0-8.35,0-12.53a1.69,1.69,0,0,0,.1-2.05l0,0c.13-.2-.22-.56-.27-.76a4.3,4.3,0,0,1-.09-.74c.24-.25.26-.38.22-.41a1.18,1.18,0,0,0-.07-1.26c.4-4.93-1.12-9.75,3.94-14.48,2.32.49,2.3,1.18,2.61,1.78,2,3.9,2.34,7.85,2.76,11.78,1.24,11.65,2,23.3,2.66,35,.12,2,.49,4,.47,6a.93.93,0,0,0,0,.13C1231.07,693,1228.11,692.89,1225.11,692.93Z"/><circle class="cls-32" cx="1196.75" cy="575.08" r="2.74"/><path class="cls-27" d="M1128.47,565.18q0-4.73,0-9.47c0-7.15,0-14.31,0-21.46a4.29,4.29,0,0,1,.88-2.69c2.72-3.76,5.41-7.54,8-11.37.54-.79,1.66-1.93.78-2.71s-1.87.44-2.59,1.09c-2.3,2.08-4.51,4.24-7.09,6.7,0-4.67.17-9,0-13.27s-.46-8.48-2.2-12.63a4.53,4.53,0,0,0-1.34,3.15,171.54,171.54,0,0,0-1.54,21.18c-.7,20.52-1.08,41-1.48,61.56-.07,3.54-.23,7.08-.28,10.62,0,1.09-.21,1.38-1.35,1a41.32,41.32,0,0,1-13.94-8.61c-9.35-8.3-15.87-18.33-18.28-30.76-1.76-9.09-.63-18,2-26.77a79.69,79.69,0,0,1,20.53-34.81,45.76,45.76,0,0,1,5.69-4.61,14.8,14.8,0,0,1,15.57-1.53c10.59,4.69,19.06,12,26.24,20.94,5.86,7.28,10.22,15.35,12,24.63,2.08,11.11-.22,21.53-5.53,31.3-7.07,13-17,23-30.87,28.79-1.12.47-2.31.77-3.47,1.16s-1.55.18-1.54-1.11q0-9.9-.06-19.81a3.33,3.33,0,0,1,1-2.25c5.13-6.3,10.53-12.38,15.33-18.94a25.92,25.92,0,0,0,3.44-6.64c.18-.49.75-1.19,0-1.65-.54-.35-1,.2-1.45.53-1.45,1.21-2.92,2.42-4.28,3.73C1137.75,555.13,1133.4,560.25,1128.47,565.18Z"/><circle class="cls-2" cx="1143.72" cy="514.3" r="3.05"/><path class="cls-27" d="M1125.75,686.31l2.58.08a14.36,14.36,0,0,1,.69-2.25q0-6.73-.08-13.45a3.78,3.78,0,0,1-.6-1.79,18.53,18.53,0,0,1,.65-3.66c-.09.42-.13-1.23-.17-1.52a7.77,7.77,0,0,1,.43-4.86l-.4-.06q0-3.92,0-7.85c0-6.62,0-13.24,0-19.86a4.34,4.34,0,0,1-.09-3.25l0-.07c-.12-.32.2-.89.25-1.21s.06-.78.08-1.17c-.21-.4-.24-.6-.2-.65a3.11,3.11,0,0,1,.06-2c-.36-7.81,1-15.45-3.56-22.94a3.17,3.17,0,0,0-2.36,2.83c-1.8,6.18-2.11,12.43-2.49,18.68-1.12,18.46-1.77,36.92-2.4,55.39-.11,3.18-.45,6.35-.43,9.53,0,.07,0,.14,0,.21C1120.36,686.34,1123,686.24,1125.75,686.31Z"/><path class="cls-27" d="M810.86,647q0-3.24,0-6.47c0-4.89,0-9.78,0-14.67a2.93,2.93,0,0,1,.6-1.84c1.86-2.57,3.7-5.16,5.49-7.77.37-.54,1.13-1.32.54-1.85s-1.28.3-1.77.74c-1.57,1.42-3.08,2.9-4.85,4.58,0-3.19.12-6.14,0-9.07a24.87,24.87,0,0,0-1.5-8.63,3.1,3.1,0,0,0-.91,2.15,117.25,117.25,0,0,0-1.05,14.48c-.48,14-.74,28.05-1,42.08,0,2.42-.16,4.84-.19,7.26,0,.74-.15.94-.92.67a28.25,28.25,0,0,1-9.53-5.89c-6.39-5.67-10.85-12.53-12.49-21a38.06,38.06,0,0,1,1.35-18.3,54.47,54.47,0,0,1,14-23.79,31.28,31.28,0,0,1,3.89-3.15,10.12,10.12,0,0,1,10.64-1,47.94,47.94,0,0,1,17.93,14.31,37.86,37.86,0,0,1,8.18,16.83c1.42,7.59-.15,14.72-3.78,21.4-4.83,8.88-11.65,15.72-21.1,19.68-.77.32-1.58.53-2.37.79s-1.06.12-1.05-.76q0-6.77,0-13.54a2.27,2.27,0,0,1,.68-1.54c3.51-4.3,7.2-8.46,10.48-12.95a17.72,17.72,0,0,0,2.35-4.54c.12-.34.51-.81,0-1.13s-.72.13-1,.36c-1,.83-2,1.65-2.92,2.55C817.2,640.1,814.22,643.6,810.86,647Z"/><circle class="cls-2" cx="821.28" cy="612.18" r="2.08"/><path class="cls-30" d="M726,636.1q0-2.33,0-4.65c0-3.51,0-7,0-10.54a2.11,2.11,0,0,1,.43-1.32c1.34-1.85,2.66-3.71,3.95-5.59.27-.39.81-.95.39-1.33s-.92.22-1.27.54c-1.13,1-2.22,2.09-3.49,3.29,0-2.29.08-4.41,0-6.52a17.88,17.88,0,0,0-1.08-6.2,2.23,2.23,0,0,0-.66,1.55,84.29,84.29,0,0,0-.76,10.41c-.34,10.08-.53,20.16-.73,30.25,0,1.74-.11,3.48-.14,5.22,0,.53-.11.68-.66.48a20.3,20.3,0,0,1-6.85-4.23,26.69,26.69,0,0,1-9-15.11,27.36,27.36,0,0,1,1-13.15,39.15,39.15,0,0,1,10.09-17.1A22.48,22.48,0,0,1,720,599.8a7.27,7.27,0,0,1,7.65-.75,34.46,34.46,0,0,1,12.89,10.29,27.21,27.21,0,0,1,5.88,12.1,22.71,22.71,0,0,1-2.72,15.38A30.47,30.47,0,0,1,728.51,651c-.55.23-1.14.38-1.7.57s-.76.09-.76-.55q0-4.87,0-9.73a1.63,1.63,0,0,1,.49-1.11c2.52-3.09,5.17-6.08,7.53-9.31a12.73,12.73,0,0,0,1.69-3.26c.09-.24.37-.59,0-.81s-.52.1-.71.26c-.71.6-1.43,1.19-2.1,1.83C730.55,631.16,728.41,633.68,726,636.1Z"/><circle class="cls-32" cx="733.49" cy="611.1" r="1.5"/><path class="cls-30" d="M724.66,677.35l1.27,0a2.94,2.94,0,0,1,.34-.63q0-1.88,0-3.77a.81.81,0,0,1-.3-.5c0-.35.23-.68.32-1,0,.12-.06-.34-.08-.43a1.33,1.33,0,0,1,.21-1.36l-.2,0q0-1.1,0-2.2c0-1.85,0-3.71,0-5.56a.75.75,0,0,1,0-.91v0c-.06-.09.1-.25.12-.34a1.91,1.91,0,0,0,0-.33c-.11-.11-.12-.17-.1-.18a.53.53,0,0,1,0-.56c-.18-2.19.5-4.33-1.75-6.43-1,.22-1,.52-1.16.79a14.15,14.15,0,0,0-1.22,5.23c-.55,5.17-.87,10.34-1.18,15.52-.05.89-.22,1.78-.21,2.67a.41.41,0,0,1,0,.06C722,677.36,723.32,677.33,724.66,677.35Z"/><path class="cls-27" d="M1013.35,588.68q0-4.61,0-9.21c0-7,0-13.92,0-20.88a4.17,4.17,0,0,1,.85-2.62c2.64-3.66,5.27-7.34,7.82-11.07.53-.77,1.61-1.88.76-2.64s-1.82.43-2.52,1.06c-2.24,2-4.39,4.13-6.9,6.51,0-4.54.17-8.74,0-12.91s-.44-8.25-2.14-12.28a4.41,4.41,0,0,0-1.3,3.06,166.9,166.9,0,0,0-1.5,20.61c-.68,20-1.05,39.93-1.44,59.89-.07,3.45-.22,6.89-.27,10.33,0,1.06-.21,1.34-1.31,1a40.21,40.21,0,0,1-13.56-8.38c-9.1-8.08-15.44-17.83-17.78-29.93-1.71-8.85-.61-17.52,1.93-26a77.53,77.53,0,0,1,20-33.86,44.52,44.52,0,0,1,5.53-4.48,14.4,14.4,0,0,1,15.15-1.49c10.3,4.56,18.54,11.69,25.53,20.37,5.7,7.08,9.95,14.93,11.64,24,2,10.81-.21,21-5.38,30.45-6.88,12.64-16.58,22.37-30,28-1.09.46-2.25.75-3.38,1.13s-1.51.17-1.5-1.08q0-9.63-.06-19.27a3.24,3.24,0,0,1,1-2.19c5-6.13,10.24-12,14.92-18.43a25.22,25.22,0,0,0,3.35-6.46c.17-.48.73-1.16,0-1.6-.53-.34-1,.19-1.41.51-1.41,1.18-2.84,2.35-4.16,3.63C1022.38,578.91,1018.14,583.89,1013.35,588.68Z"/><circle class="cls-28" cx="1037.32" cy="567.03" r="2.97"/><circle class="cls-29" cx="1026.91" cy="538.79" r="2.52"/><path class="cls-27" d="M1010.7,670.36l2.51,0a5.82,5.82,0,0,1,.67-1.25q0-3.73-.07-7.46a1.61,1.61,0,0,1-.59-1c-.06-.69.45-1.35.63-2-.09.23-.12-.68-.17-.84a2.64,2.64,0,0,1,.42-2.7l-.39,0q0-2.18,0-4.35c0-3.67,0-7.34,0-11a1.48,1.48,0,0,1-.09-1.8l0,0c-.12-.18.2-.49.24-.67a3.78,3.78,0,0,0,.08-.65c-.21-.22-.23-.33-.19-.36a1,1,0,0,1,.06-1.1c-.35-4.33,1-8.57-3.47-12.72-2,.43-2,1-2.29,1.57-1.76,3.43-2.05,6.9-2.42,10.36-1.09,10.24-1.72,20.48-2.34,30.72-.11,1.76-.43,3.52-.42,5.29a.81.81,0,0,1,0,.11C1005.46,670.38,1008.06,670.32,1010.7,670.36Z"/><path class="cls-30" d="M1076.16,617.08q0-3.48,0-7c0-5.25,0-10.51,0-15.76a3.15,3.15,0,0,1,.64-2c2-2.76,4-5.54,5.9-8.35.4-.58,1.22-1.42.58-2s-1.38.32-1.9.8c-1.69,1.52-3.31,3.12-5.21,4.92,0-3.43.13-6.6,0-9.74a26.73,26.73,0,0,0-1.62-9.27,3.33,3.33,0,0,0-1,2.31,126,126,0,0,0-1.13,15.56c-.51,15.07-.79,30.14-1.09,45.22-.05,2.6-.17,5.2-.2,7.8,0,.8-.16,1-1,.72a30.36,30.36,0,0,1-10.24-6.33c-6.87-6.1-11.66-13.46-13.42-22.6-1.29-6.68-.46-13.23,1.46-19.66A58.54,58.54,0,0,1,1063,566.21a33.61,33.61,0,0,1,4.18-3.39,10.87,10.87,0,0,1,11.44-1.13c7.78,3.44,14,8.83,19.27,15.38a40.68,40.68,0,0,1,8.79,18.09c1.53,8.16-.16,15.82-4.06,23-5.19,9.54-12.52,16.89-22.67,21.15-.82.35-1.7.57-2.55.85s-1.14.13-1.13-.82q0-7.27,0-14.55a2.44,2.44,0,0,1,.73-1.65c3.77-4.63,7.73-9.09,11.26-13.92a19,19,0,0,0,2.53-4.88c.13-.36.55-.88,0-1.21s-.77.14-1.06.39c-1.07.89-2.14,1.78-3.14,2.74C1083,609.7,1079.78,613.47,1076.16,617.08Z"/><circle class="cls-32" cx="1094.26" cy="600.74" r="2.24"/><circle class="cls-2" cx="1087.37" cy="579.71" r="2.24"/><path class="cls-30" d="M1074.17,684.38l1.9,0a5.37,5.37,0,0,1,.51-1.09q0-3.25-.06-6.51a1.46,1.46,0,0,1-.44-.87,6.28,6.28,0,0,1,.48-1.77c-.07.2-.09-.59-.12-.74a2.59,2.59,0,0,1,.32-2.35l-.29,0q0-1.9,0-3.8c0-3.2,0-6.41,0-9.61a1.45,1.45,0,0,1-.07-1.57v0c-.09-.16.15-.43.18-.58a3.79,3.79,0,0,0,.06-.57c-.16-.19-.18-.29-.15-.32a1,1,0,0,1,0-1c-.27-3.78.74-7.47-2.62-11.1-1.54.38-1.53.91-1.73,1.37-1.33,3-1.55,6-1.83,9-.82,8.93-1.3,17.87-1.77,26.8-.08,1.54-.33,3.07-.31,4.61a.82.82,0,0,1,0,.1C1070.21,684.4,1072.17,684.35,1074.17,684.38Z"/><path class="cls-27" d="M691,588.48q0-3.95,0-7.9c0-6,0-11.94,0-17.9a3.58,3.58,0,0,1,.73-2.24c2.27-3.14,4.51-6.29,6.7-9.49.45-.66,1.38-1.61.65-2.26s-1.56.37-2.16.91c-1.92,1.73-3.76,3.54-5.92,5.59,0-3.9.14-7.49,0-11.07s-.38-7.07-1.84-10.53a3.78,3.78,0,0,0-1.11,2.62,143.11,143.11,0,0,0-1.28,17.67c-.58,17.12-.9,34.24-1.23,51.36-.06,3-.19,5.91-.23,8.86,0,.91-.18,1.15-1.13.82a34.48,34.48,0,0,1-11.63-7.18c-7.8-6.93-13.24-15.29-15.25-25.66-1.47-7.59-.52-15,1.65-22.33a66.48,66.48,0,0,1,17.13-29,38.18,38.18,0,0,1,4.74-3.85,12.35,12.35,0,0,1,13-1.28c8.83,3.91,15.9,10,21.89,17.47,4.89,6.07,8.53,12.8,10,20.55,1.74,9.27-.18,18-4.62,26.11-5.9,10.84-14.22,19.18-25.75,24-.94.39-1.93.64-2.89,1s-1.29.15-1.29-.93q0-8.26-.05-16.52a2.77,2.77,0,0,1,.83-1.88c4.28-5.25,8.78-10.33,12.79-15.8a21.62,21.62,0,0,0,2.87-5.54c.15-.41.62-1,0-1.37s-.87.16-1.21.44c-1.21,1-2.43,2-3.57,3.11C698.73,580.1,695.09,584.38,691,588.48Z"/><circle class="cls-29" cx="711.54" cy="569.92" r="2.54"/><circle class="cls-2" cx="703.71" cy="546.04" r="2.54"/><path class="cls-27" d="M688.71,672.55l2.15.05a7.66,7.66,0,0,1,.58-1.44q0-4.29-.06-8.58a2.06,2.06,0,0,1-.5-1.14,9.35,9.35,0,0,1,.54-2.33c-.08.27-.1-.78-.14-1a3.89,3.89,0,0,1,.36-3.1l-.33,0q0-2.5,0-5c0-4.22,0-8.44,0-12.66a2.17,2.17,0,0,1-.08-2.07l0,0c-.1-.2.17-.57.21-.77a5.78,5.78,0,0,0,.06-.75c-.18-.25-.2-.38-.17-.42a1.55,1.55,0,0,1,.05-1.27c-.3-5,.84-9.85-3-14.63-1.75.5-1.74,1.19-2,1.8-1.51,3.94-1.76,7.93-2.08,11.91-.93,11.77-1.47,23.55-2,35.32-.09,2-.37,4.05-.36,6.08a1.25,1.25,0,0,1,0,.13C684.21,672.57,686.45,672.5,688.71,672.55Z"/><circle class="cls-2" cx="975.24" cy="621.96" r="2.77"/><circle class="cls-33" cx="966.7" cy="595.92" r="2.77"/><path class="cls-27" d="M855.41,585.35q0-3.95,0-7.9c0-6,0-11.94,0-17.9a3.58,3.58,0,0,1,.73-2.24c2.27-3.14,4.51-6.29,6.7-9.49.45-.66,1.38-1.61.65-2.26s-1.56.37-2.16.91c-1.92,1.73-3.76,3.54-5.92,5.59,0-3.9.14-7.49,0-11.07s-.38-7.07-1.84-10.53a3.78,3.78,0,0,0-1.11,2.62,143.11,143.11,0,0,0-1.28,17.67c-.58,17.12-.9,34.24-1.23,51.36-.06,3-.19,5.91-.23,8.86,0,.91-.18,1.15-1.13.82a34.48,34.48,0,0,1-11.63-7.18c-7.8-6.93-13.24-15.29-15.25-25.66-1.47-7.59-.52-15,1.65-22.33a66.48,66.48,0,0,1,17.13-29,38.18,38.18,0,0,1,4.74-3.85,12.35,12.35,0,0,1,13-1.28c8.83,3.91,15.9,10,21.89,17.47,4.89,6.07,8.53,12.8,10,20.55,1.74,9.27-.18,18-4.62,26.11-5.9,10.84-14.22,19.18-25.75,24-.94.39-1.93.64-2.89,1s-1.29.15-1.29-.93q0-8.26-.05-16.52a2.77,2.77,0,0,1,.83-1.88c4.28-5.25,8.78-10.33,12.79-15.8a21.62,21.62,0,0,0,2.87-5.54c.15-.41.62-1,0-1.37s-.87.16-1.21.44c-1.21,1-2.43,2-3.57,3.11C863.15,577,859.52,581.24,855.41,585.35Z"/><circle class="cls-34" cx="875.97" cy="566.79" r="2.54"/><circle class="cls-29" cx="868.14" cy="542.9" r="2.54"/><path class="cls-27" d="M853.14,671.71l2.15.05a8.17,8.17,0,0,1,.58-1.5q0-4.47-.06-8.93a2.19,2.19,0,0,1-.5-1.19,10.08,10.08,0,0,1,.54-2.43c-.08.28-.1-.81-.14-1a4.2,4.2,0,0,1,.36-3.23l-.33,0q0-2.61,0-5.21c0-4.4,0-8.79,0-13.19a2.35,2.35,0,0,1-.08-2.16l0,0c-.1-.21.17-.59.21-.8a6.26,6.26,0,0,0,.06-.78c-.18-.26-.2-.4-.17-.43a1.67,1.67,0,0,1,.05-1.32c-.3-5.19.84-10.26-3-15.24-1.75.52-1.74,1.24-2,1.88-1.51,4.11-1.76,8.26-2.08,12.41-.93,12.26-1.47,24.53-2,36.79-.09,2.11-.37,4.22-.36,6.33a1.36,1.36,0,0,1,0,.14C848.64,671.73,850.87,671.66,853.14,671.71Z"/><path class="cls-35" d="M1169.57,619q0-3.49,0-7c0-5.27,0-10.54,0-15.82a3.16,3.16,0,0,1,.65-2c2-2.77,4-5.56,5.92-8.38.4-.58,1.22-1.42.58-2s-1.38.32-1.91.8c-1.69,1.53-3.33,3.13-5.23,4.93,0-3.44.13-6.62,0-9.78s-.34-6.25-1.62-9.3a3.34,3.34,0,0,0-1,2.32,126.42,126.42,0,0,0-1.14,15.61c-.51,15.12-.8,30.24-1.09,45.37-.05,2.61-.17,5.22-.2,7.83,0,.8-.16,1-1,.73a30.46,30.46,0,0,1-10.27-6.35c-6.89-6.12-11.7-13.51-13.47-22.67-1.29-6.7-.46-13.27,1.46-19.73a58.73,58.73,0,0,1,15.13-25.65,33.72,33.72,0,0,1,4.19-3.4,10.91,10.91,0,0,1,11.48-1.13c7.8,3.45,14,8.86,19.34,15.43a40.82,40.82,0,0,1,8.82,18.15c1.53,8.19-.16,15.87-4.08,23.07-5.21,9.57-12.56,16.95-22.75,21.22-.83.35-1.7.57-2.56.86s-1.14.13-1.14-.82q0-7.3,0-14.6a2.45,2.45,0,0,1,.73-1.66c3.78-4.64,7.76-9.12,11.3-14a19.1,19.1,0,0,0,2.54-4.89c.13-.36.55-.88,0-1.21s-.77.15-1.07.39c-1.07.89-2.15,1.78-3.15,2.75C1176.41,611.57,1173.2,615.35,1169.57,619Z"/><circle class="cls-35" cx="1187.73" cy="602.57" r="2.25"/><path class="cls-35" d="M1167.56,680.85l1.9,0a4.41,4.41,0,0,1,.51-.95q0-2.83-.06-5.65a1.22,1.22,0,0,1-.44-.75c0-.52.34-1,.48-1.54-.07.18-.09-.51-.13-.64a2,2,0,0,1,.32-2l-.3,0q0-1.65,0-3.3c0-2.78,0-5.56,0-8.34a1.12,1.12,0,0,1-.07-1.37v0c-.09-.14.15-.37.18-.51a2.87,2.87,0,0,0,.06-.49c-.16-.17-.18-.25-.15-.27a.79.79,0,0,1,0-.84c-.27-3.28.75-6.49-2.63-9.64-1.54.33-1.53.79-1.74,1.19-1.33,2.6-1.56,5.22-1.84,7.85-.83,7.76-1.3,15.51-1.77,23.27-.08,1.33-.33,2.67-.31,4a.62.62,0,0,1,0,.09C1163.59,680.86,1165.56,680.82,1167.56,680.85Z"/><path class="cls-35" d="M773.89,595.43q0-4.86,0-9.72c0-7.34,0-14.68,0-22a4.4,4.4,0,0,1,.9-2.76c2.79-3.86,5.55-7.74,8.25-11.67.55-.81,1.7-2,.8-2.78s-1.92.45-2.66,1.12c-2.36,2.13-4.63,4.36-7.28,6.87,0-4.79.18-9.22-.05-13.62s-.47-8.7-2.26-13a4.65,4.65,0,0,0-1.37,3.23,176.08,176.08,0,0,0-1.58,21.74c-.71,21.06-1.11,42.12-1.52,63.19-.07,3.63-.24,7.27-.28,10.9,0,1.12-.22,1.41-1.39,1a42.42,42.42,0,0,1-14.31-8.84c-9.6-8.52-16.29-18.81-18.76-31.57-1.8-9.33-.64-18.48,2-27.47a81.79,81.79,0,0,1,21.07-35.73,47,47,0,0,1,5.84-4.73,15.19,15.19,0,0,1,16-1.57c10.87,4.81,19.56,12.34,26.93,21.49,6,7.47,10.49,15.75,12.28,25.28,2.14,11.4-.22,22.1-5.68,32.13-7.26,13.33-17.49,23.6-31.68,29.55-1.15.48-2.37.79-3.56,1.19s-1.59.18-1.58-1.14q0-10.16-.07-20.33a3.41,3.41,0,0,1,1-2.31c5.27-6.46,10.81-12.71,15.74-19.44a26.6,26.6,0,0,0,3.53-6.81c.18-.5.77-1.22,0-1.69-.56-.36-1.08.2-1.48.54-1.49,1.24-3,2.48-4.39,3.83C783.41,585.12,778.94,590.38,773.89,595.43Z"/><circle class="cls-36" cx="789.54" cy="543.21" r="3.13"/><path class="cls-35" d="M771.09,681.61l2.65,0a6.14,6.14,0,0,1,.71-1.32q0-3.94-.08-7.87a1.7,1.7,0,0,1-.62-1c-.07-.73.48-1.42.67-2.14-.09.24-.13-.72-.17-.89a2.79,2.79,0,0,1,.44-2.84l-.41,0q0-2.3,0-4.59c0-3.87,0-7.75,0-11.62a1.56,1.56,0,0,1-.1-1.9l0,0c-.12-.19.21-.52.25-.71a4,4,0,0,0,.08-.68c-.22-.23-.25-.35-.2-.38a1.1,1.1,0,0,1,.06-1.16c-.37-4.57,1-9-3.66-13.42-2.15.46-2.13,1.1-2.42,1.65-1.85,3.62-2.17,7.28-2.56,10.93-1.15,10.8-1.81,21.61-2.47,32.41-.11,1.86-.46,3.72-.44,5.58a.86.86,0,0,1,0,.12C765.56,681.63,768.31,681.56,771.09,681.61Z"/><circle class="cls-2" cx="798.07" cy="572.34" r="2.54"/><circle class="cls-29" cx="828.14" cy="629.96" r="2.54"/><path class="cls-30" d="M905.32,583.64q0-4.86,0-9.72c0-7.34,0-14.68,0-22a4.4,4.4,0,0,1,.9-2.76c2.79-3.86,5.55-7.74,8.25-11.67.55-.81,1.7-2,.8-2.78s-1.92.45-2.66,1.12c-2.36,2.13-4.63,4.36-7.28,6.87,0-4.79.18-9.22-.05-13.62s-.47-8.7-2.26-13a4.65,4.65,0,0,0-1.37,3.23,176.08,176.08,0,0,0-1.58,21.74c-.71,21.06-1.11,42.12-1.52,63.19-.07,3.63-.24,7.27-.28,10.9,0,1.12-.22,1.41-1.39,1a42.42,42.42,0,0,1-14.31-8.84c-9.6-8.52-16.29-18.81-18.76-31.57-1.8-9.33-.64-18.48,2-27.47a81.79,81.79,0,0,1,21.07-35.73,47,47,0,0,1,5.84-4.73,15.19,15.19,0,0,1,16-1.57c10.87,4.81,19.56,12.34,26.93,21.49,6,7.47,10.49,15.75,12.28,25.28,2.14,11.4-.22,22.1-5.68,32.13-7.26,13.33-17.49,23.6-31.68,29.55-1.15.48-2.37.79-3.56,1.19s-1.59.18-1.58-1.14q0-10.16-.07-20.33a3.41,3.41,0,0,1,1-2.31c5.27-6.46,10.81-12.71,15.74-19.44a26.6,26.6,0,0,0,3.53-6.81c.18-.5.77-1.22,0-1.69-.56-.36-1.08.2-1.48.54-1.49,1.24-3,2.48-4.39,3.83C914.85,573.33,910.38,578.59,905.32,583.64Z"/><circle class="cls-37" cx="920.98" cy="531.42" r="3.13"/><path class="cls-30" d="M902.53,669.82l2.65,0a6.14,6.14,0,0,1,.71-1.32q0-3.94-.08-7.87a1.7,1.7,0,0,1-.62-1c-.07-.73.48-1.42.67-2.14-.09.24-.13-.72-.17-.89a2.79,2.79,0,0,1,.44-2.84l-.41,0q0-2.3,0-4.59c0-3.87,0-7.75,0-11.62a1.56,1.56,0,0,1-.1-1.9l0,0c-.12-.19.21-.52.25-.71a4,4,0,0,0,.08-.68c-.22-.23-.25-.35-.2-.38a1.1,1.1,0,0,1,.06-1.16c-.37-4.57,1-9-3.66-13.42-2.15.46-2.13,1.1-2.42,1.65-1.85,3.62-2.17,7.28-2.56,10.93-1.15,10.8-1.81,21.61-2.47,32.41-.11,1.86-.46,3.72-.44,5.58a.86.86,0,0,1,0,.12C897,669.83,899.74,669.77,902.53,669.82Z"/><circle class="cls-32" cx="928.82" cy="560.52" r="2.54"/><path class="cls-35" d="M952.83,642.2q0-4.31,0-8.61c0-6.51,0-13,0-19.52a3.9,3.9,0,0,1,.8-2.45c2.47-3.42,4.92-6.86,7.31-10.35.49-.72,1.51-1.76.71-2.46s-1.7.4-2.36,1c-2.09,1.89-4.1,3.86-6.45,6.09,0-4.25.16-8.17,0-12.07s-.41-7.71-2-11.49a4.12,4.12,0,0,0-1.22,2.86,156,156,0,0,0-1.4,19.27c-.63,18.66-1,37.33-1.34,56-.06,3.22-.21,6.44-.25,9.66,0,1-.2,1.25-1.23.9a37.59,37.59,0,0,1-12.68-7.83c-8.5-7.55-14.44-16.67-16.63-28-1.6-8.27-.57-16.38,1.8-24.35a72.49,72.49,0,0,1,18.67-31.66,41.63,41.63,0,0,1,5.17-4.19,13.46,13.46,0,0,1,14.17-1.39c9.63,4.26,17.33,10.93,23.87,19,5.33,6.62,9.3,14,10.88,22.4,1.89,10.1-.2,19.59-5,28.47-6.43,11.82-15.5,20.92-28.08,26.19-1,.43-2.1.7-3.16,1.06s-1.41.16-1.4-1q0-9-.06-18a3,3,0,0,1,.9-2c4.67-5.73,9.58-11.26,13.95-17.23a23.58,23.58,0,0,0,3.13-6c.16-.45.68-1.08,0-1.5-.49-.32-1,.18-1.32.48-1.32,1.1-2.65,2.2-3.89,3.39C961.27,633.07,957.31,637.72,952.83,642.2Z"/><circle class="cls-2" cx="1180.81" cy="581.48" r="2.25"/><circle class="cls-2" cx="964.3" cy="595.78" r="2.25"/><circle class="cls-36" cx="975.42" cy="619.47" r="3.13"/></g></g></svg>