<svg id="Layer_1" data-name="Layer 1" xmlns="http://www.w3.org/2000/svg" viewBox="0 0 1349 231"><defs><style>.cls-1{fill:#273274;}.cls-2,.cls-3{fill:none;stroke:#273274;stroke-miterlimit:10;}.cls-2{stroke-width:3px;}.cls-3{stroke-width:2px;}.cls-4{fill:#ff544e;}</style></defs><title>header hacktober</title><path class="cls-1" d="M517.44,80h4.77V65.09a2.63,2.63,0,0,0-.13-.92,1.28,1.28,0,0,0-.37-.54,1.24,1.24,0,0,0-.56-.26,3.7,3.7,0,0,0-.72-.07,7,7,0,0,0-1.43.18,11.88,11.88,0,0,0-1.79.55,15.05,15.05,0,0,0-1.9.9,9.2,9.2,0,0,0-1.7,1.22,6.09,6.09,0,0,0-1.22,1.52,3.63,3.63,0,0,0-.47,1.81,3.32,3.32,0,0,0,.22,1.34,2.1,2.1,0,0,0,.51.75,1.34,1.34,0,0,0,.59.31,2.18,2.18,0,0,0,1.51-.16,6.24,6.24,0,0,0,.76-.47l.64-.47a1.14,1.14,0,0,1,.69-.22,1.78,1.78,0,0,1,.67.14,1.9,1.9,0,0,1,.65.46,2.6,2.6,0,0,1,.51.82,3.28,3.28,0,0,1,.21,1.24,3.78,3.78,0,0,1-.41,1.81,4,4,0,0,1-1,1.27,4.35,4.35,0,0,1-1.47.76,5.87,5.87,0,0,1-3.9-.18,5,5,0,0,1-1.72-1.19,5.13,5.13,0,0,1-1.07-1.78,6.39,6.39,0,0,1-.37-2.17,8.22,8.22,0,0,1,.65-3.31,9.34,9.34,0,0,1,1.79-2.71A12.12,12.12,0,0,1,514,63.61a17.64,17.64,0,0,1,3.31-1.51,22.24,22.24,0,0,1,3.72-.9,25.22,25.22,0,0,1,3.88-.3,10.79,10.79,0,0,1,3.34.41,4.44,4.44,0,0,1,1.75,1,2.26,2.26,0,0,1,.67,1.2,6.64,6.64,0,0,1,.1,1V80h9.64V67.4A21.24,21.24,0,0,1,541.56,60a14.77,14.77,0,0,1,2.91-5,10.93,10.93,0,0,1,4-2.8,11.75,11.75,0,0,1,4.37-.88,17.5,17.5,0,0,1,2.84.22,9.84,9.84,0,0,1,2.36.67,4.69,4.69,0,0,1,1.61,1.11,2.26,2.26,0,0,1,.6,1.56,2.36,2.36,0,0,1-.45,1.39,1.72,1.72,0,0,1-.48.46,1.06,1.06,0,0,1-.56.17,1.32,1.32,0,0,1-.84-.29,3.9,3.9,0,0,1-.69-.72c-.22-.29-.43-.6-.64-.94a6.31,6.31,0,0,0-.71-.94,3.71,3.71,0,0,0-.89-.72,2.31,2.31,0,0,0-1.18-.29,3.58,3.58,0,0,0-2.54.88,5.57,5.57,0,0,0-1.44,2.57,18.94,18.94,0,0,0-.64,4.2q-.15,2.51-.14,5.76V80h5.26v2.3H549V98.22a2.05,2.05,0,0,0,.33,1.22,1.15,1.15,0,0,0,1,.46,3.51,3.51,0,0,0,1.36-.26q.63-.26,1.1-.5l.45,1q-.58.39-1.35.83a15.63,15.63,0,0,1-1.7.81,13.34,13.34,0,0,1-2,.63,9.68,9.68,0,0,1-2.21.25,7.4,7.4,0,0,1-2.88-.47,4.2,4.2,0,0,1-1.7-1.24,4.12,4.12,0,0,1-.8-1.74,9.86,9.86,0,0,1-.2-2V82.3h-9.64v13a14,14,0,0,1-1.3,6.21A12.55,12.55,0,0,1,526,106a15.37,15.37,0,0,1-5.3,2.65,23.56,23.56,0,0,1-6.53.88,14.44,14.44,0,0,1-2.57-.22,10.56,10.56,0,0,1-2.17-.62,4.88,4.88,0,0,1-1.51-.93,1.59,1.59,0,0,1-.56-1.17,3.67,3.67,0,0,1,.13-1,3,3,0,0,1,.39-.88,2.43,2.43,0,0,1,.64-.65,1.47,1.47,0,0,1,.85-.26.64.64,0,0,1,.51.29,5.47,5.47,0,0,1,.46.72q.24.43.54.93a4.09,4.09,0,0,0,.79.93,4.16,4.16,0,0,0,1.17.72,4.38,4.38,0,0,0,1.7.29,7.63,7.63,0,0,0,3.47-.73,6.45,6.45,0,0,0,2.4-2.07,9.39,9.39,0,0,0,1.4-3.18,16.83,16.83,0,0,0,.46-4V82.3h-4.77Z"/><path class="cls-1" d="M566.31,75a6.19,6.19,0,0,0-1.65.21,5.69,5.69,0,0,0-1.31.52,3.13,3.13,0,0,0-.86.69,1.16,1.16,0,0,0-.31.72.58.58,0,0,0,.41.56l.9.39a3,3,0,0,1,.9.63,1.7,1.7,0,0,1,.41,1.24,2.28,2.28,0,0,1-.22,1,2.73,2.73,0,0,1-1.49,1.36,2.93,2.93,0,0,1-1.06.2,3,3,0,0,1-2.37-1,3.78,3.78,0,0,1-.9-2.65,4.49,4.49,0,0,1,.84-2.74,6.54,6.54,0,0,1,2.19-1.87,11.07,11.07,0,0,1,3.05-1.09,17,17,0,0,1,7.31.09,9.91,9.91,0,0,1,3.29,1.41,7.32,7.32,0,0,1,2.28,2.46,7.19,7.19,0,0,1,.85,3.61V95.6c0,.16,0,.33,0,.52a1.61,1.61,0,0,0,.13.52A1,1,0,0,0,579,97a1,1,0,0,0,.6.16,1.31,1.31,0,0,0,.88-.35,6.86,6.86,0,0,0,.72-.72l.66.55q-.39.55-.94,1.2a7.54,7.54,0,0,1-3.17,2.2,6.76,6.76,0,0,1-2.38.39,4.7,4.7,0,0,1-2.93-1,4.76,4.76,0,0,1-1.68-3A11.14,11.14,0,0,1,569,98.35a9.44,9.44,0,0,1-1.85,1.23,8.17,8.17,0,0,1-1.9.68,9,9,0,0,1-1.92.21,7.65,7.65,0,0,1-2.44-.39,5.81,5.81,0,0,1-2.11-1.24,6.11,6.11,0,0,1-1.49-2.21,8.72,8.72,0,0,1-.56-3.33,7.3,7.3,0,0,1,.94-3.9,8.42,8.42,0,0,1,2.48-2.55,16.72,16.72,0,0,1,3.48-1.77q2-.73,4-1.54a4.27,4.27,0,0,0,2.21-1.79,4.81,4.81,0,0,0,.69-2.45,4.25,4.25,0,0,0-1.14-3.1A4.14,4.14,0,0,0,566.31,75Zm4.16,11.47a1.21,1.21,0,0,0-.42-1,1.65,1.65,0,0,0-1.07-.34,3.8,3.8,0,0,0-1.74.42,4.3,4.3,0,0,0-1.45,1.23,6.24,6.24,0,0,0-1,2,9.42,9.42,0,0,0-.37,2.76,11.74,11.74,0,0,0,.22,2.51,4.91,4.91,0,0,0,.6,1.58,2.18,2.18,0,0,0,.88.82,2.41,2.41,0,0,0,1,.24,2.5,2.5,0,0,0,1.28-.35,3.84,3.84,0,0,0,1-.9,4.51,4.51,0,0,0,.71-1.23,3.78,3.78,0,0,0,.26-1.36Z"/><path class="cls-1" d="M602,81.93a3.29,3.29,0,0,1-1.36-.25,2.39,2.39,0,0,1-.89-.67,2.74,2.74,0,0,1-.5-.93,3.59,3.59,0,0,1-.16-1.06,9.76,9.76,0,0,1,.09-1.36,4.52,4.52,0,0,0,0-1.18,1.32,1.32,0,0,0-.41-.84,1.78,1.78,0,0,0-1.2-.31,4.26,4.26,0,0,0-1.94.52,5.46,5.46,0,0,0-1.86,1.65,9.6,9.6,0,0,0-1.39,2.89,14.42,14.42,0,0,0-.55,4.26,22.87,22.87,0,0,0,.51,5,12,12,0,0,0,1.53,3.86A7.4,7.4,0,0,0,596.48,96a7.56,7.56,0,0,0,5.3.67,7.7,7.7,0,0,0,1.56-.58,10,10,0,0,0,1.4-.85q.67-.48,1.3-1l.65.63a18,18,0,0,1-1.54,1.78,12.6,12.6,0,0,1-2.28,1.82,13.12,13.12,0,0,1-3.12,1.41,13.47,13.47,0,0,1-4.06.56,11.7,11.7,0,0,1-4.44-.88A11.49,11.49,0,0,1,587.42,97a12.59,12.59,0,0,1-2.68-4.07,14,14,0,0,1-1-5.46,15.16,15.16,0,0,1,.6-4.39A14.43,14.43,0,0,1,586,79.44a13.68,13.68,0,0,1,2.41-2.85,15.27,15.27,0,0,1,2.89-2.06,14,14,0,0,1,3.1-1.24,11.94,11.94,0,0,1,3.05-.42,11.49,11.49,0,0,1,3.38.45,7.61,7.61,0,0,1,2.4,1.18,4.83,4.83,0,0,1,1.43,1.69,4.42,4.42,0,0,1,.47,2,5.31,5.31,0,0,1-.2,1.45,3.67,3.67,0,0,1-.58,1.2,2.77,2.77,0,0,1-1,.81A2.84,2.84,0,0,1,602,81.93Z"/><path class="cls-1" d="M617.8,80q.92-1.23,2-2.5A18.09,18.09,0,0,1,622,75.2a11.51,11.51,0,0,1,2.62-1.68,7.27,7.27,0,0,1,3.09-.65,4.81,4.81,0,0,1,2.49.59,5.43,5.43,0,0,1,1.61,1.41,5.22,5.22,0,0,1,.86,1.72,5.8,5.8,0,0,1,.25,1.52,10.21,10.21,0,0,1-.3,2.4,9,9,0,0,1-1,2.46,11,11,0,0,1-1.92,2.36,13.16,13.16,0,0,1-3,2.08,90.18,90.18,0,0,0,4.79,9,44.86,44.86,0,0,0,4.49,6.18,17.61,17.61,0,0,0,4.15,3.58,7.61,7.61,0,0,0,3.8,1.15,2.58,2.58,0,0,0,.63-.08,4.47,4.47,0,0,0,.58-.18,5.72,5.72,0,0,0,.6-.26l.5.92q-.71.39-1.44.75a10.09,10.09,0,0,1-1.68.62,15.57,15.57,0,0,1-2.17.42,23.6,23.6,0,0,1-2.93.16,12.87,12.87,0,0,1-3.05-.37,10.44,10.44,0,0,1-3-1.31,17.08,17.08,0,0,1-3.08-2.51,28,28,0,0,1-3.2-4,57.15,57.15,0,0,1-3.37-5.74q-1.73-3.33-3.59-7.78a27.46,27.46,0,0,0,4-3.44,16.91,16.91,0,0,0,2.17-2.87,7.5,7.5,0,0,0,.92-2.28,9.72,9.72,0,0,0,.18-1.7c0-.07,0-.19,0-.35a1.18,1.18,0,0,0-.17-.48,1.36,1.36,0,0,0-.42-.42,1.39,1.39,0,0,0-.77-.18,3.1,3.1,0,0,0-2,.83,11.62,11.62,0,0,0-1.9,2A19.7,19.7,0,0,0,619,81.68q-.73,1.4-1.21,2.55V97.75a3.45,3.45,0,0,1-.12.81,1.89,1.89,0,0,1-.55.89,3.52,3.52,0,0,1-1.26.72,6.62,6.62,0,0,1-2.21.3,5.82,5.82,0,0,1-2.17-.33,3,3,0,0,1-1.17-.77,2,2,0,0,1-.47-.92,4.14,4.14,0,0,1-.09-.76V63.91a2.44,2.44,0,0,0-.35-1.32,1.3,1.3,0,0,0-1.19-.56,1.91,1.91,0,0,0-.77.14,3.28,3.28,0,0,0-.69.43l-.52-.63a15.75,15.75,0,0,1,1.34-1,9.71,9.71,0,0,1,1.61-.85,12,12,0,0,1,1.87-.6,9.06,9.06,0,0,1,2.1-.24,6.17,6.17,0,0,1,2.64.46,3.4,3.4,0,0,1,1.39,1.13,3.24,3.24,0,0,1,.54,1.41,10.91,10.91,0,0,1,.09,1.32Z"/><path class="cls-1" d="M646.66,75.12V94.48a2.74,2.74,0,0,0,.52,1.93,1.92,1.92,0,0,0,1.44.54,2.11,2.11,0,0,0,1.26-.39,4.58,4.58,0,0,0,.94-.89,5.53,5.53,0,0,0,.81-1.28l.81.37q-.39.84-.93,1.83a7.26,7.26,0,0,1-3.67,3.27,8.68,8.68,0,0,1-3.39.58,7.21,7.21,0,0,1-2.21-.34A5.19,5.19,0,0,1,640.36,99,5.38,5.38,0,0,1,639,97.17a6.4,6.4,0,0,1-.5-2.65V75.12h-2.93V73.24a7.9,7.9,0,0,0,2-.38,10.18,10.18,0,0,0,2.68-1.27,10.67,10.67,0,0,0,2.55-2.38,9.12,9.12,0,0,0,1.68-3.69h2.1v7.73h4.27q2.09,0,2.1-.71a.35.35,0,0,0-.26-.35l-.59-.24a1.9,1.9,0,0,1-.59-.41,1.19,1.19,0,0,1-.26-.86,1.48,1.48,0,0,1,.46-1.15A1.69,1.69,0,0,1,653,69.1a1.67,1.67,0,0,1,.83.2,1.79,1.79,0,0,1,.59.52,2.35,2.35,0,0,1,.35.75,3.07,3.07,0,0,1,.12.84,3.72,3.72,0,0,1-1,2.71,4.25,4.25,0,0,1-3.16,1Z"/><path class="cls-1" d="M654,86.65a16.64,16.64,0,0,1,1-6,12.73,12.73,0,0,1,2.66-4.31,10.77,10.77,0,0,1,3.86-2.59,12.49,12.49,0,0,1,4.61-.86,13.41,13.41,0,0,1,4.61.8,10.53,10.53,0,0,1,3.86,2.45,12,12,0,0,1,2.66,4.18,16.31,16.31,0,0,1,1,6,17.2,17.2,0,0,1-1,6.08,13.52,13.52,0,0,1-2.66,4.45,11.05,11.05,0,0,1-3.86,2.74,11.73,11.73,0,0,1-4.61.93,12.33,12.33,0,0,1-4.61-.88A10.91,10.91,0,0,1,657.7,97,12.71,12.71,0,0,1,655,92.67,16.74,16.74,0,0,1,654,86.65Zm16.11-.26q0-2.09-.14-4a18.2,18.2,0,0,0-.56-3.47,6.12,6.12,0,0,0-1.2-2.42,2.61,2.61,0,0,0-2.07-.9,2.55,2.55,0,0,0-2.07,1A6.61,6.61,0,0,0,662.9,79a18.35,18.35,0,0,0-.55,3.55q-.13,2-.13,4.09t.13,4.1a18.63,18.63,0,0,0,.55,3.57,6.6,6.6,0,0,0,1.2,2.53,2.55,2.55,0,0,0,2.07,1,2.51,2.51,0,0,0,2.07-1,7,7,0,0,0,1.2-2.62,20.57,20.57,0,0,0,.56-3.67Q670.15,88.48,670.15,86.38Z"/><path class="cls-1" d="M682.33,63.91a2.43,2.43,0,0,0-.35-1.32,1.3,1.3,0,0,0-1.19-.56,1.91,1.91,0,0,0-.77.14,3.33,3.33,0,0,0-.69.43L678.8,62a14.58,14.58,0,0,1,1.35-1,10.49,10.49,0,0,1,1.61-.85,11.65,11.65,0,0,1,1.86-.6,9.07,9.07,0,0,1,2.1-.24,5.56,5.56,0,0,1,2.45.46,3.75,3.75,0,0,1,1.42,1.13,3.71,3.71,0,0,1,.64,1.44,7.22,7.22,0,0,1,.16,1.43V75.44l.81-.72a7.31,7.31,0,0,1,1.26-.85,8.31,8.31,0,0,1,1.82-.71,9.62,9.62,0,0,1,2.5-.29,8,8,0,0,1,3.35.77,8.42,8.42,0,0,1,3,2.42,13.07,13.07,0,0,1,2.17,4.24,20.4,20.4,0,0,1,.84,6.23,18.42,18.42,0,0,1-.77,5.4,13.15,13.15,0,0,1-2.29,4.44,10.79,10.79,0,0,1-3.8,3,12,12,0,0,1-5.29,1.1,12.83,12.83,0,0,1-5.51-1.06,9.56,9.56,0,0,1-3.6-2.85,11.29,11.29,0,0,1-2-4.18,20.84,20.84,0,0,1-.59-5ZM697.94,87a36.7,36.7,0,0,0-.24-4.28,16.64,16.64,0,0,0-.76-3.51,6.73,6.73,0,0,0-1.34-2.38,2.72,2.72,0,0,0-3.47-.44,4.18,4.18,0,0,0-1,1,4.24,4.24,0,0,0-.58,1.09,2.85,2.85,0,0,0-.18.72V87a26,26,0,0,0,1,8.3q1,2.59,2.82,2.59T697,95.26A27.2,27.2,0,0,0,697.94,87Z"/><path class="cls-1" d="M718,88a7.43,7.43,0,0,0,.25,1.82,10.84,10.84,0,0,0,.72,2,10.47,10.47,0,0,0,1.17,1.9,9,9,0,0,0,1.6,1.61,7.64,7.64,0,0,0,2,1.13,6.72,6.72,0,0,0,2.41.42,6.59,6.59,0,0,0,1.7-.21,6.73,6.73,0,0,0,1.47-.58,9.57,9.57,0,0,0,1.31-.85q.63-.48,1.26-1l.65.63a18,18,0,0,1-1.54,1.78,12.6,12.6,0,0,1-2.28,1.82,13.12,13.12,0,0,1-3.12,1.41,13.47,13.47,0,0,1-4.06.56A12.34,12.34,0,0,1,717,99.6a11,11,0,0,1-3.84-2.47A12.15,12.15,0,0,1,710.53,93a16.62,16.62,0,0,1-.41-10.14,14,14,0,0,1,1.64-3.59,13.37,13.37,0,0,1,2.41-2.8,15,15,0,0,1,2.89-2,14.24,14.24,0,0,1,3.1-1.2,12.71,12.71,0,0,1,6.43,0,7.55,7.55,0,0,1,2.4,1.13,4.67,4.67,0,0,1,1.43,1.64,4.26,4.26,0,0,1,.47,2,3.69,3.69,0,0,1-.71,2.21,6.53,6.53,0,0,1-1.89,1.72Zm5.26-5.32a4.16,4.16,0,0,0,.56-.41,1.48,1.48,0,0,0,.35-.47,2.55,2.55,0,0,0,.2-.68,6.58,6.58,0,0,0,.07-1,8.2,8.2,0,0,0-.14-1.45,5.85,5.85,0,0,0-.48-1.51A3.74,3.74,0,0,0,722.9,76a1.81,1.81,0,0,0-1.26-.47,2.41,2.41,0,0,0-1.61.56,4.36,4.36,0,0,0-1.1,1.45,9.09,9.09,0,0,0-.68,2,22.65,22.65,0,0,0-.38,2.29q-.13,1.15-.16,2.21t0,1.79Z"/><path class="cls-1" d="M744.38,78.4a21.55,21.55,0,0,1,2.12-2.75,14.1,14.1,0,0,1,1-1,9.84,9.84,0,0,1,1.14-.89,6,6,0,0,1,1.22-.63,3.56,3.56,0,0,1,1.26-.24,2.75,2.75,0,0,1,2.09.8,3.12,3.12,0,0,1,.76,2.24,10,10,0,0,1-.14,1.72,12.78,12.78,0,0,1-.56,2h-.73a2.43,2.43,0,0,0-.73-1.35,2.37,2.37,0,0,0-1.68-.54,4.43,4.43,0,0,0-1.6.3,9.9,9.9,0,0,0-1.53.75,13.52,13.52,0,0,0-1.41,1q-.67.52-1.22,1v17a3.87,3.87,0,0,1-.11.81,1.86,1.86,0,0,1-.51.89,3.25,3.25,0,0,1-1.2.72,6.39,6.39,0,0,1-2.19.3,5.92,5.92,0,0,1-2.19-.33,3.43,3.43,0,0,1-1.22-.77,2,2,0,0,1-.52-.92,3.71,3.71,0,0,1-.1-.76V77.48a2.44,2.44,0,0,0-.35-1.32,1.3,1.3,0,0,0-1.19-.56,1.69,1.69,0,0,0-.76.16,4.11,4.11,0,0,0-.68.45l-.55-.65a14.58,14.58,0,0,1,1.35-1,10.45,10.45,0,0,1,1.61-.85,11.6,11.6,0,0,1,1.86-.6,9.07,9.07,0,0,1,2.1-.24,5.48,5.48,0,0,1,1.92.3,3.86,3.86,0,0,1,1.31.79,3.69,3.69,0,0,1,.8,1.09,6,6,0,0,1,.43,1.22,6.55,6.55,0,0,1,.17,1.18C744.37,77.82,744.38,78.13,744.38,78.4Z"/><path class="cls-1" d="M770.23,61.11a3.16,3.16,0,0,0-1.39.31,3,3,0,0,0-1.14,1,5.6,5.6,0,0,0-.77,1.77,10.11,10.11,0,0,0-.29,2.59v6.44h5.74v1.89h-5.74V95.76a22.22,22.22,0,0,1-.93,6.57,14.33,14.33,0,0,1-2.82,5.2,13,13,0,0,1-4.71,3.42,16.42,16.42,0,0,1-6.6,1.23A14.39,14.39,0,0,1,749,112a10.54,10.54,0,0,1-2.17-.62,4.89,4.89,0,0,1-1.51-.93,1.62,1.62,0,0,1-.56-1.19,3.67,3.67,0,0,1,.13-1,3,3,0,0,1,.39-.88,2.24,2.24,0,0,1,.64-.64,1.56,1.56,0,0,1,.88-.25.64.64,0,0,1,.51.29,5.87,5.87,0,0,1,.46.71l.54.93a3.88,3.88,0,0,0,.77.93,4.12,4.12,0,0,0,1.17.71,4.41,4.41,0,0,0,1.69.29,5,5,0,0,0,2.36-.54,5.38,5.38,0,0,0,1.75-1.48,8.78,8.78,0,0,0,1.23-2.23,16.35,16.35,0,0,0,.79-2.75,25.77,25.77,0,0,0,.41-3.06q.12-1.6.12-3.2v-22h-4.82V73.24h4.82V70.17a12.9,12.9,0,0,1,.56-4,9.66,9.66,0,0,1,1.49-2.92,8.42,8.42,0,0,1,2.11-2,12.06,12.06,0,0,1,2.4-1.2,11.36,11.36,0,0,1,2.37-.6,15.12,15.12,0,0,1,2-.16,17.75,17.75,0,0,1,3.3.27,10.14,10.14,0,0,1,2.41.73,4.2,4.2,0,0,1,1.47,1.06,1.93,1.93,0,0,1,.5,1.23,3.35,3.35,0,0,1-.14,1,3.42,3.42,0,0,1-.41.89,2.19,2.19,0,0,1-.64.65,1.52,1.52,0,0,1-.85.25.66.66,0,0,1-.52-.31,6.85,6.85,0,0,1-.5-.79l-.58-1a5.11,5.11,0,0,0-.77-1,4,4,0,0,0-1.09-.79A3.3,3.3,0,0,0,770.23,61.11Z"/><path class="cls-1" d="M781,88a7.43,7.43,0,0,0,.25,1.82,10.84,10.84,0,0,0,.72,2,10.47,10.47,0,0,0,1.17,1.9,9,9,0,0,0,1.6,1.61,7.64,7.64,0,0,0,2,1.13,6.72,6.72,0,0,0,2.41.42,6.59,6.59,0,0,0,1.7-.21,6.73,6.73,0,0,0,1.47-.58,9.57,9.57,0,0,0,1.31-.85q.63-.48,1.26-1l.65.63A18,18,0,0,1,794,96.62a12.6,12.6,0,0,1-2.28,1.82,13.12,13.12,0,0,1-3.12,1.41,13.47,13.47,0,0,1-4.06.56,12.34,12.34,0,0,1-4.44-.83,11,11,0,0,1-3.84-2.47A12.15,12.15,0,0,1,773.56,93a16.62,16.62,0,0,1-.41-10.14,14,14,0,0,1,1.64-3.59,13.37,13.37,0,0,1,2.41-2.8,15,15,0,0,1,2.89-2,14.24,14.24,0,0,1,3.1-1.2,12.71,12.71,0,0,1,6.43,0,7.55,7.55,0,0,1,2.4,1.13,4.67,4.67,0,0,1,1.43,1.64,4.26,4.26,0,0,1,.47,2,3.69,3.69,0,0,1-.71,2.21,6.53,6.53,0,0,1-1.89,1.72Zm5.26-5.32a4.16,4.16,0,0,0,.56-.41,1.48,1.48,0,0,0,.35-.47,2.55,2.55,0,0,0,.2-.68,6.58,6.58,0,0,0,.07-1,8.2,8.2,0,0,0-.14-1.45,5.85,5.85,0,0,0-.48-1.51,3.74,3.74,0,0,0-.86-1.18,1.81,1.81,0,0,0-1.26-.47,2.41,2.41,0,0,0-1.61.56,4.36,4.36,0,0,0-1.1,1.45,9.09,9.09,0,0,0-.68,2,22.65,22.65,0,0,0-.38,2.29q-.13,1.15-.16,2.21t0,1.79Z"/><path class="cls-1" d="M807.47,75a4,4,0,0,0-1.14.16,2.59,2.59,0,0,0-1,.51,2.41,2.41,0,0,0-.66.89,3.14,3.14,0,0,0-.24,1.27,3.4,3.4,0,0,0,.75,2,17.62,17.62,0,0,0,1.86,2.1q1.11,1.09,2.41,2.25a26.68,26.68,0,0,1,2.41,2.46,13.9,13.9,0,0,1,1.86,2.76,6.83,6.83,0,0,1,.75,3.14,8.29,8.29,0,0,1-.64,3.35A6.84,6.84,0,0,1,812,98.38a8.17,8.17,0,0,1-2.88,1.56,12.38,12.38,0,0,1-3.76.54,9.9,9.9,0,0,1-3.27-.51,11.82,11.82,0,0,1-2.61-1.26,11.38,11.38,0,0,1-2-1.58,10.55,10.55,0,0,1-1.26-1.52l.92-.65a8.82,8.82,0,0,0,.86.85,8.46,8.46,0,0,0,1.17.85,6.8,6.8,0,0,0,1.38.64,4.6,4.6,0,0,0,1.49.25,5,5,0,0,0,3.09-.9,3.14,3.14,0,0,0,1.2-2.68,3.91,3.91,0,0,0-.65-2.06,16.12,16.12,0,0,0-1.65-2.19q-1-1.13-2.15-2.33a31.52,31.52,0,0,1-2.15-2.49,14.64,14.64,0,0,1-1.65-2.65,6.44,6.44,0,0,1-.66-2.83,6,6,0,0,1,.67-2.88,6.08,6.08,0,0,1,1.78-2,8,8,0,0,1,2.54-1.22,10.72,10.72,0,0,1,2.95-.41,15,15,0,0,1,3.2.31,7.83,7.83,0,0,1,2.47,1,4.62,4.62,0,0,1,1.6,1.61,4.4,4.4,0,0,1,.56,2.25,2.51,2.51,0,0,1-.66,1.73,2.33,2.33,0,0,1-1.83.73,2.64,2.64,0,0,1-1.71-.48,1.62,1.62,0,0,1-.59-1.32,1.27,1.27,0,0,1,.28-.86,2.41,2.41,0,0,1,.62-.51l.62-.34a.43.43,0,0,0,.28-.38,1.3,1.3,0,0,0-.79-1.17A4.16,4.16,0,0,0,807.47,75Z"/><path class="cls-1" d="M827.35,75.12V94.48a2.74,2.74,0,0,0,.52,1.93,1.92,1.92,0,0,0,1.44.54,2.11,2.11,0,0,0,1.26-.39,4.58,4.58,0,0,0,.94-.89,5.53,5.53,0,0,0,.81-1.28l.81.37q-.39.84-.93,1.83a7.26,7.26,0,0,1-3.67,3.27,8.68,8.68,0,0,1-3.39.58,7.21,7.21,0,0,1-2.21-.34A5.19,5.19,0,0,1,821,99a5.38,5.38,0,0,1-1.32-1.83,6.4,6.4,0,0,1-.5-2.65V75.12h-2.93V73.24a7.9,7.9,0,0,0,2-.38A10.18,10.18,0,0,0,821,71.59a10.67,10.67,0,0,0,2.55-2.38,9.12,9.12,0,0,0,1.68-3.69h2.1v7.73h4.27q2.09,0,2.1-.71a.35.35,0,0,0-.26-.35l-.59-.24a1.9,1.9,0,0,1-.59-.41,1.19,1.19,0,0,1-.26-.86,1.48,1.48,0,0,1,.46-1.15,1.69,1.69,0,0,1,1.19-.42,1.67,1.67,0,0,1,.83.2,1.79,1.79,0,0,1,.59.52,2.35,2.35,0,0,1,.35.75,3.07,3.07,0,0,1,.12.84,3.72,3.72,0,0,1-1,2.71,4.25,4.25,0,0,1-3.16,1Z"/><polyline class="cls-2" points="844.56 73.76 867.75 73.76 867.75 55.35"/><line class="cls-2" x1="844.56" y1="89.1" x2="893.32" y2="89.1"/><polyline class="cls-2" points="844.56 102.74 883.09 102.74 883.09 115.69"/><polyline class="cls-2" points="500.34 98.47 477.16 98.47 477.16 116.88"/><line class="cls-2" x1="500.68" y1="83.13" x2="451.59" y2="83.13"/><polyline class="cls-2" points="500 69.5 461.82 69.5 461.82 56.55"/><circle class="cls-2" cx="882.75" cy="123.53" r="3.41"/><circle class="cls-3" cx="868.09" cy="49.46" r="2.39"/><circle class="cls-1" cx="901.84" cy="88.76" r="3.41"/><circle class="cls-2" cx="461.48" cy="50.41" r="3.41"/><circle class="cls-3" cx="446.14" cy="83.47" r="2.39"/><circle class="cls-1" cx="477.16" cy="124.04" r="3.41"/><path class="cls-4" d="M491.7,152.83A6.1,6.1,0,0,1,494,155a5.91,5.91,0,0,1,.85,3.1,6,6,0,0,1-.85,3.12,6.12,6.12,0,0,1-2.31,2.25,6.67,6.67,0,0,1-6.41,0,6.12,6.12,0,0,1-2.31-2.25,6,6,0,0,1-.85-3.12A5.91,5.91,0,0,1,483,155a6.12,6.12,0,0,1,2.3-2.22,6.75,6.75,0,0,1,6.42,0Zm-5.53,1.3a4.72,4.72,0,0,0-1.72,1.68,4.62,4.62,0,0,0,0,4.69,4.77,4.77,0,0,0,1.72,1.7,4.56,4.56,0,0,0,2.34.63,4.47,4.47,0,0,0,2.32-.63,4.74,4.74,0,0,0,1.69-1.7,4.67,4.67,0,0,0,0-4.69,4.7,4.7,0,0,0-1.69-1.68,4.52,4.52,0,0,0-2.32-.62A4.61,4.61,0,0,0,486.17,154.12Z"/><path class="cls-4" d="M504.44,155.61a4,4,0,0,1,1.55,1.64,5.55,5.55,0,0,1,0,4.81,3.94,3.94,0,0,1-1.54,1.62,4.43,4.43,0,0,1-2.27.58,4.16,4.16,0,0,1-2-.48,3.46,3.46,0,0,1-1.38-1.38v5.17h-1.61V155.07h1.61v1.81a3.47,3.47,0,0,1,1.37-1.38,4.08,4.08,0,0,1,2-.48A4.42,4.42,0,0,1,504.44,155.61Zm-1,6.84a2.86,2.86,0,0,0,1.09-1.16,3.56,3.56,0,0,0,.39-1.68,3.46,3.46,0,0,0-.4-1.66,2.94,2.94,0,0,0-1.09-1.16,3,3,0,0,0-1.57-.41,3,3,0,0,0-1.58.41,2.92,2.92,0,0,0-1.1,1.16,3.72,3.72,0,0,0,0,3.34,2.93,2.93,0,0,0,1.1,1.15,3.22,3.22,0,0,0,3.16,0Z"/><path class="cls-4" d="M515.67,156.27a5.14,5.14,0,0,1,1.09,3.48c0,.23,0,.4,0,.52h-7.22a3.12,3.12,0,0,0,1,2,3,3,0,0,0,2.07.73,3.86,3.86,0,0,0,1.51-.29,3.63,3.63,0,0,0,1.22-.83l.88.92a4.62,4.62,0,0,1-1.62,1.12,5.41,5.41,0,0,1-2.11.4,4.86,4.86,0,0,1-2.39-.58,4.06,4.06,0,0,1-1.62-1.63,5.25,5.25,0,0,1,0-4.79,4.21,4.21,0,0,1,1.62-1.64,4.66,4.66,0,0,1,2.37-.6A4,4,0,0,1,515.67,156.27ZM515.3,159a2.65,2.65,0,0,0-2.83-2.68,2.89,2.89,0,0,0-2,.73,3,3,0,0,0-1,2Z"/><path class="cls-4" d="M526.55,156a3.57,3.57,0,0,1,.92,2.6v5.65h-1.61V159a2.24,2.24,0,0,0-2.44-2.45,2.76,2.76,0,0,0-2,.79,3.09,3.09,0,0,0-.87,2v4.89h-1.61v-9.14h1.61V157a3.53,3.53,0,0,1,3.47-2A3.36,3.36,0,0,1,526.55,156Z"/><path class="cls-4" d="M530.49,152.12h8.4v1.5h-6.74v3.73h6v1.5h-6v3.85h6.95v1.5h-8.6Z"/><path class="cls-4" d="M549.85,152.92a2.63,2.63,0,0,1,1.06,2.22,2.68,2.68,0,0,1-.59,1.75,2.86,2.86,0,0,1-1.61,1,3.14,3.14,0,0,1,2,1,3,3,0,0,1,.72,2,2.86,2.86,0,0,1-1.17,2.43,5.27,5.27,0,0,1-3.22.87h-5.25V152.12h5.17A4.73,4.73,0,0,1,549.85,152.92Zm-1.26,3.85a1.61,1.61,0,0,0,.61-1.36,1.57,1.57,0,0,0-.61-1.33,2.75,2.75,0,0,0-1.74-.45h-3.42v3.61h3.42A2.78,2.78,0,0,0,548.59,156.77Zm.37,5.41a1.7,1.7,0,0,0,.76-1.48,1.64,1.64,0,0,0-.76-1.43,3.7,3.7,0,0,0-2.11-.52h-3.42v3.94h3.42A3.57,3.57,0,0,0,549,162.18Z"/><path class="cls-4" d="M559.38,153.84a5.93,5.93,0,0,0-1.67-.27A3.08,3.08,0,0,0,556,154a1.26,1.26,0,0,0-.63,1.11,1.47,1.47,0,0,0,.38,1,2.69,2.69,0,0,0,.93.64q.55.23,1.54.54a17.31,17.31,0,0,1,2,.73,3.43,3.43,0,0,1,1.29,1,2.84,2.84,0,0,1,.54,1.81,3,3,0,0,1-.56,1.81,3.59,3.59,0,0,1-1.57,1.2,6,6,0,0,1-2.32.42,6.76,6.76,0,0,1-2.59-.52,7,7,0,0,1-2.18-1.38l.74-1.43a6.23,6.23,0,0,0,1.94,1.3,5.36,5.36,0,0,0,2.1.46,3.35,3.35,0,0,0,1.91-.48,1.48,1.48,0,0,0,.7-1.29,1.5,1.5,0,0,0-.38-1.05,2.67,2.67,0,0,0-1-.66,16.45,16.45,0,0,0-1.56-.54,15.84,15.84,0,0,1-2-.71,3.4,3.4,0,0,1-1.29-1,2.81,2.81,0,0,1-.53-1.78,2.85,2.85,0,0,1,.54-1.71,3.38,3.38,0,0,1,1.5-1.14,5.87,5.87,0,0,1,2.25-.4,7.25,7.25,0,0,1,2.13.32,7.15,7.15,0,0,1,1.86.86l-.69,1.49A7,7,0,0,0,559.38,153.84Z"/><path class="cls-4" d="M576.44,155.61a4,4,0,0,1,1.55,1.64,5.55,5.55,0,0,1,0,4.81,3.94,3.94,0,0,1-1.54,1.62,4.43,4.43,0,0,1-2.27.58,4.16,4.16,0,0,1-2-.48,3.46,3.46,0,0,1-1.38-1.38v5.17h-1.61V155.07h1.61v1.81a3.47,3.47,0,0,1,1.37-1.38,4.08,4.08,0,0,1,2-.48A4.42,4.42,0,0,1,576.44,155.61Zm-1,6.84a2.86,2.86,0,0,0,1.09-1.16,3.56,3.56,0,0,0,.39-1.68,3.46,3.46,0,0,0-.4-1.66,2.94,2.94,0,0,0-1.09-1.16,3,3,0,0,0-1.57-.41,3,3,0,0,0-1.58.41,2.92,2.92,0,0,0-1.1,1.16,3.72,3.72,0,0,0,0,3.34,2.93,2.93,0,0,0,1.1,1.15,3.22,3.22,0,0,0,3.16,0Z"/><path class="cls-4" d="M583.68,155.55a3.81,3.81,0,0,1,2-.53v1.55a2.94,2.94,0,0,0-3.25,2.82v4.82H580.8v-9.14h1.61v2A3.31,3.31,0,0,1,583.68,155.55Z"/><path class="cls-4" d="M593.62,155.61a4.22,4.22,0,0,1,1.66,1.63,4.74,4.74,0,0,1,.6,2.39,4.79,4.79,0,0,1-.6,2.4,4.2,4.2,0,0,1-1.66,1.64,5.34,5.34,0,0,1-4.87,0,4.22,4.22,0,0,1-1.66-1.63,5.14,5.14,0,0,1,0-4.8,4.22,4.22,0,0,1,1.66-1.63,5.34,5.34,0,0,1,4.87,0Zm-4,1.23a2.87,2.87,0,0,0-1.09,1.15,3.51,3.51,0,0,0-.39,1.67,3.6,3.6,0,0,0,.39,1.69,2.8,2.8,0,0,0,1.09,1.15,3.13,3.13,0,0,0,1.6.41,3.1,3.1,0,0,0,1.58-.41,2.8,2.8,0,0,0,1.09-1.15,3.6,3.6,0,0,0,.39-1.69,3.51,3.51,0,0,0-.39-1.67,2.87,2.87,0,0,0-1.09-1.15,3,3,0,0,0-1.58-.41A3.08,3.08,0,0,0,589.6,156.83Z"/><path class="cls-4" d="M596.74,166.25a1.13,1.13,0,0,0,1-.45,2.28,2.28,0,0,0,.34-1.36v-9.36h1.62v9.59a3.19,3.19,0,0,1-.68,2.19,2.44,2.44,0,0,1-1.93.77,4.29,4.29,0,0,1-1.57-.31l.38-1.23A3.13,3.13,0,0,0,596.74,166.25Zm2.86-14.53a1.11,1.11,0,0,1,0,1.49,1,1,0,0,1-1.43,0,1.11,1.11,0,0,1,0-1.49,1,1,0,0,1,1.43,0Z"/><path class="cls-4" d="M609.54,156.27a5.14,5.14,0,0,1,1.09,3.48c0,.23,0,.4,0,.52h-7.22a3.12,3.12,0,0,0,1,2,3,3,0,0,0,2.07.73,3.86,3.86,0,0,0,1.51-.29,3.63,3.63,0,0,0,1.22-.83l.88.92a4.62,4.62,0,0,1-1.62,1.12,5.41,5.41,0,0,1-2.11.4,4.86,4.86,0,0,1-2.39-.58,4.06,4.06,0,0,1-1.62-1.63,5.25,5.25,0,0,1,0-4.79,4.21,4.21,0,0,1,1.62-1.64,4.66,4.66,0,0,1,2.37-.6A4,4,0,0,1,609.54,156.27Zm-.36,2.76a2.65,2.65,0,0,0-2.83-2.68,2.89,2.89,0,0,0-2,.73,3,3,0,0,0-1,2Z"/><path class="cls-4" d="M616.63,156.46a3.18,3.18,0,0,0-1.6.4,2.83,2.83,0,0,0-1.1,1.12,3.44,3.44,0,0,0-.4,1.68,3.5,3.5,0,0,0,.39,1.68,2.86,2.86,0,0,0,1.07,1.13,3,3,0,0,0,1.56.41,4.12,4.12,0,0,0,1.59-.29,3,3,0,0,0,1.17-.85l.92.93a4,4,0,0,1-1.58,1.19,5.41,5.41,0,0,1-2.17.41,4.71,4.71,0,0,1-2.37-.59,4.15,4.15,0,0,1-1.62-1.63,5.25,5.25,0,0,1,0-4.79,4.14,4.14,0,0,1,1.62-1.64,4.71,4.71,0,0,1,2.37-.59,5.79,5.79,0,0,1,2.08.35,4,4,0,0,1,1.55,1l-.88,1.11A3.62,3.62,0,0,0,616.63,156.46Z"/><path class="cls-4" d="M627.44,163.61a3.94,3.94,0,0,1-2.14.67,2.44,2.44,0,0,1-1.76-.65,2.6,2.6,0,0,1-.67-2v-5.06h-1.3v-1.23h1.3v-2.45h1.62v2.45h2.8v1.23h-2.8v4.77a1.69,1.69,0,0,0,.28,1.09,1,1,0,0,0,.83.33,2.9,2.9,0,0,0,1.42-.43Z"/><path class="cls-4" d="M635.43,151.72a1.11,1.11,0,0,1,0,1.49,1,1,0,0,1-1.43,0,1.11,1.11,0,0,1,0-1.49,1,1,0,0,1,1.43,0Zm-1.51,3.35h1.61v9.14h-1.61Z"/><path class="cls-4" d="M642.39,156.54a4.49,4.49,0,0,0-1.3-.21,2.23,2.23,0,0,0-1.17.27.89.89,0,0,0-.44.82.91.91,0,0,0,.49.84,7.13,7.13,0,0,0,1.49.58,11.74,11.74,0,0,1,1.56.55,2.76,2.76,0,0,1,1,.81,2.51,2.51,0,0,1-.55,3.39,4.17,4.17,0,0,1-2.43.67,6.07,6.07,0,0,1-2-.33,4.49,4.49,0,0,1-1.62-.93l.6-1.17a4.28,4.28,0,0,0,1.41.83,4.68,4.68,0,0,0,1.63.31,2.45,2.45,0,0,0,1.28-.29,1,1,0,0,0,.48-.9,1,1,0,0,0-.51-.93,6.9,6.9,0,0,0-1.55-.62,10.34,10.34,0,0,1-1.49-.53,2.65,2.65,0,0,1-1-.79,2.12,2.12,0,0,1-.41-1.35,2.17,2.17,0,0,1,.93-1.92,4,4,0,0,1,2.33-.64,5.84,5.84,0,0,1,1.63.23,4.91,4.91,0,0,1,1.39.63l-.59,1.23A5.46,5.46,0,0,0,642.39,156.54Z"/><path class="cls-4" d="M651.21,151.39h1.61v12.82h-1.61Z"/><path class="cls-4" d="M662.28,155.61a4.22,4.22,0,0,1,1.66,1.63,4.74,4.74,0,0,1,.6,2.39,4.79,4.79,0,0,1-.6,2.4,4.2,4.2,0,0,1-1.66,1.64,5.34,5.34,0,0,1-4.87,0,4.22,4.22,0,0,1-1.66-1.63,5.14,5.14,0,0,1,0-4.8,4.22,4.22,0,0,1,1.66-1.63,5.34,5.34,0,0,1,4.87,0Zm-4,1.23a2.87,2.87,0,0,0-1.09,1.15,3.51,3.51,0,0,0-.39,1.67,3.6,3.6,0,0,0,.39,1.69,2.8,2.8,0,0,0,1.09,1.15,3.13,3.13,0,0,0,1.6.41,3.1,3.1,0,0,0,1.58-.41,2.8,2.8,0,0,0,1.09-1.15,3.6,3.6,0,0,0,.39-1.69,3.51,3.51,0,0,0-.39-1.67,2.87,2.87,0,0,0-1.09-1.15,3,3,0,0,0-1.58-.41A3.08,3.08,0,0,0,658.25,156.83Z"/><path class="cls-4" d="M673,155.61a4.22,4.22,0,0,1,1.66,1.63,4.74,4.74,0,0,1,.6,2.39,4.79,4.79,0,0,1-.6,2.4,4.2,4.2,0,0,1-1.66,1.64,5.34,5.34,0,0,1-4.87,0,4.22,4.22,0,0,1-1.66-1.63,5.14,5.14,0,0,1,0-4.8,4.22,4.22,0,0,1,1.66-1.63,5.34,5.34,0,0,1,4.87,0Zm-4,1.23a2.87,2.87,0,0,0-1.09,1.15,3.51,3.51,0,0,0-.39,1.67,3.6,3.6,0,0,0,.39,1.69,2.8,2.8,0,0,0,1.09,1.15,3.13,3.13,0,0,0,1.6.41,3.1,3.1,0,0,0,1.58-.41,2.8,2.8,0,0,0,1.09-1.15,3.6,3.6,0,0,0,.39-1.69,3.51,3.51,0,0,0-.39-1.67,2.87,2.87,0,0,0-1.09-1.15,3,3,0,0,0-1.58-.41A3.08,3.08,0,0,0,669,156.83Z"/><path class="cls-4" d="M683.9,164.21,681,159.77l-1.78,1.85v2.59h-1.61V151.39h1.61v8.17l4.42-4.49h1.88l-3.4,3.54,3.73,5.6Z"/><path class="cls-4" d="M689.07,151.72a1.11,1.11,0,0,1,0,1.49,1,1,0,0,1-1.43,0,1.11,1.11,0,0,1,0-1.49,1,1,0,0,1,1.43,0Zm-1.51,3.35h1.61v9.14h-1.61Z"/><path class="cls-4" d="M699.9,156a3.57,3.57,0,0,1,.92,2.6v5.65h-1.61V159a2.24,2.24,0,0,0-2.44-2.45,2.76,2.76,0,0,0-2,.79,3.09,3.09,0,0,0-.87,2v4.89h-1.61v-9.14h1.61V157a3.53,3.53,0,0,1,3.47-2A3.36,3.36,0,0,1,699.9,156Z"/><path class="cls-4" d="M711.76,155.07v8.21a4.45,4.45,0,0,1-.58,2.3,3.84,3.84,0,0,1-1.63,1.51,5.42,5.42,0,0,1-2.45.53,6.25,6.25,0,0,1-3.77-1.28l.71-1.17a4.87,4.87,0,0,0,1.4.82,4.57,4.57,0,0,0,1.59.27,3.17,3.17,0,0,0,2.26-.79,2.77,2.77,0,0,0,.85-2.12v-1.28a3.39,3.39,0,0,1-1.31,1.29,3.87,3.87,0,0,1-1.9.46,4.15,4.15,0,0,1-2.17-.56,3.82,3.82,0,0,1-1.46-1.56,4.93,4.93,0,0,1-.52-2.3,4.79,4.79,0,0,1,.52-2.26,3.79,3.79,0,0,1,1.46-1.54,4.2,4.2,0,0,1,2.17-.55,3.92,3.92,0,0,1,1.91.45,3.35,3.35,0,0,1,1.3,1.28v-1.68Zm-3,7a2.78,2.78,0,0,0,1-1.1,3.33,3.33,0,0,0,.37-1.58,3.36,3.36,0,0,0-.37-1.6,2.78,2.78,0,0,0-1-1.1,2.84,2.84,0,0,0-1.5-.4,2.89,2.89,0,0,0-1.51.4,2.81,2.81,0,0,0-1,1.1,3.29,3.29,0,0,0-.38,1.6,3.15,3.15,0,0,0,.83,2.21,2.76,2.76,0,0,0,2.11.86A2.84,2.84,0,0,0,708.74,162.1Z"/><path class="cls-4" d="M721.56,153.1a1.4,1.4,0,0,0-.41,1.09v1.19h2.52v1.23h-2.52v7.6h-1.61v-7.6h-1.19v-1.23h1.19v-1a3.23,3.23,0,0,1,.42-1.7,2.76,2.76,0,0,1,1.11-1.05,3.21,3.21,0,0,1,1.49-.35,3.56,3.56,0,0,1,1.59.41l-.38,1.31a2.76,2.76,0,0,0-1.17-.29A1.48,1.48,0,0,0,721.56,153.1Z"/><path class="cls-4" d="M731.19,155.61a4.22,4.22,0,0,1,1.66,1.63,4.74,4.74,0,0,1,.6,2.39,4.79,4.79,0,0,1-.6,2.4,4.2,4.2,0,0,1-1.66,1.64,5.34,5.34,0,0,1-4.87,0,4.22,4.22,0,0,1-1.66-1.63,5.14,5.14,0,0,1,0-4.8,4.22,4.22,0,0,1,1.66-1.63,5.34,5.34,0,0,1,4.87,0Zm-4,1.23a2.87,2.87,0,0,0-1.09,1.15,3.51,3.51,0,0,0-.39,1.67,3.6,3.6,0,0,0,.39,1.69,2.8,2.8,0,0,0,1.09,1.15,3.13,3.13,0,0,0,1.6.41,3.1,3.1,0,0,0,1.58-.41,2.8,2.8,0,0,0,1.09-1.15,3.6,3.6,0,0,0,.39-1.69,3.51,3.51,0,0,0-.39-1.67,2.87,2.87,0,0,0-1.09-1.15,3,3,0,0,0-1.58-.41A3.08,3.08,0,0,0,727.17,156.83Z"/><path class="cls-4" d="M738.58,155.55a3.81,3.81,0,0,1,2-.53v1.55a2.94,2.94,0,0,0-3.25,2.82v4.82h-1.61v-9.14h1.61v2A3.31,3.31,0,0,1,738.58,155.55Z"/><path class="cls-4" d="M750.62,156.46a3.18,3.18,0,0,0-1.6.4,2.83,2.83,0,0,0-1.1,1.12,3.44,3.44,0,0,0-.4,1.68,3.5,3.5,0,0,0,.39,1.68,2.86,2.86,0,0,0,1.07,1.13,3,3,0,0,0,1.56.41,4.12,4.12,0,0,0,1.59-.29,3,3,0,0,0,1.17-.85l.92.93a4,4,0,0,1-1.58,1.19,5.41,5.41,0,0,1-2.17.41,4.71,4.71,0,0,1-2.37-.59A4.15,4.15,0,0,1,746.5,162a5.25,5.25,0,0,1,0-4.79,4.14,4.14,0,0,1,1.62-1.64,4.71,4.71,0,0,1,2.37-.59,5.79,5.79,0,0,1,2.08.35,4,4,0,0,1,1.55,1l-.88,1.11A3.62,3.62,0,0,0,750.62,156.46Z"/><path class="cls-4" d="M762.36,155.61a4.22,4.22,0,0,1,1.66,1.63,4.74,4.74,0,0,1,.6,2.39,4.79,4.79,0,0,1-.6,2.4,4.2,4.2,0,0,1-1.66,1.64,5.34,5.34,0,0,1-4.87,0,4.22,4.22,0,0,1-1.66-1.63,5.14,5.14,0,0,1,0-4.8,4.22,4.22,0,0,1,1.66-1.63,5.34,5.34,0,0,1,4.87,0Zm-4,1.23a2.87,2.87,0,0,0-1.09,1.15,3.51,3.51,0,0,0-.39,1.67,3.6,3.6,0,0,0,.39,1.69,2.8,2.8,0,0,0,1.09,1.15,3.13,3.13,0,0,0,1.6.41,3.1,3.1,0,0,0,1.58-.41,2.8,2.8,0,0,0,1.09-1.15,3.6,3.6,0,0,0,.39-1.69,3.51,3.51,0,0,0-.39-1.67,2.87,2.87,0,0,0-1.09-1.15,3,3,0,0,0-1.58-.41A3.08,3.08,0,0,0,758.33,156.83Z"/><path class="cls-4" d="M774.46,156a3.57,3.57,0,0,1,.92,2.6v5.65h-1.61V159a2.24,2.24,0,0,0-2.44-2.45,2.76,2.76,0,0,0-2,.79,3.09,3.09,0,0,0-.87,2v4.89h-1.61v-9.14h1.61V157a3.53,3.53,0,0,1,3.47-2A3.36,3.36,0,0,1,774.46,156Z"/><path class="cls-4" d="M783.15,163.61a3.94,3.94,0,0,1-2.14.67,2.44,2.44,0,0,1-1.76-.65,2.6,2.6,0,0,1-.67-2v-5.06h-1.3v-1.23h1.3v-2.45h1.62v2.45H783v1.23h-2.8v4.77a1.69,1.69,0,0,0,.28,1.09,1,1,0,0,0,.83.33,2.9,2.9,0,0,0,1.42-.43Z"/><path class="cls-4" d="M788,155.55a3.81,3.81,0,0,1,2-.53v1.55a2.94,2.94,0,0,0-3.25,2.82v4.82H785.1v-9.14h1.61v2A3.31,3.31,0,0,1,788,155.55Z"/><path class="cls-4" d="M793.21,151.72a1.11,1.11,0,0,1,0,1.49,1,1,0,0,1-1.43,0,1.11,1.11,0,0,1,0-1.49,1,1,0,0,1,1.43,0Zm-1.51,3.35h1.61v9.14H791.7Z"/><path class="cls-4" d="M803.79,155.61a4,4,0,0,1,1.55,1.64,5.55,5.55,0,0,1,0,4.81,3.94,3.94,0,0,1-1.54,1.62,4.43,4.43,0,0,1-2.27.58,4.16,4.16,0,0,1-2-.48,3.46,3.46,0,0,1-1.38-1.38v1.81h-1.61V151.39h1.61v5.49a3.47,3.47,0,0,1,1.37-1.38,4.08,4.08,0,0,1,2-.48A4.42,4.42,0,0,1,803.79,155.61Zm-1,6.84a2.86,2.86,0,0,0,1.09-1.16,3.56,3.56,0,0,0,.39-1.68,3.46,3.46,0,0,0-.4-1.66,2.94,2.94,0,0,0-1.09-1.16,3,3,0,0,0-1.57-.41,3,3,0,0,0-1.58.41,2.92,2.92,0,0,0-1.1,1.16,3.72,3.72,0,0,0,0,3.34,2.93,2.93,0,0,0,1.1,1.15,3.22,3.22,0,0,0,3.16,0Z"/><path class="cls-4" d="M816.23,155.07v9.14h-1.62v-1.94a3.43,3.43,0,0,1-3.39,2,3.27,3.27,0,0,1-2.49-.94,3.61,3.61,0,0,1-.9-2.6v-5.65h1.62v5.22a2.48,2.48,0,0,0,.63,1.81,2.31,2.31,0,0,0,1.74.65,2.57,2.57,0,0,0,2-.91,3.4,3.4,0,0,0,.75-2.27v-4.49Z"/><path class="cls-4" d="M824.26,163.61a3.94,3.94,0,0,1-2.14.67,2.44,2.44,0,0,1-1.76-.65,2.6,2.6,0,0,1-.67-2v-5.06h-1.3v-1.23h1.3v-2.45h1.62v2.45h2.8v1.23h-2.8v4.77a1.69,1.69,0,0,0,.28,1.09,1,1,0,0,0,.83.33,2.9,2.9,0,0,0,1.42-.43Z"/><path class="cls-4" d="M827.73,151.72a1.11,1.11,0,0,1,0,1.49,1,1,0,0,1-1.43,0,1.11,1.11,0,0,1,0-1.49,1,1,0,0,1,1.43,0Zm-1.51,3.35h1.61v9.14h-1.61Z"/><path class="cls-4" d="M837.18,155.61a4.22,4.22,0,0,1,1.66,1.63,4.74,4.74,0,0,1,.6,2.39,4.79,4.79,0,0,1-.6,2.4,4.2,4.2,0,0,1-1.66,1.64,5.34,5.34,0,0,1-4.87,0,4.22,4.22,0,0,1-1.66-1.63,5.14,5.14,0,0,1,0-4.8,4.22,4.22,0,0,1,1.66-1.63,5.34,5.34,0,0,1,4.87,0Zm-4,1.23a2.87,2.87,0,0,0-1.09,1.15,3.51,3.51,0,0,0-.39,1.67,3.6,3.6,0,0,0,.39,1.69,2.8,2.8,0,0,0,1.09,1.15,3.13,3.13,0,0,0,1.6.41,3.1,3.1,0,0,0,1.58-.41,2.8,2.8,0,0,0,1.09-1.15,3.6,3.6,0,0,0,.39-1.69,3.51,3.51,0,0,0-.39-1.67,2.87,2.87,0,0,0-1.09-1.15,3,3,0,0,0-1.58-.41A3.08,3.08,0,0,0,833.15,156.83Z"/><path class="cls-4" d="M849.28,156a3.57,3.57,0,0,1,.92,2.6v5.65h-1.61V159a2.24,2.24,0,0,0-2.44-2.45,2.76,2.76,0,0,0-2,.79,3.09,3.09,0,0,0-.87,2v4.89h-1.61v-9.14h1.61V157a3.53,3.53,0,0,1,3.47-2A3.36,3.36,0,0,1,849.28,156Z"/><path class="cls-4" d="M856.8,156.54a4.49,4.49,0,0,0-1.3-.21,2.23,2.23,0,0,0-1.17.27.89.89,0,0,0-.44.82.91.91,0,0,0,.49.84,7.13,7.13,0,0,0,1.49.58,11.74,11.74,0,0,1,1.56.55,2.76,2.76,0,0,1,1,.81,2.51,2.51,0,0,1-.55,3.39,4.17,4.17,0,0,1-2.43.67,6.07,6.07,0,0,1-2-.33,4.49,4.49,0,0,1-1.62-.93l.6-1.17a4.28,4.28,0,0,0,1.41.83,4.68,4.68,0,0,0,1.63.31,2.45,2.45,0,0,0,1.28-.29,1,1,0,0,0,.48-.9,1,1,0,0,0-.51-.93,6.9,6.9,0,0,0-1.55-.62,10.34,10.34,0,0,1-1.49-.53,2.65,2.65,0,0,1-1-.79,2.12,2.12,0,0,1-.41-1.35,2.17,2.17,0,0,1,.93-1.92,4,4,0,0,1,2.33-.64,5.84,5.84,0,0,1,1.63.23,4.91,4.91,0,0,1,1.39.63l-.59,1.23A5.46,5.46,0,0,0,856.8,156.54Z"/><path class="cls-4" d="M866.62,162.66a1,1,0,0,1,.27.71,1,1,0,0,1-.27.72.88.88,0,0,1-.67.28.9.9,0,0,1-.67-.28,1,1,0,0,1-.28-.72,1,1,0,0,1,.28-.71.92.92,0,0,1,.67-.28A.89.89,0,0,1,866.62,162.66Zm-1.44-10.37h1.56v3l-.26,5.25h-1.05l-.24-5.25Z"/><path class="cls-4" d="M479.27,172.85H481l-4.09,12.09h-1.73l-3.13-10-3.18,10h-1.71l-4.08-12.09h1.78l3.2,10.31,3.18-10.31h1.66l3.2,10.31Z"/><path class="cls-4" d="M488.64,177a5.14,5.14,0,0,1,1.09,3.48c0,.23,0,.4,0,.52h-7.22a3.12,3.12,0,0,0,1,2,3,3,0,0,0,2.07.73,3.86,3.86,0,0,0,1.51-.29,3.63,3.63,0,0,0,1.22-.83l.88.92a4.62,4.62,0,0,1-1.62,1.12,5.41,5.41,0,0,1-2.11.4,4.86,4.86,0,0,1-2.39-.58,4.06,4.06,0,0,1-1.62-1.63,5.25,5.25,0,0,1,0-4.79,4.21,4.21,0,0,1,1.62-1.64,4.66,4.66,0,0,1,2.37-.6A4,4,0,0,1,488.64,177Zm-.36,2.76a2.65,2.65,0,0,0-2.83-2.68,2.89,2.89,0,0,0-2,.73,3,3,0,0,0-1,2Z"/><path class="cls-4" d="M502,184.94v-1.28a3.75,3.75,0,0,1-3.2,1.35,3.64,3.64,0,0,1-1.67-.36,2.67,2.67,0,0,1-1.11-1,2.7,2.7,0,0,1-.39-1.43,2.34,2.34,0,0,1,.91-1.94,4.06,4.06,0,0,1,2.53-.73H502v-.43a1.89,1.89,0,0,0-.6-1.49,2.54,2.54,0,0,0-1.74-.53,5,5,0,0,0-2.82,1l-.67-1.11A8.37,8.37,0,0,1,498,176a6.22,6.22,0,0,1,2-.29,3.82,3.82,0,0,1,2.64.84,3,3,0,0,1,1,2.34l0,6Zm-1-1.81a2.14,2.14,0,0,0,.94-1.44v-.92h-2.68a3.13,3.13,0,0,0-1.62.33,1.13,1.13,0,0,0-.53,1,1.34,1.34,0,0,0,.54,1.12,2.28,2.28,0,0,0,1.43.41A3.27,3.27,0,0,0,501.07,183.14Z"/><path class="cls-4" d="M509.37,176.28a3.81,3.81,0,0,1,2-.53v1.55a2.94,2.94,0,0,0-3.25,2.82v4.82h-1.61V175.8h1.61v2A3.31,3.31,0,0,1,509.37,176.28Z"/><path class="cls-4" d="M520,177a5.14,5.14,0,0,1,1.09,3.48c0,.23,0,.4,0,.52h-7.22a3.12,3.12,0,0,0,1,2,3,3,0,0,0,2.07.73,3.86,3.86,0,0,0,1.51-.29,3.63,3.63,0,0,0,1.22-.83l.88.92a4.62,4.62,0,0,1-1.62,1.12,5.41,5.41,0,0,1-2.11.4,4.86,4.86,0,0,1-2.39-.58,4.06,4.06,0,0,1-1.62-1.63,5.25,5.25,0,0,1,0-4.79,4.21,4.21,0,0,1,1.62-1.64,4.66,4.66,0,0,1,2.37-.6A4,4,0,0,1,520,177Zm-.36,2.76a2.65,2.65,0,0,0-2.83-2.68,2.89,2.89,0,0,0-2,.73,3,3,0,0,0-1,2Z"/><path class="cls-4" d="M531.57,177.19a3.18,3.18,0,0,0-1.6.4,2.83,2.83,0,0,0-1.1,1.12,3.44,3.44,0,0,0-.4,1.68,3.5,3.5,0,0,0,.39,1.68,2.86,2.86,0,0,0,1.07,1.13,3,3,0,0,0,1.56.41,4.12,4.12,0,0,0,1.59-.29,3,3,0,0,0,1.17-.85l.92.93a4,4,0,0,1-1.58,1.19,5.41,5.41,0,0,1-2.17.41,4.71,4.71,0,0,1-2.37-.59,4.15,4.15,0,0,1-1.62-1.63,5.25,5.25,0,0,1,0-4.79,4.14,4.14,0,0,1,1.62-1.64,4.71,4.71,0,0,1,2.37-.59,5.79,5.79,0,0,1,2.08.35,4,4,0,0,1,1.55,1l-.88,1.11A3.62,3.62,0,0,0,531.57,177.19Z"/><path class="cls-4" d="M544,177a5.14,5.14,0,0,1,1.09,3.48c0,.23,0,.4,0,.52H537.8a3.12,3.12,0,0,0,1,2,3,3,0,0,0,2.07.73,3.86,3.86,0,0,0,1.51-.29,3.63,3.63,0,0,0,1.22-.83l.88.92a4.62,4.62,0,0,1-1.62,1.12,5.41,5.41,0,0,1-2.11.4,4.86,4.86,0,0,1-2.39-.58,4.06,4.06,0,0,1-1.62-1.63,5.25,5.25,0,0,1,0-4.79,4.21,4.21,0,0,1,1.62-1.64,4.66,4.66,0,0,1,2.37-.6A4,4,0,0,1,544,177Zm-.36,2.76a2.65,2.65,0,0,0-2.83-2.68,2.89,2.89,0,0,0-2,.73,3,3,0,0,0-1,2Z"/><path class="cls-4" d="M547.32,172.12h1.61v12.82h-1.61Z"/><path class="cls-4" d="M559,177a5.14,5.14,0,0,1,1.09,3.48c0,.23,0,.4,0,.52h-7.22a3.12,3.12,0,0,0,1,2,3,3,0,0,0,2.07.73,3.86,3.86,0,0,0,1.51-.29,3.63,3.63,0,0,0,1.22-.83l.88.92A4.62,4.62,0,0,1,558,184.6a5.41,5.41,0,0,1-2.11.4,4.86,4.86,0,0,1-2.39-.58,4.06,4.06,0,0,1-1.62-1.63,5.25,5.25,0,0,1,0-4.79,4.21,4.21,0,0,1,1.62-1.64,4.66,4.66,0,0,1,2.37-.6A4,4,0,0,1,559,177Zm-.36,2.76a2.65,2.65,0,0,0-2.83-2.68,2.89,2.89,0,0,0-2,.73,3,3,0,0,0-1,2Z"/><path class="cls-4" d="M569.68,176.34a4,4,0,0,1,1.55,1.64,5.55,5.55,0,0,1,0,4.81,3.94,3.94,0,0,1-1.54,1.62,4.43,4.43,0,0,1-2.27.58,4.16,4.16,0,0,1-2-.48,3.46,3.46,0,0,1-1.38-1.38v1.81h-1.61V172.12H564v5.49a3.47,3.47,0,0,1,1.37-1.38,4.08,4.08,0,0,1,2-.48A4.42,4.42,0,0,1,569.68,176.34Zm-1,6.84a2.86,2.86,0,0,0,1.09-1.16,3.56,3.56,0,0,0,.39-1.68,3.46,3.46,0,0,0-.4-1.66,2.94,2.94,0,0,0-1.09-1.16,3,3,0,0,0-1.57-.41,3,3,0,0,0-1.58.41,2.92,2.92,0,0,0-1.1,1.16,3.72,3.72,0,0,0,0,3.34,2.93,2.93,0,0,0,1.1,1.15,3.22,3.22,0,0,0,3.16,0Z"/><path class="cls-4" d="M576.92,176.28a3.81,3.81,0,0,1,2-.53v1.55a2.94,2.94,0,0,0-3.25,2.82v4.82H574V175.8h1.61v2A3.31,3.31,0,0,1,576.92,176.28Z"/><path class="cls-4" d="M585.81,184.94v-1.28a3.75,3.75,0,0,1-3.2,1.35,3.64,3.64,0,0,1-1.67-.36,2.67,2.67,0,0,1-1.11-1,2.7,2.7,0,0,1-.39-1.43,2.34,2.34,0,0,1,.91-1.94,4.06,4.06,0,0,1,2.53-.73h2.9v-.43a1.89,1.89,0,0,0-.6-1.49,2.54,2.54,0,0,0-1.74-.53,5,5,0,0,0-2.82,1L580,177a8.37,8.37,0,0,1,1.82-.92,6.22,6.22,0,0,1,2-.29,3.82,3.82,0,0,1,2.64.84,3,3,0,0,1,1,2.34l0,6Zm-1-1.81a2.14,2.14,0,0,0,.94-1.44v-.92h-2.68a3.13,3.13,0,0,0-1.62.33,1.13,1.13,0,0,0-.53,1,1.34,1.34,0,0,0,.54,1.12,2.28,2.28,0,0,0,1.43.41A3.27,3.27,0,0,0,584.86,183.14Z"/><path class="cls-4" d="M595.18,184.34A3.94,3.94,0,0,1,593,185a2.44,2.44,0,0,1-1.76-.65,2.6,2.6,0,0,1-.67-2v-5.06h-1.3v-1.23h1.3v-2.45h1.62v2.45H595v1.23h-2.8v4.77a1.69,1.69,0,0,0,.28,1.09,1,1,0,0,0,.83.33,2.9,2.9,0,0,0,1.42-.43Z"/><path class="cls-4" d="M598.64,172.45a1.11,1.11,0,0,1,0,1.49,1,1,0,0,1-1.43,0,1.11,1.11,0,0,1,0-1.49,1,1,0,0,1,1.43,0Zm-1.51,3.35h1.61v9.14h-1.61Z"/><path class="cls-4" d="M609.47,176.69a3.57,3.57,0,0,1,.92,2.6v5.65h-1.61v-5.22a2.24,2.24,0,0,0-2.44-2.45,2.76,2.76,0,0,0-2,.79,3.09,3.09,0,0,0-.87,2v4.89h-1.61V175.8h1.61v1.94a3.53,3.53,0,0,1,3.47-2A3.36,3.36,0,0,1,609.47,176.69Z"/><path class="cls-4" d="M621.33,175.8V184a4.45,4.45,0,0,1-.58,2.3,3.84,3.84,0,0,1-1.63,1.51,5.42,5.42,0,0,1-2.45.53,6.25,6.25,0,0,1-3.77-1.28l.71-1.17a4.87,4.87,0,0,0,1.4.82,4.57,4.57,0,0,0,1.59.27,3.17,3.17,0,0,0,2.26-.79,2.77,2.77,0,0,0,.85-2.12v-1.28a3.39,3.39,0,0,1-1.31,1.29,3.87,3.87,0,0,1-1.9.46,4.15,4.15,0,0,1-2.17-.56,3.82,3.82,0,0,1-1.46-1.56,4.93,4.93,0,0,1-.52-2.3,4.79,4.79,0,0,1,.52-2.26,3.79,3.79,0,0,1,1.46-1.54,4.2,4.2,0,0,1,2.17-.55,3.92,3.92,0,0,1,1.91.45,3.35,3.35,0,0,1,1.3,1.28V175.8Zm-3,7a2.78,2.78,0,0,0,1-1.1,3.33,3.33,0,0,0,.37-1.58,3.36,3.36,0,0,0-.37-1.6,2.78,2.78,0,0,0-1-1.1,2.84,2.84,0,0,0-1.5-.4,2.89,2.89,0,0,0-1.51.4,2.81,2.81,0,0,0-1,1.1,3.29,3.29,0,0,0-.38,1.6,3.15,3.15,0,0,0,.83,2.21,2.76,2.76,0,0,0,2.11.86A2.84,2.84,0,0,0,618.31,182.84Z"/><path class="cls-4" d="M633.7,184.34a3.94,3.94,0,0,1-2.14.67,2.44,2.44,0,0,1-1.76-.65,2.6,2.6,0,0,1-.67-2v-5.06h-1.3v-1.23h1.3v-2.45h1.62v2.45h2.8v1.23h-2.8v4.77a1.69,1.69,0,0,0,.28,1.09,1,1,0,0,0,.83.33,2.9,2.9,0,0,0,1.42-.43Z"/><path class="cls-4" d="M643.36,176.69a3.57,3.57,0,0,1,.92,2.6v5.65h-1.61v-5.22a2.44,2.44,0,0,0-.65-1.81,2.42,2.42,0,0,0-1.79-.65,2.72,2.72,0,0,0-2.11.9,3.32,3.32,0,0,0-.78,2.28v4.49h-1.61V172.12h1.61v5.65a3.53,3.53,0,0,1,3.49-2A3.36,3.36,0,0,1,643.36,176.69Z"/><path class="cls-4" d="M654,177a5.14,5.14,0,0,1,1.09,3.48c0,.23,0,.4,0,.52h-7.22a3.12,3.12,0,0,0,1,2,3,3,0,0,0,2.07.73,3.86,3.86,0,0,0,1.51-.29,3.63,3.63,0,0,0,1.22-.83l.88.92a4.62,4.62,0,0,1-1.62,1.12,5.41,5.41,0,0,1-2.11.4,4.86,4.86,0,0,1-2.39-.58,4.06,4.06,0,0,1-1.62-1.63,5.25,5.25,0,0,1,0-4.79,4.21,4.21,0,0,1,1.62-1.64,4.66,4.66,0,0,1,2.37-.6A4,4,0,0,1,654,177Zm-.36,2.76a2.65,2.65,0,0,0-2.83-2.68,2.89,2.89,0,0,0-2,.73,3,3,0,0,0-1,2Z"/><path class="cls-4" d="M676.1,176.7a3.62,3.62,0,0,1,.9,2.59v5.65h-1.62v-5.22a2.51,2.51,0,0,0-.63-1.81,2.3,2.3,0,0,0-1.74-.66,2.62,2.62,0,0,0-2,.92,3.39,3.39,0,0,0-.74,2.26v4.51H668.6v-5.22a2.53,2.53,0,0,0-.62-1.81,2.29,2.29,0,0,0-1.75-.66,2.65,2.65,0,0,0-2,.92,3.37,3.37,0,0,0-.75,2.26v4.51h-1.61V175.8h1.61v1.92a3.45,3.45,0,0,1,3.4-2,3.5,3.5,0,0,1,2.1.6,3,3,0,0,1,1.13,1.69,3.47,3.47,0,0,1,3.56-2.3A3.24,3.24,0,0,1,676.1,176.7Z"/><path class="cls-4" d="M686.09,176.34a4.22,4.22,0,0,1,1.66,1.63,4.74,4.74,0,0,1,.6,2.39,4.79,4.79,0,0,1-.6,2.4,4.2,4.2,0,0,1-1.66,1.64,5.34,5.34,0,0,1-4.87,0,4.22,4.22,0,0,1-1.66-1.63,5.14,5.14,0,0,1,0-4.8,4.22,4.22,0,0,1,1.66-1.63,5.34,5.34,0,0,1,4.87,0Zm-4,1.23a2.87,2.87,0,0,0-1.09,1.15,3.51,3.51,0,0,0-.39,1.67,3.6,3.6,0,0,0,.39,1.69,2.8,2.8,0,0,0,1.09,1.15,3.13,3.13,0,0,0,1.6.41,3.1,3.1,0,0,0,1.58-.41,2.8,2.8,0,0,0,1.09-1.15,3.6,3.6,0,0,0,.39-1.69,3.51,3.51,0,0,0-.39-1.67,2.87,2.87,0,0,0-1.09-1.15,3,3,0,0,0-1.58-.41A3.08,3.08,0,0,0,682.07,177.57Z"/><path class="cls-4" d="M698.19,176.69a3.57,3.57,0,0,1,.92,2.6v5.65H697.5v-5.22a2.24,2.24,0,0,0-2.44-2.45,2.76,2.76,0,0,0-2,.79,3.09,3.09,0,0,0-.87,2v4.89h-1.61V175.8h1.61v1.94a3.53,3.53,0,0,1,3.47-2A3.36,3.36,0,0,1,698.19,176.69Z"/><path class="cls-4" d="M706.88,184.34a3.94,3.94,0,0,1-2.14.67,2.44,2.44,0,0,1-1.76-.65,2.6,2.6,0,0,1-.67-2v-5.06H701v-1.23h1.3v-2.45h1.62v2.45h2.8v1.23h-2.8v4.77a1.69,1.69,0,0,0,.28,1.09,1,1,0,0,0,.83.33,2.9,2.9,0,0,0,1.42-.43Z"/><path class="cls-4" d="M716.54,176.69a3.57,3.57,0,0,1,.92,2.6v5.65h-1.61v-5.22a2.44,2.44,0,0,0-.65-1.81,2.42,2.42,0,0,0-1.79-.65,2.72,2.72,0,0,0-2.11.9,3.32,3.32,0,0,0-.78,2.28v4.49h-1.61V172.12h1.61v5.65a3.53,3.53,0,0,1,3.49-2A3.36,3.36,0,0,1,716.54,176.69Z"/><path class="cls-4" d="M724.94,172.12h1.61v12.82h-1.61Z"/><path class="cls-4" d="M736,176.34a4.22,4.22,0,0,1,1.66,1.63,4.74,4.74,0,0,1,.6,2.39,4.79,4.79,0,0,1-.6,2.4,4.2,4.2,0,0,1-1.66,1.64,5.34,5.34,0,0,1-4.87,0,4.22,4.22,0,0,1-1.66-1.63,5.14,5.14,0,0,1,0-4.8,4.22,4.22,0,0,1,1.66-1.63,5.34,5.34,0,0,1,4.87,0Zm-4,1.23a2.87,2.87,0,0,0-1.09,1.15,3.51,3.51,0,0,0-.39,1.67,3.6,3.6,0,0,0,.39,1.69,2.8,2.8,0,0,0,1.09,1.15,3.13,3.13,0,0,0,1.6.41,3.1,3.1,0,0,0,1.58-.41,2.8,2.8,0,0,0,1.09-1.15,3.6,3.6,0,0,0,.39-1.69,3.51,3.51,0,0,0-.39-1.67,2.87,2.87,0,0,0-1.09-1.15,3,3,0,0,0-1.58-.41A3.08,3.08,0,0,0,732,177.57Z"/><path class="cls-4" d="M748.1,176.69a3.57,3.57,0,0,1,.92,2.6v5.65h-1.61v-5.22a2.24,2.24,0,0,0-2.44-2.45,2.76,2.76,0,0,0-2,.79,3.09,3.09,0,0,0-.87,2v4.89H740.5V175.8h1.61v1.94a3.53,3.53,0,0,1,3.47-2A3.36,3.36,0,0,1,748.1,176.69Z"/><path class="cls-4" d="M760,175.8V184a4.45,4.45,0,0,1-.58,2.3,3.84,3.84,0,0,1-1.63,1.51,5.42,5.42,0,0,1-2.45.53,6.25,6.25,0,0,1-3.77-1.28l.71-1.17a4.87,4.87,0,0,0,1.4.82,4.57,4.57,0,0,0,1.59.27,3.17,3.17,0,0,0,2.26-.79,2.77,2.77,0,0,0,.85-2.12v-1.28a3.39,3.39,0,0,1-1.31,1.29,3.87,3.87,0,0,1-1.9.46A4.15,4.15,0,0,1,753,184a3.82,3.82,0,0,1-1.46-1.56,4.93,4.93,0,0,1-.52-2.3,4.79,4.79,0,0,1,.52-2.26,3.79,3.79,0,0,1,1.46-1.54,4.2,4.2,0,0,1,2.17-.55,3.92,3.92,0,0,1,1.91.45,3.35,3.35,0,0,1,1.3,1.28V175.8Zm-3,7a2.78,2.78,0,0,0,1-1.1,3.33,3.33,0,0,0,.37-1.58,3.36,3.36,0,0,0-.37-1.6,2.78,2.78,0,0,0-1-1.1,2.84,2.84,0,0,0-1.5-.4,2.89,2.89,0,0,0-1.51.4,2.81,2.81,0,0,0-1,1.1,3.29,3.29,0,0,0-.38,1.6,3.15,3.15,0,0,0,.83,2.21,2.76,2.76,0,0,0,2.11.86A2.84,2.84,0,0,0,756.95,182.84Z"/><path class="cls-4" d="M767.59,172.85h1.66v5.39h6.91v-5.39h1.68v12.09h-1.68v-5.2h-6.91v5.2h-1.66Z"/><path class="cls-4" d="M786.72,184.94v-1.28a3.75,3.75,0,0,1-3.2,1.35,3.64,3.64,0,0,1-1.67-.36,2.67,2.67,0,0,1-1.11-1,2.7,2.7,0,0,1-.39-1.43,2.34,2.34,0,0,1,.91-1.94,4.06,4.06,0,0,1,2.53-.73h2.9v-.43a1.89,1.89,0,0,0-.6-1.49,2.54,2.54,0,0,0-1.74-.53,5,5,0,0,0-2.82,1l-.67-1.11a8.37,8.37,0,0,1,1.82-.92,6.22,6.22,0,0,1,2-.29,3.82,3.82,0,0,1,2.64.84,3,3,0,0,1,1,2.34l0,6Zm-1-1.81a2.14,2.14,0,0,0,.94-1.44v-.92H784a3.13,3.13,0,0,0-1.62.33,1.13,1.13,0,0,0-.53,1,1.34,1.34,0,0,0,.54,1.12,2.28,2.28,0,0,0,1.43.41A3.27,3.27,0,0,0,785.76,183.14Z"/><path class="cls-4" d="M795,177.19a3.18,3.18,0,0,0-1.6.4,2.83,2.83,0,0,0-1.1,1.12,3.44,3.44,0,0,0-.4,1.68,3.5,3.5,0,0,0,.39,1.68,2.86,2.86,0,0,0,1.07,1.13,3,3,0,0,0,1.56.41,4.12,4.12,0,0,0,1.59-.29,3,3,0,0,0,1.17-.85l.92.93a4,4,0,0,1-1.58,1.19,5.41,5.41,0,0,1-2.17.41,4.71,4.71,0,0,1-2.37-.59,4.15,4.15,0,0,1-1.62-1.63,5.25,5.25,0,0,1,0-4.79,4.14,4.14,0,0,1,1.62-1.64,4.71,4.71,0,0,1,2.37-.59,5.79,5.79,0,0,1,2.08.35,4,4,0,0,1,1.55,1l-.88,1.11A3.62,3.62,0,0,0,795,177.19Z"/><path class="cls-4" d="M807.27,184.94l-2.92-4.44-1.78,1.85v2.59H801V172.12h1.61v8.17L807,175.8h1.88l-3.4,3.54,3.73,5.6Z"/><path class="cls-4" d="M815.84,184.34a3.94,3.94,0,0,1-2.14.67,2.44,2.44,0,0,1-1.76-.65,2.6,2.6,0,0,1-.67-2v-5.06H810v-1.23h1.3v-2.45h1.62v2.45h2.8v1.23h-2.8v4.77a1.69,1.69,0,0,0,.28,1.09,1,1,0,0,0,.83.33,2.9,2.9,0,0,0,1.42-.43Z"/><path class="cls-4" d="M823.9,176.34a4.22,4.22,0,0,1,1.66,1.63,4.74,4.74,0,0,1,.6,2.39,4.79,4.79,0,0,1-.6,2.4,4.2,4.2,0,0,1-1.66,1.64,5.34,5.34,0,0,1-4.87,0,4.22,4.22,0,0,1-1.66-1.63,5.14,5.14,0,0,1,0-4.8,4.22,4.22,0,0,1,1.66-1.63,5.34,5.34,0,0,1,4.87,0Zm-4,1.23a2.87,2.87,0,0,0-1.09,1.15,3.51,3.51,0,0,0-.39,1.67,3.6,3.6,0,0,0,.39,1.69,2.8,2.8,0,0,0,1.09,1.15,3.13,3.13,0,0,0,1.6.41,3.1,3.1,0,0,0,1.58-.41,2.8,2.8,0,0,0,1.09-1.15,3.6,3.6,0,0,0,.39-1.69,3.51,3.51,0,0,0-.39-1.67,2.87,2.87,0,0,0-1.09-1.15,3,3,0,0,0-1.58-.41A3.08,3.08,0,0,0,819.88,177.57Z"/><path class="cls-4" d="M835.76,176.34a4,4,0,0,1,1.55,1.64,5.55,5.55,0,0,1,0,4.81,3.94,3.94,0,0,1-1.54,1.62,4.43,4.43,0,0,1-2.27.58,4.16,4.16,0,0,1-2-.48,3.46,3.46,0,0,1-1.38-1.38v1.81h-1.61V172.12h1.61v5.49a3.47,3.47,0,0,1,1.37-1.38,4.08,4.08,0,0,1,2-.48A4.42,4.42,0,0,1,835.76,176.34Zm-1,6.84a2.86,2.86,0,0,0,1.09-1.16,3.56,3.56,0,0,0,.39-1.68,3.46,3.46,0,0,0-.4-1.66,2.94,2.94,0,0,0-1.09-1.16,3,3,0,0,0-1.57-.41,3,3,0,0,0-1.58.41,2.92,2.92,0,0,0-1.1,1.16,3.72,3.72,0,0,0,0,3.34,2.93,2.93,0,0,0,1.1,1.15,3.22,3.22,0,0,0,3.16,0Z"/><path class="cls-4" d="M847,177a5.14,5.14,0,0,1,1.09,3.48c0,.23,0,.4,0,.52h-7.22a3.12,3.12,0,0,0,1,2,3,3,0,0,0,2.07.73,3.86,3.86,0,0,0,1.51-.29,3.63,3.63,0,0,0,1.22-.83l.88.92a4.62,4.62,0,0,1-1.62,1.12,5.41,5.41,0,0,1-2.11.4,4.86,4.86,0,0,1-2.39-.58,4.06,4.06,0,0,1-1.62-1.63,5.25,5.25,0,0,1,0-4.79,4.21,4.21,0,0,1,1.62-1.64,4.66,4.66,0,0,1,2.37-.6A4,4,0,0,1,847,177Zm-.36,2.76a2.65,2.65,0,0,0-2.83-2.68,2.89,2.89,0,0,0-2,.73,3,3,0,0,0-1,2Z"/><path class="cls-4" d="M853.16,176.28a3.81,3.81,0,0,1,2-.53v1.55a2.94,2.94,0,0,0-3.25,2.82v4.82h-1.61V175.8h1.61v2A3.31,3.31,0,0,1,853.16,176.28Z"/><path class="cls-4" d="M859.21,173.83a1.4,1.4,0,0,0-.41,1.09v1.19h2.52v1.23h-2.52v7.6h-1.61v-7.6H856v-1.23h1.19v-1a3.23,3.23,0,0,1,.42-1.7,2.76,2.76,0,0,1,1.11-1.05,3.21,3.21,0,0,1,1.49-.35,3.56,3.56,0,0,1,1.59.41l-.38,1.31a2.76,2.76,0,0,0-1.17-.29A1.48,1.48,0,0,0,859.21,173.83Z"/><path class="cls-4" d="M869.48,177a5.14,5.14,0,0,1,1.09,3.48c0,.23,0,.4,0,.52h-7.22a3.12,3.12,0,0,0,1,2,3,3,0,0,0,2.07.73,3.86,3.86,0,0,0,1.51-.29,3.63,3.63,0,0,0,1.22-.83l.88.92a4.62,4.62,0,0,1-1.62,1.12,5.41,5.41,0,0,1-2.11.4,4.86,4.86,0,0,1-2.39-.58,4.06,4.06,0,0,1-1.62-1.63,5.25,5.25,0,0,1,0-4.79,4.21,4.21,0,0,1,1.62-1.64,4.66,4.66,0,0,1,2.37-.6A4,4,0,0,1,869.48,177Zm-.36,2.76a2.65,2.65,0,0,0-2.83-2.68,2.89,2.89,0,0,0-2,.73,3,3,0,0,0-1,2Z"/><path class="cls-4" d="M876.51,177.27a4.49,4.49,0,0,0-1.3-.21,2.23,2.23,0,0,0-1.17.27.89.89,0,0,0-.44.82.91.91,0,0,0,.49.84,7.13,7.13,0,0,0,1.49.58,11.74,11.74,0,0,1,1.56.55,2.76,2.76,0,0,1,1,.81,2.51,2.51,0,0,1-.55,3.39,4.17,4.17,0,0,1-2.43.67,6.07,6.07,0,0,1-2-.33,4.49,4.49,0,0,1-1.62-.93l.6-1.17a4.28,4.28,0,0,0,1.41.83,4.68,4.68,0,0,0,1.63.31,2.45,2.45,0,0,0,1.28-.29,1,1,0,0,0,.48-.9,1,1,0,0,0-.51-.93,6.9,6.9,0,0,0-1.55-.62,10.34,10.34,0,0,1-1.49-.53,2.65,2.65,0,0,1-1-.79,2.12,2.12,0,0,1-.41-1.35,2.17,2.17,0,0,1,.93-1.92,4,4,0,0,1,2.33-.64A5.84,5.84,0,0,1,877,176a4.91,4.91,0,0,1,1.39.63l-.59,1.23A5.46,5.46,0,0,0,876.51,177.27Z"/><path class="cls-4" d="M885.62,184.34a3.94,3.94,0,0,1-2.14.67,2.44,2.44,0,0,1-1.76-.65,2.6,2.6,0,0,1-.67-2v-5.06h-1.3v-1.23H881v-2.45h1.62v2.45h2.8v1.23h-2.8v4.77a1.69,1.69,0,0,0,.28,1.09,1,1,0,0,0,.83.33,2.9,2.9,0,0,0,1.42-.43Z"/></svg>