<svg id="Layer_1" data-name="Layer 1" xmlns="http://www.w3.org/2000/svg" xmlns:xlink="http://www.w3.org/1999/xlink" viewBox="0 0 1349 225"><defs><style>.cls-1{fill:none;}.cls-2{clip-path:url(#clip-path);}.cls-3{fill:#fff;}.cls-12,.cls-4,.cls-5,.cls-6{fill:#ff544e;}.cls-12,.cls-5,.cls-6{stroke:#fff;}.cls-10,.cls-11,.cls-12,.cls-14,.cls-15,.cls-5,.cls-6,.cls-8,.cls-9{stroke-miterlimit:10;}.cls-15,.cls-5{stroke-width:3px;}.cls-10,.cls-14,.cls-6,.cls-9{stroke-width:2px;}.cls-10,.cls-15,.cls-7,.cls-8,.cls-9{fill:#273274;}.cls-11,.cls-14,.cls-15,.cls-8,.cls-9{stroke:#f7f7f7;}.cls-11,.cls-8{stroke-width:4px;}.cls-10{stroke:#f9f9f9;}.cls-11,.cls-13,.cls-14{fill:#ff8c58;}.cls-12{stroke-width:5px;}</style><clipPath id="clip-path"><rect class="cls-1" x="247.55" y="-9" width="862.9" height="234.65"/></clipPath></defs><title>header hacktober</title><g class="cls-2"><circle class="cls-3" cx="1148.68" cy="80.35" r="2.98"/><path class="cls-4" d="M1032.89,153.9q0-4.69,0-9.38c0-7.09,0-14.18,0-21.27a4.25,4.25,0,0,0-.87-2.67c-2.69-3.73-5.37-7.48-8-11.28-.54-.78-1.64-1.92-.78-2.69s1.86.44,2.57,1.08c2.28,2.06,4.47,4.21,7,6.64,0-4.63-.17-8.9,0-13.15s.45-8.41,2.18-12.52a4.49,4.49,0,0,1,1.32,3.12,170.07,170.07,0,0,1,1.53,21c.69,20.34,1.07,40.69,1.47,61,.07,3.51.23,7,.27,10.53,0,1.08.21,1.36,1.34,1a41,41,0,0,0,13.82-8.54c9.27-8.23,15.74-18.17,18.12-30.5,1.74-9,.62-17.85-2-26.54a79,79,0,0,0-20.35-34.51,45.37,45.37,0,0,0-5.64-4.57,14.67,14.67,0,0,0-15.44-1.52c-10.5,4.65-18.89,11.92-26,20.76-5.81,7.22-10.14,15.21-11.86,24.42-2.06,11,.21,21.35,5.48,31,7,12.88,16.89,22.8,30.6,28.54,1.11.47,2.29.77,3.44,1.15s1.53.17,1.53-1.1q0-9.82.06-19.64a3.3,3.3,0,0,0-1-2.23c-5.09-6.24-10.44-12.27-15.2-18.78a25.7,25.7,0,0,1-3.41-6.58c-.17-.49-.74-1.18,0-1.63.54-.34,1,.2,1.43.52,1.44,1.2,2.89,2.4,4.24,3.7C1023.69,143.95,1028,149,1032.89,153.9Z"/><circle class="cls-5" cx="1009.09" cy="131.84" r="3.02"/><circle class="cls-6" cx="1019.08" cy="103.07" r="2.57"/><path class="cls-4" d="M1035.59,237.14l-2.56,0a5.93,5.93,0,0,0-.68-1.27q0-3.8.08-7.6a1.64,1.64,0,0,0,.6-1c.06-.7-.46-1.37-.64-2.07.09.24.12-.69.17-.86a2.69,2.69,0,0,0-.43-2.75l.4,0q0-2.22,0-4.44c0-3.74,0-7.48,0-11.22a1.51,1.51,0,0,0,.09-1.84l0,0c.12-.18-.2-.5-.24-.68a3.86,3.86,0,0,1-.08-.66c.21-.22.24-.34.2-.37a1.06,1.06,0,0,0-.06-1.12c.36-4.42-1-8.73,3.53-13,2.08.44,2.06,1.06,2.34,1.6,1.79,3.5,2.09,7,2.47,10.56,1.11,10.43,1.75,20.87,2.38,31.31.11,1.8.44,3.59.42,5.39a.83.83,0,0,0,0,.12C1040.93,237.15,1038.28,237.09,1035.59,237.14Z"/><circle class="cls-3" cx="1071.72" cy="187.81" r="2.83"/><path class="cls-7" d="M951.22,141.54q0-6.47,0-12.94c0-9.78,0-19.56,0-29.34a5.86,5.86,0,0,0-1.2-3.68c-3.72-5.14-7.4-10.31-11-15.55-.74-1.08-2.27-2.64-1.07-3.7s2.56.6,3.54,1.49c3.14,2.84,6.17,5.8,9.7,9.15,0-6.39-.24-12.28.07-18.14s.62-11.59,3-17.26c1.5,1.32,1.6,2.86,1.83,4.3,1.52,9.59,1.78,19.28,2.11,29,1,28,1.48,56.11,2,84.17.09,4.84.32,9.68.38,14.52,0,1.49.29,1.88,1.85,1.35,7.25-2.49,13.41-6.76,19.06-11.77,12.78-11.35,21.7-25.06,25-42.06,2.4-12.43.86-24.62-2.71-36.6-5.41-18.17-14.47-34.23-28.07-47.59a62.56,62.56,0,0,0-7.78-6.3c-6.73-4.77-13.74-5.44-21.29-2.1-14.48,6.41-26.05,16.43-35.87,28.63-8,10-14,21-16.36,33.67-2.85,15.19.3,29.44,7.56,42.8,9.67,17.76,23.3,31.44,42.2,39.36,1.53.64,3.16,1.06,4.74,1.59,1.42.48,2.12.24,2.11-1.52q-.06-13.54.09-27.08a4.55,4.55,0,0,0-1.36-3.08c-7-8.61-14.39-16.93-21-25.9a35.44,35.44,0,0,1-4.71-9.08c-.24-.67-1-1.63-.05-2.25.74-.48,1.43.27,2,.72,2,1.66,4,3.31,5.85,5.1C938.53,127.81,944.49,134.81,951.22,141.54Z"/><circle class="cls-8" cx="930.37" cy="71.98" r="4.17"/><path class="cls-7" d="M954.94,256.33l-3.53.06a8.17,8.17,0,0,0-.94-1.75q0-5.24.11-10.48a2.26,2.26,0,0,0,.82-1.39c.09-1-.64-1.89-.89-2.85.13.33.17-1,.23-1.19a3.71,3.71,0,0,0-.59-3.79l.55,0q0-3.06,0-6.12c0-5.16,0-10.32.05-15.48a2.08,2.08,0,0,0,.13-2.53l0-.05c.16-.25-.28-.69-.34-.94a5.32,5.32,0,0,1-.11-.91c.29-.31.33-.47.27-.51a1.46,1.46,0,0,0-.08-1.55c.5-6.09-1.38-12,4.87-17.88,2.86.61,2.84,1.46,3.22,2.2,2.47,4.82,2.89,9.69,3.41,14.56,1.53,14.39,2.41,28.78,3.29,43.18.15,2.48.61,5,.58,7.43a1.14,1.14,0,0,0,0,.16C962.31,256.36,958.65,256.27,954.94,256.33Z"/><circle class="cls-9" cx="919.91" cy="110.75" r="3.39"/><path class="cls-4" d="M835.57,98.52q0-5.85,0-11.69c0-8.84,0-17.67,0-26.51A5.29,5.29,0,0,1,836.63,57c3.36-4.65,6.69-9.32,9.92-14,.67-1,2-2.39,1-3.35s-2.31.54-3.2,1.35c-2.84,2.56-5.57,5.24-8.76,8.27,0-5.77.21-11.09-.06-16.39s-.56-10.47-2.72-15.6c-1.35,1.19-1.44,2.58-1.65,3.89-1.38,8.67-1.61,17.42-1.9,26.17-.86,25.34-1.33,50.69-1.83,76-.08,4.37-.28,8.75-.34,13.12,0,1.34-.27,1.7-1.67,1.22-6.55-2.25-12.11-6.1-17.22-10.64-11.55-10.26-19.61-22.64-22.58-38C783.43,77.8,784.82,66.78,788,56,792.93,39.55,801.12,25,813.4,13a56.53,56.53,0,0,1,7-5.69C826.5,3,832.84,2.36,839.66,5.38c13.08,5.79,23.54,14.85,32.41,25.86,7.24,9,12.63,19,14.78,30.42,2.57,13.72-.27,26.6-6.83,38.67-8.73,16-21,28.4-38.13,35.56-1.39.58-2.86,1-4.29,1.44s-1.91.22-1.91-1.37q.05-12.23-.08-24.47a4.11,4.11,0,0,1,1.23-2.78c6.34-7.78,13-15.29,18.94-23.4a32,32,0,0,0,4.25-8.2c.22-.61.92-1.47,0-2-.67-.43-1.3.24-1.79.65-1.79,1.5-3.6,3-5.28,4.61C847,86.11,841.65,92.44,835.57,98.52Z"/><circle class="cls-3" cx="854.41" cy="35.67" r="3.77"/><path class="cls-4" d="M832.21,248.15l3.19.1a17.74,17.74,0,0,1,.85-2.78q0-8.31-.1-16.61a4.67,4.67,0,0,1-.74-2.21c-.08-1.53.57-3,.8-4.52-.11.52-.16-1.51-.21-1.88a9.6,9.6,0,0,1,.53-6l-.5-.07q0-4.85,0-9.69c0-8.18,0-16.35,0-24.53a5.37,5.37,0,0,1-.12-4l0-.08c-.15-.4.25-1.1.3-1.49s.08-1,.1-1.44c-.26-.49-.3-.74-.24-.8a3.84,3.84,0,0,1,.07-2.46c-.45-9.65,1.25-19.08-4.4-28.34-2.59,1-2.57,2.31-2.91,3.49-2.23,7.64-2.61,15.36-3.08,23.07-1.38,22.8-2.18,45.61-3,68.42-.14,3.92-.55,7.85-.53,11.77,0,.09,0,.17,0,.25C825.55,248.19,828.85,248.06,832.21,248.15Z"/><path class="cls-4" d="M443.23,199.54q0-4,0-8c0-6,0-12.08,0-18.12a3.62,3.62,0,0,1,.74-2.27c2.3-3.18,4.57-6.37,6.78-9.6.46-.67,1.4-1.63.66-2.29s-1.58.37-2.19.92c-1.94,1.75-3.81,3.58-6,5.65,0-3.94.15-7.58,0-11.2s-.38-7.16-1.86-10.66a3.82,3.82,0,0,0-1.13,2.66,144.84,144.84,0,0,0-1.3,17.89c-.59,17.32-.91,34.65-1.25,52-.06,3-.19,6-.23,9,0,.92-.18,1.16-1.14.83A34.89,34.89,0,0,1,424.51,219c-7.89-7-13.4-15.47-15.43-26-1.48-7.68-.53-15.21,1.67-22.6a67.28,67.28,0,0,1,17.33-29.39,38.64,38.64,0,0,1,4.8-3.89A12.5,12.5,0,0,1,446,135.88c8.94,4,16.09,10.15,22.15,17.68,4.95,6.15,8.63,13,10.1,20.79,1.76,9.38-.18,18.18-4.67,26.43-6,11-14.39,19.41-26.06,24.31-.95.4-2,.65-2.93,1s-1.31.15-1.3-.94q0-8.36-.05-16.72a2.81,2.81,0,0,1,.84-1.9c4.33-5.32,8.89-10.45,12.94-16a21.88,21.88,0,0,0,2.91-5.6c.15-.41.63-1,0-1.39s-.89.17-1.22.45c-1.23,1-2.46,2-3.61,3.15C451.07,191.06,447.39,195.38,443.23,199.54Z"/><circle class="cls-3" cx="456.11" cy="156.58" r="2.58"/><path class="cls-7" d="M338.41,186.12q0-2.87,0-5.75c0-4.34,0-8.68,0-13a2.6,2.6,0,0,1,.53-1.63c1.65-2.28,3.28-4.58,4.88-6.9.33-.48,1-1.17.48-1.64s-1.14.27-1.57.66c-1.39,1.26-2.74,2.58-4.31,4.06,0-2.83.1-5.45,0-8.05a22.09,22.09,0,0,0-1.34-7.66,2.75,2.75,0,0,0-.81,1.91,104.12,104.12,0,0,0-.93,12.86c-.42,12.45-.66,24.91-.9,37.36,0,2.15-.14,4.3-.17,6.45,0,.66-.13.83-.82.6a25.08,25.08,0,0,1-8.46-5.23c-5.67-5-9.63-11.12-11.09-18.67a33.79,33.79,0,0,1,1.2-16.25,48.37,48.37,0,0,1,12.46-21.13,27.77,27.77,0,0,1,3.45-2.8,9,9,0,0,1,9.45-.93,42.57,42.57,0,0,1,15.92,12.71A33.62,33.62,0,0,1,363.6,168a28.05,28.05,0,0,1-3.36,19c-4.29,7.88-10.34,14-18.74,17.47-.68.29-1.4.47-2.11.71s-.94.11-.94-.67q0-6,0-12a2,2,0,0,1,.6-1.37c3.11-3.82,6.39-7.51,9.31-11.5a15.73,15.73,0,0,0,2.09-4c.11-.3.45-.72,0-1s-.64.12-.88.32c-.88.74-1.77,1.47-2.6,2.26C344,180,341.4,183.13,338.41,186.12Z"/><circle class="cls-10" cx="347.66" cy="155.24" r="1.85"/><path class="cls-7" d="M336.76,237.08l1.57,0a3.63,3.63,0,0,1,.42-.78q0-2.33,0-4.65a1,1,0,0,1-.37-.62c0-.43.28-.84.39-1.27-.06.14-.08-.42-.1-.53a1.65,1.65,0,0,1,.26-1.68l-.24,0q0-1.36,0-2.72c0-2.29,0-4.58,0-6.87a.92.92,0,0,1-.06-1.13v0c-.07-.11.12-.31.15-.42a2.36,2.36,0,0,0,0-.4c-.13-.14-.15-.21-.12-.23a.65.65,0,0,1,0-.69c-.22-2.7.61-5.35-2.16-7.94-1.27.27-1.26.65-1.43,1a17.48,17.48,0,0,0-1.51,6.46c-.68,6.39-1.07,12.78-1.46,19.17-.07,1.1-.27,2.2-.26,3.3a.51.51,0,0,1,0,.07C333.48,237.09,335.11,237.05,336.76,237.08Z"/><path class="cls-4" d="M693.37,127.55q0-5.69,0-11.38c0-8.6,0-17.19,0-25.79a5.15,5.15,0,0,1,1.05-3.23c3.27-4.52,6.5-9.07,9.66-13.67.65-.95,2-2.32.94-3.25s-2.25.53-3.11,1.31c-2.76,2.49-5.42,5.1-8.53,8,0-5.61.21-10.79-.06-15.94s-.55-10.19-2.64-15.17c-1.32,1.16-1.4,2.51-1.61,3.78-1.34,8.43-1.56,16.95-1.85,25.46-.84,24.66-1.3,49.32-1.78,74-.08,4.26-.28,8.51-.33,12.77,0,1.31-.26,1.65-1.62,1.18-6.37-2.19-11.79-5.94-16.75-10.35-11.24-10-19.08-22-22-37-2.11-10.93-.75-21.64,2.38-32.17,4.76-16,12.72-30.09,24.67-41.83a55,55,0,0,1,6.84-5.54c5.91-4.19,12.07-4.78,18.71-1.84,12.73,5.63,22.9,14.44,31.53,25.16,7,8.75,12.29,18.44,14.38,29.6,2.5,13.35-.26,25.88-6.65,37.62-8.5,15.61-20.48,27.63-37.1,34.6-1.35.57-2.78.93-4.17,1.4s-1.86.21-1.85-1.33q0-11.9-.08-23.8a4,4,0,0,1,1.19-2.7c6.17-7.57,12.65-14.88,18.43-22.77a31.15,31.15,0,0,0,4.14-8c.21-.59.9-1.43,0-2-.65-.42-1.26.24-1.74.64-1.75,1.46-3.51,2.91-5.14,4.48C704.52,115.48,699.29,121.63,693.37,127.55Z"/><circle class="cls-5" cx="722.98" cy="100.81" r="3.67"/><circle class="cls-6" cx="710.11" cy="65.93" r="3.11"/><path class="cls-4" d="M690.1,228.45l3.1.06A7.18,7.18,0,0,1,694,227q0-4.61-.09-9.22a2,2,0,0,1-.72-1.23c-.08-.85.56-1.67.78-2.51-.11.29-.15-.84-.2-1a3.26,3.26,0,0,1,.52-3.33l-.48,0q0-2.69,0-5.38c0-4.54,0-9.07,0-13.61a1.83,1.83,0,0,1-.11-2.23l0,0c-.14-.22.24-.61.3-.83a4.67,4.67,0,0,0,.09-.8c-.26-.27-.29-.41-.24-.45a1.28,1.28,0,0,1,.07-1.36c-.44-5.35,1.22-10.58-4.28-15.72-2.52.54-2.5,1.28-2.83,1.94-2.17,4.24-2.54,8.52-3,12.8-1.35,12.65-2.12,25.3-2.89,38-.13,2.18-.54,4.35-.51,6.53a1,1,0,0,1,0,.14C683.62,228.47,686.83,228.4,690.1,228.45Z"/><path class="cls-7" d="M771,162.63q0-4.29,0-8.59c0-6.49,0-13,0-19.47a3.89,3.89,0,0,1,.8-2.44c2.47-3.41,4.91-6.85,7.29-10.32.49-.72,1.5-1.75.71-2.46s-1.7.4-2.35,1c-2.09,1.88-4.09,3.85-6.44,6.08,0-4.24.16-8.15,0-12s-.41-7.69-2-11.46a4.11,4.11,0,0,0-1.21,2.85A155.65,155.65,0,0,0,766.3,125c-.63,18.62-1,37.24-1.34,55.86-.06,3.21-.21,6.42-.25,9.64,0,1-.19,1.25-1.23.89a37.5,37.5,0,0,1-12.65-7.81c-8.48-7.53-14.4-16.63-16.58-27.91-1.59-8.25-.57-16.34,1.8-24.29a72.31,72.31,0,0,1,18.63-31.58,41.52,41.52,0,0,1,5.16-4.18A13.43,13.43,0,0,1,774,94.22c9.61,4.25,17.29,10.91,23.81,19,5.32,6.61,9.28,13.92,10.86,22.35,1.89,10.08-.2,19.54-5,28.4-6.41,11.79-15.46,20.86-28,26.12-1,.43-2.1.7-3.15,1.06s-1.4.16-1.4-1q0-9-.06-18a3,3,0,0,1,.9-2c4.66-5.71,9.55-11.23,13.91-17.19a23.52,23.52,0,0,0,3.12-6c.16-.45.68-1.08,0-1.49-.49-.32-1,.18-1.31.48-1.32,1.1-2.65,2.19-3.88,3.39C779.38,153.52,775.43,158.17,771,162.63Z"/><circle class="cls-9" cx="793.31" cy="142.44" r="2.77"/><circle class="cls-3" cx="784.8" cy="116.47" r="2.77"/><path class="cls-7" d="M768.49,245.77l2.34,0a6.64,6.64,0,0,1,.63-1.35q0-4-.07-8a1.81,1.81,0,0,1-.55-1.07,7.76,7.76,0,0,1,.59-2.19c-.08.25-.11-.73-.15-.91a3.2,3.2,0,0,1,.39-2.91l-.36,0q0-2.35,0-4.69c0-4,0-7.91,0-11.87a1.79,1.79,0,0,1-.09-1.94l0,0c-.11-.19.18-.53.22-.72a4.69,4.69,0,0,0,.07-.7c-.19-.24-.22-.36-.18-.39a1.27,1.27,0,0,1,.05-1.19c-.33-4.67.92-9.23-3.23-13.71-1.9.47-1.89,1.12-2.14,1.69-1.64,3.7-1.92,7.43-2.26,11.16-1,11-1.6,22.07-2.18,33.11-.1,1.9-.41,3.8-.39,5.7a1,1,0,0,1,0,.12C763.6,245.79,766,245.72,768.49,245.77Z"/><path class="cls-4" d="M295.16,127.3q0-4.88,0-9.76c0-7.37,0-14.74,0-22.11a4.42,4.42,0,0,1,.9-2.77c2.8-3.88,5.58-7.77,8.28-11.72.56-.81,1.71-2,.81-2.79s-1.93.45-2.67,1.12c-2.37,2.14-4.65,4.37-7.31,6.9,0-4.81.18-9.25-.05-13.67s-.47-8.74-2.27-13a4.67,4.67,0,0,0-1.38,3.24,176.78,176.78,0,0,0-1.59,21.83c-.72,21.14-1.11,42.29-1.52,63.44-.07,3.65-.24,7.3-.28,10.95,0,1.12-.22,1.42-1.39,1a42.59,42.59,0,0,1-14.36-8.87c-9.63-8.56-16.36-18.89-18.83-31.7-1.81-9.37-.65-18.56,2-27.58a82.12,82.12,0,0,1,21.16-35.87,47.16,47.16,0,0,1,5.86-4.75,15.25,15.25,0,0,1,16-1.58c10.91,4.83,19.64,12.39,27,21.58,6,7.5,10.54,15.82,12.33,25.38,2.14,11.45-.22,22.19-5.7,32.26-7.29,13.39-17.56,23.7-31.81,29.67-1.16.48-2.38.8-3.57,1.2s-1.6.18-1.59-1.14q0-10.21-.07-20.41a3.43,3.43,0,0,1,1-2.32c5.29-6.49,10.85-12.76,15.8-19.52a26.71,26.71,0,0,0,3.55-6.84c.18-.51.77-1.23,0-1.7-.56-.36-1.08.2-1.49.54-1.5,1.25-3,2.49-4.41,3.84C304.72,117,300.23,122.23,295.16,127.3Z"/><circle class="cls-6" cx="320.55" cy="104.37" r="3.14"/><circle class="cls-3" cx="310.88" cy="74.87" r="3.14"/><path class="cls-4" d="M292.36,231.15l2.66.06a9.46,9.46,0,0,1,.71-1.77q0-5.3-.08-10.6a2.54,2.54,0,0,1-.62-1.41,11.54,11.54,0,0,1,.67-2.88c-.09.33-.13-1-.17-1.2a4.8,4.8,0,0,1,.45-3.83l-.41,0q0-3.09,0-6.18c0-5.21,0-10.43,0-15.64a2.69,2.69,0,0,1-.1-2.56l0-.05c-.12-.25.21-.7.25-1a7.14,7.14,0,0,0,.08-.92c-.22-.31-.25-.47-.2-.51a1.91,1.91,0,0,1,.06-1.57c-.38-6.15,1-12.17-3.67-18.07-2.16.62-2.14,1.47-2.43,2.23-1.86,4.87-2.18,9.79-2.57,14.71-1.15,14.54-1.82,29.09-2.48,43.64-.11,2.5-.46,5-.44,7.51a1.55,1.55,0,0,1,0,.16C286.8,231.17,289.55,231.09,292.36,231.15Z"/><circle class="cls-3" cx="646.29" cy="168.66" r="3.43"/><circle class="cls-11" cx="635.75" cy="136.49" r="3.43"/><path class="cls-4" d="M498.27,123.44q0-4.88,0-9.76c0-7.37,0-14.74,0-22.11a4.42,4.42,0,0,1,.9-2.77c2.8-3.88,5.58-7.77,8.28-11.72.56-.81,1.71-2,.81-2.79s-1.93.45-2.67,1.12c-2.37,2.14-4.65,4.37-7.31,6.9,0-4.81.18-9.25-.05-13.67s-.47-8.74-2.27-13a4.67,4.67,0,0,0-1.38,3.24A176.78,176.78,0,0,0,493,80.69c-.72,21.14-1.11,42.29-1.52,63.44-.07,3.65-.24,7.3-.28,10.95,0,1.12-.22,1.42-1.39,1a42.59,42.59,0,0,1-14.36-8.87c-9.63-8.56-16.36-18.89-18.83-31.7-1.81-9.37-.65-18.56,2-27.58a82.12,82.12,0,0,1,21.16-35.87,47.16,47.16,0,0,1,5.86-4.75,15.25,15.25,0,0,1,16-1.58c10.91,4.83,19.64,12.39,27,21.58,6,7.5,10.54,15.82,12.33,25.38,2.14,11.45-.22,22.19-5.7,32.26-7.29,13.39-17.56,23.7-31.81,29.67-1.16.48-2.38.8-3.57,1.2s-1.6.18-1.59-1.14q0-10.21-.07-20.41a3.43,3.43,0,0,1,1-2.32c5.29-6.49,10.85-12.76,15.8-19.52a26.71,26.71,0,0,0,3.55-6.84c.18-.51.77-1.23,0-1.7-.56-.36-1.08.2-1.49.54-1.5,1.25-3,2.49-4.41,3.84C507.83,113.09,503.35,118.36,498.27,123.44Z"/><circle class="cls-12" cx="523.66" cy="100.51" r="3.14"/><circle class="cls-6" cx="513.99" cy="71.01" r="3.14"/><path class="cls-4" d="M495.47,230.11l2.66.07a10.09,10.09,0,0,1,.71-1.85q0-5.52-.08-11a2.7,2.7,0,0,1-.62-1.47,12.45,12.45,0,0,1,.67-3c-.09.34-.13-1-.17-1.25a5.18,5.18,0,0,1,.45-4l-.41,0q0-3.22,0-6.44c0-5.43,0-10.86,0-16.29a2.9,2.9,0,0,1-.1-2.67l0-.06c-.12-.26.21-.73.25-1a7.73,7.73,0,0,0,.08-1c-.22-.33-.25-.49-.2-.53a2.06,2.06,0,0,1,.06-1.63c-.38-6.41,1-12.67-3.67-18.82-2.16.64-2.14,1.54-2.43,2.32-1.86,5.07-2.18,10.2-2.57,15.32-1.15,15.15-1.82,30.3-2.48,45.45-.11,2.61-.46,5.21-.44,7.82a1.68,1.68,0,0,1,0,.17C489.91,230.14,492.67,230,495.47,230.11Z"/><path class="cls-13" d="M886.34,165q0-4.31,0-8.62c0-6.51,0-13,0-19.54a3.9,3.9,0,0,1,.8-2.45c2.47-3.43,4.93-6.87,7.31-10.35.49-.72,1.51-1.76.71-2.47s-1.7.4-2.36,1c-2.09,1.89-4.11,3.86-6.46,6.1,0-4.25.16-8.17,0-12.08s-.41-7.72-2-11.49a4.12,4.12,0,0,0-1.22,2.86,156.17,156.17,0,0,0-1.4,19.28c-.63,18.68-1,37.36-1.35,56-.06,3.22-.21,6.45-.25,9.67,0,1-.2,1.25-1.23.9A37.62,37.62,0,0,1,866.14,186c-8.51-7.56-14.45-16.68-16.64-28-1.6-8.28-.57-16.39,1.8-24.37A72.55,72.55,0,0,1,870,101.92a41.66,41.66,0,0,1,5.18-4.2,13.47,13.47,0,0,1,14.18-1.4c9.64,4.27,17.35,10.94,23.89,19.06,5.34,6.63,9.31,14,10.89,22.42,1.89,10.11-.2,19.6-5,28.5-6.44,11.83-15.51,20.93-28.1,26.21-1,.43-2.11.7-3.16,1.06s-1.41.16-1.4-1q0-9-.06-18a3,3,0,0,1,.9-2c4.67-5.73,9.58-11.27,14-17.25a23.6,23.6,0,0,0,3.13-6c.16-.45.68-1.08,0-1.5-.49-.32-1,.18-1.32.48-1.32,1.1-2.66,2.2-3.89,3.4C894.78,155.83,890.82,160.49,886.34,165Z"/><circle class="cls-13" cx="908.76" cy="144.71" r="2.78"/><path class="cls-13" d="M883.86,241.4l2.35,0a5.44,5.44,0,0,1,.63-1.17q0-3.49-.07-7a1.51,1.51,0,0,1-.55-.93c-.06-.64.42-1.26.59-1.9-.08.22-.11-.64-.15-.79a2.47,2.47,0,0,1,.39-2.52l-.37,0q0-2,0-4.07c0-3.44,0-6.87,0-10.31a1.39,1.39,0,0,1-.09-1.69l0,0c-.11-.17.18-.46.22-.63a3.54,3.54,0,0,0,.07-.61c-.19-.21-.22-.31-.18-.34a1,1,0,0,1,.05-1c-.33-4.05.92-8-3.24-11.91-1.91.41-1.89,1-2.15,1.47-1.64,3.21-1.92,6.45-2.27,9.69-1,9.58-1.61,19.16-2.19,28.75-.1,1.65-.41,3.3-.39,4.95a.76.76,0,0,1,0,.11C879,241.42,881.39,241.36,883.86,241.4Z"/><path class="cls-13" d="M397.57,135.89q0-6,0-12c0-9.07,0-18.14,0-27.21a5.43,5.43,0,0,1,1.11-3.41c3.45-4.77,6.86-9.57,10.19-14.42.69-1,2.1-2.45,1-3.43s-2.37.56-3.29,1.38c-2.91,2.63-5.72,5.38-9,8.49,0-5.92.22-11.38-.06-16.82s-.58-10.75-2.79-16c-1.39,1.22-1.48,2.65-1.69,4-1.41,8.9-1.65,17.88-2,26.86-.88,26-1.37,52-1.87,78.05-.09,4.49-.29,9-.35,13.47,0,1.38-.27,1.74-1.71,1.25-6.72-2.31-12.43-6.27-17.67-10.92-11.85-10.53-20.13-23.24-23.17-39-2.23-11.53-.8-22.83,2.51-33.94,5-16.85,13.42-31.74,26-44.13A58,58,0,0,1,382,42.24c6.24-4.42,12.74-5,19.74-1.94,13.43,5.94,24.16,15.24,33.27,26.55,7.43,9.23,13,19.46,15.17,31.23,2.64,14.08-.27,27.3-7,39.69-9,16.47-21.6,29.15-39.14,36.5-1.42.6-2.93,1-4.4,1.47s-2,.22-2-1.41q.05-12.56-.08-25.11a4.22,4.22,0,0,1,1.26-2.85c6.51-8,13.35-15.7,19.44-24a32.86,32.86,0,0,0,4.37-8.42c.22-.62.95-1.51,0-2.09-.69-.44-1.33.25-1.83.67-1.84,1.54-3.7,3.07-5.42,4.73C409.33,123.16,403.81,129.65,397.57,135.89Z"/><circle class="cls-14" cx="416.9" cy="71.38" r="3.87"/><path class="cls-13" d="M394.12,242.34l3.27.06a7.58,7.58,0,0,1,.87-1.63q0-4.86-.1-9.72a2.1,2.1,0,0,1-.76-1.29c-.08-.9.59-1.76.82-2.64-.12.3-.16-.89-.22-1.1a3.44,3.44,0,0,1,.55-3.51l-.51,0q0-2.84,0-5.67c0-4.78,0-9.57,0-14.35a1.93,1.93,0,0,1-.12-2.35l0,0c-.15-.23.26-.64.31-.87a4.93,4.93,0,0,0,.1-.84c-.27-.29-.3-.43-.25-.47a1.35,1.35,0,0,1,.08-1.44c-.46-5.65,1.28-11.17-4.52-16.58-2.66.57-2.64,1.35-3,2-2.29,4.47-2.68,9-3.16,13.5-1.42,13.34-2.24,26.69-3,40-.14,2.3-.57,4.59-.54,6.89a1.06,1.06,0,0,1,0,.15C387.28,242.36,390.67,242.29,394.12,242.34Z"/><circle class="cls-3" cx="427.44" cy="107.37" r="3.14"/><circle class="cls-6" cx="464.58" cy="178.55" r="3.14"/><path class="cls-7" d="M559.92,121.32q0-6,0-12c0-9.07,0-18.14,0-27.21A5.43,5.43,0,0,1,561,78.7c3.45-4.77,6.86-9.57,10.19-14.42.69-1,2.1-2.45,1-3.43s-2.37.56-3.29,1.38c-2.91,2.63-5.72,5.38-9,8.49,0-5.92.22-11.38-.06-16.82s-.58-10.75-2.79-16c-1.39,1.22-1.48,2.65-1.69,4-1.41,8.9-1.65,17.88-2,26.86-.88,26-1.37,52-1.87,78.05-.09,4.49-.29,9-.35,13.47,0,1.38-.27,1.74-1.71,1.25-6.72-2.31-12.43-6.27-17.67-10.92-11.85-10.53-20.13-23.24-23.17-39-2.23-11.53-.8-22.83,2.51-33.94,5-16.85,13.42-31.74,26-44.13a58,58,0,0,1,7.21-5.84c6.24-4.42,12.74-5,19.74-1.94,13.43,5.94,24.16,15.24,33.27,26.55,7.43,9.23,13,19.46,15.17,31.23,2.64,14.08-.27,27.3-7,39.69-9,16.47-21.6,29.15-39.14,36.5-1.42.6-2.93,1-4.4,1.47s-2,.22-2-1.41q.05-12.56-.08-25.11a4.22,4.22,0,0,1,1.26-2.85c6.51-8,13.35-15.7,19.44-24A32.86,32.86,0,0,0,585,99.36c.22-.62.95-1.51,0-2.09-.69-.44-1.33.25-1.83.67-1.84,1.54-3.7,3.07-5.42,4.73C571.69,108.59,566.17,115.08,559.92,121.32Z"/><circle class="cls-15" cx="579.26" cy="56.82" r="3.87"/><path class="cls-7" d="M556.47,227.77l3.27.06a7.58,7.58,0,0,1,.87-1.63q0-4.86-.1-9.72a2.1,2.1,0,0,1-.76-1.29c-.08-.9.59-1.76.82-2.64-.12.3-.16-.89-.22-1.1a3.44,3.44,0,0,1,.55-3.51l-.51,0q0-2.84,0-5.67c0-4.78,0-9.57,0-14.35a1.93,1.93,0,0,1-.12-2.35l0,0c-.15-.23.26-.64.31-.87a4.93,4.93,0,0,0,.1-.84c-.27-.29-.3-.43-.25-.47a1.35,1.35,0,0,1,.08-1.44c-.46-5.65,1.28-11.17-4.52-16.58-2.66.57-2.64,1.35-3,2-2.29,4.47-2.68,9-3.16,13.5-1.42,13.34-2.24,26.69-3,40-.14,2.3-.57,4.59-.54,6.89a1.06,1.06,0,0,1,0,.15C549.64,227.8,553,227.72,556.47,227.77Z"/><circle class="cls-9" cx="588.95" cy="92.77" r="3.14"/><path class="cls-13" d="M618.61,193.66q0-5.32,0-10.64c0-8,0-16.08,0-24.11a4.82,4.82,0,0,1,1-3c3.05-4.23,6.08-8.48,9-12.78.61-.89,1.86-2.17.88-3s-2.1.49-2.91,1.22c-2.58,2.33-5.07,4.77-8,7.52,0-5.25.19-10.09-.06-14.91s-.51-9.53-2.47-14.19a5.09,5.09,0,0,0-1.5,3.53c-1.25,7.88-1.46,15.85-1.73,23.8-.78,23.05-1.21,46.11-1.66,69.18-.08,4-.26,8-.31,11.94,0,1.22-.24,1.55-1.52,1.11a46.44,46.44,0,0,1-15.66-9.68C583.18,210.27,575.85,199,573.15,185c-2-10.22-.7-20.24,2.23-30.08,4.45-14.93,11.89-28.13,23.07-39.11a51.42,51.42,0,0,1,6.39-5.18c5.53-3.92,11.29-4.47,17.5-1.72,11.9,5.27,21.41,13.51,29.48,23.53,6.59,8.18,11.49,17.24,13.44,27.67,2.34,12.48-.24,24.2-6.22,35.17-7.94,14.6-19.15,25.84-34.69,32.35-1.26.53-2.6.87-3.9,1.31s-1.74.2-1.73-1.25q0-11.13-.07-22.26a3.74,3.74,0,0,1,1.12-2.53c5.77-7.08,11.83-13.91,17.23-21.29a29.12,29.12,0,0,0,3.87-7.46c.2-.55.84-1.34,0-1.85-.61-.39-1.18.22-1.62.59-1.63,1.36-3.28,2.72-4.81,4.19C629,182.38,624.14,188.13,618.61,193.66Z"/><circle class="cls-3" cx="900.22" cy="118.65" r="2.78"/><circle class="cls-3" cx="632.77" cy="136.32" r="2.78"/><circle class="cls-14" cx="646.51" cy="165.58" r="3.87"/></g></svg>