<svg id="Layer_1" data-name="Layer 1" xmlns="http://www.w3.org/2000/svg" viewBox="0 0 73 73"><defs><style>.cls-1{fill:#fff;}.cls-2{fill:#273274;}</style></defs><title>icons footer</title><circle class="cls-1" cx="36.5" cy="36.5" r="36.36"/><path class="cls-2" d="M36.54,51.57H21.36A2.31,2.31,0,0,1,18.79,49q0-6.93,0-13.86c0-.53,0-.56.51-.31a55.43,55.43,0,0,0,12,4.47c.64.17.64.16.65.83,0,.45,0,.9,0,1.35a.8.8,0,0,0,.89.88h7.71a.8.8,0,0,0,.88-.89c0-.5,0-1,0-1.49s0-.54.52-.68a60.75,60.75,0,0,0,7.95-2.65,37.93,37.93,0,0,0,3.78-1.81c.48-.27.51-.25.51.32q0,5.28,0,10.55c0,1.13,0,2.25,0,3.38a2.3,2.3,0,0,1-1.36,2.23,2.25,2.25,0,0,1-1,.2H36.54Z"/><path class="cls-2" d="M36.6,21.43h5.76A2.49,2.49,0,0,1,45,24.06c0,.53,0,1.07,0,1.6s0,.6.59.61h6a2.32,2.32,0,0,1,2.59,2.59c0,1.21,0,2.42,0,3.62a.84.84,0,0,1-.46.83,39.49,39.49,0,0,1-6.28,2.91c-1.8.68-3.62,1.27-5.46,1.82-.48.14-.56.09-.57-.42s0-.85,0-1.28a.79.79,0,0,0-.86-.84H32.81a.77.77,0,0,0-.84.82,10.23,10.23,0,0,0,0,1.53c0,.25-.08.35-.34.28a57.37,57.37,0,0,1-11.95-4.59c-1.08-.6-.88-.38-.89-1.49s0-2.25,0-3.38a2.27,2.27,0,0,1,1.9-2.36,3.11,3.11,0,0,1,.57,0h6.32c.55,0,.57,0,.57-.56s0-1.09,0-1.63a2.49,2.49,0,0,1,2.66-2.64Zm0,4.83h6.18c.43,0,.47,0,.47-.47s0-1.14,0-1.71-.25-.88-.89-.88H30.77c-.58,0-.84.27-.84.86s0,1.09,0,1.63,0,.56.56.56Z"/><path class="cls-2" d="M36.73,41.32H34.28c-.79,0-1-.24-1-1,0-.95,0-1.89,0-2.84,0-.59.25-.86.84-.86q2.59,0,5.19,0c.63,0,.87.27.88.9q0,1.47,0,2.95c0,.59-.25.85-.84.86-.86,0-1.73,0-2.59,0Z"/></svg>