<svg id="Layer_1" data-name="Layer 1" xmlns="http://www.w3.org/2000/svg" viewBox="0 0 73 73"><defs><style>.cls-1{fill:#fff;}.cls-2{fill:#273274;}</style></defs><title>icons footer</title><circle class="cls-1" cx="36.5" cy="36.5" r="36.36"/><path class="cls-2" d="M24.15,22.35c2.28,1.11,4.54,2.26,6.84,3.31a5.64,5.64,0,0,0,2.17.43c2.21,0,4.42,0,6.63,0a6.66,6.66,0,0,0,2.44-.49c2.27-1,4.49-2.14,6.83-3.27a17.83,17.83,0,0,1,1.49,7.39,2.66,2.66,0,0,0,.4,1.47c3.07,4.19,2.66,8.65.81,13-1.77,4.21-5.45,6-9.77,6.3a77.84,77.84,0,0,1-10.93,0c-9.63-.72-14.48-11.39-8.93-19.37a3.48,3.48,0,0,0,.39-1.48c.32-2.31.6-4.63.9-6.94Zm13,27.09A58.08,58.08,0,0,0,45,47.91c3-1,4.29-4.11,3.63-7.37-.58-2.86-2.6-4.4-5.91-4.42q-6.19,0-12.37,0c-3,0-5,1.4-5.7,3.77a6.49,6.49,0,0,0,4.8,8.53C31.74,49,34.17,49.07,37.14,49.44Z"/><path class="cls-2" d="M28.51,42.37c0-1.84,1-3.29,2.24-3.32s2.4,1.46,2.38,3.21a4.42,4.42,0,0,1-.17,1c-.3,1.18-.89,2.2-2.24,2.13s-1.86-1.12-2.11-2.3C28.55,42.82,28.53,42.52,28.51,42.37Z"/><path class="cls-2" d="M44.57,42.08c0,1.9-1,3.39-2.31,3.37S39.82,43.75,40,42a4.84,4.84,0,0,1,.22-1c.32-1.06.9-2,2.11-1.93s1.84,1,2.15,2.09A6.53,6.53,0,0,1,44.57,42.08Z"/></svg>