<svg id="Layer_1" data-name="Layer 1" xmlns="http://www.w3.org/2000/svg" xmlns:xlink="http://www.w3.org/1999/xlink" viewBox="0 0 450 172"><defs><style>.cls-1{fill:#ff8c58;stroke-width:8px;}.cls-1,.cls-3{stroke:#fff;stroke-miterlimit:10;}.cls-2{fill:#273274;}.cls-10,.cls-3{fill:#fff;}.cls-3{stroke-width:13px;}.cls-4{fill:#493636;}.cls-5{fill:#b27f6f;}.cls-6{fill:#b18070;}.cls-7{fill:url(#radial-gradient);}.cls-8{fill:url(#radial-gradient-2);}.cls-9{fill:#050505;}.cls-11{fill:url(#radial-gradient-3);}.cls-12{fill:url(#radial-gradient-4);}.cls-13{fill:url(#radial-gradient-5);}.cls-14{fill:#4b3838;}</style><radialGradient id="radial-gradient" cx="40.09" cy="41.79" r="20.53" gradientTransform="translate(0 0.41)" gradientUnits="userSpaceOnUse"><stop offset="0" stop-color="#3192c3"/><stop offset="1" stop-color="#3192c3"/></radialGradient><radialGradient id="radial-gradient-2" cx="90.28" cy="41.78" r="20.53" xlink:href="#radial-gradient"/><radialGradient id="radial-gradient-3" cx="64.37" cy="53.66" r="4.15" xlink:href="#radial-gradient"/><radialGradient id="radial-gradient-4" cx="65.39" cy="39.32" r="2.96" xlink:href="#radial-gradient"/><radialGradient id="radial-gradient-5" cx="69.99" cy="53.22" r="2.28" xlink:href="#radial-gradient"/></defs><title>mule hacktober</title><rect class="cls-1" x="52.17" y="36.87" width="389.21" height="121.06" rx="15.96" ry="15.96"/><path class="cls-2" d="M185.11,70.44a2.73,2.73,0,0,0,.23,1.2,2.7,2.7,0,0,0,.57.79,3.32,3.32,0,0,0,.74.53,8.53,8.53,0,0,1,.74.44,2.46,2.46,0,0,1,.57.52,1.18,1.18,0,0,1,.23.75,1.38,1.38,0,0,1-.54,1.18,2,2,0,0,1-1.25.41,2.07,2.07,0,0,1-1.24-.42,3.74,3.74,0,0,1-1-1.13,6.46,6.46,0,0,1-.68-1.68,8.15,8.15,0,0,1-.25-2,7.8,7.8,0,0,1,.42-2.55,6.32,6.32,0,0,1,1.23-2.14,5.84,5.84,0,0,1,2-1.47,6.6,6.6,0,0,1,2.74-.54,8.5,8.5,0,0,1,2.27.34,9.63,9.63,0,0,1,2.45,1.09,11.92,11.92,0,0,1,2.35,1.93,12.43,12.43,0,0,1,2,2.89,16.85,16.85,0,0,1,1.41,4,22.69,22.69,0,0,1,.52,5.1,18.65,18.65,0,0,1-1.09,6.59,15,15,0,0,1-3,4.94,12.72,12.72,0,0,1-4.32,3.1,12.9,12.9,0,0,1-5.21,1.07,14.62,14.62,0,0,1-5.21-.94,12,12,0,0,1-4.36-2.86,13.82,13.82,0,0,1-3-4.89,19.94,19.94,0,0,1-1.11-7,18.33,18.33,0,0,1,.84-5.72,16.81,16.81,0,0,1,2.27-4.58,14.44,14.44,0,0,1,3.32-3.36,15,15,0,0,1,4-2.07l.71.89A15.6,15.6,0,0,0,183.42,66a9.14,9.14,0,0,0-1,1.47,11.53,11.53,0,0,0-.78,1.89,17.06,17.06,0,0,0-.57,2.52q-.23,1.45-.35,3.34t-.12,4.37A37.14,37.14,0,0,0,181,85a20.25,20.25,0,0,0,.9,3.8,9,9,0,0,0,1.25,2.43,5.84,5.84,0,0,0,1.41,1.36,4,4,0,0,0,1.37.59,6,6,0,0,0,1.17.13,5.84,5.84,0,0,0,1.16-.13,4,4,0,0,0,1.35-.59A5.8,5.8,0,0,0,191,91.27a8.77,8.77,0,0,0,1.22-2.43A21,21,0,0,0,193,85a38.26,38.26,0,0,0,.33-5.47,41.73,41.73,0,0,0-.25-4.89,24.85,24.85,0,0,0-.66-3.56,10.88,10.88,0,0,0-.94-2.42,6.49,6.49,0,0,0-1.1-1.5,3.35,3.35,0,0,0-1.15-.76,3.13,3.13,0,0,0-1.05-.21,2.51,2.51,0,0,0-1.33.35,3.09,3.09,0,0,0-1,.95,4.58,4.58,0,0,0-.6,1.35A5.85,5.85,0,0,0,185.11,70.44Z"/><path class="cls-2" d="M205.21,77a1.93,1.93,0,0,0-.28-1.05,1,1,0,0,0-.95-.45,1.35,1.35,0,0,0-.6.13,3.26,3.26,0,0,0-.54.35l-.44-.52a11.64,11.64,0,0,1,1.07-.78,8.3,8.3,0,0,1,1.28-.68,9.23,9.23,0,0,1,1.48-.48,7.22,7.22,0,0,1,1.67-.19,4,4,0,0,1,1.6.29,4.08,4.08,0,0,1,1.11.7,3,3,0,0,1,.68.85,2.49,2.49,0,0,1,.27.76,5.7,5.7,0,0,1,1-1.06,6.61,6.61,0,0,1,1.25-.82,6.73,6.73,0,0,1,1.44-.53,6.88,6.88,0,0,1,4.59.5,6.42,6.42,0,0,1,2.32,2,10.05,10.05,0,0,1,1.49,3.35,21.07,21.07,0,0,1-.11,9.79,10.8,10.8,0,0,1-1.67,3.48,6.24,6.24,0,0,1-5.05,2.58,7.9,7.9,0,0,1-2-.23,6.93,6.93,0,0,1-1.49-.56,6.28,6.28,0,0,1-1-.68q-.42-.34-.67-.57v10.15a3,3,0,0,1-.08.64,1.54,1.54,0,0,1-.41.72,2.6,2.6,0,0,1-1,.59,4.87,4.87,0,0,1-1.74.25,4.72,4.72,0,0,1-1.74-.26,2.66,2.66,0,0,1-1-.62,1.63,1.63,0,0,1-.42-.73,2.79,2.79,0,0,1-.08-.59Zm6.39,13.25a2.11,2.11,0,0,0,.15.58,3.42,3.42,0,0,0,.46.85,3.3,3.3,0,0,0,.8.78,2.16,2.16,0,0,0,2.76-.35,5.32,5.32,0,0,0,1.06-1.89,13.16,13.16,0,0,0,.6-2.79,29.1,29.1,0,0,0,.19-3.4,25,25,0,0,0-.24-3.77,8.93,8.93,0,0,0-.7-2.49,3.37,3.37,0,0,0-1.09-1.37,2.5,2.5,0,0,0-1.43-.43,1.83,1.83,0,0,0-.92.26,3.5,3.5,0,0,0-.82.64,3.34,3.34,0,0,0-.59.86,2.11,2.11,0,0,0-.23.92Z"/><path class="cls-2" d="M233.5,85.39a5.9,5.9,0,0,0,.2,1.45,8.6,8.6,0,0,0,.57,1.57,8.29,8.29,0,0,0,.93,1.51,7.1,7.1,0,0,0,1.27,1.28,6.07,6.07,0,0,0,1.59.89,5.35,5.35,0,0,0,1.92.33,5.22,5.22,0,0,0,1.35-.17,5.33,5.33,0,0,0,1.17-.46,7.65,7.65,0,0,0,1-.68q.5-.38,1-.82l.52.5a14.21,14.21,0,0,1-1.23,1.42A10.05,10.05,0,0,1,242,93.66a10.43,10.43,0,0,1-2.48,1.12,10.73,10.73,0,0,1-3.23.45,9.82,9.82,0,0,1-3.53-.66,8.75,8.75,0,0,1-3.05-2,9.62,9.62,0,0,1-2.14-3.27,13.18,13.18,0,0,1-.32-8,11.13,11.13,0,0,1,1.3-2.85,10.59,10.59,0,0,1,1.92-2.23,11.9,11.9,0,0,1,2.3-1.59,11.4,11.4,0,0,1,2.47-1,9.78,9.78,0,0,1,2.43-.32,9.68,9.68,0,0,1,2.69.33,6,6,0,0,1,1.91.89,3.71,3.71,0,0,1,1.13,1.3,3.38,3.38,0,0,1,.38,1.55,2.93,2.93,0,0,1-.56,1.76,5.19,5.19,0,0,1-1.5,1.36Zm4.19-4.22a3.32,3.32,0,0,0,.45-.32,1.16,1.16,0,0,0,.28-.37,2,2,0,0,0,.16-.54,5.21,5.21,0,0,0,.05-.8,6.56,6.56,0,0,0-.11-1.15,4.66,4.66,0,0,0-.38-1.2,3,3,0,0,0-.69-.94,1.45,1.45,0,0,0-1-.37,1.93,1.93,0,0,0-1.28.45,3.45,3.45,0,0,0-.87,1.15,7.23,7.23,0,0,0-.54,1.61,17.78,17.78,0,0,0-.3,1.82q-.1.92-.12,1.76t0,1.42Z"/><path class="cls-2" d="M260.12,84.58a29.15,29.15,0,0,0-.24-4.19,8.82,8.82,0,0,0-.64-2.39,2.33,2.33,0,0,0-.87-1.08,2,2,0,0,0-1-.26,1.85,1.85,0,0,0-1.07.32,4,4,0,0,0-.81.74,6.07,6.07,0,0,0-.58.83,5,5,0,0,1-.41.62v13.9a3.17,3.17,0,0,1-.08.66,1.53,1.53,0,0,1-.41.73,2.49,2.49,0,0,1-1,.58,5.09,5.09,0,0,1-1.74.24,4.72,4.72,0,0,1-1.74-.26,2.73,2.73,0,0,1-1-.61,1.56,1.56,0,0,1-.42-.73,2.93,2.93,0,0,1-.08-.6V77a1.93,1.93,0,0,0-.28-1.05,1,1,0,0,0-.95-.45,1.35,1.35,0,0,0-.6.13,3.26,3.26,0,0,0-.54.35l-.44-.52a11.64,11.64,0,0,1,1.07-.78,8.3,8.3,0,0,1,1.28-.68,9.23,9.23,0,0,1,1.48-.48,7.22,7.22,0,0,1,1.67-.19,4.13,4.13,0,0,1,2.1.45,3,3,0,0,1,1.1,1.07,3.36,3.36,0,0,1,.43,1.3,11.09,11.09,0,0,1,.07,1.13,11.37,11.37,0,0,1,1.75-2,8.62,8.62,0,0,1,.89-.73,7.8,7.8,0,0,1,1-.63,6,6,0,0,1,1.17-.45,4.78,4.78,0,0,1,1.26-.17,5.59,5.59,0,0,1,2.51.54A4.47,4.47,0,0,1,265,75.7a10.47,10.47,0,0,1,1.15,3.36,28.57,28.57,0,0,1,.4,5.19,22.4,22.4,0,0,1-.54,5.24,15,15,0,0,1-1.42,3.79,9.81,9.81,0,0,1-2,2.55,10.18,10.18,0,0,1-2.23,1.55,9,9,0,0,1-2.16.78,10.13,10.13,0,0,1-1.78.24l-.23-.85a4.14,4.14,0,0,0,1.16-.46,3.25,3.25,0,0,0,1-.92,6.16,6.16,0,0,0,.77-1.53,14,14,0,0,0,.57-2.32A30.44,30.44,0,0,0,260,89Q260.12,87.12,260.12,84.58Z"/><path class="cls-2" d="M268.22,72.87a6.49,6.49,0,0,1,1.34-4.14,9.93,9.93,0,0,1,3.68-2.8,20.47,20.47,0,0,1,5.44-1.59,41.83,41.83,0,0,1,6.64-.5q1.69,0,3.29,0t2.93.09q1.32.06,2.28.15a10.73,10.73,0,0,1,1.4.19,3.36,3.36,0,0,1,.67.23,1,1,0,0,1,.38.29.93.93,0,0,1,.17.38,2.79,2.79,0,0,1,0,.51,2.7,2.7,0,0,1-.06.55,2.38,2.38,0,0,1-.19.56,1.6,1.6,0,0,1-.31.45.59.59,0,0,1-.82,0l-.56-.37a6.43,6.43,0,0,0-1-.48A10.54,10.54,0,0,0,291.9,66a21.63,21.63,0,0,0-2.56-.37q-1.53-.15-3.7-.15V78.8h8.64v1.83h-8.64v8.13a4.33,4.33,0,0,0,.29,1.67,3,3,0,0,0,.83,1.16,3.35,3.35,0,0,0,1.3.67,6.43,6.43,0,0,0,1.7.21,10.53,10.53,0,0,0,2.13-.22,15.63,15.63,0,0,0,2-.55,12.3,12.3,0,0,0,1.73-.75,7.61,7.61,0,0,0,1.26-.81l.81.89-1.4,1.13a13.67,13.67,0,0,1-2.14,1.4,15.66,15.66,0,0,1-2.94,1.2,13.06,13.06,0,0,1-3.8.51q-.71,0-1.61-.07a13.18,13.18,0,0,1-1.86-.29,9.6,9.6,0,0,1-1.88-.64,5.74,5.74,0,0,1-1.65-1.13,5.46,5.46,0,0,1-1.17-1.74,6.15,6.15,0,0,1-.45-2.46v-8.3h-3.25V78.8h3.25V65.72a14.48,14.48,0,0,0-1.53.24,13.18,13.18,0,0,0-1.77.5,15.76,15.76,0,0,0-1.78.76,7.82,7.82,0,0,0-1.56,1,5.17,5.17,0,0,0-1.11,1.3,3,3,0,0,0-.43,1.55,2.64,2.64,0,0,0,.18,1.06,1.68,1.68,0,0,0,.41.59,1.06,1.06,0,0,0,.47.25,1.73,1.73,0,0,0,1.2-.12,5.06,5.06,0,0,0,.6-.37l.51-.37a.9.9,0,0,1,.55-.18,1.41,1.41,0,0,1,.53.11,1.51,1.51,0,0,1,.52.36,2.08,2.08,0,0,1,.41.66,2.6,2.6,0,0,1,.17,1A3,3,0,0,1,275,76.51a3.57,3.57,0,0,1-1.17.59,4.49,4.49,0,0,1-1.3.2,4.54,4.54,0,0,1-1.8-.34,4,4,0,0,1-1.36-.95,4.08,4.08,0,0,1-.85-1.4A5,5,0,0,1,268.22,72.87Z"/><path class="cls-2" d="M315.65,63.84q6,0,8.88,1.88a6.16,6.16,0,0,1,2.84,5.48,6.43,6.43,0,0,1-.2,1.64,6.87,6.87,0,0,1-.51,1.36A5.89,5.89,0,0,1,326,75.3a6.66,6.66,0,0,1-.81.83,7.45,7.45,0,0,1-2.21,1.33v.31a8.56,8.56,0,0,1,3.48,1.17,7.73,7.73,0,0,1,1.27,1,6.34,6.34,0,0,1,1.11,1.43,8.16,8.16,0,0,1,.79,2,9.76,9.76,0,0,1,.3,2.55,9.42,9.42,0,0,1-.79,3.93,7.78,7.78,0,0,1-2.35,3,11,11,0,0,1-3.9,1.86,20.42,20.42,0,0,1-5.42.65,24.83,24.83,0,0,1-4.65-.35,7.67,7.67,0,0,1-2.79-1,3.45,3.45,0,0,1-1.36-1.63,6,6,0,0,1-.36-2.16V67.34q0-1.14-1.58-1.14a8.28,8.28,0,0,0-2.32.34,8.44,8.44,0,0,0-2.12.94,5.53,5.53,0,0,0-1.55,1.41,2.94,2.94,0,0,0-.6,1.78,2.64,2.64,0,0,0,.18,1.06,1.68,1.68,0,0,0,.41.59,1.06,1.06,0,0,0,.47.25,1.73,1.73,0,0,0,1.2-.12,5.06,5.06,0,0,0,.6-.37l.51-.37a.9.9,0,0,1,.55-.18,1.41,1.41,0,0,1,.53.11,1.51,1.51,0,0,1,.52.36,2.08,2.08,0,0,1,.41.66,2.6,2.6,0,0,1,.17,1,3,3,0,0,1-.32,1.44,3.21,3.21,0,0,1-.83,1,3.46,3.46,0,0,1-1.17.6,4.49,4.49,0,0,1-1.3.2,4.54,4.54,0,0,1-1.8-.34,4,4,0,0,1-1.36-.95,4.06,4.06,0,0,1-.85-1.42,5,5,0,0,1-.29-1.73,6.85,6.85,0,0,1,.65-3,6.71,6.71,0,0,1,1.82-2.28A10.31,10.31,0,0,1,303,65.54a20.68,20.68,0,0,1,3.65-1,36.82,36.82,0,0,1,4.28-.53Q313.2,63.84,315.65,63.84Zm-.42,27.4a4.2,4.2,0,0,0,.09.9,1.59,1.59,0,0,0,.38.74,2,2,0,0,0,.77.5,3.95,3.95,0,0,0,3.38-.47,6.14,6.14,0,0,0,1.65-1.68,8.38,8.38,0,0,0,1.06-2.31,9,9,0,0,0,.38-2.55,10,10,0,0,0-.51-3.34A7,7,0,0,0,321,80.59,6.43,6.43,0,0,0,318.84,79a7.76,7.76,0,0,0-2.71-.63l.42-1.06a4.62,4.62,0,0,0,1.75-.25,3.44,3.44,0,0,0,1.47-1,5.27,5.27,0,0,0,1-2,10.91,10.91,0,0,0,.38-3.11,7.77,7.77,0,0,0-.31-2.29A5.73,5.73,0,0,0,320,67a3.69,3.69,0,0,0-1.19-1.07,2.82,2.82,0,0,0-1.38-.37,3.38,3.38,0,0,0-.84.1,1.8,1.8,0,0,0-.71.35,1.73,1.73,0,0,0-.48.66,2.52,2.52,0,0,0-.18,1Z"/><path class="cls-2" d="M340.27,98a4.72,4.72,0,0,0,1.65-.3,3.69,3.69,0,0,0,1.45-1,5.26,5.26,0,0,0,1-1.82,8.32,8.32,0,0,0,.4-2.75,7.2,7.2,0,0,0-.86-3.39,19.36,19.36,0,0,0-2.17-3.23q-1.3-1.59-2.81-3.16t-2.81-3.2A18.89,18.89,0,0,1,334,75.73a8,8,0,0,1-.87-3.63,8.14,8.14,0,0,1,.7-3.42,7.76,7.76,0,0,1,1.9-2.6,8.52,8.52,0,0,1,2.79-1.65,9.86,9.86,0,0,1,3.41-.58,13.33,13.33,0,0,1,3.45.41,8.73,8.73,0,0,1,2.56,1.1A4.92,4.92,0,0,1,349.5,67a4,4,0,0,1,.54,2,3.86,3.86,0,0,1-.15,1,3,3,0,0,1-.46,1,2.66,2.66,0,0,1-.79.73,2.12,2.12,0,0,1-1.12.29,1.35,1.35,0,0,1-1.14-.47,3.11,3.11,0,0,1-.54-1.15q-.18-.69-.3-1.51a6.92,6.92,0,0,0-.4-1.51,2.91,2.91,0,0,0-.81-1.15,2.35,2.35,0,0,0-1.58-.47,2.69,2.69,0,0,0-1.11.25,3,3,0,0,0-1,.76,3.81,3.81,0,0,0-.72,1.3,5.79,5.79,0,0,0-.27,1.87,6,6,0,0,0,.52,2.43,12.16,12.16,0,0,0,1.38,2.34A25,25,0,0,0,343.49,77l2.23,2.33q1.13,1.18,2.23,2.41a21.07,21.07,0,0,1,1.95,2.57,13.71,13.71,0,0,1,1.38,2.79,9,9,0,0,1,.52,3.06,9.36,9.36,0,0,1-.91,4.19,9.11,9.11,0,0,1-2.46,3.1,11,11,0,0,1-3.63,1.92,14.47,14.47,0,0,1-4.44.67,12.19,12.19,0,0,1-3.76-.53,9,9,0,0,1-2.76-1.4,6,6,0,0,1-1.7-2,5,5,0,0,1-.57-2.3,4.07,4.07,0,0,1,.16-1.07,3.89,3.89,0,0,1,.46-1.05,2.81,2.81,0,0,1,.76-.8,1.8,1.8,0,0,1,1.06-.32,1.56,1.56,0,0,1,1,.31,2.17,2.17,0,0,1,.61.83,6.2,6.2,0,0,1,.38,1.19q.15.67.31,1.35a11.68,11.68,0,0,0,.42,1.35,4,4,0,0,0,.69,1.19,3.13,3.13,0,0,0,1.12.83A4.19,4.19,0,0,0,340.27,98Z"/><path class="cls-2" d="M156.47,122.92a2,2,0,0,1-.83-.15,1.44,1.44,0,0,1-.54-.4,1.65,1.65,0,0,1-.3-.56,2.16,2.16,0,0,1-.1-.64,5.93,5.93,0,0,1,.06-.82,2.72,2.72,0,0,0,0-.71.8.8,0,0,0-.25-.51,1.08,1.08,0,0,0-.73-.19,2.58,2.58,0,0,0-1.17.32,3.31,3.31,0,0,0-1.13,1,5.81,5.81,0,0,0-.84,1.75,8.75,8.75,0,0,0-.33,2.58,13.75,13.75,0,0,0,.31,3,7.28,7.28,0,0,0,.93,2.34,4.48,4.48,0,0,0,1.54,1.5,4.59,4.59,0,0,0,3.21.4,4.64,4.64,0,0,0,.94-.35,6,6,0,0,0,.85-.51q.4-.29.79-.63l.4.38a10.88,10.88,0,0,1-.94,1.08,7.67,7.67,0,0,1-1.38,1.1,7.92,7.92,0,0,1-1.89.86,8.15,8.15,0,0,1-2.46.34,7.1,7.1,0,0,1-2.69-.53,7,7,0,0,1-2.33-1.55,7.59,7.59,0,0,1-1.63-2.46,8.45,8.45,0,0,1-.61-3.3,9.18,9.18,0,0,1,.37-2.65,8.74,8.74,0,0,1,1-2.2,8.26,8.26,0,0,1,1.46-1.73,9.26,9.26,0,0,1,1.75-1.24,8.46,8.46,0,0,1,1.88-.75,7.25,7.25,0,0,1,1.85-.25,7,7,0,0,1,2,.27,4.59,4.59,0,0,1,1.45.71,2.92,2.92,0,0,1,.87,1,2.67,2.67,0,0,1,.29,1.2,3.21,3.21,0,0,1-.12.88,2.24,2.24,0,0,1-.35.73,1.68,1.68,0,0,1-.58.49A1.73,1.73,0,0,1,156.47,122.92Z"/><path class="cls-2" d="M160.42,125.78a10.06,10.06,0,0,1,.6-3.64,7.69,7.69,0,0,1,1.61-2.61A6.53,6.53,0,0,1,165,118a7.59,7.59,0,0,1,2.79-.52,8.15,8.15,0,0,1,2.79.48,6.39,6.39,0,0,1,2.34,1.48,7.23,7.23,0,0,1,1.61,2.53,9.87,9.87,0,0,1,.6,3.62,10.4,10.4,0,0,1-.6,3.68,8.18,8.18,0,0,1-1.61,2.69,6.7,6.7,0,0,1-2.34,1.66,7.13,7.13,0,0,1-2.79.56,7.5,7.5,0,0,1-2.79-.53,6.61,6.61,0,0,1-2.34-1.58,7.67,7.67,0,0,1-1.61-2.62A10.12,10.12,0,0,1,160.42,125.78Zm9.76-.16q0-1.27-.09-2.45a11,11,0,0,0-.34-2.1,3.69,3.69,0,0,0-.73-1.47,1.58,1.58,0,0,0-1.25-.55,1.54,1.54,0,0,0-1.25.58,4,4,0,0,0-.73,1.52,11.12,11.12,0,0,0-.33,2.15q-.08,1.2-.08,2.47t.08,2.48a11.29,11.29,0,0,0,.33,2.16,4,4,0,0,0,.73,1.53,1.54,1.54,0,0,0,1.25.58,1.52,1.52,0,0,0,1.25-.6,4.23,4.23,0,0,0,.73-1.58,12.46,12.46,0,0,0,.34-2.22Q170.18,126.89,170.18,125.62Z"/><path class="cls-2" d="M187.41,126a22.08,22.08,0,0,0-.18-3.19,6.71,6.71,0,0,0-.48-1.82,1.77,1.77,0,0,0-.67-.82,1.55,1.55,0,0,0-.75-.2,1.41,1.41,0,0,0-.82.25,3,3,0,0,0-.62.56,4.65,4.65,0,0,0-.45.63,4.08,4.08,0,0,1-.31.48v10.59a2.45,2.45,0,0,1-.06.5,1.18,1.18,0,0,1-.31.55,1.92,1.92,0,0,1-.73.44,3.88,3.88,0,0,1-1.33.18,3.6,3.6,0,0,1-1.33-.2,2.09,2.09,0,0,1-.74-.47,1.2,1.2,0,0,1-.32-.55,2.24,2.24,0,0,1-.06-.46V120.23a1.48,1.48,0,0,0-.21-.8.79.79,0,0,0-.72-.34,1,1,0,0,0-.46.1,2.5,2.5,0,0,0-.41.27l-.33-.4a9,9,0,0,1,.82-.59,6.29,6.29,0,0,1,1-.51,7,7,0,0,1,1.13-.37,5.52,5.52,0,0,1,1.27-.14,3.15,3.15,0,0,1,1.6.34,2.29,2.29,0,0,1,.84.82,2.55,2.55,0,0,1,.33,1,8.29,8.29,0,0,1,.06.86,8.63,8.63,0,0,1,1.33-1.51,6.56,6.56,0,0,1,.67-.55,6,6,0,0,1,.79-.48,4.63,4.63,0,0,1,.89-.34,3.67,3.67,0,0,1,1-.13,4.27,4.27,0,0,1,1.91.41,3.42,3.42,0,0,1,1.4,1.38,8,8,0,0,1,.87,2.56,21.84,21.84,0,0,1,.3,4,17.08,17.08,0,0,1-.41,4,11.44,11.44,0,0,1-1.08,2.88,7.5,7.5,0,0,1-1.51,1.94,7.82,7.82,0,0,1-1.7,1.18,6.88,6.88,0,0,1-1.64.59,7.71,7.71,0,0,1-1.36.18l-.17-.65a3.16,3.16,0,0,0,.88-.35,2.48,2.48,0,0,0,.74-.7,4.71,4.71,0,0,0,.59-1.17,10.72,10.72,0,0,0,.44-1.77,23.58,23.58,0,0,0,.27-2.51Q187.41,127.93,187.41,126Z"/><path class="cls-2" d="M200.71,118.8v11.71a1.66,1.66,0,0,0,.32,1.17,1.16,1.16,0,0,0,.87.33,1.28,1.28,0,0,0,.76-.24,2.81,2.81,0,0,0,.57-.54,3.38,3.38,0,0,0,.49-.78l.49.22q-.24.51-.56,1.11a4.39,4.39,0,0,1-2.22,2,5.26,5.26,0,0,1-2.05.35,4.36,4.36,0,0,1-1.34-.21,3.15,3.15,0,0,1-1.14-.65,3.25,3.25,0,0,1-.8-1.11,3.86,3.86,0,0,1-.3-1.6V118.8H194v-1.14a4.79,4.79,0,0,0,1.24-.23,6.15,6.15,0,0,0,1.63-.77,6.45,6.45,0,0,0,1.55-1.44,5.51,5.51,0,0,0,1-2.23h1.27v4.68h2.59q1.27,0,1.27-.43a.21.21,0,0,0-.16-.21l-.36-.14a1.15,1.15,0,0,1-.36-.25.72.72,0,0,1-.16-.52.9.9,0,0,1,.28-.7,1,1,0,0,1,.72-.25,1,1,0,0,1,.5.12,1.08,1.08,0,0,1,.36.32,1.42,1.42,0,0,1,.21.45,1.86,1.86,0,0,1,.07.51,2.25,2.25,0,0,1-.6,1.64,2.58,2.58,0,0,1-1.91.61Z"/><path class="cls-2" d="M211.58,120.78a12.93,12.93,0,0,1,1.29-1.66,8.22,8.22,0,0,1,.62-.62,5.81,5.81,0,0,1,.69-.54,3.65,3.65,0,0,1,.74-.38,2.17,2.17,0,0,1,.76-.14,1.68,1.68,0,0,1,1.27.48,1.89,1.89,0,0,1,.46,1.36,6,6,0,0,1-.09,1,7.61,7.61,0,0,1-.34,1.21h-.44a1.47,1.47,0,0,0-.44-.82,1.44,1.44,0,0,0-1-.33,2.67,2.67,0,0,0-1,.18,6,6,0,0,0-.93.45,8.14,8.14,0,0,0-.86.59l-.74.6V132.5a2.33,2.33,0,0,1-.06.49,1.13,1.13,0,0,1-.31.54,2,2,0,0,1-.73.44,3.88,3.88,0,0,1-1.33.18,3.6,3.6,0,0,1-1.33-.2,2.09,2.09,0,0,1-.74-.47,1.2,1.2,0,0,1-.32-.55,2.24,2.24,0,0,1-.06-.46V120.23a1.48,1.48,0,0,0-.21-.8.79.79,0,0,0-.72-.34,1,1,0,0,0-.46.1,2.5,2.5,0,0,0-.41.27l-.33-.4a9,9,0,0,1,.82-.59,6.29,6.29,0,0,1,1-.51,7,7,0,0,1,1.13-.37,5.52,5.52,0,0,1,1.27-.14,3.32,3.32,0,0,1,1.17.18,2.34,2.34,0,0,1,.79.48,2.25,2.25,0,0,1,.48.66,3.66,3.66,0,0,1,.26.74,4,4,0,0,1,.1.71C211.58,120.43,211.58,120.63,211.58,120.78Z"/><path class="cls-2" d="M224.49,132.46a2.16,2.16,0,0,1-.07.5,1.18,1.18,0,0,1-.33.55,2.08,2.08,0,0,1-.75.44,4,4,0,0,1-1.33.18,3.53,3.53,0,0,1-1.32-.2,1.92,1.92,0,0,1-.71-.47,1.18,1.18,0,0,1-.29-.55,2.52,2.52,0,0,1-.06-.46V120.23a1.48,1.48,0,0,0-.21-.8.79.79,0,0,0-.72-.34,1,1,0,0,0-.46.1,2.5,2.5,0,0,0-.41.27l-.33-.4a9,9,0,0,1,.82-.59,6.29,6.29,0,0,1,1-.51,7,7,0,0,1,1.13-.37,5.52,5.52,0,0,1,1.27-.14,3.75,3.75,0,0,1,1.6.28,2.07,2.07,0,0,1,.84.68,2,2,0,0,1,.33.86,6.83,6.83,0,0,1,.06.81Zm-5.36-18.64a1.89,1.89,0,0,1,.2-.85,2.15,2.15,0,0,1,.56-.71,2.74,2.74,0,0,1,.83-.48,2.91,2.91,0,0,1,1-.17,2.87,2.87,0,0,1,1,.17,2.66,2.66,0,0,1,.82.48,2.2,2.2,0,0,1,.55.71,1.92,1.92,0,0,1,0,1.7,2.16,2.16,0,0,1-.55.69,2.77,2.77,0,0,1-.82.47,2.87,2.87,0,0,1-1,.17,2.91,2.91,0,0,1-1-.17,2.85,2.85,0,0,1-.83-.47,2.11,2.11,0,0,1-.56-.69A1.88,1.88,0,0,1,219.12,113.83Z"/><path class="cls-2" d="M228,112a1.47,1.47,0,0,0-.21-.8.79.79,0,0,0-.72-.34,1.16,1.16,0,0,0-.47.09,2,2,0,0,0-.42.26l-.32-.38a9,9,0,0,1,.82-.59,6.38,6.38,0,0,1,1-.52,7,7,0,0,1,1.13-.36,5.53,5.53,0,0,1,1.27-.14,3.38,3.38,0,0,1,1.48.28,2.28,2.28,0,0,1,.86.68,2.23,2.23,0,0,1,.39.87,4.35,4.35,0,0,1,.09.86V119l.49-.44a4.4,4.4,0,0,1,.76-.52,5,5,0,0,1,1.1-.43,5.83,5.83,0,0,1,1.52-.17,4.83,4.83,0,0,1,2,.47,5.12,5.12,0,0,1,1.83,1.47,7.93,7.93,0,0,1,1.32,2.57,12.36,12.36,0,0,1,.51,3.77,11.13,11.13,0,0,1-.47,3.26,8,8,0,0,1-1.39,2.69,6.54,6.54,0,0,1-2.3,1.81,7.31,7.31,0,0,1-3.21.67,7.77,7.77,0,0,1-3.34-.64,5.79,5.79,0,0,1-2.18-1.73,6.84,6.84,0,0,1-1.18-2.53,12.61,12.61,0,0,1-.36-3Zm9.46,14a22.28,22.28,0,0,0-.14-2.59,10.07,10.07,0,0,0-.46-2.12,4.07,4.07,0,0,0-.81-1.44,1.65,1.65,0,0,0-2.1-.27,2.53,2.53,0,0,0-.61.59,2.56,2.56,0,0,0-.35.66,1.73,1.73,0,0,0-.11.44V126a15.77,15.77,0,0,0,.58,5q.58,1.57,1.71,1.57t1.75-1.6A16.43,16.43,0,0,0,237.42,126Z"/><path class="cls-2" d="M259.32,131.13c0,.1,0,.2,0,.31a1.05,1.05,0,0,0,.08.32.58.58,0,0,0,.19.25.6.6,0,0,0,.36.09.79.79,0,0,0,.54-.21q.24-.21.44-.44l.38.33q-.24.33-.59.74a5.16,5.16,0,0,1-.87.77,5,5,0,0,1-1.16.61,4.16,4.16,0,0,1-1.48.25A3.65,3.65,0,0,1,256,134a2.68,2.68,0,0,1-.87-.49,1.93,1.93,0,0,1-.53-.73,2.29,2.29,0,0,1-.17-.9v-.71a12.37,12.37,0,0,1-1.67,1.51q-.38.29-.81.55a8.05,8.05,0,0,1-.89.48,5.62,5.62,0,0,1-1,.34,4,4,0,0,1-1,.13,3.58,3.58,0,0,1-1.63-.34,3,3,0,0,1-1.09-.9,3.71,3.71,0,0,1-.6-1.25,5.27,5.27,0,0,1-.19-1.39v-9.81c0-.09,0-.2,0-.31a1.09,1.09,0,0,0-.08-.32.59.59,0,0,0-.19-.25.6.6,0,0,0-.37-.09.79.79,0,0,0-.53.21,4.27,4.27,0,0,0-.44.44l-.4-.33a9.05,9.05,0,0,1,.59-.74,5.17,5.17,0,0,1,.87-.77,4.94,4.94,0,0,1,1.17-.61,4.17,4.17,0,0,1,1.47-.25,3.73,3.73,0,0,1,1.22.18,2.6,2.6,0,0,1,.87.49,2,2,0,0,1,.52.73,2.31,2.31,0,0,1,.17.9v10.59a1.51,1.51,0,0,0,.07.45,1.46,1.46,0,0,0,.21.42,1.07,1.07,0,0,0,.34.31,1,1,0,0,0,.49.12,2,2,0,0,0,.92-.24,4.39,4.39,0,0,0,.84-.56,6.38,6.38,0,0,0,.66-.64l.4-.47v-9.26c0-.09,0-.2,0-.31a1.06,1.06,0,0,0-.08-.32.58.58,0,0,0-.19-.25.6.6,0,0,0-.36-.09.8.8,0,0,0-.53.21,4.27,4.27,0,0,0-.44.44l-.4-.33q.24-.33.59-.74a5.17,5.17,0,0,1,.87-.77,5,5,0,0,1,1.17-.61,4.16,4.16,0,0,1,1.47-.25,3.73,3.73,0,0,1,1.22.18,2.58,2.58,0,0,1,.87.49,2,2,0,0,1,.52.73,2.31,2.31,0,0,1,.17.9Z"/><path class="cls-2" d="M268.64,118.8v11.71a1.66,1.66,0,0,0,.32,1.17,1.16,1.16,0,0,0,.87.33,1.28,1.28,0,0,0,.76-.24,2.81,2.81,0,0,0,.57-.54,3.38,3.38,0,0,0,.49-.78l.49.22q-.24.51-.56,1.11a4.39,4.39,0,0,1-2.22,2,5.26,5.26,0,0,1-2.05.35,4.36,4.36,0,0,1-1.34-.21,3.15,3.15,0,0,1-1.14-.65,3.25,3.25,0,0,1-.8-1.11,3.86,3.86,0,0,1-.3-1.6V118.8h-1.78v-1.14a4.79,4.79,0,0,0,1.24-.23,6.15,6.15,0,0,0,1.63-.77,6.45,6.45,0,0,0,1.55-1.44,5.51,5.51,0,0,0,1-2.23h1.27v4.68h2.59q1.27,0,1.27-.43a.21.21,0,0,0-.16-.21l-.36-.14a1.15,1.15,0,0,1-.36-.25.72.72,0,0,1-.16-.52.9.9,0,0,1,.28-.7,1,1,0,0,1,.72-.25,1,1,0,0,1,.5.12,1.08,1.08,0,0,1,.36.32,1.42,1.42,0,0,1,.21.45,1.86,1.86,0,0,1,.07.51,2.25,2.25,0,0,1-.6,1.64,2.58,2.58,0,0,1-1.91.61Z"/><path class="cls-2" d="M278.22,126.62a4.5,4.5,0,0,0,.15,1.1,6.48,6.48,0,0,0,.44,1.2,6.37,6.37,0,0,0,.71,1.15,5.44,5.44,0,0,0,1,1,4.64,4.64,0,0,0,1.21.68,4.08,4.08,0,0,0,1.46.25,4,4,0,0,0,1-.13,4,4,0,0,0,.89-.35,5.82,5.82,0,0,0,.79-.51q.38-.29.76-.63l.4.38a10.88,10.88,0,0,1-.94,1.08,7.67,7.67,0,0,1-1.38,1.1,7.92,7.92,0,0,1-1.89.86,8.15,8.15,0,0,1-2.46.34,7.48,7.48,0,0,1-2.69-.5,6.67,6.67,0,0,1-2.33-1.5,7.32,7.32,0,0,1-1.63-2.49,10,10,0,0,1-.25-6.13,8.49,8.49,0,0,1,1-2.17,8.08,8.08,0,0,1,1.46-1.7,9,9,0,0,1,1.75-1.21,8.66,8.66,0,0,1,1.88-.73,7.7,7.7,0,0,1,3.9,0,4.57,4.57,0,0,1,1.45.68,2.82,2.82,0,0,1,.87,1,2.57,2.57,0,0,1,.29,1.18,2.24,2.24,0,0,1-.43,1.34,4,4,0,0,1-1.14,1Zm3.19-3.22a2.5,2.5,0,0,0,.34-.25.9.9,0,0,0,.21-.29,1.53,1.53,0,0,0,.12-.41,3.93,3.93,0,0,0,0-.61A5.06,5.06,0,0,0,282,121a3.54,3.54,0,0,0-.29-.91,2.29,2.29,0,0,0-.52-.71,1.1,1.1,0,0,0-.76-.29,1.47,1.47,0,0,0-1,.34,2.63,2.63,0,0,0-.67.88,5.49,5.49,0,0,0-.41,1.23,13.73,13.73,0,0,0-.23,1.39q-.08.7-.1,1.34t0,1.08Z"/><path class="cls-2" d="M297.79,118.31a16.5,16.5,0,0,0-.84-3,10,10,0,0,0-1.29-2.37,6,6,0,0,0-1.71-1.57,4,4,0,0,0-2.07-.57,3.88,3.88,0,0,0-1.15.16,4.57,4.57,0,0,0-.9.37,4.62,4.62,0,0,0-.63.41l-.36.29-.41-.55a5.3,5.3,0,0,1,.93-.92,6.13,6.13,0,0,1,1.2-.73,7.5,7.5,0,0,1,1.37-.48,6.1,6.1,0,0,1,1.44-.17,8.13,8.13,0,0,1,4.13,1,8.56,8.56,0,0,1,3,2.89,14.26,14.26,0,0,1,1.79,4.52,26.55,26.55,0,0,1,.6,5.88,17.86,17.86,0,0,1-.53,4.6,9.9,9.9,0,0,1-1.52,3.32,6.35,6.35,0,0,1-2.39,2,7.23,7.23,0,0,1-3.17.67,7.57,7.57,0,0,1-2.48-.44,6.19,6.19,0,0,1-2.29-1.42,7.37,7.37,0,0,1-1.67-2.58,11.76,11.76,0,0,1-.09-7.46,8,8,0,0,1,1.52-2.62,6.49,6.49,0,0,1,2.21-1.63,6.4,6.4,0,0,1,2.65-.56,4.84,4.84,0,0,1,1,.09,4.29,4.29,0,0,1,.75.21,3.38,3.38,0,0,1,.56.28Zm.19,7v-.71q0-.53,0-1.22t-.11-1.47a9.61,9.61,0,0,0-.25-1.44,5.58,5.58,0,0,0-.85-.88,1.82,1.82,0,0,0-1.2-.39q-1.24,0-1.82,1.62a16,16,0,0,0-.58,5,25.3,25.3,0,0,0,.13,2.73,11.22,11.22,0,0,0,.41,2.12,3.73,3.73,0,0,0,.71,1.38,1.34,1.34,0,0,0,1,.49Q298,132.53,298,125.29Z"/><path class="cls-2" d="M318.27,132.46a2.16,2.16,0,0,1-.07.5,1.18,1.18,0,0,1-.33.55,2.08,2.08,0,0,1-.75.44,4,4,0,0,1-1.33.18,3.53,3.53,0,0,1-1.32-.2,1.92,1.92,0,0,1-.71-.47,1.18,1.18,0,0,1-.29-.55,2.52,2.52,0,0,1-.06-.46V120.23a1.48,1.48,0,0,0-.21-.8.79.79,0,0,0-.72-.34,1,1,0,0,0-.46.1,2.5,2.5,0,0,0-.41.27l-.33-.4a9,9,0,0,1,.82-.59,6.29,6.29,0,0,1,1-.51,7,7,0,0,1,1.13-.37,5.52,5.52,0,0,1,1.27-.14,3.75,3.75,0,0,1,1.6.28,2.07,2.07,0,0,1,.84.68,2,2,0,0,1,.33.86,6.83,6.83,0,0,1,.06.81Zm-5.36-18.64a1.89,1.89,0,0,1,.2-.85,2.15,2.15,0,0,1,.56-.71,2.74,2.74,0,0,1,.83-.48,2.91,2.91,0,0,1,1-.17,2.87,2.87,0,0,1,1,.17,2.66,2.66,0,0,1,.82.48,2.2,2.2,0,0,1,.55.71,1.92,1.92,0,0,1,0,1.7,2.16,2.16,0,0,1-.55.69,2.77,2.77,0,0,1-.82.47,2.87,2.87,0,0,1-1,.17,2.91,2.91,0,0,1-1-.17,2.85,2.85,0,0,1-.83-.47,2.11,2.11,0,0,1-.56-.69A1.88,1.88,0,0,1,312.9,113.83Z"/><path class="cls-2" d="M327.36,118.71a2.45,2.45,0,0,0-.69.09,1.57,1.57,0,0,0-.58.31,1.46,1.46,0,0,0-.4.54,1.89,1.89,0,0,0-.14.77,2.05,2.05,0,0,0,.45,1.23,10.61,10.61,0,0,0,1.13,1.27q.68.66,1.46,1.36a16.28,16.28,0,0,1,1.46,1.49,8.44,8.44,0,0,1,1.13,1.67,4.14,4.14,0,0,1,.45,1.9,5,5,0,0,1-.39,2,4.15,4.15,0,0,1-1.11,1.5,5,5,0,0,1-1.75.94,7.5,7.5,0,0,1-2.28.33,6,6,0,0,1-2-.31,7.14,7.14,0,0,1-1.58-.76,6.87,6.87,0,0,1-1.18-1,6.35,6.35,0,0,1-.76-.92l.56-.4a5.44,5.44,0,0,0,1.23,1,4.13,4.13,0,0,0,.83.39,2.8,2.8,0,0,0,.91.15,3,3,0,0,0,1.87-.55,1.9,1.9,0,0,0,.73-1.62,2.37,2.37,0,0,0-.4-1.24,9.76,9.76,0,0,0-1-1.32q-.6-.68-1.3-1.41a18.74,18.74,0,0,1-1.3-1.51,8.86,8.86,0,0,1-1-1.6,3.89,3.89,0,0,1-.4-1.71,3.6,3.6,0,0,1,.4-1.74,3.67,3.67,0,0,1,1.08-1.24,4.82,4.82,0,0,1,1.54-.74,6.5,6.5,0,0,1,1.79-.25,9.1,9.1,0,0,1,1.94.19,4.76,4.76,0,0,1,1.5.58,2.79,2.79,0,0,1,1,1,2.66,2.66,0,0,1,.34,1.36,1.52,1.52,0,0,1-.4,1,1.41,1.41,0,0,1-1.11.44,1.6,1.6,0,0,1-1-.29,1,1,0,0,1-.36-.8.77.77,0,0,1,.17-.52,1.48,1.48,0,0,1,.37-.31l.37-.21a.26.26,0,0,0,.17-.23.79.79,0,0,0-.48-.71A2.52,2.52,0,0,0,327.36,118.71Z"/><path class="cls-2" d="M339.36,118.71a2.45,2.45,0,0,0-.69.09,1.57,1.57,0,0,0-.58.31,1.46,1.46,0,0,0-.4.54,1.89,1.89,0,0,0-.14.77,2.05,2.05,0,0,0,.45,1.23,10.61,10.61,0,0,0,1.13,1.27q.68.66,1.46,1.36a16.28,16.28,0,0,1,1.46,1.49,8.44,8.44,0,0,1,1.13,1.67,4.14,4.14,0,0,1,.45,1.9,5,5,0,0,1-.39,2,4.15,4.15,0,0,1-1.11,1.5,5,5,0,0,1-1.75.94,7.5,7.5,0,0,1-2.28.33,6,6,0,0,1-2-.31,7.14,7.14,0,0,1-1.58-.76,6.87,6.87,0,0,1-1.18-1,6.35,6.35,0,0,1-.76-.92l.56-.4a5.44,5.44,0,0,0,1.23,1,4.13,4.13,0,0,0,.83.39,2.8,2.8,0,0,0,.91.15,3,3,0,0,0,1.87-.55,1.9,1.9,0,0,0,.73-1.62,2.37,2.37,0,0,0-.4-1.24,9.76,9.76,0,0,0-1-1.32q-.6-.68-1.3-1.41a18.74,18.74,0,0,1-1.3-1.51,8.86,8.86,0,0,1-1-1.6,3.89,3.89,0,0,1-.4-1.71,3.6,3.6,0,0,1,.4-1.74,3.67,3.67,0,0,1,1.08-1.24,4.82,4.82,0,0,1,1.54-.74,6.5,6.5,0,0,1,1.79-.25,9.1,9.1,0,0,1,1.94.19,4.76,4.76,0,0,1,1.5.58,2.79,2.79,0,0,1,1,1,2.66,2.66,0,0,1,.34,1.36,1.52,1.52,0,0,1-.4,1,1.41,1.41,0,0,1-1.11.44,1.6,1.6,0,0,1-1-.29,1,1,0,0,1-.36-.8.77.77,0,0,1,.17-.52,1.48,1.48,0,0,1,.37-.31l.37-.21a.26.26,0,0,0,.17-.23.79.79,0,0,0-.48-.71A2.52,2.52,0,0,0,339.36,118.71Z"/><path class="cls-2" d="M360.45,131.13c0,.1,0,.2,0,.31a1.05,1.05,0,0,0,.08.32.58.58,0,0,0,.19.25.6.6,0,0,0,.36.09.79.79,0,0,0,.54-.21q.24-.21.44-.44l.38.33q-.24.33-.59.74a5.16,5.16,0,0,1-.87.77,5,5,0,0,1-1.16.61,4.16,4.16,0,0,1-1.48.25,3.65,3.65,0,0,1-1.21-.18,2.68,2.68,0,0,1-.87-.49,1.93,1.93,0,0,1-.53-.73,2.29,2.29,0,0,1-.17-.9v-.71a12.37,12.37,0,0,1-1.67,1.51q-.38.29-.81.55a8.05,8.05,0,0,1-.89.48,5.62,5.62,0,0,1-1,.34,4,4,0,0,1-1,.13,3.58,3.58,0,0,1-1.63-.34,3,3,0,0,1-1.09-.9,3.71,3.71,0,0,1-.6-1.25,5.27,5.27,0,0,1-.19-1.39v-9.81c0-.09,0-.2,0-.31a1.09,1.09,0,0,0-.08-.32.59.59,0,0,0-.19-.25.6.6,0,0,0-.37-.09.79.79,0,0,0-.53.21,4.27,4.27,0,0,0-.44.44l-.4-.33a9.05,9.05,0,0,1,.59-.74,5.17,5.17,0,0,1,.87-.77,4.94,4.94,0,0,1,1.17-.61,4.17,4.17,0,0,1,1.47-.25,3.73,3.73,0,0,1,1.22.18,2.6,2.6,0,0,1,.87.49,2,2,0,0,1,.52.73,2.31,2.31,0,0,1,.17.9v10.59a1.51,1.51,0,0,0,.07.45,1.46,1.46,0,0,0,.21.42,1.07,1.07,0,0,0,.34.31,1,1,0,0,0,.49.12,2,2,0,0,0,.92-.24,4.39,4.39,0,0,0,.84-.56,6.38,6.38,0,0,0,.66-.64l.4-.47v-9.26c0-.09,0-.2,0-.31a1.06,1.06,0,0,0-.08-.32.58.58,0,0,0-.19-.25.6.6,0,0,0-.36-.09.8.8,0,0,0-.53.21,4.27,4.27,0,0,0-.44.44l-.4-.33q.24-.33.59-.74a5.17,5.17,0,0,1,.87-.77,5,5,0,0,1,1.17-.61,4.16,4.16,0,0,1,1.47-.25,3.73,3.73,0,0,1,1.22.18,2.58,2.58,0,0,1,.87.49,2,2,0,0,1,.52.73,2.31,2.31,0,0,1,.17.9Z"/><path class="cls-2" d="M368.72,126.62a4.5,4.5,0,0,0,.15,1.1,6.48,6.48,0,0,0,.44,1.2,6.37,6.37,0,0,0,.71,1.15,5.44,5.44,0,0,0,1,1,4.64,4.64,0,0,0,1.21.68,4.08,4.08,0,0,0,1.46.25,4,4,0,0,0,1-.13,4,4,0,0,0,.89-.35,5.82,5.82,0,0,0,.79-.51q.38-.29.76-.63l.4.38a10.88,10.88,0,0,1-.94,1.08,7.67,7.67,0,0,1-1.38,1.1,7.92,7.92,0,0,1-1.89.86,8.15,8.15,0,0,1-2.46.34,7.48,7.48,0,0,1-2.69-.5,6.67,6.67,0,0,1-2.33-1.5,7.32,7.32,0,0,1-1.63-2.49,10,10,0,0,1-.25-6.13,8.49,8.49,0,0,1,1-2.17,8.08,8.08,0,0,1,1.46-1.7,9,9,0,0,1,1.75-1.21,8.66,8.66,0,0,1,1.88-.73,7.7,7.7,0,0,1,3.9,0,4.57,4.57,0,0,1,1.45.68,2.82,2.82,0,0,1,.87,1,2.57,2.57,0,0,1,.29,1.18,2.24,2.24,0,0,1-.43,1.34,4,4,0,0,1-1.14,1Zm3.19-3.22a2.5,2.5,0,0,0,.34-.25.9.9,0,0,0,.21-.29,1.53,1.53,0,0,0,.12-.41,3.93,3.93,0,0,0,0-.61,5.06,5.06,0,0,0-.09-.88,3.54,3.54,0,0,0-.29-.91,2.29,2.29,0,0,0-.52-.71,1.1,1.1,0,0,0-.76-.29,1.47,1.47,0,0,0-1,.34,2.63,2.63,0,0,0-.67.88,5.49,5.49,0,0,0-.41,1.23,13.73,13.73,0,0,0-.23,1.39q-.08.7-.1,1.34t0,1.08Z"/><path class="cls-2" d="M384.76,118.71a2.45,2.45,0,0,0-.69.09,1.57,1.57,0,0,0-.58.31,1.46,1.46,0,0,0-.4.54,1.89,1.89,0,0,0-.14.77,2.05,2.05,0,0,0,.45,1.23,10.61,10.61,0,0,0,1.13,1.27q.68.66,1.46,1.36a16.28,16.28,0,0,1,1.46,1.49,8.44,8.44,0,0,1,1.13,1.67,4.14,4.14,0,0,1,.45,1.9,5,5,0,0,1-.39,2,4.15,4.15,0,0,1-1.11,1.5,5,5,0,0,1-1.75.94,7.5,7.5,0,0,1-2.28.33,6,6,0,0,1-2-.31,7.14,7.14,0,0,1-1.58-.76,6.87,6.87,0,0,1-1.18-1,6.35,6.35,0,0,1-.76-.92l.56-.4a5.44,5.44,0,0,0,1.23,1,4.13,4.13,0,0,0,.83.39,2.8,2.8,0,0,0,.91.15,3,3,0,0,0,1.87-.55,1.9,1.9,0,0,0,.73-1.62,2.37,2.37,0,0,0-.4-1.24,9.76,9.76,0,0,0-1-1.32q-.6-.68-1.3-1.41a18.74,18.74,0,0,1-1.3-1.51,8.86,8.86,0,0,1-1-1.6,3.89,3.89,0,0,1-.4-1.71,3.6,3.6,0,0,1,.4-1.74,3.67,3.67,0,0,1,1.08-1.24,4.82,4.82,0,0,1,1.54-.74,6.5,6.5,0,0,1,1.79-.25,9.1,9.1,0,0,1,1.94.19,4.76,4.76,0,0,1,1.5.58,2.79,2.79,0,0,1,1,1,2.66,2.66,0,0,1,.34,1.36,1.52,1.52,0,0,1-.4,1,1.41,1.41,0,0,1-1.11.44,1.6,1.6,0,0,1-1-.29,1,1,0,0,1-.36-.8.77.77,0,0,1,.17-.52,1.48,1.48,0,0,1,.37-.31l.37-.21a.26.26,0,0,0,.17-.23A.79.79,0,0,0,386,119,2.52,2.52,0,0,0,384.76,118.71Z"/><path class="cls-3" d="M106.33,25.74v3.7a3.84,3.84,0,0,0-.15.66,47.21,47.21,0,0,1-1.74,10.29,126.9,126.9,0,0,1-12.24,28.5c-.63,1.1-.63,1.4.25,2.11,5.46,4.38,7.33,10.32,6.86,17-.4,5.75-1.31,11.46-2.12,17.17-.7,4.93-1.64,9.82-2.34,14.75A67,67,0,0,1,90.38,137a2.4,2.4,0,0,0,0,1.43,12.38,12.38,0,0,1-2.51,11.31A21.45,21.45,0,0,1,73.1,157.8l-2.92.35H64.89a3.24,3.24,0,0,0-.66-.18c-1.23-.08-2.46-.1-3.69-.2a38.08,38.08,0,0,1-11.16-2.29c-3.6-1.44-6.51-3.69-7.78-7.5a41.51,41.51,0,0,1-1-5c-.19-.21-.43-.36-.51-.57-1.42-3.5-2.89-7-4.19-10.52a23.44,23.44,0,0,1-1.41-5.42c-.64-5.73-1.13-11.48-1.6-17.24S32,97.74,31.53,92c-.7-7.77,2.11-14.16,7.46-19.6,1-1,1-1.07.35-2.25-1.82-3.41-3.71-6.79-5.41-10.26A99.53,99.53,0,0,1,26,39.06C24.84,34,24,28.83,24.88,23.57c1.11-6.48,4.56-11,11-13,.69-.22,1.38-.42,2.08-.63h2.82a1.78,1.78,0,0,0,.4.16,9.69,9.69,0,0,1,6,3.49,24.58,24.58,0,0,1,4.14,7c2.76,7,3.88,14.28,4.73,21.65.44,3.84.56,7.71.93,11.56a14.09,14.09,0,0,0,1,2.95l.26-.06a9,9,0,0,0,.72-5.41l1.4,1.51a6.1,6.1,0,0,1,4-2.5c.61-.1.77-.35.76-.91q0-2.9,0-5.81a.94.94,0,0,0-.68-1,2.87,2.87,0,0,1-1.68-3.32,2.93,2.93,0,0,1,3-2.28,2.87,2.87,0,0,1,2.82,2.53,2.82,2.82,0,0,1-1.94,3.16.77.77,0,0,0-.61.89c0,2,0,3.93,0,5.9,0,.6.21.77.78.89a6.17,6.17,0,0,1,4.88,4.43c.06.21.16.4.26.64a6.88,6.88,0,0,1,1-.78,1.58,1.58,0,0,0,.94-1.49c.34-4.12.71-8.23,1.13-12.34a82.43,82.43,0,0,1,3.53-17C79.72,20,81.25,16.33,84,13.33a10,10,0,0,1,5.46-3.17l1.36-.27h1.41c.8.16,1.61.25,2.39.48,6.15,1.8,9.74,6,11.16,12.12C106,23.56,106.14,24.66,106.33,25.74Z"/><path class="cls-4" d="M38.2,9.72h2.06c.06.09.16.06.24.07a9.53,9.53,0,0,1,2.56.65,11.37,11.37,0,0,1,4.87,4.1,31.6,31.6,0,0,1,4.42,9.17,78.94,78.94,0,0,1,2.1,8.8q.87,4.54,1.4,9.14c.29,2.55.42,5.12.64,7.68a21.09,21.09,0,0,0-1.37,3.43,20.92,20.92,0,0,0-1,4.09,27.74,27.74,0,0,1-.95-9.36,32.14,32.14,0,0,0-1.48,3.81,8.69,8.69,0,0,1,0-1c0-2.08,0-4.15-.11-6.23a87.35,87.35,0,0,0-1.24-10.43,40.64,40.64,0,0,0-3.68-11.28,15.06,15.06,0,0,0-3.28-4.57,7.43,7.43,0,0,0-4.76-2.2,9.27,9.27,0,0,0-9.37,6.68,17,17,0,0,0-.67,8.06,62.25,62.25,0,0,0,2.21,10.22A79.41,79.41,0,0,0,41.38,62.32a29.92,29.92,0,0,0,5,5.8c1,.88,1.52.77,2.17-.39a18.82,18.82,0,0,0,1.75-4.48c.28-1.06.51-2.14.76-3.2a15.57,15.57,0,0,0,.77,2.65c.58,1.28,1,2.68,2.36,3.42a.25.25,0,0,1,.12.32,7.7,7.7,0,0,0,.1,3.74A24.08,24.08,0,0,0,55.58,74a17.48,17.48,0,0,0,1,2.28,8.35,8.35,0,0,1,.14-3.7,11,11,0,0,1,1.47-3.46,29.15,29.15,0,0,0,1.87,13.42,1.49,1.49,0,0,0,0-.2,51.67,51.67,0,0,1,.31-7,14.42,14.42,0,0,1,1-4.11,3.07,3.07,0,0,1,1.46-1.73c.21-.1.34-.09.45.15A25.59,25.59,0,0,1,65,74.81a8.38,8.38,0,0,1,.14,3.56c0,.07,0,.17,0,.2s.17-.08.23-.16a18,18,0,0,0,3.48-7.54,11,11,0,0,0,.14-2.14c0-.7-.2-1.37-.25-2.06h0A17.14,17.14,0,0,1,71,69a14,14,0,0,1,2.72,5.24A8.91,8.91,0,0,1,74,77.28c-.06.6-.23,1.19-.25,1.79l-.05.08,0,0,0-.1c.07-.11.14-.21.2-.32a30.81,30.81,0,0,0,2-5.2,16.89,16.89,0,0,0,.71-4.88c0-.19,0-.39,0-.64a2.61,2.61,0,0,1,.74.7,7.21,7.21,0,0,1,1.14,3.1c.14.74.25,1.49.37,2.23a5.66,5.66,0,0,0,.41-1,14.85,14.85,0,0,0,.74-6.3A6,6,0,0,0,79,64a.4.4,0,0,1,0-.53,6.11,6.11,0,0,0,.69-1.59,1.31,1.31,0,0,1,0,.14,21.32,21.32,0,0,0,2,5.62c.69,1.25,1.22,1.33,2.3.38a25.79,25.79,0,0,0,3.38-3.65,74.79,74.79,0,0,0,7.9-13.12,70.44,70.44,0,0,0,5.87-17.66,26.36,26.36,0,0,0,.56-8.45,12.69,12.69,0,0,0-2.48-6.24A9.1,9.1,0,0,0,94,15.79a7,7,0,0,0-6.14,1.27,11.79,11.79,0,0,0-2.74,2.87,31.54,31.54,0,0,0-3.64,7.82,50.62,50.62,0,0,0-1.9,8.5c-.31,2.15-.57,4.31-.71,6.49-.06,1-.14,2-.18,3-.06,1.66-.05,3.32,0,5,0,1.2.19,2.4.17,3.6-.24-.62-.47-1.25-.72-1.87-.16-.39-.32-.78-.49-1.18.05,1.08,0,2.15,0,3.21a8.28,8.28,0,0,1-.54,3,3,3,0,0,1-1.79,1.94c-.28.1-.43.08-.54-.24a4.92,4.92,0,0,1-.14-2.35A9.09,9.09,0,0,1,76,53.71c.05-.09.15-.17.11-.27s-.2-.07-.31-.07a6.46,6.46,0,0,0-2.23.53c.23-3,.46-6.05.75-9.08s.65-6.16,1.14-9.22a78.62,78.62,0,0,1,3.45-13.72,24.71,24.71,0,0,1,5-8.78,10,10,0,0,1,9.26-3.18,14.19,14.19,0,0,1,7.75,3.82c3.47,3.22,4.94,7.34,5.19,12v3.48a32.83,32.83,0,0,1-.26,3.33,57.44,57.44,0,0,1-2.16,9.95,134.23,134.23,0,0,1-9.86,23.18c-.59,1.13-1.24,2.23-1.9,3.33a1.14,1.14,0,0,0,.3,1.78l.24.19a17,17,0,0,1,2.82,2.81,18.51,18.51,0,0,1,3.43,7.48,22.73,22.73,0,0,1,.56,6.29c-.09,1.61-.29,3.2-.48,4.79-.22,1.8-.42,3.59-.66,5.39-.3,2.22-.64,4.43-.93,6.65-.38,2.84-.87,5.67-1.35,8.5s-.89,5.39-1.33,8.08c-.32,1.92-.55,3.86-1,5.76A66.61,66.61,0,0,1,90,137.39c-.13-.07-.13-.21-.17-.33-.21-.5-.38-1-.62-1.51a38.86,38.86,0,0,0-6.49-9.41,35.48,35.48,0,0,0-7.33-6,22.12,22.12,0,0,0-9.48-3.45,14.44,14.44,0,0,0-7,1,22.31,22.31,0,0,0-6.8,4.46,43.56,43.56,0,0,0-7,8.3,30.32,30.32,0,0,0-3.67,8c-.36,1.24-.54,2.51-.85,3.76l-.27.86-.14-.28c-1.17-2.67-2.31-5.36-3.35-8.08a48.63,48.63,0,0,1-2.27-6.94,58.07,58.07,0,0,1-.91-8.29q-.19-2.61-.36-5.23c-.1-1.47-.31-2.92-.48-4.38-.22-1.93-.3-3.86-.4-5.79-.12-2.25-.33-4.49-.53-6.74q-.28-3-.49-6.09a23.42,23.42,0,0,1,.4-6.57,25,25,0,0,1,5.25-10.52,20.8,20.8,0,0,1,2.22-2.34,1,1,0,0,0,.26-1.42l-.18-.33c-2.74-4.82-5.31-9.74-7.56-14.81A88.25,88.25,0,0,1,25.22,36a43.35,43.35,0,0,1-.88-7.41c0-.08,0-.18-.07-.23V27.29c.1,0,.08-.12.07-.19a19.77,19.77,0,0,1,.15-2.31,20.35,20.35,0,0,1,1.95-6.89c2.07-4.16,5.58-6.51,9.92-7.79C37,9.94,37.59,9.85,38.2,9.72Zm38.13,98.93c.34,0,.69,0,1,0s.68-.07,1-.13a20.12,20.12,0,0,0,11.63-6,7.43,7.43,0,0,0,2-7.78,15.18,15.18,0,0,0-6.79-8.68A7.16,7.16,0,0,0,79,85.4,10.34,10.34,0,0,0,74.79,88a20.54,20.54,0,0,0-5.52,10.2,12.08,12.08,0,0,0,1.13,8.28,3.67,3.67,0,0,0,3,2.16C74.41,108.79,75.37,108.62,76.33,108.65ZM55,108.75h.62a4.11,4.11,0,0,0,3.73-1.86A10.67,10.67,0,0,0,60.89,102a18.3,18.3,0,0,0-9-16.21,6.35,6.35,0,0,0-4.61-.76,11.63,11.63,0,0,0-5.55,3.34,16.31,16.31,0,0,0-3.67,5.92,7.13,7.13,0,0,0,1.06,7.26,16.64,16.64,0,0,0,3.56,3.35A21.58,21.58,0,0,0,55,108.75Z"/><path class="cls-5" d="M90,137.39c.13.58.28,1.15.39,1.73a12.26,12.26,0,0,1-2.38,10,21.43,21.43,0,0,1-10.87,7.62,24.8,24.8,0,0,1-6.81,1.07c-.12,0-.26-.07-.35.07H64.7c-.05-.11-.15-.07-.23-.07a63.56,63.56,0,0,1-9-.84,28.23,28.23,0,0,1-7.37-2.18c-5-2.42-7.49-6.45-7.51-12,0-.19.1-.4-.06-.57.31-1.25.49-2.52.85-3.76a30.32,30.32,0,0,1,3.67-8,43.56,43.56,0,0,1,7-8.3,22.31,22.31,0,0,1,6.8-4.46,14.44,14.44,0,0,1,7-1,22.12,22.12,0,0,1,9.48,3.45,35.48,35.48,0,0,1,7.33,6,38.86,38.86,0,0,1,6.49,9.41c.24.49.41,1,.62,1.51C89.84,137.18,89.84,137.32,90,137.39Zm-7.83,7.38a.76.76,0,0,0-.32.2,37.16,37.16,0,0,1-7.13,4.4,20.18,20.18,0,0,1-12.15,1.37,37.19,37.19,0,0,1-9.83-3.55c-1.36-.68-2.67-1.46-4-2.19h0c0,.2.15.31.26.45a23.79,23.79,0,0,0,11.21,7.84A18,18,0,0,0,81,146.68a8.82,8.82,0,0,0,1.18-1.89l0,0,0,0Zm1.22-11.11a1.9,1.9,0,0,0-.42-1.43,8.57,8.57,0,0,0-2.11-2,4.36,4.36,0,0,0-5.58.45A4.73,4.73,0,0,0,74,133.9a12.9,12.9,0,0,1-2,6c-.62,1-1.29,2-2,3a.87.87,0,0,0,.32,1.42,1.41,1.41,0,0,0,1.32,0,35.9,35.9,0,0,0,8.64-5A7.4,7.4,0,0,0,83.35,133.66Zm-34.43.77a4,4,0,0,0,.63,2.24,12.63,12.63,0,0,0,3.78,3.79,48.91,48.91,0,0,0,6.27,3.48,7.74,7.74,0,0,0,1.32.46,1.29,1.29,0,0,0,1.22-.33.59.59,0,0,0,.19-.78,3,3,0,0,0-.64-.94c-.13-.13-.29-.26-.27-.44a.7.7,0,0,0-.26-.59c-.15-.17-.3-.35-.44-.53a12.43,12.43,0,0,1-2.51-7.15,4.25,4.25,0,0,0-4.94-4.18A5.28,5.28,0,0,0,48.92,134.43Z"/><path class="cls-6" d="M106.05,25.7h.07v3.5h-.07Z"/><path class="cls-7" d="M51.06,60c-.25,1.07-.48,2.14-.76,3.2a18.82,18.82,0,0,1-1.75,4.48c-.65,1.16-1.17,1.26-2.17.39a29.92,29.92,0,0,1-5-5.8A79.41,79.41,0,0,1,30.84,40.54a62.25,62.25,0,0,1-2.21-10.22,17,17,0,0,1,.67-8.06,9.27,9.27,0,0,1,9.37-6.68,7.43,7.43,0,0,1,4.76,2.2,15.06,15.06,0,0,1,3.28,4.57,40.64,40.64,0,0,1,3.68,11.28,87.35,87.35,0,0,1,1.24,10.43c.13,2.07.15,4.15.11,6.23a8.69,8.69,0,0,0,0,1c0,.12-.05.25-.09.37a21.28,21.28,0,0,0-.77,5.91C50.86,58.42,51,59.23,51.06,60Z"/><path class="cls-8" d="M78.84,54.36c0-1.2-.13-2.4-.17-3.6-.05-1.66-.06-3.32,0-5,0-1,.11-2,.18-3,.14-2.17.4-4.33.71-6.49a50.62,50.62,0,0,1,1.9-8.5,31.54,31.54,0,0,1,3.64-7.82,11.79,11.79,0,0,1,2.74-2.87A7,7,0,0,1,94,15.79a9.1,9.1,0,0,1,5.34,3.13,12.69,12.69,0,0,1,2.48,6.24,26.36,26.36,0,0,1-.56,8.45,70.44,70.44,0,0,1-5.87,17.66,74.79,74.79,0,0,1-7.9,13.12A25.79,25.79,0,0,1,84.08,68c-1.08,1-1.61.87-2.3-.38a21.32,21.32,0,0,1-2-5.62,1.31,1.31,0,0,0,0-.14,9.81,9.81,0,0,0,0-4.1A29.33,29.33,0,0,0,78.84,54.36Z"/><path class="cls-9" d="M78.84,54.36a29.33,29.33,0,0,1,.89,3.44,9.81,9.81,0,0,1,0,4.1A6.11,6.11,0,0,1,79,63.49.4.4,0,0,0,79,64a6,6,0,0,1,1,2.72,14.85,14.85,0,0,1-.74,6.3,5.66,5.66,0,0,1-.41,1c-.12-.74-.24-1.49-.37-2.23a7.21,7.21,0,0,0-1.14-3.1,2.61,2.61,0,0,0-.74-.7c0,.25,0,.44,0,.64a16.89,16.89,0,0,1-.71,4.88,30.81,30.81,0,0,1-2,5.2c-.05.11-.13.21-.2.32h0c0-.6.19-1.19.25-1.79a8.91,8.91,0,0,0-.29-3.06A14,14,0,0,0,71,69a17.15,17.15,0,0,0-2.19-2.3l0,0,0,0c0,.69.23,1.36.25,2.06a11,11,0,0,1-.14,2.14,18,18,0,0,1-3.48,7.54c-.06.08-.1.2-.23.16s-.06-.13,0-.2A8.38,8.38,0,0,0,65,74.81a25.59,25.59,0,0,0-1.72-5.17c-.1-.24-.24-.25-.45-.15a3.07,3.07,0,0,0-1.46,1.73,14.42,14.42,0,0,0-1,4.11,51.67,51.67,0,0,0-.31,7,1.49,1.49,0,0,1,0,.2A29.15,29.15,0,0,1,58.21,69.1a11,11,0,0,0-1.47,3.46,8.35,8.35,0,0,0-.14,3.7,17.48,17.48,0,0,1-1-2.28,24.08,24.08,0,0,1-1.17-3.8,7.7,7.7,0,0,1-.1-3.74.25.25,0,0,0-.12-.32c-1.37-.74-1.78-2.14-2.36-3.42A15.57,15.57,0,0,1,51.06,60c-.08-.82-.2-1.63-.22-2.45a21.28,21.28,0,0,1,.77-5.91c0-.12.06-.24.09-.37a32.14,32.14,0,0,1,1.48-3.81,27.74,27.74,0,0,0,.95,9.36,20.92,20.92,0,0,1,1-4.09,21.09,21.09,0,0,1,1.37-3.43l0,.3a.47.47,0,0,0-.07.13,8.09,8.09,0,0,0,0,2.64,3.57,3.57,0,0,0,.35,1.34,11.76,11.76,0,0,0,1.17,3c.67-1.88,1.31-3.66.73-5.6v0a12,12,0,0,1,1.43,1.53,24.61,24.61,0,0,1,1.62,2.47,17.37,17.37,0,0,1,1,2.41,21.75,21.75,0,0,1,2.1-6A18.3,18.3,0,0,0,66.79,58a6.61,6.61,0,0,0,.72-1.11,7.62,7.62,0,0,0,1-5.1,4.74,4.74,0,0,1-.23-1.07l.08,0a27,27,0,0,1,2.55,5.55,8.1,8.1,0,0,1,.72-1.05,6.12,6.12,0,0,1,1.92-1.38,6.46,6.46,0,0,1,2.23-.53c.1,0,.25-.06.31.07s-.06.18-.11.27a9.09,9.09,0,0,0-1.33,3.16,4.92,4.92,0,0,0,.14,2.35c.1.32.25.34.54.24a3,3,0,0,0,1.79-1.94,8.28,8.28,0,0,0,.54-3c0-1.06,0-2.12,0-3.21.16.39.33.78.49,1.18C78.36,53.11,78.6,53.74,78.84,54.36Z"/><path class="cls-10" d="M76.33,108.65c-1,0-1.92.15-2.89,0a3.67,3.67,0,0,1-3-2.16,12.08,12.08,0,0,1-1.13-8.28A20.54,20.54,0,0,1,74.79,88,10.34,10.34,0,0,1,79,85.4a7.16,7.16,0,0,1,6.14.68A15.18,15.18,0,0,1,92,94.76a7.43,7.43,0,0,1-2,7.78,20.12,20.12,0,0,1-11.63,6c-.34.05-.68.1-1,.13S76.67,108.65,76.33,108.65Zm1.31-.59a6.72,6.72,0,0,0,1.74-.13,6.58,6.58,0,0,0,4.73-4.21,5,5,0,0,0,.54-2.53A1.34,1.34,0,0,0,82.72,100a7,7,0,0,0-.67.34,4.34,4.34,0,0,1-.8.35,2.17,2.17,0,0,1-2.52-1,1.94,1.94,0,0,1,.08-2.54c.2-.26.46-.47.67-.72a1.41,1.41,0,0,0-.82-2.38,6.61,6.61,0,0,0-3.63.31A6.42,6.42,0,0,0,70.69,99a9,9,0,0,0,.46,5.32,5.51,5.51,0,0,0,3.64,3.39A9.19,9.19,0,0,0,77.64,108.06Z"/><path class="cls-10" d="M55,108.75a21.58,21.58,0,0,1-12.26-3.82,16.64,16.64,0,0,1-3.56-3.35,7.13,7.13,0,0,1-1.06-7.26,16.31,16.31,0,0,1,3.67-5.92,11.63,11.63,0,0,1,5.55-3.34,6.35,6.35,0,0,1,4.61.76,18.3,18.3,0,0,1,9,16.21,10.67,10.67,0,0,1-1.57,4.86,4.11,4.11,0,0,1-3.73,1.86Zm-9.67-7.58c0,.22,0,.56.08.9a5.55,5.55,0,0,0,.15.74,6.62,6.62,0,0,0,4.66,5,10.77,10.77,0,0,0,2.29.23,5.88,5.88,0,0,0,3.86-.94,6.19,6.19,0,0,0,3-6c-.1-1.1-1-1.85-2.15-1a4,4,0,0,1-.64.4,2,2,0,0,1-2.27-.22,2.14,2.14,0,0,1-.15-3.58c.12-.11.24-.22.35-.34a1.27,1.27,0,0,0,.13-1.69A1.66,1.66,0,0,0,53.37,94a7.77,7.77,0,0,0-2.15.06A7.06,7.06,0,0,0,45.29,101.18Z"/><path class="cls-9" d="M73.76,79.07l0,.1,0,0,.05-.08Z"/><path class="cls-9" d="M83.35,133.66a7.4,7.4,0,0,1-3,5.7,35.9,35.9,0,0,1-8.64,5,1.41,1.41,0,0,1-1.32,0,.87.87,0,0,1-.32-1.42c.7-1,1.37-1.95,2-3a12.9,12.9,0,0,0,2-6,4.73,4.73,0,0,1,1.23-3.22,4.36,4.36,0,0,1,5.58-.45,8.57,8.57,0,0,1,2.11,2A1.9,1.9,0,0,1,83.35,133.66Z"/><path class="cls-9" d="M48.92,134.43a5.28,5.28,0,0,1,4.37-5,4.25,4.25,0,0,1,4.94,4.18,12.43,12.43,0,0,0,2.51,7.15c.14.18.28.36.44.53a.7.7,0,0,1,.26.59c0,.18.14.31.27.44a3,3,0,0,1,.64.94.59.59,0,0,1-.19.78,1.29,1.29,0,0,1-1.22.33,7.74,7.74,0,0,1-1.32-.46,48.91,48.91,0,0,1-6.27-3.48,12.63,12.63,0,0,1-3.78-3.79A4,4,0,0,1,48.92,134.43Z"/><path class="cls-10" d="M48.71,145c1.33.73,2.64,1.51,4,2.19a37.19,37.19,0,0,0,9.83,3.55,20.18,20.18,0,0,0,12.15-1.37,37.16,37.16,0,0,0,7.13-4.4.76.76,0,0,1,.32-.2l0,0A8.87,8.87,0,0,1,81,146.68a18,18,0,0,1-20.79,6.6A23.79,23.79,0,0,1,49,145.44c-.11-.13-.26-.25-.26-.45Z"/><path class="cls-10" d="M82.14,144.77l0,0,0,0,0,0Z"/><path class="cls-10" d="M48.71,145h0Z"/><path class="cls-11" d="M68.28,50.77a4.74,4.74,0,0,0,.23,1.07,7.62,7.62,0,0,1-1,5.1A6.61,6.61,0,0,1,66.79,58a18.3,18.3,0,0,1-1.91-6.54,21.75,21.75,0,0,0-2.1,6,17.37,17.37,0,0,0-1-2.41,24.61,24.61,0,0,0-1.62-2.47A6.26,6.26,0,0,1,64.53,50l.3-.06a4.58,4.58,0,0,0,1,0,8,8,0,0,1,2.22.59A.49.49,0,0,1,68.28,50.77Z"/><path class="cls-12" d="M64.83,42.58a3,3,0,1,1,.94,0A4.38,4.38,0,0,1,64.83,42.58Z"/><path class="cls-9" d="M64.83,42.58a4.38,4.38,0,0,0,.94,0q0,3.21,0,6.42c0,.3,0,.61,0,.91a4.58,4.58,0,0,1-1,0Z"/><path class="cls-13" d="M71.62,55.28a8.1,8.1,0,0,0-.72,1.05,27,27,0,0,0-2.55-5.55,4.78,4.78,0,0,1,1.89,1.51,6.09,6.09,0,0,1,1.31,2.81A1.07,1.07,0,0,0,71.62,55.28Z"/><path class="cls-14" d="M56.77,53.75a3.57,3.57,0,0,1-.35-1.34,8.09,8.09,0,0,1,0-2.64.47.47,0,0,1,.07-.13C56.6,51,56.71,52.38,56.77,53.75Z"/><path class="cls-9" d="M58.67,51.1l-.05,0,0,0,0,.06Z"/><path class="cls-14" d="M68.81,66.68l0,0,0,0Z"/><path class="cls-9" d="M77.64,108.06a9.19,9.19,0,0,1-2.85-.37,5.51,5.51,0,0,1-3.64-3.39A9,9,0,0,1,70.69,99,6.42,6.42,0,0,1,75,94.37a6.61,6.61,0,0,1,3.63-.31,1.41,1.41,0,0,1,.82,2.38c-.21.25-.47.47-.67.72a1.94,1.94,0,0,0-.08,2.54,2.17,2.17,0,0,0,2.52,1,4.34,4.34,0,0,0,.8-.35,7,7,0,0,1,.67-.34,1.34,1.34,0,0,1,1.94,1.18,5,5,0,0,1-.54,2.53,6.58,6.58,0,0,1-4.73,4.21A6.72,6.72,0,0,1,77.64,108.06Z"/><path class="cls-9" d="M45.29,101.18A7.06,7.06,0,0,1,51.22,94,7.77,7.77,0,0,1,53.37,94a1.66,1.66,0,0,1,1.26.74,1.27,1.27,0,0,1-.13,1.69c-.11.12-.23.23-.35.34a2.14,2.14,0,0,0,.15,3.58,2,2,0,0,0,2.27.22,4,4,0,0,0,.64-.4c1.13-.87,2-.12,2.15,1a6.19,6.19,0,0,1-3,6,5.88,5.88,0,0,1-3.86.94,10.77,10.77,0,0,1-2.29-.23,6.62,6.62,0,0,1-4.66-5,5.55,5.55,0,0,1-.15-.74C45.33,101.73,45.31,101.39,45.29,101.18Z"/></svg>