<svg id="Layer_1" data-name="Layer 1" xmlns="http://www.w3.org/2000/svg" viewBox="0 0 24 28"><defs><style>.cls-1{fill:#273274;}</style></defs><title>pr elements</title><path class="cls-1" d="M14.64,5.54l1.24,1.34L14.34,8.43,10.49,4.37,14.36.29l1.58,1.5L14.62,3.21c.47,0,.82,0,1.17.07a5.55,5.55,0,0,1,5.09,5.64q0,5.76,0,11.53a1.08,1.08,0,0,0,.6,1.12A3.18,3.18,0,0,1,23,25.22a3.42,3.42,0,0,1-3.2,2.48,3.37,3.37,0,0,1-3.2-2.48,3.16,3.16,0,0,1,1.5-3.65,1.07,1.07,0,0,0,.63-1.1c0-3.79,0-7.58,0-11.37A3.39,3.39,0,0,0,14.64,5.54Zm6.27,18.87a1.13,1.13,0,0,0-1.07-1.14,1.09,1.09,0,0,0-1.16,1,1.13,1.13,0,0,0,1.1,1.2A1.18,1.18,0,0,0,20.91,24.41Z"/><path class="cls-1" d="M3.12,14.35c0-2.08,0-4.16,0-6.24a1.19,1.19,0,0,0-.48-.83A3.35,3.35,0,0,1,1,3.49,3.42,3.42,0,0,1,4.25,1,3.39,3.39,0,0,1,7.43,3.55,3.21,3.21,0,0,1,5.82,7.23a.9.9,0,0,0-.53.92q0,6.24,0,12.48a.84.84,0,0,0,.5.85,3.2,3.2,0,0,1,1.59,3.82A3.36,3.36,0,0,1,4.05,27.7,3.4,3.4,0,0,1,.94,24.82a3.2,3.2,0,0,1,1.67-3.3.9.9,0,0,0,.52-.93C3.11,18.51,3.12,16.43,3.12,14.35ZM4.26,5.48A1.1,1.1,0,0,0,5.33,4.34a1.13,1.13,0,0,0-1.11-1.1A1.17,1.17,0,0,0,3.09,4.43,1.14,1.14,0,0,0,4.26,5.48Zm1.07,18.9a1.1,1.1,0,0,0-1.09-1.11,1.14,1.14,0,0,0-1.15,1.07A1.18,1.18,0,0,0,4.24,25.5,1.13,1.13,0,0,0,5.33,24.37Z"/></svg>