<svg id="Layer_1" data-name="Layer 1" xmlns="http://www.w3.org/2000/svg" xmlns:xlink="http://www.w3.org/1999/xlink" viewBox="0 0 1080 302"><defs><style>.cls-1{fill:none;}.cls-2{clip-path:url(#clip-path);}.cls-12,.cls-3,.cls-4,.cls-5{fill:#ff544e;}.cls-12,.cls-4,.cls-5{stroke:#fff;}.cls-10,.cls-11,.cls-12,.cls-14,.cls-15,.cls-4,.cls-5,.cls-8,.cls-9{stroke-miterlimit:10;}.cls-15,.cls-4{stroke-width:3px;}.cls-10,.cls-14,.cls-5,.cls-9{stroke-width:2px;}.cls-6{fill:#fff;}.cls-10,.cls-15,.cls-7,.cls-8,.cls-9{fill:#273274;}.cls-11,.cls-14,.cls-15,.cls-8,.cls-9{stroke:#f7f7f7;}.cls-11,.cls-8{stroke-width:4px;}.cls-10{stroke:#f9f9f9;}.cls-11,.cls-13,.cls-14{fill:#ff8c58;}.cls-12{stroke-width:5px;}</style><clipPath id="clip-path"><rect class="cls-1" x="25" y="12.52" width="1065" height="289.61"/></clipPath></defs><title>mobile hack</title><g class="cls-2"><path class="cls-3" d="M994.27,213.58q0-5.79,0-11.58c0-8.75,0-17.5,0-26.26a5.24,5.24,0,0,0-1.07-3.29c-3.33-4.6-6.62-9.23-9.83-13.92-.66-1-2-2.37-1-3.31s2.29.54,3.17,1.33c2.81,2.54,5.52,5.19,8.68,8.19,0-5.71-.21-11,.06-16.23s.56-10.38,2.69-15.45c1.34,1.18,1.43,2.56,1.63,3.85,1.36,8.58,1.59,17.26,1.88,25.92.85,25.1,1.32,50.21,1.81,75.32.08,4.33.28,8.66.34,13,0,1.33.26,1.68,1.65,1.2,6.49-2.23,12-6,17.05-10.54,11.44-10.16,19.42-22.42,22.36-37.64,2.15-11.12.77-22-2.42-32.75-4.84-16.26-12.95-30.63-25.12-42.59a56,56,0,0,0-7-5.64c-6-4.27-12.29-4.87-19.05-1.88-13,5.74-23.32,14.71-32.1,25.62-7.17,8.91-12.51,18.78-14.64,30.13-2.55,13.59.26,26.35,6.77,38.3,8.65,15.9,20.85,28.13,37.77,35.23,1.37.58,2.83.94,4.24,1.42s1.89.22,1.89-1.36q-.05-12.12.08-24.23a4.07,4.07,0,0,0-1.21-2.75c-6.28-7.71-12.88-15.15-18.76-23.18a31.71,31.71,0,0,1-4.21-8.12c-.21-.6-.91-1.46,0-2,.66-.43,1.28.24,1.77.65,1.78,1.48,3.57,3,5.23,4.56C982.92,201.29,988.25,207.55,994.27,213.58Z"/><circle class="cls-4" cx="964.89" cy="186.35" r="3.73"/><circle class="cls-5" cx="977.22" cy="150.84" r="3.17"/><path class="cls-3" d="M997.6,316.31l-3.16.06a7.31,7.31,0,0,0-.84-1.57q0-4.69.09-9.38a2,2,0,0,0,.74-1.25c.08-.87-.57-1.7-.8-2.55.11.29.15-.85.21-1.06a3.32,3.32,0,0,0-.53-3.39l.49,0q0-2.74,0-5.47c0-4.62,0-9.24,0-13.85a1.86,1.86,0,0,0,.11-2.27l0,0c.15-.22-.25-.62-.3-.84a4.76,4.76,0,0,1-.09-.82c.26-.28.29-.42.24-.45a1.31,1.31,0,0,0-.07-1.39c.45-5.45-1.24-10.78,4.36-16,2.56.55,2.54,1.31,2.88,2,2.21,4.31,2.58,8.67,3,13,1.37,12.88,2.16,25.76,2.94,38.64.13,2.22.55,4.43.52,6.65a1,1,0,0,0,0,.14C1004.2,316.33,1000.93,316.25,997.6,316.31Z"/><circle class="cls-6" cx="1042.2" cy="255.43" r="3.49"/><path class="cls-7" d="M893.47,198.32q0-8,0-16c0-12.07,0-24.14,0-36.21a7.23,7.23,0,0,0-1.48-4.54c-4.59-6.35-9.13-12.73-13.56-19.19-.91-1.33-2.8-3.26-1.32-4.57s3.16.74,4.37,1.84c3.88,3.5,7.61,7.16,12,11.3,0-7.88-.29-15.15.08-22.39s.77-14.31,3.71-21.31c1.85,1.63,2,3.53,2.25,5.31,1.88,11.84,2.19,23.8,2.6,35.74,1.17,34.62,1.82,69.25,2.49,103.88.12,6,.39,11.95.47,17.92,0,1.84.36,2.32,2.28,1.66,8.95-3.08,16.55-8.34,23.52-14.53,15.78-14,26.79-30.93,30.84-51.91,3-15.34,1.06-30.39-3.34-45.17-6.68-22.42-17.86-42.25-34.64-58.73a77.22,77.22,0,0,0-9.6-7.78c-8.3-5.89-17-6.71-26.28-2.59C870,79,855.73,91.37,843.61,106.42c-9.89,12.29-17.25,25.9-20.19,41.56-3.51,18.74.37,36.34,9.33,52.82,11.93,21.92,28.75,38.8,52.09,48.58,1.89.79,3.9,1.3,5.85,2,1.76.59,2.61.3,2.6-1.87q-.07-16.71.11-33.42a5.61,5.61,0,0,0-1.68-3.8c-8.66-10.63-17.77-20.89-25.87-32a43.74,43.74,0,0,1-5.81-11.2c-.3-.83-1.26-2-.06-2.78.91-.59,1.77.33,2.44.89,2.45,2,4.92,4.08,7.22,6.3C877.81,181.37,885.16,190,893.47,198.32Z"/><circle class="cls-8" cx="867.74" cy="112.47" r="5.15"/><path class="cls-7" d="M898.06,340l-4.36.08a10.09,10.09,0,0,0-1.16-2.17q0-6.47.13-12.94a2.79,2.79,0,0,0,1-1.72c.11-1.19-.78-2.34-1.1-3.52.16.4.21-1.18.29-1.46.4-1.54.64-3.17-.73-4.68l.68-.05q0-3.77,0-7.55c0-6.37,0-12.74.06-19.1a2.57,2.57,0,0,0,.16-3.13l0-.07c.2-.31-.34-.86-.42-1.16a6.56,6.56,0,0,1-.13-1.12c.36-.38.4-.57.33-.63a1.8,1.8,0,0,0-.1-1.91c.62-7.52-1.71-14.86,6-22.07,3.54.75,3.51,1.8,4,2.72,3,5.95,3.56,12,4.2,18,1.89,17.76,3,35.52,4.06,53.29.19,3.06.75,6.11.72,9.17a1.41,1.41,0,0,0,0,.2C907.16,340,902.65,339.92,898.06,340Z"/><circle class="cls-9" cx="854.84" cy="160.31" r="4.18"/><path class="cls-3" d="M750.74,145.22q0-7.22,0-14.43c0-10.91,0-21.81,0-32.72A6.53,6.53,0,0,1,752,94c4.14-5.74,8.25-11.5,12.25-17.34.82-1.2,2.53-2.95,1.2-4.13s-2.85.67-4,1.66c-3.5,3.16-6.88,6.47-10.82,10.21,0-7.12.26-13.69-.07-20.22s-.69-12.93-3.36-19.25c-1.67,1.47-1.78,3.19-2,4.8-1.7,10.7-2,21.5-2.35,32.29-1.06,31.28-1.65,62.57-2.25,93.85-.1,5.4-.35,10.8-.42,16.19,0,1.66-.33,2.1-2.06,1.5-8.09-2.78-15-7.53-21.25-13.13-14.25-12.66-24.2-27.94-27.86-46.9-2.68-13.86-1-27.46,3-40.81,6-20.26,16.14-38.17,31.3-53.06a69.76,69.76,0,0,1,8.67-7c7.5-5.32,15.32-6.07,23.74-2.34,16.15,7.15,29.05,18.32,40,31.92,8.94,11.1,15.59,23.4,18.24,37.55,3.17,16.93-.33,32.83-8.43,47.72-10.78,19.81-26,35.06-47.06,43.89-1.71.72-3.53,1.18-5.29,1.77-1.59.54-2.36.27-2.35-1.69q.06-15.1-.1-30.2a5.07,5.07,0,0,1,1.51-3.43c7.82-9.6,16.05-18.87,23.37-28.88a39.51,39.51,0,0,0,5.25-10.12c.27-.75,1.14-1.82.06-2.51-.83-.53-1.6.3-2.2.81-2.21,1.85-4.45,3.69-6.52,5.69C764.89,129.91,758.25,137.72,750.74,145.22Z"/><circle class="cls-6" cx="773.99" cy="67.65" r="4.65"/><path class="cls-3" d="M746.59,329.9l3.94.12a21.89,21.89,0,0,1,1.05-3.43q0-10.25-.12-20.51a5.76,5.76,0,0,1-.92-2.73c-.1-1.89.71-3.71,1-5.58-.14.64-.19-1.87-.26-2.32-.36-2.45-.58-5,.66-7.41l-.61-.09q0-6,0-12c0-10.09,0-20.18-.06-30.27a6.62,6.62,0,0,1-.14-5l0-.1c-.18-.49.31-1.36.38-1.84s.09-1.19.12-1.78c-.33-.6-.36-.91-.3-1a4.74,4.74,0,0,1,.09-3c-.56-11.91,1.54-23.55-5.43-35-3.19,1.19-3.17,2.85-3.59,4.31-2.75,9.43-3.22,19-3.8,28.47-1.71,28.14-2.69,56.29-3.67,84.44-.17,4.84-.68,9.69-.65,14.53,0,.11,0,.21,0,.31C738.37,329.95,742.45,329.78,746.59,329.9Z"/><path class="cls-3" d="M266.52,269.9q0-4.93,0-9.86c0-7.45,0-14.91,0-22.36a4.47,4.47,0,0,1,.91-2.8C270.24,231,273,227,275.78,223c.56-.82,1.73-2,.82-2.82s-2,.46-2.7,1.13c-2.39,2.16-4.7,4.42-7.39,7,0-4.87.18-9.36-.05-13.82s-.47-8.84-2.29-13.16a4.72,4.72,0,0,0-1.39,3.28,178.76,178.76,0,0,0-1.6,22.07c-.72,21.38-1.13,42.77-1.54,64.15-.07,3.69-.24,7.38-.29,11.07,0,1.13-.22,1.43-1.41,1a43.06,43.06,0,0,1-14.52-9c-9.74-8.65-16.54-19.1-19-32.06-1.83-9.47-.65-18.77,2.06-27.89a83,83,0,0,1,21.39-36.27,47.69,47.69,0,0,1,5.93-4.8,15.42,15.42,0,0,1,16.23-1.6c11,4.88,19.86,12.52,27.34,21.82,6.11,7.59,10.65,16,12.47,25.66,2.17,11.57-.23,22.44-5.76,32.62-7.37,13.54-17.76,24-32.17,30-1.17.49-2.41.8-3.61,1.21s-1.61.18-1.61-1.16q0-10.32-.07-20.64a3.47,3.47,0,0,1,1-2.34c5.35-6.56,11-12.9,16-19.74a27,27,0,0,0,3.59-6.92c.18-.51.78-1.24,0-1.72-.56-.36-1.09.21-1.51.55-1.51,1.26-3,2.52-4.46,3.89C276.19,259.44,271.65,264.78,266.52,269.9Z"/><circle class="cls-6" cx="282.41" cy="216.89" r="3.18"/><path class="cls-7" d="M137.14,253.34q0-3.55,0-7.09c0-5.36,0-10.72,0-16.08a3.21,3.21,0,0,1,.66-2c2-2.82,4.05-5.65,6-8.52.4-.59,1.24-1.45.59-2s-1.4.33-1.94.82c-1.72,1.55-3.38,3.18-5.31,5,0-3.5.13-6.73,0-9.94s-.34-6.35-1.65-9.46a3.39,3.39,0,0,0-1,2.36,128.5,128.5,0,0,0-1.15,15.87c-.52,15.37-.81,30.74-1.11,46.12-.05,2.65-.17,5.3-.21,8,0,.81-.16,1-1,.74a31,31,0,0,1-10.44-6.45c-7-6.22-11.89-13.73-13.69-23-1.32-6.81-.47-13.49,1.48-20.05a59.69,59.69,0,0,1,15.38-26.07A34.28,34.28,0,0,1,128,198a11.09,11.09,0,0,1,11.66-1.15c7.93,3.51,14.27,9,19.65,15.68a41.49,41.49,0,0,1,9,18.45c1.56,8.32-.16,16.13-4.14,23.45-5.3,9.73-12.76,17.22-23.12,21.57-.84.35-1.73.58-2.6.87s-1.16.13-1.16-.83q0-7.42,0-14.84a2.49,2.49,0,0,1,.74-1.69c3.84-4.72,7.89-9.27,11.48-14.19a19.42,19.42,0,0,0,2.58-5c.13-.37.56-.89,0-1.23s-.79.15-1.08.4c-1.09.91-2.18,1.81-3.2,2.79C144.09,245.82,140.83,249.66,137.14,253.34Z"/><circle class="cls-10" cx="148.56" cy="215.23" r="2.28"/><path class="cls-7" d="M135.1,316.24l1.93,0a4.48,4.48,0,0,1,.52-1q0-2.87-.06-5.74a1.24,1.24,0,0,1-.45-.76c0-.53.35-1,.49-1.56-.07.18-.09-.52-.13-.65a2,2,0,0,1,.32-2.08l-.3,0q0-1.68,0-3.35c0-2.83,0-5.65,0-8.48a1.14,1.14,0,0,1-.07-1.39v0c-.09-.14.15-.38.18-.52a2.91,2.91,0,0,0,.06-.5c-.16-.17-.18-.26-.15-.28a.8.8,0,0,1,0-.85c-.27-3.34.76-6.6-2.67-9.8-1.57.33-1.56.8-1.77,1.21-1.35,2.64-1.58,5.31-1.87,8-.84,7.88-1.32,15.77-1.8,23.66-.08,1.36-.33,2.71-.32,4.07a.63.63,0,0,1,0,.09C131.06,316.25,133.06,316.2,135.1,316.24Z"/><path class="cls-3" d="M575.23,181.05q0-7,0-14c0-10.61,0-21.22,0-31.83a6.36,6.36,0,0,1,1.3-4c4-5.58,8-11.19,11.92-16.87.8-1.17,2.46-2.87,1.16-4s-2.78.65-3.84,1.62c-3.41,3.08-6.69,6.3-10.52,9.93,0-6.93.26-13.32-.07-19.68s-.68-12.58-3.26-18.73c-1.62,1.43-1.73,3.1-2,4.67-1.65,10.41-1.93,20.92-2.28,31.42-1,30.43-1.6,60.87-2.19,91.31-.1,5.25-.34,10.5-.41,15.76,0,1.61-.32,2-2,1.46-7.87-2.7-14.55-7.33-20.67-12.77-13.87-12.31-23.54-27.18-27.11-45.63-2.61-13.49-.93-26.71,2.94-39.7,5.87-19.71,15.7-37.13,30.45-51.63A67.87,67.87,0,0,1,557,71.49c7.3-5.17,14.9-5.9,23.1-2.27,15.71,7,28.27,17.83,38.92,31.06,8.7,10.8,15.17,22.76,17.75,36.53,3.09,16.47-.32,31.94-8.21,46.43-10.49,19.27-25.27,34.11-45.79,42.7-1.66.7-3.43,1.15-5.15,1.72-1.54.52-2.3.26-2.29-1.65q.06-14.69-.09-29.38a4.93,4.93,0,0,1,1.47-3.34c7.61-9.34,15.62-18.36,22.74-28.1a38.44,38.44,0,0,0,5.11-9.85c.26-.73,1.11-1.77.05-2.44-.8-.52-1.56.29-2.14.78-2.15,1.8-4.33,3.59-6.34,5.53C589,166.16,582.54,173.75,575.23,181.05Z"/><circle class="cls-4" cx="611.77" cy="148.05" r="4.52"/><circle class="cls-5" cx="595.9" cy="105" r="3.84"/><path class="cls-3" d="M571.2,305.59l3.83.07a8.87,8.87,0,0,1,1-1.9q0-5.69-.11-11.37a2.45,2.45,0,0,1-.89-1.51c-.1-1,.69-2.06,1-3.09-.14.35-.19-1-.25-1.29-.35-1.36-.56-2.79.64-4.11l-.6,0q0-3.32,0-6.64c0-5.6,0-11.2-.06-16.79a2.26,2.26,0,0,1-.14-2.75l0-.06c-.18-.27.3-.75.37-1a5.77,5.77,0,0,0,.11-1c-.32-.34-.35-.5-.29-.55a1.59,1.59,0,0,1,.09-1.68c-.54-6.61,1.5-13.06-5.29-19.4-3.11.66-3.08,1.58-3.5,2.39-2.68,5.23-3.13,10.51-3.69,15.79-1.66,15.61-2.62,31.22-3.57,46.84-.16,2.69-.66,5.37-.63,8.06a1.24,1.24,0,0,1,0,.17C563.2,305.61,567.17,305.52,571.2,305.59Z"/><path class="cls-7" d="M671,224.35q0-5.3,0-10.6c0-8,0-16,0-24a4.8,4.8,0,0,1,1-3c3-4.21,6.06-8.45,9-12.74.61-.88,1.86-2.17.88-3s-2.1.49-2.9,1.22c-2.57,2.32-5.05,4.75-7.95,7.5,0-5.23.19-10.05-.05-14.86s-.51-9.5-2.46-14.14a5.07,5.07,0,0,0-1.5,3.52c-1.25,7.86-1.46,15.79-1.72,23.72-.78,23-1.21,46-1.66,68.94-.08,4-.26,7.93-.31,11.9,0,1.22-.24,1.54-1.51,1.1a46.28,46.28,0,0,1-15.61-9.64c-10.47-9.3-17.78-20.52-20.47-34.45-2-10.18-.7-20.17,2.22-30,4.43-14.88,11.85-28,23-39a51.24,51.24,0,0,1,6.37-5.16c5.51-3.91,11.25-4.46,17.44-1.72,11.86,5.25,21.34,13.46,29.38,23.45,6.56,8.15,11.45,17.19,13.4,27.58,2.33,12.44-.24,24.12-6.19,35.05-7.92,14.55-19.08,25.75-34.57,32.24-1.26.53-2.59.86-3.88,1.3s-1.73.2-1.73-1.24q0-11.09-.07-22.18a3.72,3.72,0,0,1,1.11-2.52c5.75-7.05,11.79-13.86,17.17-21.21a29,29,0,0,0,3.86-7.43c.2-.55.84-1.33,0-1.84-.61-.39-1.17.22-1.62.59-1.63,1.36-3.27,2.71-4.79,4.18C681.39,213.1,676.51,218.84,671,224.35Z"/><circle class="cls-9" cx="698.58" cy="199.43" r="3.42"/><circle class="cls-6" cx="688.07" cy="167.38" r="3.42"/><path class="cls-7" d="M667.95,327l2.89.06a8.19,8.19,0,0,1,.77-1.66q0-5-.09-9.92a2.23,2.23,0,0,1-.68-1.32c-.07-.91.52-1.79.73-2.7-.1.31-.14-.9-.19-1.12a4,4,0,0,1,.48-3.59l-.45,0q0-2.89,0-5.79c0-4.88,0-9.77,0-14.65a2.21,2.21,0,0,1-.11-2.4l0,0c-.13-.24.23-.66.28-.89a5.78,5.78,0,0,0,.09-.86c-.24-.29-.27-.44-.22-.48a1.57,1.57,0,0,1,.07-1.47c-.41-5.76,1.13-11.4-4-16.92-2.35.58-2.33,1.38-2.64,2.08-2,4.56-2.37,9.17-2.79,13.78-1.25,13.62-2,27.24-2.69,40.86-.12,2.34-.5,4.69-.48,7a1.25,1.25,0,0,1,0,.15C661.91,327,664.91,326.9,667.95,327Z"/><path class="cls-3" d="M83.76,180.75q0-6,0-12c0-9.1,0-18.2,0-27.29A5.45,5.45,0,0,1,84.85,138c3.46-4.79,6.88-9.6,10.22-14.47.69-1,2.11-2.46,1-3.44s-2.38.56-3.3,1.39c-2.92,2.64-5.74,5.4-9,8.52,0-5.94.22-11.42-.06-16.87s-.58-10.78-2.8-16.06c-1.39,1.23-1.49,2.66-1.7,4C77.77,110,77.53,119,77.23,128c-.88,26.09-1.37,52.2-1.88,78.3-.09,4.5-.29,9-.35,13.51,0,1.38-.27,1.75-1.72,1.25-6.75-2.32-12.47-6.29-17.73-11C43.66,199.55,35.36,186.8,32.31,171c-2.23-11.56-.8-22.91,2.52-34,5-16.9,13.46-31.84,26.11-44.27a58.2,58.2,0,0,1,7.23-5.86c6.26-4.44,12.78-5.06,19.81-1.95,13.47,6,24.24,15.29,33.37,26.63,7.46,9.26,13,19.52,15.22,31.32,2.65,14.13-.28,27.39-7,39.81-9,16.52-21.67,29.25-39.26,36.62-1.43.6-2.94,1-4.41,1.48s-2,.22-2-1.41q.05-12.6-.08-25.19a4.23,4.23,0,0,1,1.26-2.86c6.53-8,13.39-15.75,19.5-24.1a33,33,0,0,0,4.38-8.44c.22-.62.95-1.52,0-2.09-.69-.44-1.33.25-1.84.67-1.85,1.54-3.71,3.08-5.44,4.75C95.56,168,90,174.49,83.76,180.75Z"/><circle class="cls-5" cx="115.1" cy="152.45" r="3.88"/><circle class="cls-6" cx="103.16" cy="116.04" r="3.88"/><path class="cls-3" d="M80.3,308.91l3.29.08a11.67,11.67,0,0,1,.88-2.19q0-6.54-.1-13.08A3.14,3.14,0,0,1,83.6,292c-.08-1.21.59-2.36.83-3.56-.12.41-.16-1.19-.22-1.48a5.93,5.93,0,0,1,.55-4.73l-.51-.05q0-3.82,0-7.63c0-6.44,0-12.87,0-19.31a3.32,3.32,0,0,1-.12-3.16l0-.07c-.15-.31.26-.87.31-1.17a8.81,8.81,0,0,0,.1-1.14c-.27-.39-.3-.58-.25-.63a2.36,2.36,0,0,1,.08-1.93c-.46-7.6,1.29-15-4.53-22.3-2.67.76-2.65,1.82-3,2.75-2.29,6-2.69,12.09-3.17,18.16-1.42,17.95-2.25,35.9-3.06,53.85-.14,3.09-.57,6.18-.54,9.27a1.91,1.91,0,0,1,0,.2C73.44,308.94,76.84,308.84,80.3,308.91Z"/><circle class="cls-6" cx="517.13" cy="231.79" r="4.23"/><circle class="cls-11" cx="504.12" cy="192.09" r="4.23"/><path class="cls-3" d="M334.44,176q0-6,0-12c0-9.1,0-18.2,0-27.29a5.45,5.45,0,0,1,1.12-3.42c3.46-4.79,6.88-9.6,10.22-14.47.69-1,2.11-2.46,1-3.44s-2.38.56-3.3,1.39c-2.92,2.64-5.74,5.4-9,8.52,0-5.94.22-11.42-.06-16.87s-.58-10.78-2.8-16.06c-1.39,1.23-1.49,2.66-1.7,4-1.42,8.92-1.65,17.94-2,26.94-.88,26.09-1.37,52.2-1.88,78.3-.09,4.5-.29,9-.35,13.51,0,1.38-.27,1.75-1.72,1.25-6.75-2.32-12.47-6.29-17.73-11C294.34,194.77,286,182,283,166.2c-2.23-11.56-.8-22.91,2.52-34,5-16.9,13.46-31.84,26.11-44.27A58.2,58.2,0,0,1,318.85,82c6.26-4.44,12.78-5.06,19.81-1.95,13.47,6,24.24,15.29,33.37,26.63,7.46,9.26,13,19.52,15.22,31.32,2.65,14.13-.28,27.39-7,39.81-9,16.52-21.67,29.25-39.26,36.62-1.43.6-2.94,1-4.41,1.48s-2,.22-2-1.41q.05-12.6-.08-25.19a4.23,4.23,0,0,1,1.26-2.86c6.53-8,13.39-15.75,19.5-24.1a33,33,0,0,0,4.38-8.44c.22-.62.95-1.52,0-2.09-.69-.44-1.33.25-1.84.67-1.85,1.54-3.71,3.08-5.44,4.75C346.25,163.2,340.71,169.72,334.44,176Z"/><circle class="cls-12" cx="365.78" cy="147.67" r="3.88"/><circle class="cls-5" cx="353.84" cy="111.27" r="3.88"/><path class="cls-3" d="M331,307.64l3.29.08a12.46,12.46,0,0,1,.88-2.28q0-6.81-.1-13.62a3.34,3.34,0,0,1-.77-1.81c-.08-1.26.59-2.46.83-3.7-.12.42-.16-1.24-.22-1.54a6.4,6.4,0,0,1,.55-4.92l-.51-.06q0-4,0-7.95c0-6.7,0-13.41,0-20.11a3.58,3.58,0,0,1-.12-3.29l0-.07c-.15-.33.26-.9.31-1.22a9.55,9.55,0,0,0,.1-1.18c-.27-.4-.3-.6-.25-.66a2.55,2.55,0,0,1,.08-2c-.46-7.91,1.29-15.64-4.53-23.23-2.67.79-2.65,1.9-3,2.86-2.29,6.26-2.69,12.59-3.17,18.91-1.42,18.69-2.25,37.39-3.06,56.09-.14,3.22-.57,6.43-.54,9.65a2.07,2.07,0,0,1,0,.21C324.12,307.67,327.53,307.56,331,307.64Z"/><path class="cls-13" d="M813.4,227.24q0-5.32,0-10.64c0-8,0-16.07,0-24.11a4.82,4.82,0,0,1,1-3c3.05-4.23,6.08-8.48,9-12.78.61-.89,1.86-2.17.88-3s-2.1.49-2.91,1.22c-2.58,2.33-5.07,4.77-8,7.52,0-5.25.19-10.09-.06-14.91s-.51-9.53-2.47-14.19a5.09,5.09,0,0,0-1.5,3.53c-1.25,7.88-1.46,15.84-1.73,23.8-.78,23.05-1.21,46.11-1.66,69.17-.08,4-.26,8-.31,11.93,0,1.22-.24,1.55-1.52,1.11a46.43,46.43,0,0,1-15.66-9.68c-10.5-9.33-17.83-20.59-20.53-34.56-2-10.22-.7-20.23,2.23-30.07,4.45-14.93,11.89-28.13,23.07-39.11a51.41,51.41,0,0,1,6.39-5.18c5.53-3.92,11.29-4.47,17.5-1.72C829,147.79,838.53,156,846.6,166c6.59,8.18,11.49,17.24,13.44,27.67,2.34,12.48-.24,24.2-6.22,35.17-7.94,14.6-19.15,25.84-34.68,32.35-1.26.53-2.6.87-3.9,1.31s-1.74.2-1.73-1.25q0-11.13-.07-22.25a3.74,3.74,0,0,1,1.12-2.53c5.77-7.08,11.83-13.91,17.23-21.29a29.12,29.12,0,0,0,3.87-7.46c.2-.55.84-1.34,0-1.85-.61-.39-1.18.22-1.62.59-1.63,1.36-3.28,2.72-4.81,4.19C823.82,216,818.93,221.71,813.4,227.24Z"/><circle class="cls-13" cx="841.08" cy="202.24" r="3.43"/><path class="cls-13" d="M810.34,321.57l2.9.05a6.72,6.72,0,0,1,.78-1.44q0-4.31-.09-8.62a1.86,1.86,0,0,1-.68-1.15c-.07-.79.52-1.56.73-2.34-.1.27-.14-.78-.19-1a3.05,3.05,0,0,1,.49-3.11l-.45,0q0-2.51,0-5c0-4.24,0-8.48,0-12.72a1.71,1.71,0,0,1-.11-2.08l0,0c-.13-.21.23-.57.28-.77a4.37,4.37,0,0,0,.09-.75c-.24-.25-.27-.38-.22-.42a1.2,1.2,0,0,1,.07-1.27c-.41-5,1.14-9.89-4-14.69-2.35.5-2.34,1.2-2.65,1.81-2,4-2.37,8-2.8,12-1.26,11.82-2,23.65-2.7,35.48-.12,2-.5,4.07-.48,6.1a.94.94,0,0,1,0,.13C804.28,321.59,807.29,321.52,810.34,321.57Z"/><path class="cls-13" d="M210.15,191.35q0-7.41,0-14.81c0-11.19,0-22.39,0-33.58a6.71,6.71,0,0,1,1.37-4.21c4.25-5.89,8.47-11.81,12.57-17.8.85-1.24,2.59-3,1.23-4.24s-2.93.69-4.06,1.7c-3.6,3.25-7.06,6.64-11.1,10.48,0-7.31.27-14.05-.08-20.76s-.71-13.27-3.44-19.76c-1.71,1.51-1.83,3.27-2.09,4.92-1.74,11-2,22.07-2.41,33.15-1.09,32.1-1.69,64.22-2.31,96.33-.11,5.54-.36,11.08-.43,16.62,0,1.7-.34,2.15-2.11,1.54-8.3-2.85-15.35-7.73-21.81-13.48-14.63-13-24.84-28.68-28.6-48.14-2.75-14.23-1-28.18,3.1-41.89,6.19-20.79,16.56-39.18,32.12-54.47a71.61,71.61,0,0,1,8.9-7.21c7.7-5.46,15.72-6.23,24.37-2.4,16.57,7.34,29.82,18.81,41.06,32.76,9.17,11.39,16,24,18.72,38.54,3.26,17.38-.34,33.7-8.66,49-11.06,20.33-26.66,36-48.3,45.05-1.76.74-3.62,1.21-5.43,1.82-1.63.55-2.42.28-2.41-1.74q.06-15.5-.1-31a5.2,5.2,0,0,1,1.55-3.52c8-9.85,16.47-19.37,24-29.64a40.56,40.56,0,0,0,5.39-10.39c.27-.77,1.17-1.86.06-2.58-.85-.54-1.64.31-2.26.83-2.27,1.9-4.56,3.78-6.69,5.84C224.68,175.63,217.86,183.65,210.15,191.35Z"/><circle class="cls-14" cx="234.02" cy="111.73" r="4.77"/><path class="cls-13" d="M205.9,322.73l4,.07a9.35,9.35,0,0,1,1.08-2q0-6-.12-12a2.59,2.59,0,0,1-.94-1.6c-.1-1.11.73-2.17,1-3.26-.14.37-.2-1.09-.27-1.36-.37-1.43-.59-2.94.68-4.34l-.63,0q0-3.5,0-7c0-5.91,0-11.81-.06-17.72a2.38,2.38,0,0,1-.15-2.9l0-.06c-.19-.29.32-.79.39-1.08a6.09,6.09,0,0,0,.12-1c-.33-.35-.37-.53-.31-.58a1.67,1.67,0,0,1,.09-1.77c-.57-7,1.58-13.78-5.58-20.47-3.28.7-3.25,1.67-3.69,2.52-2.82,5.52-3.31,11.09-3.9,16.66-1.75,16.47-2.76,32.94-3.76,49.42-.17,2.83-.7,5.67-.67,8.5a1.31,1.31,0,0,1,0,.18C197.46,322.76,201.64,322.66,205.9,322.73Z"/><circle class="cls-6" cx="247.03" cy="156.15" r="3.88"/><circle class="cls-5" cx="292.86" cy="243.99" r="3.88"/><path class="cls-7" d="M410.53,173.37q0-7.41,0-14.81c0-11.19,0-22.39,0-33.58a6.71,6.71,0,0,1,1.37-4.21c4.25-5.89,8.47-11.81,12.57-17.8.85-1.24,2.59-3,1.23-4.24s-2.93.69-4.06,1.7c-3.6,3.25-7.06,6.64-11.1,10.48,0-7.31.27-14.05-.08-20.76s-.71-13.27-3.44-19.76c-1.71,1.51-1.83,3.27-2.09,4.92-1.74,11-2,22.07-2.41,33.15-1.09,32.1-1.69,64.22-2.31,96.33-.11,5.54-.36,11.08-.43,16.62,0,1.7-.34,2.15-2.11,1.54-8.3-2.85-15.35-7.73-21.81-13.48-14.63-13-24.84-28.68-28.6-48.14-2.75-14.23-1-28.18,3.1-41.89,6.19-20.79,16.56-39.18,32.12-54.47a71.61,71.61,0,0,1,8.9-7.21c7.7-5.46,15.72-6.23,24.37-2.4,16.57,7.34,29.82,18.81,41.06,32.76,9.17,11.39,16,24,18.72,38.54,3.26,17.38-.34,33.7-8.66,49-11.06,20.33-26.66,36-48.3,45.05-1.76.74-3.62,1.21-5.43,1.82-1.63.55-2.42.28-2.41-1.74q.06-15.5-.1-31a5.2,5.2,0,0,1,1.55-3.52c8-9.85,16.47-19.37,24-29.64a40.56,40.56,0,0,0,5.39-10.39c.27-.77,1.17-1.86.06-2.58-.85-.54-1.64.31-2.26.83-2.27,1.9-4.56,3.78-6.69,5.84C425.06,157.65,418.24,165.66,410.53,173.37Z"/><circle class="cls-15" cx="434.4" cy="93.75" r="4.77"/><path class="cls-7" d="M406.28,304.75l4,.07a9.35,9.35,0,0,1,1.08-2q0-6-.12-12a2.59,2.59,0,0,1-.94-1.6c-.1-1.11.73-2.17,1-3.26-.14.37-.2-1.09-.27-1.36-.37-1.43-.59-2.94.68-4.34l-.63,0q0-3.5,0-7c0-5.91,0-11.81-.06-17.72a2.38,2.38,0,0,1-.15-2.9l0-.06c-.19-.29.32-.79.39-1.08a6.09,6.09,0,0,0,.12-1c-.33-.35-.37-.53-.31-.58a1.67,1.67,0,0,1,.09-1.77c-.57-7,1.58-13.78-5.58-20.47-3.28.7-3.25,1.67-3.69,2.52-2.82,5.52-3.31,11.09-3.9,16.66-1.75,16.47-2.76,32.94-3.76,49.42-.17,2.83-.7,5.67-.67,8.5a1.31,1.31,0,0,1,0,.18C397.84,304.78,402,304.68,406.28,304.75Z"/><circle class="cls-9" cx="446.36" cy="138.12" r="3.88"/><path class="cls-13" d="M483,262.65q0-6.56,0-13.13c0-9.92,0-19.84,0-29.76a5.94,5.94,0,0,1,1.22-3.73c3.77-5.22,7.51-10.46,11.14-15.77.75-1.09,2.3-2.68,1.09-3.76s-2.6.61-3.59,1.51c-3.19,2.88-6.26,5.89-9.84,9.29,0-6.48.24-12.45-.07-18.4s-.63-11.76-3.05-17.51c-1.52,1.34-1.62,2.9-1.85,4.36-1.55,9.73-1.8,19.56-2.14,29.38-1,28.45-1.5,56.91-2,85.38-.1,4.91-.32,9.82-.38,14.73,0,1.51-.3,1.91-1.87,1.37-7.36-2.53-13.6-6.85-19.33-11.94-13-11.51-22-25.42-25.35-42.66-2.44-12.61-.87-25,2.75-37.12,5.49-18.43,14.68-34.72,28.47-48.27a63.46,63.46,0,0,1,7.89-6.39c6.82-4.84,13.93-5.52,21.6-2.13,14.69,6.5,26.43,16.67,36.39,29,8.13,10.1,14.18,21.28,16.59,34.16,2.89,15.4-.3,29.86-7.67,43.41-9.8,18-23.63,31.89-42.81,39.93-1.56.65-3.21,1.07-4.81,1.61-1.44.49-2.15.24-2.14-1.54q.06-13.73-.09-27.47a4.61,4.61,0,0,1,1.38-3.12c7.12-8.73,14.6-17.17,21.26-26.27a36,36,0,0,0,4.78-9.21c.24-.68,1-1.65.05-2.28-.75-.48-1.45.27-2,.73-2,1.68-4,3.35-5.93,5.17C495.84,248.72,489.79,255.82,483,262.65Z"/><circle class="cls-6" cx="830.53" cy="170.07" r="3.43"/><circle class="cls-6" cx="500.44" cy="191.87" r="3.43"/><circle class="cls-14" cx="517.4" cy="227.99" r="4.77"/></g></svg>