<svg id="Layer_1" data-name="Layer 1" xmlns="http://www.w3.org/2000/svg" viewBox="0 0 258 333"><defs><style>.cls-1{fill:none;stroke:#fff;stroke-width:6px;}.cls-1,.cls-5{stroke-miterlimit:10;}.cls-2{fill:#fff;}.cls-3{fill:#f3e7b0;}.cls-4,.cls-5{fill:#273274;}.cls-5{stroke:#fcfcfc;stroke-width:3px;}</style></defs><title>pr box</title><rect class="cls-1" x="8" y="55.5" width="242" height="270"/><path class="cls-2" d="M137.09,8a45.06,45.06,0,0,1,38.4,45.45c-.24,12.67-5.22,23.46-14.49,32.14a5.52,5.52,0,0,0-1.9,4.52c.06,12.81,0,25.61.05,38.42,0,2.19-.09,4.18-2.4,5.39s-3.85.16-5.63-1.23c-5.56-4.35-11.25-8.53-16.9-12.78-.39-.29-1-.5-1.13-.89-1.44-3.48-3.14-1.57-4.84-.3q-9.54,7.15-19.07,14.31c-1.54,1.16-3,2-5.05,1.06s-2.37-2.86-2.37-4.89c0-13.19,0-26.39,0-39.58a4.63,4.63,0,0,0-1.57-3.76C87,73.15,82.2,57.72,87.27,40.14c5-17.22,16.87-27.79,34.46-31.78.86-.2,2,.17,2.61-.86h10.49C135.46,8.23,136.3,8,137.09,8ZM171.51,52.6c-.86-17.27-8.86-30-24.67-37.46-9.12-4.28-18.72-4.55-28.4-1.72A39.18,39.18,0,0,0,96.61,29.64a40.71,40.71,0,0,0,11.5,57.19c5.28,3.5,11.21,5.3,17.19,6.67,3.36.77,7.07.19,10.62-.38a43.32,43.32,0,0,0,16.48-5.77c7.11-4.51,12-11.14,15.65-18.73C170.49,63.55,171,58.16,171.51,52.6Z"/><path class="cls-3" d="M137.09,8c-.8,0-1.63.26-2.27-.47h2.33Q137.13,7.74,137.09,8Z"/><path class="cls-4" d="M171.51,52.6c-.53,5.56-1,11-3.46,16-3.65,7.59-8.54,14.23-15.65,18.73a43.32,43.32,0,0,1-16.48,5.77c-3.55.57-7.27,1.15-10.62.38-6-1.38-11.91-3.18-17.19-6.67a40.71,40.71,0,0,1-11.5-57.19,39.18,39.18,0,0,1,21.84-16.22c9.68-2.83,19.28-2.56,28.4,1.72C162.65,22.56,170.65,35.33,171.51,52.6Zm-78.05.89c.16,16.21,13.32,35,35.67,35.95a36.72,36.72,0,0,0,38.16-35.1c1-20.3-13.82-36.73-34-38.6C114.11,14,93.17,29.53,93.46,53.49Z"/><path class="cls-2" d="M93.46,53.49c-.29-24,20.65-39.52,39.81-37.75,20.21,1.86,35,18.29,34,38.6a36.72,36.72,0,0,1-38.16,35.1C106.78,88.51,93.61,69.7,93.46,53.49Zm37.21-33.7c-17.81-.34-33.33,15-33,32.71.37,18.68,13.76,34.42,38,32.78,7.26-.49,13.67-4.89,18.77-10.46a33.11,33.11,0,0,0,8.81-22.36C163.68,35,147.58,19.62,130.67,19.79Z"/><path class="cls-4" d="M130.67,19.79c-17.81-.34-33.33,15-33,32.71.37,18.68,13.76,34.42,38,32.78,7.26-.49,13.67-4.89,18.77-10.46a33.11,33.11,0,0,0,8.81-22.36C163.68,35,147.58,19.62,130.67,19.79Z"/><polygon class="cls-5" points="131 37.13 135.57 46.39 145.78 47.87 138.39 55.07 140.13 65.24 131 60.44 121.87 65.24 123.61 55.07 116.22 47.87 126.43 46.39 131 37.13"/></svg>