<svg id="Layer_1" data-name="Layer 1" xmlns="http://www.w3.org/2000/svg" xmlns:xlink="http://www.w3.org/1999/xlink" viewBox="0 0 1297 196"><defs><style>.cls-1{fill:none;}.cls-2{clip-path:url(#clip-path);}.cls-3{fill:#fff;}.cls-12,.cls-4,.cls-5,.cls-9{fill:#ff544e;}.cls-12,.cls-4,.cls-5{stroke:#fff;}.cls-10,.cls-11,.cls-12,.cls-14,.cls-15,.cls-4,.cls-5,.cls-7,.cls-8{stroke-miterlimit:10;}.cls-15,.cls-4{stroke-width:3px;}.cls-10,.cls-14,.cls-5,.cls-8{stroke-width:2px;}.cls-10,.cls-15,.cls-6,.cls-7,.cls-8{fill:#273274;}.cls-11,.cls-14,.cls-15,.cls-7,.cls-8{stroke:#f7f7f7;}.cls-11,.cls-7{stroke-width:4px;}.cls-10{stroke:#f9f9f9;}.cls-11,.cls-13,.cls-14{fill:#ff8c58;}.cls-12{stroke-width:5px;}.cls-16{clip-path:url(#clip-path-2);}</style><clipPath id="clip-path"><rect class="cls-1" x="5.87" y="11" width="697.42" height="189.65"/></clipPath><clipPath id="clip-path-2"><rect class="cls-1" x="618.87" y="5" width="697.42" height="189.65"/></clipPath></defs><title>trees hacktober</title><g class="cls-2"><circle class="cls-3" cx="734.19" cy="83.21" r="2.41"/><circle class="cls-4" cx="621.36" cy="124.83" r="2.44"/><circle class="cls-5" cx="629.44" cy="101.58" r="2.08"/><circle class="cls-3" cx="671.99" cy="170.07" r="2.29"/><path class="cls-6" d="M574.59,132.67q0-5.23,0-10.46c0-7.9,0-15.81,0-23.71a4.74,4.74,0,0,0-1-3c-3-4.16-6-8.34-8.88-12.57-.6-.87-1.83-2.14-.87-3s2.07.49,2.86,1.2c2.54,2.29,5,4.69,7.84,7.4,0-5.16-.19-9.92.05-14.66s.5-9.37,2.43-14a5,5,0,0,1,1.48,3.48c1.23,7.75,1.44,15.58,1.7,23.41.77,22.67,1.19,45.35,1.63,68,.08,3.91.25,7.82.31,11.74,0,1.2.24,1.52,1.49,1.09a45.67,45.67,0,0,0,15.4-9.52c10.33-9.17,17.54-20.25,20.2-34,1.94-10,.69-19.9-2.19-29.58-4.37-14.68-11.7-27.67-22.68-38.46A50.57,50.57,0,0,0,588.14,51c-5.44-3.85-11.1-4.4-17.21-1.69-11.7,5.18-21.06,13.28-29,23.14-6.48,8-11.3,17-13.22,27.22-2.3,12.27.24,23.8,6.11,34.59,7.81,14.36,18.83,25.41,34.11,31.81,1.24.52,2.56.85,3.83,1.28s1.71.19,1.71-1.23q0-10.94.07-21.89a3.68,3.68,0,0,0-1.1-2.49c-5.67-7-11.63-13.68-16.94-20.93a28.64,28.64,0,0,1-3.81-7.33c-.19-.54-.82-1.32,0-1.82.6-.38,1.16.22,1.6.58,1.6,1.34,3.22,2.67,4.73,4.12C564.34,121.57,569.15,127.23,574.59,132.67Z"/><circle class="cls-7" cx="557.74" cy="76.45" r="3.37"/><path class="cls-6" d="M577.6,225.45l-2.85.05a6.61,6.61,0,0,0-.76-1.42q0-4.24.09-8.47a1.83,1.83,0,0,0,.67-1.13c.07-.78-.51-1.53-.72-2.3.1.26.14-.77.19-1a3,3,0,0,0-.48-3.06l.44,0q0-2.47,0-4.94c0-4.17,0-8.34,0-12.51a1.68,1.68,0,0,0,.1-2l0,0c.13-.2-.22-.56-.27-.76a4.3,4.3,0,0,1-.09-.74c.24-.25.26-.38.22-.41a1.18,1.18,0,0,0-.07-1.25c.4-4.92-1.12-9.73,3.94-14.45,2.32.49,2.3,1.18,2.61,1.78,2,3.9,2.33,7.83,2.75,11.77,1.24,11.63,2,23.26,2.66,34.9.12,2,.49,4,.47,6a.92.92,0,0,0,0,.13C583.56,225.47,580.6,225.4,577.6,225.45Z"/><circle class="cls-8" cx="549.29" cy="107.78" r="2.74"/><path class="cls-9" d="M481.12,97.9q0-4.73,0-9.45c0-7.14,0-14.28,0-21.42a4.28,4.28,0,0,1,.88-2.69c2.71-3.76,5.4-7.53,8-11.36.54-.79,1.65-1.93.78-2.7s-1.87.44-2.59,1.09c-2.29,2.07-4.5,4.24-7.08,6.68,0-4.66.17-9,0-13.24s-.45-8.47-2.2-12.61a4.52,4.52,0,0,0-1.33,3.14A171.26,171.26,0,0,0,476,56.49c-.69,20.48-1.08,41-1.48,61.46-.07,3.54-.23,7.07-.28,10.6,0,1.09-.21,1.37-1.35,1a41.26,41.26,0,0,1-13.92-8.6c-9.33-8.29-15.85-18.3-18.25-30.71-1.75-9.08-.63-18,2-26.72a79.56,79.56,0,0,1,20.49-34.75,45.68,45.68,0,0,1,5.68-4.6,14.78,14.78,0,0,1,15.55-1.53c10.57,4.68,19,12,26.19,20.9,5.85,7.27,10.21,15.32,11.94,24.59,2.08,11.09-.22,21.5-5.52,31.25-7.06,13-17,23-30.82,28.74-1.12.47-2.31.77-3.46,1.16s-1.55.18-1.54-1.11q0-9.89-.06-19.77a3.32,3.32,0,0,1,1-2.25c5.12-6.29,10.51-12.36,15.31-18.91a25.88,25.88,0,0,0,3.44-6.63c.18-.49.74-1.19,0-1.64-.54-.35-1,.2-1.44.53-1.45,1.21-2.91,2.41-4.27,3.72C490.39,87.87,486,93,481.12,97.9Z"/><circle class="cls-3" cx="496.35" cy="47.1" r="3.05"/><path class="cls-9" d="M478.41,218.84l2.58.08a14.34,14.34,0,0,1,.69-2.25q0-6.71-.08-13.43a3.77,3.77,0,0,1-.6-1.79,18.5,18.5,0,0,1,.65-3.65c-.09.42-.13-1.22-.17-1.52a7.76,7.76,0,0,1,.43-4.85l-.4-.06q0-3.92,0-7.83c0-6.61,0-13.22,0-19.83a4.34,4.34,0,0,1-.09-3.25l0-.07c-.12-.32.2-.89.25-1.21s.06-.78.08-1.17c-.21-.4-.24-.6-.2-.65a3.1,3.1,0,0,1,.06-2c-.36-7.8,1-15.42-3.56-22.9a3.17,3.17,0,0,0-2.35,2.82c-1.8,6.17-2.11,12.41-2.49,18.64-1.12,18.43-1.76,36.86-2.4,55.3-.11,3.17-.45,6.34-.43,9.51,0,.07,0,.14,0,.2C473,218.87,475.7,218.76,478.41,218.84Z"/><path class="cls-9" d="M164,179.55q0-3.23,0-6.46c0-4.88,0-9.76,0-14.64a2.92,2.92,0,0,1,.6-1.84c1.85-2.57,3.69-5.15,5.48-7.76.37-.54,1.13-1.32.54-1.85s-1.28.3-1.77.74c-1.57,1.42-3.08,2.9-4.84,4.57,0-3.19.12-6.13,0-9.05a24.83,24.83,0,0,0-1.5-8.62,3.09,3.09,0,0,0-.91,2.15,117.06,117.06,0,0,0-1.05,14.46c-.47,14-.74,28-1,42,0,2.42-.16,4.83-.19,7.25,0,.74-.15.94-.92.67a28.2,28.2,0,0,1-9.51-5.88c-6.38-5.67-10.83-12.51-12.47-21A38,38,0,0,1,137.77,156a54.38,54.38,0,0,1,14-23.75,31.23,31.23,0,0,1,3.88-3.15,10.1,10.1,0,0,1,10.63-1,47.87,47.87,0,0,1,17.9,14.29,37.8,37.8,0,0,1,8.16,16.81c1.42,7.58-.15,14.69-3.77,21.36-4.82,8.87-11.63,15.69-21.06,19.65-.77.32-1.58.53-2.37.79s-1.06.12-1.05-.76q0-6.76,0-13.52a2.27,2.27,0,0,1,.68-1.54c3.5-4.3,7.18-8.45,10.46-12.93a17.69,17.69,0,0,0,2.35-4.53c.12-.33.51-.81,0-1.12s-.72.13-1,.36c-1,.83-2,1.65-2.92,2.55C170.36,172.69,167.39,176.19,164,179.55Z"/><circle class="cls-3" cx="174.44" cy="144.83" r="2.08"/><path class="cls-6" d="M79.31,168.7q0-2.32,0-4.64c0-3.51,0-7,0-10.53a2.1,2.1,0,0,1,.43-1.32c1.33-1.85,2.65-3.7,3.94-5.58.27-.39.81-.95.38-1.33s-.92.22-1.27.53c-1.13,1-2.21,2.08-3.48,3.28,0-2.29.08-4.4,0-6.51a17.85,17.85,0,0,0-1.08-6.19,2.22,2.22,0,0,0-.66,1.54,84.15,84.15,0,0,0-.76,10.39c-.34,10.06-.53,20.13-.73,30.2,0,1.74-.11,3.47-.14,5.21,0,.53-.11.67-.66.48A20.27,20.27,0,0,1,68.43,180a26.64,26.64,0,0,1-9-15.09,27.31,27.31,0,0,1,1-13.13A39.09,39.09,0,0,1,70.5,134.73a22.45,22.45,0,0,1,2.79-2.26,7.26,7.26,0,0,1,7.64-.75A34.41,34.41,0,0,1,93.8,142a27.17,27.17,0,0,1,5.87,12.08A22.67,22.67,0,0,1,97,169.42a30.42,30.42,0,0,1-15.14,14.12c-.55.23-1.13.38-1.7.57s-.76.09-.76-.54q0-4.86,0-9.72a1.63,1.63,0,0,1,.49-1.1c2.52-3.09,5.16-6.07,7.52-9.29A12.71,12.71,0,0,0,89,160.2c.09-.24.37-.58,0-.81s-.51.1-.71.26c-.71.59-1.43,1.19-2.1,1.83C83.86,163.78,81.72,166.29,79.31,168.7Z"/><circle class="cls-10" cx="86.79" cy="143.74" r="1.5"/><path class="cls-6" d="M78,209.89l1.27,0a2.93,2.93,0,0,1,.34-.63q0-1.88,0-3.76a.81.81,0,0,1-.3-.5c0-.35.23-.68.32-1,0,.12-.06-.34-.08-.43a1.33,1.33,0,0,1,.21-1.36l-.2,0q0-1.1,0-2.19c0-1.85,0-3.7,0-5.55a.75.75,0,0,1,0-.91v0c-.06-.09.1-.25.12-.34a1.91,1.91,0,0,0,0-.33c-.1-.11-.12-.17-.1-.18a.52.52,0,0,1,0-.56c-.18-2.18.5-4.32-1.75-6.42-1,.22-1,.52-1.16.79a14.13,14.13,0,0,0-1.22,5.22c-.55,5.16-.87,10.33-1.18,15.49-.05.89-.22,1.78-.21,2.66a.41.41,0,0,1,0,.06C75.33,209.9,76.64,209.87,78,209.89Z"/><path class="cls-9" d="M366.19,121.36q0-4.6,0-9.2c0-6.95,0-13.9,0-20.84a4.16,4.16,0,0,1,.85-2.61c2.64-3.65,5.26-7.33,7.8-11,.53-.77,1.61-1.88.76-2.63s-1.82.43-2.52,1.06c-2.23,2-4.38,4.12-6.89,6.5,0-4.54.17-8.72,0-12.89s-.44-8.24-2.14-12.26a4.4,4.4,0,0,0-1.3,3.06,166.62,166.62,0,0,0-1.5,20.58c-.68,19.93-1,39.86-1.44,59.8-.07,3.44-.22,6.88-.27,10.32,0,1.06-.21,1.34-1.31,1a40.14,40.14,0,0,1-13.54-8.36c-9.08-8.06-15.42-17.8-17.75-29.88-1.71-8.83-.61-17.49,1.92-26a77.4,77.4,0,0,1,19.94-33.81,44.45,44.45,0,0,1,5.52-4.48,14.38,14.38,0,0,1,15.13-1.49c10.29,4.55,18.51,11.67,25.48,20.34,5.69,7.07,9.93,14.91,11.62,23.92,2,10.79-.21,20.92-5.37,30.4-6.87,12.62-16.55,22.33-30,28-1.09.46-2.25.75-3.37,1.13s-1.5.17-1.5-1.08q0-9.62-.06-19.24a3.23,3.23,0,0,1,1-2.19c5-6.12,10.23-12,14.89-18.4a25.18,25.18,0,0,0,3.34-6.45c.17-.48.72-1.16,0-1.6-.53-.34-1,.19-1.4.51-1.41,1.18-2.83,2.35-4.15,3.62C375.21,111.61,371,116.58,366.19,121.36Z"/><circle class="cls-4" cx="390.12" cy="99.75" r="2.96"/><circle class="cls-5" cx="379.73" cy="71.56" r="2.52"/><path class="cls-9" d="M363.55,202.91l2.51,0a5.81,5.81,0,0,1,.67-1.25q0-3.72-.07-7.45a1.61,1.61,0,0,1-.59-1c-.06-.69.45-1.35.63-2-.09.23-.12-.68-.16-.84a2.64,2.64,0,0,1,.42-2.69l-.39,0q0-2.17,0-4.35c0-3.67,0-7.33,0-11a1.48,1.48,0,0,1-.09-1.8l0,0c-.12-.18.2-.49.24-.67a3.78,3.78,0,0,0,.08-.65c-.21-.22-.23-.33-.19-.36a1,1,0,0,1,.06-1.1c-.35-4.33,1-8.55-3.46-12.7-2,.43-2,1-2.29,1.56-1.75,3.42-2.05,6.88-2.42,10.34-1.09,10.22-1.71,20.45-2.34,30.67-.11,1.76-.43,3.52-.41,5.28a.81.81,0,0,1,0,.11C358.31,202.93,360.91,202.87,363.55,202.91Z"/><path class="cls-6" d="M428.9,149.72q0-3.47,0-6.94c0-5.25,0-10.49,0-15.74a3.14,3.14,0,0,1,.64-2c2-2.76,4-5.53,5.89-8.34.4-.58,1.22-1.42.58-2s-1.37.32-1.9.8c-1.69,1.52-3.31,3.11-5.2,4.91,0-3.43.13-6.58,0-9.73a26.69,26.69,0,0,0-1.61-9.26,3.32,3.32,0,0,0-1,2.31,125.8,125.8,0,0,0-1.13,15.53c-.51,15-.79,30.1-1.08,45.15-.05,2.6-.17,5.19-.2,7.79,0,.8-.16,1-1,.72a30.31,30.31,0,0,1-10.22-6.31c-6.86-6.09-11.64-13.44-13.4-22.56-1.29-6.67-.46-13.21,1.45-19.63a58.44,58.44,0,0,1,15.05-25.53,33.56,33.56,0,0,1,4.17-3.38,10.85,10.85,0,0,1,11.42-1.12c7.77,3.44,14,8.81,19.24,15.35a40.62,40.62,0,0,1,8.77,18.06c1.53,8.15-.16,15.79-4.06,23-5.18,9.53-12.5,16.86-22.64,21.11-.82.34-1.7.57-2.54.85s-1.14.13-1.13-.81q0-7.26,0-14.52a2.44,2.44,0,0,1,.73-1.65c3.76-4.62,7.72-9.08,11.24-13.89a19,19,0,0,0,2.53-4.87c.13-.36.55-.87,0-1.21s-.77.14-1.06.39c-1.07.89-2.14,1.77-3.14,2.74C435.71,142.35,432.51,146.11,428.9,149.72Z"/><circle class="cls-8" cx="446.97" cy="133.4" r="2.24"/><circle class="cls-3" cx="440.09" cy="112.41" r="2.24"/><path class="cls-6" d="M426.91,216.91l1.89,0a5.36,5.36,0,0,1,.51-1.09q0-3.25-.06-6.5a1.46,1.46,0,0,1-.44-.86,6.27,6.27,0,0,1,.48-1.77c-.07.2-.09-.59-.12-.74a2.59,2.59,0,0,1,.32-2.35l-.29,0q0-1.9,0-3.79c0-3.2,0-6.4,0-9.59a1.45,1.45,0,0,1-.07-1.57v0c-.09-.16.15-.43.18-.58a3.79,3.79,0,0,0,.06-.56c-.16-.19-.18-.29-.15-.31a1,1,0,0,1,0-1c-.27-3.77.74-7.46-2.61-11.08-1.54.38-1.53.9-1.73,1.36-1.32,3-1.55,6-1.83,9-.82,8.92-1.29,17.84-1.76,26.76-.08,1.53-.33,3.07-.31,4.6a.82.82,0,0,1,0,.1C423,216.93,424.92,216.87,426.91,216.91Z"/><path class="cls-9" d="M44.35,121.16q0-3.94,0-7.88c0-6,0-11.92,0-17.87a3.57,3.57,0,0,1,.73-2.24c2.26-3.13,4.51-6.28,6.69-9.47.45-.66,1.38-1.61.65-2.26s-1.56.37-2.16.91c-1.91,1.73-3.76,3.54-5.91,5.58,0-3.89.14-7.48,0-11s-.38-7.06-1.83-10.52A3.77,3.77,0,0,0,41.36,69a142.88,142.88,0,0,0-1.28,17.64c-.58,17.09-.9,34.18-1.23,51.28-.06,2.95-.19,5.9-.23,8.85,0,.91-.18,1.15-1.13.82a34.42,34.42,0,0,1-11.61-7.17c-7.79-6.91-13.22-15.26-15.22-25.62-1.46-7.57-.52-15,1.65-22.29a66.37,66.37,0,0,1,17.1-29,38.11,38.11,0,0,1,4.74-3.84,12.33,12.33,0,0,1,13-1.28C55.93,62.27,63,68.38,69,75.81c4.88,6.06,8.52,12.78,10,20.51,1.73,9.25-.18,17.94-4.61,26.07-5.89,10.82-14.19,19.15-25.71,24-.93.39-1.93.64-2.89,1s-1.29.15-1.29-.92q0-8.25-.05-16.5a2.77,2.77,0,0,1,.83-1.87C49.48,122.8,54,117.73,58,112.26a21.59,21.59,0,0,0,2.87-5.53c.15-.41.62-1,0-1.37s-.87.16-1.2.44c-1.21,1-2.43,2-3.56,3.11C52.08,112.8,48.45,117.07,44.35,121.16Z"/><circle class="cls-5" cx="64.87" cy="102.63" r="2.54"/><circle class="cls-3" cx="57.05" cy="78.79" r="2.54"/><path class="cls-9" d="M42.08,205.09l2.15.05a7.64,7.64,0,0,1,.57-1.43q0-4.28-.06-8.56a2.05,2.05,0,0,1-.5-1.14,9.33,9.33,0,0,1,.54-2.33c-.08.27-.1-.78-.14-1a3.88,3.88,0,0,1,.36-3.09l-.33,0q0-2.5,0-5c0-4.21,0-8.43,0-12.64a2.17,2.17,0,0,1-.08-2.07l0,0c-.1-.2.17-.57.21-.77a5.77,5.77,0,0,0,.06-.74c-.18-.25-.2-.38-.17-.41a1.54,1.54,0,0,1,.05-1.27c-.3-5,.84-9.84-3-14.61-1.75.5-1.73,1.19-2,1.8-1.5,3.94-1.76,7.92-2.07,11.89-.93,11.75-1.47,23.51-2,35.27-.09,2-.37,4-.36,6.07a1.25,1.25,0,0,1,0,.13C37.59,205.11,39.82,205,42.08,205.09Z"/><circle class="cls-3" cx="328.15" cy="154.59" r="2.77"/><circle class="cls-11" cx="319.62" cy="128.59" r="2.77"/><path class="cls-9" d="M208.51,118q0-3.94,0-7.88c0-6,0-11.92,0-17.87a3.57,3.57,0,0,1,.73-2.24c2.26-3.13,4.51-6.28,6.69-9.47.45-.66,1.38-1.61.65-2.26s-1.56.37-2.16.91c-1.91,1.73-3.76,3.54-5.91,5.58,0-3.89.14-7.48,0-11s-.38-7.06-1.83-10.52a3.77,3.77,0,0,0-1.11,2.62,142.88,142.88,0,0,0-1.28,17.64c-.58,17.09-.9,34.18-1.23,51.28-.06,2.95-.19,5.9-.23,8.85,0,.91-.18,1.15-1.13.82A34.42,34.42,0,0,1,190,137.26c-7.79-6.91-13.22-15.26-15.22-25.62-1.46-7.57-.52-15,1.65-22.29a66.37,66.37,0,0,1,17.1-29,38.11,38.11,0,0,1,4.74-3.84,12.33,12.33,0,0,1,13-1.28c8.82,3.9,15.87,10,21.85,17.44,4.88,6.06,8.52,12.78,10,20.51,1.73,9.25-.18,17.94-4.61,26.07-5.89,10.82-14.19,19.15-25.71,24-.93.39-1.93.64-2.89,1s-1.29.15-1.29-.92q0-8.25-.05-16.5a2.77,2.77,0,0,1,.83-1.87c4.27-5.25,8.77-10.31,12.77-15.78a21.59,21.59,0,0,0,2.87-5.53c.15-.41.62-1,0-1.37s-.87.16-1.2.44c-1.21,1-2.43,2-3.56,3.11C216.24,109.67,212.61,113.94,208.51,118Z"/><circle class="cls-12" cx="229.03" cy="99.5" r="2.54"/><circle class="cls-5" cx="221.21" cy="75.66" r="2.54"/><path class="cls-9" d="M206.24,204.26l2.15.05a8.16,8.16,0,0,1,.57-1.49q0-4.46-.06-8.92a2.18,2.18,0,0,1-.5-1.19,10.06,10.06,0,0,1,.54-2.43c-.08.28-.1-.81-.14-1a4.19,4.19,0,0,1,.36-3.22l-.33,0q0-2.6,0-5.2c0-4.39,0-8.78,0-13.17a2.34,2.34,0,0,1-.08-2.16l0,0c-.1-.21.17-.59.21-.8a6.25,6.25,0,0,0,.06-.77c-.18-.26-.2-.4-.17-.43a1.67,1.67,0,0,1,.05-1.32c-.3-5.18.84-10.24-3-15.21-1.75.52-1.73,1.24-2,1.87-1.5,4.1-1.76,8.25-2.07,12.39-.93,12.24-1.47,24.49-2,36.73-.09,2.11-.37,4.21-.36,6.32a1.35,1.35,0,0,1,0,.14C201.75,204.28,204,204.21,206.24,204.26Z"/><path class="cls-13" d="M522.15,151.61q0-3.48,0-7c0-5.26,0-10.53,0-15.79a3.15,3.15,0,0,1,.65-2c2-2.77,4-5.55,5.91-8.37.4-.58,1.22-1.42.58-2s-1.38.32-1.91.8c-1.69,1.53-3.32,3.12-5.22,4.93,0-3.44.13-6.61,0-9.76s-.33-6.24-1.62-9.29a3.33,3.33,0,0,0-1,2.31,126.22,126.22,0,0,0-1.13,15.59c-.51,15.09-.8,30.2-1.09,45.3-.05,2.61-.17,5.21-.2,7.82,0,.8-.16,1-1,.72a30.41,30.41,0,0,1-10.26-6.34C499,162.48,494.16,155.1,492.39,146c-1.29-6.69-.46-13.25,1.46-19.69A58.63,58.63,0,0,1,509,100.65a33.67,33.67,0,0,1,4.18-3.39,10.89,10.89,0,0,1,11.46-1.13c7.79,3.45,14,8.84,19.3,15.41a40.75,40.75,0,0,1,8.8,18.12c1.53,8.17-.16,15.84-4.07,23-5.2,9.56-12.54,16.92-22.71,21.18-.83.35-1.7.57-2.55.86s-1.14.13-1.14-.82q0-7.29,0-14.57a2.45,2.45,0,0,1,.73-1.66c3.78-4.63,7.75-9.11,11.28-13.94a19.07,19.07,0,0,0,2.53-4.88c.13-.36.55-.88,0-1.21s-.77.15-1.06.39c-1.07.89-2.15,1.78-3.15,2.75C529,144.22,525.78,148,522.15,151.61Z"/><circle class="cls-13" cx="540.28" cy="135.23" r="2.24"/><path class="cls-13" d="M520.15,213.38l1.9,0a4.4,4.4,0,0,1,.51-.94q0-2.82-.06-5.64a1.22,1.22,0,0,1-.44-.75c0-.52.34-1,.48-1.53-.07.18-.09-.51-.12-.64a2,2,0,0,1,.32-2l-.3,0q0-1.65,0-3.29c0-2.78,0-5.55,0-8.33a1.12,1.12,0,0,1-.07-1.36v0c-.09-.13.15-.37.18-.51a2.86,2.86,0,0,0,.06-.49c-.16-.17-.18-.25-.15-.27a.79.79,0,0,1,0-.83c-.27-3.28.74-6.48-2.62-9.62-1.54.33-1.53.79-1.73,1.19-1.33,2.59-1.55,5.22-1.83,7.83-.82,7.74-1.3,15.49-1.77,23.23-.08,1.33-.33,2.66-.31,4a.62.62,0,0,1,0,.09C516.19,213.39,518.15,213.35,520.15,213.38Z"/><path class="cls-13" d="M127.12,128.1q0-4.85,0-9.7c0-7.33,0-14.66,0-22a4.39,4.39,0,0,1,.9-2.76c2.79-3.86,5.55-7.73,8.23-11.66.55-.81,1.7-2,.8-2.78s-1.92.45-2.66,1.12c-2.36,2.13-4.62,4.35-7.27,6.86,0-4.79.18-9.2-.05-13.59s-.47-8.69-2.26-12.94a4.64,4.64,0,0,0-1.37,3.22,175.79,175.79,0,0,0-1.58,21.71c-.71,21-1.11,42.05-1.51,63.08-.07,3.63-.24,7.26-.28,10.89,0,1.11-.22,1.41-1.38,1a42.35,42.35,0,0,1-14.28-8.82c-9.58-8.51-16.27-18.78-18.73-31.52-1.8-9.32-.64-18.45,2-27.43a81.66,81.66,0,0,1,21-35.67,46.89,46.89,0,0,1,5.83-4.72,15.17,15.17,0,0,1,16-1.57C141.37,55.64,150,63.16,157.4,72.3c6,7.46,10.48,15.73,12.26,25.24,2.13,11.38-.22,22.07-5.67,32.08-7.24,13.31-17.46,23.56-31.63,29.5-1.15.48-2.37.79-3.55,1.19s-1.59.18-1.58-1.14q0-10.15-.07-20.3a3.41,3.41,0,0,1,1-2.31c5.26-6.45,10.79-12.69,15.71-19.41a26.56,26.56,0,0,0,3.53-6.8c.18-.5.76-1.22,0-1.69-.55-.36-1.07.2-1.48.54-1.49,1.24-3,2.48-4.38,3.82C136.63,117.81,132.17,123.06,127.12,128.1Z"/><circle class="cls-14" cx="142.75" cy="75.97" r="3.13"/><path class="cls-13" d="M124.33,214.14l2.65,0a6.13,6.13,0,0,1,.71-1.32q0-3.93-.08-7.86a1.7,1.7,0,0,1-.62-1c-.07-.72.48-1.42.67-2.14-.09.24-.13-.72-.17-.89a2.78,2.78,0,0,1,.44-2.84l-.41,0q0-2.29,0-4.58c0-3.87,0-7.73,0-11.6a1.56,1.56,0,0,1-.1-1.9l0,0c-.12-.19.21-.52.25-.71a4,4,0,0,0,.08-.68c-.22-.23-.24-.35-.2-.38a1.1,1.1,0,0,1,.06-1.16c-.37-4.56,1-9-3.65-13.4-2.15.46-2.13,1.09-2.42,1.65-1.85,3.61-2.16,7.26-2.55,10.91-1.15,10.78-1.81,21.57-2.46,32.36-.11,1.86-.46,3.71-.44,5.57a.86.86,0,0,1,0,.12C118.81,214.16,121.55,214.1,124.33,214.14Z"/><circle class="cls-3" cx="151.27" cy="105.05" r="2.54"/><circle class="cls-5" cx="181.28" cy="162.58" r="2.54"/><path class="cls-6" d="M258.34,116.33q0-4.85,0-9.7c0-7.33,0-14.66,0-22a4.39,4.39,0,0,1,.9-2.76c2.79-3.86,5.55-7.73,8.23-11.66.55-.81,1.7-2,.8-2.78s-1.92.45-2.66,1.12c-2.36,2.13-4.62,4.35-7.27,6.86,0-4.79.18-9.2-.05-13.59s-.47-8.69-2.26-12.94a4.64,4.64,0,0,0-1.37,3.22,175.79,175.79,0,0,0-1.58,21.71c-.71,21-1.11,42.05-1.51,63.08-.07,3.63-.24,7.26-.28,10.89,0,1.11-.22,1.41-1.38,1A42.35,42.35,0,0,1,235.61,140c-9.58-8.51-16.27-18.78-18.73-31.52-1.8-9.32-.64-18.45,2-27.43a81.66,81.66,0,0,1,21-35.67,46.89,46.89,0,0,1,5.83-4.72,15.17,15.17,0,0,1,16-1.57c10.85,4.8,19.53,12.32,26.89,21.46,6,7.46,10.48,15.73,12.26,25.24,2.13,11.38-.22,22.07-5.67,32.08-7.24,13.31-17.46,23.56-31.63,29.5-1.15.48-2.37.79-3.55,1.19s-1.59.18-1.58-1.14q0-10.15-.07-20.3a3.41,3.41,0,0,1,1-2.31c5.26-6.45,10.79-12.69,15.71-19.41a26.56,26.56,0,0,0,3.53-6.8c.18-.5.76-1.22,0-1.69-.55-.36-1.07.2-1.48.54-1.49,1.24-3,2.48-4.38,3.82C267.85,106,263.39,111.29,258.34,116.33Z"/><circle class="cls-15" cx="273.97" cy="64.19" r="3.13"/><path class="cls-6" d="M255.55,202.37l2.65,0a6.13,6.13,0,0,1,.71-1.32q0-3.93-.08-7.86a1.7,1.7,0,0,1-.62-1c-.07-.72.48-1.42.67-2.14-.09.24-.13-.72-.17-.89a2.78,2.78,0,0,1,.44-2.84l-.41,0q0-2.29,0-4.58c0-3.87,0-7.73,0-11.6a1.56,1.56,0,0,1-.1-1.9l0,0c-.12-.19.21-.52.25-.71a4,4,0,0,0,.08-.68c-.22-.23-.24-.35-.2-.38a1.1,1.1,0,0,1,.06-1.16c-.37-4.56,1-9-3.65-13.4-2.15.46-2.13,1.09-2.42,1.65-1.85,3.61-2.16,7.26-2.55,10.91-1.15,10.78-1.81,21.57-2.46,32.36-.11,1.86-.46,3.71-.44,5.57a.86.86,0,0,1,0,.12C250,202.38,252.77,202.32,255.55,202.37Z"/><circle class="cls-8" cx="281.8" cy="93.25" r="2.54"/><path class="cls-13" d="M305.77,174.8q0-4.3,0-8.6c0-6.5,0-13,0-19.49a3.89,3.89,0,0,1,.8-2.44c2.47-3.42,4.92-6.85,7.3-10.33.49-.72,1.51-1.76.71-2.46s-1.7.4-2.35,1c-2.09,1.89-4.1,3.85-6.44,6.08,0-4.24.16-8.15,0-12s-.41-7.7-2-11.47a4.11,4.11,0,0,0-1.21,2.86,155.79,155.79,0,0,0-1.4,19.24c-.63,18.63-1,37.27-1.34,55.91-.06,3.22-.21,6.43-.25,9.65,0,1-.2,1.25-1.23.89a37.53,37.53,0,0,1-12.66-7.82c-8.49-7.54-14.42-16.64-16.6-27.94-1.6-8.26-.57-16.36,1.8-24.31a72.37,72.37,0,0,1,18.64-31.61,41.56,41.56,0,0,1,5.17-4.19,13.44,13.44,0,0,1,14.14-1.39c9.62,4.26,17.31,10.92,23.83,19,5.32,6.61,9.29,13.94,10.87,22.37,1.89,10.09-.2,19.56-5,28.43-6.42,11.8-15.48,20.88-28,26.15-1,.43-2.1.7-3.15,1.06s-1.41.16-1.4-1q0-9-.06-18a3,3,0,0,1,.9-2c4.66-5.72,9.56-11.24,13.92-17.2a23.54,23.54,0,0,0,3.13-6c.16-.45.68-1.08,0-1.5-.49-.32-1,.18-1.31.48-1.32,1.1-2.65,2.2-3.88,3.39C314.2,165.68,310.24,170.33,305.77,174.8Z"/><circle class="cls-3" cx="533.38" cy="114.17" r="2.24"/><circle class="cls-3" cx="317.22" cy="128.45" r="2.24"/><circle class="cls-14" cx="328.32" cy="152.1" r="3.13"/></g><g class="cls-16"><path class="cls-9" d="M1253.6,136.66q0-3.79,0-7.59c0-5.73,0-11.46,0-17.19a3.43,3.43,0,0,0-.7-2.16c-2.18-3-4.34-6-6.44-9.11-.43-.63-1.33-1.55-.63-2.17s1.5.35,2.08.87c1.84,1.66,3.62,3.4,5.68,5.36,0-3.74-.14-7.19,0-10.63s.36-6.79,1.76-10.12a3.63,3.63,0,0,1,1.07,2.52,137.45,137.45,0,0,1,1.23,17c.56,16.44.87,32.88,1.18,49.33.05,2.84.18,5.67.22,8.51,0,.87.17,1.1,1.08.79a33.11,33.11,0,0,0,11.17-6.9c7.49-6.65,12.72-14.68,14.64-24.65,1.41-7.28.5-14.43-1.59-21.45A63.85,63.85,0,0,0,1268,81.17a36.67,36.67,0,0,0-4.56-3.69,11.86,11.86,0,0,0-12.48-1.23c-8.49,3.76-15.27,9.63-21,16.78-4.7,5.83-8.19,12.3-9.59,19.73-1.67,8.9.17,17.25,4.43,25.08,5.66,10.41,13.65,18.42,24.73,23.07.9.38,1.85.62,2.78.93s1.24.14,1.24-.89q0-7.93.05-15.87a2.66,2.66,0,0,0-.8-1.8c-4.11-5-8.44-9.92-12.28-15.18a20.77,20.77,0,0,1-2.76-5.32c-.14-.39-.6-1,0-1.32s.84.16,1.16.42c1.16,1,2.34,1.94,3.43,3C1246.17,128.61,1249.66,132.72,1253.6,136.66Z"/><circle class="cls-4" cx="1234.36" cy="118.83" r="2.44"/><circle class="cls-5" cx="1242.44" cy="95.58" r="2.08"/><path class="cls-9" d="M1255.78,203.93l-2.07,0a4.79,4.79,0,0,0-.55-1q0-3.07.06-6.14a1.33,1.33,0,0,0,.48-.82c.05-.57-.37-1.11-.52-1.67.07.19.1-.56.14-.7a2.18,2.18,0,0,0-.35-2.22l.32,0q0-1.79,0-3.58c0-3,0-6,0-9.07a1.22,1.22,0,0,0,.08-1.49v0c.1-.15-.16-.41-.2-.55a3.12,3.12,0,0,1-.06-.53c.17-.18.19-.27.16-.3a.86.86,0,0,0,0-.91c.29-3.57-.81-7.06,2.86-10.48,1.68.36,1.67.86,1.89,1.29,1.45,2.82,1.69,5.68,2,8.53.9,8.43,1.41,16.87,1.93,25.3.09,1.45.36,2.9.34,4.35a.67.67,0,0,0,0,.09C1260.1,203.95,1258,203.9,1255.78,203.93Z"/><circle class="cls-3" cx="1284.99" cy="164.07" r="2.29"/><path class="cls-6" d="M1187.59,126.67q0-5.23,0-10.46c0-7.9,0-15.81,0-23.71a4.74,4.74,0,0,0-1-3c-3-4.16-6-8.34-8.88-12.57-.6-.87-1.83-2.14-.87-3s2.07.49,2.86,1.2c2.54,2.29,5,4.69,7.84,7.4,0-5.16-.19-9.92.05-14.66s.5-9.37,2.43-14a5,5,0,0,1,1.48,3.48c1.23,7.75,1.44,15.58,1.7,23.41.77,22.67,1.19,45.35,1.63,68,.08,3.91.25,7.82.31,11.74,0,1.2.24,1.52,1.49,1.09a45.67,45.67,0,0,0,15.4-9.52c10.33-9.17,17.54-20.25,20.2-34,1.94-10,.69-19.9-2.19-29.58-4.37-14.68-11.7-27.67-22.68-38.46a50.57,50.57,0,0,0-6.28-5.09c-5.44-3.85-11.1-4.4-17.21-1.69-11.7,5.18-21.06,13.28-29,23.14-6.48,8-11.3,17-13.22,27.22-2.3,12.27.24,23.8,6.11,34.59,7.81,14.36,18.83,25.41,34.11,31.81,1.24.52,2.56.85,3.83,1.28s1.71.19,1.71-1.23q0-10.94.07-21.89a3.68,3.68,0,0,0-1.1-2.49c-5.67-7-11.63-13.68-16.94-20.93a28.64,28.64,0,0,1-3.81-7.33c-.19-.54-.82-1.32,0-1.82.6-.38,1.16.22,1.6.58,1.6,1.34,3.22,2.67,4.73,4.12C1177.34,115.57,1182.15,121.23,1187.59,126.67Z"/><circle class="cls-7" cx="1170.74" cy="70.45" r="3.37"/><path class="cls-6" d="M1190.6,219.45l-2.85.05a6.61,6.61,0,0,0-.76-1.42q0-4.24.09-8.47a1.83,1.83,0,0,0,.67-1.13c.07-.78-.51-1.53-.72-2.3.1.26.14-.77.19-1a3,3,0,0,0-.48-3.06l.44,0q0-2.47,0-4.94c0-4.17,0-8.34,0-12.51a1.68,1.68,0,0,0,.1-2l0,0c.13-.2-.22-.56-.27-.76a4.3,4.3,0,0,1-.09-.74c.24-.25.26-.38.22-.41a1.18,1.18,0,0,0-.07-1.25c.4-4.92-1.12-9.73,3.94-14.45,2.32.49,2.3,1.18,2.61,1.78,2,3.9,2.33,7.83,2.75,11.77,1.24,11.63,2,23.26,2.66,34.9.12,2,.49,4,.47,6a.92.92,0,0,0,0,.13C1196.56,219.47,1193.6,219.4,1190.6,219.45Z"/><circle class="cls-8" cx="1162.29" cy="101.78" r="2.74"/><path class="cls-9" d="M1094.12,91.9q0-4.73,0-9.45c0-7.14,0-14.28,0-21.42a4.28,4.28,0,0,1,.88-2.69c2.71-3.76,5.4-7.53,8-11.36.54-.79,1.65-1.93.78-2.7s-1.87.44-2.59,1.09c-2.29,2.07-4.5,4.24-7.08,6.68,0-4.66.17-9,0-13.24s-.45-8.47-2.2-12.61a4.52,4.52,0,0,0-1.33,3.14A171.26,171.26,0,0,0,1089,50.49c-.69,20.48-1.08,41-1.48,61.46-.07,3.54-.23,7.07-.28,10.6,0,1.09-.21,1.37-1.35,1a41.26,41.26,0,0,1-13.92-8.6c-9.33-8.29-15.85-18.3-18.25-30.71-1.75-9.08-.63-18,2-26.72a79.56,79.56,0,0,1,20.49-34.75,45.68,45.68,0,0,1,5.68-4.6,14.78,14.78,0,0,1,15.55-1.53c10.57,4.68,19,12,26.19,20.9,5.85,7.27,10.21,15.32,11.94,24.59,2.08,11.09-.22,21.5-5.52,31.25-7.06,13-17,23-30.82,28.74-1.12.47-2.31.77-3.46,1.16s-1.55.18-1.54-1.11q0-9.89-.06-19.77a3.32,3.32,0,0,1,1-2.25c5.12-6.29,10.51-12.36,15.31-18.91a25.88,25.88,0,0,0,3.44-6.63c.18-.49.74-1.19,0-1.64-.54-.35-1,.2-1.44.53-1.45,1.21-2.91,2.41-4.27,3.72C1103.39,81.87,1099,87,1094.12,91.9Z"/><circle class="cls-3" cx="1109.35" cy="41.1" r="3.05"/><path class="cls-9" d="M1091.41,212.84l2.58.08a14.34,14.34,0,0,1,.69-2.25q0-6.71-.08-13.43a3.77,3.77,0,0,1-.6-1.79,18.5,18.5,0,0,1,.65-3.65c-.09.42-.13-1.22-.17-1.52a7.76,7.76,0,0,1,.43-4.85l-.4-.06q0-3.92,0-7.83c0-6.61,0-13.22,0-19.83a4.34,4.34,0,0,1-.09-3.25l0-.07c-.12-.32.2-.89.25-1.21s.06-.78.08-1.17c-.21-.4-.24-.6-.2-.65a3.1,3.1,0,0,1,.06-2c-.36-7.8,1-15.42-3.56-22.9a3.17,3.17,0,0,0-2.35,2.82c-1.8,6.17-2.11,12.41-2.49,18.64-1.12,18.43-1.76,36.86-2.4,55.3-.11,3.17-.45,6.34-.43,9.51,0,.07,0,.14,0,.2C1086,212.87,1088.7,212.76,1091.41,212.84Z"/><path class="cls-9" d="M777,173.55q0-3.23,0-6.46c0-4.88,0-9.76,0-14.64a2.92,2.92,0,0,1,.6-1.84c1.85-2.57,3.69-5.15,5.48-7.76.37-.54,1.13-1.32.54-1.85s-1.28.3-1.77.74c-1.57,1.42-3.08,2.9-4.84,4.57,0-3.19.12-6.13,0-9.05a24.83,24.83,0,0,0-1.5-8.62,3.09,3.09,0,0,0-.91,2.15,117.06,117.06,0,0,0-1.05,14.46c-.47,14-.74,28-1,42,0,2.42-.16,4.83-.19,7.25,0,.74-.15.94-.92.67a28.2,28.2,0,0,1-9.51-5.88c-6.38-5.67-10.83-12.51-12.47-21A38,38,0,0,1,750.77,150a54.38,54.38,0,0,1,14-23.75,31.23,31.23,0,0,1,3.88-3.15,10.1,10.1,0,0,1,10.63-1,47.87,47.87,0,0,1,17.9,14.29,37.8,37.8,0,0,1,8.16,16.81c1.42,7.58-.15,14.69-3.77,21.36-4.82,8.87-11.63,15.69-21.06,19.65-.77.32-1.58.53-2.37.79s-1.06.12-1.05-.76q0-6.76,0-13.52a2.27,2.27,0,0,1,.68-1.54c3.5-4.3,7.18-8.45,10.46-12.93a17.69,17.69,0,0,0,2.35-4.53c.12-.33.51-.81,0-1.12s-.72.13-1,.36c-1,.83-2,1.65-2.92,2.55C783.36,166.69,780.39,170.19,777,173.55Z"/><circle class="cls-3" cx="787.44" cy="138.83" r="2.08"/><path class="cls-6" d="M692.31,162.7q0-2.32,0-4.64c0-3.51,0-7,0-10.53a2.1,2.1,0,0,1,.43-1.32c1.33-1.85,2.65-3.7,3.94-5.58.27-.39.81-.95.38-1.33s-.92.22-1.27.53c-1.13,1-2.21,2.08-3.48,3.28,0-2.29.08-4.4,0-6.51a17.85,17.85,0,0,0-1.08-6.19,2.22,2.22,0,0,0-.66,1.54,84.15,84.15,0,0,0-.76,10.39c-.34,10.06-.53,20.13-.73,30.2,0,1.74-.11,3.47-.14,5.21,0,.53-.11.67-.66.48a20.27,20.27,0,0,1-6.84-4.22,26.64,26.64,0,0,1-9-15.09,27.31,27.31,0,0,1,1-13.13,39.09,39.09,0,0,1,10.07-17.07,22.45,22.45,0,0,1,2.79-2.26,7.26,7.26,0,0,1,7.64-.75A34.41,34.41,0,0,1,706.8,136a27.17,27.17,0,0,1,5.87,12.08A22.67,22.67,0,0,1,710,163.42a30.42,30.42,0,0,1-15.14,14.12c-.55.23-1.13.38-1.7.57s-.76.09-.76-.54q0-4.86,0-9.72a1.63,1.63,0,0,1,.49-1.1c2.52-3.09,5.16-6.07,7.52-9.29A12.71,12.71,0,0,0,702,154.2c.09-.24.37-.58,0-.81s-.51.1-.71.26c-.71.59-1.43,1.19-2.1,1.83C696.86,157.78,694.72,160.29,692.31,162.7Z"/><circle class="cls-10" cx="699.79" cy="137.74" r="1.5"/><path class="cls-6" d="M691,203.89l1.27,0a2.93,2.93,0,0,1,.34-.63q0-1.88,0-3.76a.81.81,0,0,1-.3-.5c0-.35.23-.68.32-1,0,.12-.06-.34-.08-.43a1.33,1.33,0,0,1,.21-1.36l-.2,0q0-1.1,0-2.19c0-1.85,0-3.7,0-5.55a.75.75,0,0,1,0-.91v0c-.06-.09.1-.25.12-.34a1.91,1.91,0,0,0,0-.33c-.1-.11-.12-.17-.1-.18a.52.52,0,0,1,0-.56c-.18-2.18.5-4.32-1.75-6.42-1,.22-1,.52-1.16.79a14.13,14.13,0,0,0-1.22,5.22c-.55,5.16-.87,10.33-1.18,15.49-.05.89-.22,1.78-.21,2.66a.41.41,0,0,1,0,.06C688.33,203.9,689.64,203.87,691,203.89Z"/><path class="cls-9" d="M979.19,115.36q0-4.6,0-9.2c0-6.95,0-13.9,0-20.84a4.16,4.16,0,0,1,.85-2.61c2.64-3.65,5.26-7.33,7.8-11,.53-.77,1.61-1.88.76-2.63s-1.82.43-2.52,1.06c-2.23,2-4.38,4.12-6.89,6.5,0-4.54.17-8.72,0-12.89s-.44-8.24-2.14-12.26a4.4,4.4,0,0,0-1.3,3.06,166.62,166.62,0,0,0-1.5,20.58c-.68,19.93-1,39.86-1.44,59.8-.07,3.44-.22,6.88-.27,10.32,0,1.06-.21,1.34-1.31,1a40.14,40.14,0,0,1-13.54-8.36c-9.08-8.06-15.42-17.8-17.75-29.88-1.71-8.83-.61-17.49,1.92-26a77.4,77.4,0,0,1,19.94-33.81,44.45,44.45,0,0,1,5.52-4.48,14.38,14.38,0,0,1,15.13-1.49c10.29,4.55,18.51,11.67,25.48,20.34,5.69,7.07,9.93,14.91,11.62,23.92,2,10.79-.21,20.92-5.37,30.4-6.87,12.62-16.55,22.33-30,28-1.09.46-2.25.75-3.37,1.13s-1.5.17-1.5-1.08q0-9.62-.06-19.24a3.23,3.23,0,0,1,1-2.19c5-6.12,10.23-12,14.89-18.4a25.18,25.18,0,0,0,3.34-6.45c.17-.48.72-1.16,0-1.6-.53-.34-1,.19-1.4.51-1.41,1.18-2.83,2.35-4.15,3.62C988.21,105.61,984,110.58,979.19,115.36Z"/><circle class="cls-4" cx="1003.12" cy="93.75" r="2.96"/><circle class="cls-5" cx="992.73" cy="65.56" r="2.52"/><path class="cls-9" d="M976.55,196.91l2.51,0a5.81,5.81,0,0,1,.67-1.25q0-3.72-.07-7.45a1.61,1.61,0,0,1-.59-1c-.06-.69.45-1.35.63-2-.09.23-.12-.68-.16-.84a2.64,2.64,0,0,1,.42-2.69l-.39,0q0-2.17,0-4.35c0-3.67,0-7.33,0-11a1.48,1.48,0,0,1-.09-1.8l0,0c-.12-.18.2-.49.24-.67a3.78,3.78,0,0,0,.08-.65c-.21-.22-.23-.33-.19-.36a1,1,0,0,1,.06-1.1c-.35-4.33,1-8.55-3.46-12.7-2,.43-2,1-2.29,1.56-1.75,3.42-2.05,6.88-2.42,10.34-1.09,10.22-1.71,20.45-2.34,30.67-.11,1.76-.43,3.52-.41,5.28a.81.81,0,0,1,0,.11C971.31,196.93,973.91,196.87,976.55,196.91Z"/><path class="cls-6" d="M1041.9,143.72q0-3.47,0-6.94c0-5.25,0-10.49,0-15.74a3.14,3.14,0,0,1,.64-2c2-2.76,4-5.53,5.89-8.34.4-.58,1.22-1.42.58-2s-1.37.32-1.9.8c-1.69,1.52-3.31,3.11-5.2,4.91,0-3.43.13-6.58,0-9.73a26.69,26.69,0,0,0-1.61-9.26,3.32,3.32,0,0,0-1,2.31,125.8,125.8,0,0,0-1.13,15.53c-.51,15-.79,30.1-1.08,45.15-.05,2.6-.17,5.19-.2,7.79,0,.8-.16,1-1,.72a30.31,30.31,0,0,1-10.22-6.31c-6.86-6.09-11.64-13.44-13.4-22.56-1.29-6.67-.46-13.21,1.45-19.63a58.44,58.44,0,0,1,15.05-25.53,33.56,33.56,0,0,1,4.17-3.38,10.85,10.85,0,0,1,11.42-1.12c7.77,3.44,14,8.81,19.24,15.35a40.62,40.62,0,0,1,8.77,18.06c1.53,8.15-.16,15.79-4.06,23-5.18,9.53-12.5,16.86-22.64,21.11-.82.34-1.7.57-2.54.85s-1.14.13-1.13-.81q0-7.26,0-14.52a2.44,2.44,0,0,1,.73-1.65c3.76-4.62,7.72-9.08,11.24-13.89a19,19,0,0,0,2.53-4.87c.13-.36.55-.87,0-1.21s-.77.14-1.06.39c-1.07.89-2.14,1.77-3.14,2.74C1048.71,136.35,1045.51,140.11,1041.9,143.72Z"/><circle class="cls-8" cx="1059.97" cy="127.4" r="2.24"/><circle class="cls-3" cx="1053.09" cy="106.41" r="2.24"/><path class="cls-6" d="M1039.91,210.91l1.89,0a5.36,5.36,0,0,1,.51-1.09q0-3.25-.06-6.5a1.46,1.46,0,0,1-.44-.86,6.27,6.27,0,0,1,.48-1.77c-.07.2-.09-.59-.12-.74a2.59,2.59,0,0,1,.32-2.35l-.29,0q0-1.9,0-3.79c0-3.2,0-6.4,0-9.59a1.45,1.45,0,0,1-.07-1.57v0c-.09-.16.15-.43.18-.58a3.79,3.79,0,0,0,.06-.56c-.16-.19-.18-.29-.15-.31a1,1,0,0,1,0-1c-.27-3.77.74-7.46-2.61-11.08-1.54.38-1.53.9-1.73,1.36-1.32,3-1.55,6-1.83,9-.82,8.92-1.29,17.84-1.76,26.76-.08,1.53-.33,3.07-.31,4.6a.82.82,0,0,1,0,.1C1036,210.93,1037.92,210.87,1039.91,210.91Z"/><path class="cls-9" d="M657.35,115.16q0-3.94,0-7.88c0-6,0-11.92,0-17.87a3.57,3.57,0,0,1,.73-2.24c2.26-3.13,4.51-6.28,6.69-9.47.45-.66,1.38-1.61.65-2.26s-1.56.37-2.16.91c-1.91,1.73-3.76,3.54-5.91,5.58,0-3.89.14-7.48,0-11s-.38-7.06-1.83-10.52A3.77,3.77,0,0,0,654.36,63a142.88,142.88,0,0,0-1.28,17.64c-.58,17.09-.9,34.18-1.23,51.28-.06,2.95-.19,5.9-.23,8.85,0,.91-.18,1.15-1.13.82a34.42,34.42,0,0,1-11.61-7.17c-7.79-6.91-13.22-15.26-15.22-25.62-1.46-7.57-.52-15,1.65-22.29a66.37,66.37,0,0,1,17.1-29,38.11,38.11,0,0,1,4.74-3.84,12.33,12.33,0,0,1,13-1.28c8.82,3.9,15.87,10,21.85,17.44,4.88,6.06,8.52,12.78,10,20.51,1.73,9.25-.18,17.94-4.61,26.07-5.89,10.82-14.19,19.15-25.71,24-.93.39-1.93.64-2.89,1s-1.29.15-1.29-.92q0-8.25-.05-16.5a2.77,2.77,0,0,1,.83-1.87c4.27-5.25,8.77-10.31,12.77-15.78a21.59,21.59,0,0,0,2.87-5.53c.15-.41.62-1,0-1.37s-.87.16-1.2.44c-1.21,1-2.43,2-3.56,3.11C665.08,106.8,661.45,111.07,657.35,115.16Z"/><circle class="cls-5" cx="677.87" cy="96.63" r="2.54"/><circle class="cls-3" cx="670.05" cy="72.79" r="2.54"/><path class="cls-9" d="M655.08,199.09l2.15.05a7.64,7.64,0,0,1,.57-1.43q0-4.28-.06-8.56a2.05,2.05,0,0,1-.5-1.14,9.33,9.33,0,0,1,.54-2.33c-.08.27-.1-.78-.14-1a3.88,3.88,0,0,1,.36-3.09l-.33,0q0-2.5,0-5c0-4.21,0-8.43,0-12.64a2.17,2.17,0,0,1-.08-2.07l0,0c-.1-.2.17-.57.21-.77a5.77,5.77,0,0,0,.06-.74c-.18-.25-.2-.38-.17-.41a1.54,1.54,0,0,1,.05-1.27c-.3-5,.84-9.84-3-14.61-1.75.5-1.73,1.19-2,1.8-1.5,3.94-1.76,7.92-2.07,11.89-.93,11.75-1.47,23.51-2,35.27-.09,2-.37,4-.36,6.07a1.25,1.25,0,0,1,0,.13C650.59,199.11,652.82,199,655.08,199.09Z"/><circle class="cls-3" cx="941.15" cy="148.59" r="2.77"/><circle class="cls-11" cx="932.62" cy="122.59" r="2.77"/><path class="cls-9" d="M821.51,112q0-3.94,0-7.88c0-6,0-11.92,0-17.87a3.57,3.57,0,0,1,.73-2.24c2.26-3.13,4.51-6.28,6.69-9.47.45-.66,1.38-1.61.65-2.26s-1.56.37-2.16.91c-1.91,1.73-3.76,3.54-5.91,5.58,0-3.89.14-7.48,0-11s-.38-7.06-1.83-10.52a3.77,3.77,0,0,0-1.11,2.62,142.88,142.88,0,0,0-1.28,17.64c-.58,17.09-.9,34.18-1.23,51.28-.06,2.95-.19,5.9-.23,8.85,0,.91-.18,1.15-1.13.82A34.42,34.42,0,0,1,803,131.26c-7.79-6.91-13.22-15.26-15.22-25.62-1.46-7.57-.52-15,1.65-22.29a66.37,66.37,0,0,1,17.1-29,38.11,38.11,0,0,1,4.74-3.84,12.33,12.33,0,0,1,13-1.28c8.82,3.9,15.87,10,21.85,17.44,4.88,6.06,8.52,12.78,10,20.51,1.73,9.25-.18,17.94-4.61,26.07-5.89,10.82-14.19,19.15-25.71,24-.93.39-1.93.64-2.89,1s-1.29.15-1.29-.92q0-8.25-.05-16.5a2.77,2.77,0,0,1,.83-1.87c4.27-5.25,8.77-10.31,12.77-15.78A21.59,21.59,0,0,0,838,97.61c.15-.41.62-1,0-1.37s-.87.16-1.2.44c-1.21,1-2.43,2-3.56,3.11C829.24,103.67,825.61,107.94,821.51,112Z"/><circle class="cls-12" cx="842.03" cy="93.5" r="2.54"/><circle class="cls-5" cx="834.21" cy="69.66" r="2.54"/><path class="cls-9" d="M819.24,198.26l2.15.05a8.16,8.16,0,0,1,.57-1.49q0-4.46-.06-8.92a2.18,2.18,0,0,1-.5-1.19,10.06,10.06,0,0,1,.54-2.43c-.08.28-.1-.81-.14-1a4.19,4.19,0,0,1,.36-3.22l-.33,0q0-2.6,0-5.2c0-4.39,0-8.78,0-13.17a2.34,2.34,0,0,1-.08-2.16l0,0c-.1-.21.17-.59.21-.8a6.25,6.25,0,0,0,.06-.77c-.18-.26-.2-.4-.17-.43a1.67,1.67,0,0,1,.05-1.32c-.3-5.18.84-10.24-3-15.21-1.75.52-1.73,1.24-2,1.87-1.5,4.1-1.76,8.25-2.07,12.39-.93,12.24-1.47,24.49-2,36.73-.09,2.11-.37,4.21-.36,6.32a1.35,1.35,0,0,1,0,.14C814.75,198.28,817,198.21,819.24,198.26Z"/><path class="cls-13" d="M1135.15,145.61q0-3.48,0-7c0-5.26,0-10.53,0-15.79a3.15,3.15,0,0,1,.65-2c2-2.77,4-5.55,5.91-8.37.4-.58,1.22-1.42.58-2s-1.38.32-1.91.8c-1.69,1.53-3.32,3.12-5.22,4.93,0-3.44.13-6.61,0-9.76s-.33-6.24-1.62-9.29a3.33,3.33,0,0,0-1,2.31,126.22,126.22,0,0,0-1.13,15.59c-.51,15.09-.8,30.2-1.09,45.3-.05,2.61-.17,5.21-.2,7.82,0,.8-.16,1-1,.72a30.41,30.41,0,0,1-10.26-6.34c-6.88-6.11-11.68-13.48-13.45-22.63-1.29-6.69-.46-13.25,1.46-19.69A58.63,58.63,0,0,1,1122,94.65a33.67,33.67,0,0,1,4.18-3.39,10.89,10.89,0,0,1,11.46-1.13c7.79,3.45,14,8.84,19.3,15.41a40.75,40.75,0,0,1,8.8,18.12c1.53,8.17-.16,15.84-4.07,23-5.2,9.56-12.54,16.92-22.71,21.18-.83.35-1.7.57-2.55.86s-1.14.13-1.14-.82q0-7.29,0-14.57a2.45,2.45,0,0,1,.73-1.66c3.78-4.63,7.75-9.11,11.28-13.94a19.07,19.07,0,0,0,2.53-4.88c.13-.36.55-.88,0-1.21s-.77.15-1.06.39c-1.07.89-2.15,1.78-3.15,2.75C1142,138.22,1138.78,142,1135.15,145.61Z"/><circle class="cls-13" cx="1153.28" cy="129.23" r="2.24"/><path class="cls-13" d="M1133.15,207.38l1.9,0a4.4,4.4,0,0,1,.51-.94q0-2.82-.06-5.64a1.22,1.22,0,0,1-.44-.75c0-.52.34-1,.48-1.53-.07.18-.09-.51-.12-.64a2,2,0,0,1,.32-2l-.3,0q0-1.65,0-3.29c0-2.78,0-5.55,0-8.33a1.12,1.12,0,0,1-.07-1.36v0c-.09-.13.15-.37.18-.51a2.86,2.86,0,0,0,.06-.49c-.16-.17-.18-.25-.15-.27a.79.79,0,0,1,0-.83c-.27-3.28.74-6.48-2.62-9.62-1.54.33-1.53.79-1.73,1.19-1.33,2.59-1.55,5.22-1.83,7.83-.82,7.74-1.3,15.49-1.77,23.23-.08,1.33-.33,2.66-.31,4a.62.62,0,0,1,0,.09C1129.19,207.39,1131.15,207.35,1133.15,207.38Z"/><path class="cls-13" d="M740.12,122.1q0-4.85,0-9.7c0-7.33,0-14.66,0-22a4.39,4.39,0,0,1,.9-2.76c2.79-3.86,5.55-7.73,8.23-11.66.55-.81,1.7-2,.8-2.78s-1.92.45-2.66,1.12c-2.36,2.13-4.62,4.35-7.27,6.86,0-4.79.18-9.2-.05-13.59s-.47-8.69-2.26-12.94a4.64,4.64,0,0,0-1.37,3.22,175.79,175.79,0,0,0-1.58,21.71c-.71,21-1.11,42.05-1.51,63.08-.07,3.63-.24,7.26-.28,10.89,0,1.11-.22,1.41-1.38,1a42.35,42.35,0,0,1-14.28-8.82c-9.58-8.51-16.27-18.78-18.73-31.52-1.8-9.32-.64-18.45,2-27.43a81.66,81.66,0,0,1,21-35.67,46.89,46.89,0,0,1,5.83-4.72,15.17,15.17,0,0,1,16-1.57C754.37,49.64,763,57.16,770.4,66.3c6,7.46,10.48,15.73,12.26,25.24,2.13,11.38-.22,22.07-5.67,32.08-7.24,13.31-17.46,23.56-31.63,29.5-1.15.48-2.37.79-3.55,1.19s-1.59.18-1.58-1.14q0-10.15-.07-20.3a3.41,3.41,0,0,1,1-2.31c5.26-6.45,10.79-12.69,15.71-19.41a26.56,26.56,0,0,0,3.53-6.8c.18-.5.76-1.22,0-1.69-.55-.36-1.07.2-1.48.54-1.49,1.24-3,2.48-4.38,3.82C749.63,111.81,745.17,117.06,740.12,122.1Z"/><circle class="cls-14" cx="755.75" cy="69.97" r="3.13"/><path class="cls-13" d="M737.33,208.14l2.65,0a6.13,6.13,0,0,1,.71-1.32q0-3.93-.08-7.86a1.7,1.7,0,0,1-.62-1c-.07-.72.48-1.42.67-2.14-.09.24-.13-.72-.17-.89a2.78,2.78,0,0,1,.44-2.84l-.41,0q0-2.29,0-4.58c0-3.87,0-7.73,0-11.6a1.56,1.56,0,0,1-.1-1.9l0,0c-.12-.19.21-.52.25-.71a4,4,0,0,0,.08-.68c-.22-.23-.24-.35-.2-.38a1.1,1.1,0,0,1,.06-1.16c-.37-4.56,1-9-3.65-13.4-2.15.46-2.13,1.09-2.42,1.65-1.85,3.61-2.16,7.26-2.55,10.91-1.15,10.78-1.81,21.57-2.46,32.36-.11,1.86-.46,3.71-.44,5.57a.86.86,0,0,1,0,.12C731.81,208.16,734.55,208.1,737.33,208.14Z"/><circle class="cls-3" cx="764.27" cy="99.05" r="2.54"/><circle class="cls-5" cx="794.28" cy="156.58" r="2.54"/><path class="cls-6" d="M871.34,110.33q0-4.85,0-9.7c0-7.33,0-14.66,0-22a4.39,4.39,0,0,1,.9-2.76c2.79-3.86,5.55-7.73,8.23-11.66.55-.81,1.7-2,.8-2.78s-1.92.45-2.66,1.12c-2.36,2.13-4.62,4.35-7.27,6.86,0-4.79.18-9.2-.05-13.59s-.47-8.69-2.26-12.94a4.64,4.64,0,0,0-1.37,3.22,175.79,175.79,0,0,0-1.58,21.71c-.71,21-1.11,42.05-1.51,63.08-.07,3.63-.24,7.26-.28,10.89,0,1.11-.22,1.41-1.38,1A42.35,42.35,0,0,1,848.61,134c-9.58-8.51-16.27-18.78-18.73-31.52-1.8-9.32-.64-18.45,2-27.43a81.66,81.66,0,0,1,21-35.67,46.89,46.89,0,0,1,5.83-4.72,15.17,15.17,0,0,1,16-1.57c10.85,4.8,19.53,12.32,26.89,21.46,6,7.46,10.48,15.73,12.26,25.24,2.13,11.38-.22,22.07-5.67,32.08-7.24,13.31-17.46,23.56-31.63,29.5-1.15.48-2.37.79-3.55,1.19s-1.59.18-1.58-1.14q0-10.15-.07-20.3a3.41,3.41,0,0,1,1-2.31c5.26-6.45,10.79-12.69,15.71-19.41a26.56,26.56,0,0,0,3.53-6.8c.18-.5.76-1.22,0-1.69-.55-.36-1.07.2-1.48.54-1.49,1.24-3,2.48-4.38,3.82C880.85,100,876.39,105.29,871.34,110.33Z"/><circle class="cls-15" cx="886.97" cy="58.19" r="3.13"/><path class="cls-6" d="M868.55,196.37l2.65,0a6.13,6.13,0,0,1,.71-1.32q0-3.93-.08-7.86a1.7,1.7,0,0,1-.62-1c-.07-.72.48-1.42.67-2.14-.09.24-.13-.72-.17-.89a2.78,2.78,0,0,1,.44-2.84l-.41,0q0-2.29,0-4.58c0-3.87,0-7.73,0-11.6a1.56,1.56,0,0,1-.1-1.9l0,0c-.12-.19.21-.52.25-.71a4,4,0,0,0,.08-.68c-.22-.23-.24-.35-.2-.38a1.1,1.1,0,0,1,.06-1.16c-.37-4.56,1-9-3.65-13.4-2.15.46-2.13,1.09-2.42,1.65-1.85,3.61-2.16,7.26-2.55,10.91-1.15,10.78-1.81,21.57-2.46,32.36-.11,1.86-.46,3.71-.44,5.57a.86.86,0,0,1,0,.12C863,196.38,865.77,196.32,868.55,196.37Z"/><circle class="cls-8" cx="894.8" cy="87.25" r="2.54"/><path class="cls-13" d="M918.77,168.8q0-4.3,0-8.6c0-6.5,0-13,0-19.49a3.89,3.89,0,0,1,.8-2.44c2.47-3.42,4.92-6.85,7.3-10.33.49-.72,1.51-1.76.71-2.46s-1.7.4-2.35,1c-2.09,1.89-4.1,3.85-6.44,6.08,0-4.24.16-8.15,0-12s-.41-7.7-2-11.47a4.11,4.11,0,0,0-1.21,2.86,155.79,155.79,0,0,0-1.4,19.24c-.63,18.63-1,37.27-1.34,55.91-.06,3.22-.21,6.43-.25,9.65,0,1-.2,1.25-1.23.89a37.53,37.53,0,0,1-12.66-7.82c-8.49-7.54-14.42-16.64-16.6-27.94-1.6-8.26-.57-16.36,1.8-24.31a72.37,72.37,0,0,1,18.64-31.61,41.56,41.56,0,0,1,5.17-4.19,13.44,13.44,0,0,1,14.14-1.39c9.62,4.26,17.31,10.92,23.83,19,5.32,6.61,9.29,13.94,10.87,22.37,1.89,10.09-.2,19.56-5,28.43-6.42,11.8-15.48,20.88-28,26.15-1,.43-2.1.7-3.15,1.06s-1.41.16-1.4-1q0-9-.06-18a3,3,0,0,1,.9-2c4.66-5.72,9.56-11.24,13.92-17.2a23.54,23.54,0,0,0,3.13-6c.16-.45.68-1.08,0-1.5-.49-.32-1,.18-1.31.48-1.32,1.1-2.65,2.2-3.88,3.39C927.2,159.68,923.24,164.33,918.77,168.8Z"/><circle class="cls-3" cx="1146.38" cy="108.17" r="2.24"/><circle class="cls-3" cx="930.22" cy="122.45" r="2.24"/><circle class="cls-14" cx="941.32" cy="146.1" r="3.13"/></g></svg>