<svg id="Layer_1" data-name="Layer 1" xmlns="http://www.w3.org/2000/svg" xmlns:xlink="http://www.w3.org/1999/xlink" viewBox="0 0 172 139"><defs><style>.cls-1,.cls-5{fill:none;}.cls-2,.cls-3{fill:#f04f23;}.cls-3{stroke:#f04f23;}.cls-3,.cls-5{stroke-miterlimit:10;}.cls-4{clip-path:url(#clip-path);}.cls-5{stroke:#f8993a;stroke-width:5px;}.cls-6{clip-path:url(#clip-path-2);}</style><clipPath id="clip-path"><polygon class="cls-1" points="148.03 106.5 127.21 96.1 42.8 96.1 23.14 106.5 55.52 138.88 127.21 138.88 148.03 106.5"/></clipPath><clipPath id="clip-path-2"><polygon class="cls-1" points="148.03 34.25 126.25 45.22 37.93 45.22 17.36 34.25 51.23 0.12 126.25 0.12 148.03 34.25"/></clipPath></defs><title>new icons</title><path class="cls-2" d="M166.89,68.32c.44,0,.89,0,1.33,0,1.27-.09,1.78.45,1.78,1.75s-.47,1.87-1.75,1.76c-.16,0-.33,0-.5,0-3.69,0-3.65,0-3.57,3.71,0,1,.25,1.43,1.31,1.35s2.1,0,3.15,0c1.3,0,1.33.84,1.34,1.8s-.19,1.65-1.35,1.61c-.94,0-1.89.09-2.82,0-1.38-.16-1.66.45-1.64,1.7.06,4.47.35,3.92-3.89,3.87-1.31,0-1.81.35-1.65,1.66.09.71,0,1.44,0,2.16.08,1.22-.15,2-1.67,2s-1.94-.7-1.81-2a1.6,1.6,0,0,0,0-.17c0-3.67,0-3.62-3.67-3.61-1.08,0-1.5.3-1.42,1.4s0,2.1,0,3.15c0,1.25-.84,1.22-1.71,1.22s-1.71,0-1.69-1.25c0-.94,0-1.88,0-2.82,0-.33.12-.76,0-1-1-1.47-2.59-.37-3.88-.67-.68-.16-1.17.07-1.14.94,0,1.11,0,2.21,0,3.32,0,1.36-.79,1.48-1.85,1.48s-1.7-.31-1.64-1.51c0-.94-.07-1.89,0-2.82.12-1.21-.4-1.46-1.52-1.46-4.4,0-4.06.66-4-3.92,0-1.33-.4-1.8-1.7-1.65-.77.08-1.55,0-2.32,0-1.23.09-1.84-.31-1.83-1.67s.45-1.88,1.75-1.74a4.59,4.59,0,0,0,.5,0c3.7,0,3.66,0,3.59-3.71,0-1.14-.45-1.43-1.47-1.35s-1.77,0-2.66,0c-1.32.07-1.72-.57-1.71-1.81s.45-1.77,1.67-1.67c.22,0,.44,0,.66,0,3.82,0,4-.2,3.49-4.12-.08-.71-.35-1-1-.93-1.11,0-2.21,0-3.32,0s-1.46-.68-1.46-1.71.16-1.73,1.41-1.75,3.09.57,4-.26.26-2.61.36-4c.07-1,.58-1.29,1.51-1.34,1.3-.07,3,.63,3.79-.33.63-.8.27-2.44.22-3.71s.52-1.73,1.78-1.74,1.85.5,1.74,1.78c0,.16,0,.33,0,.5,0,3.75.45,4.1,4.24,3.53.67-.1.81-.4.81-1,0-1.16,0-2.33,0-3.49s.72-1.32,1.64-1.32,1.82,0,1.78,1.34c0,1.05,0,2.1,0,3.15,0,.87.18,1.26,1.18,1.3,3.87.14,3.86.18,3.9-3.73,0-1.9.3-2.15,2.08-2.07,1,0,1.39.42,1.41,1.41,0,1.37-.57,3.11.24,4s2.61.24,4,.32c1,.07,1.27.64,1.34,1.53.1,1.3-.62,3,.36,3.79.82.63,2.44.27,3.71.23s1.72.56,1.7,1.81-.46,1.76-1.67,1.67c-.33,0-.66,0-1,0-3.15,0-3.07,0-3.17,3.13,0,1.48.33,2.19,1.9,1.91a4.88,4.88,0,0,1,.83,0Zm-18.5,14c3.59,0,7.18,0,10.78,0,1.14,0,1.51-.31,1.5-1.48q-.07-10.69,0-21.39c0-1.2-.27-1.63-1.55-1.62q-10.69.09-21.39,0c-1.23,0-1.6.33-1.59,1.58q.09,10.69,0,21.39c0,1.13.29,1.54,1.47,1.51C141.21,82.24,144.8,82.29,148.4,82.29Z"/><path class="cls-2" d="M142.41,70c0-1.55,0-3.09,0-4.64,0-.93.39-1.29,1.27-1.29,3.09,0,6.19,0,9.28,0,1,0,1.47.52,1.46,1.56q0,4.47,0,8.95c0,1-.44,1.53-1.47,1.53-2.93,0-5.85,0-8.78,0-1.17,0-1.85-.46-1.77-1.8s0-2.87,0-4.31Z"/><path class="cls-3" d="M12.8,55.47a3.79,3.79,0,0,1,2.31-3.58,16.6,16.6,0,0,1,6.26-1.8,27.2,27.2,0,0,1,12.13,1,6.11,6.11,0,0,1,3.34,2.18,3.44,3.44,0,0,1,.62,1.78c0,8.13,0,16.27,0,24.4a3.37,3.37,0,0,1-1.63,2.84A13.67,13.67,0,0,1,30,84.39c-.73.12-1.46.19-2.25.3,0,2.5-1.8,3.49-3.76,4.22a23.44,23.44,0,0,1-10.36,1.29A49.3,49.3,0,0,1,7,89a7.85,7.85,0,0,1-2.38-1.18A3.45,3.45,0,0,1,3,84.71c0-8,0-16,0-23.94A3.39,3.39,0,0,1,4.58,57.9a14.24,14.24,0,0,1,6.31-2.18C11.49,55.62,12.1,55.56,12.8,55.47ZM4.71,79.32c0,1.76,0,3.54,0,5.32a2.16,2.16,0,0,0,1.13,2.06,8.48,8.48,0,0,0,1.74.83,26.78,26.78,0,0,0,11.87.78A22.9,22.9,0,0,0,24.38,87,2.61,2.61,0,0,0,25.9,85.3c.19-2,.07-4,.07-6A26.08,26.08,0,0,1,4.71,79.32Zm0-8.46c0,1.35,0,2.58,0,3.8,0,2.83.14,3,2.85,4l.18,0a24.64,24.64,0,0,0,10.58,1,16.48,16.48,0,0,0,6.84-2c.34-.2.79-.58.8-.9.07-1.92,0-3.85,0-5.91a21.53,21.53,0,0,1-10.61,2.39A21.46,21.46,0,0,1,4.71,70.86ZM26,62.66a25.91,25.91,0,0,1-21.28,0,39.75,39.75,0,0,1,0,4.4A2.38,2.38,0,0,0,6.53,69.9l.17.07a23.49,23.49,0,0,0,11.79,1.37,15.94,15.94,0,0,0,6.66-2c.34-.2.79-.58.8-.89C26,66.5,26,64.57,26,62.66Zm-10.41.58c.54,0,1.44,0,2.33-.12a17.27,17.27,0,0,0,7.37-2.17c.83-.5.91-1,.13-1.54A9.76,9.76,0,0,0,22.66,58a28.59,28.59,0,0,0-11.34-.67A12.08,12.08,0,0,0,6,58.89a3.06,3.06,0,0,0-1.13,1.46c-.06.17.72.74,1.18,1C8.9,62.83,12,63.19,15.58,63.24Zm-1-7.87c.35,0,.69,0,1,0,3.12.11,6.23.35,9.09,1.72a5.4,5.4,0,0,0,3,.43c.4,0,.79-.1,1.19-.16A17.23,17.23,0,0,0,35,55.42c.93-.53,1-.91.18-1.58A7,7,0,0,0,33,52.62,27.63,27.63,0,0,0,19.89,52a20.31,20.31,0,0,0-4.25,1.42A1.74,1.74,0,0,0,14.57,55.37Zm13.18,20.8v6.78a15.14,15.14,0,0,0,6.55-1.56,2.79,2.79,0,0,0,1.4-1.66c.18-2,.07-4,.07-5.85Zm8-18.88-8.14,2.18v6.42a17.87,17.87,0,0,0,7.3-2c.34-.19.8-.58.81-.9C35.81,61.05,35.77,59.06,35.77,57.28Zm0,8.29-8,2.3v6.3c.49-.05.89-.08,1.28-.14a15.6,15.6,0,0,0,5.79-1.75c.37-.22.88-.61.89-.95C35.82,69.35,35.78,67.35,35.78,65.57Z"/><g class="cls-4"><circle class="cls-5" cx="85.01" cy="68.92" r="63.31"/></g><g class="cls-6"><circle class="cls-5" cx="85.01" cy="69.96" r="63.31"/></g><path class="cls-2" d="M87,62.88c.08,1,.74,1.38,1.58.82,1.32-.89,2.58-1.85,3.89-2.74.54-.37.5-.61,0-1a11,11,0,0,0-4-2.19c-1.76-.5-1.75-.51-1.68,1.33C86.89,60.36,86.94,61.62,87,62.88Z"/><path class="cls-2" d="M80.51,71.4c-1.59.28-3.13.5-4.64.82-.65.14-1,.48-.57,1.29a12.11,12.11,0,0,0,3.34,4c.25.19.56.63.83,0,.64-1.59,1.34-3.15,1.92-4.76C81.66,72,81.27,71.49,80.51,71.4Z"/><path class="cls-2" d="M83.59,62.88c.12-1.26.18-2.53.27-4a1.66,1.66,0,0,1,0-.45c.22-1.06-.28-1.12-1.13-.89a11.66,11.66,0,0,0-4.65,2.37c-.46.39-.51.64,0,1,1.28.88,2.52,1.82,3.8,2.7C82.82,64.29,83.49,64,83.59,62.88Z"/><path class="cls-2" d="M83.42,68.24a2.23,2.23,0,0,0,1.83,2.21,2,2,0,0,0,1.91-1.94,1.93,1.93,0,0,0-1.59-1.79A2.12,2.12,0,0,0,83.42,68.24Z"/><path class="cls-2" d="M79.35,68.14c1.13-.36,1.31-1.07.46-1.87-1.13-1.06-2.33-2.05-3.45-3.11-.46-.44-.65-.4-.95.17a12.27,12.27,0,0,0-1.28,5.05c0,1.29,0,1.31,1.24.94S78,68.56,79.35,68.14Z"/><path class="cls-2" d="M90.73,66.41c-.73.7-.52,1.42.48,1.73,1.47.46,3,.83,4.45,1.29.63.2.79,0,.8-.61a11.32,11.32,0,0,0-1.62-6.13C93.42,64,92,65.15,90.73,66.41Z"/><path class="cls-2" d="M85,41.75a27.18,27.18,0,1,0,27.18,27.18A27.18,27.18,0,0,0,85,41.75Zm17.51,31.64c-.65-.24-1.3-.49-2-.7a1.54,1.54,0,0,0-2.13,1,13.36,13.36,0,0,1-5,6.24A1.41,1.41,0,0,0,92.93,82c.35.69.82,1.31,1.22,2s.61,1.45-.23,1.91-1.37-.17-1.68-.89-.51-1.47-.8-2.18a1.41,1.41,0,0,0-1.85-.95,14.11,14.11,0,0,1-8.49-.12c-.91-.28-1.24.47-1.54,1-.39.71-.55,1.53-.88,2.28s-.78,1.28-1.6.89-.74-1.17-.32-1.88.87-1.29,1.21-2a1.54,1.54,0,0,0-.56-2.21,13.65,13.65,0,0,1-4.86-6,1.64,1.64,0,0,0-2.36-1.07c-.66.2-1.3.5-2,.69s-1.58.19-1.75-.76.5-1.19,1.26-1.35c1.13-.24,2.41.09,3.38-.81s.19-2.15.34-3.22a15.28,15.28,0,0,1,1.84-5.92,1.41,1.41,0,0,0-.49-2.08c-.61-.47-1.31-.83-2-1.24s-1.17-1.08-.62-1.82,1.27-.45,1.9.09c.85.73,1.36,1.95,2.61,2.12s1.78-1.22,2.74-1.76a16.58,16.58,0,0,1,5.07-2.06c1.58-.3,2.09-.8,2-1.93-.09-.65-.19-1.29-.27-1.94s-.12-1.25.51-1.65a1,1,0,0,1,1.15,0,1.57,1.57,0,0,1,.47,1.67c-.11.64-.15,1.3-.2,1.95a1.54,1.54,0,0,0,1.51,1.88A12.44,12.44,0,0,1,94.69,58,1.49,1.49,0,0,0,97,58c.52-.46,1-1,1.48-1.47s.84-.81,1.5-.63a1,1,0,0,1,.74.89,1.56,1.56,0,0,1-.94,1.46c-.59.36-1.21.69-1.77,1.1a1.51,1.51,0,0,0-.51,2.26,13.42,13.42,0,0,1,1.79,7.77,1.46,1.46,0,0,0,1.38,1.76c.8.14,1.63.16,2.42.33s1.49.49,1.26,1.34S103.28,73.66,102.51,73.38Z"/><path class="cls-2" d="M90.55,71.45c-1.19-.19-1.7.41-1.25,1.54.55,1.4,1.18,2.77,1.72,4.18.28.74.59.69,1.12.25a12.25,12.25,0,0,0,3.17-3.83c.11-.22.19-.45.37-.85-.49-.15-.79-.6-1.39-.68C93,71.89,91.79,71.65,90.55,71.45Z"/><path class="cls-2" d="M86.08,74.27c-.46-.75-1.17-.69-1.66.08s-.84,1.49-1.25,2.24c-1.64,3-1.57,3.12,2.24,3.14a9.25,9.25,0,0,0,2.79-.34c.29-.07.67-.13.38-.64C87.74,77.26,87,75.73,86.08,74.27Z"/></svg>