<svg id="Layer_1" data-name="Layer 1" xmlns="http://www.w3.org/2000/svg" viewBox="0 0 168.72 168.72"><title>asdd</title><circle cx="84.36" cy="84.36" r="76.86" fill="#fff" stroke="#fff" stroke-miterlimit="10" stroke-width="15"/><path d="M35.22,64.76h9.55V88.58H40.22V68.78h-5Z" fill="#515151"/><path d="M48.21,64.76h9.56V88.58H53.21V68.78h-5Z" fill="#515151"/><path d="M75,74.56a2.42,2.42,0,0,1,.67,1.74A2.49,2.49,0,0,1,75,78.08a2.2,2.2,0,0,1-1.68.7,2.17,2.17,0,0,1-1.65-.71A2.52,2.52,0,0,1,71,76.3a2.42,2.42,0,0,1,.66-1.74,2.22,2.22,0,0,1,1.65-.68A2.25,2.25,0,0,1,75,74.56Zm0,10.11a2.38,2.38,0,0,1,.67,1.73A2.51,2.51,0,0,1,75,88.19a2.23,2.23,0,0,1-1.68.7,2.15,2.15,0,0,1-1.65-.72A2.49,2.49,0,0,1,71,86.4a2.38,2.38,0,0,1,.66-1.73A2.18,2.18,0,0,1,73.32,84,2.22,2.22,0,0,1,75,84.67Z" fill="#515151"/><path d="M105.13,67.69q2.66,3.14,2.65,9t-2.65,9q-2.66,3.13-7.59,3.13T90,85.62q-2.65-3.14-2.66-9t2.66-9q2.64-3.14,7.58-3.13T105.13,67.69ZM93.36,70.23Q92,72.29,92,76.67t1.36,6.43a5.25,5.25,0,0,0,8.37,0c.9-1.38,1.36-3.52,1.36-6.43s-.46-5.07-1.36-6.44a5.28,5.28,0,0,0-8.37,0Z" fill="#515151"/><path d="M129.15,67.69q2.65,3.14,2.65,9t-2.65,9q-2.66,3.13-7.59,3.13T114,85.62q-2.66-3.14-2.66-9t2.66-9q2.64-3.14,7.58-3.13T129.15,67.69Zm-11.77,2.54Q116,72.29,116,76.67t1.36,6.43a5.25,5.25,0,0,0,8.37,0c.9-1.38,1.36-3.52,1.36-6.43s-.46-5.07-1.36-6.44a5.28,5.28,0,0,0-8.37,0Z" fill="#515151"/><path d="M59,116.92l-1.47-3.37H50.19l-1.44,3.37h-2L52.92,103h2l6.16,13.89Zm-8-5.1h5.84l-2.94-6.75Z" fill="#515151"/><path d="M63.08,103h2.26l5.09,9.76,5-9.76h2.28v13.89H76l0-11.1-5,9.63H69.83l-5-9.63v11.1H63.08Z" fill="#515151"/><path d="M88.84,106.12a18.14,18.14,0,0,0,0,9.33,13.53,13.53,0,0,0,1.72,3.93H88.85a12.91,12.91,0,0,1-1.77-3.9,18.37,18.37,0,0,1,0-9.39,13.13,13.13,0,0,1,1.77-3.9h1.71A13.77,13.77,0,0,0,88.84,106.12Z" fill="#515151"/><path d="M93,103h1.91v13.89H93Z" fill="#515151"/><path d="M104.94,105a7,7,0,0,0-1.91-.31,3.55,3.55,0,0,0-1.94.47,1.46,1.46,0,0,0-.73,1.28,1.69,1.69,0,0,0,.44,1.2,3.15,3.15,0,0,0,1.07.74c.43.17,1,.38,1.77.62a20.45,20.45,0,0,1,2.28.83,3.9,3.9,0,0,1,1.49,1.19,3.25,3.25,0,0,1,.62,2.07,3.51,3.51,0,0,1-.65,2.09,4.22,4.22,0,0,1-1.8,1.38,7,7,0,0,1-2.67.48,7.88,7.88,0,0,1-3-.59,8.1,8.1,0,0,1-2.5-1.59l.85-1.65a7.18,7.18,0,0,0,2.23,1.5,6.23,6.23,0,0,0,2.42.53,3.9,3.9,0,0,0,2.19-.55,1.7,1.7,0,0,0,.8-1.48,1.72,1.72,0,0,0-.43-1.21,3.13,3.13,0,0,0-1.1-.76c-.45-.18-1-.39-1.8-.61a19.16,19.16,0,0,1-2.26-.81,3.86,3.86,0,0,1-1.48-1.18,3.16,3.16,0,0,1-.61-2,3.3,3.3,0,0,1,.62-2,3.9,3.9,0,0,1,1.72-1.31,6.87,6.87,0,0,1,2.58-.45,8.52,8.52,0,0,1,2.46.36,8.36,8.36,0,0,1,2.13,1l-.79,1.7A8.14,8.14,0,0,0,104.94,105Z" fill="#515151"/><path d="M109.28,103h10.86v1.74h-4.49v12.15h-1.9V104.77h-4.47Z" fill="#515151"/><path d="M122.46,102.19a13.13,13.13,0,0,1,1.77,3.9,18.37,18.37,0,0,1,0,9.39,12.91,12.91,0,0,1-1.77,3.9h-1.71a13.27,13.27,0,0,0,1.72-3.93,18.14,18.14,0,0,0,0-9.33,13.5,13.5,0,0,0-1.72-3.93Z" fill="#515151"/></svg>