<svg id="Layer_1" data-name="Layer 1" xmlns="http://www.w3.org/2000/svg" viewBox="0 0 168.72 168.72"><title>asdd</title><circle cx="84.36" cy="84.36" r="76.86" fill="#fff" stroke="#fff" stroke-miterlimit="10" stroke-width="15"/><path d="M35.22,64.76h9.55V88.58H40.22V68.78h-5Z" fill="#515151"/><path d="M48.21,64.76h9.56V88.58H53.21V68.78h-5Z" fill="#515151"/><path d="M75,74.56a2.42,2.42,0,0,1,.67,1.74A2.49,2.49,0,0,1,75,78.08a2.2,2.2,0,0,1-1.68.7,2.17,2.17,0,0,1-1.65-.71A2.52,2.52,0,0,1,71,76.3a2.42,2.42,0,0,1,.66-1.74,2.22,2.22,0,0,1,1.65-.68A2.25,2.25,0,0,1,75,74.56Zm0,10.11a2.38,2.38,0,0,1,.67,1.73A2.51,2.51,0,0,1,75,88.19a2.23,2.23,0,0,1-1.68.7,2.15,2.15,0,0,1-1.65-.72A2.49,2.49,0,0,1,71,86.4a2.38,2.38,0,0,1,.66-1.73A2.18,2.18,0,0,1,73.32,84,2.22,2.22,0,0,1,75,84.67Z" fill="#515151"/><path d="M105.13,67.69q2.66,3.14,2.65,9t-2.65,9q-2.66,3.13-7.59,3.13T90,85.62q-2.65-3.14-2.66-9t2.66-9q2.64-3.14,7.58-3.13T105.13,67.69ZM93.36,70.23Q92,72.29,92,76.67t1.36,6.43a5.25,5.25,0,0,0,8.37,0c.9-1.38,1.36-3.52,1.36-6.43s-.46-5.07-1.36-6.44a5.28,5.28,0,0,0-8.37,0Z" fill="#515151"/><path d="M129.15,67.69q2.65,3.14,2.65,9t-2.65,9q-2.66,3.13-7.59,3.13T114,85.62q-2.66-3.14-2.66-9t2.66-9q2.64-3.14,7.58-3.13T129.15,67.69Zm-11.77,2.54Q116,72.29,116,76.67t1.36,6.43a5.25,5.25,0,0,0,8.37,0c.9-1.38,1.36-3.52,1.36-6.43s-.46-5.07-1.36-6.44a5.28,5.28,0,0,0-8.37,0Z" fill="#515151"/><path d="M55.66,116.92l-1.47-3.37H46.87l-1.45,3.37h-2L49.59,103h2l6.16,13.89Zm-8-5.1h5.84l-2.94-6.75Z" fill="#515151"/><path d="M59.75,103H62l5.08,9.76,5-9.76h2.29v13.89H72.64l0-11.1-4.94,9.63H66.5l-5-9.63v11.1H59.75Z" fill="#515151"/><path d="M85.51,106.12a18.44,18.44,0,0,0,0,9.33,13.8,13.8,0,0,0,1.72,3.93H85.52a13.14,13.14,0,0,1-1.76-3.9,18.09,18.09,0,0,1,0-9.39,13.37,13.37,0,0,1,1.76-3.9h1.71A14.05,14.05,0,0,0,85.51,106.12Z" fill="#515151"/><path d="M99,104.26a4.31,4.31,0,0,1,1.42,3.45,4.55,4.55,0,0,1-1.43,3.6,5.77,5.77,0,0,1-4,1.28H91.54v4.33H89.63V103H95A5.93,5.93,0,0,1,99,104.26Zm-1.36,5.82a2.8,2.8,0,0,0,1-2.31,2.7,2.7,0,0,0-1-2.25,4.26,4.26,0,0,0-2.74-.77l-3.37,0v6.1h3.37A4.15,4.15,0,0,0,97.65,110.08Z" fill="#515151"/><path d="M109.06,105a7,7,0,0,0-1.92-.31,3.53,3.53,0,0,0-1.93.47,1.46,1.46,0,0,0-.73,1.28,1.69,1.69,0,0,0,.44,1.2,3.15,3.15,0,0,0,1.07.74c.43.17,1,.38,1.77.62a20.45,20.45,0,0,1,2.28.83,4,4,0,0,1,1.49,1.19,3.25,3.25,0,0,1,.62,2.07,3.51,3.51,0,0,1-.65,2.09,4.19,4.19,0,0,1-1.81,1.38A6.91,6.91,0,0,1,107,117a7.86,7.86,0,0,1-3-.59,8.1,8.1,0,0,1-2.5-1.59l.85-1.65a7.18,7.18,0,0,0,2.23,1.5,6.18,6.18,0,0,0,2.41.53,3.91,3.91,0,0,0,2.2-.55,1.83,1.83,0,0,0,.37-2.69,3.18,3.18,0,0,0-1.11-.76c-.44-.18-1-.39-1.79-.61a20.1,20.1,0,0,1-2.27-.81,4,4,0,0,1-1.48-1.18,3.22,3.22,0,0,1-.6-2,3.29,3.29,0,0,1,.61-2,3.93,3.93,0,0,1,1.73-1.31,6.83,6.83,0,0,1,2.58-.45,8.45,8.45,0,0,1,2.45.36,8.27,8.27,0,0,1,2.14,1l-.8,1.7A8.07,8.07,0,0,0,109.06,105Z" fill="#515151"/><path d="M113.4,103h10.86v1.74h-4.49v12.15h-1.9V104.77H113.4Z" fill="#515151"/><path d="M126.58,102.19a13.13,13.13,0,0,1,1.77,3.9,18.37,18.37,0,0,1,0,9.39,12.91,12.91,0,0,1-1.77,3.9h-1.71a13.53,13.53,0,0,0,1.72-3.93,18.14,18.14,0,0,0,0-9.33,13.77,13.77,0,0,0-1.72-3.93Z" fill="#515151"/></svg>