<svg id="Layer_1" data-name="Layer 1" xmlns="http://www.w3.org/2000/svg" viewBox="0 0 308 279"><defs><style>.cls-1,.cls-4{fill:#f04f25;}.cls-2,.cls-3{fill:none;stroke:#f04f25;}.cls-2,.cls-3,.cls-4{stroke-miterlimit:10;}.cls-2{stroke-width:7px;}.cls-3{stroke-width:4px;}.cls-4{stroke:#fff;stroke-width:2px;}</style></defs><title>new icons</title><path class="cls-1" d="M145.46,178.31a8,8,0,0,0-8-8,8.08,8.08,0,1,0-.08,16.16A8.07,8.07,0,0,0,145.46,178.31Z"/><path class="cls-2" d="M236.18,137.63c-3.71-11.82-13.2-18.48-27-20.25-2.4-.31-5.72-1.2-6.72-2.78-9-14-22.49-21-40.48-21.93a7.16,7.16,0,0,1-4.87-3.15c-9-15.94-26.93-25.33-44.94-23.24-20.79,2.41-36,15-39.46,33.32-.63,3.31-2,4.73-5.34,5.93-13.92,5-22.67,14.17-24.46,27.37C39.8,155.56,57.25,172.57,83,172.73c9.16.06,17.54.06,26.7.06v-.14c0-5,.24-5.69.24-10.71,0-1.2,0-9.36,0-8.58a11,11,0,0,1,5.81-1.29l.91,0h.14l.17,0a15.25,15.25,0,0,1,2.38,0h.82c.44-.08.57-.39.57-1,0-2-.09-4,0-6a1.07,1.07,0,0,1-.06-.55,31.19,31.19,0,0,1,1-6.52l.09-.26a16.85,16.85,0,0,1,9.52-9.74l.25-.1.49-.19a16.62,16.62,0,0,1,4.37-1h.27l.57,0h.85l.57,0H139a16.62,16.62,0,0,1,4.37,1l.49.19.25.1a16.85,16.85,0,0,1,9.52,9.74l.09.26a31.19,31.19,0,0,1,1,6.52,1.07,1.07,0,0,1-.06.55c.08,2,0,4,0,6,0,.64.13,1,.57,1h.82a15.25,15.25,0,0,1,2.38,0l.17,0h.14l.13,0c1.75.23,3.21-.57,4.26.58l.11.12.26.32.15.21.2.3.14.24.18.35.07.16a7.78,7.78,0,0,1,.68,3.24q0,7.52,0,15v.12h39.34c8.12,0,15.62-1.82,21.86-6.57C236.17,158.57,239.65,148.68,236.18,137.63Z"/><circle class="cls-3" cx="139.5" cy="141.5" r="118.5"/><path class="cls-4" d="M169.63,176.67c0-7.61,0-15.18,0-20.89a7.39,7.39,0,0,0-.8-3.4l-.09-.17c-.07-.12-.14-.24-.22-.36l-.16-.25-.24-.32-.18-.22-.3-.33-.13-.12a8.5,8.5,0,0,0-5-2.24l-.16,0h-.16l-.2,0a20.19,20.19,0,0,0-2.8,0h-1c-.52-.09-.67-.41-.67-1.08,0-2.1.11-4.19,0-6.29a1,1,0,0,0,.08-.54,17.26,17.26,0,0,0-1.26-5.28l-.05-.13a19,19,0,0,0-12.2-10.58l-.68-.19-.95-.25-1-.21-.42-.09-.36,0c-.39-.06-.79-.11-1.19-.14l-.92-.07-1,0-1,0-.92.07c-.4,0-.79.08-1.19.14l-.36,0-.42.09-1,.21-.95.25-.68.19A19,19,0,0,0,118.81,135l-.05.13a17.26,17.26,0,0,0-1.26,5.28,1,1,0,0,0,.08.54c-.09,2.1,0,4.19,0,6.29,0,.67-.16,1-.67,1.08h-1a20.19,20.19,0,0,0-2.8,0l-.2,0h-.16l-.16,0a8.5,8.5,0,0,0-5,2.24l-.13.12-.3.33-.18.22-.24.32-.16.25c-.08.12-.15.24-.22.36l-.09.17a7.39,7.39,0,0,0-.8,3.4c0,5.7,0,13.27,0,20.89q0,1.72,0,3.43c0,6.75,0,13.31,0,18.39a6.15,6.15,0,0,0,.82,3.44c.08.16.16.32.25.47l.21.32a6.56,6.56,0,0,0,.68.83l.08.08a7,7,0,0,0,.85.72l.13.1a7.77,7.77,0,0,0,.89.52l.46.22c.23.1.48.19.73.28s.54.17.82.23l.28.06a10.64,10.64,0,0,0,1.19.18l.87.06h.47q11.55,0,23.11,0h.44q11.55,0,23.11,0h.47l.87-.06a10.64,10.64,0,0,0,1.19-.18l.28-.06c.28-.07.56-.14.82-.23s.49-.17.73-.28l.46-.22a7.77,7.77,0,0,0,.89-.52l.13-.1a7,7,0,0,0,.85-.72l.08-.08a6.56,6.56,0,0,0,.68-.83l.21-.32c.09-.15.17-.31.25-.47a6.15,6.15,0,0,0,.82-3.43c0-5.08,0-11.64,0-18.39Q169.63,178.39,169.63,176.67Zm-32.07,22.17c-7.64,0-15.27,0-22.91,0-.91,0-1.1-.3-1.1-1.12,0-11.12,0-30,0-41.16,0-.76.17-1,.89-1.1h.31l9.6,0h26.41l9.6,0h.31c.71.06.89.34.89,1.1,0,11.12,0,30,0,41.16,0,.81-.18,1.1-1.1,1.12C152.84,198.82,145.2,198.83,137.56,198.83ZM125.18,147c.2-2.69-.27-5.41.29-8.08,1-4.79,5.78-8.42,11.22-8.78l.3,0h1.16l.3,0c5.44.36,10.21,4,11.22,8.78.57,2.68.09,5.39.29,8.08.07.9-.23,1.16-.94,1.23H126.11C125.4,148.2,125.11,147.94,125.18,147Z"/><line class="cls-3" x1="228" y1="59.71" x2="60.64" y2="227.07"/></svg>