<svg id="Layer_1" data-name="Layer 1" xmlns="http://www.w3.org/2000/svg" xmlns:xlink="http://www.w3.org/1999/xlink" viewBox="0 0 193 157"><defs><style>.cls-1,.cls-5{fill:none;}.cls-2,.cls-3{fill:#fff;}.cls-3{stroke:#fff;}.cls-3,.cls-5{stroke-miterlimit:10;}.cls-4{clip-path:url(#clip-path);}.cls-5{stroke:#f4cfa2;stroke-width:5px;}.cls-6{clip-path:url(#clip-path-2);}</style><clipPath id="clip-path"><polygon class="cls-1" points="167.13 119.37 143.58 107.59 48.04 107.59 25.79 119.37 62.44 156.01 143.58 156.01 167.13 119.37"/></clipPath><clipPath id="clip-path-2"><polygon class="cls-1" points="167.13 37.59 142.49 50.01 42.53 50.01 19.25 37.59 57.59 -1.03 142.49 -1.03 167.13 37.59"/></clipPath></defs><title>elements</title><path class="cls-2" d="M188.48,76.15c.5,0,1,0,1.5,0,1.44-.11,2,.5,2,2s-.53,2.11-2,2c-.19,0-.38,0-.56,0-4.17,0-4.14,0-4,4.2,0,1.1.29,1.61,1.48,1.53s2.38,0,3.57,0c1.48,0,1.51,1,1.52,2s-.21,1.86-1.52,1.83c-1.06,0-2.14.1-3.19,0-1.56-.18-1.87.51-1.86,1.93.07,5.06.39,4.44-4.41,4.38-1.49,0-2,.4-1.86,1.88.1.8,0,1.63,0,2.44.09,1.38-.17,2.24-1.89,2.26s-2.2-.8-2-2.3a1.81,1.81,0,0,0,0-.19c0-4.15,0-4.1-4.16-4.09-1.23,0-1.7.34-1.6,1.58s0,2.38,0,3.57c0,1.41-1,1.38-1.93,1.38s-1.94,0-1.91-1.42c0-1.06,0-2.13,0-3.19,0-.38.14-.86,0-1.11-1.19-1.67-2.94-.42-4.4-.76-.77-.18-1.33.08-1.29,1.07,0,1.25,0,2.51,0,3.76,0,1.53-.89,1.67-2.09,1.68s-1.92-.36-1.86-1.71c0-1.06-.08-2.14,0-3.19.14-1.37-.45-1.65-1.72-1.65-5,0-4.6.74-4.53-4.44,0-1.5-.45-2-1.92-1.87-.87.1-1.76,0-2.63,0-1.39.1-2.08-.35-2.07-1.89s.5-2.13,2-2a5.2,5.2,0,0,0,.56,0c4.19,0,4.14,0,4.07-4.2,0-1.29-.5-1.62-1.67-1.53-1,.07-2,0-3,0-1.5.08-2-.64-1.94-2.05s.51-2,1.89-1.89c.25,0,.5,0,.75,0,4.32,0,4.48-.22,4-4.66-.1-.81-.4-1.08-1.17-1.06-1.25,0-2.51,0-3.76,0s-1.65-.76-1.65-1.94.18-2,1.6-2,3.5.65,4.56-.29.3-3,.41-4.5c.08-1.13.66-1.46,1.71-1.51,1.48-.08,3.43.71,4.29-.38.71-.9.31-2.76.25-4.19s.59-2,2-2,2.1.57,2,2c0,.19,0,.38,0,.56,0,4.25.51,4.64,4.8,4,.76-.11.92-.46.91-1.1,0-1.32,0-2.63,0-3.95s.81-1.5,1.85-1.49,2.07,0,2,1.52c0,1.19,0,2.38,0,3.57,0,1,.2,1.43,1.33,1.47,4.37.16,4.37.2,4.41-4.22,0-2.15.34-2.43,2.35-2.34,1.09,0,1.58.48,1.6,1.59,0,1.56-.65,3.52.27,4.55s3,.27,4.5.37c1.15.07,1.44.72,1.51,1.73.11,1.47-.7,3.43.41,4.29.92.71,2.77.31,4.2.26s1.94.63,1.93,2-.52,2-1.89,1.89c-.37,0-.75,0-1.13,0-3.56,0-3.48,0-3.58,3.54-.05,1.67.38,2.47,2.15,2.16a5.52,5.52,0,0,1,.94,0ZM167.55,92c4.07,0,8.13,0,12.19,0,1.3,0,1.71-.35,1.7-1.68q-.08-12.1,0-24.2c0-1.36-.3-1.84-1.76-1.83q-12.1.1-24.2,0c-1.39,0-1.81.37-1.8,1.79q.1,12.1,0,24.2c0,1.28.32,1.74,1.67,1.71C159.42,91.91,163.48,92,167.55,92Z"/><path class="cls-2" d="M160.77,78c0-1.75,0-3.5,0-5.25,0-1.05.44-1.46,1.44-1.46,3.5,0,7,0,10.5,0,1.17,0,1.66.59,1.65,1.76q0,5.06,0,10.12c0,1.19-.49,1.73-1.67,1.73-3.31,0-6.62,0-9.94,0-1.32,0-2.09-.52-2-2s0-3.25,0-4.87Z"/><path class="cls-3" d="M14.09,61.6c-.06-2,1.08-3.18,2.61-4a18.78,18.78,0,0,1,7.08-2,30.78,30.78,0,0,1,13.73,1.17,6.92,6.92,0,0,1,3.78,2.47,3.89,3.89,0,0,1,.7,2c0,9.21,0,18.41,0,27.62A3.82,3.82,0,0,1,40.19,92a15.47,15.47,0,0,1-6.64,2.34c-.82.14-1.65.22-2.55.34,0,2.82-2,3.95-4.26,4.78A26.53,26.53,0,0,1,15,100.92a55.8,55.8,0,0,1-7.48-1.36,8.88,8.88,0,0,1-2.7-1.33A3.9,3.9,0,0,1,3,94.7c0-9,0-18.06,0-27.1a3.84,3.84,0,0,1,1.79-3.24,16.12,16.12,0,0,1,7.14-2.47C12.61,61.78,13.3,61.71,14.09,61.6Zm-9.16,27c0,2,0,4,0,6A2.44,2.44,0,0,0,6.19,97a9.59,9.59,0,0,0,2,.93,30.31,30.31,0,0,0,13.44.88,25.92,25.92,0,0,0,5.59-1.54,3,3,0,0,0,1.73-1.87c.22-2.26.08-4.56.08-6.84A29.52,29.52,0,0,1,4.93,88.6Zm0-9.57c0,1.53,0,2.92,0,4.3,0,3.2.15,3.42,3.22,4.49l.2.05a27.89,27.89,0,0,0,12,1.11,18.65,18.65,0,0,0,7.74-2.31c.38-.23.9-.66.91-1,.08-2.18,0-4.36,0-6.69a24.37,24.37,0,0,1-12,2.71A24.28,24.28,0,0,1,4.93,79ZM29,69.75a29.32,29.32,0,0,1-24.08,0,45,45,0,0,1,0,5A2.69,2.69,0,0,0,7,77.95l.19.08c4.29,1.85,8.79,2,13.34,1.55a18,18,0,0,0,7.53-2.29c.38-.22.89-.66.91-1C29.06,74.09,29,71.91,29,69.75Zm-11.78.66c.62,0,1.63,0,2.63-.14a19.54,19.54,0,0,0,8.34-2.45c.94-.57,1-1.12.14-1.74a11,11,0,0,0-3.11-1.6,32.36,32.36,0,0,0-12.84-.75,13.67,13.67,0,0,0-6.05,1.77,3.46,3.46,0,0,0-1.28,1.65c-.07.19.81.83,1.34,1.11C9.68,69.94,13.23,70.35,17.24,70.4ZM16.09,61.5c.4,0,.78,0,1.15,0,3.53.12,7.05.4,10.29,1.94a6.11,6.11,0,0,0,3.42.49c.45,0,.9-.11,1.35-.18a19.49,19.49,0,0,0,6.92-2.2c1.05-.6,1.14-1,.2-1.79a7.88,7.88,0,0,0-2.53-1.39,31.27,31.27,0,0,0-14.78-.69,23,23,0,0,0-4.81,1.61A2,2,0,0,0,16.09,61.5ZM31,85v7.67c2.63-.2,5.17-.48,7.42-1.77A3.16,3.16,0,0,0,40,89.06c.2-2.27.08-4.57.08-6.62Zm9.08-21.37-9.22,2.47V73.4a20.23,20.23,0,0,0,8.26-2.21c.39-.22.9-.66.92-1C40.13,67.93,40.09,65.68,40.09,63.66Zm0,9.38L31,75.64v7.13c.56-.06,1-.09,1.45-.15a17.65,17.65,0,0,0,6.56-2c.42-.24,1-.69,1-1.07C40.14,77.31,40.09,75.06,40.09,73Z"/><g class="cls-4"><circle class="cls-5" cx="95.81" cy="76.83" r="71.65"/></g><g class="cls-6"><circle class="cls-5" cx="95.81" cy="78.01" r="71.65"/></g><path class="cls-2" d="M98.11,70c.09,1.15.84,1.56,1.78.92,1.49-1,2.92-2.1,4.4-3.11.61-.41.56-.69,0-1.13a12.45,12.45,0,0,0-4.58-2.47c-2-.56-2-.58-1.9,1.51C97.94,67.14,98,68.57,98.11,70Z"/><path class="cls-2" d="M90.72,79.64c-1.8.31-3.54.57-5.25.93-.73.16-1.14.55-.65,1.46a13.7,13.7,0,0,0,3.77,4.54c.29.22.64.72.94,0,.73-1.79,1.51-3.57,2.18-5.38C92,80.31,91.58,79.74,90.72,79.64Z"/><path class="cls-2" d="M94.21,70c.13-1.43.2-2.86.31-4.47a1.88,1.88,0,0,1,0-.51c.25-1.2-.31-1.27-1.27-1A13.19,13.19,0,0,0,88,66.68c-.52.44-.58.73,0,1.14,1.45,1,2.85,2.07,4.3,3.06C93.34,71.59,94.1,71.23,94.21,70Z"/><path class="cls-2" d="M94,76.06a2.52,2.52,0,0,0,2.07,2.5,2.3,2.3,0,0,0,2.16-2.19,2.19,2.19,0,0,0-1.8-2A2.4,2.4,0,0,0,94,76.06Z"/><path class="cls-2" d="M89.4,76c1.28-.4,1.49-1.21.52-2.11-1.28-1.2-2.63-2.32-3.91-3.52-.52-.49-.74-.45-1.07.19a13.89,13.89,0,0,0-1.45,5.72c0,1.46,0,1.48,1.4,1.06S87.91,76.42,89.4,76Z"/><path class="cls-2" d="M102.29,74c-.83.79-.59,1.6.54,2,1.67.52,3.36.94,5,1.46.72.22.89,0,.9-.69a12.81,12.81,0,0,0-1.83-6.94C105.33,71.22,103.78,72.57,102.29,74Z"/><path class="cls-2" d="M95.81,46.08a30.76,30.76,0,1,0,30.76,30.76A30.76,30.76,0,0,0,95.81,46.08Zm19.81,35.81c-.74-.27-1.47-.56-2.22-.79A1.74,1.74,0,0,0,111,82.25a15.12,15.12,0,0,1-5.63,7.06,1.59,1.59,0,0,0-.59,2.35c.4.78.93,1.49,1.39,2.24s.69,1.65-.26,2.17-1.55-.19-1.9-1-.57-1.66-.91-2.47A1.59,1.59,0,0,0,101,91.5a16,16,0,0,1-9.61-.14c-1-.32-1.4.53-1.74,1.15-.44.8-.62,1.74-1,2.58s-.88,1.45-1.82,1S86,94.77,86.47,94s1-1.46,1.37-2.25a1.75,1.75,0,0,0-.63-2.5,15.45,15.45,0,0,1-5.5-6.82c-.56-1.29-1.27-1.63-2.68-1.21-.75.23-1.47.56-2.22.79s-1.78.21-2-.87.57-1.35,1.42-1.53c1.28-.27,2.73.1,3.82-.91s.22-2.43.38-3.65a17.29,17.29,0,0,1,2.08-6.7A1.6,1.6,0,0,0,82,66c-.7-.53-1.48-.94-2.23-1.41s-1.33-1.22-.71-2.07,1.44-.51,2.15.1c1,.83,1.54,2.21,2.95,2.4s2-1.38,3.1-2A18.77,18.77,0,0,1,93,60.66c1.79-.34,2.36-.91,2.31-2.18-.1-.73-.22-1.46-.3-2.2s-.13-1.42.58-1.87a1.09,1.09,0,0,1,1.3,0,1.77,1.77,0,0,1,.53,1.89c-.13.73-.17,1.47-.23,2.2a1.74,1.74,0,0,0,1.71,2.13,14.07,14.07,0,0,1,7.85,3.83,1.68,1.68,0,0,0,2.63,0c.59-.52,1.11-1.11,1.67-1.66s1-.92,1.69-.72a1.09,1.09,0,0,1,.84,1,1.77,1.77,0,0,1-1.07,1.65c-.67.41-1.37.78-2,1.24a1.7,1.7,0,0,0-.58,2.56,15.19,15.19,0,0,1,2,8.79,1.65,1.65,0,0,0,1.57,2c.91.15,1.84.18,2.74.37s1.69.56,1.42,1.51S116.49,82.2,115.62,81.88Z"/><path class="cls-2" d="M102.08,79.7c-1.34-.22-1.92.47-1.42,1.75.62,1.59,1.34,3.14,1.94,4.73.32.84.66.78,1.27.29a13.86,13.86,0,0,0,3.59-4.34c.13-.24.22-.51.41-1-.56-.17-.9-.67-1.57-.77C104.89,80.2,103.49,79.93,102.08,79.7Z"/><path class="cls-2" d="M97,82.89c-.52-.85-1.33-.78-1.88.09s-.95,1.69-1.41,2.54C91.89,88.92,92,89,96.27,89.07a10.47,10.47,0,0,0,3.16-.38c.33-.08.75-.15.43-.73C98.9,86.27,98,84.54,97,82.89Z"/></svg>