<svg id="Layer_1" data-name="Layer 1" xmlns="http://www.w3.org/2000/svg" xmlns:xlink="http://www.w3.org/1999/xlink" viewBox="0 0 1021.67 139.06"><defs><clipPath id="clip-path"><rect x="0.33" y="18.01" width="1023" height="96.01" fill="none"/></clipPath></defs><title>form images</title><g clip-path="url(#clip-path)"><path d="M444.35,10h1.84c.07.47.13.93.2,1.4l-.48,42-.3.3L446,54l-5,2.07c.9-7.73-2.48-9.57-13.9-7.46-2.89.53-5.74,1.06-7,3.41-1.17,2.08-4.12,3.05-7.39,2.94-5.16-.18-10.35-.37-15.42-1-3.66-.42-7.95-1.62-10,.89-2.34,2.83,3.08,3.85,4.95,5.73,1.62,1.63,6.2,2.63,1.48,5.3-4.42,2.5-7.21,1.1-9.73-1.28a9.74,9.74,0,0,1-1.8-3.39c-1.06-2.33-2.05-4.67-3.07-7-2.54-1.59-5.7-1.09-8.67-1.1-13.95,0-28-.62-41.84.17-9.85.56-12.32-1.67-10.6-7.53,2.81-2.1,1.74-4.68,1.78-7.07.13-7,0-13.92,0-20.88l2.61-1c-1.19,8.12,5.38,9.73,14.37,9.71a11,11,0,0,1,5.53,2c4.66,3.2,8.86,2,12.69-.5,5-3.26,9.81-6.63,14.34-10.17s8-4.67,10.83.77c1,10.67-1.55,21.42,1.34,32.07a2.31,2.31,0,0,0,3,.1C404.59,37.29,425.16,24.08,444.35,10Z" fill="#ee6430"/><path d="M510.42,10h62.4l.27,1.34C558.37,21.36,543.53,31.35,529,41.53c-5,3.46-12.78,5-15.07,10.22-1.42.39-2,1.11-1.78,2.1l-3.51.41c.72-2-.64-3.57-2.72-4.83C497,44,488.09,38.7,479.19,33.35l-.86-2.53C490.68,25,499.31,16.63,510.42,10Z" fill="#e55626"/><path d="M705,10h62.4c-9.28,7.56-21.43,13.36-29.51,21.65a234.94,234.94,0,0,0-32,20.81l-2.66.75c-9.31-7.27-18.39-14.71-30.78-19.83.15-.8.3-1.59.44-2.39C683.17,23.71,695.64,17.92,705,10Z" fill="#ee6430"/><path d="M672.82,31l-.45,2.39c-4.12.07-6.18,2.23-8.72,3.89q-12.24,8-24.43,16L606,30.8c-3.93-2.77-7.77-5.6-11.83-8.28-5.9-3.9-12-7.7-17.94-11.54q-.36-.57.3-1H604c13.48,9.53,23.72,10.18,38.62,2.47,8.84,4.26,14.56,10.81,24,14.64Z" fill="#e55626"/><path d="M-7.11,140.49v-1.23c11.34-6.34,21.38-13.55,31.33-20.82a17.09,17.09,0,0,1,1.75-.09,303.94,303.94,0,0,0,31,20.84V97.84l.12-1.77L56.84,54.5a12.87,12.87,0,0,1,1.65-.25q.28,40.05.55,80.1c0,1.2,0,2.4,0,3.59,1.69,2.22,4.81,1.37,7.32,1.37,18.32.05,36.64,0,55,0l2.24.34q-.3,19.2-.57,38.41a3,3,0,0,0,2.09,3.18l-2,2.4-3,.36-.68-.31c-7.31-8.74-19.41-14.49-29.6-21.44,8.6-5.78,17.24-11.53,25.79-17.35,1.43-1,3.54-2.23,2-3.65-.75-.69-3.27-.71-5-.71q-27,0-54,0l-2.25.12C35.27,137,14.07,140.73-7.11,140.49Z" fill="#e55626"/><path d="M576.49,10q-.66.45-.3,1-.06,19.21-.09,38.44c0,1.37-.35,2.92,2.12,3.69l-.09.28c7,8.79,18.77,14.58,29.77,20.84L577.51,94.86c-.09-12-3.66-23.07-2.84-34.26.11-1.49,1.16-3.65-1.84-4.31-2.24-.5-3.58,1.25-5.05,2.22-7,4.6-13.81,9.27-20.82,13.84-1.77,1.16-3.65,3.57-6.64,1.42-9.3-6.7-20.58-12.14-28.19-19.92-.19-1,.36-1.71,1.78-2.1,2.37,1.9,5.64,1.22,8.57,1.23,11.31.08,22.62,0,33.94,0,18.2,0,18.52,0,18.06-12.41-.35-9.76,1.88-19.6-1.39-29.3L572.82,10Z" fill="#e96129"/><path d="M317.88,45.76c-1.72,5.86.75,8.09,10.6,7.53,13.86-.79,27.89-.2,41.84-.17,3,0,6.13-.49,8.67,1.1q-29.39,20-58.8,40c-.75.51-2.23.53-3.38.78.27-9.78-1.33-19.58.69-29.34,2.32-2.19,4.31-4.36-.78-6.13-.94-1.35-.62-3.08-2.7-4.09-3.73-2.39-9,0-12.93-1.91a31.29,31.29,0,0,1,5.43-.28c8.72,1.07,10-1.89,9.72-6.91-.54-9.19,0-18.4-.3-27.6-.08-2.5,1.72-5.33-1.76-7.52,0-.43-.09-.86-.13-1.29h3.67Q317.79,27.86,317.88,45.76Z" fill="#e55626"/><path d="M769.18,10h3.67c9.48,7.56,19.15,15,30.88,21.09,5.45,7.89,15.89,12.38,25.95,17.14q.93,2.33,1.88,4.65l-59.07.57-2.5-.24L769.3,53c-.12-.48-.25-1-.38-1.43Q769.06,30.77,769.18,10Z" fill="#e96129"/><path d="M121.35,10h1.84l2.12,1.86c-5,9.35-1.76,19-1.56,28.46,0,1.85,5,3.7,3.14,6.64-6.3.24-5.11,3.6-5.73,6.21H60.7L60.18,53h-.57c.46-.76.91-1.52,1.36-2.28A326.48,326.48,0,0,0,90.35,31C101.31,24.39,112.26,17.79,121.35,10Z" fill="#e96129"/><path d="M59.62,53l.56,0,.52.13-2.21,1.11a12.87,12.87,0,0,0-1.65.25L25.62,75.07l-1.27,0C16.75,68.39,6,63.65-1.27,56.74c-1.32-1.26-3.59-1.44-5.84-1.22V51.83c11.13-6.46,22.78-12.56,31-21H26.1C35,39.18,46.74,45.72,57.2,53.08Z" fill="#e55626"/><path d="M26.1,30.84H23.84L-7.11,11.19C-5.46,8.64-2.15,10,.23,10Q60.8,9.88,121.35,10c-9.09,7.83-20,14.43-31,21-3-1-1.09-4.56-4.94-4.7-7.36-.25-10-4.19-13.78-7.25a23.45,23.45,0,0,0-13.77-5.17c-1.48-2.73-3.43-2.08-5.81-.47C43.44,19.24,34.75,25,26.1,30.84Z" fill="#ee6430"/><path d="M-7.11,55.52c2.25-.22,4.52,0,5.84,1.22,7.29,6.91,18,11.65,25.62,18.35L-5.39,96.15A35.63,35.63,0,0,0-2.83,99.3c7.38,7.42,19.24,12,27.05,19.14-9.95,7.27-20,14.48-31.33,20.82Z" fill="#e96129"/><path d="M961.88,10h64.23c-6.94,6.45-16.35,11.31-24.4,17.05-4.27,3-6.06,5.66-.11,9.05,5.73,3.27,10.89,7,17.13,9.91l4.94,7c-20.12-.08-39.16.75-58.22-.43,6.53-6.94,16.39-11.74,24.81-17.48,2.24-1.52,6.8-2.82,2-5.76C983,23.54,974.77,17,964.17,12.2L961.73,11A2,2,0,0,1,961.88,10Z" fill="#e55626"/><path d="M185.59,10h64.23c0,.39,0,.78,0,1.18-3,3.73-9.86,4.95-12.53,8.86l-.15.07-1.69,1.12c-15.8,10.53-32.26,20.64-47,31.86l-3.28.14a2.65,2.65,0,0,1-1.64-.25c0-.74,0-1.49,0-2.24,4.66-.38,5.68-2.5,5.65-5.21-.07-7.1.7-14.25-.41-21.26-.61-3.81,1.34-8.82-5.92-11.29Z" fill="#ee6430"/><path d="M444.35,10c-19.19,14.12-39.76,27.33-59.93,40.81a2.29,2.29,0,0,1-3-.11q.16-17.28.32-34.57L382,10Z" fill="#e96129"/><path d="M1028,97.39v41.87l-16.2.22H975l-1.39-1.82c8.58-2,10.69-8,16.88-11.06,4.24-2.1,3.06-3.76,2.54-6a1.18,1.18,0,0,0,.13-.8l33.5-22.13.78.16Z" fill="#ee6430"/><path d="M897.65,10h3.67c.28,4.21,8.11,4.83,9.17,8.67-5.47-.16-7.91,1.77-9.38,5.21-2.41,5.61-1.2,11.27-1.65,16.91-.16,2,1.09,4.4-1.68,5.73-4.91,2.36-2.27,4.41-.11,6.62l-43.79-.28c1-3,4.58-2.15,7.39-2.19,6.68-.1,13.37,0,20.05-.05,3,0,6.62-.07,7.71-2.33,1-2-2.71-2.31-4.33-3.37-3.23-2.13-6.65-4.15-9.66-6.42-4.17-3.15-8.66-4-14.08-1.56-.82-2.27,2.55-3.11,3.58-4.75C876.48,25.36,886.9,17.55,897.65,10Z" fill="#ee6430"/><path d="M382,10l-.21,6.13-1.66,2.51c-2.81-5.44-6.39-4.24-10.83-.77S359.88,24.74,354.91,28c-3.83,2.51-8,3.7-12.69.5a11,11,0,0,0-5.53-2c-9,0-15.56-1.59-14.37-9.71l-2.61,1c0,7,.08,13.92,0,20.88,0,2.39,1,5-1.78,7.07q-.08-17.89-.16-35.8Z" fill="#e96129"/><path d="M965.45,52.53c19.06,1.18,38.1.35,58.22.43l-4.94-7c-.38-4.48,5-4.37,9.22-5.22V54.29c-11.8,5.56-20.47,13.34-31.07,19.74a14.17,14.17,0,0,0-1.6.09c-10.11-7-21.25-13.3-29.88-21.2Z" fill="#ee6430"/><path d="M897.65,10c-10.75,7.59-21.17,15.4-33.11,22.19-7.78-7.57-18.33-13.27-29.35-20.28V49.29c-2.73-1.63-1.55-3.8-1.58-5.74-.14-11.2-.14-22.39-.2-33.59Z" fill="#e96129"/><path d="M833.41,10c.06,11.2.06,22.39.2,33.59,0,1.94-1.15,4.11,1.58,5.75l.3,3.69-2.08.18-1.85-.33q-.94-2.33-1.88-4.65c3.24-9.5,2.41-19,.06-28.51-.41-1.65,1.53-4.16-1.93-4.76-2.73-.48-4.73,1.52-6.69,2.79-6.35,4.12-12.7,8.24-17.39,13.34C792,25,782.33,17.52,772.85,10Z" fill="#ee6430"/><path d="M249.86,11.14c0-.4,0-.79,0-1.18h64.23c0,.43.09.86.13,1.29L281.26,33c-.09-2.73-2.81-4.41-5.45-6.13C267.45,21.4,259.24,15.83,249.86,11.14Z" fill="#e55626"/><path d="M769.18,10q-.12,20.82-.26,41.63c-12.61-5.08-21.31-12.9-31.08-20,8.08-8.29,20.23-14.09,29.51-21.65Z" fill="#e96129"/><path d="M-7.11,140.49c21.18.24,42.38-3.52,63.54.16-9,6.92-20,12.64-27,20.71l-4.63.3-24.57-17A9.52,9.52,0,0,0-7.11,143Z" fill="#e96129"/><path d="M510.42,10C499.31,16.63,490.68,25,478.33,30.82L446.39,11.36l-.2-1.4Z" fill="#e55626"/><path d="M996.88,74c10.6-6.4,19.27-14.18,31.07-19.74V96.16l-.8-.13-.82,0-1.78-.29c-1-2.54-4.24-3.81-6.63-5.59C1010.78,84.89,1001.47,80.84,996.88,74Z" fill="#e96129"/><path d="M185.59,10l-2.67,3,.06.1c-.59-.06-.95.1-1.11.48L156,30.69c-3.65.19-5.23-1.76-7.35-3.19Q137,19.66,125.31,11.82L123.19,10Z" fill="#ee6430"/><path d="M-7.11,11.19l31,19.65C15.67,39.27,4,45.37-7.11,51.83Z" fill="#e96129"/><path d="M910.49,18.63c-1.06-3.84-8.89-4.46-9.17-8.67h55L958,13.09l-.7-.06-.22-.44c-2,.32-2.41,1.32-2.29,2.52l0-.21-2.06,1.37.15-.16L951,17.76l-1.35.94-2.31,1.06c-6,3.48-9.54,8.57-16.42,11.49C922.94,27.9,918.07,22.28,910.49,18.63Z" fill="#e55626"/><path d="M1028,40.74c-4.2.85-9.6.74-9.22,5.22-6.24-2.89-11.4-6.63-17.13-9.9-6-3.39-4.16-6,.11-9,8-5.74,17.46-10.6,24.4-17,3.62-.19,1.73,1.68,1.74,2.46C1028,21.86,1028,31.3,1028,40.74Z" fill="#e96129"/><path d="M666.6,27.07c-9.41-3.83-15.13-10.38-24-14.64L640.72,10h27.53c.6,2.8,4.42,2.31,7,3,3.66,1,4.59,3.15,5.27,5.29.88,2.76-3,2.28-5.11,3.16C672,22.87,667.91,24.06,666.6,27.07Z" fill="#e55626"/><path d="M666.6,27.07c1.31-3,5.36-4.2,8.81-5.66,2.07-.88,6-.4,5.11-3.16-.68-2.14-1.61-4.31-5.27-5.29-2.58-.69-6.4-.2-7-3H705c-9.31,8-21.78,13.75-32.14,21Z" fill="#e96129"/><path d="M640.72,10l1.91,2.47C627.73,20.14,617.49,19.49,604,10Z" fill="#ee6430"/><path d="M958,13.09,956.37,10h5.51a2,2,0,0,0-.15,1Z" fill="#ee6430"/><path d="M512.13,53.85c7.61,7.78,18.89,13.22,28.19,19.92,3,2.15,4.87-.26,6.64-1.42,7-4.57,13.86-9.24,20.82-13.84,1.47-1,2.81-2.72,5.05-2.22,3,.66,1.95,2.82,1.84,4.31-.82,11.19,2.75,22.28,2.84,34.26L607.9,74.22l29.21-18.68c2.89,1.82,1.79,4.21,1.84,6.36.26,11.62.37,23.25.52,34.88a6.22,6.22,0,0,1-1.78-.14c-21.9-.16-43.79-.54-65.68-.39-15.19.1-30.42-.73-45.57.6l-13.26-.13,0-1-.36.88-.25-.1a1.76,1.76,0,0,0-2.13.9L509,99a57,57,0,0,0-5.68,2.91q-27.54,18.15-54.95,36.37c-4.5-3-1-6.85-2.62-10.14V98.67c-10.05,6-19.05,10.77-27.14,16.35-4.07,2.8-3.81,4.37.21,6.9,7.58,4.75,14.7,9.83,22,14.78,1.1,1.19,1.24,2.32-.43,3.35l-58.4,0c-.18-2.43-.43-4.87-.53-7.3-.47-11,1-22-.63-32.91,0-.91,0-1.82,0-2.72l14.2-9.42c2.84.9-1.37,3.18,1.85,4.11.95-.77,2.47-2.25,2.71-2.16C406,92,409.81,87.4,415.44,87.15s7.27-5.34,3.49-8.48c-1.71-1.41-4.06-2.53-3.87-4.63l25.87-18L446,54V95.12l3,1c4.56-3.51,9-7.11,13.71-10.53,14.81-10.77,31.72-20.17,45.92-31.34Z" fill="#ee6430"/><path d="M440.93,56,415.06,74c-7.11,4.27-14.13,8.6-20,13.69l-14.2,9.42c-19.43,1-39-.72-59.25,1.55,6.54,5.49,13.69,9.91,19.88,14.9,7.14,5.77,7.13,5-.63,10.74-6.6,4.85-15.87,8.14-19.65,14.68l-7,.12-1.76-.39c-.54-2.47-3.69-3.59-6-5.14-7.36-5-15.5-9.58-21.79-15.31l30-20.68c1.78-.46,1.93-1.53,2.11-2.59,1.15-.25,2.63-.27,3.38-.78q29.46-20,58.8-40c1,2.33,2,4.67,3.07,7a9.74,9.74,0,0,0,1.8,3.39c2.52,2.38,5.31,3.78,9.73,1.28,4.72-2.67.14-3.67-1.48-5.3-1.87-1.88-7.29-2.9-4.95-5.73,2.07-2.51,6.36-1.31,10-.89,5.07.58,10.26.77,15.42,1,3.27.11,6.22-.86,7.39-2.94,1.3-2.35,4.15-2.88,7-3.41C438.45,46.46,441.83,48.3,440.93,56Z" fill="#e55626"/><path d="M508.62,54.26c-14.2,11.17-31.11,20.57-45.92,31.34C458,89,453.55,92.62,449,96.13l-3-1V54l-.34-.29.3-.3c10.42-7.19,20-15,33.28-20C488.09,38.7,497,44,505.9,49.43,508,50.69,509.34,52.24,508.62,54.26Z" fill="#e55626"/><path d="M479.19,33.35c-13.28,5-22.86,12.83-33.28,20l.48-42,31.94,19.46C478.61,31.66,478.9,32.51,479.19,33.35Z" fill="#e96129"/><path d="M380.08,18.6l1.66-2.51q-.17,17.3-.32,34.57C378.53,40,381.09,29.27,380.08,18.6Z" fill="#e55626"/><path d="M573.09,11.3c3.27,9.7,1,19.54,1.39,29.3C574.94,53,574.62,53,556.42,53c-11.32,0-22.63.05-33.94,0-2.93,0-6.2.67-8.57-1.23C516.2,46.55,524,45,529,41.53,543.53,31.35,558.37,21.36,573.09,11.3Z" fill="#ee6430"/><path d="M703.15,53.17l2.66-.75c7.33,1.75,14.35-1.66,21.62-.6,13.86,2,27.92.7,41.87,1.2l.68.15c-1.55,13-.51,26.1-.75,39.15,0,1.58.4,2.91,3.55,2.39,2.11,1.78,5.17,2.23,8.16,2,16.91-1.17,33.86-.3,50.77-.71l1.47-.89a5.32,5.32,0,0,0,1.59-.08l2.35.31c3,1.34,6.47.76,9.73.79,14.51.13,29,.17,43.55.24a5.08,5.08,0,0,0-.28.8c-12.38,0-24.76-.26-37.13-.09-5.91.07-12.15-1-17.66,1.44a9.37,9.37,0,0,0-1.3-.11,1.44,1.44,0,0,1-.5-.55,1.47,1.47,0,0,0-2,.49l-15.94,10.17c-2.53,0-4.08.76-4.11,2.59l.15-.12c-2.47,0-3.83.82-3.87,2.52l.09-.14-2,1.55-1.41.94c-2.45,0-3.75.87-4.09,2.46l-29.57,20.95-1.79,1.29L736.3,161.67l-15.1-9.9c-6.48-2.94-8.56-9.47-18-10-1.59-1.19-3.72-1.26-5.88-1.26l-56.71,0,0,0c0-.81,0-1.63,0-2.45,4-.25,5.1-3.25,8.55-4,1.84.1,3.41-.15,4.19-1.44l-.49.14-.19-.32c1.48.08,3.74.6,4.3.16,4.61-3.69,10.24-2.83,17.35-1.14-2.48-4.26-1.68-7.6-.18-10.91,4,2.11,7.76,4.5,11.68,6.62,6.48,3.51,10.46,9,18.82,10.93a2.83,2.83,0,0,0,3.18.2q14.25-10,28.39-20l1.42-.11c6,6.46,16.32,10.24,22.91,16.38a8.17,8.17,0,0,0,6.53,1.59c3.07-.6,2-2.71,2-4.23.09-7.75.23-15.5,0-23.25-.13-3.57,1.63-7.37-1.91-10.69l.18-1.8c-9.37-7.7-20.73-14.06-31.06-21.11-6.26-6.72-16.78-10.63-24.27-16.54-1.41-1.12-3-3.13-5.8-2.17-2.18.74-1.18,2.6-1.19,4-.06,11.88,0,23.76,0,35.64l-2.31.49.36-.23c-6.92-5.4-13.94-10.7-22.57-15-3.07-1.52-6.44-3.2-6.87-6.19,1.52-3,5.43-4.78,8.49-7C689.13,63.13,697.49,59,703.15,53.17Z" fill="#e55626"/><path d="M703.15,53.17c-5.66,5.84-14,10-21,15-3.06,2.21-7,3.94-8.49,7-10.83,5-19.55,11.46-27.88,18.19l-5,2.9-1.3.56c-.15-11.63-.26-23.26-.52-34.88-.05-2.15,1-4.54-1.84-6.36a4,4,0,0,1,0-1.14l2.08-1.19q12.21-8,24.43-16c2.54-1.66,4.6-3.82,8.72-3.89C684.76,38.46,693.84,45.9,703.15,53.17Z" fill="#e96129"/><path d="M769.3,53c-13.95-.5-28,.82-41.87-1.2-7.27-1.06-14.29,2.35-21.62.6a234.94,234.94,0,0,1,32-20.81c9.77,7.08,18.47,14.9,31.08,20C769.05,52.06,769.18,52.54,769.3,53Z" fill="#e55626"/><path d="M639.22,53.21l-2.08,1.19c-2-.43-4-1.23-6-1.24-17.66,0-35.32.13-53,.23l.09-.28c.07-3.76,4.61-5.54,8.09-7.53,7.6-4.34,15.76-8.25,19.65-14.78Z" fill="#ee6430"/><path d="M606,30.8c-3.89,6.53-12.05,10.44-19.65,14.78-3.48,2-8,3.77-8.09,7.53-2.47-.77-2.11-2.32-2.12-3.69q0-19.22.09-38.44c6,3.84,12,7.64,17.94,11.54C598.19,25.2,602,28,606,30.8Z" fill="#e96129"/><path d="M59.08,137.94c0-1.19,0-2.39,0-3.59,2.43-1.94,1.58-4.27,1.61-6.47.13-10.61.18-21.22.26-31.83l60.58,0a4.39,4.39,0,0,0,1.77.08h0l1.81,1.35c0,.37,0,.74,0,1.11-1.84,1-2,2.43-2,3.86q.12,18.52.26,37l.22.15-2.24-.34c-2.74-1.87-6.27-1.2-9.49-1.22C94.27,138,76.67,138,59.08,137.94Zm62.13-38.62c-9.5,3.27-15.45,8.31-23.44,11.6-3,1.24-8,5.1-4.19,9a63.17,63.17,0,0,0,22,14.32c2.7,1.07,5.57,1.47,5.6-1.57C121.28,121.7,121.21,110.77,121.21,99.32Z" fill="#ee6430"/><path d="M60.91,96.05c-.08,10.61-.13,21.22-.26,31.83,0,2.2.82,4.53-1.61,6.47q-.27-40-.55-80.1l2.21-1.11h60.46c-.08.74-.17,1.48-.25,2.22a18.66,18.66,0,0,0-4,1.41C102.45,66.49,87.54,76,73.86,86.21,69.55,89.44,62.66,91.31,60.91,96.05Z" fill="#e96129"/><path d="M24.22,118.44c-7.81-7.15-19.67-11.72-27-19.14a35.63,35.63,0,0,1-2.56-3.15H53.48l3.6-.08L57,97.84a5.25,5.25,0,0,0-1.13-.21l-1.91,1.42L26,118.35A17.09,17.09,0,0,0,24.22,118.44Z" fill="#e55626"/><path d="M57.08,96.07l-3.6.08c-.55-2.65-3.8-4-6.19-5.77-7-5.22-15.58-9.48-21.67-15.31L56.84,54.5Z" fill="#ee6430"/><path d="M26,118.35,53.92,99l1.91-1.41a5.25,5.25,0,0,1,1.13.21v41.35A303.94,303.94,0,0,1,26,118.35Z" fill="#ee6430"/><path d="M59.08,137.94c17.59,0,35.19,0,52.79.11,3.22,0,6.75-.65,9.49,1.22-18.32,0-36.64.09-55,0C63.89,139.31,60.77,140.16,59.08,137.94Z" fill="#e96129"/><path d="M578.13,53.39c17.66-.1,35.32-.23,53-.23,2,0,4,.81,6,1.24a4,4,0,0,0,0,1.14L607.9,74.22C596.9,68,585.17,62.18,578.13,53.39Z" fill="#e55626"/><path d="M185.19,53.19l3.28-.13.88-.06c7.15,7.87,18.11,13.42,27.2,20.11,1.46,1.08,3.41.69,4.91-.22,10.1-6.15,21.28-11.58,28.67-19.51l2-.08a2.39,2.39,0,0,0,1-.11l2.17.3a190.28,190.28,0,0,0,38.55,0l7.24,0c3.91,1.86,9.2-.48,12.93,1.91-17.59,10.06-32.55,21.9-49.13,32.64-3.65,2.36-8.15,4.37-9.67,7.94L250,97.53,248.79,97l-.21,1s0,.34,0,.33c-1.25-.55-2.49-1.55-3.75-1.56-19-.28-38-.43-57-.61l-.51,0-.51,0a.64.64,0,0,0,0-1q.2-18.24.37-36.49a2.9,2.9,0,0,0-2.21-3.09C185.1,54.71,185.14,54,185.19,53.19Z" fill="#e55626"/><path d="M255.22,96.05c1.52-3.57,6-5.58,9.67-7.94C281.47,77.37,296.43,65.53,314,55.47c2.08,1,1.76,2.74,2.7,4.09-.44,2.08-.65,4.15.78,6.13-2,9.76-.42,19.56-.69,29.34-.18,1.06-.33,2.13-2.12,2.59-3-2-6.83-1.32-10.36-1.35C288,96.15,271.59,96.12,255.22,96.05Z" fill="#e96129"/><path d="M301.09,53.56l-7.24,0c-12.85-.56-25.7-.49-38.55,0l-2.17-.3L281.26,33l32.92-21.73c3.48,2.19,1.68,5,1.76,7.52.26,9.2-.24,18.41.3,27.6.3,5-1,8-9.72,6.91A31.29,31.29,0,0,0,301.09,53.56Z" fill="#ee6430"/><path d="M317.5,65.69c-1.43-2-1.22-4-.78-6.13C321.81,61.33,319.82,63.5,317.5,65.69Z" fill="#e55626"/><path d="M831.56,52.84l1.85.33c-.07.48-.15,1-.22,1.44-4.13,1.15-6.42,3.65-9.28,5.74l-22,14.88-1.35.07c-.13-2.17-3.18-2.83-4.8-4.24C788.6,64.83,777,61.2,772.49,53.41Z" fill="#e96129"/><path d="M772.49,53.41C777,61.2,788.6,64.83,795.78,71.06c1.62,1.41,4.67,2.07,4.8,4.24l-27.8,19.41c-3.15.52-3.58-.81-3.55-2.39.24-13-.8-26.11.75-39.15Z" fill="#ee6430"/><path d="M803.73,31.05c4.69-5.1,11-9.22,17.39-13.34,2-1.27,4-3.27,6.69-2.79,3.46.6,1.52,3.11,1.93,4.76,2.35,9.49,3.18,19-.06,28.51C819.62,43.43,809.18,38.94,803.73,31.05Z" fill="#e55626"/><path d="M57.87,13.86A23.44,23.44,0,0,1,71.63,19c3.76,3.06,6.42,7,13.78,7.25,3.85.14,2,3.72,4.94,4.7A326.48,326.48,0,0,1,61,50.74l-3.31-2.83C56.85,36.56,61,25.22,57.87,13.86Z" fill="#e55626"/><path d="M125.31,11.82Q137,19.67,148.61,27.5c2.12,1.43,3.7,3.38,7.35,3.19a2.72,2.72,0,0,1,.24.95c-10.86,4.26-17.66,11.48-27.15,16.74l-.82-.56-1.41-1,.07.05c1.86-2.94-3.1-4.79-3.14-6.64C123.55,30.8,120.36,21.17,125.31,11.82Z" fill="#e55626"/><path d="M120.91,55.35c.08-.74.17-1.48.25-2.22.62-2.61-.57-6,5.73-6.21l-.07-.05,1.41,1,.82.56c-1.63,1.71-5,2.49-5.53,4.79q-.66,15.3-1.33,30.59C119.94,74.33,122.41,64.8,120.91,55.35Z" fill="#e55626"/><path d="M57.66,47.91,61,50.74c-.45.76-.9,1.52-1.36,2.28l-2.41.06C57.35,51.35,57.51,49.63,57.66,47.91Z" fill="#ee6430"/><path d="M57.66,47.91c-.15,1.72-.31,3.44-.46,5.17C46.74,45.72,35,39.18,26.1,30.84,34.75,25,43.44,19.24,52.05,13.39c2.38-1.61,4.33-2.26,5.81.47C61,25.22,56.85,36.56,57.66,47.91Z" fill="#e96129"/><path d="M25.62,75.07c6.09,5.83,14.62,10.09,21.67,15.31,2.39,1.77,5.64,3.12,6.19,5.77H-5.39L24.35,75.09Z" fill="#e96129"/><path d="M964.17,12.2C974.77,17,983,23.54,992.3,29.29c4.76,2.94.2,4.24-2,5.76-8.42,5.74-18.28,10.54-24.81,17.48l-.05.39q-29.61.19-59.23.36c-1.39,0-3.41-.15-4.06-.75-1.43-1.33.77-2.2,1.93-3,8.84-5.87,17.77-11.66,26.67-17.48Q943.9,40.55,957.1,49c1.43.91,2.33,2.82,4.94,2,2.37-.73,1.5-2.53,1.53-3.87C963.83,35.51,964,23.85,964.17,12.2Z" fill="#e96129"/><path d="M964.17,12.2c-.19,11.65-.34,23.31-.6,35,0,1.34.84,3.14-1.53,3.87-2.61.8-3.51-1.11-4.94-2q-13.23-8.46-26.39-16.94a4.84,4.84,0,0,0,.22-.83c6.88-2.92,10.41-8,16.42-11.49l2.31-1.06,1.35-.94,1.86-1.65-.14.17c1.18-.12,1.9-.56,2-1.38l0,.21c1.42-.57,3.16-1,2.29-2.52l.22.44.7.06,3.78-2.1Z" fill="#ee6430"/><path d="M965.39,177.57c-3.31-2.19-1.67-5-1.71-7.44-.16-9.9,0-19.8,0-29.7a3.11,3.11,0,0,1-.09-1.14l1.6-.24c.77,2.75,3.86,4.44,6.19,6.53,5.93,5.32,15.16,8.56,19.9,14.56-2.42,1.68-1.64,3.9-2.27,5.89-.49.11-1,.21-1.51.29l-9.15,0a1.28,1.28,0,0,0-1.82,0C965.32,166.72,965.29,172.12,965.39,177.57Z" fill="#e55626"/><path d="M122.19,83.76q.66-15.3,1.33-30.59l60-.23a2.65,2.65,0,0,0,1.64.25c-.05.76-.09,1.52-.14,2.28-6.83,1.44-10.38,5.52-15,8.64-15.72,10.53-15.84,10.77.06,21.12,5.29,3.45,8.73,8.48,16.81,9.82a.64.64,0,0,1,0,1l-63.62,0h0c-.34-2.83-.69-5.67-1-8.5Z" fill="#ee6430"/><path d="M252.13,53.3l-2,.08L189.35,53l-.88.06c14.76-11.23,31.22-21.34,47-31.88l1.69-1.11.15-.07c9.7-.12,13.64,2.4,14.08,9.56C251.88,37.47,251.91,45.38,252.13,53.3Z" fill="#e96129"/><path d="M252.13,53.3c-.22-7.92-.25-15.83-.72-23.74C251,22.4,247,19.88,237.33,20c2.67-3.91,9.57-5.13,12.53-8.86,9.38,4.69,17.59,10.26,25.95,15.71,2.64,1.72,5.36,3.4,5.45,6.13L253.13,53.19A2.39,2.39,0,0,1,252.13,53.3Z" fill="#e55626"/><path d="M156.2,31.64a2.72,2.72,0,0,0-.24-.95l25.91-17.17L183,14,183,13l-.06-.1c7.26,2.47,5.31,7.48,5.92,11.29,1.11,7,.34,14.16.41,21.26,0,2.71-1,4.83-5.65,5.21C173.94,44.69,164.26,38.69,156.2,31.64Z" fill="#e55626"/><path d="M156.2,31.64c8.06,7,17.74,13,27.4,19.06,0,.75,0,1.5,0,2.24l-60,.23c.5-2.3,3.9-3.08,5.53-4.79C138.54,43.12,145.34,35.9,156.2,31.64Z" fill="#e96129"/><path d="M237.18,20.07l-1.69,1.11Z" fill="#e55626"/><path d="M965.23,139.05l-1.6.24c-5.65-1-3.93-7.29-11.23-7.17L947,128.5c4.72-3.24,5.45-6.1-1.64-8.3-4.37-1.36-5.47-4-5.72-6.9,5.87-4.09,11.82-8.14,17.56-12.31,1.5-1.09,4.78-1.83,3.48-3.8-1-1.57-3.81-.88-5.81-.88q-27,0-53.91.15l-.64-.07-.64,0c7.64-7.21,18.28-12.51,26.91-19.09,1.75-1.33,5.48-3.26,3.17-4.47-4.81-2.51-6.16-8.1-15.34-7.19-5.6.56-11.67-1-11.18-6.31.26-2.79-2.22-4-5.37-5.11a3.78,3.78,0,0,0-.18-1.15c-2.16-2.21-4.8-4.26.11-6.62,2.77-1.33,1.52-3.76,1.68-5.73.45-5.64-.76-11.3,1.65-16.91,1.47-3.44,3.91-5.37,9.38-5.21,7.58,3.65,12.45,9.27,20.44,12.62a4.84,4.84,0,0,1-.22.83c-8.9,5.82-17.83,11.61-26.67,17.48-1.16.77-3.36,1.64-1.93,3,.65.6,2.67.75,4.06.75q29.61-.14,59.23-.36c8.63,7.9,19.77,14.23,29.88,21.2-.29,2.78-3.83,4-6.14,5.8-7.1,5.61-17.07,9.5-21.94,16.43.52,3.56,2.62,6,7.44,8.26,8,3.8,15.5,8.42,18.55,15.19a1.18,1.18,0,0,1-.13.8C983,126.25,974.21,132.71,965.23,139.05Z" fill="#e96129"/><path d="M965.23,139.05c9-6.34,17.81-12.8,27.83-18.45.52,2.24,1.7,3.9-2.54,6-6.19,3.07-8.3,9-16.88,11.06l1.39,1.82h36.72c2.87,4.43-.22,6.82-6.78,7.92,2.65,2.45,6.08,1.13,8.76,1.72-5,3.46-10.15,6.88-15.06,10.41-2.34,1.69-4.71,1.5-7.35.61-4.74-6-14-9.24-19.9-14.56C969.09,143.49,966,141.8,965.23,139.05Z" fill="#e96129"/><path d="M993.19,119.8c-3.05-6.77-10.53-11.39-18.55-15.19-4.82-2.29-6.92-4.7-7.44-8.26l57.35-.56,1.78.29.36,1.59Z" fill="#ee6430"/><path d="M897.67,53.1a3.78,3.78,0,0,1,.18,1.15c-11.58,5.84-19.67,14.16-31.44,19.86-11.38-4.85-19-12.65-31.65-18.83V95.05a5.23,5.23,0,0,1-1.58.08q0-20.26,0-40.52c.07-.48.15-1,.22-1.44l2.08-.18c1.61-1.38,1.69-3.8,5.53-3.65,1,3.27,4.78,3.45,8.67,3.5l4.19,0Z" fill="#e55626"/><path d="M841,49.34c-3.84-.15-3.92,2.27-5.53,3.65l-.3-3.69V11.87c11,7,21.57,12.71,29.35,20.28-1,1.64-4.4,2.48-3.58,4.75-5.85,2.24-10,5.82-14.9,8.76C843,46.05,842.46,48,841,49.34Z" fill="#ee6430"/><path d="M846.06,45.66c4.94-2.94,9.05-6.52,14.9-8.76,5.42-2.43,9.91-1.59,14.08,1.56,3,2.27,6.43,4.29,9.66,6.42,1.62,1.06,5.32,1.34,4.33,3.37-1.09,2.26-4.67,2.31-7.71,2.33-6.68.06-13.37,0-20.05.05-2.81,0-6.4-.76-7.39,2.19l-4.19,0C849.65,50.18,845.39,48.48,846.06,45.66Z" fill="#e55626"/><path d="M1024.55,95.79l-57.35.56c4.87-6.93,14.84-10.82,21.94-16.43,2.31-1.82,5.85-3,6.14-5.8a14.17,14.17,0,0,1,1.6-.09c4.59,6.81,13.9,10.86,21,16.17C1020.31,92,1023.58,93.25,1024.55,95.79Z" fill="#e55626"/><path d="M183,13l.06,1-1.17-.47C182,13.14,182.39,13,183,13Z" fill="#ee6430"/><path d="M957,12.59c.87,1.51-.87,1.95-2.29,2.52C954.62,13.91,955,12.91,957,12.59Z" fill="#ee6430"/><path d="M949.66,18.7l-2.31,1.06Z" fill="#ee6430"/><path d="M952.87,16.11,951,17.76Z" fill="#ee6430"/><path d="M954.78,14.9c-.15.82-.87,1.26-2,1.38Z" fill="#ee6430"/><path d="M321.21,139c3.78-6.54,13.05-9.83,19.65-14.68,7.76-5.71,7.77-5,.63-10.74-6.19-5-13.34-9.41-19.88-14.9,20.21-2.27,39.82-.56,59.25-1.55,0,.9,0,1.81,0,2.72-2.19,10.91.05,21.92-2.07,32.86a142.4,142.4,0,0,1-.68-15.16c0-1.55.47-3.7-3.08-3.71-8.19,0-7.47,6.4-13.14,8.44-2.63,1-.08,2.42.84,3.62,4,5.29,10.68,9.24,15.64,14-18.14-.4-36.27-.41-54.39.2Z" fill="#e55626"/><path d="M448.41,138.27q27.45-18.2,54.95-36.37A57.91,57.91,0,0,1,509,99c3.18,1.39,3.9,3.53,3.86,5.85q-.27,17.09-.61,34.17a5.57,5.57,0,0,1-.49.74l-3.13.5c-8.54-2.07-17.39-.5-26.06-1C471.22,138.67,459.68,140.48,448.41,138.27Z" fill="#e55626"/><path d="M444,140.58l-3.58-.53c1.67-1,1.53-2.16.43-3.35,5.95-1.75,1.72-6.12,4.92-8.57,1.6,3.29-1.88,7.18,2.62,10.14,11.27,2.21,22.81.4,34.19,1,8.67.47,17.52-1.1,26.06,1-7.38,8.08-19.45,13.08-28.85,19.84-2.66,1.92-4-.28-5.65-1.31C464.15,152.68,454.07,146.64,444,140.58Z" fill="#e96129"/><path d="M512.28,139q.32-17.08.61-34.17c0-2.32-.68-4.46-3.86-5.85l1.44-1.54,2.13-.9.24.1s.34.07.34.07l13.26.13c15.36,1.59,30.8.05,46.19.64-2.81,1.8-6.34,1.11-9.58,1.12-13.39,0-26.79,0-40.18,0-2,0-4.7-.55-5.67,1.13s1.52,2.5,2.92,3.46c5.52,3.81,10.91,7.72,16.8,11.25,5.43,3.26,5.09,5.71-.19,9-8,4.94-15.28,10.37-22.87,15.59l-.79,0Z" fill="#e55626"/><path d="M445.79,128.13c-3.2,2.45,1,6.82-4.92,8.57-7.31-4.95-14.43-10-22-14.78-4-2.53-4.28-4.1-.21-6.9,8.09-5.58,17.09-10.39,27.14-16.35Z" fill="#e55626"/><path d="M378.4,140c-5-4.81-11.63-8.76-15.64-14-.92-1.2-3.47-2.67-.84-3.62,5.67-2,4.95-8.48,13.14-8.44,3.55,0,3.05,2.16,3.08,3.71a142.4,142.4,0,0,0,.68,15.16c2.12-10.94-.12-21.95,2.07-32.86,1.6,11,.15,21.94.62,32.91.1,2.43.35,4.87.53,7.3l-.39.42Z" fill="#e96129"/><path d="M395.06,87.73c5.87-5.09,12.89-9.42,20-13.69-.19,2.1,2.16,3.22,3.87,4.63,3.78,3.14,2.12,8.24-3.49,8.48S406,92,399.62,89.68c-.24-.09-1.76,1.39-2.71,2.16C393.69,90.91,397.9,88.63,395.06,87.73Z" fill="#e96129"/><path d="M572.63,97.49c-15.39-.59-30.83,1-46.19-.64,15.15-1.33,30.38-.5,45.57-.6,21.89-.15,43.78.23,65.67.39-19.67,1.44-39.43.09-59.13.78Z" fill="#e96129"/><path d="M578.55,97.42c19.7-.69,39.46.66,59.13-.78a6.31,6.31,0,0,0,1.79.14l1.3-.56-.06-.09-.81,1c.07.73.13,1.47.19,2.21a4.15,4.15,0,0,0-1.35.47H638l-.77,0-5.62.1c-3.35-2-7.47-1.24-11.25-1.28-13.84-.17-27.68-.15-41.52-.2A2.86,2.86,0,0,1,578.55,97.42Z" fill="#e96129"/><path d="M512.6,96.55l-2.13.9A1.76,1.76,0,0,1,512.6,96.55Z" fill="#e96129"/><path d="M513.18,96.72s-.34-.08-.34-.07c.13-.29.25-.59.37-.88Z" fill="#e96129"/><path d="M255.22,96.05c16.37.07,32.74.1,49.11.22,3.53,0,7.37-.65,10.36,1.35l-30,20.68c-11.31,7.22-23,14.17-33.07,22.22l.08-.05-1.87,0c-.6,0-1.2-.12-1.79-.22-19.64-1.78-39.37-.55-59.06-.76-.54-.13-1.08-.24-1.62-.34l.15.12,2.07-2.48c3.83-.06,5.51-2.26,7.81-3.71,7.18-4.54,14.14-9.24,21.18-13.88l30.05-21a2,2,0,0,0-.05-.34l1.44-.38Z" fill="#ee6430"/><path d="M312.44,138.75l1.76.39c.57,2.28-2.49,3.39-3.66,5.11L283,162.65c-10,6.46-20.41,12.67-29.37,19.83l-1.93,0q0-21,0-42l-.08.05c17.17-.13,34.34-.23,51.5-.42C306.3,140.06,309.84,140.77,312.44,138.75Z" fill="#ee6430"/><path d="M312.44,138.75c-2.6,2-6.14,1.31-9.33,1.35-17.16.19-34.33.29-51.5.42,10.08-8.05,21.76-15,33.07-22.22,6.29,5.73,14.43,10.27,21.79,15.31C308.75,135.16,311.9,136.28,312.44,138.75Z" fill="#e96129"/><path d="M310.54,144.25c1.17-1.72,4.23-2.83,3.66-5.11l7-.12,2.8,1.15c-.3,3.36-9.09,2.42-7.56,6.7C316.41,144,314.4,143.21,310.54,144.25Z" fill="#e96129"/><path d="M866.41,74.11c11.77-5.7,19.86-14,31.44-19.86,3.15,1.06,5.63,2.32,5.37,5.11-.49,5.34,5.58,6.87,11.18,6.31,9.18-.91,10.53,4.68,15.34,7.19,2.31,1.21-1.42,3.14-3.17,4.47-8.63,6.58-19.27,11.88-26.91,19.09l-3.22,1.25-6.32-.48a5.08,5.08,0,0,1,.28-.8c1.38-.87,9.59,1.46,3.34-2.94-8.89-6.26-18.23-12.24-27.38-18.34A2,2,0,0,1,866.41,74.11Z" fill="#ee6430"/><path d="M770.84,139.29l29.57-20.95,4.09-2.46,1.41-.94,2-1.55-.08.14a6.1,6.1,0,0,0,3.86-2.52l-.15.11,4.11-2.58,15.94-10.17,2-.49a1.44,1.44,0,0,0,.5.55c-.2,12-.46,24.09-.55,36.13,0,2.9-.09,5.18-6.05,5.1C808.57,139.41,789.71,139.4,770.84,139.29Z" fill="#ee6430"/><path d="M640.09,99.29l-.18-2.21c19.84-.12,39.71,1.08,59.52-.61l3.69-.18-.36.23-.09,1.85c-6.75,4.49-14.74,8.18-19.89,13.73l.15,0-2,1.31,0-.09a12.36,12.36,0,0,0-7.34,5h0l-2.13,1c-6.7,4.14-14,7.89-18.79,13.26l.19.33.49-.14c-2.33-.74-3.08.58-4.19,1.44-3.45.76-4.57,3.76-8.55,4l.21-.31C640.35,125,641.85,112.12,640.09,99.29Z" fill="#ee6430"/><path d="M890.12,97.19l6.33.47-31.59,22L837,138.26c-2-.65-2.06-1.88-2-3.11q.18-18.32.38-36.61c5.51-2.47,11.75-1.37,17.66-1.44C865.36,96.93,877.74,97.14,890.12,97.19Z" fill="#e96129"/><path d="M640.62,140.58c-12,5.58-20.54,13.68-32,19.68a11.15,11.15,0,0,1-5.67-1.58c-9.27-5.4-17-11.74-24.84-18,11.53-2.46,23.41-.84,35.11-1.34,7.45-.33,15.14,1,22.33-1.33l1.46-.16,2.07.2,1.76-.22-.21.31C640.65,139,640.63,139.77,640.62,140.58Z" fill="#e55626"/><path d="M702.67,98.36l.09-1.84,2.31-.49,3.28-.16,59,.39-.18,1.8-29.52,20.2-1.42.11c-8-7.26-18.56-12.86-27.78-19.33-1.09-.76-2.34-1.37-3.82-.3Z" fill="#e55626"/><path d="M704.65,98.74c1.49-1.07,2.74-.46,3.83.3,9.22,6.47,19.79,12.07,27.78,19.33q-14.18,10-28.39,20a2.83,2.83,0,0,1-3.18-.2q-.21-7.6-.43-15.19l0-1.9c.09-1,.17-1.95.26-2.93Q704.6,108.44,704.65,98.74Z" fill="#e96129"/><path d="M708.35,95.87l-3.28.16c0-11.88-.07-23.76,0-35.64,0-1.35-1-3.21,1.19-4,2.84-1,4.39,1.05,5.8,2.17,7.49,5.91,18,9.82,24.26,16.54-3.45,4.23-9.92,6.49-14.45,9.94S709,90.17,708.35,95.87Z" fill="#e96129"/><path d="M737.68,118.26l29.52-20.2c3.54,3.32,1.78,7.12,1.91,10.69.28,7.75.14,15.5,0,23.25,0,1.52,1,3.63-2,4.23a8.17,8.17,0,0,1-6.53-1.59C754,128.5,743.71,124.72,737.68,118.26Z" fill="#ee6430"/><path d="M866.36,75.11c9.15,6.1,18.49,12.08,27.38,18.34,6.25,4.4-2,2.07-3.34,2.94-14.52-.07-29-.11-43.55-.24-3.26,0-6.69.55-9.73-.79C845.08,87.44,856.38,81.71,866.36,75.11Z" fill="#e55626"/><path d="M708.35,95.87c.68-5.7,8.9-7.28,13.51-10.78s11-5.71,14.45-9.94c10.34,7,21.7,13.41,31.07,21.11Z" fill="#ee6430"/><path d="M772.78,94.71l27.8-19.41,1.35-.07C811.32,82.16,820.78,89,831.67,95a4.25,4.25,0,0,1,0,1.07c-16.91.41-33.86-.46-50.77.71C778,96.94,774.89,96.49,772.78,94.71Z" fill="#e55626"/><path d="M866.36,75.11c-10,6.6-21.28,12.33-29.24,20.25l-2.35-.31c0-12.77,0-25.55,0-39.77,12.62,6.18,20.27,14,31.65,18.83A2,2,0,0,0,866.36,75.11Z" fill="#ee6430"/><path d="M703.12,96.29l-3.69.18a12.19,12.19,0,0,0-1.62-.5,14.42,14.42,0,0,0-8.39-1.77c-11.43,1.38-22.92.33-34.36.66-3.26.09-6.74.5-9.26-1.54,8.33-6.73,17.05-13.19,27.88-18.19.43,3,3.8,4.67,6.87,6.19C689.18,85.59,696.2,90.89,703.12,96.29Z" fill="#ee6430"/><path d="M704.26,123q.22,7.59.43,15.19c-8.36-2-12.34-7.42-18.82-10.93-3.92-2.12-7.65-4.51-11.69-6.61l-.44-1.34a4.44,4.44,0,0,0-.1-1h0c5.36.29,8-1.24,7.34-5l0,.09c.65-.44,1.3-.88,2-1.31l-.15,0c6.66,0,12.48,1.14,16.89,4.85.92.77,3.21.81,4.88,1.19-.09,1-.17,2-.26,2.93-1.14.06-2.44.15-2,1.2C702.36,122.59,703.56,122.74,704.26,123Z" fill="#e55626"/><path d="M835.33,98.54q-.2,18.3-.38,36.61c0,1.23.06,2.46,2,3.11,1.63,1.26,3.87,1,5.94,1q28.24-.08,56.49-.2l-.08,1.28c-18.58,0-37.17,0-55.76.18-2.71,0-6.21-1.16-8.11,1.37.08,13.42-.94,26.84.44,40.26l-2,.33-.57-2.55c.09-8.39.42-16.77.16-25.15-.14-4.39,1.8-9-1.68-13.17-1.13-1.29-3.07-1.12-4.82-1.11q-28.07.09-56.12.23l-1.8-.26v.1l1.79-1.29c18.87.11,37.73.12,56.59.37,6,.08,6-2.2,6.05-5.1.09-12,.35-24.08.55-36.13A9.37,9.37,0,0,1,835.33,98.54Z" fill="#e55626"/><path d="M831.71,96a4.25,4.25,0,0,0,0-1.07c.22-9.55-2.95-19-2-28.58.29-2.75-.86-5.32-5.8-6,2.86-2.09,5.15-4.59,9.28-5.74q0,20.25,0,40.52Z" fill="#e96129"/><path d="M673.74,119.28l.44,1.34c-1.49,3.3-2.29,6.64.19,10.9-7.11-1.69-12.74-2.55-17.35,1.14-.56.44-2.82-.08-4.3-.16,4.77-5.38,12.09-9.13,18.78-13.27Z" fill="#ee6430"/><path d="M804.5,115.88l-4.09,2.46C800.75,116.75,802.05,115.89,804.5,115.88Z" fill="#ee6430"/><path d="M811.66,111a6.1,6.1,0,0,1-3.86,2.52C807.83,111.83,809.19,111,811.66,111Z" fill="#ee6430"/><path d="M815.62,108.54l-4.11,2.58C811.54,109.3,813.09,108.57,815.62,108.54Z" fill="#ee6430"/><path d="M649.21,134.12c1.11-.86,1.86-2.18,4.19-1.44C652.62,134,651.05,134.22,649.21,134.12Z" fill="#ee6430"/><path d="M833.53,97.88l-2,.49A1.47,1.47,0,0,1,833.53,97.88Z" fill="#e55626"/><path d="M807.88,113.39l-2,1.55Z" fill="#ee6430"/><path d="M645.8,93.32c2.52,2,6,1.63,9.26,1.54,11.44-.33,22.93.72,34.36-.66A14.42,14.42,0,0,1,697.81,96l-57.1.16.06.09Z" fill="#e96129"/><path d="M122.19,83.76c0,1.28,0,2.56,0,3.84-1.71,2.75-.73,5.61-.74,8.42l-60.58,0c1.75-4.74,8.64-6.61,13-9.84C87.54,76,102.45,66.49,117,56.76a18.66,18.66,0,0,1,4-1.41C122.41,64.8,119.94,74.33,122.19,83.76Z" fill="#e55626"/><path d="M149,139.41l-25.6.05q-.13-18.51-.26-37c0-1.43.13-2.84,2-3.86h0c5,4,10.1,8,16.7,10.91l.08.13,1.64,1,.31.19,1.52,1,.35.23,1.49,1,.34.12c4.2,4,11.77,6.14,14.25,11.16C152.38,127.42,149.64,133,149,139.41Z" fill="#e55626"/><path d="M121.21,99.32c0,11.45.07,22.38,0,33.3,0,3-2.9,2.64-5.6,1.57a63.17,63.17,0,0,1-22-14.32c-3.81-3.85,1.18-7.71,4.19-9C105.76,107.63,111.71,102.59,121.21,99.32Z" fill="#e96129"/><path d="M125.09,98.57c0-.37,0-.74,0-1.11l58.71,0c-5.51,2.6-11.87.27-17.59,1.43,4.19,5.76-5.33,13.09-18.68,14.28l-.34-.12-1.49-1-.35-.23-1.52-1-.31-.19-1.64-1-.08-.13c-2.86-3.14,6.92-6.14,1-8.63-4.06-1.71-9.9-1.53-15-2.16-.89-.12-1.82-.09-2.74-.12Z" fill="#e96129"/><path d="M183.78,97.49l-58.71,0-1.81-1.35,63.62,0,.51,0,.5,0Z" fill="#e55626"/><path d="M121.49,96c0-2.81-1-5.67.74-8.42.34,2.83.69,5.67,1,8.5A4.39,4.39,0,0,1,121.49,96Z" fill="#e55626"/><path d="M183.78,97.49l4.11-1.42c19,.18,38,.33,57,.61,1.26,0,2.5,1,3.75,1.56l-30.05,21c-6.78-6.36-14.16-12.32-24.17-16.56-1.72-.72-2.8-2.57-5.22-2s-1.55,2.47-1.66,3.81c-.74,8.77,1.43,17.61-1.63,26.34-.79,2.27.75,4.44,3.69,6l-2.07,2.48-3.58-.09c-4.65-6.8-13.87-10.51-22.16-14.86-2.48-5-10-7.12-14.25-11.16,13.35-1.19,22.87-8.52,18.68-14.28C171.91,97.76,178.27,100.09,183.78,97.49Z" fill="#ee6430"/><path d="M161.76,124.36c8.29,4.35,17.51,8.06,22.16,14.86a177.91,177.91,0,0,1-25.71.16,2.73,2.73,0,0,0-4,0l-5.24,0C149.64,133,152.38,127.42,161.76,124.36Z" fill="#e55626"/><path d="M154.22,139.39a2.73,2.73,0,0,1,4,0Z" fill="#e55626"/><path d="M55.83,97.63,53.92,99Z" fill="#e55626"/><path d="M186.89,95.05c-8.08-1.34-11.52-6.37-16.81-9.82-15.9-10.35-15.78-10.59-.06-21.12,4.65-3.12,8.2-7.2,15-8.64a2.9,2.9,0,0,1,2.21,3.09Q187.1,76.82,186.89,95.05Z" fill="#e96129"/><path d="M189.35,53l60.78.38c-7.39,7.93-18.57,13.36-28.67,19.51-1.5.91-3.45,1.3-4.91.22C207.46,66.42,196.5,60.87,189.35,53Z" fill="#e55626"/><path d="M255.3,53.49c12.85-.46,25.7-.53,38.55,0A190.28,190.28,0,0,1,255.3,53.49Z" fill="#e55626"/><path d="M250,97.53l-1.44.38c.09-.32.16-.63.23-1Z" fill="#ee6430"/><path d="M823.91,60.35c4.94.7,6.09,3.27,5.8,6-1,9.59,2.18,19,2,28.58C820.78,89,811.32,82.16,801.93,75.23Z" fill="#ee6430"/><path d="M128.23,47.82l-1.41-1Z" fill="#e96129"/><path d="M930.82,161.46a271.31,271.31,0,0,0-31.47-21.11c0-.42,0-.85.08-1.27a1.12,1.12,0,0,1,.84-.23c15.24,1.24,30.54.34,45.81.51,11.7.13,11.83-.17,6.32-7.24,7.3-.12,5.58,6.12,11.23,7.17a3.11,3.11,0,0,0,.09,1.14C951.61,146.64,942.36,154.86,930.82,161.46Z" fill="#ee6430"/><path d="M864.85,119.7l31.6-22,3.21-1.24.64,0,.64.07c1,2.66,3.55,4.23,7.54,4.76l.08-.11c-.17,1.92,1.83,2.92,3.74,4,3.06,2.56,5.57,5.57,11.11,6.08.42,3.19,8.43,5.41,5,8.25-7.87,6.52-16,13.13-27.22,17.39-3.14-1.66-7.93,1.17-10.65-1.8C884.3,128.15,872.91,125.18,864.85,119.7Z" fill="#e96129"/><path d="M901.19,136.79c11.23-4.26,19.35-10.87,27.22-17.39,3.43-2.84-4.58-5.06-5-8.25l9.1-.2,0,0c.09,1.35,0,2.73,1.89,3.68-1.34,2.53-2.22,4.84,1.76,7s7.24,4.61,10.82,6.94l5.43,3.62c5.51,7.07,5.38,7.37-6.32,7.24-15.27-.17-30.57.73-45.81-.51C900.58,138.16,900.89,137.48,901.19,136.79Z" fill="#e55626"/><path d="M908.48,101.22c-4-.53-6.53-2.1-7.54-4.76q27-.09,53.91-.15c2,0,4.78-.69,5.81.88,1.3,2-2,2.71-3.48,3.8-5.74,4.17-11.69,8.22-17.56,12.31l-3.76,1.09c.13-1.7-1.33-2.71-3.36-3.47l0,0a2.88,2.88,0,0,1,2.41-2.38c4.48-1.19,7.39-3.51,5.86-6.6s-4.81-4.87-11-4.73C922,97.41,915.3,99.22,908.48,101.22Z" fill="#e55626"/><path d="M935.86,114.39l3.76-1.09c.25,2.92,1.35,5.54,5.72,6.9,7.09,2.2,6.36,5.06,1.64,8.3-3.59-2.33-6.93-4.87-10.83-6.94s-3.1-4.43-1.76-7C934.88,114.55,935.38,114.48,935.86,114.39Z" fill="#ee6430"/><path d="M846.06,45.66c-.67,2.82,3.59,4.52,3.63,7.18-3.89-.05-7.66-.23-8.67-3.5C842.46,48,843,46.05,846.06,45.66Z" fill="#ee6430"/><path d="M569.38,139.53c-19.18,1.3-38.39.73-57.59.22a5.57,5.57,0,0,0,.49-.74l.79,0,.79,0Z" fill="#e96129"/><path d="M569.38,139.53,513.86,139c7.59-5.22,14.9-10.65,22.87-15.59,5.28-3.27,5.62-5.72.19-9-5.89-3.53-11.28-7.44-16.8-11.25-1.4-1-3.87-1.83-2.92-3.46s3.67-1.12,5.67-1.13c13.39,0,26.79.06,40.18,0,3.24,0,6.77.68,9.58-1.12l5.92-.07a2.86,2.86,0,0,0,.26,1c7.59,7.12,17.66,12.63,27,18.65,0,.51,0,1,0,1.54L577.25,137a10.59,10.59,0,0,1-2.47-6.36q0-12.81-.18-25.62c-.07-4.23-2.59-4.43-7.29-2.08a149.9,149.9,0,0,0-17.54,10.75c-4.94,3.35-5.44,6.29.25,9.83,8,5,15.25,10.49,22.81,15.78Z" fill="#e55626"/><path d="M605.81,118.58c0-.51,0-1,0-1.54,11.85-3.53,18.25-10.75,25.82-17.17l5.62-.1q-.09,19-.17,38.07l-1.45.16C626.23,131.13,616.88,124.26,605.81,118.58Z" fill="#e55626"/><path d="M631.58,99.87c-7.57,6.42-14,13.64-25.82,17.17-9.29-6-19.36-11.53-27-18.65,13.84,0,27.68,0,41.52.2C624.11,98.63,628.23,97.9,631.58,99.87Z" fill="#ee6430"/><path d="M640.71,96.13l57.1-.16a12.19,12.19,0,0,1,1.62.5c-19.81,1.69-39.68.49-59.52.61C640.17,96.76,640.44,96.45,640.71,96.13Z" fill="#e96129"/><path d="M640.87,137.82l-1.76.22q-.18-19.14-.37-38.28a4.15,4.15,0,0,1,1.35-.47C641.85,112.12,640.35,125,640.87,137.82Z" fill="#e96129"/><path d="M638.74,99.76q.18,19.14.37,38.28l-2.07-.2q.08-19,.16-38.07l.77,0Z" fill="#ee6430"/><path d="M189.57,136.83c-2.94-1.51-4.48-3.68-3.69-6,3.06-8.73.89-17.57,1.63-26.34.11-1.34-.89-3.17,1.66-3.81s3.5,1.23,5.22,2c10,4.24,17.39,10.2,24.17,16.56-7,4.64-14,9.34-21.18,13.88C195.08,134.57,193.4,136.77,189.57,136.83Z" fill="#e55626"/><path d="M605.81,118.58c11.07,5.68,20.42,12.55,29.77,19.42-7.19,2.33-14.88,1-22.33,1.33-11.7.5-23.58-1.12-35.11,1.34h-2.21l-3.1-1.38C565.27,134,558,128.5,550,123.52c-5.69-3.54-5.19-6.48-.25-9.83a149.9,149.9,0,0,1,17.54-10.75c4.7-2.35,7.22-2.15,7.29,2.08q.23,12.81.18,25.62a10.59,10.59,0,0,0,2.47,6.36Z" fill="#e96129"/><path d="M704.55,118.14c-1.67-.38-4-.42-4.88-1.19-4.41-3.71-10.23-4.86-16.89-4.85,5.15-5.55,13.14-9.24,19.89-13.73l2,.37Q704.6,108.43,704.55,118.14Z" fill="#e55626"/><path d="M681,113.3c.66,3.72-2,5.25-7.34,5A12.36,12.36,0,0,1,681,113.3Z" fill="#e55626"/><path d="M673.74,119.28l-2.24,0,2.14-1A4.44,4.44,0,0,1,673.74,119.28Z" fill="#e55626"/><path d="M682.93,112.08c-.66.43-1.31.87-2,1.31C681.62,113,682.27,112.51,682.93,112.08Z" fill="#e55626"/><path d="M901.19,136.79c-.3.69-.61,1.37-.92,2.06a1.12,1.12,0,0,0-.84.23q-28.24.09-56.49.19c-2.07,0-4.31.25-5.94-1l27.86-18.56c8,5.48,19.44,8.45,25.68,15.29C893.26,138,898.05,135.13,901.19,136.79Z" fill="#ee6430"/><path d="M704.26,123c-.7-.23-1.9-.38-2-.7-.39-1,.91-1.14,2-1.2Z" fill="#e55626"/><path d="M125.08,98.58c.92,0,1.85,0,2.74.12,5.05.63,10.89.45,15,2.16,5.93,2.49-3.85,5.49-1,8.63C135.18,106.56,130.05,102.63,125.08,98.58Z" fill="#ee6430"/><path d="M145.68,112.08l1.49,1Z" fill="#ee6430"/><path d="M143.81,110.85l1.52,1Z" fill="#ee6430"/><path d="M141.86,109.62l1.64,1Z" fill="#ee6430"/><path d="M908.48,101.22c6.82-2,13.47-3.81,21.32-4,6.19-.14,9.44,1.61,11,4.73s-1.38,5.41-5.86,6.6a2.88,2.88,0,0,0-2.41,2.38l-9.1.2c-5.56-.51-8.07-3.52-11.13-6.09.22-1.94-.06-3.67-3.74-4Z" fill="#e55626"/><path d="M908.56,101.11c3.68.28,4,2,3.74,4C910.39,104,908.39,103,908.56,101.11Z" fill="#e55626"/><path d="M935.86,114.39c-.48.09-1,.16-1.47.21-1.84-.95-1.8-2.33-1.89-3.68C934.53,111.68,936,112.69,935.86,114.39Z" fill="#e55626"/><rect x="-9.67" y="108.63" width="1028.89" height="193.66" transform="translate(1009.55 410.92) rotate(180)" fill="none"/></g><path d="M214.35,46.64a8.09,8.09,0,0,1,3.07,3,7.85,7.85,0,0,1,1.13,4.12,8,8,0,0,1-1.13,4.15,8.11,8.11,0,0,1-3.07,3,8.89,8.89,0,0,1-8.53,0,8.11,8.11,0,0,1-3.07-3,8,8,0,0,1-1.13-4.15,7.85,7.85,0,0,1,1.13-4.12,8.13,8.13,0,0,1,3.06-3,9,9,0,0,1,8.54,0ZM207,48.37a6.23,6.23,0,0,0-2.29,2.24,5.89,5.89,0,0,0-.85,3.11,6,6,0,0,0,.85,3.13A6.39,6.39,0,0,0,207,59.12a6.09,6.09,0,0,0,3.12.84,5.93,5.93,0,0,0,3.09-.84,6.36,6.36,0,0,0,2.25-2.27,6,6,0,0,0,.84-3.13,6,6,0,0,0-.84-3.11,6.2,6.2,0,0,0-2.25-2.24,5.92,5.92,0,0,0-3.09-.83A6.08,6.08,0,0,0,207,48.37Z" fill="#fff"/><path d="M231.31,50.34a5.33,5.33,0,0,1,2.07,2.19,6.83,6.83,0,0,1,.74,3.22,6.69,6.69,0,0,1-.73,3.18,5.27,5.27,0,0,1-2,2.17,5.93,5.93,0,0,1-3,.77,5.54,5.54,0,0,1-2.71-.65,4.59,4.59,0,0,1-1.84-1.84v6.88h-2.14V49.63h2.14V52a4.54,4.54,0,0,1,1.83-1.83,5.4,5.4,0,0,1,2.68-.65A5.89,5.89,0,0,1,231.31,50.34ZM230,59.45a3.85,3.85,0,0,0,1.45-1.54,4.79,4.79,0,0,0,.51-2.23,4.54,4.54,0,0,0-.53-2.21A3.89,3.89,0,0,0,230,51.93a4.28,4.28,0,0,0-4.2,0,3.87,3.87,0,0,0-1.46,1.54,4.94,4.94,0,0,0,0,4.45,3.91,3.91,0,0,0,1.46,1.53,4.3,4.3,0,0,0,4.21,0Z" fill="#fff"/><path d="M246.26,51.23a6.8,6.8,0,0,1,1.45,4.63c0,.31,0,.54,0,.69h-9.62a4.16,4.16,0,0,0,1.37,2.6,4,4,0,0,0,2.75,1,5.14,5.14,0,0,0,2-.39,4.82,4.82,0,0,0,1.63-1.11L247,59.84a6.22,6.22,0,0,1-2.16,1.5,7.29,7.29,0,0,1-2.81.53,6.52,6.52,0,0,1-3.19-.77,5.52,5.52,0,0,1-2.16-2.18,7,7,0,0,1,0-6.38,5.66,5.66,0,0,1,2.15-2.19,6.29,6.29,0,0,1,3.15-.79A5.36,5.36,0,0,1,246.26,51.23Zm-.48,3.67A3.53,3.53,0,0,0,242,51.33a3.81,3.81,0,0,0-2.68,1,4,4,0,0,0-1.28,2.6Z" fill="#fff"/><path d="M260.75,50.81A4.78,4.78,0,0,1,262,54.28V61.8h-2.14V54.85a3.25,3.25,0,0,0-.86-2.4,3.21,3.21,0,0,0-2.38-.87,3.71,3.71,0,0,0-2.66,1.05,4.11,4.11,0,0,0-1.16,2.66V61.8h-2.14V49.63h2.14v2.58q1.22-2.61,4.62-2.65A4.48,4.48,0,0,1,260.75,50.81Z" fill="#fff"/><path d="M266,45.7h11.17v2h-9v5h8v2h-8V59.8h9.25v2H266Z" fill="#fff"/><path d="M291.77,46.77a3.49,3.49,0,0,1,1.41,2.95,3.59,3.59,0,0,1-.78,2.34,3.78,3.78,0,0,1-2.14,1.27,4.16,4.16,0,0,1,2.63,1.35,4,4,0,0,1,1,2.72,3.84,3.84,0,0,1-1.55,3.24A7.07,7.07,0,0,1,288,61.8h-7V45.7h6.88A6.27,6.27,0,0,1,291.77,46.77Zm-1.68,5.13a2.19,2.19,0,0,0,.82-1.81,2.1,2.1,0,0,0-.82-1.77,3.73,3.73,0,0,0-2.31-.6h-4.56v4.81h4.56A3.73,3.73,0,0,0,290.09,51.9Zm.49,7.19a2.23,2.23,0,0,0,1-2,2.18,2.18,0,0,0-1-1.91,4.91,4.91,0,0,0-2.8-.69h-4.56v5.24h4.56A4.69,4.69,0,0,0,290.58,59.09Z" fill="#fff"/><path d="M304.46,48a7.76,7.76,0,0,0-2.22-.36,4.1,4.1,0,0,0-2.24.54,1.67,1.67,0,0,0-.84,1.48,1.94,1.94,0,0,0,.51,1.39,3.54,3.54,0,0,0,1.24.86c.49.2,1.17.44,2,.72a22.36,22.36,0,0,1,2.64,1A4.56,4.56,0,0,1,307.33,55a3.84,3.84,0,0,1,.71,2.41,4,4,0,0,1-.75,2.41,4.73,4.73,0,0,1-2.09,1.6,7.88,7.88,0,0,1-3.09.56,9,9,0,0,1-3.45-.68,9.45,9.45,0,0,1-2.9-1.84l1-1.91a8.19,8.19,0,0,0,2.58,1.73,7.08,7.08,0,0,0,2.8.61,4.48,4.48,0,0,0,2.54-.63,2,2,0,0,0,.93-1.71,2,2,0,0,0-.5-1.41,3.54,3.54,0,0,0-1.28-.87,20.24,20.24,0,0,0-2.08-.71,21.19,21.19,0,0,1-2.62-.95,4.52,4.52,0,0,1-1.72-1.35,3.73,3.73,0,0,1-.7-2.37,3.83,3.83,0,0,1,.71-2.28,4.53,4.53,0,0,1,2-1.52,7.83,7.83,0,0,1,3-.53,9.83,9.83,0,0,1,2.84.43,9.34,9.34,0,0,1,2.47,1.14l-.92,2A9.08,9.08,0,0,0,304.46,48Z" fill="#fff"/><path d="M319.39,45.17a1.48,1.48,0,0,1,0,2,1.36,1.36,0,0,1-1.91,0,1.48,1.48,0,0,1,0-2,1.36,1.36,0,0,1,1.91,0Zm-2,4.46h2.14V61.8h-2.14Z" fill="#fff"/><path d="M328.66,51.58a6.15,6.15,0,0,0-1.74-.27,2.94,2.94,0,0,0-1.55.36,1.18,1.18,0,0,0-.59,1.09,1.2,1.2,0,0,0,.66,1.11,9.17,9.17,0,0,0,2,.77,15.82,15.82,0,0,1,2.07.74,3.68,3.68,0,0,1,1.37,1.08,3.36,3.36,0,0,1-.74,4.51,5.54,5.54,0,0,1-3.23.9,8.06,8.06,0,0,1-2.63-.44,6,6,0,0,1-2.15-1.24l.8-1.57a5.78,5.78,0,0,0,1.88,1.11,6.3,6.3,0,0,0,2.17.41,3.27,3.27,0,0,0,1.7-.39,1.3,1.3,0,0,0,.64-1.2,1.36,1.36,0,0,0-.67-1.24,9.93,9.93,0,0,0-2.06-.83,13.09,13.09,0,0,1-2-.7,3.48,3.48,0,0,1-1.31-1,2.84,2.84,0,0,1-.54-1.8A2.89,2.89,0,0,1,324,50.39a5.34,5.34,0,0,1,3.1-.85,7.71,7.71,0,0,1,2.18.31,6.43,6.43,0,0,1,1.85.84l-.78,1.63A7.63,7.63,0,0,0,328.66,51.58Z" fill="#fff"/><path d="M348.58,50.34a5.56,5.56,0,0,1,2.2,2.18,6.28,6.28,0,0,1,.8,3.18,6.39,6.39,0,0,1-.8,3.2,5.56,5.56,0,0,1-2.2,2.18,7.06,7.06,0,0,1-6.49,0,5.62,5.62,0,0,1-2.21-2.17,6.37,6.37,0,0,1-.79-3.21,6.28,6.28,0,0,1,.79-3.18,5.65,5.65,0,0,1,2.21-2.18,7.14,7.14,0,0,1,6.49,0ZM343.22,52a3.69,3.69,0,0,0-1.45,1.53,4.59,4.59,0,0,0-.52,2.21,4.74,4.74,0,0,0,.52,2.26,3.69,3.69,0,0,0,1.45,1.53,4.41,4.41,0,0,0,4.23,0A3.76,3.76,0,0,0,348.9,58a4.86,4.86,0,0,0,.52-2.26,4.71,4.71,0,0,0-.52-2.21A3.76,3.76,0,0,0,347.45,52a4.27,4.27,0,0,0-4.23,0Z" fill="#fff"/><path d="M357.58,47a1.86,1.86,0,0,0-.55,1.45V50h3.36v1.64H357V61.8h-2.14V51.68H353.3V50h1.59V48.73a4.33,4.33,0,0,1,.56-2.26,3.74,3.74,0,0,1,1.49-1.41,4.31,4.31,0,0,1,2-.47,4.81,4.81,0,0,1,2.11.55l-.5,1.75A3.74,3.74,0,0,0,359,46.5,2,2,0,0,0,357.58,47Z" fill="#fff"/><path d="M365.61,47a1.86,1.86,0,0,0-.55,1.45V50h3.35v1.64h-3.35V61.8h-2.14V51.68h-1.59V50h1.59V48.73a4.24,4.24,0,0,1,.56-2.26A3.78,3.78,0,0,1,365,45.06a4.37,4.37,0,0,1,2-.47,4.85,4.85,0,0,1,2.12.55l-.51,1.75A3.66,3.66,0,0,0,367,46.5,2,2,0,0,0,365.61,47Z" fill="#fff"/><path d="M379.29,51.23a6.8,6.8,0,0,1,1.45,4.63c0,.31,0,.54,0,.69H371.1a4.16,4.16,0,0,0,1.37,2.6,4,4,0,0,0,2.75,1,5.14,5.14,0,0,0,2-.39,4.82,4.82,0,0,0,1.63-1.11L380,59.84a6.22,6.22,0,0,1-2.16,1.5,7.29,7.29,0,0,1-2.81.53,6.52,6.52,0,0,1-3.19-.77,5.52,5.52,0,0,1-2.16-2.18,7,7,0,0,1,0-6.38,5.66,5.66,0,0,1,2.15-2.19,6.29,6.29,0,0,1,3.15-.79A5.36,5.36,0,0,1,379.29,51.23Zm-.48,3.67A3.53,3.53,0,0,0,375,51.33a3.81,3.81,0,0,0-2.68,1,4,4,0,0,0-1.28,2.6Z" fill="#fff"/><path d="M387.5,50.26a5.15,5.15,0,0,1,2.63-.7v2.07a3.92,3.92,0,0,0-4.33,3.75V61.8h-2.14V49.63h2.14v2.62A4.45,4.45,0,0,1,387.5,50.26Z" fill="#fff"/><path d="M394.46,45.17a1.48,1.48,0,0,1,0,2,1.36,1.36,0,0,1-1.91,0,1.48,1.48,0,0,1,0-2,1.36,1.36,0,0,1,1.91,0Zm-2,4.46h2.14V61.8h-2.14Z" fill="#fff"/><path d="M408.87,50.81a4.78,4.78,0,0,1,1.22,3.47V61.8H408V54.85a3.25,3.25,0,0,0-.86-2.4,3.21,3.21,0,0,0-2.38-.87,3.71,3.71,0,0,0-2.66,1.05,4.11,4.11,0,0,0-1.16,2.66V61.8h-2.14V49.63h2.14v2.58q1.22-2.61,4.62-2.65A4.48,4.48,0,0,1,408.87,50.81Z" fill="#fff"/><path d="M424.67,49.63V60.55a5.94,5.94,0,0,1-.77,3.06,5.11,5.11,0,0,1-2.17,2,7.35,7.35,0,0,1-3.27.7,8.32,8.32,0,0,1-5-1.7l.94-1.57a6.37,6.37,0,0,0,1.86,1.09,6,6,0,0,0,2.12.36,4.19,4.19,0,0,0,3-1.06,3.7,3.7,0,0,0,1.13-2.83v-1.7a4.52,4.52,0,0,1-1.75,1.72,5.23,5.23,0,0,1-2.53.61,5.53,5.53,0,0,1-2.89-.75,5.13,5.13,0,0,1-1.94-2.08,6.57,6.57,0,0,1-.69-3.06,6.4,6.4,0,0,1,.69-3,5.08,5.08,0,0,1,1.94-2,5.62,5.62,0,0,1,2.89-.74,5.18,5.18,0,0,1,2.54.6,4.44,4.44,0,0,1,1.74,1.7V49.63Zm-4,9.36A3.68,3.68,0,0,0,422,57.53a4.4,4.4,0,0,0,.5-2.1,4.47,4.47,0,0,0-.5-2.13,3.68,3.68,0,0,0-1.36-1.46,4.08,4.08,0,0,0-4,0,3.76,3.76,0,0,0-1.39,1.46,4.36,4.36,0,0,0-.51,2.13,4.24,4.24,0,0,0,1.11,2.94,3.65,3.65,0,0,0,2.8,1.15A3.84,3.84,0,0,0,420.65,59Z" fill="#fff"/><path d="M436.62,45.17a1.48,1.48,0,0,1,0,2,1.36,1.36,0,0,1-1.91,0,1.48,1.48,0,0,1,0-2,1.36,1.36,0,0,1,1.91,0Zm-2,4.46h2.13V61.8h-2.13Z" fill="#fff"/><path d="M451,50.81a4.78,4.78,0,0,1,1.22,3.47V61.8h-2.14V54.85a3,3,0,0,0-3.25-3.27,3.7,3.7,0,0,0-2.65,1.05,4.11,4.11,0,0,0-1.16,2.66V61.8h-2.14V49.63h2.14v2.58q1.21-2.61,4.62-2.65A4.5,4.5,0,0,1,451,50.81Z" fill="#fff"/><path d="M462.6,61a5.26,5.26,0,0,1-2.86.9A3.26,3.26,0,0,1,457.4,61a3.47,3.47,0,0,1-.9-2.61V51.68h-1.72V50h1.72V46.78h2.16V50h3.73v1.64h-3.73V58a2.28,2.28,0,0,0,.37,1.45,1.34,1.34,0,0,0,1.11.44,3.85,3.85,0,0,0,1.88-.57Z" fill="#fff"/><path d="M474.19,51.23a6.85,6.85,0,0,1,1.45,4.63,5.73,5.73,0,0,1,0,.69H466a4.16,4.16,0,0,0,1.37,2.6,4,4,0,0,0,2.75,1,5.14,5.14,0,0,0,2-.39,4.78,4.78,0,0,0,1.62-1.11l1.17,1.22a6,6,0,0,1-2.16,1.5,7.24,7.24,0,0,1-2.8.53,6.52,6.52,0,0,1-3.19-.77,5.4,5.4,0,0,1-2.16-2.18,7,7,0,0,1,0-6.38,5.59,5.59,0,0,1,2.15-2.19,6.29,6.29,0,0,1,3.15-.79A5.37,5.37,0,0,1,474.19,51.23Zm-.48,3.67a3.54,3.54,0,0,0-3.78-3.57,3.84,3.84,0,0,0-2.68,1A4.06,4.06,0,0,0,466,54.9Z" fill="#fff"/><path d="M482.4,50.26a5.11,5.11,0,0,1,2.62-.7v2.07a3.92,3.92,0,0,0-4.32,3.75V61.8h-2.14V49.63h2.14v2.62A4.39,4.39,0,0,1,482.4,50.26Z" fill="#fff"/><path d="M497.46,50.81a4.74,4.74,0,0,1,1.22,3.47V61.8h-2.14V54.85a3,3,0,0,0-3.24-3.27,3.72,3.72,0,0,0-2.66,1.05,4.16,4.16,0,0,0-1.16,2.66V61.8h-2.14V49.63h2.14v2.58q1.23-2.61,4.63-2.65A4.47,4.47,0,0,1,497.46,50.81Z" fill="#fff"/><path d="M507.48,51.58a6.1,6.1,0,0,0-1.74-.27,2.94,2.94,0,0,0-1.55.36,1.18,1.18,0,0,0-.59,1.09,1.2,1.2,0,0,0,.66,1.11,9.17,9.17,0,0,0,2,.77,15.82,15.82,0,0,1,2.07.74,3.68,3.68,0,0,1,1.37,1.08A3.36,3.36,0,0,1,509,61a5.52,5.52,0,0,1-3.23.9,8.11,8.11,0,0,1-2.63-.44,6,6,0,0,1-2.15-1.24l.8-1.57a5.78,5.78,0,0,0,1.88,1.11,6.3,6.3,0,0,0,2.17.41,3.27,3.27,0,0,0,1.7-.39,1.31,1.31,0,0,0,.65-1.2,1.37,1.37,0,0,0-.68-1.24,9.7,9.7,0,0,0-2.06-.83,13.5,13.5,0,0,1-2-.7,3.56,3.56,0,0,1-1.31-1,2.84,2.84,0,0,1-.54-1.8,2.89,2.89,0,0,1,1.24-2.55,5.34,5.34,0,0,1,3.1-.85,7.66,7.66,0,0,1,2.18.31,6.43,6.43,0,0,1,1.85.84l-.78,1.63A7.43,7.43,0,0,0,507.48,51.58Z" fill="#fff"/><path d="M523.34,50.81a4.78,4.78,0,0,1,1.22,3.47V61.8h-2.14V54.85a3.25,3.25,0,0,0-.86-2.4,3.21,3.21,0,0,0-2.38-.87,3.64,3.64,0,0,0-2.81,1.2,4.43,4.43,0,0,0-1,3v6H513.2V44.73h2.13v7.52A4.72,4.72,0,0,1,520,49.56,4.48,4.48,0,0,1,523.34,50.81Z" fill="#fff"/><path d="M530.39,45.17a1.48,1.48,0,0,1,0,2,1.29,1.29,0,0,1-1,.39,1.27,1.27,0,0,1-.95-.39,1.48,1.48,0,0,1,0-2,1.27,1.27,0,0,1,.95-.39A1.29,1.29,0,0,1,530.39,45.17Zm-2,4.46h2.13V61.8h-2.13Z" fill="#fff"/><path d="M544.47,50.34a5.42,5.42,0,0,1,2.08,2.19,7.42,7.42,0,0,1,0,6.4,5.36,5.36,0,0,1-2,2.17,5.93,5.93,0,0,1-3,.77,5.54,5.54,0,0,1-2.71-.65,4.65,4.65,0,0,1-1.84-1.84v6.88h-2.14V49.63h2.14V52a4.6,4.6,0,0,1,1.83-1.83,5.43,5.43,0,0,1,2.68-.65A5.87,5.87,0,0,1,544.47,50.34Zm-1.34,9.11a3.85,3.85,0,0,0,1.45-1.54,4.79,4.79,0,0,0,.52-2.23,4.66,4.66,0,0,0-.53-2.21,4.13,4.13,0,0,0-5.65-1.54,3.87,3.87,0,0,0-1.46,1.54,4.94,4.94,0,0,0,0,4.45,3.91,3.91,0,0,0,1.46,1.53,4.3,4.3,0,0,0,4.21,0Z" fill="#fff"/><path d="M555.25,51.58a6.1,6.1,0,0,0-1.74-.27,2.94,2.94,0,0,0-1.55.36,1.18,1.18,0,0,0-.59,1.09,1.2,1.2,0,0,0,.66,1.11,9.17,9.17,0,0,0,2,.77,15.82,15.82,0,0,1,2.07.74,3.68,3.68,0,0,1,1.37,1.08,3.36,3.36,0,0,1-.74,4.51,5.52,5.52,0,0,1-3.23.9,8.11,8.11,0,0,1-2.63-.44,6,6,0,0,1-2.15-1.24l.8-1.57a5.78,5.78,0,0,0,1.88,1.11,6.3,6.3,0,0,0,2.17.41,3.27,3.27,0,0,0,1.7-.39,1.31,1.31,0,0,0,.65-1.2,1.37,1.37,0,0,0-.68-1.24,9.93,9.93,0,0,0-2.06-.83,13.5,13.5,0,0,1-2-.7,3.56,3.56,0,0,1-1.31-1,2.84,2.84,0,0,1-.54-1.8,2.89,2.89,0,0,1,1.24-2.55,5.35,5.35,0,0,1,3.11-.85,7.69,7.69,0,0,1,2.17.31,6.43,6.43,0,0,1,1.85.84l-.78,1.63A7.43,7.43,0,0,0,555.25,51.58Z" fill="#fff"/><path d="M570,47a1.86,1.86,0,0,0-.55,1.45V50h3.36v1.64h-3.36V61.8h-2.14V51.68H565.7V50h1.59V48.73a4.33,4.33,0,0,1,.56-2.26,3.74,3.74,0,0,1,1.49-1.41,4.31,4.31,0,0,1,2-.47,4.81,4.81,0,0,1,2.11.55l-.5,1.75a3.74,3.74,0,0,0-1.57-.39A2,2,0,0,0,570,47Z" fill="#fff"/><path d="M582.8,50.34A5.58,5.58,0,0,1,585,52.52a6.28,6.28,0,0,1,.79,3.18,6.38,6.38,0,0,1-.79,3.2,5.58,5.58,0,0,1-2.21,2.18,7,7,0,0,1-6.48,0,5.56,5.56,0,0,1-2.21-2.17,6.37,6.37,0,0,1-.79-3.21,6.28,6.28,0,0,1,.79-3.18,5.58,5.58,0,0,1,2.21-2.18,7.12,7.12,0,0,1,6.48,0ZM577.44,52A3.67,3.67,0,0,0,576,53.51a4.59,4.59,0,0,0-.52,2.21A4.74,4.74,0,0,0,576,58a3.67,3.67,0,0,0,1.44,1.53,4.19,4.19,0,0,0,2.13.54,4.14,4.14,0,0,0,2.11-.54A3.76,3.76,0,0,0,583.13,58a4.85,4.85,0,0,0,.51-2.26,4.71,4.71,0,0,0-.51-2.21A3.76,3.76,0,0,0,581.68,52a4.06,4.06,0,0,0-2.11-.56A4.1,4.1,0,0,0,577.44,52Z" fill="#fff"/><path d="M592.64,50.26a5.11,5.11,0,0,1,2.62-.7v2.07a3.92,3.92,0,0,0-4.33,3.75V61.8h-2.14V49.63h2.14v2.62A4.41,4.41,0,0,1,592.64,50.26Z" fill="#fff"/><path d="M208.24,79.77a6.23,6.23,0,0,0-1.77-.31,2,2,0,0,0-1,.23.75.75,0,0,0-.39.69.84.84,0,0,0,.53.78,9.4,9.4,0,0,0,1.72.62,17.72,17.72,0,0,1,2.16.77,4,4,0,0,1,1.47,1.13,3,3,0,0,1,.63,2,3.34,3.34,0,0,1-1.42,2.86,6,6,0,0,1-3.62,1,9.48,9.48,0,0,1-2.92-.45,7.55,7.55,0,0,1-2.44-1.28l1.15-2.39a7.36,7.36,0,0,0,2.1,1.14,6.71,6.71,0,0,0,2.2.4,2.3,2.3,0,0,0,1.14-.24.79.79,0,0,0,.43-.73.92.92,0,0,0-.55-.82,8.75,8.75,0,0,0-1.73-.65,17.39,17.39,0,0,1-2.11-.73,3.7,3.7,0,0,1-1.43-1.12,3,3,0,0,1-.6-1.94,3.35,3.35,0,0,1,1.38-2.86,5.77,5.77,0,0,1,3.49-1,9.15,9.15,0,0,1,2.53.36,8.56,8.56,0,0,1,2.3,1l-1.22,2.42A10,10,0,0,0,208.24,79.77Z" fill="#fff"/><path d="M221.58,88.71a6.15,6.15,0,0,1-1.53.63,6.48,6.48,0,0,1-1.69.22,4,4,0,0,1-2.8-1,3.64,3.64,0,0,1-1.08-2.83V80h-1.73V77.58h1.73V74.17H218v3.41h3.35V80H218v5.1c0,1,.37,1.43,1.12,1.43a4,4,0,0,0,1.73-.46Z" fill="#fff"/><path d="M235.48,77V89.4H232V87.21a4.37,4.37,0,0,1-4.14,2.33,4.28,4.28,0,0,1-3.26-1.28,4.86,4.86,0,0,1-1.21-3.46V77h3.55v6.77a2.54,2.54,0,0,0,.62,1.83,2.19,2.19,0,0,0,1.7.67,2.53,2.53,0,0,0,2-.89,3.42,3.42,0,0,0,.74-2.26V77Z" fill="#fff"/><path d="M251.12,72.33V89.4H247.6V87.58A4.45,4.45,0,0,1,245.94,89a5,5,0,0,1-2.25.5,5.83,5.83,0,0,1-3.07-.8,5.24,5.24,0,0,1-2.05-2.24,7.43,7.43,0,0,1-.73-3.34,7.24,7.24,0,0,1,.72-3.29,5.19,5.19,0,0,1,2-2.2,5.8,5.8,0,0,1,3-.78,4.61,4.61,0,0,1,4,2V72.33Zm-4.39,13.4a4,4,0,0,0,0-5,2.86,2.86,0,0,0-2.22-1,2.9,2.9,0,0,0-2.24,1,3.92,3.92,0,0,0,0,5,2.87,2.87,0,0,0,2.24,1A2.83,2.83,0,0,0,246.73,85.73Z" fill="#fff"/><path d="M264.51,78.63a6.93,6.93,0,0,1,1.56,4.81c0,.37,0,.65,0,.85h-8.88a3.29,3.29,0,0,0,1.15,1.83,3.25,3.25,0,0,0,2.05.66,4.42,4.42,0,0,0,1.68-.34,4.38,4.38,0,0,0,1.45-1l1.86,1.89A6.13,6.13,0,0,1,263.06,89a7.57,7.57,0,0,1-3,.57,7,7,0,0,1-3.41-.79,5.45,5.45,0,0,1-2.26-2.2,6.67,6.67,0,0,1-.79-3.29,6.78,6.78,0,0,1,.8-3.33,5.64,5.64,0,0,1,2.26-2.23,6.75,6.75,0,0,1,3.31-.79A5.79,5.79,0,0,1,264.51,78.63Zm-1.78,3.57a2.82,2.82,0,0,0-.78-2,2.64,2.64,0,0,0-2-.73,2.73,2.73,0,0,0-1.92.72,3.33,3.33,0,0,0-1,2Z" fill="#fff"/><path d="M279.51,78.17a4.79,4.79,0,0,1,1.23,3.45V89.4H277.2V82.66a2.54,2.54,0,0,0-.66-1.85,2.34,2.34,0,0,0-1.78-.68,2.62,2.62,0,0,0-2.07.91,3.32,3.32,0,0,0-.76,2.26v6.1h-3.54V77h3.54v2.17a4.61,4.61,0,0,1,4.28-2.3A4.34,4.34,0,0,1,279.51,78.17Z" fill="#fff"/><path d="M291.46,88.71a6.15,6.15,0,0,1-1.53.63,6.54,6.54,0,0,1-1.69.22,4,4,0,0,1-2.81-1,3.64,3.64,0,0,1-1.08-2.83V80h-1.73V77.58h1.73V74.17h3.52v3.41h3.36V80h-3.36v5.1c0,1,.37,1.43,1.13,1.43a3.93,3.93,0,0,0,1.72-.46Z" fill="#fff"/><path d="M299.39,79.77a6.23,6.23,0,0,0-1.77-.31,2,2,0,0,0-1,.23.74.74,0,0,0-.4.69.85.85,0,0,0,.53.78,9.87,9.87,0,0,0,1.73.62,19,19,0,0,1,2.16.77,4,4,0,0,1,1.47,1.13,3,3,0,0,1,.62,2,3.33,3.33,0,0,1-1.41,2.86,6,6,0,0,1-3.62,1,9.48,9.48,0,0,1-2.92-.45,7.55,7.55,0,0,1-2.44-1.28l1.15-2.39a7.36,7.36,0,0,0,2.1,1.14,6.71,6.71,0,0,0,2.2.4,2.35,2.35,0,0,0,1.14-.24.78.78,0,0,0,.42-.73.91.91,0,0,0-.54-.82,9,9,0,0,0-1.73-.65,17.39,17.39,0,0,1-2.11-.73,3.81,3.81,0,0,1-1.44-1.12,3,3,0,0,1-.59-1.94,3.35,3.35,0,0,1,1.38-2.86,5.77,5.77,0,0,1,3.49-1,9.21,9.21,0,0,1,2.53.36,8.56,8.56,0,0,1,2.3,1l-1.22,2.42A10,10,0,0,0,299.39,79.77Z" fill="#fff"/><path d="M318.27,89.4V87.7A5,5,0,0,1,314,89.49,4.9,4.9,0,0,1,311.8,89a3.55,3.55,0,0,1-2-3.25A3.09,3.09,0,0,1,311,83.18a5.34,5.34,0,0,1,3.37-1h3.86v-.58a2.51,2.51,0,0,0-.79-2,3.43,3.43,0,0,0-2.31-.7,6.64,6.64,0,0,0-3.75,1.31l-.9-1.47a10.68,10.68,0,0,1,2.43-1.23,8.33,8.33,0,0,1,2.65-.38,5.06,5.06,0,0,1,3.52,1.12,4,4,0,0,1,1.27,3.11l0,8ZM317,87a2.84,2.84,0,0,0,1.25-1.92V83.85h-3.56a4.14,4.14,0,0,0-2.15.44,1.51,1.51,0,0,0-.71,1.38,1.79,1.79,0,0,0,.72,1.5,3.07,3.07,0,0,0,1.91.55A4.32,4.32,0,0,0,317,87Z" fill="#fff"/><path d="M334.33,78.42a4.74,4.74,0,0,1,1.22,3.46V89.4h-2.14v-7a3.25,3.25,0,0,0-.86-2.4,3.21,3.21,0,0,0-2.38-.86,3.66,3.66,0,0,0-2.66,1,4.11,4.11,0,0,0-1.16,2.66V89.4h-2.14V77.23h2.14v2.58q1.22-2.61,4.62-2.65A4.45,4.45,0,0,1,334.33,78.42Z" fill="#fff"/><path d="M350.7,72.33V89.4h-2.13V87a4.87,4.87,0,0,1-1.86,1.88,5.45,5.45,0,0,1-2.7.65,5.83,5.83,0,0,1-3.05-.79,5.47,5.47,0,0,1-2-2.21,6.78,6.78,0,0,1-.74-3.23,6.62,6.62,0,0,1,.74-3.19,5.43,5.43,0,0,1,2-2.17,5.87,5.87,0,0,1,3-.78,5.63,5.63,0,0,1,2.74.64,4.6,4.6,0,0,1,1.84,1.87V72.33Zm-4.12,14.79A3.94,3.94,0,0,0,348,85.58a4.68,4.68,0,0,0,.53-2.23,4.74,4.74,0,0,0-.53-2.26,4,4,0,0,0-1.46-1.54,4.2,4.2,0,0,0-2.13-.55,4,4,0,0,0-2.13.57,3.9,3.9,0,0,0-1.46,1.55,5,5,0,0,0,0,4.46,3.87,3.87,0,0,0,1.46,1.54,4.4,4.4,0,0,0,4.26,0Z" fill="#fff"/><path d="M364.87,77.86a5.14,5.14,0,0,1,2.62-.7v2.07A3.92,3.92,0,0,0,363.17,83V89.4H361V77.23h2.14v2.62A4.51,4.51,0,0,1,364.87,77.86Z" fill="#fff"/><path d="M379,78.83a6.81,6.81,0,0,1,1.45,4.63c0,.31,0,.54,0,.69h-9.62a4.16,4.16,0,0,0,1.37,2.6,4,4,0,0,0,2.75,1,5.14,5.14,0,0,0,2-.39,4.78,4.78,0,0,0,1.62-1.11l1.18,1.22a6.16,6.16,0,0,1-2.17,1.5,7.2,7.2,0,0,1-2.8.53,6.52,6.52,0,0,1-3.19-.77,5.4,5.4,0,0,1-2.16-2.18,7,7,0,0,1,0-6.38A5.5,5.5,0,0,1,371.54,78a6.2,6.2,0,0,1,3.15-.8A5.37,5.37,0,0,1,379,78.83Zm-.48,3.67a3.54,3.54,0,0,0-3.77-3.57,3.81,3.81,0,0,0-2.68,1,4,4,0,0,0-1.28,2.6Z" fill="#fff"/><path d="M388.4,79.07a4.26,4.26,0,0,0-2.13.53,3.74,3.74,0,0,0-1.46,1.49,4.63,4.63,0,0,0-.53,2.24,4.73,4.73,0,0,0,.52,2.23,3.82,3.82,0,0,0,1.43,1.5,4,4,0,0,0,2.08.54,5.44,5.44,0,0,0,2.11-.39A4.07,4.07,0,0,0,392,86.09l1.22,1.24a5.3,5.3,0,0,1-2.11,1.58,7.15,7.15,0,0,1-2.88.56,6.19,6.19,0,0,1-3.15-.79,5.56,5.56,0,0,1-2.16-2.17,7,7,0,0,1,0-6.38,5.55,5.55,0,0,1,2.16-2.19,6.29,6.29,0,0,1,3.15-.78,7.81,7.81,0,0,1,2.77.47A5.48,5.48,0,0,1,393.05,79l-1.18,1.47A4.82,4.82,0,0,0,388.4,79.07Z" fill="#fff"/><path d="M404.89,78.83a6.81,6.81,0,0,1,1.45,4.63c0,.31,0,.54,0,.69H396.7a4.16,4.16,0,0,0,1.37,2.6,4,4,0,0,0,2.75,1,5.14,5.14,0,0,0,2-.39,4.78,4.78,0,0,0,1.62-1.11l1.18,1.22a6.22,6.22,0,0,1-2.16,1.5,7.29,7.29,0,0,1-2.81.53,6.52,6.52,0,0,1-3.19-.77,5.52,5.52,0,0,1-2.16-2.18,7,7,0,0,1,0-6.38A5.56,5.56,0,0,1,397.46,78a6.2,6.2,0,0,1,3.15-.8A5.36,5.36,0,0,1,404.89,78.83Zm-.48,3.67a3.54,3.54,0,0,0-3.77-3.57,3.81,3.81,0,0,0-2.68,1,4,4,0,0,0-1.28,2.6Z" fill="#fff"/><path d="M419.38,78.42a4.74,4.74,0,0,1,1.22,3.46V89.4h-2.14v-7a3.25,3.25,0,0,0-.86-2.4,3.21,3.21,0,0,0-2.38-.86,3.66,3.66,0,0,0-2.66,1,4.11,4.11,0,0,0-1.16,2.66V89.4h-2.14V77.23h2.14v2.58q1.22-2.61,4.62-2.65A4.45,4.45,0,0,1,419.38,78.42Z" fill="#fff"/><path d="M431,88.59a5.25,5.25,0,0,1-2.85.9,3.27,3.27,0,0,1-2.35-.86,3.47,3.47,0,0,1-.9-2.61V79.28h-1.72V77.64h1.72V74.38H427v3.26h3.72v1.64H427v6.34a2.28,2.28,0,0,0,.36,1.45,1.36,1.36,0,0,0,1.11.44,3.85,3.85,0,0,0,1.88-.57Z" fill="#fff"/><path d="M450.78,77V88.25a5.54,5.54,0,0,1-.83,3,5.4,5.4,0,0,1-2.33,2,8.11,8.11,0,0,1-3.45.7,9.43,9.43,0,0,1-2.88-.44,9.63,9.63,0,0,1-2.5-1.2l1.31-2.48a6.49,6.49,0,0,0,3.84,1.24,3.65,3.65,0,0,0,2.42-.75,2.46,2.46,0,0,0,.9-2V87a4.1,4.1,0,0,1-1.57,1.33,4.83,4.83,0,0,1-2.16.46,5.39,5.39,0,0,1-2.82-.74,5.08,5.08,0,0,1-1.91-2.11,6.93,6.93,0,0,1-.67-3.13,6.67,6.67,0,0,1,.67-3.07,5.13,5.13,0,0,1,1.91-2.06,5.39,5.39,0,0,1,2.82-.73,4.78,4.78,0,0,1,2.14.47,4.51,4.51,0,0,1,1.59,1.32V77Zm-4.33,8.16a3.29,3.29,0,0,0,.81-2.31,3.36,3.36,0,0,0-.81-2.33,2.9,2.9,0,0,0-4.18,0,3.69,3.69,0,0,0,0,4.64,2.95,2.95,0,0,0,4.2,0Z" fill="#fff"/><path d="M459.24,77.51a4.82,4.82,0,0,1,2.41-.62v3.33l-.55,0a3.62,3.62,0,0,0-2.58.88,3.06,3.06,0,0,0-1,2.36v6H454V77h3.54v2.23A4.54,4.54,0,0,1,459.24,77.51Z" fill="#fff"/><path d="M470.37,89.4V88a3.89,3.89,0,0,1-1.61,1.19,5.8,5.8,0,0,1-2.28.42,4.39,4.39,0,0,1-3.1-1.07,3.64,3.64,0,0,1-1.15-2.8A3.28,3.28,0,0,1,463.46,83a5.54,5.54,0,0,1,3.48-1h3.41v-.23a1.86,1.86,0,0,0-.66-1.53,2.93,2.93,0,0,0-1.92-.54,7.68,7.68,0,0,0-3.68,1.08L463,78.31a14.76,14.76,0,0,1,2.76-1.08,10.92,10.92,0,0,1,2.83-.34,5.75,5.75,0,0,1,3.85,1.17,4.12,4.12,0,0,1,1.39,3.26l0,8.08Zm-1-2.9a2.07,2.07,0,0,0,1-1.33V84.06h-2.78a2.8,2.8,0,0,0-1.53.33,1.21,1.21,0,0,0-.5,1.07,1.38,1.38,0,0,0,.52,1.14,2.12,2.12,0,0,0,1.41.43A3.4,3.4,0,0,0,469.38,86.5Z" fill="#fff"/><path d="M489.12,72.33V89.4H485.6V87.58A4.45,4.45,0,0,1,483.94,89a5,5,0,0,1-2.25.5,5.83,5.83,0,0,1-3.07-.8,5.24,5.24,0,0,1-2.05-2.24,7.43,7.43,0,0,1-.73-3.34,7.24,7.24,0,0,1,.72-3.29,5.19,5.19,0,0,1,2-2.2,5.8,5.8,0,0,1,3-.78,4.61,4.61,0,0,1,4,2V72.33Zm-4.39,13.4a4,4,0,0,0,0-5,2.86,2.86,0,0,0-2.22-1,2.9,2.9,0,0,0-2.24,1,3.92,3.92,0,0,0,0,5,2.87,2.87,0,0,0,2.24,1A2.83,2.83,0,0,0,484.73,85.73Z" fill="#fff"/><path d="M504.41,77V89.4h-3.52V87.21a4.35,4.35,0,0,1-4.14,2.33,4.26,4.26,0,0,1-3.25-1.28,4.82,4.82,0,0,1-1.21-3.46V77h3.54v6.77a2.58,2.58,0,0,0,.62,1.83,2.21,2.21,0,0,0,1.71.67,2.53,2.53,0,0,0,2-.89,3.41,3.41,0,0,0,.73-2.26V77Z" fill="#fff"/><path d="M515,89.4V88a3.89,3.89,0,0,1-1.61,1.19,5.74,5.74,0,0,1-2.27.42A4.4,4.4,0,0,1,508,88.49a3.67,3.67,0,0,1-1.15-2.8A3.28,3.28,0,0,1,508.1,83a5.55,5.55,0,0,1,3.49-1H515v-.23a1.89,1.89,0,0,0-.65-1.53,3,3,0,0,0-1.93-.54,7.68,7.68,0,0,0-3.68,1.08l-1.1-2.44a14.76,14.76,0,0,1,2.76-1.08,10.92,10.92,0,0,1,2.83-.34,5.73,5.73,0,0,1,3.85,1.17,4.12,4.12,0,0,1,1.39,3.26l0,8.08Zm-1-2.9a2.07,2.07,0,0,0,1-1.33V84.06h-2.78a2.8,2.8,0,0,0-1.53.33,1.21,1.21,0,0,0-.5,1.07,1.41,1.41,0,0,0,.52,1.14,2.15,2.15,0,0,0,1.42.43A3.39,3.39,0,0,0,514,86.5Z" fill="#fff"/><path d="M529.2,88.71a6.24,6.24,0,0,1-1.52.63,6.56,6.56,0,0,1-1.7.22,4,4,0,0,1-2.8-1,3.64,3.64,0,0,1-1.08-2.83V80h-1.73V77.58h1.73V74.17h3.52v3.41H529V80h-3.35v5.1c0,1,.37,1.43,1.12,1.43a4,4,0,0,0,1.73-.46Z" fill="#fff"/><path d="M541.11,78.63a7,7,0,0,1,1.55,4.81c0,.37,0,.65,0,.85h-8.88a3.15,3.15,0,0,0,3.2,2.49,4.42,4.42,0,0,0,3.12-1.32L542,87.35A6.21,6.21,0,0,1,539.66,89a7.64,7.64,0,0,1-3,.57,7.05,7.05,0,0,1-3.42-.79,5.48,5.48,0,0,1-2.25-2.2,7.21,7.21,0,0,1,0-6.62,5.68,5.68,0,0,1,2.25-2.23,6.78,6.78,0,0,1,3.31-.79A5.81,5.81,0,0,1,541.11,78.63Zm-1.79,3.57a2.82,2.82,0,0,0-.78-2,2.63,2.63,0,0,0-1.95-.73,2.69,2.69,0,0,0-1.92.72,3.34,3.34,0,0,0-1,2Z" fill="#fff"/><path d="M550.78,79.77a6.23,6.23,0,0,0-1.77-.31,2.08,2.08,0,0,0-1,.23.75.75,0,0,0-.39.69.85.85,0,0,0,.53.78,9.57,9.57,0,0,0,1.73.62,19,19,0,0,1,2.16.77,4.21,4.21,0,0,1,1.47,1.13,3,3,0,0,1,.62,2,3.33,3.33,0,0,1-1.41,2.86,6.07,6.07,0,0,1-3.63,1,9.53,9.53,0,0,1-2.92-.45,7.66,7.66,0,0,1-2.44-1.28l1.15-2.39A7.29,7.29,0,0,0,547,86.56a6.67,6.67,0,0,0,2.2.4,2.28,2.28,0,0,0,1.13-.24.77.77,0,0,0,.43-.73.91.91,0,0,0-.54-.82,8.9,8.9,0,0,0-1.74-.65,17.8,17.8,0,0,1-2.1-.73,3.81,3.81,0,0,1-1.44-1.12,3,3,0,0,1-.6-1.94,3.35,3.35,0,0,1,1.38-2.86,5.8,5.8,0,0,1,3.5-1,9.26,9.26,0,0,1,2.53.36,8.7,8.7,0,0,1,2.3,1l-1.22,2.42A10.24,10.24,0,0,0,550.78,79.77Z" fill="#fff"/><circle cx="776.59" cy="70.01" r="66.33" fill="#fff"/><path d="M759.76,23.1h1.33c0,.06.11,0,.16,0a6,6,0,0,1,1.67.43,7.34,7.34,0,0,1,3.17,2.67,20.64,20.64,0,0,1,2.87,6,53.64,53.64,0,0,1,1.37,5.73c.38,2,.68,4,.91,6,.19,1.66.27,3.34.41,5a14.2,14.2,0,0,0-.89,2.23,14.34,14.34,0,0,0-.65,2.66,18,18,0,0,1-.61-6.08,20.06,20.06,0,0,0-1,2.48,3.78,3.78,0,0,1,0-.67c0-1.35,0-2.7-.07-4a57.41,57.41,0,0,0-.8-6.79,26.75,26.75,0,0,0-2.39-7.34,9.81,9.81,0,0,0-2.13-3,4.82,4.82,0,0,0-3.1-1.43A6,6,0,0,0,754,31.26a11,11,0,0,0-.44,5.24A41.92,41.92,0,0,0,755,43.15a51.9,51.9,0,0,0,6.86,14.17,19.86,19.86,0,0,0,3.25,3.78c.65.57,1,.51,1.41-.25a12.31,12.31,0,0,0,1.14-2.91c.18-.69.33-1.39.49-2.09a10.67,10.67,0,0,0,.5,1.72,4.07,4.07,0,0,0,1.53,2.23.16.16,0,0,1,.08.21,5,5,0,0,0,.07,2.44,15.32,15.32,0,0,0,.76,2.47,11.64,11.64,0,0,0,.66,1.49,5.44,5.44,0,0,1,.09-2.41,7.27,7.27,0,0,1,1-2.26A19,19,0,0,0,774,70.48a.7.7,0,0,0,0-.14,34.79,34.79,0,0,1,.2-4.56,9.62,9.62,0,0,1,.63-2.67,1.94,1.94,0,0,1,1-1.12c.13-.06.22-.06.28.09a16.87,16.87,0,0,1,1.12,3.37,5.67,5.67,0,0,1,.09,2.32s0,.12,0,.13.12-.05.15-.1a11.63,11.63,0,0,0,2.26-4.9,6.5,6.5,0,0,0,.09-1.39c0-.46-.13-.9-.16-1.34h0a10.15,10.15,0,0,1,1.43,1.5,9.08,9.08,0,0,1,1.77,3.4,6.08,6.08,0,0,1,.19,2c0,.39-.16.77-.17,1.16,0,0,0,0,0,.06h0l0-.06A1.48,1.48,0,0,0,783,68a20.3,20.3,0,0,0,1.29-3.38,11.07,11.07,0,0,0,.46-3.18c0-.13,0-.25,0-.42a1.75,1.75,0,0,1,.48.46,4.84,4.84,0,0,1,.74,2c.09.48.16,1,.24,1.44a3.39,3.39,0,0,0,.27-.66A9.72,9.72,0,0,0,787,60.2a3.91,3.91,0,0,0-.64-1.76.25.25,0,0,1,0-.34,4.15,4.15,0,0,0,.45-1l0,.09a13.68,13.68,0,0,0,1.31,3.66c.45.82.79.87,1.49.25a17,17,0,0,0,2.2-2.37,48.72,48.72,0,0,0,5.13-8.54,45.79,45.79,0,0,0,3.82-11.49,17.48,17.48,0,0,0,.36-5.49,8.24,8.24,0,0,0-1.61-4.07,5.91,5.91,0,0,0-3.46-2,4.57,4.57,0,0,0-4,.83,7.72,7.72,0,0,0-1.78,1.87,20.85,20.85,0,0,0-2.36,5.09,31.6,31.6,0,0,0-1.24,5.53c-.2,1.41-.37,2.81-.46,4.23,0,.66-.09,1.31-.12,2q0,1.62,0,3.24c0,.78.13,1.56.12,2.34-.15-.41-.31-.81-.47-1.22-.1-.26-.21-.51-.32-.77,0,.71,0,1.4,0,2.09a5.61,5.61,0,0,1-.35,2,2,2,0,0,1-1.16,1.27c-.18.06-.28.05-.35-.16a3.29,3.29,0,0,1-.09-1.53,6.08,6.08,0,0,1,.86-2c0-.06.1-.12.07-.18s-.13,0-.2,0a4.09,4.09,0,0,0-1.45.34c.15-2,.3-3.94.48-5.9s.43-4,.75-6A49.89,49.89,0,0,1,786.21,31a16.1,16.1,0,0,1,3.23-5.71,6.46,6.46,0,0,1,6-2.07,9.18,9.18,0,0,1,5,2.49,10.94,10.94,0,0,1,3.37,7.78v2.27c0,.73-.07,1.45-.16,2.17a37.51,37.51,0,0,1-1.41,6.47,87.43,87.43,0,0,1-6.4,15.08c-.39.74-.82,1.45-1.24,2.17a.75.75,0,0,0,.2,1.16L795,63a10.93,10.93,0,0,1,1.83,1.83,12.22,12.22,0,0,1,2.23,4.87,14.81,14.81,0,0,1,.36,4.09c0,1-.19,2.09-.31,3.12s-.27,2.34-.43,3.5c-.19,1.44-.41,2.88-.6,4.33-.25,1.85-.57,3.69-.88,5.53s-.57,3.5-.86,5.26c-.2,1.25-.36,2.51-.63,3.75a43,43,0,0,1-2.3,7c-.08,0-.08-.14-.11-.21-.14-.33-.25-.67-.4-1a25.54,25.54,0,0,0-4.22-6.13A23.24,23.24,0,0,0,783.92,95a14.29,14.29,0,0,0-6.16-2.24,9.28,9.28,0,0,0-4.57.68,14.31,14.31,0,0,0-4.41,2.9,28.43,28.43,0,0,0-4.57,5.4,19.74,19.74,0,0,0-2.39,5.22c-.24.8-.35,1.64-.55,2.45-.06.17-.11.35-.18.56,0-.08-.07-.13-.09-.18-.77-1.74-1.5-3.49-2.18-5.27a31.25,31.25,0,0,1-1.47-4.51,39.11,39.11,0,0,1-.59-5.4c-.08-1.14-.16-2.27-.23-3.4-.06-1-.21-1.9-.31-2.84-.15-1.25-.19-2.51-.26-3.77-.08-1.46-.21-2.93-.35-4.38s-.23-2.64-.32-4a15,15,0,0,1,.26-4.28A16.12,16.12,0,0,1,759,65.09a13.93,13.93,0,0,1,1.44-1.53.65.65,0,0,0,.17-.92l-.12-.22c-1.78-3.14-3.45-6.34-4.91-9.64a57.13,57.13,0,0,1-4.19-12.57,27,27,0,0,1-.57-4.82c0-.06,0-.12,0-.15v-.69c.07,0,0-.07,0-.12a12.59,12.59,0,0,1,.1-1.5,13.44,13.44,0,0,1,1.26-4.48,9.85,9.85,0,0,1,6.45-5.07A6.25,6.25,0,0,1,759.76,23.1Zm24.78,64.36c.21,0,.44,0,.66,0a5,5,0,0,0,.66-.08,13.12,13.12,0,0,0,7.56-3.89,4.86,4.86,0,0,0,1.28-5.07,9.91,9.91,0,0,0-4.42-5.64,4.67,4.67,0,0,0-4-.45,6.71,6.71,0,0,0-2.76,1.72A13.33,13.33,0,0,0,780,80.68a7.87,7.87,0,0,0,.73,5.39,2.39,2.39,0,0,0,2,1.4A16.86,16.86,0,0,0,784.54,87.46Zm-13.9.07h.41a2.65,2.65,0,0,0,2.42-1.21,7.11,7.11,0,0,0,1-3.16,11.92,11.92,0,0,0-5.83-10.55,4.1,4.1,0,0,0-3-.49,7.52,7.52,0,0,0-3.61,2.17,10.6,10.6,0,0,0-2.38,3.85,4.64,4.64,0,0,0,.69,4.73,11.11,11.11,0,0,0,2.31,2.18,14,14,0,0,0,8,2.48Z" fill="#563a39"/><path d="M793.39,106.17c.08.38.18.75.26,1.13a8,8,0,0,1-1.55,6.53,13.9,13.9,0,0,1-7.06,5,15.87,15.87,0,0,1-4.42.7c-.08,0-.17,0-.23,0H777c0-.07-.1,0-.16-.06a39.78,39.78,0,0,1-5.86-.54,18.29,18.29,0,0,1-4.8-1.42,8.08,8.08,0,0,1-4.87-7.81c0-.12.06-.26,0-.37.2-.81.32-1.65.55-2.45a20.22,20.22,0,0,1,2.39-5.22,28.43,28.43,0,0,1,4.57-5.39,14.63,14.63,0,0,1,4.42-2.91,9.49,9.49,0,0,1,4.56-.68,14.38,14.38,0,0,1,6.17,2.24,23.23,23.23,0,0,1,4.76,3.92,25.45,25.45,0,0,1,4.21,6.12c.15.32.27.65.4,1C793.31,106,793.31,106.11,793.39,106.17ZM788.3,111a.37.37,0,0,0-.2.13,24.22,24.22,0,0,1-4.63,2.85,13.08,13.08,0,0,1-7.9.9,23.79,23.79,0,0,1-6.38-2.31c-.88-.44-1.73-.94-2.59-1.42h0c0,.13.09.2.16.29A15.38,15.38,0,0,0,774,116.5a11.7,11.7,0,0,0,13.51-4.29,5.74,5.74,0,0,0,.76-1.23s0,0,0,0a0,0,0,0,0,0,0Zm.79-7.24a1.2,1.2,0,0,0-.27-.93,5.46,5.46,0,0,0-1.37-1.3,2.84,2.84,0,0,0-3.63.29,3.07,3.07,0,0,0-.8,2.1,8.17,8.17,0,0,1-1.28,3.93c-.4.66-.84,1.31-1.29,1.93a.56.56,0,0,0,.2.92.9.9,0,0,0,.86,0,23.6,23.6,0,0,0,5.62-3.22,4.76,4.76,0,0,0,2-3.72Zm-22.37.51a2.71,2.71,0,0,0,.41,1.46,8.24,8.24,0,0,0,2.46,2.46,31.1,31.1,0,0,0,4.07,2.27,4.58,4.58,0,0,0,.86.29.84.84,0,0,0,.8-.21.4.4,0,0,0,.12-.51,1.74,1.74,0,0,0-.41-.6c-.09-.09-.19-.17-.18-.29s-.07-.27-.16-.39-.19-.22-.28-.34a8.1,8.1,0,0,1-1.64-4.65,2.75,2.75,0,0,0-3.2-2.73,3.47,3.47,0,0,0-2.85,3.24Z" fill="#af8070"/><path d="M803.84,33.49h0v2.28h0C803.85,35,803.85,34.25,803.84,33.49Z" fill="#af8070"/><path d="M768.11,55.84c-.16.7-.31,1.4-.49,2.09a12.14,12.14,0,0,1-1.14,2.91c-.42.76-.76.82-1.41.25a19.5,19.5,0,0,1-3.25-3.77A52.25,52.25,0,0,1,755,43.14a41.44,41.44,0,0,1-1.44-6.65,10.92,10.92,0,0,1,.44-5.23,6.17,6.17,0,0,1,1.67-2.73A6.32,6.32,0,0,1,760,26.91a4.87,4.87,0,0,1,3.1,1.43,10,10,0,0,1,2.13,3,26.64,26.64,0,0,1,2.39,7.34,59.43,59.43,0,0,1,.81,6.78c.08,1.35.1,2.7.07,4.05,0,.22,0,.44,0,.67,0,.07,0,.16,0,.23a13.89,13.89,0,0,0-.5,3.85C768,54.78,768.07,55.31,768.11,55.84Z" fill="#348fc0"/><path d="M786.17,52.14c0-.78-.1-1.56-.12-2.34q-.06-1.62,0-3.24c0-.66.08-1.31.12-2,.09-1.41.25-2.82.46-4.22a33.05,33.05,0,0,1,1.23-5.54,20.64,20.64,0,0,1,2.37-5.08A7.75,7.75,0,0,1,792,27.87a4.56,4.56,0,0,1,4-.82,5.86,5.86,0,0,1,3.46,2,8.21,8.21,0,0,1,1.61,4.06,17.24,17.24,0,0,1-.36,5.5,45.66,45.66,0,0,1-3.82,11.49,48.88,48.88,0,0,1-5.13,8.53,16.52,16.52,0,0,1-2.2,2.38c-.7.62-1.05.56-1.49-.25a14,14,0,0,1-1.32-3.67.32.32,0,0,0,0-.09,6.32,6.32,0,0,0,0-2.67A22.09,22.09,0,0,0,786.17,52.14Z" fill="#348fc0"/><path d="M786.17,52.14a19.93,19.93,0,0,1,.58,2.24,6.32,6.32,0,0,1,0,2.67,4.15,4.15,0,0,1-.45,1,.27.27,0,0,0,0,.34,4,4,0,0,1,.64,1.77,9.53,9.53,0,0,1-.48,4.1,3.44,3.44,0,0,1-.26.67c-.09-.49-.16-1-.24-1.45a4.64,4.64,0,0,0-.75-2,1.72,1.72,0,0,0-.48-.45,3.17,3.17,0,0,1,0,.41,10.69,10.69,0,0,1-.46,3.18A19.15,19.15,0,0,1,783,68a.92.92,0,0,1-.13.21h0c0-.39.13-.77.17-1.16a5.59,5.59,0,0,0-.19-2,9.13,9.13,0,0,0-1.76-3.4,10.7,10.7,0,0,0-1.43-1.5h0c0,.44.15.88.16,1.34a8.12,8.12,0,0,1-.09,1.39,11.72,11.72,0,0,1-2.26,4.89c0,.06-.07.13-.15.1s0-.08,0-.13a5.35,5.35,0,0,0-.09-2.32,16.14,16.14,0,0,0-1.11-3.36c-.07-.16-.15-.16-.29-.1a2.05,2.05,0,0,0-.95,1.12,9.44,9.44,0,0,0-.63,2.68,32.92,32.92,0,0,0-.19,4.55l0,.14a19,19,0,0,1-1.23-8.73,7.1,7.1,0,0,0-.95,2.25,5.45,5.45,0,0,0-.09,2.41,11.1,11.1,0,0,1-.67-1.49,16.39,16.39,0,0,1-.76-2.47,5.12,5.12,0,0,1-.07-2.43.17.17,0,0,0-.07-.22,4,4,0,0,1-1.53-2.22,9.74,9.74,0,0,1-.5-1.73c-.06-.53-.13-1.06-.14-1.59a14,14,0,0,1,.5-3.85c0-.08,0-.16,0-.23a20.15,20.15,0,0,1,1-2.48,18.15,18.15,0,0,0,.61,6.08,13.59,13.59,0,0,1,.65-2.66,13.29,13.29,0,0,1,.89-2.23,1.21,1.21,0,0,0,0,.19.41.41,0,0,0,0,.09,5.17,5.17,0,0,0,0,1.71,2.33,2.33,0,0,0,.22.87,8.31,8.31,0,0,0,.76,1.93,5.73,5.73,0,0,0,.48-3.65h0a8.81,8.81,0,0,1,.93,1c.36.52.74,1,1,1.6a13.53,13.53,0,0,1,.68,1.57,14.35,14.35,0,0,1,1.36-3.9,12.28,12.28,0,0,0,1.24,4.26,5.58,5.58,0,0,0,1.12-4,3.41,3.41,0,0,1-.15-.69h.05A17.11,17.11,0,0,1,781,53.43a4.62,4.62,0,0,1,.47-.69,3.77,3.77,0,0,1,1.24-.89,4.28,4.28,0,0,1,1.46-.35c.06,0,.16,0,.19,0s0,.12-.06.17a5.73,5.73,0,0,0-.87,2.05,3.35,3.35,0,0,0,.09,1.54c.07.21.17.22.35.16a2,2,0,0,0,1.16-1.27,5.18,5.18,0,0,0,.35-2c0-.69,0-1.38,0-2.08.11.25.21.5.32.76S786,51.74,786.17,52.14Z" fill="#060707"/><path d="M784.54,87.46c-.63,0-1.26.1-1.88,0a2.4,2.4,0,0,1-2-1.41A7.85,7.85,0,0,1,780,80.7a13.32,13.32,0,0,1,3.58-6.64,6.93,6.93,0,0,1,2.76-1.72,4.63,4.63,0,0,1,4,.45,9.94,9.94,0,0,1,4.42,5.65,4.83,4.83,0,0,1-1.28,5.06,13.06,13.06,0,0,1-7.56,3.89q-.33.06-.66.09C785,87.49,784.75,87.46,784.54,87.46Zm.84-.38a4.19,4.19,0,0,0,4.2-2.82,3.37,3.37,0,0,0,.36-1.65.87.87,0,0,0-1.26-.77l-.44.22a2.58,2.58,0,0,1-.51.23,1.41,1.41,0,0,1-1.64-.65,1.26,1.26,0,0,1,0-1.65c.14-.17.3-.31.44-.47A.91.91,0,0,0,786,78a4.38,4.38,0,0,0-2.35.2,4.18,4.18,0,0,0-2.82,3,5.87,5.87,0,0,0,.3,3.46,3.57,3.57,0,0,0,2.36,2.21,6.15,6.15,0,0,0,1.85.24Z" fill="#fff"/><path d="M770.64,87.53a14,14,0,0,1-8-2.49,10.44,10.44,0,0,1-2.32-2.18,4.67,4.67,0,0,1-.69-4.72,10.72,10.72,0,0,1,2.38-3.86,7.72,7.72,0,0,1,3.61-2.17,4.14,4.14,0,0,1,3,.49A10.78,10.78,0,0,1,774,79.43a10.9,10.9,0,0,1,.5,3.72,6.87,6.87,0,0,1-1,3.16A2.65,2.65,0,0,1,771,87.52Zm-6.27-4.93c0,.15,0,.37,0,.59a2.73,2.73,0,0,0,.1.48,4.33,4.33,0,0,0,3,3.28,7.55,7.55,0,0,0,1.5.14,3.87,3.87,0,0,0,2.51-.61,4,4,0,0,0,2-3.9c-.07-.72-.66-1.21-1.4-.64a2.57,2.57,0,0,1-.41.26,1.28,1.28,0,0,1-1.48-.14,1.38,1.38,0,0,1-.1-2.32l.23-.23a.83.83,0,0,0,.08-1.1,1.1,1.1,0,0,0-.82-.49,5.4,5.4,0,0,0-1.39,0,4.58,4.58,0,0,0-3.86,4.64Z" fill="#fff"/><path d="M782.87,68.22l0,.06v0s0,0,0,0Z" fill="#060707"/><path d="M789.09,103.73a4.8,4.8,0,0,1-2,3.71,23.26,23.26,0,0,1-5.62,3.22.88.88,0,0,1-.86,0,.55.55,0,0,1-.2-.92c.45-.63.89-1.27,1.29-1.93a8.39,8.39,0,0,0,1.28-3.92,3,3,0,0,1,.8-2.1,2.82,2.82,0,0,1,3.62-.3,5.34,5.34,0,0,1,1.38,1.3A1.28,1.28,0,0,1,789.09,103.73Z" fill="#060707"/><path d="M766.72,104.24a3.46,3.46,0,0,1,2.84-3.23,2.76,2.76,0,0,1,3.21,2.72,8.1,8.1,0,0,0,1.63,4.66c.09.12.18.23.28.34a.43.43,0,0,1,.16.39c0,.12.1.2.18.29a2,2,0,0,1,.42.6.4.4,0,0,1-.13.51.83.83,0,0,1-.8.21,5.12,5.12,0,0,1-.86-.29,33.77,33.77,0,0,1-4.07-2.27,8.1,8.1,0,0,1-2.45-2.46A2.77,2.77,0,0,1,766.72,104.24Z" fill="#060707"/><path d="M766.59,111.12c.86.48,1.71,1,2.59,1.42a23.85,23.85,0,0,0,6.39,2.31,13.05,13.05,0,0,0,7.89-.9,23.91,23.91,0,0,0,4.63-2.85c.07,0,.12-.12.21-.13h0a6.17,6.17,0,0,1-.76,1.23,11.93,11.93,0,0,1-6.53,4.57,11.79,11.79,0,0,1-7-.28,15.33,15.33,0,0,1-7.28-5.09c-.07-.09-.17-.17-.17-.29Z" fill="#fff"/><path d="M788.3,111l0,0h0l0,0Z" fill="#fff"/><path d="M766.59,111.11h0Z" fill="#fff"/><path d="M779.3,49.8a4,4,0,0,0,.15.69,5,5,0,0,1-.65,3.32,3.88,3.88,0,0,1-.47.72,11.85,11.85,0,0,1-1.23-4.26,14.21,14.21,0,0,0-1.37,3.91,10.94,10.94,0,0,0-.68-1.57A14.35,14.35,0,0,0,774,51a4.08,4.08,0,0,1,2.87-1.7l.19,0a2.15,2.15,0,0,0,.62,0,5.22,5.22,0,0,1,1.44.39A.3.3,0,0,1,779.3,49.8Z" fill="#348fc0"/><path d="M777.06,44.48a1.92,1.92,0,1,1,.73-3.78,1.85,1.85,0,0,1,.85.39,1.93,1.93,0,0,1,.31,2.66,1.88,1.88,0,0,1-1.28.74A3.11,3.11,0,0,1,777.06,44.48Z" fill="#348fc0"/><path d="M777.06,44.48a3.1,3.1,0,0,0,.61,0v4.77a2.15,2.15,0,0,1-.62,0Z" fill="#060707"/><path d="M781.47,52.74a6.87,6.87,0,0,0-.47.69,18.13,18.13,0,0,0-1.65-3.61,3,3,0,0,1,1.23,1,4,4,0,0,1,.85,1.83S781.46,52.71,781.47,52.74Z" fill="#348fc0"/><path d="M771.82,51.74a2.34,2.34,0,0,1-.23-.87,5.17,5.17,0,0,1,0-1.71.41.41,0,0,1,0-.09C771.71,50,771.78,50.86,771.82,51.74Z" fill="#4b3938"/><path d="M773.06,50l0,0,0,0v0Z" fill="#060707"/><path d="M779.64,60.15h0Z" fill="#4b3938"/><path d="M785.38,87.08a6.08,6.08,0,0,1-1.85-.25,3.53,3.53,0,0,1-2.36-2.2,5.91,5.91,0,0,1-.3-3.47,4.17,4.17,0,0,1,2.82-3A4.29,4.29,0,0,1,786,78a.92.92,0,0,1,.54,1.55c-.13.17-.3.3-.44.47a1.26,1.26,0,0,0,0,1.65,1.4,1.4,0,0,0,1.64.65,2.91,2.91,0,0,0,.51-.22,3,3,0,0,1,.44-.22.87.87,0,0,1,1.26.76,3.37,3.37,0,0,1-.36,1.65A4.26,4.26,0,0,1,786.51,87,3.9,3.9,0,0,1,785.38,87.08Z" fill="#060707"/><path d="M764.37,82.6A4.59,4.59,0,0,1,768.22,78a5.4,5.4,0,0,1,1.39,0,1.08,1.08,0,0,1,.82.49.83.83,0,0,1-.08,1.1l-.23.23a1.38,1.38,0,0,0,.1,2.32,1.27,1.27,0,0,0,1.48.14,3.66,3.66,0,0,0,.42-.26c.73-.57,1.32-.07,1.39.64a4,4,0,0,1-2,3.9,3.86,3.86,0,0,1-2.51.61,7.45,7.45,0,0,1-1.49-.14,4.31,4.31,0,0,1-3-3.28,2.73,2.73,0,0,1-.1-.48C764.39,83,764.37,82.74,764.37,82.6Z" fill="#060707"/></svg>