<svg id="Layer_1" data-name="Layer 1" xmlns="http://www.w3.org/2000/svg" viewBox="0 0 376 75"><defs><style>.cls-1{fill:#fff}</style></defs><title>hacktober circle and text</title><path class="cls-1" d="M64 31.8h3.7V20a2 2 0 0 0 0-.7 1 1 0 0 0-.4-.5 1 1 0 0 0-.4-.2 3 3 0 0 0-.6 0 5.5 5.5 0 0 0-1.1.1 9.4 9.4 0 0 0-1.5.5 12 12 0 0 0-1.5.7 7.3 7.3 0 0 0-1.3 1 4.8 4.8 0 0 0-1 1.2 2.9 2.9 0 0 0-.4 1.4 2.6 2.6 0 0 0 .2 1 1.7 1.7 0 0 0 .4.7 1 1 0 0 0 .5.2 1.8 1.8 0 0 0 .3 0 1.8 1.8 0 0 0 .9-.1 5 5 0 0 0 .6-.4l.5-.4a.9.9 0 0 1 .5-.1 1.4 1.4 0 0 1 .6 0 1.5 1.5 0 0 1 .5.4 2 2 0 0 1 .4.7 2.6 2.6 0 0 1 .2 1 3 3 0 0 1-.4 1.4 3.2 3.2 0 0 1-.8 1 3.4 3.4 0 0 1-1.2.6 4.5 4.5 0 0 1-1.2.2 4.5 4.5 0 0 1-1.8-.3 4 4 0 0 1-1.4-1 4 4 0 0 1-.8-1.4 5 5 0 0 1-.3-1.7 6.5 6.5 0 0 1 .5-2.6 7.4 7.4 0 0 1 1.4-2.2 9.6 9.6 0 0 1 2.1-1.7 14 14 0 0 1 2.7-1.1 17.6 17.6 0 0 1 2.9-.7 20 20 0 0 1 3-.2 8.5 8.5 0 0 1 2.7.2 3.5 3.5 0 0 1 1.4.8 1.8 1.8 0 0 1 .5 1 5.2 5.2 0 0 1 .1.8v12.2h7.6v-10A16.8 16.8 0 0 1 83 16a11.7 11.7 0 0 1 2.3-4 8.6 8.6 0 0 1 3.2-2.1 9.3 9.3 0 0 1 3.4-.7 13.8 13.8 0 0 1 2.3.2 7.8 7.8 0 0 1 1.8.5 3.7 3.7 0 0 1 1.3.9 1.8 1.8 0 0 1 .5 1.2 1.9 1.9 0 0 1-.4 1.1 1.4 1.4 0 0 1-.3.4.8.8 0 0 1-.5 0 1 1 0 0 1-.6-.1 3 3 0 0 1-.6-.6l-.5-.8a5 5 0 0 0-.6-.7 3 3 0 0 0-.7-.6 1.8 1.8 0 0 0-.9-.2 2.8 2.8 0 0 0-2 .7 4.4 4.4 0 0 0-1.1 2 15 15 0 0 0-.6 3.4l-.1 4.5v10.7H93v1.8h-4v12.6a1.6 1.6 0 0 0 .2 1 1 1 0 0 0 .8.4 2.8 2.8 0 0 0 1-.2l1-.4.3.8-1 .6a12.2 12.2 0 0 1-1.4.7 10.6 10.6 0 0 1-1.6.5 7.7 7.7 0 0 1-1.8.2 5.8 5.8 0 0 1-2.2-.4 3.3 3.3 0 0 1-1.4-1 3.3 3.3 0 0 1-.6-1.4 7.8 7.8 0 0 1-.2-1.6V33.7h-7.6V44a11 11 0 0 1-1 5 10 10 0 0 1-2.8 3.4 12.2 12.2 0 0 1-4.2 2 18.6 18.6 0 0 1-5.2.8 11.4 11.4 0 0 1-2-.2 8.3 8.3 0 0 1-1.7-.5 3.9 3.9 0 0 1-1.2-.7 1.3 1.3 0 0 1-.4-1 2.9 2.9 0 0 1 0-.7 2.4 2.4 0 0 1 .4-.7 2 2 0 0 1 .5-.5 1.2 1.2 0 0 1 .6-.2.5.5 0 0 1 .4.2 4.3 4.3 0 0 1 .4.6l.4.7a3.2 3.2 0 0 0 .6.7 3.3 3.3 0 0 0 1 .6 3.5 3.5 0 0 0 1.3.2 6 6 0 0 0 2.8-.5 5.1 5.1 0 0 0 1.9-1.7 7.4 7.4 0 0 0 1-2.5 13.3 13.3 0 0 0 .4-3.2V33.7h-3.8zm38.6-3.9a4.9 4.9 0 0 0-1.3.2 4.5 4.5 0 0 0-1 .4 2.5 2.5 0 0 0-.7.5 1 1 0 0 0-.3.6.5.5 0 0 0 .4.4l.7.4a2.4 2.4 0 0 1 .7.5 1.3 1.3 0 0 1 .3 1 1.8 1.8 0 0 1-.2.8 2.2 2.2 0 0 1-1.2 1 2.3 2.3 0 0 1-.8.2 2.4 2.4 0 0 1-2-.8 3 3 0 0 1-.6-2.1 3.5 3.5 0 0 1 .7-2.2 5.2 5.2 0 0 1 1.7-1.5 8.7 8.7 0 0 1 2.4-.8 13.4 13.4 0 0 1 5.8 0 7.8 7.8 0 0 1 2.6 1.2 5.8 5.8 0 0 1 1.8 2 5.7 5.7 0 0 1 .7 2.8v12.1a1.3 1.3 0 0 0 0 .4.8.8 0 0 0 .3.3.8.8 0 0 0 .5.1 1 1 0 0 0 .7-.3 5.5 5.5 0 0 0 .5-.5l.6.4-.8 1a6 6 0 0 1-2.5 1.7 5.3 5.3 0 0 1-1.9.4 3.7 3.7 0 0 1-2.3-.8 3.8 3.8 0 0 1-1.3-2.4 8.8 8.8 0 0 1-1.4 1.5 7.5 7.5 0 0 1-1.5 1 6.5 6.5 0 0 1-1.5.5 7.1 7.1 0 0 1-1.5.2 6 6 0 0 1-2-.3 4.6 4.6 0 0 1-1.6-1 4.8 4.8 0 0 1-1.1-1.8 6.9 6.9 0 0 1-.5-2.6 5.8 5.8 0 0 1 .8-3.1 6.7 6.7 0 0 1 2-2 13.2 13.2 0 0 1 2.7-1.4l3.2-1.3a3.4 3.4 0 0 0 1.7-1.4 3.8 3.8 0 0 0 .6-2 3.4 3.4 0 0 0-1-2.4 3.3 3.3 0 0 0-2.4-1zm3.3 9.1a1 1 0 0 0-.3-.8 1.3 1.3 0 0 0-.9-.3 3 3 0 0 0-1.4.4 3.4 3.4 0 0 0-1.1 1 5 5 0 0 0-.8 1.5 7.4 7.4 0 0 0-.3 2.2 9.3 9.3 0 0 0 .2 2 3.9 3.9 0 0 0 .5 1.3 1.7 1.7 0 0 0 .7.6 2 2 0 0 0 .8.2 2 2 0 0 0 1-.3 3 3 0 0 0 .8-.7 3.6 3.6 0 0 0 .6-1 3 3 0 0 0 .2-1zm24.9-3.6a2.6 2.6 0 0 1-1-.2 1.9 1.9 0 0 1-.7-.6 2.2 2.2 0 0 1-.4-.7 2.8 2.8 0 0 1-.1-.9 7.7 7.7 0 0 1 0-1 3.6 3.6 0 0 0 0-1 1 1 0 0 0-.3-.6 1.4 1.4 0 0 0-1-.3 3.4 3.4 0 0 0-1.5.4 4.3 4.3 0 0 0-1.5 1.3 7.6 7.6 0 0 0-1 2.3 11.4 11.4 0 0 0-.5 3.4 18 18 0 0 0 .4 4 9.5 9.5 0 0 0 1.2 3 5.8 5.8 0 0 0 2 2 6 6 0 0 0 4.2.6 6 6 0 0 0 1.2-.5 7.9 7.9 0 0 0 1.1-.6q.6-.4 1-.9l.6.5a14.2 14.2 0 0 1-1.2 1.4 10 10 0 0 1-1.8 1.4 10.4 10.4 0 0 1-2.5 1.2 10.7 10.7 0 0 1-3.2.4 9.3 9.3 0 0 1-3.5-.7 9 9 0 0 1-3-2 10 10 0 0 1-2-3.2 11 11 0 0 1-.9-4.3 12 12 0 0 1 .5-3.5 11.4 11.4 0 0 1 1.3-2.9 10.8 10.8 0 0 1 1.8-2.3 12 12 0 0 1 2.3-1.6 11 11 0 0 1 2.5-1 9.4 9.4 0 0 1 2.4-.3 9 9 0 0 1 2.6.3 6 6 0 0 1 2 1 3.8 3.8 0 0 1 1 1.3 3.5 3.5 0 0 1 .4 1.6 4.2 4.2 0 0 1-.1 1.1 3 3 0 0 1-.5 1 2.2 2.2 0 0 1-.8.6 2.3 2.3 0 0 1-1 .3zm12.5-1.6l1.6-2a14.3 14.3 0 0 1 1.8-1.8 9.1 9.1 0 0 1 2-1.3 5.8 5.8 0 0 1 2.5-.5 3.8 3.8 0 0 1 2 .4 4.3 4.3 0 0 1 1.2 1.1 4.1 4.1 0 0 1 .7 1.4 4.6 4.6 0 0 1 .2 1.2 8 8 0 0 1-.2 1.9 7.1 7.1 0 0 1-.8 2 8.7 8.7 0 0 1-1.6 1.8 10.4 10.4 0 0 1-2.4 1.6 71.5 71.5 0 0 0 3.8 7.1 35.5 35.5 0 0 0 3.6 5 14 14 0 0 0 3.3 2.8 6 6 0 0 0 3 1 2 2 0 0 0 .5-.2 3.5 3.5 0 0 0 .5-.1 4.6 4.6 0 0 0 .4-.2l.4.7-1.1.6a8 8 0 0 1-1.3.5 12.3 12.3 0 0 1-1.8.3 18.6 18.6 0 0 1-2.3.1 10.2 10.2 0 0 1-2.4-.2 8.3 8.3 0 0 1-2.4-1 13.5 13.5 0 0 1-2.4-2 22.2 22.2 0 0 1-2.5-3.2 45.3 45.3 0 0 1-2.7-4.5q-1.4-2.7-2.8-6.2a21.7 21.7 0 0 0 3-2.7 13.3 13.3 0 0 0 1.8-2.3 6 6 0 0 0 .7-1.8 7.6 7.6 0 0 0 .2-1.3v-.3a1 1 0 0 0-.1-.4 1 1 0 0 0-.4-.3 1.1 1.1 0 0 0-.6-.2 2.5 2.5 0 0 0-1.5.7 9.2 9.2 0 0 0-1.5 1.6 15.6 15.6 0 0 0-1.3 2l-1 2V46a2.7 2.7 0 0 1-.1.6 1.5 1.5 0 0 1-.5.7 2.8 2.8 0 0 1-1 .6 5.2 5.2 0 0 1-1.7.2 4.6 4.6 0 0 1-1.7-.2 2.4 2.4 0 0 1-1-.6 1.6 1.6 0 0 1-.3-.8 3.3 3.3 0 0 1 0-.6V19.1a2 2 0 0 0-.4-1 1 1 0 0 0-.9-.4 1.5 1.5 0 0 0-.6 0 2.6 2.6 0 0 0-.6.4l-.4-.5a12.3 12.3 0 0 1 1-.8 7.7 7.7 0 0 1 1.4-.6 9.5 9.5 0 0 1 1.4-.5 7.2 7.2 0 0 1 1.7-.2 4.9 4.9 0 0 1 2 .3 2.7 2.7 0 0 1 1.2 1 2.6 2.6 0 0 1 .4 1 8.7 8.7 0 0 1 0 1z"/><path class="cls-1" d="M166.2 28v15.3a2.2 2.2 0 0 0 .4 1.5 1.5 1.5 0 0 0 1.1.4 1.7 1.7 0 0 0 1-.3 3.6 3.6 0 0 0 .8-.7 4.4 4.4 0 0 0 .6-1l.6.3-.7 1.4a5.8 5.8 0 0 1-3 2.6 6.9 6.9 0 0 1-2.6.5 5.7 5.7 0 0 1-1.7-.3 4.1 4.1 0 0 1-1.5-.8 4.3 4.3 0 0 1-1-1.5 5 5 0 0 1-.4-2V28h-2.3v-1.5a6.3 6.3 0 0 0 1.6-.3 8 8 0 0 0 2.1-1 8.4 8.4 0 0 0 2-2 7.2 7.2 0 0 0 1.3-2.8h1.7v6h3.4q1.6 0 1.6-.5a.3.3 0 0 0-.2-.3l-.5-.2a1.5 1.5 0 0 1-.4-.3 1 1 0 0 1-.2-.7 1.2 1.2 0 0 1 .3-.9 1.3 1.3 0 0 1 1-.3 1.3 1.3 0 0 1 .6.2 1.4 1.4 0 0 1 .5.4 1.9 1.9 0 0 1 .3.6 2.4 2.4 0 0 1 0 .6 3 3 0 0 1-.7 2.2 3.4 3.4 0 0 1-2.5.8zm5.8 9a13.2 13.2 0 0 1 .8-4.7 10 10 0 0 1 2-3.4 8.5 8.5 0 0 1 3.1-2 9.9 9.9 0 0 1 3.7-.7 10.6 10.6 0 0 1 3.6.6 8.3 8.3 0 0 1 3.1 2 9.5 9.5 0 0 1 2.1 3.3 12.9 12.9 0 0 1 .8 4.7 13.6 13.6 0 0 1-.8 4.8 10.7 10.7 0 0 1-2 3.5 8.7 8.7 0 0 1-3.2 2.2 9.3 9.3 0 0 1-3.6.7 9.8 9.8 0 0 1-3.6-.7 8.6 8.6 0 0 1-3.1-2 10 10 0 0 1-2.1-3.4 13.3 13.3 0 0 1-.8-4.8zm12.7-.1v-3.2a14.4 14.4 0 0 0-.5-2.8 4.8 4.8 0 0 0-1-1.9 2 2 0 0 0-1.7-.7 2 2 0 0 0-1.6.8 5.2 5.2 0 0 0-1 2 14.5 14.5 0 0 0-.4 2.8l-.1 3.2v3.2a14.7 14.7 0 0 0 .5 2.9 5.2 5.2 0 0 0 1 2 2 2 0 0 0 1.6.7 2 2 0 0 0 1.7-.8 5.5 5.5 0 0 0 1-2 16.2 16.2 0 0 0 .4-3l.1-3.2zm9.7-17.8a2 2 0 0 0-.3-1 1 1 0 0 0-1-.4 1.5 1.5 0 0 0-.6 0 2.6 2.6 0 0 0-.5.4l-.4-.5a11.6 11.6 0 0 1 1-.8 8.3 8.3 0 0 1 1.3-.6 9.2 9.2 0 0 1 1.5-.5 7.2 7.2 0 0 1 1.6-.2 4.4 4.4 0 0 1 2 .3 3 3 0 0 1 1.1 1 3 3 0 0 1 .5 1 5.7 5.7 0 0 1 .1 1.2v9.2l.7-.5a5.8 5.8 0 0 1 1-.7 6.5 6.5 0 0 1 1.4-.6 7.6 7.6 0 0 1 2-.2 6.3 6.3 0 0 1 2.7.6 6.7 6.7 0 0 1 2.3 2 10.3 10.3 0 0 1 1.8 3.3 16.1 16.1 0 0 1 .6 4.9 14.6 14.6 0 0 1-.6 4.3 10.4 10.4 0 0 1-1.8 3.5 8.5 8.5 0 0 1-3 2.3 9.5 9.5 0 0 1-4.2 1 10.2 10.2 0 0 1-4.4-1 7.6 7.6 0 0 1-2.8-2.2 9 9 0 0 1-1.6-3.3 16.5 16.5 0 0 1-.4-4zm12.3 18.3a29 29 0 0 0-.2-3.4 13.2 13.2 0 0 0-.6-2.8 5.3 5.3 0 0 0-1-1.9 2 2 0 0 0-1.6-.7 2 2 0 0 0-1.2.4 3.3 3.3 0 0 0-.8.7 3.4 3.4 0 0 0-.4 1 2.3 2.3 0 0 0-.2.5v6.2a20.6 20.6 0 0 0 .8 6.5q.7 2 2.2 2t2.3-2a21.5 21.5 0 0 0 .7-6.5zm15.9.8a5.9 5.9 0 0 0 .2 1.4 8.6 8.6 0 0 0 .5 1.6 8.3 8.3 0 0 0 1 1.5 7.1 7.1 0 0 0 1.2 1.3 6 6 0 0 0 1.6.9 5.3 5.3 0 0 0 1.9.3 5.2 5.2 0 0 0 1.3-.2 5.3 5.3 0 0 0 1.2-.4 7.6 7.6 0 0 0 1-.7l1-.8.5.5a14.2 14.2 0 0 1-1.2 1.4 10 10 0 0 1-1.8 1.4 10.4 10.4 0 0 1-2.5 1.2 10.7 10.7 0 0 1-3.2.4 9.8 9.8 0 0 1-3.5-.6 8.7 8.7 0 0 1-3-2 9.6 9.6 0 0 1-2-3.3 12 12 0 0 1-.9-4.6 11.9 11.9 0 0 1 .5-3.4 11.1 11.1 0 0 1 1.3-2.9 10.6 10.6 0 0 1 1.9-2.2 11.8 11.8 0 0 1 2.3-1.6 11.3 11.3 0 0 1 2.4-1 10 10 0 0 1 5.1 0 6 6 0 0 1 2 1 3.7 3.7 0 0 1 1 1.2 3.4 3.4 0 0 1 .4 1.6 3 3 0 0 1-.5 1.7 5.2 5.2 0 0 1-1.5 1.4zm4.1-4.2a3.3 3.3 0 0 0 .5-.3 1.2 1.2 0 0 0 .2-.4 2 2 0 0 0 .2-.5 5.2 5.2 0 0 0 0-.8 6.6 6.6 0 0 0 0-1.2 4.6 4.6 0 0 0-.4-1.2 3 3 0 0 0-.7-.9 1.4 1.4 0 0 0-1-.4 2 2 0 0 0-1.3.5 3.5 3.5 0 0 0-.9 1.1 7.2 7.2 0 0 0-.5 1.6 18 18 0 0 0-.3 1.8l-.1 1.8v1.4zm16.7-3.4a17 17 0 0 1 1.7-2.2 11.3 11.3 0 0 1 .8-.8 7.8 7.8 0 0 1 1-.7 4.8 4.8 0 0 1 1-.5 2.8 2.8 0 0 1 1-.2 2.2 2.2 0 0 1 1.6.6 2.5 2.5 0 0 1 .6 1.8 8 8 0 0 1-.1 1.3 10 10 0 0 1-.5 1.6h-.5a2 2 0 0 0-.6-1 1.9 1.9 0 0 0-1.4-.5 3.5 3.5 0 0 0-1.3.2 7.8 7.8 0 0 0-1.2.6 10.7 10.7 0 0 0-1 .8l-1 .8v13.5a3 3 0 0 1-.2.6 1.5 1.5 0 0 1-.4.7 2.6 2.6 0 0 1-1 .6 5 5 0 0 1-1.7.2 4.7 4.7 0 0 1-1.7-.2 2.7 2.7 0 0 1-1-.6 1.6 1.6 0 0 1-.4-.8 2.9 2.9 0 0 1-.1-.6v-16a2 2 0 0 0-.3-1 1 1 0 0 0-1-.4 1.3 1.3 0 0 0-.5 0 3.2 3.2 0 0 0-.6.4l-.4-.5a11.5 11.5 0 0 1 1-.8 8.2 8.2 0 0 1 1.3-.6 9.2 9.2 0 0 1 1.5-.5 7.2 7.2 0 0 1 1.7-.2 4.3 4.3 0 0 1 1.5.2 3 3 0 0 1 1 .7 3 3 0 0 1 .6.8 4.8 4.8 0 0 1 .3 1 5.2 5.2 0 0 1 .2 1l.1.7z"/><path class="cls-1" d="M263.9 16.9a2.5 2.5 0 0 0-1.1.2 2.3 2.3 0 0 0-.9.8 4.4 4.4 0 0 0-.6 1.4 8 8 0 0 0-.2 2v5.2h4.5V28h-4.5v16.3a17.6 17.6 0 0 1-.8 5.2 11.3 11.3 0 0 1-2.2 4.1 10.2 10.2 0 0 1-3.7 2.7 13 13 0 0 1-5.3 1 11.4 11.4 0 0 1-2-.2 8.4 8.4 0 0 1-1.7-.5 3.9 3.9 0 0 1-1.2-.7 1.3 1.3 0 0 1-.4-1 2.9 2.9 0 0 1 0-.7 2.3 2.3 0 0 1 .4-.7 1.8 1.8 0 0 1 .5-.5 1.2 1.2 0 0 1 .7-.2.5.5 0 0 1 .4.2 4.7 4.7 0 0 1 .3.6l.5.7a3 3 0 0 0 .6.8 3.3 3.3 0 0 0 .9.5 3.5 3.5 0 0 0 1.3.3 4 4 0 0 0 1.9-.5 4.3 4.3 0 0 0 1.4-1.1 7 7 0 0 0 1-1.8 12.9 12.9 0 0 0 .6-2.2 20.4 20.4 0 0 0 .3-2.4l.1-2.5V28H251v-1.5h3.8V24a10.2 10.2 0 0 1 .5-3.2 7.7 7.7 0 0 1 1.1-2.3A6.7 6.7 0 0 1 258 17a9.6 9.6 0 0 1 1.9-1 9 9 0 0 1 1.9-.5 12 12 0 0 1 1.6-.1 14 14 0 0 1 2.6.2 8 8 0 0 1 1.9.6 3.3 3.3 0 0 1 1.2.8 1.5 1.5 0 0 1 .3 1 2.6 2.6 0 0 1 0 .8 2.7 2.7 0 0 1-.4.7 1.7 1.7 0 0 1-.5.5 1.2 1.2 0 0 1-.7.2.5.5 0 0 1-.4-.2 5.5 5.5 0 0 1-.4-.7l-.4-.8a4 4 0 0 0-.6-.8 3.1 3.1 0 0 0-.9-.6 2.6 2.6 0 0 0-1.2-.2zm8.5 21.3a5.9 5.9 0 0 0 .2 1.4 8.6 8.6 0 0 0 .6 1.6 8.3 8.3 0 0 0 .9 1.5 7.1 7.1 0 0 0 1.3 1.3 6 6 0 0 0 1.5.9 5.3 5.3 0 0 0 2 .3 5.2 5.2 0 0 0 1.3-.2 5.3 5.3 0 0 0 1.2-.5 7.6 7.6 0 0 0 1-.6l1-.9.5.5a14.2 14.2 0 0 1-1.2 1.5 10 10 0 0 1-1.8 1.4 10.4 10.4 0 0 1-2.5 1.2 10.7 10.7 0 0 1-3.2.4 9.8 9.8 0 0 1-3.5-.6 8.7 8.7 0 0 1-3-2 9.6 9.6 0 0 1-2.1-3.3 12 12 0 0 1-.8-4.6 11.9 11.9 0 0 1 .5-3.4 11.1 11.1 0 0 1 1.2-2.9 10.6 10.6 0 0 1 2-2.2 11.8 11.8 0 0 1 2.3-1.6 11.3 11.3 0 0 1 2.4-1 10 10 0 0 1 5.1 0 6 6 0 0 1 1.9 1 3.7 3.7 0 0 1 1.1 1.2 3.4 3.4 0 0 1 .4 1.6 3 3 0 0 1-.6 1.7 5.2 5.2 0 0 1-1.5 1.4zm4.2-4.2a3.3 3.3 0 0 0 .4-.3 1.2 1.2 0 0 0 .3-.4 2 2 0 0 0 .2-.5 5.2 5.2 0 0 0 0-.8 6.6 6.6 0 0 0 0-1.2 4.6 4.6 0 0 0-.5-1.2 3 3 0 0 0-.7-.9 1.4 1.4 0 0 0-1-.4 2 2 0 0 0-1.2.5 3.5 3.5 0 0 0-.9 1.1 7.2 7.2 0 0 0-.5 1.6 18 18 0 0 0-.3 1.8l-.2 1.8v1.4zm16.8-6.1a3.2 3.2 0 0 0-1 0 2 2 0 0 0-.7.5 2 2 0 0 0-.5.7 2.5 2.5 0 0 0-.2 1 2.7 2.7 0 0 0 .6 1.6 14 14 0 0 0 1.5 1.6q.8.9 1.9 1.8a21.1 21.1 0 0 1 1.9 2 11 11 0 0 1 1.4 2.2 5.4 5.4 0 0 1 .6 2.5 6.6 6.6 0 0 1-.5 2.6 5.4 5.4 0 0 1-1.4 2 6.5 6.5 0 0 1-2.3 1.2 9.8 9.8 0 0 1-3 .4 7.8 7.8 0 0 1-2.6-.4 9.4 9.4 0 0 1-2-1 9 9 0 0 1-1.6-1.2 8.3 8.3 0 0 1-1-1.2l.7-.5a7 7 0 0 0 .7.6 6.7 6.7 0 0 0 1 .7 5.4 5.4 0 0 0 1 .5 3.6 3.6 0 0 0 1.2.2 4 4 0 0 0 2.4-.7 2.5 2.5 0 0 0 1-2.1 3.1 3.1 0 0 0-.5-1.6 12.8 12.8 0 0 0-1.3-1.8l-1.7-1.8a25 25 0 0 1-1.7-2 11.6 11.6 0 0 1-1.3-2 5.1 5.1 0 0 1-.5-2.3 4.7 4.7 0 0 1 .5-2.3 4.8 4.8 0 0 1 1.4-1.6 6.3 6.3 0 0 1 2-1 8.5 8.5 0 0 1 2.4-.4 11.9 11.9 0 0 1 2.5.3 6.2 6.2 0 0 1 2 .8 3.7 3.7 0 0 1 1.2 1.2 3.5 3.5 0 0 1 .5 1.8 2 2 0 0 1-.5 1.4 1.8 1.8 0 0 1-1.5.6 2 2 0 0 1-1.3-.4 1.3 1.3 0 0 1-.5-1 1 1 0 0 1 .2-.7 2 2 0 0 1 .5-.4l.5-.3a.3.3 0 0 0 .2-.3 1 1 0 0 0-.6-.9 3.3 3.3 0 0 0-1.6-.3zm15.6.1v15.3a2.2 2.2 0 0 0 .5 1.5 1.5 1.5 0 0 0 1.1.4 1.7 1.7 0 0 0 1-.3 3.6 3.6 0 0 0 .8-.7 4.4 4.4 0 0 0 .6-1l.7.3-.8 1.4a5.8 5.8 0 0 1-2.9 2.6 6.9 6.9 0 0 1-2.7.5 5.7 5.7 0 0 1-1.7-.3 4.1 4.1 0 0 1-1.5-.8 4.3 4.3 0 0 1-1-1.5 5 5 0 0 1-.4-2V28h-2.3v-1.5a6.3 6.3 0 0 0 1.6-.3 8 8 0 0 0 2.1-1 8.4 8.4 0 0 0 2-2 7.2 7.2 0 0 0 1.4-2.8h1.6v6h3.4q1.7 0 1.7-.5a.3.3 0 0 0-.2-.3l-.5-.2a1.5 1.5 0 0 1-.5-.3 1 1 0 0 1-.2-.7 1.2 1.2 0 0 1 .4-.9 1.3 1.3 0 0 1 .9-.3 1.3 1.3 0 0 1 .7.2 1.4 1.4 0 0 1 .4.4 1.9 1.9 0 0 1 .3.6 2.4 2.4 0 0 1 0 .6 3 3 0 0 1-.7 2.2 3.4 3.4 0 0 1-2.5.8zM5.1 34.2a2.8 2.8 0 0 1 2.5-2 2.4 2.4 0 0 1 2.5 2A2.5 2.5 0 0 1 8.7 37a2.5 2.5 0 0 1-3.2-1l-.4-.7zm3.9.5a1.3 1.3 0 0 0-2.5 0A1.3 1.3 0 0 0 7.7 36 1.3 1.3 0 0 0 9 34.7zm12.4-21.2v8.8h28.8V25H19V13.5zm29.4 19.7v2.5H12.1v-2.5zM323 51.3v-2.6h31.6v11.5h-2.5v-7.9c0-1 0-1-1.1-1h-28zM361.3 38v2.5H323V38zm-18.8-25.5v15.8H323v-2.6h16.9v-12c0-1.1 0-1.1 1.1-1.1zM31 61V45.4h19.5v2.5h-16c-1 0-1 0-1 1v12zM23.8 8.6a4 4 0 0 1-4 4 4 4 0 1 1 0-8 4 4 0 0 1 4 4zm-4-1.4a1.4 1.4 0 0 0-1.3 1.4 1.3 1.3 0 0 0 1.3 1.3 1.4 1.4 0 0 0 1.4-1.2A1.4 1.4 0 0 0 20 7.2zM357 66.4a4 4 0 0 1-8 0 4 4 0 1 1 8 0zm-4-1.3a1.4 1.4 0 0 0-1.3 1.3 1.4 1.4 0 0 0 1.3 1.4 1.5 1.5 0 0 0 1.4-1.3 1.4 1.4 0 0 0-1.3-1.4zm15.2-28.8a2.7 2.7 0 1 1-2.7 2.6 2.6 2.6 0 0 1 2.7-2.6zM29.6 66.9a2.6 2.6 0 0 1 2.6-2.7 2.7 2.7 0 1 1 0 5.3 2.5 2.5 0 0 1-2.6-2.6zm311.9-56.4A2.4 2.4 0 0 1 339 8a2.4 2.4 0 0 1 2.5-2.5 2.5 2.5 0 1 1 0 5zm0-1.2a1.3 1.3 0 1 0 0-2.5 1.3 1.3 0 0 0-1.3 1.2 1.3 1.3 0 0 0 1.3 1.3z"/></svg>