<svg id="Layer_1" data-name="Layer 1" xmlns="http://www.w3.org/2000/svg" viewBox="0 0 631 552"><defs><style>.cls-1,.cls-17{fill:none}.cls-2{fill:#273274}.cls-3{clip-path:url(#clip-path)}.cls-4{opacity:.8}.cls-5{clip-path:url(#clip-path-2)}.cls-16,.cls-6,.cls-7,.cls-8{fill:#f7f7f7}.cls-10,.cls-11,.cls-12,.cls-14,.cls-15,.cls-16,.cls-7,.cls-8{stroke:#273274}.cls-10,.cls-11,.cls-12,.cls-14,.cls-15,.cls-16,.cls-17,.cls-7,.cls-8{stroke-miterlimit:10}.cls-12,.cls-7{stroke-width:4px}.cls-11,.cls-15,.cls-8{stroke-width:2px}.cls-10,.cls-11,.cls-14,.cls-9{fill:#ff544e}.cls-10,.cls-16{stroke-width:3px}.cls-12,.cls-13,.cls-15{fill:#ff8c58}.cls-14{stroke-width:5px}.cls-17{stroke:#fff;stroke-width:19px}.cls-18{fill:#fff}</style><clipPath id="clip-path"><circle class="cls-1" cx="323.5" cy="334.2" r="131.5"/></clipPath><clipPath id="clip-path-2"><path class="cls-1" d="M15 263.9h752.4v204.6H15z"/></clipPath></defs><title>hack section openebs</title><path class="cls-2" d="M0 0h631v552H0z"/><g class="cls-3"><g class="cls-4"><g class="cls-5"><path class="cls-6" d="M628.5 395.2v-36.9a5.1 5.1 0 0 0-1-3.2l-9.6-13.5c-.6-1-2-2.3-.9-3.3s2.2.6 3.1 1.3l8.5 8c0-5.5-.2-10.7 0-15.8s.6-10 2.6-15c1.4 1.1 1.4 2.5 1.6 3.7 1.4 8.4 1.6 16.8 1.9 25.3.8 24.4 1.3 48.9 1.7 73.4l.4 12.6c0 1.3.2 1.7 1.6 1.2a49.2 49.2 0 0 0 16.6-10.3 64.8 64.8 0 0 0 21.8-36.6 68 68 0 0 0-2.4-32 95 95 0 0 0-24.4-41.4 54.5 54.5 0 0 0-6.8-5.5c-5.9-4.2-12-4.8-18.6-1.9a83.4 83.4 0 0 0-31.3 25 65.8 65.8 0 0 0-14.2 29.4 55.1 55.1 0 0 0 6.6 37.3 74 74 0 0 0 36.8 34.3c1.3.6 2.7 1 4.1 1.4s1.9.2 1.9-1.3v-23.6a4 4 0 0 0-1.2-2.8c-6.1-7.5-12.6-14.8-18.3-22.6a30.9 30.9 0 0 1-4-7.9c-.3-.6-1-1.4 0-2 .6-.4 1.2.2 1.6.6l5.1 4.5c5.8 5.6 11 11.7 16.8 17.6z"/><circle class="cls-7" cx="610.4" cy="334.6" r="3.6"/><path class="cls-6" d="M631.8 495.3h-3.1a7.1 7.1 0 0 0-.8-1.5v-9.1a2 2 0 0 0 .8-1.2c0-.9-.6-1.7-.8-2.5.1.2.2-.9.2-1a3.2 3.2 0 0 0-.5-3.3h.5v-18.9a1.8 1.8 0 0 0 0-2.2c.2-.2-.2-.6-.2-.8a4.6 4.6 0 0 1-.1-.8c.3-.3.3-.4.2-.4a1.3 1.3 0 0 0 0-1.4c.4-5.3-1.2-10.5 4.2-15.6 2.5.6 2.5 1.3 2.8 2 2.2 4.2 2.5 8.4 3 12.6 1.4 12.6 2.1 25.1 2.9 37.7.1 2.1.5 4.3.5 6.5a1 1 0 0 0 0 .1c-3.2-.2-6.4-.3-9.6-.2z"/><circle class="cls-8" cx="601.2" cy="368.4" r="3"/><path class="cls-9" d="M527.7 357.7v-33.3a4.6 4.6 0 0 1 1-3c2.9-4 5.8-8 8.6-12.2.6-.8 1.8-2 .8-2.9s-2 .5-2.8 1.2l-7.6 7.2c0-5 .2-9.7 0-14.3s-.5-9.1-2.4-13.6a4.9 4.9 0 0 0-1.5 3.4c-1.2 7.5-1.4 15.2-1.6 22.8-.8 22.1-1.2 44.2-1.6 66.3l-.3 11.4c0 1.2-.2 1.5-1.5 1.1a44.5 44.5 0 0 1-15-9.3 59 59 0 0 1-19.6-33.1 60 60 0 0 1 2-28.8 85.8 85.8 0 0 1 22.2-37.5 49.3 49.3 0 0 1 6.1-5 16 16 0 0 1 16.8-1.7 75 75 0 0 1 28.3 22.6c6.3 7.8 11 16.5 12.8 26.5a49 49 0 0 1-6 33.7 66.7 66.7 0 0 1-33.2 31l-3.8 1.3c-1.3.5-1.6.2-1.6-1.2v-21.4a3.6 3.6 0 0 1 1-2.4c5.5-6.8 11.3-13.3 16.5-20.4a28 28 0 0 0 3.7-7.1c.2-.5.8-1.3 0-1.8-.6-.3-1.1.2-1.6.6l-4.6 4c-5.1 5-9.8 10.6-15.1 15.9z"/><circle class="cls-2" cx="544.1" cy="302.9" r="3.3"/><path class="cls-9" d="M524.8 488.1l2.8.1a15.5 15.5 0 0 1 .7-2.4v-14.5a4 4 0 0 1-.7-1.9 20 20 0 0 1 .7-4c-.1.5-.2-1.3-.2-1.6a8.4 8.4 0 0 1 .5-5.2h-.5v-30a4.7 4.7 0 0 1 0-3.5c-.2-.4.1-1 .2-1.4v-1.2c-.2-.5-.2-.7-.1-.7a3.4 3.4 0 0 1 0-2.2c-.4-8.4 1.1-16.6-3.8-24.7-2.3.8-2.2 2-2.5 3-2 6.7-2.3 13.4-2.7 20.1-1.2 19.9-2 39.8-2.6 59.7-.1 3.4-.5 6.8-.5 10.2v.3l8.7-.2zm-339.2-42.3V423a3.2 3.2 0 0 1 .7-2l5.9-8.4c.4-.6 1.2-1.4.6-2s-1.4.3-2 .8l-5.2 5c0-3.5.2-6.7 0-9.8s-.3-6.3-1.6-9.3a3.3 3.3 0 0 0-1 2.3 126.3 126.3 0 0 0-1.1 15.6c-.5 15-.8 30.2-1.1 45.3l-.2 7.8c0 .8-.2 1-1 .7a30.4 30.4 0 0 1-10.3-6.3 40 40 0 0 1-13.4-22.6 41 41 0 0 1 1.4-19.8 58.7 58.7 0 0 1 15.2-25.6 33.7 33.7 0 0 1 4.1-3.4 10.9 10.9 0 0 1 11.5-1c7.8 3.4 14 8.8 19.3 15.3a40.8 40.8 0 0 1 8.8 18.2c1.6 8.1-.1 15.8-4 23a45.6 45.6 0 0 1-22.8 21.1c-.8.4-1.7.6-2.5.9s-1.2.1-1.2-.8v-14.6a2.5 2.5 0 0 1 .8-1.7c3.8-4.6 7.7-9 11.3-14a19 19 0 0 0 2.4-4.7c.1-.4.6-.9 0-1.2s-.8.1-1 .4l-3.2 2.7c-3.6 3.5-6.8 7.3-10.4 10.9z"/><circle class="cls-2" cx="196.8" cy="408.3" r="2.3"/><path class="cls-9" d="M183.6 507.6h2a4.4 4.4 0 0 1 .4-1V501a1.2 1.2 0 0 1-.5-.8c0-.5.4-1 .5-1.5l-.1-.6a2 2 0 0 1 .3-2h-.3v-11.6a1.1 1.1 0 0 1 0-1.4c-.2-.1 0-.4.1-.5a2.9 2.9 0 0 0 0-.5v-.3a.8.8 0 0 1 0-.8c-.4-3.3.7-6.5-2.7-9.6-1.5.3-1.5.8-1.7 1.2-1.4 2.6-1.6 5.2-1.9 7.8-.8 7.7-1.3 15.5-1.7 23.2-.1 1.4-.4 2.7-.4 4a.6.6 0 0 1 0 .1c2-.1 4-.2 6-.1z"/><path class="cls-6" d="M94.2 434v-16.3a2.3 2.3 0 0 1 .5-1.4l4.2-6c.3-.4 1-1 .4-1.4s-1 .2-1.3.5l-3.8 3.6v-7a19.3 19.3 0 0 0-1.2-6.8 2.4 2.4 0 0 0-.7 1.7 90.8 90.8 0 0 0-.8 11.2c-.4 10.9-.6 21.7-.8 32.6l-.2 5.6c0 .6 0 .7-.7.5a21.9 21.9 0 0 1-7.4-4.5 28.7 28.7 0 0 1-9.6-16.3 29.5 29.5 0 0 1 1-14.2 42.2 42.2 0 0 1 10.9-18.4 24.2 24.2 0 0 1 3-2.4 7.8 7.8 0 0 1 8.2-.8 37.1 37.1 0 0 1 13.9 11 29.3 29.3 0 0 1 6.3 13 24.5 24.5 0 0 1-3 16.6c-3.7 6.9-9 12.2-16.3 15.2l-1.8.7c-.6.2-.8 0-.8-.6v-10.5a1.8 1.8 0 0 1 .5-1.2c2.7-3.3 5.6-6.5 8.1-10a13.7 13.7 0 0 0 1.8-3.5c.1-.3.4-.6 0-.9s-.5.1-.7.3l-2.3 2c-2.5 2.4-4.8 5.2-7.4 7.8z"/><circle class="cls-8" cx="102.3" cy="407.1" r="1.6"/><path class="cls-6" d="M92.8 478.5h1.4a3.2 3.2 0 0 1 .3-.7v-4a.9.9 0 0 1-.3-.6c0-.4.3-.7.3-1v-.5a1.4 1.4 0 0 1 .2-1.5h-.2v-8.4a.8.8 0 0 1 0-1l.1-.3a2 2 0 0 0 0-.4l-.1-.2a.6.6 0 0 1 0-.6c-.2-2.4.5-4.7-1.9-7-1.1.3-1 .6-1.2 1a15.2 15.2 0 0 0-1.4 5.6c-.6 5.6-1 11.1-1.3 16.7l-.2 2.9h4.3z"/><path class="cls-9" d="M403.7 383v-32.4a4.5 4.5 0 0 1 1-2.8l8.4-12c.5-.8 1.7-2 .8-2.8s-2 .5-2.7 1.1l-7.5 7c0-4.8.2-9.4 0-13.9s-.5-8.8-2.3-13.2a4.8 4.8 0 0 0-1.4 3.3 179.8 179.8 0 0 0-1.7 22.2c-.7 21.5-1 43-1.5 64.5l-.3 11.2c0 1.1-.2 1.4-1.4 1a43.3 43.3 0 0 1-14.6-9 56.9 56.9 0 0 1-19.2-32.3 58 58 0 0 1 2.1-28 83.5 83.5 0 0 1 21.5-36.4 48 48 0 0 1 6-4.9 15.5 15.5 0 0 1 16.3-1.6c11 5 20 12.6 27.5 22 6.1 7.6 10.7 16 12.5 25.7a48.4 48.4 0 0 1-5.8 32.9 65 65 0 0 1-32.3 30.1c-1.2.5-2.5.8-3.7 1.2s-1.6.2-1.6-1.1V394a3.5 3.5 0 0 1 1-2.3c5.3-6.6 11-13 16-19.9a27.2 27.2 0 0 0 3.6-7c.2-.5.8-1.2 0-1.7-.6-.4-1.1.2-1.5.5l-4.5 4c-5 4.9-9.5 10.2-14.7 15.4z"/><circle class="cls-10" cx="429.5" cy="359.7" r="3.2"/><circle class="cls-11" cx="418.3" cy="329.3" r="2.7"/><path class="cls-9" d="M400.9 471h2.7a6.3 6.3 0 0 1 .7-1.3v-8a1.7 1.7 0 0 1-.7-1.1c0-.7.5-1.5.7-2.2-.1.3-.2-.7-.2-.9a2.8 2.8 0 0 1 .4-2.9h-.4v-16.5a1.6 1.6 0 0 1 0-2c-.2-.2.1-.5.2-.7a4 4 0 0 0 0-.7l-.2-.4a1.1 1.1 0 0 1 .1-1.2c-.4-4.7 1-9.2-3.7-13.7-2.2.5-2.2 1.1-2.5 1.7-1.9 3.7-2.2 7.4-2.6 11.2a733 733 0 0 0-2.5 33c-.2 2-.5 3.9-.5 5.7a.9.9 0 0 1 0 .2c2.8-.2 5.6-.3 8.5-.2zM56.5 382.8V355a3.9 3.9 0 0 1 .8-2.4l7.2-10.2c.5-.8 1.5-1.8.7-2.5s-1.7.4-2.3 1l-6.4 6c0-4.2.2-8 0-11.9s-.4-7.6-2-11.3a4 4 0 0 0-1.2 2.8 154.1 154.1 0 0 0-1.4 19c-.6 18.4-1 36.9-1.3 55.3l-.2 9.5c0 1-.2 1.3-1.2 1a37.1 37.1 0 0 1-12.6-7.8 48.8 48.8 0 0 1-16.4-27.7 50 50 0 0 1 1.8-24 71.6 71.6 0 0 1 18.4-31.3 41.1 41.1 0 0 1 5.1-4.1 13.3 13.3 0 0 1 14-1.4 63 63 0 0 1 23.6 18.8A49.7 49.7 0 0 1 94 356a42 42 0 0 1-5 28.2A56 56 0 0 1 61 410l-3.1 1c-1.1.3-1.4.2-1.4-1v-17.8a3 3 0 0 1 .8-2c4.6-5.7 9.5-11.1 13.8-17a23.3 23.3 0 0 0 3.1-6c.2-.4.7-1 0-1.5-.5-.3-1 .2-1.3.5-1.3 1-2.6 2.2-3.8 3.4-4.4 4.2-8.3 8.8-12.7 13.2z"/><circle class="cls-11" cx="78.7" cy="362.8" r="2.7"/><circle class="cls-2" cx="70.2" cy="337.1" r="2.7"/><path class="cls-9" d="M54 473.3h2.4a8.3 8.3 0 0 1 .6-1.5v-9.2a2.2 2.2 0 0 1-.6-1.2 10 10 0 0 1 .6-2.5c-.1.2-.1-.9-.2-1a4.2 4.2 0 0 1 .4-3.4H57v-19a2.3 2.3 0 0 1-.1-2.2c-.1-.3.2-.7.2-.9a6.2 6.2 0 0 0 0-.8l-.1-.4a1.7 1.7 0 0 1 0-1.4c-.3-5.4 1-10.6-3.2-15.8-1.8.6-1.8 1.3-2 2-1.7 4.2-2 8.5-2.3 12.8-1 12.7-1.6 25.4-2.2 38 0 2.2-.4 4.4-.4 6.6a1.4 1.4 0 0 1 0 .1l7.3-.2z"/><circle class="cls-2" cx="362.7" cy="418.8" r="3"/><circle class="cls-12" cx="353.5" cy="390.8" r="3"/><path class="cls-13" d="M335.9 522.9h2.5a5.9 5.9 0 0 1 .7-1.3l-.1-7.5a1.6 1.6 0 0 1-.6-1c0-.7.5-1.3.6-2l-.1-.8a2.7 2.7 0 0 1 .4-2.7h-.4V492a1.5 1.5 0 0 1 0-1.8c-.2-.2.1-.5.2-.7a3.8 3.8 0 0 0 0-.6l-.2-.4a1 1 0 0 1 .1-1.1c-.4-4.4 1-8.6-3.5-12.8-2 .4-2 1-2.3 1.6-1.8 3.4-2 6.9-2.4 10.4a683.8 683.8 0 0 0-2.4 31c-.1 1.7-.4 3.5-.4 5.2a.8.8 0 0 1 0 .2c2.6-.2 5.2-.2 7.9-.2z"/><path class="cls-9" d="M233.6 379.4v-27.7a3.9 3.9 0 0 1 .8-2.4l7.2-10.2c.5-.7 1.5-1.8.7-2.5s-1.7.4-2.3 1c-2 2-4 3.9-6.4 6 0-4.2.2-8 0-11.9s-.4-7.6-2-11.3a4 4 0 0 0-1.2 2.8 154.1 154.1 0 0 0-1.4 19c-.6 18.4-1 36.9-1.3 55.3l-.3 9.6c0 1-.1 1.2-1.2.8a37.1 37.1 0 0 1-12.5-7.7 48.8 48.8 0 0 1-16.4-27.6 50 50 0 0 1 1.8-24 71.6 71.6 0 0 1 18.4-31.4 41.1 41.1 0 0 1 5.1-4 13.3 13.3 0 0 1 14-1.5 63 63 0 0 1 23.6 18.8 49.7 49.7 0 0 1 10.8 22.2c1.8 10-.2 19.3-5 28.1a55.7 55.7 0 0 1-27.8 25.9l-3.1 1c-1.1.3-1.4.1-1.4-1v-17.8a3 3 0 0 1 .8-2c4.6-5.7 9.5-11.2 13.8-17a23.3 23.3 0 0 0 3.1-6c.2-.5.7-1.1 0-1.5-.5-.3-1 .2-1.3.5a39 39 0 0 0-3.8 3.3c-4.4 4.3-8.3 8.9-12.7 13.3z"/><circle class="cls-14" cx="255.7" cy="359.4" r="2.7"/><circle class="cls-11" cx="247.3" cy="333.7" r="2.7"/><path class="cls-9" d="M231.2 472.4h2.3a8.8 8.8 0 0 1 .6-1.5v-9.6a2.4 2.4 0 0 1-.6-1.3 10.8 10.8 0 0 1 .6-2.6c-.1.3-.1-1-.2-1.1a4.5 4.5 0 0 1 .4-3.5h-.4V433a2.5 2.5 0 0 1 0-2.4c-.1-.2.1-.6.2-.8a6.7 6.7 0 0 0 0-.9l-.1-.4a1.8 1.8 0 0 1 0-1.5c-.3-5.6 1-11-3.2-16.4-1.9.5-1.9 1.3-2.1 2-1.6 4.4-2 8.9-2.3 13.3a1223 1223 0 0 0-2.1 39.7c-.1 2.2-.4 4.5-.4 6.8a1.5 1.5 0 0 1 0 .1h7.3z"/><path class="cls-13" d="M572 415.6v-24.5a3.4 3.4 0 0 1 .7-2.1l6.4-9c.4-.6 1.3-1.5.6-2.2s-1.5.4-2 .9c-1.9 1.6-3.6 3.4-5.7 5.3 0-3.7.2-7.1 0-10.5s-.3-6.8-1.7-10a3.6 3.6 0 0 0-1.1 2.5 136.2 136.2 0 0 0-1.2 16.8c-.6 16.3-.9 32.6-1.2 48.8l-.2 8.5c0 .8-.2 1-1 .8a32.8 32.8 0 0 1-11.1-6.9 43.1 43.1 0 0 1-14.5-24.4 44.3 44.3 0 0 1 1.5-21.3 63.3 63.3 0 0 1 16.3-27.6 36.3 36.3 0 0 1 4.5-3.6 11.8 11.8 0 0 1 12.4-1.3 55.6 55.6 0 0 1 20.8 16.7A44 44 0 0 1 605 392c1.7 8.8-.2 17-4.4 24.9a50.1 50.1 0 0 1-24.6 22.8l-2.8.9c-1 .3-1.2.1-1.2-1V424a2.6 2.6 0 0 1 .8-1.8c4-5 8.3-9.9 12.1-15a20.6 20.6 0 0 0 2.8-5.3c.1-.4.6-1 0-1.3s-.9.2-1.2.4l-3.4 3c-3.8 3.7-7.2 7.7-11.1 11.6z"/><circle class="cls-13" cx="591.5" cy="398" r="2.4"/><path class="cls-13" d="M569.8 482.3h2a4.7 4.7 0 0 1 .6-1v-6.1a1.3 1.3 0 0 1-.5-.8c0-.6.3-1.1.5-1.7l-.2-.7a2.1 2.1 0 0 1 .4-2.2h-.3v-12.5a1.2 1.2 0 0 1-.1-1.5l.2-.5a3 3 0 0 0 0-.6l-.1-.3a.8.8 0 0 1 0-.9c-.3-3.5.8-7-2.8-10.3-1.7.3-1.7.8-1.9 1.2-1.4 2.8-1.7 5.7-2 8.5-.9 8.3-1.4 16.7-2 25 0 1.5-.3 3-.3 4.4h6.5zm-424-92v-34.2a4.7 4.7 0 0 1 1-3l8.9-12.6c.6-.9 1.8-2.1.9-3s-2.1.5-3 1.2l-7.7 7.4c0-5.2.1-10-.1-14.7s-.5-9.3-2.4-14a5 5 0 0 0-1.5 3.5c-1.2 7.8-1.5 15.6-1.7 23.4-.8 22.7-1.2 45.4-1.6 68l-.3 11.8c0 1.2-.3 1.5-1.5 1.1a45.7 45.7 0 0 1-15.5-9.5 60 60 0 0 1-20.2-34c-1.9-10-.6-20 2.2-29.6a88 88 0 0 1 22.7-38.5 50.6 50.6 0 0 1 6.3-5 16.3 16.3 0 0 1 17.2-1.8 77.4 77.4 0 0 1 29 23.2 62 62 0 0 1 13.3 27.2 51 51 0 0 1-6.2 34.6 68.6 68.6 0 0 1-34 31.8c-1.3.6-2.6.9-4 1.3s-1.6.2-1.6-1.2v-21.9a3.7 3.7 0 0 1 1-2.5c5.7-7 11.6-13.7 17-21a28.6 28.6 0 0 0 3.8-7.3c.2-.5.8-1.3 0-1.8-.6-.4-1.2.2-1.6.6l-4.8 4.1c-5.3 5.3-10.2 11-15.6 16.4z"/><circle class="cls-15" cx="162.7" cy="334" r="3.4"/><path class="cls-13" d="M142.8 483l2.8.1a6.6 6.6 0 0 1 .8-1.4v-8.5a1.8 1.8 0 0 1-.8-1c0-.9.6-1.6.8-2.4-.1.3-.2-.8-.2-1a3 3 0 0 1 .5-3h-.5v-17.5a1.7 1.7 0 0 1 0-2c-.2-.2.1-.6.2-.8a4.3 4.3 0 0 0 0-.7c-.2-.3-.2-.4-.1-.4a1.2 1.2 0 0 1 0-1.3c-.4-4.9 1.2-9.7-4-14.4-2.2.4-2.2 1.1-2.5 1.7-2 4-2.4 7.9-2.8 11.8a678 678 0 0 0-2.6 35c-.2 2-.5 4-.5 6 3 0 5.9-.2 8.9-.1z"/><circle class="cls-2" cx="171.8" cy="365.4" r="2.7"/><circle class="cls-11" cx="204.2" cy="427.5" r="2.7"/><path class="cls-6" d="M287.4 377.6v-34.3a4.7 4.7 0 0 1 1-3c3-4.2 6-8.4 8.8-12.6.6-.9 1.9-2.1 1-3s-2.2.5-3 1.2l-7.8 7.4c0-5.2.2-10 0-14.7s-.5-9.3-2.5-14a5 5 0 0 0-1.4 3.5c-1.3 7.8-1.5 15.6-1.8 23.4-.7 22.7-1.1 45.4-1.6 68 0 4-.2 8-.3 11.8 0 1.2-.2 1.6-1.5 1.1A45.7 45.7 0 0 1 263 403a60 60 0 0 1-20.2-34c-2-10-.7-20 2.2-29.6a88 88 0 0 1 22.7-38.5 50.6 50.6 0 0 1 6.3-5 16.3 16.3 0 0 1 17-1.9 77.4 77.4 0 0 1 29 23.2c6.5 8 11.3 17 13.2 27.2a51 51 0 0 1-6.1 34.6 68.6 68.6 0 0 1-34.1 32l-3.8 1.3c-1.2.5-1.7.2-1.7-1.2l-.1-22a3.7 3.7 0 0 1 1-2.4c5.8-7 11.7-13.7 17-21a28.6 28.6 0 0 0 3.9-7.3c.1-.5.8-1.3 0-1.8-.6-.4-1.2.2-1.6.6a63.6 63.6 0 0 0-4.8 4c-5.3 5.3-10.1 11-15.5 16.4z"/><circle class="cls-16" cx="304.2" cy="321.3" r="3.4"/><path class="cls-6" d="M284.4 470.4h2.8a6.6 6.6 0 0 1 .8-1.4v-8.5a1.8 1.8 0 0 1-.8-1.1c0-.8.6-1.5.8-2.3-.1.2-.2-.8-.2-1a3 3 0 0 1 .5-3h-.5v-17.5a1.7 1.7 0 0 1 0-2c-.2-.2.1-.6.2-.8a4.3 4.3 0 0 0 0-.8l-.2-.4a1.2 1.2 0 0 1 0-1.3c-.4-4.9 1.2-9.7-3.9-14.4-2.3.5-2.3 1.2-2.6 1.8-2 3.9-2.3 7.8-2.8 11.7-1.2 11.7-2 23.3-2.6 35-.1 2-.5 4-.5 6h9z"/><circle class="cls-8" cx="312.7" cy="352.7" r="2.7"/><path class="cls-13" d="M338.5 440.6v-30.2a4.2 4.2 0 0 1 .9-2.7l7.9-11.1c.5-.8 1.6-1.9.7-2.7s-1.8.5-2.5 1.1c-2.3 2-4.4 4.2-7 6.6 0-4.6.2-8.8 0-13s-.5-8.3-2.2-12.4a4.4 4.4 0 0 0-1.3 3 168 168 0 0 0-1.5 20.8c-.7 20.1-1 40.2-1.4 60.3l-.3 10.4c0 1-.2 1.4-1.3 1a40.5 40.5 0 0 1-13.7-8.4 53.4 53.4 0 0 1-18-30.2 56.8 56.8 0 0 1 2-26.2 78 78 0 0 1 20.1-34 44.8 44.8 0 0 1 5.6-4.6 14.5 14.5 0 0 1 15.3-1.5 68.8 68.8 0 0 1 25.7 20.5c5.7 7.1 10 15 11.7 24.1 2 11-.2 21.1-5.4 30.7a60.8 60.8 0 0 1-30.3 28.2c-1 .5-2.2.8-3.4 1.2s-1.5.1-1.5-1.1V451a3.3 3.3 0 0 1 1-2.2c5-6.2 10.3-12.2 15-18.6a25.4 25.4 0 0 0 3.3-6.5c.2-.5.8-1.2 0-1.6-.5-.3-1 .2-1.4.5l-4.2 3.7c-4.7 4.5-9 9.5-13.8 14.3z"/><circle class="cls-2" cx="584.1" cy="375.2" r="2.4"/><circle class="cls-2" cx="350.9" cy="390.6" r="2.4"/><circle class="cls-15" cx="362.9" cy="416.2" r="3.4"/></g></g></g><circle class="cls-17" cx="323.5" cy="336.7" r="131.5"/><path class="cls-18" d="M199.4 127h3.8v-11.8a2 2 0 0 0 0-.7 1 1 0 0 0-.4-.4 1 1 0 0 0-.4-.2 3 3 0 0 0-.6 0 5.5 5.5 0 0 0-1.1 0 9.4 9.4 0 0 0-1.4.5 12 12 0 0 0-1.5.7 7.3 7.3 0 0 0-1.4 1 4.8 4.8 0 0 0-1 1.2 2.9 2.9 0 0 0-.4 1.4 2.6 2.6 0 0 0 .2 1 1.7 1.7 0 0 0 .4.7 1 1 0 0 0 .5.2 1.8 1.8 0 0 0 .3 0 1.8 1.8 0 0 0 .9-.1 5 5 0 0 0 .6-.4l.5-.3a.9.9 0 0 1 .5-.2 1.4 1.4 0 0 1 .6 0 1.5 1.5 0 0 1 .5.4 2 2 0 0 1 .4.7 2.6 2.6 0 0 1 .2 1 3 3 0 0 1-.4 1.4 3.2 3.2 0 0 1-.8 1 3.4 3.4 0 0 1-1.2.6 4.5 4.5 0 0 1-1.2.2 4.5 4.5 0 0 1-1.8-.3 4 4 0 0 1-1.4-1 4 4 0 0 1-.8-1.4 5 5 0 0 1-.3-1.7 6.5 6.5 0 0 1 .5-2.6 7.4 7.4 0 0 1 1.4-2.1 9.6 9.6 0 0 1 2.1-1.7 14 14 0 0 1 2.6-1.2 17.6 17.6 0 0 1 3-.7 20 20 0 0 1 3-.3 8.5 8.5 0 0 1 2.7.4 3.5 3.5 0 0 1 1.4.7 1.8 1.8 0 0 1 .5 1 5.2 5.2 0 0 1 0 .9V127h7.7v-10a16.8 16.8 0 0 1 .9-5.8 11.7 11.7 0 0 1 2.3-4 8.6 8.6 0 0 1 3.1-2.2 9.3 9.3 0 0 1 3.5-.7 13.8 13.8 0 0 1 2.3.2 7.8 7.8 0 0 1 1.8.6 3.7 3.7 0 0 1 1.3.8 1.8 1.8 0 0 1 .5 1.3 1.9 1.9 0 0 1-.4 1 1.4 1.4 0 0 1-.4.4.8.8 0 0 1-.4.2 1 1 0 0 1-.7-.3 3 3 0 0 1-.5-.6l-.5-.7a5 5 0 0 0-.6-.8 3 3 0 0 0-.7-.5 1.8 1.8 0 0 0-1-.2 2.8 2.8 0 0 0-2 .6 4.4 4.4 0 0 0-1 2 15 15 0 0 0-.6 3.4V127h4v1.8h-4v12.6a1.6 1.6 0 0 0 .2 1 1 1 0 0 0 .8.4 2.8 2.8 0 0 0 1-.2l1-.4.3.8-1.1.6a12.2 12.2 0 0 1-1.3.6 10.6 10.6 0 0 1-1.6.5 7.7 7.7 0 0 1-1.8.2 5.8 5.8 0 0 1-2.2-.3 3.3 3.3 0 0 1-1.4-1 3.3 3.3 0 0 1-.6-1.4 7.8 7.8 0 0 1-.2-1.6v-11.8H210v10.4a11 11 0 0 1-1 4.9 10 10 0 0 1-2.8 3.5 12.2 12.2 0 0 1-4.2 2 18.6 18.6 0 0 1-5.2.7 11.4 11.4 0 0 1-2-.1 8.3 8.3 0 0 1-1.7-.5 3.9 3.9 0 0 1-1.2-.8 1.3 1.3 0 0 1-.4-.9 2.9 2.9 0 0 1 0-.8 2.4 2.4 0 0 1 .4-.6 2 2 0 0 1 .5-.6 1.2 1.2 0 0 1 .7-.2.5.5 0 0 1 .4.3 4.3 4.3 0 0 1 .3.5l.4.8a3.2 3.2 0 0 0 .7.7 3.3 3.3 0 0 0 .9.6 3.5 3.5 0 0 0 1.3.2 6 6 0 0 0 2.8-.6 5.1 5.1 0 0 0 1.9-1.6 7.4 7.4 0 0 0 1-2.5 13.3 13.3 0 0 0 .4-3.2v-12.2h-3.7zm38.6-4a4.9 4.9 0 0 0-1.2.2 4.5 4.5 0 0 0-1 .5 2.5 2.5 0 0 0-.7.5 1 1 0 0 0-.3.6.5.5 0 0 0 .4.4l.7.3a2.4 2.4 0 0 1 .7.5 1.3 1.3 0 0 1 .3 1 1.8 1.8 0 0 1-.2.8 2.2 2.2 0 0 1-1.1 1.1 2.3 2.3 0 0 1-.9.2 2.4 2.4 0 0 1-1.9-.8 3 3 0 0 1-.7-2.1 3.5 3.5 0 0 1 .7-2.2 5.2 5.2 0 0 1 1.7-1.4 8.7 8.7 0 0 1 2.4-.9 13.4 13.4 0 0 1 5.8 0 7.8 7.8 0 0 1 2.6 1.2 5.8 5.8 0 0 1 1.8 2 5.7 5.7 0 0 1 .7 2.8v12.1a1.3 1.3 0 0 0 0 .4.8.8 0 0 0 .3.3.8.8 0 0 0 .5.2 1 1 0 0 0 .7-.3 5.5 5.5 0 0 0 .6-.6l.5.4-.8 1a6 6 0 0 1-2.5 1.8 5.3 5.3 0 0 1-1.9.3 3.7 3.7 0 0 1-2.3-.8 3.8 3.8 0 0 1-1.3-2.4 8.8 8.8 0 0 1-1.4 1.5 7.5 7.5 0 0 1-1.5 1 6.5 6.5 0 0 1-1.5.6 7.1 7.1 0 0 1-1.5.1 6 6 0 0 1-1.9-.3 4.6 4.6 0 0 1-1.7-1 4.8 4.8 0 0 1-1.2-1.7 6.9 6.9 0 0 1-.4-2.7 5.8 5.8 0 0 1 .7-3 6.7 6.7 0 0 1 2-2 13.2 13.2 0 0 1 2.8-1.6l3.2-1.2a3.4 3.4 0 0 0 1.7-1.4 3.8 3.8 0 0 0 .6-2 3.4 3.4 0 0 0-1-2.4 3.3 3.3 0 0 0-2.4-1zm3.4 9.1a1 1 0 0 0-.4-.7 1.3 1.3 0 0 0-.8-.3 3 3 0 0 0-1.4.3 3.4 3.4 0 0 0-1.1 1 5 5 0 0 0-.8 1.6 7.4 7.4 0 0 0-.3 2.2 9.3 9.3 0 0 0 .2 2 3.9 3.9 0 0 0 .4 1.2 1.7 1.7 0 0 0 .7.7 2 2 0 0 0 .9.2 2 2 0 0 0 1-.3 3 3 0 0 0 .8-.7 3.6 3.6 0 0 0 .6-1 3 3 0 0 0 .2-1zm25-3.5a2.6 2.6 0 0 1-1.1-.2 1.9 1.9 0 0 1-.7-.6 2.2 2.2 0 0 1-.4-.7 2.8 2.8 0 0 1-.1-.9 7.7 7.7 0 0 1 0-1 3.6 3.6 0 0 0 0-1 1 1 0 0 0-.3-.6 1.4 1.4 0 0 0-1-.3 3.4 3.4 0 0 0-1.5.4 4.3 4.3 0 0 0-1.5 1.3 7.6 7.6 0 0 0-1 2.3 11.4 11.4 0 0 0-.5 3.4 18 18 0 0 0 .4 4 9.5 9.5 0 0 0 1.2 3 5.8 5.8 0 0 0 2 2 6 6 0 0 0 4.2.6 6 6 0 0 0 1.2-.5 7.9 7.9 0 0 0 1.1-.6q.6-.4 1-.9l.6.5a14.2 14.2 0 0 1-1.3 1.5 10 10 0 0 1-1.8 1.4 10.4 10.4 0 0 1-2.4 1.1 10.7 10.7 0 0 1-3.3.5 9.3 9.3 0 0 1-3.5-.7 9 9 0 0 1-3-2 10 10 0 0 1-2-3.2 11 11 0 0 1-.9-4.4 12 12 0 0 1 .5-3.4 11.4 11.4 0 0 1 1.3-3 10.8 10.8 0 0 1 1.9-2.2 12 12 0 0 1 2.3-1.6 11 11 0 0 1 2.4-1 9.4 9.4 0 0 1 2.5-.3 9 9 0 0 1 2.6.3 6 6 0 0 1 2 1 3.8 3.8 0 0 1 1.1 1.2 3.5 3.5 0 0 1 .4 1.6 4.2 4.2 0 0 1-.2 1.1 3 3 0 0 1-.5 1 2.2 2.2 0 0 1-.7.7 2.3 2.3 0 0 1-1 .2zm12.4-1.6l1.6-2a14.3 14.3 0 0 1 1.8-1.8 9.1 9.1 0 0 1 2-1.3 5.8 5.8 0 0 1 2.5-.6 3.8 3.8 0 0 1 2 .5 4.3 4.3 0 0 1 1.2 1.1 4.1 4.1 0 0 1 .7 1.4 4.6 4.6 0 0 1 .2 1.2 8 8 0 0 1-.2 1.9 7.1 7.1 0 0 1-.8 2 8.7 8.7 0 0 1-1.6 1.8 10.4 10.4 0 0 1-2.4 1.7 71.5 71.5 0 0 0 3.8 7 35.5 35.5 0 0 0 3.6 5 14 14 0 0 0 3.3 2.8 6 6 0 0 0 3 .9 2 2 0 0 0 .5 0 3.5 3.5 0 0 0 .4-.2 4.6 4.6 0 0 0 .5-.2l.4.7-1.2.6a8 8 0 0 1-1.3.5 12.3 12.3 0 0 1-1.7.3 18.6 18.6 0 0 1-2.3.1 10.2 10.2 0 0 1-2.4-.3 8.3 8.3 0 0 1-2.4-1 13.5 13.5 0 0 1-2.5-2 22.2 22.2 0 0 1-2.5-3.1 45.3 45.3 0 0 1-2.7-4.5l-2.8-6.2a21.7 21.7 0 0 0 3.1-2.7 13.3 13.3 0 0 0 1.7-2.3 6 6 0 0 0 .8-1.8 7.6 7.6 0 0 0 .1-1.3v-.3a1 1 0 0 0-.1-.4 1 1 0 0 0-.3-.3 1.1 1.1 0 0 0-.6-.2 2.5 2.5 0 0 0-1.6.7 9.2 9.2 0 0 0-1.5 1.6 15.6 15.6 0 0 0-1.3 2l-1 2v10.8a2.7 2.7 0 0 1 0 .6 1.5 1.5 0 0 1-.5.7 2.8 2.8 0 0 1-1 .6 5.2 5.2 0 0 1-1.8.2 4.6 4.6 0 0 1-1.7-.3 2.4 2.4 0 0 1-.9-.6 1.6 1.6 0 0 1-.4-.7 3.3 3.3 0 0 1 0-.6v-26.7a2 2 0 0 0-.3-1 1 1 0 0 0-1-.5 1.5 1.5 0 0 0-.6.2 2.6 2.6 0 0 0-.5.3l-.4-.5a12.3 12.3 0 0 1 1-.8 7.7 7.7 0 0 1 1.3-.7 9.5 9.5 0 0 1 1.5-.4 7.2 7.2 0 0 1 1.6-.2 4.9 4.9 0 0 1 2.1.3 2.7 2.7 0 0 1 1.1 1 2.6 2.6 0 0 1 .4 1 8.7 8.7 0 0 1 .1 1z"/><path class="cls-18" d="M301.6 123.2v15.3a2.2 2.2 0 0 0 .5 1.5 1.5 1.5 0 0 0 1.1.4 1.7 1.7 0 0 0 1-.3 3.6 3.6 0 0 0 .8-.7 4.4 4.4 0 0 0 .6-1l.6.3-.7 1.4a5.8 5.8 0 0 1-3 2.6 6.9 6.9 0 0 1-2.6.5 5.7 5.7 0 0 1-1.7-.3 4.1 4.1 0 0 1-1.5-.8 4.3 4.3 0 0 1-1-1.5 5 5 0 0 1-.4-2v-15.4H293v-1.5a6.3 6.3 0 0 0 1.6-.3 8 8 0 0 0 2.1-1 8.4 8.4 0 0 0 2-2 7.2 7.2 0 0 0 1.3-2.8h1.7v6h3.3q1.7 0 1.7-.5a.3.3 0 0 0-.2-.3l-.5-.2a1.5 1.5 0 0 1-.5-.3 1 1 0 0 1-.2-.7 1.2 1.2 0 0 1 .4-.9 1.3 1.3 0 0 1 .9-.3 1.3 1.3 0 0 1 .7.2 1.4 1.4 0 0 1 .4.4 1.9 1.9 0 0 1 .3.6 2.4 2.4 0 0 1 0 .6 3 3 0 0 1-.7 2.2 3.4 3.4 0 0 1-2.5.8zm5.9 9.1a13.2 13.2 0 0 1 .8-4.8 10 10 0 0 1 2-3.4 8.5 8.5 0 0 1 3.2-2 9.9 9.9 0 0 1 3.6-.7 10.6 10.6 0 0 1 3.6.6 8.3 8.3 0 0 1 3.1 2 9.5 9.5 0 0 1 2.1 3.3 12.9 12.9 0 0 1 .8 4.7 13.6 13.6 0 0 1-.8 4.8 10.7 10.7 0 0 1-2 3.5 8.7 8.7 0 0 1-3.1 2.2 9.3 9.3 0 0 1-3.7.7 9.8 9.8 0 0 1-3.6-.7 8.6 8.6 0 0 1-3.1-2 10 10 0 0 1-2.1-3.5 13.3 13.3 0 0 1-.8-4.7zm12.7-.2v-3.2a14.4 14.4 0 0 0-.5-2.8 4.8 4.8 0 0 0-1-2 2 2 0 0 0-1.7-.6 2 2 0 0 0-1.6.7 5.2 5.2 0 0 0-1 2 14.5 14.5 0 0 0-.4 2.9l-.1 3.2v3.2a14.7 14.7 0 0 0 .5 2.9 5.2 5.2 0 0 0 1 2 2 2 0 0 0 1.6.7 2 2 0 0 0 1.7-.8 5.5 5.5 0 0 0 1-2 16.2 16.2 0 0 0 .4-3l.1-3.2zm9.7-17.8a2 2 0 0 0-.3-1 1 1 0 0 0-1-.5 1.5 1.5 0 0 0-.6.2 2.6 2.6 0 0 0-.5.3l-.4-.5a11.6 11.6 0 0 1 1-.8 8.3 8.3 0 0 1 1.3-.7 9.2 9.2 0 0 1 1.5-.4 7.2 7.2 0 0 1 1.7-.2 4.4 4.4 0 0 1 1.9.3 3 3 0 0 1 1.1 1 3 3 0 0 1 .5 1 5.7 5.7 0 0 1 .1 1.2v9.2l.7-.5a5.8 5.8 0 0 1 1-.7 6.5 6.5 0 0 1 1.4-.6 7.6 7.6 0 0 1 2-.2 6.3 6.3 0 0 1 2.7.6 6.7 6.7 0 0 1 2.3 2 10.3 10.3 0 0 1 1.8 3.3 16.1 16.1 0 0 1 .6 5 14.6 14.6 0 0 1-.6 4.2 10.4 10.4 0 0 1-1.8 3.5 8.5 8.5 0 0 1-3 2.4 9.5 9.5 0 0 1-4.2.8 10.2 10.2 0 0 1-4.3-.8 7.6 7.6 0 0 1-2.9-2.3 9 9 0 0 1-1.5-3.3 16.5 16.5 0 0 1-.5-4zm12.3 18.3a29 29 0 0 0-.2-3.4 13.2 13.2 0 0 0-.6-2.8 5.3 5.3 0 0 0-1-1.9 2 2 0 0 0-1.6-.7 2 2 0 0 0-1.2.4 3.3 3.3 0 0 0-.8.7 3.4 3.4 0 0 0-.4.9 2.3 2.3 0 0 0-.2.6v6.2a20.6 20.6 0 0 0 .8 6.5q.8 2 2.2 2t2.3-2a21.5 21.5 0 0 0 .7-6.5zm15.8.8a5.9 5.9 0 0 0 .2 1.4 8.6 8.6 0 0 0 .6 1.6 8.3 8.3 0 0 0 .9 1.5 7.1 7.1 0 0 0 1.3 1.2 6 6 0 0 0 1.5 1 5.3 5.3 0 0 0 2 .3 5.2 5.2 0 0 0 1.3-.2 5.3 5.3 0 0 0 1.2-.5 7.6 7.6 0 0 0 1-.6l1-.9.5.5a14.2 14.2 0 0 1-1.2 1.5 10 10 0 0 1-1.9 1.4 10.4 10.4 0 0 1-2.4 1.1 10.7 10.7 0 0 1-3.2.5 9.8 9.8 0 0 1-3.5-.7 8.7 8.7 0 0 1-3-2 9.6 9.6 0 0 1-2.2-3.2 13.2 13.2 0 0 1-.3-8 11.1 11.1 0 0 1 1.3-2.9 10.6 10.6 0 0 1 2-2.2 11.8 11.8 0 0 1 2.2-1.6 11.3 11.3 0 0 1 2.5-1 10 10 0 0 1 5 0 6 6 0 0 1 2 1 3.7 3.7 0 0 1 1 1.2 3.4 3.4 0 0 1 .5 1.5 3 3 0 0 1-.6 1.8 5.2 5.2 0 0 1-1.5 1.4zm4.2-4.2a3.3 3.3 0 0 0 .4-.4 1.2 1.2 0 0 0 .3-.3 2 2 0 0 0 .2-.6 5.2 5.2 0 0 0 0-.8 6.6 6.6 0 0 0-.1-1.1 4.6 4.6 0 0 0-.4-1.2 3 3 0 0 0-.7-1 1.4 1.4 0 0 0-1-.3 2 2 0 0 0-1.2.5 3.5 3.5 0 0 0-.9 1.1 7.2 7.2 0 0 0-.5 1.6 18 18 0 0 0-.3 1.8l-.2 1.8v1.4zm16.8-3.4a17 17 0 0 1 1.6-2.2 11.3 11.3 0 0 1 .8-.8 7.8 7.8 0 0 1 1-.7 4.8 4.8 0 0 1 1-.5 2.8 2.8 0 0 1 1-.2 2.2 2.2 0 0 1 1.6.6 2.5 2.5 0 0 1 .6 1.8 8 8 0 0 1-.1 1.3 10 10 0 0 1-.5 1.6h-.5a2 2 0 0 0-.6-1 1.9 1.9 0 0 0-1.3-.5 3.5 3.5 0 0 0-1.3.3 7.8 7.8 0 0 0-1.2.5 10.7 10.7 0 0 0-1.1.8l-1 .8v13.5a3 3 0 0 1-.1.6 1.5 1.5 0 0 1-.4.7 2.6 2.6 0 0 1-1 .6 5 5 0 0 1-1.7.2 4.7 4.7 0 0 1-1.8-.3 2.7 2.7 0 0 1-1-.6 1.6 1.6 0 0 1-.4-.7 2.9 2.9 0 0 1 0-.6v-16a2 2 0 0 0-.3-1 1 1 0 0 0-1-.5 1.3 1.3 0 0 0-.6.2 3.2 3.2 0 0 0-.5.3l-.5-.5a11.5 11.5 0 0 1 1.1-.8 8.2 8.2 0 0 1 1.3-.7 9.2 9.2 0 0 1 1.4-.4 7.2 7.2 0 0 1 1.7-.2 4.3 4.3 0 0 1 1.5.2 3 3 0 0 1 1 .6 3 3 0 0 1 .7.9 4.8 4.8 0 0 1 .3 1 5.2 5.2 0 0 1 .1 1l.1.7z"/><path class="cls-18" d="M399.4 112a2.5 2.5 0 0 0-1.1.3 2.3 2.3 0 0 0-.9.8 4.4 4.4 0 0 0-.6 1.4 8 8 0 0 0-.2 2v5.2h4.5v1.5h-4.5v16.3a17.6 17.6 0 0 1-.8 5.2 11.3 11.3 0 0 1-2.2 4.1 10.2 10.2 0 0 1-3.7 2.7 13 13 0 0 1-5.3 1 11.4 11.4 0 0 1-2-.2 8.4 8.4 0 0 1-1.7-.5 3.9 3.9 0 0 1-1.2-.7 1.3 1.3 0 0 1-.4-1 2.9 2.9 0 0 1 0-.7 2.3 2.3 0 0 1 .4-.7 1.8 1.8 0 0 1 .5-.5 1.2 1.2 0 0 1 .7-.2.5.5 0 0 1 .4.2 4.7 4.7 0 0 1 .3.6l.5.7a3 3 0 0 0 .6.8 3.3 3.3 0 0 0 .9.5 3.5 3.5 0 0 0 1.3.3 4 4 0 0 0 1.9-.5 4.3 4.3 0 0 0 1.4-1.1 7 7 0 0 0 1-1.8 12.9 12.9 0 0 0 .6-2.2 20.4 20.4 0 0 0 .3-2.4l.1-2.5v-17.4h-3.8v-1.5h3.8v-2.5a10.2 10.2 0 0 1 .5-3.1 7.7 7.7 0 0 1 1.1-2.3 6.7 6.7 0 0 1 1.7-1.6 9.6 9.6 0 0 1 2-1 9 9 0 0 1 1.8-.5 12 12 0 0 1 1.6 0 14 14 0 0 1 2.6.1 8 8 0 0 1 2 .6 3.3 3.3 0 0 1 1 .8 1.5 1.5 0 0 1 .5 1 2.6 2.6 0 0 1-.2.8 2.7 2.7 0 0 1-.3.7 1.7 1.7 0 0 1-.5.5 1.2 1.2 0 0 1-.7.2.5.5 0 0 1-.4-.2 5.5 5.5 0 0 1-.4-.6l-.4-.9a4 4 0 0 0-.6-.8 3.1 3.1 0 0 0-.9-.6 2.6 2.6 0 0 0-1.2-.2zm8.6 21.4a5.9 5.9 0 0 0 .1 1.4 8.6 8.6 0 0 0 .6 1.6 8.3 8.3 0 0 0 .9 1.5 7.1 7.1 0 0 0 1.3 1.2 6 6 0 0 0 1.5 1 5.3 5.3 0 0 0 2 .3 5.2 5.2 0 0 0 1.3-.2 5.3 5.3 0 0 0 1.2-.5 7.6 7.6 0 0 0 1-.6l1-.9.5.5a14.2 14.2 0 0 1-1.2 1.5 10 10 0 0 1-1.8 1.4 10.4 10.4 0 0 1-2.5 1.1 10.7 10.7 0 0 1-3.2.5 9.8 9.8 0 0 1-3.5-.7 8.7 8.7 0 0 1-3-2 9.6 9.6 0 0 1-2.1-3.2 13.2 13.2 0 0 1-.4-8 11.1 11.1 0 0 1 1.3-2.9 10.6 10.6 0 0 1 2-2.2 11.8 11.8 0 0 1 2.2-1.6 11.3 11.3 0 0 1 2.5-1 10 10 0 0 1 5 0 6 6 0 0 1 2 1 3.7 3.7 0 0 1 1.1 1.2 3.4 3.4 0 0 1 .4 1.5 3 3 0 0 1-.6 1.8 5.2 5.2 0 0 1-1.5 1.4zm4-4.2a3.3 3.3 0 0 0 .5-.4 1.2 1.2 0 0 0 .3-.3 2 2 0 0 0 .2-.6 5.2 5.2 0 0 0 0-.8 6.6 6.6 0 0 0-.1-1.1 4.6 4.6 0 0 0-.4-1.2 3 3 0 0 0-.7-1 1.4 1.4 0 0 0-1-.3 2 2 0 0 0-1.2.4 3.5 3.5 0 0 0-.9 1.2 7.2 7.2 0 0 0-.5 1.6 18 18 0 0 0-.3 1.8l-.2 1.8v1.4zm16.9-6.2a3.2 3.2 0 0 0-1 .1 2 2 0 0 0-.7.4 2 2 0 0 0-.5.7 2.5 2.5 0 0 0-.2 1 2.7 2.7 0 0 0 .6 1.6 14 14 0 0 0 1.5 1.7q.8.9 1.9 1.8a21.1 21.1 0 0 1 1.9 2 11 11 0 0 1 1.4 2.1 5.4 5.4 0 0 1 .6 2.5 6.6 6.6 0 0 1-.5 2.6 5.4 5.4 0 0 1-1.4 2 6.5 6.5 0 0 1-2.3 1.3 9.8 9.8 0 0 1-3 .4 7.8 7.8 0 0 1-2.6-.4 9.4 9.4 0 0 1-2-1 9 9 0 0 1-1.6-1.3 8.3 8.3 0 0 1-1-1.2l.7-.5a7 7 0 0 0 .7.7 6.7 6.7 0 0 0 1 .7 5.4 5.4 0 0 0 1 .5 3.6 3.6 0 0 0 1.2.2 4 4 0 0 0 2.4-.7 2.5 2.5 0 0 0 1-2.2 3.1 3.1 0 0 0-.5-1.6 12.8 12.8 0 0 0-1.3-1.7l-1.7-1.9a25 25 0 0 1-1.7-2 11.6 11.6 0 0 1-1.3-2 5.1 5.1 0 0 1-.5-2.3 4.7 4.7 0 0 1 .5-2.3 4.8 4.8 0 0 1 1.4-1.6 6.3 6.3 0 0 1 2-1 8.5 8.5 0 0 1 2.3-.3 11.9 11.9 0 0 1 2.6.2 6.2 6.2 0 0 1 2 .8 3.7 3.7 0 0 1 1.2 1.3 3.5 3.5 0 0 1 .5 1.8 2 2 0 0 1-.5 1.3 1.8 1.8 0 0 1-1.5.6 2 2 0 0 1-1.3-.4 1.3 1.3 0 0 1-.5-1 1 1 0 0 1 .2-.7 2 2 0 0 1 .5-.4l.5-.2a.3.3 0 0 0 .2-.3 1 1 0 0 0-.6-1 3.3 3.3 0 0 0-1.6-.3zm15.7.2v15.3a2.2 2.2 0 0 0 .4 1.5 1.5 1.5 0 0 0 1.1.4 1.7 1.7 0 0 0 1-.3 3.6 3.6 0 0 0 .8-.7 4.4 4.4 0 0 0 .6-1l.7.3-.8 1.4a5.8 5.8 0 0 1-2.9 2.6 6.9 6.9 0 0 1-2.7.5 5.7 5.7 0 0 1-1.7-.3 4.1 4.1 0 0 1-1.5-.8 4.3 4.3 0 0 1-1-1.5 5 5 0 0 1-.4-2v-15.4H436v-1.5a6.3 6.3 0 0 0 1.6-.3 8 8 0 0 0 2.1-1 8.4 8.4 0 0 0 2-2 7.2 7.2 0 0 0 1.4-2.8h1.6v6h3.4q1.7 0 1.7-.5a.3.3 0 0 0-.2-.3l-.5-.2a1.5 1.5 0 0 1-.5-.3 1 1 0 0 1-.2-.7 1.2 1.2 0 0 1 .4-.9 1.3 1.3 0 0 1 .9-.3 1.3 1.3 0 0 1 .7.2 1.4 1.4 0 0 1 .4.4 1.9 1.9 0 0 1 .3.6 2.4 2.4 0 0 1 0 .6 3 3 0 0 1-.7 2.2 3.4 3.4 0 0 1-2.5.8zm-304 6.2a2.8 2.8 0 0 1 2.5-2 2.4 2.4 0 0 1 2.5 2 2.5 2.5 0 0 1-1.4 2.8 2.5 2.5 0 0 1-3.2-1l-.4-.7zm3.9.5a1.3 1.3 0 0 0-2.6 0 1.3 1.3 0 0 0 2.6 0zm12.5-21.2v8.8h28.7v2.6h-31.3v-11.4zm29.3 19.7v2.5h-38.7v-2.5zm272.1 18V144h31.7v11.4h-2.5v-7.8c0-1 0-1-1.1-1h-28zm38.4-13.2v2.4h-38.3v-2.4zM478 107.7v15.8h-19.5v-2.6h16.9v-12c0-1.1 0-1.1 1-1.1zm-311.6 48.5v-15.6H186v2.5h-16c-1 0-1 0-1 1v12zm-7.1-52.4a4 4 0 0 1-4 4 4 4 0 1 1 0-8 4 4 0 0 1 4 4zm-4-1.4a1.4 1.4 0 0 0-1.3 1.3 1.3 1.3 0 0 0 1.3 1.4 1.4 1.4 0 0 0 1.4-1.3 1.4 1.4 0 0 0-1.3-1.4zm337.3 59.2a4 4 0 0 1-8 0 4 4 0 1 1 8 0zm-4-1.4a1.4 1.4 0 0 0-1.4 1.4 1.4 1.4 0 0 0 1.3 1.4 1.5 1.5 0 0 0 1.4-1.4 1.4 1.4 0 0 0-1.3-1.3zm15.1-28.7a2.7 2.7 0 1 1-2.7 2.6 2.6 2.6 0 0 1 2.7-2.6zM165.1 162a2.6 2.6 0 0 1 2.6-2.7 2.7 2.7 0 1 1 0 5.3 2.5 2.5 0 0 1-2.6-2.6zM477 105.7a2.5 2.5 0 1 1 2.5-2.5 2.5 2.5 0 0 1-2.5 2.5zm0-1.3a1.3 1.3 0 1 0 0-2.5 1.3 1.3 0 0 0-1.3 1.3 1.3 1.3 0 0 0 1.3 1.2z"/><path class="cls-13" d="M170.2 509.9a5 5 0 0 1 1.9 6.9 5 5 0 0 1-1.9 1.8 5.6 5.6 0 0 1-5.3 0 5 5 0 0 1-1.9-1.8 5 5 0 0 1 1.9-7 5.7 5.7 0 0 1 5.3 0zm-4.3 1.5a3.4 3.4 0 0 0-1.2 4.5 3.4 3.4 0 0 0 1.2 1.2 3.2 3.2 0 0 0 1.7.5 3.1 3.1 0 0 0 1.6-.5 3.3 3.3 0 0 0 1.2-1.2 3.4 3.4 0 0 0 .5-1.7 3.3 3.3 0 0 0-.5-1.7 3.3 3.3 0 0 0-1.2-1.2 3.2 3.2 0 0 0-1.6-.4 3.3 3.3 0 0 0-1.7.5zm14.7.7a3.3 3.3 0 0 1 1.3 1.4 4.4 4.4 0 0 1 .4 2 4.3 4.3 0 0 1-.4 2 3.2 3.2 0 0 1-1.2 1.3 3.5 3.5 0 0 1-1.9.5 3.2 3.2 0 0 1-1.5-.4 2.8 2.8 0 0 1-1-1v4h-1.9v-10.2h1.9v1.2a2.7 2.7 0 0 1 1-1 3.2 3.2 0 0 1 1.4-.3 3.5 3.5 0 0 1 2 .5zm-.7 5a2.3 2.3 0 0 0 .6-1.7 2.3 2.3 0 0 0-.6-1.6 2.1 2.1 0 0 0-3 0 2.6 2.6 0 0 0 0 3.2 2 2 0 0 0 1.5.7 2 2 0 0 0 1.5-.7zm9.8-4.5a4.2 4.2 0 0 1 1 3v.5H185a2 2 0 0 0 2.1 1.7 2.8 2.8 0 0 0 1.1-.2 2.7 2.7 0 0 0 1-.7l1 1a3.8 3.8 0 0 1-1.4 1 4.6 4.6 0 0 1-1.8.4 4.2 4.2 0 0 1-2-.5 3.3 3.3 0 0 1-1.4-1.3 4.3 4.3 0 0 1 0-4 3.4 3.4 0 0 1 1.3-1.4 4 4 0 0 1 2-.5 3.4 3.4 0 0 1 2.7 1zm-.7 2.2a1.8 1.8 0 0 0-.6-1.3 2.1 2.1 0 0 0-2.7 0 2.1 2.1 0 0 0-.7 1.3zm9.7-2.4a3 3 0 0 1 .8 2v4.8h-1.9V515a1.7 1.7 0 0 0-.4-1.2 1.6 1.6 0 0 0-1.2-.5 1.9 1.9 0 0 0-1.5.6 2.3 2.3 0 0 0-.5 1.6v3.6h-1.8v-7.5h1.8v1.4a2.8 2.8 0 0 1 2.7-1.4 2.7 2.7 0 0 1 2 .8zm2.9-3h7.2v1.6h-5.3v2.4h4.7v1.7h-4.7v2.4h5.4v1.7h-7.3zm16.1.6a2.1 2.1 0 0 1 .9 1.8 2.1 2.1 0 0 1-1.7 2.2 2.5 2.5 0 0 1 1.5.8 2.5 2.5 0 0 1 .5 1.6 2.3 2.3 0 0 1-1 2 4.4 4.4 0 0 1-2.6.8h-4.5v-9.8h4.3a4.1 4.1 0 0 1 2.6.6zm-1.5 3a1 1 0 0 0 .4-.9 1 1 0 0 0-.4-.9 1.8 1.8 0 0 0-1.1-.3h-2.4v2.4h2.4a1.8 1.8 0 0 0 1.1-.3zm.3 4.2a1.1 1.1 0 0 0 .5-1 1 1 0 0 0-.5-1 2.4 2.4 0 0 0-1.4-.3h-2.4v2.6h2.4a2.4 2.4 0 0 0 1.4-.3zm8.9-6a4.7 4.7 0 0 0-1.4-.3 2 2 0 0 0-1 .3.8.8 0 0 0-.5.7 1 1 0 0 0 .3.7 2.1 2.1 0 0 0 .7.4 10.7 10.7 0 0 0 1.1.4 12.3 12.3 0 0 1 1.7.6 3 3 0 0 1 1 .8 2.4 2.4 0 0 1 .5 1.6 2.6 2.6 0 0 1-.5 1.5 3 3 0 0 1-1.3 1 5 5 0 0 1-2 .4 6.1 6.1 0 0 1-2.2-.5 6.4 6.4 0 0 1-2-1.1l.9-1.6a5.8 5.8 0 0 0 1.6 1 4.4 4.4 0 0 0 1.8.5 2.2 2.2 0 0 0 1.2-.3 1 1 0 0 0 .2-1.5 2 2 0 0 0-.7-.5l-1.2-.4a13.5 13.5 0 0 1-1.6-.5 2.8 2.8 0 0 1-1-.9 2.3 2.3 0 0 1-.5-1.5 2.5 2.5 0 0 1 .4-1.5 3 3 0 0 1 1.3-1 5 5 0 0 1 2-.3 6.5 6.5 0 0 1 1.8.3 6.3 6.3 0 0 1 1.7.7l-.8 1.7a7 7 0 0 0-1.5-.7zm13.8.9a3.3 3.3 0 0 1 1.2 1.4 4.4 4.4 0 0 1 .5 2 4.3 4.3 0 0 1-.5 2 3.2 3.2 0 0 1-1.2 1.3 3.5 3.5 0 0 1-1.9.5 3.2 3.2 0 0 1-1.4-.4 2.8 2.8 0 0 1-1-1v4H233v-10.2h1.8v1.2a2.7 2.7 0 0 1 1-1 3.2 3.2 0 0 1 1.5-.3 3.5 3.5 0 0 1 1.9.5zm-.8 5a2.3 2.3 0 0 0 .6-1.7 2.3 2.3 0 0 0-.6-1.6 2.1 2.1 0 0 0-3 0 2.6 2.6 0 0 0 0 3.2 2 2 0 0 0 1.5.7 2 2 0 0 0 1.5-.7zm6.9-5.1a3 3 0 0 1 1.5-.4v1.8a2.5 2.5 0 0 0-1.8.5 2 2 0 0 0-.7 1.6v3.7h-1.9v-7.5h1.9v1.4a2.7 2.7 0 0 1 1-1.1zm8.1 0a3.4 3.4 0 0 1 1.4 1.4 3.9 3.9 0 0 1 .5 2 4 4 0 0 1-.5 2 3.4 3.4 0 0 1-1.4 1.4 4.3 4.3 0 0 1-2 .5 4.3 4.3 0 0 1-2.1-.5 3.4 3.4 0 0 1-1.4-1.4 4 4 0 0 1-.5-2 3.9 3.9 0 0 1 .5-2 3.4 3.4 0 0 1 1.4-1.3 4.3 4.3 0 0 1 2-.5 4.3 4.3 0 0 1 2.1.5zm-3.6 1.8a2.6 2.6 0 0 0 0 3.3 2 2 0 0 0 1.6.6 2 2 0 0 0 1.5-.6 2.6 2.6 0 0 0 0-3.3 2 2 0 0 0-1.5-.6 2 2 0 0 0-1.6.6zm6.2 6.6a.8.8 0 0 0 .6-.3 1.5 1.5 0 0 0 .3-.9v-7.5h1.8v7.8a2.5 2.5 0 0 1-.6 1.8 2.3 2.3 0 0 1-1.8.6 3.8 3.8 0 0 1-1.4-.2l.4-1.4a2.2 2.2 0 0 0 .6.1zm2.5-11.6a1 1 0 0 1 .3.7 1 1 0 0 1-.3.8 1 1 0 0 1-1.5 0 1 1 0 0 1-.3-.8 1 1 0 0 1 .3-.7 1 1 0 0 1 1.5 0zm8.2 3.8a4.2 4.2 0 0 1 .9 3v.5H262a2 2 0 0 0 2.1 1.7 2.8 2.8 0 0 0 1.1-.2 2.7 2.7 0 0 0 1-.7l1 1a3.8 3.8 0 0 1-1.4 1 4.6 4.6 0 0 1-1.8.4 4.2 4.2 0 0 1-2-.5 3.3 3.3 0 0 1-1.4-1.3 4.3 4.3 0 0 1 0-4 3.4 3.4 0 0 1 1.4-1.4 4 4 0 0 1 2-.5 3.4 3.4 0 0 1 2.7 1zm-.8 2.2a1.8 1.8 0 0 0-.5-1.3 2.1 2.1 0 0 0-2.7 0 2.1 2.1 0 0 0-.7 1.3zm6.4-1.6a2 2 0 0 0-1.5.6 2.3 2.3 0 0 0-.5 1.6 2.3 2.3 0 0 0 .5 1.7 2 2 0 0 0 1.5.6 2.4 2.4 0 0 0 2-1l1.2 1a3.3 3.3 0 0 1-1.4 1.2 4.4 4.4 0 0 1-1.9.3 4 4 0 0 1-2-.4 3.4 3.4 0 0 1-1.3-1.4 4.4 4.4 0 0 1 0-4 3.4 3.4 0 0 1 1.3-1.3 4 4 0 0 1 2-.5 4.5 4.5 0 0 1 1.8.4 3.3 3.3 0 0 1 1.3 1l-1 1a2.5 2.5 0 0 0-2-.8zm9.1 5.5a3.5 3.5 0 0 1-1.9.6 2.2 2.2 0 0 1-1.5-.6 2.2 2.2 0 0 1-.7-1.7v-3.7h-1V512h1.1v-2h1.8v2h2.2v1.3h-2.2v3.4a1 1 0 0 0 .2.7.8.8 0 0 0 .6.3 2.6 2.6 0 0 0 1-.4zm6.6-9.9a1 1 0 0 1 .2.7 1 1 0 0 1-.3.8 1 1 0 0 1-1.5 0 1 1 0 0 1-.3-.8 1 1 0 0 1 .3-.7 1 1 0 0 1 1.5 0zm-1.7 2.9h1.8v7.5h-1.8zm7.4 1.5a3.6 3.6 0 0 0-1.1-.2 1.4 1.4 0 0 0-.7.2.5.5 0 0 0-.3.5.6.6 0 0 0 .3.5 5.5 5.5 0 0 0 1.1.4 10.6 10.6 0 0 1 1.3.5 2.4 2.4 0 0 1 .9.7 1.8 1.8 0 0 1 .4 1.2 2 2 0 0 1-.9 1.7 3.6 3.6 0 0 1-2.1.6 5.3 5.3 0 0 1-1.7-.3 4 4 0 0 1-1.4-.8l.6-1.3a3.7 3.7 0 0 0 1.2.7 4 4 0 0 0 1.4.3 1.6 1.6 0 0 0 .8-.2.6.6 0 0 0 .3-.5.6.6 0 0 0-.4-.6 6.3 6.3 0 0 0-1.1-.4 9.6 9.6 0 0 1-1.2-.5 2.2 2.2 0 0 1-.9-.6 1.8 1.8 0 0 1-.3-1.2 2 2 0 0 1 .8-1.7 3.4 3.4 0 0 1 2-.6 5.2 5.2 0 0 1 1.5.2 4.6 4.6 0 0 1 1.2.6l-.6 1.3a5.4 5.4 0 0 0-1.1-.5zm6.9-4.4h1.8v10.4h-1.8zm9.4 3.2a3.4 3.4 0 0 1 1.5 1.4 3.9 3.9 0 0 1 .5 2 4 4 0 0 1-.5 2 3.4 3.4 0 0 1-1.4 1.4 4.3 4.3 0 0 1-2 .5 4.3 4.3 0 0 1-2.1-.5 3.4 3.4 0 0 1-1.4-1.4 4 4 0 0 1-.5-2 3.9 3.9 0 0 1 .5-2 3.4 3.4 0 0 1 1.4-1.3 4.3 4.3 0 0 1 2-.5 4.3 4.3 0 0 1 2 .5zm-3.5 1.8a2.6 2.6 0 0 0 0 3.3 2 2 0 0 0 1.5.6 2 2 0 0 0 1.5-.6 2.6 2.6 0 0 0 0-3.3 2 2 0 0 0-1.5-.6 2 2 0 0 0-1.5.6zm12.4-1.8a3.4 3.4 0 0 1 1.4 1.4 3.9 3.9 0 0 1 .5 2 4 4 0 0 1-.5 2 3.4 3.4 0 0 1-1.4 1.4 4.3 4.3 0 0 1-2 .5 4.3 4.3 0 0 1-2.1-.5 3.4 3.4 0 0 1-1.4-1.4 4 4 0 0 1-.5-2 3.9 3.9 0 0 1 .5-2 3.4 3.4 0 0 1 1.4-1.3 4.3 4.3 0 0 1 2-.5 4.3 4.3 0 0 1 2 .5zm-3.6 1.8a2.6 2.6 0 0 0 0 3.3 2 2 0 0 0 1.5.6 2 2 0 0 0 1.5-.6 2.6 2.6 0 0 0 0-3.3 2 2 0 0 0-1.5-.6 2 2 0 0 0-1.5.6zm12.1 5.4l-2-3.3-1.1 1.2v2h-1.9v-10.3h1.9v6l3-3.1h2.1l-2.7 2.8 3 4.6zm5-10.4a1 1 0 0 1 .3.7 1 1 0 0 1-.2.8 1 1 0 0 1-1.5 0 1 1 0 0 1-.3-.8 1 1 0 0 1 .3-.7 1 1 0 0 1 1.4 0zm-1.6 2.9h1.8v7.5h-1.8zm10.6.7a3 3 0 0 1 .8 2v4.8h-1.9V515a1.7 1.7 0 0 0-.4-1.2 1.6 1.6 0 0 0-1.2-.5 1.9 1.9 0 0 0-1.5.6 2.3 2.3 0 0 0-.5 1.6v3.6h-1.8v-7.5h1.8v1.4a2.8 2.8 0 0 1 2.7-1.4 2.7 2.7 0 0 1 2 .8zm9.6-.7v6.8a3.5 3.5 0 0 1-.4 1.8 3.2 3.2 0 0 1-1.4 1.2 4.7 4.7 0 0 1-2 .5 5.5 5.5 0 0 1-3.2-1l.7-1.4a3.9 3.9 0 0 0 2.3.8 2.4 2.4 0 0 0 1.6-.5 1.8 1.8 0 0 0 .6-1.4v-.9a2.5 2.5 0 0 1-1 .9 3 3 0 0 1-1.4.3 3.3 3.3 0 0 1-1.7-.5 3.1 3.1 0 0 1-1.2-1.2 4 4 0 0 1-.4-2 4 4 0 0 1 .4-1.8 3 3 0 0 1 1.2-1.2 3.3 3.3 0 0 1 1.7-.5 3 3 0 0 1 1.4.3 2.6 2.6 0 0 1 1 1v-1.2zm-2.3 5a2.4 2.4 0 0 0 0-3 2 2 0 0 0-2.9 0 2.4 2.4 0 0 0 0 3 2 2 0 0 0 2.9 0zm10.3-6.2a.9.9 0 0 0-.2.7v.8h1.9v1.3h-2v5.9H357v-5.9h-1V512h1v-.7a2.6 2.6 0 0 1 .4-1.4 2.3 2.3 0 0 1 1-.9 3 3 0 0 1 1.3-.3 3.1 3.1 0 0 1 1.3.3l-.3 1.5a2.6 2.6 0 0 0-1-.2 1 1 0 0 0-.6.2zm8 1.5a3.4 3.4 0 0 1 1.3 1.4 3.9 3.9 0 0 1 .5 2 4 4 0 0 1-.5 2 3.4 3.4 0 0 1-1.4 1.4 4.3 4.3 0 0 1-2 .5 4.3 4.3 0 0 1-2.1-.5 3.4 3.4 0 0 1-1.4-1.4 4 4 0 0 1-.5-2 3.9 3.9 0 0 1 .5-2 3.4 3.4 0 0 1 1.4-1.3 4.3 4.3 0 0 1 2-.5 4.3 4.3 0 0 1 2.1.5zm-3.7 1.8a2.6 2.6 0 0 0 0 3.3 2 2 0 0 0 1.6.6 2 2 0 0 0 1.5-.6 2.6 2.6 0 0 0 0-3.3 2 2 0 0 0-1.5-.6 2 2 0 0 0-1.6.6zm9.9-1.8a3 3 0 0 1 1.6-.4v1.8a2.5 2.5 0 0 0-1.9.5 2 2 0 0 0-.7 1.6v3.7h-1.8v-7.5h1.8v1.4a2.7 2.7 0 0 1 1-1.1zm9.4 1.2a2 2 0 0 0-1.4.6 2.3 2.3 0 0 0-.6 1.6 2.3 2.3 0 0 0 .6 1.7 2 2 0 0 0 1.4.6 2.4 2.4 0 0 0 2-1l1.2 1a3.3 3.3 0 0 1-1.4 1.2 4.4 4.4 0 0 1-1.9.3 4 4 0 0 1-2-.4 3.4 3.4 0 0 1-1.3-1.4 4.4 4.4 0 0 1 0-4 3.4 3.4 0 0 1 1.3-1.3 4 4 0 0 1 2-.5 4.5 4.5 0 0 1 1.9.4 3.3 3.3 0 0 1 1.3 1l-1.1 1a2.5 2.5 0 0 0-2-.8zm9.8-1.2a3.4 3.4 0 0 1 1.4 1.4 3.9 3.9 0 0 1 .5 2 4 4 0 0 1-.5 2 3.4 3.4 0 0 1-1.4 1.4 4.3 4.3 0 0 1-2 .5 4.3 4.3 0 0 1-2.1-.5 3.4 3.4 0 0 1-1.4-1.4 4 4 0 0 1-.5-2 3.9 3.9 0 0 1 .5-2 3.4 3.4 0 0 1 1.4-1.3 4.3 4.3 0 0 1 2-.5 4.3 4.3 0 0 1 2.1.5zm-3.6 1.8a2.6 2.6 0 0 0 0 3.3 2 2 0 0 0 1.6.6 2 2 0 0 0 1.5-.6 2.6 2.6 0 0 0 0-3.3 2 2 0 0 0-1.5-.6 2 2 0 0 0-1.6.6zm13.6-1.4a3 3 0 0 1 .8 2v4.8h-1.9V515a1.7 1.7 0 0 0-.4-1.2 1.6 1.6 0 0 0-1.2-.5 1.9 1.9 0 0 0-1.5.6 2.3 2.3 0 0 0-.5 1.6v3.6h-1.8v-7.5h1.8v1.4a2.8 2.8 0 0 1 2.7-1.4 2.7 2.7 0 0 1 2 .8zm7.2 6.3a3.5 3.5 0 0 1-1.9.6 2.3 2.3 0 0 1-1.6-.6 2.2 2.2 0 0 1-.6-1.7v-3.7h-1V512h1v-2h1.8v2h2.2v1.3h-2.2v3.4a1 1 0 0 0 .2.7.8.8 0 0 0 .6.3 2.6 2.6 0 0 0 1-.4zm4.3-6.7a3 3 0 0 1 1.5-.4v1.8a2.5 2.5 0 0 0-1.9.5 2 2 0 0 0-.7 1.6v3.7H411v-7.5h1.8v1.4a2.7 2.7 0 0 1 1-1.1zm4.4-3.2a1 1 0 0 1 .3.7 1 1 0 0 1-.3.8 1 1 0 0 1-1.5 0 1 1 0 0 1-.3-.8 1 1 0 0 1 .3-.7 1 1 0 0 1 1.5 0zm-1.6 2.9h1.8v7.5h-1.8zm10.3.4a3.3 3.3 0 0 1 1.3 1.4 4.3 4.3 0 0 1 .4 2 4.3 4.3 0 0 1-.4 2 3.2 3.2 0 0 1-1.3 1.3 3.5 3.5 0 0 1-1.8.5 3.2 3.2 0 0 1-1.5-.4 2.8 2.8 0 0 1-1-1v1.3h-1.9v-10.4h1.8v4.1a2.7 2.7 0 0 1 1-1 3.2 3.2 0 0 1 1.5-.3 3.5 3.5 0 0 1 1.9.5zm-.8 5a2.3 2.3 0 0 0 .6-1.7 2.3 2.3 0 0 0-.6-1.6 2.1 2.1 0 0 0-3 0 2.6 2.6 0 0 0 0 3.2 2 2 0 0 0 1.6.7 2 2 0 0 0 1.4-.7zm11-5.4v7.5h-1.8v-1.4a2.7 2.7 0 0 1-2.6 1.4 2.6 2.6 0 0 1-2-.7 3 3 0 0 1-.8-2.1v-4.7h1.8v4.1a1.7 1.7 0 0 0 .5 1.3 1.6 1.6 0 0 0 1.2.4 1.7 1.7 0 0 0 1.3-.6 2.3 2.3 0 0 0 .5-1.5v-3.7zm6.6 7a3.5 3.5 0 0 1-1.9.6 2.3 2.3 0 0 1-1.5-.6 2.2 2.2 0 0 1-.6-1.7v-3.7h-1.1V512h1v-2h1.9v2h2.1v1.3h-2.1v3.4a1 1 0 0 0 .2.7.8.8 0 0 0 .6.3 2.6 2.6 0 0 0 1-.4zm3.1-9.9a1 1 0 0 1 .3.7 1 1 0 0 1-.3.8 1 1 0 0 1-1.5 0 1 1 0 0 1-.3-.8 1 1 0 0 1 .3-.7 1 1 0 0 1 1.5 0zm-1.6 2.9h1.8v7.5h-1.8zm9.4.3a3.4 3.4 0 0 1 1.4 1.4 3.9 3.9 0 0 1 .4 2 4 4 0 0 1-.4 2 3.4 3.4 0 0 1-1.4 1.4 4.3 4.3 0 0 1-2 .5 4.3 4.3 0 0 1-2.2-.5 3.4 3.4 0 0 1-1.3-1.4 4 4 0 0 1-.5-2 3.9 3.9 0 0 1 .5-2 3.4 3.4 0 0 1 1.3-1.3 4.3 4.3 0 0 1 2.1-.5 4.3 4.3 0 0 1 2 .5zm-3.6 1.8a2.6 2.6 0 0 0 0 3.3 2 2 0 0 0 1.5.6 2 2 0 0 0 1.5-.6 2.6 2.6 0 0 0 0-3.3 2 2 0 0 0-1.5-.6 2 2 0 0 0-1.5.6zm13.6-1.4a3 3 0 0 1 .7 2v4.8h-1.8V515a1.7 1.7 0 0 0-.5-1.2 1.6 1.6 0 0 0-1.2-.5 1.9 1.9 0 0 0-1.4.6 2.3 2.3 0 0 0-.6 1.6v3.6h-1.8v-7.5h1.8v1.4a2.8 2.8 0 0 1 2.7-1.4 2.7 2.7 0 0 1 2 .8zm6.1.8a3.6 3.6 0 0 0-1.1-.2 1.4 1.4 0 0 0-.7.2.5.5 0 0 0-.3.5.6.6 0 0 0 .3.5 5.5 5.5 0 0 0 1.1.4 10.7 10.7 0 0 1 1.3.5 2.4 2.4 0 0 1 .9.7 1.8 1.8 0 0 1 .3 1.2 2 2 0 0 1-.8 1.7 3.6 3.6 0 0 1-2.1.6 5.3 5.3 0 0 1-1.7-.3 4 4 0 0 1-1.4-.8l.6-1.3a3.7 3.7 0 0 0 1.2.7 4 4 0 0 0 1.4.3 1.6 1.6 0 0 0 .8-.2.6.6 0 0 0 .3-.5.6.6 0 0 0-.4-.6 6.3 6.3 0 0 0-1.1-.4 9.5 9.5 0 0 1-1.2-.5 2.2 2.2 0 0 1-.9-.6 1.8 1.8 0 0 1-.3-1.2 2 2 0 0 1 .8-1.7 3.4 3.4 0 0 1 2-.6 5.2 5.2 0 0 1 1.4.3 4.5 4.5 0 0 1 1.3.5l-.7 1.4a5.4 5.4 0 0 0-1-.6zm8.2 4.3a1 1 0 0 1 .2.8 1 1 0 0 1-.3.7 1 1 0 0 1-.7.3.9.9 0 0 1-.7-.3 1 1 0 0 1-.2-.7 1 1 0 0 1 .2-.7 1 1 0 0 1 .7-.3 1 1 0 0 1 .7.3zm-1.6-8h1.7v2.4l-.3 4h-1.1l-.3-4zm-322.1 16.7h2L154 536h-2l-2.2-7.4-2.3 7.4h-2l-3.2-9.8h2l2.3 7.8 2.3-7.8h1.8l2.3 7.8zm8.2 3.2a4.2 4.2 0 0 1 .9 3v.5h-5.6a2 2 0 0 0 2.2 1.7 2.9 2.9 0 0 0 1-.2 2.7 2.7 0 0 0 1-.7l1 1a3.8 3.8 0 0 1-1.4 1 4.6 4.6 0 0 1-1.8.4 4.2 4.2 0 0 1-2-.5 3.3 3.3 0 0 1-1.3-1.3 4.3 4.3 0 0 1 0-4 3.4 3.4 0 0 1 1.3-1.4 4 4 0 0 1 2-.5 3.4 3.4 0 0 1 2.7 1zm-.8 2.2a1.8 1.8 0 0 0-.5-1.3 2.1 2.1 0 0 0-2.7 0 2.1 2.1 0 0 0-.7 1.3zm11.1 4.4v-1a2.5 2.5 0 0 1-1 .7 3.7 3.7 0 0 1-1.4.3 3 3 0 0 1-1.4-.3 2.2 2.2 0 0 1-1-.8 2.3 2.3 0 0 1-.2-1.2 2 2 0 0 1 .7-1.7 3.3 3.3 0 0 1 2.1-.6h2.2v-.2a1.3 1.3 0 0 0-.4-1 2 2 0 0 0-1.3-.3 4.3 4.3 0 0 0-2.2.7l-.7-1.3a8.3 8.3 0 0 1 1.6-.7 5.8 5.8 0 0 1 1.7-.2 3.3 3.3 0 0 1 2.3.7 2.5 2.5 0 0 1 .8 2v4.9zm-.7-1.7a1.3 1.3 0 0 0 .7-1v-.6h-2a2 2 0 0 0-1 .2.8.8 0 0 0-.3.8 1 1 0 0 0 .3.7 1.5 1.5 0 0 0 1 .3 2.4 2.4 0 0 0 1.3-.4zm7.4-5.5a3 3 0 0 1 1.5-.4v1.8a2.5 2.5 0 0 0-1.9.5 2 2 0 0 0-.6 1.6v3.7h-1.9v-7.5h1.9v1.4a2.7 2.7 0 0 1 1-1.1zm8.5.6a4.2 4.2 0 0 1 1 3v.5h-5.5a2 2 0 0 0 2.1 1.7 2.9 2.9 0 0 0 1.1-.2 2.7 2.7 0 0 0 1-.7l1 1a3.8 3.8 0 0 1-1.5 1 4.6 4.6 0 0 1-1.7.4 4.2 4.2 0 0 1-2-.5 3.3 3.3 0 0 1-1.4-1.3 4.3 4.3 0 0 1 0-4 3.4 3.4 0 0 1 1.4-1.4 4 4 0 0 1 2-.5 3.4 3.4 0 0 1 2.6 1zm-.7 2.2a1.8 1.8 0 0 0-.5-1.3 2.1 2.1 0 0 0-2.7 0 2.1 2.1 0 0 0-.7 1.3zm9.9-1.6a2 2 0 0 0-1.5.6 2.3 2.3 0 0 0-.6 1.6 2.3 2.3 0 0 0 .6 1.6 2 2 0 0 0 1.5.7 2.4 2.4 0 0 0 2-1l1.1 1a3.3 3.3 0 0 1-1.3 1.1 4.4 4.4 0 0 1-2 .4 4 4 0 0 1-2-.4 3.4 3.4 0 0 1-1.3-1.4 4.4 4.4 0 0 1 0-4 3.4 3.4 0 0 1 1.4-1.3 4 4 0 0 1 2-.5 4.5 4.5 0 0 1 1.8.4 3.3 3.3 0 0 1 1.3 1l-1.1 1a2.5 2.5 0 0 0-2-.8zm10.2-.6a4.2 4.2 0 0 1 1 3v.5h-5.6a2 2 0 0 0 2.1 1.7 2.9 2.9 0 0 0 1.1-.2 2.7 2.7 0 0 0 1-.7l1 1a3.8 3.8 0 0 1-1.4 1 4.6 4.6 0 0 1-1.8.4 4.2 4.2 0 0 1-2-.5 3.3 3.3 0 0 1-1.4-1.3 4.3 4.3 0 0 1 0-4 3.4 3.4 0 0 1 1.4-1.4 4 4 0 0 1 2-.5 3.4 3.4 0 0 1 2.6 1zm-.7 2.2a1.8 1.8 0 0 0-.6-1.3 2.1 2.1 0 0 0-2.7 0 2.1 2.1 0 0 0-.7 1.3zm3.3-6h1.8V536H211zm10 3.8a4.2 4.2 0 0 1 .9 3v.5h-5.5a2 2 0 0 0 2.1 1.7 2.9 2.9 0 0 0 1.1-.2 2.7 2.7 0 0 0 1-.7l1 1a3.8 3.8 0 0 1-1.4 1 4.6 4.6 0 0 1-1.8.4 4.2 4.2 0 0 1-2-.5 3.3 3.3 0 0 1-1.4-1.3 4.3 4.3 0 0 1 0-4 3.4 3.4 0 0 1 1.4-1.4 4 4 0 0 1 2-.5 3.4 3.4 0 0 1 2.6 1zm-.8 2.2a1.8 1.8 0 0 0-.5-1.3 2.1 2.1 0 0 0-2.7 0 2.1 2.1 0 0 0-.7 1.3zm9.5-2.7a3.3 3.3 0 0 1 1.2 1.4 4.4 4.4 0 0 1 .5 2 4.3 4.3 0 0 1-.5 2 3.2 3.2 0 0 1-1.2 1.3 3.5 3.5 0 0 1-1.8.5 3.2 3.2 0 0 1-1.5-.4 2.8 2.8 0 0 1-1-1v1.3h-1.9v-10.4h1.8v4.1a2.7 2.7 0 0 1 1-1 3.2 3.2 0 0 1 1.5-.3 3.5 3.5 0 0 1 1.9.5zm-.8 5a2.3 2.3 0 0 0 .6-1.7 2.3 2.3 0 0 0-.6-1.6 2.1 2.1 0 0 0-3 0 2.6 2.6 0 0 0 0 3.2 2 2 0 0 0 1.6.7 2 2 0 0 0 1.4-.7zm6.9-5.1a3 3 0 0 1 1.5-.4v1.8a2.5 2.5 0 0 0-1.8.5 2 2 0 0 0-.7 1.6v3.7H233v-7.5h1.8v1.4a2.7 2.7 0 0 1 1-1.1zm7 7.2v-1a2.5 2.5 0 0 1-1 .7 3.7 3.7 0 0 1-1.5.3 3 3 0 0 1-1.3-.3 2.2 2.2 0 0 1-1-.8 2.3 2.3 0 0 1-.3-1.2 2 2 0 0 1 .8-1.7 3.3 3.3 0 0 1 2-.6h2.3v-.2a1.3 1.3 0 0 0-.5-1 2 2 0 0 0-1.2-.3 4.3 4.3 0 0 0-2.3.7l-.6-1.3a8.3 8.3 0 0 1 1.6-.7 5.8 5.8 0 0 1 1.7-.2 3.3 3.3 0 0 1 2.2.7 2.5 2.5 0 0 1 .8 2v4.9zm-.7-1.7a1.3 1.3 0 0 0 .7-1v-.6h-2a2 2 0 0 0-1 .2.8.8 0 0 0-.3.8 1 1 0 0 0 .3.7 1.5 1.5 0 0 0 1 .3 2.4 2.4 0 0 0 1.3-.4zm8.9 1.2a3.6 3.6 0 0 1-1.9.6 2.2 2.2 0 0 1-1.6-.6 2.2 2.2 0 0 1-.6-1.7v-3.7h-1v-1.3h1v-2h1.9v2h2.1v1.3h-2.1v3.4a1 1 0 0 0 .2.7.8.8 0 0 0 .6.2 2.6 2.6 0 0 0 1-.3zm3-9.9a1 1 0 0 1 .3.7 1 1 0 0 1-.3.8 1 1 0 0 1-1.5 0 1 1 0 0 1-.3-.8 1 1 0 0 1 .3-.7 1 1 0 0 1 1.5 0zm-1.6 2.9h1.8v7.5h-1.8zm10.6.7a3 3 0 0 1 .7 2v4.8H262v-4.1a1.7 1.7 0 0 0-.4-1.3 1.6 1.6 0 0 0-1.3-.4 1.9 1.9 0 0 0-1.4.6 2.3 2.3 0 0 0-.5 1.5v3.7h-1.8v-7.5h1.8v1.4a2.8 2.8 0 0 1 2.7-1.5 2.7 2.7 0 0 1 2 .8zm9.6-.7v6.8a3.5 3.5 0 0 1-.4 1.8 3.2 3.2 0 0 1-1.4 1.2 4.7 4.7 0 0 1-2 .5 5.5 5.5 0 0 1-3.2-1l.7-1.4a3.9 3.9 0 0 0 2.3.8 2.4 2.4 0 0 0 1.6-.5 1.8 1.8 0 0 0 .6-1.4v-.9a2.5 2.5 0 0 1-1 .9 3 3 0 0 1-1.4.3 3.3 3.3 0 0 1-1.7-.5 3.1 3.1 0 0 1-1.2-1.3 4 4 0 0 1-.4-1.8 4 4 0 0 1 .4-1.9 3 3 0 0 1 1.2-1.2 3.4 3.4 0 0 1 1.7-.5 3 3 0 0 1 1.4.3 2.6 2.6 0 0 1 1 .9v-1.1zm-2.3 5a2.4 2.4 0 0 0 0-3 2 2 0 0 0-2.9 0 2.4 2.4 0 0 0 0 3 2 2 0 0 0 2.9 0zm12.3 2a3.6 3.6 0 0 1-1.9.6 2.2 2.2 0 0 1-1.6-.6 2.2 2.2 0 0 1-.6-1.7v-3.7h-1v-1.3h1v-2h1.9v2h2.1v1.3h-2.1v3.4a1 1 0 0 0 .2.7.8.8 0 0 0 .6.2 2.6 2.6 0 0 0 1-.3zm8-6.3a3 3 0 0 1 .8 2v4.8h-1.8v-4.1a1.7 1.7 0 0 0-.5-1.3 1.6 1.6 0 0 0-1.2-.4 1.9 1.9 0 0 0-1.4.6 2.2 2.2 0 0 0-.6 1.5v3.7h-1.8v-10.4h1.8v4.3a2.8 2.8 0 0 1 2.7-1.5 2.7 2.7 0 0 1 2 .8zm8.7.2a4.2 4.2 0 0 1 .9 3v.5h-5.6a2 2 0 0 0 2.2 1.7 2.9 2.9 0 0 0 1-.2 2.7 2.7 0 0 0 1-.7l1 1a3.8 3.8 0 0 1-1.4 1 4.6 4.6 0 0 1-1.8.4 4.2 4.2 0 0 1-2-.5 3.3 3.3 0 0 1-1.3-1.3 4.3 4.3 0 0 1 0-4 3.4 3.4 0 0 1 1.3-1.4 4 4 0 0 1 2-.5 3.4 3.4 0 0 1 2.7 1zm-.8 2.2a1.8 1.8 0 0 0-.6-1.3 2.1 2.1 0 0 0-2.7 0 2.1 2.1 0 0 0-.6 1.3zm18.5-2.4a3 3 0 0 1 .7 2v4.8H316v-4.1a1.7 1.7 0 0 0-.4-1.3 1.6 1.6 0 0 0-1.2-.5 1.8 1.8 0 0 0-1.4.7 2.3 2.3 0 0 0-.5 1.5v3.7h-1.9v-4.1a1.7 1.7 0 0 0-.4-1.3 1.6 1.6 0 0 0-1.2-.5 1.8 1.8 0 0 0-1.4.7 2.3 2.3 0 0 0-.5 1.5v3.7h-1.8v-7.5h1.8v1.4a3.1 3.1 0 0 1 4.3-1 2.5 2.5 0 0 1 1 1.3 2.8 2.8 0 0 1 2.7-1.8 2.6 2.6 0 0 1 2 .8zm8-.3a3.4 3.4 0 0 1 1.5 1.3 3.9 3.9 0 0 1 .4 2 4 4 0 0 1-.4 2 3.4 3.4 0 0 1-1.4 1.4 4.3 4.3 0 0 1-2.1.4 4.3 4.3 0 0 1-2-.5 3.4 3.4 0 0 1-1.5-1.3 4 4 0 0 1-.5-2 3.9 3.9 0 0 1 .5-2 3.4 3.4 0 0 1 1.4-1.4 4.3 4.3 0 0 1 2.1-.4 4.3 4.3 0 0 1 2 .5zm-3.5 1.7a2.6 2.6 0 0 0 0 3.3 2 2 0 0 0 1.5.6 2 2 0 0 0 1.5-.6 2.6 2.6 0 0 0 0-3.3 2 2 0 0 0-1.5-.6 2 2 0 0 0-1.5.6zm13.5-1.4a3 3 0 0 1 .8 2v4.8H334v-4.1a1.7 1.7 0 0 0-.5-1.3 1.6 1.6 0 0 0-1.2-.4 1.9 1.9 0 0 0-1.4.6 2.3 2.3 0 0 0-.5 1.5v3.7h-1.8v-7.5h1.8v1.4a2.8 2.8 0 0 1 2.6-1.5 2.7 2.7 0 0 1 2 .8zm7.2 6.3a3.6 3.6 0 0 1-1.8.6 2.3 2.3 0 0 1-1.6-.6 2.2 2.2 0 0 1-.6-1.7v-3.7H337v-1.3h1v-2h1.9v2h2.1v1.3h-2v3.4a1 1 0 0 0 .2.7.8.8 0 0 0 .6.2 2.6 2.6 0 0 0 1-.3zm8.1-6.3a3 3 0 0 1 .7 2v4.8h-1.8v-4.1a1.7 1.7 0 0 0-.5-1.3 1.6 1.6 0 0 0-1.2-.4 1.9 1.9 0 0 0-1.4.6 2.2 2.2 0 0 0-.6 1.5v3.7h-1.8v-10.4h1.9v4.3a2.8 2.8 0 0 1 2.6-1.5 2.7 2.7 0 0 1 2 .8zm6.3-3.6h1.8V536h-1.8zm9.4 3.3a3.4 3.4 0 0 1 1.4 1.3 3.9 3.9 0 0 1 .5 2 4 4 0 0 1-.5 2 3.4 3.4 0 0 1-1.4 1.4 4.3 4.3 0 0 1-2 .4 4.3 4.3 0 0 1-2-.5 3.4 3.4 0 0 1-1.5-1.3 4 4 0 0 1-.5-2 3.9 3.9 0 0 1 .5-2 3.4 3.4 0 0 1 1.4-1.4 4.3 4.3 0 0 1 2.1-.4 4.3 4.3 0 0 1 2 .5zm-3.6 1.7a2.6 2.6 0 0 0 0 3.3 2 2 0 0 0 1.6.6 2 2 0 0 0 1.5-.6 2.6 2.6 0 0 0 0-3.3 2 2 0 0 0-1.5-.6 2 2 0 0 0-1.5.6zm13.6-1.4a3 3 0 0 1 .8 2v4.8H375v-4.1a1.7 1.7 0 0 0-.5-1.3 1.6 1.6 0 0 0-1.2-.4 1.9 1.9 0 0 0-1.4.6 2.3 2.3 0 0 0-.5 1.5v3.7h-1.8v-7.5h1.8v1.4a2.8 2.8 0 0 1 2.6-1.5 2.7 2.7 0 0 1 2 .8zm9.7-.7v6.8a3.5 3.5 0 0 1-.5 1.8 3.2 3.2 0 0 1-1.4 1.2 4.7 4.7 0 0 1-2 .5 5.5 5.5 0 0 1-3.2-1l.7-1.4a3.9 3.9 0 0 0 2.4.8 2.4 2.4 0 0 0 1.6-.5 1.8 1.8 0 0 0 .6-1.4v-.9a2.5 2.5 0 0 1-1 .9 3 3 0 0 1-1.4.3 3.3 3.3 0 0 1-1.8-.5 3.1 3.1 0 0 1-1.2-1.3 4 4 0 0 1-.4-1.8 4 4 0 0 1 .4-1.9 3 3 0 0 1 1.2-1.2 3.4 3.4 0 0 1 1.8-.5 3 3 0 0 1 1.3.3 2.6 2.6 0 0 1 1 .9v-1.1zm-2.4 5a2.4 2.4 0 0 0 0-3 2 2 0 0 0-2.9 0 2.4 2.4 0 0 0 0 3 2 2 0 0 0 3 0zm8-7.3h2v4.1h4.8v-4.1h1.9v9.8h-1.9v-4h-4.9v4h-1.9zm15.4 9.8v-1a2.4 2.4 0 0 1-1 .7 3.7 3.7 0 0 1-1.4.3 3 3 0 0 1-1.4-.3 2.2 2.2 0 0 1-.9-.8 2.3 2.3 0 0 1-.3-1.2 2 2 0 0 1 .7-1.7 3.3 3.3 0 0 1 2.2-.6h2.1v-.2a1.3 1.3 0 0 0-.4-1 2 2 0 0 0-1.3-.3 4.3 4.3 0 0 0-2.2.7l-.7-1.3a8.3 8.3 0 0 1 1.6-.7 5.8 5.8 0 0 1 1.7-.2 3.3 3.3 0 0 1 2.3.7 2.5 2.5 0 0 1 .8 2v4.9zm-.6-1.7a1.3 1.3 0 0 0 .6-1v-.6h-1.9a2 2 0 0 0-1 .2.8.8 0 0 0-.4.8 1 1 0 0 0 .4.7 1.5 1.5 0 0 0 1 .3 2.4 2.4 0 0 0 1.3-.4zm7.7-4.3a2 2 0 0 0-1.5.6 2.3 2.3 0 0 0-.6 1.6 2.3 2.3 0 0 0 .6 1.6 2 2 0 0 0 1.5.7 2.4 2.4 0 0 0 2-1l1.1 1a3.3 3.3 0 0 1-1.3 1.1 4.4 4.4 0 0 1-2 .4 4 4 0 0 1-2-.4 3.4 3.4 0 0 1-1.3-1.4 4.4 4.4 0 0 1 0-4 3.4 3.4 0 0 1 1.3-1.3 4 4 0 0 1 2-.5 4.5 4.5 0 0 1 1.9.4 3.3 3.3 0 0 1 1.3 1l-1.1 1a2.5 2.5 0 0 0-2-.8zm9.7 6l-2-3.3-1.1 1.2v2.1h-1.8v-10.4h1.8v6l3-3.1h2.2l-2.8 2.8 3 4.6zm7.8-.5a3.6 3.6 0 0 1-1.9.6 2.3 2.3 0 0 1-1.5-.6 2.2 2.2 0 0 1-.7-1.7v-3.7h-1v-1.3h1v-2h1.9v2h2.1v1.3h-2.1v3.4a1 1 0 0 0 .2.7.8.8 0 0 0 .6.2 2.6 2.6 0 0 0 1-.3zm6.7-6.6a3.4 3.4 0 0 1 1.4 1.3 3.9 3.9 0 0 1 .5 2 4 4 0 0 1-.5 2 3.4 3.4 0 0 1-1.4 1.4 4.3 4.3 0 0 1-2 .4 4.3 4.3 0 0 1-2-.5 3.4 3.4 0 0 1-1.5-1.3 4 4 0 0 1-.5-2 3.9 3.9 0 0 1 .5-2 3.4 3.4 0 0 1 1.4-1.4 4.3 4.3 0 0 1 2.1-.4 4.3 4.3 0 0 1 2 .5zm-3.6 1.7a2.6 2.6 0 0 0 0 3.3 2 2 0 0 0 1.6.6 2 2 0 0 0 1.5-.6 2.6 2.6 0 0 0 0-3.3 2 2 0 0 0-1.5-.6 2 2 0 0 0-1.6.6zm13.3-1.7a3.3 3.3 0 0 1 1.3 1.4 4.3 4.3 0 0 1 .4 2 4.3 4.3 0 0 1-.4 2 3.2 3.2 0 0 1-1.2 1.3 3.5 3.5 0 0 1-1.9.5 3.2 3.2 0 0 1-1.5-.4 2.8 2.8 0 0 1-1-1v1.3h-1.8v-10.4h1.8v4.1a2.7 2.7 0 0 1 1-1 3.2 3.2 0 0 1 1.5-.3 3.5 3.5 0 0 1 1.8.5zm-.7 5a2.3 2.3 0 0 0 .6-1.7 2.3 2.3 0 0 0-.6-1.6 2.1 2.1 0 0 0-3 0 2.6 2.6 0 0 0 0 3.2 2 2 0 0 0 1.5.7 2 2 0 0 0 1.5-.7zm9.8-4.5a4.2 4.2 0 0 1 1 3v.5h-5.6a2 2 0 0 0 2.1 1.7 2.9 2.9 0 0 0 1.1-.2 2.7 2.7 0 0 0 1-.7l1 1a3.8 3.8 0 0 1-1.4 1 4.6 4.6 0 0 1-1.8.4 4.2 4.2 0 0 1-2-.5 3.3 3.3 0 0 1-1.4-1.3 4.3 4.3 0 0 1 0-4 3.4 3.4 0 0 1 1.4-1.4 4 4 0 0 1 2-.5 3.4 3.4 0 0 1 2.6 1zm-.7 2.2a1.8 1.8 0 0 0-.6-1.3 2.1 2.1 0 0 0-2.7 0 2.1 2.1 0 0 0-.7 1.3zm6-2.8a3 3 0 0 1 1.6-.4v1.8a2.5 2.5 0 0 0-1.9.5 2 2 0 0 0-.7 1.6v3.7h-1.8v-7.5h1.8v1.4a2.7 2.7 0 0 1 1-1.1zm5.3-1.5a.9.9 0 0 0-.3.7v.8h1.9v1.3h-1.9v5.9h-1.8v-5.8h-1v-1.4h1v-.7a2.6 2.6 0 0 1 .4-1.4 2.3 2.3 0 0 1 1-.9 3 3 0 0 1 1.3-.3 3.1 3.1 0 0 1 1.4.4l-.4 1.4a2.6 2.6 0 0 0-.9-.2 1 1 0 0 0-.7.2zm8.3 2.1a4.2 4.2 0 0 1 1 3v.5H471a2 2 0 0 0 2.1 1.7 2.9 2.9 0 0 0 1.1-.2 2.7 2.7 0 0 0 1-.7l1 1a3.8 3.8 0 0 1-1.4 1 4.6 4.6 0 0 1-1.8.4 4.2 4.2 0 0 1-2-.5 3.3 3.3 0 0 1-1.4-1.3 4.3 4.3 0 0 1 0-4 3.4 3.4 0 0 1 1.4-1.4 4 4 0 0 1 2-.5 3.4 3.4 0 0 1 2.6 1zm-.7 2.2a1.8 1.8 0 0 0-.6-1.3 2.1 2.1 0 0 0-2.7 0 2.1 2.1 0 0 0-.7 1.3zm6.5-1.6a3.6 3.6 0 0 0-1-.2 1.4 1.4 0 0 0-.8.2.5.5 0 0 0-.3.5.6.6 0 0 0 .4.5 5.5 5.5 0 0 0 1 .4 10.3 10.3 0 0 1 1.3.5 2.4 2.4 0 0 1 1 .7 1.8 1.8 0 0 1 .3 1.2 2 2 0 0 1-.9 1.7 3.6 3.6 0 0 1-2 .6 5.4 5.4 0 0 1-1.8-.3 4 4 0 0 1-1.4-.8l.7-1.3a3.7 3.7 0 0 0 1.2.7 4 4 0 0 0 1.3.3 1.6 1.6 0 0 0 .8-.2.6.6 0 0 0 .3-.5.6.6 0 0 0-.3-.6 6.2 6.2 0 0 0-1.2-.5 9.7 9.7 0 0 1-1.2-.4 2.2 2.2 0 0 1-.8-.7 1.8 1.8 0 0 1-.4-1.1 2 2 0 0 1 .8-1.7 3.4 3.4 0 0 1 2-.6 5.2 5.2 0 0 1 1.5.2 4.5 4.5 0 0 1 1.2.6l-.6 1.3a5.4 5.4 0 0 0-1.1-.5zm7.8 5.5a3.6 3.6 0 0 1-1.9.6 2.3 2.3 0 0 1-1.5-.6 2.2 2.2 0 0 1-.7-1.7v-3.7h-1v-1.3h1v-2h1.9v2h2.1v1.3h-2.1v3.4a1 1 0 0 0 .2.7.8.8 0 0 0 .6.2 2.6 2.6 0 0 0 1-.3zm6.2-1.1a1 1 0 0 1 .2.7 1 1 0 0 1-.2.7 1 1 0 0 1-.7.3.9.9 0 0 1-.7-.3 1 1 0 0 1-.3-.7 1 1 0 0 1 .3-.7 1 1 0 0 1 .7-.3 1 1 0 0 1 .7.3zm-1.6-8.1h1.8v2.4l-.4 4h-1l-.4-4zm4.7 8.1a1 1 0 0 1 .2.7 1 1 0 0 1-.2.7 1 1 0 0 1-.7.3.9.9 0 0 1-.7-.3 1 1 0 0 1-.3-.7 1 1 0 0 1 .3-.7 1 1 0 0 1 .7-.3 1 1 0 0 1 .7.3zm-1.6-8.1h1.8v2.4l-.4 4h-1l-.4-4z"/></svg>