<svg id="Layer_1" data-name="Layer 1" xmlns="http://www.w3.org/2000/svg" viewBox="0 0 290.64 288.08"><title>hangout small image</title><path d="M33.28,230.47c-62.52-83.43-19.51-201,82-224.18,77-17.55,155.51,34.58,169.2,112.22A142.59,142.59,0,0,1,278.62,192c-4.54-2.69-7.55-7-11.35-10.5-6.72-6.15-12.42-13.36-19.71-18.91h.11l-1-1c-2.12-2.4-4.05-5-6.38-7.17-17.93-16.62-47.53-8.59-54.32,14.87-4.34,15,.67,27.24,12.35,37.09L200,207.5l0,0,1,.86,0,0c1.82,4.68,6.62,6.81,9.2,10.84-1.37.05-2.74.12-4.11.13-14.62.1-21.88,5-27.2,18.48-1.46-1.33-3-2.61-4.36-4Q140.75,200,107,166.28c-1.48-1.47-2.66-3.41-5-3.78l0,0a2.13,2.13,0,0,0-1.3-1.82c-.86-1.07-1.67-2.17-2.58-3.19-9-10.06-20.31-14-33.39-11S43.28,158,40.16,170.93C36.5,186.09,42.21,198,54.3,207.3l1,1-.05-.05a2,2,0,0,0,1.84,1v0c1.32,4.42,5.75,6.3,8.12,9.86-2,.06-3.94.26-5.91.16-7.52-.37-14.52,1-20.43,6C37,226.9,35.15,228.73,33.28,230.47ZM112.9,56.36c-12.2,0-24.41,0-36.61-.24-3.6-.08-4.57.92-4.55,4.53.17,25.18.08,50.36.12,75.54,0,1-.46,2.11.82,3.31,6.73-5.66,13.51-11.25,20.14-17a9.26,9.26,0,0,1,6.59-2.43c17.54.1,35.09,0,52.64,0,12.41,0,12.41,0,12-12.49l.21-10.2c5.15-.86,10.38.19,15.49-.47,9.45-1.24,17.11,1.59,23.84,8.32,3.88,3.89,8.61,7,13.69,11,0-27.51,0-53.86,0-80.2,0-2.76-1.43-2.83-3.46-2.83-28.51,0-57,.07-85.54-.05-3.06,0-3.46,1.23-3.42,3.79.09,6.4-.06,12.81-.11,19.21Z" fill="#ddd"/><path d="M102,162.5c2.34.37,3.52,2.31,5,3.78Q140.78,200,174.5,233.74c1.39,1.4,2.9,2.68,4.36,4a64.77,64.77,0,0,0-.77,11.81c0,11-.06,21.92-.1,32.88a148.15,148.15,0,0,1-61.2.86c-.11-2-.31-3.95-.32-5.93,0-10.22.12-20.45,0-30.68-.3-17.63-10.27-27.34-27.83-27.41-7.79,0-15.57-.12-23.35-.19-2.37-3.56-6.8-5.44-8.12-9.86,1.6.45,3.21.85,4.79,1.36a33.44,33.44,0,0,0,42.23-21.38C107.16,180,105.54,171.18,102,162.5Z" fill="#b7b6b6"/><path d="M65.24,219.09c7.78.07,15.56.16,23.35.19,17.56.07,27.53,9.78,27.83,27.41.17,10.23,0,20.46,0,30.68,0,2,.21,4,.32,5.93-32.65-7-59.59-23.46-81-49.07a42.05,42.05,0,0,1-2.55-3.76c1.87-1.74,3.67-3.57,5.62-5.22,5.91-5,12.91-6.37,20.43-6C61.3,219.35,63.27,219.15,65.24,219.09Z" fill="#353535"/><path d="M178,282.44c0-11,.11-21.92.1-32.88a64.77,64.77,0,0,1,.77-11.81c5.32-13.45,12.58-18.38,27.2-18.48,1.37,0,2.74-.08,4.11-.13,5.64.05,11.32.51,16.93.06,12.42-1,22.14,3.09,28.78,13.86-18.63,23.56-42.6,39.15-71.28,47.71C182.43,281.42,180.19,281.88,178,282.44Z" fill="#353535"/><path d="M255.88,233.06c-6.64-10.77-16.36-14.85-28.78-13.86-5.61.45-11.29,0-16.93-.06-2.58-4-7.38-6.16-9.2-10.84,1,.33,2,.6,3,1,21.18,8.8,42.81-3.22,46.83-25.84,1.32-7.44-1.29-14.06-3.24-20.88,7.29,5.55,13,12.76,19.71,18.91,3.8,3.48,6.81,7.81,11.35,10.5C273.7,207.16,265.7,220.61,255.88,233.06Z" fill="#b7b6b6"/><path d="M124.82,56.15c.05-6.4.2-12.81.11-19.21,0-2.56.36-3.8,3.42-3.79,28.51.12,57,.08,85.54.05,2,0,3.47.07,3.46,2.83-.07,26.34,0,52.69,0,80.2-5.08-4-9.81-7.07-13.69-11-6.73-6.73-14.39-9.56-23.84-8.32-5.11.66-10.34-.39-15.49.47L148,97.35c-7.65-1.13-15.37.14-23-.69,0-1.89-.09-3.78-.14-5.67V83.78l0-6.36q0-3.58-.08-7.15Q124.82,63.21,124.82,56.15Zm18,1.77c-3.5.15-5.54,2-5.56,5.4a4.92,4.92,0,0,0,5.15,5.3c3.34.06,5.49-1.83,5.49-5.35C147.85,60,145.91,58.34,142.77,57.92Zm31.76,5c-.41-2.73-1.92-4.8-5.21-4.89-3.54-.09-5.48,2-5.52,5.34A4.91,4.91,0,0,0,169,68.62C172.32,68.68,174.28,66.73,174.53,62.89Zm26.58,0c-.33-2.63-1.78-4.74-5.07-4.9-3.54-.18-5.57,1.88-5.65,5.19s2.09,5.51,5.48,5.44C199,68.57,200.87,66.67,201.11,62.91Z" fill="#ed592a"/><path d="M102,162.5c3.53,8.68,5.15,17.49,2.13,26.71a33.44,33.44,0,0,1-42.23,21.38c-1.58-.51-3.19-.91-4.79-1.36v0a1.75,1.75,0,0,0-1.84-1l.05.05-1-1C42.21,198,36.5,186.09,40.16,170.93c3.12-12.94,11.62-21.39,24.6-24.37s24.36.91,33.39,11c.91,1,1.72,2.12,2.58,3.19l1.3,1.82Z" fill="#353535"/><path d="M247.56,162.59c1.95,6.82,4.56,13.44,3.24,20.88-4,22.62-25.65,34.64-46.83,25.84-1-.41-2-.68-3-1l0,0-1-.86,0,0-1.71-1.17c-11.68-9.85-16.69-22.08-12.35-37.09,6.79-23.46,36.39-31.49,54.32-14.87,2.33,2.17,4.26,4.77,6.38,7.17l1,1Z" fill="#353535"/><path d="M164.08,107.62c.38,12.49.38,12.49-12,12.49-17.55,0-35.1,0-52.64,0a9.26,9.26,0,0,0-6.59,2.43c-6.63,5.76-13.41,11.35-20.14,17-1.28-1.2-.82-2.33-.82-3.31,0-25.18,0-50.36-.12-75.54,0-3.61,1-4.61,4.55-4.53,12.2.27,24.41.19,36.61.24q0,6.84,0,13.66l-.93.54c-5.92-.08-11.85-.08-17.77-.26-3.1-.09-2.78,1.92-2.88,3.94-.11,2.19.39,3.37,3,3.27,5.92-.21,11.85-.17,17.78-.24l.84.42c0,2,0,3.94,0,5.91l-.85.31c-5.93-.06-11.85,0-17.77-.23-3-.13-3,1.5-3,3.67s0,3.85,3,3.71c5.91-.25,11.84-.17,17.76-.23l.87.34c0,1.82,0,3.64,0,5.46l-.93.58c-5.93-.07-11.86-.06-17.78-.24-3.12-.1-2.8,1.89-2.9,3.92-.1,2.25.5,3.34,3,3.25,5.92-.2,11.86-.18,17.79-.25l.81.45c-.14,3.57,2.43,3.19,4.7,3.2Z" fill="#ed592a"/><path d="M164.08,107.62l-46.43-.08c-2.27,0-4.84.37-4.7-3.2,9.42-.09,18.83-.16,28.24-.27,8-.09,6.65.89,6.84-6.72l16.26.07Z" fill="#c13d1e"/><path d="M112.91,70q0-6.82,0-13.66l11.92-.21q0,7.07,0,14.12Z" fill="#c13d1e"/><path d="M102,162.54l-1.3-1.82A2.13,2.13,0,0,1,102,162.54Z" fill="#00a184"/><path d="M198.3,206.33,200,207.5Z" fill="#01a084"/><path d="M55.29,208.26a1.75,1.75,0,0,1,1.84,1A2,2,0,0,1,55.29,208.26Z" fill="#00a184"/><path d="M247.67,162.58l-1-1Z" fill="#01a084"/><path d="M54.3,207.3l1,1Z" fill="#00a184"/><path d="M200,207.48l1,.86Z" fill="#01a084"/><path d="M148,97.35c-.19,7.61,1.13,6.63-6.84,6.72-9.41.11-18.82.18-28.24.27l-.81-.45c0-2.22-.09-4.45-.14-6.68l.94-.58a54.64,54.64,0,0,0,12.06,0C132.66,97.49,140.38,96.22,148,97.35Z" fill="#cebbbc"/><path d="M142.77,57.92c3.14.42,5.08,2.09,5.08,5.35,0,3.52-2.15,5.41-5.49,5.35a4.92,4.92,0,0,1-5.15-5.3C137.23,60,139.27,58.07,142.77,57.92Z" fill="#fdf5f5"/><path d="M174.53,62.89c-.25,3.84-2.21,5.79-5.57,5.73a4.91,4.91,0,0,1-5.16-5.28c0-3.33,2-5.43,5.52-5.34C172.61,58.09,174.12,60.16,174.53,62.89Z" fill="#fdf5f5"/><path d="M201.11,62.91c-.24,3.76-2.15,5.66-5.24,5.73-3.39.07-5.56-2.06-5.48-5.44S192.5,57.83,196,58C199.33,58.17,200.78,60.28,201.11,62.91Z" fill="#fdf5f5"/><path d="M112.91,70l11.92.25q0,3.57.08,7.15l-12,.27-.84-.42L112,70.56Z" fill="#cebbbc"/><path d="M112.1,83.91l.85-.31,11.91.18V91L113,91.17l-.87-.34C112.09,88.53,112.09,86.22,112.1,83.91Z" fill="#ccc5c5"/><path d="M124.86,83.78,113,83.6c0-2,0-3.94,0-5.91l12-.27C124.89,79.54,124.88,81.66,124.86,83.78Z" fill="#c13d1e"/><path d="M113,91.17,124.86,91c0,1.89.09,3.78.14,5.67a54.64,54.64,0,0,1-12.06,0C112.94,94.81,113,93,113,91.17Z" fill="#c13d1e"/><path d="M112.1,83.91c0,2.31,0,4.62,0,6.92-5.92.06-11.85,0-17.76.23-3.06.14-3-1.57-3-3.71s0-3.8,3-3.67C100.25,83.94,106.17,83.85,112.1,83.91Z" fill="#fdf5f5"/><path d="M112,97.21c0,2.23.09,4.46.14,6.68-5.93.07-11.87,0-17.79.25-2.53.09-3.13-1-3-3.25.1-2-.22-4,2.9-3.92C100.14,97.15,106.07,97.14,112,97.21Z" fill="#fefafa"/><path d="M112,70.56l.09,6.71c-5.93.07-11.86,0-17.78.24-2.57.1-3.07-1.08-3-3.27.1-2-.22-4,2.88-3.94C100.13,70.48,106.06,70.48,112,70.56Z" fill="#fefafa"/></svg>