<svg id="Layer_1" data-name="Layer 1" xmlns="http://www.w3.org/2000/svg" viewBox="0 0 1024 426"><title>form images</title><circle cx="511.64" cy="154.82" r="81.24" fill="#e55626"/><path d="M524.82,135.6v5.24h5.24l.88-6.11S524.82,133.85,524.82,135.6Z" fill="#fff"/><path d="M498.61,135.6v5.24h-5.24v-6.11S498.61,133,498.61,135.6Z" fill="#fff"/><path d="M503.86,118.13l.87-5.24h13.1l1.75,6.11,6.12.88-.88-7.87-2.62-5.24-7-1.74-9.61.87c-.87,0-6.11,2.62-6.11,2.62l-.88,3.49-.87,6.12,2.62,1.75A2.72,2.72,0,0,0,503.86,118.13Z" fill="#fff"/><polygon points="555.4 188.01 552.78 188.89 552.78 192.38 553.65 196.75 558.02 194.13 555.4 188.01" fill="#fff"/><polygon points="482.89 154.82 469.79 158.31 473.28 161.81 505.6 169.67 510.85 171.42 541.42 164.43 555.4 159.19 545.79 155.69 540.55 153.94 536.18 156.57 495.12 156.57 484.64 155.69 482.89 154.82" fill="#fff"/><polygon points="539.67 119.88 540.55 129.49 537.05 133.85 520.45 135.6 516.09 133.85 516.09 127.74 506.48 127.74 506.48 133.85 498.62 134.73 484.64 132.98 483.76 125.12 484.64 119.88 539.67 119.88" fill="#fff"/><path d="M478.2,191v-3.43H486l.14-3.26H473.44V181H486v-3.1h-17.3v-3.15H486.1c0-2.63.12-4.92-.09-7.18-.05-.58-1.1-1.33-1.82-1.53-5.74-1.58-11.52-3.05-17.28-4.55a3.39,3.39,0,0,1-1.22-.34c-.69-.5-1.3-1.13-1.94-1.7.64-.58,1.19-1.46,1.93-1.67,4.33-1.25,8.71-2.33,13.07-3.47.9-.23,1.79-.48,2.59-.7,0-10.46,0-20.76,0-31.06,0-3.91,0-3.91,4-3.92h10.37c0-1.16,0-2.15,0-3.13a11.1,11.1,0,0,1,10.93-11.22c3.32-.15,6.65-.14,10,0a11.12,11.12,0,0,1,11,11.19c0,.92,0,1.84,0,3.1h31.91v3.27h-17.3V125h12.42l.17,3.13H542.21l-.2,3.18h7.9l.18,3.3h-8v19.06l14.3,3.71a7.06,7.06,0,0,1,1.94.58c.52.32,1.14.95,1.15,1.46a1.84,1.84,0,0,1-1.07,1.46c-2.21.34-2,1.86-2,3.44,0,5.45.15,10.91,0,16.36a14.5,14.5,0,0,0,2.18,9,4.32,4.32,0,0,1,0,5.19c-.86,1.36-1.43,2.91-2.25,4.29s-2.1,1.49-3,0a49.16,49.16,0,0,1-3-6.18,2.87,2.87,0,0,1,.37-2.35c2.41-3.51,2.66-7.39,2.54-11.47-.15-5.51,0-11,0-16.78-5.11,1.31-9.9,2.46-14.63,3.83-.61.17-1.25,1.46-1.26,2.24-.1,6.3-.16,12.61,0,18.92,0,2.23-.8,3.15-2.81,3.78-7,2.21-13.89,4.64-20.86,6.84a7.27,7.27,0,0,1-3.9,0c-3.19-.89-6.3-2.1-9.46-3.09C493.2,192.64,486.34,189.15,478.2,191Zm55.91-23.66c-2.27.56-4.07,1-5.87,1.44-5.52,1.39-11,3.9-16.56,3.9s-11-2.51-16.55-3.9c-1.86-.47-3.73-.88-5.86-1.39,0,6.66-.06,13,.08,19.24,0,.64,1.11,1.57,1.89,1.83,6.26,2.18,12.56,4.26,18.87,6.29a4.74,4.74,0,0,0,2.68.16q9.94-3.19,19.83-6.62a2.4,2.4,0,0,0,1.43-1.66C534.15,180.33,534.11,174,534.11,167.33Zm-32.77-30.92c-2.16,2,1.32,5.81-3.12,6.14-2.18.16-4.83.54-6.43-.49-1.16-.74-.93-3.64-1.31-5.49l-6-1.42c0,4.84,0,9.69,0,14.55,0,4,1.7,5.67,5.8,5.68,5.36,0,10.73,0,16.1,0q13.55,0,27.09,0c2.74,0,5-1.38,5.12-3.64.23-5.54.08-11.1.08-16.58l-5.88,1.44c-1.36,1.91,1.67,5.75-2.84,6-2.17.1-4.76.4-6.41-.6-1-.64-.71-3.53-1-5.54Zm37.49-14.33H484.54c0,2.13-.05,4.07,0,6a4.65,4.65,0,0,0,4.78,4.9c2,.11,4.08,0,6.13,0h9.83c0-1.5,0-2.6,0-3.69-.1-1.92.64-2.82,2.68-2.73,2.56.12,5.12.09,7.67,0,1.78-.06,2.5.74,2.46,2.43,0,1.24,0,2.49,0,3.92,5.75,0,11.1.11,16.45,0a4.41,4.41,0,0,0,4.28-4.55C538.9,126.35,538.83,124.32,538.83,122.08ZM473,159.13v.54c.72.22,1.44.47,2.17.66,11.29,2.93,22.57,5.89,33.88,8.7a11.42,11.42,0,0,0,5.2,0c6.22-1.44,12.38-3.12,18.56-4.72l17.66-4.61a62.38,62.38,0,0,0-10.17-3.22c-.39-.1-.89.34-1.36.47-2.1.56-4.19,1.56-6.29,1.59-13.56.14-27.11.06-40.67.08-2.75,0-5.47,0-7.78-1.85a1.82,1.82,0,0,0-1.4-.21C479.49,157.39,476.23,158.27,473,159.13Zm26.1-40.7H502c0-.77.07-1.35.09-1.94.12-4.22,1.71-5.76,6-5.79,1.87,0,3.75,0,5.62,0,6.45,0,7.38.87,7.71,7.23a2.07,2.07,0,0,0,.26.53h2.59c.93-7.36-2.22-11-9.44-11-2,0-4.09,0-6.14,0C501.4,107.48,498.37,110.88,499.07,118.43Zm18.78,0c.53-4.31.29-4.59-3.79-4.59h-4.84c-4,0-4.32.39-3.63,4.59Zm-9.21,14.41h6V130h-6Zm-14.41,6.41h2.92v-2.8h-2.92Zm31.92,0h2.91v-2.84h-2.91Zm28.08,55.2,1.26,0v-4.58h-1.26Z"/><path d="M522.7,152.12h-2.83v-2.9h2.83Z"/><path d="M529.25,152.13h-3.08l-.13-2.91,3.05-.15Z"/><path d="M532.51,149.18h3v2.88h-2.87Z"/><circle cx="423.96" cy="95.55" r="5.9" fill="#099" stroke="#000" stroke-miterlimit="10" stroke-width="3"/><circle cx="439.21" cy="238.63" r="5.9" fill="#099" stroke="#000" stroke-miterlimit="10" stroke-width="3"/><circle cx="583.58" cy="237.7" r="5.9" fill="#099" stroke="#000" stroke-miterlimit="10" stroke-width="3"/><circle cx="596.51" cy="92.3" r="5.9" fill="#099" stroke="#000" stroke-miterlimit="10" stroke-width="3"/><path d="M367.2,88.22a2.72,2.72,0,0,1,.89,2.19,2.94,2.94,0,0,1-.89,2.29,3.55,3.55,0,0,1-2.51.82h-1.88v2.53h-1.65V87.44h3.53A3.68,3.68,0,0,1,367.2,88.22ZM366,91.66a1.43,1.43,0,0,0,.5-1.2,1.38,1.38,0,0,0-.5-1.18,2.2,2.2,0,0,0-1.43-.4h-1.79v3.19h1.79A2.2,2.2,0,0,0,366,91.66Z" fill="#606060"/><path d="M371.65,89.76a2.75,2.75,0,0,1,1.34-.35V91a2.2,2.2,0,0,0-1.63.47,1.82,1.82,0,0,0-.61,1.45v3.17h-1.6V89.47h1.6v1.27A2.38,2.38,0,0,1,371.65,89.76Z" fill="#606060"/><path d="M377.51,96.05v-.8a2.05,2.05,0,0,1-.88.65,3.28,3.28,0,0,1-1.25.22,2.6,2.6,0,0,1-1.21-.26,2,2,0,0,1-1.09-1.78,1.74,1.74,0,0,1,.66-1.44,2.92,2.92,0,0,1,1.84-.54h1.92v-.17a1.14,1.14,0,0,0-.38-.9,1.73,1.73,0,0,0-1.11-.31,3.78,3.78,0,0,0-1.95.61l-.58-1.11a7.51,7.51,0,0,1,1.41-.62,5.38,5.38,0,0,1,1.48-.19,2.92,2.92,0,0,1,2,.62,2.2,2.2,0,0,1,.72,1.72v4.3Zm-.57-1.48a1.15,1.15,0,0,0,.56-.81v-.59h-1.66a1.86,1.86,0,0,0-.94.19.69.69,0,0,0-.3.62.8.8,0,0,0,.31.67,1.36,1.36,0,0,0,.85.24A2,2,0,0,0,376.94,94.57Z" fill="#606060"/><path d="M383.44,90.83a1.68,1.68,0,0,0-1.3.54,2,2,0,0,0-.5,1.4,2,2,0,0,0,.5,1.42,1.68,1.68,0,0,0,1.3.54,2.09,2.09,0,0,0,1.77-.77l1,.82a2.83,2.83,0,0,1-1.17,1,3.85,3.85,0,0,1-1.68.34,3.52,3.52,0,0,1-1.73-.42,2.93,2.93,0,0,1-1.17-1.17,3.5,3.5,0,0,1-.42-1.74,3.61,3.61,0,0,1,.42-1.76,3,3,0,0,1,1.18-1.18,3.56,3.56,0,0,1,1.74-.42,3.92,3.92,0,0,1,1.61.32,2.91,2.91,0,0,1,1.15.89l-1,.92A2.25,2.25,0,0,0,383.44,90.83Z" fill="#606060"/><path d="M391.17,95.64a3.15,3.15,0,0,1-1.65.48,2,2,0,0,1-1.39-.49,1.93,1.93,0,0,1-.54-1.47V90.91h-.92V89.74h.93v-1.8h1.59v1.8h1.88v1.17h-1.88v3a.94.94,0,0,0,.17.65.65.65,0,0,0,.52.19,2.31,2.31,0,0,0,.93-.27Z" fill="#606060"/><path d="M393.62,86.92a1,1,0,0,1,.25.68.94.94,0,0,1-.25.68.88.88,0,0,1-.66.27.86.86,0,0,1-.65-.27.94.94,0,0,1-.26-.68,1,1,0,0,1,.26-.68.86.86,0,0,1,.65-.27A.88.88,0,0,1,393.62,86.92Zm-1.44,2.55h1.59v6.58h-1.59Z" fill="#606060"/><path d="M398.31,90.83a1.7,1.7,0,0,0-1.3.54,2,2,0,0,0-.49,1.4,2,2,0,0,0,.49,1.42,1.7,1.7,0,0,0,1.3.54,2.06,2.06,0,0,0,1.77-.77l1,.82a3,3,0,0,1-1.17,1,3.89,3.89,0,0,1-1.69.34,3.48,3.48,0,0,1-1.72-.42,2.89,2.89,0,0,1-1.18-1.17,3.9,3.9,0,0,1,0-3.5,3,3,0,0,1,1.18-1.18,3.5,3.5,0,0,1,1.74-.42,3.87,3.87,0,0,1,1.6.32,2.84,2.84,0,0,1,1.15.89l-1,.92A2.22,2.22,0,0,0,398.31,90.83Z" fill="#606060"/><path d="M407.07,90.32a3.68,3.68,0,0,1,.79,2.52c0,.21,0,.37,0,.48H403a1.9,1.9,0,0,0,.66,1.1,1.88,1.88,0,0,0,1.23.4,2.45,2.45,0,0,0,1-.19,2.38,2.38,0,0,0,.81-.55l.86.9a3.42,3.42,0,0,1-1.2.84,4.18,4.18,0,0,1-1.57.29,3.69,3.69,0,0,1-1.78-.42,2.89,2.89,0,0,1-1.18-1.17,3.5,3.5,0,0,1-.42-1.74,3.57,3.57,0,0,1,.42-1.75A3.07,3.07,0,0,1,403,89.85a3.55,3.55,0,0,1,1.73-.43A3,3,0,0,1,407.07,90.32Zm-.67,1.93a1.6,1.6,0,0,0-.48-1.15,1.65,1.65,0,0,0-1.2-.43,1.72,1.72,0,0,0-1.18.42,1.87,1.87,0,0,0-.58,1.16Z" fill="#606060"/><path d="M616.56,89a4,4,0,0,0-1.22-.22,1.7,1.7,0,0,0-.94.22.69.69,0,0,0-.34.62.81.81,0,0,0,.24.59,1.83,1.83,0,0,0,.6.39,7.35,7.35,0,0,0,1,.34,10.67,10.67,0,0,1,1.43.52,2.58,2.58,0,0,1,.95.76,2.07,2.07,0,0,1,.4,1.33,2.24,2.24,0,0,1-.43,1.37,2.61,2.61,0,0,1-1.16.89,4.38,4.38,0,0,1-1.71.31,5.34,5.34,0,0,1-2-.38,5.63,5.63,0,0,1-1.68-1l.69-1.4a5.22,5.22,0,0,0,1.47.95,3.85,3.85,0,0,0,1.51.34,2,2,0,0,0,1.08-.26.84.84,0,0,0,.39-.72.82.82,0,0,0-.24-.61,1.78,1.78,0,0,0-.61-.39,9.73,9.73,0,0,0-1-.33,12,12,0,0,1-1.43-.5,2.64,2.64,0,0,1-1-.75,2.06,2.06,0,0,1-.39-1.31,2.19,2.19,0,0,1,.4-1.31,2.55,2.55,0,0,1,1.13-.86,4.25,4.25,0,0,1,1.69-.31,5.57,5.57,0,0,1,1.66.25,5.35,5.35,0,0,1,1.45.66l-.66,1.44A6.4,6.4,0,0,0,616.56,89Z" fill="#606060"/><path d="M626,89.47v6.58h-1.61V94.83a2.34,2.34,0,0,1-2.28,1.28,2.3,2.3,0,0,1-1.75-.67,2.63,2.63,0,0,1-.64-1.85V89.47h1.61v3.65a1.54,1.54,0,0,0,.38,1.09,1.36,1.36,0,0,0,1,.39,1.52,1.52,0,0,0,1.2-.54,2,2,0,0,0,.44-1.34V89.47Z" fill="#606060"/><path d="M630.54,90.83a1.67,1.67,0,0,0-1.29.54,1.94,1.94,0,0,0-.5,1.4,2,2,0,0,0,.5,1.42,1.67,1.67,0,0,0,1.29.54,2.06,2.06,0,0,0,1.77-.77l1,.82a3,3,0,0,1-1.17,1,3.85,3.85,0,0,1-1.68.34,3.49,3.49,0,0,1-1.73-.42,2.87,2.87,0,0,1-1.17-1.17,3.5,3.5,0,0,1-.42-1.74,3.61,3.61,0,0,1,.42-1.76,3,3,0,0,1,1.18-1.18,3.56,3.56,0,0,1,1.74-.42,4,4,0,0,1,1.61.32,2.91,2.91,0,0,1,1.15.89l-1,.92A2.22,2.22,0,0,0,630.54,90.83Z" fill="#606060"/><path d="M637,90.83a1.68,1.68,0,0,0-1.3.54,2,2,0,0,0-.5,1.4,2,2,0,0,0,.5,1.42,1.68,1.68,0,0,0,1.3.54,2.08,2.08,0,0,0,1.77-.77l1,.82a2.87,2.87,0,0,1-1.16,1,3.92,3.92,0,0,1-1.69.34,3.52,3.52,0,0,1-1.73-.42A2.93,2.93,0,0,1,634,94.52a3.82,3.82,0,0,1,0-3.5,2.91,2.91,0,0,1,1.18-1.18,3.5,3.5,0,0,1,1.74-.42,3.91,3.91,0,0,1,1.6.32,2.91,2.91,0,0,1,1.15.89l-1,.92A2.23,2.23,0,0,0,637,90.83Z" fill="#606060"/><path d="M645.76,90.32a3.68,3.68,0,0,1,.79,2.52c0,.21,0,.37,0,.48h-4.86a1.9,1.9,0,0,0,.66,1.1,1.87,1.87,0,0,0,1.22.4,2.47,2.47,0,0,0,1-.19,2.34,2.34,0,0,0,.8-.55l.86.9a3.25,3.25,0,0,1-1.2.84,4.13,4.13,0,0,1-1.56.29,3.63,3.63,0,0,1-1.78-.42,2.92,2.92,0,0,1-1.19-1.17,3.61,3.61,0,0,1-.41-1.74,3.57,3.57,0,0,1,.42-1.75,3,3,0,0,1,1.19-1.18,3.49,3.49,0,0,1,1.73-.43A3,3,0,0,1,645.76,90.32Zm-.67,1.93a1.6,1.6,0,0,0-.48-1.15,1.88,1.88,0,0,0-2.38,0,1.88,1.88,0,0,0-.59,1.16Z" fill="#606060"/><path d="M650.59,90.81a3.43,3.43,0,0,0-.94-.16,1.33,1.33,0,0,0-.65.14.48.48,0,0,0-.24.44.51.51,0,0,0,.3.47,4.66,4.66,0,0,0,1,.35,8.63,8.63,0,0,1,1.13.42,2.1,2.1,0,0,1,.77.6,1.66,1.66,0,0,1,.32,1.05,1.69,1.69,0,0,1-.74,1.48,3.18,3.18,0,0,1-1.85.51,4.7,4.7,0,0,1-1.49-.24,3.66,3.66,0,0,1-1.23-.68l.55-1.12a3.53,3.53,0,0,0,1.06.6,3.62,3.62,0,0,0,1.17.21,1.47,1.47,0,0,0,.71-.15.51.51,0,0,0,.26-.46.56.56,0,0,0-.31-.52,5.58,5.58,0,0,0-1-.38A7.11,7.11,0,0,1,648.3,93a2,2,0,0,1-.73-.57,1.63,1.63,0,0,1-.31-1,1.71,1.71,0,0,1,.71-1.48,3,3,0,0,1,1.78-.51,4.65,4.65,0,0,1,1.28.18,4.34,4.34,0,0,1,1.13.52l-.58,1.16A4.88,4.88,0,0,0,650.59,90.81Z" fill="#606060"/><path d="M656.27,90.81a3.43,3.43,0,0,0-.94-.16,1.33,1.33,0,0,0-.65.14.48.48,0,0,0-.24.44.51.51,0,0,0,.3.47,4.66,4.66,0,0,0,1,.35,9.21,9.21,0,0,1,1.13.42,2.1,2.1,0,0,1,.77.6,1.66,1.66,0,0,1,.32,1.05,1.69,1.69,0,0,1-.74,1.48,3.18,3.18,0,0,1-1.85.51,4.7,4.7,0,0,1-1.49-.24,3.66,3.66,0,0,1-1.23-.68l.55-1.12a3.53,3.53,0,0,0,1.06.6,3.62,3.62,0,0,0,1.17.21,1.47,1.47,0,0,0,.71-.15.51.51,0,0,0,.26-.46.56.56,0,0,0-.31-.52,5.58,5.58,0,0,0-1-.38A7.11,7.11,0,0,1,654,93a1.91,1.91,0,0,1-.73-.57,1.57,1.57,0,0,1-.31-1,1.71,1.71,0,0,1,.71-1.48,3,3,0,0,1,1.78-.51,4.65,4.65,0,0,1,1.28.18,4.13,4.13,0,0,1,1.12.52l-.57,1.16A4.88,4.88,0,0,0,656.27,90.81Z" fill="#606060"/><path d="M598.68,232.76H605v1.44h-4.66v2.13h4.18v1.43h-4.18v2.17h4.8v1.44h-6.45Z" fill="#606060"/><path d="M605.8,234.79h1.84l1.37,2.14,1.4-2.14h1.76L610.08,238l2.23,3.37h-1.84l-1.46-2.3-1.59,2.3h-1.78l2.3-3.37Z" fill="#606060"/><path d="M618.74,235.16a2.92,2.92,0,0,1,1.09,1.19,4.15,4.15,0,0,1,0,3.49,2.91,2.91,0,0,1-1.08,1.17,3.12,3.12,0,0,1-1.63.42,2.86,2.86,0,0,1-1.3-.29,2.34,2.34,0,0,1-.93-.84v3.45h-1.6v-9h1.6v1.08a2.29,2.29,0,0,1,.91-.84,2.83,2.83,0,0,1,1.3-.29A3.14,3.14,0,0,1,618.74,235.16Zm-.66,4.33a2.23,2.23,0,0,0,0-2.86,1.76,1.76,0,0,0-1.33-.55,1.79,1.79,0,0,0-1.34.55,2.27,2.27,0,0,0,0,2.87,1.88,1.88,0,0,0,2.67,0Z" fill="#606060"/><path d="M626.47,235.64a3.68,3.68,0,0,1,.79,2.52c0,.21,0,.37,0,.48h-4.86a2,2,0,0,0,.66,1.1,1.93,1.93,0,0,0,1.23.4,2.65,2.65,0,0,0,1-.19,2.24,2.24,0,0,0,.8-.55l.87.9a3.27,3.27,0,0,1-1.2.83,4,4,0,0,1-1.57.3,3.69,3.69,0,0,1-1.78-.42,3,3,0,0,1-1.18-1.17,3.84,3.84,0,0,1,0-3.49,3.09,3.09,0,0,1,1.19-1.19,3.54,3.54,0,0,1,1.73-.42A3,3,0,0,1,626.47,235.64Zm-.67,1.93a1.63,1.63,0,0,0-.48-1.16,1.86,1.86,0,0,0-2.38,0,1.87,1.87,0,0,0-.58,1.16Z" fill="#606060"/><path d="M630.9,235.08a2.61,2.61,0,0,1,1.33-.35v1.55a2.17,2.17,0,0,0-1.63.47,1.82,1.82,0,0,0-.61,1.44v3.18h-1.6v-6.58H630v1.27A2.28,2.28,0,0,1,630.9,235.08Z" fill="#606060"/><path d="M634.54,232.23a1,1,0,0,1,0,1.37.92.92,0,0,1-1.3,0,1,1,0,0,1,0-1.37.92.92,0,0,1,1.3,0Zm-1.44,2.56h1.6v6.58h-1.6Z" fill="#606060"/><path d="M641.54,235.64a3.68,3.68,0,0,1,.79,2.52c0,.21,0,.37,0,.48h-4.85a1.9,1.9,0,0,0,.65,1.1,2,2,0,0,0,1.23.4,2.61,2.61,0,0,0,1-.19,2.38,2.38,0,0,0,.81-.55l.86.9a3.27,3.27,0,0,1-1.2.83,4,4,0,0,1-1.57.3,3.69,3.69,0,0,1-1.78-.42,3,3,0,0,1-1.18-1.17,3.56,3.56,0,0,1-.42-1.74,3.47,3.47,0,0,1,.43-1.75,3,3,0,0,1,1.18-1.19,3.56,3.56,0,0,1,1.74-.42A3,3,0,0,1,641.54,235.64Zm-.67,1.93a1.59,1.59,0,0,0-.48-1.16,1.86,1.86,0,0,0-2.38,0,1.87,1.87,0,0,0-.58,1.16Z" fill="#606060"/><path d="M649.21,235.41a2.58,2.58,0,0,1,.65,1.85v4.11h-1.61v-3.64a1.46,1.46,0,0,0-.4-1.09,1.4,1.4,0,0,0-1.07-.4,1.64,1.64,0,0,0-1.26.54,2,2,0,0,0-.46,1.35v3.24h-1.59v-6.58h1.59V236a2.47,2.47,0,0,1,2.36-1.29A2.38,2.38,0,0,1,649.21,235.41Z" fill="#606060"/><path d="M654.21,236.14a1.69,1.69,0,0,0-1.3.54,2,2,0,0,0-.5,1.4,2,2,0,0,0,.5,1.43,1.69,1.69,0,0,0,1.3.54,2.09,2.09,0,0,0,1.77-.77l1,.82a2.94,2.94,0,0,1-1.17,1,3.92,3.92,0,0,1-1.69.35,3.48,3.48,0,0,1-1.72-.42,3,3,0,0,1-1.18-1.17,3.82,3.82,0,0,1,0-3.5,2.91,2.91,0,0,1,1.18-1.18,3.5,3.5,0,0,1,1.74-.42,4,4,0,0,1,1.6.31,2.93,2.93,0,0,1,1.15.89l-1,.93A2.21,2.21,0,0,0,654.21,236.14Z" fill="#606060"/><path d="M663,235.64a3.68,3.68,0,0,1,.79,2.52c0,.21,0,.37,0,.48h-4.86a2,2,0,0,0,.66,1.1,1.92,1.92,0,0,0,1.22.4,2.66,2.66,0,0,0,1-.19,2.24,2.24,0,0,0,.8-.55l.87.9a3.27,3.27,0,0,1-1.2.83,4,4,0,0,1-1.57.3,3.66,3.66,0,0,1-1.78-.42,3,3,0,0,1-1.18-1.17,3.84,3.84,0,0,1,0-3.49,3,3,0,0,1,1.19-1.19,3.52,3.52,0,0,1,1.73-.42A3,3,0,0,1,663,235.64Zm-.67,1.93a1.63,1.63,0,0,0-.48-1.16,1.72,1.72,0,0,0-1.21-.43,1.68,1.68,0,0,0-1.17.43,1.87,1.87,0,0,0-.58,1.16Z" fill="#606060"/><path d="M369.29,235.2h1.65v7.12h3.71v1.49h-5.36Z" fill="#606060"/><path d="M380.75,238.08a3.73,3.73,0,0,1,.79,2.52c0,.21,0,.37,0,.48h-4.86a2,2,0,0,0,.66,1.1,1.92,1.92,0,0,0,1.22.4,2.66,2.66,0,0,0,1-.19,2.44,2.44,0,0,0,.8-.55l.86.9a3.19,3.19,0,0,1-1.2.83,3.94,3.94,0,0,1-1.56.3,3.63,3.63,0,0,1-1.78-.42,3,3,0,0,1-1.19-1.17,3.66,3.66,0,0,1-.41-1.74,3.57,3.57,0,0,1,.42-1.75,3,3,0,0,1,1.19-1.19,3.49,3.49,0,0,1,1.73-.42A3,3,0,0,1,380.75,238.08Zm-.67,1.93a1.63,1.63,0,0,0-.48-1.16,1.74,1.74,0,0,0-1.21-.43,1.64,1.64,0,0,0-1.17.43,1.88,1.88,0,0,0-.59,1.16Z" fill="#606060"/><path d="M386.55,243.81V243a2.23,2.23,0,0,1-.88.65,3.19,3.19,0,0,1-1.24.22,2.73,2.73,0,0,1-1.21-.26,1.94,1.94,0,0,1-1.09-1.78,1.77,1.77,0,0,1,.65-1.45,3,3,0,0,1,1.84-.53h1.92v-.17a1.11,1.11,0,0,0-.38-.9,1.69,1.69,0,0,0-1.11-.32,3.8,3.8,0,0,0-1.95.62l-.58-1.11a7.42,7.42,0,0,1,1.41-.62,5.07,5.07,0,0,1,1.48-.19,2.94,2.94,0,0,1,2,.61,2.21,2.21,0,0,1,.72,1.72v4.31Zm-.56-1.49a1.1,1.1,0,0,0,.55-.8v-.59h-1.66a1.79,1.79,0,0,0-.94.19.68.68,0,0,0-.3.62.81.81,0,0,0,.31.66,1.33,1.33,0,0,0,.86.25A2.07,2.07,0,0,0,386,242.32Z" fill="#606060"/><path d="M392.18,237.52a2.61,2.61,0,0,1,1.33-.35v1.55a2.17,2.17,0,0,0-1.63.47,1.84,1.84,0,0,0-.6,1.44v3.18h-1.6v-6.58h1.6v1.27A2.32,2.32,0,0,1,392.18,237.52Z" fill="#606060"/><path d="M400.13,237.85a2.58,2.58,0,0,1,.65,1.85v4.11h-1.61v-3.64a1.46,1.46,0,0,0-.4-1.09,1.39,1.39,0,0,0-1.06-.4,1.65,1.65,0,0,0-1.27.54,2,2,0,0,0-.46,1.35v3.24h-1.59v-6.58H396v1.23a2.47,2.47,0,0,1,2.36-1.29A2.34,2.34,0,0,1,400.13,237.85Z" fill="#606060"/><path d="M403.77,234.67a1.06,1.06,0,0,1,0,1.37.88.88,0,0,1-.66.27.86.86,0,0,1-.65-.27,1,1,0,0,1,0-1.37.86.86,0,0,1,.65-.27A.88.88,0,0,1,403.77,234.67Zm-1.44,2.56h1.6v6.58h-1.6Z" fill="#606060"/><path d="M411.4,237.85a2.58,2.58,0,0,1,.65,1.85v4.11h-1.61v-3.64a1.5,1.5,0,0,0-.39-1.09,1.43,1.43,0,0,0-1.07-.4,1.63,1.63,0,0,0-1.26.54,2,2,0,0,0-.46,1.35v3.24h-1.6v-6.58h1.6v1.23a2.46,2.46,0,0,1,2.36-1.29A2.34,2.34,0,0,1,411.4,237.85Z" fill="#606060"/><path d="M419.61,237.23v6a3.12,3.12,0,0,1-.42,1.63,2.87,2.87,0,0,1-1.21,1.07,4.12,4.12,0,0,1-1.81.37,4.84,4.84,0,0,1-2.78-.87l.64-1.16a3.38,3.38,0,0,0,2.05.69,2.09,2.09,0,0,0,1.41-.45,1.57,1.57,0,0,0,.52-1.24v-.78a2.13,2.13,0,0,1-.86.77,2.65,2.65,0,0,1-1.23.26,2.85,2.85,0,0,1-1.52-.4,2.69,2.69,0,0,1-1-1.11,3.53,3.53,0,0,1-.37-1.66,3.44,3.44,0,0,1,.37-1.63,2.73,2.73,0,0,1,1-1.1,2.94,2.94,0,0,1,1.52-.39,2.71,2.71,0,0,1,1.23.27,2.25,2.25,0,0,1,.86.76v-1Zm-2.08,4.47a2.17,2.17,0,0,0,0-2.72,1.65,1.65,0,0,0-1.26-.52A1.6,1.6,0,0,0,415,239a2.09,2.09,0,0,0,0,2.71,1.62,1.62,0,0,0,1.26.52A1.65,1.65,0,0,0,417.53,241.7Z" fill="#606060"/><path d="M450.09,245.69s58.58,46,123.25-1.18" fill="none" stroke="#000" stroke-miterlimit="10" stroke-width="3"/><path d="M592.41,226.93s51.65-53.66,11.23-122.75" fill="none" stroke="#000" stroke-miterlimit="10" stroke-width="3"/><path d="M416,106.75S377.26,170.36,431.75,229" fill="none" stroke="#000" stroke-miterlimit="10" stroke-width="3"/><path d="M297.43,319.63V322H276v14.66h20.57v2.32H276v17.49h-2.7V319.63Z" stroke="#000" stroke-miterlimit="10"/><path d="M307.46,319.63v36.79h-2.7V319.63Z" stroke="#000" stroke-miterlimit="10"/><path d="M317,356.42V319.63h3.47L345,351.84V319.63h2.45v36.79h-2.19l-25.85-33.75v33.75Z" stroke="#000" stroke-miterlimit="10"/><path d="M355.69,356.42V319.63h13.12q18,0,18,17.39,0,19.39-18.26,19.4Zm12.86-2.32q15.3,0,15.3-17.08,0-15.07-15.3-15.07H358.39V354.1Z" stroke="#000" stroke-miterlimit="10"/><path d="M406,356.42h-2.88l16.64-36.79H423l16.72,36.79h-3.21l-5.46-12.35H414.57l.79-2.31h14.69l-8.82-20Z" stroke="#000" stroke-miterlimit="10"/><path d="M461.59,319.63v36.79h-2.71V319.63Z" stroke="#000" stroke-miterlimit="10"/><path d="M471.1,356.42V319.63h3.47l24.57,32.21V319.63h2.44v36.79H499.4l-25.85-33.75v33.75Z" stroke="#000" stroke-miterlimit="10"/><path d="M533.61,319.63V322H521v34.47h-2.7V322H506v-2.32Z" stroke="#000" stroke-miterlimit="10"/><path d="M562.13,319.63V322H540.68v14.66h20.58v2.32H540.68V354.1h21.81v2.32H538V319.63Z" stroke="#000" stroke-miterlimit="10"/><path d="M570.08,356.42V319.63h15.18q10,0,10,8.83,0,7.64-10.83,10.83l12.42,17.13h-3.7l-12.22-17.06v-1.82q11.31-1.68,11.32-8.88,0-6.63-7.41-6.63h-12v34.39Z" stroke="#000" stroke-miterlimit="10"/><path d="M601.85,356.42V319.63h3.47l24.56,32.21V319.63h2.45v36.79h-2.19l-25.85-33.75v33.75Z" stroke="#000" stroke-miterlimit="10"/><path d="M640.3,355.13V352.3a37.9,37.9,0,0,0,12.76,2.06q11.55,0,11.55-8.75,0-6.42-7.51-6.43h-7.56q-10.27,0-10.27-9.26,0-10.55,15.05-10.54a46.2,46.2,0,0,1,12,1.54v2.57a40.07,40.07,0,0,0-12-1.8q-12.35,0-12.35,8.23,0,6.69,7.57,6.69h7.56q10.2,0,10.21,9,0,11.07-14.25,11.06A49.42,49.42,0,0,1,640.3,355.13Z" stroke="#000" stroke-miterlimit="10"/><path d="M674.25,356.42V319.63H677v17H702v-17h2.7v36.79H702V338.93H677v17.49Z" stroke="#000" stroke-miterlimit="10"/><path d="M717,319.63v36.79h-2.7V319.63Z" stroke="#000" stroke-miterlimit="10"/><path d="M726.47,356.42V319.63H741.9q10.76,0,10.75,10.11,0,10-17.2,12.68L735,340q14.67-2,14.66-10T741.46,322H729.17v34.39Z" stroke="#000" stroke-miterlimit="10"/><path d="M176.39,323.55c-4.92,1.79-4.92,1.79-4.92,6.72,0,7.13-.95,8.18-8.15,8.59a46.17,46.17,0,0,1-12.42-.5c-3.5-.75-4.71-1.8-4.22-5.22.84-5.82-1-9.44-6.93-10.72-.91-.2-1.84-.67-1.91-1.76-.08-1.28,1-1.61,2-2,5.88-2.64,11.79-5.24,17.66-7.91a3.53,3.53,0,0,1,3.15,0q8.8,4,17.64,8c2.1.95,2.7,1.67.6,3.7-1.57,1.52-1.11,4.1.05,6.08a17.45,17.45,0,0,1,2,5.14c.23,1.06.19,2.09-.9,2.65a6,6,0,0,1-5.09.11,1.93,1.93,0,0,1-1.08-2.55,13.82,13.82,0,0,1,1.37-4.17A8,8,0,0,0,176.39,323.55Zm-36.92-3L158.23,329a1.75,1.75,0,0,0,1.56,0c6.07-2.72,12.15-5.42,18.75-8.35-6.61-3-12.71-5.68-18.78-8.44-1-.48-1.76.13-2.56.48C151.49,315.21,145.78,317.75,139.47,320.55Zm8.76,5.76c0,2.6.13,4.8,0,7s.81,3,2.7,3.42a44.89,44.89,0,0,0,14.35.31c4.39-.51,4.59-.92,4.59-5.42,0-1.2-.06-2.41,0-3.6.08-1.4-.42-1.59-1.6-1-2.43,1.13-4.92,2.1-7.31,3.29a4,4,0,0,1-3.89,0C154.26,328.89,151.39,327.7,148.23,326.31Zm29.16,3.07a6.16,6.16,0,0,0-1.75,3.5c-.19.68-.81,1.66.27,2.17a3.18,3.18,0,0,0,2.94-.05c1-.56.29-1.47.12-2.22A7.89,7.89,0,0,0,177.39,329.38Z" fill="#099"/><path d="M881.41,329c4,1.52,5,4.57,4.59,8.24-.15,1.41.83,4-.79,4s-.44-2.63-.69-4.08c-.19-1.1,0-2.28-.28-3.34-.87-3.1-3.74-4.09-9.58-3.46-2.71.29-4.41,2.16-4.53,5.1-.07,1.64,0,3.29,0,4.94,0,.54-.11,1.11-.79,1.09-.22,0-.53-.39-.64-.67-1.63-4.12.49-9.74,4.43-11.82-2.67-4-2.63-7.09.1-9.51a6.18,6.18,0,0,1,8.29.09C884.16,322,884.17,325.23,881.41,329Zm.58-4.86a4.69,4.69,0,1,0-9.37-.06,4.69,4.69,0,0,0,9.37.06Z" fill="#e55626"/><path d="M861.46,322.93c-.43.89.81,2.95-.9,3-1.22,0-.53-2.06-.57-3.17-.08-1.87,0-3.93-2.09-4.59-2.29-.72-4.81-1-7,.38-1.75,1.1-1.19,3.06-1.32,4.75-.08,1,.53,2.67-.69,2.66-1.61,0-.71-1.76-.8-2.72-.24-2.49-.07-4.94,2.49-6.31.95-.51.36-.86.12-1.37-1.26-2.73-.88-5,1.14-6.48a4.6,4.6,0,0,1,5.78,0c2,1.44,2.42,3.66,1.17,6.46-.25.56-.54.81.13,1.43C861.51,319.34,861.46,319.39,861.46,322.93Zm-3.39-9.87a3.31,3.31,0,0,0-3.16-3.47,3.26,3.26,0,0,0-3.49,3.32,3.13,3.13,0,0,0,3.26,3.28C856.7,316.22,857.78,315,858.07,313.06Z" fill="#e55626"/><path d="M865.12,309.44l-2,.43c-.53.11-1.12.19-1.25-.49s.41-.87.93-1a8.85,8.85,0,0,1,8.68,2c.54.46.87,1.68,2,.69a.53.53,0,0,1,.85.27,3.29,3.29,0,0,1-.64,2.67c-.9,1.49-2,.13-2.94-.07-.75-.15-1.17-.83-.21-1.41s.07-.83-.18-1.07A7.79,7.79,0,0,0,865.12,309.44Z" fill="#e55626"/><path d="M861.38,334.42a10.14,10.14,0,0,1-5.62-1.61c-.89-.53-1.3-1.53-3-1.23-1.4.23-.22-1.87.07-2.83s1.26-.54,2-.27,2.09.35,1.59,1.18c-1.14,1.86.51,2,1.29,2.42a6.78,6.78,0,0,0,5.51.47c.6-.18,1.49-.78,1.76.15s-.8,1.15-1.51,1.34S861.72,334.36,861.38,334.42Z" fill="#e55626"/><path d="M913.73,173.63c-3.13,0-6.25.06-9.37,0-1.25,0-1.72.33-1.63,1.6s0,2.78,0,4.17c0,.58-.23,1.11-.8,1.1s-.73-.62-.73-1.17v-5.73c0-2.12,1.63-1.36,2.65-1.39,3.26-.11,3.56-.57,2-3.42-.6-1.05-1.21-2.1-1.76-3.18s-.88-2.23-2.43-1a1.5,1.5,0,0,1-1.94-.23c-1.64-2.24-4.12-4.07-3.73-7.35.22-1.8,1-3.86.41-5.36-.69-1.75-3.29-.72-4.86-1.54a29.33,29.33,0,0,1-4-2.42c-1.2-.9-.9-1.84.43-2.29,6.16-2.07,12.32-4.14,18.77-5.1a6.22,6.22,0,0,1,4.65,1.31c3.39,2.51,7.35,4.18,10.32,7.35,1,1.11,2.94.84,4.46,1,2.34.26,2.32,1.83,2,3.4s-.68,3-3,2.53c-3.15-.62-3.19-.45-3.19,2.76,0,3.82.06,7.64,0,11.46,0,1.49.24,2.37,1.95,2.07,2.05-.35,2.56.65,2.39,2.51a45.64,45.64,0,0,0,0,4.68c0,.59-.23,1.17-.77,1.16s-.77-.59-.76-1.18a29.46,29.46,0,0,1,0-3.64c.22-1.81-.59-2.15-2.2-2.09C919.63,173.71,916.68,173.63,913.73,173.63Zm-14.19-25.58a23.48,23.48,0,0,1,2.12,6.33,36.26,36.26,0,0,0,3.52,10c1.28,2.6,2,6.28,4.07,7.48,2.3,1.3,5.91.3,8.94.3a4.47,4.47,0,0,1,.52,0c1.36.18,1.81-.38,1.78-1.75-.09-3.56,0-7.12,0-10.68,0-4.79,0-4.68-4.81-5.6-2.22-.42-3.42-.28-3,2.38.09.55.23,1.3-.43,1.65s-1.27-.32-1.78-.72a20.32,20.32,0,0,1-5.55-6.8A4.52,4.52,0,0,0,899.54,148.05Zm18.63.58.26-.65c-2.94-1.91-5.85-3.86-8.83-5.7a3.5,3.5,0,0,0-2.24-.49c-4.08.77-8.13,1.67-12.2,2.52l.06.46Zm-12.71-.07c.83,1.16.9,2.61,2.54,2.88q8.46,1.37,16.9,2.8c1.06.18,1.65-.09,1.85-1.18s-.31-1.51-1.36-1.67c-3.77-.6-7.5-1.33-11.27-1.88C911.34,149.1,908.61,148.12,905.46,148.56Zm-3.76,12.58c-.6-2.54-1.33-5.65-2.07-8.76a1.11,1.11,0,0,0-.86-.87c-.42-.09-.54.18-.69.53-1.31,2.84-.22,8.5,2,10.61.35.32.66.58,1.12.41C901.87,162.82,901.74,162.24,901.7,161.14Zm-3.5-11.46c-.2-2.41-1.3-3.3-3.52-3.53a10,10,0,0,0-5.45.63C891.81,149.28,895,149.15,898.2,149.68Zm12.86,6.42c.07-2.89.07-2.89-2.51-2.63Z" fill="#e55626"/><path d="M129.56,171.74V146.42c0-.61,0-1.22,0-1.82s-.28-1.87.73-1.92.77,1.13.78,1.83c0,3.47,0,6.94,0,10.41,0,4.86-.05,9.72,0,14.58,0,.89-.9,2.62,1,2.6,1.7,0,.83-1.65.83-2.48.08-8,0-16,0-23.94,0-.52,0-1,0-1.56s-.13-1.44.68-1.45c1,0,.83.9.84,1.57,0,1.12,0,2.25,0,3.38v24.46c0,4.48-1.66,6.16-6.1,6.17h-26.8c-4.15,0-5.91-1.72-5.92-5.81,0-9.2,0-18.39,0-27.59,0-1.81.51-2.4,2.36-2.39q13.65.14,27.32,0c1.86,0,2.38.6,2.36,2.39-.08,7.63,0,15.27,0,22.9C127.67,169.19,127.51,170.72,129.56,171.74Zm-14.6,5c4.68,0,9.37,0,14,0a3.75,3.75,0,0,0,3.24-1.3c.31-.4.69-.85.46-1.4s-.74-.28-1.14-.32c-4.2-.47-5.4-1.77-5.41-6,0-7.2,0-14.4,0-21.6,0-1.69-.43-2.18-2.16-2.16q-12.36.13-24.72,0c-1.75,0-2.16.51-2.14,2.19.08,8.76,0,17.52,0,26.28,0,3.13,1.11,4.24,4.21,4.26C105.94,176.74,110.45,176.72,115,176.72Z" fill="#e55626"/><path d="M111.47,149c3.12,0,6.24,0,9.36,0,1.3,0,1.78.35,1.84,1.75.24,5.87.29,5.87-5.53,5.87-4.77,0-9.54-.06-14.3,0-1.56,0-2.09-.4-2.1-2,0-5.59-.12-5.59,5.53-5.59Zm.24,6.1c2.59,0,5.19-.11,7.78,0,2.09.13,1.6-1.24,1.61-2.35s.45-2.4-1.62-2.35q-7.78.2-15.56,0c-2.09,0-1.61,1.26-1.62,2.37s-.45,2.46,1.63,2.33C106.52,155,109.12,155.12,111.71,155.11Z" fill="#e55626"/><path d="M107.53,168.91h5.18c.51,0,1.15,0,1.18.67s-.51.83-1.06.83c-3.63,0-7.25,0-10.88,0-.54,0-1.1-.19-1-.84s.68-.66,1.19-.66C103.91,168.9,105.72,168.91,107.53,168.91Z" fill="#e55626"/><path d="M107.72,164.27h5.18c.44,0,.93.09,1,.61s-.43.87-1,.88H102c-.56,0-1.14-.16-1.15-.76s.6-.75,1.15-.75Z" fill="#e55626"/><path d="M107.51,161.14h-5.18c-.61,0-1.4.06-1.44-.72s.72-.8,1.34-.8H112.6c.61,0,1.37,0,1.29.83s-.86.68-1.46.68Z" fill="#e55626"/><path d="M119.62,159.62h1.64c.61,0,1.32,0,1.25.85-.05.62-.67.66-1.2.66a6.52,6.52,0,0,1-1.53,0c-1-.22-2.69.74-2.68-.84C117.11,159.06,118.82,159.87,119.62,159.62Z" fill="#e55626"/><path d="M119.69,164.27c.52,0,.87,0,1.21,0,.66,0,1.65-.18,1.6.79s-1,.69-1.69.72a4.51,4.51,0,0,1-1,0c-1-.18-2.69.54-2.67-.68C117.12,163.48,118.93,164.66,119.69,164.27Z" fill="#e55626"/><path d="M119.74,170.46c-.92-.29-2.61.55-2.65-.76s1.64-.51,2.53-.79a.53.53,0,0,1,.25,0c.89.28,2.58-.63,2.54.78S120.68,170.2,119.74,170.46Z" fill="#e55626"/><path d="M926.88,251.61c-1.47.54-2.5.95-3.56,1.31-2,.68-3.91.74-5.41-1.11-1.48,1.74-3.29,1.9-5.31,1.17-1.13-.41-2.26-.79-3.72-1.3,0,4.59,0,9,0,13.37a4.55,4.55,0,0,1-2,4.24,4.19,4.19,0,0,1-6.56-3.21c-.17-7.71-.32-15.45.12-23.14.12-2.12.63-3.74-.68-5.78s-.27-4.2,1.61-5.7a4.89,4.89,0,0,1,6.23.19,5,5,0,0,1,1.35,5.92c-.33.94-1.92,1.67-1.4,2.41,1.11,1.56,1.35,3.59,2.92,4.86a10.6,10.6,0,0,0,4.29,2.33,4.36,4.36,0,0,1,2.53,1.21c.25.28.52.89.93.28,1-1.49,2.71-1.45,4.13-1.94,3.24-1.11,4.34-4,5.9-6.57.53-.86-.38-1-.67-1.42-1.74-2.48-1.56-5.18.51-7a5.05,5.05,0,0,1,6.85.16,5,5,0,0,1,.12,7c-.64.73-1.09,1.15-.26,2.06a4.5,4.5,0,0,1,.8,3.2c0,6.85,0,13.7,0,20.56,0,3.27-1.78,5.33-4.44,5.28s-4.26-2.09-4.27-5.42C926.87,260.34,926.88,256.11,926.88,251.61Zm7.2,2.63c0-3.55,0-7.11,0-10.67a2.78,2.78,0,0,0-2.35-3,2.46,2.46,0,0,0-3,1.52c-1.35,3.84-4.21,5.77-8,6.66-1,.24-1.58.84-1.38,1.84.24,1.18,1.15,1.41,2.22,1.17a12.46,12.46,0,0,0,4.56-1.79c.53-.37,1-1.24,1.74-.85s.49,1.39.5,2.13c0,4.33.05,8.67,0,13,0,2.1.26,3.93,2.79,4.17,1.91.18,2.9-1.38,2.91-4.3C934.09,260.83,934.08,257.54,934.08,254.24Zm-32.32.31c0,3.3,0,6.59,0,9.89,0,2.73,1,4.21,2.89,4,2.35-.24,2.8-1.91,2.78-3.94,0-4.51,0-9,0-13.52,0-.64-.34-1.48.48-1.86s1.07.39,1.53.73a11.21,11.21,0,0,0,4.26,1.83c1.14.26,2.4.49,2.7-1.09.25-1.36-.8-1.63-1.9-1.94-3.3-.94-6-2.64-7.24-6.09a2.67,2.67,0,0,0-3.23-2,2.7,2.7,0,0,0-2.28,3C901.78,247.27,901.77,250.91,901.76,254.55Zm33.2-19a3.53,3.53,0,1,0-7.05,0,3.47,3.47,0,0,0,3.51,3.43A3.51,3.51,0,0,0,935,235.56Zm-27.07,0a3.56,3.56,0,0,0-3.36-3.6,3.49,3.49,0,1,0-.23,7A3.56,3.56,0,0,0,907.89,235.6Z" fill="#099"/><path d="M108.51,271.25c-5.72,0-11.45,0-17.18,0-2.87,0-3.76-.93-3.77-3.84q0-10.12,0-20.24c0-2.87.92-3.75,3.84-3.78,3.32,0,6.65,0,10,0,.86,0,2.13.52,2.51-.44a3.44,3.44,0,0,0-.43-3.41c-2-2.66-4-5.35-5.89-8-.46-.63-1.43-1.45-.48-2.11s1.34.61,1.79,1.19c1.57,2,3,4.18,4.62,6.23.33.44.53,1.68,1.55.65.62-.63,1.44-1.12.59-2.25-1.06-1.39-1.93-2.93-2.89-4.39-.33-.52-.5-1.09.06-1.47s1,.15,1.31.6c.91,1.38,1.79,2.79,2.71,4.18,1.56,2.37,1.72,2.36,3.33-.09.91-1.39,1.79-2.8,2.71-4.18.24-.37.55-.84,1.09-.57s.57.87.24,1.4c-.93,1.48-1.78,3-2.85,4.41-.93,1.21-.18,1.82.61,2.45,1.07.84,1.2-.43,1.53-.85,1.59-2,3-4.18,4.62-6.23.42-.56.79-1.8,1.81-1,.85.67-.1,1.32-.49,1.86q-2.72,3.84-5.55,7.6a4.59,4.59,0,0,0-1,2.78c0,1.29.31,1.76,1.68,1.72,3.7-.09,7.4,0,11.09,0,2.58-.05,3.7,1.13,3.68,3.68,0,6.84,0,13.68,0,20.52,0,2.94-.81,3.67-3.89,3.68C119.79,271.27,114.15,271.25,108.51,271.25ZM89.17,257.38c0,3.32.06,6.65,0,10,0,1.65.53,2.31,2.23,2.31q17-.07,34.06,0c1.63,0,2.36-.51,2.35-2.22-.05-6.73,0-13.47,0-20.21,0-1.42-.4-2.25-2-2.23-3.79.07-7.57.05-11.36,0-1,0-1.68.19-1.46,1.34.6,3.09-1,3.63-3.59,3.3a9.44,9.44,0,0,0-2.49,0c-2.09.28-3.2-.36-2.78-2.67.29-1.6-.45-2-2-2q-5.26.15-10.52,0c-1.83-.05-2.45.64-2.4,2.42C89.25,250.73,89.18,254.06,89.17,257.38Zm22.14-17.15c-.24-1.62-1.06-2.78-2.79-2.79a2.76,2.76,0,0,0-.11,5.51C110.19,243,111,241.86,111.31,240.23Zm-5.55,3.68c0,1.5-.7,3.3.35,3.82a6.07,6.07,0,0,0,4.55.09c1.46-.62.35-2.44.66-3.94A6.12,6.12,0,0,1,105.76,243.91Z" fill="#1b1b1b"/><path d="M92.37,266c0-2.71,2.32-4.07,2.86-5.86.41-1.36-2.32-3.41-1.71-5.85a5.32,5.32,0,0,1,4.2-4.26,5.22,5.22,0,0,1,5.8,2.24,4.85,4.85,0,0,1,0,6.16c-1.15,1.39-1.12,2,.26,3.13A5.74,5.74,0,0,1,105.6,266c0,.55-.07,1.2-.75,1.26s-.78-.61-.82-1.16a5.39,5.39,0,0,0-1.39-3.52,5,5,0,0,0-8.7,3c-.09.64.23,1.7-.88,1.69C92.11,267.25,92.51,266.29,92.37,266Zm10.56-10.63a4.14,4.14,0,0,0-3.87-4,4,4,0,1,0,3.87,4Z" fill="#1b1b1b"/><path d="M116.22,254.62c-2.12,0-4.24,0-6.36,0-.53,0-1.21,0-1.25-.71s.58-.88,1.15-.88q6.63,0,13.28,0c.57,0,1.17.2,1.1.91s-.74.68-1.28.69Z" fill="#1b1b1b"/><path d="M115.23,259.63c-1.83,0-3.67,0-5.5,0-.54,0-1.2-.05-1.13-.84.05-.53.54-.74,1-.74q5.65,0,11.29,0c.48,0,1,.22,1,.75,0,.78-.61.81-1.15.81C118.91,259.65,117.07,259.63,115.23,259.63Z" fill="#1b1b1b"/><path d="M181,102.37c.82-2.72,1-4.5,0-6.57s.6-3.59,2.87-4.88c-4.16-.89-7.2-2.61-8.92-6a10.22,10.22,0,0,1-1-7,10.71,10.71,0,0,1,21.08.51c.94,5.59-2.27,9.88-9.6,12.63,2.52,1.68,3.56,3.6,1.75,6.47-.79,1.26.43,2.73,1,4.29,1.33-2.55,2.74-5.06,4-7.67.77-1.67,1.44-1.91,3.31-1.2,4.48,1.71,7.25,4.12,6.73,9.43-.24,2.43.38,4.95.7,7.42.2,1.55-.25,2.19-1.89,2.18q-16.48-.06-33,0c-1.8,0-2.19-.69-2-2.35.43-3.57.81-7.15,1-10.75A4.3,4.3,0,0,1,170,94.74c5.75-2.69,5.71-2.79,8.57,2.79Zm3.61,7.95c4.89,0,9.78-.08,14.67,0,1.82,0,2.17-.49,1.88-2.19a27.36,27.36,0,0,1-.63-6.6c.24-3.63-1.48-5.47-4.68-6.65-1.37-.51-2-.6-2.7.86-1.4,3-3,5.93-4.51,8.86-.47.89-1.51,1.86-1.75.21-.43-3-2.83-5.94-.56-9.17a1.72,1.72,0,0,0-.65-2.42,1.84,1.84,0,0,0-2.31,0c-.76.55-1.28,1.47-.78,2.14,2.3,3.09-.09,6-.2,8.94,0,.53-.19,1.21-.78,1.35-.82.18-1-.6-1.33-1.15-1.52-2.94-3-5.9-4.57-8.83-.32-.62-.33-1.61-1.7-1.15-3.88,1.28-5,2.58-5.41,6.67-.23,2.39-.36,4.79-.75,7.15-.27,1.65.26,2,1.82,2C174.67,110.27,179.65,110.32,184.63,110.32Zm9-30.27a9.1,9.1,0,0,0-18.2-.21,9.1,9.1,0,1,0,18.2.21Z" fill="#1b1b1b"/><path d="M195,103.82c-.81-.17-2.16.34-2.11-.74.06-1.47,1.55-.81,2.44-.87s2.09-.34,2,.71C197.28,104.47,195.75,103.47,195,103.82Z" fill="#1b1b1b"/><path d="M818.12,87.7A16.46,16.46,0,0,1,846.3,76.1a16,16,0,0,1,3.35,18c-.82,1.8-.71,2.82.78,4.12,2.28,2,4.26,4.32,6.48,6.38,1.23,1.13,1.49,2,.07,3.09a8.18,8.18,0,0,0-1.47,1.47c-1,1.24-1.79,1.26-2.91.06-2.18-2.34-4.58-4.49-6.75-6.85-1.08-1.17-1.83-1.2-3.24-.41A16.38,16.38,0,0,1,818.12,87.7Zm31.42.06a15,15,0,1,0-14.93,14.91A15,15,0,0,0,849.54,87.76Zm-2.1,9.71a18.88,18.88,0,0,1-1.33,1.91c-.62.69-.12,1.05.3,1.48,2.2,2.2,4.45,4.34,6.57,6.62,1,1,1.46.59,2.25-.15s1-1.35,0-2.23c-2.2-2.06-4.29-4.25-6.43-6.38C848.54,98.42,848.21,98.15,847.44,97.47Z" fill="#1b1b1b"/><path d="M847.06,87.55a12.52,12.52,0,1,1-12.68-12.37A12.5,12.5,0,0,1,847.06,87.55ZM834.44,76.7a11,11,0,1,0,11.11,11A11,11,0,0,0,834.44,76.7Z" fill="#1b1b1b"/><path d="M840.28,94.06c0,.21.2.89-.49,1-.91.18-.88-.6-.95-1.18-.3-2.49-1.64-4-4.19-4.1C832.34,89.68,831,91,830.31,94c-.12.52-.11,1.17-.75,1.14s-.82-.74-.78-1.37c.12-2.06,2.23-3.36,2.48-4.83s-2-3.07-1.4-5.16a4.72,4.72,0,0,1,3.95-3.66,4.49,4.49,0,0,1,4.72,2,4.17,4.17,0,0,1,.17,5.1c-1.08,1.4-.93,2.15.34,3.22A4.29,4.29,0,0,1,840.28,94.06Zm-5.54-12.5a3.35,3.35,0,0,0-3.47,3.33,3.15,3.15,0,0,0,3.22,3.33,3.33,3.33,0,0,0,.25-6.66Z" fill="#1b1b1b"/></svg>