<?xml version="1.0" encoding="utf-8"?>
<!-- Generator: Adobe Illustrator 22.0.0, SVG Export Plug-In . SVG Version: 6.00 Build 0)  -->
<svg version="1.1" id="Layer_1" xmlns="http://www.w3.org/2000/svg" xmlns:xlink="http://www.w3.org/1999/xlink" x="0px" y="0px"
	 viewBox="0 0 516 829" style="enable-background:new 0 0 516 829;" xml:space="preserve">
<style type="text/css">
	.st0{fill:#E55626;}
	.st1{fill:#FFFFFF;}
	.st2{fill:#009999;stroke:#000000;stroke-width:3;stroke-miterlimit:10;}
	.st3{fill:#606060;}
	.st4{fill:none;stroke:#000000;stroke-width:3;stroke-miterlimit:10;}
	.st5{fill:#009999;}
	.st6{fill:#1B1B1B;}
	.st7{stroke:#000000;stroke-miterlimit:10;}
</style>
<g>
	<path class="st7" d="M98.1,541.2v41.3h-3v-41.3H98.1z"/>
	<path class="st7" d="M108.8,582.5v-41.3h3.9l27.5,36.1v-36.1h2.7v41.3h-2.5l-29-37.8v37.8H108.8z"/>
	<path class="st7" d="M178.9,541.2v2.6h-14.1v38.7h-3v-38.7h-13.8v-2.6H178.9z"/>
	<path class="st7" d="M210.9,541.2v2.6h-24.1v16.4h23.1v2.6h-23.1v17h24.5v2.6h-27.5v-41.3H210.9z"/>
	<path class="st7" d="M219.8,582.5v-41.3h17c7.5,0,11.2,3.3,11.2,9.9c0,5.7-4,9.8-12.1,12.1l13.9,19.2h-4.2l-13.7-19.1v-2
		c8.5-1.3,12.7-4.6,12.7-10c0-5-2.8-7.4-8.3-7.4h-13.5v38.6H219.8z"/>
	<path class="st7" d="M255.4,582.5v-41.3h3.9l27.5,36.1v-36.1h2.7v41.3h-2.5l-29-37.8v37.8H255.4z"/>
	<path class="st7" d="M298.5,581v-3.2c4.3,1.5,9.1,2.3,14.3,2.3c8.6,0,13-3.3,13-9.8c0-4.8-2.8-7.2-8.4-7.2h-8.5
		c-7.7,0-11.5-3.5-11.5-10.4c0-7.9,5.6-11.8,16.9-11.8c4.6,0,9.1,0.6,13.4,1.7v2.9c-4.3-1.3-8.8-2-13.4-2c-9.2,0-13.8,3.1-13.8,9.2
		c0,5,2.8,7.5,8.5,7.5h8.5c7.6,0,11.5,3.4,11.5,10.1c0,8.3-5.3,12.4-16,12.4C307.6,582.8,302.9,582.2,298.5,581z"/>
	<path class="st7" d="M336.6,582.5v-41.3h3v19h28.1v-19h3v41.3h-3v-19.6h-28.1v19.6H336.6z"/>
	<path class="st7" d="M384.5,541.2v41.3h-3v-41.3H384.5z"/>
	<path class="st7" d="M395.2,582.5v-41.3h17.3c8,0,12.1,3.8,12.1,11.3c0,7.4-6.4,12.2-19.3,14.2l-0.5-2.8c11-1.5,16.4-5.3,16.4-11.2
		c0-5.9-3.1-8.9-9.2-8.9h-13.8v38.6H395.2z"/>
</g>
<g>
	<circle class="st0" cx="256.9" cy="338.2" r="111"/>
	<g>
		<path class="st1" d="M274.9,311.9v7.2h7.2l1.2-8.4C283.2,310.7,274.9,309.5,274.9,311.9z"/>
		<path class="st1" d="M239.1,311.9v7.2h-7.2v-8.4C231.9,310.7,239.1,308.4,239.1,311.9z"/>
		<path class="st1" d="M246.2,288.1l1.2-7.2h10.7h7.2l2.4,8.4l8.4,1.2l-1.2-10.7l-3.6-7.2l-9.5-2.4l-13.1,1.2
			c-1.2,0-8.4,3.6-8.4,3.6l-1.2,4.8l-1.2,8.4l3.6,2.4C241.5,290.5,245.1,291.6,246.2,288.1z"/>
		<polygon class="st1" points="316.7,383.5 313.1,384.7 313.1,389.5 314.3,395.5 320.2,391.9 		"/>
		<polygon class="st1" points="217.6,338.2 199.7,343 204.5,347.7 248.6,358.5 255.8,360.9 297.6,351.3 316.7,344.2 303.5,339.4 
			296.4,337 290.4,340.6 234.3,340.6 220,339.4 		"/>
		<polygon class="st1" points="295.2,290.5 296.4,303.6 291.6,309.5 268.9,311.9 263,309.5 263,301.2 249.8,301.2 249.8,309.5 
			239.1,310.7 220,308.4 218.8,297.6 220,290.5 		"/>
		<g>
			<path d="M211.2,387.6c0-2,0-3.1,0-4.7c3.5,0,6.9,0,10.6,0c0.1-1.6,0.1-2.8,0.2-4.5c-5.9,0-11.5,0-17.3,0c0-1.7,0-2.9,0-4.5
				c5.7,0,11.4,0,17.1,0c0-1.5,0-2.7,0-4.2c-7.8,0-15.6,0-23.6,0c0-1.6,0-2.7,0-4.3c7.8,0,15.6,0,23.8,0c0-3.6,0.2-6.7-0.1-9.8
				c-0.1-0.8-1.5-1.8-2.5-2.1c-7.8-2.2-15.7-4.2-23.6-6.2c-0.6-0.1-1.2-0.1-1.7-0.5c-0.9-0.7-1.8-1.5-2.7-2.3c0.9-0.8,1.6-2,2.6-2.3
				c5.9-1.7,11.9-3.2,17.9-4.7c1.2-0.3,2.4-0.7,3.5-1c0-14.3,0-28.4,0-42.4c0-5.3,0-5.3,5.5-5.4c4.5,0,9.1,0,14.2,0
				c0-1.6,0-2.9,0-4.3c0.2-8.6,6.3-14.9,14.9-15.3c4.5-0.2,9.1-0.2,13.6,0c8.6,0.4,14.8,6.7,15,15.3c0,1.3,0,2.5,0,4.2
				c14.7,0,29,0,43.6,0c0,1.7,0,2.9,0,4.5c-7.8,0-15.6,0-23.6,0c0,1.5,0,2.8,0,4.3c5.5,0,11.1,0,17,0c0.1,1.5,0.2,2.7,0.2,4.3
				c-5.7,0-11.3,0-17.2,0c-0.1,1.5-0.2,2.7-0.3,4.3c3.7,0,7.1,0,10.8,0c0.1,1.6,0.1,2.8,0.2,4.5c-3.6,0-7,0-10.9,0
				c0,8.9,0,17.3,0,26c6.3,1.6,12.9,3.4,19.5,5.1c0.9,0.2,1.9,0.3,2.7,0.8c0.7,0.4,1.6,1.3,1.6,2c0,0.7-0.9,1.9-1.5,2
				c-3,0.5-2.8,2.5-2.7,4.7c0,7.5,0.2,14.9-0.1,22.4c-0.2,4.5,0.5,8.6,3,12.3c1.6,2.4,1.5,4.7,0,7.1c-1.2,1.9-1.9,4-3.1,5.9
				c-1.2,2.1-2.9,2-4,0c-1.6-2.7-3-5.5-4.2-8.4c-0.4-0.9-0.1-2.4,0.5-3.2c3.3-4.8,3.6-10.1,3.5-15.7c-0.2-7.5-0.1-15.1-0.1-22.9
				c-7,1.8-13.5,3.4-20,5.2c-0.8,0.2-1.7,2-1.7,3.1c-0.1,8.6-0.2,17.2,0,25.9c0.1,3.1-1.1,4.3-3.8,5.2c-9.5,3-19,6.3-28.5,9.3
				c-1.6,0.5-3.7,0.5-5.3,0c-4.4-1.2-8.6-2.9-12.9-4.2C231.7,389.9,222.3,385.1,211.2,387.6z M287.6,355.3c-3.1,0.8-5.6,1.3-8,2
				c-7.5,1.9-15.1,5.3-22.6,5.3c-7.5,0-15.1-3.4-22.6-5.3c-2.5-0.6-5.1-1.2-8-1.9c0,9.1-0.1,17.7,0.1,26.3c0,0.9,1.5,2.1,2.6,2.5
				c8.6,3,17.2,5.8,25.8,8.6c1.1,0.4,2.6,0.6,3.7,0.2c9.1-2.9,18.1-5.9,27.1-9c0.8-0.3,1.9-1.5,1.9-2.3
				C287.6,373,287.6,364.4,287.6,355.3z M242.8,313c-2.9,2.8,1.8,7.9-4.3,8.4c-3,0.2-6.6,0.7-8.8-0.7c-1.6-1-1.3-5-1.8-7.5
				c-2.6-0.6-5.3-1.3-8.1-1.9c0,6.6,0,13.2,0,19.9c0,5.5,2.3,7.7,7.9,7.8c7.3,0,14.7,0,22,0c12.3,0,24.7,0,37,0c3.7,0,6.9-1.9,7-5
				c0.3-7.6,0.1-15.2,0.1-22.7c-3,0.7-5.6,1.4-8,2c-1.9,2.6,2.3,7.9-3.9,8.1c-3,0.1-6.5,0.5-8.8-0.8c-1.4-0.9-1-4.8-1.4-7.6
				C261.9,313,252,313,242.8,313z M294,293.5c-24.9,0-49.4,0-74.2,0c0,2.9-0.1,5.6,0,8.2c0.1,4,2.5,6.5,6.5,6.7
				c2.8,0.2,5.6,0,8.4,0.1c4.4,0,8.8,0,13.4,0c0-2.1,0.1-3.5,0-5c-0.1-2.6,0.9-3.9,3.7-3.7c3.5,0.2,7,0.1,10.5,0
				c2.4-0.1,3.4,1,3.4,3.3c0,1.7,0,3.4,0,5.3c7.9,0,15.2,0.1,22.5-0.1c3.5-0.1,5.7-2.7,5.9-6.2C294.1,299.3,294,296.5,294,293.5z
				 M204,344.1c0,0.2,0,0.5,0,0.7c1,0.3,2,0.6,3,0.9c15.4,4,30.8,8,46.3,11.9c2.2,0.6,4.9,0.6,7.1,0c8.5-2,16.9-4.3,25.3-6.5
				c8-2.1,16.1-4.2,24.1-6.3c-4.6-2-9.2-3.3-13.9-4.4c-0.5-0.1-1.2,0.5-1.9,0.6c-2.9,0.8-5.7,2.1-8.6,2.2c-18.5,0.2-37,0.1-55.6,0.1
				c-3.8,0-7.5,0-10.6-2.5c-0.4-0.4-1.3-0.4-1.9-0.3C213,341.7,208.5,342.9,204,344.1z M239.7,288.5c1.4,0,2.6,0,3.9,0
				c0-1,0.1-1.8,0.1-2.6c0.2-5.8,2.3-7.9,8.2-7.9c2.6,0,5.1,0,7.7,0c8.8,0,10.1,1.2,10.5,9.9c0,0.2,0.2,0.4,0.4,0.7
				c1.2,0,2.4,0,3.5,0c1.3-10-3-15-12.9-15c-2.8,0-5.6,0-8.4,0C242.9,273.5,238.8,278.2,239.7,288.5z M265.4,288.5
				c0.7-5.9,0.4-6.3-5.2-6.3c-2.2,0-4.4,0-6.6,0c-5.5,0-5.9,0.5-5,6.3C254.1,288.5,259.6,288.5,265.4,288.5z M252.8,308.2
				c2.9,0,5.5,0,8.2,0c0-1.5,0-2.7,0-3.9c-2.9,0-5.5,0-8.2,0C252.8,305.6,252.8,306.7,252.8,308.2z M233.1,317c1.6,0,2.8,0,4,0
				c0-1.4,0-2.6,0-3.8c-1.4,0-2.7,0-4,0C233.1,314.5,233.1,315.6,233.1,317z M276.7,317c1.5,0,2.7,0,4,0c0-1.4,0-2.6,0-3.9
				c-1.4,0-2.6,0-4,0C276.7,314.4,276.7,315.6,276.7,317z M315.1,392.4c0.6,0,1.1,0,1.7-0.1c0-2.1,0-4.2,0-6.3c-0.6,0-1.1,0-1.7,0
				C315.1,388.2,315.1,390.3,315.1,392.4z"/>
			<path d="M272,334.5c-1.4,0-2.5,0-3.9,0c0-1.4,0-2.6,0-4c1.3,0,2.6,0,3.9,0C272,332,272,333.3,272,334.5z"/>
			<path d="M280.9,334.5c-1.6,0-2.7,0-4.2,0c-0.1-1.2-0.1-2.4-0.2-4c1.4-0.1,2.6-0.1,4.2-0.2C280.8,331.7,280.9,332.9,280.9,334.5z"
				/>
			<path d="M285.4,330.5c1.6,0,2.7,0,4.1,0c0,1.3,0,2.5,0,3.9c-1.1,0-2.4,0-3.9,0C285.5,333.3,285.5,332.1,285.4,330.5z"/>
		</g>
	</g>
	<circle class="st2" cx="137.1" cy="257.2" r="8.1"/>
	<circle class="st2" cx="157.9" cy="452.7" r="8.1"/>
	<circle class="st2" cx="355.2" cy="451.4" r="8.1"/>
	<circle class="st2" cx="372.8" cy="252.8" r="8.1"/>
	<g>
		<path class="st3" d="M59.5,247.2c0.8,0.7,1.2,1.7,1.2,3c0,1.3-0.4,2.4-1.2,3.1c-0.8,0.7-2,1.1-3.4,1.1h-2.6v3.5h-2.3v-11.8h4.8
			C57.6,246.1,58.7,246.5,59.5,247.2z M57.9,251.9c0.5-0.4,0.7-0.9,0.7-1.6c0-0.7-0.2-1.3-0.7-1.6c-0.5-0.4-1.1-0.5-2-0.5h-2.5v4.4
			H56C56.8,252.5,57.5,252.3,57.9,251.9z"/>
		<path class="st3" d="M65.6,249.3c0.5-0.3,1.1-0.5,1.8-0.5v2.1c-0.9-0.1-1.7,0.2-2.2,0.6c-0.6,0.5-0.8,1.1-0.8,2v4.3h-2.2v-9h2.2
			v1.7C64.7,250.1,65.1,249.6,65.6,249.3z"/>
		<path class="st3" d="M73.6,257.9v-1.1c-0.3,0.4-0.7,0.7-1.2,0.9c-0.5,0.2-1.1,0.3-1.7,0.3c-0.6,0-1.2-0.1-1.7-0.4
			c-0.5-0.2-0.8-0.6-1.1-1s-0.4-0.9-0.4-1.4c0-0.8,0.3-1.5,0.9-2c0.6-0.5,1.4-0.7,2.5-0.7h2.6v-0.2c0-0.5-0.2-0.9-0.5-1.2
			c-0.3-0.3-0.9-0.4-1.5-0.4c-0.9,0-1.7,0.3-2.7,0.8l-0.8-1.5c0.7-0.4,1.3-0.7,1.9-0.8c0.6-0.2,1.3-0.3,2-0.3c1.2,0,2.1,0.3,2.7,0.8
			c0.6,0.6,1,1.3,1,2.4l0,5.9H73.6z M72.9,255.9c0.4-0.3,0.7-0.7,0.8-1.1V254h-2.3c-0.6,0-1,0.1-1.3,0.3s-0.4,0.5-0.4,0.8
			c0,0.4,0.1,0.7,0.4,0.9c0.3,0.2,0.7,0.3,1.2,0.3C71.9,256.3,72.4,256.2,72.9,255.9z"/>
		<path class="st3" d="M81.7,250.8c-0.7,0-1.3,0.2-1.8,0.7c-0.5,0.5-0.7,1.1-0.7,1.9c0,0.8,0.2,1.5,0.7,1.9c0.5,0.5,1,0.7,1.8,0.7
			c1.1,0,1.9-0.4,2.4-1.1l1.4,1.1c-0.4,0.6-0.9,1-1.6,1.3c-0.7,0.3-1.4,0.5-2.3,0.5c-0.9,0-1.7-0.2-2.4-0.6
			c-0.7-0.4-1.2-0.9-1.6-1.6s-0.6-1.5-0.6-2.4c0-0.9,0.2-1.7,0.6-2.4c0.4-0.7,0.9-1.2,1.6-1.6s1.5-0.6,2.4-0.6
			c0.8,0,1.5,0.1,2.2,0.4c0.6,0.3,1.2,0.7,1.6,1.2l-1.3,1.3C83.5,251.1,82.7,250.8,81.7,250.8z"/>
		<path class="st3" d="M92.3,257.3c-0.7,0.4-1.5,0.7-2.3,0.7c-0.8,0-1.4-0.2-1.9-0.7c-0.5-0.5-0.7-1.1-0.7-2v-4.4h-1.3l0-1.6h1.3
			v-2.5h2.2v2.5h2.6v1.6h-2.6v4c0,0.4,0.1,0.7,0.2,0.9c0.2,0.2,0.4,0.3,0.7,0.3c0.3,0,0.8-0.1,1.3-0.4L92.3,257.3z"/>
		<path class="st3" d="M95.6,245.4c0.2,0.2,0.4,0.6,0.4,0.9c0,0.4-0.1,0.7-0.4,0.9c-0.2,0.2-0.5,0.4-0.9,0.4s-0.7-0.1-0.9-0.4
			c-0.2-0.2-0.4-0.6-0.4-0.9c0-0.4,0.1-0.7,0.4-0.9c0.2-0.2,0.5-0.4,0.9-0.4S95.4,245.2,95.6,245.4z M93.7,248.9h2.2v9h-2.2V248.9z"
			/>
		<path class="st3" d="M102,250.8c-0.7,0-1.3,0.2-1.8,0.7c-0.5,0.5-0.7,1.1-0.7,1.9c0,0.8,0.2,1.5,0.7,1.9c0.5,0.5,1,0.7,1.8,0.7
			c1.1,0,1.9-0.4,2.4-1.1l1.4,1.1c-0.4,0.6-0.9,1-1.6,1.3c-0.7,0.3-1.4,0.5-2.3,0.5c-0.9,0-1.7-0.2-2.4-0.6
			c-0.7-0.4-1.2-0.9-1.6-1.6s-0.6-1.5-0.6-2.4c0-0.9,0.2-1.7,0.6-2.4c0.4-0.7,0.9-1.2,1.6-1.6s1.5-0.6,2.4-0.6
			c0.8,0,1.5,0.1,2.2,0.4c0.6,0.3,1.2,0.7,1.6,1.2l-1.3,1.3C103.8,251.1,103,250.8,102,250.8z"/>
		<path class="st3" d="M114,250.1c0.7,0.8,1.1,2,1.1,3.4c0,0.3,0,0.5,0,0.7h-6.6c0.1,0.6,0.4,1.1,0.9,1.5c0.5,0.4,1,0.5,1.7,0.5
			c0.5,0,0.9-0.1,1.3-0.3c0.4-0.2,0.8-0.4,1.1-0.7l1.2,1.2c-0.4,0.5-1,0.9-1.6,1.1c-0.6,0.3-1.4,0.4-2.1,0.4c-0.9,0-1.7-0.2-2.4-0.6
			c-0.7-0.4-1.2-0.9-1.6-1.6s-0.6-1.5-0.6-2.4c0-0.9,0.2-1.7,0.6-2.4c0.4-0.7,0.9-1.2,1.6-1.6c0.7-0.4,1.5-0.6,2.4-0.6
			C112.2,248.8,113.3,249.3,114,250.1z M113.1,252.7c0-0.7-0.2-1.2-0.7-1.6s-1-0.6-1.6-0.6c-0.6,0-1.2,0.2-1.6,0.6
			c-0.4,0.4-0.7,0.9-0.8,1.6H113.1z"/>
	</g>
	<g>
		<path class="st3" d="M400.2,248.3c-0.6-0.2-1.2-0.3-1.7-0.3c-0.5,0-1,0.1-1.3,0.3c-0.3,0.2-0.5,0.5-0.5,0.8c0,0.3,0.1,0.6,0.3,0.8
			c0.2,0.2,0.5,0.4,0.8,0.5s0.8,0.3,1.4,0.5c0.8,0.2,1.4,0.5,2,0.7s0.9,0.6,1.3,1c0.4,0.5,0.5,1.1,0.5,1.8c0,0.7-0.2,1.3-0.6,1.9
			c-0.4,0.5-0.9,0.9-1.6,1.2c-0.7,0.3-1.5,0.4-2.3,0.4c-0.9,0-1.8-0.2-2.7-0.5s-1.6-0.8-2.3-1.4l0.9-1.9c0.6,0.5,1.3,1,2,1.3
			c0.7,0.3,1.4,0.5,2.1,0.5c0.6,0,1.1-0.1,1.5-0.4c0.4-0.2,0.5-0.6,0.5-1c0-0.3-0.1-0.6-0.3-0.8c-0.2-0.2-0.5-0.4-0.8-0.5
			c-0.3-0.1-0.8-0.3-1.4-0.5c-0.8-0.2-1.4-0.5-1.9-0.7c-0.5-0.2-0.9-0.6-1.3-1c-0.4-0.5-0.5-1-0.5-1.8c0-0.7,0.2-1.3,0.5-1.8
			c0.4-0.5,0.9-0.9,1.5-1.2c0.7-0.3,1.4-0.4,2.3-0.4c0.8,0,1.5,0.1,2.3,0.3c0.7,0.2,1.4,0.5,2,0.9l-0.9,2
			C401.5,248.8,400.9,248.5,400.2,248.3z"/>
		<path class="st3" d="M413.1,248.9v9h-2.2v-1.7c-0.6,1.2-1.6,1.7-3.1,1.7c-1,0-1.8-0.3-2.4-0.9c-0.6-0.6-0.9-1.5-0.9-2.5v-5.6h2.2
			v5c0,0.6,0.2,1.1,0.5,1.5s0.8,0.5,1.4,0.5c0.7,0,1.2-0.3,1.6-0.7c0.4-0.5,0.6-1.1,0.6-1.8v-4.4H413.1z"/>
		<path class="st3" d="M419.3,250.8c-0.7,0-1.3,0.2-1.8,0.7c-0.5,0.5-0.7,1.1-0.7,1.9c0,0.8,0.2,1.5,0.7,1.9c0.5,0.5,1,0.7,1.8,0.7
			c1.1,0,1.9-0.4,2.4-1.1l1.4,1.1c-0.4,0.6-0.9,1-1.6,1.3c-0.7,0.3-1.4,0.5-2.3,0.5c-0.9,0-1.7-0.2-2.4-0.6
			c-0.7-0.4-1.2-0.9-1.6-1.6s-0.6-1.5-0.6-2.4c0-0.9,0.2-1.7,0.6-2.4s0.9-1.2,1.6-1.6c0.7-0.4,1.5-0.6,2.4-0.6
			c0.8,0,1.5,0.1,2.2,0.4c0.6,0.3,1.2,0.7,1.6,1.2l-1.3,1.3C421.1,251.1,420.3,250.8,419.3,250.8z"/>
		<path class="st3" d="M428.1,250.8c-0.7,0-1.3,0.2-1.8,0.7c-0.5,0.5-0.7,1.1-0.7,1.9c0,0.8,0.2,1.5,0.7,1.9c0.5,0.5,1,0.7,1.8,0.7
			c1.1,0,1.9-0.4,2.4-1.1l1.4,1.1c-0.4,0.6-0.9,1-1.6,1.3c-0.7,0.3-1.4,0.5-2.3,0.5c-0.9,0-1.7-0.2-2.4-0.6
			c-0.7-0.4-1.2-0.9-1.6-1.6s-0.6-1.5-0.6-2.4c0-0.9,0.2-1.7,0.6-2.4c0.4-0.7,0.9-1.2,1.6-1.6c0.7-0.4,1.5-0.6,2.4-0.6
			c0.8,0,1.5,0.1,2.2,0.4c0.6,0.3,1.2,0.7,1.6,1.2l-1.3,1.3C429.9,251.1,429.1,250.8,428.1,250.8z"/>
		<path class="st3" d="M440.1,250.1c0.7,0.8,1.1,2,1.1,3.4c0,0.3,0,0.5,0,0.7h-6.6c0.1,0.6,0.4,1.1,0.9,1.5c0.5,0.4,1,0.5,1.7,0.5
			c0.5,0,0.9-0.1,1.3-0.3c0.4-0.2,0.8-0.4,1.1-0.7l1.2,1.2c-0.4,0.5-1,0.9-1.6,1.1s-1.4,0.4-2.1,0.4c-0.9,0-1.7-0.2-2.4-0.6
			c-0.7-0.4-1.2-0.9-1.6-1.6s-0.6-1.5-0.6-2.4c0-0.9,0.2-1.7,0.6-2.4c0.4-0.7,0.9-1.2,1.6-1.6c0.7-0.4,1.5-0.6,2.4-0.6
			C438.3,248.8,439.4,249.3,440.1,250.1z M439.2,252.7c0-0.7-0.2-1.2-0.7-1.6s-1-0.6-1.6-0.6c-0.6,0-1.2,0.2-1.6,0.6
			c-0.4,0.4-0.7,0.9-0.8,1.6H439.2z"/>
		<path class="st3" d="M446.7,250.7c-0.5-0.1-0.9-0.2-1.3-0.2c-0.4,0-0.7,0.1-0.9,0.2c-0.2,0.1-0.3,0.3-0.3,0.6
			c0,0.3,0.1,0.5,0.4,0.6c0.3,0.2,0.7,0.3,1.3,0.5c0.6,0.2,1.1,0.4,1.5,0.6c0.4,0.2,0.8,0.5,1,0.8c0.3,0.4,0.4,0.8,0.4,1.4
			c0,0.9-0.3,1.5-1,2c-0.7,0.5-1.5,0.7-2.5,0.7c-0.7,0-1.4-0.1-2-0.3c-0.7-0.2-1.2-0.5-1.7-0.9l0.8-1.5c0.4,0.3,0.9,0.6,1.4,0.8
			c0.6,0.2,1.1,0.3,1.6,0.3c0.4,0,0.7-0.1,1-0.2c0.2-0.1,0.4-0.3,0.4-0.6c0-0.3-0.1-0.5-0.4-0.7s-0.7-0.3-1.4-0.5
			c-0.6-0.2-1.1-0.4-1.5-0.5s-0.7-0.4-1-0.8c-0.3-0.4-0.4-0.8-0.4-1.4c0-0.9,0.3-1.6,1-2c0.6-0.5,1.5-0.7,2.4-0.7
			c0.6,0,1.2,0.1,1.8,0.3s1.1,0.4,1.5,0.7l-0.8,1.6C447.6,251.1,447.2,250.9,446.7,250.7z"/>
		<path class="st3" d="M454.5,250.7c-0.5-0.1-0.9-0.2-1.3-0.2c-0.4,0-0.7,0.1-0.9,0.2c-0.2,0.1-0.3,0.3-0.3,0.6
			c0,0.3,0.1,0.5,0.4,0.6c0.3,0.2,0.7,0.3,1.3,0.5c0.6,0.2,1.1,0.4,1.5,0.6c0.4,0.2,0.8,0.5,1,0.8c0.3,0.4,0.4,0.8,0.4,1.4
			c0,0.9-0.3,1.5-1,2c-0.7,0.5-1.5,0.7-2.5,0.7c-0.7,0-1.4-0.1-2-0.3c-0.7-0.2-1.2-0.5-1.7-0.9l0.8-1.5c0.4,0.3,0.9,0.6,1.4,0.8
			c0.6,0.2,1.1,0.3,1.6,0.3c0.4,0,0.7-0.1,1-0.2c0.2-0.1,0.4-0.3,0.4-0.6c0-0.3-0.1-0.5-0.4-0.7s-0.7-0.3-1.4-0.5
			c-0.6-0.2-1.1-0.4-1.5-0.5s-0.7-0.4-1-0.8c-0.3-0.4-0.4-0.8-0.4-1.4c0-0.9,0.3-1.6,1-2c0.6-0.5,1.5-0.7,2.4-0.7
			c0.6,0,1.2,0.1,1.8,0.3s1.1,0.4,1.5,0.7l-0.8,1.6C455.4,251.1,454.9,250.9,454.5,250.7z"/>
	</g>
	<g>
		<path class="st3" d="M375.8,444.7h8.6v2H378v2.9h5.7v2H378v3h6.6v2h-8.8V444.7z"/>
		<path class="st3" d="M385.5,447.4h2.5l1.9,2.9l1.9-2.9h2.4l-2.9,4.4l3.1,4.6h-2.5l-2-3.1l-2.2,3.1h-2.4l3.1-4.6L385.5,447.4z"/>
		<path class="st3" d="M403.2,448c0.6,0.4,1.1,0.9,1.5,1.6c0.4,0.7,0.5,1.5,0.5,2.4c0,0.9-0.2,1.7-0.5,2.4c-0.3,0.7-0.8,1.2-1.5,1.6
			c-0.6,0.4-1.4,0.6-2.2,0.6c-0.7,0-1.3-0.1-1.8-0.4c-0.5-0.3-0.9-0.6-1.3-1.2v4.7h-2.2v-12.2h2.2v1.5c0.3-0.5,0.7-0.9,1.3-1.2
			c0.5-0.3,1.1-0.4,1.8-0.4C401.8,447.4,402.6,447.6,403.2,448z M402.3,453.9c0.5-0.5,0.7-1.2,0.7-2s-0.2-1.4-0.7-1.9
			c-0.5-0.5-1.1-0.8-1.8-0.8c-0.8,0-1.4,0.3-1.8,0.8c-0.5,0.5-0.7,1.2-0.7,1.9c0,0.8,0.2,1.5,0.7,2s1.1,0.8,1.8,0.8
			C401.2,454.6,401.8,454.4,402.3,453.9z"/>
		<path class="st3" d="M413.8,448.6c0.7,0.8,1.1,2,1.1,3.4c0,0.3,0,0.5,0,0.7h-6.6c0.1,0.6,0.4,1.1,0.9,1.5c0.5,0.4,1,0.5,1.7,0.5
			c0.5,0,0.9-0.1,1.3-0.3c0.4-0.2,0.8-0.4,1.1-0.7l1.2,1.2c-0.4,0.5-1,0.9-1.6,1.1c-0.6,0.3-1.4,0.4-2.1,0.4c-0.9,0-1.7-0.2-2.4-0.6
			c-0.7-0.4-1.2-0.9-1.6-1.6s-0.6-1.5-0.6-2.4c0-0.9,0.2-1.7,0.6-2.4s0.9-1.2,1.6-1.6c0.7-0.4,1.5-0.6,2.4-0.6
			C412,447.4,413,447.8,413.8,448.6z M412.8,451.2c0-0.7-0.2-1.2-0.7-1.6s-1-0.6-1.6-0.6c-0.6,0-1.2,0.2-1.6,0.6
			c-0.4,0.4-0.7,0.9-0.8,1.6H412.8z"/>
		<path class="st3" d="M419.8,447.8c0.5-0.3,1.1-0.5,1.8-0.5v2.1c-0.9-0.1-1.7,0.2-2.2,0.6c-0.6,0.5-0.8,1.1-0.8,2v4.3h-2.2v-9h2.2
			v1.7C418.9,448.6,419.3,448.1,419.8,447.8z"/>
		<path class="st3" d="M424.8,444c0.2,0.2,0.4,0.6,0.4,0.9c0,0.4-0.1,0.7-0.4,0.9c-0.2,0.2-0.5,0.4-0.9,0.4c-0.4,0-0.7-0.1-0.9-0.4
			c-0.2-0.2-0.4-0.6-0.4-0.9c0-0.4,0.1-0.7,0.4-0.9c0.2-0.2,0.5-0.4,0.9-0.4C424.3,443.6,424.6,443.7,424.8,444z M422.8,447.4h2.2v9
			h-2.2V447.4z"/>
		<path class="st3" d="M434.4,448.6c0.7,0.8,1.1,2,1.1,3.4c0,0.3,0,0.5,0,0.7h-6.6c0.1,0.6,0.4,1.1,0.9,1.5c0.5,0.4,1,0.5,1.7,0.5
			c0.5,0,0.9-0.1,1.3-0.3c0.4-0.2,0.8-0.4,1.1-0.7l1.2,1.2c-0.4,0.5-1,0.9-1.6,1.1c-0.6,0.3-1.4,0.4-2.1,0.4c-0.9,0-1.7-0.2-2.4-0.6
			c-0.7-0.4-1.2-0.9-1.6-1.6s-0.6-1.5-0.6-2.4c0-0.9,0.2-1.7,0.6-2.4s0.9-1.2,1.6-1.6c0.7-0.4,1.5-0.6,2.4-0.6
			C432.6,447.4,433.6,447.8,434.4,448.6z M433.4,451.2c0-0.7-0.2-1.2-0.7-1.6s-1-0.6-1.6-0.6c-0.6,0-1.2,0.2-1.6,0.6
			c-0.4,0.4-0.7,0.9-0.8,1.6H433.4z"/>
		<path class="st3" d="M444.8,448.3c0.6,0.6,0.9,1.5,0.9,2.5v5.6h-2.2v-5c0-0.6-0.2-1.1-0.5-1.5c-0.4-0.4-0.8-0.5-1.5-0.5
			c-0.7,0-1.3,0.3-1.7,0.7s-0.6,1.1-0.6,1.8v4.4H437v-9h2.2v1.7c0.6-1.2,1.7-1.7,3.2-1.8C443.4,447.4,444.2,447.7,444.8,448.3z"/>
		<path class="st3" d="M451.7,449.3c-0.7,0-1.3,0.2-1.8,0.7c-0.5,0.5-0.7,1.1-0.7,1.9c0,0.8,0.2,1.5,0.7,1.9c0.5,0.5,1,0.7,1.8,0.7
			c1.1,0,1.9-0.4,2.4-1.1l1.4,1.1c-0.4,0.6-0.9,1-1.6,1.3c-0.7,0.3-1.4,0.5-2.3,0.5c-0.9,0-1.7-0.2-2.4-0.6
			c-0.7-0.4-1.2-0.9-1.6-1.6s-0.6-1.5-0.6-2.4c0-0.9,0.2-1.7,0.6-2.4s0.9-1.2,1.6-1.6c0.7-0.4,1.5-0.6,2.4-0.6
			c0.8,0,1.5,0.1,2.2,0.4c0.6,0.3,1.2,0.7,1.6,1.2l-1.3,1.3C453.4,449.6,452.6,449.3,451.7,449.3z"/>
		<path class="st3" d="M463.6,448.6c0.7,0.8,1.1,2,1.1,3.4c0,0.3,0,0.5,0,0.7h-6.6c0.1,0.6,0.4,1.1,0.9,1.5c0.5,0.4,1,0.5,1.7,0.5
			c0.5,0,0.9-0.1,1.3-0.3c0.4-0.2,0.8-0.4,1.1-0.7l1.2,1.2c-0.4,0.5-1,0.9-1.6,1.1s-1.4,0.4-2.1,0.4c-0.9,0-1.7-0.2-2.4-0.6
			c-0.7-0.4-1.2-0.9-1.6-1.6s-0.6-1.5-0.6-2.4c0-0.9,0.2-1.7,0.6-2.4c0.4-0.7,0.9-1.2,1.6-1.6c0.7-0.4,1.5-0.6,2.4-0.6
			C461.8,447.4,462.9,447.8,463.6,448.6z M462.7,451.2c0-0.7-0.2-1.2-0.7-1.6s-1-0.6-1.6-0.6c-0.6,0-1.2,0.2-1.6,0.6
			c-0.4,0.4-0.7,0.9-0.8,1.6H462.7z"/>
	</g>
	<g>
		<path class="st3" d="M62.4,448h2.3v9.7h5.1v2h-7.3V448z"/>
		<path class="st3" d="M78,451.9c0.7,0.8,1.1,2,1.1,3.4c0,0.3,0,0.5,0,0.7h-6.6c0.1,0.6,0.4,1.1,0.9,1.5c0.5,0.4,1,0.5,1.7,0.5
			c0.5,0,0.9-0.1,1.3-0.3c0.4-0.2,0.8-0.4,1.1-0.7l1.2,1.2c-0.4,0.5-1,0.9-1.6,1.1c-0.6,0.3-1.4,0.4-2.1,0.4c-0.9,0-1.7-0.2-2.4-0.6
			c-0.7-0.4-1.2-0.9-1.6-1.6s-0.6-1.5-0.6-2.4c0-0.9,0.2-1.7,0.6-2.4c0.4-0.7,0.9-1.2,1.6-1.6c0.7-0.4,1.5-0.6,2.4-0.6
			C76.2,450.7,77.3,451.1,78,451.9z M77.1,454.6c0-0.7-0.2-1.2-0.7-1.6s-1-0.6-1.6-0.6c-0.6,0-1.2,0.2-1.6,0.6
			c-0.4,0.4-0.7,0.9-0.8,1.6H77.1z"/>
		<path class="st3" d="M86,459.8v-1.1c-0.3,0.4-0.7,0.7-1.2,0.9c-0.5,0.2-1.1,0.3-1.7,0.3c-0.6,0-1.2-0.1-1.7-0.4
			c-0.5-0.2-0.8-0.6-1.1-1s-0.4-0.9-0.4-1.4c0-0.8,0.3-1.5,0.9-2c0.6-0.5,1.4-0.7,2.5-0.7H86v-0.2c0-0.5-0.2-0.9-0.5-1.2
			c-0.3-0.3-0.9-0.4-1.5-0.4c-0.9,0-1.7,0.3-2.7,0.8l-0.8-1.5c0.7-0.4,1.3-0.7,1.9-0.8c0.6-0.2,1.3-0.3,2-0.3c1.2,0,2.1,0.3,2.7,0.8
			c0.6,0.6,1,1.3,1,2.4l0,5.9H86z M85.2,457.7c0.4-0.3,0.7-0.7,0.8-1.1v-0.8h-2.3c-0.6,0-1,0.1-1.3,0.3s-0.4,0.5-0.4,0.8
			c0,0.4,0.1,0.7,0.4,0.9c0.3,0.2,0.7,0.3,1.2,0.3C84.2,458.2,84.8,458,85.2,457.7z"/>
		<path class="st3" d="M93.7,451.2c0.5-0.3,1.1-0.5,1.8-0.5v2.1c-0.9-0.1-1.7,0.2-2.2,0.6c-0.6,0.5-0.8,1.1-0.8,2v4.3h-2.2v-9h2.2
			v1.7C92.7,451.9,93.1,451.5,93.7,451.2z"/>
		<path class="st3" d="M104.5,451.6c0.6,0.6,0.9,1.5,0.9,2.5v5.6h-2.2v-5c0-0.6-0.2-1.1-0.5-1.5c-0.4-0.4-0.8-0.5-1.5-0.5
			c-0.7,0-1.3,0.3-1.7,0.7s-0.6,1.1-0.6,1.8v4.4h-2.2v-9h2.2v1.7c0.6-1.2,1.7-1.7,3.2-1.8C103.1,450.7,103.9,451,104.5,451.6z"/>
		<path class="st3" d="M109.5,447.3c0.2,0.2,0.4,0.6,0.4,0.9c0,0.4-0.1,0.7-0.4,0.9c-0.2,0.2-0.5,0.4-0.9,0.4s-0.7-0.1-0.9-0.4
			c-0.2-0.2-0.4-0.6-0.4-0.9c0-0.4,0.1-0.7,0.4-0.9c0.2-0.2,0.5-0.4,0.9-0.4S109.3,447,109.5,447.3z M107.5,450.8h2.2v9h-2.2V450.8z
			"/>
		<path class="st3" d="M119.9,451.6c0.6,0.6,0.9,1.5,0.9,2.5v5.6h-2.2v-5c0-0.6-0.2-1.1-0.5-1.5c-0.4-0.4-0.8-0.5-1.5-0.5
			c-0.7,0-1.3,0.3-1.7,0.7s-0.6,1.1-0.6,1.8v4.4h-2.2v-9h2.2v1.7c0.6-1.2,1.7-1.7,3.2-1.8C118.5,450.7,119.3,451,119.9,451.6z"/>
		<path class="st3" d="M131.1,450.8v8.1c0,0.9-0.2,1.6-0.6,2.2c-0.4,0.6-0.9,1.1-1.6,1.5s-1.5,0.5-2.5,0.5c-1.4,0-2.6-0.4-3.8-1.2
			l0.9-1.6c0.9,0.6,1.8,0.9,2.8,0.9c0.8,0,1.4-0.2,1.9-0.6c0.5-0.4,0.7-1,0.7-1.7v-1.1c-0.3,0.5-0.7,0.8-1.2,1
			c-0.5,0.2-1,0.4-1.7,0.4c-0.8,0-1.5-0.2-2.1-0.5c-0.6-0.4-1.1-0.9-1.4-1.5c-0.3-0.7-0.5-1.4-0.5-2.3c0-0.8,0.2-1.6,0.5-2.2
			c0.3-0.6,0.8-1.1,1.4-1.5s1.3-0.5,2.1-0.5c0.6,0,1.2,0.1,1.7,0.4c0.5,0.2,0.9,0.6,1.2,1v-1.3H131.1z M128.3,456.9
			c0.4-0.5,0.7-1.1,0.7-1.9s-0.2-1.4-0.7-1.9c-0.4-0.5-1-0.7-1.7-0.7c-0.7,0-1.3,0.2-1.7,0.7s-0.7,1.1-0.7,1.8
			c0,0.8,0.2,1.4,0.7,1.9c0.4,0.5,1,0.7,1.7,0.7C127.3,457.6,127.9,457.4,128.3,456.9z"/>
	</g>
	<path class="st4" d="M172.8,462.3c0,0,80,62.8,168.4-1.6"/>
	<path class="st4" d="M367.2,436.7c0,0,70.6-73.3,15.3-167.7"/>
	<path class="st4" d="M126.2,272.5c0,0-52.9,86.9,21.6,167"/>
</g>
<path class="st0" d="M217.1,92.4c-2.3,2.3-4.5,4.6-6.9,6.8c-0.9,0.9-1,1.5,0,2.4c1.1,0.9,2,2,3.1,3c0.4,0.4,0.6,1,0.2,1.4
	c-0.5,0.5-1,0.1-1.4-0.3c-1.4-1.4-2.8-2.8-4.2-4.2c-1.6-1.6,0.2-2.2,0.9-3c2.3-2.5,2.2-3-1.1-3.9c-1.2-0.3-2.4-0.7-3.6-1.1
	c-1.2-0.4-2.3-1-2.5,1c-0.1,0.7-0.9,1.4-1.6,1.2c-2.8-0.4-6,0-8.1-2.7c-1.2-1.5-2.1-3.6-3.6-4.2c-1.8-0.8-2.9,1.9-4.7,2.4
	c-1.5,0.5-3.1,0.9-4.7,1.1c-1.5,0.2-2-0.7-1.4-2c3-6,6-12.1,10-17.5c1.1-1.4,2.6-2.2,4.4-2.4c4.3-0.7,8.5-2.3,13-2.2
	c1.6,0.1,2.8-1.5,4-2.5c1.9-1.5,3-0.4,4,1c0.9,1.3,1.7,2.7-0.4,4.1c-2.8,1.9-2.7,2-0.3,4.4c2.8,2.8,5.6,5.6,8.4,8.4
	c1.1,1.1,1.9,1.6,3,0.1c1.2-1.8,2.3-1.4,3.6,0.1c1,1.2,2.3,2.3,3.4,3.5c0.4,0.4,0.7,1,0.3,1.4c-0.4,0.4-1,0.1-1.4-0.3
	c-0.9-0.9-1.9-1.7-2.6-2.7c-1.2-1.5-2-1.1-3.1,0.1C221.4,88.2,219.2,90.3,217.1,92.4z M187.9,84.1c2.3,0.8,4.4,1.8,6.2,3.1
	c3,2.2,6.4,3.6,9.9,4.8c2.8,1,6.1,3.2,8.5,2.5c2.6-0.7,4.5-4.1,6.8-6.3c0.1-0.1,0.2-0.3,0.4-0.4c1.1-0.9,1-1.6,0-2.6
	c-2.7-2.5-5.2-5.2-7.8-7.8c-3.5-3.5-3.4-3.4-7.6-0.6c-1.9,1.3-2.7,2.3-0.4,3.9c0.5,0.3,1.1,0.8,0.9,1.5c-0.3,0.9-1.2,0.7-1.8,0.8
	c-3.1,0.4-6.1,0-9-0.9C191.5,81.3,189.5,81.7,187.9,84.1z M202,70.8c-0.1-0.2-0.2-0.4-0.3-0.7c-3.6,0.8-7.1,1.5-10.6,2.3
	c-0.7,0.2-1.6,0.7-2,1.3c-2.4,3.6-4.7,7.2-7.1,10.8c0.1,0.1,0.3,0.2,0.4,0.3C188.9,80.2,195.4,75.5,202,70.8z M192.6,80.1
	c1.5,0.2,2.6,1.3,4,0.3c4.8-3.5,9.6-6.9,14.4-10.3c0.9-0.6,1.1-1.3,0.5-2.2c-0.7-1-1.3-0.9-2.2-0.2c-3.2,2.3-6.5,4.5-9.6,6.9
	C197.3,76.2,194.6,77.5,192.6,80.1z M199.1,92.1c-2.3-1.4-5.1-3.2-7.9-4.9c-0.4-0.3-0.9-0.3-1.3,0c-0.4,0.2-0.3,0.5-0.1,0.9
	c1.1,3,6.1,6.4,9.3,6.3c0.5,0,0.9-0.1,1.1-0.5C200.4,93.2,199.9,92.9,199.1,92.1z M188.1,86.2c-1.9-1.6-3.4-1.5-5.2,0
	c-1.5,1.2-2.8,2.5-3.5,4.5C183.1,90.6,185.4,88.2,188.1,86.2z M202.3,81.5c-2.1-2.2-2.1-2.2-3.8-0.1
	C199.6,81.5,200.7,81.5,202.3,81.5z"/>
<g>
	<path class="st0" d="M219.1,757c0-9,0-17.6,0-26.2c0-0.6,0-1.3,0-1.9c0-0.8-0.3-1.9,0.7-2c1.2-0.1,0.8,1.2,0.8,1.9
		c0,3.6,0,7.2,0,10.8c0,5-0.1,10.1,0,15.1c0,0.9-0.9,2.7,1,2.7c1.8,0,0.9-1.7,0.9-2.6c0.1-8.3,0-16.5,0-24.8c0-0.5,0-1.1,0-1.6
		c0-0.6-0.1-1.5,0.7-1.5c1,0,0.9,0.9,0.9,1.6c0,1.2,0,2.3,0,3.5c0,8.5,0,16.9,0,25.4c0,4.6-1.7,6.4-6.3,6.4c-9.3,0-18.5,0-27.8,0
		c-4.3,0-6.1-1.8-6.1-6c0-9.5,0-19.1,0-28.6c0-1.9,0.5-2.5,2.4-2.5c9.4,0.1,18.9,0.1,28.3,0c1.9,0,2.5,0.6,2.4,2.5
		c-0.1,7.9,0,15.8,0,23.7C217.1,754.4,216.9,756,219.1,757z M203.9,762.2c4.9,0,9.7,0,14.6,0c1.3,0,2.5-0.3,3.4-1.3
		c0.3-0.4,0.7-0.9,0.5-1.4c-0.2-0.5-0.8-0.3-1.2-0.3c-4.4-0.5-5.6-1.8-5.6-6.2c0-7.5-0.1-14.9,0-22.4c0-1.8-0.4-2.3-2.2-2.2
		c-8.5,0.1-17.1,0.1-25.6,0c-1.8,0-2.2,0.5-2.2,2.3c0.1,9.1,0,18.2,0,27.2c0,3.2,1.1,4.4,4.4,4.4
		C194.6,762.2,199.3,762.2,203.9,762.2z"/>
	<path class="st0" d="M200.3,733.5c3.2,0,6.5,0,9.7,0c1.3,0,1.8,0.4,1.9,1.8c0.2,6.1,0.3,6.1-5.7,6.1c-4.9,0-9.9-0.1-14.8,0
		c-1.6,0-2.2-0.4-2.2-2.1c0-5.8-0.1-5.8,5.7-5.8C196.7,733.5,198.5,733.5,200.3,733.5z M200.6,739.8c2.7,0,5.4-0.1,8.1,0
		c2.2,0.1,1.7-1.3,1.7-2.4c0-1.2,0.5-2.5-1.7-2.4c-5.4,0.1-10.8,0.1-16.1,0c-2.2-0.1-1.7,1.3-1.7,2.5c0,1.2-0.5,2.6,1.7,2.4
		C195.2,739.7,197.9,739.8,200.6,739.8z"/>
	<path class="st0" d="M196.2,754.1c1.8,0,3.6,0,5.4,0c0.5,0,1.2,0,1.2,0.7c0,0.6-0.5,0.9-1.1,0.9c-3.8,0-7.5,0-11.3,0
		c-0.6,0-1.1-0.2-1.1-0.9c0.1-0.7,0.7-0.7,1.2-0.7C192.5,754.1,194.4,754.1,196.2,754.1z"/>
	<path class="st0" d="M196.4,749.3c1.8,0,3.6,0,5.4,0c0.5,0,1,0.1,1,0.6c0.1,0.7-0.5,0.9-1,0.9c-3.8,0-7.5,0-11.3,0
		c-0.6,0-1.2-0.2-1.2-0.8c0-0.6,0.6-0.8,1.2-0.8C192.5,749.3,194.5,749.3,196.4,749.3z"/>
	<path class="st0" d="M196.2,746c-1.8,0-3.6,0-5.4,0c-0.6,0-1.4,0.1-1.5-0.7c0-0.8,0.7-0.8,1.4-0.8c3.6,0,7.2,0,10.7,0
		c0.6,0,1.4,0,1.3,0.9c-0.1,0.8-0.9,0.7-1.5,0.7C199.6,746,197.9,746,196.2,746z"/>
	<path class="st0" d="M208.8,744.5c0.6,0,1.2,0,1.7,0c0.6,0,1.4,0,1.3,0.9c-0.1,0.6-0.7,0.7-1.2,0.7c-0.5,0-1.1,0.1-1.6,0
		c-1-0.2-2.8,0.8-2.8-0.9C206.2,743.9,207.9,744.7,208.8,744.5z"/>
	<path class="st0" d="M208.8,749.3c0.5,0,0.9,0,1.3,0c0.7,0,1.7-0.2,1.7,0.8c0,0.9-1.1,0.7-1.8,0.7c-0.4,0-0.7,0.1-1.1,0
		c-1-0.2-2.8,0.6-2.8-0.7C206.2,748.5,208,749.7,208.8,749.3z"/>
	<path class="st0" d="M208.9,755.7c-0.9-0.3-2.7,0.6-2.7-0.8c0-1.5,1.7-0.5,2.6-0.8c0.1,0,0.2,0,0.3,0c0.9,0.3,2.7-0.7,2.6,0.8
		C211.6,756.2,209.9,755.4,208.9,755.7z"/>
</g>
<path class="st5" d="M325.3,87.2c-1.5,0.6-2.6,1-3.7,1.4c-2.1,0.7-4.1,0.8-5.6-1.1c-1.5,1.8-3.4,2-5.5,1.2c-1.2-0.4-2.3-0.8-3.9-1.3
	c0,4.8,0,9.3,0,13.9c0,1.8-0.5,3.4-2.1,4.4c-2.8,1.8-6.7,0.1-6.8-3.3c-0.2-8-0.3-16,0.1-24c0.1-2.2,0.6-3.9-0.7-6
	c-1.4-2.1-0.3-4.4,1.7-5.9c1.9-1.5,4.7-1.4,6.5,0.2c1.9,1.7,2.2,3.8,1.4,6.1c-0.3,1-2,1.7-1.5,2.5c1.1,1.6,1.4,3.7,3,5
	c1.3,1.1,2.8,2,4.5,2.4c1,0.2,1.9,0.5,2.6,1.3c0.3,0.3,0.5,0.9,1,0.3c1-1.5,2.8-1.5,4.3-2c3.4-1.1,4.5-4.2,6.1-6.8
	c0.5-0.9-0.4-1-0.7-1.5c-1.8-2.6-1.6-5.4,0.5-7.3c2-1.8,5.2-1.7,7.1,0.2c2,2,2.1,5,0.1,7.3c-0.7,0.8-1.1,1.2-0.3,2.1
	c0.8,0.9,0.8,2.1,0.8,3.3c0,7.1,0,14.2,0,21.3c0,3.4-1.8,5.5-4.6,5.5c-2.7,0-4.4-2.2-4.4-5.6C325.3,96.2,325.3,91.9,325.3,87.2z
	 M332.7,89.9c0-3.7,0-7.4,0-11.1c0-1.6-0.8-2.8-2.4-3.1c-1.4-0.3-2.6,0.3-3.1,1.6c-1.4,4-4.4,6-8.3,6.9c-1,0.2-1.6,0.9-1.4,1.9
	c0.2,1.2,1.2,1.5,2.3,1.2c1.7-0.4,3.3-0.9,4.7-1.9c0.6-0.4,1-1.3,1.8-0.9c0.9,0.4,0.5,1.4,0.5,2.2c0,4.5,0.1,9,0,13.5
	c0,2.2,0.3,4.1,2.9,4.3c2,0.2,3-1.4,3-4.5C332.7,96.7,332.7,93.3,332.7,89.9z M299.2,90.2c0,3.4,0,6.8,0,10.2c0,2.8,1.1,4.4,3,4.2
	c2.4-0.2,2.9-2,2.9-4.1c0-4.7,0-9.3,0-14c0-0.7-0.4-1.5,0.5-1.9c0.7-0.3,1.1,0.4,1.6,0.8c1.3,1,2.8,1.5,4.4,1.9
	c1.2,0.3,2.5,0.5,2.8-1.1c0.3-1.4-0.8-1.7-2-2c-3.4-1-6.2-2.7-7.5-6.3c-0.6-1.6-1.7-2.3-3.3-2c-1.6,0.3-2.4,1.5-2.4,3.1
	C299.3,82.7,299.2,86.5,299.2,90.2z M333.7,70.6c0-2-1.5-3.6-3.5-3.7c-2.1-0.1-3.8,1.6-3.8,3.7c0,2,1.6,3.5,3.6,3.6
	C332,74.1,333.6,72.5,333.7,70.6z M305.6,70.6c0.1-1.9-1.5-3.6-3.5-3.7c-2.1-0.1-3.9,1.5-3.8,3.6c0,2,1.6,3.6,3.6,3.6
	C303.8,74.1,305.5,72.5,305.6,70.6z"/>
<g>
	<path class="st6" d="M316,763.8c-5.9,0-11.9,0-17.8,0c-3,0-3.9-1-3.9-4c0-7,0-14,0-21c0-3,1-3.9,4-3.9c3.4,0,6.9,0,10.3,0
		c0.9,0,2.2,0.5,2.6-0.5c0.4-1.1,0.4-2.4-0.4-3.5c-2.1-2.8-4.1-5.5-6.1-8.3c-0.5-0.6-1.5-1.5-0.5-2.2c1-0.7,1.4,0.6,1.9,1.2
		c1.6,2.1,3.2,4.3,4.8,6.5c0.3,0.5,0.6,1.7,1.6,0.7c0.6-0.7,1.5-1.2,0.6-2.3c-1.1-1.4-2-3-3-4.6c-0.3-0.5-0.5-1.1,0.1-1.5
		c0.7-0.4,1,0.2,1.4,0.6c1,1.4,1.9,2.9,2.8,4.3c1.6,2.5,1.8,2.4,3.5-0.1c0.9-1.4,1.9-2.9,2.8-4.3c0.3-0.4,0.6-0.9,1.1-0.6
		c0.7,0.3,0.6,0.9,0.3,1.4c-1,1.5-1.9,3.1-3,4.6c-1,1.3-0.2,1.9,0.6,2.5c1.1,0.9,1.2-0.4,1.6-0.9c1.6-2.1,3.2-4.3,4.8-6.5
		c0.4-0.6,0.8-1.9,1.9-1c0.9,0.7-0.1,1.4-0.5,1.9c-1.9,2.7-3.8,5.3-5.8,7.9c-0.7,0.9-1,1.8-1,2.9c0,1.3,0.3,1.8,1.8,1.8
		c3.8-0.1,7.7,0,11.5,0c2.7,0,3.8,1.2,3.8,3.8c0,7.1,0,14.2,0,21.3c0,3-0.8,3.8-4,3.8C327.6,763.8,321.8,763.8,316,763.8z
		 M295.9,749.4c0,3.4,0.1,6.9,0,10.3c0,1.7,0.5,2.4,2.3,2.4c11.8,0,23.5,0,35.3,0c1.7,0,2.4-0.5,2.4-2.3c0-7,0-14,0-20.9
		c0-1.5-0.4-2.3-2.1-2.3c-3.9,0.1-7.8,0-11.8,0c-1,0-1.7,0.2-1.5,1.4c0.6,3.2-1.1,3.8-3.7,3.4c-0.8-0.1-1.7-0.1-2.6,0
		c-2.2,0.3-3.3-0.4-2.9-2.8c0.3-1.7-0.5-2.1-2.1-2.1c-3.6,0.1-7.3,0.1-10.9,0c-1.9-0.1-2.5,0.7-2.5,2.5
		C296,742.5,295.9,746,295.9,749.4z M318.9,731.6c-0.2-1.7-1.1-2.9-2.9-2.9c-1.8,0-2.9,1-2.9,2.8c0,1.8,1,2.9,2.8,2.9
		C317.7,734.5,318.5,733.3,318.9,731.6z M313.1,735.4c0,1.6-0.7,3.4,0.4,4c1.3,0.6,3.4,0.7,4.7,0.1c1.5-0.6,0.4-2.5,0.7-4.1
		C316.9,736.3,315.1,736.4,313.1,735.4z"/>
	<path class="st6" d="M299.2,758.3c0-2.8,2.4-4.2,3-6.1c0.4-1.4-2.4-3.5-1.8-6.1c0.6-2.4,2-3.9,4.3-4.4c2.5-0.6,4.6,0.2,6,2.3
		c1.4,2.1,1.6,4.4,0,6.4c-1.2,1.4-1.2,2.1,0.3,3.2c1.4,1.1,1.8,2.9,1.9,4.6c0,0.6-0.1,1.3-0.8,1.3c-0.8,0.1-0.8-0.6-0.8-1.2
		c-0.1-1.4-0.5-2.6-1.4-3.6c-1.4-1.5-3.3-2-5.2-1.4c-2.3,0.6-3.4,2.2-3.8,4.5c-0.1,0.7,0.2,1.8-0.9,1.7
		C299,759.6,299.4,758.6,299.2,758.3z M310.2,747.3c0-2.1-1.9-4-4-4.1c-2.2-0.1-4.2,1.9-4.2,4.2c0,2.1,1.9,4,4,4.1
		C308.2,751.5,310.2,749.5,310.2,747.3z"/>
	<path class="st6" d="M323.9,746.5c-2.2,0-4.4,0-6.6,0c-0.6,0-1.3,0-1.3-0.7c0-0.7,0.6-0.9,1.2-0.9c4.6,0,9.2,0,13.8,0
		c0.6,0,1.2,0.2,1.1,0.9c-0.1,0.8-0.8,0.7-1.3,0.7C328.5,746.5,326.2,746.5,323.9,746.5z"/>
	<path class="st6" d="M322.9,751.7c-1.9,0-3.8,0-5.7,0c-0.6,0-1.2,0-1.2-0.9c0.1-0.5,0.6-0.8,1-0.8c3.9,0,7.8,0,11.7,0
		c0.5,0,1,0.2,1,0.8c0,0.8-0.6,0.8-1.2,0.8C326.7,751.7,324.8,751.7,322.9,751.7z"/>
</g>
<path class="st5" d="M424.1,697.7c-5.8,2.1-5.8,2.1-5.8,7.9c0,8.4-1.1,9.7-9.6,10.1c-4.9,0.3-9.8,0.5-14.7-0.6
	c-4.1-0.9-5.6-2.1-5-6.2c1-6.9-1.2-11.1-8.2-12.7c-1.1-0.2-2.2-0.8-2.3-2.1c-0.1-1.5,1.2-1.9,2.3-2.4c7-3.1,13.9-6.2,20.9-9.3
	c1.3-0.6,2.5-0.5,3.7,0.1c6.9,3.2,13.9,6.3,20.8,9.4c2.5,1.1,3.2,2,0.7,4.4c-1.9,1.8-1.3,4.8,0.1,7.2c1.1,1.9,1.8,3.9,2.3,6.1
	c0.3,1.3,0.2,2.5-1.1,3.1c-2,1-4,0.9-6,0.1c-1.3-0.5-1.6-1.7-1.3-3c0.4-1.7,0.7-3.5,1.6-4.9C424.2,702.7,424.6,700.4,424.1,697.7z
	 M380.5,694.2c7.8,3.5,15,6.7,22.1,9.9c0.6,0.3,1.2,0.3,1.8,0c7.2-3.2,14.3-6.4,22.1-9.9c-7.8-3.5-15-6.7-22.2-10
	c-1.2-0.6-2.1,0.2-3,0.6C394.7,687.9,388,690.9,380.5,694.2z M390.9,701c0,3.1,0.2,5.7,0,8.2c-0.2,2.5,1,3.6,3.2,4
	c5.6,1.2,11.3,1,16.9,0.4c5.2-0.6,5.4-1.1,5.4-6.4c0-1.4-0.1-2.8,0-4.3c0.1-1.6-0.5-1.9-1.9-1.2c-2.9,1.3-5.8,2.5-8.6,3.9
	c-1.6,0.8-3,0.7-4.6,0C398,704,394.6,702.6,390.9,701z M425.3,704.6c-1.4,1.2-1.7,2.7-2.1,4.1c-0.2,0.8-1,2,0.3,2.6
	c1.1,0.5,2.4,0.5,3.5-0.1c1.1-0.7,0.3-1.7,0.1-2.6C426.8,707.2,426.4,705.9,425.3,704.6z"/>
<g>
	<path class="st0" d="M419,137.3c4.1,1.6,5.1,4.7,4.8,8.5c-0.1,1.5,0.9,4.1-0.8,4.1c-1.5,0-0.4-2.7-0.7-4.2c-0.2-1.1,0-2.4-0.3-3.5
		c-0.9-3.2-3.9-4.2-9.9-3.6c-2.8,0.3-4.6,2.2-4.7,5.3c-0.1,1.7,0,3.4,0,5.1c0,0.6-0.1,1.2-0.8,1.1c-0.2,0-0.6-0.4-0.7-0.7
		c-1.7-4.3,0.5-10.1,4.6-12.2c-2.8-4.1-2.7-7.3,0.1-9.9c2.5-2.2,6.2-2.1,8.6,0.1C421.8,130,421.8,133.4,419,137.3z M419.6,132.2
		c0-2.7-2.3-5-5-4.9c-2.6,0.1-4.7,2.3-4.8,4.8c0,2.7,2.2,4.9,5,4.9C417.5,137,419.5,134.9,419.6,132.2z"/>
	<path class="st0" d="M398.3,131c-0.4,0.9,0.8,3.1-0.9,3.1c-1.3,0-0.5-2.1-0.6-3.3c-0.1-1.9,0-4.1-2.2-4.8c-2.4-0.7-5-1-7.3,0.4
		c-1.8,1.1-1.2,3.2-1.4,4.9c-0.1,1,0.6,2.8-0.7,2.8c-1.7,0-0.7-1.8-0.8-2.8c-0.2-2.6-0.1-5.1,2.6-6.5c1-0.5,0.4-0.9,0.1-1.4
		c-1.3-2.8-0.9-5.2,1.2-6.7c2-1.4,4-1.4,6,0c2.1,1.5,2.5,3.8,1.2,6.7c-0.3,0.6-0.6,0.8,0.1,1.5C398.3,127.3,398.3,127.3,398.3,131z
		 M394.8,120.7c-0.1-2.1-1.2-3.4-3.3-3.6c-1.9-0.2-3.7,1.5-3.6,3.4c0.1,2,1.3,3.4,3.4,3.4C393.4,124,394.5,122.7,394.8,120.7z"/>
	<path class="st0" d="M402.1,117c-0.6,0.1-1.3,0.3-2.1,0.4c-0.5,0.1-1.2,0.2-1.3-0.5c-0.1-0.6,0.4-0.9,1-1.1c3.4-1,6.4-0.2,9,2.1
		c0.6,0.5,0.9,1.7,2.1,0.7c0.3-0.3,0.8-0.1,0.9,0.3c0.3,1-0.2,2-0.7,2.8c-0.9,1.5-2.1,0.1-3.1-0.1c-0.8-0.2-1.2-0.9-0.2-1.5
		c0.9-0.6,0.1-0.9-0.2-1.1C406,117.7,404.3,117.2,402.1,117z"/>
	<path class="st0" d="M398.2,142.9c-2.5,0-4.2-0.7-5.8-1.7c-0.9-0.6-1.4-1.6-3.1-1.3c-1.4,0.2-0.2-1.9,0.1-2.9
		c0.3-1.1,1.3-0.6,2-0.3c0.7,0.3,2.2,0.4,1.6,1.2c-1.2,1.9,0.5,2.1,1.3,2.5c1.8,1,3.7,1.1,5.7,0.5c0.6-0.2,1.5-0.8,1.8,0.2
		c0.3,1.1-0.8,1.2-1.6,1.4C399.4,142.7,398.6,142.8,398.2,142.9z"/>
</g>
<g>
	<path class="st6" d="M102.2,711.2c0.8-2.8,1.1-4.7,0-6.8c-1-2.1,0.6-3.7,3-5.1c-4.3-0.9-7.5-2.7-9.2-6.3c-1.1-2.3-1.6-4.7-1-7.2
		c1.2-5.4,5.7-9,11.1-8.9c5.3,0.1,9.8,4,10.7,9.4c1,5.8-2.3,10.2-9.9,13.1c2.6,1.7,3.7,3.7,1.8,6.7c-0.8,1.3,0.4,2.8,1,4.4
		c1.4-2.6,2.8-5.3,4.1-8c0.8-1.7,1.5-2,3.4-1.2c4.6,1.8,7.5,4.3,7,9.8c-0.2,2.5,0.4,5.1,0.7,7.7c0.2,1.6-0.3,2.3-2,2.3
		c-11.4,0-22.8-0.1-34.2,0c-1.9,0-2.3-0.7-2.1-2.4c0.4-3.7,0.8-7.4,1-11.1c0.1-2.2,1-3.4,3-4.3c6-2.8,5.9-2.9,8.9,2.9
		C100.4,707.7,101.2,709.2,102.2,711.2z M106,719.5c5.1,0,10.1-0.1,15.2,0c1.9,0,2.3-0.5,1.9-2.3c-0.4-2.3-0.8-4.6-0.7-6.8
		c0.3-3.8-1.5-5.7-4.8-6.9c-1.4-0.5-2.1-0.6-2.8,0.9c-1.5,3.1-3.1,6.1-4.7,9.2c-0.5,0.9-1.6,1.9-1.8,0.2c-0.4-3.1-2.9-6.2-0.6-9.5
		c0.6-0.8,0.2-1.9-0.7-2.5c-0.8-0.6-1.6-0.6-2.4,0c-0.8,0.6-1.3,1.5-0.8,2.2c2.4,3.2-0.1,6.2-0.2,9.3c0,0.5-0.2,1.3-0.8,1.4
		c-0.8,0.2-1.1-0.6-1.4-1.2c-1.6-3-3.1-6.1-4.7-9.2c-0.3-0.6-0.4-1.7-1.8-1.2c-4,1.3-5.2,2.7-5.6,6.9c-0.2,2.5-0.4,5-0.8,7.4
		c-0.3,1.7,0.3,2.1,1.9,2.1C95.6,719.4,100.8,719.5,106,719.5z M115.3,688.1c0-5.2-4.2-9.5-9.5-9.4c-5.1,0-9.3,4.1-9.4,9.2
		c-0.1,5.2,4.1,9.5,9.3,9.6C110.9,697.6,115.3,693.3,115.3,688.1z"/>
	<path class="st6" d="M116.7,712.7c-0.8-0.2-2.2,0.4-2.2-0.8c0.1-1.5,1.6-0.8,2.5-0.9c0.8-0.1,2.2-0.3,2.1,0.7
		C119.1,713.4,117.5,712.4,116.7,712.7z"/>
</g>
<g>
	<path class="st6" d="M85.2,129.8c0-7,4.1-13.1,10.6-15.8c6.4-2.7,13.8-1.2,18.6,3.8c4.9,5,6.4,12.3,3.5,18.7
		c-0.9,1.9-0.7,2.9,0.8,4.3c2.4,2.1,4.4,4.5,6.7,6.6c1.3,1.2,1.5,2.1,0.1,3.2c-0.6,0.4-1.1,1-1.5,1.5c-1,1.3-1.9,1.3-3,0.1
		c-2.3-2.4-4.7-4.7-7-7.1c-1.1-1.2-1.9-1.2-3.4-0.4C99.1,151,85.3,142.8,85.2,129.8z M117.8,129.8c0-8.5-6.8-15.5-15.3-15.6
		c-8.6-0.1-15.7,6.8-15.8,15.4c-0.1,8.5,7,15.7,15.6,15.6C110.8,145.2,117.7,138.3,117.8,129.8z M115.6,139.9
		c-0.5,0.7-0.9,1.4-1.4,2c-0.6,0.7-0.1,1.1,0.3,1.5c2.3,2.3,4.6,4.5,6.8,6.9c1,1.1,1.5,0.6,2.3-0.2c0.9-0.8,1-1.4,0-2.3
		c-2.3-2.1-4.4-4.4-6.7-6.6C116.7,140.9,116.4,140.6,115.6,139.9z"/>
	<path class="st6" d="M115.2,129.6c0.1,7.2-5.7,13.1-12.9,13.1c-7.1,0-13.1-5.9-13.1-13c0-7.1,5.8-12.9,12.8-12.9
		C109.3,116.7,115.2,122.4,115.2,129.6z M102.1,118.4c-6.2,0-11.3,5.1-11.3,11.4c0,6.3,5.2,11.5,11.6,11.4
		c6.2-0.1,11.2-5.1,11.2-11.4C113.6,123.3,108.6,118.3,102.1,118.4z"/>
	<path class="st6" d="M108.2,136.4c0,0.2,0.2,0.9-0.5,1.1c-0.9,0.2-0.9-0.6-1-1.2c-0.3-2.6-1.7-4.1-4.3-4.3
		c-2.4-0.1-3.8,1.3-4.5,4.4c-0.1,0.5-0.1,1.2-0.8,1.2c-0.8,0-0.8-0.8-0.8-1.4c0.1-2.1,2.3-3.5,2.6-5c0.2-1.4-2.1-3.2-1.5-5.3
		c0.6-2.1,2-3.4,4.1-3.8c2-0.4,3.7,0.4,4.9,2.1c1.2,1.7,1.4,3.7,0.2,5.3c-1.1,1.5-1,2.2,0.4,3.3
		C107.9,133.5,108.2,134.8,108.2,136.4z M102.4,123.4c-2.1,0-3.7,1.6-3.6,3.5c0.1,2.1,1.2,3.3,3.3,3.5c1.9,0.1,3.7-1.6,3.5-3.5
		C105.5,124.7,104.3,123.6,102.4,123.4z"/>
</g>
</svg>
