<?xml version="1.0" encoding="utf-8"?>
<!-- Generator: Adobe Illustrator 22.0.0, SVG Export Plug-In . SVG Version: 6.00 Build 0)  -->
<svg version="1.1" id="Layer_1" xmlns="http://www.w3.org/2000/svg" xmlns:xlink="http://www.w3.org/1999/xlink" x="0px" y="0px"
	 viewBox="0 0 1033 454" style="enable-background:new 0 0 1033 454;" xml:space="preserve">
<style type="text/css">
	.st0{fill:#E55626;}
	.st1{fill:#FFFFFF;}
	.st2{fill:#009999;stroke:#000000;stroke-width:3;stroke-miterlimit:10;}
	.st3{fill:#606060;}
	.st4{fill:none;stroke:#000000;stroke-width:3;stroke-miterlimit:10;}
	.st5{fill:#009999;}
	.st6{fill:#1B1B1B;}
	.st7{stroke:#000000;stroke-miterlimit:10;}
</style>
<g>
	<circle class="st0" cx="515.7" cy="170.8" r="81.2"/>
	<g>
		<path class="st1" d="M528.9,151.6v5.2h5.2l0.9-6.1C535,150.7,528.9,149.9,528.9,151.6z"/>
		<path class="st1" d="M502.7,151.6v5.2h-5.2v-6.1C497.4,150.7,502.7,149,502.7,151.6z"/>
		<path class="st1" d="M507.9,134.1l0.9-5.2h7.9h5.2l1.7,6.1l6.1,0.9l-0.9-7.9l-2.6-5.2l-7-1.7l-9.6,0.9c-0.9,0-6.1,2.6-6.1,2.6
			l-0.9,3.5l-0.9,6.1l2.6,1.7C504.4,135.9,507,136.8,507.9,134.1z"/>
		<polygon class="st1" points="559.4,204 556.8,204.9 556.8,208.4 557.7,212.8 562.1,210.1 		"/>
		<polygon class="st1" points="486.9,170.8 473.8,174.3 477.3,177.8 509.6,185.7 514.9,187.4 545.5,180.4 559.4,175.2 549.8,171.7 
			544.6,170 540.2,172.6 499.2,172.6 488.7,171.7 		"/>
		<polygon class="st1" points="543.7,135.9 544.6,145.5 541.1,149.9 524.5,151.6 520.1,149.9 520.1,143.7 510.5,143.7 510.5,149.9 
			502.7,150.7 488.7,149 487.8,141.1 488.7,135.9 		"/>
		<g>
			<path d="M482.2,207c0-1.5,0-2.3,0-3.4c2.5,0,5,0,7.8,0c0.1-1.2,0.1-2.1,0.1-3.3c-4.3,0-8.4,0-12.7,0c0-1.2,0-2.1,0-3.3
				c4.2,0,8.3,0,12.5,0c0-1.1,0-1.9,0-3.1c-5.7,0-11.4,0-17.3,0c0-1.1,0-2,0-3.2c5.7,0,11.4,0,17.4,0c0-2.6,0.1-4.9-0.1-7.2
				c-0.1-0.6-1.1-1.3-1.8-1.5c-5.7-1.6-11.5-3-17.3-4.5c-0.4-0.1-0.9-0.1-1.2-0.3c-0.7-0.5-1.3-1.1-1.9-1.7c0.6-0.6,1.2-1.5,1.9-1.7
				c4.3-1.2,8.7-2.3,13.1-3.5c0.9-0.2,1.8-0.5,2.6-0.7c0-10.5,0-20.8,0-31.1c0-3.9,0-3.9,4-3.9c3.3,0,6.6,0,10.4,0
				c0-1.2,0-2.2,0-3.1c0.2-6.3,4.6-10.9,10.9-11.2c3.3-0.1,6.7-0.1,10,0c6.3,0.3,10.8,4.9,11,11.2c0,0.9,0,1.8,0,3.1
				c10.7,0,21.2,0,31.9,0c0,1.2,0,2.1,0,3.3c-5.7,0-11.4,0-17.3,0c0,1.1,0,2,0,3.2c4.1,0,8.1,0,12.4,0c0.1,1.1,0.1,2,0.2,3.1
				c-4.2,0-8.3,0-12.6,0c-0.1,1.1-0.1,2-0.2,3.2c2.7,0,5.2,0,7.9,0c0.1,1.2,0.1,2.1,0.2,3.3c-2.6,0-5.1,0-7.9,0c0,6.5,0,12.6,0,19.1
				c4.6,1.2,9.5,2.5,14.3,3.7c0.7,0.2,1.4,0.2,1.9,0.6c0.5,0.3,1.1,1,1.1,1.5c0,0.5-0.6,1.4-1.1,1.5c-2.2,0.3-2,1.9-2,3.4
				c0,5.5,0.1,10.9,0,16.4c-0.1,3.3,0.4,6.3,2.2,9c1.2,1.8,1.1,3.4,0,5.2c-0.9,1.4-1.4,2.9-2.2,4.3c-0.9,1.5-2.1,1.5-2.9,0
				c-1.2-2-2.2-4.1-3-6.2c-0.3-0.6,0-1.7,0.4-2.4c2.4-3.5,2.7-7.4,2.5-11.5c-0.2-5.5,0-11,0-16.8c-5.1,1.3-9.9,2.5-14.6,3.8
				c-0.6,0.2-1.2,1.5-1.3,2.2c-0.1,6.3-0.2,12.6,0,18.9c0.1,2.2-0.8,3.1-2.8,3.8c-7,2.2-13.9,4.6-20.9,6.8c-1.2,0.4-2.7,0.4-3.9,0
				c-3.2-0.9-6.3-2.1-9.5-3.1C497.2,208.6,490.4,205.2,482.2,207z M538.1,183.3c-2.3,0.6-4.1,1-5.9,1.4c-5.5,1.4-11,3.9-16.6,3.9
				c-5.5,0-11-2.5-16.6-3.9c-1.9-0.5-3.7-0.9-5.9-1.4c0,6.7-0.1,13,0.1,19.2c0,0.6,1.1,1.6,1.9,1.8c6.3,2.2,12.6,4.3,18.9,6.3
				c0.8,0.3,1.9,0.4,2.7,0.2c6.6-2.1,13.3-4.3,19.8-6.6c0.6-0.2,1.4-1.1,1.4-1.7C538.2,196.3,538.1,190,538.1,183.3z M505.4,152.4
				c-2.2,2,1.3,5.8-3.1,6.1c-2.2,0.2-4.8,0.5-6.4-0.5c-1.2-0.7-0.9-3.6-1.3-5.5c-1.9-0.5-3.9-0.9-6-1.4c0,4.8,0,9.7,0,14.5
				c0,4,1.7,5.7,5.8,5.7c5.4,0,10.7,0,16.1,0c9,0,18.1,0,27.1,0c2.7,0,5-1.4,5.1-3.6c0.2-5.5,0.1-11.1,0.1-16.6
				c-2.2,0.5-4.1,1-5.9,1.4c-1.4,1.9,1.7,5.8-2.8,6c-2.2,0.1-4.8,0.4-6.4-0.6c-1-0.6-0.7-3.5-1-5.5
				C519.4,152.4,512.1,152.4,505.4,152.4z M542.9,138.1c-18.3,0-36.2,0-54.3,0c0,2.1,0,4.1,0,6c0.1,2.9,1.8,4.7,4.8,4.9
				c2,0.1,4.1,0,6.1,0c3.2,0,6.4,0,9.8,0c0-1.5,0-2.6,0-3.7c-0.1-1.9,0.6-2.8,2.7-2.7c2.6,0.1,5.1,0.1,7.7,0
				c1.8-0.1,2.5,0.7,2.5,2.4c0,1.2,0,2.5,0,3.9c5.8,0,11.1,0.1,16.4,0c2.5-0.1,4.2-2,4.3-4.6C542.9,142.4,542.9,140.3,542.9,138.1z
				 M477,175.1c0,0.2,0,0.4,0,0.5c0.7,0.2,1.4,0.5,2.2,0.7c11.3,2.9,22.6,5.9,33.9,8.7c1.6,0.4,3.6,0.4,5.2,0
				c6.2-1.4,12.4-3.1,18.6-4.7c5.9-1.5,11.8-3.1,17.7-4.6c-3.4-1.5-6.8-2.4-10.2-3.2c-0.4-0.1-0.9,0.3-1.4,0.5
				c-2.1,0.6-4.2,1.6-6.3,1.6c-13.6,0.1-27.1,0.1-40.7,0.1c-2.7,0-5.5,0-7.8-1.9c-0.3-0.3-1-0.3-1.4-0.2
				C483.5,173.4,480.3,174.3,477,175.1z M503.1,134.4c1,0,1.9,0,2.9,0c0-0.8,0.1-1.3,0.1-1.9c0.1-4.2,1.7-5.8,6-5.8
				c1.9,0,3.7,0,5.6,0c6.5,0,7.4,0.9,7.7,7.2c0,0.1,0.1,0.3,0.3,0.5c0.8,0,1.7,0,2.6,0c0.9-7.4-2.2-11-9.4-11c-2,0-4.1,0-6.1,0
				C505.4,123.5,502.4,126.9,503.1,134.4z M521.9,134.5c0.5-4.3,0.3-4.6-3.8-4.6c-1.6,0-3.2,0-4.8,0c-4,0-4.3,0.4-3.6,4.6
				C513.6,134.5,517.7,134.5,521.9,134.5z M512.7,148.9c2.2,0,4.1,0,6,0c0-1.1,0-1.9,0-2.9c-2.1,0-4,0-6,0
				C512.7,147,512.7,147.8,512.7,148.9z M498.3,155.3c1.2,0,2,0,2.9,0c0-1,0-1.9,0-2.8c-1.1,0-1.9,0-2.9,0
				C498.3,153.5,498.3,154.3,498.3,155.3z M530.2,155.3c1.1,0,2,0,2.9,0c0-1,0-1.9,0-2.8c-1,0-1.9,0-2.9,0
				C530.2,153.4,530.2,154.3,530.2,155.3z M558.3,210.5c0.4,0,0.8,0,1.3,0c0-1.5,0-3.1,0-4.6c-0.4,0-0.8,0-1.3,0
				C558.3,207.4,558.3,209,558.3,210.5z"/>
			<path d="M526.7,168.1c-1,0-1.9,0-2.8,0c0-1,0-1.9,0-2.9c1,0,1.9,0,2.8,0C526.7,166.3,526.7,167.2,526.7,168.1z"/>
			<path d="M533.3,168.1c-1.2,0-2,0-3.1,0c0-0.9-0.1-1.8-0.1-2.9c1-0.1,1.9-0.1,3.1-0.2C533.2,166.1,533.2,167,533.3,168.1z"/>
			<path d="M536.6,165.2c1.2,0,2,0,3,0c0,0.9,0,1.8,0,2.9c-0.8,0-1.7,0-2.9,0C536.6,167.2,536.6,166.3,536.6,165.2z"/>
		</g>
	</g>
	<circle class="st2" cx="428" cy="111.6" r="5.9"/>
	<circle class="st2" cx="443.3" cy="254.6" r="5.9"/>
	<circle class="st2" cx="587.6" cy="253.7" r="5.9"/>
	<circle class="st2" cx="600.6" cy="108.3" r="5.9"/>
	<g>
		<path class="st3" d="M371.2,104.2c0.6,0.5,0.9,1.2,0.9,2.2c0,1-0.3,1.7-0.9,2.3c-0.6,0.5-1.4,0.8-2.5,0.8h-1.9v2.5h-1.6v-8.6h3.5
			C369.8,103.5,370.6,103.7,371.2,104.2z M370.1,107.7c0.3-0.3,0.5-0.7,0.5-1.2c0-0.5-0.2-0.9-0.5-1.2c-0.3-0.3-0.8-0.4-1.4-0.4
			h-1.8v3.2h1.8C369.3,108.1,369.7,107.9,370.1,107.7z"/>
		<path class="st3" d="M375.7,105.8c0.4-0.2,0.8-0.3,1.3-0.3v1.5c-0.7,0-1.2,0.1-1.6,0.5c-0.4,0.4-0.6,0.8-0.6,1.4v3.2h-1.6v-6.6
			h1.6v1.3C375,106.3,375.3,106,375.7,105.8z"/>
		<path class="st3" d="M381.5,112.1v-0.8c-0.2,0.3-0.5,0.5-0.9,0.7c-0.4,0.1-0.8,0.2-1.2,0.2c-0.5,0-0.9-0.1-1.2-0.3
			c-0.3-0.2-0.6-0.4-0.8-0.7c-0.2-0.3-0.3-0.7-0.3-1c0-0.6,0.2-1.1,0.7-1.4c0.4-0.3,1-0.5,1.8-0.5h1.9v-0.2c0-0.4-0.1-0.7-0.4-0.9
			c-0.3-0.2-0.6-0.3-1.1-0.3c-0.6,0-1.3,0.2-2,0.6l-0.6-1.1c0.5-0.3,1-0.5,1.4-0.6s0.9-0.2,1.5-0.2c0.9,0,1.5,0.2,2,0.6
			c0.5,0.4,0.7,1,0.7,1.7l0,4.3H381.5z M381,110.6c0.3-0.2,0.5-0.5,0.6-0.8v-0.6h-1.7c-0.4,0-0.7,0.1-0.9,0.2
			c-0.2,0.1-0.3,0.3-0.3,0.6c0,0.3,0.1,0.5,0.3,0.7c0.2,0.2,0.5,0.2,0.9,0.2C380.3,110.9,380.7,110.8,381,110.6z"/>
		<path class="st3" d="M387.5,106.8c-0.5,0-1,0.2-1.3,0.5c-0.3,0.4-0.5,0.8-0.5,1.4c0,0.6,0.2,1.1,0.5,1.4c0.3,0.4,0.8,0.5,1.3,0.5
			c0.8,0,1.4-0.3,1.8-0.8l1,0.8c-0.3,0.4-0.7,0.8-1.2,1c-0.5,0.2-1,0.3-1.7,0.3c-0.6,0-1.2-0.1-1.7-0.4c-0.5-0.3-0.9-0.7-1.2-1.2
			c-0.3-0.5-0.4-1.1-0.4-1.7c0-0.7,0.1-1.3,0.4-1.8c0.3-0.5,0.7-0.9,1.2-1.2c0.5-0.3,1.1-0.4,1.7-0.4c0.6,0,1.1,0.1,1.6,0.3
			c0.5,0.2,0.9,0.5,1.1,0.9l-1,0.9C388.8,107.1,388.2,106.8,387.5,106.8z"/>
		<path class="st3" d="M395.2,111.7c-0.5,0.3-1.1,0.5-1.6,0.5c-0.6,0-1-0.2-1.4-0.5c-0.4-0.3-0.5-0.8-0.5-1.5v-3.2h-0.9l0-1.2h0.9
			v-1.8h1.6v1.8h1.9v1.2h-1.9v3c0,0.3,0.1,0.5,0.2,0.6c0.1,0.1,0.3,0.2,0.5,0.2c0.2,0,0.6-0.1,0.9-0.3L395.2,111.7z"/>
		<path class="st3" d="M397.7,102.9c0.2,0.2,0.3,0.4,0.3,0.7c0,0.3-0.1,0.5-0.3,0.7c-0.2,0.2-0.4,0.3-0.7,0.3
			c-0.3,0-0.5-0.1-0.7-0.3c-0.2-0.2-0.3-0.4-0.3-0.7c0-0.3,0.1-0.5,0.3-0.7c0.2-0.2,0.4-0.3,0.7-0.3
			C397.3,102.7,397.5,102.7,397.7,102.9z M396.2,105.5h1.6v6.6h-1.6V105.5z"/>
		<path class="st3" d="M402.4,106.8c-0.5,0-1,0.2-1.3,0.5c-0.3,0.4-0.5,0.8-0.5,1.4c0,0.6,0.2,1.1,0.5,1.4c0.3,0.4,0.8,0.5,1.3,0.5
			c0.8,0,1.4-0.3,1.8-0.8l1,0.8c-0.3,0.4-0.7,0.8-1.2,1c-0.5,0.2-1,0.3-1.7,0.3c-0.6,0-1.2-0.1-1.7-0.4c-0.5-0.3-0.9-0.7-1.2-1.2
			c-0.3-0.5-0.4-1.1-0.4-1.7c0-0.7,0.1-1.3,0.4-1.8s0.7-0.9,1.2-1.2c0.5-0.3,1.1-0.4,1.7-0.4c0.6,0,1.1,0.1,1.6,0.3
			c0.5,0.2,0.9,0.5,1.1,0.9l-1,0.9C403.6,107.1,403.1,106.8,402.4,106.8z"/>
		<path class="st3" d="M411.1,106.3c0.5,0.6,0.8,1.4,0.8,2.5c0,0.2,0,0.4,0,0.5H407c0.1,0.5,0.3,0.8,0.7,1.1
			c0.3,0.3,0.7,0.4,1.2,0.4c0.3,0,0.7-0.1,1-0.2c0.3-0.1,0.6-0.3,0.8-0.5l0.9,0.9c-0.3,0.4-0.7,0.6-1.2,0.8c-0.5,0.2-1,0.3-1.6,0.3
			c-0.7,0-1.3-0.1-1.8-0.4c-0.5-0.3-0.9-0.7-1.2-1.2s-0.4-1.1-0.4-1.7c0-0.7,0.1-1.2,0.4-1.7c0.3-0.5,0.7-0.9,1.2-1.2
			c0.5-0.3,1.1-0.4,1.7-0.4C409.8,105.4,410.6,105.7,411.1,106.3z M410.4,108.3c0-0.5-0.2-0.9-0.5-1.2c-0.3-0.3-0.7-0.4-1.2-0.4
			c-0.5,0-0.9,0.1-1.2,0.4c-0.3,0.3-0.5,0.7-0.6,1.2H410.4z"/>
	</g>
	<g>
		<path class="st3" d="M620.6,105c-0.5-0.1-0.9-0.2-1.2-0.2c-0.4,0-0.7,0.1-0.9,0.2c-0.2,0.1-0.3,0.4-0.3,0.6c0,0.2,0.1,0.4,0.2,0.6
			c0.2,0.2,0.4,0.3,0.6,0.4s0.6,0.2,1,0.3c0.6,0.2,1.1,0.3,1.4,0.5c0.4,0.2,0.7,0.4,1,0.8c0.3,0.3,0.4,0.8,0.4,1.3
			c0,0.5-0.1,1-0.4,1.4c-0.3,0.4-0.7,0.7-1.2,0.9c-0.5,0.2-1.1,0.3-1.7,0.3c-0.7,0-1.3-0.1-2-0.4c-0.6-0.2-1.2-0.6-1.7-1l0.7-1.4
			c0.4,0.4,0.9,0.7,1.5,0.9c0.5,0.2,1,0.3,1.5,0.3c0.5,0,0.8-0.1,1.1-0.3c0.3-0.2,0.4-0.4,0.4-0.7c0-0.2-0.1-0.4-0.2-0.6
			c-0.2-0.2-0.4-0.3-0.6-0.4c-0.2-0.1-0.6-0.2-1-0.3c-0.6-0.2-1.1-0.3-1.4-0.5c-0.4-0.2-0.7-0.4-0.9-0.7c-0.3-0.3-0.4-0.8-0.4-1.3
			c0-0.5,0.1-0.9,0.4-1.3c0.3-0.4,0.6-0.7,1.1-0.9c0.5-0.2,1.1-0.3,1.7-0.3c0.6,0,1.1,0.1,1.7,0.2c0.5,0.2,1,0.4,1.5,0.7l-0.7,1.4
			C621.5,105.4,621.1,105.2,620.6,105z"/>
		<path class="st3" d="M630,105.5v6.6h-1.6v-1.2c-0.4,0.9-1.2,1.3-2.3,1.3c-0.7,0-1.3-0.2-1.7-0.7c-0.4-0.5-0.6-1.1-0.6-1.8v-4.1
			h1.6v3.7c0,0.5,0.1,0.8,0.4,1.1s0.6,0.4,1,0.4c0.5,0,0.9-0.2,1.2-0.5c0.3-0.4,0.4-0.8,0.4-1.3v-3.2H630z"/>
		<path class="st3" d="M634.6,106.8c-0.5,0-1,0.2-1.3,0.5c-0.3,0.4-0.5,0.8-0.5,1.4c0,0.6,0.2,1.1,0.5,1.4c0.3,0.4,0.8,0.5,1.3,0.5
			c0.8,0,1.4-0.3,1.8-0.8l1,0.8c-0.3,0.4-0.7,0.8-1.2,1c-0.5,0.2-1,0.3-1.7,0.3c-0.6,0-1.2-0.1-1.7-0.4c-0.5-0.3-0.9-0.7-1.2-1.2
			c-0.3-0.5-0.4-1.1-0.4-1.7c0-0.7,0.1-1.3,0.4-1.8s0.7-0.9,1.2-1.2c0.5-0.3,1.1-0.4,1.7-0.4c0.6,0,1.1,0.1,1.6,0.3
			c0.5,0.2,0.9,0.5,1.1,0.9l-1,0.9C635.9,107.1,635.3,106.8,634.6,106.8z"/>
		<path class="st3" d="M641,106.8c-0.5,0-1,0.2-1.3,0.5c-0.3,0.4-0.5,0.8-0.5,1.4c0,0.6,0.2,1.1,0.5,1.4c0.3,0.4,0.8,0.5,1.3,0.5
			c0.8,0,1.4-0.3,1.8-0.8l1,0.8c-0.3,0.4-0.7,0.8-1.2,1c-0.5,0.2-1,0.3-1.7,0.3c-0.6,0-1.2-0.1-1.7-0.4c-0.5-0.3-0.9-0.7-1.2-1.2
			c-0.3-0.5-0.4-1.1-0.4-1.7c0-0.7,0.1-1.3,0.4-1.8c0.3-0.5,0.7-0.9,1.2-1.2c0.5-0.3,1.1-0.4,1.7-0.4c0.6,0,1.1,0.1,1.6,0.3
			c0.5,0.2,0.9,0.5,1.1,0.9l-1,0.9C642.3,107.1,641.7,106.8,641,106.8z"/>
		<path class="st3" d="M649.8,106.3c0.5,0.6,0.8,1.4,0.8,2.5c0,0.2,0,0.4,0,0.5h-4.9c0.1,0.5,0.3,0.8,0.7,1.1
			c0.3,0.3,0.7,0.4,1.2,0.4c0.3,0,0.7-0.1,1-0.2c0.3-0.1,0.6-0.3,0.8-0.5l0.9,0.9c-0.3,0.4-0.7,0.6-1.2,0.8c-0.5,0.2-1,0.3-1.6,0.3
			c-0.7,0-1.3-0.1-1.8-0.4c-0.5-0.3-0.9-0.7-1.2-1.2s-0.4-1.1-0.4-1.7c0-0.7,0.1-1.2,0.4-1.7c0.3-0.5,0.7-0.9,1.2-1.2
			c0.5-0.3,1.1-0.4,1.7-0.4C648.5,105.4,649.3,105.7,649.8,106.3z M649.1,108.3c0-0.5-0.2-0.9-0.5-1.2c-0.3-0.3-0.7-0.4-1.2-0.4
			c-0.5,0-0.9,0.1-1.2,0.4c-0.3,0.3-0.5,0.7-0.6,1.2H649.1z"/>
		<path class="st3" d="M654.6,106.8c-0.3-0.1-0.7-0.2-0.9-0.2c-0.3,0-0.5,0-0.6,0.1c-0.2,0.1-0.2,0.2-0.2,0.4c0,0.2,0.1,0.4,0.3,0.5
			c0.2,0.1,0.5,0.2,1,0.4c0.5,0.1,0.8,0.3,1.1,0.4c0.3,0.1,0.6,0.3,0.8,0.6c0.2,0.3,0.3,0.6,0.3,1.1c0,0.6-0.2,1.1-0.7,1.5
			c-0.5,0.3-1.1,0.5-1.9,0.5c-0.5,0-1-0.1-1.5-0.2c-0.5-0.2-0.9-0.4-1.2-0.7l0.6-1.1c0.3,0.3,0.6,0.5,1.1,0.6
			c0.4,0.1,0.8,0.2,1.2,0.2c0.3,0,0.5-0.1,0.7-0.2c0.2-0.1,0.3-0.3,0.3-0.5c0-0.2-0.1-0.4-0.3-0.5c-0.2-0.1-0.5-0.2-1-0.4
			c-0.4-0.1-0.8-0.3-1.1-0.4c-0.3-0.1-0.5-0.3-0.7-0.6c-0.2-0.3-0.3-0.6-0.3-1c0-0.6,0.2-1.1,0.7-1.5c0.5-0.3,1.1-0.5,1.8-0.5
			c0.4,0,0.9,0.1,1.3,0.2c0.4,0.1,0.8,0.3,1.1,0.5l-0.6,1.2C655.3,107.1,655,106.9,654.6,106.8z"/>
		<path class="st3" d="M660.3,106.8c-0.3-0.1-0.7-0.2-0.9-0.2c-0.3,0-0.5,0-0.6,0.1c-0.2,0.1-0.2,0.2-0.2,0.4c0,0.2,0.1,0.4,0.3,0.5
			c0.2,0.1,0.5,0.2,1,0.4c0.5,0.1,0.8,0.3,1.1,0.4c0.3,0.1,0.6,0.3,0.8,0.6c0.2,0.3,0.3,0.6,0.3,1.1c0,0.6-0.2,1.1-0.7,1.5
			c-0.5,0.3-1.1,0.5-1.9,0.5c-0.5,0-1-0.1-1.5-0.2c-0.5-0.2-0.9-0.4-1.2-0.7l0.6-1.1c0.3,0.3,0.6,0.5,1.1,0.6
			c0.4,0.1,0.8,0.2,1.2,0.2c0.3,0,0.5-0.1,0.7-0.2c0.2-0.1,0.3-0.3,0.3-0.5c0-0.2-0.1-0.4-0.3-0.5c-0.2-0.1-0.5-0.2-1-0.4
			c-0.4-0.1-0.8-0.3-1.1-0.4c-0.3-0.1-0.5-0.3-0.7-0.6c-0.2-0.3-0.3-0.6-0.3-1c0-0.6,0.2-1.1,0.7-1.5c0.5-0.3,1.1-0.5,1.8-0.5
			c0.4,0,0.9,0.1,1.3,0.2c0.4,0.1,0.8,0.3,1.1,0.5l-0.6,1.2C661,107.1,660.6,106.9,660.3,106.8z"/>
	</g>
	<g>
		<path class="st3" d="M602.7,248.8h6.3v1.4h-4.7v2.1h4.2v1.4h-4.2v2.2h4.8v1.4h-6.5V248.8z"/>
		<path class="st3" d="M609.8,250.8h1.8l1.4,2.1l1.4-2.1h1.8l-2.1,3.2l2.2,3.4h-1.8l-1.5-2.3l-1.6,2.3h-1.8l2.3-3.4L609.8,250.8z"/>
		<path class="st3" d="M622.8,251.2c0.5,0.3,0.8,0.7,1.1,1.2s0.4,1.1,0.4,1.8c0,0.7-0.1,1.2-0.4,1.7c-0.3,0.5-0.6,0.9-1.1,1.2
			c-0.5,0.3-1,0.4-1.6,0.4c-0.5,0-0.9-0.1-1.3-0.3c-0.4-0.2-0.7-0.5-0.9-0.8v3.5h-1.6v-9h1.6v1.1c0.2-0.4,0.5-0.6,0.9-0.8
			c0.4-0.2,0.8-0.3,1.3-0.3C621.8,250.7,622.3,250.9,622.8,251.2z M622.1,255.5c0.3-0.4,0.5-0.8,0.5-1.4c0-0.6-0.2-1.1-0.5-1.4
			c-0.3-0.4-0.8-0.6-1.3-0.6c-0.5,0-1,0.2-1.3,0.6c-0.3,0.4-0.5,0.8-0.5,1.4c0,0.6,0.2,1.1,0.5,1.4c0.3,0.4,0.8,0.6,1.3,0.6
			C621.3,256.1,621.8,255.9,622.1,255.5z"/>
		<path class="st3" d="M630.5,251.6c0.5,0.6,0.8,1.4,0.8,2.5c0,0.2,0,0.4,0,0.5h-4.9c0.1,0.5,0.3,0.8,0.7,1.1
			c0.3,0.3,0.7,0.4,1.2,0.4c0.3,0,0.7-0.1,1-0.2c0.3-0.1,0.6-0.3,0.8-0.5l0.9,0.9c-0.3,0.4-0.7,0.6-1.2,0.8s-1,0.3-1.6,0.3
			c-0.7,0-1.3-0.1-1.8-0.4c-0.5-0.3-0.9-0.7-1.2-1.2s-0.4-1.1-0.4-1.7c0-0.7,0.1-1.2,0.4-1.7c0.3-0.5,0.7-0.9,1.2-1.2
			c0.5-0.3,1.1-0.4,1.7-0.4C629.2,250.7,630,251,630.5,251.6z M629.8,253.6c0-0.5-0.2-0.9-0.5-1.2c-0.3-0.3-0.7-0.4-1.2-0.4
			c-0.5,0-0.9,0.1-1.2,0.4c-0.3,0.3-0.5,0.7-0.6,1.2H629.8z"/>
		<path class="st3" d="M634.9,251.1c0.4-0.2,0.8-0.3,1.3-0.3v1.5c-0.7,0-1.2,0.1-1.6,0.5c-0.4,0.4-0.6,0.8-0.6,1.4v3.2h-1.6v-6.6
			h1.6v1.3C634.3,251.6,634.6,251.3,634.9,251.1z"/>
		<path class="st3" d="M638.6,248.2c0.2,0.2,0.3,0.4,0.3,0.7c0,0.3-0.1,0.5-0.3,0.7c-0.2,0.2-0.4,0.3-0.7,0.3
			c-0.3,0-0.5-0.1-0.7-0.3c-0.2-0.2-0.3-0.4-0.3-0.7c0-0.3,0.1-0.5,0.3-0.7c0.2-0.2,0.4-0.3,0.7-0.3
			C638.2,248,638.4,248.1,638.6,248.2z M637.1,250.8h1.6v6.6h-1.6V250.8z"/>
		<path class="st3" d="M645.6,251.6c0.5,0.6,0.8,1.4,0.8,2.5c0,0.2,0,0.4,0,0.5h-4.9c0.1,0.5,0.3,0.8,0.7,1.1
			c0.3,0.3,0.7,0.4,1.2,0.4c0.3,0,0.7-0.1,1-0.2c0.3-0.1,0.6-0.3,0.8-0.5l0.9,0.9c-0.3,0.4-0.7,0.6-1.2,0.8c-0.5,0.2-1,0.3-1.6,0.3
			c-0.7,0-1.3-0.1-1.8-0.4c-0.5-0.3-0.9-0.7-1.2-1.2c-0.3-0.5-0.4-1.1-0.4-1.7c0-0.7,0.1-1.2,0.4-1.7s0.7-0.9,1.2-1.2
			c0.5-0.3,1.1-0.4,1.7-0.4C644.3,250.7,645.1,251,645.6,251.6z M644.9,253.6c0-0.5-0.2-0.9-0.5-1.2c-0.3-0.3-0.7-0.4-1.2-0.4
			c-0.5,0-0.9,0.1-1.2,0.4c-0.3,0.3-0.5,0.7-0.6,1.2H644.9z"/>
		<path class="st3" d="M653.2,251.4c0.4,0.5,0.7,1.1,0.7,1.8v4.1h-1.6v-3.6c0-0.5-0.1-0.8-0.4-1.1c-0.3-0.3-0.6-0.4-1.1-0.4
			c-0.5,0-1,0.2-1.3,0.5c-0.3,0.4-0.5,0.8-0.5,1.4v3.2h-1.6v-6.6h1.6v1.2c0.5-0.8,1.2-1.3,2.4-1.3
			C652.2,250.7,652.8,251,653.2,251.4z"/>
		<path class="st3" d="M658.2,252.1c-0.5,0-1,0.2-1.3,0.5c-0.3,0.4-0.5,0.8-0.5,1.4c0,0.6,0.2,1.1,0.5,1.4c0.3,0.4,0.8,0.5,1.3,0.5
			c0.8,0,1.4-0.3,1.8-0.8l1,0.8c-0.3,0.4-0.7,0.8-1.2,1c-0.5,0.2-1,0.3-1.7,0.3c-0.6,0-1.2-0.1-1.7-0.4c-0.5-0.3-0.9-0.7-1.2-1.2
			c-0.3-0.5-0.4-1.1-0.4-1.7c0-0.7,0.1-1.3,0.4-1.8c0.3-0.5,0.7-0.9,1.2-1.2c0.5-0.3,1.1-0.4,1.7-0.4c0.6,0,1.1,0.1,1.6,0.3
			c0.5,0.2,0.9,0.5,1.1,0.9l-1,0.9C659.5,252.4,659,252.1,658.2,252.1z"/>
		<path class="st3" d="M667,251.6c0.5,0.6,0.8,1.4,0.8,2.5c0,0.2,0,0.4,0,0.5h-4.9c0.1,0.5,0.3,0.8,0.7,1.1c0.3,0.3,0.7,0.4,1.2,0.4
			c0.3,0,0.7-0.1,1-0.2c0.3-0.1,0.6-0.3,0.8-0.5l0.9,0.9c-0.3,0.4-0.7,0.6-1.2,0.8s-1,0.3-1.6,0.3c-0.7,0-1.3-0.1-1.8-0.4
			c-0.5-0.3-0.9-0.7-1.2-1.2c-0.3-0.5-0.4-1.1-0.4-1.7c0-0.7,0.1-1.2,0.4-1.7c0.3-0.5,0.7-0.9,1.2-1.2c0.5-0.3,1.1-0.4,1.7-0.4
			C665.7,250.7,666.5,251,667,251.6z M666.3,253.6c0-0.5-0.2-0.9-0.5-1.2c-0.3-0.3-0.7-0.4-1.2-0.4c-0.5,0-0.9,0.1-1.2,0.4
			c-0.3,0.3-0.5,0.7-0.6,1.2H666.3z"/>
	</g>
	<g>
		<path class="st3" d="M373.3,251.2h1.6v7.1h3.7v1.5h-5.4V251.2z"/>
		<path class="st3" d="M384.8,254.1c0.5,0.6,0.8,1.4,0.8,2.5c0,0.2,0,0.4,0,0.5h-4.9c0.1,0.5,0.3,0.8,0.7,1.1
			c0.3,0.3,0.7,0.4,1.2,0.4c0.3,0,0.7-0.1,1-0.2c0.3-0.1,0.6-0.3,0.8-0.5l0.9,0.9c-0.3,0.4-0.7,0.6-1.2,0.8c-0.5,0.2-1,0.3-1.6,0.3
			c-0.7,0-1.3-0.1-1.8-0.4c-0.5-0.3-0.9-0.7-1.2-1.2c-0.3-0.5-0.4-1.1-0.4-1.7c0-0.7,0.1-1.2,0.4-1.7s0.7-0.9,1.2-1.2
			c0.5-0.3,1.1-0.4,1.7-0.4C383.5,253.2,384.3,253.5,384.8,254.1z M384.1,256c0-0.5-0.2-0.9-0.5-1.2c-0.3-0.3-0.7-0.4-1.2-0.4
			c-0.5,0-0.9,0.1-1.2,0.4c-0.3,0.3-0.5,0.7-0.6,1.2H384.1z"/>
		<path class="st3" d="M390.6,259.8V259c-0.2,0.3-0.5,0.5-0.9,0.7c-0.4,0.1-0.8,0.2-1.2,0.2c-0.5,0-0.9-0.1-1.2-0.3
			c-0.3-0.2-0.6-0.4-0.8-0.7c-0.2-0.3-0.3-0.7-0.3-1c0-0.6,0.2-1.1,0.7-1.4c0.4-0.3,1-0.5,1.8-0.5h1.9v-0.2c0-0.4-0.1-0.7-0.4-0.9
			s-0.6-0.3-1.1-0.3c-0.6,0-1.3,0.2-2,0.6l-0.6-1.1c0.5-0.3,1-0.5,1.4-0.6c0.4-0.1,0.9-0.2,1.5-0.2c0.9,0,1.5,0.2,2,0.6
			c0.5,0.4,0.7,1,0.7,1.7l0,4.3H390.6z M390,258.3c0.3-0.2,0.5-0.5,0.6-0.8v-0.6h-1.7c-0.4,0-0.7,0.1-0.9,0.2
			c-0.2,0.1-0.3,0.3-0.3,0.6c0,0.3,0.1,0.5,0.3,0.7c0.2,0.2,0.5,0.2,0.9,0.2C389.3,258.7,389.7,258.5,390,258.3z"/>
		<path class="st3" d="M396.2,253.5c0.4-0.2,0.8-0.3,1.3-0.3v1.5c-0.7,0-1.2,0.1-1.6,0.5c-0.4,0.4-0.6,0.8-0.6,1.4v3.2h-1.6v-6.6
			h1.6v1.3C395.5,254.1,395.8,253.8,396.2,253.5z"/>
		<path class="st3" d="M404.2,253.9c0.4,0.5,0.7,1.1,0.7,1.8v4.1h-1.6v-3.6c0-0.5-0.1-0.8-0.4-1.1c-0.3-0.3-0.6-0.4-1.1-0.4
			c-0.5,0-1,0.2-1.3,0.5c-0.3,0.4-0.5,0.8-0.5,1.4v3.2h-1.6v-6.6h1.6v1.2c0.5-0.8,1.2-1.3,2.4-1.3
			C403.1,253.2,403.7,253.4,404.2,253.9z"/>
		<path class="st3" d="M407.8,250.7c0.2,0.2,0.3,0.4,0.3,0.7c0,0.3-0.1,0.5-0.3,0.7c-0.2,0.2-0.4,0.3-0.7,0.3
			c-0.3,0-0.5-0.1-0.7-0.3c-0.2-0.2-0.3-0.4-0.3-0.7c0-0.3,0.1-0.5,0.3-0.7c0.2-0.2,0.4-0.3,0.7-0.3
			C407.4,250.4,407.6,250.5,407.8,250.7z M406.4,253.2h1.6v6.6h-1.6V253.2z"/>
		<path class="st3" d="M415.4,253.9c0.4,0.5,0.7,1.1,0.7,1.8v4.1h-1.6v-3.6c0-0.5-0.1-0.8-0.4-1.1c-0.3-0.3-0.6-0.4-1.1-0.4
			c-0.5,0-1,0.2-1.3,0.5c-0.3,0.4-0.5,0.8-0.5,1.4v3.2h-1.6v-6.6h1.6v1.2c0.5-0.8,1.2-1.3,2.4-1.3
			C414.4,253.2,415,253.4,415.4,253.9z"/>
		<path class="st3" d="M423.7,253.2v6c0,0.6-0.1,1.2-0.4,1.6c-0.3,0.5-0.7,0.8-1.2,1.1c-0.5,0.3-1.1,0.4-1.8,0.4
			c-1,0-1.9-0.3-2.8-0.9l0.6-1.2c0.6,0.5,1.3,0.7,2.1,0.7c0.6,0,1.1-0.2,1.4-0.5c0.3-0.3,0.5-0.7,0.5-1.2v-0.8
			c-0.2,0.3-0.5,0.6-0.9,0.8c-0.4,0.2-0.8,0.3-1.2,0.3c-0.6,0-1.1-0.1-1.5-0.4c-0.4-0.3-0.8-0.6-1-1.1c-0.2-0.5-0.4-1-0.4-1.7
			c0-0.6,0.1-1.2,0.4-1.6c0.2-0.5,0.6-0.8,1-1.1c0.4-0.3,1-0.4,1.5-0.4c0.5,0,0.9,0.1,1.2,0.3c0.4,0.2,0.6,0.4,0.9,0.8v-1H423.7z
			 M421.6,257.7c0.3-0.3,0.5-0.8,0.5-1.4c0-0.6-0.2-1-0.5-1.4c-0.3-0.3-0.7-0.5-1.3-0.5s-0.9,0.2-1.3,0.5c-0.3,0.4-0.5,0.8-0.5,1.4
			c0,0.6,0.2,1,0.5,1.4c0.3,0.3,0.7,0.5,1.3,0.5S421.2,258.1,421.6,257.7z"/>
	</g>
	<path class="st4" d="M454.1,261.7c0,0,58.6,46,123.3-1.2"/>
	<path class="st4" d="M596.5,242.9c0,0,51.6-53.7,11.2-122.7"/>
	<path class="st4" d="M420,122.8c0,0-38.7,63.6,15.8,122.2"/>
</g>
<g>
	<path class="st5" d="M190.9,339.6c-4.9,1.8-4.9,1.8-4.9,6.7c0,7.1-0.9,8.2-8.1,8.6c-4.1,0.2-8.3,0.4-12.4-0.5
		c-3.5-0.7-4.7-1.8-4.2-5.2c0.8-5.8-1-9.4-6.9-10.7c-0.9-0.2-1.8-0.7-1.9-1.8c-0.1-1.3,1-1.6,2-2c5.9-2.6,11.8-5.2,17.7-7.9
		c1.1-0.5,2.1-0.4,3.1,0.1c5.9,2.7,11.8,5.3,17.6,8c2.1,0.9,2.7,1.7,0.6,3.7c-1.6,1.5-1.1,4.1,0,6.1c0.9,1.6,1.6,3.3,2,5.1
		c0.2,1.1,0.2,2.1-0.9,2.6c-1.7,0.9-3.4,0.8-5.1,0.1c-1.1-0.4-1.4-1.5-1.1-2.5c0.4-1.4,0.6-3,1.4-4.2
		C190.9,343.8,191.3,341.9,190.9,339.6z M154,336.6c6.6,3,12.7,5.7,18.8,8.4c0.5,0.2,1,0.3,1.6,0c6.1-2.7,12.1-5.4,18.8-8.4
		c-6.6-3-12.7-5.7-18.8-8.4c-1-0.5-1.8,0.1-2.6,0.5C166,331.2,160.3,333.8,154,336.6z M162.7,342.3c0,2.6,0.1,4.8,0,7
		c-0.2,2.1,0.8,3,2.7,3.4c4.8,1,9.6,0.9,14.3,0.3c4.4-0.5,4.6-0.9,4.6-5.4c0-1.2-0.1-2.4,0-3.6c0.1-1.4-0.4-1.6-1.6-1
		c-2.4,1.1-4.9,2.1-7.3,3.3c-1.4,0.7-2.5,0.6-3.9,0C168.8,344.9,165.9,343.7,162.7,342.3z M191.9,345.4c-1.2,1-1.4,2.3-1.8,3.5
		c-0.2,0.7-0.8,1.7,0.3,2.2c0.9,0.4,2.1,0.5,2.9-0.1c1-0.6,0.3-1.5,0.1-2.2C193.2,347.6,192.8,346.5,191.9,345.4z"/>
	<g>
		<path class="st0" d="M875.9,345c4,1.5,5,4.6,4.6,8.2c-0.1,1.4,0.8,4-0.8,4c-1.5,0-0.4-2.6-0.7-4.1c-0.2-1.1,0-2.3-0.3-3.3
			c-0.9-3.1-3.7-4.1-9.6-3.5c-2.7,0.3-4.4,2.2-4.5,5.1c-0.1,1.6,0,3.3,0,4.9c0,0.5-0.1,1.1-0.8,1.1c-0.2,0-0.5-0.4-0.6-0.7
			c-1.6-4.1,0.5-9.7,4.4-11.8c-2.7-4-2.6-7.1,0.1-9.5c2.4-2.1,5.9-2.1,8.3,0.1C878.7,338,878.7,341.2,875.9,345z M876.5,340.2
			c0-2.6-2.2-4.8-4.8-4.7c-2.5,0.1-4.6,2.2-4.6,4.7c0,2.6,2.1,4.7,4.8,4.7C874.5,344.7,876.5,342.7,876.5,340.2z"/>
		<path class="st0" d="M856,338.9c-0.4,0.9,0.8,2.9-0.9,3c-1.2,0-0.5-2.1-0.6-3.2c-0.1-1.9,0-3.9-2.1-4.6c-2.3-0.7-4.8-1-7,0.4
			c-1.8,1.1-1.2,3.1-1.3,4.8c-0.1,0.9,0.5,2.7-0.7,2.7c-1.6,0-0.7-1.8-0.8-2.7c-0.2-2.5-0.1-4.9,2.5-6.3c0.9-0.5,0.4-0.9,0.1-1.4
			c-1.3-2.7-0.9-5,1.1-6.5c1.9-1.4,3.9-1.4,5.8,0c2,1.4,2.4,3.7,1.2,6.5c-0.3,0.6-0.5,0.8,0.1,1.4C856,335.3,856,335.4,856,338.9z
			 M852.6,329.1c-0.1-2.1-1.2-3.2-3.2-3.5c-1.8-0.2-3.6,1.5-3.5,3.3c0.1,2,1.2,3.2,3.3,3.3C851.2,332.2,852.3,331,852.6,329.1z"/>
		<path class="st0" d="M859.6,325.4c-0.5,0.1-1.3,0.3-2.1,0.4c-0.5,0.1-1.1,0.2-1.3-0.5c-0.1-0.6,0.4-0.9,0.9-1
			c3.3-0.9,6.1-0.2,8.7,2c0.5,0.5,0.9,1.7,2,0.7c0.3-0.3,0.7-0.1,0.8,0.3c0.3,1-0.2,1.9-0.6,2.7c-0.9,1.5-2,0.1-2.9-0.1
			c-0.7-0.2-1.2-0.8-0.2-1.4c0.9-0.5,0.1-0.8-0.2-1.1C863.4,326.2,861.7,325.6,859.6,325.4z"/>
		<path class="st0" d="M855.9,350.4c-2.4,0-4-0.7-5.6-1.6c-0.9-0.5-1.3-1.5-3-1.2c-1.4,0.2-0.2-1.9,0.1-2.8c0.3-1.1,1.3-0.5,2-0.3
			c0.7,0.3,2.1,0.4,1.6,1.2c-1.1,1.9,0.5,2,1.3,2.4c1.7,1,3.6,1.1,5.5,0.5c0.6-0.2,1.5-0.8,1.8,0.2c0.3,1-0.8,1.1-1.5,1.3
			C857.1,350.3,856.2,350.4,855.9,350.4z"/>
	</g>
	<path class="st0" d="M908.2,189.6c-3.1,0-6.2,0.1-9.4,0c-1.2,0-1.7,0.3-1.6,1.6c0.1,1.4,0,2.8,0,4.2c0,0.6-0.2,1.1-0.8,1.1
		c-0.6,0-0.7-0.6-0.7-1.2c0-1.9,0-3.8,0-5.7c0-2.1,1.6-1.4,2.6-1.4c3.3-0.1,3.6-0.6,2-3.4c-0.6-1.1-1.2-2.1-1.8-3.2
		c-0.5-1.1-0.9-2.2-2.4-1c-0.5,0.4-1.5,0.3-1.9-0.2c-1.6-2.2-4.1-4.1-3.7-7.3c0.2-1.8,1-3.9,0.4-5.4c-0.7-1.8-3.3-0.7-4.9-1.5
		c-1.4-0.7-2.7-1.5-4-2.4c-1.2-0.9-0.9-1.8,0.4-2.3c6.2-2.1,12.3-4.1,18.8-5.1c1.7-0.3,3.3,0.3,4.6,1.3c3.4,2.5,7.4,4.2,10.3,7.4
		c1,1.1,2.9,0.8,4.5,1c2.3,0.3,2.3,1.8,2,3.4c-0.3,1.5-0.7,3-3,2.5c-3.2-0.6-3.2-0.4-3.2,2.8c0,3.8,0.1,7.6,0,11.5
		c0,1.5,0.2,2.4,2,2.1c2.1-0.4,2.6,0.7,2.4,2.5c-0.1,1.5,0,3.1,0,4.7c0,0.6-0.2,1.2-0.8,1.2c-0.5,0-0.8-0.6-0.8-1.2
		c0-1.2-0.1-2.4,0-3.6c0.2-1.8-0.6-2.2-2.2-2.1C914.1,189.7,911.2,189.6,908.2,189.6z M894,164.1c1,2.2,1.8,4.2,2.1,6.3
		c0.6,3.6,2,6.8,3.5,10c1.3,2.6,2,6.3,4.1,7.5c2.3,1.3,5.9,0.3,8.9,0.3c0.2,0,0.3,0,0.5,0c1.4,0.2,1.8-0.4,1.8-1.8
		c-0.1-3.6,0-7.1,0-10.7c0-4.8,0-4.7-4.8-5.6c-2.2-0.4-3.4-0.3-3,2.4c0.1,0.6,0.2,1.3-0.4,1.6c-0.8,0.4-1.3-0.3-1.8-0.7
		c-2.4-1.8-4.2-4.1-5.5-6.8C898.4,164.6,896.7,163.6,894,164.1z M912.7,164.6c0.1-0.2,0.2-0.4,0.3-0.6c-2.9-1.9-5.9-3.9-8.8-5.7
		c-0.6-0.4-1.5-0.6-2.2-0.5c-4.1,0.8-8.1,1.7-12.2,2.5c0,0.2,0,0.3,0.1,0.5C897.4,162.1,905,163.3,912.7,164.6z M900,164.6
		c0.8,1.2,0.9,2.6,2.5,2.9c5.6,0.9,11.3,1.8,16.9,2.8c1.1,0.2,1.6-0.1,1.8-1.2c0.2-1.1-0.3-1.5-1.4-1.7c-3.8-0.6-7.5-1.3-11.3-1.9
		C905.8,165.1,903.1,164.1,900,164.6z M896.2,177.1c-0.6-2.5-1.3-5.7-2.1-8.8c-0.1-0.5-0.4-0.8-0.9-0.9c-0.4-0.1-0.5,0.2-0.7,0.5
		c-1.3,2.8-0.2,8.5,2,10.6c0.3,0.3,0.7,0.6,1.1,0.4C896.4,178.8,896.2,178.3,896.2,177.1z M892.7,165.7c-0.2-2.4-1.3-3.3-3.5-3.5
		c-1.9-0.2-3.6-0.2-5.5,0.6C886.3,165.3,889.5,165.2,892.7,165.7z M905.6,172.1c0.1-2.9,0.1-2.9-2.5-2.6
		C903.8,170.3,904.5,171,905.6,172.1z"/>
	<g>
		<path class="st0" d="M144.1,187.7c0-8.7,0-17,0-25.3c0-0.6,0-1.2,0-1.8c0-0.7-0.3-1.9,0.7-1.9c1.1-0.1,0.8,1.1,0.8,1.8
			c0,3.5,0,6.9,0,10.4c0,4.9-0.1,9.7,0,14.6c0,0.9-0.9,2.6,1,2.6c1.7,0,0.8-1.7,0.8-2.5c0.1-8,0-16,0-23.9c0-0.5,0-1,0-1.6
			c0-0.6-0.1-1.4,0.7-1.4c1,0,0.8,0.9,0.8,1.6c0,1.1,0,2.3,0,3.4c0,8.2,0,16.3,0,24.5c0,4.5-1.7,6.2-6.1,6.2c-8.9,0-17.9,0-26.8,0
			c-4.1,0-5.9-1.7-5.9-5.8c0-9.2,0-18.4,0-27.6c0-1.8,0.5-2.4,2.4-2.4c9.1,0.1,18.2,0.1,27.3,0c1.9,0,2.4,0.6,2.4,2.4
			c-0.1,7.6,0,15.3,0,22.9C142.2,185.2,142,186.7,144.1,187.7z M129.5,192.7c4.7,0,9.4,0,14.1,0c1.3,0,2.4-0.3,3.2-1.3
			c0.3-0.4,0.7-0.8,0.5-1.4c-0.2-0.5-0.7-0.3-1.1-0.3c-4.2-0.5-5.4-1.8-5.4-6c0-7.2-0.1-14.4,0-21.6c0-1.7-0.4-2.2-2.2-2.2
			c-8.2,0.1-16.5,0.1-24.7,0c-1.7,0-2.2,0.5-2.1,2.2c0.1,8.8,0,17.5,0,26.3c0,3.1,1.1,4.2,4.2,4.3
			C120.4,192.7,124.9,192.7,129.5,192.7z"/>
		<path class="st0" d="M126,165c3.1,0,6.2,0,9.4,0c1.3,0,1.8,0.4,1.8,1.8c0.2,5.9,0.3,5.9-5.5,5.9c-4.8,0-9.5-0.1-14.3,0
			c-1.6,0-2.1-0.4-2.1-2c0-5.6-0.1-5.6,5.5-5.6C122.5,165,124.2,165,126,165z M126.2,171.1c2.6,0,5.2-0.1,7.8,0
			c2.1,0.1,1.6-1.2,1.6-2.4c0-1.1,0.5-2.4-1.6-2.3c-5.2,0.1-10.4,0.1-15.6,0c-2.1-0.1-1.6,1.3-1.6,2.4c0,1.1-0.5,2.5,1.6,2.3
			C121,171,123.6,171.1,126.2,171.1z"/>
		<path class="st0" d="M122,184.9c1.7,0,3.5,0,5.2,0c0.5,0,1.1,0,1.2,0.7c0,0.6-0.5,0.8-1.1,0.8c-3.6,0-7.2,0-10.9,0
			c-0.5,0-1.1-0.2-1.1-0.8c0.1-0.7,0.7-0.7,1.2-0.7C118.4,184.9,120.2,184.9,122,184.9z"/>
		<path class="st0" d="M122.2,180.3c1.7,0,3.5,0,5.2,0c0.4,0,0.9,0.1,1,0.6c0.1,0.7-0.4,0.9-1,0.9c-3.6,0-7.3,0-10.9,0
			c-0.6,0-1.1-0.2-1.1-0.8c0-0.6,0.6-0.8,1.1-0.8C118.4,180.3,120.3,180.3,122.2,180.3z"/>
		<path class="st0" d="M122,177.1c-1.7,0-3.5,0-5.2,0c-0.6,0-1.4,0.1-1.4-0.7c0-0.8,0.7-0.8,1.3-0.8c3.5,0,6.9,0,10.4,0
			c0.6,0,1.4,0,1.3,0.8c-0.1,0.8-0.9,0.7-1.5,0.7C125.3,177.1,123.7,177.1,122,177.1z"/>
		<path class="st0" d="M134.1,175.6c0.6,0,1.1,0,1.6,0c0.6,0,1.3,0,1.2,0.9c-0.1,0.6-0.7,0.7-1.2,0.7c-0.5,0-1,0.1-1.5,0
			c-1-0.2-2.7,0.7-2.7-0.8C131.6,175.1,133.3,175.9,134.1,175.6z"/>
		<path class="st0" d="M134.2,180.3c0.5,0,0.9,0,1.2,0c0.7,0,1.6-0.2,1.6,0.8c0,0.9-1,0.7-1.7,0.7c-0.3,0-0.7,0.1-1,0
			c-0.9-0.2-2.7,0.5-2.7-0.7C131.6,179.5,133.4,180.7,134.2,180.3z"/>
		<path class="st0" d="M134.2,186.5c-0.9-0.3-2.6,0.5-2.6-0.8c0-1.4,1.6-0.5,2.5-0.8c0.1,0,0.2,0,0.3,0c0.9,0.3,2.6-0.6,2.5,0.8
			C136.9,187,135.2,186.2,134.2,186.5z"/>
	</g>
	<path class="st5" d="M921.4,267.6c-1.5,0.5-2.5,1-3.6,1.3c-2,0.7-3.9,0.7-5.4-1.1c-1.5,1.7-3.3,1.9-5.3,1.2
		c-1.1-0.4-2.3-0.8-3.7-1.3c0,4.6,0,9,0,13.4c0,1.8-0.5,3.2-2,4.2c-2.7,1.8-6.5,0.1-6.6-3.2c-0.2-7.7-0.3-15.5,0.1-23.1
		c0.1-2.1,0.6-3.7-0.7-5.8c-1.3-2-0.3-4.2,1.6-5.7c1.8-1.4,4.5-1.3,6.2,0.2c1.8,1.6,2.1,3.6,1.3,5.9c-0.3,0.9-1.9,1.7-1.4,2.4
		c1.1,1.6,1.4,3.6,2.9,4.9c1.3,1.1,2.7,1.9,4.3,2.3c0.9,0.2,1.9,0.4,2.5,1.2c0.3,0.3,0.5,0.9,0.9,0.3c1-1.5,2.7-1.4,4.1-1.9
		c3.2-1.1,4.3-4,5.9-6.6c0.5-0.9-0.4-1-0.7-1.4c-1.7-2.5-1.6-5.2,0.5-7c2-1.7,5-1.7,6.8,0.2c1.9,1.9,2,4.8,0.1,7
		c-0.6,0.7-1.1,1.1-0.3,2.1c0.8,0.9,0.8,2.1,0.8,3.2c0,6.9,0,13.7,0,20.6c0,3.3-1.8,5.3-4.4,5.3c-2.6,0-4.3-2.1-4.3-5.4
		C921.4,276.3,921.4,272.1,921.4,267.6z M928.6,270.2c0-3.6,0-7.1,0-10.7c0-1.6-0.8-2.7-2.3-3c-1.3-0.3-2.5,0.2-3,1.5
		c-1.4,3.8-4.2,5.8-8,6.7c-1,0.2-1.6,0.8-1.4,1.8c0.2,1.2,1.2,1.4,2.2,1.2c1.6-0.4,3.2-0.8,4.6-1.8c0.5-0.4,1-1.2,1.7-0.9
		c0.9,0.4,0.5,1.4,0.5,2.1c0,4.3,0.1,8.7,0,13c0,2.1,0.3,3.9,2.8,4.2c1.9,0.2,2.9-1.4,2.9-4.3C928.6,276.8,928.6,273.5,928.6,270.2z
		 M896.3,270.6c0,3.3,0,6.6,0,9.9c0,2.7,1,4.2,2.9,4c2.3-0.2,2.8-1.9,2.8-3.9c0-4.5,0-9,0-13.5c0-0.6-0.3-1.5,0.5-1.9
		c0.7-0.3,1.1,0.4,1.5,0.7c1.3,1,2.7,1.5,4.3,1.8c1.1,0.3,2.4,0.5,2.7-1.1c0.3-1.4-0.8-1.6-1.9-1.9c-3.3-0.9-6-2.6-7.2-6.1
		c-0.5-1.5-1.7-2.3-3.2-2c-1.6,0.3-2.3,1.4-2.3,3C896.3,263.3,896.3,266.9,896.3,270.6z M929.5,251.6c0-1.9-1.5-3.5-3.4-3.6
		c-2-0.1-3.7,1.5-3.7,3.5c0,1.9,1.6,3.4,3.5,3.4C927.8,255,929.4,253.5,929.5,251.6z M902.4,251.6c0.1-1.9-1.5-3.5-3.4-3.6
		c-2-0.1-3.7,1.5-3.7,3.5c0,1.9,1.6,3.4,3.5,3.5C900.7,255,902.3,253.5,902.4,251.6z"/>
	<g>
		<path class="st6" d="M123,287.3c-5.7,0-11.5,0-17.2,0c-2.9,0-3.8-0.9-3.8-3.8c0-6.7,0-13.5,0-20.2c0-2.9,0.9-3.8,3.8-3.8
			c3.3,0,6.7,0,10,0c0.9,0,2.1,0.5,2.5-0.4c0.4-1,0.4-2.3-0.4-3.4c-2-2.7-4-5.3-5.9-8c-0.5-0.6-1.4-1.4-0.5-2.1
			c1-0.7,1.3,0.6,1.8,1.2c1.6,2.1,3,4.2,4.6,6.2c0.3,0.4,0.5,1.7,1.6,0.6c0.6-0.6,1.4-1.1,0.6-2.2c-1.1-1.4-1.9-2.9-2.9-4.4
			c-0.3-0.5-0.5-1.1,0.1-1.5c0.6-0.4,1,0.1,1.3,0.6c0.9,1.4,1.8,2.8,2.7,4.2c1.6,2.4,1.7,2.4,3.3-0.1c0.9-1.4,1.8-2.8,2.7-4.2
			c0.2-0.4,0.6-0.8,1.1-0.6c0.6,0.3,0.6,0.9,0.2,1.4c-0.9,1.5-1.8,3-2.9,4.4c-0.9,1.2-0.2,1.8,0.6,2.4c1.1,0.8,1.2-0.4,1.5-0.9
			c1.6-2,3-4.2,4.6-6.2c0.4-0.6,0.8-1.8,1.8-1c0.8,0.7-0.1,1.3-0.5,1.9c-1.8,2.6-3.7,5.1-5.6,7.6c-0.6,0.8-1,1.7-1,2.8
			c0,1.3,0.3,1.8,1.7,1.7c3.7-0.1,7.4,0,11.1,0c2.6,0,3.7,1.1,3.7,3.7c0,6.8,0,13.7,0,20.5c0,2.9-0.8,3.7-3.9,3.7
			C134.3,287.3,128.7,287.3,123,287.3z M103.7,273.4c0,3.3,0.1,6.6,0,10c0,1.6,0.5,2.3,2.2,2.3c11.4,0,22.7,0,34.1,0
			c1.6,0,2.4-0.5,2.4-2.2c0-6.7,0-13.5,0-20.2c0-1.4-0.4-2.3-2-2.2c-3.8,0.1-7.6,0-11.4,0c-1,0-1.7,0.2-1.5,1.3
			c0.6,3.1-1,3.6-3.6,3.3c-0.8-0.1-1.7-0.1-2.5,0c-2.1,0.3-3.2-0.4-2.8-2.7c0.3-1.6-0.5-2-2-2c-3.5,0.1-7,0.1-10.5,0
			c-1.8-0.1-2.4,0.6-2.4,2.4C103.7,266.7,103.7,270.1,103.7,273.4z M125.8,256.2c-0.2-1.6-1.1-2.8-2.8-2.8c-1.7,0-2.8,1-2.8,2.7
			c0,1.7,0.9,2.8,2.7,2.8C124.7,259,125.5,257.9,125.8,256.2z M120.3,259.9c0,1.5-0.7,3.3,0.4,3.8c1.3,0.6,3.2,0.6,4.5,0.1
			c1.5-0.6,0.4-2.4,0.7-3.9C123.9,260.7,122.2,260.9,120.3,259.9z"/>
		<path class="st6" d="M106.9,282c0-2.7,2.3-4.1,2.9-5.9c0.4-1.4-2.3-3.4-1.7-5.9c0.6-2.3,1.9-3.8,4.2-4.3c2.4-0.5,4.4,0.2,5.8,2.2
			c1.4,2,1.5,4.3,0,6.2c-1.1,1.4-1.1,2,0.3,3.1c1.3,1.1,1.8,2.8,1.8,4.5c0,0.6-0.1,1.2-0.8,1.3c-0.8,0.1-0.8-0.6-0.8-1.2
			c-0.1-1.3-0.5-2.5-1.4-3.5c-1.4-1.5-3.1-1.9-5-1.4c-2.2,0.6-3.3,2.1-3.6,4.4c-0.1,0.6,0.2,1.7-0.9,1.7
			C106.6,283.3,107,282.3,106.9,282z M117.4,271.4c0-2-1.8-3.9-3.9-3.9c-2.2-0.1-4.1,1.9-4.1,4c0,2.1,1.8,3.9,3.9,4
			C115.5,275.5,117.4,273.5,117.4,271.4z"/>
		<path class="st6" d="M130.7,270.6c-2.1,0-4.2,0-6.4,0c-0.5,0-1.2,0-1.3-0.7c0-0.7,0.6-0.9,1.1-0.9c4.4,0,8.9,0,13.3,0
			c0.6,0,1.2,0.2,1.1,0.9c-0.1,0.7-0.7,0.7-1.3,0.7C135.2,270.6,132.9,270.6,130.7,270.6z"/>
		<path class="st6" d="M129.7,275.6c-1.8,0-3.7,0-5.5,0c-0.5,0-1.2,0-1.1-0.8c0-0.5,0.5-0.7,1-0.7c3.8,0,7.5,0,11.3,0
			c0.5,0,1,0.2,1,0.8c0,0.8-0.6,0.8-1.2,0.8C133.4,275.7,131.6,275.6,129.7,275.6z"/>
	</g>
	<g>
		<path class="st6" d="M195.5,118.4c0.8-2.7,1-4.5,0-6.6c-1-2,0.6-3.6,2.9-4.9c-4.2-0.9-7.2-2.6-8.9-6c-1.1-2.2-1.5-4.5-1-7
			c1.1-5.2,5.5-8.7,10.7-8.6c5.2,0.1,9.5,3.9,10.3,9.1c0.9,5.6-2.3,9.9-9.6,12.6c2.5,1.7,3.6,3.6,1.8,6.5c-0.8,1.3,0.4,2.7,1,4.3
			c1.3-2.6,2.7-5.1,4-7.7c0.8-1.7,1.4-1.9,3.3-1.2c4.5,1.7,7.3,4.1,6.7,9.4c-0.2,2.4,0.4,5,0.7,7.4c0.2,1.5-0.3,2.2-1.9,2.2
			c-11,0-22,0-33,0c-1.8,0-2.2-0.7-2-2.3c0.4-3.6,0.8-7.2,1-10.8c0.1-2.1,0.9-3.2,2.9-4.1c5.8-2.7,5.7-2.8,8.6,2.8
			C193.8,115,194.5,116.4,195.5,118.4z M199.1,126.3c4.9,0,9.8-0.1,14.7,0c1.8,0,2.2-0.5,1.9-2.2c-0.4-2.2-0.8-4.4-0.6-6.6
			c0.2-3.6-1.5-5.5-4.7-6.6c-1.4-0.5-2-0.6-2.7,0.9c-1.4,3-3,5.9-4.5,8.9c-0.5,0.9-1.5,1.9-1.7,0.2c-0.4-3-2.8-5.9-0.6-9.2
			c0.6-0.8,0.2-1.8-0.7-2.4c-0.8-0.5-1.5-0.6-2.3,0c-0.8,0.5-1.3,1.5-0.8,2.1c2.3,3.1-0.1,6-0.2,8.9c0,0.5-0.2,1.2-0.8,1.3
			c-0.8,0.2-1-0.6-1.3-1.1c-1.5-2.9-3-5.9-4.6-8.8c-0.3-0.6-0.3-1.6-1.7-1.2c-3.9,1.3-5,2.6-5.4,6.7c-0.2,2.4-0.4,4.8-0.7,7.1
			c-0.3,1.7,0.3,2,1.8,2C189.2,126.3,194.2,126.3,199.1,126.3z M208.1,96.1c0-5-4.1-9.1-9.1-9.1c-4.9,0-9,4-9.1,8.9
			c-0.1,5,4,9.2,9,9.3C203.9,105.2,208.1,101.1,208.1,96.1z"/>
		<path class="st6" d="M209.5,119.8c-0.8-0.2-2.2,0.3-2.1-0.7c0.1-1.5,1.6-0.8,2.4-0.9c0.8-0.1,2.1-0.3,2,0.7
			C211.8,120.5,210.2,119.5,209.5,119.8z"/>
	</g>
	<g>
		<path class="st6" d="M812.6,103.7c0-6.7,4-12.7,10.2-15.3c6.2-2.6,13.3-1.1,18,3.7c4.7,4.8,6.2,11.9,3.3,18
			c-0.8,1.8-0.7,2.8,0.8,4.1c2.3,2,4.3,4.3,6.5,6.4c1.2,1.1,1.5,2,0.1,3.1c-0.5,0.4-1,0.9-1.5,1.5c-1,1.2-1.8,1.3-2.9,0.1
			c-2.2-2.3-4.6-4.5-6.8-6.9c-1.1-1.2-1.8-1.2-3.2-0.4C826.1,124.2,812.7,116.3,812.6,103.7z M844,103.8c0-8.2-6.6-14.9-14.7-15.1
			c-8.3-0.1-15.1,6.6-15.2,14.9c-0.1,8.2,6.8,15.1,15,15.1C837.3,118.6,844,111.9,844,103.8z M841.9,113.5c-0.5,0.7-0.8,1.3-1.3,1.9
			c-0.6,0.7-0.1,1.1,0.3,1.5c2.2,2.2,4.5,4.3,6.6,6.6c1,1,1.5,0.6,2.2-0.1c0.9-0.8,1-1.3,0-2.2c-2.2-2.1-4.3-4.3-6.4-6.4
			C843,114.4,842.7,114.2,841.9,113.5z"/>
		<path class="st6" d="M841.6,103.6c0.1,7-5.5,12.6-12.4,12.7c-6.9,0-12.6-5.6-12.6-12.5c0-6.8,5.5-12.4,12.4-12.5
			C835.9,91.1,841.5,96.6,841.6,103.6z M828.9,92.7c-6,0-10.9,5-10.9,11c0,6.1,5,11.1,11.1,11c6-0.1,10.8-5,10.8-11
			C840,97.5,835.2,92.7,828.9,92.7z"/>
		<path class="st6" d="M834.8,110.1c0,0.2,0.2,0.9-0.5,1c-0.9,0.2-0.9-0.6-1-1.2c-0.3-2.5-1.6-4-4.2-4.1c-2.3-0.1-3.6,1.2-4.3,4.2
			c-0.1,0.5-0.1,1.2-0.8,1.1c-0.8,0-0.8-0.7-0.8-1.4c0.1-2.1,2.2-3.4,2.5-4.8c0.2-1.3-2-3.1-1.4-5.2c0.6-2,1.9-3.3,4-3.7
			c2-0.3,3.6,0.4,4.7,2c1.1,1.6,1.4,3.5,0.2,5.1c-1.1,1.4-0.9,2.1,0.3,3.2C834.5,107.3,834.8,108.5,834.8,110.1z M829.2,97.6
			c-2,0-3.5,1.5-3.5,3.3c0.1,2,1.2,3.2,3.2,3.3c1.9,0.1,3.6-1.6,3.4-3.4C832.2,98.8,831,97.7,829.2,97.6z"/>
	</g>
</g>
<g>
	<path class="st7" d="M356.6,328.2v41.3h-3v-41.3H356.6z"/>
	<path class="st7" d="M367.3,369.5v-41.3h3.9l27.5,36.1v-36.1h2.7v41.3H399l-29-37.8v37.8H367.3z"/>
	<path class="st7" d="M437.4,328.2v2.6h-14.1v38.7h-3v-38.7h-13.8v-2.6H437.4z"/>
	<path class="st7" d="M469.4,328.2v2.6h-24.1v16.4h23.1v2.6h-23.1v17h24.5v2.6h-27.5v-41.3H469.4z"/>
	<path class="st7" d="M478.3,369.5v-41.3h17c7.5,0,11.2,3.3,11.2,9.9c0,5.7-4,9.8-12.1,12.1l13.9,19.2h-4.2l-13.7-19.1v-2
		c8.5-1.3,12.7-4.6,12.7-10c0-5-2.8-7.4-8.3-7.4h-13.5v38.6H478.3z"/>
	<path class="st7" d="M513.9,369.5v-41.3h3.9l27.5,36.1v-36.1h2.7v41.3h-2.5l-29-37.8v37.8H513.9z"/>
	<path class="st7" d="M557,368v-3.2c4.3,1.5,9.1,2.3,14.3,2.3c8.6,0,13-3.3,13-9.8c0-4.8-2.8-7.2-8.4-7.2h-8.5
		c-7.7,0-11.5-3.5-11.5-10.4c0-7.9,5.6-11.8,16.9-11.8c4.6,0,9.1,0.6,13.4,1.7v2.9c-4.3-1.3-8.8-2-13.4-2c-9.2,0-13.8,3.1-13.8,9.2
		c0,5,2.8,7.5,8.5,7.5h8.5c7.6,0,11.5,3.4,11.5,10.1c0,8.3-5.3,12.4-16,12.4C566.1,369.8,561.4,369.2,557,368z"/>
	<path class="st7" d="M595.1,369.5v-41.3h3v19h28.1v-19h3v41.3h-3v-19.6h-28.1v19.6H595.1z"/>
	<path class="st7" d="M643,328.2v41.3h-3v-41.3H643z"/>
	<path class="st7" d="M653.7,369.5v-41.3H671c8,0,12.1,3.8,12.1,11.3c0,7.4-6.4,12.2-19.3,14.2l-0.5-2.8c11-1.5,16.4-5.3,16.4-11.2
		c0-5.9-3.1-8.9-9.2-8.9h-13.8v38.6H653.7z"/>
</g>
</svg>
