<svg id="Layer_1" data-name="Layer 1" xmlns="http://www.w3.org/2000/svg" viewBox="0 0 176 168"><defs><style>.cls-1{fill:#fff;stroke:#fff;stroke-miterlimit:10;}</style></defs><title>new icons</title><path class="cls-1" d="M90.4,167c-9.72,0-19.44-.07-29.16,0a13.86,13.86,0,0,1-11.68-5.64q-18.27-22.94-36.74-45.73a12,12,0,0,1-2.49-10.78Q17,75.6,23.78,46.33a11.16,11.16,0,0,1,6.31-8L75.48,16.68l9.62-4.58a11.69,11.69,0,0,1,10.52,0L150,38a12.35,12.35,0,0,1,7.06,8.72q6.73,29.09,13.39,58.2a12,12,0,0,1-2.5,10.68q-18.69,23.22-37.35,46.47A12.55,12.55,0,0,1,120.28,167Zm-.13-1.8h29.88a11,11,0,0,0,9.06-4.32q18.58-23.16,37.2-46.28a10.71,10.71,0,0,0,2.18-9.66q-6.48-28-12.86-56.11c-1-4.29-3-7.51-7.07-9.46Q121.81,26.68,95,13.82a10.36,10.36,0,0,0-9.44.05Q58.32,26.94,31,39.94a9.54,9.54,0,0,0-5.44,6.75c-.7,3-1.38,6-2.06,9q-5.73,25-11.46,50a9.7,9.7,0,0,0,2.09,8.64Q32.61,137.28,51,160.26a12.14,12.14,0,0,0,10.22,5C70.92,165.14,80.6,165.2,90.27,165.2Z"/><path class="cls-1" d="M89.66,45c-.38-3-.72-5.46-1-7.92a4.07,4.07,0,0,1,.13-2.11,2.74,2.74,0,0,1,1.6-1.31A1.3,1.3,0,0,1,92,34.88a45.91,45.91,0,0,1-.25,4.74c-.13,1.67-.38,3.33-.44,5a7.39,7.39,0,0,0,.44,2.2c.11.38.47.69.53,1.06.37,2.26,2,2.59,3.9,2.84a39.29,39.29,0,0,1,22.58,10.93,4.76,4.76,0,0,0,5.13,1.16A11.43,11.43,0,0,0,129,59.41c1.21-1.27,2.43-2.54,3.69-3.76A2.27,2.27,0,0,1,134,54.9a2.54,2.54,0,0,1,1.86.59,2.6,2.6,0,0,1-.08,1.95,2.55,2.55,0,0,1-1.08,1.08c-1.91,1.24-3.9,2.36-5.77,3.66a13.25,13.25,0,0,0-2.52,2.45A18.74,18.74,0,0,0,125,67a2,2,0,0,0,.1,2.25,41.43,41.43,0,0,1,6.68,23.85,22.7,22.7,0,0,1-.34,2.85,3.33,3.33,0,0,0,1.16,3c2.5,2.58,5.74,2.51,8.88,2.9a35.14,35.14,0,0,1,3.67.46c1.5.35,2.1,1.25,1.83,2.34s-1.38,1.54-2.79,1.11a37.82,37.82,0,0,1-5.74-2.07c-2.53-1.25-5-.67-7.48-.11a2.66,2.66,0,0,0-1.43,1.59,39.61,39.61,0,0,1-9.44,15.26,83.4,83.4,0,0,1-7.31,6,3.83,3.83,0,0,0-1.7,2.59,9.38,9.38,0,0,0,1.56,6.61c1,1.52,2,3,3,4.5a6.2,6.2,0,0,1,.79,1.74,1.71,1.71,0,0,1-.91,2.22,1.76,1.76,0,0,1-2.25-.86,4.8,4.8,0,0,1-.59-1.18c-.66-1.92-1.41-3.83-1.92-5.79-.66-2.59-2.65-4-4.55-5.53a2.6,2.6,0,0,0-2,0,40.7,40.7,0,0,1-26.81.16,3.79,3.79,0,0,0-3.32.36,9.76,9.76,0,0,0-4.34,5.81c-.54,1.67-1.09,3.34-1.67,5a5.71,5.71,0,0,1-.63,1.29,1.74,1.74,0,0,1-2.27.79,1.65,1.65,0,0,1-.85-2.14,5.26,5.26,0,0,1,.7-1.51c1.15-1.82,2.28-3.66,3.53-5.42,1-1.47.94-3.17,1.23-4.8.33-1.86-.27-3-1.92-4a39.76,39.76,0,0,1-15.77-19.1c-1.37-3.4-3.67-4.76-7.29-4a49.2,49.2,0,0,0-5.12,1.62,30.11,30.11,0,0,1-3.53,1.09c-1.38.26-2.31-.32-2.48-1.28a2.07,2.07,0,0,1,2-2.17,58.67,58.67,0,0,1,6.42-.72,10.23,10.23,0,0,0,4.37-1.39c2.43-1.24,3.1-2.87,2.8-5.65-1-8.88,1.29-17.11,5.89-24.71a3.54,3.54,0,0,0,.29-3.31,9.7,9.7,0,0,0-4.12-4.84c-1.59-1-3.24-1.91-4.82-2.91A3.7,3.7,0,0,1,45,57.54a2.8,2.8,0,0,1,0-2.08,1.4,1.4,0,0,1,2-.43,8,8,0,0,1,1.83,1.32c1.69,1.64,3.28,3.4,5,5a8.87,8.87,0,0,0,2.48,1.35c.68.3,1.44.43,2.15.68a2.16,2.16,0,0,0,2.44-.78A40.87,40.87,0,0,1,72.93,54,41.93,41.93,0,0,1,85.7,50.54a2.75,2.75,0,0,0,2.59-2.09C88.7,47.11,89.31,45.84,89.66,45ZM87.59,60.16H87.5a11.41,11.41,0,0,0,0-1.67,2.42,2.42,0,0,0-3-2.22,35.75,35.75,0,0,0-18.76,9.22,2.06,2.06,0,0,0,.07,3.25,17.51,17.51,0,0,0,1.55,1.13c4,2.86,8.07,5.75,12.16,8.56,3.18,2.18,6.78.5,7.07-3.31C87,70.13,87.27,65.15,87.59,60.16Zm38.55,32h.06c-.08-1.35-.13-2.71-.24-4.06a34.21,34.21,0,0,0-4.53-14.26,2.16,2.16,0,0,0-3.61-.62c-1,.82-1.91,1.7-2.86,2.56-3,2.72-6.1,5.41-9.09,8.18s-2.21,6.7,1.73,7.92c5.19,1.59,10.4,3.08,15.62,4.58,1.7.49,2.83-.36,2.92-2.13C126.17,93.57,126.14,92.85,126.14,92.13Zm-21,6.74a4.26,4.26,0,0,0-4.27,2.55,5,5,0,0,0,.13,4.06c2,4.75,3.93,9.51,5.9,14.27,1,2.32,2.2,2.66,4.26,1.19A36,36,0,0,0,123.5,105.5c1-2.37.33-3.51-2.23-3.91-2.21-.34-4.4-.74-6.61-1.11ZM54.61,91.59c0,.76,0,1.52,0,2.28,0,2.25,1.14,3.11,3.33,2.48C63,94.9,68,93.4,73,92c1.73-.5,3.08-1.41,3.51-3.23a4.69,4.69,0,0,0-1.76-4.8C70.88,80.51,67.06,77,63.21,73.61c-1.81-1.61-3.16-1.38-4.3.75A34.77,34.77,0,0,0,54.61,91.59Zm25.67,11.68A4.33,4.33,0,0,0,75,99.05c-5.63.91-11.26,1.88-16.89,2.77-1,.16-1.51.56-1.31,1.62a7.28,7.28,0,0,0,.28,1.28,35.42,35.42,0,0,0,13.07,16.46c1.61,1.12,2.83.73,3.59-1.11,2-4.72,3.92-9.44,5.84-14.17A22.3,22.3,0,0,0,80.28,103.27ZM90.8,127.89c3.17-.58,6.32-1.07,9.42-1.76,2.5-.56,3-1.8,1.74-4-2.48-4.47-5-8.93-7.44-13.41-.91-1.65-2.13-2.82-4.12-2.81a4.6,4.6,0,0,0-4.13,2.8c-2.48,4.52-5,9-7.5,13.52-1.11,2-.62,3.38,1.61,3.84C83.81,126.77,87.28,127.28,90.8,127.89Zm7.61-48.35a20.8,20.8,0,0,0,2.78-1.25c1.49-.94,2.88-2,4.31-3,2.8-2,5.63-3.95,8.4-6,1.75-1.29,2-2.79.5-4.12a35.47,35.47,0,0,0-19-9c-1.5-.23-2.42.74-2.34,2.29.29,5.43.59,10.85.91,16.27A4.85,4.85,0,0,0,98.41,79.53Zm-8.58,5a4.58,4.58,0,0,0-4.4,1.89c-1.2,1.48-2.46,2.8-2.47,4.86A7.41,7.41,0,0,0,90.32,99a7.18,7.18,0,0,0,7.33-7.21C97.69,87.57,94.67,84.53,89.83,84.49Z"/></svg>