<svg id="Layer_1" data-name="Layer 1" xmlns="http://www.w3.org/2000/svg" xmlns:xlink="http://www.w3.org/1999/xlink" viewBox="0 0 493 218.6"><defs><clipPath id="clip-path"><rect x="-2" y="1.66" width="495" height="155" fill="none"/></clipPath></defs><title>mobile form</title><g clip-path="url(#clip-path)"><path d="M202.82-15.79h1c0,.34.07.67.11,1L203.68,15l-.16.22.18.2-2.79,1.47c.5-5.49-1.38-6.79-7.74-5.3-1.61.38-3.19.76-3.92,2.42-.65,1.48-2.29,2.17-4.12,2.09a81.55,81.55,0,0,1-8.58-.68c-2-.29-4.43-1.14-5.58.64-1.3,2,1.72,2.73,2.75,4.07.91,1.15,3.46,1.87.83,3.76-2.46,1.78-4,.79-5.42-.91a7.72,7.72,0,0,1-1-2.4c-.59-1.66-1.14-3.32-1.71-5-1.42-1.12-3.17-.77-4.83-.77-7.77,0-15.58-.44-23.3.11-5.48.4-6.86-1.18-5.9-5.34,1.56-1.49,1-3.32,1-5,.07-4.95,0-9.89,0-14.83l1.45-.72c-.66,5.77,3,6.91,8,6.9A5.36,5.36,0,0,1,146-2.62C148.54-.35,150.88-1.19,153-3c2.77-2.32,5.46-4.72,8-7.23s4.46-3.32,6,.55c.56,7.58-.86,15.21.74,22.77a1.08,1.08,0,0,0,1.68.07C180.68,3.62,192.13-5.76,202.82-15.79Z" fill="#ee6430"/><path d="M239.6-15.79h34.75l.15.95C266.3-7.69,258-.59,249.94,6.63c-2.76,2.46-7.12,3.57-8.39,7.26a1.27,1.27,0,0,0-1,1.5l-1.95.28c.39-1.43-.37-2.53-1.52-3.43-4.94-3.82-9.92-7.61-14.88-11.42L221.74-1C228.62-5.09,233.42-11,239.6-15.79Z" fill="#e55626"/><path d="M347.93-15.79h34.74c-5.16,5.37-11.93,9.49-16.43,15.38A132,132,0,0,0,348.4,14.37l-1.47.53C341.74,9.74,336.69,4.45,329.79.82L330-.88C335.8-6,342.74-10.13,347.93-15.79Z" fill="#ee6430"/><path d="M527.78,229.94v.87q-7,5.7-14.12,11.38a5.56,5.56,0,0,1-3.47-1.49,2.83,2.83,0,0,0-3.95,0c-1.6,1.3-.35,2.28.73,3.19.91.77,2.37,1.16,2.34,2.56-4.12,3.52-8.76,6.6-12.31,10.62l-4.63,3.06q-.19-14.59-.41-29.19l17.44-15.85a5,5,0,0,1,.87-.1C515.15,220.77,521.4,225.41,527.78,229.94Z" fill="#e96129"/><path d="M330-.88l-.24,1.7c-2.3.05-3.45,1.58-4.86,2.76-4.55,3.77-9.07,7.56-13.61,11.35L292.81-1c-2.19-2-4.33-4-6.59-5.88-3.29-2.77-6.66-5.46-10-8.19a.56.56,0,0,1,.16-.73h15.33C299.23-9,304.93-8.55,313.23-14c4.92,3,8.1,7.67,13.34,10.4Q328.31-2.27,330-.88Z" fill="#e55626"/><path d="M-48.58,76.91V76A173.16,173.16,0,0,0-31.13,61.25a7.93,7.93,0,0,1,1-.07A171.35,171.35,0,0,0-12.9,76V46.62c0-.42,0-.84.07-1.26Q-12.9,30.6-13,15.85a4.73,4.73,0,0,1,.91-.18q.17,28.44.31,56.88c0,.85,0,1.7,0,2.55.94,1.57,2.68,1,4.08,1,10.2,0,20.4,0,30.6,0l1.25.24q-.16,13.64-.32,27.28a2.27,2.27,0,0,0,1.16,2.26L24,107.52l-1.66.26-.38-.22c-4.07-6.21-10.81-10.29-16.48-15.23C10.23,88.23,15,84.14,19.8,80c.79-.69,2-1.59,1.11-2.59-.42-.49-1.82-.5-2.78-.5-10,0-20,0-30.07,0l-1.25.09C-25,74.41-36.78,77.08-48.58,76.91Z" fill="#e55626"/><path d="M276.39-15.79a.56.56,0,0,0-.16.73q0,13.65-.05,27.29c0,1-.2,2.08,1.18,2.63l-.05.19c3.92,6.25,10.45,10.36,16.58,14.8L277,44.51c-.06-8.51-2.05-16.39-1.59-24.34.06-1.05.65-2.59-1-3.06-1.25-.35-2,.89-2.81,1.58-3.88,3.27-7.7,6.59-11.6,9.83-1,.82-2,2.53-3.69,1-5.18-4.76-11.46-8.62-15.7-14.14a1.27,1.27,0,0,1,1-1.5c1.32,1.35,3.14.86,4.77.88,6.3.05,12.6,0,18.9,0,10.13,0,10.31,0,10.06-8.81-.2-6.94,1-13.92-.78-20.82l-.15-.95Z" fill="#e96129"/><path d="M132.39,9.64c-1,4.16.42,5.74,5.9,5.34,7.72-.55,15.53-.14,23.3-.11,1.66,0,3.41-.35,4.83.77q-16.36,14.22-32.74,28.43a5.54,5.54,0,0,1-1.88.56c.14-7-.75-13.91.38-20.84,1.29-1.56,2.4-3.1-.43-4.35-.53-1-.35-2.19-1.51-2.91-2.08-1.69-5,0-7.2-1.35a13.54,13.54,0,0,1,3-.2c4.86.76,5.58-1.35,5.42-4.91-.3-6.52,0-13.07-.17-19.6,0-1.78,1-3.78-1-5.34l-.07-.92h2Z" fill="#e55626"/><path d="M383.69-15.79h2.05c5.28,5.37,10.66,10.66,17.19,15,3,5.6,8.85,8.79,14.45,12.17l1.05,3.31-32.9.4-1.39-.17-.38-.11-.21-1Q383.63-1,383.69-15.79Z" fill="#e96129"/><path d="M23-15.79h1l1.18,1.32c-2.75,6.65-1,13.48-.87,20.22,0,1.31,2.79,2.62,1.75,4.71-3.51.17-2.85,2.56-3.19,4.41H-10.82l-.29-.09h-.31l.75-1.63A184.33,184.33,0,0,0,5.69-.86C11.8-5.54,17.89-10.23,23-15.79Z" fill="#e96129"/><path d="M491-15.79h35.76c-3.86,4.58-9.1,8-13.58,12.11-2.38,2.17-3.38,4-.07,6.43s6.07,5,9.54,7l2.75,5c-11.2-.06-21.81.54-32.42-.3C496.62,9.52,502.11,6.11,506.8,2c1.25-1.08,3.79-2,1.13-4.09-5.18-4.08-9.76-8.73-15.66-12.14L490.91-15A1.86,1.86,0,0,1,491-15.79Z" fill="#e55626"/><path d="M527.78,106.64v.87l-17.43,14.86a4.17,4.17,0,0,0-.71,0c-6.25-4.65-11-10.61-17.61-14.93l-.17-.89,1.39-1.65c5-2.31,8.46-6.07,12-9.7a8.11,8.11,0,0,0,.85-.21c4.25-2.65,5.72-2.46,9.65,1.9A43.26,43.26,0,0,0,527.78,106.64Z" fill="#ee6430"/><path d="M527.78,146V169.6c-2.37.94-3.78,2.82-5.67,4.23-4.29,3.18-7.4,7.47-12.6,9.79l-16.32-13.26-.42-1.55c.68,0,1.36-.08,2-.08,9,0,18,0,27-.06,1.28,0,4.72.56,3-1.71-4-5.31-8.77-10.21-16.35-12.15l1.91-1.89c4-3.08,7.31-6.75,12-9.1C523.61,145.58,526.2,144.86,527.78,146Z" fill="#e55626"/><path d="M58.72-15.79H94.49a7.85,7.85,0,0,1,0,.84c-1.64,2.65-5.49,3.52-7,6.3l-.09.05-.94.79c-8.8,7.48-18,14.65-26.18,22.63l-1.83.1a1.21,1.21,0,0,1-.91-.18l0-1.59c2.59-.27,3.16-1.78,3.15-3.71-.05-5,.39-10.11-.23-15.09-.34-2.71.74-6.27-3.3-8C57.74-14.37,58.23-15.08,58.72-15.79Z" fill="#ee6430"/><path d="M202.82-15.79c-10.69,10-22.14,19.41-33.37,29a1.08,1.08,0,0,1-1.68-.07L168-11.43l.12-4.36Z" fill="#e96129"/><path d="M493.19,170.36l16.32,13.26c0,.56.07,1.11.1,1.67-5,3.24-9.05,7.4-13.52,11.15-.71.6-1.55,1.35-1.12,2.26s1.76.64,2.7.64c9.68,0,19.36,0,29,0h1.07v.88L510.27,215a5,5,0,0,0-.87.1c-5.18-3.09-8.3-7.89-13.19-11.34a10.06,10.06,0,0,1-4.29-10c.65-4.13,0-8.4.18-12.6C492.26,177.49,491.18,173.81,493.19,170.36Zm15,30.82c-2.3-.14-3.62.25-4.3,1.7-2.11,4.47,5.72,2.43,5.36,6-.09.79,1.62.68,2.6.28.15-.07.34-.11.43-.22,1.92-2.06,4.56-3.28,7.17-4.54a2,2,0,0,0,1.2-2.6c-.39-1-1.73-.71-2.65-.64C514.49,201.43,511,202.42,508.17,201.18Z" fill="#ee6430"/><path d="M455.23-15.79h2c.16,3,4.52,3.44,5.11,6.16-3.05-.11-4.4,1.26-5.22,3.7-1.34,4-.67,8-.92,12-.09,1.4.61,3.13-.94,4.07-2.73,1.67-1.26,3.13-.06,4.7l-24.38-.2c.55-2.09,2.55-1.52,4.11-1.55,3.72-.07,7.45,0,11.17,0,1.69,0,3.68-.05,4.29-1.65C451,10,448.92,9.76,448,9c-1.8-1.51-3.71-2.95-5.38-4.56-2.32-2.23-4.82-2.83-7.84-1.1-.46-1.62,1.42-2.22,2-3.38C443.44-4.85,449.24-10.4,455.23-15.79Z" fill="#ee6430"/><path d="M168.07-15.79,168-11.43c-.31.59-.62,1.18-.92,1.78-1.57-3.87-3.56-3-6-.55S155.78-5.29,153-3c-2.13,1.78-4.47,2.62-7.06.35A5.36,5.36,0,0,0,142.87-4c-5,0-8.67-1.13-8-6.9l-1.45.72c0,4.94,0,9.88,0,14.83,0,1.7.57,3.53-1,5l-.09-25.43Z" fill="#e96129"/><path d="M493,14.45c10.61.84,21.22.24,32.42.3l-2.75-5c-.21-3.18,2.8-3.1,5.13-3.7v9.61c-6.56,4-11.39,9.47-17.3,14a5.42,5.42,0,0,0-.89.07c-5.62-5-11.83-9.45-16.64-15.06Z" fill="#ee6430"/><path d="M455.23-15.79c-6,5.39-11.79,10.94-18.44,15.76-4.33-5.37-10.2-9.42-16.34-14.4V12.15c-1.52-1.17-.86-2.7-.88-4.08-.08-7.95-.08-15.91-.11-23.86Z" fill="#e96129"/><path d="M419.46-15.79c0,8,0,15.91.11,23.86,0,1.38-.64,2.91.88,4.08.06.87.11,1.75.17,2.62l-1.16.13-1-.23-1.05-3.31c1.8-6.75,1.35-13.5,0-20.25-.23-1.17.84-2.95-1.08-3.37-1.52-.34-2.63,1.08-3.72,2-3.54,2.92-7.08,5.85-9.69,9.47-6.53-4.32-11.91-9.61-17.19-15Z" fill="#ee6430"/><path d="M522.38,143.82c-4.72,2.35-8.07,6-12,9.1-4.88-1.44-7.28-5.37-10.86-8.09-2.84-2.16-4.94-3.16-7.25.2l-.15-6,1-.79,34.74-.14V139C525.78,140.44,522.82,141.1,522.38,143.82Z" fill="#e96129"/><path d="M94.51-14.95a7.85,7.85,0,0,0,0-.84h35.77c0,.31.05.62.07.92L112,.56c0-1.94-1.57-3.13-3-4.35A145,145,0,0,0,94.51-14.95Z" fill="#e55626"/><path d="M383.69-15.79q-.06,14.79-.14,29.57c-7-3.61-11.87-9.17-17.31-14.19,4.5-5.89,11.27-10,16.43-15.38Z" fill="#e96129"/><path d="M510.35,122.37c4.8,5.83,10.28,11.07,17.43,14.88v.87l-34.74.14-.15-1c5.65-4.9,11.74-9.45,16.75-14.88A4.17,4.17,0,0,1,510.35,122.37Z" fill="#e96129"/><path d="M240.56,15.39c4.24,5.52,10.52,9.38,15.7,14.14,1.66,1.52,2.71-.19,3.69-1,3.9-3.24,7.72-6.56,11.6-9.83.81-.69,1.56-1.93,2.81-1.58,1.67.47,1.08,2,1,3.06-.46,8,1.53,15.83,1.59,24.34l16.92-14.66,16.26-13.27c1.61,1.29,1,3,1,4.52.15,8.25.21,16.51.3,24.77a2.8,2.8,0,0,1-1-.1c-12.19-.11-24.38-.39-36.57-.28-8.46.08-16.94-.51-25.37.43l-7.39-.1,0-.67-.2.63-.14-.08a.93.93,0,0,0-1.19.65l-.8,1.09a30.11,30.11,0,0,0-3.16,2.06q-15.33,12.89-30.6,25.83c-2.5-2.1-.56-4.86-1.45-7.2V47.21C198,51.44,193,54.86,188.5,58.82c-2.26,2-2.12,3.11.12,4.9,4.22,3.37,8.19,7,12.26,10.49a1.53,1.53,0,0,1-.24,2.39l-32.52,0c-.1-1.73-.24-3.46-.3-5.19-.26-7.79.55-15.59-.35-23.37,0-.64,0-1.29,0-1.93l7.91-6.69c1.58.64-.77,2.26,1,2.92.53-.55,1.37-1.6,1.51-1.54,3.52,1.65,5.67-1.61,8.81-1.79s4.05-3.8,1.94-6c-.95-1-2.26-1.8-2.16-3.29l14.41-12.79,2.8-1.47V44.69l1.69.72c2.54-2.5,5-5,7.63-7.48,8.25-7.65,17.66-14.32,25.58-22.26Z" fill="#ee6430"/><path d="M200.91,16.93,186.5,29.72a82.48,82.48,0,0,0-11.13,9.72l-7.91,6.69c-10.82.71-21.74-.51-33,1.1,3.64,3.9,7.62,7,11.07,10.58,4,4.1,4,3.57-.35,7.63-3.68,3.44-8.84,5.78-10.94,10.42l-3.91.09-1-.28c-.3-1.75-2.06-2.55-3.32-3.65-4.1-3.58-8.64-6.8-12.14-10.87l16.72-14.68c1-.33,1.08-1.09,1.18-1.84a5.54,5.54,0,0,0,1.88-.56q16.41-14.19,32.74-28.43c.57,1.66,1.12,3.32,1.71,5a7.72,7.72,0,0,0,1,2.4c1.41,1.7,3,2.69,5.42.91,2.63-1.89.08-2.61-.83-3.76-1-1.34-4.05-2.06-2.75-4.07,1.15-1.78,3.54-.93,5.58-.64a81.55,81.55,0,0,0,8.58.68c1.83.08,3.47-.61,4.12-2.09.73-1.66,2.31-2,3.92-2.42C199.53,10.14,201.41,11.44,200.91,16.93Z" fill="#e55626"/><path d="M238.61,15.67c-7.92,7.94-17.33,14.61-25.58,22.26-2.62,2.43-5.09,5-7.63,7.48l-1.69-.72V15.46l-.19-.2.16-.22c5.8-5.1,11.14-10.64,18.53-14.22,5,3.81,9.94,7.6,14.88,11.42C238.24,13.14,239,14.24,238.61,15.67Z" fill="#e55626"/><path d="M222.21.82C214.82,4.4,209.48,9.94,203.68,15L204-14.79,221.74-1C221.89-.37,222.05.23,222.21.82Z" fill="#e96129"/><path d="M167-9.65c.3-.6.61-1.19.92-1.78l-.18,24.55C166.17,5.56,167.59-2.07,167-9.65Z" fill="#e55626"/><path d="M241.92,230.6l-2.72.15,0-1.36c1-10,0-20,.36-30.07l35.83.14c1.12,0,2.42.31,3-1l4.09.85,28.68.17.81.75a2,2,0,0,1,.23.78L312,201c-7,3.86-12,9.45-17.95,14.27L276.36,230Z" fill="#ee6430"/><path d="M276.36,230l17.72-14.69A62.68,62.68,0,0,0,306.57,226c2.67,1.79,4.26,2,4.87-1.59,1.32-7.79.63-15.58.59-23.37l.2.06c5.27,0,10.53.07,15.8.15,1,0,2.18.16,2,1.39-.12.9-1.1,1-1.94,1-2.21.05-4.42,0-6.63.06-1,0-2.29-.12-2.51,1-.11.54.6,1.29,1.12,1.82,2.95,3,6.23,5.71,8.57,9.09l-16.48,14.38H311.1l0,0-.39-1.11-.61,1c-1.81,1-3.88.88-5.9.9L277.3,231a5.4,5.4,0,0,0-.91-.14Z" fill="#e55626"/><path d="M140.47,230.79l-7.51-.71,33.26-30.18,1.61,0c4.64,4.15,9.64,8,14.1,12.31,2.73,2.66,2.49,4.14-.16,6.46-4.35,3.8-9.53,7-12.47,11.89Z" fill="#e55626"/><path d="M169.3,230.6c2.94-4.89,8.12-8.09,12.47-11.89,2.65-2.32,2.89-3.8.16-6.46-4.46-4.33-9.46-8.16-14.09-12.31,5.51-6,12.39-10.88,18.68-16.24-.25,1.9,1.67,2.65,2.78,3.83,1.67,1.78,4.64,3.59,4.65,5.39,0,5.06,4.3,5.41,8.05,6.63-2.89,5.69-8.85,9.11-13.84,13.12-2.57,2.07-2.29,3.09-.4,4.8,1.28,1.17,2.79,2.17,3.92,3.43,3.07,3.43,8.36,5.11,10.18,9.49a.49.49,0,0,1,0,.61Z" fill="#e96129"/><path d="M329.77,245.78c-4.66-4.05-9.28-8.14-14-12.12-1.08-.9-1.62-1.74-1.39-3,10.46-.59,21,.85,32.3-1.23a125.9,125.9,0,0,1-16.11-14.39c4.32-5.49,11.08-9.11,16-14.94-7.33,0-13.92.14-20.51,0-4.33-.12-8.76.87-13-.64h32.71l1.21-1.78c-5-3.88-10.15-7.67-15-11.67-2.16-1.76-3.34-1-5,.45-4.8,4.1-9.73,8.09-14.61,12.12l-.19-1.84-.06-3.49-.07-8.8q0-6.5-.07-13c.7-.93,1.49-.25,2.25-.1,4.09,3.46,8.35,6.79,12.19,10.45,2.34,2.22,3.78,2,6.07,0,4.67-4.18,9.64-8.11,14.49-12.15,2.78.42,4,2.57,5.89,3.94,3.73,2.69,6.31,6.48,10.88,8.36,1.29,1.8,1.12,3.17-.78,4.87-4.86,4.36-10.66,8-14.51,13.14-1.21,9.5-.39,19-.52,28.53,0,.47.65.95,1,1.42l35.52-.07-.79,1a6.18,6.18,0,0,0-1,.05l-30.66,0-4.28,0Z" fill="#e96129"/><path d="M274.5-14.84c1.82,6.9.58,13.88.78,20.82.25,8.81.07,8.81-10.06,8.81-6.3,0-12.6,0-18.9,0-1.63,0-3.45.47-4.77-.88,1.27-3.69,5.63-4.8,8.39-7.26C258-.59,266.3-7.69,274.5-14.84Z" fill="#ee6430"/><path d="M346.93,14.9l1.48-.53c4.08,1.24,8-1.18,12-.43,7.71,1.44,15.54.5,23.31.85l.38.11c-.86,9.26-.28,18.53-.42,27.8,0,1.12.22,2.06,2,1.7a5.34,5.34,0,0,0,4.54,1.43c9.42-.83,18.86-.21,28.27-.5l.82-.63a2.37,2.37,0,0,0,.88-.06l1.31.22c1.7,1,3.61.54,5.42.56,8.08.09,16.17.12,24.25.17q-.09.28-.15.57c-6.9,0-13.79-.18-20.68-.07-3.29.06-6.76-.72-9.83,1a4.41,4.41,0,0,0-.73-.08.86.86,0,0,1-.27-.39.73.73,0,0,0-1.1.35l-8.88,7.22c-1.41,0-2.27.54-2.29,1.84l.09-.09c-1.38,0-2.13.58-2.15,1.8l.05-.11-1.1,1.11-.79.66a2,2,0,0,0-2.28,1.75L384.62,76.06l-1,.91L365.38,92l-8.41-7c-3.6-2.09-4.76-6.72-10-7.09a4.36,4.36,0,0,0-3.27-.89l-31.58,0h0l0-1.74c2.22-.17,2.84-2.31,4.76-2.84,1,.06,1.9-.11,2.33-1l-.27.1s-.11-.24-.1-.23c.82.06,2.08.43,2.39.11,2.56-2.62,5.7-2,9.66-.8a9.43,9.43,0,0,1-.1-7.75c2.24,1.5,4.32,3.2,6.5,4.7,3.61,2.49,5.83,6.35,10.48,7.76a1.32,1.32,0,0,0,1.78.14c5.28-4.71,10.54-9.46,15.8-14.19l.79-.08c3.36,4.59,9.09,7.28,12.76,11.63a3.85,3.85,0,0,0,3.64,1.13c1.7-.42,1.12-1.92,1.13-3,.05-5.51.13-11,0-16.51-.07-2.54.91-5.24-1.06-7.59,0-.43.07-.86.1-1.28-5.21-5.47-11.54-10-17.3-15-3.48-4.77-9.34-7.55-13.51-11.75-.78-.79-1.65-2.22-3.23-1.54-1.21.52-.66,1.85-.66,2.81,0,8.43,0,16.87,0,25.31l-1.29.34.2-.16a73.55,73.55,0,0,0-12.57-10.63c-1.71-1.08-3.59-2.28-3.82-4.4.84-2.16,3-3.39,4.72-5C339.12,22,343.77,19,346.93,14.9Z" fill="#e55626"/><path d="M346.93,14.9C343.77,19,339.12,22,335.24,25.53c-1.7,1.57-3.88,2.8-4.72,5-6,3.56-10.89,8.14-15.53,12.92l-2.8,2.06-.72.4c-.09-8.26-.15-16.52-.3-24.77,0-1.53.59-3.23-1-4.52a3.66,3.66,0,0,1,0-.81l1.15-.84c4.54-3.79,9.06-7.58,13.61-11.35,1.41-1.18,2.56-2.71,4.86-2.76C336.69,4.45,341.74,9.74,346.93,14.9Z" fill="#e96129"/><path d="M383.76,14.79c-7.77-.35-15.6.59-23.31-.85-4.05-.75-8,1.67-12,.43A131.29,131.29,0,0,1,366.24-.41c5.44,5,10.28,10.58,17.31,14.19Z" fill="#e55626"/><path d="M493.19,170.36c-2,3.45-.93,7.13-1.09,10.71-.18,4.2.47,8.47-.18,12.6a10.06,10.06,0,0,0,4.29,10c4.89,3.45,8,8.25,13.19,11.34L492,230.9l-.43,0-.44,0c-8.15-.06-16.3-.23-24.44-.13-3.47,0-6.91-2.08-10.38-.09-.06-.17-.12-.34-.19-.51l.2-2.82c1.54,0,3.18.06,4.2-1.15,2.46-2.92,6-4.64,9.41-6.51a5.8,5.8,0,0,0,1.76-1.53c.77-1,1.28-2.19,0-3.16-1.47-1.12-2.76-.13-3.38.8-2.78,4.13-7.37,5-12.33,5.43.1-1.76.19-3.53.29-5.29,6.68-4.16,6.66-11,0-14.86l.09-.9a238.43,238.43,0,0,1,25.08.78c2.34.19,4.57-.23,5.9-1.91,1.55-1.95-.86-2.7-2-3.82-3.8-3.61-7.35-7.44-12.53-9.74l.83-1c6.18-5,12.48-9.82,17.71-15.58a1,1,0,0,0,.58-.27,2.06,2.06,0,0,0,.95.2Z" fill="#e96129"/><path d="M311.32,14.93l-1.15.84a13.88,13.88,0,0,0-3.36-.87c-9.83,0-19.67.09-29.5.15l.05-.19c0-2.67,2.57-3.94,4.5-5.35,4.24-3.08,8.78-5.86,10.95-10.5Z" fill="#ee6430"/><path d="M292.81-1c-2.17,4.64-6.71,7.42-10.95,10.5-1.93,1.41-4.46,2.68-4.5,5.35-1.38-.55-1.18-1.65-1.18-2.63q0-13.63.05-27.29c3.33,2.73,6.7,5.42,10,8.19C288.48-5,290.62-2.95,292.81-1Z" fill="#e96129"/><path d="M-13.73,108.42c0-.39.09-.78.14-1.17h0l1.28-1.42c1.37-8.76.39-17.56.49-26.34,0-.85-.09-1.7-.13-2.55,10,0,20,0,30.07,0,1,0,2.36,0,2.78.5.86,1-.32,1.9-1.11,2.59C15,84.14,10.23,88.23,5.44,92.33.16,95.54-4,99.79-8.65,103.53c-1.07.86-2.78,1.72-2,3.15s2.69.89,4.15.89c9.47,0,18.94,0,28.41,0l.38.21-2.45,3C14.49,114.84,9.23,119,5.06,124c-2,.53-3.1,2.11-4.62,3.21-4.07,2.93-7,6.89-11.8,9.18-1.7-1.24-1.12-2.94-1.13-4.47-.07-6.36,0-12.73-.1-19.09C-12.62,111.34-11.86,109.6-13.73,108.42Z" fill="#e96129"/><path d="M-11.72,75.1c0-.85,0-1.7,0-2.55,1.35-1.38.88-3,.89-4.59.08-7.54.11-15.07.15-22.61l33.73,0a2.07,2.07,0,0,0,1,.06h0l1,1c0,.26,0,.53,0,.79a2.92,2.92,0,0,0-1.1,2.74l.15,26.3.12.1L23,76c-1.53-1.33-3.49-.85-5.29-.86C7.88,75.12-1.92,75.12-11.72,75.1Zm34.6-27.43c-5.3,2.32-8.61,5.9-13.06,8.24-1.67.88-4.45,3.62-2.33,6.36A35.81,35.81,0,0,0,19.73,72.43c1.5.76,3.1,1,3.12-1.11C22.91,63.56,22.88,55.8,22.88,47.67Z" fill="#ee6430"/><path d="M-10.7,45.35c0,7.54-.07,15.07-.15,22.61,0,1.56.46,3.21-.89,4.59q-.15-28.44-.31-56.88l1.24-.79H22.85c-.05.52-.09,1.05-.14,1.57a9.27,9.27,0,0,0-2.2,1c-8.08,6.91-16.38,13.65-24,20.91C-5.89,40.65-9.72,42-10.7,45.35Z" fill="#e96129"/><path d="M25.05,105.82a2.27,2.27,0,0,1-1.16-2.26q.13-13.64.32-27.28l-.12-.1,14.25,0h5.14A77.84,77.84,0,0,0,57.8,76l2,.07L59.7,76l-.09,1.68c-4.66,1.46-7,5.12-10.17,8-.42.1-.54.32-.37.66L49,86.2C40.44,92.23,33.09,99.33,25.05,105.82Z" fill="#ee6430"/><path d="M25.05,105.82c8-6.49,15.39-13.59,23.94-19.61.7,1.55.23,2.78-1.32,3.79s-1.05,2.15-.63,3.5c1.87,6,6.74,10,11.69,14l-1.1.79c-8.34-1.75-16.81-.71-25.21-.79-2.24,0-5.31-1.25-6.53,1.81L24,107.52Z" fill="#ee6430"/><path d="M24,107.52l1.93,1.83,1.08.88,1,.84c4.62,3.65,8.14,8.27,13.51,11.26-4.86,5.41-11,9.76-16.38,14.76l-1.95.67-1.3-1.38c2.67-8.72,4-17.37-2-25.6l2.45-3Z" fill="#e96129"/><path d="M21.92,107.56c-9.47,0-18.94,0-28.41,0-1.46,0-3.38.5-4.15-.89s.92-2.29,2-3.15c4.68-3.74,8.81-8,14.09-11.2C11.11,97.27,17.85,101.35,21.92,107.56Z" fill="#e55626"/><path d="M-11.72,75.1c9.8,0,19.6,0,29.39.08,1.8,0,3.76-.47,5.29.86-10.2,0-20.4.07-30.6,0C-9,76.07-10.78,76.67-11.72,75.1Z" fill="#e96129"/><path d="M277.31,15.05c9.83-.06,19.67-.16,29.5-.15a13.88,13.88,0,0,1,3.36.87,3.66,3.66,0,0,0,0,.81L293.89,29.85C287.76,25.41,281.23,21.3,277.31,15.05Z" fill="#e55626"/><path d="M58.5,14.92l1.83-.1.49,0c4,5.59,10.09,9.53,15.15,14.28a2,2,0,0,0,2.73-.16c5.62-4.36,11.85-8.22,16-13.85L95.78,15a1.08,1.08,0,0,0,.56-.08l1.2.22a83,83,0,0,0,21.47,0l4,0c2.18,1.32,5.12-.34,7.2,1.35-9.79,7.15-18.12,15.56-27.36,23.18-2,1.68-4.53,3.1-5.38,5.64l-2.91,1-.67-.4-.12.67,0,.23c-.7-.39-1.39-1.09-2.09-1.11-10.57-.19-21.15-.3-31.72-.43l-.28,0-.28,0a.55.55,0,0,0,0-.72q.11-13,.21-25.91a2.12,2.12,0,0,0-1.23-2.2Z" fill="#e55626"/><path d="M97.5,45.35c.85-2.54,3.35-4,5.38-5.64,9.24-7.62,17.57-16,27.36-23.18,1.16.72,1,1.95,1.5,2.91a6.37,6.37,0,0,0,.44,4.35c-1.13,6.93-.24,13.89-.38,20.84-.1.75-.19,1.51-1.18,1.84-1.67-1.43-3.81-.94-5.77-1C115.73,45.42,106.62,45.4,97.5,45.35Z" fill="#e96129"/><path d="M123,15.18l-4,0a210.62,210.62,0,0,0-21.47,0l-1.2-.22L112,.56l18.33-15.43c1.94,1.56.94,3.56,1,5.34.15,6.53-.13,13.08.17,19.6.16,3.56-.56,5.67-5.42,4.91A13.54,13.54,0,0,0,123,15.18Z" fill="#ee6430"/><path d="M132.18,23.79a6.37,6.37,0,0,1-.44-4.35C134.58,20.69,133.47,22.23,132.18,23.79Z" fill="#e55626"/><path d="M235.42,230.3l-1.86-.06-1.38.08-25,0-3.33-.41c0-8.59,0-17.17,0-25.76,0-1.39-.57-2.94.95-4.1,3.78,3.4,7.57,6.78,11.34,10.19,1.93,1.75,4.53,3.05,5.19,5.65a77,77,0,0,0-14.64,13h31l1.58.45,0,1.36.11,0-2.5-.45Z" fill="#e55626"/><path d="M418.43,14.67l1,.23-.12,1c-2.31.82-3.58,2.6-5.17,4.08L401.93,30.57c-.25,0-.5,0-.75.05-.08-1.55-1.77-2-2.68-3-4-4.43-10.44-7-13-12.54Z" fill="#e96129"/><path d="M385.53,15.07c2.53,5.53,9,8.11,13,12.54.91,1,2.6,1.46,2.68,3L385.7,44.4c-1.76.36-2-.58-2-1.7.14-9.27-.44-18.54.42-27.8Z" fill="#ee6430"/><path d="M402.93-.81c2.61-3.62,6.15-6.55,9.69-9.47,1.09-.9,2.2-2.32,3.72-2,1.92.42.85,2.2,1.08,3.37,1.31,6.75,1.76,13.5,0,20.25C411.78,8,406,4.79,402.93-.81Z" fill="#e55626"/><path d="M-12.39-13A11.59,11.59,0,0,1-4.73-9.35c2.09,2.18,3.58,5,7.67,5.16C5.09-4.1,4.05-1.56,5.69-.86a184.33,184.33,0,0,1-16.36,14l-1.84-2C-13,3.1-10.63-4.95-12.39-13Z" fill="#e55626"/><path d="M25.16-14.47q6.49,5.58,13,11.14c1.17,1,2,2.4,4.09,2.27a2.21,2.21,0,0,1,.13.67c-6,3-9.83,8.15-15.12,11.89l-.45-.4L26,10.43l0,0c1-2.09-1.73-3.4-1.75-4.71C24.18-1,22.41-7.82,25.16-14.47Z" fill="#e55626"/><path d="M22.71,16.45c.05-.53.09-1.06.14-1.58.34-1.85-.32-4.24,3.19-4.41l0,0,.79.67.45.4c-.9,1.21-2.8,1.77-3.08,3.4q-.36,10.86-.74,21.72C22.17,29.92,23.54,23.16,22.71,16.45Z" fill="#e55626"/><path d="M60.65,229.09c-1-.25-1.64-1.73-2.93-1.05s-.56,1.71,0,2.58l-31.49,0c-.1-.32-.21-.65-.32-1-.34-1.06.59-1.58,1.3-2.17L58.63,201a2.69,2.69,0,0,0,2.31-.84c8.78.61,17.54-1.24,26.34-.12a8.84,8.84,0,0,0,6.17-1.57c5.84,3.26,12,1.74,18.17,1l17.51.29c.06,1.12-.66,1.77-1.57,2.54-3.73,3.16-7.6,6.19-10.71,9.87-2.07,2.43-2.15,4.23.55,6.39,3.8,3,7.26,6.35,10.86,9.55-5.69,2.09-11.66.67-17.48.85-2.9.09-6.91,1.62-8.58-1.87-1.46-3.06,2.63-4,4.17-5.82,2.58-3.11,2.73-6.37-1.33-7.2-5.31-1.08-5.73-4.83-8.38-8-.11,1.33-.19,2.17-.26,3-1.82-1.62-.48-3.61-.86-5.4-.17-.8.38-1.89-.83-2.29s-1.85.55-2.48,1.15c-8.78,8.28-19,15.34-27.36,24Z" fill="#e55626"/><path d="M492.27-14.2c5.9,3.41,10.48,8.06,15.66,12.14,2.66,2.09.12,3-1.13,4.09C502.11,6.11,496.62,9.52,493,14.45l0,.27c-11,.09-22,.2-33,.26a3.6,3.6,0,0,1-2.25-.53c-.8-.95.42-1.57,1.07-2.12,4.92-4.16,9.89-8.28,14.85-12.41q7.33,6,14.69,12c.8.65,1.3,2,2.75,1.43s.84-1.79.86-2.74C492.08,2.36,492.17-5.92,492.27-14.2Z" fill="#e96129"/><path d="M492.27-14.2c-.1,8.28-.19,16.56-.33,24.84,0,.95.47,2.23-.86,2.74s-1.95-.78-2.75-1.43Q481,6,473.64-.08a3.86,3.86,0,0,0,.12-.59c3.83-2.07,5.8-5.68,9.14-8.16l1.29-.75.76-.67,1-1.17-.08.12c.66-.09,1.06-.39,1.14-1l0,.15c.79-.41,1.76-.72,1.27-1.79l.13.32.39,0,2.1-1.49Z" fill="#ee6430"/><path d="M493.25,105l-1.39,1.65c-2.69-.22-3.76-2.3-5.56-3.55-4.57-3.17-7.54-7.76-12.69-10.41q.06-.42.09-.84c6.43-4.69,11.58-10.53,18.32-14.93,0,7-.11,14.06,0,21.08,0,1.77-.89,3.74.95,5.29Z" fill="#ee6430"/><path d="M473.61,92.64c5.15,2.65,8.12,7.24,12.69,10.41,1.8,1.25,2.87,3.33,5.56,3.55.06.3.12.6.17.89l-.17,0-31.76.18c-1.18-.28-2.78-.1-2.82-1.74Z" fill="#e96129"/><path d="M509.64,122.42c-5,5.43-11.1,10-16.74,14.88h-.33l-.33,0q-.21-14.44-.43-28.88l.05-.9.17,0C498.66,111.81,503.39,117.77,509.64,122.42Z" fill="#e96129"/><path d="M493,103.24c-1.84-1.55-.93-3.52-.95-5.29-.09-7,0-14,0-21.08a2.76,2.76,0,0,1,0-.81l.89-.17c.43,1.94,2.15,3.15,3.45,4.63,3.3,3.78,8.44,6.08,11.08,10.34-1.35,1.19-.91,2.77-1.26,4.18a8.11,8.11,0,0,1-.85.21l-5.09,0a.61.61,0,0,0-1,0C492.91,95.54,492.9,99.37,493,103.24Z" fill="#e55626"/><path d="M493,103.24c-.05-3.87,0-7.7,6.23-8l0,0c.35.51.71.46,1.06,0l0,0,5.09,0c-3.57,3.63-7,7.39-12,9.7Z" fill="#e55626"/><path d="M492.77,168.81a2.06,2.06,0,0,1-.95-.2.85.85,0,0,1,.18-.68c2.24.14,3.42-1.46,4.28-2.6,3.23-4.25,8.23-6.91,12.16-10.52,7.58,1.94,12.38,6.84,16.35,12.15,1.7,2.27-1.74,1.7-3,1.71-9,.09-18,.05-27,.06C494.13,168.73,493.45,168.78,492.77,168.81Z" fill="#e96129"/><path d="M508.44,154.81c-3.93,3.61-8.93,6.27-12.16,10.52-.86,1.14-2,2.74-4.28,2.6l.24-22.9c2.31-3.36,4.41-2.36,7.25-.2,3.58,2.72,6,6.65,10.86,8.09Z" fill="#ee6430"/><path d="M23.42,36.62q.38-10.86.74-21.72l33.43-.16a1.21,1.21,0,0,0,.91.18c0,.53,0,1.07-.07,1.61-3.81,1-5.78,3.92-8.37,6.14-8.76,7.48-8.82,7.65,0,15,2.94,2.45,4.86,6,9.36,7a.55.55,0,0,1,0,.72L24,45.39h0l-.57-6Z" fill="#ee6430"/><path d="M95.78,15l-1.11.06-33.85-.27-.49,0c8.22-8,17.38-15.15,26.18-22.63l.94-.79.09-.05c5.4-.09,7.6,1.7,7.84,6.78C95.64,3.75,95.65,9.37,95.78,15Z" fill="#e96129"/><path d="M95.78,15c-.13-5.62-.14-11.24-.4-16.86-.24-5.08-2.44-6.87-7.84-6.78,1.48-2.78,5.33-3.65,7-6.3A145,145,0,0,1,109-3.79c1.46,1.22,3,2.41,3,4.35L96.34,14.91A1.08,1.08,0,0,1,95.78,15Z" fill="#e55626"/><path d="M42.36-.39a2.21,2.21,0,0,0-.13-.67l14.42-12.2.66.34,0-.68,0-.07c4,1.75,3,5.31,3.3,8,.62,5,.18,10.06.23,15.09,0,1.93-.56,3.44-3.15,3.71C52.24,8.88,46.85,4.62,42.36-.39Z" fill="#e55626"/><path d="M42.36-.39c4.49,5,9.88,9.27,15.26,13.54l0,1.59-33.43.16c.28-1.63,2.18-2.19,3.08-3.4C32.53,7.76,36.32,2.64,42.36-.39Z" fill="#e96129"/><path d="M166.22,199.9,133,230.08,131.8,230l-1.63-.31c0-.16,0-.32,0-.49,1.46-1.32,1-3,1.13-4.55q.62-12.54,1.2-25.08l.41-.09h32Z" fill="#e55626"/><path d="M492.86,75.89l-.89.17c-3.14-.75-2.19-5.18-6.25-5.1l-3-2.57c2.63-2.29,3-4.33-.91-5.89-2.44-1-3.05-2.83-3.19-4.9,3.27-2.91,6.58-5.78,9.78-8.74.83-.78,2.66-1.31,1.94-2.7-.58-1.12-2.13-.62-3.24-.62-10,0-20,.06-30,.1l-.35,0-.36,0c4.25-5.12,10.18-8.88,15-13.56,1-.94,3.05-2.31,1.76-3.17-2.68-1.78-3.43-5.75-8.54-5.1-3.12.4-6.5-.69-6.23-4.49.14-2-1.24-2.87-3-3.62a3.23,3.23,0,0,0-.1-.82c-1.2-1.57-2.67-3,.06-4.7,1.55-.94.85-2.67.94-4.07.25-4-.42-8,.92-12,.82-2.44,2.17-3.81,5.22-3.7C466.6-7,469.32-3,473.76-.67a3.86,3.86,0,0,1-.12.59c-5,4.13-9.93,8.25-14.85,12.41-.65.55-1.87,1.17-1.07,2.12A3.6,3.6,0,0,0,460,15c11-.06,22-.17,33-.26,4.8,5.61,11,10.1,16.63,15.06-.16,2-2.13,2.82-3.42,4.12-3.95,4-9.5,6.74-12.21,11.66.29,2.53,1.46,4.24,4.14,5.86,4.47,2.7,8.63,6,10.33,10.8a1.13,1.13,0,0,1-.07.57A179.86,179.86,0,0,0,492.86,75.89Z" fill="#e96129"/><path d="M492.86,75.89a179.86,179.86,0,0,1,15.5-13.1c.29,1.58.95,2.76-1.42,4.25-3.44,2.18-4.62,6.41-9.4,7.86l.78,1.29h20.44c1.6,3.14-.12,4.84-3.77,5.62,1.48,1.74,3.38.8,4.88,1.23-2.8,2.46-5.65,4.88-8.39,7.39-1.3,1.2-2.62,1.06-4.09.43-2.64-4.26-7.78-6.56-11.08-10.34C495,79,493.29,77.83,492.86,75.89Z" fill="#e96129"/><path d="M455.24,14.85a3.23,3.23,0,0,1,.1.82c-6.45,4.14-10.95,10-17.51,14.1-6.33-3.45-10.59-9-17.62-13.37V44.64a2.37,2.37,0,0,1-.88.06V15.92c.05-.34.09-.68.13-1l1.16-.13c.89-1,.94-2.7,3.08-2.59.56,2.32,2.66,2.45,4.83,2.49l2.33,0Z" fill="#e55626"/><path d="M423.7,12.18c-2.14-.11-2.19,1.61-3.08,2.59-.06-.87-.11-1.75-.17-2.62V-14.43c6.14,5,12,9,16.34,14.4-.57,1.16-2.45,1.76-2,3.38-3.26,1.59-5.55,4.13-8.3,6.22C424.81,9.84,424.5,11.21,423.7,12.18Z" fill="#ee6430"/><path d="M426.5,9.57c2.75-2.09,5-4.63,8.3-6.22,3-1.73,5.52-1.13,7.84,1.1C444.31,6.06,446.22,7.5,448,9c.9.75,3,1,2.41,2.4-.61,1.6-2.6,1.63-4.29,1.65-3.72,0-7.45,0-11.17,0-1.56,0-3.56-.54-4.11,1.55l-2.33,0C428.5,12.78,426.13,11.57,426.5,9.57Z" fill="#e55626"/><path d="M492.24,145l-.24,22.9a.85.85,0,0,0-.18.68,1,1,0,0,1-.59.27l-1.13-.25c-.6-1.75-2.29-2.76-3.64-4-3.95-3.67-8.63-6.74-12-10.86,5.19-5.52,10.51-10.92,17.66-14.71Z" fill="#ee6430"/><path d="M492.09,139.05c-7.15,3.79-12.47,9.19-17.66,14.71h-.37l-.37,0c-2.66-2.4-5.4-4.74-8-7.21s-6.16-4.09-7.4-7.45c1.95-1.19,4.2-.93,6.39-1,5.76-.08,11.52-.12,17.28-.18l3.69-.05,4.27.1c.89.11,1.76.14,2.28-.67l.33,0h.33c0,.32.09.64.14,1Z" fill="#ee6430"/><path d="M134.25,75.86c2.1-4.64,7.26-7,10.94-10.42,4.32-4.06,4.33-3.53.35-7.63-3.45-3.54-7.43-6.68-11.07-10.58,11.25-1.61,22.17-.39,33-1.1,0,.64,0,1.29,0,1.93-1.22,7.75,0,15.57-1.15,23.33-.36-3.58-.33-7.17-.38-10.76,0-1.1.26-2.62-1.72-2.64-4.56,0-4.16,4.55-7.32,6-1.46.67,0,1.72.47,2.57,2.24,3.76,6,6.56,8.71,10-10.1-.29-20.19-.29-30.29.14Z" fill="#e55626"/><path d="M205.07,75.33q15.3-12.91,30.6-25.83a30.11,30.11,0,0,1,3.16-2.06A4.2,4.2,0,0,1,241,51.59q-.15,12.13-.34,24.27a5.12,5.12,0,0,1-.27.52l-1.74.36c-4.76-1.47-9.69-.36-14.52-.69C217.78,75.61,211.35,76.9,205.07,75.33Z" fill="#e55626"/><path d="M168.12,76.62l32.52,0,2,.37c-.85.88-1.63,1.82-2.56,2.63q-15.47,13.52-31,27l-1,0-.18-29.71Z" fill="#e55626"/><path d="M202.63,77l-2-.37a1.53,1.53,0,0,0,.24-2.39c3.31-1.23,1-4.34,2.74-6.08.89,2.34-1.05,5.1,1.45,7.2,6.28,1.57,12.71.28,19,.72,4.83.33,9.76-.78,14.52.69-4.11,5.73-10.84,9.29-16.07,14.09-1.48,1.36-2.2-.2-3.15-.93C213.84,85.57,208.23,81.28,202.63,77Z" fill="#e96129"/><path d="M240.64,75.86q.18-12.14.34-24.27a4.2,4.2,0,0,0-2.15-4.15l.8-1.09,1.19-.65.13.07.19,0,7.39.1c8.55,1.13,17.15,0,25.71.45-1.56,1.28-3.52.79-5.33.8-7.46,0-14.92,0-22.37,0-1.12,0-2.62-.39-3.16.8s.85,1.78,1.63,2.46c3.07,2.7,6.07,5.48,9.35,8,3,2.31,2.83,4.05-.1,6.37-4.44,3.51-8.51,7.37-12.74,11.08l-.44,0Z" fill="#e55626"/><path d="M203.62,68.13c-1.78,1.74.57,4.85-2.74,6.08-4.07-3.51-8-7.12-12.26-10.49-2.24-1.79-2.38-2.91-.12-4.9,4.51-4,9.52-7.38,15.12-11.61Z" fill="#e55626"/><path d="M166.09,76.54c-2.76-3.42-6.47-6.22-8.71-10-.51-.85-1.93-1.9-.47-2.57,3.16-1.45,2.76-6,7.32-6,2,0,1.7,1.54,1.72,2.64.05,3.59,0,7.18.38,10.76,1.18-7.76-.07-15.58,1.15-23.33.89,7.78.08,15.58.34,23.37.06,1.73.2,3.46.3,5.19l-.22.3Z" fill="#e96129"/><path d="M175.37,39.44a82.48,82.48,0,0,1,11.13-9.72c-.1,1.49,1.21,2.28,2.16,3.29,2.11,2.22,1.18,5.85-1.94,6s-5.29,3.44-8.81,1.79c-.14-.06-1,1-1.51,1.54C174.6,41.7,177,40.08,175.37,39.44Z" fill="#e96129"/><path d="M274.24,46.37c-8.56-.42-17.16.68-25.71-.45,8.43-.94,16.91-.35,25.37-.43,12.19-.11,24.38.17,36.57.28-11,1-22,.06-32.93.56Z" fill="#e96129"/><path d="M277.54,46.33c11-.5,22,.46,32.93-.56a2.8,2.8,0,0,0,1,.1l.72-.4,0-.06-.44.67c0,.52.07,1.05.1,1.57a2,2,0,0,0-.75.33h-.86l-3.13.07c-1.86-1.4-4.16-.88-6.26-.91-7.71-.11-15.42-.1-23.12-.14A2.67,2.67,0,0,1,277.54,46.33Z" fill="#e96129"/><path d="M240.82,45.7l-1.19.65A.93.93,0,0,1,240.82,45.7Z" fill="#e96129"/><path d="M241.14,45.82l-.19,0,.21-.62Z" fill="#e96129"/><path d="M97.5,45.35c9.12,0,18.23.07,27.35.16,2,0,4.1-.47,5.77,1L113.9,61.15c-6.29,5.12-12.8,10.07-18.41,15.78l0,0-1,0a8.5,8.5,0,0,1-1-.16c-10.94-1.26-21.93-.38-32.89-.54-.3-.09-.6-.17-.91-.24l.09.09,1.15-1.76c2.14,0,3.07-1.61,4.35-2.64,4-3.22,7.87-6.56,11.8-9.85L93.82,46.91a2,2,0,0,0,0-.24l.8-.27Z" fill="#ee6430"/><path d="M129.36,75.67l1,.28c.32,1.62-1.38,2.41-2,3.63L113,92.65c-5.58,4.58-11.36,9-16.36,14.07H95.52q0-14.91,0-29.82l0,0c9.56-.1,19.12-.17,28.68-.3C125.94,76.6,127.92,77.1,129.36,75.67Z" fill="#ee6430"/><path d="M129.36,75.67c-1.44,1.43-3.42.93-5.19,1-9.56.13-19.12.2-28.68.3,5.61-5.71,12.12-10.66,18.41-15.78,3.5,4.07,8,7.29,12.14,10.87C127.3,73.12,129.06,73.92,129.36,75.67Z" fill="#e96129"/><path d="M128.31,79.58c.65-1.22,2.35-2,2-3.63l3.91-.09,1.55.82c-.16,2.38-5.05,1.72-4.21,4.76C131.57,79.43,130.45,78.84,128.31,79.58Z" fill="#e96129"/><path d="M239.23,229.39l-1.58-.44c-5.3-4.47-9.72-9.75-16.31-13-.66-2.6-3.26-3.9-5.19-5.65-3.77-3.41-7.56-6.79-11.34-10.19,1.71-.9,3.61-.55,5.44-.56,9.79-.08,19.58-.12,29.37-.18l0,0C239.27,209.34,240.25,219.37,239.23,229.39Z" fill="#e96129"/><path d="M278.42,198.5c-.58,1.27-1.88,1-3,1l-35.83-.14,0,0c.18-2.68.35-5.36.53-8,.13.86.25,1.72.4,2.57.19,1.1-.62,2.58.84,3.19s2.37-.81,3.27-1.58c4.21-3.6,8.35-7.26,12.52-10.9,6.29-4.38,10.8-10.38,17.74-14.16,1,8,.24,16.07.53,24.1.07,1.85-.44,4,3,3.93Z" fill="#e96129"/><path d="M312.11,193.23l.06,3.49-.93,1.43c-5.94.09-11.89,0-17.81.32-3.64.17-7.46-1-10.92.88l-4.09-.85v0c0-1.31,1.07-2.05,2-2.86l28.66-24.27,2.87.1q0,6.5.08,13A10.42,10.42,0,0,0,312.11,193.23Z" fill="#e55626"/><path d="M312,201c0,7.79.73,15.58-.59,23.37-.61,3.57-2.2,3.38-4.87,1.59a62.68,62.68,0,0,1-12.49-10.69C300,210.44,305.07,204.85,312,201Z" fill="#e55626"/><path d="M313.07,199.44c4.23,1.51,8.66.52,13,.64,6.59.19,13.18,0,20.51,0-4.95,5.83-11.71,9.45-16,14.94l-1.89.49c-2.34-3.38-5.62-6.12-8.57-9.09-.52-.53-1.23-1.28-1.12-1.82.22-1.07,1.53-.93,2.51-1,2.21,0,4.42,0,6.63-.06.84,0,1.82-.15,1.94-1,.17-1.23-1-1.38-2-1.39-5.27-.08-10.53-.1-15.8-.15a2,2,0,0,0-.23-.78c.06-.35.1-.7.15-1.05C312.45,199.31,312.76,199.38,313.07,199.44Z" fill="#ee6430"/><path d="M282.51,199.35c3.46-1.85,7.28-.71,10.92-.88,5.92-.28,11.87-.23,17.81-.32,0,.46,0,.91-.05,1.37Z" fill="#ee6430"/><path d="M311.19,199.52c0-.46,0-.91.05-1.37l.93-1.43c.07.61.13,1.22.19,1.84a3.63,3.63,0,0,0-.21.66c0,.35-.09.7-.15,1.05Z" fill="#e55626"/><path d="M328.65,215.56l1.89-.49a125.9,125.9,0,0,0,16.11,14.39c-11.25,2.08-21.84.64-32.3,1.23l-2.18-.75Z" fill="#ee6430"/><path d="M166.22,199.9l-1.26-.45c-2.19-2.13-4.14-4.4-6.49-6.47-3-2.66-7.67-4.36-8.77-8.52.81-.87,1.63-1.74,2.44-2.62,5.07-4,10.28-7.83,14.28-12.68l1.7-.52,4,0h20.48a2.08,2.08,0,0,0,1,0l8.27.1,1.25,1q-8.29,7-16.58,14c-6.29,5.36-13.17,10.23-18.68,16.24Z" fill="#ee6430"/><path d="M309.1,171.34l-28.66,24.27c-1,.81-2,1.55-2,2.86-3.4,0-2.89-2.08-3-3.93-.29-8,.49-16.08-.53-24.1l-1.48-1.29a254,254,0,0,0-26.61-.11h-5c-1.53-.16-2.12.35-1.61,1.65,0,1.67-.09,3.33-.14,5l.18,1.82q0,6.9-.08,13.81c-.18,2.67-.35,5.35-.53,8-9.79.06-19.58.1-29.37.18-1.83,0-3.73-.34-5.44.56-1.52,1.16-.95,2.71-.95,4.1,0,8.59,0,17.17,0,25.76a.88.88,0,0,0,0,.85h0l-2-.4c-1.82-4.38-7.11-6.06-10.18-9.49-1.13-1.26-2.64-2.26-3.92-3.43-1.89-1.71-2.17-2.73.4-4.8,5-4,11-7.43,13.84-13.12,2.29-.24,1.8-1.75,1.79-3-.07-8.93-.18-17.87-.27-26.81.32-10.33.48-20.67-.21-31l1.29-1.6,16.75-14.74c5.22-3.07,8.85-7.56,13.66-11,.91-.65,1.69-1.54,1-2.66s-1.81-1.23-3.06-1.22l-27.49.31-2.39-.11c-6.29-.1-12.58-.06-18.85-.35-5.05-.23-10.21.84-15.16-.77q15.49-13.5,31-27c.93-.81,1.71-1.75,2.56-2.63,5.6,4.31,11.21,8.6,16.78,12.93,1,.73,1.67,2.29,3.15.93,5.23-4.8,12-8.36,16.07-14.09l1.74-.36c10.69.36,21.38.77,32.07-.16l1.92-.16,1.73,1-.31,1.41a130.83,130.83,0,0,0,.08,21.32l.06,1.46c-.14,1.59-.64,3.22-.33,4.74.35,1.68,1.26.51,1.88-.09q8.41-7.47,16.84-14.93c6.36-4.26,11.11-10,17.8-14h0q0,14.42.11,28.82c0,.59,0,1.17,0,1.76a9.6,9.6,0,0,0-4.25,3.4l.07,0c-1.12.63-2.45,1.12-2.32,2.58l.16-.11a5.5,5.5,0,0,0-4.31,3.48l.34.06c-1.17-.37-1.63.35-2.12,1-1.54,2.23-4,3.64-6.18,5.35-4.72,3.93-9.46,7.84-14.13,11.8-.77.65-2.14,1.28-1.46,2.47.51.9,1.79.64,2.74.64,6.75,0,13.51-.08,20.26-.13l3,.06c-3.24,3-4.91,7.24-10.33,8.56-2.91.71-.87,2.62-.12,3.91,1.21,2,2.43.74,3.52-.16,3.55-2.92,7-6,10.67-8.77,2.17-1.64.57-2.43-.55-3.47l3.08-.29,2,.19q0,9.16.05,18.34l-.27,9v3.2l-1.8.17c-2.3-4.55-5.16-1.55-9.36,0h9.35C311,170,309.49,170.49,309.1,171.34Zm-33-6.1c-.41.89-.87,1.8.5,2.43,4.89-4,9.73-8.06,14.69-12,1.82-1.46,1.61-2.71,0-4q-6.51-5.55-13.05-11.06c-.7-.59-1.42-.79-2,.11l-.17,1c0,2,0,4.09.05,6.13v1.72Q276.11,157.36,276.1,165.24Zm-18.75-42.81c4.3-3.47,8.62-6.92,12.89-10.41.95-.77,2.19-1.54,1.78-2.9-.49-1.6-2.08-1.64-3.64-1.78-9.07-.84-18.16.79-27.26-.21-2.27-.25-.31,1.4-.34,2.17v27.48C246.83,131.62,252.54,127.42,257.35,122.43Zm1.51,30.08c.54.09.71-.08.49-.51,1.37-1.24,2.8-2.43,4.09-3.73,3.2-3.19,7.89-5.28,9.73-9.49.52-.18,1-.36,1.56-.56,0,0,0-.27-.13-.31-.75-.33-1.06.16-1.4.59-9.95-.8-19.92-.16-29.87-.31-2,0-2.85.65-2.41,2.36-.93,8.88-1.76,17.77-.84,27.95,6.17-5.61,12.15-9.79,16.87-15.07Zm-21.68,16.12c-4.64-4.45-9-8.66-13.42-12.82a2.82,2.82,0,0,0-4-.09c-3.61,2.85-7.26,5.65-10.87,8.5-1,.8-1.91,1.67-1.15,3a3,3,0,0,0,2.9,1.39Z" fill="#ee6430"/><path d="M203.52,169.76c.09,8.94.2,17.88.27,26.81,0,1.23.5,2.74-1.79,3-3.75-1.22-8-1.57-8.05-6.63,0-1.8-3-3.61-4.65-5.39-1.11-1.18-3-1.93-2.78-3.83l16.58-14Z" fill="#e55626"/><path d="M385.46,229.36l-1,.46-35.52.07c2.56-2.3,5-4.7,7.7-6.88,9.21-7.5,17.51-15.8,27.34-22.75,5.64,5.16,12.55,9.29,17,15.43Z" fill="#ee6430"/><path d="M384,200.26c-9.83,7-18.13,15.25-27.34,22.75-2.69,2.18-5.14,4.58-7.7,6.88-.34-.47-1-.95-1-1.42.13-9.51-.69-19,.52-28.53.76.31,1.6,1,2.28.87,7.21-1.06,14.51-.11,21.71-.8,2.65-.26,5.39-.86,6.48-3.48,2.73.13,2.23,3.05,4.36,3.69A1.74,1.74,0,0,0,384,200.26Z" fill="#ee6430"/><path d="M363.74,181.93c-4.57-1.88-7.15-5.67-10.88-8.36-1.9-1.37-3.11-3.52-5.89-3.94-2.27-1.45-4.75-.85-7.18-.5-2.12.32-4.23.93-6.16-.46a4.39,4.39,0,0,1,3.53-2.65c4-.62,4.1-2.36,1.45-4.71s-5.38-5-8.06-7.46c3.28-5.68,9.66-8.94,14.48-13.42.53-.5,1.87-.36,2.84-.52,0,7.86-.05,15.71,0,23.57,0,1.51-.75,3.25,1.1,4.47.87,1,2.13.65,3.27.67,5.73.13,11.46.23,17.2.34-1,1.48-2,3-3.15,4.43s-2.87,2.41-1.31,4.14C366.87,179.58,365.12,180.67,363.74,181.93Z" fill="#e55626"/><path d="M363.74,181.93c1.38-1.26,3.13-2.35,1.28-4.4-1.56-1.73.24-2.86,1.31-4.14s2.11-2.95,3.15-4.43l11.08-.07,1.09,1.67-1.32,2.36c-5.19,2.62-8.62,6.86-13,10.26-1.33,1-.81,2.11.36,3,3.07,2.23,5.07,5.45,8.8,7.08l2.39,3.3c-1.09,2.62-3.83,3.22-6.48,3.48-7.2.69-14.5-.26-21.71.8-.68.1-1.52-.56-2.28-.87,3.85-5.16,9.65-8.78,14.51-13.14C364.86,185.1,365,183.73,363.74,181.93Z" fill="#e55626"/><path d="M333.63,168.67c1.93,1.39,4,.78,6.16.46,2.43-.35,4.91-.95,7.18.5-4.85,4-9.82,8-14.49,12.15-2.29,2.05-3.73,2.23-6.07,0-3.84-3.66-8.1-7-12.19-10.45,0-.81.07-1.62.11-2.43Z" fill="#e55626"/><path d="M312.15,199.22a3.63,3.63,0,0,1,.21-.66c4.88-4,9.81-8,14.61-12.12,1.65-1.42,2.83-2.21,5-.45,4.88,4,10,7.79,15,11.67l-1.21,1.78H313.07C312.76,199.38,312.45,199.31,312.15,199.22Z" fill="#ee6430"/><path d="M314.33,168.91c0,.81-.07,1.62-.11,2.43-.76-.15-1.55-.83-2.25.1l-2.87-.1c.39-.85,1.85-1.37,1.06-2.57h0l1.8-.17Z" fill="#e55626"/><path d="M312.11,193.23a10.42,10.42,0,0,1-.06-8.8Z" fill="#e55626"/><path d="M456.23,231.55c-2.79,0-3.68,2.17-5.28,3.52-5.07,2.48-8,7.08-12.88,9.72-4.65-.08-5.64-4.1-8.67-6-3.48-2.13-5.35-5.94-9.83-7.1-.06-.31-.12-.63-.17-.94.59-1-.39-1.67-.91-2.41,1.88-1.37,1.05-3.23,1.07-4.87.1-7.51.07-15,.09-22.54a3.43,3.43,0,0,0,.64,0c0,6.22,0,12.46.22,18.68.13,3.11-.93,6.34.89,9.34,1.42,1.54,3.43,1,5.2,1,8.81.08,17.62.06,26.43.07l3.05.12c.07.17.13.34.19.51A4.8,4.8,0,0,0,456.23,231.55Z" fill="#e96129"/><path d="M418.49,228.38c.52.74,1.5,1.36.91,2.41-9.91.06-19.81.07-29.72.24-1.89,0-3.31-.17-4.22-1.67l15.48-13.67q.46,0,.93,0c2,.23,3.06,1.32,4.29,2.65C409.7,222.14,413.19,226.1,418.49,228.38Z" fill="#e55626"/><path d="M437.83,29.77c6.56-4.05,11.06-10,17.51-14.1,1.75.75,3.13,1.64,3,3.62-.27,3.8,3.11,4.89,6.23,4.49,5.11-.65,5.86,3.32,8.54,5.1,1.29.86-.79,2.23-1.76,3.17-4.81,4.68-10.74,8.44-15,13.56l-1.79.89L451,46.16q.06-.28.15-.57c.77-.61,5.34,1,1.86-2.09-4.95-4.45-10.15-8.69-15.24-13A1.88,1.88,0,0,1,437.83,29.77Z" fill="#ee6430"/><path d="M384.62,76.06l16.46-14.88,2.28-1.75.79-.66,1.1-1.11-.05.11a3.54,3.54,0,0,0,2.15-1.8l-.09.08,2.29-1.83L418.43,47l1.1-.35a.86.86,0,0,0,.27.39c-.11,8.55-.25,17.1-.3,25.66,0,2.06-.05,3.68-3.37,3.62C405.63,76.14,395.12,76.13,384.62,76.06Z" fill="#ee6430"/><path d="M312.2,105.78q-.06-14.41-.11-28.82l31.58,0a4.36,4.36,0,0,1,3.27.89,6.49,6.49,0,0,0-.23.75c-2.08.2-3.12,1.65-4.42,2.75-8.3,7.06-16.54,14.16-24.85,21.21C315.91,103.84,314.64,105.53,312.2,105.78Z" fill="#e55626"/><path d="M311.81,47.65c0-.52-.07-1-.1-1.57,11.05-.08,22.11.77,33.14-.43l2.06-.13-.2.16c0,.44,0,.88,0,1.31-3.76,3.2-8.21,5.82-11.08,9.75h.08l-1.09.94,0-.07a7.15,7.15,0,0,0-4.09,3.52h0l-1.19.7c-3.72,2.94-7.8,5.6-10.46,9.41l.11.24.27-.1c-1.3-.53-1.72.41-2.33,1-1.92.53-2.54,2.67-4.76,2.84l.12-.22C312,65.89,312.79,56.76,311.81,47.65Z" fill="#ee6430"/><path d="M451,46.16l3.52.34L437,62.14,421.46,75.33c-1.11-.47-1.15-1.34-1.14-2.22q.09-13,.21-26c3.07-1.75,6.54-1,9.83-1C437.25,46,444.14,46.12,451,46.16Z" fill="#e96129"/><path d="M312.11,77c-6.69,4-11.44,9.72-17.81,14a5.29,5.29,0,0,1-3.16-1.13C286,86,281.68,81.49,277.32,77c6.42-1.75,13-.6,19.54-1,4.16-.23,8.43.71,12.44-.94l.81-.11,1.16.14,1-.16-.12.22C312.12,75.81,312.11,76.39,312.11,77Z" fill="#e55626"/><path d="M346.66,47c0-.43,0-.87,0-1.31l1.29-.34,1.82-.12,32.87.28c0,.42-.07.85-.1,1.28L366.15,61.12l-.79.08C360.91,56,355,52.06,349.89,47.47c-.6-.54-1.3-1-2.13-.21Z" fill="#e55626"/><path d="M365.38,92l18.24-15V76.9q0,14.88.07,29.77L365.44,92.48Z" fill="#e96129"/><path d="M347.76,47.26c.83-.76,1.53-.33,2.13.21,5.14,4.59,11,8.57,15.47,13.73-5.26,4.73-10.52,9.48-15.8,14.19a1.31,1.31,0,0,1-1.77-.14c-.08-3.6-.16-7.19-.25-10.79l0-1.34c.05-.7.1-1.39.14-2.09Z" fill="#e96129"/><path d="M349.82,45.22l-1.82.12c0-8.44-.05-16.88,0-25.31,0-1-.55-2.29.66-2.81,1.58-.68,2.45.75,3.23,1.54,4.17,4.2,10,7,13.51,11.75-1.92,3-5.53,4.61-8.05,7.05S350.2,41.17,349.82,45.22Z" fill="#e96129"/><path d="M366.15,61.12l16.44-14.34c2,2.35,1,5,1.06,7.59.16,5.5.08,11,0,16.51,0,1.08.57,2.58-1.13,3a3.85,3.85,0,0,1-3.64-1.13C375.24,68.4,369.51,65.71,366.15,61.12Z" fill="#ee6430"/><path d="M437.81,30.48c5.09,4.33,10.29,8.57,15.24,13,3.48,3.13-1.09,1.48-1.86,2.09-8.08-.05-16.17-.08-24.25-.17-1.81,0-3.72.39-5.42-.56C426,39.24,432.25,35.17,437.81,30.48Z" fill="#e55626"/><path d="M349.82,45.22c.38-4,5-5.17,7.52-7.66s6.13-4.05,8.05-7c5.76,5,12.09,9.52,17.3,15Z" fill="#ee6430"/><path d="M385.7,44.4l15.48-13.78c.25,0,.5,0,.75-.05a143.72,143.72,0,0,0,16.56,14,3.84,3.84,0,0,1,0,.76c-9.41.29-18.85-.33-28.27.5A5.34,5.34,0,0,1,385.7,44.4Z" fill="#e55626"/><path d="M437.81,30.48c-5.56,4.69-11.85,8.76-16.29,14.38l-1.31-.22V16.4c7,4.39,11.29,9.92,17.62,13.37A1.88,1.88,0,0,0,437.81,30.48Z" fill="#ee6430"/><path d="M346.91,45.52l-2.06.13a7,7,0,0,0-.9-.36A6.7,6.7,0,0,0,339.28,44c-6.37,1-12.76.24-19.14.47-1.81.07-3.75.36-5.15-1.09,4.64-4.78,9.5-9.36,15.53-12.92.23,2.12,2.11,3.32,3.82,4.4A73.55,73.55,0,0,1,346.91,45.52Z" fill="#ee6430"/><path d="M347.54,64.46c.09,3.6.17,7.19.25,10.79-4.66-1.41-6.88-5.27-10.49-7.76-2.18-1.5-4.26-3.2-6.51-4.7l-.24-.94a4.62,4.62,0,0,0-.06-.74h0c3,.2,4.46-.88,4.09-3.52l0,.06,1.09-.93h-.08c3.71,0,6.95.82,9.4,3.45.52.55,1.8.58,2.72.84,0,.7-.09,1.39-.14,2.08-.63,0-1.36.11-1.14.86C346.48,64.2,347.15,64.3,347.54,64.46Z" fill="#e55626"/><path d="M365.38,92l.06.53-11.31,9c-2.93-.8-4.5-1.84-2.27-4.72,1.49-1.93,1.28-4.26.49-6.63-1.08-3.19.11-5.4,4.62-5.2Z" fill="#e96129"/><path d="M357,84.92c-4.51-.2-5.7,2-4.62,5.2.79,2.37,1,4.7-.49,6.63-2.23,2.88-.66,3.92,2.27,4.71-1.41,1.87-2.81,3.74-4.22,5.6l-1.86.11c-.05-8-.08-16.1-.18-24.15,0-1.52.51-3.21-1.16-4.44a6.49,6.49,0,0,1,.23-.75C352.21,78.2,353.37,82.83,357,84.92Z" fill="#ee6430"/><path d="M420.53,47.12q-.12,13-.21,26c0,.88,0,1.75,1.14,2.22.91.89,2.15.71,3.31.71q15.72,0,31.45-.14l0,.91c-10.35,0-20.7,0-31.05.12-1.51,0-3.46-.82-4.52,1,.05,9.53-.52,19.06.25,28.59l-1.14.23c-.1-.6-.21-1.21-.31-1.81,0-6,.23-11.91.09-17.86-.08-3.11,1-6.36-.94-9.35-.63-.91-1.71-.79-2.68-.79q-15.63.06-31.25.17l-1-.19V77l1-.91c10.5.07,21,.08,31.51.26,3.32.06,3.35-1.56,3.37-3.62.05-8.56.19-17.11.3-25.66A4.41,4.41,0,0,1,420.53,47.12Z" fill="#e55626"/><path d="M418.51,45.33a3.84,3.84,0,0,0,0-.76c.12-6.79-1.64-13.49-1.09-20.3.16-1.95-.48-3.78-3.23-4.27,1.59-1.48,2.86-3.26,5.17-4.08q0,14.39,0,28.78Z" fill="#e96129"/><path d="M330.55,61.85l.24.94a9.48,9.48,0,0,0,.11,7.75c-4-1.2-7.1-1.82-9.66.8-.31.32-1.57,0-2.39-.11,2.65-3.82,6.73-6.48,10.45-9.42Z" fill="#ee6430"/><path d="M403.36,59.43l-2.28,1.75A2,2,0,0,1,403.36,59.43Z" fill="#ee6430"/><path d="M407.35,56a3.54,3.54,0,0,1-2.15,1.8C405.22,56.55,406,56,407.35,56Z" fill="#ee6430"/><path d="M409.55,54.22l-2.29,1.83C407.28,54.76,408.14,54.24,409.55,54.22Z" fill="#ee6430"/><path d="M316.89,72.39c.61-.62,1-1.56,2.33-1C318.79,72.28,317.91,72.45,316.89,72.39Z" fill="#ee6430"/><path d="M419.53,46.65l-1.1.35A.73.73,0,0,1,419.53,46.65Z" fill="#e55626"/><path d="M405.25,57.66l-1.1,1.11Z" fill="#ee6430"/><path d="M315,43.41c1.4,1.45,3.34,1.16,5.15,1.09,6.38-.23,12.77.51,19.14-.47A6.7,6.7,0,0,1,344,45.29l-31.8.12,0,.06Z" fill="#e96129"/><path d="M490.1,168.63l1.13.25c-5.22,5.76-11.52,10.62-17.7,15.58-5.46-5-11-10-17.47-14-.78-.56-.06-1.1,0-1.64l1.15-.82a3.7,3.7,0,0,0,2.79.81Z" fill="#e55626"/><path d="M456.08,230.19l-3.05-.12c-3.74-5.94-9.78-10-15.72-14.2l8.94-8.49c3.35-1.46,5.48-4.08,8.09-6.24l1.45-.86.49-.08c0,.3-.06.6-.08.9l0,14.86c-.1,1.76-.19,3.53-.29,5.29-.79,2.08.6,4.06.34,6.12Z" fill="#e55626"/><path d="M472.7,185.51c5.18,2.3,8.73,6.13,12.53,9.74,1.17,1.12,3.58,1.87,2,3.82-1.33,1.68-3.56,2.1-5.9,1.91a238.43,238.43,0,0,0-25.08-.78l-.48.08,1.35-1.9c1.52-1,3.42-1.85,4.51-3.15C464.77,191.48,468.73,188.5,472.7,185.51Z" fill="#ee6430"/><path d="M472.7,185.51c-4,3-7.93,6-11,9.72-1.09,1.3-3,2.12-4.51,3.15a6.24,6.24,0,0,0-1,.08l-.12-28c6.51,4,12,9,17.47,14Z" fill="#e96129"/><path d="M456.28,227.37c.26-2.06-1.13-4-.34-6.12,5-.39,9.55-1.3,12.33-5.43.62-.93,1.91-1.92,3.38-.8,1.28,1,.77,2.15,0,3.16a5.8,5.8,0,0,1-1.76,1.53c-3.42,1.87-6.95,3.59-9.41,6.51C459.46,227.43,457.82,227.33,456.28,227.37Z" fill="#ee6430"/><path d="M456.23,216l0-14.86C462.89,204.93,462.91,211.8,456.23,216Z" fill="#ee6430"/><path d="M-12.74,139l.94-1.09c.14-.51.29-1,.44-1.54,4.75-2.29,7.73-6.25,11.8-9.18C2,126.12,3,124.54,5.06,124c2.31,0,3.6,1.47,5.06,2.68l11.72,9.69,1.3,1.37L21.93,139c-4.67-1.87-6.22,1.5-8,3.78-2.64,3.33-4.21,3.68-7.29.8-.78-.74-1.11-1.88-2-2.48-2.3-1.61-5.13-2.36-7.75-1a2.52,2.52,0,0,0-.43,4.51c3.31,2.67,5.2,6.46,9.27,8.5l-16.59,14.71-.8,0C-13.68,158.29-12.33,148.64-12.74,139Zm7.12.22-.33.16c.09.07.18.19.28.2s.21-.09.32-.15Z" fill="#e55626"/><path d="M21.84,136.38l-11.72-9.69C8.66,125.48,7.37,124,5.06,124c4.17-5,9.43-9.17,14.79-13.23C25.82,119,24.51,127.66,21.84,136.38Z" fill="#ee6430"/><path d="M23.42,36.62l0,2.73c-1,1.95-.41,4-.42,6l-33.73,0c1-3.37,4.81-4.7,7.21-7,7.62-7.26,15.92-14,24-20.91a9.27,9.27,0,0,1,2.2-1C23.54,23.16,22.17,29.92,23.42,36.62Z" fill="#e55626"/><path d="M38.34,76.14l-14.25,0-.15-26.3A2.92,2.92,0,0,1,25,47.14h0a41,41,0,0,0,9.3,7.75l.05.09.91.74.17.14.85.71.2.17.82.7.19.09c2.34,2.86,6.56,4.36,7.94,7.92C40.24,67.63,38.71,71.6,38.34,76.14Z" fill="#e55626"/><path d="M22.88,47.67c0,8.13,0,15.89,0,23.65,0,2.16-1.62,1.87-3.12,1.11A35.81,35.81,0,0,1,7.49,62.27c-2.12-2.74.66-5.48,2.33-6.36C14.27,53.57,17.58,50,22.88,47.67Z" fill="#e96129"/><path d="M25,47.14c0-.26,0-.53,0-.79l32.69,0c-3.07,1.85-6.61.2-9.8,1,2.34,4.09-3,9.29-10.4,10.14l-.19-.09-.82-.7-.2-.17-.85-.71-.17-.14c-.31-.24-.61-.49-.91-.74l-.05-.09c-1.59-2.23,3.86-4.35.55-6.13-2.26-1.21-5.51-1.08-8.32-1.53-.5-.08-1-.06-1.53-.09Z" fill="#e96129"/><path d="M57.72,46.37,25,46.35l-1-1,35.43,0,.28,0,.28,0Z" fill="#e55626"/><path d="M23,45.33c0-2-.54-4,.42-6l.57,6A2.07,2.07,0,0,1,23,45.33Z" fill="#e55626"/><path d="M57.72,46.37l2.29-1c10.57.13,21.15.24,31.72.43.7,0,1.39.72,2.09,1.11L77.09,61.82c-3.78-4.52-7.89-8.75-13.46-11.76-1-.52-1.56-1.83-2.91-1.39s-.86,1.75-.92,2.71c-.41,6.23.79,12.5-.91,18.7-.44,1.61.41,3.16,2,4.23l-1.15,1.76-2-.07c-2.59-4.82-7.73-7.46-12.34-10.55-1.38-3.56-5.6-5.06-7.94-7.92,7.43-.85,12.74-6.05,10.4-10.14C51.11,46.57,54.65,48.22,57.72,46.37Z" fill="#ee6430"/><path d="M58.73,107.54c-4.95-4-9.82-8.09-11.69-14-.42-1.35-.86-2.53.63-3.5s2-2.24,1.32-3.79l.08.06c.87.08,1-.16.37-.66,3.2-2.83,5.51-6.49,10.17-7.94A79.1,79.1,0,0,0,71,77.88c7.2-.23,14.42,0,21.63.11-4.28,5.34-10.1,9.41-15.49,13.85-3.54-4.17-9-6.66-12.89-10.48-.85-.83-1.86-2-3.41-1.37s-1,2-1,3.14c-.08,8.15-.1,16.31-.14,24.46h-.49Z" fill="#e55626"/><path d="M45.46,65.45C50.07,68.54,55.21,71.18,57.8,76a77.84,77.84,0,0,1-14.32.12,1.31,1.31,0,0,0-2.22,0H38.34C38.71,71.6,40.24,67.63,45.46,65.45Z" fill="#e55626"/><path d="M92.66,78c-7.21-.07-14.43-.34-21.63-.11a79.1,79.1,0,0,1-11.42-.21L59.7,76c.31.07.61.15.91.24,10.93,1.5,21.92.69,32.89.54a8.5,8.5,0,0,0,1,.16Z" fill="#ee6430"/><path d="M41.26,76.13a1.31,1.31,0,0,1,2.22,0Z" fill="#e55626"/><path d="M49.44,85.61c.6.5.5.74-.37.66C48.9,85.93,49,85.71,49.44,85.61Z" fill="#ee6430"/><path d="M58.73,107.54l.48.06h.49l0-.06.37,1.66c-.46,9.09-.35,18.17,0,27.25l-.24,1.72-1.11.17-33.59-.44a.81.81,0,0,0,0-.8c5.36-5,11.52-9.35,16.38-14.76a175.41,175.41,0,0,0,16.16-14Z" fill="#ee6430"/><path d="M57.63,108.33a175.41,175.41,0,0,1-16.16,14c-5.37-3-8.89-7.61-13.51-11.26l-1-.84-1.08-.88c1.22-3.06,4.29-1.83,6.53-1.81C40.82,107.62,49.29,106.58,57.63,108.33Z" fill="#e55626"/><path d="M25.09,137.09a.81.81,0,0,1,0,.8c-.47,1.93,1.32,2.81,2.57,3.91,4.21,3.72,8.47,7.41,12.7,11.11l-.05,1A142.73,142.73,0,0,1,23.87,168.2c0-8.7,0-16.11,0-23.52,0-1.83.56-3.91-2.13-4.91a2.49,2.49,0,0,1,.21-.8l1.21-1.22Z" fill="#e55626"/><path d="M27,110.23l1,.84Z" fill="#ee6430"/><path d="M59.45,44.64c-4.5-1-6.42-4.52-9.36-7-8.85-7.35-8.79-7.52,0-15,2.59-2.22,4.56-5.12,8.37-6.14a2.12,2.12,0,0,1,1.23,2.2Q59.57,31.69,59.45,44.64Z" fill="#e96129"/><path d="M60.82,14.78l33.85.27c-4.12,5.63-10.35,9.49-16,13.85a2,2,0,0,1-2.73.16C70.91,24.31,64.8,20.37,60.82,14.78Z" fill="#e55626"/><path d="M97.54,15.13a210.62,210.62,0,0,1,21.47,0A83,83,0,0,1,97.54,15.13Z" fill="#e55626"/><path d="M94.59,46.4l-.8.27c0-.22.09-.45.13-.67Z" fill="#ee6430"/><path d="M221.34,215.93c6.59,3.27,11,8.55,16.31,13h-31A77,77,0,0,1,221.34,215.93Z" fill="#e55626"/><path d="M414.17,20c2.75.49,3.39,2.32,3.23,4.27-.55,6.81,1.21,13.51,1.09,20.3a143.72,143.72,0,0,1-16.56-14Z" fill="#ee6430"/><path d="M26.79,11.1,26,10.43Z" fill="#e96129"/><path d="M58.63,201,27.18,227.43c-.71.59-1.64,1.11-1.29,2.17-4.56.11-1.08-3.32-2.71-4.51a2.5,2.5,0,0,0,0-2.52v-.11a2.12,2.12,0,0,0-.74-2.49l0-.17a2.4,2.4,0,0,0,.71-2.77c.1-4.63.22-9.26.27-13.89,0-1.45-.32-2.95,1.59-3.8,10.85.68,21.72.15,32.58.2Z" fill="#ee6430"/><path d="M95.71,229.82l-.18,1a31.21,31.21,0,0,0-11.45-.25c-5.51,1-11-.72-16.62-.69-2.81,0-2.48-1.86-2.59-3.42,8.35-8.64,18.58-15.7,27.36-24,.63-.6,1.3-1.54,2.48-1.15s.66,1.49.83,2.29c.38,1.79-1,3.78.86,5.4C95,215.93,95.54,222.88,95.71,229.82Zm-11.36-9.7c-.1,2.79,2,3.91,4,4.22A3.21,3.21,0,0,0,92.05,221c-.13-2.22-1.27-4.44-2.29-6.55-.55-1.15-1.9-1-3-.37-.85.46-1.32,1.31-.22,1.58,2.71.67,1.49.95,0,1.64A3.33,3.33,0,0,0,84.35,220.12Zm5.9-9.88a5.18,5.18,0,0,0-.3.63s.28.23.33.2a4.19,4.19,0,0,0,.59-.42Z" fill="#e96129"/><path d="M111.61,199.45c-6.13.76-12.32,2.28-18.16-1-4.64-5.05-11-8.72-15.33-14l17.43-14.34v29.52l11.28-9C110,193,111.84,195.79,111.61,199.45Z" fill="#e55626"/><path d="M23.18,225.09c1.63,1.19-1.85,4.62,2.71,4.51.1.33.21.66.31,1-1.57,0-1.54,1.23-2.18,2-.33,0-.66,0-1,0-.3-2.1-2.18-1.81-3.83-1.81l-31,.12a3,3,0,0,1,0-.79c6.29-4.15,10.93-9.69,16.65-14.31,4.46,2.75,9.2,5.23,12.28,9.29C19.18,227.7,21.13,228.79,23.18,225.09Z" fill="#ee6430"/><path d="M132.51,199.53q-.6,12.54-1.2,25.08c-.08,1.57.33,3.23-1.13,4.55l-1.92-1.07c-3.6-3.2-7.06-6.53-10.86-9.55-2.7-2.16-2.62-4-.55-6.39,3.11-3.68,7-6.71,10.71-9.87.91-.77,1.63-1.42,1.57-2.54l1.05-1.21,1.12-.05,0,0,.84.72Z" fill="#e55626"/><path d="M78.12,184.46c4.34,5.29,10.69,9,15.33,14A8.84,8.84,0,0,1,87.28,200c-8.8-1.12-17.56.73-26.34.12,0-3,3.76-3.77,4.94-6.08l11.26-9.65C77.46,184.45,77.79,184.46,78.12,184.46Z" fill="#ee6430"/><path d="M128.26,228.09l1.92,1.07c0,.17,0,.33,0,.49l-34.46.17c-.17-6.94-.69-13.89.69-20.79.07-.85.15-1.69.26-3,2.65,3.21,3.07,7,8.38,8,4.06.83,3.91,4.09,1.33,7.2-1.54,1.84-5.63,2.76-4.17,5.82,1.67,3.49,5.68,2,8.58,1.87C116.6,228.76,122.57,230.18,128.26,228.09Z" fill="#ee6430"/><path d="M130.18,198.53l-1.05,1.21-17.51-.29c.22-3.66-1.66-6.48-4.79-8.81,1.8-2.16,3.71-4.22,6.66-5.32C120,188.88,124.19,194.53,130.18,198.53Z" fill="#e96129"/><path d="M65.88,194.08c-1.18,2.31-4.94,3.08-4.94,6.08a2.69,2.69,0,0,1-2.31.84c-.35-.48-.69-1-1-1.46l1.13-.36c2-1.78.27-4.08,1.12-6C62.12,192.22,63.83,194,65.88,194.08Z" fill="#e55626"/><path d="M21.72,139.77c2.69,1,2.12,3.08,2.13,4.91,0,7.41,0,14.82,0,23.52a142.73,142.73,0,0,0,16.46-14.32c1.93,0,2.94,1.18,4.13,2.18,3.7,3.11,7.41,6.2,11.12,9.31.78,1,1.56,2,2.33,3-9.43.13-18.87.24-28.3.43-2,0-4.1-.47-5.78.94h-.48l-.49,0-.07-.06c-1.61-1.17-3.54-.61-5.31-.63-9.4-.12-18.79-.14-28.19-.19,0-.37-.11-.73-.17-1.1L5.71,153.1Z" fill="#e96129"/><path d="M4.89,215.76c-5.73,4.62-10.37,10.16-16.66,14.31-.43-11.68-.52-23.36.18-35,1.38,1.94,2.7,1.53,4.33.11,5.77-5,11.75-9.88,17.39-15,1.91-1.74,5.11-2.44,5.81-5.16,2-1.22,4.71-1.84,4.89-4.49l2-.76.07.06c0,7.1.12,14.21.09,21.31,0,7.7-.18,7.85-9,8.82a14.22,14.22,0,0,1-3.49-.24,56.78,56.78,0,0,0-13.66-.17c-5,.44-5.92,2.6-2.6,5.72s7.2,6,10.82,9Z" fill="#e96129"/><path d="M15.94,175c-.7,2.72-3.9,3.42-5.81,5.16-5.64,5.13-11.62,10-17.39,15-1.63,1.42-3,1.83-4.33-.11-.05-7.77-.08-15.55-.16-23.32a3.87,3.87,0,0,1,1-2.81c9.4,0,18.79.07,28.19.19,1.77,0,3.7-.54,5.31.63l-2,.76c-6.93.41-13.94-.66-20.83.63-1.21.23-3.2,0-3.17,1.58s1.93,2,3.43,2C5.48,174.88,10.71,174.9,15.94,175Z" fill="#ee6430"/><path d="M420.61,77.91c1.06-1.8,3-1,4.52-1,10.35-.11,20.7-.1,31.05-.12a154.37,154.37,0,0,1,17.52,15q0,.42-.09.84L457.28,106c-4.3-2.64-3.38-6.69-2.78-10,1.06-5.86.28-11.57.83-17.62-5.74,2.09-8.44,5.75-11.85,8.72-5.42,4.74-5.72,4.74-11.58.07C428.09,84.07,425.11,80.31,420.61,77.91Z" fill="#e96129"/><path d="M473.7,91.8a154.37,154.37,0,0,0-17.52-15c0-.3,0-.61,0-.91a.56.56,0,0,1,.47-.16c8.49.88,17,.24,25.51.37,6.51.09,6.59-.13,3.52-5.15,4.06-.08,3.11,4.35,6.25,5.1a2.76,2.76,0,0,0,0,.81C485.28,81.27,480.13,87.11,473.7,91.8Z" fill="#ee6430"/><path d="M420.61,77.91c4.5,2.4,7.48,6.16,11.29,9.19,5.86,4.67,6.16,4.67,11.58-.07,3.41-3,6.11-6.63,11.85-8.72-.55,6,.23,11.76-.83,17.62-.6,3.35-1.52,7.4,2.78,10,0,1.64,1.64,1.46,2.83,1.74-.68,1.21-1.23,2.42.15,3.55,4.48,3.64,8.22,7.93,13.23,11.11-3.22,2.93-6.64,5.72-9.59,8.84-2.35,2.48-6.38,4-6.65,7.76l-1,.78,0-1.72c0-8.42,0-16.84,0-25.26,0-1.54.51-3.23-1-4.55l-.44-.84-2.56-.31c-.11-.85.16-2-.39-2.52-4.16-3.82-8.42-7.57-12.8-11.2-1.44-1.2-2.92-.13-4,.79-4.76,4.09-9.46,8.23-14.17,12.35C420.09,97,420.66,87.44,420.61,77.91Z" fill="#ee6430"/><path d="M473.49,122.37c-5-3.18-8.75-7.47-13.23-11.11-1.38-1.13-.83-2.34-.15-3.55l31.75-.18c0,.3,0,.6-.05.9-6.92,3.57-11.59,9.22-17.43,13.8Z" fill="#e55626"/><path d="M474.38,122.23c5.84-4.58,10.51-10.23,17.43-13.8q.21,14.44.43,28.88c-.52.81-1.39.78-2.28.67-1.31-3.18-2.75-2.89-4.27-.1l-3.69.05c3.4-5,.7-8.29-3.88-11.29C476.44,125.54,474.72,124.25,474.38,122.23Z" fill="#e96129"/><path d="M152.14,181.84c-.81.88-1.63,1.75-2.44,2.62-6.53,4.22-11.17,10-16.78,15l-.41.09c-.13-.12-.27-.25-.41-.36l-.84-.73,0,0a60.54,60.54,0,0,0,.27-17.27c-.45-3.71-1-7.77.73-11.54l1.11-2.49,16.3-13.3c4,4.61,10,7.53,14.37,11.81a4,4,0,0,0,3.61,1.06l.43,1.89-1.7.52c-8.84-.9-17.67-.15-27.26-.42,2.75,1.81,7.34,1.13,6.72,4.41C145,178,151.09,178.45,152.14,181.84Z" fill="#e55626"/><path d="M132.92,199.44c5.61-5,10.25-10.76,16.78-15,1.1,4.16,5.75,5.86,8.77,8.52,2.35,2.07,4.3,4.34,6.49,6.47Z" fill="#e96129"/><path d="M437,62.14,454.56,46.5l1.79-.89.36,0,.35,0a4.79,4.79,0,0,0,4.2,3.38l0-.08c-.09,1.37,1,2.07,2.09,2.81,1.7,1.82,3.1,4,6.19,4.33.23,2.26,4.69,3.84,2.78,5.85-4.38,4.63-8.91,9.32-15.16,12.35-1.75-1.18-4.41.83-5.93-1.28C447.79,68.15,441.45,66,437,62.14Z" fill="#e96129"/><path d="M457.2,74.28c6.25-3,10.78-7.72,15.16-12.35,1.91-2-2.55-3.59-2.77-5.86l5.06-.14v0c0,1,0,1.94,1.05,2.61-.75,1.8-1.24,3.44,1,4.95s4,3.27,6,4.92l3,2.57c3.07,5,3,5.24-3.52,5.15-8.5-.13-17,.51-25.51-.37Z" fill="#e55626"/><path d="M461.26,49a4.79,4.79,0,0,1-4.2-3.38c10,0,20-.1,30-.1,1.11,0,2.66-.5,3.24.62.72,1.39-1.11,1.92-1.94,2.7-3.2,3-6.51,5.83-9.78,8.74l-2.09.77c.07-1.2-.74-1.92-1.87-2.46v0A1.9,1.9,0,0,1,476,54.24c2.5-.85,4.12-2.49,3.27-4.69s-2.68-3.45-6.13-3.36C468.76,46.31,465.06,47.6,461.26,49Z" fill="#e55626"/><path d="M476.51,58.37l2.09-.77c.14,2.07.75,3.93,3.19,4.9,3.95,1.56,3.54,3.6.91,5.89-2-1.65-3.86-3.45-6-4.92s-1.73-3.15-1-4.95A7.85,7.85,0,0,0,476.51,58.37Z" fill="#ee6430"/><path d="M426.5,9.57c-.37,2,2,3.21,2,5.1-2.17,0-4.27-.17-4.83-2.49C424.5,11.21,424.81,9.84,426.5,9.57Z" fill="#ee6430"/><path d="M490.1,168.63,460,168.8a3.7,3.7,0,0,1-2.79-.81l16.46-14.26.37,0h.37c3.4,4.12,8.08,7.19,12,10.86C487.81,165.87,489.5,166.88,490.1,168.63Z" fill="#e96129"/><path d="M473.69,153.73,457.23,168l-1.14.82-26.33.11-10.64-.14c-6.24,0-12.49.15-18.72,0-5.32-.14-10.72.81-16-.65l.3-2.05a4.69,4.69,0,0,0,3.59-1.29c2.83-2.45,5.83-4.76,8.6-7.26s5.15-3.57,8.74-.22c3.81,3.56,7.19,7.75,12.76,9.7,2.31,2.22,3.56,0,4.83-1,4.92-4,9.73-8.09,14.57-12.15,2.51,2.06,4.68,4.47,8.62,4.78a3,3,0,0,1,2.5,2.5c.34,1.44.95,2.52,3,2.16s3.21-1.4,3.19-3.32c0-3.61-.21-7.24.08-10.83.24-3-1.1-5-3.91-6.48,1.31-1.39,2.62-2.79,5-2.91l1-.78,1.08.1c1.24,3.36,4.87,5,7.4,7.45S471,151.33,473.69,153.73Z" fill="#e96129"/><path d="M458.33,139.07l-1.08-.1c.27-3.78,4.3-5.28,6.65-7.76,3-3.12,6.37-5.91,9.59-8.84l.89-.14c.34,2,2.06,3.31,3.74,4.41,4.58,3,7.28,6.34,3.88,11.29-5.76.06-11.52.1-17.28.18C462.53,138.14,460.28,137.88,458.33,139.07Z" fill="#e55626"/><path d="M485.69,137.88c1.52-2.79,3-3.08,4.27.1Z" fill="#e55626"/><path d="M131.59,81.44c-.84-3,4-2.38,4.21-4.76,10.1-.43,20.19-.43,30.29-.14l1.81.38.18,29.71a.8.8,0,0,0,0,.69l-35.77.23,0-.13-.7-.9-.06-1.51c.08-.12.25-.25.24-.36a4.15,4.15,0,0,0-.23-.76l0-12.86V89.9Q131.57,85.67,131.59,81.44Z" fill="#ee6430"/><path d="M272.44,76.22c-10.69.93-21.38.52-32.07.16a5.12,5.12,0,0,0,.27-.52l.44,0,.44,0Z" fill="#e96129"/><path d="M168.06,107.32a.8.8,0,0,1,0-.69l1,0c4.95,1.61,10.11.54,15.16.77,6.27.29,12.56.25,18.85.35a3.56,3.56,0,0,1-.11.86c-2.13.49-3.24,2.08-4.66,3.29-8.65,7.36-17.22,14.81-25.87,22.18-1,.85-1.91,2.46-3.67,1.76-1.41-.56-.84-2.08-.84-3.18C167.94,124.2,168,115.76,168.06,107.32Z" fill="#e96129"/><path d="M272.44,76.22l-30.92-.36c4.23-3.71,8.3-7.57,12.74-11.08,2.93-2.32,3.12-4.06.1-6.37-3.28-2.51-6.28-5.29-9.35-8-.78-.68-2.16-1.3-1.63-2.46s2-.8,3.16-.8c7.45,0,14.91,0,22.37,0,1.81,0,3.77.48,5.33-.8l3.3,0a2.67,2.67,0,0,0,.15.68c4.22,5.06,9.83,9,15,13.24l0,1.1-15.9,13.08a8.79,8.79,0,0,1-1.38-4.52q0-9.09-.09-18.19c0-3-1.45-3.15-4.07-1.48a83.48,83.48,0,0,0-9.76,7.64c-2.75,2.38-3,4.46.14,7,4.45,3.53,8.49,7.45,12.7,11.2Z" fill="#e55626"/><path d="M292.72,61.35l0-1.09c6.6-2.51,10.16-7.64,14.38-12.2L310.2,48l-.09,27-.81.11C304.09,70.26,298.89,65.38,292.72,61.35Z" fill="#e55626"/><path d="M307.07,48.06c-4.22,4.56-7.78,9.69-14.38,12.2-5.17-4.28-10.78-8.19-15-13.25,7.7,0,15.41,0,23.12.14C302.91,47.18,305.21,46.66,307.07,48.06Z" fill="#ee6430"/><path d="M312.15,45.41l31.8-.12a7,7,0,0,1,.9.36c-11,1.2-22.09.35-33.14.43Z" fill="#e96129"/><path d="M312.25,75l-1,.16q-.09-13.61-.2-27.19a2,2,0,0,1,.75-.33C312.79,56.76,312,65.89,312.25,75Z" fill="#e96129"/><path d="M311.06,48q.1,13.59.2,27.19L310.11,75l.09-27h.86Z" fill="#ee6430"/><path d="M92.66,78l1.83-1.07,1,0v29.82l0,0c-.92-.63-1.89-1.21-2.73-1.91-5-4.16-9.68-8.68-15.6-12l-.08-.91C82.56,87.4,88.38,83.33,92.66,78Z" fill="#e96129"/><path d="M60.94,74.31c-1.64-1.07-2.49-2.62-2-4.23,1.7-6.2.5-12.47.91-18.7.06-1-.5-2.25.92-2.71s2,.87,2.91,1.39c5.57,3,9.68,7.24,13.46,11.76-3.93,3.29-7.8,6.63-11.8,9.85C64,72.7,63.08,74.27,60.94,74.31Z" fill="#e55626"/><path d="M93.5,76.76c-11,.15-22,1-32.89-.54C71.57,76.38,82.56,75.5,93.5,76.76Z" fill="#e96129"/><path d="M131.59,81.44q0,4.23-.05,8.46c0,.37,0,.75,0,1.13l0,12.86c0,.37,0,.74,0,1.12s0,1,0,1.51a4.17,4.17,0,0,0-.28.77c-2.46,3.34-6,5.87-9.42,8.36-2.74,2-4.2,5.42-8.39,5.88-3.76-1.2-6-4.1-9-6.12-1.74-1.16-2.94-2.48-4.18.62-.94,2.35-1.94,4.55-1.75,7.07.13,1.78.15,3.61-2.75,3.84l-.4-19.52a1.12,1.12,0,0,1,.12-.76l0,0h1.06c7.79,1.81,15.72.47,23.58.77a28.32,28.32,0,0,0,9.28-1.57c-6.31-4.27-9.44-10.5-16.5-13.27l15.36-13.07C130.45,78.84,131.57,79.43,131.59,81.44Z" fill="#e55626"/><path d="M113,92.65c7.06,2.77,10.19,9,16.5,13.27a28.32,28.32,0,0,1-9.28,1.57c-7.86-.3-15.79,1-23.58-.77C101.59,101.64,107.37,97.23,113,92.65Z" fill="#e55626"/><path d="M241.8,169h5c8.86.89,17.73.53,26.61.11l1.48,1.29c-6.94,3.78-11.45,9.78-17.74,14.16-1.19-3.57-5-5.29-7.67-7.77-1.94-1.79-4.34-5.15-6.55,0a10.76,10.76,0,0,1-2.3-.2l-.61-.93c0-1.67.1-3.33.14-5A2.15,2.15,0,0,0,241.8,169Z" fill="#e55626"/><path d="M240.66,176.62a10.76,10.76,0,0,0,2.3.2c2.21-5.14,4.61-1.78,6.55,0,2.68,2.48,6.48,4.2,7.67,7.77-4.17,3.64-8.31,7.3-12.52,10.9-.9.77-1.71,2.23-3.27,1.58s-.65-2.09-.84-3.19c-.15-.85-.27-1.71-.4-2.57q0-6.91.08-13.81C240.38,177.21,240.52,176.91,240.66,176.62Z" fill="#e55626"/><path d="M168.06,107.32c-.05,8.44-.12,16.88-.12,25.32,0,1.1-.57,2.62.84,3.18,1.76.7,2.67-.91,3.67-1.76,8.65-7.37,17.22-14.82,25.87-22.18,1.42-1.21,2.53-2.8,4.65-3.29,1.27,9.24,1.12,18.49.66,27.76,0,.26.63.54,1,.81l-1.29,1.61C197.4,142.2,193,147,188.06,151.3c-1.89,1.63-.61,2.89.78,4.42,4.1,4.5,9.9,7.77,13,13l-8.27-.1c-.33-.39-.65-.38-1,0H172.13c-.41-4.39,4-6.11,6.78-8.6,7-6.22,7.18-6.24-.13-12.15-3.5-2.83-6-6.67-10.93-8.13L166.1,139c-1.62-1-3.48-.9-5.35-.9-9.5,0-19,0-28.49-.07,0-7.4.08-14.79.07-22.19,0-2.75,1.79-5.51,0-8.26Z" fill="#e55626"/><path d="M201.85,168.71c-3.11-5.22-8.91-8.49-13-13-1.39-1.53-2.67-2.79-.78-4.42,5-4.29,9.34-9.1,15.25-12.53.69,10.32.53,20.66.21,31l-.42,0Z" fill="#e96129"/><path d="M167.84,139.73c4.91,1.47,7.44,5.31,10.94,8.14,7.31,5.91,7.11,5.93.13,12.15-2.8,2.49-7.19,4.21-6.78,8.6l-4,0c-.15-.63-.29-1.26-.43-1.89Z" fill="#e55626"/><path d="M152.14,181.84c-1-3.39-7.18-3.88-6.26-8.69.62-3.28-4-2.6-6.72-4.41,9.59.27,18.42-.48,27.26.42C162.42,174,157.21,177.87,152.14,181.84Z" fill="#e96129"/><path d="M192.62,168.63c.31-.4.63-.41,1,0A2.08,2.08,0,0,1,192.62,168.63Z" fill="#e55626"/><path d="M346.71,78.58c1.67,1.23,1.14,2.92,1.16,4.44.1,8,.13,16.1.18,24.15l-1.92.73c-11.33-.77-22.68-.45-34-.39l.08,0v-1.76c2.44-.25,3.71-1.94,5.24-3.24,8.31-7.05,16.55-14.15,24.85-21.21C343.59,80.23,344.63,78.78,346.71,78.58Z" fill="#e55626"/><path d="M292.72,61.35c6.17,4,11.37,8.91,16.58,13.79-4,1.65-8.28.71-12.44.94-6.51.36-13.12-.79-19.54,1h-1.23l-1.73-1c-4.21-3.75-8.25-7.67-12.7-11.2-3.17-2.52-2.89-4.6-.14-7a83.48,83.48,0,0,1,9.76-7.64c2.62-1.67,4-1.52,4.07,1.48q.12,9.09.09,18.19a8.79,8.79,0,0,0,1.38,4.52Z" fill="#e96129"/><path d="M347.87,139.91c-1,.16-2.31,0-2.84.52-4.82,4.48-11.2,7.74-14.48,13.42l-2.06.22c-.07-2-2-2.87-3.29-4.2-2-2.13-5.4-3-7-5.49-.74-1.17-1.46-2.61-3.25-2.28-2.19.41-1.66,2.23-1.82,3.62-.43,3.56,1,7.24-.91,10.71l-.05-18.34-.08.06,35.85.08Z" fill="#e55626"/><path d="M240.92,140.55c-.44-1.71.45-2.39,2.41-2.36,9.95.15,19.92-.49,29.87.31l0,.28c-1.84,4.21-6.53,6.3-9.73,9.49-1.29,1.3-2.72,2.49-4.09,3.73a1.83,1.83,0,0,0-.49.51l-1.91.92C251.81,149,247.32,143.89,240.92,140.55Z" fill="#e55626"/><path d="M204.6,137.16c-.34-.27-1-.55-1-.81.46-9.27.61-18.52-.66-27.76a3.13,3.13,0,0,0,.12-.86l2.39.11c4.31,5.65,10.68,9.64,15.87,14.58Z" fill="#e55626"/><path d="M240.78,109.3c0-.77-1.93-2.42.34-2.17,9.1,1,18.19-.63,27.26.21,1.56.14,3.15.18,3.64,1.78.41,1.36-.83,2.13-1.78,2.9-4.27,3.49-8.59,6.94-12.89,10.41Q249.07,115.86,240.78,109.3Z" fill="#e96129"/><path d="M276.25,140.67c.61-.9,1.33-.7,2-.11q6.54,5.52,13.05,11.06c1.57,1.34,1.78,2.59,0,4-5,3.94-9.8,8-14.69,12-.17-.81-.34-1.62-.5-2.43q0-7.89,0-15.77c0-.57,0-1.14,0-1.72,0-2,0-4.09-.05-6.13C276.13,141.3,276.19,141,276.25,140.67Z" fill="#e55626"/><path d="M276.09,77h1.23c4.36,4.45,8.67,8.95,13.82,12.78A5.29,5.29,0,0,0,294.3,91l-16.83,14.93c-1.94-1.2-.46-3.24-1.55-4.65,0-.48,0-1-.07-1.46a85.94,85.94,0,0,0-.07-21.32Z" fill="#e55626"/><path d="M221.35,122.42c-5.19-4.94-11.56-8.93-15.87-14.58l27.49-.31c1.25,0,2.44.19,3.06,1.22s-.11,2-1,2.66C230.2,114.86,226.57,119.35,221.35,122.42Z" fill="#e96129"/><path d="M240.92,140.55c6.4,3.34,10.89,8.4,16,12.88-4.72,5.28-10.7,9.46-16.87,15.07C239.16,158.32,240,149.43,240.92,140.55Z" fill="#e96129"/><path d="M312.19,138.09l-2-.19a54.22,54.22,0,0,0-13-11.36c-1.12-1.18-1.56-2.92-3.69-3.26,2.15-1.71,4.64-3.12,6.18-5.35.93,0,1.74-.18,2.12-1l-.33-.06c2.91.18,3.42-1.81,4.3-3.48l-.16.11c1.74-.22,2.41-1.15,2.32-2.58l-.06,0,3.73,1.73c.16,1.73.39,3.46.47,5.19.26,6.24-.61,12.5.46,18.73l-.5,1.56Z" fill="#e55626"/><path d="M237.18,168.63H210.63a3,3,0,0,1-2.9-1.39c-.76-1.35.13-2.22,1.15-3,3.61-2.85,7.26-5.65,10.87-8.5a2.82,2.82,0,0,1,4,.09C228.18,160,232.54,164.18,237.18,168.63Z" fill="#e96129"/><path d="M328.49,154.07l2.06-.22c2.68,2.49,5.3,5,8.06,7.46s2.59,4.09-1.45,4.71a4.39,4.39,0,0,0-3.53,2.65l-19.3.24-2.36-.32v-3.2c1.27.41,2.51,1,3.73-.15C319.87,161.44,324.79,158.27,328.49,154.07Z" fill="#e96129"/><path d="M240.78,109.3q8.29,6.56,16.57,13.13c-4.81,5-10.52,9.19-16.57,14.35Z" fill="#e55626"/><path d="M328.49,154.07c-3.7,4.2-8.62,7.37-12.79,11.17-1.22,1.12-2.46.56-3.73.15l.27-9c1.89-3.47.48-7.15.91-10.71.16-1.39-.37-3.21,1.82-3.62,1.79-.33,2.51,1.11,3.25,2.28,1.58,2.5,4.95,3.36,7,5.49C326.47,151.2,328.42,152.08,328.49,154.07Z" fill="#e55626"/><path d="M293.58,123.28c2.13.34,2.57,2.08,3.69,3.26a25.29,25.29,0,0,1-1.43,3.24c-.7,1.17-.72,2,1,2.13,3.61.19,4.5,1.35,2.57,4.13-.6.87,1.07,1.3,1.56,2-6.75.05-13.51.12-20.26.13-1,0-2.23.26-2.74-.64-.68-1.19.69-1.82,1.46-2.47C284.12,131.12,288.86,127.21,293.58,123.28Z" fill="#e96129"/><path d="M307.15,138.19c1.12,1,2.72,1.83.55,3.47-3.69,2.79-7.12,5.85-10.67,8.77-1.09.9-2.31,2.21-3.52.16-.75-1.29-2.79-3.2.12-3.91,5.42-1.32,7.09-5.55,10.33-8.56Z" fill="#e96129"/><path d="M307.15,138.19l-3.19-.07-3-.06c-.49-.72-2.16-1.15-1.56-2,1.93-2.78,1-3.94-2.57-4.13-1.74-.09-1.72-1-1-2.13a25.29,25.29,0,0,0,1.43-3.24,54.22,54.22,0,0,1,13,11.36Z" fill="#e55626"/><path d="M273.44,169.15c-8.88.42-17.75.78-26.61-.11A254,254,0,0,1,273.44,169.15Z" fill="#e96129"/><path d="M275.78,78.45a85.94,85.94,0,0,1,.07,21.32A132,132,0,0,1,275.78,78.45Z" fill="#e96129"/><path d="M310.16,168.77h-9.35c4.2-1.56,7.06-4.56,9.36,0Z" fill="#e96129"/><path d="M311.68,112.67,308,110.94a9.52,9.52,0,0,1,4.24-3.4l-.08,0Z" fill="#ee6430"/><path d="M275.92,101.23c1.09,1.41-.39,3.45,1.55,4.65-.62.6-1.53,1.77-1.88.09C275.28,104.45,275.78,102.82,275.92,101.23Z" fill="#e96129"/><path d="M305.85,113.37c-.88,1.67-1.39,3.66-4.3,3.48A5.47,5.47,0,0,1,305.85,113.37Z" fill="#ee6430"/><path d="M273.17,138.78l0-.28c.34-.43.65-.92,1.4-.59.09,0,.14.3.13.31C274.21,138.42,273.69,138.6,273.17,138.78Z" fill="#e96129"/><path d="M308,110.9c.09,1.43-.58,2.36-2.32,2.58C305.56,112,306.89,111.53,308,110.9Z" fill="#ee6430"/><path d="M241.8,169a2.15,2.15,0,0,1-1.61,1.65C239.68,169.39,240.27,168.88,241.8,169Z" fill="#e96129"/><path d="M276.1,165.24c.16.81.33,1.62.5,2.43C275.23,167,275.69,166.13,276.1,165.24Z" fill="#e96129"/><path d="M276.13,147.75c0,.58,0,1.15,0,1.72C276.13,148.9,276.13,148.33,276.13,147.75Z" fill="#e96129"/><path d="M301.88,116.91c-.38.84-1.19,1-2.12,1C300.25,117.26,300.71,116.54,301.88,116.91Z" fill="#ee6430"/><path d="M240.66,176.62c-.14.29-.28.59-.43.89l-.18-1.82C240.26,176,240.46,176.31,240.66,176.62Z" fill="#e96129"/><path d="M258.86,152.51a1.83,1.83,0,0,1,.49-.51C259.57,152.43,259.4,152.6,258.86,152.51Z" fill="#e96129"/><path d="M276.25,140.67c-.06.32-.12.63-.17,1C276.14,141.3,276.2,141,276.25,140.67Z" fill="#e96129"/><path d="M401.87,215.66q-.47,0-.93,0c-4.43-6.14-11.34-10.27-17-15.43a1.74,1.74,0,0,1-.68,0l.69-1.93c1.88-.19,2.84-1.47,4-2.47,3.51-2.94,7.09-5.83,10.47-8.87,2.26-2,4.08-2,6.34,0,4.18,3.79,8.55,7.42,12.84,11.12-1.12.6-3.15-.33-3.59,1.63a8.76,8.76,0,0,0,4.41.47c-.74,1.69-2.48,2.69-3.86,3.91C410.3,207.92,405.43,211.25,401.87,215.66Z" fill="#e96129"/><path d="M384,198.29l-.69,1.93c-2.13-.64-1.63-3.56-4.36-3.69l-2.39-3.3a6.69,6.69,0,0,1,2.54-4.63c2.29-1.52,2.5-3.64,3.33-5.64,1.51-3.7-1.95-6.61-2.07-10l1.32-2.36,2-.95Z" fill="#e96129"/><path d="M384,198.29l-.3-28.68c-.7-1.29-1.95-.89-3.11-.72l-11.08.07c-5.74-.11-11.47-.21-17.2-.34-1.14,0-2.4.31-3.27-.67l33.51-29.15,1.12.24.25,1.75q0,12.63,0,25.26a1.6,1.6,0,0,0,.56,2.06c5.24,1.46,10.64.51,16,.65,6.23.17,12.48,0,18.73,0,.21,2.64.42,5.29.64,7.93l.21,9.38c-1.1,3.56-.29,7.19-.6,10.77-.08.92.37,2.38-1.73,1.24-4.29-3.7-8.66-7.33-12.84-11.12-2.26-2-4.08-2.07-6.34,0-3.38,3-7,5.93-10.47,8.87C386.81,196.82,385.85,198.1,384,198.29Z" fill="#ee6430"/><path d="M382.52,138.8,349,168c-1.85-1.22-1.08-3-1.1-4.47-.09-7.86,0-15.71,0-23.57l.09-1.68a2.68,2.68,0,0,1,.85-.41l1.19,1.07c2.79,5.27,8.26,8.43,13.25,11.87,1,.69,4.11.78,4.14-2.12,0-2.38,1.82-3.86,4.13-5.08,2.82-1.48,5.48-3.2,8.21-4.81l2.49-1.75.41.87Z" fill="#ee6430"/><path d="M380.33,172.92c.12,3.43,3.58,6.34,2.07,10-.83,2-1,4.12-3.33,5.64a6.69,6.69,0,0,0-2.54,4.63c-3.73-1.63-5.73-4.85-8.8-7.08-1.17-.86-1.69-1.93-.36-3C371.71,179.78,375.14,175.54,380.33,172.92Zm-4.47,11.6c.47.22.87.51,1,.44a4.94,4.94,0,0,0,.92-.85c-.28-.12-.63-.39-.83-.32A4.63,4.63,0,0,0,375.86,184.52Z" fill="#ee6430"/><path d="M380.56,168.89c1.16-.17,2.41-.57,3.11.72l-2,.95Z" fill="#e55626"/><path d="M446.25,207.38l-8.93,8.49L421.4,229c-1.82-3-.76-6.23-.89-9.34-.26-6.22-.17-12.46-.22-18.68,1.52-1.33,3.48-.78,5.25-.8,7.88-.07,15.76,0,23.65-.06,2.18,1.46.83,2.72-.42,3.84S446.09,205.7,446.25,207.38Z" fill="#ee6430"/><path d="M401.87,215.66c3.56-4.41,8.43-7.74,12.74-11.55,1.38-1.22,3.12-2.22,3.86-3.91l1.18.77c0,7.52,0,15-.09,22.54,0,1.64.81,3.5-1.07,4.87-5.3-2.28-8.79-6.24-12.33-10.07C404.93,217,403.86,215.89,401.87,215.66Z" fill="#e96129"/><path d="M421.4,229l15.92-13.15c5.93,4.17,12,8.26,15.71,14.2-8.81,0-17.62,0-26.43-.07C424.83,230,422.82,230.56,421.4,229Z" fill="#e55626"/><path d="M419.65,201l-1.18-.77a8.76,8.76,0,0,1-4.41-.47c.44-2,2.47-1,3.59-1.63,2.1,1.14,1.65-.32,1.73-1.24.31-3.58-.5-7.21.6-10.77,1.17,3.79,0,7.67.66,11.48-.13,2.58,2.19,1.71,3.6,1.73,8.17.1,16.34.17,24.5.08,2.1,0,4.45.65,6.29-.9l1.15,0a6.24,6.24,0,0,1,1-.08l-1.35,1.9-1.46.86c-1.36-1.66-3.38-.87-5.15-1-7.89,0-15.77,0-23.65.06-1.77,0-3.73-.53-5.25.8A3.43,3.43,0,0,1,419.65,201Z" fill="#e55626"/><path d="M347.7,61c-.92-.26-2.2-.29-2.72-.84-2.45-2.63-5.69-3.45-9.4-3.45,2.87-3.93,7.32-6.55,11.08-9.75l1.1.27Z" fill="#e55626"/><path d="M334.59,57.6c.37,2.64-1.11,3.72-4.09,3.52A7.15,7.15,0,0,1,334.59,57.6Z" fill="#e55626"/><path d="M330.55,61.85l-1.25,0,1.19-.7A4.62,4.62,0,0,1,330.55,61.85Z" fill="#e55626"/><path d="M335.66,56.73l-1.09.93Z" fill="#e55626"/><path d="M457.2,74.28l-.51,1.46a.56.56,0,0,0-.47.16Q440.5,76,424.77,76c-1.16,0-2.4.18-3.31-.71L437,62.14c4.48,3.9,10.82,6,14.3,10.86C452.79,75.11,455.45,73.1,457.2,74.28Z" fill="#ee6430"/><path d="M349.91,107.06c1.41-1.86,2.81-3.73,4.22-5.6l11.31-9,18.26,14.19,0-.06a2,2,0,0,0,2.08.9l-.11.18c.14,1.78,1.76,2.7,3.06,3.78,4.06,3.37,8.18,6.68,12.28,10-.2,3.84-4.12,5.16-6.81,7.32-3.87.5-6.42,3.38-10.16,4.1-.06-6.74-.14-13.48-.15-20.22,0-1.55.54-3.17-1.24-4.33-1.23-1.54-3.09-.86-4.67-.89C368.6,107.29,359.25,107.19,349.91,107.06Z" fill="#e55626"/><path d="M383.63,76.9l1,.19c2.49,3.76,6.78,6.44,8.67,10.57a1.16,1.16,0,0,0,.85.42c5.62.26,4.66,3.45,4,6.52v-.19l-1.07,1.33-11.34,10.1-2.09.77,0,.06Q383.67,91.79,383.63,76.9Z" fill="#ee6430"/><path d="M347.54,64.46c-.39-.16-1.06-.26-1.12-.49-.22-.75.51-.81,1.14-.86C347.55,63.56,347.55,64,347.54,64.46Z" fill="#e55626"/><path d="M349.91,107.06c9.34.13,18.69.23,28,.41,1.58,0,3.44-.65,4.67.89l-16.22,13.88c-5.88,5.18-12.32,9.89-17.58,15.58a2.68,2.68,0,0,0-.85.41l-35.85-.08c.17-.52.33-1,.5-1.56a12.07,12.07,0,0,0,2.57-1.27q14.9-12.73,29.68-25.58a8.48,8.48,0,0,0,1.27-1.84l1.92-.73Z" fill="#ee6430"/><path d="M385.75,105.84l11.34-10.1,1.07-1.33v.19l4-2.76c3.18,2.69,6.44,5.3,9.48,8.13,2.09,2,4,4.75,7.8,5,.1.6.21,1.21.31,1.81a8.12,8.12,0,0,0-.22.81c-11.3-.45-22.59-.45-33.87.15l.11-.18Z" fill="#ee6430"/><path d="M402.13,91.84l-4,2.76c.65-3.07,1.61-6.26-4-6.52a1.16,1.16,0,0,1-.85-.42c-1.89-4.13-6.18-6.81-8.67-10.57q15.63-.09,31.25-.17c1,0,2.05-.12,2.68.79Z" fill="#e96129"/><path d="M419.5,107.54a8.12,8.12,0,0,1,.22-.81l1.14-.23c4.71-4.13,9.41-8.27,14.17-12.36,1.07-.92,2.55-2,4-.79,4.38,3.63,8.64,7.38,12.8,11.2.55.5.28,1.67.39,2.52l-30.45.25-2.3.15Z" fill="#e55626"/><path d="M402.13,91.84l16.43-14.13c1.94,3,.86,6.24.94,9.35.14,6,0,11.91-.09,17.86-3.82-.2-5.71-3-7.8-5C408.57,97.14,405.31,94.53,402.13,91.84Z" fill="#e96129"/><path d="M456.18,198.46l-1.15,0c-6.5-3-10.16-8.76-16-12.46-.17-1.19-1.57-1.52-2.24-2.36,6.72-1.81,9.6-7.54,14.95-10.77.91-.55,2.2-1.37,1.8-2.43-.55-1.44-2.31-.83-3.56-.9-6.75-.39-13.55.65-20.26-.64l26.33-.11c-.09.54-.81,1.08,0,1.64Z" fill="#e55626"/><path d="M449.19,200.14c1.77.13,3.79-.66,5.15,1-2.61,2.16-4.74,4.78-8.09,6.24-.16-1.68,1.41-2.39,2.52-3.4S451.37,201.6,449.19,200.14Z" fill="#e96129"/><path d="M21.72,139.77l-16,13.33c-4.07-2-6-5.83-9.27-8.5a2.52,2.52,0,0,1,.43-4.51c2.62-1.38,5.45-.63,7.75,1,.87.6,1.2,1.74,2,2.48,3.08,2.88,4.65,2.53,7.29-.8,1.82-2.28,3.37-5.65,8-3.78A2.49,2.49,0,0,0,21.72,139.77Z" fill="#ee6430"/><path d="M25,47.14c.51,0,1,0,1.53.09,2.81.45,6.06.32,8.32,1.53,3.31,1.78-2.14,3.9-.55,6.13A41,41,0,0,1,25,47.14Z" fill="#ee6430"/><path d="M36.51,56.74l.82.7Z" fill="#ee6430"/><path d="M35.46,55.86l.85.71Z" fill="#ee6430"/><path d="M34.38,55c.3.25.6.5.91.74C35,55.48,34.68,55.23,34.38,55Z" fill="#ee6430"/><path d="M77.17,91.84c0,.3,0,.61.08.91-5.69,4.72-11.93,9-16.39,14.71l-1.19.07,0,.06c0-8.15.06-16.31.14-24.46,0-1.1-.51-2.52,1-3.14s2.56.54,3.41,1.37C68.22,85.18,73.63,87.67,77.17,91.84Z" fill="#e55626"/><path d="M132.29,107.55c1.83,2.75,0,5.51,0,8.26,0,7.4,0,14.79-.07,22.19l-1.29.79c-4.81,4.05-9.76,8-14.37,12.18-2.45,2.24-4,2.14-6.51,0-5.13-4.33-9.79-9.09-15.63-12.78l-33.54.08-1.19-.2.08.06.24-1.72c2.85-.81,4.34-3,6.47-4.57,3.52-2.55,6-6.16,10.4-7.81,6.5,2.3,11.43,6.27,15.8,10.85.75.78,1.09,2.35,2.94,1.23,5.81-2.15,9.33-6.66,13.93-10,1.63-1.2,4.36-2,3.92-4.58,4.19-.46,5.65-3.89,8.39-5.88,3.42-2.49,7-5,9.42-8.36a1.47,1.47,0,0,0,1,.13Z" fill="#e55626"/><path d="M59.67,107.53l1.19-.07,33.71.26c-4,5.87-10.92,9.26-16.46,13.83-3,.19-4.32-1.87-6.17-3.28-4-3-7-7-11.9-9.08Z" fill="#e55626"/><path d="M40.38,152.91c-4.23-3.7-8.49-7.39-12.7-11.11-1.25-1.1-3-2-2.57-3.91l33.59.44c-2.64,2.39-5,5.15-8,7.08C47.06,147.74,45.85,152.5,40.38,152.91Z" fill="#ee6430"/><path d="M60,109.19c4.91,2.12,7.93,6.06,11.9,9.08,1.85,1.41,3.17,3.47,6.17,3.28-.4.83-.8,1.67-1.19,2.51-4.44,1.65-6.88,5.26-10.4,7.81-2.13,1.55-3.62,3.76-6.47,4.57C59.69,127.36,59.58,118.28,60,109.19Z" fill="#e55626"/><path d="M40.38,152.91c5.47-.41,6.68-5.17,10.33-7.5,3-1.93,5.35-4.69,8-7.08l1.11-.17-.08-.06-.24,4.27c-2.12,1-2.15,1.93.06,2.84l0,4.16c-3.7,2.85-1,6.53-1.72,9.77-.46,2.17.85,4.75-2.22,6.23-3.71-3.11-7.42-6.2-11.12-9.31-1.19-1-2.2-2.22-4.13-2.18C40.35,153.55,40.37,153.23,40.38,152.91Z" fill="#e55626"/><path d="M58.72,199.18l-1.13.36c-10.86,0-21.73.48-32.58-.2q0-.42,0-.84l25.61-21.57c1,1,2.57,2.07.95,3.31-2.21,1.69-.38,1.6.75,2.67,2.64,2.52.42,6.52,3,9.33a2.41,2.41,0,0,1-1,.85c-3.81,1.46-2.1,2.48.28,3.63C56,197.42,57.33,198.35,58.72,199.18Z" fill="#e96129"/><path d="M25,198.5q0,.42,0,.84c-1.91.85-1.57,2.35-1.59,3.8-.05,4.63-.17,9.26-.27,13.89-.75-5.21-1.73-10.41-1.09-16.21-1,.64-1.33.87-1.68,1.12C15,205.8,11.32,211.2,5.05,214.26c-3.62-3-7.44-5.85-10.82-9s-2.36-5.28,2.6-5.72a56.78,56.78,0,0,1,13.66.17,14.22,14.22,0,0,0,3.49.24c8.79-1,9-1.12,9-8.82,0-7.1-.05-14.21-.09-21.31l.49,0h.48c0,8.27,0,16.55.07,24.83C23.91,195.9,23,197.53,25,198.5Z" fill="#ee6430"/><path d="M5.05,214.26c6.27-3.06,10-8.46,15.33-12.32.35-.25.71-.48,1.68-1.12-.64,5.8.34,11,1.09,16.21a2.4,2.4,0,0,1-.71,2.77l0,.17a2.11,2.11,0,0,1,.74,2.48v.12a2.5,2.5,0,0,1,0,2.52c-2.05,3.7-4,2.61-6,0-3.08-4.06-7.82-6.54-12.28-9.29C4.94,215.26,5,214.76,5.05,214.26Z" fill="#e55626"/><path d="M84.35,220.12a3.33,3.33,0,0,1,2.18-2.8c1.46-.69,2.68-1,0-1.64-1.1-.27-.63-1.12.22-1.58,1.14-.62,2.49-.78,3,.37,1,2.11,2.16,4.33,2.29,6.55a3.21,3.21,0,0,1-3.67,3.32C86.34,224,84.25,222.91,84.35,220.12Z" fill="#e55626"/><path d="M90.25,210.24l.62.41a4.19,4.19,0,0,1-.59.42s-.34-.15-.33-.2A5.18,5.18,0,0,1,90.25,210.24Z" fill="#e55626"/><path d="M113.49,185.32c-2.95,1.1-4.86,3.16-6.66,5.32l-11.28,9V170.12L78.12,184.46c-.33,0-.66,0-1,0L61.08,170l5-.93,1.83-.25,26.36-.19c2.7-.38,4.39-2,6.17-3.58,3.57-3.09,7.1-6.22,10.71-9.27.87-.73,1.83-2.25,3.31-1.13,6,4.54,12.56,8.69,16.16,15.12a.93.93,0,0,0-.33.71C124.53,175.29,118.3,179.71,113.49,185.32Z" fill="#ee6430"/><path d="M113.49,185.32c4.81-5.61,11-10,16.78-14.86l1.11-.64a2.37,2.37,0,0,1,.92-.15c-1.7,3.77-1.18,7.83-.73,11.54a60.54,60.54,0,0,1-.27,17.27l-1.12.05C124.19,194.53,120,188.88,113.49,185.32Z" fill="#e55626"/><path d="M131.26,198.44l.84.73Z" fill="#e55626"/><path d="M66.06,169l-5,.93,16.06,14.46-11.26,9.65c-2-.12-3.76-1.86-6-.93,0-6.54,0-13.09-.07-19.64,0-1.36.72-2.94-1.07-4a1.36,1.36,0,0,1-.08-.69Z" fill="#e96129"/><path d="M58.7,169.52c1.79,1,1.06,2.63,1.07,4,.07,6.55.06,13.1.07,19.64-.85,1.95.9,4.25-1.12,6-1.39-.83-2.7-1.76-4.17-2.46-2.38-1.15-4.09-2.17-.28-3.63a2.41,2.41,0,0,0,1-.85c-2.53-2.81-.31-6.81-3-9.33-1.13-1.07-3-1-.75-2.67,1.62-1.24,0-2.33-.94-3.31l.3.06c1.43.2,1.6-.54,1.51-1.47l-.07,0c1.55.13,2.19-.52,2-1.8Z" fill="#ee6430"/><path d="M58.7,169.52l-4.31,4.25a3,3,0,0,0-2,1.8l.07,0c-.79.27-1.44.65-1.51,1.47l-.3-.06L25,198.5c-1.94-1-1.07-2.6-1.08-3.92-.09-8.28-.06-16.56-.07-24.83,1.68-1.41,3.82-.9,5.78-.94,9.43-.19,18.87-.3,28.3-.43.25.14.48.29.71.45A1.36,1.36,0,0,0,58.7,169.52Z" fill="#ee6430"/><path d="M58.62,168.83c-.23-.16-.46-.31-.71-.45-.77-1-1.55-2-2.33-3,3.07-1.48,1.76-4.06,2.22-6.23.69-3.24-2-6.92,1.72-9.77v18.3l4.33-2.43c.17,2.17,3,2.12,4,3.55l-1.83.25Z" fill="#e55626"/><path d="M15.94,175c-5.23-.07-10.46-.09-15.68-.26-1.5-.05-3.39-.42-3.43-2s2-1.35,3.17-1.58c6.89-1.29,13.9-.22,20.83-.63C20.65,173.13,17.91,173.75,15.94,175Z" fill="#e55626"/><path d="M456.25,139.75c-2.34.12-3.65,1.52-5,2.91-5.18,3.12-9.26,7.2-13.46,11.19C433,157.91,428.18,162,423.26,166c-1.27,1-2.52,3.21-4.83,1,1.34-1,1-2.41,1-3.68,0-8,0-15.94,0-23.9l1.08-2.12a2,2,0,0,1,.9-.19c.77,1,1.84.79,2.92.54,10.28.92,20.58.27,30.88.39h1.09Z" fill="#e55626"/><path d="M456.27,138h-1.09c-.75-.55-1.46-1.17-2.26-1.66-5.67-3.51-9-9.15-15.12-12.24a2.62,2.62,0,0,0-.1-.84l.25-1,16.46-14a2.4,2.4,0,0,0,.8-.13c1.52,1.32,1,3,1,4.55C456.29,121.19,456.26,129.61,456.27,138Z" fill="#e96129"/><path d="M454.41,108.35l-16.46,14c-4.27-3.49-8.57-6.94-12.76-10.49-1.51-1.27-3.66-2.26-3.43-4.52l30.45-.25,2.56.31Z" fill="#e96129"/><path d="M454.41,108.35l.36-1,.44.84A2.4,2.4,0,0,1,454.41,108.35Z" fill="#e55626"/><path d="M63.85,165.24l-4.33,2.43v-18.3l0-4.16-.06-2.84.24-4.27,1.19.2c3.79,5.6,10,9.34,15,13.94a2.31,2.31,0,0,0,3.18.06c5-4.81,11.63-8.28,15.36-14.08,5.84,3.69,10.5,8.45,15.63,12.78,2.5,2.11,4.06,2.21,6.51,0,4.61-4.21,9.56-8.13,14.37-12.18.08,7.84.14,15.68.26,23.51,0,1.82-.55,3.91,2.18,4.88l-1.11,2.49a2.37,2.37,0,0,0-.92.15,4.13,4.13,0,0,0-.78-.08c-3.6-6.43-10.15-10.58-16.16-15.12-1.48-1.12-2.44.4-3.31,1.13-3.61,3.05-7.14,6.18-10.71,9.27-1.78,1.54-3.47,3.2-6.17,3.58a4.67,4.67,0,0,0-2.76-1.72c-1.88-4.22-6.5-6.41-9.81-9.56-4.25-4.06-4.47-3.93-8.74.76,0,.35,0,.69,0,1l0-.07C68.29,159.31,67.25,163.56,63.85,165.24Z" fill="#e96129"/><path d="M133.41,167.18c-2.73-1-2.16-3.06-2.18-4.88-.12-7.83-.18-15.67-.26-23.51l1.29-.79c9.5,0,19,.07,28.49.07,1.87,0,3.73-.12,5.35.9-4.8,5.5-11.32,9.62-16.39,14.91Z" fill="#ee6430"/><path d="M149.71,153.88c5.07-5.29,11.59-9.41,16.39-14.91l1.75.77q-.09,13.5-.16,27a4,4,0,0,1-3.61-1.06C159.67,161.41,153.74,158.49,149.71,153.88Z" fill="#e96129"/><path d="M461.26,49c3.8-1.42,7.5-2.71,11.87-2.83,3.45-.09,5.26,1.15,6.13,3.36s-.77,3.84-3.27,4.69a1.9,1.9,0,0,0-1.34,1.69l-5.06.14c-3.1-.36-4.5-2.5-6.2-4.32.12-1.38,0-2.61-2.09-2.81Z" fill="#e55626"/><path d="M461.3,48.94c2.05.2,2.21,1.43,2.09,2.81C462.33,51,461.21,50.31,461.3,48.94Z" fill="#e55626"/><path d="M476.51,58.37a7.85,7.85,0,0,1-.82.15c-1-.67-1-1.65-1.05-2.61C475.77,56.45,476.58,57.17,476.51,58.37Z" fill="#e55626"/><path d="M419.4,139.41c0,8,0,15.93,0,23.9,0,1.27.35,2.65-1,3.68-5.57-2-8.95-6.14-12.76-9.7-3.59-3.35-5.83-2.39-8.74.22s-5.77,4.81-8.6,7.26a4.69,4.69,0,0,1-3.59,1.29h-.86q0-12.63,0-25.26l2.86-.1c4,3.37,8.17,6.56,11.78,10.19,2.74,2.76,4.46,2.06,6.87-.12C409.82,146.76,414.08,142.6,419.4,139.41Z" fill="#e55626"/><path d="M429.76,168.92c6.71,1.29,13.51.25,20.26.64,1.25.07,3-.54,3.56.9.4,1.06-.89,1.88-1.8,2.43-5.35,3.23-8.23,9-14.95,10.77-3.4-2.82-6.76-5.68-10.21-8.45-1.57-1.26-2.8-3.76-4.92-3.37-2.47.46-.38,3.44-1.93,4.87-.22-2.64-.43-5.29-.64-7.93Z" fill="#e55626"/><path d="M437.83,153.85c4.2-4,8.28-8.07,13.46-11.19,2.81,1.5,4.15,3.5,3.91,6.48-.29,3.59-.12,7.22-.08,10.83,0,1.92-1.11,2.95-3.19,3.32s-2.64-.72-3-2.16a3,3,0,0,0-2.5-2.5C442.51,158.32,440.34,155.91,437.83,153.85Z" fill="#ee6430"/><path d="M383.88,166.05h.86l-.3,2.05A1.6,1.6,0,0,1,383.88,166.05Z" fill="#e55626"/><path d="M131.55,105c0-.38,0-.75,0-1.12a4.15,4.15,0,0,1,.23.76C131.8,104.76,131.63,104.89,131.55,105Z" fill="#e96129"/><path d="M132.31,107.42a1.47,1.47,0,0,1-1-.13,4.17,4.17,0,0,1,.28-.77Z" fill="#e96129"/><path d="M131.53,91c0-.38,0-.76,0-1.13C131.54,90.27,131.53,90.65,131.53,91Z" fill="#e96129"/><path d="M94.57,107.72l-33.71-.26c4.46-5.72,10.7-10,16.39-14.71,5.92,3.32,10.57,7.84,15.6,12,.84.7,1.81,1.28,2.73,1.91a1.12,1.12,0,0,0-.12.76A2.68,2.68,0,0,0,94.57,107.72Z" fill="#ee6430"/><path d="M94.57,107.72a2.68,2.68,0,0,1,.89-.3q.2,9.77.4,19.52c-.07,3.07-.13,6.13-.2,9.2-1.85,1.12-2.19-.45-2.94-1.23-4.37-4.58-9.3-8.55-15.8-10.85.39-.84.79-1.68,1.19-2.51C83.65,117,90.53,113.59,94.57,107.72Z" fill="#ee6430"/><path d="M95.66,136.14c.07-3.07.13-6.13.2-9.2,2.9-.23,2.88-2.06,2.75-3.84-.19-2.52.81-4.72,1.75-7.07,1.24-3.1,2.44-1.78,4.18-.62,3,2,5.21,4.92,9,6.12.44,2.6-2.29,3.38-3.92,4.58C105,129.48,101.47,134,95.66,136.14Z" fill="#e96129"/><path d="M346.13,107.9a8.48,8.48,0,0,1-1.27,1.84q-14.79,12.83-29.68,25.58a12.07,12.07,0,0,1-2.57,1.27c-1.07-6.23-.2-12.49-.46-18.73-.08-1.73-.31-3.46-.47-5.19.14-1.72.29-3.44.43-5.16C323.45,107.45,334.8,107.13,346.13,107.9Z" fill="#e96129"/><path d="M419.77,176.71c1.55-1.43-.54-4.41,1.93-4.87,2.12-.39,3.35,2.11,4.92,3.37,3.45,2.77,6.81,5.63,10.21,8.45.67.84,2.07,1.17,2.24,2.36l-1.72-.27h0c-4.1,3.36-9.34,5.67-12.37,10a4.63,4.63,0,0,1-4.31,1.8c-.67-3.81.51-7.69-.66-11.48Z" fill="#ee6430"/><path d="M386.75,140.69l-2.86.1c-.08-.58-.17-1.16-.25-1.75l0,0A2.91,2.91,0,0,1,386.75,140.69Z" fill="#e55626"/><path d="M382.52,138.8c0-.31.08-.62.11-.93l1.1.23-.05.91,0,0Z" fill="#e55626"/><path d="M348.81,137.82c5.26-5.69,11.7-10.4,17.58-15.58,0,.33,0,.65,0,1a37.22,37.22,0,0,0,8.11,7.15l7.71,6.63-2.5,1.75c-9.92-1.8-19.81-.27-29.72.14Z" fill="#e55626"/><path d="M382.22,137l-7.72-6.63c-.56-5.66-2.4-7.29-8.1-7.15,0-.33,0-.65,0-1l16.22-13.88c1.78,1.16,1.23,2.78,1.24,4.33,0,6.74.09,13.48.15,20.22.05,1.52.1,3,.16,4.55a3.41,3.41,0,0,0-.43.64l-1.1-.23C382.5,137.58,382.36,137.29,382.22,137Z" fill="#e96129"/><path d="M350,138.89c9.91-.41,19.8-1.94,29.72-.14-2.72,1.61-5.38,3.33-8.2,4.81-2.31,1.22-4.11,2.7-4.13,5.08,0,2.9-3.13,2.81-4.14,2.12C358.26,147.32,352.79,144.16,350,138.89Z" fill="#e55626"/><path d="M375.86,184.52a4.63,4.63,0,0,1,1.07-.73c.2-.07.55.2.83.32a4.94,4.94,0,0,1-.92.85C376.73,185,376.33,184.74,375.86,184.52Z" fill="#e96129"/><path d="M420.64,197.57a4.63,4.63,0,0,0,4.31-1.8c3-4.35,8.27-6.66,12.37-10h0l1.72.27c5.8,3.7,9.46,9.42,16,12.46-1.84,1.55-4.19.87-6.29.9-8.16.09-16.33,0-24.5-.08C422.83,199.28,420.51,200.15,420.64,197.57Z" fill="#e96129"/><path d="M383.73,138.1a3.41,3.41,0,0,1,.43-.64,32.56,32.56,0,0,0,10-8.65c2.69-2.16,6.61-3.48,6.81-7.32,2.6.35,3.85-1.35,5.47-2.56,4.25-3.18,7.4-7.41,12.53-9.77,1.13,7.58.14,15.19.51,22.78.09,1.8-.72,3.76,1,5.35l-1.08,2.12c-5.32,3.19-9.58,7.35-14,11.35-2.41,2.18-4.13,2.88-6.87.12-3.61-3.63-7.82-6.82-11.78-10.19a2.91,2.91,0,0,0-3.07-1.68C383.7,138.7,383.71,138.4,383.73,138.1Z" fill="#e96129"/><path d="M419,109.16c-5.13,2.36-8.28,6.59-12.53,9.77-1.62,1.21-2.87,2.91-5.47,2.56-4.1-3.34-8.22-6.65-12.28-10-1.3-1.08-2.92-2-3.06-3.78,11.28-.6,22.57-.6,33.87-.15l0-.07C419.29,108,419.13,108.6,419,109.16Z" fill="#e55626"/><path d="M394.16,128.81a32.56,32.56,0,0,1-10,8.65c-.06-1.52-.11-3-.16-4.55C387.74,132.19,390.29,129.31,394.16,128.81Z" fill="#e55626"/><path d="M385.75,105.84v1.67a2,2,0,0,1-2.08-.9Z" fill="#e96129"/><path d="M398.16,94.41l-1.07,1.33Z" fill="#e96129"/><path d="M419,109.16c.16-.56.32-1.13.49-1.69l2.3-.15c-.23,2.26,1.92,3.25,3.43,4.52,4.19,3.55,8.49,7,12.76,10.49-.09.32-.17.64-.25,1l-1,.8.1,0-1.15.93.06-.1-1,.85-1,.85c-.77.42-1.66.8-1.29,1.82l.18-.18-.22-.14c-.9,0-1.3.53-1.74,1.06a3,3,0,0,0-2,1.72L427.56,132l.07-.05-1.32.92-.74.57-1.08,1.19,0-.07-3.15,2.55a2,2,0,0,0-.9.19c-1.72-1.59-.91-3.55-1-5.35C419.11,124.35,420.1,116.74,419,109.16Z" fill="#ee6430"/><path d="M94.46,138.22c-3.73,5.8-10.38,9.27-15.36,14.08a2.31,2.31,0,0,1-3.18-.06c-5-4.6-11.21-8.34-15-13.94Z" fill="#ee6430"/><path d="M59.49,142.37l.06,2.84C57.34,144.3,57.37,143.35,59.49,142.37Z" fill="#e55626"/><path d="M91.49,166.88a4.67,4.67,0,0,1,2.76,1.72l-26.36.19c-1-1.43-3.87-1.38-4-3.55,3.4-1.68,4.44-5.93,9.15-6.19a12.43,12.43,0,0,1,.36,4.64c-.22,1.61.2,4,2.73,4C81.22,167.7,86.5,168.93,91.49,166.88Z" fill="#e55626"/><path d="M130.6,169.74a4.13,4.13,0,0,1,.78.08l-1.11.64A.94.94,0,0,1,130.6,169.74Z" fill="#e55626"/><path d="M52.34,175.57a3,3,0,0,1,2-1.8C54.53,175.05,53.89,175.7,52.34,175.57Z" fill="#e96129"/><path d="M50.9,177c.07-.82.72-1.2,1.51-1.47C52.5,176.45,52.33,177.19,50.9,177Z" fill="#e96129"/><path d="M433.71,126.59l1-.85c1.53.77.81-.47,1-.85l-.06.1,1.15-.93-.1,0,1.06,0c6.13,3.09,9.45,8.73,15.12,12.24.8.49,1.51,1.11,2.26,1.66-10.3-.12-20.6.53-30.88-.39.08-1,.15-2.06.23-3.09l0,.07,1.08-1.19.74-.57,1.32-.92-.07.05c.36-.37.72-.75,1.09-1.12a3,3,0,0,1,2-1.72c1.64.92,1.79,0,1.74-1.06l.22.14-.17.18A1.63,1.63,0,0,0,433.71,126.59Z" fill="#e55626"/><path d="M424.53,134.55c-.08,1-.15,2.06-.23,3.09-1.08.25-2.15.43-2.92-.54Z" fill="#ee6430"/><path d="M437.8,124.13l-1.06,0,1-.8A2.62,2.62,0,0,1,437.8,124.13Z" fill="#ee6430"/><path d="M91.49,166.88c-5,2.05-10.27.82-15.4.79-2.53,0-3-2.37-2.73-4a12.43,12.43,0,0,0-.36-4.64l0,.07c.11-.11.33-.23.31-.31a3.75,3.75,0,0,0-.35-.73c4.27-4.69,4.49-4.82,8.74-.76C85,160.47,89.61,162.66,91.49,166.88Z" fill="#e55626"/><path d="M72.94,158.08a3.75,3.75,0,0,1,.35.73c0,.08-.2.2-.31.31C73,158.77,73,158.43,72.94,158.08Z" fill="#e55626"/><path d="M437.35,185.75h0Z" fill="#e55626"/><path d="M366.4,123.22c5.7-.14,7.54,1.49,8.1,7.15A37.4,37.4,0,0,1,366.4,123.22Z" fill="#ee6430"/><path d="M432.38,128.09c.05,1.11-.1,2-1.74,1.06C431.08,128.62,431.48,128.05,432.38,128.09Z" fill="#ee6430"/><path d="M435.75,124.89c-.23.38.49,1.62-1,.85Z" fill="#ee6430"/><path d="M433.71,126.59a1.63,1.63,0,0,1-1.28,1.82C432.05,127.39,432.94,127,433.71,126.59Z" fill="#ee6430"/><path d="M436.84,124.06l-1.15.93Z" fill="#ee6430"/><path d="M428.65,130.87c-.37.37-.73.75-1.09,1.12C427.92,131.62,428.28,131.24,428.65,130.87Z" fill="#ee6430"/><path d="M427.63,131.94l-1.32.92Z" fill="#ee6430"/><path d="M425.57,133.43l-1.08,1.19Z" fill="#ee6430"/><rect x="-50" y="54.28" width="572.92" height="137.52" transform="translate(472.92 246.09) rotate(180)" fill="none"/></g><circle cx="244.46" cy="152.96" r="62.5" fill="#fff"/><path d="M228.6,108.75h1.26c0,.06.1,0,.15,0a6,6,0,0,1,1.57.4,7,7,0,0,1,3,2.52,19.19,19.19,0,0,1,2.7,5.62,48,48,0,0,1,1.29,5.39c.36,1.86.64,3.73.86,5.61.18,1.57.26,3.15.39,4.71a12.37,12.37,0,0,0-.84,2.11,13.14,13.14,0,0,0-.61,2.51,17,17,0,0,1-.58-5.74,23.47,23.47,0,0,0-.91,2.34,4.43,4.43,0,0,1,0-.63c0-1.27,0-2.55-.07-3.82a52.79,52.79,0,0,0-.76-6.39,24.51,24.51,0,0,0-2.25-6.92,9.09,9.09,0,0,0-2-2.8,4.58,4.58,0,0,0-2.92-1.35,6,6,0,0,0-4.16,1.52,6,6,0,0,0-1.58,2.57,10.49,10.49,0,0,0-.4,4.94,39.57,39.57,0,0,0,1.35,6.27A49.21,49.21,0,0,0,230.57,141a18.94,18.94,0,0,0,3.07,3.56c.61.53.93.48,1.33-.24a11.56,11.56,0,0,0,1.07-2.74c.17-.65.31-1.31.46-2a11.28,11.28,0,0,0,.47,1.63,3.87,3.87,0,0,0,1.45,2.1.15.15,0,0,1,.07.2,4.8,4.8,0,0,0,.06,2.29,16.07,16.07,0,0,0,.72,2.33,9.23,9.23,0,0,0,.63,1.4,5,5,0,0,1,.08-2.27,6.85,6.85,0,0,1,.9-2.12A17.89,17.89,0,0,0,242,153.4a.79.79,0,0,0,0-.13,32.49,32.49,0,0,1,.19-4.3,8.89,8.89,0,0,1,.59-2.52,1.93,1.93,0,0,1,.89-1.06c.13,0,.21,0,.27.1a15.54,15.54,0,0,1,1.06,3.17,5.21,5.21,0,0,1,.08,2.19s0,.1,0,.12.11-.05.15-.1a11,11,0,0,0,2.12-4.62,6.37,6.37,0,0,0,.09-1.31c0-.42-.13-.84-.15-1.26h0a10.5,10.5,0,0,1,1.34,1.41,8.81,8.81,0,0,1,1.67,3.21,5.68,5.68,0,0,1,.18,1.88c0,.37-.15.73-.16,1.1,0,0,0,0,0,.05l0,0,0-.06a2.12,2.12,0,0,0,.12-.2,19.24,19.24,0,0,0,1.22-3.19,10.45,10.45,0,0,0,.43-3,2.88,2.88,0,0,0,0-.39,1.51,1.51,0,0,1,.45.42,4.51,4.51,0,0,1,.7,1.9c.09.46.15.92.23,1.37a3.06,3.06,0,0,0,.25-.63,9.07,9.07,0,0,0,.45-3.87,3.59,3.59,0,0,0-.6-1.66.24.24,0,0,1,0-.32,3.67,3.67,0,0,0,.42-1,.32.32,0,0,1,0,.09,13,13,0,0,0,1.24,3.45c.42.77.75.81,1.41.23a16.78,16.78,0,0,0,2.07-2.23,45.92,45.92,0,0,0,4.83-8,43.16,43.16,0,0,0,3.6-10.82,16.41,16.41,0,0,0,.34-5.18,7.92,7.92,0,0,0-1.51-3.83,5.51,5.51,0,0,0-3.27-1.92,4.3,4.3,0,0,0-3.76.77,7.06,7.06,0,0,0-1.68,1.77,19.15,19.15,0,0,0-2.23,4.79,31,31,0,0,0-1.17,5.22c-.19,1.32-.35,2.64-.43,4,0,.62-.09,1.23-.11,1.86,0,1,0,2,0,3.05,0,.73.12,1.47.11,2.2l-.45-1.15c-.09-.24-.2-.47-.3-.72,0,.67,0,1.32,0,2a5,5,0,0,1-.33,1.84,1.8,1.8,0,0,1-1.09,1.19c-.17.06-.26.05-.33-.15a3,3,0,0,1-.08-1.44,5.72,5.72,0,0,1,.81-1.94s.09-.1.06-.16-.12,0-.18,0a3.62,3.62,0,0,0-1.37.33c.14-1.86.28-3.72.45-5.57s.4-3.78.7-5.65a47.85,47.85,0,0,1,2.12-8.42,15.12,15.12,0,0,1,3-5.38,6.12,6.12,0,0,1,5.67-2,8.69,8.69,0,0,1,4.74,2.35,10.34,10.34,0,0,1,3.18,7.33v2.14a19.79,19.79,0,0,1-.16,2,34.37,34.37,0,0,1-1.32,6.1,81.2,81.2,0,0,1-6,14.21c-.36.7-.76,1.37-1.16,2a.69.69,0,0,0,.19,1.09l.14.12a10.49,10.49,0,0,1,1.73,1.73,11.38,11.38,0,0,1,2.09,4.58,14,14,0,0,1,.34,3.86c-.05,1-.17,2-.29,2.94s-.26,2.2-.4,3.3c-.18,1.36-.38,2.71-.57,4.07-.24,1.74-.54,3.48-.82,5.22s-.54,3.3-.82,5c-.19,1.17-.33,2.36-.59,3.52a40.62,40.62,0,0,1-2.16,6.56c-.08,0-.08-.13-.11-.2-.13-.3-.24-.63-.38-.93a24.29,24.29,0,0,0-4-5.77,21.76,21.76,0,0,0-4.49-3.68,13.48,13.48,0,0,0-5.81-2.12,8.8,8.8,0,0,0-4.3.64,13.79,13.79,0,0,0-4.16,2.74,26.55,26.55,0,0,0-4.3,5.09,18.54,18.54,0,0,0-2.26,4.91c-.22.76-.32,1.55-.52,2.31l-.16.53a1.47,1.47,0,0,1-.09-.17c-.72-1.64-1.41-3.29-2.05-5a29,29,0,0,1-1.38-4.26,34.61,34.61,0,0,1-.56-5.09c-.08-1.07-.15-2.13-.22-3.2-.06-.9-.2-1.78-.3-2.68-.13-1.17-.17-2.36-.24-3.55-.07-1.38-.2-2.75-.33-4.13s-.21-2.48-.3-3.73a14.35,14.35,0,0,1,.25-4,15.27,15.27,0,0,1,3.21-6.45,12.38,12.38,0,0,1,1.36-1.44.62.62,0,0,0,.16-.87,2.12,2.12,0,0,1-.11-.21c-1.68-3-3.25-6-4.63-9.08a54.46,54.46,0,0,1-3.95-11.85,25.7,25.7,0,0,1-.54-4.54s0-.11,0-.13v-.65c.06,0,0-.08,0-.12a11.14,11.14,0,0,1,.1-1.41,12.43,12.43,0,0,1,1.19-4.23A9.27,9.27,0,0,1,227.5,109,7.67,7.67,0,0,1,228.6,108.75ZM252,169.4h.63a4.38,4.38,0,0,0,.62-.08,12.33,12.33,0,0,0,7.12-3.66,4.58,4.58,0,0,0,1.2-4.78,9.38,9.38,0,0,0-4.15-5.32,4.41,4.41,0,0,0-3.76-.42,6.32,6.32,0,0,0-2.6,1.62,12.55,12.55,0,0,0-3.38,6.25,7.36,7.36,0,0,0,.69,5.07,2.26,2.26,0,0,0,1.86,1.33A14.93,14.93,0,0,0,252,169.4Zm-13.09.06h.38a2.53,2.53,0,0,0,2.29-1.14,6.67,6.67,0,0,0,1-3,10,10,0,0,0-.47-3.51,10.25,10.25,0,0,0-5-6.43,3.89,3.89,0,0,0-2.83-.46,7,7,0,0,0-3.4,2.05,10,10,0,0,0-2.24,3.63,4.38,4.38,0,0,0,.65,4.45,10.41,10.41,0,0,0,2.18,2.06,13.16,13.16,0,0,0,7.5,2.33Z" fill="#563a39"/><path d="M260.29,187c.08.36.18.71.25,1.07a7.58,7.58,0,0,1-1.46,6.15,13.08,13.08,0,0,1-6.66,4.67,15.12,15.12,0,0,1-4.16.66c-.08,0-.16,0-.22,0h-3.21c0-.06-.1,0-.15-.05a38,38,0,0,1-5.53-.51,17,17,0,0,1-4.51-1.34,7.6,7.6,0,0,1-4.6-7.36c0-.11.06-.24,0-.35.19-.76.3-1.55.52-2.3a18.58,18.58,0,0,1,2.25-4.92,26.91,26.91,0,0,1,4.31-5.09,13.58,13.58,0,0,1,4.16-2.73,8.89,8.89,0,0,1,4.3-.65,13.79,13.79,0,0,1,5.81,2.12,21.44,21.44,0,0,1,4.48,3.69,23.93,23.93,0,0,1,4,5.77c.14.3.25.61.37.93C260.22,186.89,260.22,187,260.29,187Zm-4.79,4.53a.35.35,0,0,0-.19.12,22.52,22.52,0,0,1-4.37,2.69,12.35,12.35,0,0,1-7.44.85,22.54,22.54,0,0,1-6-2.18c-.83-.41-1.63-.89-2.44-1.34h0c0,.12.09.19.15.27a14.56,14.56,0,0,0,6.86,4.8,11.08,11.08,0,0,0,6.57.27,11.26,11.26,0,0,0,6.16-4.31,5.35,5.35,0,0,0,.72-1.16l0,0h0Zm.74-6.82a1.21,1.21,0,0,0-.25-.88,5.25,5.25,0,0,0-1.3-1.23,2.66,2.66,0,0,0-3.41.28,2.87,2.87,0,0,0-.76,2,7.83,7.83,0,0,1-1.2,3.7c-.38.62-.79,1.23-1.22,1.82a.53.53,0,0,0,.19.87.86.86,0,0,0,.81,0,21.58,21.58,0,0,0,5.29-3,4.45,4.45,0,0,0,1.85-3.5Zm-21.07.48a2.47,2.47,0,0,0,.38,1.37,7.66,7.66,0,0,0,2.32,2.32A29.93,29.93,0,0,0,241.7,191a4.86,4.86,0,0,0,.81.28.78.78,0,0,0,.75-.2.37.37,0,0,0,.12-.48,1.7,1.7,0,0,0-.39-.57c-.08-.08-.18-.16-.16-.27a.46.46,0,0,0-.16-.37l-.27-.32a7.58,7.58,0,0,1-1.53-4.39,2.6,2.6,0,0,0-3-2.56,3.25,3.25,0,0,0-2.68,3.05Z" fill="#af8070"/><path d="M270.14,118.54h0v2.14h0Q270.15,119.62,270.14,118.54Z" fill="#af8070"/><path d="M236.47,139.61c-.15.65-.29,1.31-.46,2a11.8,11.8,0,0,1-1.07,2.75c-.4.71-.72.77-1.33.23a18.33,18.33,0,0,1-3.07-3.56,48.76,48.76,0,0,1-6.45-13.35,38.06,38.06,0,0,1-1.36-6.27,10.31,10.31,0,0,1,.41-4.93,5.84,5.84,0,0,1,1.57-2.57,6,6,0,0,1,4.16-1.53,4.58,4.58,0,0,1,2.92,1.35,9.41,9.41,0,0,1,2,2.8,25.16,25.16,0,0,1,2.25,6.92,57.12,57.12,0,0,1,.76,6.39c.08,1.28.09,2.55.06,3.82,0,.21,0,.41,0,.63,0,.07,0,.15,0,.22a13.06,13.06,0,0,0-.47,3.63C236.35,138.61,236.43,139.11,236.47,139.61Z" fill="#348fc0"/><path d="M253.49,136.12c0-.74-.09-1.47-.11-2.21,0-1,0-2,0-3,0-.62.07-1.23.11-1.86.08-1.32.24-2.65.43-4a31.13,31.13,0,0,1,1.17-5.21,18.68,18.68,0,0,1,2.23-4.79,7.21,7.21,0,0,1,1.67-1.77,4.3,4.3,0,0,1,3.77-.78,5.56,5.56,0,0,1,3.26,1.92,7.78,7.78,0,0,1,1.52,3.83,16.39,16.39,0,0,1-.34,5.18,43.5,43.5,0,0,1-3.6,10.83,45.84,45.84,0,0,1-4.83,8,15.74,15.74,0,0,1-2.08,2.24c-.65.58-1,.53-1.4-.24a12.82,12.82,0,0,1-1.24-3.45l0-.08a6,6,0,0,0,0-2.52A19,19,0,0,0,253.49,136.12Z" fill="#348fc0"/><path d="M253.49,136.12a21.79,21.79,0,0,1,.55,2.11,6.07,6.07,0,0,1,0,2.51,3.87,3.87,0,0,1-.42,1c-.07.12-.1.19,0,.32a3.82,3.82,0,0,1,.6,1.67,9.2,9.2,0,0,1-.45,3.86,4.35,4.35,0,0,1-.25.63c-.08-.46-.15-.91-.23-1.36a4.34,4.34,0,0,0-.7-1.9,1.54,1.54,0,0,0-.45-.43c0,.15,0,.27,0,.39a10.4,10.4,0,0,1-.44,3,18.87,18.87,0,0,1-1.21,3.19l-.13.2h0c0-.37.12-.73.16-1.1a5.42,5.42,0,0,0-.18-1.88,8.56,8.56,0,0,0-1.66-3.21,10.5,10.5,0,0,0-1.34-1.41h0c0,.42.14.84.15,1.26a7.15,7.15,0,0,1-.09,1.31,11.1,11.1,0,0,1-2.13,4.62s-.06.12-.14.09,0-.08,0-.12a5.21,5.21,0,0,0-.09-2.19,15.51,15.51,0,0,0-1-3.17c-.06-.15-.14-.15-.27-.09a1.84,1.84,0,0,0-.89,1.05,8.74,8.74,0,0,0-.6,2.53,30.73,30.73,0,0,0-.18,4.29l0,.13a17.88,17.88,0,0,1-1.15-8.23,6.71,6.71,0,0,0-.9,2.12,5.12,5.12,0,0,0-.09,2.27,11.06,11.06,0,0,1-.63-1.4,14.57,14.57,0,0,1-.71-2.33,4.55,4.55,0,0,1-.06-2.29.15.15,0,0,0-.08-.2,3.91,3.91,0,0,1-1.44-2.1,8.55,8.55,0,0,1-.47-1.62c-.05-.5-.12-1-.13-1.5a13.06,13.06,0,0,1,.47-3.63,1.74,1.74,0,0,0,0-.22,19.43,19.43,0,0,1,.91-2.34,16.94,16.94,0,0,0,.58,5.74,12.43,12.43,0,0,1,.61-2.51,11.6,11.6,0,0,1,.84-2.11c0,.07,0,.12,0,.19a.59.59,0,0,1,0,.08,5.12,5.12,0,0,0,0,1.61,2.31,2.31,0,0,0,.21.82,7.41,7.41,0,0,0,.72,1.82,5.43,5.43,0,0,0,.45-3.44h0a7.83,7.83,0,0,1,.88.94,15.08,15.08,0,0,1,1,1.51,11.39,11.39,0,0,1,.64,1.48,13.43,13.43,0,0,1,1.29-3.68,11.39,11.39,0,0,0,1.16,4,5,5,0,0,0,.45-.68,4.7,4.7,0,0,0,.61-3.13,2.44,2.44,0,0,1-.14-.65h.05a15.81,15.81,0,0,1,1.55,3.4,4.92,4.92,0,0,1,.45-.65,3.75,3.75,0,0,1,1.17-.84,4,4,0,0,1,1.37-.33c.07,0,.15,0,.19.05s0,.11-.07.16a5.52,5.52,0,0,0-.81,1.94,3.06,3.06,0,0,0,.08,1.44c.07.2.16.21.33.15a1.83,1.83,0,0,0,1.1-1.19,5,5,0,0,0,.32-1.84c0-.65,0-1.3,0-2,.1.24.2.47.3.72S253.34,135.73,253.49,136.12Z" fill="#060707"/><path d="M252,169.4a17.42,17.42,0,0,1-1.77,0,2.26,2.26,0,0,1-1.86-1.32,7.44,7.44,0,0,1-.69-5.07,12.51,12.51,0,0,1,3.38-6.25,6.21,6.21,0,0,1,2.6-1.63,4.4,4.4,0,0,1,3.76.42,9.33,9.33,0,0,1,4.15,5.33,4.55,4.55,0,0,1-1.2,4.77,12.35,12.35,0,0,1-7.12,3.67c-.21,0-.41.06-.62.07S252.16,169.4,252,169.4Zm.8-.36a4.18,4.18,0,0,0,1.06-.08,4,4,0,0,0,2.9-2.58,3.1,3.1,0,0,0,.33-1.55.81.81,0,0,0-1.18-.72,3.23,3.23,0,0,0-.42.2,3,3,0,0,1-.48.22,1.34,1.34,0,0,1-1.55-.62,1.2,1.2,0,0,1,.05-1.56c.13-.15.28-.28.42-.44a.86.86,0,0,0-.51-1.46,4.11,4.11,0,0,0-2.22.2,3.91,3.91,0,0,0-2.65,2.82,5.44,5.44,0,0,0,.28,3.26,3.34,3.34,0,0,0,2.23,2.08,5.7,5.7,0,0,0,1.74.23Z" fill="#fff"/><path d="M238.86,169.46a13.15,13.15,0,0,1-7.51-2.34,10.38,10.38,0,0,1-2.18-2.06,4.4,4.4,0,0,1-.65-4.45,10,10,0,0,1,2.25-3.63,7.15,7.15,0,0,1,3.4-2,3.92,3.92,0,0,1,2.82.47,11.23,11.23,0,0,1,5.49,9.93,6.55,6.55,0,0,1-1,3,2.52,2.52,0,0,1-2.29,1.15ZM233,164.82c0,.14,0,.34.05.55a3.4,3.4,0,0,0,.09.46,4,4,0,0,0,2.85,3.08,6.61,6.61,0,0,0,1.41.14,3.62,3.62,0,0,0,2.36-.58,3.79,3.79,0,0,0,1.86-3.67c-.07-.68-.62-1.14-1.32-.6a2,2,0,0,1-.39.24,1.21,1.21,0,0,1-1.39-.13,1.3,1.3,0,0,1-.09-2.19,2.18,2.18,0,0,0,.21-.22.77.77,0,0,0,.08-1,1,1,0,0,0-.77-.46,4.87,4.87,0,0,0-1.32,0,4.3,4.3,0,0,0-3.63,4.37Z" fill="#fff"/><path d="M250.38,151.27l0,0h0l0,0Z" fill="#060707"/><path d="M256.24,184.73a4.56,4.56,0,0,1-1.84,3.5,22.25,22.25,0,0,1-5.29,3,.83.83,0,0,1-.81,0,.53.53,0,0,1-.19-.87c.42-.59.84-1.19,1.22-1.81a8.09,8.09,0,0,0,1.2-3.71,2.87,2.87,0,0,1,.76-2,2.66,2.66,0,0,1,3.41-.28,5,5,0,0,1,1.29,1.23A1.17,1.17,0,0,1,256.24,184.73Z" fill="#060707"/><path d="M235.17,185.21a3.25,3.25,0,0,1,2.67-3,2.59,2.59,0,0,1,3,2.56,7.66,7.66,0,0,0,1.54,4.39,4,4,0,0,0,.26.32.44.44,0,0,1,.16.36c0,.12.08.2.16.28a1.78,1.78,0,0,1,.4.57.37.37,0,0,1-.13.48.78.78,0,0,1-.75.2,4.46,4.46,0,0,1-.8-.28,30.6,30.6,0,0,1-3.84-2.14,7.52,7.52,0,0,1-2.31-2.32A2.52,2.52,0,0,1,235.17,185.21Z" fill="#060707"/><path d="M235,191.69c.81.45,1.61.92,2.44,1.34a22.73,22.73,0,0,0,6,2.18,12.36,12.36,0,0,0,7.44-.85,22.75,22.75,0,0,0,4.36-2.69c.06,0,.11-.11.19-.12h0a5.77,5.77,0,0,1-.72,1.16,11.29,11.29,0,0,1-6.16,4.31,11.08,11.08,0,0,1-6.57-.27,14.51,14.51,0,0,1-6.86-4.8c-.06-.08-.16-.16-.16-.27Z" fill="#fff"/><path d="M255.5,191.55l0,0h0l0,0Z" fill="#fff"/><path d="M235,191.68h0Z" fill="#fff"/><path d="M247,133.91a3.58,3.58,0,0,0,.14.65,4.7,4.7,0,0,1-.61,3.13,3.44,3.44,0,0,1-.44.68,11,11,0,0,1-1.17-4,13.2,13.2,0,0,0-1.29,3.68,9.72,9.72,0,0,0-.64-1.48,14.08,14.08,0,0,0-1-1.52,3.83,3.83,0,0,1,2.7-1.6l.18,0a2.81,2.81,0,0,0,.58,0,4.64,4.64,0,0,1,1.36.36A.39.39,0,0,1,247,133.91Z" fill="#348fc0"/><path d="M244.91,128.9a1.82,1.82,0,0,1,.69-3.57,2,2,0,0,1,.8.37,1.83,1.83,0,0,1,.29,2.51,1.78,1.78,0,0,1-1.21.7A2.72,2.72,0,0,1,244.91,128.9Z" fill="#348fc0"/><path d="M244.91,128.9a2.7,2.7,0,0,0,.57,0v4.5a2.81,2.81,0,0,1-.58,0Z" fill="#060707"/><path d="M249.06,136.68a6.1,6.1,0,0,0-.44.65,16.34,16.34,0,0,0-1.56-3.4,2.84,2.84,0,0,1,1.16.93,3.75,3.75,0,0,1,.81,1.72A.38.38,0,0,0,249.06,136.68Z" fill="#348fc0"/><path d="M240,135.74a2.13,2.13,0,0,1-.22-.82,4.83,4.83,0,0,1,0-1.61.12.12,0,0,1,0-.08C239.87,134.06,239.93,134.91,240,135.74Z" fill="#4b3938"/><path d="M241.13,134.12l0,0,0,0v0Z" fill="#060707"/><path d="M247.34,143.66h0Z" fill="#4b3938"/><path d="M252.75,169a5.66,5.66,0,0,1-1.74-.23,3.34,3.34,0,0,1-2.23-2.08,5.48,5.48,0,0,1-.28-3.27,3.93,3.93,0,0,1,2.65-2.82,4,4,0,0,1,2.22-.19.86.86,0,0,1,.51,1.45c-.13.16-.29.29-.42.45a1.21,1.21,0,0,0-.05,1.56,1.34,1.34,0,0,0,1.55.61,3.48,3.48,0,0,0,.48-.21,3.29,3.29,0,0,1,.42-.21.81.81,0,0,1,1.18.72,3.06,3.06,0,0,1-.33,1.55,4.06,4.06,0,0,1-2.9,2.58A3.77,3.77,0,0,1,252.75,169Z" fill="#060707"/><path d="M233,164.82a4.32,4.32,0,0,1,3.62-4.37,4.87,4.87,0,0,1,1.32,0,1,1,0,0,1,.77.46.76.76,0,0,1-.08,1l-.21.22a1.3,1.3,0,0,0,.09,2.19,1.19,1.19,0,0,0,1.39.13,2.65,2.65,0,0,0,.4-.24c.69-.54,1.25-.07,1.31.6a3.77,3.77,0,0,1-1.86,3.67,3.6,3.6,0,0,1-2.36.58,6.74,6.74,0,0,1-1.41-.14,4,4,0,0,1-2.85-3.08,3.4,3.4,0,0,1-.09-.46C233,165.16,233,165,233,164.82Z" fill="#060707"/></svg>