<?xml version="1.0" encoding="utf-8"?>
<!-- Generator: Adobe Illustrator 22.0.0, SVG Export Plug-In . SVG Version: 6.00 Build 0)  -->
<svg version="1.1" id="Layer_1" xmlns="http://www.w3.org/2000/svg" xmlns:xlink="http://www.w3.org/1999/xlink" x="0px" y="0px"
	 viewBox="0 0 727.2 513" style="enable-background:new 0 0 727.2 513;" xml:space="preserve">
<style type="text/css">
	.st0{opacity:0.26;}
	.st1{fill:#BFD7D8;}
	.st2{fill:#FCFDFF;}
	.st3{opacity:0.23;fill:#BFD7D8;}
	.st4{opacity:0.21;fill:#FCFDFF;}
	.st5{opacity:0.25;fill:#FCFDFF;}
	.st6{fill:#F1A74F;}
	.st7{opacity:0.24;}
	.st8{clip-path:url(#SVGID_2_);fill:#454745;}
	.st9{clip-path:url(#SVGID_2_);fill:#EFEEEE;stroke:#454745;stroke-width:3;stroke-miterlimit:10;}
	.st10{opacity:0.3;}
	.st11{opacity:0.24;clip-path:url(#SVGID_4_);}
	.st12{fill:#CBCBCA;}
	.st13{fill:#454745;}
	.st14{opacity:0.35;}
	.st15{fill:#F2A74E;}
	.st16{fill:#EFEEEE;stroke:#454745;stroke-width:3;stroke-miterlimit:10;}
	.st17{fill:#CDCCCC;}
	.st18{fill:#CACAC9;}
	.st19{clip-path:url(#SVGID_6_);fill:#EFEEEE;stroke:#454745;stroke-width:3;stroke-miterlimit:10;}
	.st20{fill:#FFFFFF;}
	.st21{fill:#F1A750;}
	.st22{fill:#454745;stroke:#454745;stroke-miterlimit:10;}
	.st23{fill:url(#SVGID_7_);stroke:#454745;stroke-width:7;stroke-miterlimit:10;}
	.st24{fill:url(#SVGID_8_);stroke:#454745;stroke-width:10;stroke-miterlimit:10;}
	.st25{clip-path:url(#SVGID_10_);fill:#EFEEEE;stroke:#454745;stroke-width:3;stroke-miterlimit:10;}
	.st26{clip-path:url(#SVGID_12_);fill:#F2A74E;stroke:#454745;stroke-width:6;stroke-miterlimit:10;}
	.st27{fill:none;}
	.st28{opacity:0.24;clip-path:url(#SVGID_14_);}
	.st29{fill:#8A8D8A;}
	.st30{fill:#FCFCFD;}
	.st31{opacity:0.24;clip-path:url(#SVGID_16_);}
	.st32{opacity:0.24;clip-path:url(#SVGID_18_);}
</style>
<g class="st0">
	<path class="st1" d="M43,377.8c-0.3,0-0.6,0-0.9,0c-0.5-0.8-1.3-0.6-2-0.7c-6.5-1.6-11.3-5.3-14.8-10.9c-1.5-2.5-1.9-5.3-3.1-7.9
		c0-2.7,0-5.4,0-8.2c0.5-0.1,0.4-0.6,0.5-0.9c2.8-11.9,13.6-18.9,24.3-18.1c1.5,0.1,1.7-0.7,1.9-1.8c2.1-9.7,7.7-16.9,16.3-21.7
		c3.3-1.9,7-2.4,10.5-3.7c3.2,0,6.4,0,9.5,0c0.5,0.8,1.5,0.6,2.2,0.8c2.6,0.7,5.1,1.4,7.4,2.6c8.2,4.3,13.8,10.9,16.4,19.9
		c0.3,1.2,0.4,2.2,2.3,1.5c15.2-5.4,30.7,3.5,33.7,19.4c0.3,1.5,0.8,1.9,2.3,1.9c5.8,0.3,10.4,4,12.3,9.5c0.1,0.4,0,0.9,0.5,1.1
		c0,2.1,0,4.2,0,6.4c-0.7,0.6-0.7,1.6-1.1,2.4c-2.1,4.3-5.3,7.2-10.1,8.1c-0.4,0-0.8-0.1-1.1-0.1c-35,0-69.9,0-104.9,0
		C44.5,377.4,43.7,377.2,43,377.8z"/>
	<path class="st2" d="M161.5,377.8c-10.7,0-21.3,0-32,0c-6.1,0-10.8-2.9-12.9-7.9c-2.5-6-1.2-13.7,2.9-17.6c2.3-2.2,5.2-3.5,8.4-3.5
		c1.9-0.1,2.1-0.8,2.2-2.4c0.2-5.3,1.7-10.1,5.3-14.1c2.8-3.1,6.4-4.8,10.4-5.5c5.7-0.9,11.3-0.5,16.3,2.9c1.6,1.1,3.1,2.5,3.8,4.4
		c0.6,1.7,1.2,1.6,2.4,0.3c5.6-5.9,13.6-6.4,19.8-1.4c4,3.3,4.6,7.6,3.7,12.3c-0.5,2.8-0.6,2.8,2.3,2.9c6.8,0.4,12.1,4.7,13.7,11.2
		c1.7,7.3-0.8,13.1-6.9,16.6c-2.2,1.3-4.7,1.6-7.2,1.6C182.8,377.8,172.2,377.8,161.5,377.8z"/>
</g>
<path class="st3" d="M359.5,23.6c4.2-0.4,8.1-1.4,11.7-0.8c8.3,1.2,13.6,8.6,12.8,16.9c-0.2,2,0.4,2.7,2.1,3.5
	c7.3,3.3,11.2,10.6,9.6,17.7c-1.7,7.8-7.9,12.8-16.1,12.8c-26,0-51.9,0.1-77.9,0c-8.9,0-15.8-6.5-16.2-14.9
	c-0.4-8.8,5.6-15.8,14.6-16.6c2.1-0.2,4.3,0.3,6.3,0.7c1.6,0.3,2.4,0.1,2.6-1.7c0.8-5.7,4-9.4,9.7-10.5c2.1-0.4,2.2-1.8,2.5-3.4
	c1.7-10.1,10-17.1,20-16.7c7.6,0.3,13.2,4,17,10.6C358.8,22,359.3,23.1,359.5,23.6z"/>
<path class="st4" d="M682.2,336.9c4.8-0.4,9.1-1.5,13.1-0.9c9.3,1.4,15.3,9.6,14.4,19c-0.2,2.2,0.4,3,2.3,3.9
	c8.2,3.7,12.6,11.9,10.8,19.9c-1.9,8.8-8.8,14.4-18.1,14.4c-29.1,0.1-58.3,0.1-87.4,0c-10,0-17.8-7.3-18.2-16.8
	c-0.4-9.9,6.3-17.7,16.4-18.7c2.3-0.2,4.8,0.4,7.1,0.8c1.8,0.3,2.7,0.1,3-1.9c0.9-6.4,4.5-10.5,10.8-11.8c2.4-0.5,2.5-2,2.8-3.8
	c1.9-11.3,11.2-19.2,22.4-18.7c8.5,0.3,14.9,4.5,19.1,11.9C681.4,335.2,681.9,336.3,682.2,336.9z"/>
<path class="st5" d="M592.4,146.6c-0.3,0-0.6,0-1,0c-0.5-0.8-1.4-0.6-2.1-0.8c-6.8-1.7-12-5.6-15.6-11.5c-1.6-2.6-2-5.6-3.3-8.3
	c0-2.9,0-5.7,0-8.6c0.5-0.1,0.5-0.6,0.6-1c2.9-12.5,14.4-19.9,25.6-19.1c1.6,0.1,1.7-0.7,2-1.9c2.3-10.2,8.1-17.8,17.2-22.9
	c3.5-2,7.4-2.6,11.1-3.9c3.3,0,6.7,0,10,0c0.6,0.9,1.6,0.6,2.4,0.8c2.7,0.7,5.4,1.5,7.8,2.8c8.7,4.6,14.5,11.5,17.3,20.9
	c0.4,1.2,0.4,2.3,2.4,1.6c16-5.7,32.3,3.7,35.5,20.4c0.3,1.6,0.9,2,2.4,2c6.1,0.3,10.9,4.2,12.9,10c0.1,0.4,0,1,0.6,1.2
	c0,2.2,0,4.5,0,6.7c-0.8,0.7-0.8,1.7-1.2,2.5c-2.2,4.6-5.6,7.6-10.6,8.6c-0.4,0-0.8-0.1-1.2-0.1c-36.8,0-73.6,0-110.5,0
	C593.9,146.2,593,146,592.4,146.6z"/>
<path class="st5" d="M174.2,96.6c-0.3,0-0.6,0-0.9,0c-0.5-0.7-1.3-0.5-1.9-0.7c-6.2-1.5-10.8-5-14.1-10.4c-1.4-2.3-1.8-5-3-7.5
	c0-2.6,0-5.2,0-7.8c0.4-0.1,0.4-0.5,0.5-0.9c2.6-11.3,13-18,23.2-17.3c1.5,0.1,1.6-0.7,1.8-1.7c2-9.2,7.3-16,15.5-20.7
	c3.1-1.8,6.7-2.3,10-3.6c3,0,6,0,9.1,0c0.5,0.8,1.4,0.5,2.1,0.7c2.4,0.6,4.8,1.3,7.1,2.5c7.8,4.1,13.1,10.4,15.6,18.9
	c0.3,1.1,0.4,2.1,2.2,1.4c14.5-5.1,29.2,3.4,32.1,18.5c0.3,1.4,0.8,1.8,2.2,1.8c5.5,0.3,9.9,3.8,11.7,9.1c0.1,0.4,0,0.9,0.5,1.1
	c0,2,0,4,0,6c-0.7,0.6-0.7,1.5-1.1,2.3c-2,4.1-5,6.9-9.6,7.7c-0.4,0-0.7-0.1-1.1-0.1c-33.3,0-66.6,0-99.8,0
	C175.5,96.2,174.7,96,174.2,96.6z"/>
<path class="st3" d="M391.9,503.3c-0.4,0-0.7,0-1.1,0c-0.6-0.9-1.6-0.7-2.3-0.8c-7.5-1.8-13.1-6.1-17.2-12.6
	c-1.8-2.8-2.2-6.1-3.6-9.1c0-3.2,0-6.3,0-9.5c0.5-0.2,0.5-0.6,0.6-1c3.2-13.7,15.8-21.9,28.2-21c1.8,0.1,1.9-0.8,2.2-2.1
	c2.5-11.2,8.9-19.5,18.9-25.1c3.8-2.2,8.1-2.8,12.1-4.3c3.7,0,7.4,0,11,0c0.6,0.9,1.7,0.7,2.6,0.9c3,0.8,5.9,1.6,8.6,3.1
	c9.5,5,15.9,12.6,19,23c0.4,1.3,0.4,2.5,2.7,1.7c17.6-6.2,35.5,4.1,39,22.4c0.3,1.8,0.9,2.2,2.6,2.2c6.7,0.4,12,4.6,14.2,11
	c0.2,0.5,0,1.1,0.6,1.3c0,2.5,0,4.9,0,7.4c-0.8,0.7-0.9,1.8-1.3,2.8c-2.4,5-6.1,8.4-11.7,9.4c-0.4,0-0.9-0.1-1.3-0.1
	c-40.4,0-80.9,0-121.3,0C393.5,502.7,392.6,502.6,391.9,503.3z"/>
<path class="st3" d="M368.3,318.4c-0.3,0-0.6,0-1,0c-0.5-0.8-1.4-0.6-2.1-0.8c-6.8-1.7-12-5.6-15.6-11.5c-1.6-2.6-2-5.6-3.3-8.3
	c0-2.9,0-5.7,0-8.6c0.5-0.1,0.5-0.6,0.6-1c2.9-12.5,14.4-19.9,25.6-19.1c1.6,0.1,1.7-0.7,2-1.9c2.3-10.2,8.1-17.8,17.2-22.9
	c3.5-2,7.4-2.6,11.1-3.9c3.3,0,6.7,0,10,0c0.6,0.9,1.6,0.6,2.4,0.8c2.7,0.7,5.4,1.5,7.8,2.8c8.7,4.6,14.5,11.5,17.3,20.9
	c0.4,1.2,0.4,2.3,2.4,1.6c16-5.7,32.3,3.7,35.5,20.4c0.3,1.6,0.9,2,2.4,2c6.1,0.3,10.9,4.2,12.9,10c0.1,0.4,0,1,0.6,1.2
	c0,2.2,0,4.5,0,6.7c-0.8,0.7-0.8,1.7-1.2,2.5c-2.2,4.6-5.6,7.6-10.6,8.6c-0.4,0-0.8-0.1-1.2-0.1c-36.8,0-73.6,0-110.5,0
	C369.8,318,369,317.8,368.3,318.4z"/>
<g>
	<path class="st6" d="M634.1,183.2c-7.3,6.9-19.7,6.5-26.7-1c-7.4-7.9-7.3-20.1,0.6-27.4c8-7.4,19.8-7.2,27.3,0.8
		C642.6,163.4,642.7,175.1,634.1,183.2z"/>
	<path class="st7" d="M616.5,150l2.6,0.1c0,0,17,26.1,13.9,33.8c-3.1,7.7,0,0,0,0l-4.7,3.2L616.5,150"/>
	<g>
		<defs>
			<path id="SVGID_1_" d="M239.7,313.3l1.1,2.7c4.7,11.2,9.8,19.3,17.9,28.3l1.9,2.2l81.9-55.1l-19.4-30.7L239.7,313.3z"/>
		</defs>
		<clipPath id="SVGID_2_">
			<use xlink:href="#SVGID_1_"  style="overflow:visible;"/>
		</clipPath>
		<path class="st8" d="M239.7,313.3l1.1,2.7c4.7,11.2,9.8,19.3,17.9,28.3l1.9,2.2l81.9-55.1l-19.4-30.7L239.7,313.3z"/>
		<line class="st9" x1="257.6" y1="302.7" x2="279.6" y2="334.6"/>
		<line class="st9" x1="271.5" y1="293.1" x2="293.5" y2="325.1"/>
		<line class="st9" x1="285.3" y1="283.6" x2="307.3" y2="315.5"/>
		<line class="st9" x1="299.2" y1="274" x2="321.2" y2="306"/>
		<line class="st9" x1="315" y1="266.7" x2="336.2" y2="297.5"/>
	</g>
	<polygon class="st10" points="239.3,313 249.4,307.5 266.6,332.4 321.5,285.5 328.4,301 271.3,339.3 271.2,339.2 261.8,345.6 	"/>
	<g>
		<defs>
			<path id="SVGID_3_" d="M275.8,290.6c0.5-0.3,32.5-20.9,32.5-20.9l16.6,10.9L305,298.2l-28.6-2.9L275.8,290.6z"/>
		</defs>
		<clipPath id="SVGID_4_">
			<use xlink:href="#SVGID_3_"  style="overflow:visible;"/>
		</clipPath>
		<path class="st11" d="M286.3,279.2c0.2,0.1,0.4,0.1,0.6,0.2l21.2-11.1l11.5,16.5l-0.3,2.4l-3.2,1.6c-0.8-0.4-14.8,5.8-14.8,5.8
			l-6-4.9c-1.3,3.8-6.9,5.7-12.8,4.1c-6-1.6-10.1-6.1-9-10.1C274.5,279.6,280.3,277.6,286.3,279.2z"/>
	</g>
	<path class="st12" d="M159.4,355.9l1.9,3.5c7.8,14.8,15.3,25.7,26.3,38.3l2.6,3l78.9-54.3L240.6,305L159.4,355.9z"/>
	<path class="st13" d="M217.7,382.2c-13.3-13.3,1.7-22.8,1.7-22.8l-11.1-35.3L167,350.7l23.1,49.9L217.7,382.2z"/>
	<path class="st14" d="M184.7,341.9c3.5,8.2,14.8,38.6-1.7,52l-19.5-41.3l18.4-11.6C182.9,340.4,184.3,340.8,184.7,341.9z"/>
	<path class="st15" d="M161.2,418.3l-12-67.2c-0.6-3.1,1.5-6.1,4.6-6.6l21.6-3.9c3.1-0.6,6.1,1.5,6.6,4.6l9.6,53.7
		c1.9,10.6-5.2,20.7-15.7,22.6l-8.1,1.5C164.8,423.5,161.8,421.4,161.2,418.3z"/>
	<path class="st14" d="M269,346.5l-6.5-10.1l-63,45.2c0,0,1.5,5.5-3,13.4l3.3-0.6L269,346.5z"/>
	<path class="st14" d="M182,420.2l-2.6-43.7c0,0-0.3-8.4,6.1-11l1.9,6.4l7.9,38.8C195.3,410.7,191.1,418.7,182,420.2"/>
	<g>
		<path class="st13" d="M292.4,356.8l-13.6,22c8,8.5,10.8,8.4,20.9,13.4l4.5,3.9l51.7-86.5l-27.4-20.3L292.4,356.8z"/>
	</g>
	<path class="st12" d="M199.7,370.7l0.4,4c1.7,16.6,4.6,29.4,10.1,45l1.3,3.7l93.2-24.5l-11-48.8L199.7,370.7z"/>
	<path class="st13" d="M241.1,416c-7.1-17.2,8.8-20.6,8.8-20.6l-2.1-35.4l-39.8,8.6l3.6,54.7L241.1,416z"/>
	<path class="st14" d="M221.3,370.2c1.5,13.2,4.5,57.1-5.3,51.4l-10.9-52.7l9.7-2C217.4,366.4,221,367.6,221.3,370.2z"/>
	<path class="st15" d="M188.1,435.2l-2.2-59.9c-0.2-4.2,3.1-7.9,7.4-8.2l17.2-1.3c4.2-0.3,7.8,2.9,7.9,7.1l1.6,42.7
		c0.5,13.7-10.2,25.7-23.9,26.7h0C191.8,442.6,188.2,439.4,188.1,435.2z"/>
	<path class="st7" d="M348.8,317l-1.9,3.7c0,0-17-5.8-27.6-13.7l6.3-12.4C325.6,294.6,349.5,316.1,348.8,317"/>
	<path class="st13" d="M471.3,214.1c11.5-13.1,44.5-37,139.1-68.6c0,0,22.1,22.1,16.6,49.8l-116.1,31.9c-11.5,3.1-23.3,5.5-34.6,3
		l-3.7-1.3C465.8,227.2,466.8,219.2,471.3,214.1z"/>
	<path class="st17" d="M598.8,201.9c-0.5-4-0.4-8-0.2-12c0.1-2.2,0.3-4.3,0.4-6.5c0-0.6,0-1.1-0.5-1.6c-5.3-5.2-10.1-10.7-14.7-16.3
		c-1.8-2.2-3.3-4.5-4.9-6.8c-0.2-0.3-0.8-0.7-0.2-1c0.5-0.3,0.8,0.2,1.1,0.4c3.7,3,7.2,6.1,10.7,9.3c4.3,4,8.1,8.3,12.1,12.6
		c0.6,0.6,1,1.3,0.8,2.2c-1.3,6.2-2.1,12.5-4.1,18.6C599,201.2,598.9,201.5,598.8,201.9z"/>
	<path class="st18" d="M598.3,202.5c0.6-3.6,0.6-7.2,0.9-10.8c0.2-2.8,0.3-5.6,1.3-8.4c0.6-1.6-0.3-3-1.4-4.2c-0.4-0.4-1-0.7-1.6-1
		c-4.6-2.2-7-6.3-10.1-9.7c-3.3-3.5-6.3-7.2-9.6-10.8c-0.8-0.9-0.8-1.4,0.6-1.8c10.6-3.4,21.1-6.9,31.7-10.4c1-0.3,1.6-0.2,2.3,0.6
		c1.5,1.9,3.2,3.6,4.7,5.5c1.5,1.9,2.3,4.1,3.4,6.2c1.8,3.5,3.9,6.9,5.2,10.7c1.2,3.7,2.4,7.3,3.1,11.1c0.7,3.7,0.2,7.6,0.3,11.4
		c0,1.4-0.1,2.7,0,4.1c0.1,0.8-0.3,1.2-1.2,1.4c-7.9,1.7-16.2,3.9-24.1,5.6c-1.7,0.4-3.4,0.6-5,1.2
		C598.5,203.1,598.5,202.5,598.3,202.5z"/>
	<g>
		<defs>
			<path id="SVGID_5_" d="M465.2,225.6c0,0-3.2-30.5,145.2-80.1c0,0,22.1,22.1,16.6,49.8L527.6,219L465.2,225.6z"/>
		</defs>
		<clipPath id="SVGID_6_">
			<use xlink:href="#SVGID_5_"  style="overflow:visible;"/>
		</clipPath>
	</g>
	<path class="st18" d="M324.3,291.6L324.3,291.6c10.9,19.1,33.6,27,51.6,18l106.2-53.1c10.9-5.5,14.6-19.8,8-31.4l-24.1-42.3
		c-10.9-10.5-25.7-11.9-35.9-5.3L335,238C318.1,248.9,313.4,272.5,324.3,291.6z"/>
	<path class="st7" d="M492.6,231.8l8.2-2.3l-4.1-20.1l-37.8-13.9c0.6,12.5,20.1,24.8,29.3,33.2L492.6,231.8z"/>
	<path class="st13" d="M460.3,199.8l6.2,8.6c5.2,7.2,15.3,8.8,22.5,3.6l15.4-11.1l-25-34.7L464,177.3
		C456.8,182.5,455.1,192.6,460.3,199.8z"/>
	<path class="st12" d="M519.5,197.2c3.3-4.2,7.1-8.7,9.3-13.4c4.2-8.9,8.5-17.8,12.6-26.7c1.8-3.9,3.6-7.8,5.1-11.9
		c2.7-7.5,2.9-14.8-1.6-21.6c-0.8-1.2-0.2-1.8,0.6-2.6c8.2-8,15.5-16.6,21.8-26.2c3.7-5.6,6.2-11.8,7.9-18.3
		C577.6,66.9,572,57,563,55c-3.2-0.7-6.1,0.3-8.7,2.1c-3.6,2.4-6.3,5.8-8.7,9.4c-8.7,13.5-15.2,27.9-18.7,43.7
		c-0.1,0.4-0.2,0.7-0.3,1c-3.2-1.2-6.2-2.6-9.4-3.5c-3.1-0.9-6.4-1.5-9.5-2.2c0.6-1.9,1.1-3.9,1.8-6c3.1-9.3,5.1-18.7,6-28.4
		c0.6-6.5,1.2-13.1,0.3-19.6c-0.3-2.1-0.8-4.1-1.5-6.1c-1.9-5.3-5.7-7.8-11.2-8c-7.5-0.3-14.7,5.2-17.3,12.7
		C481.9,61,481.9,72,483.1,83c0.7,6.8,2.1,13.6,3.2,20.4c0.2,1.2,0,1.8-1.1,2.3c-7.6,3.3-11.7,9.5-13.1,17.4
		c-2.1,11.6-3.7,23.3-5.5,35c-1.1,6.7-1.9,13.5-1.1,20.3c0.1,0.6,0.1,1.1,0.2,1.5c2.6-2.3,5.1-4.9,7.9-7c4.8-3.8,10.3-6.2,16.2-7.5
		c7.1-1.5,13.3,0.2,18.4,5.4c6.8,6.8,9.7,14.2,11,23.8C519.1,194.9,519.4,196.6,519.5,197.2z"/>
	<path class="st20" d="M516.6,157.2c0,4.5,1.2,8.2,4,11.3c2.8,3.1,6.4,4.6,10.6,4.5c0.9,0,1.7-0.2,2.6-0.3c0.2,0,0.4-0.2,0.5-0.4
		c3.8-8.1,7.8-16.1,11.3-24.3c0.5-1.3,0.5-1.3-0.2-2.4c-2.4-3.8-5.8-6.1-10.3-6.5c-4-0.4-7.5,0.8-10.7,3.2
		c-4.2,3.2-6.6,7.5-7.4,12.7C516.6,155.8,516.6,156.7,516.6,157.2z"/>
	<path class="st20" d="M492.5,140c-0.1-5-1.4-9.3-4.5-12.8c-2.5-2.9-5.6-4.6-9.5-5c-2.2-0.2-4.3,0.1-6.3,1c-0.2,0.1-0.3,0.3-0.4,0.4
		c-0.5,2.9-1,5.8-1.5,8.7c-0.6,3.4-1.1,6.9-1.6,10.3c-0.5,3.1-0.9,6.2-1.4,9.3c-0.1,0.3,0,0.6,0.3,0.8c2.9,2.8,6.4,4.3,10.4,4.2
		c3.5-0.1,6.6-1.6,9.1-4c3-2.9,4.6-6.5,5.2-10.6C492.4,141.4,492.5,140.5,492.5,140z"/>
	<path class="st13" d="M520.6,90.4c-2.2,7.4-4.5,14.9-6.7,22.3c-1.2,3.9-2.3,7.8-3.5,11.6c-0.1,0.5-0.4,0.8,0.5,1
		c2.8,0.7,2.7,0.8,3.5-2c1.3-4.5,2.7-8.9,4.1-13.4c1.8-6,3.7-12,5.5-18c0-0.1,0-0.3,0-0.4C522.8,91.3,521.5,91.3,520.6,90.4z"/>
	<path class="st21" d="M520.6,90.4c0.9,0.9,2.2,0.9,3.4,1.2c3.1-0.3,5.4-3.2,4.2-6.8c-0.7-2-3.5-3.3-5.9-2.7
		c-2.3,0.6-3.9,3.1-3.4,5.4C519.1,88.6,519.5,89.7,520.6,90.4z"/>
	<circle class="st15" cx="517.2" cy="108.7" r="9.6"/>
	<path class="st15" d="M488.2,206.8c3,0.6,7,1.6,11,2c5.6,0.5,10.8-1.3,15.3-4.5c4.4-3.2,6-7.5,5.4-12.8c-0.7-7.3-3.6-13.7-8.3-19.3
		c-2.1-2.5-4.6-4.8-7.1-7c-2.8-2.4-6.3-3.2-10-2.8c-10.3,1.2-19.2,4.8-25.9,12.7c-1.3,1.5-2.5,3.1-3.3,4.9c-1.2,2.7-1.2,5.6-0.3,8.3
		c2.2,6.6,6.4,11.6,12.9,14.6C481,204.3,484.1,205.3,488.2,206.8z"/>
	<path class="st13" d="M490.3,69.1c0.1,8.3,1.5,16.4,4.1,24.2c0.4,1.3,1.1,2.6,1.9,3.8c0.8,1.4,2.4,1.4,3.2,0
		c1.4-2.3,2.7-4.6,3.7-7.1c2.9-7.8,4.1-16.1,4.6-24.3c0.3-4.2-0.1-8.4-1.5-12.4c-0.7-2-2.1-3.9-4.6-4.3c-2.7-0.4-5,0.2-6.9,2.4
		c-2.8,3.2-3.5,7.1-4,11.1C490.4,64.7,490.5,66.9,490.3,69.1z"/>
	<path class="st13" d="M566.7,75.6c-0.3-3.3-0.7-5.4-2.7-7.2c-3.2-2.7-6.1-1.8-8.8,0.3c-5,4-8,9.5-10.8,15.1
		c-2.9,5.9-5.4,12-6.7,18.5c-0.4,1.9-0.3,4-0.5,6c-0.1,1.7,1.4,2.9,3.1,1.6c2.9-2,5.8-4,8.4-6.4c7-6.4,12.8-13.8,16.5-22.7
		C566.1,79,566.4,76.8,566.7,75.6z"/>
	<g>
		<path class="st13" d="M507.2,181.5c0.5-1.6-0.4-3.5-1.9-4.2c-1.4-0.7-2.9-0.4-3.8,0.8c-0.4,0.5-0.5,1.1-0.8,1.6
			c-0.7,1.7-1.8,3.1-3.4,4.1c-0.1,0.1-0.2,0.1-0.2,0.3c0,0.2-0.2,0.2-0.3,0.3c-0.2,0.1-0.5,0.3-0.6,0.5c-0.2,0.2-0.2,0.4,0,0.6
			c0.2,0.3,0.5,0.5,0.9,0.5c1.5,0,2.9-0.4,4.3-0.7c1.2-0.2,2.3-0.6,3.3-1.1c0.9-0.5,1.7-1,2.3-1.9C507,182,507.1,181.7,507.2,181.5z
			"/>
		<path class="st13" d="M488,172c-0.6-0.2-1.1-0.2-1.7,0c-0.7,0.2-1.3,0.5-1.8,0.8c-0.7,0.4-0.8,1-0.9,1.7c-0.2,1.4,0.2,2.6,1,3.8
			c1.2,1.8,2.7,3.3,4.3,4.7c0.2,0.2,0.5,0.4,0.7,0.6c0.1,0.1,0.3,0.2,0.5,0.2c0.3,0.1,0.6,0,0.8-0.2c0.2-0.2,0.2-0.5,0.1-0.7
			c-0.3-0.9-0.6-1.8-0.8-2.7c-0.4-1.4-0.3-2.9,0-4.3c0.2-0.7,0.2-1.5-0.1-2.2C489.6,172.8,488.9,172.3,488,172z"/>
	</g>
	<path class="st13" d="M500.5,113.4c0.3-1.3,1-2.3,1.7-3.4l0,0c1.8-2.8,5-4.5,8.6-4.6c6.9-0.2,13,2,18.4,7.1
		c0.2,0.2,0.4,0.4,0.6,0.7c1.4,2.1,1.2,4.8-0.4,6.7c-1,1.1-2.2,2.1-3.9,2.7c-1.4,0.5-2,2.9-2.8,4.4c-0.2,0.4-0.2,0.9-0.3,1.5
		c-2.4-1.3-3.3-3.1-3.1-5.4c-3.7,0.8-6.2,4-6.7,8.6c-0.2,0-0.4,0-0.5,0c-0.1,0-0.1,0-0.2,0c-1.1-1.3-1.8-3.3-2.2-6.2l-0.9,3.1
		c-0.2,0-0.4,0-0.6,0.1c-0.6-2.6-1.2-5.2-1.8-7.9c-0.3,0.6-0.6,1.3-1.1,2.2c-1.9-2.6-2.9-5.2-2.9-8.3c-0.6,0.9-1.3,1.8-1.9,2.7
		C500.3,116,500.2,114.7,500.5,113.4z"/>
	<path class="st13" d="M475.9,150.8c1.1,0.3,2.2,0.6,3.3,0.5c2.1,0,3.9-0.9,5.2-2.5c1.3-1.7,2.1-3.6,2.3-5.8
		c0.2-2.8-1.1-4.9-3.3-6.6c-1.1-0.9-2.5-1.4-3.9-1.6c-1.4-0.1-2.3,1.1-1.7,2.4c0.2,0.3,0.4,0.7,0.5,1c0.5,1.1,0.2,2.1-0.8,2.8
		c-1,0.8-2.1,0.9-3.1,0.3c-0.3-0.2-0.5-0.4-0.8-0.6c-0.2-0.2-0.4-0.4-0.6-0.6c-1-0.8-2.1-0.5-2.5,0.7c-0.4,1-0.3,2-0.2,3
		c0.3,2.7,1.4,4.9,3.9,6.3C474.6,150.5,475.2,150.7,475.9,150.8z"/>
	<path class="st13" d="M527.2,166.3c-1.1-0.3-2.1-0.7-3-1.4c-1.8-1.2-2.7-2.9-2.9-5c-0.2-2.1,0.2-4.2,1.3-6.1
		c1.4-2.4,3.7-3.5,6.4-3.7c1.4-0.1,2.8,0.2,4.1,0.9c1.2,0.6,1.3,2.2,0.1,2.9c-0.3,0.2-0.7,0.4-1,0.6c-1,0.7-1.3,1.6-0.9,2.8
		c0.4,1.3,1.3,1.9,2.5,2c0.3,0,0.7-0.1,1-0.1c0.3-0.1,0.6-0.1,0.9-0.2c1.2-0.1,2,0.8,1.8,2c-0.2,1-0.8,1.8-1.4,2.6
		c-1.7,2.1-3.9,3.3-6.7,3.1C528.5,166.7,527.8,166.5,527.2,166.3z"/>
	<path class="st22" d="M490.7,194.3c6.3,1.9,12.4,1.4,16.4-0.9c-2.4,5.8-10.2,8.5-18,6.2c-7.8-2.3-12.7-8.9-11.6-15.1
		C479.6,188.6,484.4,192.4,490.7,194.3z"/>
	<path class="st7" d="M461,216.5c0,0,6.1,13.5-29.1,29.1S321,292.7,321,292.7l-3.7-12L461,216.5z"/>
	
		<radialGradient id="SVGID_7_" cx="1581.3958" cy="250.222" r="15.605" gradientTransform="matrix(-1 0 0 1 2004.575 0)" gradientUnits="userSpaceOnUse">
		<stop  offset="1.897699e-02" style="stop-color:#FACD2A"/>
		<stop  offset="0.3314" style="stop-color:#F4B144"/>
		<stop  offset="0.514" style="stop-color:#F2A74E"/>
		<stop  offset="0.6169" style="stop-color:#F2984C"/>
		<stop  offset="0.849" style="stop-color:#F27C48"/>
		<stop  offset="0.9827" style="stop-color:#F27146"/>
	</radialGradient>
	<line class="st23" x1="434.6" y1="269.1" x2="411.7" y2="231.4"/>
	
		<radialGradient id="SVGID_8_" cx="1939.3104" cy="-650.7371" r="25.6753" gradientTransform="matrix(-0.979 -0.204 -0.204 0.979 2132.6882 1308.4697)" gradientUnits="userSpaceOnUse">
		<stop  offset="1.897699e-02" style="stop-color:#FACD2A"/>
		<stop  offset="0.3314" style="stop-color:#F4B144"/>
		<stop  offset="0.514" style="stop-color:#F2A74E"/>
		<stop  offset="0.6169" style="stop-color:#F2984C"/>
		<stop  offset="0.849" style="stop-color:#F27C48"/>
		<stop  offset="0.9827" style="stop-color:#F27146"/>
	</radialGradient>
	<line class="st24" x1="384.5" y1="307.6" x2="349.3" y2="244.1"/>
	<path class="st17" d="M340.3,275.1c-2.1-4.2-4.9-7.9-7.6-11.7c-1.5-2-3.1-4-4.6-6c-0.4-0.5-0.7-1.1-0.6-1.9c1-8.3,1.4-16.7,1.4-25
		c0-3.2-0.2-6.4-0.4-9.7c0-0.4,0.2-1.1-0.5-1.1c-0.6,0-0.5,0.7-0.6,1.1c-1.1,5.2-2,10.5-2.7,15.7c-0.9,6.6-1.3,13.2-1.7,19.7
		c-0.1,1,0.1,1.9,0.8,2.6c5.1,5.2,10,10.7,15.6,15.4C339.7,274.6,340,274.9,340.3,275.1z"/>
	<g>
		<defs>
			<path id="SVGID_9_" d="M466,213.5c0,0-17.3-31.4-172.3,14.7c0,0-3.7,35.3,19,58.4l97.5-39.9L466,213.5z"/>
		</defs>
		<clipPath id="SVGID_10_">
			<use xlink:href="#SVGID_9_"  style="overflow:visible;"/>
		</clipPath>
	</g>
	<g>
		<defs>
			<path id="SVGID_11_" d="M324.3,292L324.3,292c10.9,19.1,33.6,27,51.6,18l106.2-53.1c10.9-5.5,14.6-19.8,8-31.4l-24.1-42.3
				c-6.6-11.6-20.8-15.8-31.1-9.1L335,238.4C318.1,249.3,313.4,272.9,324.3,292z"/>
		</defs>
		<clipPath id="SVGID_12_">
			<use xlink:href="#SVGID_11_"  style="overflow:visible;"/>
		</clipPath>
		
			<ellipse transform="matrix(0.9498 -0.3128 0.3128 0.9498 -65.3914 152.067)" class="st26" cx="441.2" cy="279.8" rx="18.2" ry="17.8"/>
	</g>
	<path class="st15" d="M458.4,177.1c0,0-44.7-19.6-118.3,6.4c-72,25.4-85.3,17.9-109.3,19.9c-27,2.3-97,22.1-97,22.1
		s25.8,13.5,32.7,27.7c6.9,14.2,6.2,17.1,15.8,13.5c47.9-17.9,144-54.5,185.2-58.3S410,188.5,458.4,177.1z"/>
	<path class="st6" d="M296.7,275.6c10,1.5,19.8-6,21.3-16.2c1.5-10.7-5.6-20.6-16.3-22c-10.8-1.4-20.3,5.4-21.9,16.4
		C278.4,264.3,285,274,296.7,275.6z"/>
	<polyline class="st7" points="304.3,395.8 306.9,391.9 300.3,341.9 294.5,353.1 304.3,395.8 	"/>
	<path class="st7" d="M292,238.3l-2,1.6c0,0,1.1,31.1,8,35.7c6.9,4.5,0,0,0,0l5.6-0.1L292,238.3"/>
	<path class="st13" d="M453.4,206.3c-18.1-5.4-60.9-7.5-159.7,21.9c0,0-3.7,35.3,19,58.4l116.6-42.7c11.5-4.2,21.6-11.5,29.3-21.1
		l0,0C463.2,217,460.5,208.4,453.4,206.3z"/>
	<path class="st18" d="M292.2,238.2c0-2.7,0.3-5.5,0.3-8.2c0-1.2,0.5-1.7,1.5-2c11-3.3,22-6.7,32.9-10c1.5-0.5,1.8-0.1,1.7,1.4
		c-0.1,2.7-0.2,5.3-0.3,8l0.6,28.2l13.1,20.8l-0.9-0.7c0,0.2,0.2,0.6,0.1,0.8c-1.8,0.4-3.3,1.2-5,2c-7.7,3.4-15.9,6.5-23.5,9.9
		c-0.8,0.4-1.4,0.3-1.9-0.6c-0.8-1.4-1.8-2.6-2.7-3.9c-2.4-3.7-5.4-7.1-7.2-11.2c-1.9-4.1-3.3-8.4-4.7-12.7c-1.5-4.4-1.9-9-2.8-13.6
		C293,243.6,292.1,240.9,292.2,238.2z"/>
	<g>
		<g>
			<path class="st13" d="M335.6,197.2l22.7-4.7c5-1,8.2-5.9,7.1-10.9l-4.7-22.7c-1-5-5.9-8.2-10.9-7.1l-22.7,4.7
				c-5,1-8.2,5.9-7.1,10.9l4.7,22.7C325.8,195,330.6,198.2,335.6,197.2z"/>
			<path class="st27" d="M332.8,197.7l28.3-5.8c3.4-0.7,5.6-4.1,4.9-7.5l-5.8-28.3c-0.7-3.4-4.1-5.6-7.5-4.9l-28.3,5.8
				c-3.4,0.7-5.6,4.1-4.9,7.5l5.8,28.3C326,196.2,329.4,198.4,332.8,197.7z"/>
			<g>
				<defs>
					<path id="SVGID_13_" d="M335.6,197.2l22.7-4.7c5-1,8.2-5.9,7.1-10.9l-4.7-22.7c-1-5-5.9-8.2-10.9-7.1l-22.7,4.7
						c-5,1-8.2,5.9-7.1,10.9l4.7,22.7C325.8,195,330.6,198.2,335.6,197.2z"/>
				</defs>
				<clipPath id="SVGID_14_">
					<use xlink:href="#SVGID_13_"  style="overflow:visible;"/>
				</clipPath>
				<path class="st28" d="M324,200c0,0,3.8,2.1,3.2,1.7c-0.6-0.4-10.5-18.3-10.5-18.3l2.7-7.7L315,159l25.8,2.8l4.6,23.3"/>
			</g>
			<g>
				
					<rect x="332.1" y="163.1" transform="matrix(-0.9793 0.2024 -0.2024 -0.9793 713.1417 274.2245)" class="st18" width="21" height="21"/>
				
					<ellipse transform="matrix(0.9793 -0.2024 0.2024 0.9793 -26.0037 72.2771)" class="st29" cx="340.4" cy="163.3" rx="10.5" ry="1.4"/>
				
					<ellipse transform="matrix(0.9793 -0.2024 0.2024 0.9793 -30.0533 73.5551)" class="st29" cx="344.7" cy="183.7" rx="10.5" ry="1.3"/>
			</g>
			<g>
				<path class="st15" d="M341.2,179.4c-0.3,0-0.5,0-0.7-0.2c-0.4-0.4-0.9-0.8-1.3-1.2c-0.7-0.6-1.4-1.2-2.1-1.9
					c-0.2-0.2-0.3-0.4-0.3-0.7c0.1-1.5,0.2-2.9,0.3-4.4c0-0.3,0.1-0.6,0.4-0.8c1.3-0.9,2.5-1.8,3.8-2.6c0.2-0.2,0.5-0.2,0.8-0.1
					c0.3,0.1,0.6,0.2,0.9,0.3c1.2,0.3,2.3,0.7,3.5,1c0.2,0.1,0.4,0.2,0.5,0.5c0.1,0.3,0.2,0.6,0.3,0.8c0.5,1.1,0.9,2.3,1.4,3.4
					c0.1,0.3,0.1,0.5,0,0.7c-0.7,1.3-1.4,2.6-2.2,3.9c-0.2,0.3-0.4,0.5-0.8,0.6c-0.7,0.1-1.4,0.2-2.1,0.4
					C342.7,179.2,342,179.3,341.2,179.4z M339.4,174.3c0,0.2,0,0.3-0.2,0.4c-0.1,0.1-0.3,0.1-0.4,0.1c-0.1,0-0.2,0-0.3,0.1
					c-0.2,0.1-0.2,0.2-0.2,0.3c0.1,0.1,0.2,0.2,0.3,0.1c0.1,0,0.2-0.1,0.3-0.2c0.2-0.1,0.3-0.2,0.6-0.2c0.1,0,0.1,0,0.1,0.1
					c0.4,0.6,0.9,1.1,1.6,1.4c0.1,0,0.1,0.2,0.1,0.4c-0.1,0.1-0.1,0.3-0.2,0.4c0,0.1-0.1,0.1-0.1,0.2c0,0.2,0,0.3,0.2,0.3
					c0.1,0,0.3-0.1,0.3-0.2c0-0.2,0.1-0.3,0.1-0.5c0-0.1,0-0.3,0.2-0.4c0.1,0,0.1-0.1,0.2-0.1c0.7,0.1,1.4,0,2.1-0.4
					c0.1-0.1,0.3,0,0.4,0.2c0.1,0.2,0.2,0.3,0.3,0.5c0.1,0.1,0.1,0.2,0.2,0.2c0.2,0.1,0.3-0.1,0.3-0.3c0-0.1-0.1-0.2-0.2-0.3
					c-0.1-0.1-0.2-0.2-0.3-0.3c-0.1-0.1-0.1-0.2-0.1-0.4c0,0,0-0.1,0.1-0.1c0.6-0.5,0.9-1.1,1-1.9c0-0.1,0.2-0.2,0.4-0.2
					c0.2,0,0.3,0.1,0.5,0.1c0.1,0,0.2,0,0.2,0c0.1,0,0.2-0.1,0.2-0.2c0-0.1-0.1-0.2-0.2-0.3c-0.1,0-0.3,0-0.4,0
					c-0.2,0-0.4,0-0.6-0.1c-0.1,0-0.1-0.1-0.1-0.1c-0.1-0.7-0.3-1.4-0.8-1.9c-0.1-0.1,0-0.3,0.1-0.4c0.1-0.1,0.3-0.3,0.4-0.4
					c0,0,0.1-0.1,0.1-0.1c0.1-0.1,0.1-0.3,0-0.4c-0.1-0.1-0.3-0.1-0.4,0.1c-0.1,0.2-0.2,0.3-0.4,0.5c-0.2,0.2-0.3,0.2-0.5,0.1
					c-0.6-0.4-1.2-0.5-1.9-0.5c-0.2,0-0.3-0.1-0.3-0.3c0-0.2,0-0.3,0-0.5c0-0.1,0-0.2,0-0.2c0-0.1-0.2-0.2-0.3-0.2
					c-0.1,0-0.2,0.2-0.2,0.3c0,0.1,0.1,0.2,0.1,0.4c0.1,0.2,0.1,0.4,0,0.6c0,0.1-0.1,0.1-0.1,0.1c-0.7,0.2-1.3,0.6-1.7,1.2
					c-0.1,0.1-0.2,0.1-0.3,0c-0.2-0.1-0.3-0.2-0.5-0.3c-0.1-0.1-0.2-0.1-0.4-0.1c-0.1,0-0.1,0.1-0.1,0.2c0,0.2,0.1,0.2,0.3,0.3
					c0.1,0.1,0.3,0.1,0.4,0.2c0.1,0,0.2,0.2,0.3,0.3c0,0,0,0.1,0,0.1c-0.2,0.6-0.3,1.2-0.2,1.8C339.4,174.1,339.4,174.2,339.4,174.3
					z"/>
				<path class="st30" d="M339.5,172.3c0,0,0.1-0.1,0-0.1c-0.1-0.1-0.2-0.2-0.3-0.3c-0.1,0-0.3-0.1-0.4-0.2
					c-0.1-0.1-0.3-0.1-0.3-0.3c0-0.1,0-0.2,0.1-0.2c0.1-0.1,0.3,0,0.4,0.1c0.2,0.1,0.3,0.3,0.5,0.3c0.1,0,0.3,0.1,0.3,0
					c0.4-0.6,1-1,1.7-1.2c0.1,0,0.1,0,0.1-0.1c0.1-0.2,0-0.4,0-0.6c0-0.1-0.1-0.2-0.1-0.4c0-0.1,0.1-0.3,0.2-0.3
					c0.1,0,0.3,0.1,0.3,0.2c0,0.1,0,0.1,0,0.2c0,0.2,0,0.3,0,0.5c0,0.2,0.2,0.3,0.3,0.3c0.7,0,1.3,0.2,1.9,0.5
					c0.2,0.1,0.3,0.1,0.5-0.1c0.1-0.2,0.2-0.3,0.4-0.5c0.1-0.1,0.3-0.2,0.4-0.1c0.1,0.1,0.1,0.3,0,0.4c0,0-0.1,0.1-0.1,0.1
					c-0.1,0.1-0.3,0.2-0.4,0.4c-0.1,0.1-0.1,0.3-0.1,0.4c0.5,0.6,0.7,1.2,0.8,1.9c0,0.1,0,0.1,0.1,0.1c0.2,0.1,0.4,0.1,0.6,0.1
					c0.1,0,0.3,0,0.4,0c0.1,0,0.2,0.1,0.2,0.3c0,0.1-0.1,0.2-0.2,0.2c-0.1,0-0.2,0-0.2,0c-0.2,0-0.3-0.1-0.5-0.1
					c-0.2,0-0.3,0.1-0.4,0.2c-0.1,0.7-0.5,1.4-1,1.9c0,0-0.1,0-0.1,0.1c0.1,0.1,0,0.3,0.1,0.4c0.1,0.1,0.2,0.2,0.3,0.3
					c0.1,0.1,0.1,0.2,0.2,0.3c0,0.2-0.1,0.3-0.3,0.3c-0.1,0-0.2-0.1-0.2-0.2c-0.1-0.2-0.2-0.3-0.3-0.5c-0.1-0.1-0.3-0.2-0.4-0.2
					c-0.6,0.3-1.3,0.5-2.1,0.4c-0.1,0-0.1,0-0.2,0.1c-0.1,0.1-0.2,0.2-0.2,0.4c0,0.2,0,0.3-0.1,0.5c0,0.1-0.2,0.2-0.3,0.2
					c-0.1,0-0.2-0.2-0.2-0.3c0-0.1,0.1-0.2,0.1-0.2c0.1-0.1,0.1-0.3,0.2-0.4c0-0.1,0-0.3-0.1-0.4c-0.7-0.3-1.2-0.8-1.6-1.4
					c0,0-0.1-0.1-0.1-0.1c-0.2,0-0.4,0.1-0.6,0.2c-0.1,0.1-0.2,0.1-0.3,0.2c-0.2,0-0.3,0-0.3-0.1c-0.1-0.1,0-0.3,0.2-0.3
					c0.1,0,0.2-0.1,0.3-0.1c0.1,0,0.3-0.1,0.4-0.1c0.2-0.1,0.2-0.2,0.2-0.4c0-0.1,0-0.1,0-0.2C339.2,173.5,339.3,172.9,339.5,172.3z
					 M341.4,175.8c0.1,0,0.1,0,0.1-0.1c0.1-0.4,0.2-0.8,0.3-1.2c0-0.2-0.1-0.3-0.3-0.3c-0.4,0.1-0.9,0.3-1.3,0.4
					C340.6,175.3,340.9,175.6,341.4,175.8z M342.7,172.1c0.1,0.2,0.2,0.3,0.4,0.1c0.3-0.3,0.6-0.6,0.8-0.8c0.1-0.1,0.1-0.1,0-0.1
					c-0.4-0.3-0.9-0.4-1.4-0.4c-0.1,0-0.1,0-0.1,0.1c0,0.1,0.1,0.3,0.1,0.4l0,0C342.6,171.6,342.6,171.9,342.7,172.1z M344.6,171.9
					c-0.1-0.1-0.1-0.1-0.2,0c-0.2,0.3-0.5,0.6-0.7,0.9c-0.1,0.2-0.1,0.4,0.2,0.4c0.4,0,0.8,0.1,1.2,0.1c0.1,0,0.1,0,0.1-0.1
					c0-0.1,0-0.1,0-0.2C345,172.6,344.9,172.2,344.6,171.9z M340.3,174.1c0.3-0.1,0.6-0.3,0.9-0.4c0.2-0.1,0.2-0.3,0-0.4
					c-0.3-0.2-0.7-0.4-1-0.6c-0.1-0.1-0.1,0-0.1,0.1c-0.1,0.4-0.2,0.8-0.1,1.2C340,174.2,340,174.2,340.3,174.1z M343.6,174.3
					c0.2,0.4,0.4,0.7,0.7,1.1c0,0.1,0.1,0,0.1,0c0.4-0.4,0.6-0.8,0.7-1.3c0,0,0-0.1-0.1-0.1c-0.4,0-0.8,0-1.2,0
					C343.6,174,343.5,174.1,343.6,174.3z M343.6,175.8c0.1,0,0.1-0.1,0-0.2c-0.2-0.3-0.5-0.6-0.7-0.9c-0.1-0.2-0.3-0.1-0.4,0.1
					c-0.1,0.4-0.3,0.8-0.4,1.1c0,0.1,0,0.1,0.1,0.1c0.2,0,0.5,0,0.7,0C343.2,176,343.4,175.9,343.6,175.8z M340.4,172
					c0.4,0.2,0.8,0.4,1.2,0.6c0.2,0.1,0.3,0,0.3-0.2c0-0.4-0.1-0.8-0.1-1.3c0,0,0,0,0,0C341.2,171.2,340.8,171.5,340.4,172z
					 M342.1,173.5c0,0.2,0.3,0.5,0.5,0.4c0.2,0,0.4-0.4,0.3-0.6c0-0.1-0.3-0.3-0.5-0.3C342.3,173.1,342.1,173.4,342.1,173.5z"/>
				<path class="st15" d="M340.3,174.8c0.3,0.5,0.7,0.8,1.1,1.1c0.1,0,0.1,0,0.1-0.1c0.1-0.4,0.2-0.8,0.3-1.2c0-0.2-0.1-0.3-0.3-0.3
					C341.1,174.5,340.7,174.6,340.3,174.8z"/>
				<path class="st15" d="M342.5,171.4c0.1,0.3,0.1,0.5,0.2,0.8c0.1,0.2,0.2,0.3,0.4,0.1c0.3-0.3,0.6-0.6,0.8-0.8
					c0.1-0.1,0.1-0.1,0-0.1c-0.4-0.3-0.9-0.4-1.4-0.4c-0.1,0-0.1,0-0.1,0.1C342.5,171.1,342.5,171.2,342.5,171.4L342.5,171.4z"/>
				<path class="st15" d="M345.1,173c-0.1-0.4-0.2-0.8-0.5-1.2c-0.1-0.1-0.1-0.1-0.2,0c-0.2,0.3-0.5,0.6-0.7,0.9
					c-0.1,0.2-0.1,0.4,0.2,0.4c0.4,0,0.8,0.1,1.2,0.1c0.1,0,0.1,0,0.1-0.1C345.1,173.2,345.1,173.1,345.1,173z"/>
				<path class="st15" d="M340,173.8c0.1,0.3,0.1,0.3,0.3,0.2c0.3-0.1,0.6-0.3,0.9-0.4c0.2-0.1,0.2-0.3,0-0.4
					c-0.3-0.2-0.7-0.4-1-0.6c-0.1-0.1-0.1,0-0.1,0.1C339.9,173.1,339.9,173.5,340,173.8z"/>
				<path class="st15" d="M343.8,174c-0.2,0-0.3,0.2-0.2,0.3c0.2,0.4,0.4,0.7,0.7,1.1c0,0.1,0.1,0,0.1,0c0.4-0.4,0.6-0.8,0.7-1.3
					c0,0,0-0.1-0.1-0.1C344.6,174,344.2,174,343.8,174z"/>
				<path class="st15" d="M343,176.1c0.2,0,0.5-0.1,0.7-0.2c0.1,0,0.1-0.1,0-0.2c-0.2-0.3-0.5-0.6-0.7-0.9c-0.1-0.2-0.3-0.1-0.4,0.1
					c-0.1,0.4-0.3,0.8-0.4,1.1c0,0.1,0,0.1,0.1,0.1C342.5,176.1,342.7,176.1,343,176.1z"/>
				<path class="st15" d="M341.8,171c-0.5,0.2-1,0.5-1.3,1c0.4,0.2,0.8,0.4,1.2,0.6c0.2,0.1,0.3,0,0.3-0.2
					C341.9,171.9,341.8,171.5,341.8,171C341.8,171,341.8,171,341.8,171z"/>
				<path class="st15" d="M342.5,173.1c-0.2,0-0.4,0.3-0.4,0.4c0,0.2,0.3,0.5,0.5,0.4c0.2,0,0.4-0.4,0.3-0.6
					C342.9,173.2,342.7,173.1,342.5,173.1z"/>
			</g>
		</g>
		<g>
			<path class="st13" d="M348.4,148.9l22.7-4.7c5-1,8.2-5.9,7.1-10.9l-4.7-22.7c-1-5-5.9-8.2-10.9-7.1l-22.7,4.7
				c-5,1-8.2,5.9-7.1,10.9l4.7,22.7C338.6,146.8,343.5,149.9,348.4,148.9z"/>
			<path class="st27" d="M345.6,149.5l28.3-5.8c3.4-0.7,5.6-4.1,4.9-7.5l-5.8-28.3c-0.7-3.4-4.1-5.6-7.5-4.9l-28.3,5.8
				c-3.4,0.7-5.6,4.1-4.9,7.5l5.8,28.3C338.9,148,342.2,150.2,345.6,149.5z"/>
			<g>
				<defs>
					<path id="SVGID_15_" d="M348.4,148.9l22.7-4.7c5-1,8.2-5.9,7.1-10.9l-4.7-22.7c-1-5-5.9-8.2-10.9-7.1l-22.7,4.7
						c-5,1-8.2,5.9-7.1,10.9l4.7,22.7C338.6,146.8,343.5,149.9,348.4,148.9z"/>
				</defs>
				<clipPath id="SVGID_16_">
					<use xlink:href="#SVGID_15_"  style="overflow:visible;"/>
				</clipPath>
				<path class="st31" d="M336.8,151.8c0,0,3.8,2.1,3.2,1.7s-10.5-18.3-10.5-18.3l2.7-7.7l-4.4-16.7l25.8,2.8l4.6,23.3"/>
			</g>
			<g>
				<g>
					
						<rect x="344.9" y="114.8" transform="matrix(-0.9793 0.2024 -0.2024 -0.9793 728.761 176.1637)" class="st18" width="21" height="21"/>
					
						<ellipse transform="matrix(0.9793 -0.2024 0.2024 0.9793 -15.9768 73.8742)" class="st29" cx="353.3" cy="115.1" rx="10.5" ry="1.4"/>
					
						<ellipse transform="matrix(0.9793 -0.2024 0.2024 0.9793 -20.0265 75.1522)" class="st29" cx="357.5" cy="135.5" rx="10.5" ry="1.3"/>
				</g>
				<g>
					<path class="st15" d="M354,131.2c-0.3,0-0.5,0-0.7-0.2c-0.4-0.4-0.9-0.8-1.3-1.2c-0.7-0.6-1.4-1.2-2.1-1.9
						c-0.2-0.2-0.3-0.4-0.3-0.7c0.1-1.5,0.2-2.9,0.3-4.4c0-0.3,0.1-0.6,0.4-0.8c1.3-0.9,2.5-1.8,3.8-2.6c0.2-0.2,0.5-0.2,0.8-0.1
						c0.3,0.1,0.6,0.2,0.9,0.3c1.2,0.3,2.3,0.7,3.5,1c0.2,0.1,0.4,0.2,0.5,0.5c0.1,0.3,0.2,0.6,0.3,0.8c0.5,1.1,0.9,2.3,1.4,3.4
						c0.1,0.3,0.1,0.5,0,0.7c-0.7,1.3-1.4,2.6-2.2,3.9c-0.2,0.3-0.4,0.5-0.8,0.6c-0.7,0.1-1.4,0.2-2.1,0.4
						C355.6,131,354.8,131.1,354,131.2z M352.2,126.1c0,0.2,0,0.3-0.2,0.4c-0.1,0.1-0.3,0.1-0.4,0.1c-0.1,0-0.2,0-0.3,0.1
						c-0.2,0.1-0.2,0.2-0.2,0.3c0.1,0.1,0.2,0.2,0.3,0.1c0.1,0,0.2-0.1,0.3-0.2c0.2-0.1,0.3-0.2,0.6-0.2c0.1,0,0.1,0,0.1,0.1
						c0.4,0.6,0.9,1.1,1.6,1.4c0.1,0,0.1,0.2,0.1,0.4c-0.1,0.1-0.1,0.3-0.2,0.4c0,0.1-0.1,0.1-0.1,0.2c0,0.2,0,0.3,0.2,0.3
						c0.1,0,0.3-0.1,0.3-0.2c0-0.2,0.1-0.3,0.1-0.5c0-0.1,0-0.3,0.2-0.4c0.1,0,0.1-0.1,0.2-0.1c0.7,0.1,1.4,0,2.1-0.4
						c0.1-0.1,0.3,0,0.4,0.2c0.1,0.2,0.2,0.3,0.3,0.5c0.1,0.1,0.1,0.2,0.2,0.2c0.2,0.1,0.3-0.1,0.3-0.3c0-0.1-0.1-0.2-0.2-0.3
						c-0.1-0.1-0.2-0.2-0.3-0.3c-0.1-0.1-0.1-0.2-0.1-0.4c0,0,0-0.1,0.1-0.1c0.6-0.5,0.9-1.1,1-1.9c0-0.1,0.2-0.2,0.4-0.2
						c0.2,0,0.3,0.1,0.5,0.1c0.1,0,0.2,0,0.2,0c0.1,0,0.2-0.1,0.2-0.2c0-0.1-0.1-0.2-0.2-0.3c-0.1,0-0.3,0-0.4,0
						c-0.2,0-0.4,0-0.6-0.1c-0.1,0-0.1-0.1-0.1-0.1c-0.1-0.7-0.3-1.4-0.8-1.9c-0.1-0.1,0-0.3,0.1-0.4c0.1-0.1,0.3-0.3,0.4-0.4
						c0,0,0.1-0.1,0.1-0.1c0.1-0.1,0.1-0.3,0-0.4c-0.1-0.1-0.3-0.1-0.4,0.1c-0.1,0.2-0.2,0.3-0.4,0.5c-0.2,0.2-0.3,0.2-0.5,0.1
						c-0.6-0.4-1.2-0.5-1.9-0.5c-0.2,0-0.3-0.1-0.3-0.3c0-0.2,0-0.3,0-0.5c0-0.1,0-0.2,0-0.2c0-0.1-0.2-0.2-0.3-0.2
						c-0.1,0-0.2,0.2-0.2,0.3c0,0.1,0.1,0.2,0.1,0.4c0.1,0.2,0.1,0.4,0,0.6c0,0.1-0.1,0.1-0.1,0.1c-0.7,0.2-1.3,0.6-1.7,1.2
						c-0.1,0.1-0.2,0.1-0.3,0c-0.2-0.1-0.3-0.2-0.5-0.3c-0.1-0.1-0.2-0.1-0.4-0.1c-0.1,0-0.1,0.1-0.1,0.2c0,0.2,0.1,0.2,0.3,0.3
						c0.1,0.1,0.3,0.1,0.4,0.2c0.1,0,0.2,0.2,0.3,0.3c0,0,0,0.1,0,0.1c-0.2,0.6-0.3,1.2-0.2,1.8C352.2,125.9,352.2,126,352.2,126.1z
						"/>
					<path class="st30" d="M352.3,124.1c0,0,0.1-0.1,0-0.1c-0.1-0.1-0.2-0.2-0.3-0.3c-0.1,0-0.3-0.1-0.4-0.2
						c-0.1-0.1-0.3-0.1-0.3-0.3c0-0.1,0-0.2,0.1-0.2c0.1-0.1,0.3,0,0.4,0.1c0.2,0.1,0.3,0.3,0.5,0.3c0.1,0,0.3,0.1,0.3,0
						c0.4-0.6,1-1,1.7-1.2c0.1,0,0.1,0,0.1-0.1c0.1-0.2,0-0.4,0-0.6c0-0.1-0.1-0.2-0.1-0.4c0-0.1,0.1-0.3,0.2-0.3
						c0.1,0,0.3,0.1,0.3,0.2c0,0.1,0,0.1,0,0.2c0,0.2,0,0.3,0,0.5c0,0.2,0.2,0.3,0.3,0.3c0.7,0,1.3,0.2,1.9,0.5
						c0.2,0.1,0.3,0.1,0.5-0.1c0.1-0.2,0.2-0.3,0.4-0.5c0.1-0.1,0.3-0.2,0.4-0.1c0.1,0.1,0.1,0.3,0,0.4c0,0-0.1,0.1-0.1,0.1
						c-0.1,0.1-0.3,0.2-0.4,0.4c-0.1,0.1-0.1,0.3-0.1,0.4c0.5,0.6,0.7,1.2,0.8,1.9c0,0.1,0,0.1,0.1,0.1c0.2,0.1,0.4,0.1,0.6,0.1
						c0.1,0,0.3,0,0.4,0c0.1,0,0.2,0.1,0.2,0.3c0,0.1-0.1,0.2-0.2,0.2c-0.1,0-0.2,0-0.2,0c-0.2,0-0.3-0.1-0.5-0.1
						c-0.2,0-0.3,0.1-0.4,0.2c-0.1,0.7-0.5,1.4-1,1.9c0,0-0.1,0-0.1,0.1c0.1,0.1,0,0.3,0.1,0.4c0.1,0.1,0.2,0.2,0.3,0.3
						c0.1,0.1,0.1,0.2,0.2,0.3c0,0.2-0.1,0.3-0.3,0.3c-0.1,0-0.2-0.1-0.2-0.2c-0.1-0.2-0.2-0.3-0.3-0.5c-0.1-0.1-0.3-0.2-0.4-0.2
						c-0.6,0.3-1.3,0.5-2.1,0.4c-0.1,0-0.1,0-0.2,0.1c-0.1,0.1-0.2,0.2-0.2,0.4c0,0.2,0,0.3-0.1,0.5c0,0.1-0.2,0.2-0.3,0.2
						c-0.1,0-0.2-0.2-0.2-0.3c0-0.1,0.1-0.2,0.1-0.2c0.1-0.1,0.1-0.3,0.2-0.4c0-0.1,0-0.3-0.1-0.4c-0.7-0.3-1.2-0.8-1.6-1.4
						c0,0-0.1-0.1-0.1-0.1c-0.2,0-0.4,0.1-0.6,0.2c-0.1,0.1-0.2,0.1-0.3,0.2c-0.2,0-0.3,0-0.3-0.1c-0.1-0.1,0-0.3,0.2-0.3
						c0.1,0,0.2-0.1,0.3-0.1c0.1,0,0.3-0.1,0.4-0.1c0.2-0.1,0.2-0.2,0.2-0.4c0-0.1,0-0.1,0-0.2C352,125.2,352.1,124.6,352.3,124.1z
						 M354.2,127.6c0.1,0,0.1,0,0.1-0.1c0.1-0.4,0.2-0.8,0.3-1.2c0-0.2-0.1-0.3-0.3-0.3c-0.4,0.1-0.9,0.3-1.3,0.4
						C353.4,127,353.8,127.4,354.2,127.6z M355.5,123.9c0.1,0.2,0.2,0.3,0.4,0.1c0.3-0.3,0.6-0.6,0.8-0.8c0.1-0.1,0.1-0.1,0-0.1
						c-0.4-0.3-0.9-0.4-1.4-0.4c-0.1,0-0.1,0-0.1,0.1c0,0.1,0.1,0.3,0.1,0.4c0,0,0,0,0,0C355.4,123.4,355.5,123.7,355.5,123.9z
						 M357.4,123.6c-0.1-0.1-0.1-0.1-0.2,0c-0.2,0.3-0.5,0.6-0.7,0.9c-0.1,0.2-0.1,0.4,0.2,0.4c0.4,0,0.8,0.1,1.2,0.1
						c0.1,0,0.1,0,0.1-0.1c0-0.1,0-0.1,0-0.2C357.8,124.4,357.7,124,357.4,123.6z M353.1,125.8c0.3-0.1,0.6-0.3,0.9-0.4
						c0.2-0.1,0.2-0.3,0-0.4c-0.3-0.2-0.7-0.4-1-0.6c-0.1-0.1-0.1,0-0.1,0.1c-0.1,0.4-0.2,0.8-0.1,1.2
						C352.8,126,352.8,126,353.1,125.8z M356.4,126c0.2,0.4,0.4,0.7,0.7,1.1c0,0.1,0.1,0,0.1,0c0.4-0.4,0.6-0.8,0.7-1.3
						c0,0,0-0.1-0.1-0.1c-0.4,0-0.8,0-1.2,0C356.4,125.8,356.3,125.9,356.4,126z M356.5,127.6c0.1,0,0.1-0.1,0-0.2
						c-0.2-0.3-0.5-0.6-0.7-0.9c-0.1-0.2-0.3-0.1-0.4,0.1c-0.1,0.4-0.3,0.8-0.4,1.1c0,0.1,0,0.1,0.1,0.1c0.2,0,0.5,0,0.7,0
						C356,127.8,356.3,127.7,356.5,127.6z M353.3,123.7c0.4,0.2,0.8,0.4,1.2,0.6c0.2,0.1,0.3,0,0.3-0.2c0-0.4-0.1-0.8-0.1-1.3
						c0,0,0,0,0,0C354.1,123,353.6,123.3,353.3,123.7z M354.9,125.3c0,0.2,0.3,0.5,0.5,0.4c0.2,0,0.4-0.4,0.3-0.6
						c0-0.1-0.3-0.3-0.5-0.3C355.1,124.9,354.9,125.1,354.9,125.3z"/>
					<path class="st15" d="M353.1,126.6c0.3,0.5,0.7,0.8,1.1,1.1c0.1,0,0.1,0,0.1-0.1c0.1-0.4,0.2-0.8,0.3-1.2
						c0-0.2-0.1-0.3-0.3-0.3C353.9,126.2,353.5,126.4,353.1,126.6z"/>
					<path class="st15" d="M355.4,123.1c0.1,0.3,0.1,0.5,0.2,0.8c0.1,0.2,0.2,0.3,0.4,0.1c0.3-0.3,0.6-0.6,0.8-0.8
						c0.1-0.1,0.1-0.1,0-0.1c-0.4-0.3-0.9-0.4-1.4-0.4c-0.1,0-0.1,0-0.1,0.1C355.3,122.9,355.3,123,355.4,123.1
						C355.4,123.1,355.4,123.1,355.4,123.1z"/>
					<path class="st15" d="M357.9,124.8c-0.1-0.4-0.2-0.8-0.5-1.2c-0.1-0.1-0.1-0.1-0.2,0c-0.2,0.3-0.5,0.6-0.7,0.9
						c-0.1,0.2-0.1,0.4,0.2,0.4c0.4,0,0.8,0.1,1.2,0.1c0.1,0,0.1,0,0.1-0.1C357.9,124.9,357.9,124.9,357.9,124.8z"/>
					<path class="st15" d="M352.8,125.6c0.1,0.3,0.1,0.3,0.3,0.2c0.3-0.1,0.6-0.3,0.9-0.4c0.2-0.1,0.2-0.3,0-0.4
						c-0.3-0.2-0.7-0.4-1-0.6c-0.1-0.1-0.1,0-0.1,0.1C352.8,124.8,352.7,125.2,352.8,125.6z"/>
					<path class="st15" d="M356.6,125.7c-0.2,0-0.3,0.2-0.2,0.3c0.2,0.4,0.4,0.7,0.7,1.1c0,0.1,0.1,0,0.1,0c0.4-0.4,0.6-0.8,0.7-1.3
						c0,0,0-0.1-0.1-0.1C357.4,125.7,357,125.7,356.6,125.7z"/>
					<path class="st15" d="M355.8,127.8c0.2,0,0.5-0.1,0.7-0.2c0.1,0,0.1-0.1,0-0.2c-0.2-0.3-0.5-0.6-0.7-0.9
						c-0.1-0.2-0.3-0.1-0.4,0.1c-0.1,0.4-0.3,0.8-0.4,1.1c0,0.1,0,0.1,0.1,0.1C355.3,127.9,355.6,127.9,355.8,127.8z"/>
					<path class="st15" d="M354.6,122.8c-0.5,0.2-1,0.5-1.3,1c0.4,0.2,0.8,0.4,1.2,0.6c0.2,0.1,0.3,0,0.3-0.2
						C354.7,123.7,354.7,123.2,354.6,122.8C354.6,122.8,354.6,122.8,354.6,122.8z"/>
					<path class="st15" d="M355.3,124.9c-0.2,0-0.4,0.3-0.4,0.4c0,0.2,0.3,0.5,0.5,0.4c0.2,0,0.4-0.4,0.3-0.6
						C355.8,125,355.5,124.8,355.3,124.9z"/>
				</g>
			</g>
		</g>
		<g>
			<path class="st13" d="M379.3,188.1l22.7-4.7c5-1,8.2-5.9,7.1-10.9l-4.7-22.7c-1-5-5.9-8.2-10.9-7.1l-22.7,4.7
				c-5,1-8.2,5.9-7.1,10.9l4.7,22.7C369.5,185.9,374.4,189.1,379.3,188.1z"/>
			<g>
				<defs>
					<path id="SVGID_17_" d="M379.3,188.1l22.7-4.7c5-1,8.2-5.9,7.1-10.9l-4.7-22.7c-1-5-5.9-8.2-10.9-7.1l-22.7,4.7
						c-5,1-8.2,5.9-7.1,10.9l4.7,22.7C369.5,185.9,374.4,189.1,379.3,188.1z"/>
				</defs>
				<clipPath id="SVGID_18_">
					<use xlink:href="#SVGID_17_"  style="overflow:visible;"/>
				</clipPath>
				<path class="st32" d="M367.7,191c0,0,3.8,2.1,3.2,1.7c-0.6-0.4-10.5-18.3-10.5-18.3l2.7-7.7l-4.4-16.7l25.8,2.8l4.6,23.3"/>
			</g>
			<g>
				
					<rect x="375.8" y="154" transform="matrix(-0.9793 0.2024 -0.2024 -0.9793 797.8381 247.4958)" class="st18" width="21" height="21"/>
				
					<ellipse transform="matrix(0.9793 -0.2024 0.2024 0.9793 -23.2706 80.9374)" class="st29" cx="384.1" cy="154.3" rx="10.5" ry="1.4"/>
				
					<ellipse transform="matrix(0.9793 -0.2024 0.2024 0.9793 -27.3203 82.2154)" class="st29" cx="388.4" cy="174.7" rx="10.5" ry="1.3"/>
			</g>
			<g>
				<path class="st15" d="M384.9,170.4c-0.3,0-0.5,0-0.7-0.2c-0.4-0.4-0.9-0.8-1.3-1.2c-0.7-0.6-1.4-1.2-2.1-1.9
					c-0.2-0.2-0.3-0.4-0.3-0.7c0.1-1.5,0.2-2.9,0.3-4.4c0-0.3,0.1-0.6,0.4-0.8c1.3-0.9,2.5-1.8,3.8-2.6c0.2-0.2,0.5-0.2,0.8-0.1
					c0.3,0.1,0.6,0.2,0.9,0.3c1.2,0.3,2.3,0.7,3.5,1c0.2,0.1,0.4,0.2,0.5,0.5c0.1,0.3,0.2,0.6,0.3,0.8c0.5,1.1,0.9,2.3,1.4,3.4
					c0.1,0.3,0.1,0.5,0,0.7c-0.7,1.3-1.4,2.6-2.2,3.9c-0.2,0.3-0.4,0.5-0.8,0.6c-0.7,0.1-1.4,0.2-2.1,0.4
					C386.4,170.2,385.7,170.3,384.9,170.4z M383.1,165.3c0,0.2,0,0.3-0.2,0.4c-0.1,0.1-0.3,0.1-0.4,0.1c-0.1,0-0.2,0-0.3,0.1
					c-0.2,0.1-0.2,0.2-0.2,0.3c0.1,0.1,0.2,0.2,0.3,0.1c0.1,0,0.2-0.1,0.3-0.2c0.2-0.1,0.3-0.2,0.6-0.2c0.1,0,0.1,0,0.1,0.1
					c0.4,0.6,0.9,1.1,1.6,1.4c0.1,0,0.1,0.2,0.1,0.4c-0.1,0.1-0.1,0.3-0.2,0.4c0,0.1-0.1,0.1-0.1,0.2c0,0.2,0,0.3,0.2,0.3
					c0.1,0,0.3-0.1,0.3-0.2c0-0.2,0.1-0.3,0.1-0.5c0-0.1,0-0.3,0.2-0.4c0.1,0,0.1-0.1,0.2-0.1c0.7,0.1,1.4,0,2.1-0.4
					c0.1-0.1,0.3,0,0.4,0.2c0.1,0.2,0.2,0.3,0.3,0.5c0.1,0.1,0.1,0.2,0.2,0.2c0.2,0.1,0.3-0.1,0.3-0.3c0-0.1-0.1-0.2-0.2-0.3
					c-0.1-0.1-0.2-0.2-0.3-0.3c-0.1-0.1-0.1-0.2-0.1-0.4c0,0,0-0.1,0.1-0.1c0.6-0.5,0.9-1.1,1-1.9c0-0.1,0.2-0.2,0.4-0.2
					c0.2,0,0.3,0.1,0.5,0.1c0.1,0,0.2,0,0.2,0c0.1,0,0.2-0.1,0.2-0.2c0-0.1-0.1-0.2-0.2-0.3c-0.1,0-0.3,0-0.4,0
					c-0.2,0-0.4,0-0.6-0.1c-0.1,0-0.1-0.1-0.1-0.1c-0.1-0.7-0.3-1.4-0.8-1.9c-0.1-0.1,0-0.3,0.1-0.4c0.1-0.1,0.3-0.3,0.4-0.4
					c0,0,0.1-0.1,0.1-0.1c0.1-0.1,0.1-0.3,0-0.4c-0.1-0.1-0.3-0.1-0.4,0.1c-0.1,0.2-0.2,0.3-0.4,0.5c-0.2,0.2-0.3,0.2-0.5,0.1
					c-0.6-0.4-1.2-0.5-1.9-0.5c-0.2,0-0.3-0.1-0.3-0.3c0-0.2,0-0.3,0-0.5c0-0.1,0-0.2,0-0.2c0-0.1-0.2-0.2-0.3-0.2
					c-0.1,0-0.2,0.2-0.2,0.3c0,0.1,0.1,0.2,0.1,0.4c0.1,0.2,0.1,0.4,0,0.6c0,0.1-0.1,0.1-0.1,0.1c-0.7,0.2-1.3,0.6-1.7,1.2
					c-0.1,0.1-0.2,0.1-0.3,0c-0.2-0.1-0.3-0.2-0.5-0.3c-0.1-0.1-0.2-0.1-0.4-0.1c-0.1,0-0.1,0.1-0.1,0.2c0,0.2,0.1,0.2,0.3,0.3
					c0.1,0.1,0.3,0.1,0.4,0.2c0.1,0,0.2,0.2,0.3,0.3c0,0,0,0.1,0,0.1c-0.2,0.6-0.3,1.2-0.2,1.8C383.1,165.1,383.1,165.2,383.1,165.3
					z"/>
				<path class="st30" d="M383.2,163.3c0,0,0.1-0.1,0-0.1c-0.1-0.1-0.2-0.2-0.3-0.3c-0.1,0-0.3-0.1-0.4-0.2
					c-0.1-0.1-0.3-0.1-0.3-0.3c0-0.1,0-0.2,0.1-0.2c0.1-0.1,0.3,0,0.4,0.1c0.2,0.1,0.3,0.3,0.5,0.3c0.1,0,0.3,0.1,0.3,0
					c0.4-0.6,1-1,1.7-1.2c0.1,0,0.1,0,0.1-0.1c0.1-0.2,0-0.4,0-0.6c0-0.1-0.1-0.2-0.1-0.4c0-0.1,0.1-0.3,0.2-0.3
					c0.1,0,0.3,0.1,0.3,0.2c0,0.1,0,0.1,0,0.2c0,0.2,0,0.3,0,0.5c0,0.2,0.2,0.3,0.3,0.3c0.7,0,1.3,0.2,1.9,0.5
					c0.2,0.1,0.3,0.1,0.5-0.1c0.1-0.2,0.2-0.3,0.4-0.5c0.1-0.1,0.3-0.2,0.4-0.1c0.1,0.1,0.1,0.3,0,0.4c0,0-0.1,0.1-0.1,0.1
					c-0.1,0.1-0.3,0.2-0.4,0.4c-0.1,0.1-0.1,0.3-0.1,0.4c0.5,0.6,0.7,1.2,0.8,1.9c0,0.1,0,0.1,0.1,0.1c0.2,0.1,0.4,0.1,0.6,0.1
					c0.1,0,0.3,0,0.4,0c0.1,0,0.2,0.1,0.2,0.3c0,0.1-0.1,0.2-0.2,0.2c-0.1,0-0.2,0-0.2,0c-0.2,0-0.3-0.1-0.5-0.1
					c-0.2,0-0.3,0.1-0.4,0.2c-0.1,0.7-0.5,1.4-1,1.9c0,0-0.1,0-0.1,0.1c0.1,0.1,0,0.3,0.1,0.4c0.1,0.1,0.2,0.2,0.3,0.3
					c0.1,0.1,0.1,0.2,0.2,0.3c0,0.2-0.1,0.3-0.3,0.3c-0.1,0-0.2-0.1-0.2-0.2c-0.1-0.2-0.2-0.3-0.3-0.5c-0.1-0.1-0.3-0.2-0.4-0.2
					c-0.6,0.3-1.3,0.5-2.1,0.4c-0.1,0-0.1,0-0.2,0.1c-0.1,0.1-0.2,0.2-0.2,0.4c0,0.2,0,0.3-0.1,0.5c0,0.1-0.2,0.2-0.3,0.2
					c-0.1,0-0.2-0.2-0.2-0.3c0-0.1,0.1-0.2,0.1-0.2c0.1-0.1,0.1-0.3,0.2-0.4c0-0.1,0-0.3-0.1-0.4c-0.7-0.3-1.2-0.8-1.6-1.4
					c0,0-0.1-0.1-0.1-0.1c-0.2,0-0.4,0.1-0.6,0.2c-0.1,0.1-0.2,0.1-0.3,0.2c-0.2,0-0.3,0-0.3-0.1c-0.1-0.1,0-0.3,0.2-0.3
					c0.1,0,0.2-0.1,0.3-0.1c0.1,0,0.3-0.1,0.4-0.1c0.2-0.1,0.2-0.2,0.2-0.4c0-0.1,0-0.1,0-0.2C382.9,164.4,383,163.8,383.2,163.3z
					 M385.1,166.8c0.1,0,0.1,0,0.1-0.1c0.1-0.4,0.2-0.8,0.3-1.2c0-0.2-0.1-0.3-0.3-0.3c-0.4,0.1-0.9,0.3-1.3,0.4
					C384.3,166.2,384.6,166.6,385.1,166.8z M386.4,163.1c0.1,0.2,0.2,0.3,0.4,0.1c0.3-0.3,0.6-0.6,0.8-0.8c0.1-0.1,0.1-0.1,0-0.1
					c-0.4-0.3-0.9-0.4-1.4-0.4c-0.1,0-0.1,0-0.1,0.1c0,0.1,0.1,0.3,0.1,0.4c0,0,0,0,0,0C386.3,162.6,386.4,162.8,386.4,163.1z
					 M388.3,162.8c-0.1-0.1-0.1-0.1-0.2,0c-0.2,0.3-0.5,0.6-0.7,0.9c-0.1,0.2-0.1,0.4,0.2,0.4c0.4,0,0.8,0.1,1.2,0.1
					c0.1,0,0.1,0,0.1-0.1c0-0.1,0-0.1,0-0.2C388.7,163.6,388.6,163.2,388.3,162.8z M384,165c0.3-0.1,0.6-0.3,0.9-0.4
					c0.2-0.1,0.2-0.3,0-0.4c-0.3-0.2-0.7-0.4-1-0.6c-0.1-0.1-0.1,0-0.1,0.1c-0.1,0.4-0.2,0.8-0.1,1.2
					C383.7,165.1,383.7,165.2,384,165z M387.3,165.2c0.2,0.4,0.4,0.7,0.7,1.1c0,0.1,0.1,0,0.1,0c0.4-0.4,0.6-0.8,0.7-1.3
					c0,0,0-0.1-0.1-0.1c-0.4,0-0.8,0-1.2,0C387.3,165,387.2,165.1,387.3,165.2z M387.4,166.8c0.1,0,0.1-0.1,0-0.2
					c-0.2-0.3-0.5-0.6-0.7-0.9c-0.1-0.2-0.3-0.1-0.4,0.1c-0.1,0.4-0.3,0.8-0.4,1.1c0,0.1,0,0.1,0.1,0.1c0.2,0,0.5,0,0.7,0
					C386.9,167,387.1,166.9,387.4,166.8z M384.2,162.9c0.4,0.2,0.8,0.4,1.2,0.6c0.2,0.1,0.3,0,0.3-0.2c0-0.4-0.1-0.8-0.1-1.3
					c0,0,0,0,0,0C384.9,162.1,384.5,162.5,384.2,162.9z M385.8,164.5c0,0.2,0.3,0.5,0.5,0.4c0.2,0,0.4-0.4,0.3-0.6
					c0-0.1-0.3-0.3-0.5-0.3C386,164.1,385.8,164.3,385.8,164.5z"/>
				<path class="st15" d="M384,165.7c0.3,0.5,0.7,0.8,1.1,1.1c0.1,0,0.1,0,0.1-0.1c0.1-0.4,0.2-0.8,0.3-1.2c0-0.2-0.1-0.3-0.3-0.3
					C384.8,165.4,384.4,165.6,384,165.7z"/>
				<path class="st15" d="M386.2,162.3c0.1,0.3,0.1,0.5,0.2,0.8c0.1,0.2,0.2,0.3,0.4,0.1c0.3-0.3,0.6-0.6,0.8-0.8
					c0.1-0.1,0.1-0.1,0-0.1c-0.4-0.3-0.9-0.4-1.4-0.4c-0.1,0-0.1,0-0.1,0.1C386.2,162.1,386.2,162.2,386.2,162.3
					C386.2,162.3,386.2,162.3,386.2,162.3z"/>
				<path class="st15" d="M388.8,164c-0.1-0.4-0.2-0.8-0.5-1.2c-0.1-0.1-0.1-0.1-0.2,0c-0.2,0.3-0.5,0.6-0.7,0.9
					c-0.1,0.2-0.1,0.4,0.2,0.4c0.4,0,0.8,0.1,1.2,0.1c0.1,0,0.1,0,0.1-0.1C388.8,164.1,388.8,164.1,388.8,164z"/>
				<path class="st15" d="M383.7,164.8c0.1,0.3,0.1,0.3,0.3,0.2c0.3-0.1,0.6-0.3,0.9-0.4c0.2-0.1,0.2-0.3,0-0.4
					c-0.3-0.2-0.7-0.4-1-0.6c-0.1-0.1-0.1,0-0.1,0.1C383.7,164,383.6,164.4,383.7,164.8z"/>
				<path class="st15" d="M387.5,164.9c-0.2,0-0.3,0.2-0.2,0.3c0.2,0.4,0.4,0.7,0.7,1.1c0,0.1,0.1,0,0.1,0c0.4-0.4,0.6-0.8,0.7-1.3
					c0,0,0-0.1-0.1-0.1C388.3,164.9,387.9,164.9,387.5,164.9z"/>
				<path class="st15" d="M386.7,167c0.2,0,0.5-0.1,0.7-0.2c0.1,0,0.1-0.1,0-0.2c-0.2-0.3-0.5-0.6-0.7-0.9c-0.1-0.2-0.3-0.1-0.4,0.1
					c-0.1,0.4-0.3,0.8-0.4,1.1c0,0.1,0,0.1,0.1,0.1C386.2,167.1,386.5,167.1,386.7,167z"/>
				<path class="st15" d="M385.5,162c-0.5,0.2-1,0.5-1.3,1c0.4,0.2,0.8,0.4,1.2,0.6c0.2,0.1,0.3,0,0.3-0.2
					C385.6,162.9,385.6,162.4,385.5,162C385.5,162,385.5,162,385.5,162z"/>
				<path class="st15" d="M386.2,164.1c-0.2,0-0.4,0.3-0.4,0.4c0,0.2,0.3,0.5,0.5,0.4c0.2,0,0.4-0.4,0.3-0.6
					C386.7,164.2,386.4,164,386.2,164.1z"/>
			</g>
		</g>
	</g>
</g>
</svg>
