<?xml version="1.0" encoding="utf-8"?>
<!-- Generator: Adobe Illustrator 22.0.0, SVG Export Plug-In . SVG Version: 6.00 Build 0)  -->
<svg version="1.1" id="Layer_1" xmlns="http://www.w3.org/2000/svg" xmlns:xlink="http://www.w3.org/1999/xlink" x="0px" y="0px"
	 viewBox="0 0 585.3 375.3" style="enable-background:new 0 0 585.3 375.3;" xml:space="preserve">
<style type="text/css">
	.st0{clip-path:url(#SVGID_2_);fill:#FFFFFF;}
	.st1{fill:#01302E;}
	.st2{fill:#00999E;stroke:#00999E;stroke-miterlimit:10;}
	.st3{fill:none;stroke:#00999E;stroke-width:4;stroke-miterlimit:10;stroke-dasharray:7;}
	.st4{fill:none;stroke:#00999E;stroke-width:4;stroke-miterlimit:10;}
	.st5{fill:#00999E;}
</style>
<g>
	<g>
		<defs>
			<rect id="SVGID_1_" x="0.6" y="-22.5" width="584.5" height="397.7"/>
		</defs>
		<clipPath id="SVGID_2_">
			<use xlink:href="#SVGID_1_"  style="overflow:visible;"/>
		</clipPath>
		
			<rect x="-71.7" y="65.6" transform="matrix(0.9809 -0.1944 0.1944 0.9809 -55.7324 53.6418)" class="st0" width="634.2" height="490.3"/>
	</g>
	<g>
		<path class="st1" d="M191.4,202c0.4,2,0.4,4,0,6c-0.4,2-1.1,3.8-2.2,5.4c-1.1,1.6-2.4,3-4.1,4.2c-1.7,1.2-3.5,2-5.5,2.4l-11.8,2.5
			c-2,0.4-4,0.4-6,0c-2-0.4-3.8-1.1-5.4-2.2c-1.6-1.1-3-2.4-4.2-4.1c-1.2-1.7-1.9-3.5-2.4-5.5l-3.3-16c-0.4-2-0.4-4,0-6
			c0.4-2,1.1-3.8,2.2-5.4c1.1-1.6,2.4-3,4.1-4.2c1.7-1.2,3.5-1.9,5.5-2.4l11.8-2.5c2-0.4,4-0.4,6,0c2,0.4,3.8,1.1,5.4,2.2
			c1.6,1.1,3,2.4,4.2,4.1c1.2,1.7,2,3.5,2.4,5.5L191.4,202z M156,180.8c-2.3,1.7-4.1,3.7-5.3,6c-1.2,2.3-1.5,4.7-1,7.1l3.3,16
			c0.5,2.4,1.8,4.5,3.8,6.2c2,1.7,4.4,2.8,7.2,3.4L156,180.8z M167.3,219.2l11.7-2.4c1.6-0.3,3.1-1,4.4-1.9c1.3-0.9,2.4-2,3.2-3.3
			c0.8-1.3,1.4-2.7,1.7-4.2c0.3-1.5,0.3-3.1,0-4.7l-3.3-16c-0.3-1.6-0.9-3-1.8-4.3c-0.9-1.3-2-2.4-3.3-3.2c-1.3-0.8-2.7-1.4-4.2-1.8
			c-1.6-0.3-3.1-0.4-4.8,0l-11.7,2.4L167.3,219.2z"/>
		<path class="st1" d="M211.8,179.3c2.1-0.4,4.1-0.4,6.1,0c2,0.4,3.8,1.2,5.5,2.3c1.7,1.1,3.1,2.5,4.3,4.1c1.2,1.7,2,3.5,2.4,5.6
			l0.5,2.2c0.4,2.1,0.4,4.1,0,6.1c-0.4,2-1.2,3.8-2.3,5.5c-1.1,1.7-2.5,3.1-4.1,4.3c-1.7,1.2-3.5,2-5.6,2.4l-6.6,1.4l-6.1-29.3
			c-2,0.4-3.7,1.4-4.9,3c-1.2,1.6-1.6,3.3-1.3,5l8.1,39l-3.2,0.7l-8.1-39c-0.6-2.7-0.1-5.2,1.4-7.5c1.5-2.3,3.6-3.7,6.3-4.3
			L211.8,179.3z M227,192.1c-0.3-1.6-1-3.1-1.9-4.4c-0.9-1.3-2.1-2.4-3.4-3.3c-1.3-0.9-2.8-1.5-4.3-1.8c-1.6-0.3-3.2-0.3-4.8,0
			l-3.2,0.7l5.4,26.1l3.2-0.7c1.6-0.3,3.1-1,4.4-1.9c1.3-0.9,2.4-2.1,3.3-3.3c0.9-1.3,1.5-2.7,1.8-4.3c0.3-1.6,0.3-3.2,0-4.8
			L227,192.1z"/>
		<path class="st1" d="M249.8,171.4c2.1-0.4,4.1-0.4,6.1,0c2,0.4,3.8,1.2,5.5,2.3c1.7,1.1,3.1,2.5,4.3,4.1c1.2,1.7,2,3.5,2.4,5.6
			l0.9,4.4l-21.8,4.5l-3.4-16.3c-2,0.4-3.7,1.4-4.9,3c-1.2,1.6-1.6,3.3-1.3,5l2.7,13.1c0.4,1.8,1.3,3.1,2.9,4.2c1.6,1,3.2,1.3,5,1
			l22.8-4.8l0.7,3.2l-22.8,4.8c-2.7,0.6-5.2,0.1-7.5-1.4c-2.3-1.5-3.7-3.6-4.3-6.3l-2.7-13.1c-0.6-2.7-0.1-5.2,1.4-7.5
			c1.5-2.3,3.6-3.7,6.3-4.3L249.8,171.4z M265.2,185.3c-0.4-1.8-1.1-3.5-2-4.9c-1-1.5-2.1-2.7-3.5-3.6c-1.3-1-2.8-1.6-4.4-2
			c-1.6-0.4-3.2-0.4-4.8-0.1l-3.2,0.7l2.7,13.1L265.2,185.3z"/>
		<path class="st1" d="M280.8,168.4c-1.8,0.4-3.2,1.3-4.2,2.9c-1,1.6-1.3,3.2-1,5l4.8,22.8l-3.2,0.7l-4.8-22.8
			c-0.6-2.7-0.1-5.2,1.4-7.5c1.5-2.3,3.6-3.7,6.3-4.3l11.1-2.3c2.8-0.6,5.3-0.1,7.5,1.4c2.3,1.5,3.7,3.6,4.2,6.3l4.8,22.8l-3.2,0.7
			l-4.8-22.8c-0.4-1.8-1.3-3.1-2.9-4.2c-1.6-1-3.2-1.3-5-1l-6.5,1.4l6.1,29.3l-3.5,0.7l-5.9-28.2L280.8,168.4z"/>
		<path class="st1" d="M320.1,146.3l2.7,12.8l19.3-4l0.7,3.2l-19.3,4l4.9,23.4l19.3-4l0.7,3.2l-34.3,7.2l-9.6-45.9l34.3-7.2l0.7,3.2
			L320.1,146.3z M316.8,147l-8.5,1.8l8.2,39.4l8.5-1.8L316.8,147z"/>
		<path class="st1" d="M347.3,147.3c-0.3-1.4-0.3-2.7,0-4c0.3-1.3,0.7-2.5,1.4-3.5c0.7-1,1.6-1.9,2.6-2.7c1-0.7,2.2-1.3,3.6-1.5
			l15.5-3.2c2.7-0.6,5.2-0.1,7.4,1.4c2.2,1.5,3.7,3.6,4.2,6.3c0.5,2.5-0.1,5.3-2,8.4c3,1,5.6,2.5,7.7,4.5c2.1,2,3.5,4.5,4.1,7.3
			c0.4,2,0.4,4,0,6c-0.4,2-1.1,3.8-2.2,5.4c-1.1,1.6-2.4,3-4.1,4.2c-1.7,1.2-3.5,2-5.6,2.4l-25.2,5.2L347.3,147.3z M357.8,138.4
			l-2.2,0.5c-1.8,0.4-3.1,1.3-4.1,2.8c-1,1.5-1.3,3.2-0.9,4.9l6.9,33l8.6-1.8L357.8,138.4z M373.8,148.5c1.8-0.4,3.1-1.3,4.1-2.8
			c1-1.5,1.3-3.1,0.9-4.9c-0.4-1.8-1.3-3.1-2.8-4.1c-1.5-1-3.1-1.3-4.9-0.9l-10.1,2.1l2.7,12.8L373.8,148.5z M379.4,175.1
			c1.6-0.3,3.1-1,4.4-1.9c1.3-0.9,2.4-2,3.2-3.3c0.8-1.3,1.4-2.7,1.8-4.2c0.4-1.5,0.4-3.1,0-4.7c-0.3-1.6-1-3.1-1.9-4.3
			c-0.9-1.3-2-2.3-3.3-3.2c-1.3-0.9-2.7-1.5-4.2-1.8c-1.5-0.3-3.1-0.3-4.8,0l-10.1,2.1l4.9,23.4L379.4,175.1z"/>
		<path class="st1" d="M412,171.6c-1.6,0.3-3.1,0.3-4.6,0c-1.5-0.3-2.9-0.9-4.3-1.7c-1.3-0.8-2.5-1.8-3.5-3c-1-1.2-1.8-2.5-2.3-4
			l3.2-0.7c0.7,2.3,2.1,4.1,4.1,5.2c2.1,1.1,4.3,1.4,6.7,0.9l10.6-2.2l-3.8-18.1l-10.1,2.1c-1.7,0.4-3.3,0.4-5,0
			c-1.6-0.3-3.1-0.9-4.5-1.8c-1.3-0.9-2.5-2-3.5-3.4c-1-1.4-1.6-2.9-2-4.6c-0.4-1.7-0.4-3.3,0-5c0.3-1.6,0.9-3.1,1.8-4.5
			c0.9-1.3,2-2.5,3.4-3.5c1.4-1,2.9-1.6,4.6-2l12.9-2.7c1.5-0.3,3-0.3,4.5,0c1.5,0.3,2.9,0.9,4.2,1.7c1.3,0.8,2.5,1.8,3.5,3
			c1,1.2,1.8,2.5,2.3,3.9l-3.2,0.7c-0.7-2.3-2-4-4-5.1c-2-1.1-4.2-1.5-6.6-1l-9.3,1.9l3.8,18.1l10.1-2.1c1.7-0.4,3.3-0.4,4.9,0
			c1.6,0.3,3.1,1,4.4,1.8c1.3,0.9,2.5,2,3.5,3.4c1,1.4,1.6,2.9,2,4.6c0.4,1.7,0.4,3.4,0,5c-0.3,1.6-0.9,3.1-1.8,4.5
			c-0.9,1.3-2,2.5-3.3,3.4c-1.3,0.9-2.8,1.6-4.5,1.9L412,171.6z M402.8,129.1c-2.3,0.7-4,2.1-5.3,4.1c-1.3,2.1-1.7,4.3-1.2,6.6
			c0.2,1.2,0.7,2.2,1.4,3.1c0.7,0.9,1.6,1.7,2.6,2.4c1,0.6,2.2,1.1,3.4,1.4c1.3,0.3,2.6,0.4,3.9,0.3l-3.6-17.2L402.8,129.1z
			 M426.3,165.3c2.2-0.7,4-2.1,5.2-4.2c1.2-2,1.6-4.2,1.1-6.6c-0.5-2.4-1.8-4.2-4-5.6c-2.2-1.4-4.5-1.9-7.2-1.6l3.6,17.2
			L426.3,165.3z"/>
		<path class="st2" d="M162.2,253.3l9.3,44.6l-3.4,0.7l-10-48l15.8-3.3l3.5,16.8l22.4-4.7l-3.5-16.8l3.4-0.7l10,48l-3.4,0.7
			l-5.8-27.8l-22.4,4.7l5.8,27.8l-3.4,0.7l-9.3-44.6L162.2,253.3z"/>
		<path class="st2" d="M231.7,285.3c-2.2,0.5-4.3,0.5-6.4,0.1c-2.1-0.4-4-1.2-5.7-2.3c-1.8-1.1-3.2-2.6-4.4-4.3
			c-1.2-1.7-2-3.7-2.5-5.9l-1-4.6l22.8-4.8l3.5,17c2.1-0.4,3.8-1.5,5.1-3.2c1.3-1.7,1.7-3.4,1.3-5.3l-2.9-13.7
			c-0.4-1.8-1.4-3.3-3-4.4c-1.6-1.1-3.4-1.4-5.2-1l-23.9,5l-0.7-3.4l23.9-5c2.8-0.6,5.4-0.1,7.8,1.5c2.4,1.6,3.9,3.8,4.5,6.6
			l2.9,13.7c0.6,2.8,0.1,5.4-1.5,7.8c-1.6,2.4-3.8,3.9-6.6,4.5L231.7,285.3z M215.8,271c0.4,1.8,1.1,3.5,2.1,5
			c1,1.5,2.2,2.7,3.5,3.7c1.4,1,2.9,1.7,4.5,2.1c1.7,0.4,3.4,0.4,5,0.1l3.4-0.7l-2.8-13.5L215.8,271z"/>
		<path class="st2" d="M280.8,249.1c-0.6-1.6-1.7-2.8-3.1-3.6c-1.5-0.8-3-1.1-4.6-0.7l-8,1.7l5.7,27.3l8-1.7c1.6-0.3,2.9-1.2,4-2.5
			c1-1.4,1.5-2.8,1.5-4.5l3.6-0.8c0.3,2.7-0.4,5.1-1.9,7.2c-1.6,2.1-3.7,3.4-6.4,4l-13.7,2.9c-2.8,0.6-5.4,0.1-7.8-1.5
			c-2.4-1.6-3.9-3.8-4.5-6.6l-2.9-13.7c-0.6-2.8-0.1-5.4,1.5-7.8c1.6-2.4,3.8-3.9,6.6-4.5l13.7-2.9c2.7-0.6,5.2-0.2,7.4,1.2
			c2.3,1.3,3.8,3.3,4.6,5.8L280.8,249.1z M261.7,247.1l-2.3,0.5c-1.8,0.4-3.3,1.4-4.4,3c-1.1,1.6-1.4,3.4-1,5.2l2.9,13.7
			c0.4,1.8,1.4,3.3,3,4.4c1.6,1.1,3.4,1.4,5.2,1l2.3-0.5L261.7,247.1z"/>
		<path class="st2" d="M313.8,236.2c-1.5,0.5-2.9,1.3-4.1,2.4c-1.2,1-2.2,2.2-3,3.5c-0.8,1.3-1.3,2.8-1.6,4.3
			c-0.3,1.6-0.3,3.1,0,4.7l0.5,2.3c0.3,1.6,0.9,3,1.8,4.3c0.9,1.3,2,2.4,3.2,3.3c1.3,0.9,2.6,1.6,4.2,2c1.5,0.5,3.1,0.6,4.7,0.5
			l0.7,3.4c-2,0.3-4,0.2-6.1-0.5c-2.1-0.6-4.2-1.6-6.5-2.8l1.2,5.6l-3.4,0.7l-9.3-44.7c-2.2,0.5-3.9,1.5-5.2,3.2
			c-1.2,1.7-1.7,3.4-1.3,5.3l7.9,37.9l-3.4,0.7l-7.9-37.9c-0.6-2.8-0.1-5.4,1.4-7.8c1.5-2.4,3.7-3.9,6.6-4.5l4.5-0.9l4.1,19.6
			c1.5-1.9,3.1-3.6,4.8-5c1.7-1.4,3.5-2.4,5.4-2.9L313.8,236.2z"/>
		<path class="st2" d="M320.7,219.7c1.6-2.4,3.8-3.9,6.6-4.5l13.5-2.8l0.7,3.4l-8.9,1.9l2.2,10.6l8.9-1.9l0.7,3.4l-8.9,1.9l6.4,30.7
			l-3.5,0.7l-9.3-44.7c-2.1,0.4-3.8,1.5-5.1,3.2c-1.3,1.7-1.7,3.4-1.3,5.3l7.9,37.9l-3.4,0.7l-7.9-37.9
			C318.6,224.7,319.1,222.1,320.7,219.7z"/>
		<path class="st2" d="M366.9,221.6c2.2-0.5,4.3-0.5,6.4,0c2.1,0.5,4,1.3,5.8,2.4c1.8,1.1,3.3,2.6,4.5,4.3c1.2,1.7,2.1,3.7,2.6,5.9
			l1,4.6l-22.8,4.8l-3.6-17.1c-2.1,0.4-3.8,1.5-5.1,3.2c-1.3,1.7-1.7,3.4-1.3,5.3l2.9,13.7c0.4,1.8,1.4,3.3,3,4.4
			c1.6,1.1,3.4,1.4,5.2,1l23.9-5l0.7,3.4l-23.9,5c-2.8,0.6-5.4,0.1-7.8-1.5c-2.4-1.6-3.9-3.8-4.5-6.6l-2.9-13.7
			c-0.6-2.8-0.1-5.4,1.5-7.8c1.6-2.4,3.8-3.9,6.6-4.5L366.9,221.6z M383,236.1c-0.4-1.9-1.1-3.6-2.1-5.1c-1-1.5-2.2-2.8-3.6-3.8
			c-1.4-1-2.9-1.7-4.6-2.1c-1.7-0.4-3.4-0.4-5-0.1l-3.4,0.7l2.9,13.7L383,236.1z"/>
		<path class="st2" d="M403.6,249.5c-2.1,0.4-4,0.1-6-1c-1.9-1.1-3.3-2.7-4-4.7l3.4-0.7c0.5,1.1,1.3,2,2.4,2.6
			c1,0.6,2.2,0.7,3.5,0.4l11-2.3l-2.5-11.9l-9.8,2c-2.6,0.5-5,0.1-7.2-1.3c-2.2-1.4-3.6-3.4-4.1-6.1c-0.5-2.6-0.1-5,1.4-7.3
			c1.5-2.2,3.5-3.6,6.1-4.2l14.3-3c2.1-0.4,4.1-0.1,6,1c1.9,1.1,3.2,2.7,3.9,4.8l-3.4,0.7c-0.5-1.2-1.2-2-2.3-2.6
			c-1.1-0.6-2.3-0.7-3.5-0.5l-9.9,2.1l2.5,12l9.9-2.1c1.3-0.3,2.5-0.3,3.8,0c1.2,0.3,2.4,0.7,3.4,1.4c1,0.7,1.9,1.5,2.6,2.5
			c0.7,1,1.2,2.1,1.5,3.4c0.3,1.3,0.3,2.5,0,3.8c-0.3,1.3-0.7,2.4-1.4,3.4c-0.7,1-1.5,1.9-2.6,2.6c-1,0.7-2.2,1.2-3.5,1.5
			L403.6,249.5z M399.5,218.4c-1.9,0.4-3.4,1.3-4.6,2.8c-1.2,1.5-1.6,3.1-1.2,4.7c0.3,1.6,1.3,2.9,3,3.7c1.7,0.9,3.4,1.1,5.4,0.7
			L399.5,218.4z M417.4,243.1c1.9-0.4,3.4-1.3,4.5-2.8c1.1-1.5,1.5-3,1.1-4.7c-0.3-1.6-1.3-2.9-2.9-3.7c-1.6-0.9-3.3-1.1-5.2-0.7
			L417.4,243.1z"/>
		<path class="st2" d="M441.3,206.1l5.9-1.2l0.7,3.4l-5.9,1.2l4.3,20.5c0.3,1.6,1.2,2.9,2.5,4c1.4,1,2.8,1.5,4.5,1.6l0.7,3.5
			l-10.1,2.1c-3,0.5-5.7-0.1-8-1.6c-2.4-1.5-3.8-3.7-4.4-6.4l-7.9-37.9l3.5-0.7l2.9,14l7.9-1.6l-2.9-14l3.4-0.7L441.3,206.1z
			 M445.3,235.5c-1.3-1.5-2.1-3.1-2.4-4.8l-4.3-20.5l-7.9,1.6l4.3,20.5c0.4,1.8,1.4,3.3,3,4.4c1.6,1.1,3.3,1.4,5.1,1l3.4-0.7
			L445.3,235.5z"/>
	</g>
	<polyline class="st3" points="477.4,12.9 537.1,303 424.5,327.7 	"/>
	<polyline class="st3" points="416.4,27.2 426.2,70.9 106.8,137.9 149,348.8 	"/>
	<polyline class="st4" points="445.8,21.1 494,268.2 268,318.7 	"/>
	<line class="st4" x1="68.8" y1="94.8" x2="95.8" y2="236.3"/>
	<line class="st4" x1="37.3" y1="102.4" x2="75" y2="311"/>
	<line class="st3" x1="33.1" y1="248.3" x2="9.1" y2="108"/>
	<circle class="st4" cx="410.5" cy="331.2" r="6.8"/>
	<circle class="st4" cx="151.5" cy="359.8" r="6.8"/>
	<circle class="st4" cx="78" cy="326.1" r="6.8"/>
	<circle class="st5" cx="254.5" cy="321" r="5.3"/>
	<circle class="st5" cx="99.2" cy="249.2" r="5.3"/>
	<circle class="st5" cx="35.1" cy="259.3" r="5.3"/>
</g>
</svg>
