<svg id="Layer_1" data-name="Layer 1" xmlns="http://www.w3.org/2000/svg" viewBox="0 0 254 255"><defs><style>.cls-1{fill:none}.cls-2{fill:#4f2403}.cls-3{fill:#24605e}.cls-4{fill:#62b2b2}.cls-5{fill:#ff4b00}.cls-6{fill:#f8f7f5}.cls-7{fill:#e6ac92}.cls-8{fill:#fdbf5e}.cls-9{fill:#c68d77}.cls-10{fill:#654237}.cls-11{fill:#f85e51}.cls-12{fill:#ce957e}.cls-13{fill:#a3be92}.cls-14{fill:#dcb605}.cls-15{fill:#2d1515}.cls-16{fill:#d3e8f5}.cls-17{fill:#bf6b26}.cls-18{fill:#ef8813}.cls-19{fill:#7c9b62}.cls-20{fill:#25829f}.cls-21{fill:#060c0c}.cls-22{fill:#37a9bc}.cls-23{clip-path:url(#clip-path)}</style><clipPath id="clip-path"><path class="cls-1" d="M357 147.6h720v275.8H357z"/></clipPath></defs><title>openebs hacktober section</title><path class="cls-2" d="M216.6 90.7l8.2 8.9s6.8-11 2.7-17.1v-.7zm14.4 19.8c1.4-3.7 6.8-12.1 7.4-16a52.6 52.6 0 0 0-1.5-23.7c2.8-3.5 5-7.3 5.5-12a1.6 1.6 0 0 1 .9-1.2 44 44 0 0 1-.3 43.4 125.8 125.8 0 0 1-9.3 13c-1.3-.7-1.2-3.3-2.7-3.5zm-66.7 114.3c.8-.9 1.9.1 2.8-.3 2.5 2 4.6 4.5 7.2 6.4a42.4 42.4 0 0 0 30.4 6.5c1.3-.1 1-.7.4-1.4a16.1 16.1 0 0 1-3.7-8c-.2-1.6-1-1.8-2.2-1.7a29.5 29.5 0 0 1-12.9-1.8c-4-1.7-7.8-3.8-10.1-7.8 3-2.5 5.3-5.7 8.4-8L201 224l.8-5.6c-1.7.3-2.2 1.8-3.5 2.7.2-3.6 3-5.6 5-8.4-1.5 0-2 1.3-3.2 1.1a2.8 2.8 0 0 1 .8-1.5c2.4-3 5.7-5 8-8.2a6.5 6.5 0 0 1 3.6-2.7h.1l-1 2.6-.1.3.2-.2 2.5-1.9a9 9 0 0 1 5.4-2.4c-1 1.3-2.6 1.7-2.6 3.5 8-2.2 14.4.5 19.9 6.5a41 41 0 0 0 4.7-24.2l3.4-.7a45 45 0 0 1-29.6 65.4 45 45 0 0 1-51-25.5zM72.9 242l13-7-9.6-2-3.4 9z"/><path class="cls-2" d="M225.7 161s18.6 18.9 22.9 32.8l-14.2-4.6-12.2-18.5z"/><path class="cls-3" d="M18.4 134C18 95.2 89.9 24.8 128.7 25s113.1 71.1 109 109.5c-4.1 37.9-70 110.8-107.9 107.3C91.1 238.3 19 172.7 18.5 134z"/><path class="cls-2" d="M74.8 237.5l-1.2 4.2a51.5 51.5 0 0 1-19 5.7 45 45 0 1 1-27-83.2c2-1.2 4-2.5 6.4-3 .8 1-.3 1.2-.6 1.6a42.1 42.1 0 0 0-7.4 36.9 3.4 3.4 0 0 1-.6 1.6 19 19 0 0 0-.7 16.7c.7 1.7 1 2.5-1.4 2.7-4.2.3-5.5 2.6-4.2 6.5 2-2.2 2.3-2.1 4.2.4l2.1 2.8c2.8 3.2 5.1 3.3 8 0a1.7 1.7 0 0 1 2.4-.6 18.1 18.1 0 0 0 17.2-.6c.5-.2 1-.7 1.6-.3a57.7 57.7 0 0 0 20.2 8.6z"/><path class="cls-4" d="M26 199.7a41.8 41.8 0 0 1 7.3-37c.3-.3 1.5-.5.6-1.4 5-3.4 10-7 15.2-10.2l10-4c.8-.4 1.6-1 2.5-.3a23.3 23.3 0 0 0 3.5 8.8c0 1.2-.7 1.6-1.7 2a76.7 76.7 0 0 0-11.7 5.3 28.4 28.4 0 0 0-12.9 12.6c-.3.8-.8 1.5-1 2.2a33.4 33.4 0 0 0-1.5 14.9l-2.8.8c-3.3 1-5.2 4-7.5 6.3zM162 47.8c.6-2.2 2.7-2.9 4.3-4.2 1.3-1.1 3.2-1.6 4-3.3 1.3 0 2.2-.7 3.3-1.2a31 31 0 0 1 15.8-2.7l4.2 1.1c6 1.7 11.2 5 16.5 8.2-.4 1.3-1.5 2.2-2.2 3.3a21 21 0 0 0-4.4 11.2c-.3 9.1 9.8 18.5 19.4 18 5.9-.2 10.1-3.4 14-7.4a52.6 52.6 0 0 1 1.5 23.6c-.6 4-2.3 7.6-3.8 11.3-3.2 4.7-6.8 9-11.6 12.4a84 84 0 0 1-20.1 9.7 2 2 0 0 1-1.7 0c-1-3-1.6-6.3-3.4-9 0-1.4 1-1.5 1.9-1.9 2.6-1 5.4-1.7 7.8-3.4 13.5-3.5 24-20.7 19.8-31.5l-7.8 7c-1-.2-1.6-1-2.3-1.7l-20.4-20.6a5.2 5.2 0 0 0-2.1-1.6l-.1-.6 8.2-8.4c.8-.7.6-1.1-.2-1.6a48.4 48.4 0 0 0-11.9-6c-3.8-1-7.7-1.4-11.3.8-3.4.7-5.9 3-8.5 4.9a3.7 3.7 0 0 1-2.6 1z"/><path class="cls-5" d="M212.4 201.4a6.5 6.5 0 0 0-3.7 2.7c-2.2 3.2-5.6 5.2-8 8.2a2.8 2.8 0 0 0-.8 1.5l-.3.5.3.1v-.5c1.2.2 1.8-1.1 3.2-1.1-1.8 2.7-4.7 4.7-5 8.3 1.3-.9 1.9-2.4 3.6-2.7l-.8 5.6-13-12.2c.6-1.3 20.4-27.3 21.4-27.4l14.3 14.6c4 4 4.3 4 6-1.6 3.2-11-1.6-17.7-13-21-1-.8-2.4-1-3.6-1.6-.7-.3-1.5-.6-1.7-1.5 1.7-2.8 2.2-6 3-9.2 1.7-1.3 3.1.2 4.5.6a45.3 45.3 0 0 1 14.2 7.6 24.9 24.9 0 0 1 8.5 13.3c1.3 8.6-1 16.4-4.7 24.3-5.5-6-11.8-8.8-20-6.6 0-1.8 1.8-2.2 2.7-3.5a9 9 0 0 0-5.4 2.5l-2.5 1.9-.1-.2 1-2.5a.8.8 0 0 0 .8-.5l.1-.2v.2a.8.8 0 0 0-1 .4z"/><path class="cls-6" d="M148 111.5c-1.2-5.5-3.3-10.7-5-16-1.1-3.8-2.3-7.4-3.5-11-.5-1.3-.4-2 1-2.4q9.9-3 19.7-6.3c1.4-.5 1.8 0 2.2 1.3l4.1 12.9a10.9 10.9 0 0 0 1.6 3.6 2.5 2.5 0 0 0 .6 1.7 3.7 3.7 0 0 0 .3 2.3c.9 2.7 1.7 5.4 2.7 8 .5 1.6.1 2.3-1.5 2.8l-8.1 2.7a62.8 62.8 0 0 0-9.7 3c-2 .8-3.5.8-4-1.7zm17.2-12.9c0-.6.2-1.4-.7-1.6s-.9.9-1.4 1.2c-1.5.3-.8 2.5-2.3 2.7-.5 0-1.2 0-1.3-.6-.3-2.7-1.6-1.3-2.7-.8a2.7 2.7 0 0 0-2.3.9c-1 0-2.2-.1-3 .9-1 .1-2.2-.4-2.4 1.2 1.1 0 1.6-.7 2.3-1.2 1.8.6 1.8 1 0 2.6-.5.2-1-1-1.7 0s.6.9.5 1.2c-.2 1.3 1.5 2.3 1 3.4s0 .8.6 1.1c1.9.8 2.4-1.5 4-1.6.3 0 0-.4-.3-.6-.6-.4-1-1-.4-1.6s1.4.1 1.7.7c.6 1.3 1.2 2 2.3.5a1.3 1.3 0 0 1 1.7-.2.9.9 0 0 1 .2 1.3c-.4.6-.2.8.3 1s.7.3 1 0 .5-.7 0-1.2c-1-1-.9-2.2.5-2 1.6.2 2-.7 2.8-1.5.5-.3 1.8.7 1.6-.5-.2-1.8-.5-3.8-2-5.3zM155 95v-.4l7.4-2.6c.5-.1 1.6 0 .7-1.1a1.3 1.3 0 0 0-.2-.4l.1-.9-.6-.4c.4-1.3-.6-.8-1.1-.8v-.8c.2-.2.6-.3.6-.5.2-.6-.3-.6-.7-.5l-2.7.9-12.3 4c-.4.1-1 .1-.8.8l.7.2v.8a.6.6 0 0 0 0 1v.9l.4.5.2.5c0 .4 0 .7.3.8l.1.6c0 .3.1.7.4.7a44.4 44.4 0 0 0 7.7-2.4c.5-.3.2-.7-.2-.9zm5.7-12.3c-.3-.7-.1-2-1.9-1.5l-14.1 4.6c-1 .3-1.4.7-1 1.8s.8 1.4 2 1l13.8-4.4c.7-.2 1.4-.4 1.2-1.5zm-18 1.3a92 92 0 0 0 16.5-5.4 88.5 88.5 0 0 0-16.5 5.4zm12.1 26.9c-1.2-.3-2-.4-2.4.5-.1.3 0 .7.3.7 1 .1 1-1 2.1-1.2zm11.3-4c.7-.1 1.5 1 2 0a1 1 0 0 0-.2-1c-.8-.2-1 1-1.8 1zm-9.3 3.3c0-.6-.5-.5-.8-.6-.5 0-.6.3-.6.7s.2.7.7.5a3 3 0 0 0 .8-.5zm3.6-11.7l.4-.1-.1-.1a2.2 2.2 0 0 0-.4 0z"/><path class="cls-2" d="M216.5 176.4c11.4 3.3 16.3 10 13 21-1.7 5.5-2 5.6-6 1.6l-14.3-14.6c.8-2 2.7-3 4-4.6l3.3-3.4z"/><path class="cls-7" d="M208.3 171.8a16.4 16.4 0 0 0-8.7-.4c-2.6.5-5.3-.3-7.9-.7-1-.2-1.2-.6-.7-1.4.7-1 0-1.4-.8-1.7l-6-2.1c-1.2-.4-2-1-1.6-2.2s1.4-1.1 2.4-.8l2.1.8c3.3 1.1 4 .8 5.3-2.6s2.5-3.8 5.9-2.6c2.9 1 5.9 1.8 8.2 4.2a4.5 4.5 0 0 0 4 1 4.7 4.7 0 0 1 2.8.6c-3.4.3-3.4.3-4 3.8-.2 1.4-1.1 2.6-1 4zm-11.1-44a8.1 8.1 0 0 0-5.4 2c-2.5 2.1-6 2-9 3.3a1.3 1.3 0 0 1-1-.4c.3-2.4-3-1.7-3-3.2 0-1 0-1.5-1-2.1s-.7-1.7.5-2.1l3.3-.8h-6c-1.2.1-2.5.4-2.7-1s1.3-1.3 2.2-1.4c3.6-.7 7.3 0 11.3-1l-3.2-1.6c-1-.5-1.9-1.2-1.3-2.5s1.6-.4 2.3 0c2.8 1.2 5.9 2 8.6 3.5.6.4 1.4.5 1.8-.4a1 1 0 0 1 1.3-.6 3.6 3.6 0 0 0-.4 4l1.7 4.3zm-35 55.3a13.3 13.3 0 0 0 1.4 9.3c-2-.8-3.5.5-5.3.8-2 .4-3.2 1.4-3 3.6-1.2-1.2-.4-2.7-.6-4-.5-3-3.2-4.4-4.2-6.9l-2.2-5.8c-.5-1.2-.2-2 1-2.7a25.1 25.1 0 0 0 6.2-4.8c1.1-1.4 2.2-.7 3.2 1.8z"/><path class="cls-8" d="M187.4 150.7a350 350 0 0 1 20.5-6.3l.5 2.3-20.5 6.2zm9.8-22.9c-.5-1.4-1-2.8-1.7-4.2a3.6 3.6 0 0 1 .4-4c.8 0 1.2-.8 1.9-.9 1.8 2.8 2.4 6 3.4 9-1.4 0-2.7 2.2-4 .1zm11.1 44c0-1.5.8-2.7 1-4 .6-3.6.6-3.6 4-3.9l.8.1c-.7 3.2-1.3 6.5-3 9.3l-2.3-.8-.5-.4a.6.6 0 0 1 0-.3z"/><path class="cls-9" d="M162.2 183.1l-3.5-8.7c1.6-.8 2.7-.2 3.4 1.3-.4 2.5 1.2 5 .1 7.4z"/><path class="cls-10" d="M208.4 146.7l-.5-2.3c.6-.6 1.4-.3 2.1-.4l.2 1.7a1.8 1.8 0 0 1-1.8 1z"/><path class="cls-7" d="M187.4 150.7l.5 2.2c-.8 0-1.8.5-2.1-.5s.7-1.4 1.6-1.7zm22.8-5l-.2-1.6c.8-.9 1.6-.6 1.8.3.3 1.3-.7 1.4-1.6 1.3z"/><path class="cls-10" d="M145.6 114.5l.4-.3zm.4-.5l.4-.3z"/><path class="cls-7" d="M208.4 172l.4.4z"/><path class="cls-10" d="M147 113.2l.3-.4z"/><path class="cls-2" d="M14 77.3A45 45 0 0 1 39.2 4.6a45.2 45.2 0 0 1 53.3 34.1 3.1 3.1 0 0 1 0 .7 22.7 22.7 0 0 1-5.5-3.5A29.1 29.1 0 0 0 76.6 31c-5.6-1.4-11.2-1-16.8-.8-3.8-12.2-23.2-17-32.5-5.5a6.3 6.3 0 0 1-1.3 1.2 15.8 15.8 0 0 0-7.3 15.9c.9 7.6 4.1 13.7 11.8 16.6 1.5.5 3.1.8 4.7 1.2a45 45 0 0 0 3.2 14.2c1.3 3.4 3.4 6.4 5 9.6a37.2 37.2 0 0 0-6.1 6c-2.6 3.1-7.5 1.4-8.5-1.8a31 31 0 0 0-2-4.4c-2.1-4.2-5.4-6.3-10.2-6l-2.7.1z"/><path class="cls-11" d="M59.8 30.2c5.6-.2 11.2-.6 16.7.8a29.1 29.1 0 0 1 10.6 4.9 22.7 22.7 0 0 0 5.5 3.5c1.8 2.1 2.3 5 3.9 7.2.9 1.2 1.6 2.6 2.4 3.9.6 3.1 2.4 5.8 3.1 8.9a33.6 33.6 0 0 0 1.1 3.6c.3.7-.4 1-.6 1.4l-8 2a2.8 2.8 0 0 1-1-1.7 59.9 59.9 0 0 0-5-12.7c-1.6-2.9-3.3-5.7-6.5-7.3 0-1-.7-1.2-1.3-1.6a21.9 21.9 0 0 0-9.5-3.3 20.8 20.8 0 0 0-7 0L75 51.5c-3 3.4-6.4 6.5-9.6 9.7-1.2 1.3-2.8 2.3-3.5 4-2.2 1.1-3.5 3.2-5.3 4.8s-3.2 3.2-4.8 4.7a2 2 0 0 0-.2 3 87.6 87.6 0 0 0 7.9 9.6c.6.7 1.5 1.3 1 2.5-2.4 1.5-4 3.7-6 5.6-2.8-1.1-4-3.8-6-5.9s-3.3-4-5-6c-1.6-3.3-3.7-6.3-5-9.7a45 45 0 0 1-3.2-14.2l5.5-.1A19.6 19.6 0 0 0 51.3 56a19.8 19.8 0 0 1 5.4-2.9 12.8 12.8 0 0 0 7.1-5.5c-3 0-5 2.8-8.2 2.3 2.3-1.9 4.8-3.4 6.2-6.3-1.4.2-2.4 1.3-4 .9 3.6-4.5 3.5-9.3 2-14.3z"/><path class="cls-12" d="M84 144c-.1 1-.6 1.7.8 2.6 2 1.1-.3 1.8-1.2 2.8l4.4-.2c1 0 1.9 0 2 1.2s-.9 1.3-1.7 1.4l-8.4.6c-.8 0-1.8 0-2.5.7.7 1 1.9 1 2.8 1.6a1.7 1.7 0 0 1 .8 2.3c-.4 1-1.3.5-2 .3-1.6-.6-3.2-1.5-5-1.7a19.7 19.7 0 0 1-3.3-1.6c-1.3-1-2.1-.5-2.9.6a9.7 9.7 0 0 0-.6-3.4c-.4-1.5-1.4-2.8-1.2-4.4a10.6 10.6 0 0 0 4.8-2.3c2.5-2.2 6-2.3 9-3.5.6-.2 1.5.3 1.3.9-.9 2.4 1 1.4 1.9 1.6a4.3 4.3 0 0 1 1 .5z"/><path class="cls-13" d="M92.8 111.2l-1.2-1c-6-5.7-11.8-11.5-17.8-17.1-1-1-.8-1.5 0-2.3l11.9-12.3c.8-1 1.4-1 2.3-.1l17.9 17.3c.8.8.8 1.3 0 2.1l-12 12.4-1 1zm-5.2-30.8c-.8.1-1.2.7-1.6 1L77 91c-1.3 1.2-1.1 1.9 0 3q7.1 6.7 14 13.6c1 1 1.7.8 2.6-.1 3-3.3 6-6.5 9.2-9.7 1.1-1 1-1.8 0-2.8L88.6 81.3l-1.1-.8z"/><path class="cls-14" d="M70.7 121.1l.7.2.5.4a1.3 1.3 0 0 1 .1.5c-.4 3.8-.5 4-4.2 3.2L45 120.7c-3.6-.7-4-1.7-2-5.1h1.1c.6 2.9 3.5 2 5 2.3 5.8 1.5 11.9 2.3 17.7 3.8 1.3.3 2.8 1.1 3.8-.6z"/><path class="cls-8" d="M70.7 121.1c-1 1.7-2.5 1-3.8.6-5.8-1.6-11.9-2.3-17.7-3.8-1.5-.4-4.4.6-5-2.3 7.1 1 14.1 2.8 21.2 4.2a20.4 20.4 0 0 1 5.3 1.3zM66 146.8c-.2 1.6.8 3 1.3 4.3a9.7 9.7 0 0 1 .5 3.5l-2.6 1a23.3 23.3 0 0 1-3.6-8.8c1.5-.4 3-1.8 4.4 0zm6-25.1l-.6-.5c.3 0 .6 0 .5.5zm-28.6-6.2H43c.1-.4.4-.1.5 0z"/><path class="cls-15" d="M243.2 57.6a1.6 1.6 0 0 0-.8 1.3c-.5 4.6-2.7 8.4-5.5 12-3.9 4-8.1 7.2-14 7.4-9.6.4-19.7-9-19.4-18A21 21 0 0 1 208 49c.7-1.1 1.8-2 2.2-3.3 3-2.3 5.6-4.8 9.4-5.8 1.2-.3 2.7 0 3.6-1.3 1.7.7 3.5.2 5.2.6 1 .3.9-.4 1-1 .6-3.9 3.2-5.8 7.2-5.3a12.4 12.4 0 0 1 9.8 8.6c1 3.6-.3 6.3-3.8 7.5-.9.4-1.4.6-.9 1.7 1 2.1.5 4.7 1.6 7z"/><path class="cls-2" d="M223.1 38.5c-.9 1.3-2.4 1.1-3.6 1.4-3.8 1-6.5 3.5-9.4 5.8-5.3-3.1-10.5-6.5-16.5-8.2l-4.2-1a42.8 42.8 0 0 1 33.7 2zm-43.7 10.8c3.6-2.2 7.5-1.9 11.3-.8 4.3 1.3 8.1 3.6 11.9 6 .8.5 1 .9.2 1.6l-8.2 8.4z"/><path class="cls-6" d="M129.1 42.4a9 9 0 0 1 5.4-8.7 9.2 9.2 0 0 1 10 1c.7.6 1.3 1.3 2.5 1a1 1 0 0 1 1 1.4c-.7 1-.5 1.8-.3 2.7.8 3.9-.1 7.3-3.2 9.7a9.5 9.5 0 0 1-15.4-7.1zm16-.3a6.6 6.6 0 1 0-6.5 6.7 6.5 6.5 0 0 0 6.6-6.7z"/><path class="cls-5" d="M164.8 195.2a3.7 3.7 0 0 1 1.9 2.5c2 6 4.2 12 7.8 17.3a5 5 0 0 0 1.7 1.7c2.3 4 6 6.1 10.1 7.8a29.5 29.5 0 0 0 12.9 1.8c1.3 0 2 .2 2.2 1.7a16.1 16.1 0 0 0 3.7 8c.6.7.9 1.3-.5 1.4a42.5 42.5 0 0 1-30.3-6.4c-2.7-2-4.8-4.4-7.2-6.5-2-3.6-4.5-6.9-6.3-10.7a117.4 117.4 0 0 1-5.1-13.4 3.8 3.8 0 0 1-.2-2.1h.5a50.3 50.3 0 0 0 8.4-2.7z"/><path class="cls-6" d="M78.4 180.2l3.1-14.4c.1-.5.3-1 1-.9 8.2 2.3 16.4 4.1 24.7 5.7a9.2 9.2 0 0 1 1 .5c3.3 1 3.3 1 2.6 4.3q-2.2 9.4-4.2 18.9c-1.7-1.6-1.7-1.6-3.2-.6-.2-.4.6-1 0-1.4s-.7.1-.9.5-.6.5-.6 0c0-1-.4-1-1.2-1a8.2 8.2 0 0 1-3.7-.8c-1.8-1-2-.2-2 1.3l-.9-.3c.3-1 .4-1.5-1-2a12.5 12.5 0 0 0-3.4-.6c-2.2-.1-4.4-1-6.6-1.2a24.2 24.2 0 0 0-6-.1c0-1.3.8-2.5.5-3.9v-.6l.2-.1a1.8 1.8 0 0 0 0-.4h-.2l.5-1.3c.5-.4.4-1 .3-1.6z"/><path class="cls-4" d="M74.8 237.5a57 57 0 0 1-20.1-8.6 31.1 31.1 0 0 0 6.8-9.1c4 2.3 7.8 4.6 12.2 5.8 4.8 1.4 9.3 1 13.6-1.8 2.6-1 4.6-3 6.8-4.7a3.1 3.1 0 0 1 3-.9 11.5 11.5 0 0 0 6.4 7 2.7 2.7 0 0 1-.9 1.7 42 42 0 0 1-18.5 10.4 26.3 26.3 0 0 1-9.3.2z"/><path class="cls-2" d="M87.3 223.8a15.5 15.5 0 0 1-13.6 1.8c-4.4-1.3-8.3-3.6-12.2-5.8-.5-.6 0-1 .2-1.4L71 208c1 .1 1.4.9 2 1.5l14.3 14.2z"/><path class="cls-12" d="M117.2 208.1c.7-.4 1.4-.7 2 .1s0 1.4-.6 2l-7.6 7.3a4.7 4.7 0 0 1-2 1.2 5.4 5.4 0 0 0-3.5 2.7h-.5c-.8-.2-1-1.1-1.6-1.6-1.4-1.2-2.3-3-4.3-3.3a2.5 2.5 0 0 0 2-2.7 53 53 0 0 1 .9-8c0-.6 0-1.6 1-1.5s1.4.8 1.6 1.6-.3 2 .3 3c1.4-.7 1.9-2.2 2.6-3.4l3.1-4.9c.5-.7.9-1.7 2-1.1s.6 1.5.2 2.3l-.5 1a7.9 7.9 0 0 0-1.8 3l-.5.9-.1.3.3-.2.5-.8a6.4 6.4 0 0 0 2.1-2.6c.8-1 1.5-3 3-2.1s-.2 2.2-.6 3.3a3.6 3.6 0 0 0-.2.8c-.3 0-.4.2-.4.5l-.6.1.1.2.5-.3.4-.5a3.3 3.3 0 0 0 .5-.3c.8-.7 1.6-1.7 2.6-.7s-.2 1.7-.7 2.4l-.6.8a5.8 5.8 0 0 0-2.4 3 8.4 8.4 0 0 0 2.8-2.5z"/><path class="cls-13" d="M71 208.1l-9.4 10.3c.4-3.1-.4-6.2-.1-9.3.6-6.8-2.7-11.3-8.3-14.6a5.6 5.6 0 0 0-3.4-.7c-3.8.3-7.3-1.3-11-1.7l7.7-8.6c1 .1 1.6 1 2.2 1.7L62 198.4l7.5 7.7c.6.6 1.4 1.1 1.5 2z"/><path class="cls-16" d="M130.1 207.1c-4.9-1.4-7.6-4.4-8-8.6s3-9.4 7.6-10.2a9.7 9.7 0 0 1 10.8 6.2 9.5 9.5 0 0 1-4.6 11.7c-1 .5-2.1.6-2.1 2.1 0 .5-.6.7-1 .7-1.2 0-1-1.1-1.3-1.8.5-.6.3-2.9 2-.9l.7-2.3h.1c.8 0 1.6 0 1.6-1l1.1-1.2c1.8-.3 2-1.8 2-3.2.1-2 .3-4.2-1.8-5.5l-.7-.1a.2.2 0 0 1-.2-.2c-.3-2.2-2-2.4-3.6-2.5-2 0-4.2-.6-5.2 2l-1.1 1.2c-2.4.2-2.1 2.3-2.3 3.6s-.3 3.5 1.6 4.3c0 1.6.7 2.3 2.2 2.3v-.1c0 1 .7 1.3 1.5 1.4 2 0 1.8 1 .7 2.1z"/><path class="cls-8" d="M99 216.5c2 .3 2.9 2.1 4.3 3.3.6.5.8 1.4 1.6 1.6l.2 2.2-1 1a.6.6 0 0 0-.7.5 11.5 11.5 0 0 1-6.4-6.9c.3 0 .4 0 .4-.4l.8-.4a.4.4 0 0 0 .2-.2.3.3 0 0 1 .1-.2l.4-.3zm65.4-20.9a50.3 50.3 0 0 1-8.4 2.7c-.1-.5 0-1.1-.7-1.3a.2.2 0 0 1 0-.3c-.2-2.1 1-3 3-3.5 1.8-.3 3.4-1.6 5.3-.8a1.9 1.9 0 0 0 .8 2.2.2.2 0 0 1 .1.3z"/><path class="cls-16" d="M77 188.1a24.2 24.2 0 0 1 6 .2c2.2.2 4.4 1 6.6 1.1a12.5 12.5 0 0 1 3.4.7c1.4.4 1.3 1 1 2a125 125 0 0 1-17-4zm18 4.2c0-1.4 0-2.3 2-1.3a8.2 8.2 0 0 0 3.6.8c.8 0 1.2 0 1.2 1 0 .6.4.5.6 0s.4-.8 1-.4-.3.9 0 1.4c1.4-1 1.4-1 3 .5-.3.9-1 .5-1.7.4l-9.8-2.4zm2.4-.1v-.2l-.1.1z"/><path class="cls-6" d="M134.2 204l-.7 2.3c-1.7-2-1.5.3-2 1l-1.4-.2c1.1-1.1 1.3-2-.7-2.2-.8 0-1.5-.3-1.5-1.3a9.1 9.1 0 0 0 6.3.4z"/><path class="cls-16" d="M77.5 184.3c.3 1.3-.5 2.5-.4 3.8-1-1.4 0-2.6.4-3.8z"/><path class="cls-13" d="M105.2 223.6l-.2-2.2h.4c0 .7.8 1.6-.3 2.2z"/><path class="cls-7" d="M155.3 197c.6.2.6.8.7 1.3h-.5z"/><path class="cls-13" d="M103.5 225a.6.6 0 0 1 .7-.5.7.7 0 0 1-.7.6z"/><path class="cls-16" d="M77.7 183.2a1.9 1.9 0 0 1 0 .3l-.1.1z"/><path class="cls-7" d="M99 216.6l-.4.4zm-.5.6a.4.4 0 0 1-.2.2.2.2 0 0 1 .2-.2z"/><path class="cls-13" d="M97.5 217.8c0 .3-.1.4-.4.4z"/><path class="cls-17" d="M211.6 204.1l-.3.2.1-.3z"/><path class="cls-5" d="M38.8 192.2c3.7.3 7.3 1.9 11 1.6a5.6 5.6 0 0 1 3.4.7c5.6 3.3 8.9 7.8 8.3 14.6-.3 3.1.5 6.2.1 9.3 0 .4-.7.9-.1 1.4a31.1 31.1 0 0 1-6.9 9c-.7-.3-1.1.2-1.6.5a18.1 18.1 0 0 1-17.2.6 1.7 1.7 0 0 0-2.5.5c-2.8 3.3-5 3.2-7.9 0l-2.1-2.8c-2-2.5-2.2-2.5-4.2-.3-1.3-4 0-6.2 4.2-6.6 2.4-.2 2-1 1.4-2.6a19 19 0 0 1 .7-16.7 3.4 3.4 0 0 0 .6-1.7c2.3-2.3 4.2-5.2 7.6-6.2l2.7-.9a3.8 3.8 0 0 0 2.5-.4zm-12.4 29.3c-.4 2.7 3.4 7.3 5.9 7.3.3 0 .6 0 .6-.3a1 1 0 0 0-.3-.8 71.1 71.1 0 0 1-6.3-6.2z"/><path class="cls-2" d="M38.8 192.2a3.8 3.8 0 0 1-2.5.4c-.3-5-.3-10 1.5-14.9l1-2.2c2.7 2.6 5.7 4.9 7.7 8zm173.6 9.2a.8.8 0 0 1 .9-.4.8.8 0 0 1-.8.5zM200 213.9l-.1.5-.3-.1.4-.5zm13.3-12.9v-.2.2z"/><path class="cls-7" d="M164.4 194.7a1.9 1.9 0 0 1-.8-2.3 3.5 3.5 0 0 1 .8 2.3zm0 .9l.1-.7a.4.4 0 0 1 .3.3z"/><path class="cls-16" d="M156.8 99.5c1.1-.5 2.4-1.9 2.7.8.1.6.8.5 1.3.6-.3.4-1 .6-1 1.3a1.7 1.7 0 0 0-2.3.2c-.6.8-.1 1.6 0 2.4.3 1 1.2 1 2 1.3a.6.6 0 0 0 .7-.3c.2-.5 0-.5-.5-.7-1-.3-1.7-.7-.2-1.5.4-.2.4-.9.4-1.4.6.7 1.3 1.2 2.3.6.4-.2.8-.4.6-1-.4-1-1.2-1-2-1 1.6 0 .8-2.3 2.3-2.6 1.3 1 1.6 5 .4 6.2-.1.2-1-.3-.4.5.2.2.8.5 1 0a4.1 4.1 0 0 0 .2-1.3c.5.3.7 1 1.4.9-.8.8-1.2 1.7-2.8 1.5-1.4-.2-1.6 1-.5 2 .5.4.3.8 0 1.1s-.7.2-1 0-.7-.3-.3-1a.9.9 0 0 0-.2-1.3 1.3 1.3 0 0 0-1.7.3c-1.1 1.4-1.7.8-2.3-.5-.3-.6-1-1.1-1.6-.7s-.3 1.2.3 1.6c.2.2.6.5.2.5-1.5.1-2 2.4-4 1.6-.6-.2-1.2.2-.6-1s-1-2.1-.9-3.5c0-.3-1.2-.2-.5-1.2s1.2.2 1.7.1c-.3.8-1 1.7.6 1.9a1 1 0 0 0 1.1-1c0-1.2-1-.8-1.7-.9 1.8-1.6 1.8-2 0-2.7.9-1 2-.8 3.1-.8-.3.5-1.6.4-1.1 1.4s1.3.7 2 .8c-1 .8-.2 1.3.4 1.8.4.3.8.3.9-.2.2-1-.2-1.5-1.2-1.6.6-1.1.6-2-1-2.3a2.7 2.7 0 0 1 2.3-.8c-.4.9-1 1.9.7 2 .5 0 1.5-.1 1.4-1-.3-1.3-1.4-1-2.2-1z"/><path class="cls-18" d="M160.7 82.7c.2 1-.5 1.3-1 1.5l-14 4.5c-1.1.3-1.6-.1-2-1.1s0-1.5 1-1.8l14.2-4.6c1.7-.6 1.5.8 1.8 1.5z"/><path class="cls-19" d="M146.1 92.5l-.7-.3c-.1-.6.4-.6.8-.7l12.3-4 2.7-.9c.3 0 .8-.1.7.4 0 .2-.4.4-.7.5zm.9 4.5c-.3-.2-.3-.5-.3-.8a54.1 54.1 0 0 0 8.3-3c.4 0 .8.2 1-.4.5.2 1 .3 1.3-.4.5.1 1.1.3 1.4-.5 1.6.3 3-.6 4.5-1 1 1-.2 1-.7 1-2.5 1-5 1.8-7.4 2.6-.4 0-.8 0-.9.5a1.6 1.6 0 0 0-1.8.5c-.4 0-.9-.2-1 .5a1.5 1.5 0 0 0-1.7.4c-1-.2-1.8.4-2.7.6zm-1-2.8a.6.6 0 0 1 0-1l15.3-4.9c.5 0 1.5-.4 1 .9-.5 0-1.1-.1-1.5.5-.6 0-1 0-1.4.5-.4 0-.9-.2-1 .4a27.1 27.1 0 0 0-9.8 3.2 1.6 1.6 0 0 0-1.8.4z"/><path class="cls-7" d="M142.7 84a88.5 88.5 0 0 1 16.5-5.4c-5.2 2.5-10.8 4-16.5 5.4z"/><path class="cls-19" d="M146.5 95.6l-.4-.5c.3-.4 1-.3 1-1a1.5 1.5 0 0 0 1.7-.4 43.5 43.5 0 0 0 9.9-3.2c.3 0 .8.2.9-.4.5.2 1 .2 1.3-.5h2.3v.7a12.6 12.6 0 0 0-4.5 1.5c-.5 0-1 0-1.3.5-.6 0-1-.1-1.4.5-.4 0-.9-.2-1 .4-3 .2-5.6 1.7-8.5 2.4z"/><path class="cls-16" d="M161.3 88.4L146 93.3v-.8l15.2-5v.9z"/><path class="cls-19" d="M155 95c.4.2.6.6.2.8a44.4 44.4 0 0 1-7.7 2.4c-.3 0-.4-.3-.4-.6.9-.4 2-.3 2.6-1.2a1.6 1.6 0 0 0 1.8-.5c.4 0 .8.2.9-.4a1.5 1.5 0 0 0 1.8-.5z"/><path class="cls-16" d="M165.3 98.6c1.3 1.5 1.7 3.5 2 5.3.1 1.2-1.1.2-1.7.5.4-.5 1.2-.8.8-1.6s-1.2 0-1.8-.3c.3-1.3-.4-2.7.7-3.9z"/><path class="cls-6" d="M165.3 98.6c-1.1 1.2-.4 2.6-.7 4a1 1 0 0 0-.3 1 4.1 4.1 0 0 1-.1 1.2c-.3.6-1 .3-1.1 0-.6-.7.3-.2.4-.4 1.2-1.2 1-5.3-.4-6.2.5-.3.6-1.3 1.4-1.2s.7 1 .8 1.6z"/><path class="cls-16" d="M146.5 95.6c2.9-.7 5.5-2.2 8.5-2.3a54.1 54.1 0 0 1-8.3 2.9zm12-3.6a12.6 12.6 0 0 1 4.4-1.5 1.3 1.3 0 0 1 .1.4c-1.4.4-2.8 1.4-4.5 1.1zm-3.7 18.9c-1 .2-1.2 1.3-2 1.2-.4 0-.5-.4-.3-.7.4-.9 1.2-.8 2.3-.5zm11.3-4c.8 0 1-1.2 1.8-1a1 1 0 0 1 .3 1c-.6 1-1.3 0-2 0zm-14.7-5.6c-.6.5-1.2 1.3-2.3 1.2.2-1.6 1.5-1 2.4-1.2zm5.5 9a3 3 0 0 1-.8.6c-.4.1-.6-.2-.6-.6s0-.7.5-.6c.3 0 .8 0 .9.5zm-7.2-13.9c-.6 1-1.7.8-2.6 1.2l-.1-.6c.9-.2 1.7-.8 2.7-.6zm13.3-6.7h-2.3c.4-.6 1-.5 1.7-.5zm-16 4.5c0 .6-.7.5-.9 1v-1zm13.5 4.4l-.2-.3a2.2 2.2 0 0 1 .4 0l.1.2zM155 95h-1c.1-.5.6-.4 1-.4v.4z"/><path class="cls-8" d="M59.8 30.2c1.5 5 1.6 9.8-2 14.3 1.6.3 2.6-.7 4-1-1.4 3-3.9 4.5-6.2 6.3 3.1.6 5.2-2.1 8.3-2.2a12.8 12.8 0 0 1-7.2 5.5 19.8 19.8 0 0 0-5.4 2.9 19.6 19.6 0 0 1-10.6 3.5l-5.5.1-4.8-1.2c-7.6-2.9-10.8-9-11.7-16.6A16 16 0 0 1 26 25.9a6.3 6.3 0 0 0 1.3-1.2C36.6 13.3 56 18 59.8 30.2z"/><path class="cls-2" d="M82 44.7l-7 6.8-10.8-11.7a20.8 20.8 0 0 1 7 0 21.9 21.9 0 0 1 9.5 3.4c.5.4 1.4.6 1.3 1.5z"/><path class="cls-6" d="M87.6 80.5l1 .9 14.2 13.5c1 1 1.1 1.8 0 2.9-3.1 3.1-6.2 6.3-9.2 9.6-.9 1-1.5 1.1-2.5.1L77 93.9c-1.2-1.1-1.4-1.8-.2-3 3.1-3 6.1-6.3 9.1-9.4.4-.4.8-1 1.6-1zm2.2 23.5a4 4 0 0 0 1-.6l8.3-9.2a1 1 0 0 0-.2-1.5 1 1 0 0 0-1.5.2l-3.1 3.4-5 5.4c-.3.5-.8 1-.4 1.6a3.7 3.7 0 0 0 .9.7zm12.2-8a6.5 6.5 0 0 0-.8-1c-.7-.5-1.1 0-1.5.4-2.9 2.9-5.6 5.9-8.2 9-.4.6-.7 1 0 1.7s1.2 0 1.6-.5l8.2-8.6.7-1zm-14.8 5.7a1.6 1.6 0 0 0 1.5-.7l7.8-8.7a1 1 0 0 0 0-1.7c-.7-.6-1.2-.2-1.7.3l-8.1 9c-.3.4-.8.7-.4 1.2a3 3 0 0 0 1 .6zm1.6-5.9a2.8 2.8 0 0 0 .6-.4l5.1-5.6c.5-.5.2-.9-.2-1.3-.6-.7-1.2-.4-1.7.2L88 93.9c-.3.3-.6.7-.2 1.2a1.5 1.5 0 0 0 1.2.7z"/><path class="cls-13" d="M145.2 42.1a6.6 6.6 0 1 1-6.6-6.6 6.5 6.5 0 0 1 6.6 6.6zm-6.5 5.8a5.7 5.7 0 1 0-5.9-5.7 5.8 5.8 0 0 0 5.9 5.7z"/><path class="cls-16" d="M78.4 180.2c0 .6.2 1.2-.4 1.7a2 2 0 0 1 .4-1.7z"/><path class="cls-19" d="M110 206.7l.4-1 .3.3-.6.8z"/><path class="cls-20" d="M114.5 205.8l-.4.3-.1-.1.6-.1z"/><path class="cls-20" d="M114.5 205.9c0-.3.2-.5.5-.5l-.5.5z"/><path class="cls-19" d="M110.1 206.8l-.3.2.2-.4z"/><path class="cls-13" d="M134.2 204a9.1 9.1 0 0 1-6.3-.5v.1a6.8 6.8 0 0 0-2.2-2.2c-.9-2.7-1.2-5.4.7-8l1-1.1a7.3 7.3 0 0 1 9 .4.2.2 0 0 0 .1.3 7.3 7.3 0 0 1 .5 8.8l-1.2 1.2-1.5 1zm-2.5-.7a5.7 5.7 0 1 0-5.8-5.4 5.6 5.6 0 0 0 5.8 5.4z"/><path class="cls-6" d="M136.3 192.8a7.3 7.3 0 0 0-8.9-.5c1-2.7 3.3-2 5.3-2 1.5 0 3.3.3 3.6 2.4zm.7 9a7.3 7.3 0 0 0-.5-8.8h.7c2 1.4 1.9 3.5 1.8 5.6-.1 1.4-.2 2.9-2 3.2zm-10.7-8.4c-1.8 2.5-1.5 5.2-.6 8-2-.9-1.9-2.8-1.7-4.3s0-3.5 2.3-3.7zm-.6 8a6.8 6.8 0 0 1 2.2 2.2c-1.6 0-2.3-.7-2.2-2.2zm8.6 2.6l1.5-1c0 1-.7 1-1.5 1zm-36.9-11.8h-.1l.2-.2z"/><path class="cls-19" d="M26.4 221.5a71.1 71.1 0 0 0 6.2 6.2 1 1 0 0 1 .3.8c0 .3-.3.3-.6.3-2.5 0-6.3-4.6-6-7.3z"/><path class="cls-6" d="M159.9 102.2c0 .5 0 1.2-.4 1.4-1.5.8-.8 1.2.2 1.5.4.2.7.2.5.7a.6.6 0 0 1-.8.3c-.7-.3-1.6-.3-1.8-1.3-.2-.8-.7-1.6-.1-2.4a1.7 1.7 0 0 1 2.4-.2z"/><path class="cls-6" d="M159.9 102.2c0-.7.6-.9.9-1.3.8 0 1.6-.1 2 .9.2.6-.2.8-.6 1-1 .6-1.7.1-2.3-.6zm-4.5.4c-.7 0-1.7.2-2-.7s.8-1 1.1-1.5c1.6.2 1.5 1.1 1 2.2zm1.4-3.1c.8 0 2-.2 2 1 .2 1-.8 1-1.3 1-1.6 0-1.2-1-.7-2zm-5.4 4.5c.7 0 1.6-.3 1.7.9a1 1 0 0 1-1.1 1c-1.6-.2-1-1.1-.6-2zm12.9-.5a1 1 0 0 1 .3-1c.6.2 1.3-.5 1.8.3s-.4 1.1-.7 1.6c-.7 0-1-.6-1.4-.9z"/><path class="cls-6" d="M155.4 102.6c1 .1 1.5.7 1.3 1.7-.1.5-.6.4-.9.2-.6-.5-1.4-1-.4-1.9z"/><path class="cls-16" d="M154.1 95a1.5 1.5 0 0 1-1.8.5 1.6 1.6 0 0 1 1.8-.4zm-2.6 1a1.6 1.6 0 0 1-1.9.5 1.5 1.5 0 0 1 1.9-.5zm5.7-3.6c.3-.5.8-.5 1.4-.4-.3.7-.8.6-1.4.4z"/><path class="cls-16" d="M155.9 92.9c.3-.6.8-.5 1.3-.5-.2.7-.8.7-1.3.5z"/><path class="cls-16" d="M155 93.3c0-.6.5-.5 1-.5-.2.6-.6.5-1 .5zm-2.7 2.2c0 .6-.5.5-.9.5.1-.6.6-.5 1-.5zm6.3-4.9a43.5 43.5 0 0 1-9.8 3.2 27.1 27.1 0 0 1 9.8-3.2zm-9.8 3.1a1.5 1.5 0 0 1-1.8.5 1.6 1.6 0 0 1 1.8-.5zm12-4c-.3.7-.8.7-1.4.5.3-.6.9-.5 1.4-.5z"/><path class="cls-16" d="M159.5 90.2c-.1.6-.6.4-1 .4.1-.6.6-.4 1-.4zM89.8 104a3.7 3.7 0 0 1-.9-.7c-.4-.6 0-1.1.5-1.6l4.9-5.3 3-3.5a1 1 0 0 1 1.6-.2 1 1 0 0 1 .1 1.6l-8.3 9.2a4 4 0 0 1-1 .5zm12.2-8l-.8 1-8.1 8.6c-.4.4-.8 1.2-1.6.5s-.4-1.1 0-1.7c2.6-3.1 5.3-6.2 8.2-9 .4-.4.8-1 1.5-.4a6.5 6.5 0 0 1 .8 1zm-14.7 5.7a3 3 0 0 1-1-.6c-.3-.5.1-.8.4-1.1q4-4.6 8.1-9c.5-.6 1-1 1.7-.4a1 1 0 0 1 0 1.7c-2.5 3-5.1 5.8-7.7 8.7a1.6 1.6 0 0 1-1.5.7zm1.6-5.9a1.5 1.5 0 0 1-1.2-.7c-.4-.5-.1-.8.2-1.2l4.8-5.2c.5-.6 1-.9 1.7-.2.4.4.6.8.2 1.4l-5.1 5.5a2.8 2.8 0 0 1-.6.4z"/><path class="cls-2" d="M138.7 47.9a5.7 5.7 0 1 1 5.6-5.7 5.8 5.8 0 0 1-5.6 5.7zm-7 155.4a5.7 5.7 0 1 1 5.6-5.7 5.5 5.5 0 0 1-5.6 5.7zM6.3 61.7s3.4 19.8 26 29.2l-6-17.3z"/><path class="cls-7" d="M158.2 63.4l-4.6 4a1.2 1.2 0 0 1-1 .5.9.9 0 0 1-.6-1.4 2.8 2.8 0 0 1 .4-.4l4.2-3.7.3-.3v-.4a.5.5 0 0 0-.5-.2 7.5 7.5 0 0 0-.9.7 1 1 0 0 1-1.5 0 1.1 1.1 0 0 1 0-1.6l.8-.6c.2-.2.3-.4.1-.6a.4.4 0 0 0-.6 0l-.6.6a1 1 0 0 1-1.4 0 1 1 0 0 1 .2-1.3l1.3-1.2c.2-.2.4-.4.2-.6s-.5-.1-.7 0l-1.1.9a.6.6 0 0 1-1-.4.8.8 0 0 1 .3-.6 47.8 47.8 0 0 1 6.9-6.2 1.7 1.7 0 0 1 2.5.3l4.6 5.3a2.3 2.3 0 0 1 .6 1.7l-.3 6.7a1.4 1.4 0 0 1-1 1.4c-.4.2-.6.1-.7-.3a11 11 0 0 1-.4-2.2v-3.7a1.4 1.4 0 0 0 0-.4.3.3 0 0 0-.5-.2 2.9 2.9 0 0 0-.4.3zM98.5 78.8l1.7 5.4a1.1 1.1 0 0 0 .6.8.7.7 0 0 0 1-.8 2.7 2.7 0 0 0-.2-.5l-1.4-4.9a1 1 0 0 1-.1-.4l.1-.3a.4.4 0 0 1 .4.1 7.4 7.4 0 0 1 .4 1 1 1 0 0 0 1.2.8 1 1 0 0 0 .6-1.3l-.3-.9c-.1-.3 0-.4.2-.5s.3.1.4.3l.3.8a.8.8 0 0 0 1 .6.8.8 0 0 0 .4-1l-.5-1.6c0-.2-.1-.5.2-.6s.4.2.5.4l.4 1.2a.5.5 0 0 0 .8.1.8.8 0 0 0 .2-.5 47.1 47.1 0 0 0-2.5-8 1.5 1.5 0 0 0-2-1l-5.6 1.6a1.8 1.8 0 0 0-1.2 1L92.5 76a1.3 1.3 0 0 0 0 1.5c.3.3.5.4.8.1a9 9 0 0 0 1.2-1.4l1.6-2.9a1.2 1.2 0 0 1 .2-.3c.1-.1.3 0 .4.1a2.9 2.9 0 0 1 .2.5z"/><path class="cls-8" d="M162 47.7l-2.8 1.8L166 58l2.5-2.5-6.4-7.8zm-58.6 20.7c-2.8 0-5.3 1.4-8 1.8-.2-1.3-1-2.4-.8-3.9l7.9-1.9c0 1.4.7 2.7.9 4z"/><path class="cls-7" d="M59.6 92.8l.3-.2h.4a4.5 4.5 0 0 1 3.8.4l5.4 3.1a1.6 1.6 0 0 1 .8 1.8c-.2.5-.9.7-1.5.4l-2-1a.4.4 0 0 0 0 .2l4.6 7.5a1 1 0 0 1-.1 1.4 1 1 0 0 1-1.3-.5l-1.3-2-1.6-2.6c-.1-.2-.3-.3-.4-.2s-.2.3-.1.5l.2.3 3.4 5.6a1.1 1.1 0 0 1 .1 1v.3l-.3.2c-.6 0-1-.3-1.5-1-1-1.8-2.1-3.6-3.3-5.3v-.3c-.2-.1-.4-.2-.5-.1s-.2.2 0 .4v.3l3 5c.5.6.4 1.2 0 1.4s-1 0-1.4-.6l-3.5-5.6c-.1-.2-.3-.5-.5-.3s-.1.4 0 .6l2.4 3.9a1 1 0 0 1 0 1.2.8.8 0 0 1-1 0 1.9 1.9 0 0 1-.6-.6L58 99.4a4.8 4.8 0 0 1-.2-4.8l.8-1 .1-.2a3.4 3.4 0 0 0 1-.6z"/><path class="cls-8" d="M62.4 92.9c-2.1 1-3.5 2.8-5 4.5-1.5.2-2-1.3-3-2 2-1.9 3.7-4 6-5.6.7 1 2.1 1.5 2 3z"/><path class="cls-15" d="M128 67.6l-.5-.3c-.2-.2-.4-.6-.8-.7l-.2-.3v-.2a12.7 12.7 0 0 1 4.6-4.7 16.4 16.4 0 0 0 4.4-4 14.1 14.1 0 0 1 4.3-3.2 1.2 1.2 0 0 1 1.7.7l.3.8-.4.3a1.8 1.8 0 0 0-2-.6 6.6 6.6 0 0 0-3.8 2.8 2.1 2.1 0 0 0 0 2.8l-.3.3-.3-.2a.5.5 0 0 0-.7 0c-.3.3 0 .5 0 .8l-.3.3a2.4 2.4 0 0 0-3-.1 7 7 0 0 0-2 1.7c-.9 1-1.5 2.1-.8 3.5z"/><path class="cls-11" d="M134 62.3l.4-.3a4.8 4.8 0 0 1-2.3 7.2 3.2 3.2 0 0 1-2.8-.5 6.9 6.9 0 0 1-1.3-1l.3-.3.7.6a3.1 3.1 0 0 0 4 .3 4.4 4.4 0 0 0 1-6zm7.4-6.3l.4-.3.7 1a3.4 3.4 0 0 1-1.4 5 4.6 4.6 0 0 1-5.7-.4l.3-.3a4.2 4.2 0 0 0 4.7.6 3.3 3.3 0 0 0 1-5.6z"/><path class="cls-21" d="M126.7 66.6c.4.1.6.5.8.7-.5 0-.6-.4-.8-.7zm-.2-.5v.2c-.1 0 0-.1 0-.2z"/><path class="cls-22" d="M141.4 56a3.3 3.3 0 0 1-1 5.6 4.2 4.2 0 0 1-4.8-.6 2.1 2.1 0 0 1 0-2.8 6.6 6.6 0 0 1 3.7-2.7 1.8 1.8 0 0 1 2 .5zm-7.4 6.3a4.4 4.4 0 0 1-1 6 3.1 3.1 0 0 1-4-.3l-.8-.6c-.6-1.4 0-2.5.9-3.6a7 7 0 0 1 2-1.7 2.4 2.4 0 0 1 3 .2z"/></svg>