<?xml version="1.0" encoding="utf-8"?>
<!-- Generator: Adobe Illustrator 22.0.0, SVG Export Plug-In . SVG Version: 6.00 Build 0)  -->
<svg version="1.1" id="Layer_1" xmlns="http://www.w3.org/2000/svg" xmlns:xlink="http://www.w3.org/1999/xlink" x="0px" y="0px"
	 viewBox="0 0 349.8 292.7" style="enable-background:new 0 0 349.8 292.7;" xml:space="preserve">
<style type="text/css">
	.st0{fill:#FF3A00;}
	.st1{fill:#B21D04;}
	.st2{fill:#DB2B03;}
	.st3{fill:none;stroke:#A8A8A8;stroke-width:3;stroke-miterlimit:10;stroke-dasharray:12;}
</style>
<g>
	<path class="st0" d="M306.8,83.2c-0.2,0-0.4,0.1-0.6,0.1c-5.7-2.3-11.4-4.6-17.1-6.9c-0.5-0.2-1-0.3-1.6-0.2
		c-0.2-0.9-1.1-0.8-1.7-1.1c-3.8-1.5-7.5-3-11.3-4.5c-3.8-1.5-7.5-3-11.3-4.6c0.2-0.6,0.7-0.8,1.1-1.1c4.3-3.1,8.5-6.3,12.9-9.4
		c4.9-3.5,9.7-7.1,14.5-10.7c4.9-3.6,9.8-7.2,14.8-10.7c5.6-3.9,11-7.9,16.5-11.9c5.5-4,11-7.9,16.4-11.9C340,10,340.9,9.8,341,9
		l0,0c0.3,0,0.7-0.1,1-0.1c0,0.3,0.1,0.7,0,0.9c-0.8,1.7-1.6,3.3-2.4,5c-1,2.1-2.2,4.1-2.8,6.4c0,0,0,0,0,0
		c-0.4,0.1-0.5,0.4-0.4,0.8c0,0,0,0,0,0c-0.2,0.3-0.5,0.6-0.7,0.9c-2.4,4.5-4.3,9.2-6.5,13.7c-1.3,2.7-2.9,5.3-3.8,8.2c0,0,0,0,0,0
		c-1.6,2.4-2.6,5.2-3.9,7.8c-1.1,2.3-2.5,4.4-3.1,6.9c0,0,0,0,0,0c-0.4,0.1-0.5,0.4-0.6,0.7C314.2,67.9,310.5,75.6,306.8,83.2z"/>
	<path class="st0" d="M226.7,50.7c2.9-0.5,5.5-1.8,8.2-2.8c5.3-1.8,10.5-3.9,15.7-5.9c0.2-0.1,0.4-0.3,0.7-0.4
		c0.4-0.1,0.8-0.2,1.2-0.3c1.4-0.5,2.9-0.9,4.2-1.5c2.3-1,4.7-1.5,6.9-2.7c0.2-0.1,0.4-0.1,0.6-0.2c2.5-0.8,5.1-1.5,7.4-2.8
		c0.2-0.1,0.4-0.1,0.6-0.2c1.7-0.2,3.1-1.1,4.7-1.7c2.4-0.9,4.8-1.5,7-2.7c0.2-0.1,0.4-0.1,0.6-0.2c1.9-0.3,3.5-1.3,5.3-1.9
		c5.8-2.1,11.6-4.2,17.3-6.4c3-1.1,6-2,8.9-3.5c0.2-0.1,0.4-0.1,0.6-0.2c5.1-1.8,10.2-3.6,15.3-5.4c2.7-0.9,5.2-2.3,8-2.8
		c-0.1,0.4-0.4,0.6-0.8,0.8c-4.8,2.8-9.5,5.6-14.3,8.3c-6,3.5-12.1,6.8-18.1,10.3c-6.3,3.7-12.5,7.4-18.8,11.1
		c-9.6,5.6-19.3,11.1-28.9,16.6c-3,1.7-5.9,3.3-8.8,5.1c-0.5,0.3-1.5,0.4-1.2,1.5c-0.1,0.1-0.2,0.1-0.3,0.2l0,0
		c-0.3-0.6-0.8-0.8-1.5-0.8c-1-0.2-1.9-1-3.1-0.9c-0.7-0.8-1.7-0.9-2.7-1.2c-0.6-0.3-1.1-0.6-1.8-0.6c-0.5-0.5-1.1-0.6-1.8-0.7
		c-0.2-0.3-0.6-0.5-1-0.3c-0.3-0.2-0.5-0.3-0.8-0.5c-0.2-0.3-0.5-0.5-0.9-0.4c-0.1,0-0.2-0.1-0.3,0c-0.3-0.6-0.9-0.6-1.5-0.6
		c-0.5-0.5-1.2-0.5-1.8-0.7c-0.5-0.8-1.4-0.8-2.2-0.8c-0.1,0-0.2,0-0.2,0c-1.2-0.9-2.5-1.6-4-1.4c0,0,0,0,0,0
		c-0.1-0.6-0.5-0.8-1.1-0.8c-0.7,0-0.9-0.5-0.9-1.1c0.3-0.1,0.6-0.2,0.9-0.2c0.5,0.4,0.6,0,0.7-0.4c0.4-0.1,0.8-0.2,1.2-0.3
		C226.6,51.5,226.6,51.1,226.7,50.7z"/>
	<path class="st1" d="M263.3,66.1c3.8,1.5,7.5,3.1,11.3,4.6c3.8,1.5,7.5,3,11.3,4.5c0.6,0.2,1.4,0.2,1.7,1.1
		c-0.9,1.2-1.9,2.4-2.8,3.6c-0.1,0.1-0.2,0.2-0.2,0.3c-1.4,1.4-2.7,3-3.8,4.7c0,0,0,0,0,0c-2.7,3.3-5.4,6.5-8,9.8
		c-1.1,1.4-1.1,1.4-2-0.2c0.4-0.6,0-1.2-0.1-1.7c-0.8-2.8-1.7-5.6-2.4-8.4c-1.3-5.2-3-10.3-4.4-15.4C263.4,68,262.9,67.1,263.3,66.1
		z"/>
	<path class="st2" d="M340,9.1c0.3,0,0.6-0.1,0.9-0.1c-0.1,0.8-0.9,1.1-1.4,1.4c-5.4,4-10.9,7.9-16.4,11.9
		c-5.5,4-10.9,8.1-16.5,11.9c-5,3.5-9.9,7.1-14.8,10.7c-4.8,3.6-9.6,7.2-14.5,10.7c-4.3,3.1-8.6,6.2-12.9,9.4
		c-0.4,0.3-1,0.5-1.1,1.1c-0.4,1,0.1,1.9,0.4,2.8c1.5,5.1,3.1,10.2,4.4,15.4c0.7,2.8,1.6,5.6,2.4,8.4c0.2,0.5,0.5,1.1,0.1,1.7
		c-1.1-0.8-1.4-2.2-2.4-3.1c-0.1-0.1-0.2-0.3-0.3-0.4c0-0.1,0-0.1-0.1-0.2c-0.1-0.4-0.3-0.6-0.7-0.6c0-0.1,0-0.2-0.1-0.2
		c0.3-0.6-0.1-0.8-0.5-1.1c0-0.1,0-0.1-0.1-0.2c-0.3-0.8-0.8-1.5-1.4-2.1c-1.7-2.5-3.4-5-5.1-7.6c-0.1-0.2-0.3-0.4-0.4-0.6
		c-0.5-1.1-1.2-2-1.9-2.9c-0.1-0.2-0.2-0.4-0.3-0.5c-2.7-4-5.4-8.1-8.1-12.1c-0.3-1,0.7-1.2,1.2-1.5c2.9-1.7,5.9-3.4,8.8-5.1
		c9.6-5.5,19.3-11,28.9-16.6c6.3-3.6,12.5-7.4,18.8-11.1c6-3.5,12.1-6.9,18.1-10.3c4.8-2.7,9.5-5.5,14.3-8.3
		C339.6,9.7,339.9,9.5,340,9.1z"/>
</g>
<path class="st3" d="M8,282.4c0,0,110-1.1,110.6-58.6S38,212.2,91.7,245.3c40.8,25.2,140.9-56.1,164.6-137"/>
</svg>
