<svg id="Layer_1" data-name="Layer 1" xmlns="http://www.w3.org/2000/svg" viewBox="0 0 250 250"><defs><style>.cls-1{fill:#313333}.cls-2{fill:#f79537;stroke:#f79537;stroke-miterlimit:10}</style></defs><title>new icons</title><path class="cls-1" d="M212.5 172.3a156.8 156.8 0 0 0-2-27.4 104 104 0 0 0-10.6-33.2 54.2 54.2 0 0 0-38.5-28 148 148 0 0 0-35.8-3A150.6 150.6 0 0 0 77 90.8a47.4 47.4 0 0 0-25.5 23.8 91.2 91.2 0 0 0-8.4 26.8 167.8 167.8 0 0 0-2.2 25.8c0 4.2.3 8.5.4 12.7v1.3c.2.8-.1 1.3-1 1.4s-1.5-.2-1.6-1.2l-.4-7.4a148.9 148.9 0 0 1 1-22.9c.5-4.6 1.3-9.1 2-13.7.5-2.8-.3-4.3-3-5.5a21 21 0 0 1-8.6-7 19.5 19.5 0 0 1-2.2-17.9c2.5-7.7 8.2-11.8 16-13.2a20.1 20.1 0 0 1 8.5.5 21.6 21.6 0 0 0 17.8-2.7c9-5.8 19.1-8.7 29.6-10.3 6.7-1 13.4-1.9 20.1-2.6a139.1 139.1 0 0 1 26.8-.2c11.1 1 21.9 3.3 32 8.4a56.9 56.9 0 0 1 6.7 4 7.5 7.5 0 0 0 7.9.8 24.8 24.8 0 0 1 17.9-1 18.3 18.3 0 0 1 12.9 15c1 5.6.2 10.9-3.4 15.5a20.2 20.2 0 0 1-6.2 5.1c-1.7 1-3.2 2.4-3.4 4.5a8.3 8.3 0 0 0 .2 3 111.5 111.5 0 0 1 3.8 24.8l.7 21.8a7.5 7.5 0 0 1 0 1c-.2.8-.7 1-1.4 1a1 1 0 0 1-1.2-1l-.2-2.9v-6.2zM47.6 108.6a11.8 11.8 0 0 0 8.7-5c2.2-2.8 1-6-2.4-6.6a26.7 26.7 0 0 0-11.3-.1c-11.9 2.8-15 12.3-13.4 20.8 1.2 5.7 5 9.3 10 11.9a2.8 2.8 0 0 0 3.5-.8 6.9 6.9 0 0 0 1.3-2.1 10.7 10.7 0 0 0-.8-9.6 11.7 11.7 0 0 1-.8-1.7c-1.1-2.7 1.7-7.5 5.2-6.8zm154.8-16.4c-2.2-.2-4.7.7-7.3 1.4-2.2.7-3.1 2.4-2 4.4a11.6 11.6 0 0 0 8.2 5.8 2 2 0 0 0 .8 0c3.4-.7 5.3 1.2 6.5 4.2a3.3 3.3 0 0 1-.8 3.9 6.2 6.2 0 0 0-2 5 15.5 15.5 0 0 0 2.4 6.9 2.5 2.5 0 0 0 2.8 1.2 7.5 7.5 0 0 0 2.3-.9 17.6 17.6 0 0 0 4.1-25.8c-3.7-4.4-8.7-6-15-6z"/><path class="cls-2" d="M180.2 122.4c-.1 7.3-2.3 13.8-8.4 18.2a25.9 25.9 0 0 1-31.4.9c-1.4-1-2.6-2.5-4-3.3s-1.7-2.5-2.7-3.7a16.6 16.6 0 0 1-2.1-4.3 26 26 0 0 1-1.3-4.6c-2.4-13 7.6-25.4 19.9-27.6a25.4 25.4 0 0 1 29 17 60.4 60.4 0 0 1 1.3 7.3zm-46.2-4.2l.3.2 3.2-1.7a10.3 10.3 0 0 1 6.1-1.5 8.4 8.4 0 0 1 7.4 9.8c-1.1 5.6-6.7 8.5-12.2 6.3a14.7 14.7 0 0 0-2.7-.5 13.3 13.3 0 0 0 4.9 7.2c7 5.2 17.2 6.7 25.6 1.8 7.5-4.3 10.9-11 10.2-19.6a19.9 19.9 0 0 0-8.8-14.8 21.7 21.7 0 0 0-33.4 10 19.1 19.1 0 0 0-.6 2.8zm-18.4 21.2c-.5.4-1 .7-1.4 1.2a25.8 25.8 0 0 1-34.6 3 23.5 23.5 0 0 1-3.2-35.5 23.9 23.9 0 0 1 14.3-8 26 26 0 0 1 13.6 1.9 24 24 0 0 1 13.3 11.3c3.4 6.5 3.1 13.1.7 19.8l-2 4.4-.7 1.9zm-40-5.7l1.3 1.8a21.1 21.1 0 0 0 25 8.7 20.2 20.2 0 0 0 14.2-24.3c-1.5-7-6.1-12-12.6-15a19.5 19.5 0 0 0-11.8-1 20.6 20.6 0 0 0-16 11.6l-1.6 4 .3.2a11 11 0 0 0 2.6-.8 10.5 10.5 0 0 1 6-1.5c4.5 0 8.5 4.8 7.8 9.2-1.2 6.7-6.9 8.6-12.5 6.6a2.3 2.3 0 0 0-2.7.5zm40.7 6.6a4.4 4.4 0 0 0 1.2-.4c4.3-2.7 8.9-2.9 13.7-1.8a7.6 7.6 0 0 1 4.3 2.7 1.7 1.7 0 0 1 .5 1 5.3 5.3 0 0 0 3 4.7c1.1.7 2.3 1.2 3.3 2a9.6 9.6 0 0 1 4.5 8.7c-.2 3.4-2 5.4-5.3 6l-1 .3c-1.9.4-2.4 1.2-2.3 3l.2 6.8a4.7 4.7 0 0 1-3.2 4.8l-2 .7a4.5 4.5 0 0 1-4.6-1 3 3 0 0 0-3.6-.4 15.3 15.3 0 0 1-4 1.3c-3.3.5-6-1.8-6.2-5.5a19.4 19.4 0 0 1 .2-4.8c.5-3-.2-4.5-3-5.6l-1-.3c-4.5-1.6-6.4-5.9-4-10a16.2 16.2 0 0 1 3.4-4.1c2.2-2 4.3-3.8 5.4-6.6l.5-1a3 3 0 0 0 0-.6zm21.9 19.7h1.7a3.7 3.7 0 0 0 3.3-4 7.2 7.2 0 0 0-9.8-6 17.1 17.1 0 0 1-8.7 1.8 45.4 45.4 0 0 1-7.2-1.5c-3-.8-5.5.1-7 2.7-1 2-.7 4 .9 5.8 1.2 1.5 2.7 2 4.8 1.2l3.9-1.6c4.4-1.7 8.8-2 13.1.4a10 10 0 0 0 5 1.2zm-12.5 6.2v-3.3c0-1.9-1.4-2.8-3-2a19.7 19.7 0 0 0-3.1 2 5 5 0 0 0-2.2 3.7 53.9 53.9 0 0 0 .2 7.3 2.8 2.8 0 0 0 2.6 2.5 4 4 0 0 0 4.6-2.8c1-2.4.9-4.9.9-7.4zm2.4 1.7h-.2c.2 2 .4 4 .8 6 .3 1.6 1.5 2.4 3.2 2.5 2 0 3.4-.7 3.7-2.1a16.6 16.6 0 0 0-.1-9.5 4.8 4.8 0 0 0-4.8-3.5c-1.7 0-2.5.7-2.5 2.2v4.4z"/></svg>