<?xml version="1.0" encoding="utf-8"?>
<!-- Generator: Adobe Illustrator 22.0.0, SVG Export Plug-In . SVG Version: 6.00 Build 0)  -->
<svg version="1.1" id="Layer_1" xmlns="http://www.w3.org/2000/svg" xmlns:xlink="http://www.w3.org/1999/xlink" x="0px" y="0px"
	 viewBox="0 0 416 72" style="enable-background:new 0 0 416 72;" xml:space="preserve">
<style type="text/css">
	.st0{fill:#017C7C;}
	.st1{fill:#F4A84E;}
	.st2{fill:#011E1D;}
	.st3{clip-path:url(#SVGID_2_);fill:#454745;}
	.st4{clip-path:url(#SVGID_2_);fill:#EFEFEF;stroke:#454745;stroke-width:3;stroke-miterlimit:10;}
	.st5{opacity:0.24;}
	.st6{fill:#E2E2E2;}
	.st7{fill:#454745;}
	.st8{opacity:0.35;}
	.st9{fill:#F3A84E;}
	.st10{clip-path:url(#SVGID_4_);fill:#454745;}
	.st11{clip-path:url(#SVGID_4_);fill:#EFEFEF;stroke:#454745;stroke-width:3;stroke-miterlimit:10;}
	.st12{fill:#F3A84F;}
	.st13{fill:#F4A84E;stroke:#454745;stroke-width:3;stroke-miterlimit:10;}
	.st14{fill:#454745;stroke:#454745;stroke-width:3;stroke-miterlimit:10;}
	.st15{opacity:0.11;}
	.st16{fill:#FFFFFF;}
	.st17{fill:#F3A850;}
	.st18{fill:#4D4E4D;}
	.st19{fill:#050505;}
	.st20{fill:url(#SVGID_7_);stroke:#454745;stroke-width:4;stroke-miterlimit:10;}
	.st21{fill:url(#SVGID_8_);stroke:#454745;stroke-width:4;stroke-miterlimit:10;}
	.st22{opacity:0.6;}
	.st23{fill:#454745;stroke:#454745;stroke-miterlimit:10;}
	.st24{fill:#F49A38;}
	.st25{opacity:0.67;}
	.st26{fill:none;stroke:#00999E;stroke-width:4;stroke-miterlimit:10;}
	.st27{clip-path:url(#SVGID_10_);fill:#FFFFFF;}
	.st28{clip-path:url(#SVGID_10_);fill:none;stroke:#00999E;stroke-width:6;stroke-miterlimit:10;}
	.st29{clip-path:url(#SVGID_10_);fill:none;stroke:#00999E;stroke-width:4;stroke-miterlimit:10;stroke-dasharray:7;}
	.st30{clip-path:url(#SVGID_10_);fill:none;stroke:#00999E;stroke-width:4;stroke-miterlimit:10;}
	.st31{clip-path:url(#SVGID_10_);fill:#00999E;}
	.st32{clip-path:url(#SVGID_10_);fill:none;stroke:#00999E;stroke-width:2;stroke-miterlimit:10;}
	.st33{fill:none;stroke:#00999E;stroke-width:4;stroke-miterlimit:10;stroke-dasharray:7;}
	.st34{fill:none;stroke:#FFFFFF;stroke-width:3;stroke-miterlimit:10;}
	.st35{fill:none;stroke:#FFFFFF;stroke-width:3;stroke-miterlimit:10;stroke-dasharray:4.6309,4.6309;}
	.st36{fill:none;stroke:#FFFFFF;stroke-width:3;stroke-miterlimit:10;stroke-dasharray:5.2134,5.2134;}
	.st37{fill:none;stroke:#01302E;stroke-width:4;stroke-miterlimit:10;}
	.st38{fill:none;stroke:#01302E;stroke-width:3;stroke-miterlimit:10;}
	.st39{fill:none;stroke:#FFFFFF;stroke-width:4;stroke-miterlimit:10;stroke-dasharray:7;}
	.st40{fill:none;stroke:#FFFFFF;stroke-width:3;stroke-miterlimit:10;stroke-dasharray:7;}
	.st41{fill:none;stroke:#FFFFFF;stroke-width:3;stroke-miterlimit:10;stroke-dasharray:4.8121,4.8121;}
	.st42{fill:none;stroke:#FFFFFF;stroke-width:3;stroke-miterlimit:10;stroke-dasharray:5.1293,5.1293;}
	.st43{fill:#01302E;}
	.st44{fill:none;stroke:#FFFFFF;stroke-width:4;stroke-miterlimit:10;}
	.st45{fill:#01302E;stroke:#00999E;stroke-width:3;stroke-miterlimit:10;}
	.st46{fill:#00999E;}
	.st47{fill:#023A36;stroke:#023A36;stroke-width:0.5;stroke-miterlimit:10;}
	.st48{clip-path:url(#SVGID_12_);fill:#F49A38;}
	.st49{clip-path:url(#SVGID_12_);fill:#FFFFFF;}
	.st50{fill:#5B3A3A;}
</style>
<g>
	<path class="st50" d="M268.7,42.6c-0.8,1.3-1.7,2.6-2.7,3.9c-1,1.3-2.2,2.4-3.5,3.4c-1.3,1-2.7,1.8-4.3,2.4
		c-1.6,0.6-3.3,0.9-5.2,0.9c-1.4,0-2.6-0.2-3.7-0.5c-1.1-0.3-2-0.9-2.8-1.6c-0.8-0.7-1.4-1.7-1.8-2.8c-0.4-1.1-0.6-2.5-0.6-4.1
		c0-1.1,0.1-2.4,0.3-3.8c0.2-1.4,0.6-2.9,1.1-4.4c0.5-1.5,1.1-3,1.9-4.4c0.8-1.4,1.8-2.7,2.9-3.9c1.1-1.1,2.5-2,4-2.7
		c1.5-0.7,3.2-1,5.1-1c1.3,0,2.3,0.2,3.1,0.5c0.8,0.3,1.5,0.7,1.9,1.2c0.5,0.5,0.8,1.1,1,1.7c0.2,0.6,0.3,1.3,0.3,1.9
		c0,0.7-0.1,1.3-0.2,1.8c-0.2,0.5-0.4,0.9-0.7,1.3c-0.3,0.4-0.6,0.6-1,0.8c-0.4,0.2-0.8,0.3-1.2,0.3c-0.6,0-1.3-0.2-2-0.7
		c0.5-1.2,0.7-2.3,0.7-3.4c0-0.7-0.1-1.3-0.4-1.7c-0.3-0.4-0.7-0.6-1.2-0.6c-0.6,0-1.2,0.3-1.8,0.8c-0.6,0.5-1.2,1.3-1.7,2.1
		c-0.5,0.9-1.1,1.9-1.5,3.1c-0.5,1.1-0.9,2.3-1.2,3.6c-0.3,1.2-0.6,2.5-0.8,3.7c-0.2,1.2-0.3,2.4-0.3,3.4c0,1,0.1,1.8,0.3,2.4
		c0.2,0.6,0.4,1.1,0.8,1.5c0.3,0.4,0.8,0.6,1.3,0.7c0.5,0.1,1.1,0.2,1.8,0.2c1.1,0,2.2-0.1,3.1-0.4c0.9-0.3,1.8-0.7,2.6-1.2
		c0.8-0.5,1.6-1.1,2.3-1.8c0.7-0.7,1.4-1.5,2.2-2.3H268.7z"/>
	<g>
		<path class="st50" d="M37.2,12.5c-0.9,0.6-1.9,1.4-2.7,2.6c-0.9,1.2-1.7,2.6-2.5,4.2c-0.8,1.6-1.5,3.3-2.2,5.2
			c-0.7,1.9-1.2,3.8-1.7,5.7c-0.5,1.9-0.9,3.8-1.1,5.7c-0.3,1.9-0.4,3.6-0.4,5.2c0,1,0.1,2,0.2,2.9c0.1,0.9,0.3,1.6,0.6,2.2
			c0.3,0.6,0.6,1.1,1.1,1.5c0.4,0.3,1,0.5,1.6,0.5c1,0,2.1-0.4,3.1-1.2c1-0.8,2-1.9,3-3.3c1-1.4,1.8-3,2.7-4.8
			c0.8-1.8,1.5-3.8,2.1-5.8c0.6-2.1,1.1-4.2,1.4-6.4c0.3-2.2,0.5-4.3,0.5-6.4c0-1.8-0.1-3.3-0.3-4.7s-0.6-2.5-1.2-3.4
			c-0.6-0.9-1.4-1.6-2.4-2c-1-0.4-2.3-0.7-4-0.7c-2.3,0-4.6,0.4-6.7,1.1c-2.1,0.7-4,1.8-5.6,3.1c-1.6,1.4-2.9,3-3.9,5
			c-1,1.9-1.4,4.1-1.4,6.6c0,0.6,0,1.1,0.1,1.5c0.1,0.4,0.1,0.7,0.2,0.9c0.1,0.2,0.1,0.4,0.2,0.6c0.1,0.1,0.1,0.3,0.1,0.4
			c-2,0-3.5-0.4-4.6-1.2c-1.1-0.8-1.6-2.1-1.6-4c0-1.4,0.3-2.8,0.9-4.2c0.6-1.4,1.5-2.7,2.6-3.9c1.1-1.2,2.4-2.4,4-3.4
			c1.5-1,3.2-2,5-2.7c1.8-0.8,3.8-1.4,5.8-1.8c2.1-0.4,4.2-0.6,6.3-0.6c2.7,0,5,0.4,6.8,1.2c1.8,0.8,3.3,1.9,4.5,3.3
			c1.1,1.4,2,3,2.5,5c0.5,1.9,0.8,4,0.8,6.3c0,2-0.2,4.1-0.6,6.4c-0.4,2.3-0.9,4.6-1.7,6.8c-0.8,2.3-1.8,4.5-3,6.6
			c-1.2,2.1-2.7,4-4.3,5.6c-1.7,1.6-3.6,2.9-5.8,3.9c-2.2,1-4.6,1.5-7.3,1.5c-1.6,0-3.1-0.2-4.4-0.7c-1.3-0.4-2.5-1.1-3.5-2.1
			c-1-1-1.7-2.3-2.3-3.8c-0.5-1.6-0.8-3.5-0.8-5.7c0-1.7,0.2-3.5,0.5-5.6c0.3-2.1,0.8-4.2,1.4-6.3c0.6-2.1,1.4-4.2,2.3-6.2
			c0.9-2,2-3.8,3.2-5.4c1.2-1.6,2.6-2.8,4.2-3.8c1.5-1,3.2-1.4,5.1-1.4c0.5,0,1,0,1.6,0.1C36.1,12.1,36.6,12.3,37.2,12.5z"/>
		<path class="st50" d="M46,68.1l10.2-48.3h8.8l-1,4.6c0.9-0.8,1.9-1.4,3.1-1.9c1.2-0.5,2.5-0.7,4.1-0.7c1,0,2,0.2,2.9,0.5
			c0.9,0.3,1.7,0.9,2.4,1.6c0.7,0.7,1.2,1.7,1.6,3c0.4,1.2,0.6,2.8,0.6,4.6c0,1.4-0.1,2.9-0.3,4.5c-0.2,1.6-0.5,3.2-1,4.8
			c-0.5,1.6-1.1,3.2-1.8,4.6c-0.7,1.5-1.7,2.8-2.8,3.9c-1.1,1.1-2.4,2.1-4,2.7c-1.5,0.7-3.3,1-5.3,1c-0.8,0-1.5-0.1-2-0.2
			c-0.6-0.1-1.1-0.3-1.5-0.5c-0.4-0.2-0.7-0.4-1-0.7c-0.3-0.3-0.5-0.5-0.7-0.8l-3.2,15L46,68.1z M59.4,46.4c0.1,0.3,0.4,0.7,0.7,1
			c0.4,0.3,0.9,0.4,1.6,0.4c1.1,0,2-0.3,2.9-0.8c0.8-0.5,1.6-1.3,2.2-2.2c0.6-0.9,1.2-1.9,1.6-3.1c0.4-1.2,0.8-2.3,1.1-3.6
			c0.3-1.2,0.5-2.4,0.6-3.6c0.1-1.2,0.2-2.3,0.2-3.2c0-1.2-0.1-2.1-0.3-2.8c-0.2-0.7-0.5-1.2-0.8-1.5c-0.3-0.3-0.6-0.6-1-0.6
			s-0.7-0.1-1-0.1c-0.7,0-1.4,0.3-2.2,0.8c-0.8,0.5-1.4,1.3-2,2.3L59.4,46.4z"/>
		<path class="st50" d="M105.9,41.7c-0.9,1.4-1.8,2.8-3,4.2c-1.1,1.4-2.4,2.6-3.7,3.6c-1.4,1.1-2.9,1.9-4.6,2.6
			c-1.7,0.6-3.5,1-5.6,1c-1.5,0-2.8-0.2-4-0.6c-1.2-0.4-2.2-0.9-3-1.7c-0.8-0.8-1.5-1.8-1.9-3c-0.4-1.2-0.7-2.7-0.7-4.4
			c0-1.2,0.1-2.5,0.4-4.1c0.2-1.5,0.6-3.1,1.1-4.7c0.5-1.6,1.2-3.2,2.1-4.8c0.9-1.6,1.9-3,3.1-4.2c1.2-1.2,2.6-2.2,4.3-3
			c1.6-0.7,3.5-1.1,5.6-1.1c1.4,0,2.5,0.2,3.4,0.5c0.9,0.3,1.6,0.8,2.1,1.3c0.5,0.5,0.9,1.2,1,1.9c0.2,0.7,0.3,1.4,0.3,2.2
			c0,1.8-0.4,3.4-1.2,5c-0.8,1.5-1.8,2.9-3.1,4c-1.3,1.1-2.8,2.1-4.5,2.8c-1.7,0.7-3.5,1.1-5.3,1.2c0,0.5-0.1,0.9-0.1,1.3
			c0,0.4,0,0.8,0,1.2c0,1,0.1,1.9,0.3,2.6c0.2,0.7,0.5,1.2,0.8,1.6c0.4,0.4,0.8,0.6,1.4,0.8c0.5,0.1,1.2,0.2,1.9,0.2
			c1.2,0,2.3-0.2,3.3-0.5s1.9-0.8,2.8-1.3c0.9-0.6,1.7-1.2,2.4-2c0.8-0.8,1.5-1.6,2.3-2.4H105.9z M89.2,37.4c1.2-0.1,2.3-0.4,3.4-1
			c1.1-0.6,2-1.3,2.8-2.3c0.8-0.9,1.5-2,2-3.2c0.5-1.2,0.7-2.4,0.7-3.7c0-0.8-0.1-1.4-0.3-1.8c-0.2-0.5-0.6-0.7-1.2-0.7
			c-0.8,0-1.5,0.4-2.3,1.1c-0.7,0.7-1.5,1.7-2.1,2.9c-0.7,1.2-1.2,2.6-1.8,4.1C89.9,34.4,89.5,35.9,89.2,37.4z"/>
		<path class="st50" d="M101.5,52.7l6.5-30.7h8.8l-0.7,3.2c0.7-0.7,1.3-1.3,2-1.8c0.6-0.4,1.3-0.8,1.9-1c0.6-0.2,1.2-0.4,1.8-0.5
			c0.5-0.1,1.1-0.1,1.5-0.1c1,0,1.9,0.1,2.7,0.4c0.8,0.3,1.6,0.7,2.2,1.2c0.6,0.6,1.1,1.3,1.4,2.2c0.3,0.9,0.5,1.9,0.5,3.1
			c0,0.8-0.1,1.7-0.2,2.7c-0.1,0.9-0.3,1.9-0.6,2.9c-0.2,1-0.5,2-0.7,3c-0.2,1-0.5,1.9-0.7,2.8c-0.2,0.9-0.4,1.7-0.6,2.5
			c-0.1,0.8-0.2,1.4-0.2,2c0,0.8,0.2,1.4,0.5,1.9c0.3,0.5,1,0.7,1.9,0.7c1,0,1.7-0.1,2-0.4c-0.1,1.1-0.4,2.1-0.8,2.9
			c-0.4,0.8-0.9,1.4-1.5,2c-0.6,0.5-1.3,0.9-2,1.1c-0.8,0.2-1.5,0.4-2.3,0.4c-1.2,0-2.2-0.2-3-0.6s-1.4-0.9-1.9-1.6
			c-0.5-0.6-0.8-1.4-1-2.2c-0.2-0.8-0.3-1.7-0.3-2.6c0-1,0.1-2.3,0.4-3.6c0.3-1.4,0.6-2.8,0.9-4.3c0.3-1.5,0.7-2.9,0.9-4.2
			c0.3-1.4,0.4-2.5,0.4-3.5c0-2.1-0.7-3.1-2.2-3.1c-0.6,0-1.1,0.1-1.6,0.4c-0.5,0.3-0.9,0.7-1.3,1.2c-0.4,0.5-0.8,1.1-1.1,1.8
			c-0.3,0.7-0.6,1.4-0.8,2.2l-4.2,19.7H101.5z"/>
		<path class="st50" d="M165.6,15c0,0.9-0.1,1.6-0.3,2.4c-0.2,0.7-0.5,1.3-0.9,1.8c-0.4,0.5-0.9,0.9-1.5,1.2
			c-0.6,0.3-1.2,0.4-1.9,0.4c-0.8,0-1.5-0.2-2.1-0.5c-0.6-0.3-1.2-0.8-1.6-1.4c0.8-0.6,1.4-1.3,1.8-2.2c0.5-0.9,0.7-1.9,0.7-3
			c0-1.3-0.4-2.4-1.2-3.1c-0.8-0.8-1.8-1.2-3.2-1.2c-0.8,0-1.6,0.2-2.3,0.5c-0.7,0.3-1.3,0.7-1.8,1.3c-0.5,0.5-0.9,1.2-1.1,2
			c-0.3,0.8-0.4,1.6-0.4,2.5c0,1.4,0.3,2.6,1,3.8c0.7,1.2,1.5,2.4,2.5,3.5c1,1.2,2.1,2.3,3.2,3.5c1.2,1.2,2.2,2.5,3.2,3.8
			c1,1.3,1.8,2.8,2.5,4.4c0.7,1.6,1,3.3,1,5.2c0,2-0.4,3.9-1.3,5.6c-0.8,1.7-2,3.2-3.5,4.4c-1.5,1.2-3.2,2.2-5.2,2.9
			c-2,0.7-4.2,1.1-6.5,1.1c-2,0-3.7-0.3-5.3-0.8c-1.6-0.5-2.9-1.2-4.1-2.2c-1.1-0.9-2-2.1-2.6-3.4c-0.6-1.3-0.9-2.8-0.9-4.4
			c0-1.4,0.2-2.6,0.7-3.8c0.4-1.2,1-2.2,1.8-3.1c0.8-0.9,1.7-1.6,2.7-2.1c1-0.5,2.1-0.7,3.3-0.7c1.4,0,2.6,0.4,3.6,1.1
			c1,0.7,1.6,1.7,1.8,3c-1.1,0-2,0.1-2.9,0.4c-0.9,0.3-1.6,0.7-2.2,1.3c-0.6,0.5-1.1,1.2-1.4,2c-0.3,0.8-0.5,1.6-0.5,2.6
			c0,1.8,0.5,3.2,1.6,4.3c1,1,2.5,1.6,4.2,1.6c1.1,0,2.1-0.2,3-0.6c0.9-0.4,1.7-0.9,2.4-1.6c0.7-0.7,1.2-1.5,1.6-2.4
			c0.4-0.9,0.6-2,0.6-3.1c0-1.1-0.2-2.2-0.6-3.2c-0.4-1-0.9-2-1.5-3c-0.6-1-1.3-1.9-2.1-2.9c-0.8-0.9-1.6-1.9-2.4-2.8
			c-0.8-0.9-1.6-1.9-2.4-2.9c-0.8-1-1.5-1.9-2.1-3c-0.6-1-1.1-2.1-1.5-3.1c-0.4-1.1-0.6-2.2-0.6-3.4c0-1.6,0.3-3.1,1-4.5
			c0.7-1.4,1.6-2.6,2.9-3.6c1.2-1,2.7-1.8,4.4-2.4c1.7-0.6,3.5-0.9,5.5-0.9c1.7,0,3.2,0.2,4.5,0.6c1.3,0.4,2.5,1,3.4,1.7
			c0.9,0.7,1.7,1.7,2.2,2.7C165.4,12.5,165.6,13.7,165.6,15z"/>
		<path class="st50" d="M201.2,29.4c-1.2,1.3-2.7,2.3-4.6,3.2c-1.9,0.9-4,1.5-6.2,1.9c-0.2,2.8-0.8,5.4-1.6,7.7
			c-0.8,2.3-1.9,4.2-3.2,5.8c-1.3,1.6-2.8,2.8-4.5,3.7c-1.7,0.9-3.5,1.3-5.3,1.3c-1.4,0-2.7-0.2-3.9-0.5c-1.2-0.3-2.2-0.9-3.1-1.7
			c-0.9-0.8-1.5-1.8-2-3c-0.5-1.2-0.7-2.7-0.7-4.5c0-1.2,0.1-2.6,0.4-4.1c0.2-1.5,0.6-3.1,1.2-4.7c0.5-1.6,1.3-3.2,2.1-4.7
			c0.9-1.5,1.9-2.9,3.2-4.1c1.2-1.2,2.7-2.2,4.3-3c1.6-0.7,3.5-1.1,5.6-1.1c5.3,0,7.9,3.3,7.9,9.8v0.1c0.1,0,0.2,0.1,0.3,0.1
			c0.1,0,0.2,0,0.4,0c0.7,0,1.5-0.1,2.3-0.3c0.8-0.2,1.7-0.5,2.5-0.8c0.8-0.3,1.7-0.7,2.5-1.2c0.8-0.4,1.5-0.9,2.2-1.4L201.2,29.4z
			 M185.2,34.7c-0.6-0.2-1.1-0.5-1.3-0.9c-0.2-0.5-0.3-1-0.3-1.6c0-0.9,0.2-1.6,0.5-2.1c0.3-0.5,0.8-1,1.4-1.2
			c0-0.7-0.1-1.2-0.2-1.7c-0.1-0.4-0.2-0.8-0.4-1.1c-0.2-0.3-0.4-0.5-0.7-0.6c-0.3-0.1-0.6-0.2-1-0.2c-0.7,0-1.4,0.3-2.1,0.9
			c-0.7,0.6-1.3,1.3-1.9,2.3c-0.6,0.9-1.2,2-1.7,3.2c-0.5,1.2-0.9,2.5-1.3,3.7c-0.4,1.3-0.6,2.5-0.8,3.8c-0.2,1.2-0.3,2.4-0.3,3.4
			c0,1,0.1,1.8,0.2,2.5c0.1,0.6,0.3,1.1,0.5,1.5c0.2,0.4,0.6,0.6,1,0.8c0.4,0.1,0.9,0.2,1.5,0.2c0.7,0,1.5-0.3,2.2-1
			c0.7-0.7,1.4-1.6,2.1-2.7c0.6-1.1,1.2-2.5,1.7-4C184.6,38.2,184.9,36.5,185.2,34.7z"/>
		<path class="st50" d="M227.2,41.7c-0.6,1.7-1.2,3.1-1.9,4.3c-0.7,1.2-1.4,2.2-2.1,3.1c-0.7,0.8-1.5,1.5-2.2,2
			c-0.8,0.5-1.5,0.9-2.2,1.2c-0.7,0.3-1.4,0.5-2.1,0.6c-0.7,0.1-1.3,0.1-1.8,0.1c-1.8,0-3.2-0.5-4.2-1.5c-1-1-1.7-2.4-1.9-4.4
			c-0.8,1.3-1.6,2.3-2.4,3c-0.8,0.8-1.6,1.3-2.4,1.8c-0.8,0.4-1.5,0.7-2.3,0.8c-0.7,0.1-1.4,0.2-2.1,0.2c-0.9,0-1.8-0.1-2.6-0.4
			c-0.8-0.3-1.5-0.7-2.1-1.3c-0.6-0.6-1.1-1.4-1.4-2.3c-0.3-0.9-0.5-2-0.5-3.3c0-0.6,0-1.2,0.1-1.8c0.1-0.7,0.2-1.4,0.4-2.2
			l4.2-19.7h8.8l-4.4,20.9c-0.1,0.6-0.2,1.2-0.2,1.7c0,0.7,0.1,1.3,0.4,1.8c0.3,0.5,0.7,0.7,1.4,0.7c0.6,0,1.1-0.1,1.6-0.4
			c0.5-0.3,1-0.6,1.4-1.1c0.4-0.5,0.8-1.1,1.1-1.7c0.3-0.7,0.6-1.4,0.8-2.2l4.2-19.7h8.8l-4.4,20.9c-0.1,0.3-0.2,0.7-0.2,1
			c0,0.3-0.1,0.7-0.1,1c0,0.9,0.2,1.5,0.6,1.8s1,0.5,1.9,0.5c0.6,0,1.2-0.1,1.7-0.4c0.5-0.3,1-0.6,1.4-1.1c0.4-0.5,0.8-1.1,1.1-1.7
			c0.3-0.7,0.6-1.4,0.8-2.2H227.2z"/>
		<path class="st50" d="M222.2,52.7l6.5-30.7h8.8l-0.8,3.8c0.5-0.5,1.1-0.9,1.6-1.4c0.6-0.5,1.1-0.9,1.8-1.2
			c0.6-0.3,1.2-0.6,1.9-0.9c0.7-0.2,1.4-0.3,2.1-0.3c0.7,0,1.3,0.1,1.8,0.4c0.5,0.3,1,0.6,1.3,1c0.4,0.4,0.6,0.9,0.8,1.5
			c0.2,0.6,0.3,1.1,0.3,1.7c0,0.5-0.1,1.1-0.3,1.6c-0.2,0.5-0.5,1-0.8,1.4c-0.4,0.4-0.8,0.8-1.4,1c-0.6,0.3-1.2,0.4-1.9,0.4
			c-0.6,0-1-0.1-1.3-0.3c-0.3-0.2-0.5-0.4-0.7-0.7c-0.2-0.3-0.3-0.6-0.3-1c-0.1-0.3-0.1-0.7-0.2-1c-0.1-0.3-0.2-0.5-0.3-0.7
			c-0.1-0.2-0.3-0.3-0.6-0.3c-0.9,0-1.7,0.2-2.4,0.6c-0.6,0.4-1.3,1-2.1,1.7l-4.9,23.3H222.2z"/>
		<path class="st50" d="M290.5,44c-0.3,1.8-0.8,3.2-1.5,4.4c-0.7,1.2-1.5,2.1-2.4,2.8c-0.9,0.7-2,1.2-3.1,1.5
			c-1.1,0.3-2.3,0.4-3.6,0.4c-1.4,0-2.7-0.2-3.9-0.6c-1.2-0.4-2.2-0.9-3-1.7s-1.5-1.8-1.9-3c-0.5-1.2-0.7-2.7-0.7-4.4
			c0-1.2,0.1-2.5,0.4-4.1c0.2-1.5,0.6-3.1,1.1-4.7c0.5-1.6,1.2-3.2,2.1-4.8c0.9-1.6,1.9-3,3.1-4.2c1.2-1.2,2.6-2.2,4.3-3
			c1.6-0.7,3.5-1.1,5.6-1.1c1.4,0,2.5,0.2,3.4,0.5c0.9,0.3,1.6,0.8,2.1,1.3c0.5,0.5,0.9,1.2,1,1.9c0.2,0.7,0.3,1.4,0.3,2.2
			c0,1.8-0.4,3.4-1.2,5c-0.8,1.5-1.8,2.9-3.1,4c-1.3,1.1-2.8,2.1-4.5,2.8c-1.7,0.7-3.5,1.1-5.3,1.2c0,0.3-0.1,0.7-0.1,1
			c0,0.3,0,0.6,0,0.9c0,1,0.1,1.8,0.3,2.5c0.2,0.7,0.5,1.2,0.8,1.6c0.3,0.4,0.7,0.7,1.2,0.8c0.5,0.2,1,0.2,1.5,0.2
			c0.6,0,1.2-0.1,1.9-0.3c0.6-0.2,1.3-0.4,1.9-0.7c0.6-0.3,1.2-0.6,1.8-1C289.5,44.9,290,44.5,290.5,44z M280,37.4
			c1.2,0,2.3-0.4,3.4-0.9c1.1-0.6,2-1.3,2.9-2.3c0.8-0.9,1.5-2,2-3.2c0.5-1.2,0.7-2.4,0.7-3.7c0-0.8-0.1-1.4-0.3-1.8
			c-0.2-0.5-0.6-0.7-1.2-0.7c-0.8,0-1.5,0.4-2.3,1.2c-0.7,0.8-1.4,1.8-2.1,3c-0.6,1.2-1.2,2.6-1.8,4.1
			C280.7,34.5,280.3,35.9,280,37.4z"/>
		<path class="st50" d="M339.1,42.3c-0.8,2.1-1.9,3.8-3.3,5.3c-1.4,1.4-2.9,2.6-4.5,3.5c-1.6,0.9-3.3,1.6-5,2
			c-1.7,0.4-3.2,0.6-4.7,0.6c-2.3,0-4.3-0.3-5.9-0.8c-1.7-0.5-3.1-1.4-4.2-2.6c-1.1-1.2-1.9-2.8-2.5-4.7c-0.5-1.9-0.8-4.3-0.8-7
			c0-1.4,0.1-2.9,0.3-4.6c0.2-1.6,0.4-3.4,0.8-5.1c0.4-1.8,0.9-3.5,1.5-5.3c0.6-1.8,1.3-3.5,2.1-5.1c0.8-1.6,1.8-3.2,2.9-4.6
			c1.1-1.4,2.3-2.7,3.7-3.7c1.4-1.1,2.9-1.9,4.6-2.5c1.7-0.6,3.5-0.9,5.5-0.9c1.4,0,2.8,0.2,4,0.5c1.2,0.3,2.3,0.8,3.3,1.5
			c0.9,0.7,1.7,1.5,2.2,2.5c0.5,1,0.8,2.3,0.8,3.7c0,0.8-0.1,1.6-0.2,2.3c-0.1,0.7-0.4,1.3-0.7,1.8c-0.3,0.5-0.8,0.9-1.3,1.2
			c-0.5,0.3-1.2,0.4-2,0.4c-0.5,0-1-0.1-1.7-0.3c-0.6-0.2-1.2-0.6-1.8-1.3c0.4-0.2,0.7-0.5,1-0.9c0.3-0.4,0.6-0.8,0.9-1.3
			c0.3-0.5,0.5-1.1,0.6-1.7c0.2-0.6,0.2-1.2,0.2-1.8c0-0.5-0.1-0.9-0.2-1.4c-0.1-0.5-0.3-0.9-0.6-1.2c-0.3-0.3-0.7-0.6-1.2-0.8
			c-0.5-0.2-1.1-0.3-1.7-0.3c-1.1,0-2.2,0.4-3.3,1.3c-1.1,0.8-2.1,2-3,3.4c-0.9,1.4-1.8,3.1-2.6,5c-0.8,1.9-1.5,3.9-2,6
			c-0.6,2.1-1,4.3-1.3,6.5c-0.3,2.2-0.5,4.4-0.5,6.5c0,1.4,0.1,2.7,0.3,3.9c0.2,1.2,0.6,2.2,1.1,3c0.5,0.8,1.3,1.5,2.2,2
			c0.9,0.5,2.2,0.7,3.7,0.7c2.4,0,4.7-0.5,6.7-1.6c2.1-1.1,3.8-2.6,5.2-4.5L339.1,42.3z"/>
		<path class="st50" d="M372.3,41.7c-0.6,1.7-1.2,3.1-1.9,4.3c-0.7,1.2-1.4,2.2-2.1,3.1c-0.7,0.8-1.5,1.5-2.2,2
			c-0.8,0.5-1.5,0.9-2.2,1.2c-0.7,0.3-1.4,0.5-2.1,0.6c-0.7,0.1-1.3,0.1-1.8,0.1c-1.7,0-3.1-0.5-4.2-1.4c-1-0.9-1.7-2.4-1.9-4.2
			c-0.5,0.7-1,1.4-1.6,2.1c-0.6,0.7-1.3,1.3-2,1.8c-0.7,0.5-1.6,1-2.5,1.3c-0.9,0.3-1.9,0.5-3,0.5c-1.1,0-2.1-0.2-3.1-0.5
			c-1-0.3-1.8-0.9-2.6-1.7c-0.8-0.8-1.4-1.8-1.8-3.1c-0.5-1.3-0.7-2.8-0.7-4.6c0-1.4,0.1-2.9,0.4-4.5c0.3-1.6,0.7-3.2,1.3-4.8
			c0.6-1.6,1.3-3.1,2.2-4.6c0.9-1.5,1.9-2.8,3.1-3.9c1.2-1.1,2.5-2,4-2.7c1.5-0.7,3.1-1,4.9-1c1.7,0,3,0.3,3.8,0.9
			c0.8,0.6,1.2,1.3,1.2,2.2v0.4l0.7-3.3h8.8l-4.4,20.9c-0.1,0.3-0.2,0.7-0.2,1c0,0.3-0.1,0.7-0.1,1c0,1.8,0.8,2.6,2.5,2.6
			c0.6,0,1.2-0.2,1.7-0.5c0.5-0.3,1-0.7,1.4-1.2c0.4-0.5,0.8-1.1,1.1-1.8c0.3-0.7,0.6-1.5,0.8-2.2H372.3z M356.9,27.9
			c0-0.2,0-0.4-0.1-0.7c-0.1-0.3-0.2-0.5-0.4-0.8c-0.2-0.2-0.4-0.5-0.8-0.6c-0.3-0.2-0.7-0.3-1.2-0.3c-0.9,0-1.7,0.3-2.4,0.8
			c-0.8,0.6-1.5,1.3-2.1,2.2c-0.6,0.9-1.2,2-1.7,3.2c-0.5,1.2-0.9,2.4-1.3,3.6c-0.3,1.2-0.6,2.5-0.8,3.7c-0.2,1.2-0.3,2.3-0.3,3.3
			c0,1.2,0.1,2.1,0.3,2.7c0.2,0.6,0.5,1.1,0.8,1.4c0.3,0.3,0.6,0.5,1,0.6c0.4,0.1,0.7,0.1,1,0.1c0.5,0,0.9-0.1,1.5-0.3
			c0.5-0.2,1-0.6,1.5-1c0.5-0.4,0.9-1,1.3-1.7c0.4-0.7,0.7-1.5,0.9-2.4L356.9,27.9z"/>
		<path class="st50" d="M375,17.2c0.4-2.2,1.1-4,1.9-5.3c0.8-1.4,1.8-2.4,2.8-3.2c1-0.8,2.1-1.3,3.2-1.5c1.1-0.3,2.2-0.4,3.2-0.4
			c0.9,0,1.8,0.2,2.7,0.5c0.9,0.3,1.6,0.8,2.3,1.3c0.7,0.6,1.2,1.3,1.6,2.1c0.4,0.8,0.6,1.7,0.6,2.7c0,1-0.1,1.8-0.2,2.5h-2.9
			c0-0.3,0.1-0.6,0.1-0.9s0-0.5,0-0.8c0-0.7-0.2-1.2-0.7-1.6c-0.5-0.3-1-0.5-1.6-0.5c-0.3,0-0.7,0.1-1.1,0.2
			c-0.4,0.1-0.8,0.4-1.2,0.8c-0.4,0.4-0.8,0.9-1.1,1.5c-0.3,0.7-0.6,1.5-0.8,2.5l-1,4.9h4.5l-0.4,2.5h-4.5l-7.1,33.1
			c-0.4,2.2-1.1,4-1.9,5.3c-0.8,1.4-1.7,2.4-2.8,3.2c-1,0.8-2.1,1.3-3.2,1.5c-1.1,0.3-2.1,0.4-3.1,0.4c-0.9,0-1.8-0.2-2.7-0.5
			c-0.9-0.3-1.6-0.8-2.3-1.3c-0.7-0.6-1.2-1.3-1.6-2.1c-0.4-0.8-0.6-1.7-0.6-2.7c0-1.4,0.3-2.6,0.8-3.6c0.5-1,1.3-1.8,2.3-2.5
			c1-0.7,2.1-1.3,3.4-1.8c1.3-0.5,2.6-0.9,4.1-1.4L375,17.2z M367.1,54.3c-1,0.3-1.9,0.7-2.7,1.1c-0.8,0.4-1.5,0.8-2.1,1.3
			c-0.6,0.5-1.1,1.1-1.4,1.7c-0.3,0.6-0.5,1.4-0.5,2.2c0,0.2,0.1,0.5,0.2,0.7c0.1,0.2,0.3,0.5,0.5,0.6c0.2,0.2,0.5,0.3,0.8,0.5
			c0.3,0.1,0.6,0.2,1,0.2c0.3,0,0.6-0.1,1-0.2c0.3-0.1,0.6-0.4,1-0.8c0.3-0.4,0.6-0.9,0.9-1.5c0.3-0.6,0.5-1.4,0.7-2.3L367.1,54.3z"
			/>
		<path class="st50" d="M405.4,44c-0.3,1.8-0.8,3.2-1.5,4.4c-0.7,1.2-1.5,2.1-2.4,2.8c-0.9,0.7-2,1.2-3.1,1.5
			c-1.1,0.3-2.3,0.4-3.6,0.4c-1.4,0-2.7-0.2-3.9-0.6c-1.2-0.4-2.2-0.9-3-1.7s-1.5-1.8-1.9-3c-0.5-1.2-0.7-2.7-0.7-4.4
			c0-1.2,0.1-2.5,0.4-4.1c0.2-1.5,0.6-3.1,1.1-4.7c0.5-1.6,1.2-3.2,2.1-4.8c0.9-1.6,1.9-3,3.1-4.2c1.2-1.2,2.6-2.2,4.3-3
			c1.6-0.7,3.5-1.1,5.6-1.1c1.4,0,2.5,0.2,3.4,0.5c0.9,0.3,1.6,0.8,2.1,1.3c0.5,0.5,0.9,1.2,1,1.9c0.2,0.7,0.3,1.4,0.3,2.2
			c0,1.8-0.4,3.4-1.2,5c-0.8,1.5-1.8,2.9-3.1,4c-1.3,1.1-2.8,2.1-4.5,2.8c-1.7,0.7-3.5,1.1-5.3,1.2c0,0.3-0.1,0.7-0.1,1
			c0,0.3,0,0.6,0,0.9c0,1,0.1,1.8,0.3,2.5c0.2,0.7,0.5,1.2,0.8,1.6c0.3,0.4,0.7,0.7,1.2,0.8c0.5,0.2,1,0.2,1.5,0.2
			c0.6,0,1.2-0.1,1.9-0.3c0.6-0.2,1.3-0.4,1.9-0.7c0.6-0.3,1.2-0.6,1.8-1C404.4,44.9,404.9,44.5,405.4,44z M394.9,37.4
			c1.2,0,2.3-0.4,3.4-0.9c1.1-0.6,2-1.3,2.9-2.3c0.8-0.9,1.5-2,2-3.2c0.5-1.2,0.7-2.4,0.7-3.7c0-0.8-0.1-1.4-0.3-1.8
			c-0.2-0.5-0.6-0.7-1.2-0.7c-0.8,0-1.5,0.4-2.3,1.2c-0.7,0.8-1.4,1.8-2.1,3c-0.6,1.2-1.2,2.6-1.8,4.1
			C395.7,34.5,395.2,35.9,394.9,37.4z"/>
	</g>
</g>
</svg>
