<svg id="Layer_1" data-name="Layer 1" xmlns="http://www.w3.org/2000/svg" viewBox="0 0 354.5 286"><title>contributed issues </title><line x1="257.07" y1="48.65" x2="259.57" y2="48.65" fill="none" stroke="#fff" stroke-miterlimit="10" stroke-width="3"/><line x1="264.2" y1="48.65" x2="280.41" y2="48.65" fill="none" stroke="#fff" stroke-miterlimit="10" stroke-width="3" stroke-dasharray="4.63 4.63"/><polyline points="282.73 48.65 285.23 48.65 285.23 46.15" fill="none" stroke="#fff" stroke-miterlimit="10" stroke-width="3"/><line x1="285.23" y1="40.94" x2="285.23" y2="22.69" fill="none" stroke="#fff" stroke-miterlimit="10" stroke-width="3" stroke-dasharray="5.21 5.21"/><line x1="285.23" y1="20.09" x2="285.23" y2="17.59" fill="none" stroke="#fff" stroke-miterlimit="10" stroke-width="3"/><polyline points="258.04 97.2 315.32 97.2 315.32 118.56" fill="none" stroke="#01302e" stroke-miterlimit="10" stroke-width="4"/><line x1="257.56" y1="65.64" x2="314.84" y2="65.64" fill="none" stroke="#01302e" stroke-miterlimit="10" stroke-width="3"/><line x1="257.56" y1="81.18" x2="334.74" y2="81.18" fill="none" stroke="#fff" stroke-miterlimit="10" stroke-width="4" stroke-dasharray="7"/><line x1="89.12" y1="39.55" x2="12.42" y2="39.55" fill="none" stroke="#fff" stroke-miterlimit="10" stroke-width="3" stroke-dasharray="7"/><line x1="88.15" y1="101.97" x2="35.72" y2="101.97" fill="none" stroke="#01302e" stroke-miterlimit="10" stroke-width="3"/><line x1="88.63" y1="59.82" x2="31.35" y2="59.82" fill="none" stroke="#01302e" stroke-miterlimit="10" stroke-width="4"/><line x1="88.63" y1="79.72" x2="86.13" y2="79.72" fill="none" stroke="#fff" stroke-miterlimit="10" stroke-width="3"/><line x1="81.32" y1="79.72" x2="16.36" y2="79.72" fill="none" stroke="#fff" stroke-miterlimit="10" stroke-width="3" stroke-dasharray="4.81 4.81"/><polyline points="13.95 79.72 11.45 79.72 11.45 82.22" fill="none" stroke="#fff" stroke-miterlimit="10" stroke-width="3"/><line x1="11.45" y1="87.35" x2="11.45" y2="95.04" fill="none" stroke="#fff" stroke-miterlimit="10" stroke-width="3" stroke-dasharray="5.13 5.13"/><line x1="11.45" y1="97.61" x2="11.45" y2="100.11" fill="none" stroke="#fff" stroke-miterlimit="10" stroke-width="3"/><circle cx="346.21" cy="80.81" r="3.82" fill="none" stroke="#fff" stroke-miterlimit="10" stroke-width="3"/><circle cx="21.28" cy="59.52" r="3.82" fill="none" stroke="#01302e" stroke-miterlimit="10" stroke-width="3"/><circle cx="31.06" cy="101.84" r="3" fill="#01302e"/><circle cx="11.4" cy="109.48" r="3" fill="none" stroke="#fff" stroke-miterlimit="10" stroke-width="4"/><circle cx="285.54" cy="9" r="3" fill="none" stroke="#fff" stroke-miterlimit="10" stroke-width="4"/><circle cx="315.91" cy="126.97" r="4.63" fill="#01302e"/><circle cx="319.99" cy="65.57" r="2.69" fill="#01302e"/><circle cx="11.38" cy="39.64" r="4.41" fill="#fff"/><path d="M261.17,33.49c0-11.19-5.55-16.6-16.7-16.81-6.2-.12-12.4,0-18.6,0q-61.14,0-122.29,0c-11.28,0-17.44,5.14-17.52,15.23q-.34,44,0,88c.07,9,5.94,14.48,15.05,14.73,9.53.26,19.07.09,28.61.09q11.64,0,23.28,0l1.76,1.93c-4,6.51-7.92,13.07-12,19.51-3.41,5.36-8.76,5.66-14.45,5.64-1.36,0-2.74,2.46-4.11,3.79,1.77,1.15,3.54,3.3,5.32,3.31q44,.31,88,0c1.82,0,3.63-2,5.45-3.15-1.79-1.4-3.38-3.33-5.41-4.07-3-1.09-7.05-.34-9.3-2.1-7.66-6-12.66-14-14.68-24.87,17.55,0,34.22.09,50.89,0,11.13-.08,16.7-5.63,16.74-16.78Q261.33,75.69,261.17,33.49ZM196.3,161.4H150.85c3.42-8.08,5.31-17.59,10.9-23.77,3.33-3.68,12.45-2.38,19-2.75a6.76,6.76,0,0,1,5.29,3.05C189.7,145.49,192.83,153.31,196.3,161.4ZM253.71,104h-.84a12.92,12.92,0,0,1,.11,8.27h.27c1.13,13-.6,14.89-12.91,14.89H106.72c-12.23,0-14-2-12.78-14.89h.4a14.14,14.14,0,0,1,.3-8.27h-.76c-.15-2-.4-3.87-.4-5.7q0-31.45,0-62.93c0-8.89,2.2-11.21,10.76-11.21q69.36-.06,138.73,0c8.32,0,10.71,2.34,10.73,10.52C253.74,57.58,253.71,80.43,253.71,104Z" fill="#01302e" stroke="#00999e" stroke-miterlimit="10" stroke-width="3"/><rect x="115.33" y="16.62" width="5.22" height="8.74" fill="#00999e"/><rect x="125.77" y="16.62" width="5.22" height="8.74" fill="#00999e"/><rect x="136.2" y="16.62" width="5.22" height="8.74" fill="#00999e"/><rect x="165.57" y="160.79" width="5.22" height="8.74" fill="#00999e"/><rect x="176.01" y="160.79" width="5.22" height="8.74" fill="#00999e"/><rect x="186.44" y="160.79" width="5.22" height="8.74" fill="#00999e"/><circle cx="174.19" cy="119.59" r="3.28" fill="#01302e"/><line x1="92.27" y1="107.57" x2="255.01" y2="107.57" fill="none" stroke="#fff" stroke-miterlimit="10" stroke-width="4"/><rect x="213.63" y="102.9" width="5.22" height="8.74" fill="#00999e"/><rect x="224.06" y="102.9" width="5.22" height="8.74" fill="#00999e"/><rect x="234.5" y="102.9" width="5.22" height="8.74" fill="#00999e"/><path d="M64.35,231.54h7.14A6.65,6.65,0,0,0,74.1,231a7.28,7.28,0,0,0,3.72-3.48,8.11,8.11,0,0,0,.81-2.51h2a8.77,8.77,0,0,1-.87,3.32,9.51,9.51,0,0,1-2,2.7,9.07,9.07,0,0,1-6.27,2.48h-7.2a9.06,9.06,0,0,1-3.54-.71A9.07,9.07,0,0,1,55.88,228a8.88,8.88,0,0,1-.71-3.54V214.6a8.88,8.88,0,0,1,.71-3.54,9.1,9.1,0,0,1,8.41-5.58h7.2a9.07,9.07,0,0,1,3.41.65A8.86,8.86,0,0,1,77.76,208a9.37,9.37,0,0,1,2,2.73,8.92,8.92,0,0,1,.87,3.29h-2a8.11,8.11,0,0,0-.81-2.51A7.28,7.28,0,0,0,74.1,208a6.65,6.65,0,0,0-2.61-.53H64.35Zm-1.92-23.89a9.91,9.91,0,0,0-3.82,2.89,6.37,6.37,0,0,0-1.46,4.06v9.81a6.37,6.37,0,0,0,1.46,4.06,9.91,9.91,0,0,0,3.82,2.89Z" fill="#023a36" stroke="#023a36" stroke-miterlimit="10" stroke-width="0.5"/><path d="M103.89,227.57a5.94,5.94,0,0,1-6,6h-8a5.94,5.94,0,0,1-6-6v-8a5.94,5.94,0,0,1,6-6h8a5.94,5.94,0,0,1,6,6Zm-12.6,4V215.59H89.92a4,4,0,0,0-4,4v8a4,4,0,0,0,4,4Zm10.61-12a4,4,0,0,0-4-4H93.27v15.95h4.66a4,4,0,0,0,4-4Z" fill="#023a36" stroke="#023a36" stroke-miterlimit="10" stroke-width="0.5"/><path d="M113.44,215.59a4,4,0,0,0-4,4v14h-2v-14a5.92,5.92,0,0,1,6-6h6.77a5.71,5.71,0,0,1,4.25,1.74,5.77,5.77,0,0,1,1.71,4.22v14h-2v-14a4,4,0,0,0-4-4h-4v17.94h-2.11V216.28Z" fill="#023a36" stroke="#023a36" stroke-miterlimit="10" stroke-width="0.5"/><path d="M138.52,213.61H142v2h-3.47v12a3.69,3.69,0,0,0,1,2.52,4.3,4.3,0,0,0,2.33,1.39v2.05h-5.9a6.24,6.24,0,0,1-4.31-1.83,5.62,5.62,0,0,1-1.71-4.13V205.42h2.05v8.19h4.59v-8.19h2Zm-1.18,16.94a6.16,6.16,0,0,1-.81-3v-12h-4.59v12a3.87,3.87,0,0,0,1.15,2.8,3.71,3.71,0,0,0,2.76,1.17h2Z" fill="#023a36" stroke="#023a36" stroke-miterlimit="10" stroke-width="0.5"/><path d="M152.17,215.59a4,4,0,0,0-4,4v14h-2v-14a5.94,5.94,0,0,1,6-6h6.77a5.9,5.9,0,0,1,5.95,5.34h-2a4,4,0,0,0-1.37-2.39,3.79,3.79,0,0,0-2.54-1h-4v17.94h-2.11V216.28Z" fill="#023a36" stroke="#023a36" stroke-miterlimit="10" stroke-width="0.5"/><path d="M167.87,207.09v-2h8.57v2Zm0,6.52h8.57v19.92h-2V215.59h-4.59v17.94h-2Z" fill="#023a36" stroke="#023a36" stroke-miterlimit="10" stroke-width="0.5"/><path d="M186.93,233.53a5.94,5.94,0,0,1-6-6V205.42h2v22.15a3.59,3.59,0,0,0,1.36,2.8,4.81,4.81,0,0,0,3.23,1.17V213.61h4a8.85,8.85,0,0,1,3.6.74,9.72,9.72,0,0,1,5,5,8.89,8.89,0,0,1,.74,3.6v1.36a8.82,8.82,0,0,1-.74,3.6,9.74,9.74,0,0,1-2,3,9.31,9.31,0,0,1-2.95,2,9.18,9.18,0,0,1-3.6.71Zm12-10.61a7,7,0,0,0-.59-2.83,7.66,7.66,0,0,0-3.91-3.91,7,7,0,0,0-2.83-.59h-2v15.95h2a7,7,0,0,0,2.83-.58,7.82,7.82,0,0,0,2.32-1.56,7.18,7.18,0,0,0,1.59-2.29,7,7,0,0,0,.59-2.83Z" fill="#023a36" stroke="#023a36" stroke-miterlimit="10" stroke-width="0.5"/><path d="M210.26,231.54V213.61h2.11v17.93h4a4,4,0,0,0,4-4v-14h2v14a5.8,5.8,0,0,1-1.7,4.22,5.73,5.73,0,0,1-4.26,1.74h-6.76a5.94,5.94,0,0,1-6-6v-14h2v14a4,4,0,0,0,4,4Z" fill="#023a36" stroke="#023a36" stroke-miterlimit="10" stroke-width="0.5"/><path d="M234.78,213.61h3.47v2h-3.47v12a3.69,3.69,0,0,0,1,2.52,4.3,4.3,0,0,0,2.33,1.39v2.05h-5.9a6.26,6.26,0,0,1-4.31-1.83,5.62,5.62,0,0,1-1.71-4.13V205.42h2v8.19h4.59v-8.19h2Zm-1.18,16.94a6.16,6.16,0,0,1-.81-3v-12H228.2v12a3.87,3.87,0,0,0,1.15,2.8,3.71,3.71,0,0,0,2.76,1.17h2Z" fill="#023a36" stroke="#023a36" stroke-miterlimit="10" stroke-width="0.5"/><path d="M252,213.61a8.89,8.89,0,0,1,3.6.74,9.72,9.72,0,0,1,5,5,8.89,8.89,0,0,1,.74,3.6v2.67H248v-10a4.82,4.82,0,0,0-3.23,1.18,3.6,3.6,0,0,0-1.37,2.8v8a4,4,0,0,0,4,4h14v2h-14a5.94,5.94,0,0,1-6-6v-8a5.94,5.94,0,0,1,6-6Zm7.33,10a8.3,8.3,0,0,0-.59-3.13,8.72,8.72,0,0,0-1.59-2.55,7.4,7.4,0,0,0-2.32-1.71,6.71,6.71,0,0,0-2.83-.62h-2v8Z" fill="#023a36" stroke="#023a36" stroke-miterlimit="10" stroke-width="0.5"/><path d="M273.88,233.53a9.18,9.18,0,0,1-3.6-.71,9.33,9.33,0,0,1-4.94-4.94,9.14,9.14,0,0,1-.71-3.6v-1.36a9.21,9.21,0,0,1,.71-3.6,9.31,9.31,0,0,1,2-2.95,9.74,9.74,0,0,1,2.95-2,8.85,8.85,0,0,1,3.6-.74H278v17.93a4.79,4.79,0,0,0,3.23-1.17,3.6,3.6,0,0,0,1.37-2.8V205.42h2v22.15a5.92,5.92,0,0,1-6,6Zm-7.26-9.25a6.81,6.81,0,0,0,.59,2.83,7.37,7.37,0,0,0,3.84,3.85,7,7,0,0,0,2.83.58h2V215.59h-2a7,7,0,0,0-2.83.59,7.34,7.34,0,0,0-2.29,1.59,7.92,7.92,0,0,0-1.55,2.32,6.81,6.81,0,0,0-.59,2.83Z" fill="#023a36" stroke="#023a36" stroke-miterlimit="10" stroke-width="0.5"/><path d="M113.07,250.08h9.19v28h-2V252.06h-5.21v26.07h-2Z" fill="#023a36" stroke="#023a36" stroke-miterlimit="10" stroke-width="0.5"/><path d="M131.44,278.13a4.73,4.73,0,0,1-3.23-1.27,4.89,4.89,0,0,1-1.67-3.07h2a3.08,3.08,0,0,0,1,1.7,2.83,2.83,0,0,0,1.89.66h6.46v-7h-5.71a5.33,5.33,0,0,1-3.91-1.58,5.21,5.21,0,0,1-1.62-3.88,5.51,5.51,0,0,1,5.53-5.52h8.37a4.66,4.66,0,0,1,3.26,1.27,5,5,0,0,1,1.65,3.14h-2a2.8,2.8,0,0,0-1-1.74,2.87,2.87,0,0,0-1.93-.68h-5.77v7h5.77a5.17,5.17,0,0,1,2.11.43,5.58,5.58,0,0,1,1.74,1.18,5.75,5.75,0,0,1,1.18,1.71,5,5,0,0,1,.44,2.08,5.43,5.43,0,0,1-.44,2.14,5.5,5.5,0,0,1-2.92,2.95,5.17,5.17,0,0,1-2.11.43Zm1.37-17.93a4.38,4.38,0,0,0-2.92,1.05,3.16,3.16,0,0,0-1.24,2.48,3.06,3.06,0,0,0,1.24,2.45,4.42,4.42,0,0,0,2.92,1Zm7.13,15.95a4.17,4.17,0,0,0,2.86-1.06,3.25,3.25,0,0,0,1.18-2.48,3.07,3.07,0,0,0-1.18-2.42,4.32,4.32,0,0,0-2.86-1Z" fill="#023a36" stroke="#023a36" stroke-miterlimit="10" stroke-width="0.5"/><path d="M153.85,278.13a4.71,4.71,0,0,1-3.23-1.27,5,5,0,0,1-1.68-3.07h2a3.07,3.07,0,0,0,1,1.7,2.84,2.84,0,0,0,1.9.66h6.45v-7h-5.71a5.36,5.36,0,0,1-3.91-1.58,5.2,5.2,0,0,1-1.61-3.88,5.5,5.5,0,0,1,5.52-5.52H163a4.68,4.68,0,0,1,3.26,1.27,5,5,0,0,1,1.64,3.14h-2A2.91,2.91,0,0,0,163,260.2H157.2v7H163a5.21,5.21,0,0,1,2.11.43,5.82,5.82,0,0,1,1.74,1.18,5.94,5.94,0,0,1,1.18,1.71,5,5,0,0,1,.43,2.08,5.42,5.42,0,0,1-.43,2.14,5.71,5.71,0,0,1-1.18,1.77,5.82,5.82,0,0,1-1.74,1.18,5.21,5.21,0,0,1-2.11.43Zm1.36-17.93a4.38,4.38,0,0,0-2.92,1.05,3.19,3.19,0,0,0-1.24,2.48,3.09,3.09,0,0,0,1.24,2.45,4.42,4.42,0,0,0,2.92,1Zm7.14,15.95a4.12,4.12,0,0,0,2.85-1.06,3.21,3.21,0,0,0,1.18-2.48,3,3,0,0,0-1.18-2.42,4.27,4.27,0,0,0-2.85-1Z" fill="#023a36" stroke="#023a36" stroke-miterlimit="10" stroke-width="0.5"/><path d="M178.05,276.15V258.21h2.11v17.94h4a4,4,0,0,0,4-4v-14h2v14a5.8,5.8,0,0,1-1.7,4.22,5.73,5.73,0,0,1-4.26,1.74h-6.76a5.94,5.94,0,0,1-6-6v-14h2v14a4,4,0,0,0,4,4Z" fill="#023a36" stroke="#023a36" stroke-miterlimit="10" stroke-width="0.5"/><path d="M204.68,258.21a8.89,8.89,0,0,1,3.6.74,9.75,9.75,0,0,1,5,5,8.73,8.73,0,0,1,.75,3.6v2.67H200.64v-10a4.81,4.81,0,0,0-3.23,1.17,3.59,3.59,0,0,0-1.36,2.8v8a4,4,0,0,0,4,4h14v2H200a5.94,5.94,0,0,1-6-6v-8a5.94,5.94,0,0,1,6-6Zm7.32,10a8.3,8.3,0,0,0-.59-3.13,8.49,8.49,0,0,0-1.58-2.55,7.26,7.26,0,0,0-2.33-1.7,6.52,6.52,0,0,0-2.82-.62h-2v8Z" fill="#023a36" stroke="#023a36" stroke-miterlimit="10" stroke-width="0.5"/><path d="M222,278.13a4.73,4.73,0,0,1-3.23-1.27,4.89,4.89,0,0,1-1.67-3.07h2a3,3,0,0,0,1,1.7,2.83,2.83,0,0,0,1.89.66h6.46v-7h-5.71a5.35,5.35,0,0,1-3.91-1.58,5.21,5.21,0,0,1-1.62-3.88,5.51,5.51,0,0,1,5.53-5.52h8.38a4.66,4.66,0,0,1,3.25,1.27,5,5,0,0,1,1.65,3.14h-2a2.8,2.8,0,0,0-1-1.74,2.86,2.86,0,0,0-1.92-.68h-5.78v7h5.78a5.24,5.24,0,0,1,2.11.43,5.65,5.65,0,0,1,1.73,1.18,5.75,5.75,0,0,1,1.18,1.71,5,5,0,0,1,.44,2.08,5.43,5.43,0,0,1-.44,2.14,5.54,5.54,0,0,1-1.18,1.77,5.65,5.65,0,0,1-1.73,1.18,5.24,5.24,0,0,1-2.11.43Zm1.37-17.93a4.38,4.38,0,0,0-2.92,1.05,3.16,3.16,0,0,0-1.24,2.48,3.06,3.06,0,0,0,1.24,2.45,4.42,4.42,0,0,0,2.92,1Zm7.14,15.95a4.16,4.16,0,0,0,2.85-1.06,3.21,3.21,0,0,0,1.18-2.48,3,3,0,0,0-1.18-2.42,4.31,4.31,0,0,0-2.85-1Z" fill="#023a36" stroke="#023a36" stroke-miterlimit="10" stroke-width="0.5"/><polygon points="63.42 206.47 63.42 231.85 59.04 230.97 56.41 222.22 57.29 212.59 59.04 208.22 63.42 206.47" fill="#023a36" stroke="#023a36" stroke-miterlimit="10" stroke-width="0.5"/><path d="M92.3,215.22v17.5H87.92l-3.5-4.37.88-7.88.87-4.38S90.55,214.34,92.3,215.22Z" fill="#023a36" stroke="#023a36" stroke-miterlimit="10" stroke-width="0.5"/><path d="M108.05,233.6h7.88V216.09s-.88-2.62-1.75-1.75-4.38.88-4.38.88l-1.75,5.25.87,11.38Z" fill="#023a36" stroke="#023a36" stroke-miterlimit="10" stroke-width="0.5"/><polygon points="130.8 215.22 136.93 215.22 137.81 228.35 139.56 231.85 134.3 231.85 130.8 228.35 130.8 215.22" fill="#023a36" stroke="#023a36" stroke-miterlimit="10" stroke-width="0.5"/><polygon points="153.56 215.22 153.56 233.6 146.56 233.6 147.43 218.72 149.18 216.09 152.68 214.34 153.56 215.22" fill="#023a36" stroke="#023a36" stroke-miterlimit="10" stroke-width="0.5"/><polygon points="168.44 233.6 175.44 233.6 175.44 214.34 169.31 214.34 168.44 233.6" fill="#023a36" stroke="#023a36" stroke-miterlimit="10" stroke-width="0.5"/><polygon points="188.56 215.22 188.56 231.85 194.69 231.85 199.94 228.35 200.82 221.34 196.44 216.09 188.56 215.22" fill="#023a36" stroke="#023a36" stroke-miterlimit="10" stroke-width="0.5"/><path d="M204.32,213.47h7v18.38h-3.5a2.69,2.69,0,0,1-1.75-.88c-.88-.87-1.75-7-1.75-7Z" fill="#023a36" stroke="#023a36" stroke-miterlimit="10" stroke-width="0.5"/><polygon points="227.07 215.22 234.07 215.22 234.07 228.35 235.82 232.72 231.45 232.72 227.07 229.22 227.07 215.22" fill="#023a36" stroke="#023a36" stroke-miterlimit="10" stroke-width="0.5"/><polygon points="248.95 215.22 248.95 223.97 260.33 223.97 258.58 216.97 250.7 214.34 248.95 215.22" fill="#023a36" stroke="#023a36" stroke-miterlimit="10" stroke-width="0.5"/><path d="M276.08,214.34l-7,1.75-2.63,4.38a38,38,0,0,0-.87,4.38c0,.87,1.75,4.37,1.75,4.37l1.75,2.63,5.25.87,2.63-.87Z" fill="#023a36" stroke="#023a36" stroke-miterlimit="10" stroke-width="0.5"/><path d="M223.57,259.85l.88,7.88-4.38-.88-1.75-3.5a12.69,12.69,0,0,1,1.75-2.62C221,259.85,223.57,259.85,223.57,259.85Z" fill="#023a36" stroke="#023a36" stroke-miterlimit="10" stroke-width="0.5"/><path d="M229.7,269.48v7.88s7-2.63,6.12-5.26S230.57,267.73,229.7,269.48Z" fill="#023a36" stroke="#023a36" stroke-miterlimit="10" stroke-width="0.5"/><polygon points="201.69 260.73 201.69 268.6 213.07 268.6 212.19 264.23 209.57 260.73 204.32 258.98 201.69 260.73" fill="#023a36" stroke="#023a36" stroke-miterlimit="10" stroke-width="0.5"/><path d="M171.94,258.1h7.87l-.87,19.26-4.38-.88s-2.62-4.38-2.62-5.25Z" fill="#023a36" stroke="#023a36" stroke-miterlimit="10" stroke-width="0.5"/><polygon points="156.18 258.98 155.31 268.6 150.93 266.85 150.06 262.48 153.56 259.85 156.18 258.98" fill="#023a36" stroke="#023a36" stroke-miterlimit="10" stroke-width="0.5"/><polygon points="161.43 268.6 161.43 277.36 164.94 276.48 167.56 272.11 164.94 268.6 161.43 268.6" fill="#023a36" stroke="#023a36" stroke-miterlimit="10" stroke-width="0.5"/><path d="M133.43,259.85v7.88h-4.38s-2.62-4.38-1.75-4.38,2.63-3.5,2.63-3.5Z" fill="#023a36" stroke="#023a36" stroke-miterlimit="10" stroke-width="0.5"/><path d="M139.56,269.48v7.88l3.5-.88,2.62-3.5-1.75-3.5S139.56,267.73,139.56,269.48Z" fill="#023a36" stroke="#023a36" stroke-miterlimit="10" stroke-width="0.5"/><rect x="114.18" y="251.1" width="7" height="27.13" fill="#023a36" stroke="#023a36" stroke-miterlimit="10" stroke-width="0.5"/></svg>