<?xml version="1.0" encoding="utf-8"?>
<!-- Generator: Adobe Illustrator 22.0.0, SVG Export Plug-In . SVG Version: 6.00 Build 0)  -->
<svg version="1.1" id="Layer_1" xmlns="http://www.w3.org/2000/svg" xmlns:xlink="http://www.w3.org/1999/xlink" x="0px" y="0px"
	 viewBox="0 0 740.6 645.2" style="enable-background:new 0 0 740.6 645.2;" xml:space="preserve">
<style type="text/css">
	.st0{clip-path:url(#SVGID_2_);fill:#FFFFFF;}
	.st1{fill:#01302E;}
	.st2{fill:#00999E;stroke:#00999E;stroke-miterlimit:10;}
	.st3{fill:none;stroke:#00999E;stroke-width:4;stroke-miterlimit:10;stroke-dasharray:7;}
	.st4{fill:none;stroke:#00999E;stroke-width:4;stroke-miterlimit:10;}
	.st5{fill:#00999E;}
</style>
<g>
	<g>
		<defs>
			<rect id="SVGID_1_" x="0.6" y="-28.7" width="746" height="507.6"/>
		</defs>
		<clipPath id="SVGID_2_">
			<use xlink:href="#SVGID_1_"  style="overflow:visible;"/>
		</clipPath>
		
			<rect x="-91.7" y="83.8" transform="matrix(0.9809 -0.1944 0.1944 0.9809 -71.1513 68.4316)" class="st0" width="809.4" height="625.8"/>
	</g>
	<g>
		<path class="st1" d="M244.2,257.9c0.5,2.6,0.6,5.2,0,7.7c-0.5,2.5-1.4,4.9-2.8,6.9c-1.4,2.1-3.1,3.9-5.2,5.3
			c-2.1,1.5-4.5,2.5-7.1,3l-15,3.1c-2.6,0.5-5.2,0.6-7.7,0c-2.5-0.5-4.9-1.4-6.9-2.8c-2.1-1.4-3.9-3.1-5.4-5.2
			c-1.5-2.1-2.5-4.5-3-7.1l-4.3-20.5c-0.5-2.6-0.6-5.2,0-7.7c0.5-2.5,1.4-4.9,2.8-6.9c1.4-2.1,3.1-3.9,5.2-5.4
			c2.1-1.5,4.5-2.5,7.1-3l15-3.1c2.6-0.5,5.2-0.6,7.7,0c2.5,0.5,4.9,1.4,6.9,2.8c2.1,1.4,3.9,3.1,5.3,5.2c1.5,2.1,2.5,4.5,3,7.1
			L244.2,257.9z M198.9,230.9c-3,2.2-5.2,4.7-6.7,7.7c-1.5,3-1.9,6-1.3,9.1l4.3,20.5c0.6,3.1,2.3,5.7,4.8,7.9
			c2.6,2.1,5.6,3.6,9.2,4.4L198.9,230.9z M213.3,279.9l14.9-3.1c2.1-0.4,3.9-1.2,5.6-2.4c1.7-1.2,3-2.6,4.1-4.2
			c1.1-1.7,1.8-3.5,2.2-5.4c0.4-1.9,0.4-3.9,0-6l-4.3-20.5c-0.4-2-1.2-3.8-2.4-5.5c-1.2-1.7-2.5-3-4.2-4.1c-1.6-1.1-3.4-1.8-5.4-2.3
			c-2-0.4-4-0.4-6.1,0l-14.9,3.1L213.3,279.9z"/>
		<path class="st1" d="M270.2,229c2.7-0.6,5.3-0.6,7.8,0c2.5,0.6,4.9,1.5,7,2.9c2.1,1.4,4,3.2,5.5,5.3c1.5,2.1,2.6,4.5,3.1,7.2
			l0.6,2.8c0.6,2.7,0.6,5.3,0,7.8c-0.6,2.5-1.5,4.9-2.9,7c-1.4,2.1-3.2,4-5.3,5.4c-2.1,1.5-4.5,2.5-7.2,3.1l-8.4,1.8l-7.8-37.4
			c-2.6,0.5-4.7,1.8-6.2,3.9c-1.6,2-2.1,4.2-1.6,6.4l10.4,49.8l-4.1,0.9L250.6,246c-0.7-3.5-0.1-6.6,1.8-9.6
			c1.9-2.9,4.6-4.7,8.1-5.5L270.2,229z M289.5,245.2c-0.4-2.1-1.3-4-2.5-5.6c-1.2-1.7-2.6-3.1-4.3-4.2c-1.7-1.1-3.5-1.9-5.5-2.3
			c-2-0.4-4.1-0.4-6.2,0l-4.1,0.9l6.9,33.3l4.1-0.9c2.1-0.4,4-1.3,5.6-2.5c1.7-1.2,3.1-2.6,4.2-4.3c1.1-1.6,1.9-3.5,2.3-5.5
			c0.4-2,0.4-4.1,0-6.2L289.5,245.2z"/>
		<path class="st1" d="M318.6,218.9c2.7-0.6,5.3-0.6,7.8,0c2.5,0.6,4.9,1.5,7,2.9c2.1,1.4,4,3.2,5.5,5.3c1.5,2.1,2.6,4.5,3.1,7.2
			l1.2,5.6l-27.9,5.8l-4.3-20.9c-2.6,0.5-4.7,1.8-6.2,3.9c-1.6,2-2.1,4.2-1.6,6.4l3.5,16.7c0.5,2.2,1.7,4,3.7,5.3
			c2,1.3,4.1,1.7,6.3,1.2l29.2-6.1l0.9,4.1l-29.2,6.1c-3.5,0.7-6.6,0.1-9.6-1.8c-2.9-1.9-4.7-4.6-5.5-8.1l-3.5-16.7
			c-0.7-3.5-0.1-6.6,1.8-9.6c1.9-2.9,4.6-4.7,8.1-5.5L318.6,218.9z M338.3,236.6c-0.5-2.3-1.3-4.4-2.6-6.3c-1.2-1.9-2.7-3.4-4.4-4.6
			c-1.7-1.2-3.6-2.1-5.6-2.6c-2-0.5-4.1-0.5-6.2-0.1l-4.1,0.9l3.5,16.7L338.3,236.6z"/>
		<path class="st1" d="M358.2,215c-2.2,0.5-4,1.7-5.3,3.7c-1.3,2-1.7,4.1-1.2,6.3l6.1,29.2l-4.1,0.9l-6.1-29.2
			c-0.7-3.5-0.1-6.6,1.8-9.6c1.9-2.9,4.6-4.7,8.1-5.5l14.1-2.9c3.5-0.7,6.8-0.1,9.6,1.8c2.9,1.9,4.7,4.6,5.4,8.1l6.1,29.2l-4.1,0.9
			l-6.1-29.2c-0.5-2.2-1.7-4-3.7-5.3c-2-1.3-4.1-1.7-6.3-1.2l-8.3,1.7l7.8,37.4l-4.4,0.9l-7.5-36L358.2,215z"/>
		<path class="st1" d="M408.3,186.8l3.4,16.3l24.6-5.1l0.9,4.1l-24.6,5.1l6.2,29.8l24.6-5.1l0.9,4.1l-43.8,9.1l-12.2-58.6l43.8-9.1
			l0.9,4.1L408.3,186.8z M404.2,187.7l-10.9,2.3l10.5,50.3l10.9-2.3L404.2,187.7z"/>
		<path class="st1" d="M443.1,188.1c-0.4-1.7-0.4-3.4,0-5.1c0.3-1.6,0.9-3.1,1.8-4.4c0.9-1.3,2-2.4,3.3-3.4c1.3-1,2.9-1.6,4.6-2
			l19.8-4.1c3.5-0.7,6.6-0.1,9.5,1.7c2.9,1.9,4.7,4.5,5.4,8c0.7,3.2-0.2,6.8-2.5,10.7c3.9,1.3,7.2,3.2,9.9,5.8
			c2.7,2.6,4.4,5.7,5.2,9.3c0.5,2.6,0.6,5.2,0,7.7c-0.5,2.5-1.4,4.9-2.8,6.9c-1.4,2.1-3.1,3.9-5.2,5.3c-2.1,1.5-4.5,2.5-7.2,3.1
			l-32.1,6.7L443.1,188.1z M456.5,176.8l-2.8,0.6c-2.2,0.5-4,1.7-5.3,3.6c-1.3,1.9-1.7,4-1.2,6.3l8.8,42.1l11-2.3L456.5,176.8z
			 M476.9,189.6c2.2-0.5,4-1.7,5.3-3.6c1.3-1.9,1.7-4,1.2-6.3c-0.5-2.2-1.7-4-3.6-5.3c-1.9-1.3-4-1.7-6.3-1.2l-12.8,2.7l3.4,16.3
			L476.9,189.6z M484,223.5c2.1-0.4,3.9-1.2,5.6-2.4c1.7-1.2,3-2.6,4.1-4.2c1.1-1.7,1.8-3.5,2.3-5.4c0.5-1.9,0.5-4,0-6
			c-0.4-2.1-1.2-3.9-2.4-5.5c-1.2-1.6-2.6-3-4.2-4.1c-1.6-1.1-3.4-1.9-5.4-2.3c-2-0.4-4-0.4-6.1,0l-12.8,2.7l6.2,29.8L484,223.5z"/>
		<path class="st1" d="M525.7,219.1c-2,0.4-3.9,0.4-5.9,0c-1.9-0.4-3.8-1.1-5.5-2.2c-1.7-1-3.2-2.3-4.5-3.9
			c-1.3-1.5-2.3-3.2-2.9-5.1l4.1-0.9c0.9,3,2.7,5.2,5.3,6.6c2.6,1.4,5.5,1.8,8.5,1.2l13.5-2.8l-4.8-23.1l-12.8,2.7
			c-2.2,0.5-4.3,0.5-6.3,0c-2.1-0.4-4-1.2-5.7-2.3c-1.7-1.1-3.2-2.6-4.4-4.3c-1.2-1.7-2-3.7-2.5-5.8c-0.4-2.2-0.5-4.3,0-6.3
			c0.4-2.1,1.2-4,2.3-5.7c1.1-1.7,2.6-3.2,4.3-4.4c1.7-1.2,3.7-2.1,5.8-2.5l16.5-3.4c1.9-0.4,3.8-0.4,5.7,0c1.9,0.4,3.7,1.1,5.4,2.2
			c1.7,1.1,3.1,2.3,4.5,3.9c1.3,1.5,2.3,3.2,2.9,4.9l-4.1,0.9c-0.9-2.9-2.6-5-5.1-6.5c-2.6-1.4-5.3-1.9-8.4-1.2l-11.9,2.5l4.8,23.1
			l12.8-2.7c2.2-0.5,4.3-0.5,6.3,0c2,0.4,3.9,1.2,5.6,2.3s3.2,2.6,4.4,4.3c1.2,1.7,2,3.7,2.5,5.8c0.5,2.2,0.5,4.3,0,6.3
			c-0.4,2.1-1.2,4-2.3,5.7c-1.1,1.7-2.5,3.2-4.2,4.4c-1.7,1.2-3.6,2-5.8,2.5L525.7,219.1z M513.9,164.8c-2.9,0.9-5.1,2.6-6.7,5.3
			c-1.6,2.6-2.1,5.5-1.5,8.5c0.3,1.5,0.9,2.8,1.9,4c0.9,1.2,2,2.2,3.3,3c1.3,0.8,2.7,1.4,4.4,1.8c1.6,0.4,3.3,0.5,4.9,0.3l-4.6-21.9
			L513.9,164.8z M543.9,211c2.9-1,5.1-2.7,6.6-5.3c1.5-2.6,2-5.4,1.4-8.4c-0.6-3-2.3-5.4-5.1-7.1c-2.7-1.7-5.8-2.4-9.2-2.1l4.6,21.9
			L543.9,211z"/>
		<path class="st2" d="M206.9,323.4l11.9,56.9l-4.3,0.9l-12.8-61.2l20.2-4.2l4.5,21.4l28.6-6l-4.5-21.4l4.3-0.9l12.8,61.2l-4.3,0.9
			l-7.4-35.5l-28.6,6l7.4,35.5l-4.3,0.9L218.4,321L206.9,323.4z"/>
		<path class="st2" d="M295.5,364.3c-2.8,0.6-5.5,0.6-8.2,0.1c-2.7-0.5-5.1-1.5-7.3-3c-2.2-1.5-4.1-3.3-5.7-5.5
			c-1.5-2.2-2.6-4.7-3.2-7.5l-1.2-5.8l29.1-6.1l4.5,21.7c2.7-0.6,4.9-1.9,6.5-4c1.6-2.1,2.2-4.4,1.7-6.7l-3.6-17.5
			c-0.5-2.3-1.8-4.2-3.8-5.6c-2.1-1.4-4.3-1.8-6.6-1.3l-30.5,6.3l-0.9-4.3l30.5-6.3c3.6-0.8,6.9-0.1,10,1.9c3.1,2,5,4.8,5.7,8.4
			l3.6,17.5c0.8,3.6,0.1,6.9-1.9,10c-2,3.1-4.8,5-8.4,5.7L295.5,364.3z M275.2,346c0.5,2.3,1.4,4.5,2.7,6.4c1.3,1.9,2.8,3.5,4.5,4.8
			c1.7,1.3,3.7,2.2,5.8,2.7c2.1,0.5,4.3,0.5,6.4,0.1l4.3-0.9l-3.6-17.2L275.2,346z"/>
		<path class="st2" d="M358.3,318c-0.8-2-2.1-3.5-4-4.6c-1.9-1.1-3.8-1.4-5.9-1l-10.2,2.1l7.3,34.8l10.2-2.1c2.1-0.4,3.8-1.5,5-3.2
			c1.3-1.7,1.9-3.6,1.9-5.7l4.6-1c0.3,3.4-0.5,6.5-2.5,9.1s-4.7,4.4-8.1,5.1l-17.5,3.6c-3.6,0.8-6.9,0.1-10-1.9
			c-3.1-2-5-4.8-5.7-8.4l-3.6-17.5c-0.8-3.6-0.1-6.9,1.9-10c2-3.1,4.8-5,8.4-5.7l17.5-3.6c3.4-0.7,6.6-0.2,9.5,1.5
			c2.9,1.7,4.9,4.2,5.9,7.5L358.3,318z M333.8,315.4l-3,0.6c-2.3,0.5-4.2,1.8-5.6,3.8c-1.4,2.1-1.8,4.3-1.3,6.6l3.6,17.5
			c0.5,2.3,1.8,4.2,3.8,5.6c2.1,1.4,4.3,1.8,6.6,1.3l3-0.6L333.8,315.4z"/>
		<path class="st2" d="M400.3,301.6c-1.9,0.7-3.7,1.7-5.2,3c-1.6,1.3-2.9,2.8-3.9,4.5c-1,1.7-1.7,3.5-2.1,5.5c-0.4,2-0.4,4,0,6
			l0.6,3c0.4,2,1.2,3.8,2.3,5.4c1.1,1.6,2.5,3,4.1,4.2c1.6,1.1,3.4,2,5.3,2.6s4,0.8,6,0.7l0.9,4.3c-2.5,0.4-5.1,0.2-7.8-0.6
			c-2.6-0.8-5.4-2-8.2-3.6l1.5,7.2l-4.3,0.9l-11.9-57c-2.8,0.6-5,1.9-6.6,4.1c-1.6,2.1-2.1,4.4-1.6,6.7l10.1,48.4l-4.3,0.9
			l-10.1-48.4c-0.8-3.6-0.2-6.9,1.8-10c2-3,4.8-5,8.5-5.7l5.7-1.2l5.2,25.1c1.9-2.5,4-4.6,6.1-6.4c2.2-1.8,4.4-3.1,6.8-3.8
			L400.3,301.6z"/>
		<path class="st2" d="M409.1,280.5c2-3.1,4.8-5,8.4-5.7l17.2-3.6l0.9,4.3l-11.4,2.4l2.8,13.5l11.4-2.4l0.9,4.3l-11.4,2.4l8.2,39.1
			l-4.5,0.9l-11.9-57c-2.7,0.6-4.9,1.9-6.5,4c-1.6,2.1-2.2,4.4-1.7,6.7l10.1,48.3l-4.3,0.9l-10.1-48.4
			C406.5,286.9,407.1,283.6,409.1,280.5z"/>
		<path class="st2" d="M468.1,282.9c2.8-0.6,5.5-0.6,8.2,0s5.1,1.6,7.4,3.1c2.2,1.5,4.1,3.3,5.7,5.5c1.6,2.2,2.7,4.7,3.3,7.5
			l1.2,5.8l-29.1,6.1l-4.5-21.8c-2.7,0.6-4.9,1.9-6.5,4c-1.6,2.1-2.2,4.4-1.7,6.7l3.6,17.5c0.5,2.3,1.8,4.2,3.8,5.6
			c2.1,1.4,4.3,1.8,6.6,1.3l30.5-6.3l0.9,4.3l-30.5,6.3c-3.6,0.8-6.9,0.1-10-1.9c-3.1-2-5-4.8-5.7-8.4l-3.6-17.5
			c-0.8-3.6-0.1-6.9,1.9-10c2-3.1,4.8-5,8.4-5.7L468.1,282.9z M488.6,301.4c-0.5-2.4-1.4-4.6-2.7-6.6c-1.3-1.9-2.8-3.6-4.6-4.8
			c-1.8-1.3-3.7-2.2-5.9-2.7c-2.1-0.5-4.3-0.5-6.4-0.1l-4.3,0.9l3.6,17.5L488.6,301.4z"/>
		<path class="st2" d="M514.9,318.5c-2.6,0.5-5.2,0.1-7.6-1.3c-2.5-1.4-4.1-3.4-5.1-5.9l4.3-0.9c0.7,1.5,1.7,2.5,3,3.3
			c1.3,0.7,2.8,0.9,4.4,0.6l14.1-2.9l-3.2-15.2l-12.5,2.6c-3.3,0.7-6.4,0.1-9.3-1.7c-2.8-1.8-4.6-4.4-5.3-7.7
			c-0.7-3.3-0.1-6.4,1.7-9.3c1.9-2.8,4.5-4.6,7.8-5.3l18.3-3.8c2.7-0.6,5.3-0.1,7.7,1.3c2.4,1.4,4.1,3.5,5,6.1l-4.3,0.9
			c-0.6-1.5-1.6-2.6-3-3.3c-1.4-0.7-2.9-1-4.5-0.6l-12.6,2.6l3.2,15.3l12.6-2.6c1.6-0.3,3.2-0.3,4.8,0c1.6,0.3,3,0.9,4.3,1.8
			c1.3,0.9,2.4,1.9,3.3,3.2c0.9,1.3,1.6,2.7,1.9,4.3c0.3,1.6,0.3,3.2,0,4.9c-0.3,1.6-0.9,3.1-1.8,4.4c-0.9,1.3-1.9,2.4-3.3,3.4
			c-1.3,0.9-2.8,1.6-4.4,1.9L514.9,318.5z M509.8,278.8c-2.4,0.5-4.4,1.7-5.9,3.6c-1.5,1.9-2,3.9-1.6,6c0.4,2.1,1.7,3.7,3.8,4.8
			c2.1,1.1,4.4,1.4,6.8,0.9L509.8,278.8z M532.6,310.3c2.4-0.5,4.4-1.7,5.7-3.6c1.4-1.9,1.9-3.9,1.4-6c-0.4-2.1-1.7-3.7-3.7-4.7
			c-2-1.1-4.2-1.4-6.7-0.9L532.6,310.3z"/>
		<path class="st2" d="M563,263.2l7.6-1.6l0.9,4.3l-7.6,1.6l5.4,26.1c0.4,2.1,1.5,3.8,3.2,5c1.7,1.3,3.6,2,5.7,2l0.9,4.5l-12.9,2.7
			c-3.8,0.6-7.2-0.1-10.2-2c-3-2-4.9-4.7-5.6-8.2l-10.1-48.4l4.5-0.9l3.7,17.9l10-2.1l-3.7-17.9l4.3-0.9L563,263.2z M568.2,300.7
			c-1.6-1.9-2.7-4-3.1-6.1l-5.4-26.1l-10,2.1l5.4,26.1c0.5,2.3,1.7,4.2,3.8,5.6c2,1.4,4.2,1.8,6.6,1.3l4.3-0.9L568.2,300.7z"/>
	</g>
	<line class="st3" x1="609.1" y1="16.5" x2="714.9" y2="548.1"/>
	<polyline class="st3" points="531.3,34.8 543.8,90.5 136.2,176.1 190,445.2 	"/>
	<polyline class="st4" points="568.8,27.1 630.3,342.4 341.9,406.8 379.4,601 	"/>
	<polyline class="st4" points="87.7,121.1 161.7,507.6 291.5,480.7 306.9,569.1 	"/>
	<line class="st4" x1="47.5" y1="130.7" x2="95.5" y2="397"/>
	<line class="st3" x1="83.9" y1="569.5" x2="11.5" y2="138"/>
	<circle class="st4" cx="719.7" cy="565.4" r="8.7"/>
	<circle class="st4" cx="309.7" cy="589.4" r="8.7"/>
	<circle class="st4" cx="99.3" cy="416.3" r="8.7"/>
	<circle class="st5" cx="382.3" cy="613.5" r="6.7"/>
	<circle class="st5" cx="190.3" cy="452.6" r="6.7"/>
	<circle class="st5" cx="86.3" cy="584.6" r="6.7"/>
</g>
</svg>
