<svg id="Layer_1" data-name="Layer 1" xmlns="http://www.w3.org/2000/svg" xmlns:xlink="http://www.w3.org/1999/xlink" viewBox="0 0 711.36 455.2"><defs><clipPath id="clip-path"><rect x="-0.84" y="-30" width="713.97" height="485.8" fill="none"/></clipPath></defs><title>hack white</title><g clip-path="url(#clip-path)"><rect x="-89.17" y="77.65" width="774.7" height="598.96" transform="translate(-67.63 65.17) rotate(-11.21)" fill="#fff"/></g><path d="M231.21,244.35a18.3,18.3,0,0,1,0,7.37,18.92,18.92,0,0,1-2.69,6.64,18.65,18.65,0,0,1-5,5.12,18.19,18.19,0,0,1-6.77,2.9l-14.39,3a18.25,18.25,0,0,1-7.36,0,18.48,18.48,0,0,1-6.64-2.69,18.79,18.79,0,0,1-5.13-5,18.24,18.24,0,0,1-2.89-6.77l-4.09-19.6a18.25,18.25,0,0,1,0-7.36,18.6,18.6,0,0,1,2.69-6.65,18.9,18.9,0,0,1,5-5.12,18.42,18.42,0,0,1,6.77-2.9l14.39-3a18.07,18.07,0,0,1,7.36-.05,18.6,18.6,0,0,1,6.65,2.69,18.9,18.9,0,0,1,5.12,5,18.47,18.47,0,0,1,2.9,6.78ZM187.9,218.44a20.47,20.47,0,0,0-6.43,7.35,13.06,13.06,0,0,0-1.22,8.74l4.08,19.59a13,13,0,0,0,4.61,7.51,20.3,20.3,0,0,0,8.83,4.18Zm13.79,46.94,14.26-3a14.27,14.27,0,0,0,9.23-6.32,15.73,15.73,0,0,0,2.1-5.16,13.77,13.77,0,0,0,0-5.75l-4.08-19.6a14.14,14.14,0,0,0-2.25-5.22,14.6,14.6,0,0,0-4-3.89,15.33,15.33,0,0,0-5.17-2.16,13.75,13.75,0,0,0-5.82,0l-14.27,3Z" fill="#01302e"/><path d="M256.1,216.65a17.77,17.77,0,0,1,7.51,0,19.78,19.78,0,0,1,12,7.85,18,18,0,0,1,3,6.88l.57,2.73a17.72,17.72,0,0,1,0,7.5,19.81,19.81,0,0,1-2.8,6.73,18.68,18.68,0,0,1-12,8.13l-8.06,1.68-7.47-35.84a9.72,9.72,0,0,0-6,3.7,7.3,7.3,0,0,0-1.56,6.14l9.92,47.63-4,.82L237.38,233a12.1,12.1,0,0,1,9.42-14.38Zm18.51,15.55a14.06,14.06,0,0,0-2.35-5.4,15.33,15.33,0,0,0-9.44-6.18,13.92,13.92,0,0,0-5.89,0l-4,.82,6.64,31.87,4-.82a14.17,14.17,0,0,0,5.4-2.36,15.93,15.93,0,0,0,4-4.07,14.68,14.68,0,0,0,2.21-5.24,14.09,14.09,0,0,0,0-5.89Z" fill="#01302e"/><path d="M302.48,207a17.93,17.93,0,0,1,7.51,0,19.85,19.85,0,0,1,12,7.86,17.89,17.89,0,0,1,3,6.88l1.11,5.33-26.66,5.56-4.16-20a9.77,9.77,0,0,0-6,3.7,7.31,7.31,0,0,0-1.56,6.15l3.33,16a8.22,8.22,0,0,0,9.59,6.28l27.9-5.81.83,4-27.9,5.81a12.12,12.12,0,0,1-14.39-9.43l-3.33-16a12.1,12.1,0,0,1,9.42-14.39Zm18.8,16.92a17,17,0,0,0-6.71-10.44,14.75,14.75,0,0,0-5.36-2.44,13.5,13.5,0,0,0-5.9-.07l-4,.83,3.34,16Z" fill="#01302e"/><path d="M340.39,203.23a8.2,8.2,0,0,0-6.28,9.59l5.81,27.9-4,.83-5.81-27.91a12.1,12.1,0,0,1,9.42-14.38l13.52-2.82a11.66,11.66,0,0,1,9.22,1.7,11.82,11.82,0,0,1,5.16,7.72l5.82,27.91-4,.82-5.81-27.9a8.22,8.22,0,0,0-9.59-6.28L346,202.06l7.47,35.84-4.22.88L342,204.31Z" fill="#01302e"/><path d="M388.34,176.28l3.26,15.63L415.16,187l.83,4-23.56,4.91,5.94,28.53,23.56-4.91.83,4-41.92,8.73-11.68-56.05,41.92-8.74.83,4Zm-4,.83L374,179.28l10,48.12,10.41-2.18Z" fill="#01302e"/><path d="M421.59,177.5a12,12,0,0,1,0-4.84,11.3,11.3,0,0,1,1.76-4.25,13.2,13.2,0,0,1,3.2-3.26,11.45,11.45,0,0,1,4.4-1.88l19-4a11.91,11.91,0,0,1,14.24,9.33q1,4.59-2.4,10.21a24.29,24.29,0,0,1,9.43,5.54,16.83,16.83,0,0,1,5,8.92,18.3,18.3,0,0,1,.05,7.37,18.57,18.57,0,0,1-7.71,11.76,18.53,18.53,0,0,1-6.9,2.93l-30.75,6.41Zm12.88-10.83-2.72.57a8,8,0,0,0-6.19,9.44L434,217l10.54-2.2ZM454,178.91a8,8,0,0,0-3.26-15.63l-12.28,2.56,3.26,15.63Zm6.77,32.49a14.34,14.34,0,0,0,9.23-6.32,16.76,16.76,0,0,0,2.15-5.18,13.77,13.77,0,0,0-2.3-11,16.53,16.53,0,0,0-4-3.88,14,14,0,0,0-5.17-2.16,14.28,14.28,0,0,0-5.82,0l-12.27,2.55L448.47,214Z" fill="#01302e"/><path d="M500.64,207.23a13.69,13.69,0,0,1-5.63,0,16.62,16.62,0,0,1-5.22-2.09,17.75,17.75,0,0,1-4.33-3.69,15.36,15.36,0,0,1-2.82-4.84l4-.83a10.23,10.23,0,0,0,5.07,6.32,11.61,11.61,0,0,0,8.13,1.15l12.9-2.69-4.6-22.07-12.28,2.56a14.78,14.78,0,0,1-6.07,0,15.48,15.48,0,0,1-9.67-6.33,14.68,14.68,0,0,1-2.39-5.58,14.84,14.84,0,0,1,0-6.08,15.49,15.49,0,0,1,6.33-9.66,14.8,14.8,0,0,1,5.59-2.39l15.75-3.29a13.24,13.24,0,0,1,5.5,0,15.51,15.51,0,0,1,5.16,2.1,19,19,0,0,1,4.27,3.7,15.35,15.35,0,0,1,2.79,4.72l-4,.83a10.28,10.28,0,0,0-4.92-6.22,11.11,11.11,0,0,0-8-1.18l-11.41,2.38,4.6,22.07,12.28-2.55a14.33,14.33,0,0,1,6,0,15.89,15.89,0,0,1,5.39,2.24,15.55,15.55,0,0,1,4.22,4.11,15.35,15.35,0,0,1,2.43,11.65,15.57,15.57,0,0,1-2.23,5.45,15.86,15.86,0,0,1-4,4.21,14.57,14.57,0,0,1-5.52,2.38Zm-11.23-52a11.1,11.1,0,0,0-6.45,5,10.81,10.81,0,0,0-1.42,8.13,9.39,9.39,0,0,0,1.77,3.83,12.09,12.09,0,0,0,3.19,2.9,13.77,13.77,0,0,0,4.18,1.71,13.6,13.6,0,0,0,4.72.31L491,156.18ZM518,199.46a11.3,11.3,0,0,0,6.32-5.07,10.84,10.84,0,0,0,1.3-8,10.26,10.26,0,0,0-4.85-6.82,13.45,13.45,0,0,0-8.76-2l4.37,20.95Z" fill="#01302e"/><path d="M195.54,307l11.35,54.44-4.15.86L190.53,303.7l19.31-4,4.27,20.48,27.35-5.7L237.2,294l4.14-.87,12.21,58.59-4.15.87-7.07-34L215,324.31l7.07,34-4.14.86-11.35-54.44Z" fill="#00999e" stroke="#00999e" stroke-miterlimit="10"/><path d="M280.38,346.11a19.28,19.28,0,0,1-7.82.08A19.84,19.84,0,0,1,260.1,338a19.28,19.28,0,0,1-3.05-7.21l-1.17-5.57,27.87-5.81,4.33,20.74a10.18,10.18,0,0,0,6.22-3.87,7.62,7.62,0,0,0,1.64-6.42l-3.49-16.72a8.56,8.56,0,0,0-10-6.57l-29.17,6.07-.86-4.14,29.16-6.08a12.65,12.65,0,0,1,15,9.85L300.09,329a12.68,12.68,0,0,1-9.85,15Zm-19.46-17.45a16.81,16.81,0,0,0,2.56,6.1,18.9,18.9,0,0,0,4.33,4.57,15,15,0,0,0,5.54,2.57,14.27,14.27,0,0,0,6.17.06l4.15-.86-3.43-16.46Z" fill="#00999e" stroke="#00999e" stroke-miterlimit="10"/><path d="M340.4,301.82a8.63,8.63,0,0,0-3.82-4.41,7.85,7.85,0,0,0-5.67-.91l-9.73,2,6.95,33.31,9.72-2a7.87,7.87,0,0,0,4.83-3.1,8.56,8.56,0,0,0,1.77-5.45l4.41-.91a12.18,12.18,0,0,1-2.37,8.74,12.52,12.52,0,0,1-7.78,4.87L322,337.44a12.64,12.64,0,0,1-15-9.85l-3.49-16.72a12.66,12.66,0,0,1,9.85-15L330,292.35a12.61,12.61,0,0,1,14.77,8.55ZM317,299.39l-2.85.59a8.6,8.6,0,0,0-6.57,10l3.48,16.73a8.58,8.58,0,0,0,10,6.56l2.85-.59Z" fill="#00999e" stroke="#00999e" stroke-miterlimit="10"/><path d="M380.68,286.12a16.21,16.21,0,0,0-5,2.87,17.32,17.32,0,0,0-3.71,4.29,16,16,0,0,0-2,5.29,14.59,14.59,0,0,0,.05,5.74l.59,2.85a14.12,14.12,0,0,0,2.24,5.22,16,16,0,0,0,3.94,4,17.49,17.49,0,0,0,5.11,2.45,16.36,16.36,0,0,0,5.74.63l.87,4.14a15.58,15.58,0,0,1-7.42-.55,42.66,42.66,0,0,1-7.88-3.43l1.43,6.87-4.15.87L359.1,272.77a10.11,10.11,0,0,0-6.29,3.88,7.69,7.69,0,0,0-1.57,6.41l9.64,46.28-4.15.86-9.64-46.27a12.39,12.39,0,0,1,1.72-9.56,12.24,12.24,0,0,1,8.13-5.48l5.44-1.13,5,24a41.25,41.25,0,0,1,5.88-6.16,18.06,18.06,0,0,1,6.56-3.6Z" fill="#00999e" stroke="#00999e" stroke-miterlimit="10"/><path d="M389.06,266a12.27,12.27,0,0,1,8.06-5.46l16.46-3.43.87,4.14-10.89,2.27,2.7,13,10.89-2.26.86,4.14-10.89,2.27,7.81,37.46-4.28.9L399.28,264.4a10.24,10.24,0,0,0-6.23,3.86,7.63,7.63,0,0,0-1.63,6.43L401.06,321l-4.15.87-9.64-46.28A12.29,12.29,0,0,1,389.06,266Z" fill="#00999e" stroke="#00999e" stroke-miterlimit="10"/><path d="M445.54,268.28a18.67,18.67,0,0,1,7.84,0,20.71,20.71,0,0,1,12.53,8.21,18.83,18.83,0,0,1,3.12,7.19l1.16,5.58-27.87,5.8L438,274.18a10.2,10.2,0,0,0-6.22,3.87,7.64,7.64,0,0,0-1.64,6.43l3.49,16.72a8.58,8.58,0,0,0,10,6.57l29.17-6.08.86,4.15-29.17,6.08a12.66,12.66,0,0,1-15-9.86L426,285.34a12.66,12.66,0,0,1,9.85-15ZM465.18,286a17.84,17.84,0,0,0-2.59-6.29,18.05,18.05,0,0,0-4.42-4.62,15.56,15.56,0,0,0-5.6-2.55,14.11,14.11,0,0,0-6.17-.07l-4.15.86L445.74,290Z" fill="#00999e" stroke="#00999e" stroke-miterlimit="10"/><path d="M490.37,302.35a10,10,0,0,1-7.29-1.25,10.45,10.45,0,0,1-4.84-5.69l4.15-.86a6.54,6.54,0,0,0,2.88,3.12,6.11,6.11,0,0,0,4.24.54L503,295.4l-3-14.52L488,283.36a11.45,11.45,0,0,1-8.86-1.6,11.15,11.15,0,0,1-5.06-7.4,11.75,11.75,0,0,1,9.14-13.94l17.49-3.65a10,10,0,0,1,7.36,1.24,10.66,10.66,0,0,1,4.8,5.83l-4.15.87a6.08,6.08,0,0,0-2.83-3.2,6.19,6.19,0,0,0-4.31-.59l-12.06,2.51,3.06,14.65,12.05-2.51a11.14,11.14,0,0,1,4.6,0,11.9,11.9,0,0,1,4.14,1.71,12.06,12.06,0,0,1,3.2,3.05,10.6,10.6,0,0,1,1.82,4.15,11.61,11.61,0,0,1,0,4.66,11.7,11.7,0,0,1-4.81,7.43,11,11,0,0,1-4.22,1.82Zm-4.95-38.05a9.29,9.29,0,0,0-5.64,3.47,6.8,6.8,0,0,0-1.51,5.73,6.59,6.59,0,0,0,3.66,4.58,9.55,9.55,0,0,0,6.54.87Zm21.84,30.2a8.79,8.79,0,0,0,5.51-3.44,6.93,6.93,0,0,0,1.38-5.7,6.52,6.52,0,0,0-3.52-4.54,9.11,9.11,0,0,0-6.39-.83Z" fill="#00999e" stroke="#00999e" stroke-miterlimit="10"/><path d="M536.4,249.35l7.26-1.52.86,4.15-7.26,1.51,5.22,25a7.78,7.78,0,0,0,3.1,4.83,9.22,9.22,0,0,0,5.47,1.91l.89,4.27-12.31,2.57a13.41,13.41,0,0,1-9.81-1.95,12,12,0,0,1-5.36-7.87L514.82,236l4.27-.89,3.57,17.11,9.59-2-3.56-17.11,4.14-.86Zm4.91,35.9a13.19,13.19,0,0,1-3-5.87l-5.21-25-9.6,2,5.22,25a8.27,8.27,0,0,0,3.61,5.33,7.91,7.91,0,0,0,6.28,1.26l4.15-.87Z" fill="#00999e" stroke="#00999e" stroke-miterlimit="10"/><line x1="580.56" y1="13.24" x2="653.13" y2="379.97" fill="none" stroke="#00999e" stroke-miterlimit="10" stroke-width="4" stroke-dasharray="7"/><polyline points="506.04 30.73 518 84.09 127.89 165.97 161.8 332.64" fill="none" stroke="#00999e" stroke-miterlimit="10" stroke-width="4" stroke-dasharray="7"/><polyline points="541.92 23.36 602.8 336.15 326.78 397.79" fill="none" stroke="#00999e" stroke-miterlimit="10" stroke-width="4"/><polyline points="81.5 113.38 136.34 402.25 260.55 377.49" fill="none" stroke="#00999e" stroke-miterlimit="10" stroke-width="4"/><line x1="43" y1="122.58" x2="68.47" y2="256.64" fill="none" stroke="#00999e" stroke-miterlimit="10" stroke-width="4"/><line x1="50.63" y1="382.97" x2="8.58" y2="129.52" fill="none" stroke="#00999e" stroke-miterlimit="10" stroke-width="4" stroke-dasharray="7"/><circle cx="655.47" cy="395.69" r="8.28" fill="none" stroke="#00999e" stroke-miterlimit="10" stroke-width="4"/><circle cx="275.52" cy="373.97" r="8.28" fill="none" stroke="#00999e" stroke-miterlimit="10" stroke-width="4"/><circle cx="72.32" cy="274.57" r="8.28" fill="none" stroke="#00999e" stroke-miterlimit="10" stroke-width="4"/><circle cx="315.43" cy="399.94" r="6.44" fill="#00999e"/><circle cx="167.7" cy="348.63" r="6.44" fill="#00999e"/><circle cx="53.86" cy="399.14" r="6.44" fill="#00999e"/></svg>