<svg id="Layer_1" data-name="Layer 1" xmlns="http://www.w3.org/2000/svg" viewBox="0 0 355.91 297.85"><defs><style>.cls-1,.cls-11,.cls-2,.cls-3,.cls-4,.cls-5,.cls-6,.cls-7,.cls-8,.cls-9{fill:none;}.cls-1,.cls-11,.cls-2,.cls-3,.cls-6,.cls-7,.cls-8,.cls-9{stroke:#fff;}.cls-1,.cls-11,.cls-13,.cls-15,.cls-2,.cls-3,.cls-4,.cls-5,.cls-6,.cls-7,.cls-8,.cls-9{stroke-miterlimit:10;}.cls-1,.cls-13,.cls-2,.cls-3,.cls-5,.cls-7,.cls-8,.cls-9{stroke-width:3px;}.cls-2{stroke-dasharray:4.63 4.63;}.cls-3{stroke-dasharray:5.21 5.21;}.cls-4,.cls-5{stroke:#03302e;}.cls-11,.cls-4,.cls-6{stroke-width:4px;}.cls-6,.cls-7{stroke-dasharray:7;}.cls-8{stroke-dasharray:4.81 4.81;}.cls-9{stroke-dasharray:5.13 5.13;}.cls-10,.cls-13{fill:#03302e;}.cls-12{fill:#fff;}.cls-13{stroke:#03999e;}.cls-14{fill:#03999e;}.cls-15,.cls-16{fill:#053a36;}.cls-15{stroke:#053a36;stroke-width:0.5px;}</style></defs><title>hackfest</title><line class="cls-1" x1="257.94" y1="49.88" x2="260.44" y2="49.88"/><line class="cls-2" x1="265.08" y1="49.88" x2="281.28" y2="49.88"/><polyline class="cls-1" points="283.6 49.88 286.1 49.88 286.1 47.38"/><line class="cls-3" x1="286.1" y1="42.17" x2="286.1" y2="23.92"/><line class="cls-1" x1="286.1" y1="21.31" x2="286.1" y2="18.81"/><polyline class="cls-4" points="258.92 98.42 316.19 98.42 316.19 119.78"/><line class="cls-5" x1="258.43" y1="66.87" x2="315.71" y2="66.87"/><line class="cls-6" x1="258.43" y1="82.4" x2="335.61" y2="82.4"/><line class="cls-7" x1="89.99" y1="40.78" x2="13.29" y2="40.78"/><line class="cls-5" x1="89.02" y1="103.2" x2="36.59" y2="103.2"/><line class="cls-4" x1="89.5" y1="61.04" x2="32.22" y2="61.04"/><line class="cls-1" x1="89.5" y1="80.95" x2="87" y2="80.95"/><line class="cls-8" x1="82.19" y1="80.95" x2="17.23" y2="80.95"/><polyline class="cls-1" points="14.82 80.95 12.32 80.95 12.32 83.45"/><line class="cls-9" x1="12.32" y1="88.58" x2="12.32" y2="96.27"/><line class="cls-1" x1="12.32" y1="98.83" x2="12.32" y2="101.33"/><circle class="cls-1" cx="347.08" cy="82.04" r="3.82" transform="translate(243.71 423.37) rotate(-86.45)"/><circle class="cls-5" cx="22.15" cy="60.74" r="3.82" transform="translate(-39.85 79.09) rotate(-86.45)"/><circle class="cls-10" cx="31.93" cy="103.06" r="3" transform="translate(-72.91 128.55) rotate(-86.45)"/><circle class="cls-11" cx="12.27" cy="110.71" r="3" transform="translate(-98.99 116.1) rotate(-86.45)"/><circle class="cls-11" cx="286.41" cy="10.23" r="3" transform="translate(258.47 295.46) rotate(-86.45)"/><circle class="cls-10" cx="316.78" cy="128.2" r="4.63"/><circle class="cls-10" cx="320.86" cy="66.8" r="2.69" transform="translate(234.33 382.91) rotate(-86.45)"/><circle class="cls-12" cx="12.25" cy="40.86" r="4.41" transform="translate(-1.63 0.53) rotate(-2.3)"/><path class="cls-13" d="M262,34.72c0-11.19-5.55-16.61-16.71-16.82-6.2-.12-12.4,0-18.59,0q-61.15,0-122.3,0C93.17,17.92,87,23,86.93,33.14q-.34,44,0,88c.07,9,5.94,14.48,15.05,14.73,9.53.26,19.07.08,28.61.09h23.28l1.76,1.93c-4,6.51-7.92,13.07-12,19.51-3.4,5.35-8.76,5.66-14.44,5.63-1.36,0-2.74,2.46-4.11,3.79,1.77,1.15,3.54,3.3,5.32,3.31q44,.31,88,0c1.82,0,3.64-2.05,5.45-3.15-1.79-1.4-3.38-3.33-5.41-4.07-3-1.09-7.06-.34-9.31-2.1-7.66-6-12.66-14-14.68-24.87,17.55,0,34.22.1,50.89,0,11.13-.09,16.7-5.63,16.74-16.78Q262.2,76.92,262,34.72Zm-64.87,127.9H151.72c3.43-8.07,5.32-17.59,10.9-23.76,3.34-3.69,12.45-2.39,19-2.75a6.78,6.78,0,0,1,5.29,3C190.57,146.72,193.7,154.53,197.18,162.62Zm57.4-57.35h-.84a12.93,12.93,0,0,1,.11,8.27h.27c1.14,13-.6,14.88-12.9,14.88H107.59c-12.23,0-14-2-12.77-14.88h.4a14.12,14.12,0,0,1,.3-8.27h-.76c-.15-2-.4-3.87-.41-5.7q0-31.47,0-62.93c0-8.89,2.2-11.21,10.76-11.22q69.37,0,138.74,0c8.32,0,10.71,2.34,10.73,10.52C254.62,58.8,254.58,81.66,254.58,105.27Z"/><rect class="cls-14" x="116.2" y="17.84" width="5.22" height="8.74"/><rect class="cls-14" x="126.64" y="17.84" width="5.22" height="8.74"/><rect class="cls-14" x="137.07" y="17.84" width="5.22" height="8.74"/><rect class="cls-14" x="166.44" y="162.01" width="5.22" height="8.74"/><rect class="cls-14" x="176.88" y="162.01" width="5.22" height="8.74"/><rect class="cls-14" x="187.32" y="162.01" width="5.22" height="8.74"/><circle class="cls-10" cx="175.06" cy="120.81" r="3.28"/><line class="cls-11" x1="93.14" y1="108.8" x2="255.88" y2="108.8"/><rect class="cls-14" x="214.5" y="104.13" width="5.22" height="8.74"/><rect class="cls-14" x="224.94" y="104.13" width="5.22" height="8.74"/><rect class="cls-14" x="235.37" y="104.13" width="5.22" height="8.74"/><path class="cls-15" d="M58,205.3H68.76v32.83H66.43V207.62h-6.1v30.51H58Z"/><path class="cls-15" d="M79.51,238.13a5.52,5.52,0,0,1-3.78-1.49,5.74,5.74,0,0,1-2-3.6h2.33a3.59,3.59,0,0,0,1.2,2,3.33,3.33,0,0,0,2.22.76h7.55v-8.14H80.38a6.29,6.29,0,0,1-4.58-1.85,6.11,6.11,0,0,1-1.89-4.54,6.45,6.45,0,0,1,6.46-6.46h9.81A5.49,5.49,0,0,1,94,216.3,5.87,5.87,0,0,1,95.92,220H93.6a3.4,3.4,0,0,0-3.41-2.83H83.43v8.21h6.76a6.1,6.1,0,0,1,2.47.51,6.6,6.6,0,0,1,2,1.38,6.72,6.72,0,0,1,1.38,2,5.86,5.86,0,0,1,.51,2.43,6.37,6.37,0,0,1-.51,2.51,6.48,6.48,0,0,1-1.38,2.07,6.58,6.58,0,0,1-2,1.38,6.08,6.08,0,0,1-2.47.51Zm1.6-21a5.11,5.11,0,0,0-3.41,1.24,3.71,3.71,0,0,0-1.45,2.91,3.61,3.61,0,0,0,1.45,2.87,5.2,5.2,0,0,0,3.41,1.2Zm8.35,18.67a4.83,4.83,0,0,0,3.34-1.24,3.78,3.78,0,0,0,1.38-2.91,3.57,3.57,0,0,0-1.38-2.83,5,5,0,0,0-3.34-1.16Z"/><path class="cls-15" d="M105.73,238.13a5.52,5.52,0,0,1-3.78-1.49,5.74,5.74,0,0,1-2-3.6h2.33a3.59,3.59,0,0,0,1.2,2,3.33,3.33,0,0,0,2.22.76h7.55v-8.14H106.6a6.29,6.29,0,0,1-4.58-1.85,6.11,6.11,0,0,1-1.89-4.54,6.45,6.45,0,0,1,6.46-6.46h9.81a5.49,5.49,0,0,1,3.81,1.49,5.87,5.87,0,0,1,1.92,3.67h-2.32a3.4,3.4,0,0,0-3.41-2.83h-6.76v8.21h6.76a6.1,6.1,0,0,1,2.47.51,6.6,6.6,0,0,1,2,1.38,6.72,6.72,0,0,1,1.38,2,5.86,5.86,0,0,1,.51,2.43,6.37,6.37,0,0,1-.51,2.51,6.48,6.48,0,0,1-1.38,2.07,6.58,6.58,0,0,1-2,1.38,6.08,6.08,0,0,1-2.47.51Zm1.6-21a5.11,5.11,0,0,0-3.41,1.24,3.71,3.71,0,0,0-1.45,2.91,3.61,3.61,0,0,0,1.45,2.87,5.2,5.2,0,0,0,3.41,1.2Zm8.35,18.67a4.83,4.83,0,0,0,3.34-1.24,3.78,3.78,0,0,0,1.38-2.91,3.57,3.57,0,0,0-1.38-2.83,5,5,0,0,0-3.34-1.16Z"/><path class="cls-15" d="M134.06,235.81v-21h2.47v21h4.65a4.72,4.72,0,0,0,4.65-4.65V214.81h2.32v16.34a6.78,6.78,0,0,1-2,4.94,6.69,6.69,0,0,1-5,2h-7.92a6.94,6.94,0,0,1-7-7V214.81h2.32v16.34a4.71,4.71,0,0,0,4.65,4.65Z"/><path class="cls-15" d="M165.22,214.81a10.26,10.26,0,0,1,4.21.87,11.34,11.34,0,0,1,5.81,5.81,10.25,10.25,0,0,1,.87,4.21v3.12H160.5v-11.7a5.59,5.59,0,0,0-3.78,1.38,4.19,4.19,0,0,0-1.6,3.27v9.37a4.71,4.71,0,0,0,4.65,4.65h16.34v2.32H159.78a6.95,6.95,0,0,1-7-7v-9.37a6.95,6.95,0,0,1,7-7Zm8.57,11.7a9.69,9.69,0,0,0-.69-3.67,9.85,9.85,0,0,0-1.85-3,8.55,8.55,0,0,0-2.72-2,7.76,7.76,0,0,0-3.31-.73H162.9v9.37Z"/><path class="cls-15" d="M185.49,238.13a5.52,5.52,0,0,1-3.78-1.49,5.74,5.74,0,0,1-2-3.6h2.33a3.59,3.59,0,0,0,1.2,2,3.33,3.33,0,0,0,2.22.76H193v-8.14h-6.68a6.29,6.29,0,0,1-4.58-1.85,6.11,6.11,0,0,1-1.89-4.54,6.45,6.45,0,0,1,6.46-6.46h9.81A5.49,5.49,0,0,1,200,216.3a5.87,5.87,0,0,1,1.92,3.67h-2.32a3.4,3.4,0,0,0-3.41-2.83h-6.76v8.21h6.76a6.1,6.1,0,0,1,2.47.51,6.6,6.6,0,0,1,2,1.38,6.72,6.72,0,0,1,1.38,2,5.86,5.86,0,0,1,.51,2.43,6.37,6.37,0,0,1-.51,2.51,6.48,6.48,0,0,1-1.38,2.07,6.58,6.58,0,0,1-2,1.38,6.08,6.08,0,0,1-2.47.51Zm1.6-21a5.11,5.11,0,0,0-3.41,1.24,3.71,3.71,0,0,0-1.45,2.91,3.61,3.61,0,0,0,1.45,2.87,5.2,5.2,0,0,0,3.41,1.2Zm8.35,18.67a4.83,4.83,0,0,0,3.34-1.24,3.78,3.78,0,0,0,1.38-2.91,3.57,3.57,0,0,0-1.38-2.83,5,5,0,0,0-3.34-1.16Z"/><path class="cls-15" d="M219.71,207.26a6.73,6.73,0,0,1,4.94-2h9.23v2.32h-6.1v7.26h6.1v2.32h-6.1v21h-2.4V207.55a5.59,5.59,0,0,0-3.78,1.38,4.19,4.19,0,0,0-1.6,3.27v25.93h-2.32V212.2A6.72,6.72,0,0,1,219.71,207.26Z"/><path class="cls-15" d="M260.68,231.16a6.94,6.94,0,0,1-7,7h-9.37a6.95,6.95,0,0,1-7-7v-9.37a6.95,6.95,0,0,1,7-7h9.37a6.94,6.94,0,0,1,7,7Zm-14.75,4.65V217.14h-1.6a4.71,4.71,0,0,0-4.65,4.65v9.37a4.71,4.71,0,0,0,4.65,4.65Zm12.42-14a4.71,4.71,0,0,0-4.65-4.65h-5.45v18.67h5.45a4.71,4.71,0,0,0,4.65-4.65Z"/><path class="cls-15" d="M271.86,217.14a4.71,4.71,0,0,0-4.65,4.65v16.34h-2.33V221.79a6.95,6.95,0,0,1,7-7h7.92a6.92,6.92,0,0,1,7,6.25h-2.4a4.65,4.65,0,0,0-1.6-2.8,4.44,4.44,0,0,0-3-1.13h-4.65v21h-2.47V217.94Z"/><path class="cls-15" d="M40.79,288h8.35a7.72,7.72,0,0,0,3.05-.62,8.6,8.6,0,0,0,2.54-1.63,8.76,8.76,0,0,0,1.82-2.43,9.27,9.27,0,0,0,.94-2.94h2.33a10.38,10.38,0,0,1-1,3.89,11,11,0,0,1-2.32,3.16,10.6,10.6,0,0,1-7.34,2.91H40.72a10.46,10.46,0,0,1-4.14-.83,10.61,10.61,0,0,1-5.7-5.7,10.44,10.44,0,0,1-.84-4.14V268.18a10.44,10.44,0,0,1,.84-4.14,10.61,10.61,0,0,1,5.7-5.7,10.46,10.46,0,0,1,4.14-.84h8.43a10.59,10.59,0,0,1,7.34,2.91,10.86,10.86,0,0,1,2.32,3.2,10.58,10.58,0,0,1,1,3.85H57.5a9.27,9.27,0,0,0-.94-2.94,8.77,8.77,0,0,0-1.82-2.43,8.66,8.66,0,0,0-2.54-1.63,7.73,7.73,0,0,0-3.05-.62H40.79Zm-2.25-28a11.7,11.7,0,0,0-4.47,3.38,7.45,7.45,0,0,0-1.71,4.76v11.48a7.45,7.45,0,0,0,1.71,4.76,11.66,11.66,0,0,0,4.47,3.38Z"/><path class="cls-15" d="M87.06,283.36a6.94,6.94,0,0,1-7,7H70.72a6.95,6.95,0,0,1-7-7V274a6.95,6.95,0,0,1,7-7h9.37a6.94,6.94,0,0,1,7,7ZM72.32,288V269.34h-1.6A4.71,4.71,0,0,0,66.07,274v9.37A4.71,4.71,0,0,0,70.72,288Zm12.42-14a4.71,4.71,0,0,0-4.65-4.65H74.64V288h5.45a4.71,4.71,0,0,0,4.65-4.65Z"/><path class="cls-15" d="M98.25,269.34A4.71,4.71,0,0,0,93.6,274v16.34H91.28V274a6.95,6.95,0,0,1,7-7h7.92a6.7,6.7,0,0,1,5,2,6.79,6.79,0,0,1,2,4.94v16.34h-2.33V274a4.71,4.71,0,0,0-4.65-4.65h-4.65v21H99V270.14Z"/><path class="cls-15" d="M127.6,267h4.07v2.32H127.6v14a4.3,4.3,0,0,0,1.13,2.94,5.06,5.06,0,0,0,2.72,1.63v2.4h-6.9a7.37,7.37,0,0,1-5-2.14,6.58,6.58,0,0,1-2-4.83V257.43h2.4V267h5.38v-9.59h2.32Zm-1.38,19.83a7.26,7.26,0,0,1-.94-3.49v-14H119.9v14a4.52,4.52,0,0,0,1.34,3.27,4.35,4.35,0,0,0,3.23,1.38h2.32Z"/><path class="cls-15" d="M143.58,269.34a4.71,4.71,0,0,0-4.65,4.65v16.34H136.6V274a6.95,6.95,0,0,1,7-7h7.92a6.92,6.92,0,0,1,7,6.25h-2.4a4.65,4.65,0,0,0-1.6-2.8,4.44,4.44,0,0,0-3-1.13h-4.65v21h-2.47V270.14Z"/><path class="cls-15" d="M162,259.39v-2.32h10v2.32Zm0,7.63h10v23.32h-2.32v-21h-5.38v21H162Z"/><path class="cls-15" d="M184.26,290.33a6.95,6.95,0,0,1-7-7V257.43h2.33v25.93a4.19,4.19,0,0,0,1.6,3.27A5.59,5.59,0,0,0,185,288V267h4.72a10.26,10.26,0,0,1,4.21.87,11.34,11.34,0,0,1,5.81,5.81,10.25,10.25,0,0,1,.87,4.21v1.6a10.26,10.26,0,0,1-.87,4.21,11.36,11.36,0,0,1-2.36,3.45,10.83,10.83,0,0,1-3.45,2.33,10.65,10.65,0,0,1-4.21.83Zm14-12.42a8.1,8.1,0,0,0-.69-3.31A8.8,8.8,0,0,0,193,270a8.09,8.09,0,0,0-3.31-.69h-2.32V288h2.32a8.08,8.08,0,0,0,3.31-.69,9.23,9.23,0,0,0,2.72-1.82,8.46,8.46,0,0,0,1.85-2.69,8.09,8.09,0,0,0,.69-3.31Z"/><path class="cls-15" d="M211.57,288V267H214v21h4.65a4.72,4.72,0,0,0,4.65-4.65V267h2.32v16.34a6.78,6.78,0,0,1-2,4.94,6.69,6.69,0,0,1-5,2h-7.92a6.94,6.94,0,0,1-7-7V267h2.32v16.34a4.71,4.71,0,0,0,4.65,4.65Z"/><path class="cls-15" d="M240.26,267h4.07v2.32h-4.07v14a4.3,4.3,0,0,0,1.13,2.94,5.06,5.06,0,0,0,2.72,1.63v2.4h-6.9a7.37,7.37,0,0,1-5-2.14,6.58,6.58,0,0,1-2-4.83V257.43h2.4V267h5.38v-9.59h2.32Zm-1.38,19.83a7.26,7.26,0,0,1-.94-3.49v-14h-5.38v14a4.52,4.52,0,0,0,1.34,3.27,4.35,4.35,0,0,0,3.23,1.38h2.32Z"/><path class="cls-15" d="M249.13,259.39v-2.32h10v2.32Zm0,7.63h10v23.32h-2.32v-21h-5.38v21h-2.32Z"/><path class="cls-15" d="M287.77,283.36a6.94,6.94,0,0,1-7,7h-9.37a6.95,6.95,0,0,1-7-7V274a6.95,6.95,0,0,1,7-7h9.37a6.94,6.94,0,0,1,7,7ZM273,288V269.34h-1.6a4.71,4.71,0,0,0-4.65,4.65v9.37a4.71,4.71,0,0,0,4.65,4.65Zm12.42-14a4.71,4.71,0,0,0-4.65-4.65h-5.45V288h5.45a4.71,4.71,0,0,0,4.65-4.65Z"/><path class="cls-15" d="M299,269.34a4.71,4.71,0,0,0-4.65,4.65v16.34H292V274a6.95,6.95,0,0,1,7-7h7.92a6.7,6.7,0,0,1,5,2,6.79,6.79,0,0,1,2,4.94v16.34h-2.33V274a4.71,4.71,0,0,0-4.65-4.65h-4.65v21h-2.47V270.14Z"/><polygon class="cls-16" points="59.27 238.41 67.78 238.41 67.42 206.27 59.59 206.66 59.27 238.41"/><path class="cls-16" d="M82,216.34c-.07.16.1,9.56.1,9.56L77,225.17l-2-6s3.07-2.32,3.19-2.37A33.42,33.42,0,0,1,82,216.34Z"/><path class="cls-16" d="M89.22,226.93c-.12.22-.22,9.34-.22,9.34s4.36-.17,4.41-.32,2.85-5,2.85-5l-2.85-3.39Z"/><path class="cls-16" d="M109.21,216.44l-.71,9.36-3.9,0-3.17-5.32s2.78-3.34,3-3.49,3-1.15,3-1.15Z"/><path class="cls-16" d="M114.55,227.68v.1l-.14,9.53s6.78-1.41,6.95-5.29S115,226.56,114.55,227.68Z"/><polygon class="cls-16" points="127.53 214.54 135.86 214.54 134.79 237.36 131.04 236.88 127.38 228.97 127.53 214.54"/><path class="cls-16" d="M161.18,216.25s.78,10.63.93,10.73,13.51.54,13.26.29S174.73,214.49,161.18,216.25Z"/><path class="cls-16" d="M188.19,217l.44,10s-8.78-2-7.9-6.24S188.19,217,188.19,217Z"/><path class="cls-16" d="M194.73,227.37l-.44,9.75s7.95-2,6.73-5.46S195.65,226.15,194.73,227.37Z"/><polygon class="cls-16" points="218.53 238.39 226.52 238.39 226.67 206.59 220.92 207.27 218.62 211.66 218.53 238.39"/><path class="cls-16" d="M247.45,216.34v20.73s-8.49.39-8.68-5.95a98.64,98.64,0,0,1,.73-13.46Z"/><path class="cls-16" d="M266.37,238.44h7.36l-.15-21.51-4-.88s-3.51,3.27-3.51,3.66S266.37,238.44,266.37,238.44Z"/><path class="cls-16" d="M39.45,259.11l0,29.65s-4.19-.88-4.24-1-3.51-5.95-3.51-5.95l-.24-13.12s2.54-7,2.73-7.07S38.86,257.94,39.45,259.11Z"/><path class="cls-16" d="M73.49,269l-.2,20-4.44-.29-4.34-4.34s1.22-12.44,1-12.53a22.23,22.23,0,0,1,3.46-3A41.66,41.66,0,0,1,73.49,269Z"/><polygon class="cls-16" points="92.46 290.57 100.56 290.57 100.26 268.48 96.12 268.04 92.95 271.21 91.88 281.11 92.46 290.57"/><path class="cls-16" d="M119,257.06h7.85l-.24,26.63,2.19,5.22-3.76.68-5.17-1.76S117.72,257.55,119,257.06Z"/><path class="cls-16" d="M145.52,270l.2,20.58h-7.61l-.29-18.63s4.19-3.32,4.15-3.46S146,268.67,145.52,270Z"/><polygon class="cls-16" points="163.27 290.67 170.98 290.67 170.73 267.79 163.27 268.13 163.27 290.67"/><path class="cls-16" d="M186.34,268.77V289l8.88-1.32s4.63-5.27,4.34-5.32-.29-8.24-.29-8.24-6.1-5.22-6.29-5.27S186.34,268.77,186.34,268.77Z"/><polygon class="cls-16" points="204.92 266.77 213.11 266.77 213.16 289.11 207.94 289.25 204.14 283.25 204.92 266.77"/><path class="cls-16" d="M231.33,257.19h8s-.15,24.51-.15,24.87,1.9,6.88,1.9,6.88l-4.75.29-4.46-2.78Z"/><polygon class="cls-16" points="250.35 290.62 258.03 290.62 258.03 267.79 249.69 267.79 250.35 290.62"/><path class="cls-16" d="M274,268.38s.29,21.36.22,21.14a47,47,0,0,0-5.41-.59l-3.15-4.39s.07-12.36.37-12.51,2.41-3.51,2.85-3.66S274,268.38,274,268.38Z"/><path class="cls-16" d="M293.21,290.62H301l.22-22.6-4.39.15s-4.24,4.27-4,4.42S293.21,290.62,293.21,290.62Z"/></svg>