<svg id="Layer_1" data-name="Layer 1" xmlns="http://www.w3.org/2000/svg" viewBox="0 0 172 139"><defs><style>.cls-1,.cls-5{fill:none}.cls-2,.cls-3{fill:#f04f23}.cls-3{stroke:#f04f23}.cls-3,.cls-5{stroke-miterlimit:10}.cls-4{clip-path:url(#clip-path)}.cls-5{stroke:#f8993a;stroke-width:5px}.cls-6{clip-path:url(#clip-path-2)}</style><clipPath id="clip-path"><path class="cls-1" d="M148 106.5l-20.8-10.4H42.8l-19.7 10.4 32.4 32.4h71.7l20.8-32.4z"/></clipPath><clipPath id="clip-path-2"><path class="cls-1" d="M148 34.3l-21.8 11H38l-20.5-11L51.2 0h75L148 34.3z"/></clipPath></defs><title>new icons</title><path class="cls-2" d="M166.9 68.3h1.3c1.3 0 1.8.5 1.8 1.8s-.5 1.8-1.8 1.7h-.4c-3.7 0-3.7 0-3.6 3.7 0 1 .2 1.5 1.3 1.4s2 0 3.1 0c1.3 0 1.4.8 1.4 1.8s-.2 1.6-1.4 1.6h-2.8c-1.4-.2-1.6.4-1.6 1.7 0 4.5.3 4-4 3.9-1.2 0-1.7.3-1.6 1.6v2.2c.1 1.2-.1 2-1.6 2s-2-.7-1.8-2a1.6 1.6 0 0 0 0-.2c0-3.7 0-3.6-3.7-3.6-1.1 0-1.5.3-1.4 1.4s0 2.1 0 3.2c0 1.2-.9 1.2-1.7 1.2s-1.8 0-1.7-1.3v-3.8c-1-1.5-2.6-.4-4-.7-.6-.1-1 .1-1 1v3.3c0 1.4-.8 1.5-2 1.5s-1.6-.3-1.5-1.5v-2.9c0-1.2-.4-1.4-1.6-1.4-4.4 0-4 .6-4-4 0-1.3-.4-1.7-1.7-1.6h-2.3c-1.2.1-1.8-.3-1.8-1.7s.4-1.8 1.7-1.7a4.6 4.6 0 0 0 .5 0c3.7 0 3.7 0 3.6-3.7 0-1.1-.4-1.4-1.4-1.4h-2.7c-1.3.1-1.7-.5-1.7-1.8s.4-1.7 1.7-1.6h.6c3.8 0 4-.2 3.5-4.2 0-.7-.3-1-1-.9h-3.3c-1.1 0-1.5-.7-1.5-1.7s.2-1.7 1.4-1.7 3.1.5 4-.3.3-2.6.4-4c0-1 .6-1.3 1.5-1.3 1.3-.1 3 .6 3.8-.4.6-.8.3-2.4.2-3.7s.5-1.7 1.8-1.7 1.8.5 1.7 1.8v.5c0 3.7.5 4 4.3 3.5.6-.1.8-.4.8-1v-3.5c0-1.2.7-1.3 1.6-1.3s1.8 0 1.8 1.3V53c0 .8.2 1.2 1.2 1.3 3.9.1 3.8.1 3.9-3.8 0-1.9.3-2.1 2-2 1 0 1.5.4 1.5 1.4 0 1.3-.6 3 .2 4s2.6.2 4 .3c1 0 1.3.6 1.4 1.5 0 1.3-.7 3 .3 3.8.8.6 2.5.3 3.7.2s1.7.6 1.7 1.9-.4 1.7-1.6 1.6h-1c-3.2 0-3.1 0-3.2 3.2 0 1.4.3 2.1 1.9 1.9a4.9 4.9 0 0 1 .8 0zm-18.5 14h10.8c1.1 0 1.5-.3 1.5-1.5q-.1-10.7 0-21.4c0-1.2-.3-1.6-1.6-1.6q-10.7.1-21.4 0c-1.2 0-1.6.4-1.6 1.6q.1 10.7 0 21.4c0 1.1.3 1.5 1.5 1.5h10.8z"/><path class="cls-2" d="M142.4 70v-4.6c0-1 .4-1.3 1.3-1.3h9.3c1 0 1.4.5 1.4 1.5v9c0 1-.4 1.5-1.4 1.5h-8.8c-1.2 0-1.9-.4-1.8-1.8V70z"/><path class="cls-3" d="M12.8 55.5a3.8 3.8 0 0 1 2.3-3.6 16.6 16.6 0 0 1 6.3-1.8 27.2 27.2 0 0 1 12.1 1 6.1 6.1 0 0 1 3.3 2.2 3.4 3.4 0 0 1 .7 1.8v24.4a3.4 3.4 0 0 1-1.7 2.8 13.7 13.7 0 0 1-5.8 2l-2.3.4c0 2.5-1.7 3.5-3.7 4.2a23.4 23.4 0 0 1-10.4 1.3A49.3 49.3 0 0 1 7 89a7.8 7.8 0 0 1-2.4-1.2 3.5 3.5 0 0 1-1.6-3v-24a3.4 3.4 0 0 1 1.6-2.9 14.2 14.2 0 0 1 6.3-2.2l1.9-.2zm-8 23.8v5.3a2.2 2.2 0 0 0 1 2.1 8.5 8.5 0 0 0 1.8.8 26.8 26.8 0 0 0 11.9.8 22.9 22.9 0 0 0 4.9-1.3 2.6 2.6 0 0 0 1.5-1.7c.2-2 0-4 0-6a26 26 0 0 1-21.2 0zm0-8.4v3.8c0 2.8 0 3 2.8 4h.1a24.6 24.6 0 0 0 10.6 1 16.5 16.5 0 0 0 6.9-2c.3-.2.8-.6.8-1v-5.9a21.5 21.5 0 0 1-10.6 2.4A21.5 21.5 0 0 1 4.7 71zM26 62.7a26 26 0 0 1-21.3 0 39.8 39.8 0 0 1 0 4.4 2.4 2.4 0 0 0 1.8 2.8h.2a23.5 23.5 0 0 0 11.8 1.4 16 16 0 0 0 6.6-2c.4-.2.8-.5.8-.8l.1-5.8zm-10.4.5h2.3a17.3 17.3 0 0 0 7.4-2.3c.8-.5.9-1 .1-1.5a9.8 9.8 0 0 0-2.7-1.4 28.6 28.6 0 0 0-11.4-.7A12 12 0 0 0 6 59a3 3 0 0 0-1.1 1.5l1.1 1c2.9 1.4 6 1.8 9.6 1.8zm-1-7.8h1c3.1 0 6.2.3 9 1.7a5.4 5.4 0 0 0 3 .4l1.3-.1a17.2 17.2 0 0 0 6.1-2c1-.5 1-.9.2-1.6a7 7 0 0 0-2.2-1.2 27.6 27.6 0 0 0-13.1-.6 20.3 20.3 0 0 0-4.3 1.4 1.7 1.7 0 0 0-1 2zm13.2 20.8v6.7a15.1 15.1 0 0 0 6.5-1.5 2.8 2.8 0 0 0 1.4-1.7c.2-2 0-4 0-5.8zm8-19l-8.2 2.3v6.4a17.9 17.9 0 0 0 7.3-2c.4-.2.8-.6.8-1v-5.6zm0 8.4l-8 2.3v6.3L29 74a15.6 15.6 0 0 0 5.8-1.7c.4-.2 1-.6 1-1v-5.7z"/><g class="cls-4"><circle class="cls-5" cx="85" cy="68.9" r="63.3"/></g><g class="cls-6"><circle class="cls-5" cx="85" cy="70" r="63.3"/></g><path class="cls-2" d="M87 62.9c0 1 .7 1.4 1.6.8l3.9-2.7c.5-.4.5-.6 0-1a11 11 0 0 0-4-2.2c-1.8-.5-1.8-.5-1.7 1.3l.2 3.8zm-6.5 8.5l-4.6.8c-.7.2-1 .5-.6 1.3a12.1 12.1 0 0 0 3.3 4c.3.2.6.6.9 0l1.9-4.7c.3-.8-.1-1.3-.9-1.4zm3.1-8.5l.3-4a1.7 1.7 0 0 1 0-.5c.2-1-.3-1-1.2-.9a11.7 11.7 0 0 0-4.6 2.4c-.5.4-.5.6 0 1l3.8 2.7c1 .7 1.6.4 1.7-.7zm-.2 5.3a2.2 2.2 0 0 0 1.8 2.2 2 2 0 0 0 2-1.9 2 2 0 0 0-1.6-1.8 2.1 2.1 0 0 0-2.2 1.5zm-4.1-.1c1.2-.3 1.4-1 .5-1.8l-3.4-3.1c-.5-.5-.7-.4-1 .1a12.3 12.3 0 0 0-1.3 5c0 1.4 0 1.4 1.3 1l4-1.2zm11.4-1.7c-.7.7-.5 1.4.5 1.7l4.5 1.3c.6.2.8 0 .8-.6a11.3 11.3 0 0 0-1.7-6.1l-4 3.7z"/><path class="cls-2" d="M85 41.8a27.2 27.2 0 1 0 27.2 27.1A27.2 27.2 0 0 0 85 41.7zm17.5 31.6l-2-.7a1.5 1.5 0 0 0-2.1 1 13.4 13.4 0 0 1-5 6.2 1.4 1.4 0 0 0-.5 2.1l1.3 2c.4.7.6 1.4-.3 2s-1.4-.3-1.7-1l-.8-2.2a1.4 1.4 0 0 0-1.8-1 14.1 14.1 0 0 1-8.5 0c-1-.3-1.2.4-1.5 1l-1 2.2c-.3.7-.7 1.3-1.5 1s-.8-1.2-.3-2l1.2-2a1.5 1.5 0 0 0-.6-2.2 13.7 13.7 0 0 1-4.8-6 1.6 1.6 0 0 0-2.4-1l-2 .7c-.7.2-1.6.2-1.8-.8s.5-1.2 1.3-1.3c1.1-.3 2.4 0 3.4-.9s.2-2.1.3-3.2a15.3 15.3 0 0 1 1.9-5.9 1.4 1.4 0 0 0-.5-2l-2-1.3c-.7-.4-1.2-1-.6-1.8s1.2-.5 1.9 0c.8.8 1.3 2 2.6 2.2s1.7-1.2 2.7-1.8a16.6 16.6 0 0 1 5-2c1.7-.3 2.2-.8 2-2l-.2-2c-.1-.6-.1-1.2.5-1.6a1 1 0 0 1 1.2 0 1.6 1.6 0 0 1 .4 1.7l-.2 2a1.5 1.5 0 0 0 1.5 1.8 12.4 12.4 0 0 1 7 3.4 1.5 1.5 0 0 0 2.4 0l1.5-1.5c.5-.5.8-.8 1.5-.6a1 1 0 0 1 .7.9 1.6 1.6 0 0 1-1 1.5l-1.7 1a1.5 1.5 0 0 0-.5 2.3 13.4 13.4 0 0 1 1.8 7.8 1.5 1.5 0 0 0 1.4 1.7l2.4.4c.8.2 1.5.5 1.3 1.3s-1.1.9-1.9.6z"/><path class="cls-2" d="M90.5 71.5c-1.1-.2-1.7.4-1.2 1.5l1.7 4.2c.3.7.6.7 1.1.2a12.3 12.3 0 0 0 3.2-3.8l.4-.9c-.5-.1-.8-.6-1.4-.6l-3.8-.6zM86 74.3c-.4-.8-1-.7-1.6 0s-.8 1.5-1.2 2.3c-1.7 3-1.6 3.1 2.2 3.1a9.3 9.3 0 0 0 2.8-.3c.3 0 .7-.1.4-.7L86 74.3z"/></svg>