<svg id="Layer_1" data-name="Layer 1" xmlns="http://www.w3.org/2000/svg" viewBox="0 0 250 250"><defs><style>.cls-1{fill:none;stroke:#313333;stroke-miterlimit:10;stroke-width:2px}.cls-2{fill:#f79537}</style></defs><title>new icons</title><path class="cls-1" d="M125 203H95.8a13.9 13.9 0 0 1-11.6-5.6q-18.3-23-36.8-45.7a12 12 0 0 1-2.4-10.8l13.4-58.5a11.2 11.2 0 0 1 6.3-8l45.4-21.7 9.6-4.5a11.7 11.7 0 0 1 10.5 0L184.6 74a12.3 12.3 0 0 1 7 8.7l13.5 58.2a12 12 0 0 1-2.5 10.7l-37.4 46.5A12.6 12.6 0 0 1 155 203zm-.1-1.7h29.8a11 11 0 0 0 9.1-4.4l37.2-46.2a10.7 10.7 0 0 0 2.2-9.7l-12.9-56.1a13 13 0 0 0-7-9.5L129.6 50a10.4 10.4 0 0 0-9.4 0L65.6 76a9.5 9.5 0 0 0-5.4 6.8l-2 9-11.5 50a9.7 9.7 0 0 0 2 8.6l37 46a12.1 12.1 0 0 0 10.2 5c9.6-.2 19.3-.1 29-.1z"/><path class="cls-2" d="M124.3 81l-1-8a4 4 0 0 1 .1-2 2.7 2.7 0 0 1 1.6-1.3 1.3 1.3 0 0 1 1.6 1.2 46 46 0 0 1-.3 4.8c0 1.6-.3 3.3-.4 5a7.4 7.4 0 0 0 .4 2.2c.2.3.5.6.6 1 .3 2.3 2 2.6 3.9 2.9a39.3 39.3 0 0 1 22.6 10.9 4.8 4.8 0 0 0 5 1.1 11.4 11.4 0 0 0 5.2-3.4l3.7-3.7a2.3 2.3 0 0 1 1.3-.8 2.5 2.5 0 0 1 1.9.6 2.6 2.6 0 0 1-.1 2 2.5 2.5 0 0 1-1 1l-5.9 3.7a13.3 13.3 0 0 0-2.5 2.5 18.7 18.7 0 0 0-1.4 2.4 2 2 0 0 0 0 2.2 41.4 41.4 0 0 1 6.8 23.9 22.7 22.7 0 0 1-.4 2.8 3.3 3.3 0 0 0 1.2 3c2.5 2.6 5.7 2.5 8.9 2.9a35.1 35.1 0 0 1 3.6.5c1.5.3 2.1 1.2 1.9 2.3s-1.4 1.5-2.8 1.1a37.8 37.8 0 0 1-5.8-2c-2.5-1.3-5-.7-7.4-.2a2.7 2.7 0 0 0-1.5 1.6 39.6 39.6 0 0 1-9.4 15.3 83.4 83.4 0 0 1-7.3 6 3.8 3.8 0 0 0-1.7 2.6 9.4 9.4 0 0 0 1.5 6.6l3 4.5a6.2 6.2 0 0 1 .8 1.7 1.7 1.7 0 0 1-.9 2.2 1.8 1.8 0 0 1-2.2-.8 4.8 4.8 0 0 1-.6-1.2l-2-5.8c-.6-2.6-2.6-4-4.5-5.5a2.6 2.6 0 0 0-2 0 40.7 40.7 0 0 1-26.8.2 3.8 3.8 0 0 0-3.3.4 9.8 9.8 0 0 0-4.4 5.8l-1.6 5a5.7 5.7 0 0 1-.7 1.3 1.7 1.7 0 0 1-2.2.8 1.6 1.6 0 0 1-.9-2.2 5.3 5.3 0 0 1 .7-1.5c1.2-1.8 2.3-3.7 3.6-5.4 1-1.5.9-3.2 1.2-4.8.3-1.9-.3-3-2-4a39.8 39.8 0 0 1-15.7-19.1c-1.4-3.4-3.7-4.8-7.3-4a49.2 49.2 0 0 0-5.1 1.6 30.1 30.1 0 0 1-3.5 1c-1.4.4-2.4-.2-2.5-1.2a2 2 0 0 1 2-2.2 58.7 58.7 0 0 1 6.4-.7 10.2 10.2 0 0 0 4.3-1.4c2.4-1.3 3.1-3 2.8-5.7-1-8.9 1.3-17.1 5.9-24.7a3.5 3.5 0 0 0 .3-3.3 9.7 9.7 0 0 0-4.1-4.8l-4.8-3a3.7 3.7 0 0 1-1.5-1.3 2.8 2.8 0 0 1 0-2 1.4 1.4 0 0 1 2-.5 8 8 0 0 1 1.8 1.3l5 5a8.9 8.9 0 0 0 2.5 1.4l2.1.6a2.2 2.2 0 0 0 2.5-.7 40.9 40.9 0 0 1 12-8.6 42 42 0 0 1 12.8-3.5 2.8 2.8 0 0 0 2.6-2c.4-1.4 1-2.7 1.4-3.6zm-2 15.2h-.2a11.4 11.4 0 0 0 0-1.7 2.4 2.4 0 0 0-3-2.2 35.8 35.8 0 0 0-18.7 9.2 2 2 0 0 0 0 3.3 17.5 17.5 0 0 0 1.6 1.1l12.1 8.6c3.2 2.2 6.8.5 7.1-3.3l1-15zm38.5 32l-.2-4a34.2 34.2 0 0 0-4.6-14.3 2.2 2.2 0 0 0-3.6-.7l-2.9 2.6-9 8.2c-3 2.8-2.3 6.7 1.7 8l15.6 4.5c1.7.5 2.8-.4 3-2.1v-2.2zm-21 6.8a4.3 4.3 0 0 0-4.3 2.5 5 5 0 0 0 .1 4l6 14.3c1 2.4 2.1 2.7 4.2 1.2a36 36 0 0 0 12.3-15.4c1-2.4.3-3.5-2.2-4l-6.7-1zm-50.6-7.3v2.3c0 2.2 1.1 3 3.3 2.4l15-4.4c1.8-.5 3.1-1.4 3.5-3.2a4.7 4.7 0 0 0-1.7-4.8l-11.5-10.3c-1.9-1.6-3.2-1.4-4.3.7a34.8 34.8 0 0 0-4.3 17.3zm25.7 11.7a4.3 4.3 0 0 0-5.3-4.3L92.7 138c-1 .1-1.5.5-1.3 1.6a7.3 7.3 0 0 0 .3 1.3 35.4 35.4 0 0 0 13 16.4c1.7 1.2 2.9.8 3.6-1l5.9-14.2a22.3 22.3 0 0 0 .7-2.7zm10.5 24.6c3.2-.6 6.3-1.1 9.4-1.8 2.5-.6 3-1.8 1.7-4l-7.4-13.4c-.9-1.7-2.1-2.8-4.1-2.8a4.6 4.6 0 0 0-4.1 2.8l-7.5 13.5c-1.2 2-.7 3.4 1.6 3.8 3.4.7 6.9 1.2 10.4 1.8zm7.6-48.4a20.8 20.8 0 0 0 2.8-1.3c1.5-.9 2.9-2 4.3-3l8.4-6c1.7-1.2 2-2.7.5-4a35.5 35.5 0 0 0-19-9c-1.5-.3-2.4.7-2.3 2.2.2 5.4.5 10.9.9 16.3a4.8 4.8 0 0 0 4.4 4.8zm-8.6 5a4.6 4.6 0 0 0-4.4 1.9c-1.2 1.5-2.4 2.8-2.5 4.8a7.4 7.4 0 0 0 7.4 7.8 7.2 7.2 0 0 0 7.3-7.2c.1-4.3-3-7.3-7.7-7.4z"/><path class="cls-1" d="M104 57l20-9 11 3 23.1 12.3L188 77l2 5 14 58s.3 10.3-3.4 14.1S165 197 165 197l-6.3 5.4-65 .5L87 199l-40-49-2-4.3L59 86l3-9z"/></svg>