<svg id="Layer_1" data-name="Layer 1" xmlns="http://www.w3.org/2000/svg" viewBox="0 0 114 135"><defs><style>.cls-1{fill:#ff4b00}.cls-2{fill:#606060}.cls-3{fill:#fff}</style></defs><title>buttons oe</title><circle class="cls-1" cx="57" cy="50" r="49"/><path class="cls-2" d="M12.4 118.4h1.5v15.2h-1.6l-9.4-12.8v12.8H1.4v-15.2H3l9.4 12.9zm14.5 5.5a6.5 6.5 0 0 1 1.3 4.5h-9.5a4.4 4.4 0 0 0 1.3 3 4.2 4.2 0 0 0 3 1 5.2 5.2 0 0 0 2-.3 4.7 4.7 0 0 0 1.6-1.1l.8.8a5.7 5.7 0 0 1-2 1.4 6.5 6.5 0 0 1-2.5.5 5.8 5.8 0 0 1-3-.7 5.2 5.2 0 0 1-2-2 6.4 6.4 0 0 1 0-6 5.2 5.2 0 0 1 2-2 5.8 5.8 0 0 1 3-.7 5 5 0 0 1 4 1.6zm0 3.4a4.2 4.2 0 0 0-1.2-2.8 3.9 3.9 0 0 0-2.8-1 4 4 0 0 0-2.9 1 4.3 4.3 0 0 0-1.3 2.8zm1.9-5h1.6l3.5 9.9 3.4-10H39l3.4 10 3.5-10h1.5l-4.2 11.4h-1.5L38 124l-3.5 9.6H33zm25 1.3a5.8 5.8 0 0 0-1.6-.2 3.2 3.2 0 0 0-1.7.4 1.4 1.4 0 0 0-.7 1.3 1.3 1.3 0 0 0 .4 1 2.7 2.7 0 0 0 .8.6 14 14 0 0 0 1.5.5 15 15 0 0 1 2 .7 3.5 3.5 0 0 1 1.2 1 2.6 2.6 0 0 1 .5 1.7 2.7 2.7 0 0 1-1.1 2.3 5 5 0 0 1-3 .8 7 7 0 0 1-2.4-.4 5.3 5.3 0 0 1-1.9-1.1l.6-1a5.5 5.5 0 0 0 1.8 1 5.7 5.7 0 0 0 2 .4 3.4 3.4 0 0 0 1.9-.5 1.6 1.6 0 0 0 .7-1.4 1.5 1.5 0 0 0-.4-1 2.5 2.5 0 0 0-.9-.6l-1.5-.5a15.4 15.4 0 0 1-1.9-.7 3.3 3.3 0 0 1-1.2-1 2.5 2.5 0 0 1-.5-1.6 2.5 2.5 0 0 1 1.1-2.2 4.9 4.9 0 0 1 2.8-.8 6.8 6.8 0 0 1 1.9.3 6.2 6.2 0 0 1 1.6.7l-.5 1.1a5.6 5.6 0 0 0-1.5-.8zm5.4-6.1h1.5v16.1h-1.5zm14.3 6.4a6.5 6.5 0 0 1 1.3 4.5h-9.5a4.4 4.4 0 0 0 1.4 3 4.2 4.2 0 0 0 3 1 5.2 5.2 0 0 0 2-.3 4.7 4.7 0 0 0 1.5-1.1l.9.8a5.7 5.7 0 0 1-2 1.4 6.5 6.5 0 0 1-2.6.5 5.8 5.8 0 0 1-3-.7 5.2 5.2 0 0 1-2-2 6.4 6.4 0 0 1 0-6 5.2 5.2 0 0 1 2-2 5.8 5.8 0 0 1 3-.7 5 5 0 0 1 4 1.6zm0 3.4a4.2 4.2 0 0 0-1.2-2.8 3.9 3.9 0 0 0-2.8-1 4 4 0 0 0-2.8 1 4.3 4.3 0 0 0-1.4 2.8zm10.1 5.5a4.7 4.7 0 0 1-2.5.9 2.7 2.7 0 0 1-2.1-.8 3.4 3.4 0 0 1-.8-2.4v-6.8h-1.6v-1.1h1.6v-3h1.5v3h3.7v1.1h-3.7v6.6q0 2 1.5 2a3.8 3.8 0 0 0 2-.5zm8.4 0a4.7 4.7 0 0 1-2.6.9 2.7 2.7 0 0 1-2-.8 3.4 3.4 0 0 1-.8-2.4v-6.8H85v-1.1h1.6v-3h1.5v3h3.6v1.1H88v6.6q0 2 1.6 2a3.8 3.8 0 0 0 1.9-.5zm10.9-8.9a6.5 6.5 0 0 1 1.2 4.5h-9.4a4.4 4.4 0 0 0 1.3 3 4.2 4.2 0 0 0 3 1 5.2 5.2 0 0 0 2-.3 4.7 4.7 0 0 0 1.6-1.1l.8.8a5.7 5.7 0 0 1-2 1.4 6.5 6.5 0 0 1-2.5.5 5.8 5.8 0 0 1-3-.7 5.2 5.2 0 0 1-2-2 6.4 6.4 0 0 1 0-6 5.2 5.2 0 0 1 2-2 5.8 5.8 0 0 1 3-.7 5 5 0 0 1 4 1.6zm0 3.4a4.2 4.2 0 0 0-1.2-2.8 3.9 3.9 0 0 0-2.8-1 4 4 0 0 0-2.9 1 4.3 4.3 0 0 0-1.3 2.8zm7.4-4.3a4.7 4.7 0 0 1 2.5-.8v1.4a3.9 3.9 0 0 0-2.9 1 4.4 4.4 0 0 0-1.3 3v6h-1.4v-11.3h1.4v2.6a4.4 4.4 0 0 1 1.7-2z"/><path class="cls-3" d="M32.4 36.3h6.1v-3h43v28.8a4.9 4.9 0 0 1-1.4 3.7 4.7 4.7 0 0 1-3.4 1.3H37.2a4.5 4.5 0 0 1-4.7-3.3 5.6 5.6 0 0 1-.2-1.5V37l.1-.7zM41.5 64h34.9c1.6 0 2.1-.5 2.1-2.2V36.3h-37zm-6-24.6V62a3.8 3.8 0 0 0 0 .8 1.5 1.5 0 0 0 2 1.1c.7-.2 1-.7 1-1.9V39.4z"/><path class="cls-3" d="M44.8 39.4H60v15.3H44.7zM57 51.7v-9.2h-9.2v9.1zm-12.2 9.2v-3H60v3zm30.6-12.3H63.2v-3h12.2zm0 12.3H63.2v-3h12.2zm-12.2-9.2h12.2v3H63.2zm0-9.3v-3h12.2v3z"/></svg>