<svg id="Layer_1" data-name="Layer 1" xmlns="http://www.w3.org/2000/svg" viewBox="0 0 114 135"><defs><style>.cls-1{fill:#ff8e1f}.cls-2{fill:#606060}.cls-3{fill:#fff}</style></defs><title>buttons oe</title><circle class="cls-1" cx="57" cy="50" r="49"/><path class="cls-2" d="M23.6 118.4h10.2v1.4H25v5.4h8v1.4h-8v5.7h9v1.3H23.6zm11.9 3.9H37l3.8 9.9 3.7-10H46l-4.5 11.4H40zm20.8 1.6a6.5 6.5 0 0 1 1.2 4.5H48a4.4 4.4 0 0 0 1.4 3 4.2 4.2 0 0 0 3 1 5.2 5.2 0 0 0 2-.3A4.7 4.7 0 0 0 56 131l.8.8a5.7 5.7 0 0 1-2 1.4 6.5 6.5 0 0 1-2.5.5 5.8 5.8 0 0 1-3-.7 5.2 5.2 0 0 1-2-2 6.4 6.4 0 0 1 0-6 5.2 5.2 0 0 1 2-2 5.8 5.8 0 0 1 3-.7 5 5 0 0 1 4 1.6zm0 3.4a4.2 4.2 0 0 0-1.3-2.8 3.9 3.9 0 0 0-2.8-1.1 4 4 0 0 0-2.9 1 4.3 4.3 0 0 0-1.3 2.9zm13.4-3.9a4.4 4.4 0 0 1 1.2 3.2v7h-1.5V127a3.5 3.5 0 0 0-.9-2.5 3.3 3.3 0 0 0-2.4-1 3.9 3.9 0 0 0-2.9 1.2 4.5 4.5 0 0 0-1.2 2.8v6.1h-1.4v-11.3H62v2.6a4.2 4.2 0 0 1 1.7-2 5.5 5.5 0 0 1 2.8-.7 4.3 4.3 0 0 1 3.2 1.2zm10.8 9.4a4.7 4.7 0 0 1-2.5.9 2.7 2.7 0 0 1-2-.8 3.4 3.4 0 0 1-.8-2.4v-6.8h-1.7v-1.1h1.7v-3h1.5v3h3.6v1.1h-3.7v6.6q0 2 1.6 2a3.8 3.8 0 0 0 1.9-.5zm7.1-9.2a5.8 5.8 0 0 0-1.6-.2 3.2 3.2 0 0 0-1.8.4 1.4 1.4 0 0 0-.6 1.3 1.3 1.3 0 0 0 .4 1 2.7 2.7 0 0 0 .8.6 14 14 0 0 0 1.5.5 15 15 0 0 1 2 .7 3.5 3.5 0 0 1 1.2 1 2.6 2.6 0 0 1 .5 1.6 2.7 2.7 0 0 1-1.2 2.4 5 5 0 0 1-2.9.8 7 7 0 0 1-2.4-.4 5.3 5.3 0 0 1-2-1.2l.7-1a5.5 5.5 0 0 0 1.7 1 5.7 5.7 0 0 0 2 .4 3.4 3.4 0 0 0 2-.4 1.6 1.6 0 0 0 .7-1.4 1.5 1.5 0 0 0-.4-1 2.5 2.5 0 0 0-1-.7l-1.4-.5a15.4 15.4 0 0 1-2-.7 3.3 3.3 0 0 1-1.1-1 2.5 2.5 0 0 1-.5-1.5 2.5 2.5 0 0 1 1-2.3 4.9 4.9 0 0 1 2.9-.7 6.8 6.8 0 0 1 1.9.2 6.2 6.2 0 0 1 1.6.7l-.6 1a5.6 5.6 0 0 0-1.4-.6z"/><path class="cls-3" d="M43 34.2v-2.6a3.6 3.6 0 0 1 3.2-3.5 10.8 10.8 0 0 1 3 0 3.6 3.6 0 0 1 3 3.4v2.7h9.5v-1.8c0-2.9 1.5-4.4 4.4-4.4a5 5 0 0 1 3.4.8 4 4 0 0 1 1.5 3.3v2.1h3a3.1 3.1 0 0 1 3.2 3v30.5a6.7 6.7 0 0 1 0 1.5 3.1 3.1 0 0 1-3.2 2.3H40.5c-2.5 0-3.7-1.2-3.7-3.7V37.9c0-2.4 1.6-4 3.8-3.7h2.5zm-3 34.2h34.1V43.6H40zm6.2-33v2.4c0 1.9 0 2 2 1.9.9 0 1.1-.3 1.1-1.2v-5.3c0-2.1 0-2.1-2-2.1-.8 0-1 .3-1 1q-.2 1.6-.2 3.3zm21.8 0V33c0-1.9 0-1.9-2-1.9-1 0-1.2.2-1.2 1.3v5.3c0 2 0 2 2 2 .8 0 1.1-.4 1.1-1v-3.3z"/></svg>