<svg id="Layer_1" data-name="Layer 1" xmlns="http://www.w3.org/2000/svg" viewBox="0 0 114 135"><defs><style>.cls-1{fill:#fff}.cls-2{fill:#00bbb6}</style></defs><title>button new</title><circle class="cls-1" cx="57" cy="50" r="49"/><path class="cls-1" d="M43.6 120.1a6.4 6.4 0 0 0-8 2.7 6.4 6.4 0 0 0 0 6.4 6.4 6.4 0 0 0 2.4 2.3 6.3 6.3 0 0 0 3.2.9 6.4 6.4 0 0 0 2.5-.5 7 7 0 0 0 2-1.4l1 1a8.8 8.8 0 0 1-2.6 1.7 7.7 7.7 0 0 1-3 .6 7.8 7.8 0 0 1-6.8-3.9 7.5 7.5 0 0 1-1-3.9 7.3 7.3 0 0 1 1-3.9 8 8 0 0 1 6.9-3.8 8.1 8.1 0 0 1 5.5 2.2l-1 1a6.7 6.7 0 0 0-2-1.4zm13.2 13.5v-1.9a4.1 4.1 0 0 1-1.7 1.5 6 6 0 0 1-2.5.5 4.4 4.4 0 0 1-2-.4 3.2 3.2 0 0 1-1.9-3 2.7 2.7 0 0 1 1.2-2.4 5.2 5.2 0 0 1 3.1-.8h3.8v-.9a2.7 2.7 0 0 0-.8-2 3.4 3.4 0 0 0-2.3-.8 6.2 6.2 0 0 0-3.7 1.4l-.7-1a9.7 9.7 0 0 1 2.2-1.2 7 7 0 0 1 2.4-.4 4.6 4.6 0 0 1 3.2 1 3.7 3.7 0 0 1 1.2 2.9v7.5zm-1.4-1.8a3.5 3.5 0 0 0 1.4-2v-1.6h-3.7a4.3 4.3 0 0 0-2.2.5 1.7 1.7 0 0 0-.8 1.5 2 2 0 0 0 .7 1.6 3 3 0 0 0 2 .7 4.5 4.5 0 0 0 2.6-.7zm9.1-12.5a2.3 2.3 0 0 0-.6 1.6v1.6h3.4v1.2h-3.4v10h-1.4v-10H61v-1.1h1.5V121a4 4 0 0 1 .4-2 3.3 3.3 0 0 1 1.3-1.3 3.5 3.5 0 0 1 1.8-.5 4 4 0 0 1 2 .6l-.4 1.1a3.3 3.3 0 0 0-1.5-.4 2 2 0 0 0-1.6.7zm13 4.6a6.5 6.5 0 0 1 1.2 4.5h-9.4a4.4 4.4 0 0 0 1.3 3 4.2 4.2 0 0 0 3 1 5.2 5.2 0 0 0 2-.3 4.7 4.7 0 0 0 1.6-1.1l.8.8a5.7 5.7 0 0 1-2 1.4 6.5 6.5 0 0 1-2.5.5 5.8 5.8 0 0 1-3-.7 5.2 5.2 0 0 1-2-2 6.4 6.4 0 0 1 0-6 5.2 5.2 0 0 1 2-2 5.8 5.8 0 0 1 3-.7 5 5 0 0 1 4 1.6zm0 3.4a4.2 4.2 0 0 0-1.2-2.8 3.9 3.9 0 0 0-2.8-1 4 4 0 0 0-2.9 1 4.3 4.3 0 0 0-1.3 2.8z"/><path class="cls-2" d="M71.2 52.8a21.9 21.9 0 0 1-1.1 3.7 5.4 5.4 0 0 1-5 3.2H45.7a5.8 5.8 0 0 1-5.7-5.5V34.5c0-1.8.5-2.4 2.3-2.4h30.2a10.3 10.3 0 0 1 .4 20.7h-1.7zm-.3-15.4v10.2c2.5.3 4.7-.2 6-2.4a5 5 0 0 0 0-5.5c-1.4-2.2-3.5-2.6-6-2.3zM33 63.2h48.1a6.3 6.3 0 0 1-2.1 5 6.7 6.7 0 0 1-4.8 1.8h-34a6.8 6.8 0 0 1-7-5.3 12.6 12.6 0 0 1-.1-1.5z"/></svg>