<svg id="Layer_1" data-name="Layer 1" xmlns="http://www.w3.org/2000/svg" viewBox="0 0 114 135"><defs><style>.cls-1{fill:#fff}.cls-2{fill:#00bbb6}</style></defs><title>button new</title><circle class="cls-1" cx="57" cy="50" r="49"/><path class="cls-1" d="M27.9 120.1a6.4 6.4 0 0 0-8 2.7 6.4 6.4 0 0 0 0 6.4 6.4 6.4 0 0 0 2.3 2.3 6.3 6.3 0 0 0 3.2.9 6.4 6.4 0 0 0 2.5-.5 7 7 0 0 0 2.1-1.4l1 1a8.8 8.8 0 0 1-2.7 1.7 7.7 7.7 0 0 1-3 .6 7.8 7.8 0 0 1-6.8-3.9 7.5 7.5 0 0 1-1-3.9 7.3 7.3 0 0 1 1-3.9 8 8 0 0 1 6.8-3.8 8.1 8.1 0 0 1 5.5 2.2l-.9 1a6.7 6.7 0 0 0-2-1.4zM41 133.6v-1.9a4.1 4.1 0 0 1-1.8 1.5 6 6 0 0 1-2.5.5 4.4 4.4 0 0 1-2-.4 3.2 3.2 0 0 1-1.8-3 2.7 2.7 0 0 1 1.1-2.4 5.2 5.2 0 0 1 3.1-.8H41v-.9a2.7 2.7 0 0 0-.8-2 3.4 3.4 0 0 0-2.4-.8 6.2 6.2 0 0 0-3.6 1.4l-.7-1a9.7 9.7 0 0 1 2.2-1.2 7 7 0 0 1 2.4-.4 4.6 4.6 0 0 1 3.2 1 3.7 3.7 0 0 1 1.1 2.9v7.5zm-1.4-1.8a3.5 3.5 0 0 0 1.4-2v-1.6h-3.7a4.3 4.3 0 0 0-2.2.5 1.7 1.7 0 0 0-.8 1.5 2 2 0 0 0 .7 1.6 3 3 0 0 0 2 .7 4.5 4.5 0 0 0 2.6-.7zm9.8-8.8a4.7 4.7 0 0 1 2.6-.8v1.4a3.9 3.9 0 0 0-2.9 1 4.5 4.5 0 0 0-1.3 3v6h-1.4v-11.3h1.4v2.6a4.4 4.4 0 0 1 1.6-2zm13.4.9a6.5 6.5 0 0 1 1.3 4.5h-9.5a4.4 4.4 0 0 0 1.3 3 4.2 4.2 0 0 0 3 1 5.2 5.2 0 0 0 2-.3 4.7 4.7 0 0 0 1.6-1.1l.8.8a5.7 5.7 0 0 1-2 1.4 6.5 6.5 0 0 1-2.5.5 5.8 5.8 0 0 1-3-.7 5.2 5.2 0 0 1-2-2 6.4 6.4 0 0 1 0-6 5.2 5.2 0 0 1 2-2 5.8 5.8 0 0 1 3-.7 5 5 0 0 1 4 1.6zm0 3.4a4.2 4.2 0 0 0-1.2-2.8 3.9 3.9 0 0 0-2.8-1 4 4 0 0 0-2.9 1 4.3 4.3 0 0 0-1.3 2.8zm12.8-3.4a6.5 6.5 0 0 1 1.2 4.5h-9.4a4.4 4.4 0 0 0 1.3 3 4.2 4.2 0 0 0 3 1 5.2 5.2 0 0 0 2-.3 4.7 4.7 0 0 0 1.6-1.1l.8.8a5.7 5.7 0 0 1-2 1.4 6.5 6.5 0 0 1-2.5.5 5.8 5.8 0 0 1-3-.7 5.2 5.2 0 0 1-2-2 6.4 6.4 0 0 1 0-6 5.2 5.2 0 0 1 2-2 5.8 5.8 0 0 1 3-.7 5 5 0 0 1 4 1.6zm0 3.4a4.2 4.2 0 0 0-1.2-2.8 3.9 3.9 0 0 0-2.8-1 4 4 0 0 0-2.9 1 4.3 4.3 0 0 0-1.3 2.8zM83 123a4.7 4.7 0 0 1 2.5-.8v1.4a3.9 3.9 0 0 0-2.9 1 4.5 4.5 0 0 0-1.2 3v6h-1.5v-11.3h1.5v2.6a4.4 4.4 0 0 1 1.6-2zm9.3.6a5.8 5.8 0 0 0-1.6-.2 3.2 3.2 0 0 0-1.8.4 1.4 1.4 0 0 0-.6 1.3 1.3 1.3 0 0 0 .3 1 2.7 2.7 0 0 0 1 .6 14 14 0 0 0 1.4.5 15 15 0 0 1 2 .7 3.5 3.5 0 0 1 1.2 1 2.6 2.6 0 0 1 .5 1.7 2.7 2.7 0 0 1-1.2 2.3 5 5 0 0 1-2.9.8 7 7 0 0 1-2.4-.4 5.3 5.3 0 0 1-2-1.1l.7-1a5.5 5.5 0 0 0 1.7 1 5.6 5.6 0 0 0 2 .4 3.4 3.4 0 0 0 2-.5 1.6 1.6 0 0 0 .7-1.4 1.5 1.5 0 0 0-.4-1 2.5 2.5 0 0 0-.9-.7l-1.5-.5a15.3 15.3 0 0 1-1.9-.7 3.3 3.3 0 0 1-1.2-1 2.5 2.5 0 0 1-.5-1.6A2.5 2.5 0 0 1 88 123a4.8 4.8 0 0 1 2.8-.7 6.8 6.8 0 0 1 1.9.2 6.2 6.2 0 0 1 1.6.8l-.5 1a5.5 5.5 0 0 0-1.5-.6z"/><path class="cls-2" d="M66.1 37.5H74c2.8 0 4.3 1.5 4.3 4.3v8.6H35.7v-8.8c0-2.6 1.5-4.1 4.2-4.1h8v-4a2.1 2.1 0 0 1 2.1-2h14a2.1 2.1 0 0 1 2.2 2v4zm-3-3H51v3h12.1zM35.8 52.8h15.9V56c0 1.5.5 2 2 2h6.5c1.6 0 2.1-.5 2.1-2v-3a1 1 0 0 1 0-.2h16a3.6 3.6 0 0 1 0 .4v10.6a3.8 3.8 0 0 1-2.8 4 4.3 4.3 0 0 1-1.2.2H39.7a3.7 3.7 0 0 1-4-3.8V53a1.1 1.1 0 0 1 0-.2z"/><path class="cls-2" d="M60 52.8v3h-6v-3z"/></svg>