<svg id="Layer_1" data-name="Layer 1" xmlns="http://www.w3.org/2000/svg" xmlns:xlink="http://www.w3.org/1999/xlink" viewBox="0 0 425 427"><defs><style>.cls-1,.cls-3,.cls-5,.cls-7{fill:none}.cls-2{fill:#fff}.cls-3,.cls-5,.cls-7{stroke:#464747}.cls-3,.cls-5,.cls-7,.cls-8{stroke-miterlimit:10}.cls-3{stroke-width:1.4px}.cls-4{fill:#f69437}.cls-5{stroke-width:2px}.cls-6{fill:#464747}.cls-7{stroke-width:1.5px}.cls-8{fill:#b9b9b9;stroke:#fff;stroke-width:.5px}.cls-9{fill:#fefefe}.cls-10{clip-path:url(#clip-path)}.cls-11{fill:#934c16;opacity:.36}.cls-12{fill:#493636}.cls-13{fill:#bc896f}.cls-14{fill:#b18070}.cls-15{fill:url(#radial-gradient)}.cls-16{fill:url(#radial-gradient-2)}.cls-17{fill:#050505}.cls-18{fill:url(#radial-gradient-3)}.cls-19{fill:url(#radial-gradient-4)}.cls-20{fill:url(#radial-gradient-5)}.cls-21{fill:#4b3838}.cls-22{fill:#fdfdfd}.cls-23{fill:#4e4f4f}</style><clipPath id="clip-path"><ellipse class="cls-1" cx="212" cy="213" rx="61.1" ry="61.5"/></clipPath><radialGradient id="radial-gradient" cx="195.2" cy="182.6" r="12.8" gradientTransform="translate(0 4.4)" gradientUnits="userSpaceOnUse"><stop offset="0" stop-color="#3192c3"/><stop offset="1" stop-color="#3192c3"/></radialGradient><radialGradient id="radial-gradient-2" cx="226.4" cy="182.6" r="12.8" xlink:href="#radial-gradient"/><radialGradient id="radial-gradient-3" cx="210.3" cy="190" r="2.6" xlink:href="#radial-gradient"/><radialGradient id="radial-gradient-4" cx="210.9" cy="181.1" r="1.8" xlink:href="#radial-gradient"/><radialGradient id="radial-gradient-5" cx="213.8" cy="189.7" r="1.4" xlink:href="#radial-gradient"/></defs><title>cicrcle</title><ellipse class="cls-2" cx="212.5" cy="213.5" rx="208.7" ry="210"/><path class="cls-3" d="M212 381h-11a5.3 5.3 0 0 1-4.5-2.2l-14-17.5a4.6 4.6 0 0 1-1-4.1l5.2-22.4a4.3 4.3 0 0 1 2.4-3l17.2-8.3 3.7-1.7a4.4 4.4 0 0 1 4 0l20.6 9.9a4.7 4.7 0 0 1 2.7 3.3l5 22.2a4.6 4.6 0 0 1-1 4.1l-14.1 17.8a4.8 4.8 0 0 1-4 1.9zm0-.8h11.3a4.2 4.2 0 0 0 3.5-1.6l14.1-17.7a4.1 4.1 0 0 0 .8-3.7l-4.8-21.4a4.8 4.8 0 0 0-2.7-3.6l-20.4-9.8a4 4 0 0 0-3.6 0l-20.7 10a3.6 3.6 0 0 0-2 2.6l-.9 3.4-4.3 19.1a3.7 3.7 0 0 0 .8 3.3l14 17.6a4.6 4.6 0 0 0 3.9 1.9h11z"/><path class="cls-4" d="M211.8 334.3l-.4-3a1.6 1.6 0 0 1 0-.8 1 1 0 0 1 .6-.5.5.5 0 0 1 .6.5 17.6 17.6 0 0 1-.1 1.8l-.2 1.9a2.8 2.8 0 0 0 .2.8l.2.4c.1.9.7 1 1.5 1.1a14.9 14.9 0 0 1 8.5 4.2 1.8 1.8 0 0 0 2 .5 4.3 4.3 0 0 0 2-1.4l1.3-1.4a.9.9 0 0 1 .5-.3 1 1 0 0 1 .7.2 1 1 0 0 1 0 .8 1 1 0 0 1-.4.4l-2.2 1.4a5 5 0 0 0-1 1 7.2 7.2 0 0 0-.5.8.8.8 0 0 0 0 .9 15.9 15.9 0 0 1 2.6 9.1 8.7 8.7 0 0 1-.2 1 1.3 1.3 0 0 0 .5 1.3c1 1 2.1 1 3.3 1a13.3 13.3 0 0 1 1.4.2c.6.2.8.5.7 1s-.5.5-1 .4a14.3 14.3 0 0 1-2.2-.8 4 4 0 0 0-2.9 0 1 1 0 0 0-.5.6 15.2 15.2 0 0 1-3.6 5.8 31.7 31.7 0 0 1-2.8 2.3 1.5 1.5 0 0 0-.6 1 3.6 3.6 0 0 0 .6 2.5l1.1 1.8a2.4 2.4 0 0 1 .3.6.7.7 0 0 1-.3.9.7.7 0 0 1-.9-.4 1.8 1.8 0 0 1-.2-.4l-.7-2.2a4 4 0 0 0-1.7-2.1 1 1 0 0 0-.8 0 15.4 15.4 0 0 1-10.2 0 1.4 1.4 0 0 0-1.3.2 3.7 3.7 0 0 0-1.6 2.2l-.6 1.9a2.2 2.2 0 0 1-.3.5.7.7 0 0 1-.8.3.6.6 0 0 1-.4-.8 2 2 0 0 1 .3-.6l1.3-2a4.2 4.2 0 0 0 .5-2 1.3 1.3 0 0 0-.7-1.5 15.2 15.2 0 0 1-6-7.3 2.2 2.2 0 0 0-2.8-1.5 18.6 18.6 0 0 0-2 .6 11.4 11.4 0 0 1-1.3.5c-.5 0-.8-.2-1-.5a.8.8 0 0 1 .8-.9 22.1 22.1 0 0 1 2.5-.2 3.9 3.9 0 0 0 1.6-.6 1.8 1.8 0 0 0 1.1-2.1 14.8 14.8 0 0 1 2.2-9.5 1.4 1.4 0 0 0 .2-1.2 3.7 3.7 0 0 0-1.6-1.9l-1.8-1a1.4 1.4 0 0 1-.6-.6 1 1 0 0 1 0-.8.5.5 0 0 1 .8-.2 3 3 0 0 1 .6.6l2 1.9a3.4 3.4 0 0 0 .9.5l.8.2a.8.8 0 0 0 1-.3 15.5 15.5 0 0 1 4.5-3.2 15.8 15.8 0 0 1 4.9-1.4 1 1 0 0 0 1-.8l.6-1.4zm-.8 5.8a4.4 4.4 0 0 0 0-.6 1 1 0 0 0-1.2-.9 13.6 13.6 0 0 0-7 3.5.8.8 0 0 0 0 1.3 6.7 6.7 0 0 0 .5.4l4.6 3.3a1.6 1.6 0 0 0 2.7-1.3l.4-5.7zm14.6 12.2v-1.5a13.1 13.1 0 0 0-1.8-5.5.8.8 0 0 0-1.4-.2l-1 1-3.5 3.1a1.7 1.7 0 0 0 .7 3l5.9 1.8a.8.8 0 0 0 1-.8l.1-.9zm-8 2.6a1.6 1.6 0 0 0-1.6 1 1.9 1.9 0 0 0 0 1.6l2.2 5.4c.4.9.9 1 1.7.5a13.7 13.7 0 0 0 4.6-6c.4-.8.2-1.3-.8-1.4l-2.5-.4zm-19.2-2.8v.9c0 .9.4 1.2 1.3 1l5.7-1.7a1.7 1.7 0 0 0 1.3-1.3 1.8 1.8 0 0 0-.7-1.8l-4.3-4c-.7-.5-1.2-.5-1.7.4a13.3 13.3 0 0 0-1.6 6.5zm9.8 4.5a1.6 1.6 0 0 0-2-1.6l-6.5 1c-.3.1-.5.3-.5.7a2.8 2.8 0 0 0 .2.5 13.5 13.5 0 0 0 5 6.2c.6.5 1 .3 1.3-.4l2.2-5.4a8.6 8.6 0 0 0 .3-1zm4 9.4l3.5-.7c1-.2 1.2-.7.7-1.5l-2.8-5.1a1.7 1.7 0 0 0-1.6-1 1.8 1.8 0 0 0-1.6 1l-2.8 5.2c-.4.7-.2 1.2.6 1.4l4 .7zm2.9-18.5a7.9 7.9 0 0 0 1-.5l1.7-1.1 3.1-2.3c.7-.5.8-1 .2-1.6a13.4 13.4 0 0 0-7.2-3.4c-.6 0-1 .3-.9.9l.4 6.2a1.9 1.9 0 0 0 1.7 1.8zm-3.3 2a1.7 1.7 0 0 0-1.7.6 3 3 0 0 0-1 1.9 2.8 2.8 0 0 0 2.9 3 2.8 2.8 0 1 0-.2-5.6z"/><path class="cls-5" d="M337.4 272.7c0 1.3.7 2.8 0 4-3.2 6.2-15 6.5-21.8 3.5-2.2-1-5.4-4.3-5.4-10.4v-13.5c0-4 1-5.4 4.7-6.8a23.3 23.3 0 0 1 18.4.5 7.6 7.6 0 0 1 4 4.1c2 4.7 4.2 9.2 6.2 13.8a1.9 1.9 0 0 0 1.9 1.3c3.5.2 7 .6 10.4.9a3.2 3.2 0 0 1 3.2 3.3 3.3 3.3 0 0 1-3.1 3.3h-14.2a4.7 4.7 0 0 1-2.5-1.6 12.5 12.5 0 0 1-1.5-2.4zm-24.2-42.6c0-5.8 6-10 12-8.1a8.3 8.3 0 0 1 6.3 10 23.6 23.6 0 0 1-3.6 10.2c-3.2 4.5-7.6 4.5-10.9 0a25 25 0 0 1-3.8-12z"/><path class="cls-6" d="M341.6 243.6v13.7c-1-1.8-2.1-3.4-2-5.6.2-2.9.1-5.8 0-8.7 0-1.2.5-1.6 1.7-1.6h31.2c1.3 0 1.8.5 1.8 1.7v22.3c0 1.2-.5 1.7-1.7 1.6H347c-1.3 0-1.8-.5-1.9-1.9h27v-21.5z"/><path class="cls-4" d="M359.5 247.7l-.7 2.9-2.3 9.6c-.2.7-.3 1.7-1.4 1.4s-.8-1-.6-1.8l3-11.8a2 2 0 0 1 1.2-1c.1-.1.6.5.8.7z"/><path class="cls-6" d="M362.7 272.9h4.4c.5 0 1 .6 1.4 1-.5.3-1 1-1.4 1h-5.9c.3-2.7-.3-5-3-6.6h4.5z"/><path class="cls-4" d="M349.6 254.3c1 1.1 1.8 2.2 2.5 3.4.2.4 0 1 0 1.7-.5-.2-1.2-.2-1.5-.5a32 32 0 0 1-2.8-3.8 1.8 1.8 0 0 1 0-1.6 32.9 32.9 0 0 1 2.9-4c.3-.2 1-.2 1.5-.3 0 .5.2 1.2 0 1.5-.7 1.2-1.6 2.3-2.6 3.6zm12.9-5.3a3.4 3.4 0 0 1 .7.6c1 1.2 2 2.5 2.8 3.8a1.8 1.8 0 0 1 0 1.6 32.6 32.6 0 0 1-2.8 4c-.3.3-1 .2-1.5.3 0-.5-.2-1.2 0-1.6.5-1 1.3-1.7 1.9-2.7a1.8 1.8 0 0 0 0-1.5l-2-2.9c-.6-1-.2-1.6.9-1.6z"/><path class="cls-7" d="M45 252.7h54.7a16.8 16.8 0 0 0 7-1.5l2.4-1.2c-.6-1.2-1.2-2.3-1.6-3.4a10.7 10.7 0 0 1-.5-5 9.7 9.7 0 0 1 2-5.2.8.8 0 0 1 .7 0 39 39 0 0 1 2.6 2.5 7.5 7.5 0 0 1 1.3 2l1.7 4.3a31.4 31.4 0 0 1 4-.6 12.1 12.1 0 0 1 6 1.4c.4.3.3.5.1.8a10.3 10.3 0 0 1-7.9 5.4l-3.6.1c-.4 0-.6.2-.9.7-.8 1.9-1.8 3.7-2.8 5.6a33.5 33.5 0 0 1-2 3.2l-2.4 3.1a25 25 0 0 1-2.7 2.9 64 64 0 0 1-5.6 4.5 35 35 0 0 1-9.4 4.5l-6.6 1.7c-1.1.3-2.3.1-3.4.4a41 41 0 0 1-8.5.4 25 25 0 0 1-4.3-.5 35.4 35.4 0 0 1-5-1.3c-1.4-.4-2.7-1.2-4-1.8a16.7 16.7 0 0 1-5.6-4.3 24.5 24.5 0 0 1-3-4.2 22.8 22.8 0 0 1-2-4.4 14.4 14.4 0 0 1-.8-5.4l-.2-1.8.3-3zM74.2 277v-.2a4.2 4.2 0 0 0-.5-.3 15.7 15.7 0 0 1-5.3-3.7 40 40 0 0 1-2.8-3.9c-.2-.3-.6-.6-.9-.6a13.4 13.4 0 0 0-2.5.5 18.5 18.5 0 0 1-5.2.5h-4l-.8.1v.2l1.7 1.5A37 37 0 0 0 58 274a21.3 21.3 0 0 0 6.4 2.3l2.6.4 3.3.4h3.1l.8-.1zM71 265.9a2.6 2.6 0 0 0-1.8-2 2.8 2.8 0 0 0-2.1 2 2.3 2.3 0 0 0 2 2 2.1 2.1 0 0 0 2-2z"/><path class="cls-4" d="M62.2 249.2v-7.5h7.3v7.5zm-9.2-7.5h7.2v7.5H53zm25.7 7.6h-7.2v-7.6h7.2zm9.3-7.6v7.6h-7.3v-7.6zm2 7.6v-7.6h7.2v7.6zm-27.8-16.9h7.3v7.2h-7.2v-7.2zm18.6-9.4H88v5.3c0 2 0 2-2 2h-5.2zm-9.3 16.6v-7.2h7.2v6.5c0 .5 0 .8-.6.8h-6.3a1.7 1.7 0 0 1-.3-.1zm9.3 0v-7.2H88v6.5c0 .5 0 .8-.6.8H81a1.7 1.7 0 0 1-.3-.1z"/><path class="cls-2" d="M70.5 265.5c0 1.1-.3 1.8-1 1.9-1.2 0-1.9-.5-1.9-1.4a1.6 1.6 0 0 1 2-1.5c-.3.9 0 1.1.9 1z"/><path class="cls-7" d="M135 136c-3.4.2-5.5-1.8-5.7-5.4v-12.2l-2.4-.1v10a17.7 17.7 0 0 1-.8 4.9c-.7 2.2-2.6 3.2-5.1 3 3-5.4 1-11.3 1.7-17-1.9.3-2.1 1.6-2.1 2.8v8.2c-.1 3.5-3.2 5.4-6.4 4.1.9-1.6 2.2-3.1 2.6-4.8s0-4 0-5.8a41.9 41.9 0 0 1-4.1 0 8.8 8.8 0 0 1-6.9-3.8c-1.7-2.6-3.6-5-5.6-7.6 1.2-1.2 2.6-.7 3.7.3l3.6 3.6c2.6 2.8 5.5 3.5 8.4 2a4.6 4.6 0 0 0 1.2-.9l4-4.3c-1.6-.3-3.8-.6-6-1.2a16.8 16.8 0 0 1-9-26 4.9 4.9 0 0 0 .8-3.4 65.2 65.2 0 0 1 .5-6.8c0-1.4 1-1.8 2-1.4l7.6 3a5.2 5.2 0 0 0 2.6.5 42.6 42.6 0 0 1 16-.1 3.9 3.9 0 0 0 2.4-.6 17 17 0 0 1 9.5-2.8l.6 8.1a4.9 4.9 0 0 0 .6 2.4c4 5.5 4.7 14.7 1.2 20.5-2.7 4.6-7 6.6-12.1 7.4l-3.6.6c5 2 5.4 5.7 5.2 9.8a57.4 57.4 0 0 0 .3 7.1 5.5 5.5 0 0 0 1.2 2.5 10.5 10.5 0 0 0 1.7 1.5c-1.5 1.2-3 .7-4.2.1a3.5 3.5 0 0 1-2.6-3.3v-8.6c0-1.4-.3-2.7-2.3-3.2.5 5.7-1.5 11.5 1.5 17z"/><path class="cls-7" d="M140.9 107.9c4.5-1.5 6.4-6.3 5.4-11.2-.8-4.4-3.9-6.7-8.9-6.7h-18.7c-4.4 0-7.5 2-8.6 5.7-1.7 5.9 1.3 11.6 7.3 13 3.5.8 7.2 1 11.6 1.5 3.5-.7 7.8-1 11.9-2.3z"/><path class="cls-4" d="M116 98.8c0-2.8 1.6-5 3.4-5s3.6 2.2 3.6 4.8a6.8 6.8 0 0 1-.3 1.5c-.4 1.8-1.3 3.4-3.4 3.3s-2.8-1.7-3.1-3.5a6 6 0 0 1-.2-1.1zm24.3-.5c0 3-1.6 5.2-3.5 5.1s-3.7-2.5-3.5-5.2a7.4 7.4 0 0 1 .3-1.5c.5-1.6 1.4-3 3.2-3s2.8 1.6 3.3 3.2a10 10 0 0 1 .2 1.4z"/><path class="cls-8" d="M98.7 141.6Q95 147 91.9 153a136.3 136.3 0 0 0-10.3 25.9 130.3 130.3 0 0 0-3.6 16.3 110.2 110.2 0 0 0-1.4 12.8c0 .3 0 .6-.5.6v1a10.4 10.4 0 0 1 .2 1c.7 0 1.3-.2 2-.3A128 128 0 0 1 100 143l-1.3-1.4zM346 212.4c.7 0 1.3.2 2 .3l-.1-3.9a85.3 85.3 0 0 0-.8-8.9 137 137 0 0 0-16.1-49.5q-2.5-4.6-5.4-9l-1.5 1.5a132.2 132.2 0 0 1 21.7 64.8l.2 4.7zM165.7 343.6a134.6 134.6 0 0 1-41.7-25.4 139.5 139.5 0 0 1-19-20.2l-1.6.8a130.5 130.5 0 0 0 8.6 10.4 137.3 137.3 0 0 0 11.3 11 139.8 139.8 0 0 0 13.6 10.5 134 134 0 0 0 28.5 14.5l.3-1.6zm152-43.9a151 151 0 0 1-10.4 11.9 129.2 129.2 0 0 1-50.8 32.6c0 .6.2 1.2.3 1.7l1.5-.5c4.2-1.6 8.4-3.3 12.4-5.2a128.3 128.3 0 0 0 28.7-18.6c2.6-2.2 5.1-4.6 7.6-7a118.8 118.8 0 0 0 10.4-11.2l2.2-2.8-2-.9zM246.4 90l1-1.8-3.8-1a83.8 83.8 0 0 0-8.7-2 134.7 134.7 0 0 0-51.8 1q-5 1-10 2.5l1 1.8a130.1 130.1 0 0 1 67.9-1.7l4.4 1.2z"/><path class="cls-9" d="M227.9 80.8c0 .3-.1.5-.4.4-.8-.2-1.6 0-2.3-.4zm-17.2 0a2 2 0 0 1-2 0z"/><ellipse class="cls-4" cx="212" cy="213" rx="61.1" ry="61.5"/><g class="cls-10"><path class="cls-11" d="M230.4 168.6l46 35v25.7L260.6 266l-17.9 8.6-32-14.2 19.7-91.7z"/></g><path class="cls-12" d="M194 167.6h1.4a5.9 5.9 0 0 1 1.6.4 7 7 0 0 1 3 2.6 19.8 19.8 0 0 1 2.8 5.7 49.6 49.6 0 0 1 1.3 5.5l.9 5.8.4 4.8a17.5 17.5 0 0 0-1.5 4.7 17.4 17.4 0 0 1-.6-5.9 20.2 20.2 0 0 0-1 2.4 5.5 5.5 0 0 1 0-.6v-4a55 55 0 0 0-.8-6.5 25.5 25.5 0 0 0-2.3-7 9.4 9.4 0 0 0-2-2.9 4.6 4.6 0 0 0-3-1.4 5.8 5.8 0 0 0-5.8 4.2 10.7 10.7 0 0 0-.4 5 39.1 39.1 0 0 0 1.4 6.4 49.8 49.8 0 0 0 6.6 13.7 18.7 18.7 0 0 0 3.1 3.7c.6.5 1 .4 1.4-.3a11.8 11.8 0 0 0 1-2.8l.5-2a9.8 9.8 0 0 0 .5 1.7 3.9 3.9 0 0 0 1.5 2.1.2.2 0 0 1 0 .2 4.8 4.8 0 0 0 .1 2.3 15.1 15.1 0 0 0 .8 2.4 11 11 0 0 0 .6 1.4 5.3 5.3 0 0 1 0-2.3 7 7 0 0 1 1-2.1 18.3 18.3 0 0 0 1.2 8.4 1 1 0 0 0 0-.2 32.5 32.5 0 0 1 .1-4.3 9 9 0 0 1 .6-2.6 2 2 0 0 1 1-1c0-.1.2-.1.2 0a16 16 0 0 1 1.1 3.2 5.3 5.3 0 0 1 0 2.3h.2a11.3 11.3 0 0 0 2.2-4.7 6.9 6.9 0 0 0 0-1.4v-1.3a10.7 10.7 0 0 1 1.3 1.5 8.8 8.8 0 0 1 1.7 3.3 5.6 5.6 0 0 1 .2 1.9l-.2 1v.1l.1-.2a19.3 19.3 0 0 0 1.2-3.3 10.6 10.6 0 0 0 .5-3v-.4a1.6 1.6 0 0 1 .4.4 4.5 4.5 0 0 1 .8 2l.2 1.4a3.6 3.6 0 0 0 .2-.7 9.3 9.3 0 0 0 .5-4 3.8 3.8 0 0 0-.6-1.6.3.3 0 0 1 0-.4 3.8 3.8 0 0 0 .4-1 .8.8 0 0 1 0 .1 13.4 13.4 0 0 0 1.3 3.6c.4.7.7.8 1.4.2a16 16 0 0 0 2.1-2.3 46.8 46.8 0 0 0 5-8.2 44.3 44.3 0 0 0 3.6-11 16.6 16.6 0 0 0 .3-5.3 8 8 0 0 0-1.5-3.9 5.7 5.7 0 0 0-3.4-2 4.4 4.4 0 0 0-3.8.8 7.3 7.3 0 0 0-1.7 1.8 19.8 19.8 0 0 0-2.2 4.9 31.8 31.8 0 0 0-1.2 5.3c-.2 1.4-.4 2.7-.4 4l-.2 2v3c0 .8.2 1.6.1 2.3l-.4-1.1-.3-.8v2a5.2 5.2 0 0 1-.3 1.9 1.9 1.9 0 0 1-1.1 1.2l-.4-.1a3.1 3.1 0 0 1 0-1.5 5.7 5.7 0 0 1 .8-2v-.2h-.2a4 4 0 0 0-1.4.4l.5-5.7.7-5.8a49.4 49.4 0 0 1 2.2-8.6 15.5 15.5 0 0 1 3-5.5 6.2 6.2 0 0 1 5.8-2 8.8 8.8 0 0 1 4.8 2.4 10.6 10.6 0 0 1 3.3 7.5v2.2a20.7 20.7 0 0 1-.2 2 36.1 36.1 0 0 1-1.4 6.3 84.2 84.2 0 0 1-6 14.5l-1.3 2a.7.7 0 0 0 .2 1.2l.2.1a10.6 10.6 0 0 1 1.7 1.8 11.6 11.6 0 0 1 2.2 4.6 14.3 14.3 0 0 1 .3 4l-.3 3c0 1-.3 2.2-.4 3.3l-.6 4.2-.8 5.3-.9 5c-.2 1.3-.3 2.5-.6 3.7a41.8 41.8 0 0 1-2.2 6.7v-.2l-.4-1a24.3 24.3 0 0 0-4-5.9 22 22 0 0 0-4.6-3.7 13.7 13.7 0 0 0-5.9-2.2 9 9 0 0 0-4.4.7 13.9 13.9 0 0 0-4.2 2.8 27.2 27.2 0 0 0-4.4 5.2 19 19 0 0 0-2.3 5l-.5 2.3-.2.5v-.1l-2.1-5a30.6 30.6 0 0 1-1.4-4.4 36.5 36.5 0 0 1-.6-5.2l-.2-3.3c0-1-.2-1.8-.3-2.7l-.3-3.6a98.1 98.1 0 0 0-.6-8 14.7 14.7 0 0 1 .2-4.2 15.7 15.7 0 0 1 3.3-6.6 13 13 0 0 1 1.4-1.4.6.6 0 0 0 .1-1v-.1c-1.8-3-3.4-6.1-4.8-9.3a55.4 55.4 0 0 1-4-12 27.3 27.3 0 0 1-.5-4.7v-.9a12.4 12.4 0 0 1 0-1.5 12.8 12.8 0 0 1 1.3-4.3 9.4 9.4 0 0 1 6.2-4.9l1.1-.2zm23.7 61.9h1.3a12.5 12.5 0 0 0 7.2-3.8 4.7 4.7 0 0 0 1.2-4.9 9.5 9.5 0 0 0-4.2-5.4 4.4 4.4 0 0 0-3.8-.5 6.4 6.4 0 0 0-2.7 1.7 12.9 12.9 0 0 0-3.4 6.4 7.6 7.6 0 0 0 .7 5.2 2.3 2.3 0 0 0 2 1.3h1.7zm-13.3 0h.4a2.5 2.5 0 0 0 2.3-1 6.7 6.7 0 0 0 1-3 11.5 11.5 0 0 0-5.5-10.2 4 4 0 0 0-3-.5 7.2 7.2 0 0 0-3.4 2 10.2 10.2 0 0 0-2.2 3.8 4.5 4.5 0 0 0 .6 4.5 10.4 10.4 0 0 0 2.2 2.1 13.4 13.4 0 0 0 7.6 2.4z"/><path class="cls-13" d="M226.2 247.5l.3 1a7.7 7.7 0 0 1-1.5 6.3 13.3 13.3 0 0 1-6.8 4.8 15.3 15.3 0 0 1-4.2.7h-3.6a39.3 39.3 0 0 1-5.7-.5 17.5 17.5 0 0 1-4.5-1.4 7.8 7.8 0 0 1-4.7-7.5v-.4l.5-2.3a19 19 0 0 1 2.3-5 27.2 27.2 0 0 1 4.4-5.2 13.9 13.9 0 0 1 4.2-2.8 9 9 0 0 1 4.4-.6 13.7 13.7 0 0 1 5.9 2.1 22 22 0 0 1 4.5 3.8 24.3 24.3 0 0 1 4 5.9l.4 1h.1zm-4.9 4.6a.5.5 0 0 0-.2.1 23 23 0 0 1-4.4 2.8 12.5 12.5 0 0 1-7.5.8 23 23 0 0 1-6.1-2.2l-2.5-1.4.1.3a14.8 14.8 0 0 0 7 5 11.2 11.2 0 0 0 6.7.2 11.4 11.4 0 0 0 6.3-4.4 5.5 5.5 0 0 0 .7-1.2zm.8-7a1.2 1.2 0 0 0-.3-.8 5.3 5.3 0 0 0-1.3-1.3 2.7 2.7 0 0 0-3.4.3 3 3 0 0 0-.8 2 8.1 8.1 0 0 1-1.2 3.8 26 26 0 0 1-1.3 1.8.6.6 0 0 0 .2.9.9.9 0 0 0 .8 0 22.3 22.3 0 0 0 5.4-3.1 4.6 4.6 0 0 0 1.9-3.5zm-21.4.5a2.5 2.5 0 0 0 .4 1.4 7.9 7.9 0 0 0 2.3 2.4 30.4 30.4 0 0 0 4 2.2 4.8 4.8 0 0 0 .7.3.8.8 0 0 0 .8-.2.4.4 0 0 0 .1-.5 1.9 1.9 0 0 0-.4-.6c0-.1-.2-.2-.1-.3a.4.4 0 0 0-.2-.4l-.3-.3a7.8 7.8 0 0 1-1.5-4.5 2.6 2.6 0 0 0-3.1-2.6 3.3 3.3 0 0 0-2.7 3.1z"/><path class="cls-14" d="M236.2 177.6v2.2z"/><path class="cls-15" d="M202 199.1l-.5 2a11.8 11.8 0 0 1-1 2.8c-.5.7-.8.8-1.4.2a18.7 18.7 0 0 1-3.1-3.6 49.8 49.8 0 0 1-6.6-13.6 39.1 39.1 0 0 1-1.4-6.4 10.7 10.7 0 0 1 .4-5 5.8 5.8 0 0 1 5.9-4.2 4.6 4.6 0 0 1 3 1.4 9.4 9.4 0 0 1 2 2.9 25.5 25.5 0 0 1 2.3 7 55 55 0 0 1 .7 6.5l.1 4a5.5 5.5 0 0 0 0 .6v.2a13.4 13.4 0 0 0-.5 3.7l.1 1.5z"/><path class="cls-16" d="M219.3 195.5l-.1-2.2v-3.1l.1-2c0-1.3.3-2.6.4-4a31.8 31.8 0 0 1 1.2-5.3 19.8 19.8 0 0 1 2.3-4.9 7.3 7.3 0 0 1 1.7-1.8 4.4 4.4 0 0 1 3.8-.8 5.7 5.7 0 0 1 3.3 2 8 8 0 0 1 1.6 4 16.6 16.6 0 0 1-.4 5.2 44.3 44.3 0 0 1-3.6 11 46.8 46.8 0 0 1-5 8.2 16 16 0 0 1-2 2.3c-.7.6-1 .6-1.5-.2a13.4 13.4 0 0 1-1.2-3.6 6.2 6.2 0 0 0 0-2.6 18.4 18.4 0 0 0-.6-2.2z"/><path class="cls-17" d="M219.3 195.5a18.4 18.4 0 0 1 .6 2.2 6.2 6.2 0 0 1 0 2.6 3.8 3.8 0 0 1-.5 1 .3.3 0 0 0 0 .3 3.8 3.8 0 0 1 .6 1.7 9.3 9.3 0 0 1-.4 4 3.6 3.6 0 0 1-.3.6l-.2-1.4a4.5 4.5 0 0 0-.7-2 1.6 1.6 0 0 0-.5-.4v.4a10.6 10.6 0 0 1-.4 3 19.3 19.3 0 0 1-1.2 3.3l-.2.2.2-1.1a5.6 5.6 0 0 0-.2-2 8.8 8.8 0 0 0-1.7-3.2 10.7 10.7 0 0 0-1.3-1.5l.1 1.3a6.9 6.9 0 0 1 0 1.4 11.3 11.3 0 0 1-2.2 4.7h-.2a5.3 5.3 0 0 0 0-2.3 16 16 0 0 0-1.1-3.2h-.3a2 2 0 0 0-1 1 9 9 0 0 0-.5 2.6 32.5 32.5 0 0 0-.2 4.3 1 1 0 0 1 0 .2 18.3 18.3 0 0 1-1.2-8.4 7 7 0 0 0-.9 2.1 5.3 5.3 0 0 0 0 2.4 11 11 0 0 1-.7-1.5 15.1 15.1 0 0 1-.7-2.4 4.8 4.8 0 0 1 0-2.3.2.2 0 0 0-.2-.2 3.9 3.9 0 0 1-1.4-2.1 9.8 9.8 0 0 1-.5-1.7l-.1-1.5a13.4 13.4 0 0 1 .5-3.7v-.3a20.2 20.2 0 0 1 1-2.3 17.4 17.4 0 0 0 .5 5.8 17.5 17.5 0 0 1 1.5-4.7v.2a5 5 0 0 0 0 1.7 2.2 2.2 0 0 0 .2.9 7.4 7.4 0 0 0 .7 1.8 5.5 5.5 0 0 0 .5-3.5 7.5 7.5 0 0 1 .9 1 15.4 15.4 0 0 1 1 1.6 10.9 10.9 0 0 1 .6 1.5 13.7 13.7 0 0 1 1.3-3.8 11.5 11.5 0 0 0 1.2 4.1 4.1 4.1 0 0 0 .5-.7 4.8 4.8 0 0 0 .6-3.2 3 3 0 0 1-.2-.6 17 17 0 0 1 1.6 3.4 5 5 0 0 1 .5-.6 3.8 3.8 0 0 1 1.2-.9 4 4 0 0 1 1.4-.3h.1v.2a5.7 5.7 0 0 0-.9 2 3.1 3.1 0 0 0 .1 1.4c0 .2.2.2.4.2a1.9 1.9 0 0 0 1-1.2 5.2 5.2 0 0 0 .4-2v-2l.3.8z"/><path class="cls-2" d="M217.7 229.5H216a2.3 2.3 0 0 1-2-1.4 7.6 7.6 0 0 1-.6-5.1 12.9 12.9 0 0 1 3.4-6.4 6.4 6.4 0 0 1 2.6-1.7 4.4 4.4 0 0 1 3.9.5 9.5 9.5 0 0 1 4.2 5.4 4.7 4.7 0 0 1-1.2 4.9 12.5 12.5 0 0 1-7.3 3.7h-.6l-.7.1zm.9-.4a4.2 4.2 0 0 0 1 0 4.1 4.1 0 0 0 3-2.7 3.2 3.2 0 0 0 .3-1.6.8.8 0 0 0-1.2-.7 4.3 4.3 0 0 0-.4.2 2.7 2.7 0 0 1-.5.2 1.3 1.3 0 0 1-1.6-.6 1.2 1.2 0 0 1 0-1.6l.4-.4a.9.9 0 0 0-.5-1.5 4 4 0 0 0-2.2.2 4 4 0 0 0-2.7 2.8 5.7 5.7 0 0 0 .3 3.4 3.4 3.4 0 0 0 2.2 2.1 5.7 5.7 0 0 0 1.9.2zm-14.2.5a13.4 13.4 0 0 1-7.6-2.4 10.4 10.4 0 0 1-2.2-2.1 4.5 4.5 0 0 1-.6-4.6 10.2 10.2 0 0 1 2.2-3.7 7.2 7.2 0 0 1 3.5-2 4 4 0 0 1 2.9.4 11.5 11.5 0 0 1 5.5 10.2 6.7 6.7 0 0 1-1 3 2.5 2.5 0 0 1-2.3 1.1zm-6-4.8l.1.6a3.5 3.5 0 0 0 0 .4 4.1 4.1 0 0 0 3 3.2 6.7 6.7 0 0 0 1.4.1 3.6 3.6 0 0 0 2.4-.6 3.9 3.9 0 0 0 1.9-3.7c0-.7-.6-1.2-1.3-.6a2.5 2.5 0 0 1-.4.2 1.2 1.2 0 0 1-1.5 0 1.3 1.3 0 0 1 0-2.3l.2-.2a.8.8 0 0 0 0-1 1 1 0 0 0-.7-.6 4.8 4.8 0 0 0-1.4 0 4.4 4.4 0 0 0-3.7 4.5z"/><path class="cls-17" d="M216.1 211zm6 34.2a4.6 4.6 0 0 1-1.9 3.5 22.3 22.3 0 0 1-5.3 3.1.9.9 0 0 1-.9 0 .6.6 0 0 1-.2-.9l1.3-1.8a8.1 8.1 0 0 0 1.2-3.8 3 3 0 0 1 .8-2 2.7 2.7 0 0 1 3.4-.3 5.3 5.3 0 0 1 1.4 1.3 1.2 1.2 0 0 1 .2.8zm-21.4.4a3.3 3.3 0 0 1 2.7-3 2.6 2.6 0 0 1 3 2.6 7.8 7.8 0 0 0 1.6 4.4l.3.4a.4.4 0 0 1 .2.3l.1.3a1.9 1.9 0 0 1 .4.6.4.4 0 0 1 0 .5.8.8 0 0 1-.8.2 4.8 4.8 0 0 1-.9-.3 30.4 30.4 0 0 1-3.9-2.2 7.9 7.9 0 0 1-2.3-2.4 2.5 2.5 0 0 1-.4-1.4z"/><path class="cls-2" d="M200.6 252.2l2.4 1.4a23 23 0 0 0 6.1 2.2 12.5 12.5 0 0 0 7.6-.8 23 23 0 0 0 4.4-2.8.5.5 0 0 1 .2-.1 5.5 5.5 0 0 1-.7 1.2 11.4 11.4 0 0 1-6.2 4.4 11.2 11.2 0 0 1-6.7-.3 14.8 14.8 0 0 1-7-4.9c-.1 0-.2-.1-.2-.3zm20.7-.2zm-20.7.2z"/><path class="cls-18" d="M212.7 193.3a3 3 0 0 0 .2.7 4.8 4.8 0 0 1-.6 3.2 4.1 4.1 0 0 1-.5.7 11.5 11.5 0 0 1-1.2-4.1 13.7 13.7 0 0 0-1.3 3.7 10.9 10.9 0 0 0-.6-1.5 15.4 15.4 0 0 0-1-1.6 3.9 3.9 0 0 1 2.7-1.6h.2a2.8 2.8 0 0 0 .6 0 5 5 0 0 1 1.4.4.3.3 0 0 1 .1.1z"/><path class="cls-19" d="M210.6 188.2a1.9 1.9 0 1 1 .6 0 2.7 2.7 0 0 1-.6 0z"/><path class="cls-17" d="M210.6 188.2a2.7 2.7 0 0 0 .6 0v4.6a2.8 2.8 0 0 1-.6 0z"/><path class="cls-20" d="M214.8 196.1a5 5 0 0 0-.4.7 17 17 0 0 0-1.6-3.5 3 3 0 0 1 1.1 1 3.8 3.8 0 0 1 .9 1.7.7.7 0 0 0 0 .1z"/><path class="cls-21" d="M205.6 195.2a2.2 2.2 0 0 1-.3-.9 5 5 0 0 1 0-1.6.3.3 0 0 1 0-.1c.2.8.2 1.7.3 2.6z"/><path class="cls-17" d="M218.6 229.1a5.7 5.7 0 0 1-1.8-.2 3.4 3.4 0 0 1-2.3-2.1 5.7 5.7 0 0 1-.3-3.4 4 4 0 0 1 2.7-2.8 4 4 0 0 1 2.3-.2.9.9 0 0 1 .5 1.5l-.4.4a1.2 1.2 0 0 0 0 1.6 1.3 1.3 0 0 0 1.5.6 2.7 2.7 0 0 0 .5-.2 4.3 4.3 0 0 1 .4-.2.8.8 0 0 1 1.3.7 3.2 3.2 0 0 1-.4 1.6 4.1 4.1 0 0 1-3 2.7 4.2 4.2 0 0 1-1 0zm-20.2-4.3a4.4 4.4 0 0 1 3.7-4.4 4.8 4.8 0 0 1 1.4 0 1 1 0 0 1 .8.4.8.8 0 0 1-.1 1l-.2.3a1.3 1.3 0 0 0 0 2.2 1.2 1.2 0 0 0 1.5.2 2.5 2.5 0 0 0 .4-.3c.7-.5 1.2 0 1.3.6a3.9 3.9 0 0 1-1.9 3.8 3.6 3.6 0 0 1-2.4.6 6.7 6.7 0 0 1-1.4-.2 4.1 4.1 0 0 1-3-3.1 3.5 3.5 0 0 1 0-.5v-.6z"/><path class="cls-22" d="M259.5 114V83.2c0-.6.1-.8.8-.8h43.3c.6 0 .7.2.7.8v58.9c0 .6 0 .8-.7.8h-43.3c-.7 0-.8-.2-.8-.8v-27.4c.2 0 .3.2.4.4 1 2 1.3 2 3.4 1.2h.2c-.1 3-.5 6.1-.4 9.2 0 4 .6 7.8 3.4 10.9.4.4.2.6-.1.8a5.8 5.8 0 0 0-1.5 1.4 2.4 2.4 0 0 0 .1 3c1.2 1.2 2 1.4 3.2.6.8-.5 1.4-1.1 2-1.6a2.1 2.1 0 0 1 2.3-.4 26.4 26.4 0 0 0 17.9 0c1.8-.7 2.8-.5 4 1 1 1.3 2 1.3 3.3.4a2.3 2.3 0 0 0 .5-3.3 5.1 5.1 0 0 0-1-1.3c-.6-.4-.7-.7-.2-1.2a11.6 11.6 0 0 0 2-3.4c1.6-4 1.8-8 1.7-12.1v-4c1.7.5 2.1.3 2.8-.8 1-1.9 0-3.1-1.5-3.5-1.8-.5-2-1.5-1.8-2.9v-1.6c0-4.3 0-8.7-1-13-.1-.4.1-.6.5-.8a3.9 3.9 0 0 0 2-3.4 4.7 4.7 0 0 0-6.6-4.6 1.3 1.3 0 0 1-1.4-.2 12.8 12.8 0 0 0-4.3-2A28.6 28.6 0 0 0 278 83a19.8 19.8 0 0 0-9 3 1.6 1.6 0 0 1-1.8.3 4.9 4.9 0 0 0-6 2.5c-1 2.2-.5 4.2 1.7 5.7.5.3.5.6.4 1a26.8 26.8 0 0 0-.4 6.6l.6 8.8c0 .3.3.8-.4.9a5.2 5.2 0 0 0-3.7 2.1z"/><path class="cls-23" d="M259.5 114a5.2 5.2 0 0 1 3.8-2.2c.6 0 .3-.6.3-.9l-.6-8.8a26.8 26.8 0 0 1 .4-6.6c0-.4.1-.7-.4-1-2.2-1.5-2.8-3.6-1.7-5.7a4.9 4.9 0 0 1 6-2.4 1.6 1.6 0 0 0 1.7-.3 19.8 19.8 0 0 1 9-3 28.6 28.6 0 0 1 11.3.5 12.8 12.8 0 0 1 4.3 2 1.3 1.3 0 0 0 1.5.2 4.7 4.7 0 0 1 6.6 4.6 3.9 3.9 0 0 1-2 3.3c-.4.3-.7.5-.6 1 1 4.2 1 8.5 1 12.9v1.6c0 1.4 0 2.4 1.8 2.9 1.5.4 2.6 1.6 1.5 3.5-.6 1-1 1.3-2.8.8v4c.1 4 0 8.1-1.7 12a11.6 11.6 0 0 1-2 3.5c-.4.5-.3.7.2 1.1a5.1 5.1 0 0 1 1 1.4 2.3 2.3 0 0 1-.5 3.3c-1.2.9-2.3.9-3.3-.4-1.1-1.6-2.1-1.7-4-1a26.4 26.4 0 0 1-17.9 0 2.1 2.1 0 0 0-2.2.4l-2 1.5c-1.2.8-2 .6-3.2-.6a2.4 2.4 0 0 1-.1-2.9 5.8 5.8 0 0 1 1.4-1.4c.4-.3.5-.5.2-.9-2.8-3-3.4-6.9-3.5-10.8 0-3 .3-6.1.5-9.2h-.2c-2.2.8-2.4.7-3.5-1.3 0-.1-.1-.3-.3-.3zm39.8 5.4l-.2-3.1c0-2.3 0-2.3 2-1.3.3.1.7.5 1 0s.5-1-.1-1.4a3.5 3.5 0 0 0-2-.7 1.2 1.2 0 0 1-1.2-1.4V106a49.4 49.4 0 0 0-1-11.2 1.6 1.6 0 0 1 1-2.2 2.7 2.7 0 0 0 1.3-3.8 3.3 3.3 0 0 0-4.7-1.7 1.8 1.8 0 0 1-2.3-.2 9.8 9.8 0 0 0-3.6-1.8 26.8 26.8 0 0 0-11.3-.7c-2.9.4-5.8 1-8.3 2.8a2.7 2.7 0 0 1-3 .5 3.4 3.4 0 0 0-4.5 2c-.6 1.6 0 2.9 1.8 3.8 1 .4.8 1 .7 1.8a23.4 23.4 0 0 0-.5 6.3l.7 10c0 1-.3 1.4-1.4 1.5a3.9 3.9 0 0 0-2.3.9c-.6.4-.1.7 0 1.1s.5.4.8.2l.9-.4c.4-.3 1-.7 1.5-.4s.4 1 .4 1.5a99.8 99.8 0 0 0-.5 10.8c.2 3.8 1.1 7.3 4.2 9.8.5.4.3.5 0 .8a10.2 10.2 0 0 0-2.6 2c-.3.4-.4.9 0 1.2s.8 1 1.5.4l1.8-1.5a3.2 3.2 0 0 1 3.7-.5 7.5 7.5 0 0 0 2 .6c5.6 1.2 11 1 16.4-1.3a2 2 0 0 1 2.5.5l1.4 1.6a.9.9 0 0 0 1.4 0 1 1 0 0 0 .2-1.3 5.5 5.5 0 0 0-1.5-1.6c-.9-.8-.9-1.2-.1-2a11.5 11.5 0 0 0 2.4-4c1.5-3.8 1.6-8 1.5-12.1z"/><path class="cls-4" d="M287.7 99.3a5.8 5.8 0 0 1-6.1-5.7c0-3.3 3-6 6.6-6a5.9 5.9 0 0 1 6 5.8c0 3.3-2.8 5.9-6.5 5.9zM288 89l-1 .1a4.6 4.6 0 0 0-3.8 5.9c.8 2.3 3.6 3.5 6.4 2.6a4.2 4.2 0 0 0 3-5A4.5 4.5 0 0 0 288 89zm-7.7 5a6.1 6.1 0 0 1-6.4 5.9 5.8 5.8 0 0 1-6-5.8c-.1-3.2 2.7-5.8 6.3-5.8s6 2.3 6 5.7zm-6.4 4.5c2.8 0 5-2 5-4.5a4.5 4.5 0 0 0-4.8-4.4 4.7 4.7 0 0 0-5 4.4 4.4 4.4 0 0 0 4.8 4.5z"/><path class="cls-22" d="M288 89a4.5 4.5 0 0 1 4.6 3.6 4.2 4.2 0 0 1-3 4.9c-2.8 1-5.6-.2-6.4-2.6a4.6 4.6 0 0 1 3.9-5.8l.9-.1zm-14.1 9.5a4.4 4.4 0 0 1-4.7-4.5 4.7 4.7 0 0 1 5-4.4A4.5 4.5 0 0 1 279 94c0 2.5-2.4 4.5-5.1 4.5z"/><path class="cls-4" d="M281.4 98a3.1 3.1 0 0 1 1.7.4 1.4 1.4 0 0 1 .7 1.6c-.1.3 0 .3.2.4a4 4 0 0 1 1.3 1.1 1.2 1.2 0 0 1 .1 1.5 1.3 1.3 0 0 1-1.5.6 7.2 7.2 0 0 1-1-.4 3.4 3.4 0 0 0-2.8 0 6.7 6.7 0 0 1-1.2.3 1.3 1.3 0 0 1-1.6-1.6 2 2 0 0 1 1.1-1.5c.2 0 .4 0 .3-.3-.2-1 .5-1.4 1.2-1.9a3 3 0 0 1 1.5-.3zm-.5 3a4 4 0 0 0 2-.5 1 1 0 0 0 .1-1.7 2.1 2.1 0 0 0-1.1-.5 2.9 2.9 0 0 0-2.6.7 1 1 0 0 0 .5 1.8 3 3 0 0 0 1 .1z"/><path class="cls-4" d="M283.4 105.3c-.1.5.2 1.1-.5 1.4a1 1 0 0 1-1.6-.8 15.1 15.1 0 0 1 0-2.4c0-.2.2-.3.4-.3a6.8 6.8 0 0 1 1.4.5c.2 0 .2.2.2.3v1.3zm-2.5-.5a7.8 7.8 0 0 0 0 1 .7.7 0 0 1-.3.5c-.7.8-1.3.6-1.7-.3a4 4 0 0 1-.2-1.8.3.3 0 0 1 .3-.3l1.6-.5c.3-.1.4 0 .4.3l-.1 1z"/><path class="cls-23" d="M286.5 93.6a1.6 1.6 0 1 1-3.3 0 1.6 1.6 0 1 1 3.3 0zm-.5.4c0-.2-.1-.4-.3-.4s-.4.1-.4.4 0 .4.3.4.3-.1.4-.4zm-13.2.1a1.6 1.6 0 1 1-3.3 0 1.6 1.6 0 1 1 3.3 0zm-.9.8a.4.4 0 0 0 .3-.4c0-.3 0-.4-.3-.4s-.4.2-.4.5a.4.4 0 0 0 .4.3zm9 6.1a3 3 0 0 1-1.1-.2 1 1 0 0 1-.4-1.8 2.9 2.9 0 0 1 2.5-.7 2.1 2.1 0 0 1 1.2.5 1 1 0 0 1-.2 1.7 4 4 0 0 1-2 .4z"/><path class="cls-22" d="M286 94c0 .2-.1.4-.4.4s-.3-.2-.3-.4 0-.4.4-.4.2.2.3.4zm-14 1a.4.4 0 0 1-.5-.5c0-.2.1-.4.4-.4s.3.1.4.3a.4.4 0 0 1-.4.5z"/></svg>