<svg id="Layer_1" data-name="Layer 1" xmlns="http://www.w3.org/2000/svg" viewBox="0 0 391 291"><defs><style>.cls-1,.cls-3{fill:none;stroke:#f04f25;stroke-miterlimit:10}.cls-1{stroke-width:4px}.cls-2{fill:#f04f25}.cls-3{stroke-width:5px}</style></defs><title>new icons</title><path class="cls-1" d="M233.5 203.1a5.1 5.1 0 0 0 .5-7.2c-1.5-1.6-1.8-3.2-.2-5 .6-.7 1-1.5 1.7-2.2 2.7-3.1 3-3.1 6.7-1 2.3 1.4 6.6-1 6.7-3.6 0-3.5.8-4.3 4.4-4.6l2.5-.3c3-.2 3.8.5 4.5 3.4a4.5 4.5 0 0 0 7.5 2.4c2.3-2 3.7-2 6 0 .7.7 1.2 1.3 2 1.8 2 1.6 2.4 3.2.9 5.5-2 2.9.5 7.1 4 7.2 2.3.1 3.6 1.2 3.7 3.5h8.6a5.6 5.6 0 0 1 1.1-1.3c1.9-1.8 2.2-3.4.8-5.6a4.7 4.7 0 0 1-.8-1.9c-.2-1.7-1.3-2-2.8-2.2-5-.5-5.2-.8-5.2-5.7v-1.5c0-4.6-1-6.7 6-7.1.6 0 1.3-.8 1.8-1.4s.4-1.3.8-1.9c1.5-2.5 1.7-4.5-.8-6.7-1.7-1.5-1.7-3.4.2-5.2l4.5-4.5c1.5-1.5 3.3-1.5 5-.1 3 2.4 6 2.5 9 0a4 4 0 0 0 .9-2.4c.5-4.7 1.1-5.3 5.8-5.3h1c6.3 0 6.3 0 7.6 6.4.1.7.9 1.3 1.5 1.7s1.1.4 1.6.7c2.2 1.4 4 1.3 5.8-.7a4.2 4.2 0 0 1 4.7-1.4l1.4 1.4c-.5-27.6-22.8-47.4-49.4-42.7-4.5.8-6.6-1-8.7-5.4-8.4-18.8-17.8-35.6-44.4-38.8-27.7-3.2-43 8.1-55.4 26.2-2.4 3.4-4.6 4.7-8.6 4.8a45 45 0 0 0-37.9 19.6c-3.2 4.6-6.6 5.6-11.7 5-22.6-2.4-40.4 14.8-40 38.6.2 21.5 14.7 37.4 35.3 37.6 33.3.3 66.7 0 100 0l11.4-.1zm13.1-58.1c2.4-.5 4-4 2.6-6-1.5-2.1-1.3-3.4.8-5.6 2.5-2.4 3.6-2.6 5.8-1a4 4 0 0 0 6-2.2c.6-3 1.3-3.3 5-3.3 2.6 0 4.1.8 4.4 3.5.3 2.3 3.7 3.7 5.6 2.3 2.5-1.6 3.4-1.5 6 1.2 2 2.1 2.2 3.3.6 5.6-1 1.3.2 5.2 1.8 5.7 4 1.1 4.1 1.5 4 6-.2 3.2-2.4 3.4-4.7 3.7a26 26 0 0 0-1.5 3.5 3.2 3.2 0 0 0 .3 2.3c1.4 2.4 1.3 3.2-1.4 5.9-1.7 1.7-3.2 2.4-5.4.7-1.5-1.3-5.6.4-6 2.4-.5 2.8-2.4 3.1-4.8 3.1s-4.2-.4-4.6-3.3c-.2-2-3.8-3.6-5.5-2.6-3 1.7-3.5 1.5-6.3-1.4-1.9-1.8-1.7-3.5-.3-5.5 1.1-1.5-.6-5.2-2.4-5.5-3-.7-3.4-1.3-3.4-4.8s.5-4.1 3.4-4.7zm-160.3 9.5h-24V146H41.8m43.6 25.2h-23v8.6H41.7m43.6-17.2l-43.6.1"/><path class="cls-2" d="M37.2 147.5a1.5 1.5 0 0 0 0-3 1.5 1.5 0 0 0 0 3zm.1 17a1.5 1.5 0 0 0 0-3 1.5 1.5 0 0 0 0 3zm0 17a1.5 1.5 0 0 0 0-3 1.5 1.5 0 0 0 0 3z"/><path class="cls-3" d="M346.7 163.9c.9 2.5-1 4-2.2 5.5-.8 1.1-1.1 2-.2 3.1a3.3 3.3 0 0 1 .6 1.4c.6 2.8 2.3 3.9 5.1 3.9 2.3 0 3.5 1.4 3.4 3.8v5.6c0 3-.7 4-3.6 4-2.4.1-4 .9-4.3 3.4a2.7 2.7 0 0 1-.5 1.2c-1.5 2-1 3.6.6 5.5 2 2.5 1.8 3.4-.5 5.8l-3.6 3.6c-1.5 1.5-3.2 2-5 .4-1-.8-2.3-2.1-3.1-2a26.7 26.7 0 0 0-6.3 2.6c-.4.2-.5 1.2-.6 1.8-.6 4.7-.8 5-5.7 5h-4c-2.5 0-3.8-1-4-3.5-.1-1.2-.2-3-1-3.4a17.8 17.8 0 0 0-5.7-2.4c-.7-.2-1.7.9-2.5 1.5-2.4 2-3.5 2-5.8-.2a183 183 0 0 1-4-4c-1.8-1.9-2-3.3 0-5.2s2-3.4.7-5.5a4.6 4.6 0 0 1-.7-1.8c-.3-1.7-1.3-2-2.8-2.2-4.8-.5-5-.8-5-5.5v-1.6c-.1-4.4-1-6.5 5.8-7 .6 0 1.3-.7 1.7-1.3s.5-1.3.8-1.8c1.5-2.4 1.7-4.5-.7-6.6-1.7-1.4-1.7-3.4.1-5l4.5-4.5c1.5-1.5 3.2-1.5 5-.1 2.7 2.3 5.8 2.4 8.7 0a4 4 0 0 0 .9-2.4c.5-4.6 1-5.1 5.6-5.1h1c6.3 0 6.3 0 7.5 6.2.1.7.9 1.3 1.5 1.7s1.1.3 1.6.7c2.1 1.4 3.9 1.2 5.7-.8a4.1 4.1 0 0 1 4.5-1.3zm-35.5 12.6a12 12 0 0 0 0 17 12.2 12.2 0 1 0 17.2-17.1 12 12 0 0 0-17.3.1zm-74.8 49.2a16.6 16.6 0 0 1 1-4c1.4-2.6-.8-6.8-3.9-7-2.4 0-3.8-1-4-3.5l-.3-3.2c-.1-3 .4-3.8 3.3-4.4a5 5 0 0 0 2.3-8c-1.5-1.6-1.8-3.2-.3-5 .7-.6 1.1-1.4 1.8-2.1 2.6-3 3-3 6.5-1 2.3 1.4 6.5-.8 6.5-3.5.1-3.4.9-4.1 4.4-4.5l2.5-.2c2.9-.2 3.7.4 4.3 3.3a4.4 4.4 0 0 0 7.4 2.3c2.2-2 3.6-2 5.9.2l1.9 1.7c2 1.5 2.4 3.1.9 5.3-1.9 2.8.5 7 4 7.1 2.4 0 3.6 1.2 3.7 3.5v.8c.8 5.8.7 6-5 7.4a12.3 12.3 0 0 1-.5 2.2c-1 2.3-1.4 4.4.9 6.2a1.2 1.2 0 0 1 .4.6c.8 3.5-2.3 4.8-3.9 6.9a2.6 2.6 0 0 1-4 .4c-1.7-1.5-3.2-1-5 0s-3.2 1.6-2.7 4a1.8 1.8 0 0 1-.2 1c-1.6 3.5-5 2-7.6 2.5a2.7 2.7 0 0 1-3.2-2.7c-.2-2.4-1.7-2.8-3.5-3.5s-3.2-.6-4.6 1-3 1.4-4.6 0a11.6 11.6 0 0 0-1.9-1.2zm27.6-25.5a10 10 0 0 0-14 0 10 10 0 0 0 14.1 14 10 10 0 0 0-.1-14zm20.4-44.9a25.4 25.4 0 0 0-1.5 3.5 3.1 3.1 0 0 0 .3 2.2c1.4 2.4 1.2 3.2-1.4 5.8-1.6 1.7-3.2 2.4-5.2.7-1.6-1.3-5.5.4-6 2.4-.4 2.8-2.3 3-4.6 3s-4.2-.4-4.5-3.2c-.3-2-3.8-3.5-5.5-2.6-2.9 1.7-3.4 1.5-6.2-1.3-1.8-1.8-1.6-3.5-.2-5.4 1-1.5-.6-5.1-2.4-5.5-2.9-.6-3.3-1.2-3.3-4.6s.4-4 3.3-4.6c2.3-.5 3.8-4 2.5-5.9-1.5-2-1.3-3.3.9-5.5 2.4-2.4 3.4-2.5 5.6-1a4 4 0 0 0 6-2.1c.5-3 1.1-3.2 4.8-3.3 2.5 0 4 .8 4.4 3.4.2 2.3 3.6 3.7 5.5 2.3 2.4-1.6 3.2-1.4 5.7 1.1 2.1 2.2 2.3 3.3.7 5.5-1 1.4.1 5.2 1.7 5.6 3.9 1.1 4 1.5 3.9 6-.1 3-2.3 3.3-4.5 3.5zM272 145a8 8 0 0 0-11.3 0 8.2 8.2 0 0 0-.1 11.5 8.3 8.3 0 0 0 11.6-.1 8 8 0 0 0-.2-11.4z"/></svg>