<svg id="Layer_1" data-name="Layer 1" xmlns="http://www.w3.org/2000/svg" viewBox="0 0 250 250"><defs><style>.cls-1{fill:#313333}.cls-2,.cls-4{fill:none;stroke-miterlimit:10}.cls-2{stroke:#f89537;stroke-width:3px}.cls-3{fill:#626364}.cls-4{stroke:#f79537;stroke-width:4px}</style></defs><title>new icons</title><path class="cls-1" d="M20 121.3c3.9 0 3.9-6 0-6s-3.9 6 0 6zm0 12.7c3.9 0 3.9-6 0-6s-3.9 6 0 6zm0 12.6c3.9 0 3.9-6 0-6s-3.9 6 0 6z"/><path class="cls-2" d="M58.2 124.6H40.4v-6.4H25M57.5 137h-17v6.4H25m32.5-12.8l-32.5.1"/><path class="cls-3" d="M189.1 160a5 5 0 0 1-.3-2 1.8 1.8 0 0 1-.5.2 8.4 8.4 0 0 1-2.7 0 1.3 1.3 0 0 1-.9-.5 4.5 4.5 0 0 0-1.2-1.1 4 4 0 0 1-.4.3 5.2 5.2 0 0 1 0 3.3 16.5 16.5 0 0 1 1 1.8l1.6.1h4a5 5 0 0 1-.6-2z"/><path class="cls-1" d="M224.6 122.9c0 .5 0 .7-.3 1a4.8 4.8 0 0 1 .5 1.6v.6a4.1 4.1 0 0 1 2 1 4.9 4.9 0 0 1 2 1.7 42.5 42.5 0 0 0-1.3-11.2 32.6 32.6 0 0 0-37.1-24.3c-3.3.5-4 0-5-3.1a45.2 45.2 0 0 0-6-12.8A27.6 27.6 0 0 0 160.9 65a42.7 42.7 0 0 0-15 .3 16.6 16.6 0 0 0-11 7 48.6 48.6 0 0 0-4.4 8 4.5 4.5 0 0 1-4.5 3.1 39.8 39.8 0 0 0-4.5.3 34.7 34.7 0 0 0-25.6 15 6.9 6.9 0 0 1-7.1 3 25.2 25.2 0 0 0-9.3.5A28 28 0 0 0 57.6 125c-.4 1.6-.6 3.2-.8 4.7v4.6l.7 4.4a27.8 27.8 0 0 0 27.9 23.6h32l24.9-.1a4.5 4.5 0 0 1 .4-1 4.2 4.2 0 0 1 1.5-1.5l.2-1.1a4.6 4.6 0 0 1-.7-.1 4.3 4.3 0 0 1-.7-.2h-11.6v.2h-31.1l-16-.2A23.5 23.5 0 0 1 62 140.8a28.6 28.6 0 0 1 3.6-25.1 22.8 22.8 0 0 1 17.8-10 41.5 41.5 0 0 1 6 0c4 .3 7-1.3 9.4-4.5a47.3 47.3 0 0 1 6-6.5 29 29 0 0 1 16.7-7c2-.2 4-.2 6-.5a7.1 7.1 0 0 0 6-4.4 66.8 66.8 0 0 1 3.7-7.1c2.4-4 6.2-6.1 10.8-6.7s9.3-.9 14 .3A24.5 24.5 0 0 1 177.5 82a83 83 0 0 1 4.4 10.4c1.1 3 3 4.9 6.3 5a25.3 25.3 0 0 0 4-.4 28.3 28.3 0 0 1 28.7 14.8 32.5 32.5 0 0 1 3.6 11.2z"/><path class="cls-4" d="M229.4 129.8c.7 1.9-.7 3-1.6 4.2-.6.8-.8 1.4-.2 2.2a2.5 2.5 0 0 1 .5 1c.4 2.2 1.6 3 3.8 3 1.7 0 2.6 1 2.5 2.8v4.1c0 2.2-.5 3-2.7 3-1.7 0-2.9.6-3.2 2.5a2 2 0 0 1-.3.9c-1.1 1.5-.7 2.7.4 4 1.5 2 1.4 2.6-.4 4.4l-2.6 2.6c-1.2 1.2-2.4 1.6-3.8.3-.7-.6-1.7-1.5-2.3-1.4a19.8 19.8 0 0 0-4.7 2c-.3 0-.3.8-.4 1.3-.4 3.5-.6 3.7-4.2 3.7h-3c-1.8 0-2.8-.8-3-2.7 0-.8-.1-2.1-.7-2.5a13.2 13.2 0 0 0-4.2-1.8c-.5 0-1.3.7-1.9 1.2-1.8 1.5-2.6 1.5-4.3-.2l-3-3c-1.3-1.3-1.4-2.4 0-3.8s1.6-2.5.6-4a3.4 3.4 0 0 1-.6-1.4c-.2-1.3-1-1.5-2-1.7-3.7-.3-3.8-.5-3.8-4v-1.2c0-3.3-.7-4.9 4.3-5.2.5 0 1-.6 1.3-1s.3-1 .6-1.4c1.1-1.8 1.2-3.3-.6-4.8-1.2-1.1-1.2-2.5.2-3.8l3.3-3.3c1-1.1 2.4-1.1 3.6 0a4.8 4.8 0 0 0 6.6 0 3 3 0 0 0 .6-1.8c.4-3.4.8-3.9 4.2-3.9h.8c4.6 0 4.6 0 5.5 4.7 0 .5.7.9 1 1.2s1 .3 1.3.5a2.9 2.9 0 0 0 4.2-.5 3 3 0 0 1 3.4-1zm-26.4 9.4a9 9 0 0 0 0 12.7 9 9 0 1 0 12.8-12.8 9 9 0 0 0-12.8.1zm-55.6 36.6a12.3 12.3 0 0 1 .8-3c1-2-.6-5.1-2.9-5.1-1.8 0-2.9-.8-3-2.7l-.2-2.4c-.1-2.2.3-2.8 2.4-3.3a3.7 3.7 0 0 0 1.7-6c-1.1-1.2-1.3-2.3-.1-3.6l1.2-1.6c2-2.3 2.3-2.3 4.9-.7 1.7 1 4.8-.7 4.9-2.7 0-2.5.6-3 3.2-3.3l1.8-.2c2.2-.1 2.8.4 3.3 2.5a3.2 3.2 0 0 0 5.4 1.7c1.7-1.5 2.7-1.4 4.4.1l1.4 1.3c1.5 1.1 1.8 2.3.7 4-1.4 2 .4 5.2 3 5.2 1.7 0 2.6.9 2.7 2.6v.6c.6 4.3.5 4.4-3.7 5.5a9.2 9.2 0 0 1-.4 1.6c-.7 1.7-1 3.3.7 4.7a.9.9 0 0 1 .3.4c.6 2.6-1.7 3.6-2.9 5.1a2 2 0 0 1-3 .3c-1.3-1.1-2.3-.7-3.7 0s-2.4 1.2-2 3a1.3 1.3 0 0 1-.2.7c-1.2 2.7-3.7 1.5-5.6 2a2 2 0 0 1-2.4-2c-.1-1.8-1.2-2.2-2.6-2.6s-2.4-.5-3.4.7-2.3 1-3.5 0a8.6 8.6 0 0 0-1.4-1zm20.5-19a7.4 7.4 0 0 0-10.4 0 7.4 7.4 0 0 0 10.5 10.5 7.4 7.4 0 0 0 0-10.5zm15.2-33.3a18.9 18.9 0 0 0-1.1 2.6 2.3 2.3 0 0 0 .2 1.6c1 1.8 1 2.4-1 4.3-1.2 1.3-2.3 1.8-3.9.5-1.1-1-4 .3-4.4 1.8-.3 2-1.7 2.3-3.4 2.3s-3.1-.4-3.4-2.4c-.2-1.5-2.8-2.6-4-2-2.2 1.3-2.6 1.1-4.7-1-1.3-1.3-1.1-2.5-.1-4 .8-1-.4-3.7-1.8-4-2.1-.4-2.5-.8-2.4-3.4s.3-3 2.4-3.4c1.7-.4 2.8-3 1.8-4.4s-.9-2.5.7-4c1.8-1.8 2.6-2 4.2-.8a2.9 2.9 0 0 0 4.4-1.6c.4-2.1.9-2.4 3.6-2.4 2 0 3 .5 3.2 2.5.2 1.7 2.7 2.7 4.1 1.7 1.8-1.2 2.5-1 4.3.8 1.6 1.6 1.7 2.5.5 4.1-.7 1 .1 3.9 1.3 4.2 2.9.8 3 1.1 2.9 4.4-.1 2.2-1.8 2.4-3.4 2.6zm-9.1-7.8a6 6 0 0 0-8.4 0 6.1 6.1 0 0 0 0 8.6 6.2 6.2 0 0 0 8.5-.1 6 6 0 0 0-.1-8.5z"/></svg>