<svg id="Layer_1" data-name="Layer 1" xmlns="http://www.w3.org/2000/svg" viewBox="0 0 88 83"><defs><style>.cls-1{fill:#f04f23}</style></defs><title>career icon send</title><path class="cls-1" d="M87 16a37 37 0 0 1-3 3.8l-9.7 9.8a4.9 4.9 0 0 0-1.2 3V76c0 4.4-1.4 5.7-5.8 5.7H6.6c-4.1 0-5.6-1.4-5.6-5.5v-61c0-4 1.4-5.6 5.4-5.6h54.8a3.8 3.8 0 0 0 3.1-1.3l5.1-5.1a5.5 5.5 0 0 1 8.3 0c2.5 2.4 5 4.9 7.3 7.4a18.7 18.7 0 0 1 2 2.9zm-26.7-3.4a8.2 8.2 0 0 0-1-.2H5.9c-2 0-2.2 1-2.2 2.6v61.3c0 2.5.1 2.7 2.7 2.7h61.3c2.4 0 2.6-.2 2.6-2.5V34l-.6-.2a13.5 13.5 0 0 1-1.1 1.5L44 60a4.5 4.5 0 0 1-2.3 1.3L27.4 63c-1.8.2-2.3-.3-2.1-2 .5-3.8 1.2-7.5 1.4-11.3.1-3.2 1.6-5.4 3.8-7.6C38.9 34 47 25.6 55.3 17.3l5-4.7zM31.8 45l1.7.3c2.2.5 4 .1 5.5-1.8a44 44 0 0 1 4.3-4.4c.8-.7 1.6-2 2.7-.8s-.1 2-.9 2.8c-1.8 1.9-3.8 3.7-5.5 5.6a11.4 11.4 0 0 0-1.3 2.8c.9 0 1.2.1 1.5.2 2.6 0 2.7.2 3 2.7l.4 3.7 24-23.8L56 21zm26.5-26.7L70 30.1a8.1 8.1 0 0 0 1.2-2.1c.2-1 2-3.9 3-3.7 1.7.3 2.3-.8 2.8-1.4L65.5 11.2zm9.6-9.8l12 12 3.4-3.7a2.7 2.7 0 0 0 0-4L75.5 5a2.6 2.6 0 0 0-3.9 0l-3.8 3.5zm-38 39.2c-.7 3.6-2 7.1 2 9.7.5.3.9 1 1.4 1.3a2 2 0 0 0 1.1.5c2 0 4-.3 6.2-.5l-.7-6.3c-3.4-.3-3.4-.3-4.2-4.1z"/><path class="cls-1" d="M12.1 20.7v50a21 21 0 0 1 3.7 0c.6.2 1.2.9 1.7 1.3-.5.5-1.1 1-1.8 1.4h-.4c-5.6.1-6-.2-6-5.9V22.2c0-3.5.8-4.2 4.3-4.2h32.1a5.4 5.4 0 0 1 2 .1 1.5 1.5 0 0 1 .8 1.2 2 2 0 0 1-1 1.3 3.5 3.5 0 0 1-1.5 0H12zm49.9 50V60.2l.1-12.6c0-.6.9-1.2 1.3-1.7.5.5 1.3 1 1.3 1.6v23a3.4 3.4 0 0 1-2 2.6 15.5 15.5 0 0 1-5 .2c-.5 0-1-1-1-1.4a1.7 1.7 0 0 1 1.1-1.2 35.5 35.5 0 0 1 4.3 0zm-26.3-.2c0-.4-.2-1 0-1.3.3-.5.8-1.2 1.3-1.2a1.8 1.8 0 0 1 1.3 1 4.5 4.5 0 0 1 0 2.6c-.1.6-.8 1.2-1.3 1.7a22.4 22.4 0 0 1-1.3-1.8v-1zm16.5.2c0 .5.2 1 0 1.4a2.4 2.4 0 0 1-1.2 1.2 1.6 1.6 0 0 1-1.3-.9 11.9 11.9 0 0 1 0-3.5A1.6 1.6 0 0 1 51 68a2.2 2.2 0 0 1 1.3 1.2 3.7 3.7 0 0 1 0 1.5zm-30.3-.1c0-.4-.2-.9 0-1.2A10.4 10.4 0 0 1 23 68c.4.5 1.1 1 1.3 1.5a3.8 3.8 0 0 1 0 2.3c-.1.7-.8 1.1-1.3 1.7a12.9 12.9 0 0 1-1.3-1.7v-1.1zm9.5 0a3.8 3.8 0 0 1 0 1.5c-.3.5-.8 1.2-1.2 1.2s-1.2-.7-1.3-1.2a4.7 4.7 0 0 1 0-2.5c.2-.6.9-1.1 1.4-1.7a17.3 17.3 0 0 1 1.2 1.7v1zm11.3-.1v-1.3c.1-.3.8-1.2 1.2-1.2a1.8 1.8 0 0 1 1.3 1.1 5.2 5.2 0 0 1 0 2.5c-.2.7-.8 1.2-1.2 1.7a12.8 12.8 0 0 1-1.3-1.6c-.2-.3 0-.8 0-1.2zM49 36.6c-.3-.1-1-.3-1-.6a2 2 0 0 1 .1-1.6 40.6 40.6 0 0 1 4-4 1.9 1.9 0 0 1 1.6 0A1.6 1.6 0 0 1 54 32l-4.4 4.5-.7.1zm13.4-17.4c-.3-.7-1-1.6-.7-2a9.6 9.6 0 0 1 2.5-2.6c.8-.6 2.2.4 1.8 1.2a23 23 0 0 1-2.8 3.5zM68 24l-1-.4c-.1-.6-.4-1.5 0-2 1.2-2 3-2.8 3.6-1.9A2.8 2.8 0 0 1 70 22a11.5 11.5 0 0 1-2.1 2z"/></svg>