<svg id="Layer_1" data-name="Layer 1" xmlns="http://www.w3.org/2000/svg" viewBox="0 0 103 139"><defs><style>.cls-1,.cls-3{fill:#273274}.cls-2{fill:#fff}.cls-3{stroke:#273274;stroke-miterlimit:10;stroke-width:2px}</style></defs><title>doc icons</title><rect class="cls-1" x="3.3" y="4" width="96.7" height="131" rx="2.4" ry="2.4"/><path class="cls-2" d="M14.8 32.7v-4h73v4zm0 10.2v-4h44.4v4zm0-20.3v-4.1h73v4zM3 68.8h87v44.6H3.4L3 68.8z"/><path class="cls-3" d="M25 80a11.8 11.8 0 0 1 4.1 4.8 16 16 0 0 1 0 13.5A11.9 11.9 0 0 1 25 103a10.7 10.7 0 0 1-5.9 1.7h-9V78.2h9.1A10.5 10.5 0 0 1 25 80zm-1.6 20.2a8.8 8.8 0 0 0 3-3.6 12.2 12.2 0 0 0 0-10.1 9 9 0 0 0-3-3.6 7.5 7.5 0 0 0-4.4-1.4h-6v20h6.1a7.4 7.4 0 0 0 4.3-1.3zm29.8-20.4a12.4 12.4 0 0 1 4.2 4.8 14.8 14.8 0 0 1 1.6 6.9 15 15 0 0 1-1.6 6.8 12.5 12.5 0 0 1-4.2 4.9 10.7 10.7 0 0 1-11.9 0 12.5 12.5 0 0 1-4.2-5 15 15 0 0 1-1.6-6.8 14.8 14.8 0 0 1 1.6-6.8 12.5 12.5 0 0 1 4.2-4.8 10.8 10.8 0 0 1 11.9 0zM43 82.6a9.7 9.7 0 0 0-3.2 3.7 11.2 11.2 0 0 0-1.2 5.1 11.3 11.3 0 0 0 1.2 5.2 9.8 9.8 0 0 0 3.2 3.7 7.5 7.5 0 0 0 4.3 1.4 7.3 7.3 0 0 0 4.3-1.4 9.8 9.8 0 0 0 3.1-3.7 11.4 11.4 0 0 0 1.2-5.2 11.3 11.3 0 0 0-1.1-5 9.6 9.6 0 0 0-3.2-3.8 7.4 7.4 0 0 0-4.3-1.3 7.5 7.5 0 0 0-4.3 1.3zm36.2-.5a7.4 7.4 0 0 0-3.5-.9 7.5 7.5 0 0 0-4.3 1.4 9.4 9.4 0 0 0-3.2 3.7 12 12 0 0 0 0 10.2 9.4 9.4 0 0 0 3.2 3.7 7.5 7.5 0 0 0 4.3 1.4 7.6 7.6 0 0 0 3.5-.9 10 10 0 0 0 3-2.3l1.8 2.4a12.5 12.5 0 0 1-4 3 10 10 0 0 1-4.5 1.2 10.2 10.2 0 0 1-5.8-1.8 12.4 12.4 0 0 1-4.2-4.9 15.3 15.3 0 0 1-1.5-6.8 15 15 0 0 1 1.6-6.8 12.4 12.4 0 0 1 4.2-5 10.5 10.5 0 0 1 10.4-.7 11.2 11.2 0 0 1 3.8 3l-1.8 2.6a9.4 9.4 0 0 0-3-2.5z"/></svg>