<svg id="Layer_1" data-name="Layer 1" xmlns="http://www.w3.org/2000/svg" viewBox="0 0 104 141"><defs><style>.cls-1,.cls-3{fill:#ff4b05}.cls-2{fill:#fff}.cls-3{stroke:#ff4b05;stroke-miterlimit:10;stroke-width:.5px}</style></defs><title>doc</title><path class="cls-1" d="M6.2 5H98a2.4 2.4 0 0 1 2.3 2.4v126.2A2.4 2.4 0 0 1 98 136H6a2.4 2.4 0 0 1-2.3-2.4V7.4A2.4 2.4 0 0 1 6.2 5z"/><path class="cls-2" d="M15.3 50.7v-4h73v4zm0 10.2v-4h44.4v4zm0-20.4v-4h73v4zM3.6 83.7h72.2l-12.3 30.8H3.8l-.2-30.8z"/><path class="cls-3" d="M20.8 91.3a7.8 7.8 0 0 1 2.9 3 9.6 9.6 0 0 1 0 8.8 7.8 7.8 0 0 1-7 4.1h-6.3v-17h6.3a7.7 7.7 0 0 1 4 1zm-1.1 13a5.8 5.8 0 0 0 2-2.3 7.3 7.3 0 0 0 0-6.5 6 6 0 0 0-2-2.3 5.5 5.5 0 0 0-3-.9h-4.2v12.8h4.3a5.4 5.4 0 0 0 2.9-.8zM39 91.2a8.2 8.2 0 0 1 3 3 9 9 0 0 1 1 4.5 9.1 9.1 0 0 1-1 4.4 8.3 8.3 0 0 1-3 3.1 7.9 7.9 0 0 1-8.3 0 8.3 8.3 0 0 1-3-3.1 9.1 9.1 0 0 1-1-4.4 9 9 0 0 1 1-4.4 8.2 8.2 0 0 1 3-3.1 8 8 0 0 1 8.2 0zM32 93a6.4 6.4 0 0 0-2.3 2.4 6.8 6.8 0 0 0-.8 3.3 6.8 6.8 0 0 0 .8 3.3 6.4 6.4 0 0 0 2.2 2.4 5.5 5.5 0 0 0 3 .9 5.3 5.3 0 0 0 3-1 6.4 6.4 0 0 0 2.2-2.3 6.9 6.9 0 0 0 .8-3.3 6.8 6.8 0 0 0-.8-3.3 6.3 6.3 0 0 0-2.2-2.4 5.4 5.4 0 0 0-3-.9 5.5 5.5 0 0 0-3 .9zm23.6-.3a5.5 5.5 0 0 0-5.4.3 6.2 6.2 0 0 0-2.2 2.3 7.2 7.2 0 0 0 0 6.6 6.2 6.2 0 0 0 2.2 2.4 5.5 5.5 0 0 0 3 .9 5.6 5.6 0 0 0 2.4-.6 7 7 0 0 0 2-1.4l1.4 1.5a8.6 8.6 0 0 1-2.7 2 7.5 7.5 0 0 1-7.2-.5 8.2 8.2 0 0 1-3-3.1 9.2 9.2 0 0 1-1-4.4 9 9 0 0 1 1-4.4 8.2 8.2 0 0 1 3-3.1 7.8 7.8 0 0 1 9.9 1.4l-1.3 1.7a6.4 6.4 0 0 0-2-1.6z"/></svg>