<svg id="Layer_1" data-name="Layer 1" xmlns="http://www.w3.org/2000/svg" viewBox="0 0 104 141"><defs><style>.cls-1,.cls-3{fill:#ff4b05}.cls-2{fill:#fff}.cls-3{stroke:#ff4b05;stroke-miterlimit:10;stroke-width:2px}</style></defs><title>doc icons</title><path class="cls-1" d="M6.2 5H98a2.4 2.4 0 0 1 2.3 2.4v126.2A2.4 2.4 0 0 1 98 136H6a2.4 2.4 0 0 1-2.3-2.4V7.4A2.4 2.4 0 0 1 6.2 5z"/><path class="cls-2" d="M15.3 33.7v-4h73v4zm0 10.2v-4h44.4v4zm0-20.3v-4.1h73v4zM3.6 69.8h86.9v44.6H3.9l-.3-44.6z"/><path class="cls-3" d="M25.4 81a11.8 11.8 0 0 1 4.2 4.8 16 16 0 0 1 0 13.5 11.9 11.9 0 0 1-4.2 4.7 10.7 10.7 0 0 1-6 1.7h-9V79.2h9.2a10.5 10.5 0 0 1 5.8 1.8zM24 101.2a8.8 8.8 0 0 0 3-3.6 12.2 12.2 0 0 0 0-10.1 9 9 0 0 0-3-3.6 7.5 7.5 0 0 0-4.3-1.3h-6v19.9h6a7.4 7.4 0 0 0 4.3-1.3zm29.7-20.4a12.4 12.4 0 0 1 4.3 4.9 14.8 14.8 0 0 1 1.6 6.8 15 15 0 0 1-1.6 6.8 12.5 12.5 0 0 1-4.3 4.9 10.7 10.7 0 0 1-11.8 0 12.5 12.5 0 0 1-4.3-5 15 15 0 0 1-1.6-6.8 14.8 14.8 0 0 1 1.6-6.8 12.5 12.5 0 0 1 4.2-4.8 10.8 10.8 0 0 1 11.9 0zm-10.2 2.8a9.7 9.7 0 0 0-3.2 3.7 11.2 11.2 0 0 0-1.2 5.1 11.3 11.3 0 0 0 1.2 5.2 9.8 9.8 0 0 0 3.2 3.7 7.5 7.5 0 0 0 4.3 1.4 7.3 7.3 0 0 0 4.3-1.4 9.8 9.8 0 0 0 3.1-3.7 11.4 11.4 0 0 0 1.2-5.2 11.3 11.3 0 0 0-1.2-5 9.6 9.6 0 0 0-3.1-3.8 7.4 7.4 0 0 0-4.3-1.3 7.5 7.5 0 0 0-4.3 1.3zm36.2-.5a7.4 7.4 0 0 0-3.5-.9 7.5 7.5 0 0 0-4.3 1.4 9.4 9.4 0 0 0-3.2 3.7 12 12 0 0 0 0 10.2 9.4 9.4 0 0 0 3.2 3.7 7.5 7.5 0 0 0 4.3 1.4 7.6 7.6 0 0 0 3.5-.9 10 10 0 0 0 3-2.3l1.8 2.4a12.5 12.5 0 0 1-4 3A10 10 0 0 1 76 106a10.2 10.2 0 0 1-5.8-1.8 12.4 12.4 0 0 1-4.2-4.9 15.3 15.3 0 0 1-1.5-6.8 15 15 0 0 1 1.5-6.8 12.4 12.4 0 0 1 4.2-5 10.5 10.5 0 0 1 10.5-.7 11.2 11.2 0 0 1 3.8 3l-1.9 2.6a9.4 9.4 0 0 0-3-2.5z"/></svg>