<svg id="Layer_1" data-name="Layer 1" xmlns="http://www.w3.org/2000/svg" viewBox="0 0 150 150"><defs><style>.cls-1{fill:#fff}.cls-2{fill:#273274}</style></defs><title>doc icons</title><circle class="cls-1" cx="75" cy="75" r="75"/><path class="cls-2" d="M52.5 43.5h36l11 10a2.9 2.9 0 0 1 1.2 2.4v45.6c0 2.4-.9 4.1-3.1 5H52.5c-2.3-1-3.1-2.6-3.1-5v-53c0-2.4.8-4 3-5zm.8 59h43.3V57.2H85.8v-9.7H53.3zm40.2-49.2L89.8 50v3.3z"/><path class="cls-2" d="M57.4 66v-3.7h35.2v3.8zm24.4 4.2V74H57.4v-3.8zM60.4 96.4V85l5.6.4a2.1 2.1 0 0 1 .7.2c2.2 1 3.2 3.7 2.6 7a4.5 4.5 0 0 1-4.4 4h-4.5zm2.3-2.2c2.9.5 4.2-.5 4.2-3.2a7 7 0 0 0-.1-1.8 2.7 2.7 0 0 0-3.4-2.1c-.3 0-.7.4-.7.7v6.4zm7.3-3.4c0-2.3.5-4.4 2.7-5.5a4.7 4.7 0 0 1 7 3.4 10.2 10.2 0 0 1 0 3.6c-.4 3-2.3 4.6-5.2 4.4-2.6-.2-4.3-2.1-4.4-5v-1zm7.5 0a21 21 0 0 0-.4-2.2 2 2 0 0 0-2.1-1.7 2 2 0 0 0-2.2 1.7 17.6 17.6 0 0 0 0 4.3 1.9 1.9 0 0 0 2 1.6 2 2 0 0 0 2.3-1.6l.4-2.1zm9.8-2.2c-.6-1.1-1.3-2-2.6-1.6a2.6 2.6 0 0 0-1.6 2.7 11.7 11.7 0 0 0 .3 3.4 2 2 0 0 0 3.3 1c1.1-1 1.1-1 3-.5a4.3 4.3 0 0 1-3 2.9 4.5 4.5 0 0 1-5-1.5 8.3 8.3 0 0 1 0-8.5 4.4 4.4 0 0 1 4.5-1.5 3.5 3.5 0 0 1 3.1 3z"/></svg>