<svg id="Layer_1" data-name="Layer 1" xmlns="http://www.w3.org/2000/svg" viewBox="0 0 150 150"><defs><style>.cls-1{fill:#fff}</style></defs><title>doc icons</title><path class="cls-1" d="M31 14h70.5L123 33.5a5.6 5.6 0 0 1 2 4.5v89c0 4.8-1.6 8-6 9.9H31c-4.5-1.8-6-5.1-6-9.9q.2-51.6 0-103.3c0-4.7 1.5-8 6-9.8zm1.7 115.1h84.5V40.8H96v-19H32.8zm78.4-96l-7.2-6.4V33z"/><path class="cls-1" d="M40.6 58v-7.3h68.8V58zm47.7 8v7.4H40.6v-7.3zm-41.9 51.4V94.9l11.1.7a4.2 4.2 0 0 1 1.3.5c4.2 1.9 6.2 7.1 5 13.5a8.9 8.9 0 0 1-8.6 7.7c-2.9.2-5.8 0-8.8 0zM51 113c5.6 1 8.2-1.1 8.3-6.3a13.6 13.6 0 0 0-.3-3.5 5.3 5.3 0 0 0-6.7-4.2c-.5.1-1.2.9-1.2 1.3L51 113zm14.4-6.7c0-4.4.7-8.5 5.2-10.6a9.2 9.2 0 0 1 13.5 6.5 20 20 0 0 1 .2 7c-1 6-4.7 9-10.3 8.5-5-.3-8.3-4-8.6-9.8v-1.6zm14.5 0a40.9 40.9 0 0 0-.7-4.3 4 4 0 0 0-4.2-3.2c-2.4 0-4 1.1-4.3 3.3a34.3 34.3 0 0 0 0 8.3c.2 2.1 1.9 3.2 4 3.2a4 4 0 0 0 4.5-3.3l.7-4zM99 102c-1.2-2.1-2.5-3.9-5-3s-3 3-3.2 5.3a22.8 22.8 0 0 0 .6 6.7 3.8 3.8 0 0 0 6.4 1.7c2.3-2 2.3-2 5.9-.9-1.1 2.9-2.8 5-6 5.7-3.8 1-7.5-.1-9.5-2.9-3-4-3.1-12.4 0-16.5 2.1-3 5.3-3.6 8.7-3.1s5.4 2.3 6.2 6z"/></svg>