<svg id="Layer_1" data-name="Layer 1" xmlns="http://www.w3.org/2000/svg" viewBox="0 0 96 129.23"><defs><style>.cls-1{fill:#fff}</style></defs><title>doc icons</title><path class="cls-1" d="M92.2 1.6H3.8A2.3 2.3 0 0 0 1.5 4v60H85v42.9H1.6v18.5a2.3 2.3 0 0 0 2.2 2.3h88.4a2.3 2.3 0 0 0 2.3-2.3V4a2.3 2.3 0 0 0-2.3-2.3zM55.3 39H12.6v-3.9h42.7zM83 29.2H12.6v-3.9h70.3zm0-9.8H12.6v-3.8h70.3z"/><path class="cls-1" d="M22.4 74.7a11.3 11.3 0 0 1 4 4.5 15.4 15.4 0 0 1 0 13 11.4 11.4 0 0 1-4 4.6 10.3 10.3 0 0 1-5.7 1.7H8V73h8.7a10.1 10.1 0 0 1 5.7 1.7zM20.8 94a8.5 8.5 0 0 0 3-3.4 11.8 11.8 0 0 0 0-9.8 8.7 8.7 0 0 0-3-3.5 7.2 7.2 0 0 0-4.1-1.2h-5.8v19.1h5.9a7.1 7.1 0 0 0 4-1.2zm28.7-19.5a12 12 0 0 1 4.1 4.7 14.3 14.3 0 0 1 1.5 6.5 14.5 14.5 0 0 1-1.5 6.6 12 12 0 0 1-4 4.7A10.2 10.2 0 0 1 38 97a12 12 0 0 1-4.1-4.7 14.5 14.5 0 0 1-1.5-6.6 14.3 14.3 0 0 1 1.5-6.5 12 12 0 0 1 4-4.7 10.4 10.4 0 0 1 11.5 0zm-9.8 2.7a9.3 9.3 0 0 0-3 3.6 10.8 10.8 0 0 0-1.2 5 10.9 10.9 0 0 0 1.2 5 9.4 9.4 0 0 0 3 3.5 7.2 7.2 0 0 0 4.2 1.3 7 7 0 0 0 4.1-1.3 9.4 9.4 0 0 0 3-3.6 11 11 0 0 0 1.1-5 10.9 10.9 0 0 0-1.1-5 9.3 9.3 0 0 0-3-3.5 7 7 0 0 0-4.1-1.3 7.2 7.2 0 0 0-4.2 1.3zm34.8-.4a7.1 7.1 0 0 0-3.3-1 7.2 7.2 0 0 0-4.2 1.4 9 9 0 0 0-3 3.5 11.5 11.5 0 0 0 0 9.9 9 9 0 0 0 3 3.6 7.2 7.2 0 0 0 4.2 1.3 7.3 7.3 0 0 0 3.3-.8 9.7 9.7 0 0 0 2.9-2.3l1.8 2.3a12 12 0 0 1-3.8 3 9.7 9.7 0 0 1-4.4 1 9.8 9.8 0 0 1-5.6-1.7 12 12 0 0 1-4-4.7 14.7 14.7 0 0 1-1.5-6.6 14.4 14.4 0 0 1 1.5-6.6 11.9 11.9 0 0 1 4.1-4.6 10.1 10.1 0 0 1 10-.7 10.8 10.8 0 0 1 3.6 2.8L77.4 79a9 9 0 0 0-2.9-2.3z"/></svg>