<svg id="Layer_1" data-name="Layer 1" xmlns="http://www.w3.org/2000/svg" viewBox="0 0 58.33 58.33"><defs><style>.cls-1{fill:none}.cls-1,.cls-2,.cls-3,.cls-4{stroke:#f1592e;stroke-miterlimit:10}.cls-2,.cls-4{fill:#f1592e}.cls-2{stroke-width:.75px}.cls-3{fill:#fff}</style></defs><title>elements</title><path class="cls-1" d="M55.5 23.5a8.5 8.5 0 0 0-5.3-.3c-.6 0-.9.1-1-.7a9.2 9.2 0 0 0-2.8-5c-.8-.8-1.2-.6-1.6.3a8.5 8.5 0 0 0 .3 8c.4.6.3.9-.3 1.2a12.6 12.6 0 0 1-6 1.5H3.3c-.8 0-1.1.2-1.2 1.2a16.1 16.1 0 0 0 10.5 16.4 25.6 25.6 0 0 0 12.7.8c10.3-1.5 17.9-7 22.2-17.2a1.9 1.9 0 0 1 2-1.4 7.2 7.2 0 0 0 6.4-3.3c.5-.8.5-1.1-.4-1.5zM16.1 35.8a1.3 1.3 0 0 1 1.4-1.3c.8 0 1.3.5 1.3 1.6a1.2 1.2 0 0 1-1.4 1.2 1.3 1.3 0 0 1-1.3-1.5zM7 40a32 32 0 0 0 8.4-.8.5.5 0 0 1 .7.2 13.7 13.7 0 0 0 5.6 5.8c-5.5.4-10.5-.8-14.7-5.2z"/><path class="cls-2" d="M30.9 13.4h1.3l1.5.1a5 5 0 0 1 2 .8 1 1 0 0 1 .5.8l.1 7.7a1 1 0 0 1-.2.5 2 2 0 0 1-.6.5 6 6 0 0 1-2 .6l-1.2.2H31l-1.5-.2a5 5 0 0 1-2-.7 1.1 1.1 0 0 1-.5-1l-.1-7.5a1 1 0 0 1 .2-.6 2 2 0 0 1 .6-.4 6 6 0 0 1 2-.7zm-3.5 5.1v1.7a.6.6 0 0 0 .3.6 5 5 0 0 0 1 .4 11.6 11.6 0 0 0 5.3 0 3.6 3.6 0 0 0 1.5-.5.7.7 0 0 0 .3-.4v-1.9a9.8 9.8 0 0 1-8.4.1zm0 2.6v1.6a.7.7 0 0 0 .4.7 4.2 4.2 0 0 0 .8.4 11.3 11.3 0 0 0 5.3 0 7.1 7.1 0 0 0 1.5-.5.7.7 0 0 0 .4-.4V21a8 8 0 0 1-4.2 1 8.1 8.1 0 0 1-4.2-.9zm0-5.1v1.6a.6.6 0 0 0 .3.7 5.8 5.8 0 0 0 1.2.4 11.5 11.5 0 0 0 5.2 0 7.4 7.4 0 0 0 1.4-.5.6.6 0 0 0 .3-.7v-1.6a10.4 10.4 0 0 1-8.4.1zm4.1-2.1h-1a7.4 7.4 0 0 0-2.3.5 2.6 2.6 0 0 0-.7.5.4.4 0 0 0 0 .6 2.7 2.7 0 0 0 .7.4 7 7 0 0 0 2.3.5 11.2 11.2 0 0 0 3.9-.4 4.5 4.5 0 0 0 1.2-.6c.3-.2.3-.5 0-.7a2.8 2.8 0 0 0-.8-.4 10 10 0 0 0-3.3-.5zm-20.1-.5h1.4l1.5.1a5 5 0 0 1 2 .8 1 1 0 0 1 .5.8v7.7a1 1 0 0 1-.1.5 2 2 0 0 1-.6.5 6 6 0 0 1-2 .6l-1.2.2h-1.3l-1.5-.2a5 5 0 0 1-2-.7 1.1 1.1 0 0 1-.5-1l-.1-7.5a1 1 0 0 1 .2-.6 2 2 0 0 1 .6-.4 6 6 0 0 1 2-.7zM8 18.5v1.7a.6.6 0 0 0 .3.6 5 5 0 0 0 1 .4 11.6 11.6 0 0 0 5.3 0 3.6 3.6 0 0 0 1.5-.5.7.7 0 0 0 .3-.4v-1.9a9.8 9.8 0 0 1-8.4.1zm0 2.6v1.6a.7.7 0 0 0 .4.7 4.2 4.2 0 0 0 .8.4 11.3 11.3 0 0 0 5.3 0 7.1 7.1 0 0 0 1.5-.5.7.7 0 0 0 .4-.5V21a8 8 0 0 1-4.2 1 8.1 8.1 0 0 1-4.2-.9zM8 16v1.6a.6.6 0 0 0 .3.7 5.8 5.8 0 0 0 1.1.4 11.5 11.5 0 0 0 5.2 0 7.4 7.4 0 0 0 1.4-.5.6.6 0 0 0 .4-.7v-1.6a10.4 10.4 0 0 1-8.5.1zm4.1-2.1h-1a7.4 7.4 0 0 0-2.4.5 2.6 2.6 0 0 0-.6.5.4.4 0 0 0 0 .6 2.7 2.7 0 0 0 .7.4 7 7 0 0 0 2.3.5A11.2 11.2 0 0 0 15 16a4.5 4.5 0 0 0 1.2-.6c.3-.2.3-.5 0-.7a2.8 2.8 0 0 0-.7-.4 10 10 0 0 0-3.4-.5z"/><path class="cls-3" d="M15.5 13.5s1.4-2.5 6.3-2.1 6 2.1 6 2.1l-.3 10.6s-1.8 2.5-6.4 1.8-5.7-1.8-5.7-1.8z"/><path class="cls-4" d="M20.7 11h1.8c.7 0 1.4.2 2 .3a6.7 6.7 0 0 1 2.8 1 1.4 1.4 0 0 1 .7 1v10.5a1.4 1.4 0 0 1-.3.8 2.6 2.6 0 0 1-.8.6 8.1 8.1 0 0 1-2.7.8l-1.6.2h-1.9l-2-.3a6.8 6.8 0 0 1-2.7-1 1.5 1.5 0 0 1-.7-1.3V13.4a1.4 1.4 0 0 1 .3-.8 2.7 2.7 0 0 1 .8-.6 8 8 0 0 1 2.7-.8l1.6-.2zM16 18v2.2a.8.8 0 0 0 .4.8 6.8 6.8 0 0 0 1.4.6 15.8 15.8 0 0 0 7.2.2 4.8 4.8 0 0 0 2-.8 1 1 0 0 0 .4-.6V18A13.3 13.3 0 0 1 16 18zm0 3.4v2.2a1 1 0 0 0 .5 1 5.6 5.6 0 0 0 1.2.5 15.3 15.3 0 0 0 7.2.2 9.6 9.6 0 0 0 2-.7 1 1 0 0 0 .5-.6v-2.5a11 11 0 0 1-5.7 1.2 11 11 0 0 1-5.7-1.3zm0-7v2.3a.8.8 0 0 0 .5.8 7.8 7.8 0 0 0 1.5.6 15.5 15.5 0 0 0 7 .1 10 10 0 0 0 2-.7.8.8 0 0 0 .5-.9v-2.2c-2.4 1.6-8.6 1.9-11.5 0zm5.7-2.8h-1.4a10 10 0 0 0-3.2.7 3.5 3.5 0 0 0-.9.6.5.5 0 0 0 0 .9 3.7 3.7 0 0 0 1 .6 9.5 9.5 0 0 0 3.1.6 15.2 15.2 0 0 0 5.3-.4 6 6 0 0 0 1.6-.8c.4-.2.4-.7 0-1a3.8 3.8 0 0 0-1-.5 13.5 13.5 0 0 0-4.5-.7z"/></svg>