<svg id="Layer_1" data-name="Layer 1" xmlns="http://www.w3.org/2000/svg" viewBox="0 0 237 175"><defs><style>.cls-1,.cls-2{stroke:#fff;stroke-miterlimit:10}.cls-1{stroke-width:3px;fill:none}.cls-2{fill:#fff}</style></defs><title>new icons</title><path class="cls-1" d="M231.7 72.5a35 35 0 0 0-22-1.5c-2.5.6-3.8.8-4.3-2.8-1.3-8.3-6-14.7-11.6-20.5-3.1-3.3-4.9-2.5-6.5 1.1a35.2 35.2 0 0 0 1 33.3c1.6 2.8 1.3 3.7-1.2 5a52 52 0 0 1-24.8 6.4H16.1c-3.4 0-4.8.6-5 4.6-1.5 31.6 15 57.5 43.2 67.7a106 106 0 0 0 52.5 3.4 111.4 111.4 0 0 0 91.7-71.3c1.8-4.5 4-5.6 8.4-5.7 10.6-.2 20-3.7 26.4-13.7 1.9-3 1.7-4.5-1.6-6zM69 123.3c.1-3.5 2.3-5.7 5.7-5.5s5.2 2.3 5.2 6.6a5 5 0 0 1-5.7 5c-3.2-.3-5.4-2.6-5.3-6.1zm-38 17.4c12.4-.2 23.7-.4 34.7-3.5 1-.3 2.2-.3 2.8 1A56.4 56.4 0 0 0 91.8 162c-22.6 1.7-43-3.3-60.7-21.3z"/><path class="cls-2" d="M35 52.7v-12c1.4-1.3 2.6-3 4.2-3.8 5.7-2.7 12-3.2 18.2-2.9 2.9.2 5.8.8 8.7 1.2 0-3.2 1.9-5.1 4.4-6.5a28 28 0 0 1 5-2 59.3 59.3 0 0 1 24.4-1.8 38 38 0 0 1 12.6 3.3c3.2 1.6 5.6 3.6 5.4 7.6l.2.3a45.8 45.8 0 0 1 18.8-1.9c3.8.5 7.7 1 11.2 3.1a4.5 4.5 0 0 1 2.5 4c0 9.7.1 19.3.4 28.9 0 3.1-1.3 5-4 6.2a35 35 0 0 1-13.3 2.9 43.2 43.2 0 0 1-16-2.2c-1.3 3.5-4.3 5.1-7.4 6A70.4 70.4 0 0 1 99 85.8a55.2 55.2 0 0 1-25.2-2.4 13 13 0 0 1-7-5 2 2 0 0 0-1.6-.3c-5.5 1.3-11 2-16.5 1a64.9 64.9 0 0 1-10-2.7c-2.2-.8-3.2-2.8-3.1-5.2l-.1-16.5a10.9 10.9 0 0 0-.4-2zm79.3.7a54.8 54.8 0 0 1-44.7 0l.1 8.9a2.8 2.8 0 0 0 1.3 2 29 29 0 0 0 5.8 2.5 58.1 58.1 0 0 0 26.1 1 46.9 46.9 0 0 0 9-2.8 4 4 0 0 0 2.2-2.6 86.4 86.4 0 0 0 .2-9zm0 14.4a58 58 0 0 1-44.7 0v4.9c0 5.3.4 5.8 5.5 7.6l1 .3a54.8 54.8 0 0 0 18 2.1c6.1-.3 12.2-1 17.8-3.8 1.2-.6 2.3-1.4 2.3-3v-8.1zm-44.6-28c0 3-.2 5.8 0 8.5a3.2 3.2 0 0 0 1.6 2.2 29 29 0 0 0 6.5 2.6 67 67 0 0 0 11 1.6c8.1.4 16.1-.3 23.5-4a4 4 0 0 0 2-2.7 80.5 80.5 0 0 0 0-8.2 58 58 0 0 1-44.6 0zm20.6-12c-2 .2-5.8.5-9.6 1a20.2 20.2 0 0 0-9.8 3.7c-1.8 1.4-2 2.5 0 3.7a23.4 23.4 0 0 0 6 2.8 61.5 61.5 0 0 0 23.9 1.3 27.6 27.6 0 0 0 12-4c2-1.3 2.2-2.5.2-3.9a21.4 21.4 0 0 0-4.5-2.2c-5.3-2-10.9-2.3-18.2-2.4zm58.2 27.4c-16.3 4.9-16.8 4.4-30.7 1.5v5.2c0 2.7 0 2.8 2.7 3.5a42.6 42.6 0 0 0 19.5.5 37 37 0 0 0 7-2.4 3 3 0 0 0 1.4-2c.2-2 0-4.1 0-6.3zm.1 10.3a44.6 44.6 0 0 1-30.8 1.5v4.9c-.3 2.8-.3 2.8 2.5 3.6a41.9 41.9 0 0 0 15.2 1.4 27 27 0 0 0 11-2.9c.9-.4 2-1.3 2-2a52.4 52.4 0 0 0 .1-6.5zm-30.8-19v5.7c-.1 1.6.6 2.3 2 2.7a43.2 43.2 0 0 0 16.2 1.3 26.8 26.8 0 0 0 10.7-3c.6-.3 1.5-.8 1.5-1.3.2-2.3.1-4.6.1-7-10 4.3-20 4.3-30.5 1.6zM133 35.9c-4.3.6-8 1-11.5 1.7-3.8.7-3.7.9-3.7 4.7 0 1.3.3 2 1.5 2.2 3 .5 5.8 1.1 8.7 1.4 5.8.5 11.5.2 16.9-2.1 1.3-.6 2.3-1.9 3.4-2.8-1.2-1-2.3-2.4-3.7-2.8-4-1-8-1.6-11.6-2.3zm-77.9.2a82.9 82.9 0 0 0-9.3 1 30.8 30.8 0 0 0-7.3 2.9c-1.6.8-1.5 1.9 0 2.9a14.2 14.2 0 0 0 4 1.8 45.8 45.8 0 0 0 20.9.4c2.8-.6 2.8-.6 2.8-3.7a15.4 15.4 0 0 1 0-2 1.6 1.6 0 0 0-1.6-2c-3.2-.5-6.5-1-9.5-1.3zm11.1 20.7a40.3 40.3 0 0 1-28.5-1.4 33 33 0 0 1 0 4.4c-.4 2.7.8 4.2 3.3 5l1.5.6a45.4 45.4 0 0 0 22.5 0c.5-.1 1.2-.7 1.2-1v-7.6zM37.5 45.3a47.6 47.6 0 0 0 0 6.2 3.2 3.2 0 0 0 1.9 2.1 54 54 0 0 0 9.3 2.5 39.1 39.1 0 0 0 16-1.1c.6-.2 1.4-.8 1.4-1.2.2-2.3.1-4.6.1-7a45.6 45.6 0 0 1-28.7-1.5zm28.6 22.3a45 45 0 0 1-28.3-1.7v4.7c-.2 2.3.8 3.5 2.8 4.3a41 41 0 0 0 24.5.7 1.7 1.7 0 0 0 1-1.2v-6.9z"/></svg>