<svg id="Layer_1" data-name="Layer 1" xmlns="http://www.w3.org/2000/svg" viewBox="0 0 207 167"><defs><style>.cls-1{fill:none;stroke:#f69437}.cls-1,.cls-3{stroke-miterlimit:10;stroke-width:2px}.cls-2{fill:#fff}.cls-3,.cls-5{fill:#f69437}.cls-3{stroke:#313333}.cls-4{fill:#323232}</style></defs><title>ebs icon</title><rect class="cls-1" x="14.5" y="25" width="178" height="131" rx="12" ry="12"/><rect class="cls-2" x="57" y="14.5" width="93" height="20" rx="10" ry="10"/><path class="cls-3" d="M103.5 76v15m7.5-7.5H96"/><path class="cls-4" d="M44.8 123.3h8v1.9h-6v2.7h5.4v1.8h-5.3v2.8H53v1.8h-8.2zm18.1.7a2.4 2.4 0 0 1 1 2 2.4 2.4 0 0 1-2 2.5 2.8 2.8 0 0 1 1.8 1 2.8 2.8 0 0 1 .6 1.8 2.6 2.6 0 0 1-1.1 2.2 4.9 4.9 0 0 1-3 .8h-5v-11H60a4.6 4.6 0 0 1 2.8.8zm-1.6 3.4a1.2 1.2 0 0 0 .4-1 1.1 1.1 0 0 0-.5-1 2 2 0 0 0-1.2-.3h-2.7v2.7H60a2 2 0 0 0 1.2-.3zm.2 4.7a1.3 1.3 0 0 0 .6-1 1.2 1.2 0 0 0-.6-1.1 2.7 2.7 0 0 0-1.5-.4h-2.7v2.9H60a2.6 2.6 0 0 0 1.5-.4zm10-6.8a5.3 5.3 0 0 0-1.5-.2 2.2 2.2 0 0 0-1.2.2.9.9 0 0 0-.5.8 1 1 0 0 0 .3.8 2.4 2.4 0 0 0 .8.5 12 12 0 0 0 1.3.4 13.8 13.8 0 0 1 1.8.7 3.3 3.3 0 0 1 1.2 1 2.7 2.7 0 0 1 .5 1.7 2.9 2.9 0 0 1-.5 1.7 3.4 3.4 0 0 1-1.5 1.1 5.7 5.7 0 0 1-2.2.4 6.8 6.8 0 0 1-2.5-.5 7.1 7.1 0 0 1-2.2-1.3l1-1.8A6.5 6.5 0 0 0 68 132a5 5 0 0 0 2 .5 2.5 2.5 0 0 0 1.3-.3 1.1 1.1 0 0 0 .2-1.7 2.3 2.3 0 0 0-.8-.5l-1.3-.5a15.5 15.5 0 0 1-1.8-.6 3.2 3.2 0 0 1-1.2-1 2.6 2.6 0 0 1-.5-1.7 2.8 2.8 0 0 1 .5-1.6 3.3 3.3 0 0 1 1.5-1 5.5 5.5 0 0 1 2.2-.5 7.3 7.3 0 0 1 2 .4 7.2 7.2 0 0 1 2 .8l-1 1.8a8 8 0 0 0-1.7-.8zm61.3-2h8v1.9h-6v2.7h5.4v1.8h-5.3v2.8h6.1v1.8h-8.2zm18 .7a2.4 2.4 0 0 1 1 2 2.4 2.4 0 0 1-1.9 2.5 2.8 2.8 0 0 1 1.8 1 2.8 2.8 0 0 1 .6 1.8 2.6 2.6 0 0 1-1.1 2.2 4.9 4.9 0 0 1-3 .8h-5v-11h4.9a4.6 4.6 0 0 1 2.8.8zm-1.6 3.4a1.2 1.2 0 0 0 .5-1 1.1 1.1 0 0 0-.4-1 2 2 0 0 0-1.3-.3h-2.7v2.7h2.7a2 2 0 0 0 1.2-.3zm.3 4.7a1.3 1.3 0 0 0 .6-1 1.2 1.2 0 0 0-.6-1.1 2.7 2.7 0 0 0-1.5-.4h-2.7v2.9h2.7a2.6 2.6 0 0 0 1.5-.4zm10-6.8a5.3 5.3 0 0 0-1.6-.2 2.2 2.2 0 0 0-1.1.2.9.9 0 0 0-.5.8 1 1 0 0 0 .3.8 2.4 2.4 0 0 0 .8.5 12 12 0 0 0 1.3.4 13.8 13.8 0 0 1 1.8.7 3.3 3.3 0 0 1 1.2 1 2.7 2.7 0 0 1 .5 1.7 2.9 2.9 0 0 1-.5 1.7 3.4 3.4 0 0 1-1.5 1.2 5.7 5.7 0 0 1-2.2.4 6.8 6.8 0 0 1-2.5-.5 7.1 7.1 0 0 1-2.1-1.3l.8-1.8a6.5 6.5 0 0 0 2 1.2 5 5 0 0 0 1.8.5 2.5 2.5 0 0 0 1.4-.4 1.1 1.1 0 0 0 .2-1.7 2.3 2.3 0 0 0-.8-.5l-1.2-.4a15.5 15.5 0 0 1-1.9-.6 3.2 3.2 0 0 1-1.2-1 2.6 2.6 0 0 1-.5-1.7 2.8 2.8 0 0 1 .5-1.7 3.3 3.3 0 0 1 1.5-1 5.5 5.5 0 0 1 2.1-.5 7.3 7.3 0 0 1 2.2.3 7.2 7.2 0 0 1 1.8.9l-.8 1.8a8 8 0 0 0-1.8-.8z"/><path class="cls-5" d="M70.4 17.6a6.7 6.7 0 0 1 2.5 9.2 6.7 6.7 0 0 1-2.5 2.4 7.4 7.4 0 0 1-7.1 0 6.7 6.7 0 0 1-2.5-2.4 6.6 6.6 0 0 1 2.5-9.2 7.6 7.6 0 0 1 7 0zm-5.7 2a4.5 4.5 0 0 0-1.7 6 4.5 4.5 0 0 0 1.6 1.7 4.3 4.3 0 0 0 2.2.6 4.2 4.2 0 0 0 2.2-.6 4.4 4.4 0 0 0 1.6-1.6 4.5 4.5 0 0 0 .6-2.3 4.4 4.4 0 0 0-.6-2.3 4.3 4.3 0 0 0-1.6-1.6 4.3 4.3 0 0 0-2-.5 4.4 4.4 0 0 0-2.3.6zm19.6.9a4.3 4.3 0 0 1 1.6 1.8 5.8 5.8 0 0 1 .6 2.7 5.7 5.7 0 0 1-.6 2.6 4.3 4.3 0 0 1-1.6 1.8 4.7 4.7 0 0 1-2.5.6 4.3 4.3 0 0 1-2-.4 3.7 3.7 0 0 1-1.4-1.3v5.3H76V20h2.4v1.6a3.6 3.6 0 0 1 1.4-1.2 4.2 4.2 0 0 1 2-.5 4.7 4.7 0 0 1 2.5.6zm-1 6.6a3 3 0 0 0 .7-2.2 3 3 0 0 0-.8-2.1 2.9 2.9 0 0 0-4 0 3 3 0 0 0-.8 2.1 3 3 0 0 0 .8 2.2 2.7 2.7 0 0 0 2 .8 2.6 2.6 0 0 0 2-.8zm13.1-5.8a5.6 5.6 0 0 1 1.2 3.8v.7h-7.4a2.8 2.8 0 0 0 2.8 2.3 3.8 3.8 0 0 0 1.5-.3 3.6 3.6 0 0 0 1.2-.8l1.3 1.3a5 5 0 0 1-1.8 1.3 6.1 6.1 0 0 1-2.4.4 5.5 5.5 0 0 1-2.7-.6 4.4 4.4 0 0 1-1.8-1.8 5.8 5.8 0 0 1 0-5.3 4.6 4.6 0 0 1 1.8-1.8 5.3 5.3 0 0 1 2.6-.6 4.5 4.5 0 0 1 3.7 1.4zm-1 2.9a2.4 2.4 0 0 0-.8-1.8 2.8 2.8 0 0 0-3.6 0 2.9 2.9 0 0 0-.9 1.8zm13-3.2a3.9 3.9 0 0 1 1 2.7V30h-2.5v-5.6a2.3 2.3 0 0 0-.6-1.6 2.2 2.2 0 0 0-1.6-.6 2.5 2.5 0 0 0-1.9.8 3 3 0 0 0-.7 2v5h-2.4V20h2.4v1.9a3.8 3.8 0 0 1 3.6-2 3.6 3.6 0 0 1 2.7 1zm3.8-4.1h9.6V19h-7.1v3.2h6.3v2.2h-6.3v3.3h7.3V30h-9.8zm21.4.9a2.8 2.8 0 0 1 1.2 2.4 2.9 2.9 0 0 1-2.2 2.8 3.4 3.4 0 0 1 2 1.1 3.3 3.3 0 0 1 .7 2.2A3.1 3.1 0 0 1 134 29a5.8 5.8 0 0 1-3.5 1h-6V16.9h5.8a5.5 5.5 0 0 1 3.3.9zm-1.9 4a1.4 1.4 0 0 0 .6-1.2 1.4 1.4 0 0 0-.6-1.2 2.4 2.4 0 0 0-1.5-.4H127v3.2h3.2a2.4 2.4 0 0 0 1.5-.4zm.4 5.5a1.5 1.5 0 0 0 .7-1.3 1.4 1.4 0 0 0-.7-1.3 3.2 3.2 0 0 0-1.9-.4H127v3.4h3.2a3.1 3.1 0 0 0 1.9-.4zm11.9-8a6.2 6.2 0 0 0-2-.4 2.6 2.6 0 0 0-1.4.4 1 1 0 0 0-.5 1 1.2 1.2 0 0 0 .4.8 2.8 2.8 0 0 0 .9.6 14.4 14.4 0 0 0 1.5.5 16.3 16.3 0 0 1 2.2.8 3.9 3.9 0 0 1 1.4 1.2 3.2 3.2 0 0 1 .6 2 3.4 3.4 0 0 1-.6 2 4 4 0 0 1-1.8 1.4 6.7 6.7 0 0 1-2.6.5 8.1 8.1 0 0 1-3-.6 8.5 8.5 0 0 1-2.5-1.5l1-2.1a7.7 7.7 0 0 0 2.2 1.4 6 6 0 0 0 2.3.5 3 3 0 0 0 1.7-.4 1.3 1.3 0 0 0 .2-2 2.7 2.7 0 0 0-1-.6l-1.5-.5a18.2 18.2 0 0 1-2.1-.7 3.8 3.8 0 0 1-1.4-1.2 3.1 3.1 0 0 1-.6-2 3.3 3.3 0 0 1 .6-2 4 4 0 0 1 1.7-1.3 6.6 6.6 0 0 1 2.6-.5 8.7 8.7 0 0 1 2.5.4 8.5 8.5 0 0 1 2.2 1l-1 2.2a9.5 9.5 0 0 0-2-1z"/><path class="cls-3" d="M145.6 95v16c0 1-.2 1.2-1.1.9l-22.1-7.5a1 1 0 0 1-.8-1.1v-32c0-1 .3-1 1-.7l22 7.1c.9.3 1 .7 1 1.4v16zm5.9 0V79a1.2 1.2 0 0 1 1-1.4l22-6.8c1-.3 1 0 1 1V103c0 1-.3 1.3-1 1.5l-21.8 7.5c-1.1.4-1.3.1-1.3-1V95zm18.7-28l-8.2 2.7-12.4 4a2.7 2.7 0 0 1-1.8.2l-21-6.7-.6-.3 6.5-1.9 14.9-4.4a2.7 2.7 0 0 1 1.6 0l21 6.3z"/><path class="cls-1" d="M151.5 93v2.4m0 7.6v2.4m0-7.4v2.4m-30-25.4v2.4m0 7.6v2.4m0-7.4v2.4"/><path class="cls-3" d="M55.6 95v16c0 1-.2 1.2-1.1.9l-22.1-7.5a1 1 0 0 1-.8-1.1v-32c0-1 .3-1 1-.7l22 7.1c.9.3 1 .7 1 1.4v16zm5.9 0V79a1.2 1.2 0 0 1 1-1.4l22-6.8c1-.3 1 0 1 1V103c0 1-.3 1.3-1 1.5L62.6 112c-1.1.4-1.3.1-1.3-1V95zm18.7-28L72 69.8l-12.5 4a2.7 2.7 0 0 1-1.7.2l-21-6.7-.6-.3 6.5-1.9 14.9-4.4a2.7 2.7 0 0 1 1.6 0l21 6.3z"/><path class="cls-1" d="M61.5 93v2.4m0 7.6v2.4m0-7.4v2.4M31.5 75v2.4m0 7.6v2.4m0-7.4v2.4"/></svg>