<svg id="Layer_1" data-name="Layer 1" xmlns="http://www.w3.org/2000/svg" viewBox="0 0 58.33 58.33"><defs><style>.cls-1{fill:none}.cls-1,.cls-3,.cls-5{stroke:#f1592e;stroke-miterlimit:10}.cls-1,.cls-5{stroke-width:.75px}.cls-2,.cls-3,.cls-5{fill:#f1592e}.cls-3{stroke-width:.5px}.cls-4{fill:#fff}</style></defs><title>elements</title><path class="cls-1" d="M44.2 19.2h-6.8a3.4 3.4 0 0 1-3.1-3.4V9.4l.2.1L44 19l.2.2z"/><path class="cls-2" d="M19.3 17.5l1.6.8.9.5c.4.2.5.3.4.8 0 .1-.1.2-.2.1l-3-1.6a.6.6 0 0 1-.4-.8l.1-.2 3.3-1.7.2.1a.7.7 0 0 1-.4.8l-2.5 1.2zm9.1 0l-2.6-1.2a.7.7 0 0 1-.3-.9c0-.2.1 0 .2 0l2.1 1.1 1.1.6c.2 0 .2.2.2.3 0 .4 0 .6-.4.7l-3 1.5c-.3.2-.2.2-.3-.1a.6.6 0 0 1 .5-.7l2.5-1.3zM23 21.4c-.3 0-.3 0-.2-.4l1.7-6.7a.5.5 0 0 1 .7-.2v.2l-.9 3.2-.9 3.6c0 .2-.1.3-.3.3zM27.6 42l-.2 3.8c0 .2 0 .3-.3.3a10.4 10.4 0 0 0-1 0c-.3 0-.4 0-.4-.3l.4-4 .1-1.7c0-.2.1-.3.4-.3h1.9c.3 0 .4.1.4.4l.8 3.2a.6.6 0 0 0 0 .1c.3-1.2.8-2.3 1.2-3.4 0-.2.1-.3.4-.3h2c.2 0 .3 0 .3.3 0 1.9-.2 3.8-.1 5.7 0 .2-.1.3-.4.3h-1.3c-.3-.2 0-1 0-1.3V42l-.1.5-1.1 3.4c-.1.2-.2.3-.5.3a6.2 6.2 0 0 0-1 0c-.3 0-.4 0-.4-.3l-.9-3.9zm-5.2 0l1-1.9a.5.5 0 0 1 .6-.3h1.7l-.1.4-2.1 3.1a1.5 1.5 0 0 0-.3 1v1.5c0 .3-.2.3-.4.3h-1.4c-.3 0-.3 0-.3-.3l.1-1.9a1 1 0 0 0-.1-.6l-1.8-3c-.2-.4-.1-.5.3-.5H21a.4.4 0 0 1 .5.3l.9 1.9zM37 46.1h-2.2c-.2 0-.3 0-.3-.4.2-1.9.3-3.7.3-5.6 0-.2 0-.3.3-.3h1.5c.4 0 .3.2.3.4l-.2 4c0 .4 0 .5.4.5h2c.3 0 .4 0 .4.3 0 1 0 1.1-1.1 1.1h-1.5z"/><path class="cls-1" d="M44.2 37H16.7a21.7 21.7 0 0 0-2.6 0v8.5a3.4 3.4 0 0 0 3.4 3.5H41a3.4 3.4 0 0 0 3.4-3.5v-8.6z"/><path class="cls-1" d="M44.2 19.2h-6.8a3.4 3.4 0 0 1-3.1-3.4V9.4a3.3 3.3 0 0 0-.3 0H17.5a4.2 4.2 0 0 0-.9 0A3.4 3.4 0 0 0 14 13v23.6a.7.7 0 0 0 0 .5 21.7 21.7 0 0 1 2.7 0h27.5V19.3z"/><path class="cls-3" d="M35.4 25.4h1.9a3.4 3.4 0 0 1 1.4.6.7.7 0 0 1 .3.5v5.3a.7.7 0 0 1 0 .3 1.3 1.3 0 0 1-.4.3 4 4 0 0 1-1.4.5h-2.8a3.4 3.4 0 0 1-1.3-.5.8.8 0 0 1-.4-.7v-5a.7.7 0 0 1 .1-.5 1.4 1.4 0 0 1 .4-.3 4 4 0 0 1 1.4-.4zM33 28.9V30a.4.4 0 0 0 .2.4 3.4 3.4 0 0 0 .7.3 8 8 0 0 0 3.6 0 2.4 2.4 0 0 0 1-.4.5.5 0 0 0 .2-.3v-1.3a6.7 6.7 0 0 1-5.7.2zm0 1.7v1.1a.5.5 0 0 0 .3.5 2.8 2.8 0 0 0 .6.2 7.7 7.7 0 0 0 3.6 0 4.8 4.8 0 0 0 1-.3.5.5 0 0 0 .2-.3v-1.3a5.5 5.5 0 0 1-2.8.7 5.5 5.5 0 0 1-2.9-.6zm0-3.5v1.1a.4.4 0 0 0 .2.4 4 4 0 0 0 .8.4 7.8 7.8 0 0 0 3.5 0 5 5 0 0 0 1-.4.4.4 0 0 0 .3-.4v-1.1a6.7 6.7 0 0 1-5.8 0zm2.8-1.5h-.6a5 5 0 0 0-1.7.4 1.8 1.8 0 0 0-.4.3.3.3 0 0 0 0 .4 1.9 1.9 0 0 0 .5.3 4.8 4.8 0 0 0 1.5.3 7.7 7.7 0 0 0 2.7-.2 3 3 0 0 0 .8-.4c.2-.2.2-.4 0-.5a2 2 0 0 0-.5-.3 6.8 6.8 0 0 0-2.3-.3zm-13.7-.2H24a3.4 3.4 0 0 1 1.4.6.7.7 0 0 1 .3.5l.1 5.3a.7.7 0 0 1-.2.3 1.3 1.3 0 0 1-.3.3 4 4 0 0 1-1.4.5h-2.8a3.4 3.4 0 0 1-1.3-.5.8.8 0 0 1-.4-.7v-5a.7.7 0 0 1 .1-.5 1.4 1.4 0 0 1 .4-.3 4 4 0 0 1 1.4-.4zm-2.3 3.5V30a.4.4 0 0 0 .2.4 3.4 3.4 0 0 0 .7.3 8 8 0 0 0 3.6 0 2.4 2.4 0 0 0 1-.4.5.5 0 0 0 .2-.3v-1.2a6.7 6.7 0 0 1-5.7 0zm0 1.7v1.1a.5.5 0 0 0 .2.5 2.8 2.8 0 0 0 .6.2 7.7 7.7 0 0 0 3.6.1 4.8 4.8 0 0 0 1-.4.5.5 0 0 0 .3-.3v-1.2a5.5 5.5 0 0 1-2.9.6 5.5 5.5 0 0 1-2.8-.6zm0-3.5v1.1a.4.4 0 0 0 .2.5 4 4 0 0 0 .8.3 7.8 7.8 0 0 0 3.5 0 5 5 0 0 0 1-.4.4.4 0 0 0 .2-.4V27a6.7 6.7 0 0 1-5.8.1zm2.8-1.5h-.7a5 5 0 0 0-1.6.4 1.8 1.8 0 0 0-.5.3.3.3 0 0 0 0 .4 1.9 1.9 0 0 0 .5.3 4.8 4.8 0 0 0 1.6.3 7.7 7.7 0 0 0 2.6-.2 3 3 0 0 0 .8-.4c.2-.1.2-.4 0-.5a2 2 0 0 0-.5-.3 6.8 6.8 0 0 0-2.2-.3z"/><path class="cls-4" d="M24.9 25.4s1-1.6 4.3-1.4 4 1.4 4 1.4l-.2 7.3s-1.2 1.6-4.3 1.2-4-1.2-4-1.2z"/><path class="cls-5" d="M28.4 23.8h1.3l1.3.1a4.6 4.6 0 0 1 1.9.7 1 1 0 0 1 .5.8v7a1 1 0 0 1-.2.6 1.8 1.8 0 0 1-.6.4 5.5 5.5 0 0 1-1.8.6l-1.1.1h-1.3c-.4 0-.9 0-1.3-.2a4.6 4.6 0 0 1-1.9-.6 1 1 0 0 1-.5-1v-6.9a1 1 0 0 1 .3-.5 1.9 1.9 0 0 1 .5-.4 5.5 5.5 0 0 1 1.8-.6zm-3.2 4.7V30a.5.5 0 0 0 .2.5 4.7 4.7 0 0 0 1 .5 10.8 10.8 0 0 0 5 0 3.3 3.3 0 0 0 1.3-.5.6.6 0 0 0 .3-.3v-1.7a9 9 0 0 1-7.8 0zm0 2.3v1.5a.6.6 0 0 0 .3.7 3.8 3.8 0 0 0 .8.3 10.4 10.4 0 0 0 4.9.2 6.5 6.5 0 0 0 1.4-.5.7.7 0 0 0 .3-.4v-1.7a7.5 7.5 0 0 1-3.8.8 7.5 7.5 0 0 1-4-.9zm0-4.7v1.5a.6.6 0 0 0 .3.6 5.3 5.3 0 0 0 1 .4 10.6 10.6 0 0 0 4.8 0 6.8 6.8 0 0 0 1.3-.4.6.6 0 0 0 .4-.6v-1.5a9.3 9.3 0 0 1-7.8 0zm3.8-2h-1a6.8 6.8 0 0 0-2.1.5 2.4 2.4 0 0 0-.6.4.3.3 0 0 0 0 .6 2.5 2.5 0 0 0 .7.4 6.5 6.5 0 0 0 2.1.4 10.4 10.4 0 0 0 3.6-.2 4.1 4.1 0 0 0 1.1-.5c.3-.2.3-.5 0-.7a2.6 2.6 0 0 0-.7-.4 9.2 9.2 0 0 0-3.1-.4z"/></svg>