<svg id="Layer_1" data-name="Layer 1" xmlns="http://www.w3.org/2000/svg" viewBox="0 0 193 157"><defs><style>.cls-1,.cls-5{fill:none}.cls-2,.cls-3{fill:#fff}.cls-3{stroke:#fff}.cls-3,.cls-5{stroke-miterlimit:10}.cls-4{clip-path:url(#clip-path)}.cls-5{stroke:#f4cfa2;stroke-width:5px}.cls-6{clip-path:url(#clip-path-2)}</style><clipPath id="clip-path"><path class="cls-1" d="M167.1 119.4l-23.5-11.8H48l-22.2 11.8L62.4 156h81.2l23.5-36.6z"/></clipPath><clipPath id="clip-path-2"><path class="cls-1" d="M167.1 37.6L142.5 50h-100L19.2 37.6 57.6-1h84.9L167 37.6z"/></clipPath></defs><title>elements</title><path class="cls-2" d="M188.5 76.2h1.5c1.4-.2 2 .5 2 2s-.6 2-2 2h-.6c-4.2 0-4.1 0-4 4.2 0 1 .3 1.6 1.5 1.5s2.4 0 3.6 0c1.4 0 1.5 1 1.5 2s-.2 1.8-1.5 1.8c-1 0-2.2.1-3.2 0-1.6-.2-1.9.5-1.9 2 0 5 .4 4.4-4.4 4.3-1.5 0-2 .4-1.9 1.9v2.4c.1 1.4-.1 2.3-1.8 2.3s-2.2-.8-2-2.3a1.8 1.8 0 0 0 0-.2c0-4.1 0-4-4.2-4-1.2 0-1.7.3-1.6 1.5v3.6c0 1.4-1 1.3-2 1.3s-1.9 0-1.8-1.4V97c-1.2-1.7-3-.5-4.4-.8-.8-.2-1.4 0-1.3 1v3.8c0 1.5-1 1.7-2.1 1.7s-2-.4-1.9-1.7v-3.2c.2-1.4-.4-1.7-1.7-1.7-5 0-4.6.8-4.5-4.4 0-1.5-.5-2-2-1.9h-2.6c-1.4.1-2-.3-2-1.9s.4-2.1 2-2a5.2 5.2 0 0 0 .5 0c4.2 0 4.1 0 4-4.2 0-1.3-.4-1.6-1.6-1.5h-3c-1.5 0-2-.6-2-2s.6-2 2-2h.7c4.3 0 4.5-.2 4-4.6 0-.8-.4-1-1.2-1H145c-1.2 0-1.7-.8-1.7-2s.2-2 1.6-2 3.5.7 4.6-.3.3-3 .4-4.5c0-1.1.7-1.5 1.7-1.5 1.5 0 3.4.7 4.3-.4.7-.9.3-2.7.2-4.2s.6-2 2-2 2.1.6 2 2v.6c0 4.2.6 4.6 4.8 4 .8-.1 1-.5 1-1.1v-4c0-1.4.8-1.5 1.8-1.5s2 0 2 1.6v3.5c0 1 .2 1.5 1.3 1.5 4.4.2 4.4.2 4.4-4.2 0-2.2.4-2.4 2.4-2.4 1 0 1.6.5 1.6 1.6 0 1.6-.7 3.6.3 4.6s3 .3 4.5.4c1.1 0 1.4.7 1.5 1.7 0 1.5-.7 3.4.4 4.3 1 .7 2.8.3 4.2.2s2 .7 2 2-.6 2-2 2h-1.1c-3.6 0-3.5 0-3.6 3.5 0 1.6.4 2.4 2.2 2.1a5.5 5.5 0 0 1 1 0zm-21 15.8h12.2c1.3 0 1.8-.3 1.7-1.7V66.1c0-1.3-.3-1.8-1.7-1.8h-24.2c-1.4 0-1.8.4-1.8 1.8v24.2c0 1.3.3 1.7 1.7 1.7h12.2z"/><path class="cls-2" d="M160.8 78v-5.3c0-1 .4-1.4 1.4-1.4h10.5c1.2 0 1.7.6 1.7 1.8v10c0 1.3-.5 1.8-1.7 1.8h-10c-1.3 0-2-.5-2-2V78z"/><path class="cls-3" d="M14 61.6c0-2 1.2-3.2 2.7-4a18.8 18.8 0 0 1 7-2 30.8 30.8 0 0 1 13.8 1.2 7 7 0 0 1 3.8 2.4 3.9 3.9 0 0 1 .7 2V89a3.8 3.8 0 0 1-1.8 3.1 15.5 15.5 0 0 1-6.7 2.3l-2.5.4c0 2.8-2 4-4.3 4.8A26.5 26.5 0 0 1 15 101a55.8 55.8 0 0 1-7.5-1.3 8.9 8.9 0 0 1-2.7-1.4A3.9 3.9 0 0 1 3 94.7V67.6a3.8 3.8 0 0 1 1.8-3.2 16.1 16.1 0 0 1 7.1-2.5l2.2-.3zm-9 27v6A2.4 2.4 0 0 0 6.1 97a9.6 9.6 0 0 0 2 1 30.3 30.3 0 0 0 13.4.8 26 26 0 0 0 5.6-1.5 3 3 0 0 0 1.8-1.9c.2-2.3 0-4.6 0-6.8a29.5 29.5 0 0 1-24 0zM5 79v4.3c0 3.2 0 3.5 3.1 4.5h.3a27.9 27.9 0 0 0 12 1.2 18.6 18.6 0 0 0 7.7-2.3c.4-.3.9-.7.9-1V79a24.4 24.4 0 0 1-12 2.7A24.3 24.3 0 0 1 5 79zm24-9.3a29.3 29.3 0 0 1-24 0 45 45 0 0 1 0 5A2.7 2.7 0 0 0 7 78h.2c4.3 1.9 8.8 2 13.3 1.6a18 18 0 0 0 7.6-2.3c.3-.2.9-.7.9-1v-6.5zm-11.8.7l2.6-.1a19.5 19.5 0 0 0 8.4-2.5c1-.6 1-1.1.1-1.7a11 11 0 0 0-3-1.6 32.4 32.4 0 0 0-13-.8 13.7 13.7 0 0 0-6 1.8A3.5 3.5 0 0 0 5 67.1c0 .2.9.9 1.4 1.2 3.3 1.6 6.8 2 10.8 2.1zm-1.1-8.9h1.1c3.6.1 7 .4 10.3 2a6.1 6.1 0 0 0 3.4.4l1.4-.1a19.5 19.5 0 0 0 7-2.2c1-.7 1-1 .1-1.8a7.9 7.9 0 0 0-2.5-1.4 31.3 31.3 0 0 0-14.8-.7 23 23 0 0 0-4.8 1.6 2 2 0 0 0-1.2 2.2zM31 85v7.7c2.6-.2 5.2-.5 7.4-1.8a3.2 3.2 0 0 0 1.6-1.8c.2-2.3 0-4.6 0-6.7zm9-21.4l-9 2.5v7.3a20.2 20.2 0 0 0 8.2-2.2c.4-.2 1-.7 1-1v-6.5zm0 9.4l-9 2.6v7.2l1.4-.2a17.6 17.6 0 0 0 6.6-2c.4-.2 1-.7 1-1V73z"/><g class="cls-4"><circle class="cls-5" cx="95.8" cy="76.8" r="71.7"/></g><g class="cls-6"><circle class="cls-5" cx="95.8" cy="78" r="71.7"/></g><path class="cls-2" d="M98.1 70c.1 1.1.9 1.6 1.8 1l4.4-3.2c.6-.4.6-.7 0-1.1a12.4 12.4 0 0 0-4.6-2.5c-2-.5-2-.6-1.9 1.5l.3 4.3zm-7.4 9.6l-5.2 1c-.8.1-1.2.5-.7 1.4a13.7 13.7 0 0 0 3.8 4.6c.3.2.6.7 1 0l2.1-5.4c.3-.9-.1-1.5-1-1.6zm3.5-9.6l.3-4.5a1.9 1.9 0 0 1 0-.5c.3-1.2-.3-1.3-1.3-1a13.2 13.2 0 0 0-5.2 2.7c-.5.4-.6.7 0 1.1l4.3 3c1 .8 1.8.4 2-.8zm-.2 6a2.5 2.5 0 0 0 2 2.6 2.3 2.3 0 0 0 2.2-2.2 2.2 2.2 0 0 0-1.8-2A2.4 2.4 0 0 0 94 76zm-4.6 0c1.3-.4 1.5-1.2.5-2.1L86 70.4c-.5-.5-.7-.5-1 .2a13.9 13.9 0 0 0-1.5 5.7c0 1.4 0 1.5 1.4 1l4.5-1.3zm12.9-2c-.8.8-.6 1.6.5 2l5 1.5c.8.2 1 0 1-.7a12.8 12.8 0 0 0-1.9-7l-4.6 4.2z"/><path class="cls-2" d="M95.8 46a30.8 30.8 0 1 0 30.8 30.8 30.8 30.8 0 0 0-30.8-30.7zm19.8 36l-2.2-.8a1.7 1.7 0 0 0-2.4 1.2 15.1 15.1 0 0 1-5.6 7 1.6 1.6 0 0 0-.6 2.4l1.4 2.2c.4.8.7 1.6-.3 2.2s-1.5-.2-1.9-1l-.9-2.5a1.6 1.6 0 0 0-2.1-1.1 16 16 0 0 1-9.6-.1c-1-.4-1.4.5-1.8 1.1l-1 2.6c-.3.8-.8 1.4-1.8 1s-.8-1.3-.3-2.1l1.3-2.3a1.8 1.8 0 0 0-.6-2.5 15.4 15.4 0 0 1-5.5-6.8c-.5-1.3-1.3-1.6-2.7-1.2l-2.2.8c-.8.2-1.8.2-2-.9s.6-1.3 1.4-1.5c1.3-.3 2.8.1 3.9-.9s.2-2.4.3-3.6a17.3 17.3 0 0 1 2.1-6.7A1.6 1.6 0 0 0 82 66l-2.2-1.4c-.7-.4-1.4-1.2-.7-2s1.4-.6 2.1 0c1 .9 1.6 2.2 3 2.4s2-1.4 3-2a18.8 18.8 0 0 1 5.8-2.3c1.8-.4 2.4-1 2.3-2.2 0-.8-.2-1.5-.3-2.2s-.1-1.4.6-1.9a1 1 0 0 1 1.3 0 1.8 1.8 0 0 1 .5 1.9l-.2 2.2a1.7 1.7 0 0 0 1.7 2.1 14 14 0 0 1 7.8 3.9 1.7 1.7 0 0 0 2.7 0l1.6-1.7c.6-.6 1-1 1.7-.7a1 1 0 0 1 .9 1 1.8 1.8 0 0 1-1 1.6c-.8.4-1.5.8-2 1.3a1.7 1.7 0 0 0-.7 2.5 15.2 15.2 0 0 1 2 8.8 1.6 1.6 0 0 0 1.6 2l2.7.4c1 .2 1.7.6 1.5 1.5s-1.2 1-2 .7z"/><path class="cls-2" d="M102 79.7c-1.3-.2-1.8.5-1.3 1.8l1.9 4.7c.3.8.7.8 1.3.3a13.9 13.9 0 0 0 3.6-4.4l.4-1c-.6-.1-1-.6-1.6-.7l-4.2-.7zm-5 3.2c-.5-.9-1.3-.8-1.9 0s-1 1.8-1.4 2.6C92 89 92 89 96.3 89.1a10.5 10.5 0 0 0 3.1-.4c.4 0 .8-.2.5-.7L97 82.9z"/></svg>