<svg id="Layer_1" data-name="Layer 1" xmlns="http://www.w3.org/2000/svg" viewBox="0 0 58.33 58.33"><defs><style>.cls-1,.cls-2{fill:#f1592e;stroke-miterlimit:10}.cls-1{stroke:#f1592e;stroke-width:.5px}.cls-2{stroke:#f9f9f9;stroke-width:.45px}</style></defs><title>elements</title><path class="cls-1" d="M26.1 32.6a7 7 0 0 1-11.3-2 6.3 6.3 0 0 1 1.2-7 6.5 6.5 0 0 1 6.8-2c4.8 1.2 6.6 5.7 4.1 10v.3h.2a5 5 0 0 1 4.5-.2c.1-.4-.2-.6-.3-.8a6.4 6.4 0 0 1 .3-7.5A7 7 0 0 1 44 26.6a6.2 6.2 0 0 1-3.2 6.5 7 7 0 0 1-7.8-.5l-.5-.4-.3-.3c-.1-.1-.2-.4-.4-.1s.1.2.2.3l.3.3c-.1.7.3 1.1 1 1.4a3.1 3.1 0 0 1 1.8 2.3 1.9 1.9 0 0 1-1.6 2.4c-.5.1-.7.2-.6.8a12.5 12.5 0 0 1 0 1.4 1.6 1.6 0 0 1-.8 1.7 1.8 1.8 0 0 1-2.2-.1c-.3-.3-.5-.2-.8 0-1.7 1-3 0-3-1.9a2.3 2.3 0 0 1 0-.4c.3-.8.4-1.3-.8-1.7-1.7-.5-2-2.5-.6-3.8a6.1 6.1 0 0 0 1.6-1.7l.2-.3a1.5 1.5 0 0 0 0-.2c0-.1 0 0 0 0zm-10-6.2a4 4 0 0 1 .7-.4 2.5 2.5 0 0 1 2.7.6 2.4 2.4 0 0 1-1.6 4.1 6.2 6.2 0 0 1-1.3-.2.3.3 0 0 0-.4 0l.2.2a5.5 5.5 0 0 0 6.7 2.3 5.2 5.2 0 0 0 3.6-5.8 5.6 5.6 0 0 0-10.8-1v.2zM32 26a7.3 7.3 0 0 1 .8-.4 2.5 2.5 0 0 1 2.5.2 2.3 2.3 0 0 1 1 2.2 2.5 2.5 0 0 1-3.7 2h-.2v.2a4.7 4.7 0 0 0 3.4 2.3 5.6 5.6 0 0 0 6.7-3.2 5.3 5.3 0 0 0-2.8-6.7 5.6 5.6 0 0 0-7.9 3.3v.2zm.7 11.3c.4 0 .8 0 1-.4a1 1 0 0 0-.2-1.2 1.5 1.5 0 0 0-2-.7 5.5 5.5 0 0 1-4.4.1 1.3 1.3 0 0 0-1.6.6 1 1 0 0 0 .1 1.3c.5.6 1 .3 1.6 0a4.5 4.5 0 0 1 4.4 0 2.4 2.4 0 0 0 1 .3zm-3.5 2a4.4 4.4 0 0 0 0-.6c0-.3.1-.6-.2-.8s-.5.2-.8.3c-1.2.6-.9 1.7-.8 2.7 0 .4.2.8.6.8a.9.9 0 0 0 1-.6 4.5 4.5 0 0 0 .1-1.9zm1 .6l.1 1.3a.7.7 0 0 0 .8.5c.3 0 .7-.1.7-.5a4.2 4.2 0 0 0 0-2.5 1.1 1.1 0 0 0-1.3-.7c-.5 0-.3.6-.3.9a7.1 7.1 0 0 0 0 .9z"/><path class="cls-2" d="M51 39.4a35.3 35.3 0 0 0-2-12.5 14 14 0 0 0-10.5-9.2 37.7 37.7 0 0 0-21 1.6 12.2 12.2 0 0 0-7.2 7 27.3 27.3 0 0 0-2 8.8 35 35 0 0 0-.1 6.7c0 .6 0 1.1-.7 1.2s-.8-.5-.8-1a44.7 44.7 0 0 1 .6-10.8c.1-.5.2-.9-.4-1.2a5.4 5.4 0 0 1-3-7 5.5 5.5 0 0 1 6.6-3.3 5.4 5.4 0 0 0 4.7-.9 22 22 0 0 1 9-2.7 40.5 40.5 0 0 1 13-.1 18.8 18.8 0 0 1 7.5 3 1.3 1.3 0 0 0 1.4.1 7 7 0 0 1 3.6-.6 5.3 5.3 0 0 1 4.9 4.2 5.2 5.2 0 0 1-2.6 6 1.1 1.1 0 0 0-.6 1.4c1 3.9 1 7.8 1.1 11.8 0 .5 0 1.1-.7 1.1s-.8-.6-.8-1.1v-2.5zM9.6 20.9a5.6 5.6 0 0 0-2.1.4A3.7 3.7 0 0 0 5 24.8a3.8 3.8 0 0 0 2 3.6c.2.1.5.4.8.1a2.3 2.3 0 0 0 .2-2.4 1.8 1.8 0 0 1-.1-2 1.5 1.5 0 0 1 1.5-.9c.7.1 2.2-1 2.1-1.6s-1-.5-1.6-.7a1.6 1.6 0 0 0-.4 0zm39.5-1a4.8 4.8 0 0 0-1.8.3c-.1 0-.4 0-.4.3a2.5 2.5 0 0 0 2 1.5 1.6 1.6 0 0 1 1.8.8 1.4 1.4 0 0 1 0 2c-.8.7-.4 1.3-.1 2.1s.4.7 1 .3a4 4 0 0 0 1.6-4.5 4 4 0 0 0-4.1-2.8z"/></svg>