<svg id="Layer_1" data-name="Layer 1" xmlns="http://www.w3.org/2000/svg" viewBox="0 0 280 267"><defs><style>.cls-1,.cls-2{fill:none;stroke:#f04f25;stroke-miterlimit:10}.cls-1{stroke-width:3px}.cls-2{stroke-width:5px}.cls-3{fill:#f04f25}</style></defs><title>new icons</title><path class="cls-1" d="M73.1 117.7a89.4 89.4 0 0 1 90.2-89A89.3 89.3 0 0 1 253 118a89.5 89.5 0 0 1-90.1 88.7c-49.4 0-89.8-40-89.8-88.9zm89.9 74a74.8 74.8 0 0 0 75-72.4 74.9 74.9 0 0 0-73.9-75.7 74.6 74.6 0 0 0-76 73.5 74.6 74.6 0 0 0 74.9 74.7z"/><path class="cls-1" d="M103.4 198c-1 1.8-1.5 3.6-2.7 4.7l-50.9 50.5c-3 2.9-6.6 2.8-9.6-.1q-7-6.8-13.9-13.8c-3.1-3.2-3.1-6.6.1-9.8l50.6-50c3-3 6.5-3 9.6-.1a592 592 0 0 1 14.2 14.1c1.1 1.1 1.7 2.8 2.6 4.5z"/><path class="cls-2" d="M203 147.9v-44.6h-.2v-7c0-.6 0-1.2-.2-1.8-15.6 10.6-57.2 12.1-76.6 0v15a8.3 8.3 0 0 0 0 1.1v22.6a8.3 8.3 0 0 0 0 1v22a6.2 6.2 0 0 0 3.3 6.2 38 38 0 0 0 7.8 3.4c16 4.5 32.1 4.7 48.3 1.6a64.7 64.7 0 0 0 13.6-4.8c1.5-.7 3.5-2.7 3.6-4.3l.2-5v-.2l.1-5.2z"/><path class="cls-2" d="M164.3 72a91 91 0 0 1 30 4.5 25.7 25.7 0 0 1 6.7 3.8c2.7 2.1 2.8 5 0 6.8a40.5 40.5 0 0 1-11 5.2 102.3 102.3 0 0 1-35.5 2.6 63.7 63.7 0 0 1-20.7-4.3 24.8 24.8 0 0 1-6.5-4.1c-1.9-1.7-1.9-3.9 0-5.6a23.8 23.8 0 0 1 6.2-4c7-3 14.3-3.9 21.6-4.5l9.2-.4z"/><path class="cls-3" d="M160.2 129.1v12.3a1.1 1.1 0 0 0 .5 1 4.2 4.2 0 0 1 0 7.2 1.3 1.3 0 0 0-.5 1.2v4.6a1.7 1.7 0 0 1-1.7 2 1.7 1.7 0 0 1-1.8-1.9v-4.7a1.3 1.3 0 0 0-.6-1.3 4.2 4.2 0 0 1 0-6.9 1.4 1.4 0 0 0 .7-1.3v-24a4.7 4.7 0 0 1 0-.8 1.7 1.7 0 0 1 1.9-1.5 1.6 1.6 0 0 1 1.5 1.8V129zm20.5 15.3v-7.8a1.5 1.5 0 0 0-.5-1 4.3 4.3 0 0 1 0-7.2 1.5 1.5 0 0 0 .5-1v-13.2c0-1.4.6-2.1 1.7-2.2s1.7.8 1.7 2.2v13.1a1.3 1.3 0 0 0 .7 1.2 4.2 4.2 0 0 1 0 7 1.3 1.3 0 0 0-.7 1.3v15.7a1.7 1.7 0 0 1-1.2 1.9 1.6 1.6 0 0 1-2-.8 2.7 2.7 0 0 1-.2-1.3v-7.9zm-35.9-.8V135a1.3 1.3 0 0 0-.7-1.2 4.2 4.2 0 0 1 0-7 1.2 1.2 0 0 0 .7-1.2v-11.8a1.6 1.6 0 0 1 1.6-1.8 1.7 1.7 0 0 1 1.8 1.7v11.9a1.2 1.2 0 0 0 .6 1.2 4.2 4.2 0 0 1 0 7 1.2 1.2 0 0 0-.6 1.1v17a7.2 7.2 0 0 1 0 .8 1.8 1.8 0 0 1-1.8 1.7 1.7 1.7 0 0 1-1.6-1.8v-9zm27.4-25.4a6.7 6.7 0 0 0 0 1.3 1.4 1.4 0 0 0 .5.8 4.3 4.3 0 0 1 0 7.2 1.7 1.7 0 0 0-.5 1.2v26.2c0 1.7-.6 2.5-1.8 2.4a1.6 1.6 0 0 1-1.6-1.4 12.2 12.2 0 0 1 0-1.3v-25.9a1.4 1.4 0 0 0-.8-1.3 4.2 4.2 0 0 1 0-7 1.5 1.5 0 0 0 .8-1.4 22.3 22.3 0 0 1 0-2.4 1.7 1.7 0 0 1 3.3-.2l.1 1.8z"/></svg>