<svg id="Layer_1" data-name="Layer 1" xmlns="http://www.w3.org/2000/svg" viewBox="0 0 1348 692"><defs><style>.cls-1,.cls-13,.cls-14{fill:none}.cls-2{clip-path:url(#clip-path)}.cls-3,.cls-7,.cls-8{fill:#ff544e}.cls-4{fill:#fff}.cls-12,.cls-5,.cls-6,.cls-9{fill:#273274}.cls-6{stroke:#f9f9f9}.cls-11,.cls-12,.cls-13,.cls-14,.cls-6,.cls-7,.cls-8,.cls-9{stroke-miterlimit:10}.cls-14,.cls-6,.cls-8,.cls-9{stroke-width:2px}.cls-7,.cls-8{stroke:#fff}.cls-12,.cls-7{stroke-width:5px}.cls-11,.cls-12,.cls-9{stroke:#f7f7f7}.cls-10,.cls-11{fill:#ff8c58}.cls-11,.cls-13{stroke-width:4px}.cls-13,.cls-14{stroke:#273274}</style><clipPath id="clip-path"><path class="cls-1" d="M-9.5 263.5h1349V692H-9.5z"/></clipPath></defs><title>hacktober header</title><g class="cls-2"><path class="cls-3" d="M1197 448v-69.4a9.6 9.6 0 0 1 2-6c6.2-8.4 12.2-16.9 18-25.5 1.3-1.7 3.8-4.3 1.8-6s-4.2 1-5.8 2.4l-15.9 15c0-10.5.4-20.1-.1-29.8-.5-9.4-1-19-5-28.3-2.4 2.2-2.6 4.7-3 7-2.4 15.8-2.9 31.7-3.4 47.6-1.6 46-2.4 92-3.3 138-.1 8-.5 16-.6 23.9 0 2.4-.5 3-3 2.2-12-4.1-22-11.1-31.3-19.3a121.7 121.7 0 0 1-41-69c-4-20.4-1.4-40.4 4.5-60a179 179 0 0 1 46-78 102.6 102.6 0 0 1 12.7-10.4c11-7.8 22.6-9 35-3.5 23.7 10.5 42.7 27 58.8 47 13.1 16.4 23 34.5 26.8 55.3 4.7 24.9-.5 48.3-12.4 70.2a139 139 0 0 1-69.2 64.5c-2.5 1-5.2 1.8-7.8 2.6-2.3.8-3.5.4-3.5-2.4q.1-22.3-.1-44.5c0-2.1 1-3.5 2.2-5 11.5-14 23.6-27.7 34.4-42.5a58.1 58.1 0 0 0 7.7-14.8c.4-1.1 1.7-2.7.1-3.7-1.2-.8-2.4.4-3.2 1.2-3.3 2.7-6.6 5.4-9.6 8.3-11 10.4-20.7 21.9-31.7 32.9z"/><circle class="cls-4" cx="1231.3" cy="333.9" r="6.8"/><path class="cls-3" d="M1191 719.7l5.8.2a32.2 32.2 0 0 1 1.5-5l-.1-30.2a8.5 8.5 0 0 1-1.4-4c-.1-2.8 1-5.4 1.5-8.2-.2 1-.3-2.7-.4-3.4-.5-3.6-.9-7.4 1-11h-.9v-62.2c-1.3-2.3-1-4.7-.3-7.3v-.1c-.3-.7.5-2 .6-2.7l.1-2.6c-.5-1-.5-1.4-.4-1.5a7 7 0 0 1 .1-4.5c-.8-17.5 2.3-34.6-8-51.4-4.7 1.7-4.6 4.2-5.3 6.3-4 13.9-4.7 28-5.6 42-2.5 41.3-4 82.7-5.3 124.1-.3 7.1-1 14.3-1 21.4v.5c6-.3 12-.6 18.1-.4zm-792.5-79.2V590a7 7 0 0 1 1.5-4.4l13.1-18.6c.9-1.3 2.7-3.2 1.3-4.5s-3 .8-4.2 1.8c-3.8 3.4-7.4 7-11.7 11 0-7.6.3-14.7 0-21.7s-.8-13.9-3.6-20.7c-1.8 1.6-2 3.4-2.2 5.2-1.9 11.5-2.2 23-2.5 34.7-1.2 33.5-1.8 67.1-2.5 100.7 0 5.8-.3 11.6-.4 17.4 0 1.8-.4 2.3-2.2 1.6-8.7-3-16-8-22.8-14a88.9 88.9 0 0 1-30-50.4 91.5 91.5 0 0 1 3.3-43.9c6.5-21.7 17.3-41 33.6-57a75 75 0 0 1 9.3-7.5c8-5.7 16.4-6.5 25.5-2.5a114.9 114.9 0 0 1 43 34.3 90.5 90.5 0 0 1 19.5 40.3 75.6 75.6 0 0 1-9 51.2 101.5 101.5 0 0 1-50.6 47.1c-1.8.8-3.8 1.3-5.7 2-1.7.5-2.5.2-2.5-1.9v-32.4a5.4 5.4 0 0 1 1.5-3.7c8.4-10.3 17.3-20.2 25.1-31a42.4 42.4 0 0 0 5.7-10.9c.3-.8 1.2-2 0-2.7-.8-.5-1.7.4-2.3 1l-7 6c-8 7.7-15.1 16-23.2 24.1z"/><circle class="cls-4" cx="423.5" cy="557.2" r="5"/><path class="cls-5" d="M195.3 614.5V578a5 5 0 0 1 1-3.2c3.2-4.4 6.4-8.8 9.4-13.3.7-1 2-2.3 1-3.2s-2.2.5-3 1.2l-8.4 8c0-5.6.2-10.7 0-15.7s-.6-10-2.6-14.9c-1.3 1.2-1.4 2.5-1.6 3.7-1.3 8.3-1.5 16.6-1.8 25-.8 24.1-1.3 48.3-1.8 72.4 0 4.2-.2 8.3-.3 12.5 0 1.3-.2 1.6-1.6 1.2a48.6 48.6 0 0 1-16.4-10.2 64 64 0 0 1-21.5-36.2c-2-10.7-.7-21.1 2.3-31.5a94.2 94.2 0 0 1 24.2-41 53.9 53.9 0 0 1 6.7-5.4 17.4 17.4 0 0 1 18.3-1.8 82.5 82.5 0 0 1 30.9 24.7c6.9 8.5 12 18 14 29 2.5 13-.2 25.3-6.4 36.8a73 73 0 0 1-36.4 33.9l-4 1.3c-1.3.4-1.9.3-1.9-1.3v-23.3a4 4 0 0 1 1.1-2.6c6-7.4 12.4-14.6 18-22.3a30.5 30.5 0 0 0 4-7.8c.3-.6 1-1.4 0-2-.6-.4-1.2.3-1.6.7-1.7 1.4-3.5 2.8-5 4.4-5.7 5.5-10.8 11.5-16.6 17.3z"/><circle class="cls-6" cx="213.2" cy="554.6" r="3.6"/><path class="cls-5" d="M192.1 713.3h3a7 7 0 0 1 .8-1.5v-9a2 2 0 0 1-.8-1.2c0-.8.6-1.6.8-2.4-.1.3-.2-.8-.2-1a3.2 3.2 0 0 1 .5-3.3h-.5v-18.6a1.8 1.8 0 0 1-.1-2.1c-.1-.3.2-.6.3-.9a4.6 4.6 0 0 0 0-.7l-.2-.5a1.3 1.3 0 0 1 .1-1.3c-.4-5.2 1.2-10.4-4.2-15.4-2.4.5-2.4 1.3-2.7 2-2.2 4-2.5 8.2-3 12.4-1.3 12.4-2 24.8-2.8 37.2-.1 2.1-.5 4.3-.5 6.4a1 1 0 0 1 0 .1c3.2-.2 6.3-.3 9.5-.2z"/><path class="cls-3" d="M883.5 501v-72.1a10 10 0 0 1 2-6.3 1318 1318 0 0 0 18.7-26.5c1.3-1.8 3.9-4.5 1.8-6.3s-4.3 1-6 2.5L883.5 408c0-10.8.4-20.9-.1-30.9-.5-9.8-1-19.7-5.1-29.4-2.6 2.3-2.7 4.9-3.1 7.3-2.6 16.4-3 32.9-3.6 49.4-1.6 47.8-2.5 95.6-3.5 143.4-.1 8.3-.5 16.5-.6 24.8 0 2.5-.5 3.2-3.2 2.3a96.5 96.5 0 0 1-32.4-20 126.2 126.2 0 0 1-42.7-71.8 132 132 0 0 1 4.6-62.4c9.3-31 24.7-58.3 47.9-81a106.6 106.6 0 0 1 13.2-10.8 34.5 34.5 0 0 1 36.3-3.6c24.7 11 44.4 28 61.1 48.8 13.7 17 23.9 35.8 28 57.4 4.8 25.9-.6 50.2-13 73a144.5 144.5 0 0 1-71.9 67c-2.6 1.1-5.4 1.8-8 2.7-2.5.8-3.7.4-3.7-2.6q.1-23-.1-46.1c0-2.3 1-3.7 2.3-5.3 12-14.6 24.5-28.8 35.7-44.1a60.4 60.4 0 0 0 8-15.5c.4-1.1 1.7-2.8.1-3.8-1.3-.8-2.4.4-3.4 1.2-3.3 2.8-6.8 5.7-10 8.7-11.2 11-21.3 22.9-32.8 34.3z"/><circle class="cls-7" cx="940.9" cy="449.1" r="7.1"/><circle class="cls-8" cx="916" cy="381.5" r="6"/><path class="cls-3" d="M877.1 696.6h6a14 14 0 0 1 1.7-3l-.2-17.8a3.9 3.9 0 0 1-1.4-2.4c-.2-1.6 1-3.2 1.5-4.8-.2.5-.3-1.7-.4-2-.6-2.2-.9-4.4 1-6.5h-1v-36.9c-1.3-1.4-1-2.8-.3-4.3-.3-.5.5-1.3.6-1.7a9 9 0 0 0 .2-1.5c-.5-.6-.6-.8-.5-1a2.5 2.5 0 0 1 .2-2.6c-.9-10.3 2.3-20.5-8.3-30.4-5 1-4.9 2.5-5.5 3.7-4.2 8.2-5 16.5-5.8 24.8a1619 1619 0 0 0-5.6 73.6c-.3 4.2-1 8.5-1 12.7a2 2 0 0 1 0 .2c6.3-.1 12.5-.2 18.9-.1z"/><path class="cls-5" d="M611 540.6v-54.4a7.5 7.5 0 0 1 1.6-4.7 988 988 0 0 0 14.1-20c1-1.4 3-3.4 1.4-4.7s-3.3.7-4.6 1.9c-4 3.6-7.9 7.5-12.4 11.8 0-8.3.3-15.8-.1-23.4s-.8-14.9-3.9-22.2c-2 1.7-2 3.7-2.3 5.5-2 12.4-2.3 24.9-2.8 37.3-1.2 36-1.9 72.2-2.6 108.3 0 6.2-.4 12.5-.4 18.7 0 1.9-.4 2.4-2.4 1.7a72.7 72.7 0 0 1-24.5-15.1 95.5 95.5 0 0 1-32.2-54.1 98 98 0 0 1 3.5-47.1c7-23.4 18.6-44 36.1-61.3a80.5 80.5 0 0 1 10-8 26 26 0 0 1 27.4-2.8 123.5 123.5 0 0 1 46.1 37c10.4 12.8 18 27 21 43.3a81.3 81.3 0 0 1-9.7 55A109.2 109.2 0 0 1 620 594c-2 .8-4 1.4-6 2-2 .6-2.8.3-2.8-2l-.1-34.8a5.8 5.8 0 0 1 1.7-4c9-11.1 18.6-21.8 27-33.4A45.6 45.6 0 0 0 646 510c.3-.8 1.3-2 0-2.9-1-.6-1.8.4-2.5 1-2.5 2.1-5.1 4.2-7.5 6.5-8.5 8.4-16.2 17.4-24.8 26z"/><circle class="cls-9" cx="654.4" cy="501.5" r="5.4"/><circle class="cls-4" cx="637.9" cy="451.1" r="5.4"/><path class="cls-5" d="M606.3 701.8l4.5.1a12.9 12.9 0 0 1 1.2-2.6l-.1-15.6a3.5 3.5 0 0 1-1-2c-.2-1.5.7-2.9 1-4.3-.1.5-.2-1.4-.2-1.7-.5-1.9-.7-3.9.7-5.7h-.7v-32.1a3.5 3.5 0 0 1-.2-3.8c-.2-.4.3-1 .4-1.5a9 9 0 0 0 .1-1.3c-.3-.5-.4-.7-.3-.8a2.5 2.5 0 0 1 .1-2.3c-.6-9 1.8-17.9-6.3-26.6-3.7 1-3.6 2.2-4.1 3.3-3.2 7.2-3.7 14.4-4.4 21.6-2 21.4-3.1 42.8-4.2 64.2-.2 3.7-.8 7.4-.8 11a2 2 0 0 1 0 .3c4.8-.1 9.5-.3 14.3-.2z"/><path class="cls-3" d="M111.5 500.5v-61.8a8.6 8.6 0 0 1 1.7-5.4c5.4-7.5 10.8-15 16-22.7 1.1-1.6 3.4-3.9 1.6-5.4s-3.7.8-5.2 2.1c-4.6 4.2-9 8.5-14.1 13.4 0-9.3.3-18-.1-26.5s-1-17-4.4-25.2c-2.2 2-2.4 4.2-2.7 6.3-2.2 14-2.6 28.1-3 42.3-1.5 41-2.3 82-3 123-.2 7-.6 14.1-.6 21.2 0 2.2-.5 2.8-2.7 2a82.4 82.4 0 0 1-28-17.2A108.5 108.5 0 0 1 30.6 485c-3.5-18.2-1.2-36 4-53.5 8-26.5 21.2-50 41-69.5a91.4 91.4 0 0 1 11.4-9.2c9.8-7 20-8 31.1-3a140 140 0 0 1 52.4 41.8 110.6 110.6 0 0 1 24 49.2c4 22.1-.5 43-11.1 62.5a123 123 0 0 1-61.7 57.5c-2.2 1-4.6 1.6-7 2.3-2 .7-3 .4-3-2.2l-.1-39.6c0-1.9.9-3.1 2-4.5 10.2-12.5 21-24.7 30.6-37.8a51.8 51.8 0 0 0 6.8-13.3c.3-1 1.5-2.3 0-3.2-1-.7-2 .3-2.8 1-3 2.4-5.8 4.8-8.6 7.5-9.6 9.3-18.3 19.5-28.1 29.4z"/><circle class="cls-7" cx="160.7" cy="456" r="6.1"/><circle class="cls-4" cx="141.9" cy="398.8" r="6.1"/><path class="cls-3" d="M106 701.8l5.2.1a18.3 18.3 0 0 1 1.3-3.4l-.1-20.6a5 5 0 0 1-1.2-2.7c-.1-1.9 1-3.7 1.3-5.6-.2.6-.3-1.9-.4-2.3-.4-2.5-.7-5 1-7.4l-.9-.1v-42.4c-1-1.6-.9-3.2-.3-5-.2-.6.4-1.4.5-2a13.8 13.8 0 0 0 .2-1.7c-.4-.6-.5-.9-.4-1a3.7 3.7 0 0 1 .1-3c-.7-12 2-23.6-7.1-35-4.2 1.2-4.2 2.9-4.7 4.3-3.6 9.5-4.2 19-5 28.5-2.3 28.2-3.6 56.4-4.8 84.6-.2 4.9-1 9.7-.9 14.6a3 3 0 0 1 0 .3c5.4-.2 10.8-.3 16.2-.2z"/><path class="cls-10" d="M738.5 629.1v-67.4a9.3 9.3 0 0 1 2-5.8L758 531c1.1-1.7 3.6-4.2 1.7-5.9s-4.1 1-5.7 2.4c-5 4.5-9.8 9.2-15.4 14.6 0-10.2.3-19.6-.2-29-.4-9.1-1-18.4-4.7-27.4-2.4 2-2.6 4.5-3 6.8-2.4 15.3-2.8 30.7-3.3 46.2-1.5 44.7-2.4 89.4-3.2 134l-.6 23.2c0 2.4-.5 3-3 2.2a90.7 90.7 0 0 1-30.3-18.8c-20.4-18-34.6-40-39.9-67a121.1 121.1 0 0 1 4.4-58.3c8.6-29 23-54.5 44.7-75.8a99.7 99.7 0 0 1 12.4-10 32.2 32.2 0 0 1 33.9-3.4 154 154 0 0 1 57.2 45.6 120.4 120.4 0 0 1 26 53.6c4.5 24.2-.5 47-12 68.2a135.1 135.1 0 0 1-67.3 62.7c-2.4 1-5 1.7-7.6 2.6-2.2.7-3.3.3-3.3-2.5l-.2-43.1c0-2.1 1-3.5 2.2-5 11.2-13.6 23-27 33.4-41.2a56.5 56.5 0 0 0 7.5-14.4c.4-1.1 1.6-2.6 0-3.6-1.1-.8-2.2.4-3 1.1-3.2 2.7-6.4 5.3-9.4 8.1-10.5 10.2-20 21.4-30.8 32.1z"/><circle class="cls-4" cx="792.2" cy="580.6" r="6.7"/><circle class="cls-11" cx="771.8" cy="518.3" r="6.7"/><path class="cls-3" d="M505.2 493v-61.8a8.6 8.6 0 0 1 1.8-5.4c5.4-7.5 10.8-15 16-22.7 1.1-1.6 3.3-3.9 1.6-5.4s-3.7.9-5.2 2.2c-4.6 4.1-9 8.5-14.1 13.4 0-9.4.3-18-.1-26.6s-1-16.9-4.4-25.2c-2.2 2-2.4 4.2-2.7 6.3-2.2 14-2.6 28.2-3.1 42.3-1.4 41-2.2 82-3 123-.1 7.1-.5 14.2-.5 21.2 0 2.2-.5 2.8-2.7 2a82.4 82.4 0 0 1-27.9-17.2 108.5 108.5 0 0 1-36.5-61.4c-3.5-18.2-1.3-36 4-53.5 7.9-26.6 21.1-50 41-69.6a91.4 91.4 0 0 1 11.3-9.2c9.9-7 20.1-8 31.2-3a140 140 0 0 1 52.4 41.8 110.6 110.6 0 0 1 23.9 49.2c4.1 22.2-.5 43-11 62.6-14.2 26-34 45.9-61.7 57.5-2.3 1-4.7 1.5-7 2.3-2 .7-3 .3-3-2.2l-.2-39.6c0-2 1-3.2 2-4.5 10.3-12.6 21-24.7 30.6-37.8a51.8 51.8 0 0 0 7-13.3c.3-1 1.4-2.4 0-3.3-1-.7-2.1.4-2.9 1-2.9 2.5-5.8 4.9-8.5 7.5-9.7 9.3-18.4 19.5-28.3 29.4z"/><circle class="cls-7" cx="554.5" cy="448.5" r="6.1"/><circle class="cls-8" cx="535.7" cy="391.3" r="6.1"/><path class="cls-3" d="M499.8 699.8l5.2.1a19.6 19.6 0 0 1 1.4-3.6l-.2-21.4a5.2 5.2 0 0 1-1.2-2.8c-.1-2 1-3.9 1.3-5.8-.2.6-.2-2-.3-2.5-.5-2.5-.8-5.2.8-7.7l-.8-.1v-44c-1-1.6-.9-3.3-.3-5.1v-.1c-.2-.6.4-1.5.5-2a15 15 0 0 0 .2-1.8c-.4-.7-.5-1-.4-1a4 4 0 0 1 .1-3.2c-.7-12.4 2-24.6-7.1-36.5-4.2 1.3-4.2 3-4.7 4.5-3.6 9.8-4.2 19.8-5 29.7a2679 2679 0 0 0-4.8 88.1c-.2 5-1 10.2-.9 15.2a3.3 3.3 0 0 1 0 .3c5.4-.2 10.8-.3 16.2-.2z"/><path class="cls-10" d="M1257.6 573.5v-54.7a7.6 7.6 0 0 1 1.6-4.7 968 968 0 0 0 14.1-20c1-1.4 3-3.5 1.4-4.8s-3.3.8-4.5 1.9c-4.1 3.7-8 7.5-12.6 11.8 0-8.2.4-15.8 0-23.4s-.8-15-4-22.3c-1.9 1.7-2 3.7-2.3 5.6-2 12.4-2.3 24.9-2.7 37.4a6558 6558 0 0 0-2.6 108.6l-.5 18.8c0 1.9-.4 2.4-2.4 1.7a73 73 0 0 1-24.6-15.2 96 96 0 0 1-32.2-54.3 98.2 98.2 0 0 1 3.5-47.2c7-23.5 18.6-44.2 36.2-61.4a80.8 80.8 0 0 1 10-8.2c8.7-6.1 17.7-7 27.5-2.7a123.5 123.5 0 0 1 46.3 37 98.8 98.8 0 0 1 21.1 43.5c3.7 19.6-.4 38-9.8 55.2-12.4 23-30 40.6-54.4 50.8-2 .9-4.1 1.4-6.2 2-1.8.7-2.7.4-2.7-2v-35a5.9 5.9 0 0 1 1.7-4c9-11 18.5-21.8 27-33.3a45.8 45.8 0 0 0 6.1-11.8c.3-.8 1.3-2 0-2.9-1-.6-1.8.4-2.5 1-2.5 2-5.1 4.2-7.5 6.5-8.6 8.4-16.3 17.4-25 26z"/><circle class="cls-10" cx="1301.1" cy="534.2" r="5.4"/><circle class="cls-4" cx="1284.5" cy="483.7" r="5.4"/><path class="cls-10" d="M1252.8 721.7h4.6a10.6 10.6 0 0 1 1.2-2.2l-.1-13.5a3 3 0 0 1-1.1-1.8c-.1-1.3.8-2.5 1.1-3.7-.1.4-.2-1.3-.3-1.6-.4-1.6-.6-3.3.8-4.8l-.7-.1v-28c-1-1-.8-2-.2-3.2-.2-.4.3-1 .4-1.3a6.9 6.9 0 0 0 .1-1.1c-.3-.4-.4-.6-.3-.7a1.9 1.9 0 0 1 .1-2c-.6-7.9 1.8-15.5-6.3-23-3.7.7-3.7 1.8-4.1 2.8-3.2 6.2-3.8 12.5-4.4 18.7-2 18.6-3.2 37.2-4.3 55.8-.2 3.2-.8 6.4-.7 9.6a1.5 1.5 0 0 1 0 .2c4.7-.1 9.4-.2 14.2-.1z"/><path class="cls-5" d="M1036.6 561.2v-76.1a10.5 10.5 0 0 1 2.2-6.6 1165 1165 0 0 0 19.8-28c1.3-1.9 4-4.7 1.9-6.6s-4.6 1-6.4 2.7c-5.6 5-11 10.4-17.4 16.4 0-11.5.4-22-.1-32.6a89.2 89.2 0 0 0-5.5-31c-2.6 2.4-2.8 5.1-3.2 7.7-2.8 17.3-3.2 34.7-3.8 52.1-1.7 50.4-2.7 100.9-3.7 151.3l-.6 26.1c0 2.7-.6 3.4-3.4 2.5-13-4.5-24-12.2-34.2-21.2-23-20.4-39-45-45-75.6a136.9 136.9 0 0 1 5-65.8c9.7-32.7 26-61.6 50.4-85.6a112.5 112.5 0 0 1 14-11.3c12-8.6 24.7-9.8 38.3-3.8 26 11.5 46.8 29.6 64.5 51.5a136.2 136.2 0 0 1 29.4 60.5c5 27.3-.6 53-13.6 77a152.5 152.5 0 0 1-76 70.8c-2.7 1.1-5.6 1.8-8.4 2.8-2.6.9-3.8.4-3.8-2.7q0-24.4-.2-48.7c0-2.4 1.1-3.9 2.5-5.5 12.6-15.5 25.8-30.5 37.6-46.6a63.7 63.7 0 0 0 8.5-16.3c.4-1.2 1.8-3 0-4-1.2-.9-2.5.5-3.5 1.3-3.5 3-7.1 6-10.5 9.1-12 11.5-22.7 24-34.8 36.2z"/><circle class="cls-12" cx="1074.1" cy="436.1" r="7.5"/><path class="cls-5" d="M1030 767.6h6.3a14.7 14.7 0 0 1 1.7-3l-.2-19a4 4 0 0 1-1.5-2.4c-.1-1.8 1.2-3.5 1.6-5.2-.2.6-.3-1.7-.4-2.1-.6-2.3-1-4.6 1-6.8h-1v-39c-1.3-1.4-1-2.9-.3-4.5-.2-.5.5-1.3.7-1.8a9.6 9.6 0 0 0 .1-1.6c-.5-.6-.5-.8-.4-1a2.6 2.6 0 0 1 .1-2.7c-.9-11 2.5-21.6-8.8-32.1-5.1 1-5 2.6-5.8 4-4.4 8.6-5.1 17.4-6 26.1-2.8 25.9-4.4 51.8-6 77.6-.3 4.5-1 9-1 13.4a2 2 0 0 1 0 .3c6.6-.2 13.2-.3 19.9-.2z"/><path class="cls-10" d="M310 517.1v-76a10.5 10.5 0 0 1 2.2-6.6c6.6-9.3 13.3-18.6 19.7-28 1.3-2 4-4.8 2-6.7s-4.7 1-6.4 2.7c-5.7 5.1-11.2 10.5-17.5 16.5 0-11.5.4-22-.1-32.6a89.2 89.2 0 0 0-5.4-31c-2.7 2.4-2.9 5.1-3.3 7.7-2.7 17.3-3.2 34.7-3.8 52-1.7 50.5-2.7 101-3.6 151.4-.2 8.7-.6 17.4-.7 26.1 0 2.7-.5 3.4-3.3 2.4-13-4.4-24.1-12.1-34.3-21.1-23-20.4-39-45-45-75.6a136.9 136.9 0 0 1 5-65.8c9.7-32.7 26-61.6 50.4-85.6a112.5 112.5 0 0 1 14-11.3 36.4 36.4 0 0 1 38.3-3.8c26 11.5 46.8 29.6 64.5 51.5 14.3 17.8 25 37.7 29.3 60.5 5.1 27.3-.5 52.9-13.6 77a152.5 152.5 0 0 1-75.9 70.7c-2.7 1.2-5.7 1.9-8.5 2.9-2.6.8-3.8.4-3.8-2.8q.1-24.3-.2-48.7c0-2.3 1.1-3.9 2.5-5.5 12.6-15.5 25.9-30.4 37.7-46.6a63.7 63.7 0 0 0 8.4-16.3c.5-1.2 1.9-3 .1-4-1.3-.8-2.6.5-3.5 1.3-3.6 3-7.2 6-10.5 9.2-11.9 11.4-22.6 24-34.7 36.1z"/><circle class="cls-11" cx="347.5" cy="392" r="7.5"/><path class="cls-10" d="M303.3 723.5l6.4.1a14.7 14.7 0 0 1 1.7-3.1q0-9.5-.2-18.9a4 4 0 0 1-1.5-2.5c-.2-1.7 1.1-3.4 1.6-5.1-.2.6-.3-1.8-.4-2.2-.6-2.2-1-4.6 1-6.8h-1v-39c-1.3-1.5-1-3-.3-4.6-.3-.5.5-1.3.6-1.7a9.6 9.6 0 0 0 .2-1.7c-.5-.5-.6-.8-.5-.9a2.6 2.6 0 0 1 .2-2.8c-1-11 2.5-21.6-8.8-32.1-5.1 1-5.1 2.6-5.8 4-4.4 8.7-5.2 17.4-6.1 26.2-2.8 25.8-4.3 51.7-6 77.6-.2 4.4-1 8.9-1 13.3a2 2 0 0 1 0 .3 443 443 0 0 1 20-.2z"/><circle class="cls-4" cx="367.9" cy="461.8" r="6.1"/><circle class="cls-8" cx="439.9" cy="599.8" r="6.1"/><circle class="cls-9" cx="1092.9" cy="505.8" r="6.1"/></g><path class="cls-5" d="M405 111.4h8.3v-26a4.6 4.6 0 0 0-.3-1.6 2.2 2.2 0 0 0-.6-1 2.2 2.2 0 0 0-1-.4 6.4 6.4 0 0 0-1.3-.1 12.3 12.3 0 0 0-2.5.3 20.8 20.8 0 0 0-3.1 1 26.2 26.2 0 0 0-3.3 1.6 16 16 0 0 0-3 2A10.7 10.7 0 0 0 396 90a6.3 6.3 0 0 0-.8 3.2 5.8 5.8 0 0 0 .4 2.3 3.7 3.7 0 0 0 .9 1.3 2.3 2.3 0 0 0 1 .6 4 4 0 0 0 .8 0 4 4 0 0 0 1.8-.3 10.9 10.9 0 0 0 1.4-.8l1-.8a2 2 0 0 1 1.3-.4 3.1 3.1 0 0 1 1.2.2 3.3 3.3 0 0 1 1.1.8 4.6 4.6 0 0 1 .9 1.5 5.7 5.7 0 0 1 .4 2.1 6.6 6.6 0 0 1-.7 3.2 7 7 0 0 1-1.9 2.2 7.6 7.6 0 0 1-2.5 1.3 9.8 9.8 0 0 1-2.9.5 10 10 0 0 1-4-.8 8.7 8.7 0 0 1-3-2 9 9 0 0 1-1.9-3.2 11.1 11.1 0 0 1-.6-3.8 14.4 14.4 0 0 1 1.1-5.8 16.3 16.3 0 0 1 3.2-4.7 21.2 21.2 0 0 1 4.6-3.7 30.8 30.8 0 0 1 5.8-2.6 38.9 38.9 0 0 1 6.5-1.6 44 44 0 0 1 6.9-.6 18.9 18.9 0 0 1 5.8.7 7.8 7.8 0 0 1 3.1 1.7 4 4 0 0 1 1.2 2.1 11.6 11.6 0 0 1 .1 1.9v27h16.9v-22a37.1 37.1 0 0 1 2-12.9 25.8 25.8 0 0 1 5-8.7 19 19 0 0 1 7-4.9 20.5 20.5 0 0 1 7.7-1.5 30.5 30.5 0 0 1 5 .4A17.1 17.1 0 0 1 476 63a8.2 8.2 0 0 1 2.9 2 4 4 0 0 1 1 2.6 4.1 4.1 0 0 1-.8 2.5 3 3 0 0 1-.8.8 1.8 1.8 0 0 1-1 .3 2.3 2.3 0 0 1-1.5-.5 6.8 6.8 0 0 1-1.2-1.3l-1.1-1.7a11 11 0 0 0-1.3-1.6 6.5 6.5 0 0 0-1.5-1.3 4 4 0 0 0-2-.5 6.3 6.3 0 0 0-4.6 1.5 9.7 9.7 0 0 0-2.5 4.5 33.1 33.1 0 0 0-1.1 7.4q-.3 4.4-.3 10v23.7h9.2v4h-9.2v27.8a3.6 3.6 0 0 0 .6 2.1 2 2 0 0 0 1.7.8 6.1 6.1 0 0 0 2.4-.4l2-.9.7 1.7-2.3 1.4a27.2 27.2 0 0 1-3 1.4 23.3 23.3 0 0 1-3.5 1.1 16.9 16.9 0 0 1-3.9.5 13 13 0 0 1-5-.8 7.3 7.3 0 0 1-3-2.2 7.2 7.2 0 0 1-1.4-3 17.2 17.2 0 0 1-.3-3.4v-26h-16.8v22.8A24.4 24.4 0 0 1 426 149a22 22 0 0 1-6.2 7.7 26.9 26.9 0 0 1-9.3 4.6 41.2 41.2 0 0 1-11.4 1.6 25.2 25.2 0 0 1-4.5-.4 18.4 18.4 0 0 1-3.8-1.1 8.5 8.5 0 0 1-2.6-1.6 2.8 2.8 0 0 1-1-2 6.4 6.4 0 0 1 .2-1.7 5.2 5.2 0 0 1 .7-1.5 4.2 4.2 0 0 1 1.1-1.2 2.6 2.6 0 0 1 1.5-.4 1.1 1.1 0 0 1 1 .5 9.6 9.6 0 0 1 .7 1.2l1 1.7a7.1 7.1 0 0 0 1.3 1.6 7.3 7.3 0 0 0 2 1.2 7.7 7.7 0 0 0 3 .5 13.3 13.3 0 0 0 6-1.2 11.3 11.3 0 0 0 4.3-3.7 16.4 16.4 0 0 0 2.4-5.5 29.3 29.3 0 0 0 .8-7v-27H405zm85.3-8.7a10.8 10.8 0 0 0-2.9.3 10 10 0 0 0-2.2 1 5.4 5.4 0 0 0-1.6 1.2 2 2 0 0 0-.5 1.2 1 1 0 0 0 .7 1l1.6.7a5.3 5.3 0 0 1 1.6 1.1 3 3 0 0 1 .7 2.2 4 4 0 0 1-.4 1.7 4.8 4.8 0 0 1-2.6 2.4 5.1 5.1 0 0 1-1.9.4 5.3 5.3 0 0 1-4.1-1.8 6.6 6.6 0 0 1-1.6-4.6 7.8 7.8 0 0 1 1.5-4.8 11.4 11.4 0 0 1 3.8-3.2 19.3 19.3 0 0 1 5.3-2 29.6 29.6 0 0 1 12.8.2 17.3 17.3 0 0 1 5.7 2.5 12.8 12.8 0 0 1 4 4.3 12.6 12.6 0 0 1 1.5 6.3v26.8a2.9 2.9 0 0 0 .2 1 1.7 1.7 0 0 0 .6.6 1.7 1.7 0 0 0 1 .3 2.3 2.3 0 0 0 1.6-.7 12.2 12.2 0 0 0 1.2-1.2l1.2 1q-.7 1-1.7 2a13.2 13.2 0 0 1-5.5 4 11.8 11.8 0 0 1-4.2.6 8.2 8.2 0 0 1-5.1-1.7 8.3 8.3 0 0 1-3-5.3 19.5 19.5 0 0 1-3 3.3 16.5 16.5 0 0 1-3.2 2.2 14.3 14.3 0 0 1-3.3 1.2 15.7 15.7 0 0 1-3.4.3 13.4 13.4 0 0 1-4.2-.7 10.2 10.2 0 0 1-3.7-2.1 10.7 10.7 0 0 1-2.6-4 15.2 15.2 0 0 1-1-5.7 12.8 12.8 0 0 1 1.6-6.8 14.7 14.7 0 0 1 4.4-4.5 29.2 29.2 0 0 1 6-3l7-2.8a7.5 7.5 0 0 0 4-3.1 8.4 8.4 0 0 0 1.1-4.3 7.4 7.4 0 0 0-2-5.4 7.2 7.2 0 0 0-5.4-2.1zm7.3 20a2.1 2.1 0 0 0-.7-1.8 2.9 2.9 0 0 0-2-.6 6.6 6.6 0 0 0-3 .8 7.5 7.5 0 0 0-2.5 2.1 10.9 10.9 0 0 0-1.7 3.5 16.4 16.4 0 0 0-.6 4.9 20.6 20.6 0 0 0 .4 4.3 8.6 8.6 0 0 0 1 2.8 3.8 3.8 0 0 0 1.5 1.5 4.2 4.2 0 0 0 1.8.4 4.4 4.4 0 0 0 2.3-.6 6.7 6.7 0 0 0 1.8-1.6 8 8 0 0 0 1.2-2.1 6.6 6.6 0 0 0 .5-2.4zm55.1-7.9a5.8 5.8 0 0 1-2.3-.5 4.2 4.2 0 0 1-1.6-1.2 4.8 4.8 0 0 1-.9-1.6 6.3 6.3 0 0 1-.2-1.8 17 17 0 0 1 .1-2.4 7.9 7.9 0 0 0 0-2 2.3 2.3 0 0 0-.7-1.5 3.1 3.1 0 0 0-2.1-.6 7.5 7.5 0 0 0-3.4 1 9.5 9.5 0 0 0-3.2 2.8 16.8 16.8 0 0 0-2.5 5 25.2 25.2 0 0 0-1 7.5 39.9 39.9 0 0 0 1 8.8 21 21 0 0 0 2.7 6.7 13 13 0 0 0 4.4 4.3 13.2 13.2 0 0 0 9.3 1.2 13.5 13.5 0 0 0 2.7-1 17.5 17.5 0 0 0 2.5-1.5q1.2-.8 2.3-1.8l1 1.1a31.3 31.3 0 0 1-2.6 3.1 22 22 0 0 1-4 3.2 23 23 0 0 1-5.5 2.5 23.5 23.5 0 0 1-7 1 20.4 20.4 0 0 1-7.8-1.6 20 20 0 0 1-6.7-4.4 22 22 0 0 1-4.7-7.2 24.4 24.4 0 0 1-1.8-9.5 26.5 26.5 0 0 1 1-7.7 25.3 25.3 0 0 1 3-6.3 23.9 23.9 0 0 1 4.1-5 26.7 26.7 0 0 1 5.1-3.6 24.4 24.4 0 0 1 5.4-2.2 20.9 20.9 0 0 1 5.4-.7 20 20 0 0 1 5.9.8 13.3 13.3 0 0 1 4.1 2 8.4 8.4 0 0 1 2.5 3 7.7 7.7 0 0 1 .9 3.5 9.3 9.3 0 0 1-.4 2.5 6.4 6.4 0 0 1-1 2.2 4.9 4.9 0 0 1-1.7 1.4 5 5 0 0 1-2.3.5zm27.6-3.4l3.4-4.4a31.5 31.5 0 0 1 4-4 20.1 20.1 0 0 1 4.5-3 12.7 12.7 0 0 1 5.4-1 8.4 8.4 0 0 1 4.4 1 9.5 9.5 0 0 1 2.8 2.4 9.1 9.1 0 0 1 1.5 3 10.2 10.2 0 0 1 .4 2.6 17.8 17.8 0 0 1-.5 4.2 15.7 15.7 0 0 1-1.8 4.3 19.1 19.1 0 0 1-3.3 4.2 23 23 0 0 1-5.4 3.6 158 158 0 0 0 8.4 15.7 78.4 78.4 0 0 0 7.9 10.8 30.8 30.8 0 0 0 7.2 6.3 13.3 13.3 0 0 0 6.7 2 4.5 4.5 0 0 0 1-.2 7.9 7.9 0 0 0 1-.3 10 10 0 0 0 1.1-.5l.9 1.6-2.5 1.3a17.7 17.7 0 0 1-3 1.1 27.2 27.2 0 0 1-3.7.7 41.2 41.2 0 0 1-5.2.3 22.5 22.5 0 0 1-5.3-.6 18.2 18.2 0 0 1-5.3-2.3 29.9 29.9 0 0 1-5.4-4.4 49 49 0 0 1-5.6-7 100 100 0 0 1-5.8-10q-3-5.8-6.3-13.6a48 48 0 0 0 6.9-6 29.5 29.5 0 0 0 3.8-5 13 13 0 0 0 1.6-4 16.9 16.9 0 0 0 .3-3v-.6a2 2 0 0 0-.3-.9 2.4 2.4 0 0 0-.7-.7 2.4 2.4 0 0 0-1.4-.3 5.4 5.4 0 0 0-3.4 1.4 20.3 20.3 0 0 0-3.3 3.6 34.6 34.6 0 0 0-2.9 4.6l-2 4.4v23.7a6 6 0 0 1-.3 1.4 3.3 3.3 0 0 1-1 1.6 6.2 6.2 0 0 1-2.2 1.2 11.6 11.6 0 0 1-3.9.6 10.2 10.2 0 0 1-3.8-.6 5.3 5.3 0 0 1-2-1.4 3.5 3.5 0 0 1-.8-1.5 7.2 7.2 0 0 1-.1-1.4v-59a4.3 4.3 0 0 0-.6-2.3 2.3 2.3 0 0 0-2.1-1 3.3 3.3 0 0 0-1.4.3 5.7 5.7 0 0 0-1.2.7l-1-1.1a27.4 27.4 0 0 1 2.4-1.7 17 17 0 0 1 2.8-1.5 21.1 21.1 0 0 1 3.3-1 15.8 15.8 0 0 1 3.7-.5 10.8 10.8 0 0 1 4.6.8 6 6 0 0 1 2.4 2 5.7 5.7 0 0 1 1 2.5 19.3 19.3 0 0 1 .1 2.3z"/><path class="cls-5" d="M630.7 102.8v33.9a4.8 4.8 0 0 0 1 3.3 3.4 3.4 0 0 0 2.5 1 3.7 3.7 0 0 0 2.2-.7 8 8 0 0 0 1.6-1.6 9.7 9.7 0 0 0 1.4-2.2l1.5.6-1.7 3.2a12.7 12.7 0 0 1-6.4 5.7 15.2 15.2 0 0 1-5.9 1 12.6 12.6 0 0 1-3.9-.6 9 9 0 0 1-3.3-1.8 9.4 9.4 0 0 1-2.3-3.2 11.2 11.2 0 0 1-.8-4.7V103h-5.2v-3.3a13.8 13.8 0 0 0 3.6-.7 17.8 17.8 0 0 0 4.7-2.2 18.7 18.7 0 0 0 4.5-4.2 16 16 0 0 0 2.9-6.4h3.6v13.5h7.5q3.7 0 3.7-1.3a.6.6 0 0 0-.5-.6l-1-.4a3.3 3.3 0 0 1-1-.7 2 2 0 0 1-.5-1.5 2.6 2.6 0 0 1 .8-2 3 3 0 0 1 2.1-.8 3 3 0 0 1 1.5.4 3.1 3.1 0 0 1 1 .9 4.1 4.1 0 0 1 .6 1.3 5.4 5.4 0 0 1 .2 1.5 6.5 6.5 0 0 1-1.7 4.7q-1.7 1.8-5.5 1.8zm12.9 20.2a29 29 0 0 1 1.8-10.5 22.2 22.2 0 0 1 4.6-7.5 18.8 18.8 0 0 1 6.8-4.5 21.8 21.8 0 0 1 8-1.5 23.4 23.4 0 0 1 8 1.4 18.4 18.4 0 0 1 6.8 4.2 21 21 0 0 1 4.7 7.3 28.5 28.5 0 0 1 1.7 10.4 30 30 0 0 1-1.7 10.7 23.6 23.6 0 0 1-4.7 7.8 19.3 19.3 0 0 1-6.7 4.8 20.5 20.5 0 0 1-8 1.6 21.6 21.6 0 0 1-8.1-1.5 19 19 0 0 1-6.8-4.6 22.2 22.2 0 0 1-4.6-7.5 29.3 29.3 0 0 1-1.8-10.6zm28.2-.5q0-3.6-.3-7a31.8 31.8 0 0 0-1-6 10.7 10.7 0 0 0-2-4.3 4.6 4.6 0 0 0-3.7-1.6 4.5 4.5 0 0 0-3.6 1.7 11.6 11.6 0 0 0-2.1 4.4 32 32 0 0 0-1 6.2q-.3 3.4-.3 7.1t.3 7.2a32.6 32.6 0 0 0 1 6.2 11.6 11.6 0 0 0 2 4.4 4.5 4.5 0 0 0 3.7 1.7 4.4 4.4 0 0 0 3.6-1.7 12.3 12.3 0 0 0 2.1-4.6 36 36 0 0 0 1-6.4q.3-3.6.3-7.3zM693 83.3a4.3 4.3 0 0 0-.6-2.3 2.3 2.3 0 0 0-2-1 3.3 3.3 0 0 0-1.4.2 5.8 5.8 0 0 0-1.2.8l-1-1.1a25.8 25.8 0 0 1 2.4-1.8 18.4 18.4 0 0 1 2.9-1.4 20.3 20.3 0 0 1 3.2-1 15.8 15.8 0 0 1 3.7-.5 9.7 9.7 0 0 1 4.2.8 6.6 6.6 0 0 1 2.5 2 6.5 6.5 0 0 1 1.1 2.5 12.6 12.6 0 0 1 .3 2.5v20.4l1.4-1.3a12.8 12.8 0 0 1 2.2-1.4 14.5 14.5 0 0 1 3.2-1.3 16.8 16.8 0 0 1 4.4-.5 13.9 13.9 0 0 1 5.8 1.4 14.7 14.7 0 0 1 5.3 4.2 22.8 22.8 0 0 1 3.8 7.4 35.6 35.6 0 0 1 1.5 10.9 32.3 32.3 0 0 1-1.4 9.4 23 23 0 0 1-4 7.8 18.9 18.9 0 0 1-6.6 5.2 21 21 0 0 1-9.3 2 22.4 22.4 0 0 1-9.6-2 16.7 16.7 0 0 1-6.3-5 19.8 19.8 0 0 1-3.4-7.2 36.5 36.5 0 0 1-1-8.8zm27.3 40.3a64.2 64.2 0 0 0-.4-7.4 29.1 29.1 0 0 0-1.3-6.2 11.8 11.8 0 0 0-2.3-4.2 4.8 4.8 0 0 0-6-.7 7.3 7.3 0 0 0-1.8 1.7 7.4 7.4 0 0 0-1 1.9 5 5 0 0 0-.4 1.2v13.7q0 10 1.7 14.5t5 4.6q3.3 0 5-4.7t1.5-14.4zm35 1.8a13 13 0 0 0 .4 3.2 19 19 0 0 0 1.3 3.5 18.3 18.3 0 0 0 2 3.3 15.7 15.7 0 0 0 2.8 2.8 13.3 13.3 0 0 0 3.5 2 11.7 11.7 0 0 0 4.2.7 11.5 11.5 0 0 0 3-.4 11.8 11.8 0 0 0 2.5-1 16.8 16.8 0 0 0 2.3-1.4l2.2-1.9 1.2 1.1a31.3 31.3 0 0 1-2.7 3.2 22 22 0 0 1-4 3.1 23 23 0 0 1-5.5 2.5 23.5 23.5 0 0 1-7 1 21.6 21.6 0 0 1-7.8-1.4 19.3 19.3 0 0 1-6.7-4.4 21.2 21.2 0 0 1-4.7-7.2 29 29 0 0 1-.7-17.7 24.5 24.5 0 0 1 2.8-6.2 23.4 23.4 0 0 1 4.2-5 26.2 26.2 0 0 1 5.1-3.4 25 25 0 0 1 5.4-2.1 21.5 21.5 0 0 1 5.4-.8 21.3 21.3 0 0 1 5.9.8 13.2 13.2 0 0 1 4.1 2 8.2 8.2 0 0 1 2.5 2.8 7.5 7.5 0 0 1 .9 3.4 6.5 6.5 0 0 1-1.3 4 11.4 11.4 0 0 1-3.3 3zm9.2-9.3a7.2 7.2 0 0 0 1-.7 2.5 2.5 0 0 0 .6-.8 4.5 4.5 0 0 0 .4-1.2 11.5 11.5 0 0 0 0-1.7 14.4 14.4 0 0 0-.2-2.6 10.2 10.2 0 0 0-.8-2.6 6.6 6.6 0 0 0-1.5-2 3.2 3.2 0 0 0-2.2-.9 4.2 4.2 0 0 0-2.8 1 7.6 7.6 0 0 0-2 2.5 15.8 15.8 0 0 0-1.2 3.6 39.7 39.7 0 0 0-.6 4l-.3 3.9v3zm37-7.5a37.7 37.7 0 0 1 3.7-4.8 24.7 24.7 0 0 1 1.8-1.8 17.2 17.2 0 0 1 2-1.6 10.4 10.4 0 0 1 2.1-1 6.2 6.2 0 0 1 2.2-.5 4.8 4.8 0 0 1 3.7 1.4 5.5 5.5 0 0 1 1.3 4 17.5 17.5 0 0 1-.2 3 22.3 22.3 0 0 1-1 3.4h-1.3a4.2 4.2 0 0 0-1.3-2.3 4.2 4.2 0 0 0-3-1 7.8 7.8 0 0 0-2.7.6 17.4 17.4 0 0 0-2.7 1.3 23.6 23.6 0 0 0-2.5 1.7l-2 1.7v29.7a6.7 6.7 0 0 1-.3 1.4 3.3 3.3 0 0 1-.9 1.6 5.7 5.7 0 0 1-2 1.2 11.2 11.2 0 0 1-3.9.6 10.3 10.3 0 0 1-3.8-.6 6 6 0 0 1-2.1-1.4 3.5 3.5 0 0 1-1-1.5 6.4 6.4 0 0 1-.1-1.4V107a4.3 4.3 0 0 0-.7-2.3 2.3 2.3 0 0 0-2-1 3 3 0 0 0-1.4.3 7.1 7.1 0 0 0-1.2.7l-1-1.1a25.7 25.7 0 0 1 2.4-1.7 18.4 18.4 0 0 1 2.8-1.5 20.3 20.3 0 0 1 3.3-1 15.8 15.8 0 0 1 3.6-.5 9.6 9.6 0 0 1 3.4.6 6.8 6.8 0 0 1 2.3 1.3 6.5 6.5 0 0 1 1.4 2 10.5 10.5 0 0 1 .7 2 11.4 11.4 0 0 1 .3 2.1v1.7z"/><path class="cls-5" d="M846.6 78.4a5.5 5.5 0 0 0-2.4.5 5.2 5.2 0 0 0-2 1.8 9.8 9.8 0 0 0-1.3 3 17.6 17.6 0 0 0-.5 4.6v11.3h10v3.3h-10v36a38.8 38.8 0 0 1-1.6 11.5 25 25 0 0 1-5 9 22.6 22.6 0 0 1-8.2 6 28.7 28.7 0 0 1-11.5 2.2 25.2 25.2 0 0 1-4.5-.4 18.4 18.4 0 0 1-3.8-1 8.6 8.6 0 0 1-2.6-1.7 2.8 2.8 0 0 1-1-2 6.4 6.4 0 0 1 .2-1.7 5.2 5.2 0 0 1 .7-1.5 4 4 0 0 1 1-1.2 2.7 2.7 0 0 1 1.6-.4 1.1 1.1 0 0 1 1 .5 10.1 10.1 0 0 1 .7 1.3l1 1.6a6.8 6.8 0 0 0 1.3 1.6 7.2 7.2 0 0 0 2 1.2 7.7 7.7 0 0 0 3 .5 8.7 8.7 0 0 0 4.1-.9 9.4 9.4 0 0 0 3-2.6 15.3 15.3 0 0 0 2.2-3.9 28.5 28.5 0 0 0 1.4-4.8 45 45 0 0 0 .7-5.4l.2-5.5v-38.4h-8.4v-3.3h8.4v-5.4a22.6 22.6 0 0 1 1-7 17 17 0 0 1 2.6-5.1 14.8 14.8 0 0 1 3.7-3.4 21.2 21.2 0 0 1 4.2-2.1 20 20 0 0 1 4.1-1 26.5 26.5 0 0 1 3.5-.3 31 31 0 0 1 5.8.4 17.7 17.7 0 0 1 4.2 1.3 7.3 7.3 0 0 1 2.6 1.8 3.4 3.4 0 0 1 .9 2.2 5.9 5.9 0 0 1-.3 1.7 6 6 0 0 1-.7 1.5 3.8 3.8 0 0 1-1.1 1.2 2.6 2.6 0 0 1-1.5.4 1.1 1.1 0 0 1-1-.6 12 12 0 0 1-.8-1.3l-1-1.8a8.9 8.9 0 0 0-1.3-1.8 7 7 0 0 0-2-1.4 5.8 5.8 0 0 0-2.6-.5zm18.9 47a13 13 0 0 0 .4 3.2 19 19 0 0 0 1.3 3.5 18.3 18.3 0 0 0 2 3.3 15.7 15.7 0 0 0 2.7 2.8 13.3 13.3 0 0 0 3.5 2 11.7 11.7 0 0 0 4.2.7 11.5 11.5 0 0 0 3-.4 11.8 11.8 0 0 0 2.6-1 16.8 16.8 0 0 0 2.3-1.4l2.2-1.9 1.1 1.1a31.3 31.3 0 0 1-2.7 3.2 22 22 0 0 1-4 3.1 23 23 0 0 1-5.4 2.5 23.5 23.5 0 0 1-7.1 1 21.6 21.6 0 0 1-7.8-1.4 19.3 19.3 0 0 1-6.7-4.4 21.2 21.2 0 0 1-4.7-7.2 29 29 0 0 1-.7-17.7 24.5 24.5 0 0 1 2.9-6.2 23.4 23.4 0 0 1 4.2-5 26.2 26.2 0 0 1 5-3.4 25 25 0 0 1 5.5-2.1 21.5 21.5 0 0 1 5.3-.8 21.3 21.3 0 0 1 6 .8 13.2 13.2 0 0 1 4.1 2 8.2 8.2 0 0 1 2.5 2.8 7.5 7.5 0 0 1 .8 3.4 6.5 6.5 0 0 1-1.2 4 11.4 11.4 0 0 1-3.3 3zm9.2-9.3a7.2 7.2 0 0 0 1-.7 2.5 2.5 0 0 0 .6-.8 4.5 4.5 0 0 0 .3-1.2 11.5 11.5 0 0 0 .1-1.7 14.4 14.4 0 0 0-.2-2.6 10.2 10.2 0 0 0-.9-2.6 6.6 6.6 0 0 0-1.5-2 3.2 3.2 0 0 0-2.2-.9 4.2 4.2 0 0 0-2.8 1 7.6 7.6 0 0 0-2 2.5 15.8 15.8 0 0 0-1.1 3.6 39.7 39.7 0 0 0-.7 4l-.2 3.9v3zm37-13.5a7 7 0 0 0-2 .3 4.5 4.5 0 0 0-1.6.8 4.2 4.2 0 0 0-1.2 1.6 5.5 5.5 0 0 0-.4 2.2 6 6 0 0 0 1.3 3.6 30.7 30.7 0 0 0 3.3 3.6l4.2 4a46.7 46.7 0 0 1 4.2 4.3 24.4 24.4 0 0 1 3.2 4.8 12 12 0 0 1 1.3 5.5 14.5 14.5 0 0 1-1 5.8 12 12 0 0 1-3.3 4.4 14.3 14.3 0 0 1-5 2.7 21.6 21.6 0 0 1-6.6 1 17.3 17.3 0 0 1-5.7-1 20.7 20.7 0 0 1-4.5-2.1 19.9 19.9 0 0 1-3.4-2.8 18.4 18.4 0 0 1-2.2-2.6l1.6-1.2a15.4 15.4 0 0 0 1.5 1.5 14.8 14.8 0 0 0 2 1.5 12 12 0 0 0 2.4 1.1 8 8 0 0 0 2.6.4 8.8 8.8 0 0 0 5.4-1.5 5.5 5.5 0 0 0 2-4.7 6.8 6.8 0 0 0-1-3.6 28.3 28.3 0 0 0-3-3.8l-3.7-4.1a55.3 55.3 0 0 1-3.7-4.4 25.6 25.6 0 0 1-3-4.6 11.3 11.3 0 0 1-1-5 10.4 10.4 0 0 1 1.1-5 10.6 10.6 0 0 1 3.1-3.5 14 14 0 0 1 4.5-2.1 18.7 18.7 0 0 1 5.1-.7 26.3 26.3 0 0 1 5.6.5 13.7 13.7 0 0 1 4.3 1.7 8 8 0 0 1 2.8 2.8 7.7 7.7 0 0 1 1 4 4.4 4.4 0 0 1-1.1 3 4 4 0 0 1-3.2 1.2 4.6 4.6 0 0 1-3-.8 2.8 2.8 0 0 1-1-2.3 2.2 2.2 0 0 1 .5-1.5 4.2 4.2 0 0 1 1-1l1.1-.5a.8.8 0 0 0 .5-.7 2.3 2.3 0 0 0-1.4-2 7.3 7.3 0 0 0-3.6-.8zm34.8.2v33.9a4.8 4.8 0 0 0 .9 3.3 3.4 3.4 0 0 0 2.5 1 3.7 3.7 0 0 0 2.2-.7 8 8 0 0 0 1.7-1.6 9.7 9.7 0 0 0 1.4-2.2l1.4.6-1.6 3.2a12.7 12.7 0 0 1-6.4 5.7 15.2 15.2 0 0 1-6 1 12.6 12.6 0 0 1-3.8-.6 9 9 0 0 1-3.3-1.8 9.4 9.4 0 0 1-2.3-3.2 11.2 11.2 0 0 1-1-4.7V103h-5v-3.3a13.8 13.8 0 0 0 3.5-.7 17.8 17.8 0 0 0 4.7-2.2 18.6 18.6 0 0 0 4.5-4.2 16 16 0 0 0 3-6.4h3.6v13.5h7.4q3.7 0 3.7-1.3a.6.6 0 0 0-.5-.6l-1-.4a3.3 3.3 0 0 1-1-.7 2 2 0 0 1-.4-1.5 2.6 2.6 0 0 1 .8-2 3 3 0 0 1 2-.8 3 3 0 0 1 1.5.4 3.1 3.1 0 0 1 1 .9 4.1 4.1 0 0 1 .6 1.3 5.4 5.4 0 0 1 .2 1.5 6.5 6.5 0 0 1-1.7 4.7q-1.7 1.8-5.5 1.8z"/><path class="cls-13" d="M973.9 96.2h31.7V71m-32.2 46.2h67.1m-66.2 18.6h52.3v17.7m-658-25.2h-31.8v25.2m37.2-46.1h-67.1M373 88.7h-52V71"/><circle class="cls-13" cx="1026.1" cy="164.3" r="4.7"/><circle class="cls-14" cx="1006" cy="64" r="3.3"/><circle class="cls-5" cx="1052.2" cy="116.7" r="4.7"/><circle class="cls-13" cx="320.4" cy="62.6" r="4.7"/><circle class="cls-14" cx="299.4" cy="107.8" r="3.3"/><circle class="cls-5" cx="336.8" cy="163.3" r="4.7"/></svg>