<svg id="Layer_1" data-name="Layer 1" xmlns="http://www.w3.org/2000/svg" viewBox="0 0 298 292"><defs><style>.cls-1,.cls-16{fill:none}.cls-2{fill:#273274}.cls-3{clip-path:url(#clip-path)}.cls-4{opacity:.8}.cls-5{clip-path:url(#clip-path-2)}.cls-11,.cls-6,.cls-7,.cls-8{fill:#ff544e}.cls-11,.cls-13,.cls-14,.cls-15,.cls-7,.cls-8,.cls-9{stroke:#273274}.cls-11,.cls-13,.cls-14,.cls-15,.cls-16,.cls-7,.cls-8,.cls-9{stroke-miterlimit:10}.cls-13,.cls-7{stroke-width:3px}.cls-14,.cls-15,.cls-8{stroke-width:2px}.cls-10,.cls-15,.cls-9{fill:#ff8c58}.cls-9{stroke-width:4px}.cls-11{stroke-width:5px}.cls-12,.cls-13,.cls-14{fill:#f7f7f7}.cls-16{stroke:#fff;stroke-width:19px}</style><clipPath id="clip-path"><circle class="cls-1" cx="149" cy="144.7" r="131.5"/></clipPath><clipPath id="clip-path-2"><path class="cls-1" d="M-159.5 74.5h752.4v204.6h-752.4z"/></clipPath></defs><title>hacktober circle and text</title><circle class="cls-2" cx="149.5" cy="146.6" r="128"/><g class="cls-3"><g class="cls-4"><g class="cls-5"><path class="cls-6" d="M11.1 256.4v-22.8a3.2 3.2 0 0 1 .7-2l5.9-8.4c.4-.6 1.2-1.4.6-2s-1.4.3-2 .8l-5.2 5c0-3.5.2-6.7 0-9.9s-.3-6.2-1.6-9.2a3.3 3.3 0 0 0-1 2.3 126.3 126.3 0 0 0-1.1 15.6c-.5 15-.8 30.2-1.1 45.3l-.2 7.8c0 .8-.2 1-1 .7a30.4 30.4 0 0 1-10.3-6.3 40 40 0 0 1-13.4-22.7 39.7 39.7 0 0 1 1.4-19.6 58.7 58.7 0 0 1 15.1-25.6 33.7 33.7 0 0 1 4.2-3.4 10.9 10.9 0 0 1 11.5-1.1c7.8 3.4 14 8.8 19.3 15.4a40.8 40.8 0 0 1 8.8 18.1 34 34 0 0 1-4.1 23 45.6 45.6 0 0 1-22.7 21.2l-2.6.9c-.9.3-1.1 0-1.1-.9v-14.5a2.5 2.5 0 0 1 .7-1.7c3.8-4.6 7.8-9.1 11.3-14a19 19 0 0 0 2.6-4.8c0-.4.5-1 0-1.2s-.8.1-1.1.3l-3.2 2.8c-3.6 3.5-6.8 7.2-10.4 10.9z"/><circle class="cls-2" cx="22.3" cy="218.9" r="2.3"/><path class="cls-6" d="M9.1 318.2h2a4.4 4.4 0 0 1 .4-1v-5.6a1.2 1.2 0 0 1-.5-.8c0-.5.4-1 .5-1.5l-.1-.6a2 2 0 0 1 .3-2h-.3V295a1.1 1.1 0 0 1 0-1.3c-.2-.2 0-.4.1-.5a2.9 2.9 0 0 0 0-.5v-.3a.8.8 0 0 1 0-.8c-.4-3.3.7-6.5-2.7-9.7-1.5.4-1.5.8-1.7 1.2-1.4 2.6-1.6 5.3-1.9 7.9-.8 7.7-1.3 15.5-1.7 23.2-.1 1.4-.4 2.7-.3 4a.6.6 0 0 1 0 .1c2-.1 4-.2 6-.1zm220.1-124.6v-32.4a4.5 4.5 0 0 1 1-2.8l8.4-12c.5-.8 1.7-2 .8-2.8s-2 .5-2.8 1.1l-7.4 7c0-4.9.2-9.4 0-13.9s-.5-8.9-2.3-13.2a4.8 4.8 0 0 0-1.4 3.3 179.8 179.8 0 0 0-1.7 22.2c-.7 21.5-1 43-1.5 64.5l-.3 11.1c0 1.2-.2 1.5-1.4 1a43.3 43.3 0 0 1-14.6-9 56.9 56.9 0 0 1-19.2-32.2 58 58 0 0 1 2.1-28 83.5 83.5 0 0 1 21.5-36.5 48 48 0 0 1 6-4.8 15.5 15.5 0 0 1 16.3-1.6 73.5 73.5 0 0 1 27.5 21.9c6.1 7.6 10.7 16 12.5 25.8a48.4 48.4 0 0 1-5.7 32.8 65 65 0 0 1-32.4 30.2l-3.6 1.2c-1.2.4-1.7.2-1.7-1.2v-20.7a3.5 3.5 0 0 1 1-2.4c5.3-6.6 11-13 16-19.8a27.2 27.2 0 0 0 3.6-7c.2-.5.8-1.3 0-1.7-.5-.4-1 .2-1.5.5-1.5 1.3-3 2.5-4.4 4-5 4.9-9.6 10.2-14.8 15.4z"/><circle class="cls-7" cx="255" cy="170.3" r="3.2"/><circle class="cls-8" cx="243.8" cy="139.8" r="2.7"/><path class="cls-6" d="M226.4 281.6h2.7a6.3 6.3 0 0 1 .7-1.4v-8a1.7 1.7 0 0 1-.7-1c0-.8.5-1.5.7-2.2-.1.2-.2-.8-.2-1a2.8 2.8 0 0 1 .4-2.8h-.4v-16.6a1.6 1.6 0 0 1 0-2c-.2-.1.1-.5.2-.6a4 4 0 0 0 0-.7l-.2-.4a1.1 1.1 0 0 1 .1-1.2c-.4-4.7 1-9.3-3.7-13.7-2.2.4-2.2 1-2.5 1.7-1.9 3.7-2.2 7.4-2.6 11.1a733 733 0 0 0-2.5 33.1c-.2 2-.5 3.8-.5 5.7a.9.9 0 0 1 0 .1c2.8-.1 5.6-.2 8.5-.1z"/><circle class="cls-2" cx="188.2" cy="229.4" r="3"/><circle class="cls-9" cx="179" cy="201.4" r="3"/><path class="cls-10" d="M161.4 333.5h2.5a5.9 5.9 0 0 1 .7-1.3l-.1-7.5a1.6 1.6 0 0 1-.6-1c0-.7.5-1.3.6-2l-.1-.8a2.7 2.7 0 0 1 .4-2.7h-.4v-15.5a1.5 1.5 0 0 1 0-1.8c-.2-.2.1-.5.1-.7a3.8 3.8 0 0 0 .1-.7l-.2-.3a1 1 0 0 1 .1-1.1c-.4-4.4 1-8.7-3.5-12.8-2 .4-2 1-2.3 1.5-1.8 3.5-2 7-2.4 10.5a683.8 683.8 0 0 0-2.4 31c-.1 1.7-.4 3.5-.4 5.2a.8.8 0 0 1 0 .1c2.6-.1 5.2-.2 7.9-.1z"/><path class="cls-6" d="M59.1 190v-27.8a3.9 3.9 0 0 1 .8-2.4l7.2-10.2c.5-.7 1.5-1.8.7-2.5s-1.7.4-2.3 1c-2 1.9-4 3.9-6.4 6 0-4.2.2-8 0-11.9s-.4-7.6-2-11.3a4 4 0 0 0-1.2 2.8 154.1 154.1 0 0 0-1.4 19c-.6 18.4-1 36.9-1.3 55.3l-.3 9.6c0 1-.1 1.2-1.2.8a37.1 37.1 0 0 1-12.5-7.7 48.8 48.8 0 0 1-16.4-27.6 50 50 0 0 1 1.8-24A71.6 71.6 0 0 1 43 127.7a41.1 41.1 0 0 1 5.1-4.2 13.3 13.3 0 0 1 14-1.4A63 63 0 0 1 85.7 141a49.7 49.7 0 0 1 10.7 22c1.9 10-.2 19.4-5 28.2a55.5 55.5 0 0 1-27.7 25.9l-3.1 1c-1.1.3-1.4.1-1.4-1v-17.8a3 3 0 0 1 .8-2c4.6-5.7 9.5-11.1 13.8-17a23.3 23.3 0 0 0 3-6c.3-.5.8-1 0-1.5-.4-.3-.8.2-1.2.5a39 39 0 0 0-3.8 3.3c-4.4 4.3-8.3 8.9-12.7 13.3z"/><circle class="cls-11" cx="81.2" cy="170" r="2.7"/><circle class="cls-8" cx="72.8" cy="144.3" r="2.7"/><path class="cls-6" d="M56.7 283H59a8.8 8.8 0 0 1 .6-1.5v-9.7a2.4 2.4 0 0 1-.6-1.3 10.8 10.8 0 0 1 .6-2.6c-.1.3-.1-.8-.2-1a4.5 4.5 0 0 1 .4-3.5h-.4v-19.9a2.5 2.5 0 0 1 0-2.3c-.1-.2.1-.6.2-.9a6.7 6.7 0 0 0 0-.8c-.1-.3-.2-.4-.1-.5a1.8 1.8 0 0 1 0-1.4c-.3-5.6 1-11-3.2-16.4-1.9.6-1.8 1.3-2 2-1.7 4.4-2 8.9-2.3 13.4a1223 1223 0 0 0-2.2 39.6c0 2.3-.4 4.5-.4 6.8a1.5 1.5 0 0 1 0 .2c2.4-.2 4.8-.3 7.3-.2z"/><path class="cls-10" d="M-28.7 200.8v-34.1a4.7 4.7 0 0 1 1-3l8.9-12.6c.6-.9 1.8-2.1.9-3s-2.1.5-3 1.2l-7.8 7.4c0-5.2.2-10 0-14.7s-.5-9.3-2.4-14a5 5 0 0 0-1.5 3.5c-1.2 7.8-1.4 15.6-1.7 23.4-.8 22.7-1.2 45.4-1.6 68l-.4 11.8c0 1.2-.2 1.5-1.4 1.1a45.7 45.7 0 0 1-15.5-9.5 60 60 0 0 1-20.2-34c-1.9-10-.6-20 2.2-29.6a88 88 0 0 1 22.7-38.5 50.6 50.6 0 0 1 6.3-5 16.3 16.3 0 0 1 17.2-1.8 79.5 79.5 0 0 1 29 23.3c6.5 8 11.3 17 13.2 27.2a51 51 0 0 1-6 34.6A68.8 68.8 0 0 1-23 234.3l-3.8 1.3c-1.2.5-1.7.2-1.7-1.2l-.1-22a3.7 3.7 0 0 1 1-2.4c5.8-7 11.7-13.7 17-21a28.6 28.6 0 0 0 3.9-7.3c.1-.5.8-1.3 0-1.8-.6-.4-1.2.2-1.6.5-1.7 1.4-3.3 2.7-4.8 4.2-5.3 5.2-10.2 10.8-15.6 16.3z"/><circle class="cls-2" cx="-2.6" cy="176" r="2.7"/><circle class="cls-8" cx="29.7" cy="238" r="2.7"/><path class="cls-12" d="M112.9 188.2V154a4.7 4.7 0 0 1 1-3c3-4.2 6-8.4 8.8-12.6.6-.9 1.9-2.1 1-3s-2.2.5-3 1.2L113 144c0-5.2.2-10 0-14.7s-.5-9.3-2.5-14a5 5 0 0 0-1.5 3.5c-1.2 7.8-1.4 15.6-1.7 23.4-.7 22.7-1.1 45.4-1.6 68 0 4-.2 7.9-.3 11.8 0 1.2-.2 1.5-1.5 1.1a45.7 45.7 0 0 1-15.4-9.5 60 60 0 0 1-20.2-34c-2-10-.7-20 2.2-29.6A87.3 87.3 0 0 1 93 111.6a50.6 50.6 0 0 1 6.3-5.1 16.3 16.3 0 0 1 17.2-1.7 77.4 77.4 0 0 1 29 23.2c6.5 8 11.3 17 13.2 27.2a51 51 0 0 1-6 34.6 68.6 68.6 0 0 1-34.2 31.8l-3.8 1.3c-1.2.4-1.8.2-1.8-1.2v-22a3.7 3.7 0 0 1 1-2.4c5.7-7 11.7-13.7 17-21a28.6 28.6 0 0 0 3.8-7.3c.2-.5.9-1.3 0-1.8-.6-.4-1.1.2-1.6.6l-4.7 4c-5.3 5.2-10.1 11-15.5 16.3z"/><circle class="cls-13" cx="129.7" cy="131.9" r="3.4"/><path class="cls-12" d="M109.8 281h3a6.6 6.6 0 0 1 .7-1.4l-.1-8.5a1.8 1.8 0 0 1-.7-1c0-.9.5-1.6.7-2.4l-.2-1a3 3 0 0 1 .5-3h-.4v-17.5a1.7 1.7 0 0 1-.1-2c-.1-.2.2-.6.3-.8a4.3 4.3 0 0 0 0-.7l-.2-.4a1.2 1.2 0 0 1 0-1.3c-.3-4.9 1.2-9.7-3.8-14.4-2.4.5-2.3 1.1-2.7 1.7-2 4-2.3 7.9-2.7 11.8-1.2 11.6-2 23.3-2.7 35 0 2-.5 4-.4 6 2.9-.1 5.8-.2 8.8-.1z"/><circle class="cls-14" cx="138.2" cy="163.3" r="2.7"/><path class="cls-10" d="M164 251.2V221a4.2 4.2 0 0 1 .9-2.7l7.8-11.1c.6-.8 1.7-2 .8-2.7s-1.8.5-2.5 1c-2.3 2-4.5 4.3-7 6.7v-13a33 33 0 0 0-2.2-12.4 4.4 4.4 0 0 0-1.3 3 168 168 0 0 0-1.5 20.8c-.7 20-1 40.2-1.4 60.3l-.3 10.4c0 1-.2 1.4-1.3 1a40.5 40.5 0 0 1-13.7-8.4 53.4 53.4 0 0 1-18-30.2 56.8 56.8 0 0 1 2-26.2 78 78 0 0 1 20.1-34 44.8 44.8 0 0 1 5.6-4.6 14.5 14.5 0 0 1 15.3-1.5 68.8 68.8 0 0 1 25.7 20.5c5.7 7.1 10 15 11.7 24.1 2 11-.2 21.1-5.4 30.7a60.8 60.8 0 0 1-30.3 28.2c-1 .5-2.2.8-3.4 1.1s-1.5.2-1.5-1v-19.4a3.3 3.3 0 0 1 1-2.2c5-6.2 10.3-12.2 15-18.6a25.4 25.4 0 0 0 3.3-6.5c.2-.5.8-1.2 0-1.6-.5-.3-1 .2-1.4.5l-4.2 3.7c-4.7 4.5-9 9.5-13.8 14.3z"/><circle class="cls-2" cx="176.4" cy="201.2" r="2.4"/><circle class="cls-15" cx="188.3" cy="226.7" r="3.4"/></g></g></g><circle class="cls-16" cx="149" cy="147.3" r="131.5"/></svg>