<svg id="Layer_1" data-name="Layer 1" xmlns="http://www.w3.org/2000/svg" xmlns:xlink="http://www.w3.org/1999/xlink" viewBox="0 0 449 399"><defs><style>.cls-1,.cls-4,.cls-6,.cls-8{fill:none}.cls-2{clip-path:url(#clip-path)}.cls-3{fill:#fff}.cls-4,.cls-6,.cls-8{stroke:#464747}.cls-4,.cls-6,.cls-8,.cls-9{stroke-miterlimit:10}.cls-4{stroke-width:1.4px}.cls-5{fill:#f69437}.cls-6{stroke-width:2px}.cls-7{fill:#464747}.cls-8{stroke-width:1.5px}.cls-9{fill:#b9b9b9;stroke:#fff;stroke-width:.5px}.cls-10{fill:#fefefe}.cls-11{clip-path:url(#clip-path-2)}.cls-12{fill:#934c16;opacity:.36}.cls-13{fill:#493636}.cls-14{fill:#bc896f}.cls-15{fill:#b18070}.cls-16{fill:url(#radial-gradient)}.cls-17{fill:url(#radial-gradient-2)}.cls-18{fill:#050505}.cls-19{fill:url(#radial-gradient-3)}.cls-20{fill:url(#radial-gradient-4)}.cls-21{fill:url(#radial-gradient-5)}.cls-22{fill:#4b3838}.cls-23{fill:#fdfdfd}.cls-24{fill:#4e4f4f}</style><clipPath id="clip-path"><path class="cls-1" d="M-72 0h566v399H-72z"/></clipPath><clipPath id="clip-path-2"><circle class="cls-1" cx="224" cy="199" r="65"/></clipPath><radialGradient id="radial-gradient" cx="206.1" cy="172.1" r="13.6" gradientTransform="translate(0 .5)" gradientUnits="userSpaceOnUse"><stop offset="0" stop-color="#3192c3"/><stop offset="1" stop-color="#3192c3"/></radialGradient><radialGradient id="radial-gradient-2" cx="239.3" cy="172.1" r="13.6" xlink:href="#radial-gradient"/><radialGradient id="radial-gradient-3" cx="222.2" cy="180" r="2.8" xlink:href="#radial-gradient"/><radialGradient id="radial-gradient-4" cx="222.8" cy="170.5" r="2" xlink:href="#radial-gradient"/><radialGradient id="radial-gradient-5" cx="225.9" cy="179.7" r="1.5" xlink:href="#radial-gradient"/></defs><title>image 0.4</title><g class="cls-2"><circle class="cls-3" cx="224.5" cy="199.5" r="222"/><path class="cls-4" d="M224 376.5h-11.8a5.6 5.6 0 0 1-4.7-2.3l-14.8-18.4a4.8 4.8 0 0 1-1-4.4l5.4-23.7a4.5 4.5 0 0 1 2.5-3.2l18.4-8.7 3.9-1.9a4.7 4.7 0 0 1 4.2 0l22 10.5a5 5 0 0 1 2.9 3.5l5.4 23.5a4.8 4.8 0 0 1-1 4.3l-15 18.8a5 5 0 0 1-4.3 2zm0-.7h12a4.4 4.4 0 0 0 3.7-1.8l15-18.7a4.3 4.3 0 0 0 .8-3.9l-5.2-22.6a5 5 0 0 0-2.8-3.9q-10.9-5-21.7-10.3a4.2 4.2 0 0 0-3.8 0l-22 10.5a3.9 3.9 0 0 0-2.2 2.8l-.8 3.6-4.6 20.2a4 4 0 0 0 .8 3.5l14.9 18.6a4.9 4.9 0 0 0 4.1 2H224z"/><path class="cls-5" d="M223.7 327.2l-.4-3.2a1.6 1.6 0 0 1 0-.8 1.1 1.1 0 0 1 .7-.6.5.5 0 0 1 .7.5 18.6 18.6 0 0 1-.1 2l-.2 2a3 3 0 0 0 .1.8c0 .2.2.3.3.5.1.9.8 1 1.5 1.1a15.9 15.9 0 0 1 9.2 4.4 2 2 0 0 0 2 .5 4.6 4.6 0 0 0 2.1-1.4l1.5-1.5a1 1 0 0 1 .5-.3 1 1 0 0 1 .8.2 1 1 0 0 1 0 .8 1 1 0 0 1-.5.5l-2.3 1.4a5.3 5.3 0 0 0-1 1 7.6 7.6 0 0 0-.6 1 .8.8 0 0 0 0 1 16.7 16.7 0 0 1 2.7 9.6 9.2 9.2 0 0 1-.1 1.1 1.3 1.3 0 0 0 .5 1.3c1 1 2.3 1 3.6 1.1a14.2 14.2 0 0 1 1.4.2c.6.2.9.5.8 1s-.6.6-1.2.4a15.3 15.3 0 0 1-2.3-.8 4.3 4.3 0 0 0-3 0 1 1 0 0 0-.5.6 16 16 0 0 1-3.9 6.1 33.7 33.7 0 0 1-3 2.4 1.6 1.6 0 0 0-.7 1 3.8 3.8 0 0 0 .6 2.7l1.2 1.8a2.5 2.5 0 0 1 .4.7.7.7 0 0 1-.4 1 .7.7 0 0 1-1-.4 2 2 0 0 1-.2-.5l-.7-2.4a4.3 4.3 0 0 0-1.9-2.2 1 1 0 0 0-.8 0 16.4 16.4 0 0 1-10.8 0 1.5 1.5 0 0 0-1.4.2 4 4 0 0 0-1.7 2.4l-.7 2a2.3 2.3 0 0 1-.2.5.7.7 0 0 1-1 .3.7.7 0 0 1-.3-.9 2.1 2.1 0 0 1 .3-.6l1.4-2.2a4.4 4.4 0 0 0 .5-1.9 1.4 1.4 0 0 0-.8-1.6 16 16 0 0 1-6.3-7.7 2.3 2.3 0 0 0-3-1.6 19.9 19.9 0 0 0-2 .6 12.2 12.2 0 0 1-1.5.5c-.5 0-.9-.2-1-.6a.8.8 0 0 1 .8-.8 23.7 23.7 0 0 1 2.6-.3 4.1 4.1 0 0 0 1.8-.6 2 2 0 0 0 1.1-2.3 15.6 15.6 0 0 1 2.4-10 1.4 1.4 0 0 0 .1-1.3 4 4 0 0 0-1.7-2l-1.9-1.2a1.5 1.5 0 0 1-.6-.5 1.1 1.1 0 0 1 0-.9.6.6 0 0 1 .8-.2 3.3 3.3 0 0 1 .7.6l2 2a3.6 3.6 0 0 0 1 .5l1 .3a.9.9 0 0 0 1-.3 16.5 16.5 0 0 1 4.8-3.5 17 17 0 0 1 5.2-1.4 1.1 1.1 0 0 0 1-.9l.6-1.2zm-.8 6.1a4.6 4.6 0 0 0 0-.6 1 1 0 0 0-1.2-1 14.4 14.4 0 0 0-7.6 3.8.8.8 0 0 0 0 1.3 7 7 0 0 0 .6.5l5 3.4a1.7 1.7 0 0 0 2.8-1.3l.4-6zm15.5 13v-1.7a13.8 13.8 0 0 0-1.9-5.8.9.9 0 0 0-1.5-.2l-1.1 1-3.7 3.3a1.8 1.8 0 0 0 .7 3.2l6.3 1.9a.8.8 0 0 0 1.2-1v-.7zM230 349a1.7 1.7 0 0 0-1.7 1 2 2 0 0 0 0 1.6l2.4 5.8c.4 1 .9 1 1.7.5a14.5 14.5 0 0 0 5-6.3c.4-1 .2-1.4-.9-1.5l-2.6-.5zm-20.4-3v1c0 .8.4 1.2 1.3 1l6-1.8a1.8 1.8 0 0 0 1.5-1.3 1.9 1.9 0 0 0-.7-2l-4.7-4.2c-.7-.6-1.2-.5-1.7.3a14 14 0 0 0-1.8 7zm10.3 4.7a1.8 1.8 0 0 0-2.1-1.7l-6.8 1.1c-.4.1-.6.3-.6.7a3 3 0 0 0 .1.5 14.3 14.3 0 0 0 5.3 6.7c.7.4 1.2.2 1.5-.5l2.3-5.7a9 9 0 0 0 .3-1zm4.3 10l3.8-.7c1-.3 1.2-.8.7-1.7l-3-5.4a1.8 1.8 0 0 0-1.7-1.1 1.9 1.9 0 0 0-1.6 1.1l-3 5.5c-.5.8-.3 1.3.6 1.5 1.3.4 2.7.6 4.2.8zm3-19.6a8.4 8.4 0 0 0 1.2-.5l1.7-1.2 3.4-2.4c.7-.6.8-1.2.2-1.7a14.3 14.3 0 0 0-7.7-3.6c-.6-.1-1 .3-1 1l.4 6.5a2 2 0 0 0 1.8 2zm-3.4 2a1.9 1.9 0 0 0-1.8.8 3.1 3.1 0 0 0-1 2 3 3 0 0 0 3 3.1 3 3 0 1 0-.2-5.8z"/><path class="cls-6" d="M357.3 262c0 1.5.7 3 0 4.4-3.4 6.5-16 6.8-23.1 3.6-2.3-1-5.8-4.5-5.8-11v-14.2c0-4.2 1-5.8 5-7.3a25 25 0 0 1 19.6.6 8.1 8.1 0 0 1 4.3 4.3c2.1 5 4.4 9.7 6.5 14.6a2 2 0 0 0 2 1.4c3.7.2 7.4.6 11.1 1a3.4 3.4 0 0 1 3.3 3.4 3.5 3.5 0 0 1-3.3 3.5c-5 .1-10 .2-15 0-.9 0-2-1-2.7-1.7a13.2 13.2 0 0 1-1.6-2.5zm-25.7-45c0-6.1 6.4-10.4 12.8-8.6a9 9 0 0 1 6.7 10.8c-.6 3.7-1.6 7.4-3.9 10.6-3.4 4.8-8 4.8-11.5 0a26.3 26.3 0 0 1-4-12.7z"/><path class="cls-7" d="M361.9 231.3v14.5c-1.1-1.9-2.3-3.6-2.2-6 .2-3 0-6 0-9.1 0-1.3.5-1.7 1.7-1.7h33.3c1.3 0 1.8.5 1.8 1.8v23.6c0 1.2-.4 1.7-1.7 1.7h-27.3c-1.4 0-1.9-.6-2-2h28.7v-22.8z"/><path class="cls-5" d="M380.9 235.7l-.8 3-2.5 10.1c-.2.8-.3 1.8-1.4 1.5s-.9-1-.7-2c1-4 2-8.2 3.2-12.4a2.2 2.2 0 0 1 1.2-1.1c.2 0 .7.6 1 .9z"/><path class="cls-7" d="M384.2 262.3h4.8c.5 0 1 .6 1.4 1-.5.3-1 1-1.4 1h-6.3c.3-3-.4-5.3-3.1-7h4.6z"/><path class="cls-5" d="M370.4 242.6l2.6 3.6c.2.4 0 1.2 0 1.8-.6-.2-1.3-.2-1.6-.6a33.9 33.9 0 0 1-3-4 2 2 0 0 1 0-1.7 34.8 34.8 0 0 1 3-4c.3-.4 1.1-.3 1.7-.5 0 .6.2 1.2 0 1.6-.8 1.3-1.8 2.5-2.8 3.8zM384 237a3.7 3.7 0 0 1 .8.6l3 4a2 2 0 0 1 0 1.7 34.5 34.5 0 0 1-3 4.2c-.3.3-1 .3-1.6.4 0-.6-.3-1.3 0-1.7.5-1 1.4-1.8 2-2.8a1.9 1.9 0 0 0 0-1.7l-2.2-3c-.6-.8-.2-1.6 1-1.7z"/><path class="cls-8" d="M46.3 241h58.2a17.9 17.9 0 0 0 7.5-1.7l2.6-1.2-1.8-3.6a11.2 11.2 0 0 1-.5-5.4 10.2 10.2 0 0 1 2-5.4.9.9 0 0 1 .9 0 39 39 0 0 1 2.7 2.7 8 8 0 0 1 1.4 2c.7 1.5 1.2 3 1.8 4.6a33.6 33.6 0 0 1 4.2-.7 13 13 0 0 1 6.4 1.6c.5.2.3.5.2.8a10 10 0 0 1-3.9 4.1 10.2 10.2 0 0 1-4.6 1.6l-3.8.2c-.5 0-.7.2-1 .7l-3 5.9a35.3 35.3 0 0 1-2.1 3.4 43 43 0 0 1-2.6 3.3 26.5 26.5 0 0 1-2.8 3 68 68 0 0 1-6 4.8 37.2 37.2 0 0 1-10 4.7c-2.3.7-4.6 1.3-7 1.8-1.2.3-2.4.1-3.6.4a43.8 43.8 0 0 1-9 .4 26.7 26.7 0 0 1-4.7-.4 37.8 37.8 0 0 1-5.3-1.4c-1.5-.5-2.8-1.4-4.3-2a17.7 17.7 0 0 1-5.9-4.5 26 26 0 0 1-3.1-4.4 24 24 0 0 1-2-4.7 15.1 15.1 0 0 1-1-5.7l-.3-1.9.4-3zm31.1 25.7v-.2a4.5 4.5 0 0 0-.5-.3 16.7 16.7 0 0 1-5.7-4 42.4 42.4 0 0 1-3-4.1c-.2-.3-.6-.7-.9-.7a14.3 14.3 0 0 0-2.7.6 19.8 19.8 0 0 1-5.6.6h-5v.3l1.8 1.5a39.4 39.4 0 0 0 4.4 3 22.8 22.8 0 0 0 6.8 2.4l2.8.4 3.5.5h4.1zm-3.3-11.8a2.8 2.8 0 0 0-2-2.1 3 3 0 0 0-2.3 2A2.4 2.4 0 0 0 72 257a2.3 2.3 0 0 0 2.2-2.1z"/><path class="cls-5" d="M64.7 237.3v-8h7.7v8zm-9.8-8h7.6v8H55zm27.3 8h-7.7v-8h7.7zm9.8-8v8h-7.6v-8zm2.2 8v-8h7.7v8zm-29.5-17.8h7.7v7.6h-3.5l-4.1-.1-.1-4.1v-3.4zm19.7-9.9H92v5.5c0 2.2 0 2.2-2.2 2.2h-5.5zM74.5 227v-7.5h7.7v6.8c0 .5 0 .8-.6.8h-6.7a1.9 1.9 0 0 1-.4-.1zm9.9 0v-7.5H92v6.8c0 .5-.1.8-.7.8h-6.7a1.8 1.8 0 0 1-.3-.1z"/><path class="cls-3" d="M73.4 254.4c.1 1.3-.3 2-1 2-1.3.1-2-.4-2-1.4a1.8 1.8 0 0 1 2-1.6c-.2 1 0 1.2 1 1z"/><path class="cls-8" d="M142 117.6c-3.7.1-5.9-1.9-6-5.7V99l-2.6-.2v10.7a18.6 18.6 0 0 1-.9 5c-.7 2.4-2.7 3.4-5.4 3.2 3.2-5.7 1.2-11.9 1.9-18-2 .3-2.3 1.7-2.3 3v8.6c0 3.7-3.4 5.7-6.8 4.3 1-1.7 2.3-3.2 2.8-5s0-4.2 0-6.2a44.8 44.8 0 0 1-4.4 0 9.4 9.4 0 0 1-7.3-4c-1.8-2.7-3.9-5.3-6-8 1.3-1.3 2.8-.8 4 .3l3.7 3.8c2.9 3 6 3.7 9 2.2a4.9 4.9 0 0 0 1.4-1l4.1-4.6c-1.7-.3-4-.7-6.2-1.3a17.7 17.7 0 0 1-9.7-27.5 5.1 5.1 0 0 0 .9-3.5 68.5 68.5 0 0 1 .5-7.3c0-1.4 1-1.8 2.2-1.4l8 3.1a5.5 5.5 0 0 0 2.8.6 45.6 45.6 0 0 1 17-.1 4.2 4.2 0 0 0 2.5-.6 18.2 18.2 0 0 1 10.2-3l.6 8.6a5.1 5.1 0 0 0 .6 2.5 21 21 0 0 1 1.3 21.7c-3 4.8-7.5 7-12.9 7.8l-3.8.6c5.3 2 5.7 6 5.6 10.4a60.3 60.3 0 0 0 .2 7.5 5.8 5.8 0 0 0 1.3 2.6 11.1 11.1 0 0 0 1.9 1.6c-1.7 1.2-3.2.7-4.6.2a3.8 3.8 0 0 1-2.7-3.6v-9c0-1.6-.3-3-2.5-3.4.6 6.1-1.5 12.3 1.6 18z"/><path class="cls-8" d="M148.3 87.8c4.8-1.5 6.9-6.6 5.8-11.8-.9-4.6-4.1-7-9.4-7.1h-20c-4.7 0-8 2.2-9 6-2 6.2 1.3 12.2 7.6 13.7 3.8.9 7.7 1 12.4 1.6 3.7-.6 8.3-1 12.6-2.4z"/><path class="cls-5" d="M121.9 78.2c0-3 1.6-5.3 3.6-5.3s3.8 2.3 3.8 5.1a7.1 7.1 0 0 1-.3 1.7c-.5 1.9-1.4 3.5-3.6 3.4s-3-1.8-3.4-3.7l-.1-1.2zm25.8-.5c0 3-1.7 5.5-3.7 5.4s-4-2.7-3.7-5.5a7.8 7.8 0 0 1 .3-1.6c.5-1.7 1.5-3.1 3.4-3s3 1.5 3.5 3.3a10.5 10.5 0 0 1 .2 1.4z"/><path class="cls-9" d="M103.4 123.5q-3.8 5.8-7.1 12a143.6 143.6 0 0 0-11 27.3 137 137 0 0 0-3.9 17.3 115.8 115.8 0 0 0-1.4 13.5c0 .4 0 .7-.5.7v1a11 11 0 0 1 .2 1.2l2-.4A134.7 134.7 0 0 1 105 125l-1.5-1.5zm263 74.8l2.1.4v-4.1a89.6 89.6 0 0 0-.9-9.5 144.2 144.2 0 0 0-17-52.3q-2.8-4.9-5.8-9.4l-1.6 1.5a139.2 139.2 0 0 1 23 68.5l.2 4.9zM174.7 337a143.4 143.4 0 0 1-44.4-26.8 147.9 147.9 0 0 1-20.2-21.4q-.8.5-1.7.8a138.1 138.1 0 0 0 9.2 11 145.7 145.7 0 0 0 12 11.7 148.6 148.6 0 0 0 14.5 11 143 143 0 0 0 30.3 15.4l.3-1.7zm161.7-46.3a160 160 0 0 1-11 12.5 137.6 137.6 0 0 1-54.1 34.5l.3 1.8 1.7-.6a174 174 0 0 0 13.1-5.5 136.6 136.6 0 0 0 30.5-19.6c2.8-2.4 5.5-4.8 8.1-7.3a125.8 125.8 0 0 0 11-12l2.3-2.9-2-1zM260.6 69l1-2-4-1a89.6 89.6 0 0 0-9.2-2 144.2 144.2 0 0 0-55.1.8q-5.4 1.2-10.7 2.7l1 2a139.2 139.2 0 0 1 72.2-1.8l4.8 1.2z"/><path class="cls-10" d="M240.8 59.2c.1.3 0 .6-.3.5-.9-.2-1.8 0-2.5-.5zm-18.2 0a2.1 2.1 0 0 1-2.2 0z"/><circle class="cls-5" cx="224" cy="199" r="65"/><g class="cls-11"><path class="cls-12" d="M243.5 152l49 37v27.2L275.6 255l-19 9.1-34.1-15 21-97z"/></g><path class="cls-13" d="M204.9 151h1.5a6.3 6.3 0 0 1 1.7.4 7.5 7.5 0 0 1 3.2 2.7 20.9 20.9 0 0 1 3 6.1 52.2 52.2 0 0 1 1.3 5.8l1 6 .4 5.1a18.4 18.4 0 0 0-1.6 5 18.3 18.3 0 0 1-.6-6.2 21.3 21.3 0 0 0-1 2.5 5.8 5.8 0 0 1 0-.6l-.1-4.2a57.8 57.8 0 0 0-.8-6.9 26.9 26.9 0 0 0-2.5-7.4 10 10 0 0 0-2.1-3 5 5 0 0 0-3.2-1.5 6.1 6.1 0 0 0-6.2 4.5 11.2 11.2 0 0 0-.4 5.3 41.2 41.2 0 0 0 1.5 6.7 52.5 52.5 0 0 0 7 14.4 19.8 19.8 0 0 0 3.3 3.9c.6.6 1 .5 1.4-.3a12.4 12.4 0 0 0 1.2-3l.5-2.1a10.3 10.3 0 0 0 .5 1.7 4.1 4.1 0 0 0 1.5 2.3.2.2 0 0 1 .1.2 5 5 0 0 0 0 2.5 16 16 0 0 0 .8 2.5 11.6 11.6 0 0 0 .7 1.6 5.5 5.5 0 0 1 0-2.5 7.3 7.3 0 0 1 1-2.2 19.3 19.3 0 0 0 1.3 8.8 1 1 0 0 0 0-.1 34.2 34.2 0 0 1 .2-4.6 9.5 9.5 0 0 1 .7-2.7 2 2 0 0 1 1-1.2l.3.1a17 17 0 0 1 1.1 3.4 5.5 5.5 0 0 1 0 2.4h.2a11.9 11.9 0 0 0 2.3-5 7.2 7.2 0 0 0 .1-1.4l-.1-1.4a11.3 11.3 0 0 1 1.4 1.5 9.2 9.2 0 0 1 1.8 3.5 5.9 5.9 0 0 1 .2 2l-.2 1.2.2-.2a20.4 20.4 0 0 0 1.3-3.5 11.2 11.2 0 0 0 .5-3.2v-.4a1.7 1.7 0 0 1 .4.4 4.8 4.8 0 0 1 .8 2l.2 1.5a3.8 3.8 0 0 0 .3-.7 9.8 9.8 0 0 0 .5-4.2 4 4 0 0 0-.6-1.8.3.3 0 0 1 0-.3 4 4 0 0 0 .4-1 14.1 14.1 0 0 0 1.3 3.8c.5.8.9.8 1.6.2a17 17 0 0 0 2.2-2.4 49.5 49.5 0 0 0 5.2-8.7 46.6 46.6 0 0 0 3.9-11.7 17.4 17.4 0 0 0 .4-5.5 8.4 8.4 0 0 0-1.7-4.2 6 6 0 0 0-3.5-2 4.7 4.7 0 0 0-4 .8 7.8 7.8 0 0 0-1.9 1.9 20.9 20.9 0 0 0-2.4 5.2 33.5 33.5 0 0 0-1.2 5.6l-.5 4.3-.1 2v5.6l-.4-1.2c0-.3-.2-.5-.3-.8v2.1a5.5 5.5 0 0 1-.4 2 2 2 0 0 1-1.1 1.3l-.4-.1a3.3 3.3 0 0 1 0-1.6 6 6 0 0 1 .8-2v-.3h-.1a4.3 4.3 0 0 0-1.5.4l.5-6 .7-6.1a52 52 0 0 1 2.3-9 16.3 16.3 0 0 1 3.3-5.9 6.6 6.6 0 0 1 6.1-2.1 9.4 9.4 0 0 1 5.1 2.5 11.1 11.1 0 0 1 3.5 8v2.2a21.7 21.7 0 0 1-.2 2.2 38 38 0 0 1-1.4 6.6 88.8 88.8 0 0 1-6.5 15.5l-1.3 2.2a.8.8 0 0 0 .2 1.2l.2.1a11.2 11.2 0 0 1 1.9 1.9 12.2 12.2 0 0 1 2.2 5 15 15 0 0 1 .4 4c0 1.1-.2 2.2-.3 3.2l-.4 3.6-.7 4.4c-.2 1.9-.5 3.8-.9 5.6s-.5 3.6-.8 5.4l-.7 3.8a44 44 0 0 1-2.3 7l-.1-.2-.4-1a25.7 25.7 0 0 0-4.3-6.2 23.5 23.5 0 0 0-4.9-4 14.6 14.6 0 0 0-6.2-2.3 9.6 9.6 0 0 0-4.7.7 14.8 14.8 0 0 0-4.5 3 28.8 28.8 0 0 0-4.6 5.5 20 20 0 0 0-2.5 5.3l-.5 2.5-.2.5v-.2c-.9-1.7-1.6-3.5-2.3-5.3a32.2 32.2 0 0 1-1.5-4.6 38.4 38.4 0 0 1-.6-5.5l-.2-3.4-.4-3-.2-3.8-.4-4.4-.3-4a15.5 15.5 0 0 1 .3-4.3 16.5 16.5 0 0 1 3.4-7 13.8 13.8 0 0 1 1.5-1.6.7.7 0 0 0 .2-1l-.2-.2c-1.8-3.1-3.5-6.4-5-9.7a58.4 58.4 0 0 1-4.2-12.8 28.7 28.7 0 0 1-.6-5v-.8a13 13 0 0 1 .1-1.6 13.5 13.5 0 0 1 1.3-4.6 10 10 0 0 1 6.5-5.1c.4-.2.8-.2 1.3-.3zm25.2 65.4h1.3a13.3 13.3 0 0 0 7.7-4 5 5 0 0 0 1.3-5.2 10 10 0 0 0-4.5-5.7 4.7 4.7 0 0 0-4-.5 6.8 6.8 0 0 0-2.8 1.8 13.6 13.6 0 0 0-3.7 6.7 8 8 0 0 0 .8 5.5 2.4 2.4 0 0 0 2 1.4h1.9zm-14.2 0h.5a2.7 2.7 0 0 0 2.4-1.2 7 7 0 0 0 1-3.2 12.1 12.1 0 0 0-6-10.7 4.2 4.2 0 0 0-3-.5 7.7 7.7 0 0 0-3.6 2.2 10.8 10.8 0 0 0-2.4 4 4.7 4.7 0 0 0 .7 4.7 11 11 0 0 0 2.3 2.2 14.3 14.3 0 0 0 8.1 2.6z"/><path class="cls-14" d="M239 235.4l.3 1.2a8.1 8.1 0 0 1-1.5 6.6 14.2 14.2 0 0 1-7.2 5 16.4 16.4 0 0 1-4.5.7h-3.9a42 42 0 0 1-6-.5 18.7 18.7 0 0 1-4.8-1.5 8.2 8.2 0 0 1-5-8v-.3l.5-2.5a20 20 0 0 1 2.5-5.3 28.8 28.8 0 0 1 4.6-5.5 14.8 14.8 0 0 1 4.5-3 9.6 9.6 0 0 1 4.6-.6 14.6 14.6 0 0 1 6.3 2.3 23.5 23.5 0 0 1 4.9 4 25.7 25.7 0 0 1 4.3 6.2l.4 1v.2zm-5.1 4.9a.5.5 0 0 0-.2.1 24.6 24.6 0 0 1-4.7 3 13.3 13.3 0 0 1-8 .8 24.6 24.6 0 0 1-6.5-2.3c-1-.4-1.8-1-2.7-1.4l.2.2a15.7 15.7 0 0 0 7.4 5.2 12 12 0 0 0 13.8-4.3 5.8 5.8 0 0 0 .7-1.3zm.8-7.4a1.3 1.3 0 0 0-.3-.9 5.7 5.7 0 0 0-1.4-1.3 2.9 2.9 0 0 0-3.7.3 3.1 3.1 0 0 0-.8 2.1 8.5 8.5 0 0 1-1.3 4 43 43 0 0 1-1.3 2 .6.6 0 0 0 .2 1 1 1 0 0 0 .9 0 23.7 23.7 0 0 0 5.7-3.3 4.9 4.9 0 0 0 2-3.8zm-22.8.6a2.7 2.7 0 0 0 .5 1.4 8.3 8.3 0 0 0 2.5 2.5 32.3 32.3 0 0 0 4.1 2.3 5.1 5.1 0 0 0 .9.3.8.8 0 0 0 .8-.2.4.4 0 0 0 .1-.5 2 2 0 0 0-.4-.6l-.2-.3a.5.5 0 0 0-.2-.4l-.2-.3a8.2 8.2 0 0 1-1.7-4.7 2.8 2.8 0 0 0-3.3-2.8 3.5 3.5 0 0 0-2.9 3.3z"/><path class="cls-15" d="M249.7 161.6v2.3z"/><path class="cls-16" d="M213.4 184.3l-.5 2.1a12.4 12.4 0 0 1-1.2 3c-.4.8-.8.8-1.4.3a19.8 19.8 0 0 1-3.3-3.9 52.5 52.5 0 0 1-7-14.4 41.2 41.2 0 0 1-1.5-6.7 11.2 11.2 0 0 1 .4-5.4 6.1 6.1 0 0 1 6.2-4.4 5 5 0 0 1 3.2 1.5 10 10 0 0 1 2.2 3 26.9 26.9 0 0 1 2.4 7.4 57.8 57.8 0 0 1 .8 7v4a5.7 5.7 0 0 0 0 .7v.3a14 14 0 0 0-.5 3.9l.2 1.6z"/><path class="cls-17" d="M231.7 180.5v-7.6l.5-4.3a33.5 33.5 0 0 1 1.3-5.7 20.9 20.9 0 0 1 2.4-5.1 7.8 7.8 0 0 1 1.8-2 4.7 4.7 0 0 1 4-.8 6 6 0 0 1 3.6 2.1 8.4 8.4 0 0 1 1.6 4.1 17.4 17.4 0 0 1-.4 5.6 46.6 46.6 0 0 1-3.8 11.7 49.5 49.5 0 0 1-5.3 8.7 17 17 0 0 1-2.2 2.4c-.7.6-1 .6-1.5-.3a14.1 14.1 0 0 1-1.4-3.7 6.5 6.5 0 0 0 0-2.8 19.4 19.4 0 0 0-.6-2.3z"/><path class="cls-18" d="M231.7 180.5a19.4 19.4 0 0 1 .6 2.3 6.5 6.5 0 0 1 0 2.7 4 4 0 0 1-.4 1 .3.3 0 0 0 0 .4 4 4 0 0 1 .6 1.8 9.8 9.8 0 0 1-.5 4.2 3.8 3.8 0 0 1-.3.7l-.2-1.5a4.8 4.8 0 0 0-.8-2 1.7 1.7 0 0 0-.4-.5v.5a11.2 11.2 0 0 1-.5 3.2 20.4 20.4 0 0 1-1.3 3.4l-.2.2.2-1.1a5.9 5.9 0 0 0-.2-2 9.2 9.2 0 0 0-1.8-3.5 11.3 11.3 0 0 0-1.4-1.5l.1 1.3a7.2 7.2 0 0 1 0 1.4 11.9 11.9 0 0 1-2.4 5s0 .2-.1.1a5.5 5.5 0 0 0 0-2.5 17 17 0 0 0-1.2-3.4h-.3a2 2 0 0 0-1 1 9.5 9.5 0 0 0-.7 2.8 34.2 34.2 0 0 0-.2 4.6 1 1 0 0 1 0 .2 19.3 19.3 0 0 1-1.2-9 7.3 7.3 0 0 0-1 2.4 5.5 5.5 0 0 0-.1 2.3 11.6 11.6 0 0 1-.7-1.5 16 16 0 0 1-.7-2.5 5 5 0 0 1-.1-2.5.2.2 0 0 0 0-.2 4.1 4.1 0 0 1-1.7-2.3 10.3 10.3 0 0 1-.5-1.7l-.1-1.6a14 14 0 0 1 .5-4v-.2a21.3 21.3 0 0 1 1-2.5 18.3 18.3 0 0 0 .7 6.2 18.4 18.4 0 0 1 1.6-5v.2a5.3 5.3 0 0 0 0 1.8 2.4 2.4 0 0 0 .2 1 7.8 7.8 0 0 0 .8 2 5.8 5.8 0 0 0 .4-3.8 8 8 0 0 1 1 1 16.3 16.3 0 0 1 1 1.6 11.5 11.5 0 0 1 .8 1.6 14.4 14.4 0 0 1 1.3-4 12.1 12.1 0 0 0 1.3 4.4 4.4 4.4 0 0 0 .5-.8 5 5 0 0 0 .6-3.3 3.1 3.1 0 0 1-.1-.7 17.8 17.8 0 0 1 1.7 3.6 5.4 5.4 0 0 1 .5-.7 4 4 0 0 1 1.3-.9 4.3 4.3 0 0 1 1.4-.3h.2v.2a6 6 0 0 0-.9 2 3.3 3.3 0 0 0 0 1.6l.4.2a2 2 0 0 0 1.2-1.3 5.5 5.5 0 0 0 .4-2v-2.1l.3.7z"/><path class="cls-3" d="M230 216.4h-1.8a2.4 2.4 0 0 1-2-1.4 8 8 0 0 1-.8-5.5 13.6 13.6 0 0 1 3.7-6.7 6.8 6.8 0 0 1 2.8-1.8 4.7 4.7 0 0 1 4 .5 10 10 0 0 1 4.5 5.7 5 5 0 0 1-1.3 5.1 13.3 13.3 0 0 1-7.7 4l-.6.1h-.7zm1-.4a4.4 4.4 0 0 0 1 0 4.3 4.3 0 0 0 3.2-2.8 3.3 3.3 0 0 0 .4-1.7.9.9 0 0 0-1.3-.8 4.6 4.6 0 0 0-.5.2 2.9 2.9 0 0 1-.5.3 1.4 1.4 0 0 1-1.6-.7 1.3 1.3 0 0 1 0-1.7l.4-.5a1 1 0 0 0-.5-1.5 4.4 4.4 0 0 0-2.4.2 4.2 4.2 0 0 0-2.9 3 6 6 0 0 0 .3 3.5 3.6 3.6 0 0 0 2.4 2.2 6 6 0 0 0 2 .3zm-15 .5a14.3 14.3 0 0 1-8.2-2.6 11 11 0 0 1-2.3-2.2 4.7 4.7 0 0 1-.7-4.8 10.8 10.8 0 0 1 2.4-3.9 7.7 7.7 0 0 1 3.7-2.2 4.2 4.2 0 0 1 3 .5 12.1 12.1 0 0 1 6 10.7 7 7 0 0 1-1 3.2 2.7 2.7 0 0 1-2.5 1.2zm-6.5-5l.1.6a3.7 3.7 0 0 0 .1.5 4.4 4.4 0 0 0 3 3.3 7.1 7.1 0 0 0 1.6.1 3.9 3.9 0 0 0 2.6-.6 4 4 0 0 0 2-4c-.1-.7-.7-1.2-1.5-.6a2.6 2.6 0 0 1-.4.2 1.3 1.3 0 0 1-1.5-.1 1.4 1.4 0 0 1 0-2.4l.1-.2a.8.8 0 0 0 .1-1.1 1.1 1.1 0 0 0-.8-.5 5.1 5.1 0 0 0-1.4 0 4.7 4.7 0 0 0-4 4.8z"/><path class="cls-18" d="M228.4 196.9zm6.3 36.1a4.9 4.9 0 0 1-2 3.8 23.7 23.7 0 0 1-5.7 3.2 1 1 0 0 1-.9 0 .6.6 0 0 1-.2-1c.5-.6 1-1.2 1.3-2a8.5 8.5 0 0 0 1.3-4 3.1 3.1 0 0 1 .8-2 2.9 2.9 0 0 1 3.7-.4 5.7 5.7 0 0 1 1.4 1.4 1.3 1.3 0 0 1 .3 1zm-22.7.5a3.5 3.5 0 0 1 2.8-3.3 2.8 2.8 0 0 1 3.3 2.8 8.2 8.2 0 0 0 1.7 4.7l.2.4a.5.5 0 0 1 .2.4l.2.3a2 2 0 0 1 .4.6.4.4 0 0 1-.1.5.8.8 0 0 1-.8.2 5.1 5.1 0 0 1-.9-.3 32.3 32.3 0 0 1-4.1-2.3 8.3 8.3 0 0 1-2.5-2.5 2.7 2.7 0 0 1-.5-1.5z"/><path class="cls-3" d="M211.8 240.4l2.6 1.5a24.6 24.6 0 0 0 6.5 2.3 13.3 13.3 0 0 0 8-.9 24.6 24.6 0 0 0 4.8-2.9.5.5 0 0 1 .2-.1 5.9 5.9 0 0 1-.8 1.2 12 12 0 0 1-13.8 4.4 15.7 15.7 0 0 1-7.4-5.2l-.1-.3zm22.2-.1zm-22.2.1z"/><path class="cls-19" d="M224.8 178.1a3.1 3.1 0 0 0 .1.7 5 5 0 0 1-.7 3.4 4.4 4.4 0 0 1-.4.7 12.1 12.1 0 0 1-1.3-4.3 14.4 14.4 0 0 0-1.4 4 11.5 11.5 0 0 0-.7-1.6 16.3 16.3 0 0 0-1-1.6 4.1 4.1 0 0 1 2.9-1.7h.2a3 3 0 0 0 .6 0 5.3 5.3 0 0 1 1.5.3.3.3 0 0 1 .2.1z"/><path class="cls-20" d="M222.5 172.7a2 2 0 1 1 .6 0 2.9 2.9 0 0 1-.6 0z"/><path class="cls-18" d="M222.5 172.7a2.9 2.9 0 0 0 .6 0v4.9a3 3 0 0 1-.6 0z"/><path class="cls-21" d="M227 181.1a5.4 5.4 0 0 0-.5.7 17.8 17.8 0 0 0-1.6-3.7 3.2 3.2 0 0 1 1.2 1 4 4 0 0 1 .9 2z"/><path class="cls-22" d="M217.1 180.1a2.4 2.4 0 0 1-.2-.9 5.3 5.3 0 0 1 0-1.7.3.3 0 0 1 0-.1l.2 2.7z"/><path class="cls-18" d="M231 216a6 6 0 0 1-2-.2 3.6 3.6 0 0 1-2.3-2.3 6 6 0 0 1-.3-3.5 4.2 4.2 0 0 1 2.8-3 4.4 4.4 0 0 1 2.4-.2 1 1 0 0 1 .6 1.6l-.5.4a1.3 1.3 0 0 0 0 1.7 1.4 1.4 0 0 0 1.6.7 2.9 2.9 0 0 0 .6-.3 4.6 4.6 0 0 1 .4-.2.9.9 0 0 1 1.3.8 3.3 3.3 0 0 1-.4 1.7 4.3 4.3 0 0 1-3 2.8 4.4 4.4 0 0 1-1.3 0zm-21.5-4.5a4.7 4.7 0 0 1 4-4.8 5.1 5.1 0 0 1 1.4 0 1.1 1.1 0 0 1 .8.5.8.8 0 0 1 0 1.2l-.3.2a1.4 1.4 0 0 0 .1 2.4 1.3 1.3 0 0 0 1.5.1 2.6 2.6 0 0 0 .4-.3c.8-.5 1.4 0 1.4.7a4 4 0 0 1-2 4 3.9 3.9 0 0 1-2.5.6 7.1 7.1 0 0 1-1.5-.1 4.4 4.4 0 0 1-3.1-3.4 3.7 3.7 0 0 1-.1-.5v-.6z"/></g><path class="cls-23" d="M274.5 92.4V59.8c0-.7.1-.8.8-.8h46c.7 0 .8.2.8.8v62.6c0 .7-.1.9-.8.9h-46c-.7 0-.8-.2-.8-.9v-29c.2 0 .3.1.4.3 1.1 2.1 1.3 2.2 3.6 1.3h.3c-.2 3.3-.6 6.5-.5 9.8 0 4.2.7 8.2 3.6 11.5.4.5.3.7-.1 1a6.1 6.1 0 0 0-1.6 1.5 2.5 2.5 0 0 0 .2 3c1.2 1.4 2 1.5 3.4.7l2.2-1.7a2.3 2.3 0 0 1 2.3-.4 28 28 0 0 0 19 0c2-.7 3-.6 4.3 1 1 1.4 2.2 1.4 3.5.4a2.4 2.4 0 0 0 .5-3.4 5.5 5.5 0 0 0-1.1-1.5c-.6-.4-.6-.7-.2-1.2a12.3 12.3 0 0 0 2.2-3.7 35 35 0 0 0 1.8-12.9V95c1.8.5 2.2.3 2.9-.9 1.1-2 0-3.3-1.6-3.7-2-.5-2-1.6-1.9-3.1v-1.7c0-4.6 0-9.2-1-13.7-.2-.6 0-.8.5-1a4.1 4.1 0 0 0 2.2-3.6 5 5 0 0 0-7-5 1.4 1.4 0 0 1-1.6-.1 13.6 13.6 0 0 0-4.6-2.1 30.4 30.4 0 0 0-12-.6 21 21 0 0 0-9.6 3.2 1.7 1.7 0 0 1-1.8.3 5.2 5.2 0 0 0-6.4 2.6c-1.2 2.3-.6 4.5 1.8 6 .5.4.5.7.4 1.1a28.5 28.5 0 0 0-.4 7l.6 9.4c0 .3.3.9-.3 1a5.5 5.5 0 0 0-4 2.3z"/><path class="cls-24" d="M274.5 92.4a5.5 5.5 0 0 1 4-2.3c.7 0 .3-.6.3-1l-.6-9.3a28.5 28.5 0 0 1 .4-7c.1-.5.2-.8-.4-1.1-2.3-1.6-3-3.8-1.8-6a5.2 5.2 0 0 1 6.4-2.6 1.7 1.7 0 0 0 1.9-.3c2.8-2 6.1-2.8 9.5-3.3a30.4 30.4 0 0 1 12 .7 13.6 13.6 0 0 1 4.6 2 1.4 1.4 0 0 0 1.5.2 5 5 0 0 1 7.1 5 4.1 4.1 0 0 1-2.2 3.5c-.4.3-.6.4-.5 1 1 4.5 1 9.1 1 13.7v1.8c0 1.4 0 2.5 2 3 1.6.4 2.7 1.7 1.5 3.7-.6 1.2-1.1 1.4-3 1v4c.2 4.5 0 8.8-1.7 13a12.3 12.3 0 0 1-2.1 3.6c-.5.6-.4.9.1 1.3a5.5 5.5 0 0 1 1.1 1.4 2.4 2.4 0 0 1-.5 3.5c-1.3 1-2.5 1-3.5-.4-1.2-1.7-2.3-1.8-4.3-1a28 28 0 0 1-19 0 2.3 2.3 0 0 0-2.3.4l-2.2 1.7c-1.3.8-2.1.6-3.4-.7a2.5 2.5 0 0 1-.1-3 6.1 6.1 0 0 1 1.5-1.6c.4-.3.5-.5.2-.9-3-3.3-3.6-7.4-3.7-11.6 0-3.2.3-6.4.5-9.7h-.2c-2.3.8-2.6.8-3.7-1.4 0-.1-.2-.3-.4-.3zm42.3 5.8l-.2-3.3c0-2.4 0-2.4 2.1-1.4.4.2.8.6 1.1 0s.5-1-.1-1.5a3.8 3.8 0 0 0-2-.7 1.3 1.3 0 0 1-1.3-1.5l-.1-5.9c0-4 0-8-1-11.8a1.7 1.7 0 0 1 1-2.3 2.9 2.9 0 0 0 1.3-4.1 3.5 3.5 0 0 0-5-1.8 2 2 0 0 1-2.4-.2 10.4 10.4 0 0 0-3.9-2 28.5 28.5 0 0 0-12-.7 20 20 0 0 0-8.8 3 2.9 2.9 0 0 1-3.3.5 3.6 3.6 0 0 0-4.7 2.2c-.7 1.7 0 3 1.9 4 1 .4.9 1.2.7 2a24.9 24.9 0 0 0-.5 6.6l.7 10.7c0 1-.3 1.5-1.4 1.6a4.1 4.1 0 0 0-2.5 1c-.6.4-.1.8 0 1.2s.5.3.9.2.5-.3.9-.5c.5-.3 1-.7 1.6-.3s.4 1 .4 1.5a106.2 106.2 0 0 0-.5 11.5c.3 4 1.2 7.7 4.5 10.4.5.4.2.6-.1.9a10.8 10.8 0 0 0-2.7 2.1c-.3.5-.5 1 0 1.4s.9 1 1.6.3 1.3-1 2-1.6c1.2-.8 2.4-1.3 3.9-.5a8 8 0 0 0 2.2.7c5.9 1.2 11.7 1 17.3-1.4a2 2 0 0 1 2.8.6l1.4 1.6a1 1 0 0 0 1.5 0 1 1 0 0 0 .2-1.3 5.9 5.9 0 0 0-1.5-1.8c-1-.8-1-1.2-.2-2.1a12.2 12.2 0 0 0 2.5-4.2c1.7-4.3 1.8-8.7 1.7-13z"/><path class="cls-5" d="M304.4 76.8a6.1 6.1 0 0 1-6.4-6c0-3.5 3.1-6.4 7-6.4a6.3 6.3 0 0 1 6.3 6.1c0 3.6-3 6.3-6.9 6.3zm.4-10.9l-1 .1a4.9 4.9 0 0 0-4 6.2c.7 2.5 3.8 3.7 6.7 2.8a4.5 4.5 0 0 0 3.2-5.3 4.8 4.8 0 0 0-4.9-3.8zm-8.2 5.2c0 3.5-3 6.3-6.8 6.3a6.2 6.2 0 0 1-6.4-6.1c-.1-3.4 2.9-6.2 6.7-6.2s6.5 2.5 6.5 6zm-6.8 4.8c3 0 5.3-2.1 5.4-4.7a4.8 4.8 0 0 0-5.1-4.7 5 5 0 0 0-5.3 4.7 4.7 4.7 0 0 0 5 4.7z"/><path class="cls-23" d="M304.8 66a4.8 4.8 0 0 1 5 3.7 4.5 4.5 0 0 1-3.3 5.3c-3 1-6-.3-6.8-2.7a4.9 4.9 0 0 1 4.1-6.3h1zm-15 10a4.7 4.7 0 0 1-5-4.8 5 5 0 0 1 5.3-4.7 4.8 4.8 0 0 1 5 4.7c0 2.6-2.4 4.7-5.3 4.7z"/><path class="cls-5" d="M297.8 75.4a3.3 3.3 0 0 1 1.7.4 1.5 1.5 0 0 1 .8 1.8c0 .3 0 .3.2.4a4.3 4.3 0 0 1 1.4 1.2 1.3 1.3 0 0 1 .2 1.6 1.4 1.4 0 0 1-1.7.6 7.7 7.7 0 0 1-1-.4 3.7 3.7 0 0 0-3 0 7 7 0 0 1-1.4.3 1.4 1.4 0 0 1-1.7-1.7 2.2 2.2 0 0 1 1.3-1.6c.1 0 .4 0 .3-.3-.3-1.2.5-1.6 1.3-2a3.1 3.1 0 0 1 1.6-.3zm-.6 3.1a4.2 4.2 0 0 0 2.2-.4 1 1 0 0 0 .1-1.8 2.3 2.3 0 0 0-1.2-.5 3 3 0 0 0-2.7.7 1 1 0 0 0 .5 1.9 3.1 3.1 0 0 0 1.1.1z"/><path class="cls-5" d="M299.9 83.2c0 .6.2 1.2-.5 1.5a1.1 1.1 0 0 1-1.7-.9 16.1 16.1 0 0 1 0-2.6c0-.2.2-.2.4-.2a7.2 7.2 0 0 1 1.5.5c.2 0 .2.2.2.4v1.3zm-2.6-.6a8.3 8.3 0 0 0 0 1 .8.8 0 0 1-.3.7c-.8.8-1.4.7-1.8-.3a4.2 4.2 0 0 1-.3-2 .4.4 0 0 1 .3-.3l1.7-.6c.3 0 .4 0 .4.4v1.1z"/><path class="cls-24" d="M303.2 70.8a1.7 1.7 0 1 1-3.4 0 1.7 1.7 0 1 1 3.4 0zm-.6.4c0-.2 0-.4-.3-.4s-.4.2-.4.4 0 .5.3.5.4-.2.4-.5zm-14 .1a1.7 1.7 0 1 1-3.5 0 1.7 1.7 0 1 1 3.5 0zm-1 .9a.4.4 0 0 0 .4-.5c0-.3-.1-.5-.4-.5s-.3.3-.3.6a.4.4 0 0 0 .4.4zm9.6 6.3a3.1 3.1 0 0 1-1.1-.1 1 1 0 0 1-.5-1.9 3 3 0 0 1 2.7-.7 2.3 2.3 0 0 1 1.2.5 1 1 0 0 1-.1 1.8 4.2 4.2 0 0 1-2.2.4z"/><path class="cls-23" d="M302.6 71.2c0 .3 0 .5-.4.5s-.4-.2-.3-.5 0-.4.4-.4.3.2.3.4zm-14.9 1a.4.4 0 0 1-.4-.4c0-.3 0-.5.4-.5s.3.1.4.4a.4.4 0 0 1-.4.5z"/></svg>