<svg id="Layer_1" data-name="Layer 1" xmlns="http://www.w3.org/2000/svg" viewBox="0 0 58.33 58.33"><defs><style>.cls-1{fill:none;stroke:#f1592e;stroke-miterlimit:10}.cls-2{fill:#f1592e}</style></defs><title>elements</title><path class="cls-1" d="M29.2 47.8h-7.3a2.8 2.8 0 0 1-2.3-1l-9-11.4a2.6 2.6 0 0 1-.6-2.3L13.3 19a2.5 2.5 0 0 1 1.4-1.8L28 10.8a2.6 2.6 0 0 1 2.4 0l13 6.2a2.8 2.8 0 0 1 1.7 2l3.2 14a2.7 2.7 0 0 1-.5 2.5q-4.6 5.6-9 11.3a2.7 2.7 0 0 1-2.3 1z"/><path class="cls-2" d="M28.6 18.4l-.2-1.5a3.2 3.2 0 0 1 0-.8.8.8 0 0 1 .7-.7.8.8 0 0 1 .9.6 5 5 0 0 1-.1 1.5 5.8 5.8 0 0 1 0 .8c-.2.4.2.7.3 1 0 .2 0 .1.1.1a10.3 10.3 0 0 1 6.2 3c.2.2.3.2.4.1 1 0 1.4-.9 2-1.5a2.5 2.5 0 0 1 .5-.4.8.8 0 0 1 1.1.2.8.8 0 0 1-.1 1 2.7 2.7 0 0 1-.6.6l-1.2.7c-.4.1-.4.6-.7 1v.2a10.6 10.6 0 0 1 1.7 6v.3s-.2.6 0 .6c.3.2.5.6.9.6l1.5.2a2 2 0 0 1 .9.2.8.8 0 0 1 .4.9.8.8 0 0 1-.8.6 2 2 0 0 1-.8-.2l-1.3-.5c-.4-.2-.8.1-1.2.1l-.2.2a10.3 10.3 0 0 1-4.2 5.4c-.2 0-.2.2-.2.3-.1 1 .6 1.6 1 2.3a2.2 2.2 0 0 1 .3.7.8.8 0 0 1-.4 1 .8.8 0 0 1-1-.4 2.7 2.7 0 0 1-.3-.7l-.4-1.2c-.1-.4-.6-.7-.9-1h-.2a10.3 10.3 0 0 1-6.8 0l-.5.1c-.8.5-.8 1.4-1 2.1a4.5 4.5 0 0 1-.4.6.8.8 0 0 1-1.4-.7 4.8 4.8 0 0 1 .4-.6 8.8 8.8 0 0 1 .6-1c.4-.4.2-1 .3-1.4l-.2-.2a10.4 10.4 0 0 1-3.7-4 13.6 13.6 0 0 1-.5-1.2c-.1-.2-.2-.2-.4-.3-.9-.3-1.6.2-2.4.5a2.1 2.1 0 0 1-.7.1.8.8 0 0 1-.9-.6.8.8 0 0 1 .6-.9 3.3 3.3 0 0 1 1-.2 6 6 0 0 1 .9 0c.5 0 .8-.5 1.3-.7v-.2a10.3 10.3 0 0 1 1.5-6.8.3.3 0 0 0 0-.3c-.3-.9-1.2-1.2-2-1.6a2.8 2.8 0 0 1-.4-.4.9.9 0 0 1-.2-1 .8.8 0 0 1 1-.3 2.7 2.7 0 0 1 .8.6l1 1c.3.4.7.2 1 .4h.2a10.2 10.2 0 0 1 6.2-3c.2 0 .3-.1.3-.3l.2-.4a1.9 1.9 0 0 0 0-.6zm-.6 5.3v-1.3c0-.8 0-.8-.7-.7a8.2 8.2 0 0 0-3.7 2c-.1 0-.3.2 0 .3 1 .8 2 1.6 3.2 2.3a.7.7 0 0 0 1-.5c.2-.7.2-1.4.2-2zm9.4 6a8 8 0 0 0-1-4c-.1-.2-.2-.2-.4 0l-2.8 2.5a.7.7 0 0 0 .2 1.3l3.8 1.1c.2 0 .2 0 .2-.2v-.7zM32.7 32a.7.7 0 0 0-.6 1l1.5 3.6c0 .2 0 .3.3.2a8.3 8.3 0 0 0 3-3.8c0-.2 0-.3-.2-.3l-1.4-.2zm-11.8-2.2v.7c0 .2 0 .2.2.2l3.9-1.2a.7.7 0 0 0 .2-1.1c-1-1-2-1.8-3-2.6-.1-.2-.2-.2-.3 0a8.1 8.1 0 0 0-1 4zm.5 3a8.2 8.2 0 0 0 3.1 4c.2 0 .2 0 .3-.2l1.4-3.5c.3-.7 0-1.1-.8-1l-4 .6zm9-11.1c-.2 0-.2.1-.2.3l.2 3.7a.8.8 0 0 0 .4.7.7.7 0 0 0 .8-.1l2.8-2c.6-.4.6-.4 0-.9a8.5 8.5 0 0 0-4-1.8zm-1 16.4a8.1 8.1 0 0 0 2.2-.3c.1 0 .2-.1.1-.3l-2-3.5a.7.7 0 0 0-1.1 0l-2 3.5c0 .2 0 .2.2.3a8.8 8.8 0 0 0 2.6.3zm-.2-9.6c-.3 0-.5-.1-.7.1s-.7.6-.7 1a1.6 1.6 0 0 0 .3 1.2 1.7 1.7 0 0 0 1 .5 1.7 1.7 0 0 0 1.2-.5 1.6 1.6 0 0 0 .3-1.2c0-.4-.5-.6-.7-1s-.5 0-.7-.1z"/></svg>