<svg id="Layer_1" data-name="Layer 1" xmlns="http://www.w3.org/2000/svg" viewBox="0 0 176 168"><defs><style>.cls-1{fill:#fff;stroke:#fff;stroke-miterlimit:10}</style></defs><title>new icons</title><path class="cls-1" d="M90.4 167H61.2a13.9 13.9 0 0 1-11.6-5.6q-18.3-23-36.8-45.8a12 12 0 0 1-2.5-10.7l13.5-58.6a11.2 11.2 0 0 1 6.3-8l45.4-21.6L85 12a11.7 11.7 0 0 1 10.5 0L150 38a12.3 12.3 0 0 1 7 8.7l13.5 58.2a12 12 0 0 1-2.6 10.7l-37.3 46.5a12.6 12.6 0 0 1-10.3 4.9zm-.1-1.8h29.9a11 11 0 0 0 9-4.3l37.2-46.3a10.7 10.7 0 0 0 2.2-9.7l-12.9-56c-1-4.4-3-7.6-7-9.5Q121.8 26.7 95 13.8a10.4 10.4 0 0 0-9.4 0L31 40a9.5 9.5 0 0 0-5.4 6.8l-2.1 9-11.5 50a9.7 9.7 0 0 0 2.1 8.6l36.9 46a12.1 12.1 0 0 0 10.2 5c9.7-.2 19.4-.1 29-.1z"/><path class="cls-1" d="M89.7 45c-.4-3-.8-5.5-1-8a4 4 0 0 1 0-2 2.7 2.7 0 0 1 1.7-1.3 1.3 1.3 0 0 1 1.6 1.2 46 46 0 0 1-.3 4.7c0 1.7-.3 3.4-.4 5a7.4 7.4 0 0 0 .5 2.2c0 .4.4.7.5 1 .4 2.3 2 2.7 3.9 3a39.3 39.3 0 0 1 22.6 10.9 4.8 4.8 0 0 0 5 1.1 11.4 11.4 0 0 0 5.2-3.4l3.7-3.8a2.3 2.3 0 0 1 1.3-.7 2.5 2.5 0 0 1 1.9.6 2.6 2.6 0 0 1-.1 2 2.5 2.5 0 0 1-1.1 1l-5.8 3.7a13.3 13.3 0 0 0-2.5 2.4A18.7 18.7 0 0 0 125 67a2 2 0 0 0 .1 2.3 41.4 41.4 0 0 1 6.7 23.8 22.7 22.7 0 0 1-.4 2.9 3.3 3.3 0 0 0 1.2 3c2.5 2.5 5.7 2.5 8.9 2.8a35.1 35.1 0 0 1 3.6.5c1.5.4 2.1 1.3 1.9 2.3s-1.4 1.6-2.8 1.2a37.8 37.8 0 0 1-5.7-2.1c-2.6-1.3-5-.7-7.5-.1a2.7 2.7 0 0 0-1.5 1.6 39.6 39.6 0 0 1-9.4 15.2 83.4 83.4 0 0 1-7.3 6 3.8 3.8 0 0 0-1.7 2.6 9.4 9.4 0 0 0 1.5 6.6l3 4.5a6.2 6.2 0 0 1 .8 1.8 1.7 1.7 0 0 1-.9 2.2 1.8 1.8 0 0 1-2.2-.9 4.8 4.8 0 0 1-.6-1.1l-2-5.8c-.6-2.6-2.6-4-4.5-5.6a2.6 2.6 0 0 0-2 0 40.7 40.7 0 0 1-26.8.2 3.8 3.8 0 0 0-3.3.4 9.8 9.8 0 0 0-4.3 5.8l-1.7 5a5.7 5.7 0 0 1-.6 1.3 1.7 1.7 0 0 1-2.3.7 1.6 1.6 0 0 1-.9-2.1 5.3 5.3 0 0 1 .7-1.5c1.2-1.8 2.3-3.7 3.6-5.4 1-1.5.9-3.2 1.2-4.8.3-1.9-.3-3-2-4a39.8 39.8 0 0 1-15.7-19.1c-1.4-3.4-3.7-4.8-7.3-4a49.2 49.2 0 0 0-5.1 1.6 30.1 30.1 0 0 1-3.5 1c-1.4.3-2.3-.2-2.5-1.2a2 2 0 0 1 2-2.2 58.7 58.7 0 0 1 6.4-.7 10.2 10.2 0 0 0 4.4-1.4c2.4-1.2 3-2.8 2.8-5.6-1-9 1.3-17.1 5.9-24.7a3.5 3.5 0 0 0 .3-3.3 9.7 9.7 0 0 0-4.2-4.9L46.5 59a3.7 3.7 0 0 1-1.5-1.4 2.8 2.8 0 0 1 0-2 1.4 1.4 0 0 1 2-.5 8 8 0 0 1 1.8 1.4l5 5a8.9 8.9 0 0 0 2.5 1.3l2.2.7a2.2 2.2 0 0 0 2.4-.8 40.9 40.9 0 0 1 12-8.6 42 42 0 0 1 12.8-3.5 2.8 2.8 0 0 0 2.6-2 21 21 0 0 1 1.4-3.5zm-2.1 15.2h-.1a11.4 11.4 0 0 0 0-1.7 2.4 2.4 0 0 0-3-2.2 35.8 35.8 0 0 0-18.8 9.2 2 2 0 0 0 .1 3.2 17.5 17.5 0 0 0 1.6 1.2l12.1 8.5c3.2 2.2 6.8.5 7-3.3.5-5 .8-10 1-15zm38.5 32h.1L126 88a34.2 34.2 0 0 0-4.6-14.3 2.2 2.2 0 0 0-3.6-.6l-2.8 2.6-9.1 8.2c-3 2.8-2.2 6.7 1.7 7.9l15.6 4.6c1.7.4 2.9-.4 3-2.2V92zm-21 6.7a4.3 4.3 0 0 0-4.2 2.5 5 5 0 0 0 .1 4.1l5.9 14.3c1 2.3 2.2 2.6 4.3 1.2a36 36 0 0 0 12.3-15.5c1-2.4.3-3.5-2.2-4-2.2-.2-4.4-.6-6.6-1zm-50.5-7.3v2.3c0 2.2 1.1 3 3.3 2.4L73 92c1.7-.5 3-1.4 3.5-3.2a4.7 4.7 0 0 0-1.7-4.8L63.1 73.6c-1.8-1.6-3.2-1.4-4.3.8a34.8 34.8 0 0 0-4.3 17.2zm25.7 11.7A4.3 4.3 0 0 0 75 99c-5.6 1-11.3 2-16.9 2.8-1 .2-1.5.6-1.3 1.6a7.3 7.3 0 0 0 .3 1.3 35.4 35.4 0 0 0 13 16.5c1.7 1.1 2.9.7 3.6-1.1l5.9-14.2a22.3 22.3 0 0 0 .7-2.6zm10.5 24.6c3.2-.6 6.3-1 9.4-1.8 2.5-.5 3-1.8 1.8-4l-7.5-13.4c-.9-1.6-2.1-2.8-4.1-2.8a4.6 4.6 0 0 0-4.1 2.8l-7.5 13.5c-1.1 2-.7 3.4 1.6 3.9 3.4.7 6.9 1.2 10.4 1.8zm7.6-48.4a20.8 20.8 0 0 0 2.8-1.2l4.3-3 8.4-6c1.8-1.3 2-2.8.5-4.1a35.5 35.5 0 0 0-19-9c-1.5-.3-2.4.7-2.3 2.3l.9 16.2a4.8 4.8 0 0 0 4.4 4.8zm-8.6 5a4.6 4.6 0 0 0-4.4 2c-1.2 1.4-2.4 2.7-2.4 4.8a7.4 7.4 0 0 0 7.3 7.7 7.2 7.2 0 0 0 7.3-7.2c0-4.2-3-7.3-7.8-7.3z"/></svg>