<svg id="Layer_1" data-name="Layer 1" xmlns="http://www.w3.org/2000/svg" viewBox="0 0 720 769"><defs><style>.cls-1,.cls-4,.cls-5{fill:none}.cls-2{fill:#273274}.cls-17,.cls-3,.cls-8,.cls-9{fill:#fff}.cls-4,.cls-5{stroke:#fff}.cls-11,.cls-12,.cls-13,.cls-14,.cls-16,.cls-17,.cls-4,.cls-5,.cls-8,.cls-9{stroke-miterlimit:10}.cls-13,.cls-4,.cls-8{stroke-width:4px}.cls-12,.cls-16,.cls-5,.cls-9{stroke-width:2px}.cls-6{clip-path:url(#clip-path)}.cls-7{clip-path:url(#clip-path-2)}.cls-11,.cls-12,.cls-13,.cls-14,.cls-16,.cls-17,.cls-8,.cls-9{stroke:#273274}.cls-10,.cls-11,.cls-12,.cls-14{fill:#ff544e}.cls-11,.cls-17{stroke-width:3px}.cls-13,.cls-15,.cls-16{fill:#ff8c58}.cls-14{stroke-width:5px}</style><clipPath id="clip-path"><path class="cls-1" d="M2 498.6h720v275.8H2z"/></clipPath><clipPath id="clip-path-2"><path class="cls-1" d="M-101.9 498.6h992v269.8h-992z"/></clipPath></defs><title>mobile elements</title><path class="cls-2" d="M0 0h720v769H0z"/><path class="cls-3" d="M174.9 119.5h5.6V102a3 3 0 0 0-.2-1 1.5 1.5 0 0 0-.4-.7 1.5 1.5 0 0 0-.7-.3 4.3 4.3 0 0 0-.8 0 8.3 8.3 0 0 0-1.7.2 14 14 0 0 0-2.1.6 17.6 17.6 0 0 0-2.2 1 10.8 10.8 0 0 0-2 1.5 7.2 7.2 0 0 0-1.5 1.8 4.3 4.3 0 0 0-.6 2.1 4 4 0 0 0 .3 1.6 2.5 2.5 0 0 0 .6.9 1.6 1.6 0 0 0 .7.4 2.7 2.7 0 0 0 .5 0 2.7 2.7 0 0 0 1.3-.2 7.4 7.4 0 0 0 .9-.6l.7-.5a1.3 1.3 0 0 1 .8-.3 2.1 2.1 0 0 1 .8.2 2.3 2.3 0 0 1 .8.5 3 3 0 0 1 .6 1 3.9 3.9 0 0 1 .3 1.5 4.5 4.5 0 0 1-.5 2.1 4.7 4.7 0 0 1-1.3 1.5 5.1 5.1 0 0 1-1.7 1 6.6 6.6 0 0 1-2 .2 6.7 6.7 0 0 1-2.6-.5 5.9 5.9 0 0 1-2-1.4 6 6 0 0 1-1.3-2.1 7.5 7.5 0 0 1-.4-2.6 9.7 9.7 0 0 1 .8-3.9 11 11 0 0 1 2-3.2 14.3 14.3 0 0 1 3.2-2.5 20.6 20.6 0 0 1 4-1.8 26.3 26.3 0 0 1 4.3-1 29.8 29.8 0 0 1 4.6-.4 12.7 12.7 0 0 1 4 .5 5.2 5.2 0 0 1 2 1.2 2.7 2.7 0 0 1 .8 1.4 7.8 7.8 0 0 1 .1 1.2v18.2H202v-14.8a25 25 0 0 1 1.3-8.7 17.4 17.4 0 0 1 3.4-5.8 12.9 12.9 0 0 1 4.7-3.3 13.8 13.8 0 0 1 5.2-1 20.7 20.7 0 0 1 3.3.2 11.6 11.6 0 0 1 2.8.8 5.5 5.5 0 0 1 1.9 1.3 2.7 2.7 0 0 1 .7 1.8 2.8 2.8 0 0 1-.5 1.6 2 2 0 0 1-.6.6 1.2 1.2 0 0 1-.6.2 1.6 1.6 0 0 1-1-.4 4.6 4.6 0 0 1-.9-.8L221 90a7.5 7.5 0 0 0-.9-1.1 4.4 4.4 0 0 0-1-.9 2.7 2.7 0 0 0-1.4-.3 4.2 4.2 0 0 0-3 1 6.6 6.6 0 0 0-1.7 3 22.4 22.4 0 0 0-.8 5l-.1 6.8v15.9h6.2v2.7H212V141a2.4 2.4 0 0 0 .4 1.4 1.4 1.4 0 0 0 1.2.6 4.2 4.2 0 0 0 1.6-.3l1.3-.6.5 1.1-1.6 1a18.2 18.2 0 0 1-2 1 15.8 15.8 0 0 1-2.3.8 11.4 11.4 0 0 1-2.7.2 8.7 8.7 0 0 1-3.4-.5 5 5 0 0 1-2-1.5 4.9 4.9 0 0 1-.9-2 11.6 11.6 0 0 1-.2-2.3v-17.7h-11.4v15.4a16.4 16.4 0 0 1-1.5 7.3 14.8 14.8 0 0 1-4.2 5.2 18.1 18.1 0 0 1-6.3 3.1 27.8 27.8 0 0 1-7.7 1 17 17 0 0 1-3-.2 12.4 12.4 0 0 1-2.5-.8 5.8 5.8 0 0 1-1.8-1 1.9 1.9 0 0 1-.7-1.4 4.3 4.3 0 0 1 .2-1.2 3.5 3.5 0 0 1 .5-1 2.9 2.9 0 0 1 .7-.7 1.7 1.7 0 0 1 1-.3.8.8 0 0 1 .6.3 6.5 6.5 0 0 1 .5.9l.7 1a4.8 4.8 0 0 0 .9 1.2 5 5 0 0 0 1.4.8 5.2 5.2 0 0 0 2 .4 9 9 0 0 0 4-.9 7.6 7.6 0 0 0 2.9-2.4 11 11 0 0 0 1.6-3.8 19.8 19.8 0 0 0 .6-4.7v-18.2h-5.6zm57.6-5.9a7.3 7.3 0 0 0-2 .3 6.8 6.8 0 0 0-1.5.6 3.6 3.6 0 0 0-1 .8 1.4 1.4 0 0 0-.4.9.7.7 0 0 0 .5.6l1 .5a3.6 3.6 0 0 1 1.1.7 2 2 0 0 1 .5 1.5 2.7 2.7 0 0 1-.2 1.2 3.2 3.2 0 0 1-1.8 1.6 3.5 3.5 0 0 1-1.3.2 3.6 3.6 0 0 1-2.7-1.1 4.5 4.5 0 0 1-1.1-3.2 5.3 5.3 0 0 1 1-3.2 7.7 7.7 0 0 1 2.6-2.2 13 13 0 0 1 3.6-1.3 20 20 0 0 1 8.6.1 11.7 11.7 0 0 1 3.8 1.7 8.6 8.6 0 0 1 2.7 3 8.5 8.5 0 0 1 1 4.2v18a2 2 0 0 0 .2.7 1.1 1.1 0 0 0 .4.4 1.2 1.2 0 0 0 .7.2 1.6 1.6 0 0 0 1-.4 8.5 8.5 0 0 0 .8-.9l.8.7-1.1 1.4a8.9 8.9 0 0 1-3.8 2.6 8 8 0 0 1-2.8.5 5.5 5.5 0 0 1-3.4-1.2 5.6 5.6 0 0 1-2-3.6 13 13 0 0 1-2 2.2 11 11 0 0 1-2.3 1.5 9.5 9.5 0 0 1-2.2.8 10.5 10.5 0 0 1-2.3.2 9 9 0 0 1-2.8-.4 6.9 6.9 0 0 1-2.5-1.5 7.2 7.2 0 0 1-1.8-2.6 10.3 10.3 0 0 1-.7-4 8.6 8.6 0 0 1 1.2-4.5 10 10 0 0 1 2.9-3 19.7 19.7 0 0 1 4-2.1l4.8-1.8a5 5 0 0 0 2.6-2.1 5.7 5.7 0 0 0 .8-3 5 5 0 0 0-1.3-3.6 4.9 4.9 0 0 0-3.6-1.4zm4.9 13.6a1.4 1.4 0 0 0-.5-1.2 2 2 0 0 0-1.3-.4 4.5 4.5 0 0 0-2 .5 5 5 0 0 0-1.7 1.4 7.3 7.3 0 0 0-1.2 2.4 11 11 0 0 0-.4 3.2 13.9 13.9 0 0 0 .2 3 5.8 5.8 0 0 0 .7 2 2.6 2.6 0 0 0 1 1 2.8 2.8 0 0 0 1.3.2 3 3 0 0 0 1.5-.4 4.5 4.5 0 0 0 1.2-1 5.4 5.4 0 0 0 .8-1.5 4.5 4.5 0 0 0 .3-1.6zm37.2-5.4a3.9 3.9 0 0 1-1.6-.3 2.8 2.8 0 0 1-1-.8 3.2 3.2 0 0 1-.6-1 4.2 4.2 0 0 1-.2-1.3 11.5 11.5 0 0 1 .1-1.7 5.3 5.3 0 0 0 0-1.3 1.6 1.6 0 0 0-.5-1 2.1 2.1 0 0 0-1.4-.4 5 5 0 0 0-2.3.6 6.5 6.5 0 0 0-2.2 2 11.3 11.3 0 0 0-1.6 3.4 17 17 0 0 0-.7 5 27 27 0 0 0 .6 5.9 14.2 14.2 0 0 0 1.9 4.5 8.7 8.7 0 0 0 3 3 8.2 8.2 0 0 0 4.2 1 8.3 8.3 0 0 0 2-.3 9 9 0 0 0 1.8-.7 11.8 11.8 0 0 0 1.7-1l1.5-1.2.8.7a21.3 21.3 0 0 1-1.8 2.1 15 15 0 0 1-2.7 2.2 15.5 15.5 0 0 1-3.7 1.7 15.8 15.8 0 0 1-4.8.6 13.8 13.8 0 0 1-5.2-1 13.5 13.5 0 0 1-4.5-3 14.8 14.8 0 0 1-3.2-4.8 16.5 16.5 0 0 1-1.2-6.4 17.9 17.9 0 0 1 .7-5.2 17 17 0 0 1 2-4.3 16 16 0 0 1 2.8-3.3 18 18 0 0 1 3.4-2.5 16.5 16.5 0 0 1 3.7-1.4 14.1 14.1 0 0 1 3.6-.5 13.5 13.5 0 0 1 4 .5 9 9 0 0 1 2.8 1.4 5.7 5.7 0 0 1 1.7 2 5.2 5.2 0 0 1 .5 2.3 6.3 6.3 0 0 1-.2 1.7 4.3 4.3 0 0 1-.7 1.5 3.3 3.3 0 0 1-1.1 1 3.4 3.4 0 0 1-1.6.3zm18.6-2.3l2.3-3a21.3 21.3 0 0 1 2.6-2.6 13.6 13.6 0 0 1 3.1-2 8.6 8.6 0 0 1 3.7-.8 5.7 5.7 0 0 1 2.9.7 6.4 6.4 0 0 1 1.9 1.7 6.2 6.2 0 0 1 1 2 6.8 6.8 0 0 1 .3 1.8 12 12 0 0 1-.4 2.8 10.6 10.6 0 0 1-1.2 2.9 13 13 0 0 1-2.2 2.8 15.5 15.5 0 0 1-3.6 2.4 106.8 106.8 0 0 0 5.6 10.6 52.9 52.9 0 0 0 5.3 7.3 20.7 20.7 0 0 0 4.9 4.2 9 9 0 0 0 4.5 1.3 3 3 0 0 0 .7 0 5.2 5.2 0 0 0 .7-.3 6.7 6.7 0 0 0 .7-.3l.6 1q-.8.6-1.7 1a12 12 0 0 1-2 .7 18.2 18.2 0 0 1-2.6.5 27.6 27.6 0 0 1-3.4.2 15.2 15.2 0 0 1-3.6-.4 12.3 12.3 0 0 1-3.6-1.6 20.1 20.1 0 0 1-3.6-3 33 33 0 0 1-3.8-4.7 67.3 67.3 0 0 1-4-6.7q-2-4-4.2-9.2a32.3 32.3 0 0 0 4.7-4 20 20 0 0 0 2.5-3.4 8.8 8.8 0 0 0 1-2.7 11.3 11.3 0 0 0 .3-2v-.5a1.4 1.4 0 0 0-.2-.5 1.6 1.6 0 0 0-.5-.5 1.6 1.6 0 0 0-.9-.2 3.6 3.6 0 0 0-2.3 1 13.7 13.7 0 0 0-2.2 2.4 23.3 23.3 0 0 0-2 3l-1.4 3v16a4 4 0 0 1-.1 1 2.2 2.2 0 0 1-.7 1 4.1 4.1 0 0 1-1.5.8 7.8 7.8 0 0 1-2.6.4 6.8 6.8 0 0 1-2.5-.4 3.6 3.6 0 0 1-1.4-.9 2.4 2.4 0 0 1-.6-1 4.9 4.9 0 0 1 0-1v-39.8a2.9 2.9 0 0 0-.5-1.5 1.5 1.5 0 0 0-1.4-.7 2.3 2.3 0 0 0-1 .2 3.9 3.9 0 0 0-.7.5l-.7-.7A18.4 18.4 0 0 1 281 97a11.5 11.5 0 0 1 2-1 14.3 14.3 0 0 1 2.1-.7 10.7 10.7 0 0 1 2.5-.3 7.3 7.3 0 0 1 3.1.6 4 4 0 0 1 1.7 1.3 3.8 3.8 0 0 1 .7 1.7 13 13 0 0 1 0 1.5z"/><path class="cls-3" d="M327.2 113.8v22.8a3.2 3.2 0 0 0 .6 2.2 2.3 2.3 0 0 0 1.7.7 2.5 2.5 0 0 0 1.5-.5 5.4 5.4 0 0 0 1.1-1 6.5 6.5 0 0 0 1-1.6l1 .5-1 2.1a8.6 8.6 0 0 1-4.4 3.9 10.2 10.2 0 0 1-4 .7 8.5 8.5 0 0 1-2.6-.4 6.1 6.1 0 0 1-2.2-1.3 6.3 6.3 0 0 1-1.6-2.2 7.5 7.5 0 0 1-.6-3v-23h-3.5v-2.2a9.3 9.3 0 0 0 2.5-.4 12 12 0 0 0 3.1-1.5 12.6 12.6 0 0 0 3-2.8 10.7 10.7 0 0 0 2-4.4h2.5v9.1h5q2.5 0 2.5-.8a.4.4 0 0 0-.3-.4l-.7-.3a2.2 2.2 0 0 1-.7-.5 1.4 1.4 0 0 1-.3-1 1.8 1.8 0 0 1 .5-1.3 2 2 0 0 1 1.4-.5 2 2 0 0 1 1 .2 2.1 2.1 0 0 1 .7.6 2.8 2.8 0 0 1 .4 1 3.6 3.6 0 0 1 .2 1 4.4 4.4 0 0 1-1.2 3.1 5 5 0 0 1-3.7 1.2zm8.7 13.5a19.6 19.6 0 0 1 1.2-7 15 15 0 0 1 3-5.1 12.7 12.7 0 0 1 4.6-3 14.7 14.7 0 0 1 5.5-1 15.8 15.8 0 0 1 5.4.9 12.4 12.4 0 0 1 4.5 2.8 14.1 14.1 0 0 1 3.2 5 19.2 19.2 0 0 1 1.2 7 20.3 20.3 0 0 1-1.2 7.2 16 16 0 0 1-3.1 5.2 13 13 0 0 1-4.6 3.3 13.8 13.8 0 0 1-5.4 1 14.5 14.5 0 0 1-5.5-1 12.8 12.8 0 0 1-4.5-3 15 15 0 0 1-3.1-5.1 19.7 19.7 0 0 1-1.2-7.2zm19-.3q0-2.4-.2-4.7a21.4 21.4 0 0 0-.6-4.1 7.2 7.2 0 0 0-1.5-2.9 3 3 0 0 0-2.4-1 3 3 0 0 0-2.4 1 7.8 7.8 0 0 0-1.5 3 21.6 21.6 0 0 0-.6 4.3q-.2 2.3-.2 4.8t.2 4.8a21.9 21.9 0 0 0 .6 4.2 7.8 7.8 0 0 0 1.5 3 3 3 0 0 0 2.4 1.2 3 3 0 0 0 2.4-1.2 8.3 8.3 0 0 0 1.5-3.1 24.2 24.2 0 0 0 .6-4.3l.2-5zm14.3-26.5a2.9 2.9 0 0 0-.4-1.5 1.5 1.5 0 0 0-1.4-.7 2.3 2.3 0 0 0-.9.2 3.9 3.9 0 0 0-.8.5l-.6-.7a17.3 17.3 0 0 1 1.5-1.2 12.4 12.4 0 0 1 2-1 13.7 13.7 0 0 1 2.1-.7 10.7 10.7 0 0 1 2.5-.3 6.6 6.6 0 0 1 2.9.6 4.4 4.4 0 0 1 1.7 1.3 4.3 4.3 0 0 1 .7 1.7 8.4 8.4 0 0 1 .2 1.7v13.8l1-.9a8.6 8.6 0 0 1 1.5-1 9.8 9.8 0 0 1 2.1-.8 11.4 11.4 0 0 1 3-.4 9.4 9.4 0 0 1 4 1 10 10 0 0 1 3.5 2.8 15.4 15.4 0 0 1 2.6 5 24 24 0 0 1 1 7.3 21.8 21.8 0 0 1-.9 6.4 15.5 15.5 0 0 1-2.7 5.2 12.8 12.8 0 0 1-4.5 3.6 14.2 14.2 0 0 1-6.2 1.3 15.1 15.1 0 0 1-6.5-1.3 11.3 11.3 0 0 1-4.3-3.3 13.3 13.3 0 0 1-2.3-5 24.6 24.6 0 0 1-.7-5.9zm18.4 27.3a43.2 43.2 0 0 0-.3-5 19.8 19.8 0 0 0-.8-4.2 8 8 0 0 0-1.6-2.8 3.2 3.2 0 0 0-4.1-.5 4.9 4.9 0 0 0-1.2 1.2 5 5 0 0 0-.7 1.2 3.4 3.4 0 0 0-.2.9v9.2q0 6.7 1.1 9.8t3.4 3q2.3 0 3.4-3t1-9.8zm23.6 1.2a8.7 8.7 0 0 0 .3 2.1 12.8 12.8 0 0 0 .9 2.4 12.3 12.3 0 0 0 1.3 2.2 10.6 10.6 0 0 0 2 2 9 9 0 0 0 2.3 1.3 7.9 7.9 0 0 0 2.8.4 7.8 7.8 0 0 0 2-.2 8 8 0 0 0 1.7-.7 11.3 11.3 0 0 0 1.6-1l1.5-1.2.7.7a21.2 21.2 0 0 1-1.8 2.1 15 15 0 0 1-2.7 2.2 15.5 15.5 0 0 1-3.6 1.7 15.8 15.8 0 0 1-4.8.6 14.6 14.6 0 0 1-5.3-1 13 13 0 0 1-4.5-3 14.3 14.3 0 0 1-3.2-4.8 19.6 19.6 0 0 1-.4-12 16.6 16.6 0 0 1 1.9-4.1 15.7 15.7 0 0 1 2.8-3.3 17.6 17.6 0 0 1 3.4-2.4 16.9 16.9 0 0 1 3.7-1.4 15 15 0 0 1 7.6 0 9 9 0 0 1 2.8 1.3 5.5 5.5 0 0 1 1.7 2 5 5 0 0 1 .5 2.2 4.3 4.3 0 0 1-.8 2.7 7.7 7.7 0 0 1-2.2 2zm6.2-6.3a5 5 0 0 0 .7-.4 1.7 1.7 0 0 0 .4-.6 3 3 0 0 0 .2-.8 7.7 7.7 0 0 0 .1-1.2 9.7 9.7 0 0 0-.1-1.7 6.9 6.9 0 0 0-.6-1.8 4.4 4.4 0 0 0-1-1.4 2.1 2.1 0 0 0-1.5-.5 2.9 2.9 0 0 0-1.9.6 5.1 5.1 0 0 0-1.3 1.8 10.7 10.7 0 0 0-.8 2.3 26.8 26.8 0 0 0-.5 2.7l-.1 2.7v2zm25-5.1a25.4 25.4 0 0 1 2.5-3.2 16.7 16.7 0 0 1 1.2-1.2 11.5 11.5 0 0 1 1.3-1 7 7 0 0 1 1.4-.8 4.2 4.2 0 0 1 1.5-.2 3.2 3.2 0 0 1 2.5 1 3.7 3.7 0 0 1 .9 2.5 11.8 11.8 0 0 1-.2 2 15 15 0 0 1-.6 2.4h-.9a2.9 2.9 0 0 0-.9-1.6 2.8 2.8 0 0 0-2-.6 5.2 5.2 0 0 0-1.8.3 11.7 11.7 0 0 0-1.9 1 16 16 0 0 0-1.6 1l-1.5 1.2v20a4.5 4.5 0 0 1 0 1 2.2 2.2 0 0 1-.7 1 3.8 3.8 0 0 1-1.4.9 7.5 7.5 0 0 1-2.6.3 7 7 0 0 1-2.6-.3 4 4 0 0 1-1.4-1 2.3 2.3 0 0 1-.6-1 4.3 4.3 0 0 1-.1-1v-23.8a2.9 2.9 0 0 0-.5-1.5 1.5 1.5 0 0 0-1.4-.7 2 2 0 0 0-.9.2 4.8 4.8 0 0 0-.8.5l-.6-.7a17.2 17.2 0 0 1 1.6-1.2 12.4 12.4 0 0 1 1.9-1 13.8 13.8 0 0 1 2.2-.7 10.7 10.7 0 0 1 2.4-.3 6.5 6.5 0 0 1 2.3.4 4.5 4.5 0 0 1 1.5 1 4.3 4.3 0 0 1 1 1.2 7 7 0 0 1 .5 1.4 7.8 7.8 0 0 1 .2 1.4v1.1z"/><path class="cls-3" d="M472.8 97.3a3.7 3.7 0 0 0-1.6.3 3.5 3.5 0 0 0-1.3 1.2 6.6 6.6 0 0 0-1 2 12 12 0 0 0-.3 3.2v7.6h6.8v2.2h-6.8V138a26.2 26.2 0 0 1-1 7.8 16.9 16.9 0 0 1-3.4 6.1 15.3 15.3 0 0 1-5.6 4 19.4 19.4 0 0 1-7.7 1.4 17.1 17.1 0 0 1-3-.2 12.5 12.5 0 0 1-2.6-.7 5.8 5.8 0 0 1-1.8-1.1 2 2 0 0 1-.6-1.4 4.3 4.3 0 0 1 .1-1.2 3.5 3.5 0 0 1 .5-1 2.6 2.6 0 0 1 .7-.7 1.9 1.9 0 0 1 1-.3.8.8 0 0 1 .6.3 7 7 0 0 1 .6.9l.6 1a4.6 4.6 0 0 0 1 1.1 4.8 4.8 0 0 0 1.3.8 5.2 5.2 0 0 0 2 .4 5.9 5.9 0 0 0 2.8-.7 6.3 6.3 0 0 0 2-1.7 10.3 10.3 0 0 0 1.5-2.6 19.2 19.2 0 0 0 1-3.3 30.5 30.5 0 0 0 .4-3.6l.1-3.7v-26h-5.7v-2.2h5.7V108a15.2 15.2 0 0 1 .7-4.7 11.4 11.4 0 0 1 1.8-3.5 10 10 0 0 1 2.4-2.3 14.2 14.2 0 0 1 2.9-1.4 13.5 13.5 0 0 1 2.8-.7 18 18 0 0 1 2.3-.2 21 21 0 0 1 4 .3 12 12 0 0 1 2.8.9 5 5 0 0 1 1.7 1.2 2.3 2.3 0 0 1 .6 1.5 4 4 0 0 1-.2 1.1 4 4 0 0 1-.5 1 2.6 2.6 0 0 1-.7.8 1.8 1.8 0 0 1-1 .3.8.8 0 0 1-.6-.4 8 8 0 0 1-.6-1l-.7-1.1a6 6 0 0 0-1-1.2 4.7 4.7 0 0 0-1.2-1 3.9 3.9 0 0 0-1.8-.3zm12.7 31.7a8.7 8.7 0 0 0 .3 2.1 12.9 12.9 0 0 0 .9 2.4 12.3 12.3 0 0 0 1.3 2.2 10.6 10.6 0 0 0 1.9 1.9 9 9 0 0 0 2.3 1.3 7.9 7.9 0 0 0 2.9.5 7.8 7.8 0 0 0 2-.2 8 8 0 0 0 1.7-.7 11.2 11.2 0 0 0 1.5-1l1.5-1.2.8.7a21 21 0 0 1-1.8 2.1 15 15 0 0 1-2.7 2.2 15.5 15.5 0 0 1-3.7 1.6 15.8 15.8 0 0 1-4.8.7 14.6 14.6 0 0 1-5.2-1 13 13 0 0 1-4.5-3 14.3 14.3 0 0 1-3.2-4.8 19.6 19.6 0 0 1-.5-12 16.6 16.6 0 0 1 2-4.2 15.7 15.7 0 0 1 2.8-3.3 17.6 17.6 0 0 1 3.4-2.3 16.9 16.9 0 0 1 3.7-1.4 15 15 0 0 1 7.5 0 9 9 0 0 1 2.9 1.3 5.5 5.5 0 0 1 1.6 2 5 5 0 0 1 .6 2.2 4.3 4.3 0 0 1-.8 2.6 7.7 7.7 0 0 1-2.2 2zm6.2-6.3a5 5 0 0 0 .7-.4 1.7 1.7 0 0 0 .4-.6 3 3 0 0 0 .2-.8 7.7 7.7 0 0 0 .1-1.2 9.7 9.7 0 0 0-.1-1.7 6.9 6.9 0 0 0-.6-1.8 4.4 4.4 0 0 0-1-1.4 2.1 2.1 0 0 0-1.4-.5 2.9 2.9 0 0 0-2 .7 5.2 5.2 0 0 0-1.2 1.7 10.7 10.7 0 0 0-.9 2.3 27 27 0 0 0-.4 2.7l-.2 2.7v2zm25-9.1a4.7 4.7 0 0 0-1.3.2 3 3 0 0 0-1.1.6 2.9 2.9 0 0 0-.8 1 3.7 3.7 0 0 0-.3 1.5 4 4 0 0 0 .9 2.4 20.7 20.7 0 0 0 2.2 2.4l2.8 2.7a31.3 31.3 0 0 1 2.9 2.9 16.4 16.4 0 0 1 2.2 3.2 8 8 0 0 1 .8 3.7 9.8 9.8 0 0 1-.7 4 8 8 0 0 1-2.2 3 9.6 9.6 0 0 1-3.4 1.8 14.6 14.6 0 0 1-4.4.6 11.7 11.7 0 0 1-3.9-.6 14 14 0 0 1-3-1.4 13.4 13.4 0 0 1-2.3-1.9 12.4 12.4 0 0 1-1.5-1.8l1-.8a10.4 10.4 0 0 0 1 1 9.9 9.9 0 0 0 1.4 1 8 8 0 0 0 1.7.8 5.4 5.4 0 0 0 1.7.3 6 6 0 0 0 3.7-1 3.7 3.7 0 0 0 1.4-3.2 4.6 4.6 0 0 0-.8-2.5 19 19 0 0 0-2-2.5q-1.1-1.4-2.5-2.8a37.2 37.2 0 0 1-2.5-3 17.3 17.3 0 0 1-2-3 7.6 7.6 0 0 1-.7-3.4 7 7 0 0 1 .8-3.4 7.2 7.2 0 0 1 2-2.4 9.4 9.4 0 0 1 3-1.4 12.7 12.7 0 0 1 3.6-.5 17.7 17.7 0 0 1 3.7.4 9.2 9.2 0 0 1 3 1.1 5.4 5.4 0 0 1 1.8 2 5.2 5.2 0 0 1 .7 2.6 3 3 0 0 1-.8 2 2.8 2.8 0 0 1-2.1.8 3.1 3.1 0 0 1-2-.5 2 2 0 0 1-.7-1.6 1.5 1.5 0 0 1 .3-1 2.9 2.9 0 0 1 .7-.6l.8-.4a.5.5 0 0 0 .3-.5 1.5 1.5 0 0 0-1-1.3 4.9 4.9 0 0 0-2.4-.5zm23.5.2v22.8a3.2 3.2 0 0 0 .6 2.2 2.3 2.3 0 0 0 1.7.7 2.5 2.5 0 0 0 1.5-.5 5.4 5.4 0 0 0 1.1-1 6.5 6.5 0 0 0 1-1.6l1 .5-1 2.1a8.8 8.8 0 0 1-1.8 2.2 8.7 8.7 0 0 1-2.6 1.7 10.2 10.2 0 0 1-4 .7 8.5 8.5 0 0 1-2.6-.4 6.1 6.1 0 0 1-2.2-1.3 6.3 6.3 0 0 1-1.6-2.2 7.5 7.5 0 0 1-.6-3v-23h-3.5v-2.2a9.3 9.3 0 0 0 2.5-.4 12 12 0 0 0 3.1-1.5 12.6 12.6 0 0 0 3-2.8 10.7 10.7 0 0 0 2-4.4h2.5v9.1h5q2.5 0 2.5-.8a.4.4 0 0 0-.3-.4c-.3 0-.5-.2-.7-.3a2.2 2.2 0 0 1-.7-.5 1.4 1.4 0 0 1-.4-1 1.8 1.8 0 0 1 .6-1.3 2 2 0 0 1 1.4-.5 2 2 0 0 1 1 .2 2.1 2.1 0 0 1 .7.6 2.8 2.8 0 0 1 .4 1 3.7 3.7 0 0 1 .1 1 4.4 4.4 0 0 1-1.1 3.1 5 5 0 0 1-3.7 1.2z"/><path class="cls-4" d="M560.5 112.2h27.3V90.5m-27.3 39.8h57.4m-57.4 16h45.4v15.3m-451.2-20.3h-27.3V163m27.7-39.8H97.2m57.1-16.1h-45V92"/><circle class="cls-4" cx="605.5" cy="170.8" r="4"/><circle class="cls-5" cx="588.2" cy="91.8" r="2.8"/><circle class="cls-3" cx="628" cy="129.8" r="4"/><circle class="cls-4" cx="108.9" cy="84.6" r="4"/><circle class="cls-5" cx="90.8" cy="123.6" r="2.8"/><circle class="cls-3" cx="127.4" cy="171.4" r="4"/><path class="cls-3" d="M102.1 221.5a8.9 8.9 0 0 1 3.4 3.3 8.6 8.6 0 0 1 1.2 4.5 8.7 8.7 0 0 1-1.2 4.5 9 9 0 0 1-3.4 3.3 9.7 9.7 0 0 1-9.3 0 9 9 0 0 1-3.4-3.3 8.7 8.7 0 0 1-1.2-4.5 8.6 8.6 0 0 1 1.2-4.5 9 9 0 0 1 3.4-3.3 9.8 9.8 0 0 1 9.3 0zm-8 2a6.9 6.9 0 0 0-2.5 2.4 6.7 6.7 0 0 0 0 6.8 7 7 0 0 0 2.5 2.5 6.7 6.7 0 0 0 3.4.9 6.5 6.5 0 0 0 3.4-1 7 7 0 0 0 2.5-2.4 6.8 6.8 0 0 0 0-6.8 6.8 6.8 0 0 0-2.5-2.5 6.6 6.6 0 0 0-3.4-.9 6.7 6.7 0 0 0-3.4 1zm26.6 2.1a5.9 5.9 0 0 1 2.2 2.4 8 8 0 0 1 0 7 5.7 5.7 0 0 1-2.2 2.3 6.5 6.5 0 0 1-3.3.9 6 6 0 0 1-3-.7 5 5 0 0 1-2-2v7.5H110v-18.2h2.4v2.6a5 5 0 0 1 2-2 6 6 0 0 1 3-.7 6.5 6.5 0 0 1 3.3.9zm-1.5 10a4.2 4.2 0 0 0 1.6-1.7 5.2 5.2 0 0 0 .6-2.4 5 5 0 0 0-.6-2.5 4.3 4.3 0 0 0-1.6-1.6 4.3 4.3 0 0 0-2.3-.6 4.4 4.4 0 0 0-2.3.6 4.2 4.2 0 0 0-1.6 1.6 5.4 5.4 0 0 0 0 4.9 4.3 4.3 0 0 0 1.6 1.6 4.7 4.7 0 0 0 4.6 0zm17.8-9a7.5 7.5 0 0 1 1.6 5v.8H128a4.5 4.5 0 0 0 1.5 2.8 4.4 4.4 0 0 0 3 1 5.6 5.6 0 0 0 2.2-.4 5.3 5.3 0 0 0 1.7-1.2l1.3 1.4a6.7 6.7 0 0 1-2.3 1.6 7.9 7.9 0 0 1-3.1.6 7 7 0 0 1-3.5-.9 6 6 0 0 1-2.4-2.3 7.6 7.6 0 0 1 0-7 6.1 6.1 0 0 1 2.4-2.4 6.8 6.8 0 0 1 3.5-1 5.9 5.9 0 0 1 4.6 2zm-.5 4a3.9 3.9 0 0 0-4.2-4 4.2 4.2 0 0 0-2.9 1.1 4.4 4.4 0 0 0-1.4 2.9zm16.4-4.5a5.2 5.2 0 0 1 1.3 3.8v8.2h-2.3v-7.6a3.3 3.3 0 0 0-3.6-3.6 4 4 0 0 0-2.9 1.2 4.5 4.5 0 0 0-1.3 2.9v7.1h-2.3v-13.3h2.3v2.8q1.4-2.8 5-2.9a4.9 4.9 0 0 1 3.8 1.4zm5.7-5.6h12.2v2.2H161v5.4h8.8v2.2H161v5.6h10.1v2.2h-12.5zm28.2 1.2a3.8 3.8 0 0 1 1.5 3.2 3.9 3.9 0 0 1-.8 2.5 4.2 4.2 0 0 1-2.4 1.4 4.6 4.6 0 0 1 3 1.5 4.4 4.4 0 0 1 1 3 4.2 4.2 0 0 1-1.8 3.5 7.7 7.7 0 0 1-4.7 1.3H175v-17.6h7.5a6.9 6.9 0 0 1 4.3 1.2zm-1.9 5.6a2.4 2.4 0 0 0 1-2 2.3 2.3 0 0 0-1-2 4 4 0 0 0-2.5-.6h-5v5.3h5a4 4 0 0 0 2.5-.7zm.6 7.8a2.5 2.5 0 0 0 1-2.1 2.4 2.4 0 0 0-1-2 5.4 5.4 0 0 0-3-.8h-5v5.7h5a5.2 5.2 0 0 0 3-.8zm15.2-12.1a8.6 8.6 0 0 0-2.5-.4 4.5 4.5 0 0 0-2.4.6 1.8 1.8 0 0 0-1 1.6 2.1 2.1 0 0 0 .6 1.5 3.9 3.9 0 0 0 1.4 1l2.2.8a25.2 25.2 0 0 1 3 1 5 5 0 0 1 1.8 1.5 4.1 4.1 0 0 1 .8 2.7 4.4 4.4 0 0 1-.8 2.6 5.2 5.2 0 0 1-2.3 1.7 8.7 8.7 0 0 1-3.4.7 9.8 9.8 0 0 1-3.8-.8 10.2 10.2 0 0 1-3.1-2l1-2a9 9 0 0 0 2.9 1.8 7.8 7.8 0 0 0 3 .7 4.9 4.9 0 0 0 2.8-.7 2.1 2.1 0 0 0 1-1.9 2.2 2.2 0 0 0-.5-1.5 4 4 0 0 0-1.4-1 24 24 0 0 0-2.3-.8 23 23 0 0 1-2.9-1 5 5 0 0 1-1.9-1.5 4 4 0 0 1-.7-2.5 4.2 4.2 0 0 1 .7-2.5 5 5 0 0 1 2.2-1.7 8.6 8.6 0 0 1 3.3-.6 10.6 10.6 0 0 1 3.1.5 10.4 10.4 0 0 1 2.7 1.2l-1 2.2a10.2 10.2 0 0 0-2.5-1.2zm24.8 2.6a5.9 5.9 0 0 1 2.3 2.4 8 8 0 0 1 0 7 5.7 5.7 0 0 1-2.3 2.3 6.5 6.5 0 0 1-3.3.9 6 6 0 0 1-3-.7 5 5 0 0 1-2-2v7.5H215v-18.2h2.3v2.6a5 5 0 0 1 2-2 6 6 0 0 1 3-.7 6.5 6.5 0 0 1 3.3.9zm-1.5 10a4.2 4.2 0 0 0 1.6-1.7 5.2 5.2 0 0 0 .6-2.4 5 5 0 0 0-.6-2.5 4.3 4.3 0 0 0-1.6-1.6 4.3 4.3 0 0 0-2.3-.6 4.4 4.4 0 0 0-2.3.6 4.2 4.2 0 0 0-1.6 1.6 5.4 5.4 0 0 0 0 5 4.3 4.3 0 0 0 1.6 1.6 4.7 4.7 0 0 0 4.6 0zm12-10.1a5.5 5.5 0 0 1 2.9-.8v2.3a4.3 4.3 0 0 0-4.8 4.1v7h-2.3v-13.3h2.3v2.9a4.8 4.8 0 0 1 1.9-2.2zm14.5.1a6.2 6.2 0 0 1 2.4 2.4 7.5 7.5 0 0 1 0 7 6.1 6.1 0 0 1-2.4 2.4 7.8 7.8 0 0 1-7 0 6.2 6.2 0 0 1-2.5-2.4 7.5 7.5 0 0 1 0-7 6.2 6.2 0 0 1 2.4-2.4 7.8 7.8 0 0 1 7.1 0zm-5.9 1.8a4.2 4.2 0 0 0-1.5 1.6 5.1 5.1 0 0 0-.6 2.5 5.2 5.2 0 0 0 .6 2.4 4 4 0 0 0 1.5 1.7 4.6 4.6 0 0 0 2.4.6 4.5 4.5 0 0 0 2.3-.6 4 4 0 0 0 1.6-1.7 5.2 5.2 0 0 0 .5-2.4 5.1 5.1 0 0 0-.5-2.5 4.2 4.2 0 0 0-1.6-1.6 4.4 4.4 0 0 0-2.3-.6 4.5 4.5 0 0 0-2.3.6zM255 241a1.6 1.6 0 0 0 1.5-.6 3.3 3.3 0 0 0 .5-2v-13.6h2.4v14a4.6 4.6 0 0 1-1 3.2 3.6 3.6 0 0 1-2.8 1.1 6.3 6.3 0 0 1-2.3-.4l.5-1.8a4.6 4.6 0 0 0 1.3.2zm4.2-21a1.6 1.6 0 0 1 0 2 1.5 1.5 0 0 1-2 0 1.6 1.6 0 0 1 0-2 1.5 1.5 0 0 1 2 0zm14.5 6.6a7.5 7.5 0 0 1 1.6 5v.8h-10.6a4.5 4.5 0 0 0 1.5 2.8 4.4 4.4 0 0 0 3 1 5.6 5.6 0 0 0 2.2-.4 5.3 5.3 0 0 0 1.8-1.2l1.3 1.4a6.7 6.7 0 0 1-2.4 1.6 7.9 7.9 0 0 1-3 .6 7 7 0 0 1-3.5-.9 6 6 0 0 1-2.4-2.3 7.6 7.6 0 0 1 0-7 6.1 6.1 0 0 1 2.4-2.4 6.8 6.8 0 0 1 3.4-1 5.9 5.9 0 0 1 4.7 2zm-.5 4a3.9 3.9 0 0 0-4.2-4 4.2 4.2 0 0 0-2.9 1.1 4.4 4.4 0 0 0-1.4 2.9zm10.8-3.8a4.6 4.6 0 0 0-2.3.6 4.1 4.1 0 0 0-1.6 1.6 5 5 0 0 0-.6 2.5 5 5 0 0 0 .6 2.4 4.2 4.2 0 0 0 1.5 1.6 4.4 4.4 0 0 0 2.3.6 6 6 0 0 0 2.3-.4 4.4 4.4 0 0 0 1.7-1.2l1.3 1.3a5.9 5.9 0 0 1-2.3 1.8 7.9 7.9 0 0 1-3.1.6 6.9 6.9 0 0 1-3.5-.9 6 6 0 0 1-2.3-2.3 7.7 7.7 0 0 1 0-7 6 6 0 0 1 2.4-2.4 6.9 6.9 0 0 1 3.4-.8 8.4 8.4 0 0 1 3 .5 5.9 5.9 0 0 1 2.3 1.5l-1.3 1.6a5.3 5.3 0 0 0-3.8-1.6zm15.8 10.4a5.7 5.7 0 0 1-3.2 1 3.5 3.5 0 0 1-2.5-1 3.8 3.8 0 0 1-1-2.8V227h-2v-1.8h2v-3.6h2.3v3.6h4v1.8h-4v7a2.5 2.5 0 0 0 .4 1.6 1.5 1.5 0 0 0 1.2.5 4.2 4.2 0 0 0 2-.7zm11.6-17.2a1.6 1.6 0 0 1 0 2 1.5 1.5 0 0 1-2.1 0 1.6 1.6 0 0 1 0-2 1.5 1.5 0 0 1 2 0zm-2.2 4.8h2.3v13.3h-2.3zm12.3 2.2a6.5 6.5 0 0 0-1.9-.4 3.2 3.2 0 0 0-1.7.4 1.3 1.3 0 0 0-.6 1.2 1.3 1.3 0 0 0 .7 1.2 10.4 10.4 0 0 0 2.2.9 17.2 17.2 0 0 1 2.2.8 4 4 0 0 1 1.5 1.2 3.7 3.7 0 0 1-.8 4.9 6 6 0 0 1-3.5 1 8.8 8.8 0 0 1-2.9-.5 6.5 6.5 0 0 1-2.3-1.3l.9-1.8a6.2 6.2 0 0 0 2 1.2 6.8 6.8 0 0 0 2.3.5 3.5 3.5 0 0 0 1.9-.4 1.4 1.4 0 0 0 .7-1.3 1.5 1.5 0 0 0-.7-1.4 10.2 10.2 0 0 0-2.3-1 14.9 14.9 0 0 1-2.2-.7 3.9 3.9 0 0 1-1.4-1.1 3 3 0 0 1-.6-2 3.2 3.2 0 0 1 1.4-2.8 5.9 5.9 0 0 1 3.4-1 8.5 8.5 0 0 1 2.4.4 7.2 7.2 0 0 1 2 1l-.9 1.7a8 8 0 0 0-1.8-.8zm12.9-7.6h2.3v18.7h-2.3zm16.1 6.2a6.2 6.2 0 0 1 2.4 2.4 7.5 7.5 0 0 1 0 7 6.1 6.1 0 0 1-2.4 2.4 7.8 7.8 0 0 1-7.1 0 6.2 6.2 0 0 1-2.4-2.4 7.5 7.5 0 0 1 0-7 6.2 6.2 0 0 1 2.4-2.4 7.8 7.8 0 0 1 7.1 0zm-5.9 1.8a4.2 4.2 0 0 0-1.6 1.6 5.1 5.1 0 0 0-.6 2.4 5.2 5.2 0 0 0 .6 2.5 4 4 0 0 0 1.6 1.7 4.6 4.6 0 0 0 2.3.6 4.5 4.5 0 0 0 2.3-.6 4 4 0 0 0 1.6-1.7 5.2 5.2 0 0 0 .6-2.5 5.1 5.1 0 0 0-.6-2.4 4.2 4.2 0 0 0-1.6-1.7 4.4 4.4 0 0 0-2.3-.6 4.5 4.5 0 0 0-2.3.7zm21.4-1.8a6.2 6.2 0 0 1 2.5 2.4 7.5 7.5 0 0 1 0 7 6.1 6.1 0 0 1-2.4 2.4 7.8 7.8 0 0 1-7.1 0 6.2 6.2 0 0 1-2.4-2.4 7.5 7.5 0 0 1 0-7 6.2 6.2 0 0 1 2.4-2.4 7.8 7.8 0 0 1 7 0zm-5.8 1.8a4.2 4.2 0 0 0-1.6 1.6 5.1 5.1 0 0 0-.5 2.5 5.2 5.2 0 0 0 .5 2.4 4 4 0 0 0 1.6 1.7 4.6 4.6 0 0 0 2.3.6 4.5 4.5 0 0 0 2.3-.6 4 4 0 0 0 1.6-1.7 5.2 5.2 0 0 0 .6-2.4 5.1 5.1 0 0 0-.6-2.5 4.2 4.2 0 0 0-1.6-1.6 4.4 4.4 0 0 0-2.3-.6 4.5 4.5 0 0 0-2.3.6zm21.8 10.7l-4.3-6.4-2.6 2.6v3.8h-2.3v-18.7h2.3v12l6.4-6.6h2.8l-5 5.2 5.4 8.1zm7.5-18.1a1.6 1.6 0 0 1 0 2 1.5 1.5 0 0 1-2.1 0 1.6 1.6 0 0 1 0-2 1.5 1.5 0 0 1 2 0zm-2.2 4.8h2.3v13.3h-2.3zm17.9 1.3a5.2 5.2 0 0 1 1.4 3.8v8.2h-2.4v-7.6a3.3 3.3 0 0 0-3.5-3.6 4 4 0 0 0-3 1.2 4.5 4.5 0 0 0-1.2 2.9v7.1h-2.3v-13.3h2.3v2.8q1.3-2.8 5-2.9a4.9 4.9 0 0 1 3.7 1.4zm17.3-1.3v12a6.5 6.5 0 0 1-.8 3.3 5.6 5.6 0 0 1-2.4 2.2 7.9 7.9 0 0 1-3.6.8 9.1 9.1 0 0 1-5.5-1.9l1-1.7a7 7 0 0 0 2 1.2 6.6 6.6 0 0 0 2.3.4 4.6 4.6 0 0 0 3.3-1.2 4 4 0 0 0 1.3-3V235a5 5 0 0 1-2 1.9 5.6 5.6 0 0 1-2.7.6 6 6 0 0 1-3.2-.8 5.6 5.6 0 0 1-2.1-2.2 7.2 7.2 0 0 1-.8-3.4 7 7 0 0 1 .8-3.3 5.5 5.5 0 0 1 2.1-2.2 6.1 6.1 0 0 1 3.2-.8 5.7 5.7 0 0 1 2.8.6 4.9 4.9 0 0 1 1.9 1.9v-2.5zm-4.4 10.2a4 4 0 0 0 1.5-1.6 4.8 4.8 0 0 0 .5-2.3 4.9 4.9 0 0 0-.5-2.3 4 4 0 0 0-1.5-1.6 4.2 4.2 0 0 0-2.2-.6 4.2 4.2 0 0 0-2.2.6 4.1 4.1 0 0 0-1.5 1.6 4.8 4.8 0 0 0-.6 2.3 4.6 4.6 0 0 0 1.3 3.2 4 4 0 0 0 3 1.3 4.1 4.1 0 0 0 2.2-.6zm18.7-13a2 2 0 0 0-.6 1.5v1.8h3.6v1.7h-3.6v11h-2.4v-11h-1.7v-1.8h1.7v-1.4a4.7 4.7 0 0 1 .6-2.5 4 4 0 0 1 1.7-1.5 4.7 4.7 0 0 1 2.1-.6 5.2 5.2 0 0 1 2.3.7l-.5 1.9a4 4 0 0 0-1.7-.5 2.1 2.1 0 0 0-1.5.6zm14 3.6a6.2 6.2 0 0 1 2.4 2.4 7.5 7.5 0 0 1 0 7 6.1 6.1 0 0 1-2.4 2.4 7.8 7.8 0 0 1-7.1 0 6.2 6.2 0 0 1-2.4-2.4 7.5 7.5 0 0 1 0-7 6.2 6.2 0 0 1 2.4-2.4 7.8 7.8 0 0 1 7 0zm-5.9 1.8a4.2 4.2 0 0 0-1.5 1.6 5.1 5.1 0 0 0-.6 2.5 5.2 5.2 0 0 0 .6 2.4 4 4 0 0 0 1.5 1.7 4.6 4.6 0 0 0 2.4.6 4.5 4.5 0 0 0 2.3-.6 4 4 0 0 0 1.5-1.7 5.2 5.2 0 0 0 .6-2.4 5.1 5.1 0 0 0-.6-2.5 4.2 4.2 0 0 0-1.5-1.6 4.4 4.4 0 0 0-2.3-.6 4.5 4.5 0 0 0-2.4.6zm16.6-1.9a5.5 5.5 0 0 1 3-.8v2.3a4.3 4.3 0 0 0-4.8 4.1v7h-2.4v-13.3h2.4v2.9a4.8 4.8 0 0 1 1.8-2.2zm17.5 1.3a4.6 4.6 0 0 0-2.3.6 4.1 4.1 0 0 0-1.6 1.6 5 5 0 0 0-.5 2.5 5 5 0 0 0 .5 2.4 4.2 4.2 0 0 0 1.6 1.6 4.4 4.4 0 0 0 2.3.6 6 6 0 0 0 2.3-.4 4.4 4.4 0 0 0 1.7-1.2l1.3 1.3a5.9 5.9 0 0 1-2.3 1.8 7.9 7.9 0 0 1-3.1.6 6.9 6.9 0 0 1-3.5-.9 6 6 0 0 1-2.3-2.4 7.7 7.7 0 0 1 0-7 6 6 0 0 1 2.3-2.3 6.9 6.9 0 0 1 3.5-1 8.4 8.4 0 0 1 3 .6 5.9 5.9 0 0 1 2.2 1.5l-1.3 1.6a5.3 5.3 0 0 0-3.7-1.5zm17.2-1.2a6.2 6.2 0 0 1 2.4 2.4 7.5 7.5 0 0 1 0 7 6.1 6.1 0 0 1-2.4 2.4 7.8 7.8 0 0 1-7.1 0 6.2 6.2 0 0 1-2.4-2.4 7.5 7.5 0 0 1 0-7 6.2 6.2 0 0 1 2.4-2.4 7.8 7.8 0 0 1 7 0zm-5.9 1.8a4.2 4.2 0 0 0-1.6 1.6 5.1 5.1 0 0 0-.5 2.5 5.2 5.2 0 0 0 .5 2.4 4 4 0 0 0 1.6 1.7 4.6 4.6 0 0 0 2.3.6 4.5 4.5 0 0 0 2.3-.6 4 4 0 0 0 1.6-1.7 5.2 5.2 0 0 0 .6-2.4 5.1 5.1 0 0 0-.6-2.5 4.2 4.2 0 0 0-1.6-1.6 4.4 4.4 0 0 0-2.3-.6 4.5 4.5 0 0 0-2.3.6zm23.5-1.3a5.2 5.2 0 0 1 1.3 3.8v8.2h-2.3v-7.6a3.3 3.3 0 0 0-3.6-3.6 4 4 0 0 0-2.9 1.2 4.5 4.5 0 0 0-1.3 2.9v7.1h-2.3v-13.3h2.3v2.8q1.3-2.8 5-2.9a4.9 4.9 0 0 1 3.8 1.4zm12.6 11.1a5.7 5.7 0 0 1-3 1 3.5 3.5 0 0 1-2.7-1 3.8 3.8 0 0 1-1-2.8V227h-1.9v-1.8h2v-3.6h2.3v3.6h4v1.8h-4v7a2.5 2.5 0 0 0 .4 1.6 1.5 1.5 0 0 0 1.2.5 4.2 4.2 0 0 0 2-.7zm7.1-11.7a5.5 5.5 0 0 1 2.8-.8v2.3a4.3 4.3 0 0 0-4.7 4.1v7h-2.3v-13.3h2.3v2.9a4.8 4.8 0 0 1 1.9-2.2zm7.5-5.5a1.6 1.6 0 0 1 0 2 1.5 1.5 0 0 1-2 0 1.6 1.6 0 0 1 0-2 1.5 1.5 0 0 1 2 0zm-2.1 4.8h2.3v13.3H539zm17.6.8a5.9 5.9 0 0 1 2.2 2.4 8 8 0 0 1 0 7 5.7 5.7 0 0 1-2.2 2.3 6.5 6.5 0 0 1-3.3.9 6 6 0 0 1-3-.7 5 5 0 0 1-2-2v2.6h-2.3v-18.7h2.3v8a5 5 0 0 1 2-2 6 6 0 0 1 3-.7 6.5 6.5 0 0 1 3.3.9zm-1.5 10a4.2 4.2 0 0 0 1.6-1.7 5.2 5.2 0 0 0 .6-2.4 5 5 0 0 0-.6-2.5 4.3 4.3 0 0 0-1.6-1.6 4.3 4.3 0 0 0-2.3-.6 4.4 4.4 0 0 0-2.3.6 4.2 4.2 0 0 0-1.6 1.6 5.4 5.4 0 0 0 0 5 4.3 4.3 0 0 0 1.6 1.6 4.7 4.7 0 0 0 4.6 0zm19.6-10.8v13.3h-2.4v-2.8q-1.3 2.8-4.9 2.9a4.8 4.8 0 0 1-3.6-1.4 5.3 5.3 0 0 1-1.3-3.8v-8.2h2.3v7.6a3.6 3.6 0 0 0 1 2.6 3.4 3.4 0 0 0 2.5 1 3.7 3.7 0 0 0 3-1.4 5 5 0 0 0 1-3.3v-6.5zm11.7 12.4a5.7 5.7 0 0 1-3.1 1 3.5 3.5 0 0 1-2.6-1 3.8 3.8 0 0 1-1-2.8V227h-1.9v-1.8h1.9v-3.6h2.4v3.6h4v1.8h-4v7a2.5 2.5 0 0 0 .4 1.6 1.5 1.5 0 0 0 1.2.5 4.2 4.2 0 0 0 2-.7zm5-17.2a1.6 1.6 0 0 1 0 2 1.5 1.5 0 0 1-2 0 1.6 1.6 0 0 1 0-2 1.5 1.5 0 0 1 2 0zm-2.2 4.8h2.4v13.3H589zm15.9.8a6.2 6.2 0 0 1 2.5 2.4 7.5 7.5 0 0 1 0 7 6.1 6.1 0 0 1-2.4 2.4 7.8 7.8 0 0 1-7.1 0 6.2 6.2 0 0 1-2.4-2.4 7.5 7.5 0 0 1 0-7 6.2 6.2 0 0 1 2.4-2.4 7.8 7.8 0 0 1 7 0zm-5.8 1.8a4.2 4.2 0 0 0-1.6 1.6 5.1 5.1 0 0 0-.5 2.5 5.2 5.2 0 0 0 .5 2.4 4 4 0 0 0 1.6 1.7 4.6 4.6 0 0 0 2.3.6 4.5 4.5 0 0 0 2.4-.6 4 4 0 0 0 1.5-1.7 5.2 5.2 0 0 0 .6-2.4 5.1 5.1 0 0 0-.6-2.5 4.2 4.2 0 0 0-1.5-1.6 4.4 4.4 0 0 0-2.3-.6 4.5 4.5 0 0 0-2.4.6zm23.5-1.3a5.2 5.2 0 0 1 1.3 3.8v8.2h-2.3v-7.6a3.3 3.3 0 0 0-3.6-3.6 4 4 0 0 0-2.9 1.2 4.5 4.5 0 0 0-1.2 2.9v7.1h-2.3v-13.3h2.3v2.8q1.3-2.8 5-2.9a4.9 4.9 0 0 1 3.7 1.4zm10.9.9a6.5 6.5 0 0 0-1.9-.4 3.2 3.2 0 0 0-1.7.4 1.3 1.3 0 0 0-.6 1.2 1.3 1.3 0 0 0 .7 1.2 10.4 10.4 0 0 0 2.2.9 17.2 17.2 0 0 1 2.3.8 4 4 0 0 1 1.5 1.2 3.7 3.7 0 0 1-.8 4.9 6 6 0 0 1-3.6 1 8.8 8.8 0 0 1-2.8-.5 6.5 6.5 0 0 1-2.4-1.3l.9-1.8a6.2 6.2 0 0 0 2 1.2 6.8 6.8 0 0 0 2.4.5 3.5 3.5 0 0 0 1.8-.4 1.4 1.4 0 0 0 .7-1.3 1.5 1.5 0 0 0-.7-1.4 10.2 10.2 0 0 0-2.3-1 14.9 14.9 0 0 1-2.1-.7 3.9 3.9 0 0 1-1.5-1.1 3 3 0 0 1-.5-2 3.2 3.2 0 0 1 1.3-2.8 5.9 5.9 0 0 1 3.4-1 8.5 8.5 0 0 1 2.4.4 7.2 7.2 0 0 1 2 1l-.9 1.7a8 8 0 0 0-1.8-.8zm14.4 8.8a1.4 1.4 0 0 1 .3 1 1.5 1.5 0 0 1-.4 1 1.3 1.3 0 0 1-1 .5 1.3 1.3 0 0 1-1-.5 1.4 1.4 0 0 1-.4-1 1.4 1.4 0 0 1 .4-1 1.3 1.3 0 0 1 1-.4 1.3 1.3 0 0 1 1 .4zm-2.2-15h2.3v4.2l-.4 7.7h-1.5l-.4-7.6zM178 250.7h2.6l-6 17.6H172l-4.6-14.5-4.6 14.5h-2.5l-6-17.6h2.7l4.6 15 4.6-15h2.4l4.7 15zm13.7 6a7.5 7.5 0 0 1 1.6 5.1v.8h-10.5a4.5 4.5 0 0 0 1.5 2.8 4.4 4.4 0 0 0 3 1 5.6 5.6 0 0 0 2.2-.4 5.3 5.3 0 0 0 1.7-1.2l1.3 1.3a6.7 6.7 0 0 1-2.4 1.7 7.9 7.9 0 0 1-3 .5 7 7 0 0 1-3.5-.8 6 6 0 0 1-2.4-2.4 7.1 7.1 0 0 1-.8-3.5 7 7 0 0 1 .8-3.5 6.1 6.1 0 0 1 2.4-2.3 6.8 6.8 0 0 1 3.4-1 5.9 5.9 0 0 1 4.7 2zm-.5 4a3.9 3.9 0 0 0-4.1-3.9 4.2 4.2 0 0 0-3 1 4.4 4.4 0 0 0-1.4 3zm20 7.6v-1.9a5.5 5.5 0 0 1-4.7 2 5.3 5.3 0 0 1-2.4-.5 3.9 3.9 0 0 1-1.6-1.5 4 4 0 0 1-.6-2 3.4 3.4 0 0 1 1.4-2.9 6 6 0 0 1 3.6-1h4.3v-.7a2.8 2.8 0 0 0-.9-2.2 3.7 3.7 0 0 0-2.5-.7 7.2 7.2 0 0 0-4.1 1.4l-1-1.6a12.2 12.2 0 0 1 2.6-1.4 9 9 0 0 1 3-.4 5.6 5.6 0 0 1 3.8 1.2 4.4 4.4 0 0 1 1.4 3.5v8.7zm-1.4-2.6a3.1 3.1 0 0 0 1.4-2.1v-1.4h-4a4.5 4.5 0 0 0-2.3.5 1.6 1.6 0 0 0-.8 1.5 2 2 0 0 0 .8 1.7 3.3 3.3 0 0 0 2.1.6 4.8 4.8 0 0 0 2.8-.8zm12.1-10a5.5 5.5 0 0 1 2.9-.8v2.3a4.3 4.3 0 0 0-4.8 4v7h-2.3V255h2.3v2.9a4.8 4.8 0 0 1 1.9-2.2zm15.4 1a7.5 7.5 0 0 1 1.6 5.1v.8h-10.6a4.5 4.5 0 0 0 1.5 2.8 4.4 4.4 0 0 0 3 1 5.6 5.6 0 0 0 2.2-.4 5.3 5.3 0 0 0 1.8-1.2l1.3 1.3a6.7 6.7 0 0 1-2.4 1.7 7.9 7.9 0 0 1-3 .5 7 7 0 0 1-3.5-.8 6 6 0 0 1-2.4-2.4 7.1 7.1 0 0 1-.8-3.5 7 7 0 0 1 .8-3.5 6.1 6.1 0 0 1 2.4-2.3 6.8 6.8 0 0 1 3.4-1 5.9 5.9 0 0 1 4.7 2zm-.5 4a3.9 3.9 0 0 0-4.1-3.9 4.2 4.2 0 0 0-3 1 4.4 4.4 0 0 0-1.4 3zm17.4-3.7a4.6 4.6 0 0 0-2.3.6 4.1 4.1 0 0 0-1.6 1.6 5 5 0 0 0-.6 2.4 5 5 0 0 0 .6 2.5 4.2 4.2 0 0 0 1.5 1.6 4.4 4.4 0 0 0 2.3.6 6 6 0 0 0 2.3-.4 4.4 4.4 0 0 0 1.7-1.2l1.4 1.3a5.9 5.9 0 0 1-2.3 1.8 7.9 7.9 0 0 1-3.2.6 6.9 6.9 0 0 1-3.5-.9 6 6 0 0 1-2.3-2.4 7.7 7.7 0 0 1 0-7 6 6 0 0 1 2.3-2.4 6.9 6.9 0 0 1 3.5-.8 8.4 8.4 0 0 1 3 .5 5.9 5.9 0 0 1 2.2 1.5l-1.2 1.6a5.3 5.3 0 0 0-3.8-1.5zm18-.3a7.5 7.5 0 0 1 1.6 5.1v.8h-10.5a4.5 4.5 0 0 0 1.5 2.8 4.4 4.4 0 0 0 3 1 5.6 5.6 0 0 0 2.2-.4 5.3 5.3 0 0 0 1.8-1.2l1.2 1.3a6.7 6.7 0 0 1-2.3 1.6 7.9 7.9 0 0 1-3 .6 7 7 0 0 1-3.6-.8 6 6 0 0 1-2.3-2.4 7.1 7.1 0 0 1-.9-3.5 7 7 0 0 1 .9-3.5 6.1 6.1 0 0 1 2.3-2.4 6.8 6.8 0 0 1 3.5-.8 5.9 5.9 0 0 1 4.6 1.8zm-.5 4a3.9 3.9 0 0 0-4.1-3.9 4.2 4.2 0 0 0-3 1 4.4 4.4 0 0 0-1.3 3zm5.4-11.1h2.4v18.7H277zm17.1 7.1a7.5 7.5 0 0 1 1.6 5.1v.8h-10.6a4.5 4.5 0 0 0 1.6 2.8 4.4 4.4 0 0 0 3 1 5.6 5.6 0 0 0 2.1-.4 5.3 5.3 0 0 0 1.8-1.2l1.3 1.3a6.7 6.7 0 0 1-2.4 1.7 7.9 7.9 0 0 1-3 .5 7 7 0 0 1-3.5-.8 6 6 0 0 1-2.4-2.4 7.1 7.1 0 0 1-.8-3.5 7 7 0 0 1 .8-3.5 6.1 6.1 0 0 1 2.4-2.3 6.8 6.8 0 0 1 3.4-1 5.9 5.9 0 0 1 4.7 2zm-.5 4a3.9 3.9 0 0 0-4.1-3.9 4.2 4.2 0 0 0-3 1 4.4 4.4 0 0 0-1.4 3zm16-4.9a5.9 5.9 0 0 1 2.3 2.3 8 8 0 0 1 0 7 5.8 5.8 0 0 1-2.3 2.4 6.4 6.4 0 0 1-3.3.8 6 6 0 0 1-3-.7 5 5 0 0 1-2-2v2.7h-2.3v-18.7h2.3v8a5 5 0 0 1 2-2 6 6 0 0 1 3-.7 6.4 6.4 0 0 1 3.3.9zm-1.5 10a4.1 4.1 0 0 0 1.6-1.8 5.2 5.2 0 0 0 .6-2.4 5 5 0 0 0-.6-2.5 4.3 4.3 0 0 0-1.6-1.6 4.3 4.3 0 0 0-2.3-.6 4.4 4.4 0 0 0-2.3.6 4.2 4.2 0 0 0-1.6 1.6 5.4 5.4 0 0 0 0 5 4.3 4.3 0 0 0 1.6 1.6 4.7 4.7 0 0 0 4.6 0zm12-10.1a5.5 5.5 0 0 1 2.9-.8v2.3a4.3 4.3 0 0 0-4.7 4v7H316V255h2.3v2.9a4.8 4.8 0 0 1 2-2.2zm13 12.6v-1.9a5.5 5.5 0 0 1-4.7 2 5.3 5.3 0 0 1-2.4-.5 3.9 3.9 0 0 1-1.6-1.5 4 4 0 0 1-.6-2 3.4 3.4 0 0 1 1.3-2.9 6 6 0 0 1 3.7-1h4.3v-.7a2.8 2.8 0 0 0-1-2.2 3.7 3.7 0 0 0-2.4-.7 7.2 7.2 0 0 0-4.1 1.4l-1-1.6a12.2 12.2 0 0 1 2.6-1.4 9 9 0 0 1 3-.4 5.6 5.6 0 0 1 3.8 1.2 4.4 4.4 0 0 1 1.3 3.5v8.7zm-1.4-2.6a3.1 3.1 0 0 0 1.4-2.1v-1.4h-4a4.5 4.5 0 0 0-2.3.5 1.6 1.6 0 0 0-.8 1.5 2 2 0 0 0 .8 1.7 3.3 3.3 0 0 0 2.1.6 4.8 4.8 0 0 0 2.8-.8zm15 1.7a5.7 5.7 0 0 1-3.1 1 3.5 3.5 0 0 1-2.6-1 3.8 3.8 0 0 1-1-2.8v-7.4h-1.9v-1.7h2v-3.6h2.3v3.6h4v1.8h-4v6.9a2.5 2.5 0 0 0 .4 1.6 1.5 1.5 0 0 0 1.2.4 4.2 4.2 0 0 0 2-.6zm5.1-17.3a1.6 1.6 0 0 1 0 2.2 1.5 1.5 0 0 1-2.1 0 1.6 1.6 0 0 1 0-2.2 1.5 1.5 0 0 1 2 0zm-2.2 4.9h2.3v13.3h-2.3zm17.9 1.3a5.2 5.2 0 0 1 1.3 3.8v8.2h-2.3v-7.6a3.3 3.3 0 0 0-3.5-3.6 4 4 0 0 0-3 1.2 4.5 4.5 0 0 0-1.2 2.9v7h-2.4V255h2.4v2.8q1.3-2.8 5-2.9a4.9 4.9 0 0 1 3.7 1.4zm17.3-1.3v12a6.5 6.5 0 0 1-.8 3.3 5.6 5.6 0 0 1-2.4 2.2 7.9 7.9 0 0 1-3.6.8 9.1 9.1 0 0 1-5.5-1.9l1-1.7a7 7 0 0 0 2 1.2 6.6 6.6 0 0 0 2.3.4 4.6 4.6 0 0 0 3.3-1.2 4 4 0 0 0 1.3-3v-2a5 5 0 0 1-2 2 5.6 5.6 0 0 1-2.7.6 6 6 0 0 1-3.2-.8 5.6 5.6 0 0 1-2.1-2.3 7.2 7.2 0 0 1-.8-3.3 7 7 0 0 1 .8-3.3 5.5 5.5 0 0 1 2.1-2.3 6.1 6.1 0 0 1 3.2-.8 5.7 5.7 0 0 1 2.8.7 4.9 4.9 0 0 1 1.9 1.8V255zm-4.4 10.2a4 4 0 0 0 1.5-1.6 4.8 4.8 0 0 0 .5-2.3 4.9 4.9 0 0 0-.5-2.3 4 4 0 0 0-1.5-1.6 4.1 4.1 0 0 0-2.2-.6 4.2 4.2 0 0 0-2.2.6 4.1 4.1 0 0 0-1.5 1.6 4.8 4.8 0 0 0-.6 2.3 4.6 4.6 0 0 0 1.3 3.2 4 4 0 0 0 3 1.3 4.2 4.2 0 0 0 2.2-.6zm22.4 2.2a5.7 5.7 0 0 1-3.1 1 3.5 3.5 0 0 1-2.6-1 3.8 3.8 0 0 1-1-2.8v-7.4h-1.9v-1.7h2v-3.6h2.3v3.6h4v1.8h-4v6.9a2.5 2.5 0 0 0 .4 1.6 1.5 1.5 0 0 0 1.2.4 4.2 4.2 0 0 0 2-.6zm14.1-11.1a5.2 5.2 0 0 1 1.3 3.8v8.2H416v-7.6a3.5 3.5 0 0 0-1-2.6 3.5 3.5 0 0 0-2.5-1 4 4 0 0 0-3.1 1.3 4.8 4.8 0 0 0-1.1 3.4v6.5h-2.4v-18.7h2.4v8.3q1.3-3 5-3a4.9 4.9 0 0 1 3.7 1.4zm15.5.4a7.5 7.5 0 0 1 1.6 5.1v.8h-10.6a4.5 4.5 0 0 0 1.5 2.8 4.4 4.4 0 0 0 3 1 5.6 5.6 0 0 0 2.2-.4 5.3 5.3 0 0 0 1.8-1.2l1.3 1.3a6.7 6.7 0 0 1-2.4 1.7 7.9 7.9 0 0 1-3 .5 7 7 0 0 1-3.5-.8 6 6 0 0 1-2.4-2.4 7.1 7.1 0 0 1-.8-3.5 7 7 0 0 1 .8-3.5 6.1 6.1 0 0 1 2.3-2.3 6.8 6.8 0 0 1 3.5-1 5.9 5.9 0 0 1 4.7 2zm-.5 4a3.9 3.9 0 0 0-4.2-3.9 4.2 4.2 0 0 0-2.9 1 4.4 4.4 0 0 0-1.4 3zm32.6-4.4a5.3 5.3 0 0 1 1.3 3.8v8.2h-2.3v-7.6a3.6 3.6 0 0 0-1-2.7 3.3 3.3 0 0 0-2.5-1 3.8 3.8 0 0 0-3 1.4 5 5 0 0 0-1 3.3v6.5h-2.4v-7.6a3.7 3.7 0 0 0-1-2.6 3.3 3.3 0 0 0-2.5-1 3.9 3.9 0 0 0-3 1.3 4.9 4.9 0 0 0-1 3.3v6.6h-2.4V255h2.4v2.8q1.3-2.8 5-2.9a5 5 0 0 1 3 .9 4.3 4.3 0 0 1 1.7 2.5q1.2-3.3 5.1-3.4a4.7 4.7 0 0 1 3.6 1.4zm14.6-.5a6.2 6.2 0 0 1 2.4 2.3 7.5 7.5 0 0 1 0 7 6.1 6.1 0 0 1-2.4 2.4 7.8 7.8 0 0 1-7.1 0 6.2 6.2 0 0 1-2.4-2.4 7.5 7.5 0 0 1 0-7 6.2 6.2 0 0 1 2.4-2.3 7.8 7.8 0 0 1 7 0zm-5.9 1.7a4.2 4.2 0 0 0-1.6 1.7 5.1 5.1 0 0 0-.5 2.5 5.2 5.2 0 0 0 .5 2.4 4 4 0 0 0 1.6 1.7 4.6 4.6 0 0 0 2.3.6 4.5 4.5 0 0 0 2.3-.6 4 4 0 0 0 1.6-1.7 5.2 5.2 0 0 0 .6-2.5 5.1 5.1 0 0 0-.6-2.4 4.2 4.2 0 0 0-1.6-1.6 4.4 4.4 0 0 0-2.3-.7 4.5 4.5 0 0 0-2.3.7zm23.5-1.2a5.2 5.2 0 0 1 1.3 3.8v8.2h-2.3v-7.6a3.3 3.3 0 0 0-3.6-3.6 4 4 0 0 0-2.9 1.2 4.5 4.5 0 0 0-1.3 2.9v7h-2.3V255h2.4v2.8q1.3-2.8 5-2.9a4.9 4.9 0 0 1 3.7 1.4zm12.6 11.1a5.7 5.7 0 0 1-3 1 3.5 3.5 0 0 1-2.6-1 3.8 3.8 0 0 1-1-2.8v-7.4h-2v-1.7h2v-3.6h2.3v3.6h4v1.8h-4v6.9a2.5 2.5 0 0 0 .4 1.6 1.5 1.5 0 0 0 1.2.4 4.2 4.2 0 0 0 2-.6zm14.1-11.1a5.2 5.2 0 0 1 1.3 3.8v8.2h-2.3v-7.6a3.5 3.5 0 0 0-1-2.6 3.5 3.5 0 0 0-2.6-1 4 4 0 0 0-3 1.3 4.8 4.8 0 0 0-1.2 3.4v6.5h-2.3v-18.7h2.3v8.3q1.4-3 5.1-3a4.9 4.9 0 0 1 3.7 1.4zm12.2-6.7h2.4v18.7h-2.4zm16.1 6.2a6.2 6.2 0 0 1 2.5 2.3 7.5 7.5 0 0 1 0 7 6.1 6.1 0 0 1-2.5 2.4 7.8 7.8 0 0 1-7 0 6.2 6.2 0 0 1-2.5-2.4 7.5 7.5 0 0 1 0-7 6.2 6.2 0 0 1 2.4-2.3 7.8 7.8 0 0 1 7.1 0zm-5.8 1.8a4.2 4.2 0 0 0-1.6 1.6 5.1 5.1 0 0 0-.6 2.5 5.2 5.2 0 0 0 .6 2.4 4 4 0 0 0 1.6 1.7 4.6 4.6 0 0 0 2.3.6 4.5 4.5 0 0 0 2.3-.6 4 4 0 0 0 1.6-1.7 5.2 5.2 0 0 0 .6-2.5 5.1 5.1 0 0 0-.6-2.4 4.2 4.2 0 0 0-1.6-1.6 4.4 4.4 0 0 0-2.3-.7 4.5 4.5 0 0 0-2.3.7zm23.5-1.3a5.2 5.2 0 0 1 1.3 3.8v8.2h-2.4v-7.6a3.3 3.3 0 0 0-3.5-3.6 4 4 0 0 0-3 1.2 4.5 4.5 0 0 0-1.2 2.9v7h-2.3V255h2.3v2.8q1.3-2.8 5-2.9a4.9 4.9 0 0 1 3.8 1.4zm17.2-1.3v12a6.5 6.5 0 0 1-.8 3.3 5.6 5.6 0 0 1-2.4 2.2 7.9 7.9 0 0 1-3.6.8 9.1 9.1 0 0 1-5.5-1.9l1-1.7a7 7 0 0 0 2 1.2 6.6 6.6 0 0 0 2.4.4 4.6 4.6 0 0 0 3.2-1.2 4 4 0 0 0 1.3-3v-2a5 5 0 0 1-2 2 5.6 5.6 0 0 1-2.7.6 6 6 0 0 1-3.2-.8 5.6 5.6 0 0 1-2-2.3 7.2 7.2 0 0 1-.8-3.3 7 7 0 0 1 .7-3.3 5.5 5.5 0 0 1 2.1-2.3 6.1 6.1 0 0 1 3.2-.8 5.7 5.7 0 0 1 2.8.7 4.9 4.9 0 0 1 1.9 1.8V255zm-4.4 10.2a4 4 0 0 0 1.5-1.6 4.8 4.8 0 0 0 .6-2.3 4.9 4.9 0 0 0-.6-2.3 4 4 0 0 0-1.5-1.6 4.1 4.1 0 0 0-2.2-.6 4.2 4.2 0 0 0-2.2.6 4.1 4.1 0 0 0-1.5 1.6 4.8 4.8 0 0 0-.5 2.3 4.6 4.6 0 0 0 1.2 3.3 4 4 0 0 0 3 1.2 4.2 4.2 0 0 0 2.2-.6zm-300.9 15.7h2.5v7.8h10V281h2.5v17.6h-2.5V291h-10v7.6h-2.5zm27.9 17.6v-1.9a5.5 5.5 0 0 1-4.7 2 5.3 5.3 0 0 1-2.4-.5 3.9 3.9 0 0 1-1.6-1.5 4 4 0 0 1-.6-2 3.4 3.4 0 0 1 1.3-2.9 6 6 0 0 1 3.7-1.1h4.2v-.6a2.8 2.8 0 0 0-.8-2.2 3.7 3.7 0 0 0-2.6-.8 7.2 7.2 0 0 0-4 1.5l-1-1.6a12.3 12.3 0 0 1 2.6-1.4 9 9 0 0 1 2.9-.4 5.6 5.6 0 0 1 3.8 1.2 4.4 4.4 0 0 1 1.4 3.4v8.8zm-1.4-2.7a3.1 3.1 0 0 0 1.4-2v-1.4h-4a4.5 4.5 0 0 0-2.3.5 1.6 1.6 0 0 0-.8 1.5 2 2 0 0 0 .8 1.6 3.3 3.3 0 0 0 2 .6 4.8 4.8 0 0 0 2.9-.8zm13.4-8.6a4.6 4.6 0 0 0-2.3.6 4.1 4.1 0 0 0-1.6 1.6 5 5 0 0 0-.6 2.4 5 5 0 0 0 .6 2.5 4.2 4.2 0 0 0 1.5 1.6 4.4 4.4 0 0 0 2.3.6 6 6 0 0 0 2.3-.4 4.4 4.4 0 0 0 1.7-1.3l1.3 1.4a5.9 5.9 0 0 1-2.3 1.7 7.9 7.9 0 0 1-3.1.6 6.9 6.9 0 0 1-3.5-.8 6 6 0 0 1-2.3-2.4 7.7 7.7 0 0 1 0-7 6 6 0 0 1 2.3-2.4 6.9 6.9 0 0 1 3.5-.8 8.4 8.4 0 0 1 3 .5 5.9 5.9 0 0 1 2.2 1.5l-1.2 1.6a5.3 5.3 0 0 0-3.8-1.5zm17.9 11.3L335 292l-2.6 2.7v3.8H330v-18.7h2.3v12l6.5-6.6h2.7l-5 5.1 5.4 8.2zm12.5-.9a5.7 5.7 0 0 1-3.1 1 3.5 3.5 0 0 1-2.6-1 3.8 3.8 0 0 1-1-2.8v-7.4h-2v-1.8h1.9V282h2.4v3.6h4v1.8h-4v6.9a2.5 2.5 0 0 0 .4 1.6 1.5 1.5 0 0 0 1.2.5 4.2 4.2 0 0 0 2-.7zm11.7-11.6a6.2 6.2 0 0 1 2.4 2.3 7.5 7.5 0 0 1 0 7 6.1 6.1 0 0 1-2.4 2.4 7.8 7.8 0 0 1-7 0 6.1 6.1 0 0 1-2.5-2.4 7.5 7.5 0 0 1 0-7 6.1 6.1 0 0 1 2.4-2.3 7.8 7.8 0 0 1 7.1 0zm-5.8 1.7a4.2 4.2 0 0 0-1.6 1.7 5.1 5.1 0 0 0-.6 2.4 5.2 5.2 0 0 0 .6 2.5 4 4 0 0 0 1.6 1.7 4.5 4.5 0 0 0 2.3.5 4.5 4.5 0 0 0 2.3-.5 4 4 0 0 0 1.6-1.7 5.2 5.2 0 0 0 .6-2.5 5.1 5.1 0 0 0-.6-2.4 4.2 4.2 0 0 0-1.6-1.7 4.4 4.4 0 0 0-2.3-.6 4.5 4.5 0 0 0-2.3.6zm23.1-1.7a5.9 5.9 0 0 1 2.2 2.3 8 8 0 0 1 0 7 5.8 5.8 0 0 1-2.2 2.4 6.5 6.5 0 0 1-3.3.8 6 6 0 0 1-3-.7 5 5 0 0 1-2-2v2.7H370v-18.7h2.3v8a5 5 0 0 1 2-2 6 6 0 0 1 3-.7 6.4 6.4 0 0 1 3.3.8zm-1.5 10a4.1 4.1 0 0 0 1.6-1.7 5.2 5.2 0 0 0 .6-2.5 5 5 0 0 0-.6-2.4 4.3 4.3 0 0 0-1.6-1.7 4.4 4.4 0 0 0-2.3-.6 4.4 4.4 0 0 0-2.3.6 4.2 4.2 0 0 0-1.6 1.7 5.4 5.4 0 0 0 0 4.9 4.3 4.3 0 0 0 1.6 1.6 4.7 4.7 0 0 0 4.6 0zm17.8-9a7.5 7.5 0 0 1 1.6 5v.7H388a4.5 4.5 0 0 0 1.5 2.9 4.4 4.4 0 0 0 3 1 5.6 5.6 0 0 0 2.2-.4 5.3 5.3 0 0 0 1.7-1.2l1.3 1.3a6.7 6.7 0 0 1-2.3 1.6 7.9 7.9 0 0 1-3.1.6 7 7 0 0 1-3.5-.8 6 6 0 0 1-2.4-2.4 7.2 7.2 0 0 1-.8-3.5 7 7 0 0 1 .8-3.5 6.1 6.1 0 0 1 2.4-2.3 6.8 6.8 0 0 1 3.5-.9 5.9 5.9 0 0 1 4.6 1.8zm-.5 4a3.9 3.9 0 0 0-4.1-4 4.2 4.2 0 0 0-3 1 4.4 4.4 0 0 0-1.4 3zm9.5-5.1a5.5 5.5 0 0 1 2.9-.8v2.3a4.3 4.3 0 0 0-4.8 4v7h-2.3v-13.2h2.3v2.8a4.8 4.8 0 0 1 1.9-2.1zm8.8-3.6a2 2 0 0 0-.6 1.6v1.7h3.7v1.8h-3.7v11h-2.3v-11H410v-1.8h1.8v-1.4a4.7 4.7 0 0 1 .6-2.5 4 4 0 0 1 1.6-1.5 4.7 4.7 0 0 1 2.2-.6 5.2 5.2 0 0 1 2.3.6l-.6 2a4 4 0 0 0-1.7-.5 2.1 2.1 0 0 0-1.5.6zm15 4.7a7.5 7.5 0 0 1 1.5 5v.7h-10.5a4.5 4.5 0 0 0 1.5 2.9 4.4 4.4 0 0 0 3 1 5.6 5.6 0 0 0 2.2-.4 5.3 5.3 0 0 0 1.8-1.2l1.3 1.3a6.7 6.7 0 0 1-2.4 1.7 7.9 7.9 0 0 1-3 .5 7 7 0 0 1-3.5-.8 6 6 0 0 1-2.4-2.4 7.2 7.2 0 0 1-.8-3.5 7 7 0 0 1 .8-3.5 6.1 6.1 0 0 1 2.4-2.4 6.8 6.8 0 0 1 3.4-.8 5.9 5.9 0 0 1 4.7 1.8zm-.6 4a3.9 3.9 0 0 0-4-4 4.2 4.2 0 0 0-3 1 4.4 4.4 0 0 0-1.4 3zm10.8-3.7a6.5 6.5 0 0 0-1.9-.3 3.2 3.2 0 0 0-1.7.4 1.3 1.3 0 0 0-.6 1.2 1.3 1.3 0 0 0 .7 1.2 10.4 10.4 0 0 0 2.2.8 17 17 0 0 1 2.2.8 4 4 0 0 1 1.5 1.2 3.7 3.7 0 0 1-.8 5 6 6 0 0 1-3.5 1 8.8 8.8 0 0 1-2.9-.5 6.5 6.5 0 0 1-2.3-1.4l.8-1.7a6.2 6.2 0 0 0 2 1.2 6.8 6.8 0 0 0 2.4.5 3.6 3.6 0 0 0 1.9-.5 1.4 1.4 0 0 0 .7-1.3 1.5 1.5 0 0 0-.7-1.3 10.1 10.1 0 0 0-2.3-1 15.1 15.1 0 0 1-2.2-.7 3.9 3.9 0 0 1-1.4-1.2 3 3 0 0 1-.6-2 3.2 3.2 0 0 1 1.4-2.7 5.9 5.9 0 0 1 3.4-1 8.5 8.5 0 0 1 2.3.4 7.1 7.1 0 0 1 2 .9l-.8 1.8a8 8 0 0 0-1.8-.8zm13.3 10.3a5.7 5.7 0 0 1-3.2 1 3.5 3.5 0 0 1-2.5-1 3.8 3.8 0 0 1-1-2.8v-7.4h-2v-1.8h2V282h2.4v3.6h4v1.8h-4v6.9a2.5 2.5 0 0 0 .4 1.6 1.5 1.5 0 0 0 1.2.5 4.2 4.2 0 0 0 2-.7zm11-1.4a1.4 1.4 0 0 1 .4 1 1.5 1.5 0 0 1-.4 1 1.3 1.3 0 0 1-1 .4 1.3 1.3 0 0 1-1-.4 1.4 1.4 0 0 1-.4-1 1.4 1.4 0 0 1 .4-1 1.3 1.3 0 0 1 1-.4 1.3 1.3 0 0 1 1 .4zm-2.1-15h2.2v4.2l-.4 7.7h-1.5l-.3-7.7zm7.2 15a1.4 1.4 0 0 1 .4 1 1.5 1.5 0 0 1-.4 1 1.3 1.3 0 0 1-1 .4 1.3 1.3 0 0 1-1-.4 1.4 1.4 0 0 1-.3-1 1.4 1.4 0 0 1 .3-1 1.3 1.3 0 0 1 1-.4 1.3 1.3 0 0 1 1 .4zm-2-15h2.2v4.2l-.4 7.7h-1.5l-.3-7.7z"/><g class="cls-6"><g class="cls-7"><path class="cls-3" d="M707 671.7v-48.6a6.7 6.7 0 0 0-1.4-4.3A859 859 0 0 1 693 601c-.9-1.3-2.6-3-1.2-4.3s2.9.7 4 1.7L707 609c0-7.3-.3-14 0-20.8s.8-13.4 3.5-19.9c1.7 1.6 1.9 3.3 2.1 5 1.8 11 2 22.1 2.4 33.3 1.1 32.2 1.7 64.5 2.4 96.7 0 5.6.3 11.2.4 16.7 0 1.7.3 2.2 2.1 1.6a65 65 0 0 0 22-13.6 85.8 85.8 0 0 0 28.7-48.3c2.7-14.3 1-28.3-3.2-42a125.2 125.2 0 0 0-32.2-54.8 72 72 0 0 0-9-7.2 23.3 23.3 0 0 0-24.5-2.4 110 110 0 0 0-41.2 32.9 87 87 0 0 0-18.8 38.7 72.7 72.7 0 0 0 8.7 49.2 97.4 97.4 0 0 0 48.5 45.2c1.8.8 3.7 1.2 5.5 1.9 1.6.5 2.4.2 2.4-1.8l.1-31.1a5.2 5.2 0 0 0-1.6-3.5c-8-10-16.5-19.5-24-29.8a40.7 40.7 0 0 1-5.5-10.4c-.2-.8-1.1-2 0-2.6.8-.6 1.6.3 2.2.8 2.3 1.9 4.6 3.8 6.8 5.9 7.6 7.3 14.5 15.3 22.2 23z"/><circle class="cls-8" cx="683.1" cy="591.7" r="4.8"/><path class="cls-3" d="M711.3 803.6l-4 .1a9.4 9.4 0 0 0-1.1-2v-12a2.6 2.6 0 0 0 1-1.6c.1-1.1-.7-2.2-1-3.3.2.4.2-1.1.3-1.4.4-1.4.6-3-.7-4.3h.7v-24.8a2.4 2.4 0 0 0 .2-3c.1-.3-.4-.8-.4-1a6.1 6.1 0 0 1-.1-1c.3-.4.3-.6.3-.7a1.7 1.7 0 0 0-.1-1.7c.5-7-1.6-13.9 5.6-20.6 3.3.7 3.2 1.7 3.7 2.5 2.8 5.6 3.3 11.2 3.9 16.8 1.8 16.5 2.8 33 3.8 49.6.1 2.8.7 5.7.6 8.5a1.3 1.3 0 0 0 0 .2 266 266 0 0 0-12.7-.3z"/><circle class="cls-9" cx="671" cy="636.3" r="3.9"/><path class="cls-10" d="M574 622.2v-43.9a6 6 0 0 1 1.3-3.8c3.9-5.4 7.7-10.7 11.4-16.2.8-1 2.4-2.7 1.1-3.8s-2.6.6-3.6 1.5l-10.1 9.5c0-6.6.3-12.7 0-18.8s-.7-12-3.2-18c-1.6 1.4-1.7 3-1.9 4.5-1.6 10-1.9 20-2.2 30.1a5120 5120 0 0 0-2 87.4l-.5 15.1c0 1.6-.3 2-1.9 1.4-7.5-2.6-14-7-19.8-12.2a77.4 77.4 0 0 1-26-43.7 79 79 0 0 1 2.8-38 113 113 0 0 1 29.2-49.4 65 65 0 0 1 8-6.5 21 21 0 0 1 22.2-2.2c15 6.6 27 17 37.2 29.7a78.8 78.8 0 0 1 17 35c3 15.8-.3 30.6-7.8 44.5a88 88 0 0 1-43.9 40.8c-1.6.7-3.3 1.1-4.9 1.7-1.5.5-2.2.2-2.2-1.6v-28.1a4.7 4.7 0 0 1 1.3-3.2c7.3-9 15-17.6 21.8-27a36.8 36.8 0 0 0 4.9-9.3c.2-.7 1-1.7 0-2.4-.7-.5-1.5.3-2 .8-2 1.7-4.2 3.4-6 5.3-7 6.6-13.1 13.8-20.1 20.8z"/><circle class="cls-2" cx="595.7" cy="550" r="4.3"/><path class="cls-10" d="M570.2 794.2l3.7.1a20.4 20.4 0 0 1 1-3.1l-.1-19.2a5.4 5.4 0 0 1-.9-2.5c0-1.8.7-3.4 1-5.2-.2.6-.2-1.7-.3-2.1a11 11 0 0 1 .6-7h-.6v-39.4a6.2 6.2 0 0 1-.1-4.6c-.2-.5.2-1.3.3-1.8l.1-1.7c-.3-.5-.3-.8-.3-.9a4.4 4.4 0 0 1 .1-2.8c-.5-11 1.5-22-5-32.6-3 1.1-3 2.7-3.4 4-2.5 8.8-3 17.7-3.5 26.5a2995 2995 0 0 0-3.4 78.7c-.2 4.5-.7 9-.6 13.5v.3c3.8-.1 7.6-.3 11.4-.2zM123 738.4v-30.1a4.2 4.2 0 0 1 .9-2.6l7.8-11c.5-.8 1.6-1.9.8-2.6s-1.9.4-2.6 1c-2.2 2-4.3 4.2-6.9 6.5 0-4.5.2-8.7 0-12.8s-.4-8.3-2-12.3a4.4 4.4 0 0 0-1.4 3 166.5 166.5 0 0 0-1.5 20.6c-.7 20-1 39.9-1.4 59.8l-.3 10.3c0 1-.2 1.3-1.3 1a40.1 40.1 0 0 1-13.5-8.4A52.8 52.8 0 0 1 83.8 731a54.2 54.2 0 0 1 2-26 77.3 77.3 0 0 1 19.8-33.8 44.4 44.4 0 0 1 5.6-4.5 14.4 14.4 0 0 1 15-1.4 68.1 68.1 0 0 1 25.5 20.3c5.7 7 10 14.9 11.7 23.9a45 45 0 0 1-5.4 30.4 60 60 0 0 1-30 27.9c-1.1.5-2.3.8-3.4 1.1s-1.5.2-1.5-1v-19.3a3.2 3.2 0 0 1 1-2.2c5-6 10.2-12 14.8-18.3a25.2 25.2 0 0 0 3.4-6.5c.1-.5.7-1.1 0-1.6-.6-.3-1 .2-1.4.5l-4.2 3.6c-4.6 4.6-8.9 9.6-13.6 14.4z"/><circle class="cls-2" cx="137.9" cy="689" r="3"/><path class="cls-3" d="M2.5 723v-21.7a3 3 0 0 1 .7-1.9l5.6-7.9c.3-.6 1.1-1.4.5-1.9s-1.3.3-1.8.8c-1.6 1.4-3.1 3-5 4.6v-9.2A25.4 25.4 0 0 0 1 677a3.2 3.2 0 0 0-1 2.2A119.7 119.7 0 0 0-1 694c-.5 14.3-.8 28.6-1 43l-.2 7.4c0 .8-.1 1-1 .7a28.8 28.8 0 0 1-9.7-6 37.9 37.9 0 0 1-12.7-21.5 38.9 38.9 0 0 1 1.4-18.6A55.6 55.6 0 0 1-10 674.6a32 32 0 0 1 4-3.2 10.3 10.3 0 0 1 10.9-1 49 49 0 0 1 18.3 14.5 38.6 38.6 0 0 1 8.3 17.2 32 32 0 0 1-3.8 21.8c-5 9.1-12 16.1-21.6 20.1l-2.4.8c-.8.3-1 .1-1-.8v-13.8a2.3 2.3 0 0 1 .6-1.6c3.6-4.3 7.4-8.6 10.7-13.2a18 18 0 0 0 2.4-4.6c.1-.3.5-.8 0-1.2s-.7.2-1 .4l-3 2.6C9 716 6 719.5 2.6 723z"/><circle class="cls-9" cx="13.2" cy="687.4" r="2.1"/><path class="cls-3" d="M.7 781.5h1.8a4.2 4.2 0 0 1 .4-.9v-5.3a1.1 1.1 0 0 1-.4-.7c0-.5.3-1 .4-1.5l-.1-.6a1.9 1.9 0 0 1 .3-2h-.3v-11a1 1 0 0 1 0-1.3l.1-.4a2.7 2.7 0 0 0 0-.5v-.3a.8.8 0 0 1 0-.7c-.3-3.1.6-6.2-2.6-9.2-1.4.3-1.4.8-1.6 1.1a20.1 20.1 0 0 0-1.7 7.5c-.8 7.3-1.2 14.6-1.7 22l-.3 3.7a.6.6 0 0 1 0 .1H.7z"/><path class="cls-10" d="M410.6 655.6v-42.7a6 6 0 0 1 1.2-3.8c3.8-5.2 7.5-10.4 11.1-15.7.8-1 2.3-2.6 1.1-3.7s-2.6.6-3.6 1.5l-9.8 9.2c0-6.4.3-12.4 0-18.3s-.7-11.7-3-17.4c-1.6 1.3-1.7 2.9-1.9 4.3-1.5 9.7-1.8 19.5-2.1 29.3-1 28.3-1.5 56.7-2 85-.1 5-.4 9.8-.4 14.7 0 1.5-.3 2-1.9 1.4a57.1 57.1 0 0 1-19.2-12 74.3 74.3 0 0 1-25.4-42.4 76.9 76.9 0 0 1 2.7-37 110.1 110.1 0 0 1 28.4-48 63.2 63.2 0 0 1 7.9-6.5 20.4 20.4 0 0 1 21.5-2 97 97 0 0 1 36.2 28.8 76.5 76.5 0 0 1 16.6 34 63.9 63.9 0 0 1-7.7 43.3 85.7 85.7 0 0 1-42.6 39.8l-4.8 1.6c-1.5.5-2.2.2-2.1-1.5l-.1-27.4a4.6 4.6 0 0 1 1.3-3.1c7-8.7 14.6-17.1 21.2-26.2a35.8 35.8 0 0 0 4.7-9.1c.3-.7 1-1.7 0-2.3-.7-.5-1.4.3-2 .7-2 1.7-4 3.4-5.8 5.2-6.7 6.4-12.7 13.5-19.5 20.3z"/><circle class="cls-11" cx="444.6" cy="624.9" r="4.2"/><circle class="cls-12" cx="429.9" cy="584.8" r="3.6"/><path class="cls-10" d="M406.9 771.6h3.5a8.3 8.3 0 0 1 1-1.7v-10.6a2.3 2.3 0 0 1-1-1.4c0-1 .7-2 1-2.9-.1.3-.2-1-.2-1.2a3.8 3.8 0 0 1 .5-3.8h-.5v-21.8a2.1 2.1 0 0 1-.2-2.6c-.1-.3.3-.8.4-1a5.4 5.4 0 0 0 0-1c-.2-.3-.3-.4-.2-.5a1.5 1.5 0 0 1 0-1.6c-.4-6.1 1.5-12.1-4.8-18-3 .6-3 1.4-3.3 2.2-2.5 4.9-3 9.8-3.4 14.7-1.6 14.6-2.5 29-3.4 43.6-.1 2.5-.6 5-.6 7.6a1.2 1.2 0 0 1 0 .1c3.7 0 7.4-.2 11.2-.1z"/><path class="cls-3" d="M499.8 696v-32.3a4.5 4.5 0 0 1 1-2.8L509 649c.6-.8 1.7-2 .8-2.8s-2 .4-2.7 1.1l-7.4 7c0-4.9.2-9.4 0-13.8s-.5-8.9-2.3-13.2a4.7 4.7 0 0 0-1.4 3.3 179 179 0 0 0-1.6 22c-.8 21.5-1.2 42.9-1.6 64.3 0 3.7-.2 7.4-.3 11 0 1.2-.2 1.5-1.4 1a43.1 43.1 0 0 1-14.5-9 56.6 56.6 0 0 1-19-32 58.1 58.1 0 0 1 2-28 83.1 83.1 0 0 1 21.4-36.2 47.7 47.7 0 0 1 6-4.9 15.4 15.4 0 0 1 16.2-1.6 73.6 73.6 0 0 1 27.3 21.9c6.1 7.6 10.7 16 12.5 25.7a48.2 48.2 0 0 1-5.8 32.6 64.4 64.4 0 0 1-32.1 30c-1.2.5-2.5.8-3.7 1.2s-1.6.2-1.6-1.1v-20.7a3.5 3.5 0 0 1 1-2.3c5.3-6.6 11-13 16-19.8a27 27 0 0 0 3.5-7c.2-.4.8-1.2 0-1.6-.5-.4-1 .2-1.5.5-1.5 1.3-3 2.5-4.4 3.9-5 5-9.6 10.3-14.7 15.4z"/><circle class="cls-9" cx="525.5" cy="672.7" r="3.2"/><circle class="cls-2" cx="515.7" cy="642.9" r="3.2"/><path class="cls-3" d="M497 791.5h2.7a7.6 7.6 0 0 1 .7-1.5v-9.2a2 2 0 0 1-.7-1.3 9 9 0 0 1 .7-2.5c-.1.3-.1-.8-.2-1a3.7 3.7 0 0 1 .5-3.3h-.5v-19.1a2 2 0 0 1 0-2.2c-.2-.2.1-.6.2-.8a5.4 5.4 0 0 0 0-.8c-.2-.3-.2-.4-.1-.5a1.5 1.5 0 0 1 0-1.3c-.4-5.4 1-10.6-3.7-15.8-2.2.5-2.2 1.3-2.5 2a41.1 41.1 0 0 0-2.6 12.8 970.8 970.8 0 0 0-2.5 38c0 2.2-.4 4.4-.4 6.6a1.2 1.2 0 0 1 0 .1c2.7-.2 5.5-.3 8.4-.2z"/><path class="cls-10" d="M-47.2 655.3v-36.6a5 5 0 0 1 1-3.2l9.6-13.5c.6-1 2-2.3.9-3.2s-2.2.5-3 1.3l-8.5 8c0-5.6.2-10.7 0-15.8s-.6-10-2.7-15c-1.3 1.1-1.4 2.5-1.6 3.7-1.3 8.3-1.5 16.7-1.8 25.1-.8 24.3-1.3 48.7-1.7 73l-.4 12.5c0 1.3-.2 1.7-1.6 1.2a49 49 0 0 1-16.5-10.2A64.3 64.3 0 0 1-95 646.2a66 66 0 0 1 2.3-31.7 94.5 94.5 0 0 1 24.4-41.3 54.2 54.2 0 0 1 6.7-5.4 17.6 17.6 0 0 1 18.4-1.9 83 83 0 0 1 31.1 24.9A65.3 65.3 0 0 1 2 620a54.8 54.8 0 0 1-6.5 37 73.5 73.5 0 0 1-36.6 34.2c-1.3.6-2.8.9-4.1 1.4s-1.9.2-1.9-1.3v-23.5a4 4 0 0 1 1.1-2.7c6.1-7.4 12.5-14.6 18.2-22.4a30.7 30.7 0 0 0 4-7.9c.3-.5 1-1.4 0-2-.6-.4-1.2.3-1.6.7-1.7 1.4-3.5 2.8-5.1 4.4-5.7 5.5-10.8 11.6-16.7 17.4z"/><circle class="cls-2" cx="356.5" cy="702.9" r="3.9"/><circle class="cls-13" cx="344.4" cy="665.9" r="3.9"/><path class="cls-10" d="M186.3 650.9v-36.7a5 5 0 0 1 1-3.2c3.3-4.4 6.4-8.9 9.6-13.4.6-1 2-2.3.9-3.2s-2.2.5-3 1.2l-8.5 8c0-5.6.2-10.7 0-15.7s-.6-10-2.7-15c-1.3 1.1-1.3 2.4-1.5 3.7-1.4 8.3-1.6 16.7-1.9 25-.8 24.4-1.2 48.7-1.7 73l-.3 12.6c0 1.3-.3 1.6-1.6 1.2a49 49 0 0 1-16.6-10.2 64.3 64.3 0 0 1-21.6-36.4 66 66 0 0 1 2.3-31.7 94.5 94.5 0 0 1 24.3-41.3 54.2 54.2 0 0 1 6.8-5.4 17.6 17.6 0 0 1 18.4-1.9 83 83 0 0 1 31 24.8c7 8.7 12.2 18.2 14.3 29.2a54.8 54.8 0 0 1-6.6 37.1 73.5 73.5 0 0 1-36.6 34.1c-1.3.6-2.7 1-4 1.4s-1.9.2-1.9-1.3v-23.5a4 4 0 0 1 1.1-2.6c6-7.5 12.5-14.7 18.2-22.5a30.7 30.7 0 0 0 4-7.8c.2-.6 1-1.5 0-2-.6-.5-1.2.2-1.7.6l-5 4.4c-5.7 5.6-10.8 11.6-16.7 17.5z"/><circle class="cls-14" cx="215.5" cy="624.5" r="3.6"/><circle class="cls-12" cx="204.4" cy="590.6" r="3.6"/><path class="cls-10" d="M183.1 773.5h3a11.6 11.6 0 0 1 .9-2l-.1-12.7a3.1 3.1 0 0 1-.7-1.7c-.1-1.2.5-2.3.7-3.5l-.2-1.4a6 6 0 0 1 .6-4.6h-.5v-26.2a3.3 3.3 0 0 1-.1-3v-.1c-.2-.3.2-.8.3-1.1a8.9 8.9 0 0 0 0-1.2c-.3-.4-.3-.6-.2-.6a2.4 2.4 0 0 1 0-1.9c-.4-7.4 1.2-14.6-4.2-21.6-2.5.7-2.4 1.7-2.8 2.6-2.1 5.9-2.5 11.8-3 17.7-1.3 17.4-2 34.8-2.8 52.2-.1 3-.5 6-.5 9a2 2 0 0 1 0 .2c3.2 0 6.4-.2 9.6-.1z"/><path class="cls-15" d="M632.4 698.6v-32.4a4.5 4.5 0 0 1 1-2.8l8.4-11.9c.5-.8 1.7-2 .8-2.8s-2 .4-2.7 1.1l-7.4 7V643a38 38 0 0 0-2.4-13.2 4.7 4.7 0 0 0-1.4 3.3 179.5 179.5 0 0 0-1.6 22.2c-.7 21.5-1.1 43-1.5 64.4l-.3 11.1c0 1.2-.3 1.5-1.4 1a43.3 43.3 0 0 1-14.6-9 57 57 0 0 1-19.2-32.1 58.2 58.2 0 0 1 2.1-28 83.4 83.4 0 0 1 21.5-36.5 47.9 47.9 0 0 1 6-4.8 15.5 15.5 0 0 1 16.3-1.6c11 5 20 12.6 27.4 22a58 58 0 0 1 12.6 25.7 48.4 48.4 0 0 1-5.8 32.7 64.9 64.9 0 0 1-32.3 30.2c-1.2.5-2.4.8-3.7 1.2s-1.6.2-1.6-1.2v-20.7a3.5 3.5 0 0 1 1-2.3c5.3-6.6 11-13 16-19.9a27.1 27.1 0 0 0 3.6-7c.1-.4.7-1.2 0-1.6-.6-.4-1.1.2-1.5.5-1.6 1.3-3.1 2.5-4.5 4-5 4.8-9.6 10.2-14.8 15.3z"/><circle class="cls-15" cx="658.2" cy="675.3" r="3.2"/><path class="cls-15" d="M629.6 786.5h2.7a6.3 6.3 0 0 1 .7-1.4v-8a1.7 1.7 0 0 1-.7-1c0-.8.5-1.5.7-2.2-.1.2-.1-.7-.2-1a2.8 2.8 0 0 1 .5-2.8h-.5v-16.5a1.6 1.6 0 0 1 0-2c-.2-.2.1-.5.2-.7a4 4 0 0 0 0-.7l-.1-.4a1.1 1.1 0 0 1 0-1.2c-.4-4.7 1-9.2-3.7-13.7-2.2.5-2.2 1.1-2.5 1.7-1.9 3.7-2.2 7.4-2.6 11.1-1.2 11-1.8 22-2.5 33-.1 2-.5 3.8-.5 5.7a.9.9 0 0 1 0 .2c2.9-.1 5.6-.2 8.5-.1zm-559-121.3V620a6.3 6.3 0 0 1 1.2-4c4-5.4 8-11 11.8-16.5.7-1.1 2.4-2.8 1-4s-2.6.7-3.7 1.6c-3.3 3-6.6 6.2-10.3 9.8 0-6.8.2-13-.1-19.3s-.7-12.4-3.2-18.4c-1.6 1.4-1.7 3-2 4.5a247.2 247.2 0 0 0-2.2 31c-1 29.8-1.6 59.7-2.1 89.7-.1 5.1-.4 10.3-.4 15.4 0 1.6-.4 2-2 1.5a60.4 60.4 0 0 1-20.4-12.6A79.1 79.1 0 0 1 11.6 654a81.1 81.1 0 0 1 2.9-39 116.2 116.2 0 0 1 29.9-50.7 66.7 66.7 0 0 1 8.3-6.7 21.5 21.5 0 0 1 22.7-2.3 102.1 102.1 0 0 1 38.2 30.5 80.8 80.8 0 0 1 17.5 36c3 16.1-.4 31.3-8 45.6a90.6 90.6 0 0 1-45 42l-5.2 1.6c-1.5.6-2.2.3-2.2-1.6v-28.8a4.8 4.8 0 0 1 1.4-3.3c7.4-9.2 15.3-18 22.3-27.6a37.8 37.8 0 0 0 5-9.7c.3-.7 1.1-1.7 0-2.4-.7-.5-1.5.3-2 .8a81.4 81.4 0 0 0-6.3 5.4c-7 6.7-13.4 14.2-20.5 21.4z"/><circle class="cls-16" cx="92.8" cy="591" r="4.5"/><path class="cls-15" d="M66.6 787.6h3.8a8.7 8.7 0 0 1 1-1.8l-.2-11.2a2.4 2.4 0 0 1-.8-1.5c-.1-1 .6-2 1-3-.2.3-.3-1-.3-1.3-.4-1.3-.6-2.7.6-4H71v-23a2.2 2.2 0 0 1-.2-2.7c-.2-.3.3-.8.4-1a5.7 5.7 0 0 0 0-1l-.2-.6a1.6 1.6 0 0 1 0-1.6c-.4-6.5 1.6-12.9-5.1-19.1-3 .6-3 1.6-3.4 2.3-2.6 5-3 10.3-3.6 15.4-1.6 15.4-2.6 30.7-3.5 46-.2 2.7-.7 5.3-.6 8a1.2 1.2 0 0 1 0 .1h11.7z"/><circle class="cls-2" cx="104.9" cy="632.4" r="3.6"/><circle class="cls-12" cx="147.6" cy="714.2" r="3.6"/><path class="cls-3" d="M257.2 648.4v-45.1a6.3 6.3 0 0 1 1.3-3.9c4-5.4 7.9-11 11.7-16.5.8-1.2 2.4-2.9 1.1-4s-2.7.6-3.8 1.6c-3.3 3-6.5 6.2-10.3 9.8 0-6.9.3-13.1 0-19.4s-.7-12.4-3.3-18.4c-1.6 1.4-1.7 3-2 4.6-1.6 10.2-1.8 20.5-2.2 30.9-1 29.9-1.5 59.8-2.1 89.7-.1 5.2-.4 10.3-.4 15.5 0 1.6-.3 2-2 1.4a60.4 60.4 0 0 1-20.3-12.5 79.1 79.1 0 0 1-26.7-44.9 81.1 81.1 0 0 1 3-39 116.2 116.2 0 0 1 29.8-50.7 66.7 66.7 0 0 1 8.3-6.7 21.5 21.5 0 0 1 22.7-2.2 102.1 102.1 0 0 1 38.3 30.5 80.8 80.8 0 0 1 17.4 35.9c3 16.2-.3 31.4-8 45.6a90.6 90.6 0 0 1-45 42c-1.7.7-3.4 1.1-5.1 1.7-1.5.5-2.3.2-2.3-1.6v-29a4.8 4.8 0 0 1 1.4-3.2c7.5-9.2 15.3-18 22.4-27.6a37.8 37.8 0 0 0 5-9.7c.2-.7 1-1.7 0-2.4-.8-.5-1.5.3-2.1.8-2.1 1.8-4.3 3.5-6.2 5.4-7 6.8-13.4 14.3-20.6 21.4z"/><circle class="cls-17" cx="279.4" cy="574.3" r="4.5"/><path class="cls-3" d="M253.2 770.8h3.8a8.7 8.7 0 0 1 1-1.8l-.1-11.2a2.4 2.4 0 0 1-.9-1.5c0-1 .7-2 1-3-.2.4-.2-1-.3-1.2-.3-1.4-.6-2.8.6-4h-.6V725a2.2 2.2 0 0 1-.1-2.7v-.1c-.2-.3.2-.7.3-1a5.7 5.7 0 0 0 .1-1c-.3-.3-.3-.5-.3-.5a1.6 1.6 0 0 1 .1-1.7c-.5-6.5 1.5-12.8-5.2-19-3 .6-3 1.5-3.4 2.3-2.6 5.1-3 10.3-3.6 15.5-1.7 15.4-2.6 30.7-3.5 46-.2 2.7-.7 5.3-.7 8a1.2 1.2 0 0 1 0 .1c4-.2 7.9-.3 11.8-.2z"/><circle class="cls-9" cx="290.6" cy="615.6" r="3.6"/><path class="cls-15" d="M324.7 731.6v-40a5.5 5.5 0 0 1 1-3.4l10.5-14.7c.7-1 2.1-2.5 1-3.5s-2.4.5-3.4 1.4l-9.1 8.6c0-6 .2-11.6-.1-17.1s-.6-11-2.8-16.3c-1.5 1.2-1.6 2.7-1.8 4-1.4 9.1-1.7 18.3-2 27.4-.9 26.5-1.4 53-1.9 79.5 0 4.6-.3 9.2-.3 13.7 0 1.4-.3 1.8-1.8 1.3a53.2 53.2 0 0 1-18-11.1 70.2 70.2 0 0 1-23.6-39.7A72 72 0 0 1 275 687a103.3 103.3 0 0 1 26.5-45 59.1 59.1 0 0 1 7.3-6 19 19 0 0 1 20.1-2 91 91 0 0 1 34 27 71.5 71.5 0 0 1 15.4 31.8 59.6 59.6 0 0 1-7.2 40.4 80 80 0 0 1-39.8 37.2l-4.5 1.5c-1.5.5-2 .2-2-1.4V745a4.3 4.3 0 0 1 1.2-3c6.6-8 13.6-16 19.8-24.4a33.5 33.5 0 0 0 4.4-8.6c.3-.6 1-1.5 0-2-.7-.5-1.3.2-1.8.6a88 88 0 0 0-5.6 4.8c-6.2 6.2-11.8 12.8-18.1 19.2z"/><circle class="cls-2" cx="648.4" cy="645.4" r="3.2"/><circle class="cls-2" cx="340.9" cy="665.7" r="3.2"/><circle class="cls-16" cx="356.7" cy="699.3" r="4.5"/></g></g></svg>