<svg id="Layer_1" data-name="Layer 1" xmlns="http://www.w3.org/2000/svg" viewBox="0 0 720 751"><defs><style>.cls-1,.cls-16{fill:none}.cls-2{fill:#273274}.cls-3{clip-path:url(#clip-path)}.cls-4{opacity:.8}.cls-5{clip-path:url(#clip-path-2)}.cls-15,.cls-6,.cls-8{fill:#f7f7f7}.cls-10,.cls-13,.cls-7,.cls-9{fill:#ff544e}.cls-10,.cls-11,.cls-13,.cls-14,.cls-15,.cls-8,.cls-9{stroke:#273274}.cls-10,.cls-11,.cls-13,.cls-14,.cls-15,.cls-16,.cls-8,.cls-9{stroke-miterlimit:10}.cls-10,.cls-14,.cls-8{stroke-width:2px}.cls-15,.cls-9{stroke-width:3px}.cls-11,.cls-12,.cls-14{fill:#ff8c58}.cls-11{stroke-width:4px}.cls-13{stroke-width:5px}.cls-16{stroke:#fff;stroke-width:19px}.cls-17{fill:#fff}</style><clipPath id="clip-path"><circle class="cls-1" cx="369.1" cy="444.8" r="168.9"/></clipPath><clipPath id="clip-path-2"><path class="cls-1" d="M-27.2 354.6h966.5v262.8H-27.2z"/></clipPath></defs><title>mobile elements</title><path class="cls-2" d="M0-.1h720V751H0z"/><g class="cls-3"><g class="cls-4"><g class="cls-5"><path class="cls-6" d="M761 523.3v-47.5a6.6 6.6 0 0 0-1.3-4 815 815 0 0 1-12.3-17.5c-.9-1.2-2.6-3-1.2-4.1s2.8.7 4 1.7L761 462c0-7.1-.2-13.7.1-20.3s.7-13 3.4-19.3c1.7 1.4 1.8 3.2 2 4.8 1.7 10.7 2 21.6 2.3 32.4 1.1 31.4 1.7 62.9 2.3 94.3l.4 16.3c0 1.6.3 2 2 1.5a64 64 0 0 0 21.4-13.2 83.2 83.2 0 0 0 28-47.1 85 85 0 0 0-3-41 122 122 0 0 0-31.4-53.3 70 70 0 0 0-8.7-7 22.5 22.5 0 0 0-23.9-2.4 107.4 107.4 0 0 0-40.1 32 84.5 84.5 0 0 0-18.4 37.8c-3.2 17 .4 33 8.5 47.9a95 95 0 0 0 47.3 44c1.7.8 3.5 1.3 5.3 1.9 1.6.5 2.4.2 2.3-1.7l.1-30.4a5 5 0 0 0-1.5-3.4c-7.8-9.7-16-19-23.5-29a39.7 39.7 0 0 1-5.2-10.2c-.3-.7-1.2-1.8 0-2.5.7-.5 1.5.3 2.1.8 2.3 1.9 4.5 3.7 6.6 5.7 7.4 7.2 14 15 21.6 22.6z"/><path class="cls-7" d="M631.5 475v-42.7a6 6 0 0 1 1.2-3.8 783 783 0 0 0 11-15.7c.8-1 2.4-2.7 1.2-3.7s-2.6.6-3.6 1.5c-3.2 2.8-6.3 5.8-9.8 9.2 0-6.4.2-12.4-.1-18.3s-.6-11.8-3-17.5c-1.5 1.3-1.6 2.9-1.9 4.4-1.5 9.7-1.8 19.5-2 29.3a4839 4839 0 0 0-2 85.1l-.5 14.7c0 1.5-.3 2-1.8 1.4a57.3 57.3 0 0 1-19.3-11.9 75 75 0 0 1-25.3-42.6 77.4 77.4 0 0 1 2.7-37 110.2 110.2 0 0 1 28.4-48.1 63.3 63.3 0 0 1 7.9-6.4 20.5 20.5 0 0 1 21.5-2.1 96.8 96.8 0 0 1 36.3 29 76.5 76.5 0 0 1 16.6 34 64 64 0 0 1-7.7 43.4 85.7 85.7 0 0 1-42.7 39.8c-1.5.7-3.2 1-4.8 1.6-1.4.5-2.1.2-2.1-1.5v-27.4a4.6 4.6 0 0 1 1.3-3.1c7-8.7 14.5-17.2 21.2-26.2a35.9 35.9 0 0 0 4.7-9.2c.3-.7 1-1.7.1-2.3-.8-.5-1.5.3-2 .7l-6 5.2c-6.7 6.4-12.7 13.4-19.5 20.3z"/><circle class="cls-2" cx="652.5" cy="404.7" r="4.2"/><path class="cls-7" d="M627.7 642.7h3.6a19.9 19.9 0 0 1 1-3l-.1-18.6a5.2 5.2 0 0 1-.9-2.5c0-1.7.7-3.4 1-5-.2.5-.2-1.8-.3-2.2a11 11 0 0 1 .6-6.7h-.6v-38.4a6 6 0 0 1-.1-4.5v-.1c-.2-.5.2-1.2.3-1.7l.1-1.6-.3-.9a4.3 4.3 0 0 1 .1-2.8c-.5-10.8 1.4-21.3-5-31.7-2.8 1-2.8 2.6-3.2 4-2.5 8.5-2.9 17.1-3.4 25.8-1.6 25.5-2.5 51-3.4 76.6-.1 4.4-.6 8.8-.5 13.2v.3c3.6-.2 7.3-.3 11-.2zM192 588.2V559a4 4 0 0 1 .8-2.5c2.6-3.6 5.2-7.1 7.6-10.8.5-.7 1.6-1.8.8-2.5s-1.8.4-2.5 1l-6.7 6.3c0-4.4.2-8.5 0-12.5s-.4-8-2-12a4.3 4.3 0 0 0-1.3 3 162.2 162.2 0 0 0-1.5 20c-.6 19.4-1 38.8-1.4 58.2 0 3.4-.2 6.7-.3 10 0 1-.1 1.3-1.2 1A39 39 0 0 1 171 610a51.4 51.4 0 0 1-17.3-29c-1.6-8.7-.6-17 1.9-25.4a75.4 75.4 0 0 1 19.4-32.9 43.3 43.3 0 0 1 5.4-4.3 14 14 0 0 1 14.7-1.5 66.6 66.6 0 0 1 36.1 43.1c2 10.5-.2 20.4-5.2 29.6a58.7 58.7 0 0 1-29.2 27.2c-1 .5-2.2.8-3.3 1.1s-1.4.2-1.4-1v-18.7a3.1 3.1 0 0 1 .9-2.2c4.8-6 10-11.7 14.5-18a24.5 24.5 0 0 0 3.3-6.2c.1-.5.7-1.1 0-1.6-.6-.3-1 .2-1.4.5-1.4 1.2-2.8 2.3-4 3.6-4.6 4.4-8.8 9.3-13.4 14z"/><circle class="cls-2" cx="206.4" cy="540.1" r="2.9"/><path class="cls-7" d="M189.4 667.6h2.5a5.7 5.7 0 0 1 .6-1.2v-7.2a1.6 1.6 0 0 1-.6-1c0-.7.4-1.4.6-2-.1.2-.1-.7-.2-.9a2.6 2.6 0 0 1 .4-2.6h-.3v-14.9a1.4 1.4 0 0 1-.1-1.8c-.1-.1.2-.5.2-.6a3.7 3.7 0 0 0 0-.7l-.1-.3a1 1 0 0 1 0-1c-.3-4.3 1-8.4-3.3-12.4-2 .4-2 1-2.3 1.5-1.7 3.3-2 6.7-2.3 10-1 10-1.7 20-2.3 30-.1 1.6-.4 3.3-.4 5a.8.8 0 0 1 0 .2h7.6z"/><path class="cls-6" d="M74.6 573.2v-21a3 3 0 0 1 .6-1.9 372 372 0 0 0 5.4-7.7c.4-.5 1.2-1.3.6-1.8s-1.3.3-1.8.7l-4.8 4.5v-9a24.7 24.7 0 0 0-1.5-8.5 3 3 0 0 0-1 2.1 116.6 116.6 0 0 0-1 14.4l-1 41.9-.1 7.2c0 .7-.2 1-1 .6a28 28 0 0 1-9.4-5.8 36.9 36.9 0 0 1-12.4-21 37.9 37.9 0 0 1 1.3-18.1 54.2 54.2 0 0 1 14-23.7 31.1 31.1 0 0 1 3.8-3.1 10 10 0 0 1 10.5-1 47.7 47.7 0 0 1 17.9 14.2 37.6 37.6 0 0 1 8.1 16.8c1.4 7.5-.1 14.6-3.7 21.3a42.1 42.1 0 0 1-21 19.5l-2.4.8c-.8.3-1 .1-1-.7v-13.5a2.3 2.3 0 0 1 .7-1.5c3.4-4.3 7.1-8.4 10.4-13a17.6 17.6 0 0 0 2.2-4.5c.1-.3.5-.8 0-1.1s-.7.1-1 .4l-3 2.5c-3.1 3.2-6 6.6-9.4 10z"/><circle class="cls-8" cx="85" cy="538.6" r="2.1"/><path class="cls-6" d="M72.7 630.3h1.8a4 4 0 0 1 .5-.9v-5.2a1.1 1.1 0 0 1-.5-.7c0-.5.3-1 .4-1.4v-.6a1.9 1.9 0 0 1 .2-1.9h-.3v-10.7a1 1 0 0 1 0-1.3l.2-.4a2.6 2.6 0 0 0 0-.5l-.1-.2a.7.7 0 0 1 0-.8c-.3-3 .7-6-2.4-8.9-1.5.3-1.5.7-1.6 1.1a19.6 19.6 0 0 0-1.7 7.3c-.8 7.1-1.2 14.3-1.7 21.4 0 1.3-.3 2.5-.3 3.7a.6.6 0 0 1 0 .1c1.9-.1 3.7-.2 5.5-.1z"/><path class="cls-7" d="M472.2 507.6V466a5.8 5.8 0 0 1 1.2-3.6l10.8-15.3c.7-1 2.2-2.6 1-3.6s-2.5.6-3.5 1.4l-9.5 9c0-6.2.2-12 0-17.8s-.7-11.4-3-17c-1.5 1.3-1.6 2.8-1.9 4.2-1.5 9.5-1.7 19-2 28.5-1 27.6-1.5 55.3-2 82.9-.1 4.8-.4 9.5-.4 14.3 0 1.5-.3 1.8-1.8 1.3a55.5 55.5 0 0 1-18.8-11.6 73 73 0 0 1-24.6-41.4 74.9 74.9 0 0 1 2.7-36 107.3 107.3 0 0 1 27.6-46.8 61.6 61.6 0 0 1 7.7-6.2 20 20 0 0 1 21-2 94.4 94.4 0 0 1 35.3 28.1 74.6 74.6 0 0 1 16 33.1c2.9 15-.2 29-7.4 42.2-9.5 17.5-23 31-41.5 38.7-1.5.7-3.1 1-4.7 1.6-1.4.5-2 .3-2-1.5l-.2-26.6a4.5 4.5 0 0 1 1.4-3c6.9-8.5 14.1-16.7 20.6-25.5a34.9 34.9 0 0 0 4.7-9c.2-.6 1-1.6 0-2.2-.8-.5-1.5.3-2 .7-2 1.7-4 3.3-5.8 5-6.4 6.3-12.3 13.2-19 19.8z"/><circle class="cls-9" cx="505.3" cy="477.6" r="4.1"/><circle class="cls-10" cx="490.9" cy="438.6" r="3.5"/><path class="cls-7" d="M468.5 620.6h3.5a8 8 0 0 1 1-1.7l-.2-10.3a2.2 2.2 0 0 1-.8-1.4c0-1 .6-1.8.9-2.8-.1.3-.2-1-.2-1.1a3.6 3.6 0 0 1 .5-3.8h-.5v-21.2a2 2 0 0 1-.2-2.5c-.1-.3.3-.7.3-1a5.2 5.2 0 0 0 .1-.9c-.2-.3-.3-.4-.2-.5a1.4 1.4 0 0 1 0-1.5c-.4-6 1.4-11.9-4.7-17.6-2.9.6-2.8 1.4-3.2 2.1-2.4 4.8-2.9 9.6-3.4 14.4a935 935 0 0 0-3.2 42.5c-.2 2.4-.6 4.9-.6 7.3a1.1 1.1 0 0 1 0 .2c3.6-.2 7.3-.3 11-.2zM26.1 507.3v-35.7a5 5 0 0 1 1-3l9.3-13.2c.6-1 2-2.2 1-3.1s-2.2.5-3 1.2l-8.3 7.7c0-5.3.2-10.3 0-15.3s-.6-9.8-2.6-14.5A5.2 5.2 0 0 0 22 435c-1.3 8.1-1.5 16.3-1.8 24.4-.8 23.7-1.2 47.4-1.7 71.1l-.3 12.3c0 1.2-.3 1.6-1.6 1.1a47.7 47.7 0 0 1-16-9.9 62.7 62.7 0 0 1-21.2-35.5c-2-10.5-.7-20.8 2.3-31a92 92 0 0 1 23.7-40A52.8 52.8 0 0 1 12 422c5.7-4 11.6-4.6 18-1.8a81 81 0 0 1 30.3 24.2A63.9 63.9 0 0 1 74 472.8a53.3 53.3 0 0 1-6.4 36.2A71.7 71.7 0 0 1 32 542.2c-1.3.6-2.7 1-4 1.4s-1.8.2-1.8-1.3v-22.9a3.8 3.8 0 0 1 1.1-2.6c6-7.2 12.2-14.2 17.7-21.8a30 30 0 0 0 4-7.7c.2-.5.9-1.3 0-1.9-.6-.4-1.2.3-1.7.7a89.3 89.3 0 0 0-5 4.3c-5.4 5.3-10.5 11.2-16.2 17z"/><circle class="cls-10" cx="54.6" cy="481.6" r="3.5"/><circle class="cls-2" cx="43.7" cy="448.6" r="3.5"/><path class="cls-7" d="M23 623.6h3a10.6 10.6 0 0 1 .8-2v-11.8a2.9 2.9 0 0 1-.8-1.6c0-1 .6-2.1.8-3.2-.1.4-.2-1-.2-1.3a5.4 5.4 0 0 1 .5-4.3h-.5V575a3 3 0 0 1-.1-2.8c-.1-.4.2-.9.3-1.2a8 8 0 0 0 0-1l-.2-.5a2.1 2.1 0 0 1 .1-1.8c-.4-6.9 1.2-13.6-4.1-20.2-2.4.7-2.4 1.6-2.7 2.5-2.1 5.4-2.5 11-3 16.4-1.2 16.3-2 32.6-2.7 49-.1 2.7-.5 5.5-.5 8.3a1.7 1.7 0 0 1 0 .2l9.3-.2z"/><circle class="cls-2" cx="419.4" cy="553.6" r="3.8"/><circle class="cls-11" cx="407.6" cy="517.6" r="3.8"/><path class="cls-12" d="M385 687.3h3.3a7.5 7.5 0 0 1 .8-1.6v-9.6a2 2 0 0 1-.8-1.3c-.1-.9.5-1.7.8-2.6-.1.3-.2-.9-.2-1a3.4 3.4 0 0 1 .5-3.6h-.5v-19.9a2 2 0 0 1-.1-2.3c-.2-.2.2-.6.3-.9a4.9 4.9 0 0 0 0-.8l-.2-.5a1.4 1.4 0 0 1 .1-1.4c-.4-5.6 1.3-11-4.5-16.5-2.6.6-2.6 1.4-3 2-2.2 4.5-2.6 9-3.1 13.4a843.3 843.3 0 0 0-3 39.8c-.1 2.3-.6 4.5-.5 6.8a1 1 0 0 1 0 .2c3.3-.2 6.7-.3 10.1-.2z"/><path class="cls-7" d="M253.6 503v-35.7a5 5 0 0 1 1-3.1c3.2-4.3 6.3-8.7 9.3-13.1.6-1 2-2.3 1-3.2s-2.2.6-3 1.3l-8.3 7.7c0-5.4.2-10.3 0-15.3s-.6-9.8-2.6-14.6a5.2 5.2 0 0 0-1.5 3.6c-1.3 8.1-1.5 16.3-1.8 24.5-.8 23.7-1.3 47.3-1.7 71l-.4 12.3c0 1.3-.2 1.6-1.5 1.1a47.7 47.7 0 0 1-16.1-9.9 62.7 62.7 0 0 1-21.1-35.5c-2-10.5-.7-20.8 2.3-30.9a92 92 0 0 1 23.7-40.2 52.8 52.8 0 0 1 6.6-5.3c5.6-4 11.6-4.6 18-1.8a81 81 0 0 1 30.2 24.2 63.9 63.9 0 0 1 13.9 28.4 53.3 53.3 0 0 1-6.4 36.2 71.6 71.6 0 0 1-35.7 33.2c-1.2.5-2.6.9-4 1.3s-1.7.2-1.7-1.2l-.1-22.9a3.8 3.8 0 0 1 1.1-2.6c6-7.3 12.2-14.3 17.7-21.9a30 30 0 0 0 4-7.6c.2-.6.9-1.4 0-2-.6-.3-1.2.3-1.6.7l-5 4.3c-5.5 5.4-10.6 11.3-16.3 17z"/><circle class="cls-13" cx="282.1" cy="477.3" r="3.5"/><circle class="cls-10" cx="271.3" cy="444.3" r="3.5"/><path class="cls-7" d="M250.5 622.5h3a11.3 11.3 0 0 1 .8-2V608a3 3 0 0 1-.8-1.6c0-1.2.6-2.3.8-3.4-.1.4-.2-1.1-.2-1.4a5.8 5.8 0 0 1 .5-4.5h-.5v-25.4a3.3 3.3 0 0 1-.1-3c-.1-.3.2-.9.3-1.1a8.7 8.7 0 0 0 0-1.1l-.2-.6a2.3 2.3 0 0 1 .1-1.8c-.4-7.2 1.2-14.3-4.1-21.1-2.4.7-2.4 1.7-2.7 2.6-2.1 5.6-2.5 11.4-3 17.1-1.2 17-2 34-2.7 51-.1 2.9-.5 5.8-.5 8.7a1.9 1.9 0 0 1 0 .2c3-.1 6.2-.2 9.3-.1z"/><path class="cls-12" d="M688.3 549.5V518a4.4 4.4 0 0 1 .9-2.8l8.2-11.6c.5-.8 1.7-2 .8-2.7s-2 .4-2.7 1l-7.2 7c0-4.8.2-9.2 0-13.6s-.5-8.7-2.3-12.9a4.6 4.6 0 0 0-1.3 3.2 175 175 0 0 0-1.6 21.6c-.7 21-1.1 41.9-1.5 62.8l-.3 10.8c0 1.1-.2 1.4-1.4 1a42.1 42.1 0 0 1-14.2-8.8 55.4 55.4 0 0 1-18.6-31.4 57 57 0 0 1 2-27.3A81.3 81.3 0 0 1 670 479a46.7 46.7 0 0 1 5.8-4.7 15 15 0 0 1 15.9-1.6 71.5 71.5 0 0 1 26.7 21.4c6 7.4 10.5 15.6 12.2 25 2.1 11.4-.2 22-5.6 32a63.2 63.2 0 0 1-31.5 29.4l-3.5 1.2c-1.1.4-1.6.1-1.6-1.2v-20.2a3.4 3.4 0 0 1 1-2.3c5.2-6.4 10.7-12.6 15.6-19.3a26.4 26.4 0 0 0 3.5-6.8c.1-.5.7-1.2 0-1.6-.6-.4-1.1.2-1.5.5l-4.4 3.8c-4.8 4.8-9.3 10-14.3 15z"/><circle class="cls-12" cx="713.4" cy="526.8" r="3.1"/><path class="cls-12" d="M685.5 635.1h2.7a6.1 6.1 0 0 1 .7-1.3l-.1-7.8a1.7 1.7 0 0 1-.6-1c0-.7.4-1.4.6-2.1l-.1-1a2.8 2.8 0 0 1 .4-2.8h-.4V603a1.6 1.6 0 0 1-.1-1.9c-.1-.1.2-.5.3-.7a4 4 0 0 0 0-.6l-.2-.4a1 1 0 0 1 0-1.2c-.3-4.5 1-9-3.5-13.3-2.2.4-2.2 1-2.4 1.6-1.9 3.6-2.2 7.3-2.6 10.9a711.6 711.6 0 0 0-2.4 32.2c-.1 1.8-.5 3.7-.5 5.5a.8.8 0 0 1 0 .1h8.2zM140.8 517v-44a6 6 0 0 1 1.3-3.8c3.9-5.4 7.7-10.7 11.4-16.2.8-1 2.4-2.7 1.1-3.8s-2.6.6-3.7 1.5l-10 9.5c0-6.6.2-12.7-.1-18.8s-.7-12-3.2-18c-1.5 1.4-1.6 3-1.8 4.5-1.6 10-1.9 20-2.2 30.1-1 29.2-1.6 58.3-2.1 87.5-.1 5-.4 10-.4 15 0 1.6-.3 2-2 1.5a57 57 0 0 1-19.7-12.3 77.4 77.4 0 0 1-26-43.7 77.8 77.8 0 0 1 2.8-38 113 113 0 0 1 29.1-49.4 65 65 0 0 1 8.1-6.5 21 21 0 0 1 22.1-2.2c15 6.6 27 17 37.3 29.7a78.7 78.7 0 0 1 17 35c3 15.8-.3 30.6-7.9 44.5a88 88 0 0 1-43.8 40.9l-5 1.6c-1.4.5-2.1.3-2.1-1.6l-.1-28.1a4.7 4.7 0 0 1 1.4-3.2c7.3-9 15-17.6 21.7-27a36.8 36.8 0 0 0 5-9.3c.2-.7 1-1.7 0-2.4-.8-.5-1.5.3-2 .8a77.2 77.2 0 0 0-6.1 5.3c-6.9 6.6-13 13.8-20 20.8z"/><circle class="cls-14" cx="162.5" cy="444.7" r="4.3"/><path class="cls-12" d="M137 636.2h3.7a8.5 8.5 0 0 1 1-1.8l-.1-10.9a2.4 2.4 0 0 1-.9-1.4c0-1 .7-2 1-3-.2.3-.3-1-.3-1.3-.4-1.3-.6-2.6.6-3.9h-.6v-22.4a2.2 2.2 0 0 1-.2-2.7c-.1-.3.3-.7.4-1a5.5 5.5 0 0 0 .1-1c-.3-.3-.3-.4-.3-.5a1.5 1.5 0 0 1 .1-1.6c-.5-6.3 1.4-12.5-5-18.6-3 .7-3 1.5-3.4 2.3-2.6 5-3 10-3.5 15.1-1.6 15-2.6 30-3.5 44.9-.1 2.6-.6 5.1-.6 7.7a1.2 1.2 0 0 1 0 .2c3.8-.1 7.6-.2 11.5-.1z"/><circle class="cls-2" cx="174.3" cy="485" r="3.5"/><circle class="cls-10" cx="215.9" cy="564.7" r="3.5"/><path class="cls-6" d="M322.7 500.6v-43.9a6 6 0 0 1 1.3-3.8l11.4-16.2c.7-1.1 2.3-2.7 1-3.8s-2.6.6-3.6 1.5l-10 9.5c0-6.6.2-12.7-.2-18.8s-.6-12-3-18c-1.6 1.4-1.7 3-2 4.5-1.6 10-1.8 20-2.2 30.1a5120 5120 0 0 0-2 87.4l-.5 15.1c0 1.6-.3 2-1.9 1.4-7.5-2.6-14-7-19.8-12.2a77.4 77.4 0 0 1-26-43.7 79 79 0 0 1 2.8-38 113 113 0 0 1 29.2-49.4 65 65 0 0 1 8-6.6 21 21 0 0 1 22.2-2.1c15 6.6 27 17 37.2 29.7a78.7 78.7 0 0 1 17 35c3 15.8-.3 30.6-7.8 44.4a88 88 0 0 1-43.9 41l-4.9 1.6c-1.5.5-2.2.2-2.2-1.6v-28.1a4.7 4.7 0 0 1 1.3-3.2c7.3-9 15-17.6 21.8-27a36.8 36.8 0 0 0 4.9-9.4c.2-.7 1-1.6 0-2.3-.7-.5-1.4.3-2 .8-2 1.7-4.1 3.4-6 5.3-7 6.6-13.1 13.8-20.1 20.8z"/><circle class="cls-15" cx="344.4" cy="428.4" r="4.3"/><path class="cls-6" d="M318.8 619.8l3.7.1a8.5 8.5 0 0 1 1-1.8l-.1-10.9a2.4 2.4 0 0 1-.9-1.4c0-1 .7-2 1-3-.2.3-.2-1-.3-1.3-.3-1.3-.5-2.7.6-4h-.5v-22.3a2.2 2.2 0 0 1-.2-2.7c-.2-.3.3-.8.3-1a5.5 5.5 0 0 0 .1-1c-.3-.3-.3-.5-.2-.5a1.5 1.5 0 0 1 0-1.6c-.5-6.4 1.5-12.5-5-18.6-3 .6-3 1.5-3.4 2.3-2.5 5-3 10-3.5 15.1-1.6 15-2.5 30-3.4 44.9-.2 2.5-.6 5.1-.6 7.7a1.2 1.2 0 0 1 0 .2l11.4-.2z"/><circle class="cls-8" cx="355.2" cy="468.6" r="3.5"/><path class="cls-12" d="M388.4 581.6v-38.9a5.4 5.4 0 0 1 1.1-3.4c3.5-4.7 6.8-9.5 10.1-14.3.7-1 2.1-2.4 1-3.4s-2.3.6-3.2 1.4c-3 2.6-5.7 5.3-9 8.4 0-5.9.3-11.3 0-16.7s-.6-10.7-2.8-15.9c-1.4 1.2-1.4 2.6-1.7 4-1.4 8.8-1.6 17.8-1.9 26.7-.9 25.8-1.4 51.6-1.9 77.5l-.3 13.3c0 1.4-.3 1.8-1.7 1.3a51.9 51.9 0 0 1-17.5-10.9 68.2 68.2 0 0 1-23-38.7 70.1 70.1 0 0 1 2.4-33.7c5-16.7 13.4-31.5 25.9-43.8a57.6 57.6 0 0 1 7.1-5.8c6.2-4.4 12.7-5 19.6-2a88 88 0 0 1 33 26.4 69.7 69.7 0 0 1 15.1 31 58 58 0 0 1-7 39.4 78.1 78.1 0 0 1-38.8 36.3c-1.5.6-3 1-4.4 1.4s-2 .2-2-1.4V595a4.2 4.2 0 0 1 1.2-2.8c6.5-8 13.3-15.6 19.3-23.9a32.6 32.6 0 0 0 4.3-8.3c.3-.6 1-1.5 0-2-.6-.5-1.3.2-1.8.6-1.8 1.5-3.6 3-5.4 4.7-6 5.8-11.5 12.2-17.7 18.4z"/><circle class="cls-2" cx="703.9" cy="497.6" r="3.1"/><circle class="cls-2" cx="404.3" cy="517.4" r="3.1"/><circle class="cls-14" cx="419.7" cy="550.2" r="4.3"/></g></g></g><circle class="cls-16" cx="369.1" cy="448.1" r="168.9"/><path class="cls-17" d="M204.8 188.7h4.8v-15.1a2.7 2.7 0 0 0-.1-1 1.3 1.3 0 0 0-.4-.5 1.3 1.3 0 0 0-.6-.3 3.8 3.8 0 0 0-.7 0 7.1 7.1 0 0 0-1.5.1 12.1 12.1 0 0 0-1.8.6 15.3 15.3 0 0 0-2 1 9.4 9.4 0 0 0-1.6 1.2 6.2 6.2 0 0 0-1.3 1.5 3.7 3.7 0 0 0-.5 1.8 3.4 3.4 0 0 0 .3 1.4 2.1 2.1 0 0 0 .5.8 1.4 1.4 0 0 0 .6.3 2.4 2.4 0 0 0 .4 0 2.3 2.3 0 0 0 1.1-.2 6.4 6.4 0 0 0 .8-.5l.6-.4a1.2 1.2 0 0 1 .8-.3 1.8 1.8 0 0 1 .6.2 2 2 0 0 1 .7.5 2.7 2.7 0 0 1 .5.8 3.3 3.3 0 0 1 .2 1.3 3.8 3.8 0 0 1-.4 1.8 4 4 0 0 1-1 1.3 4.4 4.4 0 0 1-1.5.8 5.7 5.7 0 0 1-1.7.2 5.8 5.8 0 0 1-2.3-.4 5 5 0 0 1-1.7-1.2 5.2 5.2 0 0 1-1.1-1.8 6.5 6.5 0 0 1-.4-2.3 8.3 8.3 0 0 1 .7-3.3 9.5 9.5 0 0 1 1.8-2.8 12.3 12.3 0 0 1 2.7-2.1 17.9 17.9 0 0 1 3.4-1.5 22.6 22.6 0 0 1 3.8-1 25.6 25.6 0 0 1 3.9-.3 11 11 0 0 1 3.4.4 4.5 4.5 0 0 1 1.8 1 2.3 2.3 0 0 1 .7 1.3 6.7 6.7 0 0 1 0 1v15.7h9.9V176a21.6 21.6 0 0 1 1-7.5 15 15 0 0 1 3-5 11.1 11.1 0 0 1 4-2.8 12 12 0 0 1 4.5-1 17.7 17.7 0 0 1 3 .3 10 10 0 0 1 2.3.7 4.8 4.8 0 0 1 1.7 1.1 2.3 2.3 0 0 1 .6 1.6 2.4 2.4 0 0 1-.5 1.4 1.8 1.8 0 0 1-.5.5 1 1 0 0 1-.5.2 1.3 1.3 0 0 1-.9-.3 4 4 0 0 1-.7-.8l-.6-1a6.5 6.5 0 0 0-.8-1 3.8 3.8 0 0 0-.9-.7 2.4 2.4 0 0 0-1.2-.3 3.6 3.6 0 0 0-2.6 1 5.7 5.7 0 0 0-1.4 2.5 19.3 19.3 0 0 0-.7 4.3l-.1 5.9v13.7h5.3v2.3H237v16.2a2 2 0 0 0 .3 1.2 1.2 1.2 0 0 0 1 .5 3.6 3.6 0 0 0 1.4-.3l1.1-.5.5 1-1.4.9a15.7 15.7 0 0 1-1.7.8 13.6 13.6 0 0 1-2 .6 9.8 9.8 0 0 1-2.3.3 7.5 7.5 0 0 1-3-.5 4.3 4.3 0 0 1-1.7-1.2 4.2 4.2 0 0 1-.8-1.8 10 10 0 0 1-.2-2V191h-9.7v13.2a14.2 14.2 0 0 1-1.4 6.3 12.8 12.8 0 0 1-3.6 4.5 15.6 15.6 0 0 1-5.4 2.7 24 24 0 0 1-6.6.9 14.6 14.6 0 0 1-2.6-.2 10.7 10.7 0 0 1-2.3-.7 5 5 0 0 1-1.5-1 1.6 1.6 0 0 1-.6-1 3.7 3.7 0 0 1 .2-1 3 3 0 0 1 .4-1 2.5 2.5 0 0 1 .6-.6 1.5 1.5 0 0 1 .9-.3.7.7 0 0 1 .5.3 5.6 5.6 0 0 1 .5.7l.5 1a4.2 4.2 0 0 0 .8.9 4.3 4.3 0 0 0 1.2.7 4.5 4.5 0 0 0 1.7.3 7.8 7.8 0 0 0 3.6-.8 6.5 6.5 0 0 0 2.4-2 9.5 9.5 0 0 0 1.4-3.3 17 17 0 0 0 .5-4V191h-4.8zm49.6-5a6.3 6.3 0 0 0-1.7.2 5.8 5.8 0 0 0-1.3.5 3.2 3.2 0 0 0-.9.7 1.2 1.2 0 0 0-.3.8.6.6 0 0 0 .4.5l1 .4a3 3 0 0 1 .8.7 1.7 1.7 0 0 1 .5 1.2 2.3 2.3 0 0 1-.3 1 2.8 2.8 0 0 1-1.5 1.4 3 3 0 0 1-1 .2 3.1 3.1 0 0 1-2.5-1 3.9 3.9 0 0 1-.9-2.7 4.6 4.6 0 0 1 .8-2.8 6.7 6.7 0 0 1 2.3-1.9 11.2 11.2 0 0 1 3-1 17.2 17.2 0 0 1 7.5 0 10 10 0 0 1 3.3 1.5 7.4 7.4 0 0 1 2.4 2.5 7.3 7.3 0 0 1 .8 3.6v15.6a1.7 1.7 0 0 0 .1.5 1 1 0 0 0 .4.4 1 1 0 0 0 .6.1 1.3 1.3 0 0 0 .9-.3 7.1 7.1 0 0 0 .7-.7l.7.5-1 1.2a7.7 7.7 0 0 1-3.3 2.3 6.9 6.9 0 0 1-2.4.4 4.8 4.8 0 0 1-3-1 4.8 4.8 0 0 1-1.7-3 11.3 11.3 0 0 1-1.7 1.8 9.6 9.6 0 0 1-2 1.3 8.3 8.3 0 0 1-1.9.7 9.1 9.1 0 0 1-2 .2 7.8 7.8 0 0 1-2.4-.4 5.9 5.9 0 0 1-2.2-1.3 6.2 6.2 0 0 1-1.5-2.2 8.8 8.8 0 0 1-.6-3.4 7.4 7.4 0 0 1 1-4 8.6 8.6 0 0 1 2.6-2.6 17 17 0 0 1 3.5-1.8l4-1.6a4.3 4.3 0 0 0 2.4-1.7 4.9 4.9 0 0 0 .7-2.5 4.3 4.3 0 0 0-1.2-3.1 4.2 4.2 0 0 0-3-1.2zm4.2 11.6a1.2 1.2 0 0 0-.4-1 1.7 1.7 0 0 0-1-.3 3.9 3.9 0 0 0-1.8.4 4.4 4.4 0 0 0-1.5 1.3 6.3 6.3 0 0 0-1 2 9.6 9.6 0 0 0-.4 2.8 12 12 0 0 0 .2 2.5 5 5 0 0 0 .6 1.6 2.2 2.2 0 0 0 1 .9 2.5 2.5 0 0 0 1 .2 2.5 2.5 0 0 0 1.3-.3 4 4 0 0 0 1-1 4.6 4.6 0 0 0 .8-1.2 3.8 3.8 0 0 0 .2-1.4zm32.1-4.6a3.4 3.4 0 0 1-1.4-.3 2.4 2.4 0 0 1-.9-.6 2.8 2.8 0 0 1-.5-1 3.6 3.6 0 0 1-.2-1 9.9 9.9 0 0 1 .1-1.4 4.6 4.6 0 0 0 0-1.2 1.4 1.4 0 0 0-.4-.9 1.8 1.8 0 0 0-1.2-.3 4.3 4.3 0 0 0-2 .5 5.5 5.5 0 0 0-1.9 1.7 9.8 9.8 0 0 0-1.4 3 14.7 14.7 0 0 0-.6 4.3 23.2 23.2 0 0 0 .6 5 12.2 12.2 0 0 0 1.5 4 7.5 7.5 0 0 0 2.6 2.5 7.7 7.7 0 0 0 5.4.7 7.8 7.8 0 0 0 1.6-.6 10.2 10.2 0 0 0 1.4-.8l1.3-1.1.7.6a18.3 18.3 0 0 1-1.6 1.8 12.8 12.8 0 0 1-2.3 1.9 13.4 13.4 0 0 1-3.2 1.4 13.7 13.7 0 0 1-4.1.6 11.9 11.9 0 0 1-4.5-.9 11.7 11.7 0 0 1-4-2.6 12.8 12.8 0 0 1-2.6-4.1 14.2 14.2 0 0 1-1-5.6 15.4 15.4 0 0 1 .6-4.4 14.7 14.7 0 0 1 1.6-3.7 13.9 13.9 0 0 1 2.5-3 15.5 15.5 0 0 1 3-2 14.2 14.2 0 0 1 3-1.3 12.1 12.1 0 0 1 3.2-.4 11.7 11.7 0 0 1 3.4.5 7.7 7.7 0 0 1 2.4 1.1 4.9 4.9 0 0 1 1.5 1.8 4.5 4.5 0 0 1 .5 2 5.4 5.4 0 0 1-.2 1.4 3.7 3.7 0 0 1-.6 1.3 2.8 2.8 0 0 1-1 .8 2.9 2.9 0 0 1-1.3.3zm16-2l2-2.5a18.3 18.3 0 0 1 2.3-2.3 11.7 11.7 0 0 1 2.7-1.7 7.4 7.4 0 0 1 3.1-.7 4.9 4.9 0 0 1 2.6.6 5.5 5.5 0 0 1 1.6 1.4 5.3 5.3 0 0 1 .9 1.8 5.9 5.9 0 0 1 .2 1.5 10.3 10.3 0 0 1-.3 2.4 9.1 9.1 0 0 1-1 2.6 11.1 11.1 0 0 1-2 2.3 13.4 13.4 0 0 1-3 2.2 91.8 91.8 0 0 0 4.8 9 45.6 45.6 0 0 0 4.6 6.4 17.9 17.9 0 0 0 4.2 3.6 7.7 7.7 0 0 0 3.8 1.2 2.6 2.6 0 0 0 .7-.1 4.6 4.6 0 0 0 .6-.2 5.9 5.9 0 0 0 .6-.3l.5 1-1.5.7a10.3 10.3 0 0 1-1.7.6 15.8 15.8 0 0 1-2.2.5 24 24 0 0 1-3 .1 13 13 0 0 1-3-.3 10.6 10.6 0 0 1-3.1-1.4 17.4 17.4 0 0 1-3.2-2.5 28.5 28.5 0 0 1-3.2-4 58.1 58.1 0 0 1-3.4-5.8q-1.8-3.4-3.7-8a27.9 27.9 0 0 0 4-3.4 17.1 17.1 0 0 0 2.2-3 7.6 7.6 0 0 0 1-2.3 9.8 9.8 0 0 0 .1-1.7v-.4a1.2 1.2 0 0 0-.1-.5 1.4 1.4 0 0 0-.5-.4 1.4 1.4 0 0 0-.8-.2 3.1 3.1 0 0 0-2 .9 11.8 11.8 0 0 0-1.9 2 20 20 0 0 0-1.7 2.7l-1.2 2.6v13.7a3.5 3.5 0 0 1 0 .9 2 2 0 0 1-.7.9 3.6 3.6 0 0 1-1.2.7 6.7 6.7 0 0 1-2.3.3 5.9 5.9 0 0 1-2.2-.3 3 3 0 0 1-1.2-.8 2 2 0 0 1-.5-1 4.2 4.2 0 0 1 0-.7v-34.4a2.5 2.5 0 0 0-.4-1.4 1.3 1.3 0 0 0-1.2-.5 2 2 0 0 0-.8.1 3.4 3.4 0 0 0-.7.5l-.5-.7a15.9 15.9 0 0 1 1.3-1 9.9 9.9 0 0 1 1.7-.8 12.2 12.2 0 0 1 1.9-.6 9.2 9.2 0 0 1 2-.3 6.3 6.3 0 0 1 2.8.5 3.5 3.5 0 0 1 1.4 1.1 3.3 3.3 0 0 1 .5 1.5 11.2 11.2 0 0 1 .1 1.3z"/><path class="cls-17" d="M336 183.8v19.6a2.8 2.8 0 0 0 .6 2 2 2 0 0 0 1.4.6 2.1 2.1 0 0 0 1.3-.4 4.7 4.7 0 0 0 1-1 5.6 5.6 0 0 0 .9-1.2l.8.4-1 1.8a7.4 7.4 0 0 1-3.7 3.4 8.8 8.8 0 0 1-3.4.5 7.3 7.3 0 0 1-2.3-.3 5.3 5.3 0 0 1-1.9-1.1 5.5 5.5 0 0 1-1.3-1.9 6.5 6.5 0 0 1-.6-2.6v-19.8h-3v-2a8 8 0 0 0 2.1-.3 10.4 10.4 0 0 0 2.8-1.3 10.8 10.8 0 0 0 2.5-2.4 9.3 9.3 0 0 0 1.7-3.8h2.2v7.9h4.3q2.1 0 2.1-.8a.4.4 0 0 0-.2-.3l-.6-.3a2 2 0 0 1-.6-.4 1.2 1.2 0 0 1-.3-.8 1.5 1.5 0 0 1 .5-1.2 1.7 1.7 0 0 1 1.2-.4 1.7 1.7 0 0 1 .8.2 1.8 1.8 0 0 1 .6.5 2.4 2.4 0 0 1 .4.7 3.1 3.1 0 0 1 .1.9 3.8 3.8 0 0 1-1 2.7 4.3 4.3 0 0 1-3.2 1zm7.6 11.7a17 17 0 0 1 1-6.1 13 13 0 0 1 2.7-4.4 11 11 0 0 1 3.9-2.6 12.7 12.7 0 0 1 4.7-1 13.6 13.6 0 0 1 4.7.9 10.7 10.7 0 0 1 3.9 2.5 12.2 12.2 0 0 1 2.7 4.2 16.6 16.6 0 0 1 1 6.1 17.5 17.5 0 0 1-1 6.2 13.7 13.7 0 0 1-2.7 4.5 11.2 11.2 0 0 1-4 2.8 12 12 0 0 1-4.6 1 12.5 12.5 0 0 1-4.7-1 11 11 0 0 1-4-2.6 13 13 0 0 1-2.6-4.4 17 17 0 0 1-1-6.1zm16.3-.3l-.1-4a18.4 18.4 0 0 0-.6-3.6 6.2 6.2 0 0 0-1.2-2.5 2.6 2.6 0 0 0-2.1-.9 2.6 2.6 0 0 0-2.1 1 6.7 6.7 0 0 0-1.2 2.6 18.6 18.6 0 0 0-.6 3.6l-.1 4.1.1 4.2a19 19 0 0 0 .6 3.6 6.7 6.7 0 0 0 1.2 2.6 2.6 2.6 0 0 0 2.1 1 2.5 2.5 0 0 0 2.1-1 7.1 7.1 0 0 0 1.2-2.7 20.9 20.9 0 0 0 .6-3.7l.1-4.3zm12.4-22.8a2.5 2.5 0 0 0-.3-1.4 1.3 1.3 0 0 0-1.2-.6 2 2 0 0 0-.8.2 3.4 3.4 0 0 0-.7.4l-.5-.6a15 15 0 0 1 1.3-1 10.7 10.7 0 0 1 1.7-.9 11.8 11.8 0 0 1 1.9-.6 9.2 9.2 0 0 1 2-.2 5.7 5.7 0 0 1 2.6.4 3.8 3.8 0 0 1 1.4 1.2 3.7 3.7 0 0 1 .7 1.4 7.3 7.3 0 0 1 .1 1.5V184l.9-.7a7.4 7.4 0 0 1 1.2-.9 8.4 8.4 0 0 1 1.9-.7 9.8 9.8 0 0 1 2.5-.3 8 8 0 0 1 3.4.8 8.6 8.6 0 0 1 3.1 2.4 13.3 13.3 0 0 1 2.2 4.4 20.7 20.7 0 0 1 .9 6.3 18.8 18.8 0 0 1-.8 5.5 13.4 13.4 0 0 1-2.4 4.5 11 11 0 0 1-3.8 3 12.2 12.2 0 0 1-5.4 1 13 13 0 0 1-5.6-1 9.7 9.7 0 0 1-3.7-2.9 11.5 11.5 0 0 1-2-4.2 21.2 21.2 0 0 1-.6-5.2zm15.9 23.5a37.4 37.4 0 0 0-.3-4.4 17 17 0 0 0-.7-3.6 6.8 6.8 0 0 0-1.4-2.4 2.6 2.6 0 0 0-2-.9 2.6 2.6 0 0 0-1.5.5 4.2 4.2 0 0 0-1 1 4.3 4.3 0 0 0-.6 1 3 3 0 0 0-.2.8v8a26.5 26.5 0 0 0 1 8.4q1 2.7 2.9 2.7t2.9-2.7a27.6 27.6 0 0 0 .9-8.4zm20.3 1a7.5 7.5 0 0 0 .3 1.9 11 11 0 0 0 .7 2 10.7 10.7 0 0 0 1.2 1.9 9.1 9.1 0 0 0 1.6 1.6 7.8 7.8 0 0 0 2 1.2 6.8 6.8 0 0 0 2.4.4 6.7 6.7 0 0 0 1.8-.2 6.8 6.8 0 0 0 1.5-.6 9.7 9.7 0 0 0 1.3-.9l1.3-1 .6.6a18.3 18.3 0 0 1-1.5 1.8 12.8 12.8 0 0 1-2.3 1.9 13.4 13.4 0 0 1-3.2 1.4 13.7 13.7 0 0 1-4.1.6 12.6 12.6 0 0 1-4.6-.9 11.2 11.2 0 0 1-3.9-2.5 12.3 12.3 0 0 1-2.6-4.1 16.9 16.9 0 0 1-.4-10.3 14.3 14.3 0 0 1 1.6-3.6 13.6 13.6 0 0 1 2.5-2.9 15.2 15.2 0 0 1 3-2 14.5 14.5 0 0 1 3-1.2 13 13 0 0 1 6.6 0 7.7 7.7 0 0 1 2.5 1.1 4.8 4.8 0 0 1 1.4 1.7 4.3 4.3 0 0 1 .5 2 3.8 3.8 0 0 1-.7 2.2 6.7 6.7 0 0 1-2 1.7zm5.4-5.4a4.2 4.2 0 0 0 .5-.4 1.5 1.5 0 0 0 .4-.5 2.6 2.6 0 0 0 .2-.7 6.7 6.7 0 0 0 0-1 8.4 8.4 0 0 0 0-1.5 6 6 0 0 0-.6-1.5 3.8 3.8 0 0 0-.9-1.2 1.8 1.8 0 0 0-1.2-.5 2.5 2.5 0 0 0-1.7.6 4.4 4.4 0 0 0-1.1 1.5 9.2 9.2 0 0 0-.7 2 23.1 23.1 0 0 0-.4 2.4l-.1 2.2v1.8zm21.5-4.4a22 22 0 0 1 2.1-2.8 14.4 14.4 0 0 1 1-1 10 10 0 0 1 1.2-.9 6.1 6.1 0 0 1 1.2-.6 3.6 3.6 0 0 1 1.3-.3 2.8 2.8 0 0 1 2.1.8 3.2 3.2 0 0 1 .8 2.3 10.2 10.2 0 0 1-.1 1.8 13 13 0 0 1-.6 2h-.8a2.5 2.5 0 0 0-.7-1.4 2.4 2.4 0 0 0-1.7-.6 4.5 4.5 0 0 0-1.6.3 10 10 0 0 0-1.6.8 13.7 13.7 0 0 0-1.4 1l-1.3 1v17.3a4 4 0 0 1 0 .8 1.9 1.9 0 0 1-.6 1 3.3 3.3 0 0 1-1.2.6 6.5 6.5 0 0 1-2.2.4 6 6 0 0 1-2.3-.4 3.5 3.5 0 0 1-1.2-.8 2 2 0 0 1-.5-.9 3.7 3.7 0 0 1-.2-.8v-20.5a2.5 2.5 0 0 0-.3-1.4 1.3 1.3 0 0 0-1.2-.5 1.7 1.7 0 0 0-.8.1 4.2 4.2 0 0 0-.7.5l-.5-.7a14.8 14.8 0 0 1 1.3-1 10.6 10.6 0 0 1 1.7-.9 11.8 11.8 0 0 1 1.9-.6 9.2 9.2 0 0 1 2-.2 5.6 5.6 0 0 1 2 .3 4 4 0 0 1 1.4.8 3.8 3.8 0 0 1 .8 1 6.1 6.1 0 0 1 .5 1.3 6.7 6.7 0 0 1 .1 1.2v1z"/><path class="cls-17" d="M461.6 169.5a3.2 3.2 0 0 0-1.4.4 3 3 0 0 0-1.1 1 5.7 5.7 0 0 0-.8 1.8 10.3 10.3 0 0 0-.3 2.6v6.5h5.8v2H458v21a22.6 22.6 0 0 1-1 6.6 14.6 14.6 0 0 1-2.8 5.3 13.2 13.2 0 0 1-4.8 3.5 16.7 16.7 0 0 1-6.7 1.3 14.7 14.7 0 0 1-2.6-.3 10.7 10.7 0 0 1-2.2-.6 5 5 0 0 1-1.5-1 1.6 1.6 0 0 1-.6-1.2 3.7 3.7 0 0 1 .1-1 3 3 0 0 1 .4-.9 2.3 2.3 0 0 1 .7-.6 1.6 1.6 0 0 1 .8-.3.7.7 0 0 1 .6.3 6 6 0 0 1 .4.8l.6.9a4 4 0 0 0 .8 1 4.2 4.2 0 0 0 1.2.7 4.5 4.5 0 0 0 1.7.2 5 5 0 0 0 2.4-.5 5.5 5.5 0 0 0 1.8-1.5 9 9 0 0 0 1.2-2.3 16.6 16.6 0 0 0 .8-2.8 26.2 26.2 0 0 0 .4-3l.1-3.3v-22.3H445v-2h5v-3a13.1 13.1 0 0 1 .5-4.1 9.8 9.8 0 0 1 1.5-3 8.6 8.6 0 0 1 2.2-2 12.3 12.3 0 0 1 2.4-1.3 11.6 11.6 0 0 1 2.4-.6 15.4 15.4 0 0 1 2-.1 18 18 0 0 1 3.4.2 10.3 10.3 0 0 1 2.4.8 4.3 4.3 0 0 1 1.5 1 2 2 0 0 1 .5 1.3 3.4 3.4 0 0 1-.1 1 3.5 3.5 0 0 1-.4 1 2.2 2.2 0 0 1-.7.6 1.5 1.5 0 0 1-.9.3.7.7 0 0 1-.5-.4 7 7 0 0 1-.5-.8l-.6-1a5.2 5.2 0 0 0-.8-1 4 4 0 0 0-1-.8 3.4 3.4 0 0 0-1.6-.4zm11 27.4a7.5 7.5 0 0 0 .2 1.9 11 11 0 0 0 .7 2 10.7 10.7 0 0 0 1.2 1.9 9.1 9.1 0 0 0 1.7 1.6 7.8 7.8 0 0 0 2 1.2 6.8 6.8 0 0 0 2.4.4 6.7 6.7 0 0 0 1.7-.2 6.8 6.8 0 0 0 1.5-.6 9.7 9.7 0 0 0 1.4-.9l1.2-1 .7.6a18.3 18.3 0 0 1-1.6 1.8 12.8 12.8 0 0 1-2.3 1.9 13.4 13.4 0 0 1-3.2 1.4 13.7 13.7 0 0 1-4 .6 12.6 12.6 0 0 1-4.6-.9 11.2 11.2 0 0 1-3.9-2.5 12.3 12.3 0 0 1-2.7-4.1 16.9 16.9 0 0 1-.4-10.3 14.3 14.3 0 0 1 1.6-3.6 13.6 13.6 0 0 1 2.5-2.9 15.2 15.2 0 0 1 3-2 14.5 14.5 0 0 1 3-1.2 13 13 0 0 1 6.6 0 7.7 7.7 0 0 1 2.5 1.1 4.8 4.8 0 0 1 1.4 1.7 4.3 4.3 0 0 1 .5 2 3.8 3.8 0 0 1-.7 2.2 6.7 6.7 0 0 1-2 1.7zm5.3-5.4a4.2 4.2 0 0 0 .6-.4 1.5 1.5 0 0 0 .4-.5 2.6 2.6 0 0 0 .2-.7 6.7 6.7 0 0 0 0-1 8.4 8.4 0 0 0-.1-1.5 6 6 0 0 0-.5-1.5 3.8 3.8 0 0 0-.9-1.2 1.8 1.8 0 0 0-1.3-.5 2.5 2.5 0 0 0-1.6.6 4.4 4.4 0 0 0-1.1 1.5 9.2 9.2 0 0 0-.7 2 23.1 23.1 0 0 0-.4 2.4l-.2 2.2v1.8zm21.6-7.9a4.1 4.1 0 0 0-1.2.2 2.6 2.6 0 0 0-1 .5 2.5 2.5 0 0 0-.7 1 3.2 3.2 0 0 0-.2 1.2 3.5 3.5 0 0 0 .8 2 17.9 17.9 0 0 0 1.9 2.2l2.4 2.3a27.1 27.1 0 0 1 2.5 2.5 14.2 14.2 0 0 1 1.8 2.8 7 7 0 0 1 .8 3.2 8.4 8.4 0 0 1-.6 3.4 7 7 0 0 1-1.9 2.5 8.3 8.3 0 0 1-3 1.6 12.6 12.6 0 0 1-3.8.6 10 10 0 0 1-3.3-.6 12 12 0 0 1-2.6-1.3 11.6 11.6 0 0 1-2-1.6 10.7 10.7 0 0 1-1.3-1.5l.9-.7a9 9 0 0 0 .9.9 8.6 8.6 0 0 0 1.2.8 7 7 0 0 0 1.4.7 4.7 4.7 0 0 0 1.5.2 5.1 5.1 0 0 0 3.1-.9 3.2 3.2 0 0 0 1.2-2.7 4 4 0 0 0-.6-2.1 16.4 16.4 0 0 0-1.7-2.2l-2.2-2.4a32 32 0 0 1-2.2-2.5 15 15 0 0 1-1.6-2.7 6.6 6.6 0 0 1-.7-2.9 6 6 0 0 1 .7-2.9 6.2 6.2 0 0 1 1.8-2 8.1 8.1 0 0 1 2.6-1.3 10.9 10.9 0 0 1 3-.4 15.3 15.3 0 0 1 3.3.3 8 8 0 0 1 2.5 1 4.7 4.7 0 0 1 1.6 1.6 4.5 4.5 0 0 1 .6 2.3 2.5 2.5 0 0 1-.7 1.8 2.4 2.4 0 0 1-1.9.7 2.7 2.7 0 0 1-1.7-.5 1.6 1.6 0 0 1-.6-1.3 1.3 1.3 0 0 1 .3-.9 2.5 2.5 0 0 1 .6-.5l.6-.4a.4.4 0 0 0 .3-.3 1.3 1.3 0 0 0-.8-1.2 4.2 4.2 0 0 0-2-.5zm20.2.2v19.6a2.8 2.8 0 0 0 .5 2 2 2 0 0 0 1.5.6 2.1 2.1 0 0 0 1.2-.4 4.7 4.7 0 0 0 1-1 5.6 5.6 0 0 0 .9-1.2l.8.4-1 1.8a7.4 7.4 0 0 1-3.7 3.4 8.8 8.8 0 0 1-3.4.5 7.3 7.3 0 0 1-2.3-.3 5.3 5.3 0 0 1-1.9-1.1 5.5 5.5 0 0 1-1.3-1.9 6.5 6.5 0 0 1-.5-2.6v-19.8h-3v-2a8 8 0 0 0 2-.3 10.4 10.4 0 0 0 2.8-1.3 10.8 10.8 0 0 0 2.6-2.4 9.3 9.3 0 0 0 1.7-3.8h2.1v7.9h4.3q2.1 0 2.1-.8a.4.4 0 0 0-.2-.3l-.6-.3a2 2 0 0 1-.6-.4 1.2 1.2 0 0 1-.3-.8 1.5 1.5 0 0 1 .5-1.2 1.7 1.7 0 0 1 1.2-.4 1.7 1.7 0 0 1 .8.2 1.8 1.8 0 0 1 .6.5 2.4 2.4 0 0 1 .4.7 3.1 3.1 0 0 1 0 .9 3.8 3.8 0 0 1-1 2.7 4.3 4.3 0 0 1-3.1 1zm-390.5 8c.7-1.4 1.5-2.5 3.2-2.5a3.1 3.1 0 0 1 3.3 2.5 3.2 3.2 0 0 1-2 3.7 3.3 3.3 0 0 1-4-1.4l-.4-.9zm5 .7a1.6 1.6 0 0 0-3.3 0 1.6 1.6 0 0 0 3.2 0zm15.9-27.3v11.3h37v3.4h-40.3v-14.7zm37.8 25.3v3.2h-49.7v-3.2zm349.6 23.2v-3.3h40.6v14.7H575v-10c0-1.4 0-1.4-1.4-1.4h-36zm49.3-17.1v3.2h-49.3v-3.2zM562.6 164v20.2h-25v-3.3h21.6v-15.6c0-1.4 0-1.4 1.4-1.4zm-400.2 62.3V206h25v3.3H167c-1.3 0-1.3 0-1.3 1.4v15.5zm-9.2-67.4a5 5 0 0 1-5 5.1 5.1 5.1 0 1 1 0-10.3 5 5 0 0 1 5 5.2zm-5-1.8a1.7 1.7 0 0 0-1.9 1.7 1.7 1.7 0 0 0 1.8 1.8 1.8 1.8 0 0 0 1.8-1.6 1.8 1.8 0 0 0-1.8-1.9zm433.1 76.1a5.1 5.1 0 0 1-10.3 0 5.1 5.1 0 1 1 10.3 0zm-5-1.8a1.8 1.8 0 0 0-1.9 1.7 1.8 1.8 0 0 0 1.7 1.9 1.9 1.9 0 0 0 1.9-1.8 1.9 1.9 0 0 0-1.8-1.8zm19.3-37a3.4 3.4 0 1 1-3.5 3.5 3.4 3.4 0 0 1 3.5-3.5zm-435 39.3a3.3 3.3 0 0 1 3.4-3.4 3.4 3.4 0 1 1 0 6.8 3.3 3.3 0 0 1-3.4-3.4zm400.7-72.4a3.2 3.2 0 1 1 3.2-3.1 3.2 3.2 0 0 1-3.2 3.1zm0-1.6a1.6 1.6 0 1 0 0-3.2 1.6 1.6 0 0 0-1.6 1.7 1.6 1.6 0 0 0 1.6 1.5zM227 102.5h3.4l-8.2 24.4h-3.5l-6.4-20.1-6.4 20.1h-3.4l-8.3-24.4h3.6l6.5 20.9 6.4-20.9h3.4l6.4 20.9zm18.9 8.4a10.4 10.4 0 0 1 2.2 7v1h-14.7a6.3 6.3 0 0 0 2.1 4 6.2 6.2 0 0 0 4.2 1.4 7.8 7.8 0 0 0 3-.6 7.3 7.3 0 0 0 2.5-1.6l1.8 1.9a9.3 9.3 0 0 1-3.3 2.3 11 11 0 0 1-4.2.8 9.8 9.8 0 0 1-4.9-1.2 8.2 8.2 0 0 1-3.3-3.3 10.6 10.6 0 0 1 0-9.7 8.5 8.5 0 0 1 3.3-3.3 9.4 9.4 0 0 1 4.8-1.2q4.3 0 6.5 2.5zm-.8 5.6a5.3 5.3 0 0 0-5.7-5.4 5.8 5.8 0 0 0-4 1.4 6.2 6.2 0 0 0-2 4zM273 127v-2.6q-2.1 2.7-6.5 2.7a7.4 7.4 0 0 1-3.4-.7 5.4 5.4 0 0 1-2.2-2 5.5 5.5 0 0 1-.8-3 4.7 4.7 0 0 1 1.8-3.9 8.2 8.2 0 0 1 5.1-1.5h5.9v-.9a3.8 3.8 0 0 0-1.2-3 5.1 5.1 0 0 0-3.5-1 10 10 0 0 0-5.7 2l-1.4-2.3a17 17 0 0 1 3.7-1.8 12.6 12.6 0 0 1 4-.6 7.7 7.7 0 0 1 5.3 1.7 6.1 6.1 0 0 1 2 4.7V127zm-2-3.7a4.3 4.3 0 0 0 1.9-3v-1.8h-5.4a6.3 6.3 0 0 0-3.3.7 2.3 2.3 0 0 0-1 2 2.7 2.7 0 0 0 1 2.4 4.6 4.6 0 0 0 3 .8 6.6 6.6 0 0 0 3.8-1.1zm16.8-13.9a7.7 7.7 0 0 1 4-1v3.1a6 6 0 0 0-6.6 5.7v9.7h-3.3v-18.4h3.3v4a6.7 6.7 0 0 1 2.6-3zm21.4 1.5a10.4 10.4 0 0 1 2.2 7v1h-14.7a6.3 6.3 0 0 0 2.1 4 6.2 6.2 0 0 0 4.2 1.5 7.8 7.8 0 0 0 3-.6 7.3 7.3 0 0 0 2.5-1.7l1.8 1.9a9.3 9.3 0 0 1-3.3 2.2 11 11 0 0 1-4.2.8 9.8 9.8 0 0 1-4.9-1.1 8.2 8.2 0 0 1-3.3-3.3 10.6 10.6 0 0 1 0-9.7 8.5 8.5 0 0 1 3.3-3.3 9.4 9.4 0 0 1 4.8-1.2q4.3 0 6.5 2.5zm-.8 5.6a5.3 5.3 0 0 0-5.7-5.4 5.8 5.8 0 0 0-4 1.4 6.2 6.2 0 0 0-2 4zm24.2-5.2a6.4 6.4 0 0 0-3.2.8 5.7 5.7 0 0 0-2.2 2.2 7 7 0 0 0-.8 3.4 7 7 0 0 0 .8 3.4 5.8 5.8 0 0 0 2.1 2.3 6 6 0 0 0 3.2.8 8.3 8.3 0 0 0 3.2-.6 6.1 6.1 0 0 0 2.4-1.7l1.8 2a8.2 8.2 0 0 1-3.2 2.3 11 11 0 0 1-4.3.9 9.5 9.5 0 0 1-4.8-1.2 8.4 8.4 0 0 1-3.3-3.3 9.8 9.8 0 0 1-1.2-4.9 10 10 0 0 1 1.2-4.8 8.4 8.4 0 0 1 3.3-3.3 9.5 9.5 0 0 1 4.8-1.2 11.7 11.7 0 0 1 4.2.7 8.2 8.2 0 0 1 3 2l-1.7 2.3a7.3 7.3 0 0 0-5.3-2.1zm25.1-.4a10.4 10.4 0 0 1 2.2 7v1h-14.7a6.3 6.3 0 0 0 2.1 4 6.2 6.2 0 0 0 4.2 1.4 7.8 7.8 0 0 0 3-.6 7.3 7.3 0 0 0 2.5-1.6l1.8 1.8a9.3 9.3 0 0 1-3.3 2.3 11 11 0 0 1-4.3.8 9.8 9.8 0 0 1-4.8-1.2 8.2 8.2 0 0 1-3.3-3.3 10.6 10.6 0 0 1 0-9.7 8.5 8.5 0 0 1 3.3-3.3 9.4 9.4 0 0 1 4.8-1.2q4.3 0 6.5 2.6zm-.8 5.6a5.3 5.3 0 0 0-5.7-5.4 5.8 5.8 0 0 0-4 1.4 6.2 6.2 0 0 0-2 4zm7.6-15.5h3.2v26h-3.2zm23.6 9.9a10.4 10.4 0 0 1 2.2 7v1h-14.6a6.3 6.3 0 0 0 2 4 6.2 6.2 0 0 0 4.3 1.5 7.8 7.8 0 0 0 3-.6 7.3 7.3 0 0 0 2.5-1.7l1.8 1.9a9.3 9.3 0 0 1-3.3 2.2 11 11 0 0 1-4.3.8 9.8 9.8 0 0 1-4.8-1.1 8.2 8.2 0 0 1-3.3-3.3 10.6 10.6 0 0 1 0-9.7 8.5 8.5 0 0 1 3.3-3.3 9.4 9.4 0 0 1 4.8-1.2q4.2 0 6.4 2.5zm-.7 5.6a5.3 5.3 0 0 0-5.7-5.4 5.8 5.8 0 0 0-4 1.4 6.2 6.2 0 0 0-2 4zm22.2-6.9a8.2 8.2 0 0 1 3.2 3.3 11.2 11.2 0 0 1 0 9.7 8 8 0 0 1-3.1 3.3 9 9 0 0 1-4.6 1.1 8.4 8.4 0 0 1-4.1-1 7 7 0 0 1-2.8-2.7v3.6H395V101h3.3v11.1a7 7 0 0 1 2.7-2.8 8.3 8.3 0 0 1 4.1-1 9 9 0 0 1 4.5 1.3zm-2 13.8a5.8 5.8 0 0 0 2.2-2.4 7.2 7.2 0 0 0 .8-3.3 7 7 0 0 0-.8-3.4 6 6 0 0 0-2.2-2.3 6 6 0 0 0-3.1-.9 6.2 6.2 0 0 0-3.2.9 5.9 5.9 0 0 0-2.3 2.3 7.5 7.5 0 0 0 0 6.8 5.9 5.9 0 0 0 2.2 2.3 6.5 6.5 0 0 0 6.4 0zm16.7-14a7.7 7.7 0 0 1 4-1v3.1a6 6 0 0 0-6.6 5.7v9.7h-3.2v-18.4h3.2v4a6.7 6.7 0 0 1 2.6-3zm18 17.6v-2.6q-2.1 2.7-6.5 2.7a7.4 7.4 0 0 1-3.4-.7 5.4 5.4 0 0 1-2.2-2 5.5 5.5 0 0 1-.8-3 4.7 4.7 0 0 1 1.8-3.9 8.2 8.2 0 0 1 5.1-1.5h6v-.8a3.8 3.8 0 0 0-1.3-3 5.1 5.1 0 0 0-3.5-1 10 10 0 0 0-5.7 2l-1.3-2.3a16.9 16.9 0 0 1 3.6-1.9 12.6 12.6 0 0 1 4-.6 7.7 7.7 0 0 1 5.4 1.7 6.1 6.1 0 0 1 1.9 4.7V127zm-2-3.7a4.3 4.3 0 0 0 2-3v-1.8h-5.5a6.3 6.3 0 0 0-3.3.7 2.3 2.3 0 0 0-1 2 2.7 2.7 0 0 0 1 2.3 4.6 4.6 0 0 0 3 .9 6.6 6.6 0 0 0 3.8-1.1zm20.9 2.4a8 8 0 0 1-4.3 1.4 5 5 0 0 1-3.6-1.3 5.3 5.3 0 0 1-1.4-4v-10.2h-2.6V109h2.6v-5h3.3v5h5.7v2.5h-5.7v9.6a3.4 3.4 0 0 0 .6 2.2 2 2 0 0 0 1.7.7 5.8 5.8 0 0 0 2.8-.9zm7-24a2.2 2.2 0 0 1 0 3 2 2 0 0 1-3 0 2.2 2.2 0 0 1 0-3 2 2 0 0 1 3 0zm-3 6.8h3.2v18.4H465zm24.8 1.8a7.2 7.2 0 0 1 2 5.2V127h-3.3v-10.5a4.5 4.5 0 0 0-5-5 5.6 5.6 0 0 0-4 1.6 6.2 6.2 0 0 0-1.7 4v9.9h-3.3v-18.4h3.3v3.9q1.8-4 7-4a6.8 6.8 0 0 1 5 1.9zm24-1.8V125a9 9 0 0 1-1.2 4.6 7.8 7.8 0 0 1-3.3 3 11 11 0 0 1-5 1.1 12.6 12.6 0 0 1-7.6-2.6l1.5-2.3a9.8 9.8 0 0 0 2.8 1.6 9.2 9.2 0 0 0 3.2.6 6.4 6.4 0 0 0 4.6-1.6 5.6 5.6 0 0 0 1.7-4.3v-2.6a6.9 6.9 0 0 1-2.7 2.6 7.8 7.8 0 0 1-3.8 1 8.4 8.4 0 0 1-4.4-1.2 7.7 7.7 0 0 1-3-3.2 10 10 0 0 1-1-4.6 9.7 9.7 0 0 1 1-4.6 7.7 7.7 0 0 1 3-3 8.5 8.5 0 0 1 4.4-1.2 8 8 0 0 1 3.8.9 6.8 6.8 0 0 1 2.7 2.6v-3.4zm-6.1 14.2a5.6 5.6 0 0 0 2-2.2 6.7 6.7 0 0 0 .8-3.2 6.8 6.8 0 0 0-.7-3.3 5.6 5.6 0 0 0-2-2.2 5.8 5.8 0 0 0-3-.8 5.8 5.8 0 0 0-3.1.8 5.7 5.7 0 0 0-2.1 2.2 6.7 6.7 0 0 0-.8 3.2 6.4 6.4 0 0 0 1.7 4.5 5.6 5.6 0 0 0 4.2 1.8 5.8 5.8 0 0 0 3-.8z"/></svg>