<svg id="Layer_1" data-name="Layer 1" xmlns="http://www.w3.org/2000/svg" xmlns:xlink="http://www.w3.org/1999/xlink" viewBox="0 0 162 162"><defs><style>.cls-1{fill:url(#linear-gradient)}.cls-2{fill:url(#linear-gradient-2)}.cls-3{fill:url(#linear-gradient-3)}.cls-4{fill:url(#linear-gradient-4)}.cls-5{fill:url(#linear-gradient-5)}.cls-6{fill:url(#linear-gradient-6)}.cls-7{fill:url(#linear-gradient-7)}.cls-8{fill:url(#linear-gradient-8)}.cls-9{fill:url(#linear-gradient-9)}.cls-10{fill:url(#linear-gradient-10)}.cls-11{fill:url(#linear-gradient-11)}.cls-12{fill:url(#linear-gradient-12)}.cls-13{fill:url(#linear-gradient-13)}.cls-14{fill:url(#linear-gradient-14)}.cls-15{fill:url(#linear-gradient-15)}.cls-16{fill:url(#linear-gradient-16)}</style><linearGradient id="linear-gradient" x1="91.8" y1="70.4" x2="127.6" y2="70.4" gradientUnits="userSpaceOnUse"><stop offset="0" stop-color="#f1712e"/><stop offset=".1" stop-color="#ef642c"/><stop offset=".2" stop-color="#ed5c2a"/><stop offset=".4" stop-color="#ed592a"/><stop offset=".5" stop-color="#e55328"/><stop offset=".7" stop-color="#ce4422"/><stop offset="1" stop-color="#a92c19"/></linearGradient><linearGradient id="linear-gradient-2" x1="91.8" y1="80" x2="127.5" y2="80" xlink:href="#linear-gradient"/><linearGradient id="linear-gradient-3" x1="91.8" y1="60.8" x2="127.6" y2="60.8" xlink:href="#linear-gradient"/><linearGradient id="linear-gradient-4" x1="91.8" y1="52.1" x2="127.6" y2="52.1" xlink:href="#linear-gradient"/><linearGradient id="linear-gradient-5" x1="91.8" y1="115.6" x2="127.6" y2="115.6" xlink:href="#linear-gradient"/><linearGradient id="linear-gradient-6" x1="91.8" y1="125.2" x2="127.5" y2="125.2" xlink:href="#linear-gradient"/><linearGradient id="linear-gradient-7" x1="91.8" y1="106" x2="127.6" y2="106" xlink:href="#linear-gradient"/><linearGradient id="linear-gradient-8" x1="91.8" y1="97.3" x2="127.6" y2="97.3" xlink:href="#linear-gradient"/><linearGradient id="linear-gradient-9" x1="46.9" y1="115.6" x2="82.7" y2="115.6" xlink:href="#linear-gradient"/><linearGradient id="linear-gradient-10" x1="46.9" y1="125.2" x2="82.6" y2="125.2" xlink:href="#linear-gradient"/><linearGradient id="linear-gradient-11" x1="46.9" y1="106" x2="82.7" y2="106" xlink:href="#linear-gradient"/><linearGradient id="linear-gradient-12" x1="46.9" y1="97.3" x2="82.7" y2="97.3" xlink:href="#linear-gradient"/><linearGradient id="linear-gradient-13" x1="153.1" y1="86.8" x2="18.9" y2="86.8" gradientUnits="userSpaceOnUse"><stop offset=".6" stop-color="#a92c19"/><stop offset=".8" stop-color="#a92c19"/></linearGradient><linearGradient id="linear-gradient-14" x1="152.2" y1="84" x2="15.7" y2="84" gradientTransform="rotate(.1 -561.7 1652.6)" gradientUnits="userSpaceOnUse"><stop offset="0" stop-color="#f1712e"/><stop offset=".2" stop-color="#ef632c"/><stop offset=".3" stop-color="#ed592a"/><stop offset=".4" stop-color="#ed592a"/><stop offset="1" stop-color="#ed592a"/></linearGradient><linearGradient id="linear-gradient-15" x1="879.7" y1="712.1" x2="913.3" y2="712.1" gradientTransform="matrix(.73 -.73 .72 .72 -1127.4 186.3)" xlink:href="#linear-gradient-13"/><linearGradient id="linear-gradient-16" x1="931.9" y1="701.4" x2="965.5" y2="701.4" gradientTransform="rotate(-45 -300.5 1469.2)" gradientUnits="userSpaceOnUse"><stop offset="0" stop-color="#f1712e"/><stop offset=".1" stop-color="#ef642c"/><stop offset=".2" stop-color="#ed5c2a"/><stop offset=".4" stop-color="#ed592a"/><stop offset=".5" stop-color="#e75528"/><stop offset=".7" stop-color="#d64a24"/><stop offset=".9" stop-color="#b9371d"/><stop offset="1" stop-color="#a92c19"/></linearGradient></defs><title>logo open</title><path class="cls-1" d="M91.9 64.1a45.3 45.3 0 0 0 35.6 0 46.6 46.6 0 0 1 0 7 4 4 0 0 1-2.4 2.7 51.7 51.7 0 0 1-10.1 2.5 47.7 47.7 0 0 1-17.3-1.1 22.7 22.7 0 0 1-3.1-1.2c-2-.8-3-2-2.8-4.3a53.2 53.2 0 0 0 0-5.6z"/><path class="cls-2" d="M91.9 73.8a45 45 0 0 0 35.6 0c0 2.4.1 5-.1 7.5 0 .7-1 1.6-1.8 1.8a43.4 43.4 0 0 1-8 2.5 50.4 50.4 0 0 1-19.6-.7 22.5 22.5 0 0 1-3.1-1.1c-2.2-.9-3.4-2.2-3-4.7a45.1 45.1 0 0 0 0-5.3z"/><path class="cls-3" d="M91.9 54.5a45.6 45.6 0 0 0 35.6 0 47.8 47.8 0 0 1-.1 7.4c-.2 1-1.6 2.1-2.7 2.5a46.4 46.4 0 0 1-9.4 2.2 48.4 48.4 0 0 1-17.2-1 32.5 32.5 0 0 1-3.2-1c-2.1-.8-3.3-2.2-3-4.7a48.2 48.2 0 0 0 0-5.4z"/><path class="cls-4" d="M108.4 57.5l-11.8-2a9.3 9.3 0 0 1-3.3-1.5c-2-1.3-2-3 .1-4a35.5 35.5 0 0 1 8.7-2.7 48.3 48.3 0 0 1 18.9.7 19.5 19.5 0 0 1 4.8 2c2.3 1.2 2.4 3 0 4.1a31.7 31.7 0 0 1-7.6 2.6c-2.8.5-5.7.5-9.8.8z"/><path class="cls-5" d="M91.9 109.3a45.3 45.3 0 0 0 35.6 0 46.6 46.6 0 0 1 0 7 4 4 0 0 1-2.4 2.7 51.7 51.7 0 0 1-10.1 2.5 47.7 47.7 0 0 1-17.3-1.1 22.7 22.7 0 0 1-3.1-1.1c-2-.8-3-2.1-2.7-4.3a53.2 53.2 0 0 0 0-5.7z"/><path class="cls-6" d="M91.9 119a45 45 0 0 0 35.6 0c0 2.4.1 5-.1 7.5 0 .7-1 1.6-1.8 1.9a43.4 43.4 0 0 1-8 2.4 50.4 50.4 0 0 1-19.6-.7 22.5 22.5 0 0 1-3-1.1c-2.2-.8-3.5-2.2-3.2-4.7a45.1 45.1 0 0 0 0-5.3z"/><path class="cls-7" d="M91.9 99.8a45.6 45.6 0 0 0 35.6 0 47.8 47.8 0 0 1-.1 7.3c-.2 1-1.6 2.1-2.7 2.5a46.4 46.4 0 0 1-9.4 2.2 48.4 48.4 0 0 1-17.2-1 32.5 32.5 0 0 1-3.2-1c-2.1-.8-3.3-2.2-3-4.7a48.2 48.2 0 0 0 0-5.3z"/><path class="cls-8" d="M108.4 102.8l-11.8-2a9.3 9.3 0 0 1-3.3-1.6c-2-1.3-2-3 .1-4a35.5 35.5 0 0 1 8.6-2.7 48.3 48.3 0 0 1 19 .7 19.5 19.5 0 0 1 4.9 2c2.2 1.2 2.3 3 0 4.1a31.7 31.7 0 0 1-7.7 2.6c-2.8.5-5.7.5-9.8.9z"/><path class="cls-9" d="M47 109.3a45.3 45.3 0 0 0 35.7 0 46.6 46.6 0 0 1-.2 7 4 4 0 0 1-2.3 2.7 51.7 51.7 0 0 1-10.2 2.5 47.7 47.7 0 0 1-17.3-1.1 22.7 22.7 0 0 1-3-1.2c-2-.8-3-2-2.8-4.3a53.2 53.2 0 0 0 .1-5.6z"/><path class="cls-10" d="M47 119a45 45 0 0 0 35.6 0v7.5c-.1.7-1 1.6-1.9 1.9a43.4 43.4 0 0 1-8 2.4 50.4 50.4 0 0 1-19.6-.7A22.5 22.5 0 0 1 50 129c-2.1-.8-3.4-2.2-3-4.7a45.1 45.1 0 0 0 0-5.3z"/><path class="cls-11" d="M47 99.8a45.6 45.6 0 0 0 35.6 0 47.8 47.8 0 0 1-.1 7.3c-.1 1-1.6 2.1-2.7 2.5a46.4 46.4 0 0 1-9.4 2.2 48.4 48.4 0 0 1-17.2-1 32.5 32.5 0 0 1-3.2-1c-2.2-.9-3.4-2.2-3-4.7a48.2 48.2 0 0 0 0-5.3z"/><path class="cls-12" d="M63.5 102.8l-11.8-2a9.3 9.3 0 0 1-3.3-1.6c-2-1.3-2-3 .1-4a35.5 35.5 0 0 1 8.6-2.7 48.3 48.3 0 0 1 19 .7 19.5 19.5 0 0 1 4.9 1.9c2.2 1.2 2.3 3 0 4.2a31.7 31.7 0 0 1-7.7 2.5c-2.8.6-5.6.6-9.8 1z"/><path class="cls-13" d="M153 63v-9.5A30.4 30.4 0 0 0 130.4 24a26.2 26.2 0 0 0-7.2-1l-77.5-3.1-1.3 2.2a25 25 0 0 0 23 17.7h48.9c14.3 0 19.1 6.3 19.7 23.2l.3 55v1c0 14.2-7 19-20.7 19h-.2l-59.4.1h-1c-13.7 0-18.5-6.3-18.7-19.3V68.4c0-10.1-6.8-19.3-17.3-23v78.2a30.2 30.2 0 0 0 16 27 28.7 28.7 0 0 0 13.4 3.3h74.8a30.2 30.2 0 0 0 24-11.3 25.9 25.9 0 0 0 5-10.3 28.4 28.4 0 0 0 .9-6.9l-.1.3V63z"/><path class="cls-14" d="M155.5 60.1v-9.5a30.5 30.5 0 0 0-23-29.5 27.1 27.1 0 0 0-7.3-1l-79.9-.2c3.8 10.7 13 17.8 23.1 17.8h49.7c14.5 0 20 7.8 20 22.4l.2 55v1c0 14.1-7.1 19-21.1 19h-.2l-60.5-.1h-1c-14 0-18.8-6.3-19-19.3l.2-50.4c0-10.2-7-19.4-17.7-23.2l-.1 78.3a30.1 30.1 0 0 0 16.3 27 29.6 29.6 0 0 0 13.6 3.3h4l64.1.2h8a31 31 0 0 0 24.5-11.3 25.7 25.7 0 0 0 5.1-10.3 28 28 0 0 0 .8-6.8v.2-62.6z"/><path class="cls-15" d="M26.5 15.4l6-6-12.8-.6-13-.6.7 12.9L8 34l6-6.1 41.1 41-6 6.1 12.8.6 13 .6-.7-12.9-.6-12.9-6 6.1-41.1-41z"/><path class="cls-16" d="M25.7 16.8l5.9-5.9-12.6-.7-12.5-.6.7 12.5.6 12.6 6-5.9L54 69.2l-5.9 5.9 12.6.7 12.5.7-.6-12.6-.7-12.6-5.9 5.9-40.4-40.4z"/></svg>