<svg id="Layer_1" data-name="Layer 1" xmlns="http://www.w3.org/2000/svg" viewBox="0 0 95 65"><defs><style>.cls-1{fill:none;stroke:#f04f23;stroke-miterlimit:10;stroke-width:2.7px}</style></defs><title>career icon send</title><path class="cls-1" d="M1.9 43.5c.3-11.9 3-23 10-32.8a18 18 0 0 1 23.5-6c2.7 1.3 5.2 3.2 8 3.9 4.1.9 8.3.8 12.1-1.8C61.5 3 68 1.2 75 4c5.2 2 8.3 6.3 11 11 6 11.1 7.8 23 6.5 35.5a30.7 30.7 0 0 1-1.8 7.8c-1.6 4.2-6.4 5.9-10 3.2a85.2 85.2 0 0 1-12-11 11.7 11.7 0 0 0-9.8-4.3c-7.8.2-15.6.2-23.4 0a10.5 10.5 0 0 0-8.7 4A118.4 118.4 0 0 1 16.6 60C11 65 4.2 62.7 3 54.6c-.5-3.7-.8-7.4-1.1-11zm22-30v2.9c0 3.7 0 3.7-3.8 3.8-3.1 0-3.1 0-3.1 3 0 4.9 0 5 4.7 4.9 1.6 0 2.2.3 2.2 2 0 4.9 0 5 5 4.8h.2c2 .3 2.5-.6 2.5-2.5-.1-4.3 0-4.4 4.2-4.3 2 0 2.7-.5 2.7-2.6-.1-5.1 0-5.2-5.2-5.3-1.5 0-1.9-.6-1.8-2v-4.8h-7.7zm53.6 6.2a5 5 0 0 0-5.1 5.1 5.3 5.3 0 0 0 5 5.3 5.5 5.5 0 0 0 5.4-5.3 5.3 5.3 0 0 0-5.3-5.1zm-12.3-7.4a5.3 5.3 0 0 0-5.2 5.2 5.4 5.4 0 0 0 5.3 5.3 5.5 5.5 0 0 0 5.1-5.4 5.2 5.2 0 0 0-5.2-5zM60 32a5.2 5.2 0 0 0 10.4-.1 5.4 5.4 0 0 0-5-5.2A5.3 5.3 0 0 0 60 32z"/></svg>