<svg id="Layer_1" xmlns="http://www.w3.org/2000/svg" viewBox="-575 33 48 48"><style>.st0{fill:#66637a}</style><title>repos</title><g id="Page-1"><g id="repos"><path id="Shape" class="st0" d="M-556.5 61.8h-2.8V59h2.8v2.8zm0-8.3h-2.8v2.8h2.8v-2.8zm0-5.5h-2.8v2.8h2.8V48zm0-5.5h-2.8v2.8h2.8v-2.8zm22-2.7v33c0 1.5-1.2 2.8-2.8 2.8h-13.8V81l-4.1-4.1-4.1 4.1v-5.5h-5.5a2.8 2.8 0 0 1-2.8-2.8v-33c0-1.5 1.2-2.8 2.8-2.8h27.5c1.6.1 2.8 1.3 2.8 2.9zm-2.8 27.4h-27.5v5.5h5.5V70h8.2v2.8h13.8v-5.6zm0-27.4h-24.8v24.8h24.8V39.8z"/></g></g></svg>