<svg id="Layer_1" data-name="Layer 1" xmlns="http://www.w3.org/2000/svg" viewBox="0 0 1350 667"><defs><style>.cls-1,.cls-17{fill:none}.cls-2{fill:#273274}.cls-3{clip-path:url(#clip-path)}.cls-4{opacity:.8}.cls-5{clip-path:url(#clip-path-2)}.cls-14,.cls-6,.cls-7,.cls-8{fill:#ff544e}.cls-10,.cls-11,.cls-12,.cls-14,.cls-15,.cls-16,.cls-7,.cls-8{stroke:#273274}.cls-10,.cls-11,.cls-12,.cls-14,.cls-15,.cls-16,.cls-17,.cls-7,.cls-8{stroke-miterlimit:10}.cls-16,.cls-7{stroke-width:3px}.cls-11,.cls-15,.cls-8{stroke-width:2px}.cls-10,.cls-11,.cls-16,.cls-9{fill:#f7f7f7}.cls-10,.cls-12{stroke-width:4px}.cls-12,.cls-13,.cls-15{fill:#ff8c58}.cls-14{stroke-width:5px}.cls-17{stroke:#fff;stroke-width:19px}.cls-18{fill:#fff}</style><clipPath id="clip-path"><circle class="cls-1" cx="675" cy="403.8" r="168.9"/></clipPath><clipPath id="clip-path-2"><path class="cls-1" d="M278.7 313.6h966.5v262.8H278.7z"/></clipPath></defs><title>top image</title><path class="cls-2" d="M0 0h1350v667H0z"/><g class="cls-3"><g class="cls-4"><g class="cls-5"><circle class="cls-2" cx="1288" cy="413.7" r="3.3"/><path class="cls-6" d="M1158.3 496.1v-34.3a4.8 4.8 0 0 0-1-3l-8.9-12.7c-.6-.8-1.8-2.1-.9-3s2.1.5 3 1.2l7.8 7.5c0-5.2-.2-10 0-14.7s.6-9.5 2.5-14a5 5 0 0 1 1.5 3.4c1.2 7.8 1.4 15.7 1.7 23.6.8 22.7 1.2 45.5 1.6 68.3l.3 11.8c0 1.2.3 1.5 1.5 1.1a45.9 45.9 0 0 0 15.5-9.6 60.3 60.3 0 0 0 20.3-34.1c2-10.1.7-20-2.2-29.7a88.4 88.4 0 0 0-22.8-38.7 50.8 50.8 0 0 0-6.3-5.1 16.4 16.4 0 0 0-17.3-1.7 78 78 0 0 0-29.1 23.3c-6.5 8-11.4 17-13.3 27.3-2.3 12.3.2 24 6.1 34.8a69 69 0 0 0 34.3 32l3.9 1.3c1.3.4 1.7.1 1.7-1.3v-22a3.7 3.7 0 0 0-1-2.5c-5.8-7-11.7-13.7-17-21a28.8 28.8 0 0 1-3.9-7.4c-.2-.5-.8-1.3 0-1.8.6-.4 1.2.2 1.6.6l4.8 4.1c5.3 5.1 10.2 10.8 15.6 16.3z"/><circle class="cls-7" cx="1131.7" cy="471.4" r="3.4"/><circle class="cls-8" cx="1142.9" cy="439.2" r="2.9"/><path class="cls-6" d="M1161.4 589.3h-3a6.6 6.6 0 0 0-.7-1.3l.1-8.6a1.8 1.8 0 0 0 .7-1.1c0-.8-.5-1.5-.7-2.3l.2-1a3 3 0 0 0-.5-3.1h.4v-17.6a1.7 1.7 0 0 0 .1-2c.1-.2-.2-.6-.3-.8a4.3 4.3 0 0 1 0-.7l.2-.4a1.2 1.2 0 0 0 0-1.3c.3-5-1.2-9.8 4-14.5 2.2.5 2.2 1.2 2.5 1.8 2 3.9 2.4 7.8 2.8 11.8a837 837 0 0 1 2.7 35c0 2 .5 4 .4 6a1 1 0 0 0 0 .2h-9z"/><circle class="cls-2" cx="1201.8" cy="534.1" r="3.2"/><path class="cls-9" d="M1066.9 482.3V435a6.6 6.6 0 0 0-1.4-4.1 815 815 0 0 1-12.3-17.5c-.8-1.2-2.5-3-1.2-4.1s2.9.7 4 1.7l11 10c0-7.1-.3-13.7 0-20.3s.8-13 3.4-19.3c1.7 1.4 1.8 3.2 2 4.8 1.7 10.7 2 21.6 2.4 32.4 1 31.4 1.6 62.9 2.3 94.3 0 5.4.3 10.8.4 16.3 0 1.6.3 2 2 1.5a64 64 0 0 0 21.4-13.2 83.2 83.2 0 0 0 28-47.1 85 85 0 0 0-3-41 122 122 0 0 0-31.4-53.3 70 70 0 0 0-8.8-7 22.3 22.3 0 0 0-23.8-2.4 107.4 107.4 0 0 0-40.2 32 84.5 84.5 0 0 0-18.3 37.8c-3.2 17 .3 33 8.5 47.9a95 95 0 0 0 47.2 44c1.8.8 3.6 1.3 5.3 1.9 1.6.5 2.4.2 2.4-1.7l.1-30.4a5 5 0 0 0-1.5-3.4c-7.9-9.7-16.1-19-23.5-29a39.7 39.7 0 0 1-5.3-10.2c-.2-.7-1.1-1.8 0-2.5.8-.5 1.6.3 2.2.8 2.2 1.9 4.5 3.7 6.5 5.7 7.5 7.2 14.1 15 21.7 22.6z"/><circle class="cls-10" cx="1043.5" cy="404.3" r="4.7"/><path class="cls-9" d="M1071 610.8l-4 .1a9.2 9.2 0 0 0-1-2v-11.7a2.5 2.5 0 0 0 1-1.6c0-1-.7-2.1-1-3.2.1.4.2-1 .2-1.3.4-1.4.6-2.9-.6-4.3h.6v-24.1a2.3 2.3 0 0 0 .2-2.9c.2-.3-.3-.8-.4-1.1a6 6 0 0 1-.1-1c.3-.3.4-.5.3-.6a1.6 1.6 0 0 0-.1-1.7c.6-6.8-1.6-13.5 5.5-20 3.2.7 3.1 1.6 3.6 2.5 2.7 5.4 3.2 10.8 3.8 16.3 1.7 16 2.7 32.2 3.7 48.3.1 2.8.6 5.6.6 8.3a1.3 1.3 0 0 0 0 .2l-12.3-.2z"/><circle class="cls-11" cx="1031.8" cy="447.8" r="3.8"/><path class="cls-6" d="M937.3 434v-42.7a6 6 0 0 1 1.2-3.8 783 783 0 0 0 11.2-15.7c.7-1 2.2-2.7 1-3.7s-2.5.6-3.5 1.5c-3.2 2.8-6.3 5.8-9.9 9.2 0-6.4.3-12.4 0-18.3s-.7-11.8-3-17.5c-1.6 1.3-1.7 2.9-1.9 4.4-1.5 9.7-1.8 19.5-2.1 29.3a4839 4839 0 0 0-2 85.1l-.4 14.7c0 1.5-.3 2-1.9 1.4a57.3 57.3 0 0 1-19.3-11.9 75 75 0 0 1-25.3-42.6 77.5 77.5 0 0 1 2.8-37 110.2 110.2 0 0 1 28.4-48.1 63.3 63.3 0 0 1 7.9-6.4 20.5 20.5 0 0 1 21.5-2.1 96.8 96.8 0 0 1 36.3 29 76.5 76.5 0 0 1 16.6 34 64 64 0 0 1-7.7 43.4 85.7 85.7 0 0 1-42.7 39.8l-4.8 1.6c-1.4.5-2.1.2-2.1-1.5l-.1-27.4a4.6 4.6 0 0 1 1.3-3.1c7.1-8.8 14.6-17.2 21.3-26.3a35.9 35.9 0 0 0 4.7-9.1c.3-.7 1-1.7 0-2.3-.7-.5-1.4.3-2 .7l-5.9 5.2c-6.7 6.4-12.8 13.4-19.6 20.3z"/><circle class="cls-2" cx="958.4" cy="363.7" r="4.2"/><path class="cls-6" d="M933.6 601.7h3.5a19.9 19.9 0 0 1 1-3V580a5.2 5.2 0 0 1-1-2.5c0-1.7.7-3.4 1-5-.1.5-.2-1.8-.2-2.2-.4-2.2-.6-4.5.6-6.7h-.6v-38.4a6 6 0 0 1-.2-4.5v-.1c-.1-.5.3-1.2.4-1.7v-1.6c-.2-.6-.3-.8-.2-.9a4.3 4.3 0 0 1 0-2.8c-.4-10.8 1.5-21.3-4.8-31.7-3 1-3 2.6-3.3 4-2.5 8.5-3 17.1-3.5 25.8-1.5 25.5-2.4 51-3.3 76.6-.1 4.4-.6 8.8-.6 13.2v.3c3.7-.2 7.4-.3 11.2-.2zm-435.7-54.5V518a4 4 0 0 1 .8-2.5l7.6-10.8c.5-.7 1.6-1.8.7-2.5s-1.7.4-2.4 1l-6.7 6.3V497c-.1-4-.4-8-2.1-12a4.3 4.3 0 0 0-1.3 3 162.2 162.2 0 0 0-1.5 20c-.7 19.4-1 38.8-1.4 58.2 0 3.4-.2 6.7-.3 10 0 1-.2 1.3-1.2 1a39 39 0 0 1-13.2-8.2 51.4 51.4 0 0 1-17.3-29c-1.7-8.7-.6-17 1.9-25.4a75.4 75.4 0 0 1 19.4-33 43.3 43.3 0 0 1 5.4-4.3A14 14 0 0 1 501 476a66.6 66.6 0 0 1 36.1 43.1c2 10.5-.2 20.4-5.2 29.6a58.7 58.7 0 0 1-29.2 27.2c-1 .5-2.2.8-3.3 1.1s-1.4.2-1.4-1l-.1-18.7a3.1 3.1 0 0 1 1-2.1c4.8-6 10-11.7 14.4-18a24.5 24.5 0 0 0 3.3-6.2c.2-.5.7-1.2 0-1.6-.5-.3-1 .2-1.4.5l-4 3.5c-4.6 4.4-8.7 9.3-13.3 14z"/><circle class="cls-2" cx="512.3" cy="499.1" r="2.9"/><path class="cls-6" d="M495.3 626.6h2.4a5.7 5.7 0 0 1 .7-1.2v-7.2a1.6 1.6 0 0 1-.7-1c0-.7.5-1.4.7-2-.1.2-.2-.7-.2-.9a2.6 2.6 0 0 1 .4-2.6h-.4v-14.9a1.4 1.4 0 0 1 0-1.8c-.2-.1.1-.5.2-.6a3.7 3.7 0 0 0 0-.7l-.2-.3a1 1 0 0 1 .1-1c-.3-4.3 1-8.4-3.4-12.4-2 .4-2 1-2.2 1.5-1.7 3.3-2 6.7-2.4 10-1 10-1.6 20-2.2 30-.1 1.6-.4 3.3-.4 5a.8.8 0 0 1 0 .2h7.6z"/><path class="cls-9" d="M380.4 532.2v-21a3 3 0 0 1 .7-1.9 372 372 0 0 0 5.4-7.7c.4-.5 1.1-1.3.5-1.8s-1.2.3-1.7.7l-4.8 4.6v-9a24.7 24.7 0 0 0-1.5-8.6 3 3 0 0 0-1 2.1 116.6 116.6 0 0 0-1 14.4l-1 41.9-.1 7.2c0 .7-.2 1-1 .7a28 28 0 0 1-9.4-5.9 36.9 36.9 0 0 1-12.5-21 37.9 37.9 0 0 1 1.4-18.1 54.2 54.2 0 0 1 14-23.7 31.1 31.1 0 0 1 3.9-3.1 10 10 0 0 1 10.5-1 47.7 47.7 0 0 1 17.9 14.2 37.6 37.6 0 0 1 8.1 16.8c1.4 7.5-.1 14.6-3.7 21.3a42.1 42.1 0 0 1-21 19.5l-2.4.8c-.8.3-1 .1-1-.7v-13.5a2.3 2.3 0 0 1 .7-1.5c3.5-4.3 7.1-8.4 10.4-13a17.6 17.6 0 0 0 2.3-4.4c.1-.3.5-.8 0-1.1s-.7 0-1 .3l-2.9 2.6c-3.4 3-6.4 6.5-9.8 9.9z"/><circle class="cls-11" cx="390.8" cy="497.6" r="2.1"/><path class="cls-9" d="M378.6 589.3h1.8a4 4 0 0 1 .4-.9v-5.2a1.1 1.1 0 0 1-.4-.7c0-.5.3-1 .4-1.4l-.1-.6a1.9 1.9 0 0 1 .3-1.9h-.3v-10.7a1 1 0 0 1 0-1.3l.1-.4a2.6 2.6 0 0 0 0-.5v-.2a.7.7 0 0 1 0-.8c-.3-3 .6-6-2.5-8.9-1.4.3-1.4.7-1.6 1.1a19.6 19.6 0 0 0-1.7 7.3c-.7 7.1-1.2 14.3-1.6 21.4 0 1.3-.3 2.5-.3 3.7a.6.6 0 0 1 0 .1c1.8-.1 3.6-.2 5.5-.1z"/><path class="cls-6" d="M778 466.6V425a5.8 5.8 0 0 1 1.2-3.6c3.6-5 7.3-10.1 10.8-15.3.7-1 2.2-2.6 1-3.6s-2.5.6-3.4 1.4l-9.6 9c0-6.2.2-12 0-17.8s-.7-11.4-3-17c-1.5 1.3-1.6 2.8-1.9 4.2-1.5 9.5-1.7 19-2 28.5-1 27.6-1.5 55.3-2 82.9l-.4 14.3c0 1.5-.3 1.8-1.8 1.3a55.5 55.5 0 0 1-18.8-11.6 73 73 0 0 1-24.6-41.4 74.9 74.9 0 0 1 2.7-36 107.3 107.3 0 0 1 27.6-46.8 61.6 61.6 0 0 1 7.7-6.2 20 20 0 0 1 21-2 94.4 94.4 0 0 1 35.3 28.1 74.6 74.6 0 0 1 16.1 33.1c2.8 15-.3 29-7.4 42.2-9.6 17.5-23 31-41.6 38.7-1.5.7-3.1 1-4.7 1.6-1.4.5-2 .3-2-1.5l-.1-26.6a4.5 4.5 0 0 1 1.3-3c7-8.5 14.2-16.7 20.6-25.5a34.9 34.9 0 0 0 4.7-9c.2-.6 1-1.6 0-2.2-.7-.5-1.4.3-2 .7-2 1.6-3.9 3.3-5.7 5-6.5 6.3-12.3 13.2-19 19.8z"/><circle class="cls-7" cx="811.2" cy="436.6" r="4.1"/><circle class="cls-8" cx="796.8" cy="397.6" r="3.5"/><path class="cls-6" d="M774.4 579.6h3.5a8 8 0 0 1 .9-1.7l-.1-10.3a2.2 2.2 0 0 1-.8-1.4c-.1-1 .6-1.8.9-2.8-.2.3-.2-1-.3-1.1a3.6 3.6 0 0 1 .6-3.8h-.5v-21.2a2 2 0 0 1-.2-2.5c-.2-.3.3-.7.3-1a5.2 5.2 0 0 0 .1-.9c-.3-.3-.3-.4-.2-.5a1.4 1.4 0 0 1 0-1.5c-.5-6 1.4-11.9-4.8-17.6-2.8.6-2.8 1.4-3.1 2.1-2.5 4.8-2.9 9.6-3.4 14.4a935 935 0 0 0-3.2 42.5c-.2 2.4-.6 4.9-.6 7.3a1.1 1.1 0 0 1 0 .2c3.6-.2 7.2-.3 10.9-.2zM332 466.3v-35.7a5 5 0 0 1 1-3l9.3-13.2c.6-1 1.9-2.2.9-3.1s-2.2.5-3 1.2l-8.2 7.7c0-5.3.2-10.3 0-15.3s-.6-9.8-2.6-14.5a5.2 5.2 0 0 0-1.5 3.6c-1.3 8-1.6 16.3-1.8 24.4-.8 23.7-1.3 47.4-1.7 71.1l-.4 12.3c0 1.2-.2 1.5-1.5 1.1a47.7 47.7 0 0 1-16-9.9 62.7 62.7 0 0 1-21.2-35.5c-2-10.5-.7-20.8 2.3-31a92 92 0 0 1 23.7-40 52.8 52.8 0 0 1 6.6-5.4c5.7-4 11.6-4.6 18-1.8a81 81 0 0 1 30.3 24.2 63.9 63.9 0 0 1 13.8 28.4 53.3 53.3 0 0 1-6.4 36.2 71.6 71.6 0 0 1-35.6 33.2l-4 1.3c-1.3.4-1.8.2-1.8-1.3l-.1-22.8a3.8 3.8 0 0 1 1.2-2.6c5.9-7.3 12.1-14.3 17.7-21.9a30 30 0 0 0 4-7.6c.2-.6.8-1.4 0-2-.7-.3-1.3.3-1.7.7l-5 4.3c-5.6 5.3-10.6 11.2-16.3 17z"/><circle class="cls-8" cx="360.4" cy="440.6" r="3.5"/><circle class="cls-2" cx="349.6" cy="407.6" r="3.5"/><path class="cls-6" d="M328.9 582.6h3a10.6 10.6 0 0 1 .8-2l-.1-11.8a2.9 2.9 0 0 1-.7-1.6c0-1 .5-2.1.7-3.2l-.2-1.3a5.4 5.4 0 0 1 .5-4.3h-.4V534a3 3 0 0 1-.1-2.8c-.2-.4.2-.9.2-1.2a8 8 0 0 0 .1-1l-.2-.5a2.1 2.1 0 0 1 0-1.8c-.4-6.9 1.2-13.6-4-20.2-2.5.6-2.5 1.6-2.8 2.4-2 5.5-2.4 11-2.9 16.5-1.3 16.3-2 32.6-2.8 48.9 0 2.8-.5 5.6-.4 8.4a1.7 1.7 0 0 1 0 .1c3 0 6.1-.1 9.3 0z"/><circle class="cls-2" cx="725.3" cy="512.6" r="3.8"/><circle class="cls-12" cx="713.5" cy="476.6" r="3.8"/><path class="cls-13" d="M690.9 646.3h3.2a7.5 7.5 0 0 1 .9-1.6l-.1-9.6a2 2 0 0 1-.8-1.3c0-.9.6-1.7.9-2.6-.2.3-.2-.9-.2-1a3.4 3.4 0 0 1 .5-3.6h-.5v-19.9a2 2 0 0 1-.1-2.3c-.2-.2.2-.6.3-.9a4.9 4.9 0 0 0 0-.8l-.2-.5a1.4 1.4 0 0 1 .1-1.4c-.5-5.6 1.3-11-4.5-16.5-2.6.6-2.6 1.4-3 2-2.3 4.5-2.7 9-3.1 13.4a843.3 843.3 0 0 0-3 39.8c-.2 2.3-.6 4.5-.6 6.8a1 1 0 0 1 0 .2c3.4-.2 6.8-.3 10.2-.2z"/><path class="cls-6" d="M559.5 462v-35.7a5 5 0 0 1 1-3.1c3.1-4.3 6.3-8.7 9.3-13.1.6-1 1.9-2.3.9-3.2s-2.2.6-3 1.3l-8.2 7.7c0-5.4.2-10.3 0-15.3s-.6-9.8-2.6-14.6a5.2 5.2 0 0 0-1.5 3.7c-1.3 8-1.5 16.3-1.8 24.4-.8 23.7-1.3 47.4-1.7 71l-.3 12.3c0 1.3-.3 1.6-1.6 1.2a47.7 47.7 0 0 1-16.1-10 62.7 62.7 0 0 1-21.1-35.5c-2-10.5-.7-20.8 2.3-30.9a92 92 0 0 1 23.7-40.1 52.8 52.8 0 0 1 6.6-5.4c5.6-4 11.6-4.5 18-1.7a81 81 0 0 1 30.3 24.1 63.9 63.9 0 0 1 13.8 28.5 53.3 53.3 0 0 1-6.4 36.1 71.6 71.6 0 0 1-35.7 33.2c-1.3.6-2.6 1-4 1.4s-1.8.2-1.7-1.3l-.1-22.9a3.8 3.8 0 0 1 1.1-2.6c6-7.2 12.2-14.3 17.7-21.8a30 30 0 0 0 4-7.7c.2-.6.9-1.4 0-1.9-.6-.4-1.2.2-1.6.6l-5 4.3c-5.6 5.4-10.6 11.3-16.3 17z"/><circle class="cls-14" cx="588" cy="436.3" r="3.5"/><circle class="cls-8" cx="577.1" cy="403.3" r="3.5"/><path class="cls-6" d="M556.4 581.5h3a11.3 11.3 0 0 1 .8-2L560 567a3 3 0 0 1-.7-1.6c0-1.2.5-2.3.7-3.4l-.2-1.4a5.8 5.8 0 0 1 .5-4.5h-.4v-25.4a3.3 3.3 0 0 1-.1-3c-.2-.3.2-.9.2-1.1a8.7 8.7 0 0 0 .1-1.1l-.2-.6a2.3 2.3 0 0 1 0-1.8c-.4-7.2 1.2-14.3-4-21.1-2.5.7-2.4 1.7-2.8 2.6-2 5.6-2.4 11.4-2.8 17.1-1.3 17-2 34-2.8 51-.2 2.9-.5 5.8-.5 8.7a1.9 1.9 0 0 1 0 .2c3-.1 6.1-.2 9.3-.1z"/><path class="cls-13" d="M994.2 508.5V477a4.4 4.4 0 0 1 .9-2.8l8.2-11.6c.5-.8 1.7-2 .8-2.7s-2 .4-2.7 1l-7.2 7c0-4.8.2-9.2 0-13.6s-.5-8.7-2.3-12.9a4.6 4.6 0 0 0-1.3 3.2 175 175 0 0 0-1.6 21.6c-.7 21-1.1 41.9-1.5 62.8l-.3 10.8c0 1.1-.2 1.4-1.4 1a42.1 42.1 0 0 1-14.2-8.8 55.4 55.4 0 0 1-18.7-31.4 57 57 0 0 1 2-27.3 81.3 81.3 0 0 1 21-35.5 46.7 46.7 0 0 1 5.8-4.7 15 15 0 0 1 15.8-1.5 71.5 71.5 0 0 1 26.8 21.3 57 57 0 0 1 12.2 25.2c2.1 11.3-.2 22-5.6 31.9a63.2 63.2 0 0 1-31.5 29.3l-3.6 1.2c-1.2.4-1.6.2-1.5-1.1l-.1-20.2a3.4 3.4 0 0 1 1-2.3c5.2-6.4 10.7-12.6 15.6-19.3a26.4 26.4 0 0 0 3.5-6.8c.2-.5.8-1.2 0-1.7-.5-.3-1 .2-1.4.6-1.5 1.2-3 2.4-4.4 3.8-4.9 4.8-9.3 10-14.3 15z"/><circle class="cls-13" cx="1019.3" cy="485.8" r="3.1"/><path class="cls-13" d="M991.4 594.1h2.6a6.1 6.1 0 0 1 .7-1.3V585a1.7 1.7 0 0 1-.7-1c0-.7.5-1.4.7-2.1l-.2-1a2.8 2.8 0 0 1 .5-2.8h-.4V562a1.6 1.6 0 0 1-.1-1.9c-.1-.1.2-.5.2-.7a4 4 0 0 0 .1-.6l-.2-.4a1 1 0 0 1 0-1.2c-.3-4.5 1-9-3.6-13.3-2.1.4-2 1-2.4 1.6-1.8 3.6-2.1 7.3-2.5 10.9a711.6 711.6 0 0 0-2.5 32.2c0 1.8-.4 3.7-.4 5.5a.8.8 0 0 1 0 .1h8.2zM446.7 476v-44a6 6 0 0 1 1.3-3.8c3.8-5.3 7.7-10.7 11.4-16.2.8-1 2.3-2.7 1-3.8s-2.6.6-3.6 1.5c-3.2 3-6.4 6-10 9.6 0-6.7.2-12.8-.1-18.9s-.7-12-3.2-18c-1.5 1.5-1.6 3-1.9 4.6-1.5 10-1.8 20-2.2 30-1 29.2-1.5 58.3-2 87.5-.2 5-.4 10-.4 15 0 1.6-.4 2-2 1.5-7.5-2.6-13.9-7-19.8-12.3a77.4 77.4 0 0 1-26-43.7 80.3 80.3 0 0 1 2.9-38 113 113 0 0 1 29.1-49.4 65 65 0 0 1 8-6.5 21 21 0 0 1 22.2-2.2c15 6.6 27 17 37.3 29.7a78.7 78.7 0 0 1 17 35c3 15.8-.3 30.6-7.9 44.5a88 88 0 0 1-43.8 40.8 42 42 0 0 1-5 1.7c-1.4.5-2.2.3-2.2-1.6v-28a4.7 4.7 0 0 1 1.4-3.2c7.3-9 15-17.6 21.7-27a36.8 36.8 0 0 0 5-9.3c.2-.7 1-1.7 0-2.4-.8-.5-1.5.3-2 .8a77.2 77.2 0 0 0-6.1 5.3c-6.9 6.6-13 13.8-20 20.8z"/><circle class="cls-15" cx="468.4" cy="403.7" r="4.3"/><path class="cls-13" d="M442.9 595.2h3.6a8.5 8.5 0 0 1 1-1.8v-10.9a2.4 2.4 0 0 1-1-1.4c0-1 .7-2 1-3-.2.3-.2-1-.3-1.3-.3-1.3-.5-2.6.6-3.9h-.5v-22.4a2.2 2.2 0 0 1-.2-2.7c-.2-.3.3-.7.3-1a5.5 5.5 0 0 0 .2-1c-.3-.3-.4-.4-.3-.5a1.5 1.5 0 0 1 0-1.6c-.5-6.3 1.5-12.5-5-18.6-3 .7-3 1.5-3.3 2.3-2.6 5-3 10-3.6 15.1-1.6 15-2.5 30-3.4 44.9-.2 2.6-.6 5.1-.6 7.7a1.2 1.2 0 0 1 0 .2c3.8-.1 7.6-.2 11.5-.1z"/><circle class="cls-2" cx="480.2" cy="444" r="3.5"/><circle class="cls-8" cx="521.8" cy="523.7" r="3.5"/><path class="cls-9" d="M628.6 459.6v-43.9a6 6 0 0 1 1.2-3.8c3.9-5.4 7.7-10.7 11.4-16.2.8-1.1 2.4-2.7 1.1-3.8s-2.6.6-3.6 1.5l-10.1 9.5c0-6.6.2-12.7 0-18.8s-.7-12-3.2-18c-1.6 1.4-1.7 3-2 4.5-1.5 10-1.8 20-2.1 30.1-1 29.2-1.5 58.3-2.1 87.4l-.4 15.1c0 1.6-.3 2-2 1.4-7.4-2.6-13.8-7-19.7-12.2a77.4 77.4 0 0 1-26-43.7 79 79 0 0 1 2.8-38 113 113 0 0 1 29.1-49.4 65 65 0 0 1 8.1-6.6 21 21 0 0 1 22.1-2.2c15 6.7 27.1 17.1 37.3 29.8a78.7 78.7 0 0 1 17 35c3 15.8-.3 30.6-7.9 44.4a88 88 0 0 1-43.8 41l-5 1.6c-1.4.5-2.1.2-2.1-1.6l-.1-28.1a4.7 4.7 0 0 1 1.4-3.2c7.3-9 15-17.6 21.8-27a36.8 36.8 0 0 0 4.9-9.4c.3-.7 1-1.7 0-2.3-.7-.5-1.4.2-2 .7l-6 5.3c-7 6.7-13.1 14-20.1 21z"/><circle class="cls-16" cx="650.2" cy="387.4" r="4.3"/><path class="cls-9" d="M624.7 578.8l3.7.1a8.5 8.5 0 0 1 1-1.8l-.1-10.9a2.4 2.4 0 0 1-.9-1.4c0-1 .7-2 1-3-.2.3-.3-1-.3-1.3-.4-1.3-.6-2.7.6-4h-.6v-22.3a2.2 2.2 0 0 1-.2-2.7c-.1-.3.3-.8.4-1a5.5 5.5 0 0 0 .1-1c-.3-.3-.3-.5-.3-.5a1.5 1.5 0 0 1 .1-1.6c-.5-6.4 1.5-12.5-5-18.6-3 .6-3 1.5-3.4 2.3-2.5 5-3 10-3.5 15.1-1.6 15-2.5 30-3.4 44.9-.2 2.5-.7 5.1-.6 7.7a1.2 1.2 0 0 1 0 .2l11.4-.2z"/><circle class="cls-11" cx="661.1" cy="427.6" r="3.5"/><path class="cls-13" d="M694.3 540.6v-38.9a5.4 5.4 0 0 1 1.1-3.4l10.1-14.3c.7-1 2.1-2.4 1-3.4s-2.4.6-3.3 1.4l-8.9 8.4c0-5.9.2-11.3 0-16.7s-.6-10.7-2.8-15.9c-1.4 1.2-1.5 2.7-1.7 4-1.4 8.9-1.6 17.8-2 26.7-.8 25.8-1.3 51.6-1.8 77.5l-.3 13.3c0 1.4-.3 1.8-1.7 1.3a51.9 51.9 0 0 1-17.6-10.9 68.2 68.2 0 0 1-23-38.7 70.1 70.1 0 0 1 2.5-33.7 100 100 0 0 1 25.9-43.8 57.6 57.6 0 0 1 7.1-5.8c6.2-4.4 12.7-5 19.6-2a88 88 0 0 1 33 26.4 69.7 69.7 0 0 1 15 31 58 58 0 0 1-7 39.4 78.1 78.1 0 0 1-38.8 36.3c-1.4.6-2.9 1-4.4 1.4s-1.9.2-1.9-1.4V554a4.2 4.2 0 0 1 1.2-2.9c6.5-8 13.3-15.6 19.3-23.8a32.6 32.6 0 0 0 4.3-8.4c.2-.6 1-1.5 0-2-.7-.5-1.3.2-1.8.6-1.8 1.5-3.7 3-5.4 4.7-6 5.9-11.5 12.3-17.7 18.5z"/><circle class="cls-2" cx="1009.7" cy="456.6" r="3.1"/><circle class="cls-2" cx="710.2" cy="476.4" r="3.1"/><circle class="cls-15" cx="725.5" cy="509.2" r="4.3"/></g></g></g><circle class="cls-17" cx="675" cy="407.1" r="168.9"/><path class="cls-18" d="M531.1 133.5h4.4V120a2.4 2.4 0 0 0-.1-.9 1.2 1.2 0 0 0-.4-.5 1.1 1.1 0 0 0-.5-.2 3.4 3.4 0 0 0-.7 0 6.4 6.4 0 0 0-1.3.1 11 11 0 0 0-1.6.5 13.8 13.8 0 0 0-1.8.8 8.5 8.5 0 0 0-1.5 1.2 5.6 5.6 0 0 0-1.1 1.4 3.3 3.3 0 0 0-.5 1.6 3 3 0 0 0 .2 1.2 2 2 0 0 0 .5.7 1.2 1.2 0 0 0 .5.3 2.1 2.1 0 0 0 .4 0 2 2 0 0 0 1-.1 5.8 5.8 0 0 0 .7-.5l.6-.4a1 1 0 0 1 .7-.2 1.6 1.6 0 0 1 .6.1 1.8 1.8 0 0 1 .6.5 2.4 2.4 0 0 1 .5.7 3 3 0 0 1 .1 1.2 3.5 3.5 0 0 1-.3 1.6 3.7 3.7 0 0 1-1 1.2 4 4 0 0 1-1.4.7 5.2 5.2 0 0 1-1.5.2 5.2 5.2 0 0 1-2-.4 4.6 4.6 0 0 1-1.6-1 4.7 4.7 0 0 1-1-1.7 5.8 5.8 0 0 1-.4-2 7.5 7.5 0 0 1 .6-3 8.6 8.6 0 0 1 1.7-2.5 11.1 11.1 0 0 1 2.4-2 16.1 16.1 0 0 1 3-1.3 20.4 20.4 0 0 1 3.4-.8 23.2 23.2 0 0 1 3.7-.4 9.9 9.9 0 0 1 3 .4 4 4 0 0 1 1.7.9 2 2 0 0 1 .6 1 6 6 0 0 1 0 1v14.3h9V122a19.5 19.5 0 0 1 1-6.8 13.5 13.5 0 0 1 2.6-4.5 10 10 0 0 1 3.6-2.6 10.8 10.8 0 0 1 4-.8 16 16 0 0 1 2.6.2 9 9 0 0 1 2.2.6 4.3 4.3 0 0 1 1.5 1 2 2 0 0 1 .5 1.5 2.2 2.2 0 0 1-.4 1.2 1.6 1.6 0 0 1-.4.5 1 1 0 0 1-.5.1 1.2 1.2 0 0 1-.8-.2 3.6 3.6 0 0 1-.6-.7l-.6-.9a5.8 5.8 0 0 0-.7-.8 3.4 3.4 0 0 0-.8-.7 2.1 2.1 0 0 0-1-.2 3.3 3.3 0 0 0-2.4.8 5.1 5.1 0 0 0-1.3 2.3 17.4 17.4 0 0 0-.6 3.9q-.2 2.3-.2 5.3v12.4h4.9v2H560v14.7a1.9 1.9 0 0 0 .3 1.1 1 1 0 0 0 1 .4 3.2 3.2 0 0 0 1.2-.2l1-.5.4 1-1.2.7a14.2 14.2 0 0 1-1.6.7 12.3 12.3 0 0 1-1.8.6 8.9 8.9 0 0 1-2 .2 6.8 6.8 0 0 1-2.6-.4 3.9 3.9 0 0 1-1.6-1.2 3.8 3.8 0 0 1-.7-1.5 9 9 0 0 1-.2-1.8v-13.7h-8.9v12a12.8 12.8 0 0 1-1.1 5.7 11.5 11.5 0 0 1-3.3 4 14.1 14.1 0 0 1-4.9 2.4 21.6 21.6 0 0 1-6 .8 13.2 13.2 0 0 1-2.3-.2 9.6 9.6 0 0 1-2-.6 4.5 4.5 0 0 1-1.4-.8 1.5 1.5 0 0 1-.5-1.1 3.4 3.4 0 0 1 .1-.9 2.7 2.7 0 0 1 .4-.8 2.2 2.2 0 0 1 .5-.6 1.3 1.3 0 0 1 .8-.2.6.6 0 0 1 .5.2 5 5 0 0 1 .4.7l.5.8a3.8 3.8 0 0 0 .7.9 3.8 3.8 0 0 0 1.1.7 4 4 0 0 0 1.6.2 7 7 0 0 0 3.1-.7 6 6 0 0 0 2.2-1.9 8.6 8.6 0 0 0 1.3-2.9 15.4 15.4 0 0 0 .4-3.7v-14h-4.3zM576 129a5.7 5.7 0 0 0-1.6.2 5.2 5.2 0 0 0-1.2.5 2.9 2.9 0 0 0-.8.6 1 1 0 0 0-.2.7.5.5 0 0 0 .3.5l.9.3a2.8 2.8 0 0 1 .8.6 1.6 1.6 0 0 1 .4 1.2 2 2 0 0 1-.2.9 2.5 2.5 0 0 1-1.4 1.2 2.7 2.7 0 0 1-1 .2 2.8 2.8 0 0 1-2.2-.9 3.5 3.5 0 0 1-.8-2.4 4.1 4.1 0 0 1 .8-2.5 6 6 0 0 1 2-1.8 10.1 10.1 0 0 1 2.8-1 15.6 15.6 0 0 1 6.7.1 9 9 0 0 1 3 1.3 6.7 6.7 0 0 1 2 2.3 6.6 6.6 0 0 1 .8 3.3v14.1a1.5 1.5 0 0 0 .2.4.9.9 0 0 0 .2.4 1 1 0 0 0 .6.1 1.2 1.2 0 0 0 .8-.3 6.4 6.4 0 0 0 .7-.6l.5.5-.8 1a7 7 0 0 1-3 2 6.2 6.2 0 0 1-2.1.4 4.3 4.3 0 0 1-2.7-.9 4.4 4.4 0 0 1-1.5-2.7 10.2 10.2 0 0 1-1.6 1.7 8.7 8.7 0 0 1-1.7 1.1 7.5 7.5 0 0 1-1.8.6 8.2 8.2 0 0 1-1.7.2 7 7 0 0 1-2.2-.3 5.3 5.3 0 0 1-2-1.1 5.6 5.6 0 0 1-1.3-2 8 8 0 0 1-.5-3 6.7 6.7 0 0 1 .8-3.7 7.7 7.7 0 0 1 2.3-2.3 15.3 15.3 0 0 1 3.2-1.6l3.7-1.5a4 4 0 0 0 2-1.6 4.4 4.4 0 0 0 .6-2.3 3.9 3.9 0 0 0-1-2.8 3.8 3.8 0 0 0-2.8-1.1zm3.8 10.5a1.1 1.1 0 0 0-.4-.9 1.5 1.5 0 0 0-1-.3 3.5 3.5 0 0 0-1.6.4 4 4 0 0 0-1.3 1.1 5.7 5.7 0 0 0-1 1.8 8.6 8.6 0 0 0-.3 2.6 10.8 10.8 0 0 0 .2 2.3 4.5 4.5 0 0 0 .6 1.4 2 2 0 0 0 .8.8 2.2 2.2 0 0 0 1 .2 2.3 2.3 0 0 0 1.1-.3 3.5 3.5 0 0 0 1-.8 4.2 4.2 0 0 0 .7-1.2 3.5 3.5 0 0 0 .2-1.2zm28.9-4.2a3 3 0 0 1-1.2-.2 2.2 2.2 0 0 1-.8-.6 2.5 2.5 0 0 1-.5-.9 3.3 3.3 0 0 1-.2-1 9 9 0 0 1 .1-1.2 4.2 4.2 0 0 0 0-1.1 1.2 1.2 0 0 0-.3-.8 1.6 1.6 0 0 0-1.1-.3 4 4 0 0 0-1.8.5 5 5 0 0 0-1.7 1.5 8.8 8.8 0 0 0-1.3 2.7 13.3 13.3 0 0 0-.5 3.9 21 21 0 0 0 .5 4.6 11 11 0 0 0 1.4 3.5 6.8 6.8 0 0 0 2.3 2.3 7 7 0 0 0 4.9.6 7 7 0 0 0 1.4-.5 9.2 9.2 0 0 0 1.3-.8l1.2-1 .6.6a16.5 16.5 0 0 1-1.4 1.7 11.6 11.6 0 0 1-2.1 1.6 12 12 0 0 1-2.9 1.3 12.3 12.3 0 0 1-3.7.5 10.7 10.7 0 0 1-4-.8 10.5 10.5 0 0 1-3.6-2.3 11.5 11.5 0 0 1-2.5-3.7 12.8 12.8 0 0 1-.9-5 14 14 0 0 1 .6-4 13.3 13.3 0 0 1 1.5-3.4 12.5 12.5 0 0 1 2.2-2.6 14 14 0 0 1 2.7-2 12.8 12.8 0 0 1 2.8-1 11 11 0 0 1 2.8-.4 10.5 10.5 0 0 1 3.1.4 7 7 0 0 1 2.2 1 4.4 4.4 0 0 1 1.3 1.6 4 4 0 0 1 .4 1.8 4.9 4.9 0 0 1-.2 1.3 3.4 3.4 0 0 1-.5 1.2 2.5 2.5 0 0 1-.9.7 2.6 2.6 0 0 1-1.2.3zm14.5-1.8l1.8-2.3a16.5 16.5 0 0 1 2-2 10.6 10.6 0 0 1 2.4-1.6 6.7 6.7 0 0 1 2.9-.6 4.4 4.4 0 0 1 2.3.6 5 5 0 0 1 1.4 1.3 4.8 4.8 0 0 1 .8 1.5 5.3 5.3 0 0 1 .3 1.4 9.3 9.3 0 0 1-.3 2.2 8.3 8.3 0 0 1-1 2.3 10 10 0 0 1-1.7 2.1 12 12 0 0 1-2.8 2 82.9 82.9 0 0 0 4.4 8.2 41.2 41.2 0 0 0 4.1 5.6 16.2 16.2 0 0 0 3.8 3.3 7 7 0 0 0 3.5 1 2.4 2.4 0 0 0 .6 0 4.1 4.1 0 0 0 .5-.2 5.3 5.3 0 0 0 .6-.2l.4.8-1.3.7a9.3 9.3 0 0 1-1.5.6 14.3 14.3 0 0 1-2 .4 21.6 21.6 0 0 1-2.7.1 11.8 11.8 0 0 1-2.8-.3 9.6 9.6 0 0 1-2.8-1.2 15.7 15.7 0 0 1-2.8-2.4 25.7 25.7 0 0 1-3-3.6 52.5 52.5 0 0 1-3-5.3q-1.6-3-3.3-7.1a25.2 25.2 0 0 0 3.6-3.2 15.5 15.5 0 0 0 2-2.6 6.8 6.8 0 0 0 .8-2 8.9 8.9 0 0 0 .2-1.6v-.4a1 1 0 0 0-.2-.4 1.3 1.3 0 0 0-.3-.4 1.3 1.3 0 0 0-.7-.1 2.8 2.8 0 0 0-1.8.7 10.7 10.7 0 0 0-1.8 1.9 18.1 18.1 0 0 0-1.5 2.4q-.7 1.3-1 2.3v12.4a3.1 3.1 0 0 1-.2.8 1.7 1.7 0 0 1-.5.8 3.2 3.2 0 0 1-1.2.6 6 6 0 0 1-2 .3 5.3 5.3 0 0 1-2-.3 2.8 2.8 0 0 1-1-.7 1.8 1.8 0 0 1-.5-.8 3.8 3.8 0 0 1 0-.7v-31a2.2 2.2 0 0 0-.4-1.2 1.2 1.2 0 0 0-1-.6 1.8 1.8 0 0 0-.8.2 3 3 0 0 0-.6.4l-.5-.6a14.3 14.3 0 0 1 1.3-1 9 9 0 0 1 1.4-.7 11 11 0 0 1 1.8-.5 8.3 8.3 0 0 1 1.9-.3 5.7 5.7 0 0 1 2.4.5 3.1 3.1 0 0 1 1.3 1 3 3 0 0 1 .5 1.3 10.1 10.1 0 0 1 0 1.2z"/><path class="cls-18" d="M649.7 129v17.8a2.5 2.5 0 0 0 .4 1.8 1.8 1.8 0 0 0 1.4.5 2 2 0 0 0 1.1-.4 4.2 4.2 0 0 0 .9-.8 5 5 0 0 0 .7-1.2l.7.4-.8 1.7a6.7 6.7 0 0 1-3.4 3 8 8 0 0 1-3 .5 6.6 6.6 0 0 1-2-.3 4.8 4.8 0 0 1-1.8-1 5 5 0 0 1-1.2-1.7 5.9 5.9 0 0 1-.5-2.4V129h-2.7v-1.8a7.3 7.3 0 0 0 2-.3 9.3 9.3 0 0 0 2.4-1.2 9.8 9.8 0 0 0 2.3-2.2 8.4 8.4 0 0 0 1.5-3.4h2v7.1h3.9q2 0 2-.6a.3.3 0 0 0-.3-.3l-.6-.3a1.8 1.8 0 0 1-.5-.3 1 1 0 0 1-.3-.8 1.4 1.4 0 0 1 .5-1 1.6 1.6 0 0 1 1-.5 1.5 1.5 0 0 1 .8.2 1.6 1.6 0 0 1 .6.5 2.2 2.2 0 0 1 .3.7 2.8 2.8 0 0 1 0 .8 3.4 3.4 0 0 1-.8 2.4 3.9 3.9 0 0 1-3 1zm6.7 10.7a15.3 15.3 0 0 1 1-5.6 11.7 11.7 0 0 1 2.4-4 9.9 9.9 0 0 1 3.5-2.3 11.5 11.5 0 0 1 4.3-.8 12.3 12.3 0 0 1 4.2.7 9.7 9.7 0 0 1 3.5 2.3 11 11 0 0 1 2.5 3.8 15 15 0 0 1 .9 5.5 15.8 15.8 0 0 1-1 5.5 12.4 12.4 0 0 1-2.4 4.1 10.1 10.1 0 0 1-3.5 2.5 10.8 10.8 0 0 1-4.2.9 11.3 11.3 0 0 1-4.3-.8 10 10 0 0 1-3.5-2.4 11.7 11.7 0 0 1-2.4-4 15.4 15.4 0 0 1-1-5.4zm14.8-.3l-.1-3.7a16.6 16.6 0 0 0-.5-3.2 5.6 5.6 0 0 0-1.1-2.2 2.4 2.4 0 0 0-2-.8 2.3 2.3 0 0 0-1.8.8 6 6 0 0 0-1.1 2.4 16.8 16.8 0 0 0-.5 3.2q-.2 1.8-.2 3.8t.2 3.7a17 17 0 0 0 .5 3.3 6 6 0 0 0 1 2.3 2.3 2.3 0 0 0 2 1 2.3 2.3 0 0 0 1.9-1 6.4 6.4 0 0 0 1-2.4 18.8 18.8 0 0 0 .6-3.4l.1-3.8zm11.2-20.6a2.2 2.2 0 0 0-.3-1.2 1.2 1.2 0 0 0-1.1-.5 1.8 1.8 0 0 0-.7 0 3 3 0 0 0-.7.5l-.5-.6a13.5 13.5 0 0 1 1.3-.9 9.7 9.7 0 0 1 1.5-.8 10.6 10.6 0 0 1 1.7-.5 8.3 8.3 0 0 1 1.9-.2 5.1 5.1 0 0 1 2.2.4 3.4 3.4 0 0 1 1.3 1 3.4 3.4 0 0 1 .6 1.3 6.6 6.6 0 0 1 .2 1.3v10.7l.7-.6a6.7 6.7 0 0 1 1.2-.8 7.6 7.6 0 0 1 1.6-.7 8.8 8.8 0 0 1 2.3-.2 7.3 7.3 0 0 1 3.1.7 7.7 7.7 0 0 1 2.8 2.2 12 12 0 0 1 2 3.9 18.7 18.7 0 0 1 .7 5.7 17 17 0 0 1-.7 5 12 12 0 0 1-2 4 10 10 0 0 1-3.6 2.8 11 11 0 0 1-4.8 1 11.8 11.8 0 0 1-5-1 8.8 8.8 0 0 1-3.4-2.6 10.4 10.4 0 0 1-1.8-3.9 19.2 19.2 0 0 1-.5-4.6zm14.3 21.2a33.7 33.7 0 0 0-.2-4 15.3 15.3 0 0 0-.7-3.2 6.2 6.2 0 0 0-1.2-2.1 2.4 2.4 0 0 0-1.8-.8 2.3 2.3 0 0 0-1.4.4 3.8 3.8 0 0 0-1 .9 4 4 0 0 0-.5 1 2.6 2.6 0 0 0-.1.6v7.2a23.9 23.9 0 0 0 .8 7.6q1 2.4 2.6 2.4t2.7-2.4a25 25 0 0 0 .8-7.6zm18.3 1a6.8 6.8 0 0 0 .3 1.6 10 10 0 0 0 .7 1.8 9.6 9.6 0 0 0 1 1.7 8.3 8.3 0 0 0 1.5 1.5 7 7 0 0 0 1.8 1 6.2 6.2 0 0 0 2.3.4 6 6 0 0 0 1.5-.2 6.2 6.2 0 0 0 1.4-.5 8.8 8.8 0 0 0 1.2-.8l1.1-1 .6.6a16.5 16.5 0 0 1-1.4 1.7 11.6 11.6 0 0 1-2 1.7 12 12 0 0 1-3 1.3 12.3 12.3 0 0 1-3.7.5 11.3 11.3 0 0 1-4-.8 10.1 10.1 0 0 1-3.6-2.2 11.1 11.1 0 0 1-2.4-3.8 15.3 15.3 0 0 1-.4-9.3 12.9 12.9 0 0 1 1.5-3.3 12.2 12.2 0 0 1 2.2-2.6 13.7 13.7 0 0 1 2.7-1.8 13.1 13.1 0 0 1 2.8-1.1 11.7 11.7 0 0 1 6 0 7 7 0 0 1 2.1 1 4.3 4.3 0 0 1 1.3 1.5 4 4 0 0 1 .5 1.8 3.4 3.4 0 0 1-.7 2 6 6 0 0 1-1.7 1.5zm4.9-5a3.8 3.8 0 0 0 .5-.4 1.3 1.3 0 0 0 .3-.4 2.3 2.3 0 0 0 .2-.6 6 6 0 0 0 0-1 7.6 7.6 0 0 0 0-1.3 5.4 5.4 0 0 0-.5-1.4 3.4 3.4 0 0 0-.8-1 1.7 1.7 0 0 0-1.1-.5 2.2 2.2 0 0 0-1.5.6 4 4 0 0 0-1 1.3 8.3 8.3 0 0 0-.6 1.9 20.9 20.9 0 0 0-.4 2l-.1 2v1.7zm19.4-4a19.8 19.8 0 0 1 2-2.4 13 13 0 0 1 .9-1 9 9 0 0 1 1-.8 5.5 5.5 0 0 1 1.1-.6 3.3 3.3 0 0 1 1.2-.2 2.5 2.5 0 0 1 1.9.7 2.9 2.9 0 0 1 .7 2 9.2 9.2 0 0 1-.1 1.7 11.7 11.7 0 0 1-.6 1.8h-.6a2.2 2.2 0 0 0-.7-1.2 2.2 2.2 0 0 0-1.5-.5 4 4 0 0 0-1.5.2 9 9 0 0 0-1.4.7 12.4 12.4 0 0 0-1.3 1l-1.1.8v15.6a3.5 3.5 0 0 1-.1.7 1.7 1.7 0 0 1-.5.9 3 3 0 0 1-1.1.6 5.9 5.9 0 0 1-2 .3 5.4 5.4 0 0 1-2-.3 3.1 3.1 0 0 1-1.1-.7 1.8 1.8 0 0 1-.5-.8 3.4 3.4 0 0 1-.1-.7v-18.6a2.2 2.2 0 0 0-.3-1.2 1.2 1.2 0 0 0-1.1-.5 1.5 1.5 0 0 0-.7.1 3.8 3.8 0 0 0-.6.5l-.6-.6a13.4 13.4 0 0 1 1.3-1 9.6 9.6 0 0 1 1.5-.7 10.7 10.7 0 0 1 1.7-.6 8.3 8.3 0 0 1 1.9-.2 5 5 0 0 1 1.8.3 3.5 3.5 0 0 1 1.2.7 3.4 3.4 0 0 1 .7 1 5.5 5.5 0 0 1 .4 1.1 6 6 0 0 1 .2 1.1v.9z"/><path class="cls-18" d="M763 116.2a2.9 2.9 0 0 0-1.3.3 2.7 2.7 0 0 0-1 1 5.1 5.1 0 0 0-.7 1.6 9.3 9.3 0 0 0-.2 2.3v6h5.2v1.7h-5.3V148a20.4 20.4 0 0 1-.8 6 13.1 13.1 0 0 1-2.6 4.8 11.9 11.9 0 0 1-4.3 3.1 15 15 0 0 1-6 1.1 13.3 13.3 0 0 1-2.4-.2 9.7 9.7 0 0 1-2-.5 4.5 4.5 0 0 1-1.4-.9 1.5 1.5 0 0 1-.5-1 3.3 3.3 0 0 1 0-1 2.7 2.7 0 0 1 .4-.7 2 2 0 0 1 .6-.6 1.4 1.4 0 0 1 .8-.3.6.6 0 0 1 .5.3 5.4 5.4 0 0 1 .4.7l.5.8a3.6 3.6 0 0 0 .7.8 3.8 3.8 0 0 0 1.1.7 4 4 0 0 0 1.6.3 4.6 4.6 0 0 0 2.1-.5 5 5 0 0 0 1.6-1.4 8 8 0 0 0 1.1-2 15 15 0 0 0 .8-2.5 23.7 23.7 0 0 0 .3-2.8l.1-3v-20.1H748v-1.7h4.5v-2.9a11.8 11.8 0 0 1 .5-3.6 8.9 8.9 0 0 1 1.3-2.7 7.8 7.8 0 0 1 2-1.8 11.1 11.1 0 0 1 2.2-1.1 10.5 10.5 0 0 1 2.1-.6 13.9 13.9 0 0 1 1.9-.1 16.3 16.3 0 0 1 3 .2 9.3 9.3 0 0 1 2.2.7 3.9 3.9 0 0 1 1.4 1 1.8 1.8 0 0 1 .4 1.1 3 3 0 0 1-.1.9 3.2 3.2 0 0 1-.4.8 2 2 0 0 1-.6.6 1.4 1.4 0 0 1-.8.2.6.6 0 0 1-.4-.2 6.3 6.3 0 0 1-.5-.8l-.5-.9a4.7 4.7 0 0 0-.7-1 3.7 3.7 0 0 0-1-.7 3 3 0 0 0-1.4-.3zm9.9 24.8a6.8 6.8 0 0 0 .2 1.6 10 10 0 0 0 .7 1.8 9.6 9.6 0 0 0 1 1.7 8.3 8.3 0 0 0 1.5 1.5 7 7 0 0 0 1.9 1 6.2 6.2 0 0 0 2.2.4 6 6 0 0 0 1.5-.2 6.2 6.2 0 0 0 1.4-.5 8.8 8.8 0 0 0 1.2-.8q.6-.4 1.1-1l.6.6a16.5 16.5 0 0 1-1.4 1.7 11.6 11.6 0 0 1-2 1.6 12 12 0 0 1-3 1.3 12.3 12.3 0 0 1-3.6.6 11.3 11.3 0 0 1-4.1-.8 10.1 10.1 0 0 1-3.5-2.3 11.1 11.1 0 0 1-2.5-3.7 15.3 15.3 0 0 1-.4-9.4 12.9 12.9 0 0 1 1.5-3.2 12.2 12.2 0 0 1 2.2-2.6 13.7 13.7 0 0 1 2.7-1.9 13.1 13.1 0 0 1 2.8-1 11.7 11.7 0 0 1 6 0 7 7 0 0 1 2.1 1 4.3 4.3 0 0 1 1.4 1.4 4 4 0 0 1 .4 1.8 3.4 3.4 0 0 1-.7 2 6 6 0 0 1-1.7 1.6zm4.8-5a3.8 3.8 0 0 0 .5-.3 1.3 1.3 0 0 0 .4-.5 2.3 2.3 0 0 0 .2-.6 6 6 0 0 0 0-.9 7.6 7.6 0 0 0-.1-1.3 5.4 5.4 0 0 0-.5-1.4 3.4 3.4 0 0 0-.8-1 1.7 1.7 0 0 0-1.1-.5 2.2 2.2 0 0 0-1.5.5 4 4 0 0 0-1 1.3 8.3 8.3 0 0 0-.6 1.9 20.9 20.9 0 0 0-.4 2v3.7zm19.5-7a3.7 3.7 0 0 0-1 0 2.4 2.4 0 0 0-.9.5 2.2 2.2 0 0 0-.6.9 2.9 2.9 0 0 0-.2 1.1 3.1 3.1 0 0 0 .7 1.9 16.1 16.1 0 0 0 1.7 2l2.2 2a24.5 24.5 0 0 1 2.2 2.2 12.8 12.8 0 0 1 1.7 2.6 6.3 6.3 0 0 1 .7 2.9 7.6 7.6 0 0 1-.6 3 6.3 6.3 0 0 1-1.7 2.3 7.5 7.5 0 0 1-2.6 1.4 11.3 11.3 0 0 1-3.5.5 9 9 0 0 1-3-.4 10.9 10.9 0 0 1-2.4-1.2 10.4 10.4 0 0 1-1.7-1.4 9.7 9.7 0 0 1-1.2-1.4l.8-.6a8.2 8.2 0 0 0 .8.8 7.8 7.8 0 0 0 1.1.7 6.2 6.2 0 0 0 1.3.6 4.2 4.2 0 0 0 1.3.3 4.6 4.6 0 0 0 2.9-.9 2.9 2.9 0 0 0 1-2.4 3.6 3.6 0 0 0-.5-2 14.8 14.8 0 0 0-1.5-2l-2-2a29 29 0 0 1-2-2.3 13.5 13.5 0 0 1-1.5-2.5 6 6 0 0 1-.6-2.6 5.5 5.5 0 0 1 .6-2.6 5.6 5.6 0 0 1 1.6-1.9 7.3 7.3 0 0 1 2.3-1.1 9.8 9.8 0 0 1 2.7-.4 13.8 13.8 0 0 1 3 .3 7.2 7.2 0 0 1 2.2.9 4.2 4.2 0 0 1 1.5 1.5 4 4 0 0 1 .5 2 2.3 2.3 0 0 1-.6 1.6 2.1 2.1 0 0 1-1.7.7 2.4 2.4 0 0 1-1.5-.4 1.5 1.5 0 0 1-.6-1.2 1.2 1.2 0 0 1 .3-.8 2.2 2.2 0 0 1 .5-.5l.6-.3a.4.4 0 0 0 .3-.4 1.2 1.2 0 0 0-.8-1 3.8 3.8 0 0 0-1.8-.5zm18.2 0v17.8a2.5 2.5 0 0 0 .5 1.8 1.8 1.8 0 0 0 1.3.5 2 2 0 0 0 1.2-.4 4.2 4.2 0 0 0 .8-.8 5 5 0 0 0 .8-1.2l.7.4-.8 1.7a6.7 6.7 0 0 1-3.4 3 8 8 0 0 1-3.1.5 6.6 6.6 0 0 1-2-.3 4.8 4.8 0 0 1-1.7-1 5 5 0 0 1-1.2-1.7 5.9 5.9 0 0 1-.5-2.4V129h-2.7v-1.8a7.3 7.3 0 0 0 1.9-.3 9.3 9.3 0 0 0 2.4-1.2 9.8 9.8 0 0 0 2.4-2.2 8.4 8.4 0 0 0 1.5-3.4h2v7.1h3.9q1.9 0 1.9-.6a.3.3 0 0 0-.3-.3l-.5-.3a1.8 1.8 0 0 1-.5-.3 1 1 0 0 1-.3-.8 1.4 1.4 0 0 1 .4-1 1.6 1.6 0 0 1 1.1-.5 1.5 1.5 0 0 1 .8.2 1.6 1.6 0 0 1 .5.5 2.2 2.2 0 0 1 .3.7 2.8 2.8 0 0 1 .2.8 3.4 3.4 0 0 1-1 2.4 3.9 3.9 0 0 1-2.8 1zM463 136.3c.5-1.2 1.3-2.2 2.8-2.3a2.8 2.8 0 0 1 3 2.4 2.9 2.9 0 0 1-1.8 3.2 3 3 0 0 1-3.6-1.2l-.5-.8zm4.4.6a1.5 1.5 0 0 0-3 0 1.5 1.5 0 0 0 3 0zm14.4-24.6v10.3h33.4v3h-36.4v-13.3zm34.1 22.8v3H471v-3zM831.5 156v-2.9h36.7v13.3h-2.9v-9c0-1.3 0-1.3-1.3-1.3h-32.5zm44.5-15.3v2.8h-44.5v-2.8zm-21.8-29.5v18.3h-22.7v-3h19.6v-14.2c0-1.2 0-1.2 1.3-1.2zm-361.3 56.2v-18.1h22.6v2.9H497c-1.2 0-1.2 0-1.2 1.2v14zm-8.3-62.8a4.5 4.5 0 0 1-4.6 4.6 4.6 4.6 0 1 1 0-9.3 4.6 4.6 0 0 1 4.6 4.7zM480 103a1.6 1.6 0 0 0-1.6 1.6 1.5 1.5 0 0 0 1.6 1.6 1.6 1.6 0 0 0 1.5-1.5 1.6 1.6 0 0 0-1.5-1.7zm391 70.7a4.6 4.6 0 0 1-9.2 0 4.6 4.6 0 1 1 9.3 0zm-4.5-1.6a1.6 1.6 0 0 0-1.6 1.5 1.6 1.6 0 0 0 1.5 1.7 1.7 1.7 0 0 0 1.7-1.6 1.7 1.7 0 0 0-1.6-1.6zm17.5-33.4a3 3 0 1 1-3.1 3.1 3 3 0 0 1 3.1-3.1zm-392.7 35.5a3 3 0 0 1 3-3.1 3 3 0 1 1 0 6.1 3 3 0 0 1-3-3zM853 108.8a2.9 2.9 0 1 1 3-2.9 2.9 2.9 0 0 1-3 3zm0-1.4a1.4 1.4 0 1 0 0-3 1.4 1.4 0 0 0-1.4 1.6 1.5 1.5 0 0 0 1.4 1.4zM554.9 64.7h3.1l-7.5 22.1h-3.1l-5.7-18.2-5.8 18.2h-3.1l-7.5-22h3.3l5.8 18.8 5.8-18.9h3l5.8 18.9zm17.1 7.6a9.4 9.4 0 0 1 2 6.4v1h-13.3a5.7 5.7 0 0 0 2 3.5 5.5 5.5 0 0 0 3.7 1.3 7 7 0 0 0 2.7-.6 6.6 6.6 0 0 0 2.3-1.5l1.6 1.7a8.4 8.4 0 0 1-3 2 9.9 9.9 0 0 1-3.9.8 8.8 8.8 0 0 1-4.3-1.1 7.4 7.4 0 0 1-3-3 9.6 9.6 0 0 1 0-8.8 7.7 7.7 0 0 1 3-3 8.5 8.5 0 0 1 4.3-1 7.3 7.3 0 0 1 5.9 2.3zm-.7 5a4.8 4.8 0 0 0-5.1-4.9 5.3 5.3 0 0 0-3.7 1.3 5.5 5.5 0 0 0-1.7 3.6zm25.1 9.5v-2.3q-1.9 2.4-5.8 2.4a6.7 6.7 0 0 1-3-.6 4.9 4.9 0 0 1-2-1.9 5 5 0 0 1-.8-2.6 4.3 4.3 0 0 1 1.7-3.5 7.4 7.4 0 0 1 4.6-1.4h5.3v-.8a3.5 3.5 0 0 0-1-2.7 4.7 4.7 0 0 0-3.3-1 9 9 0 0 0-5 1.8l-1.3-2a15.3 15.3 0 0 1 3.3-1.7 11.3 11.3 0 0 1 3.6-.5 7 7 0 0 1 4.8 1.5 5.5 5.5 0 0 1 1.8 4.3v11zm-1.8-3.3a4 4 0 0 0 1.7-2.6v-1.7h-4.8a5.7 5.7 0 0 0-3 .6 2 2 0 0 0-1 1.9 2.5 2.5 0 0 0 1 2 4.2 4.2 0 0 0 2.6.7 6 6 0 0 0 3.5-.9zM609.8 71a7 7 0 0 1 3.6-1v2.8a5.4 5.4 0 0 0-6 5.2v8.8h-2.9V70h3v3.6a6 6 0 0 1 2.3-2.7zm19.3 1.3a9.4 9.4 0 0 1 2 6.4v1h-13.2a5.7 5.7 0 0 0 1.9 3.5 5.5 5.5 0 0 0 3.7 1.3 7 7 0 0 0 2.8-.6 6.6 6.6 0 0 0 2.2-1.5l1.6 1.7a8.4 8.4 0 0 1-3 2 9.9 9.9 0 0 1-3.8.7 8.8 8.8 0 0 1-4.4-1 7.4 7.4 0 0 1-3-3 9.6 9.6 0 0 1 0-8.8 7.7 7.7 0 0 1 3-3 8.5 8.5 0 0 1 4.3-1 7.3 7.3 0 0 1 5.9 2.3zm-.7 5a4.8 4.8 0 0 0-5.1-4.9 5.3 5.3 0 0 0-3.7 1.3 5.5 5.5 0 0 0-1.7 3.6zm21.9-4.7a5.8 5.8 0 0 0-3 .8 5.1 5.1 0 0 0-2 2 6.3 6.3 0 0 0-.7 3 6.4 6.4 0 0 0 .7 3 5.2 5.2 0 0 0 2 2.2 5.5 5.5 0 0 0 2.9.7 7.5 7.5 0 0 0 2.9-.5 5.5 5.5 0 0 0 2.1-1.6L657 84a7.4 7.4 0 0 1-2.9 2.2 9.9 9.9 0 0 1-4 .8 8.6 8.6 0 0 1-4.3-1 7.6 7.6 0 0 1-3-3 8.9 8.9 0 0 1-1-4.4 9 9 0 0 1 1-4.4 7.5 7.5 0 0 1 3-3A8.6 8.6 0 0 1 650 70a10.6 10.6 0 0 1 3.8.7 7.3 7.3 0 0 1 2.8 1.8l-1.6 2a6.6 6.6 0 0 0-4.7-1.9zm22.6-.3a9.4 9.4 0 0 1 2 6.4v1h-13.2a5.7 5.7 0 0 0 1.8 3.5 5.5 5.5 0 0 0 3.8 1.3 7 7 0 0 0 2.8-.6 6.6 6.6 0 0 0 2.2-1.5l1.6 1.7a8.4 8.4 0 0 1-3 2 9.9 9.9 0 0 1-3.8.7 8.8 8.8 0 0 1-4.4-1 7.4 7.4 0 0 1-3-3 9.6 9.6 0 0 1 0-8.8 7.7 7.7 0 0 1 3-3 8.5 8.5 0 0 1 4.3-1 7.3 7.3 0 0 1 5.9 2.3zm-.7 5a4.8 4.8 0 0 0-5.1-4.9 5.3 5.3 0 0 0-3.7 1.3 5.5 5.5 0 0 0-1.8 3.6zm6.8-13.9h3v23.4h-3zm21.4 8.9a9.4 9.4 0 0 1 2 6.4v1h-13.2a5.7 5.7 0 0 0 1.9 3.5 5.5 5.5 0 0 0 3.7 1.3 7 7 0 0 0 2.8-.6 6.6 6.6 0 0 0 2.2-1.5l1.6 1.7a8.4 8.4 0 0 1-3 2 9.9 9.9 0 0 1-3.8.7 8.8 8.8 0 0 1-4.4-1 7.4 7.4 0 0 1-3-3 9.6 9.6 0 0 1 0-8.8 7.7 7.7 0 0 1 3-3 8.5 8.5 0 0 1 4.3-1 7.3 7.3 0 0 1 6 2.3zm-.7 5a4.8 4.8 0 0 0-5.1-4.9 5.3 5.3 0 0 0-3.7 1.3 5.5 5.5 0 0 0-1.7 3.6zm20.1-6.2a7.4 7.4 0 0 1 2.9 3 10.1 10.1 0 0 1 0 8.8 7.2 7.2 0 0 1-2.8 3 8 8 0 0 1-4.2 1 7.6 7.6 0 0 1-3.7-.9 6.3 6.3 0 0 1-2.5-2.5v3.3h-3V63.4h3v10A6.4 6.4 0 0 1 712 71a7.5 7.5 0 0 1 3.7-.9 8 8 0 0 1 4.1 1.1zM718 83.6a5.2 5.2 0 0 0 2-2.1 6.5 6.5 0 0 0 .7-3 6.3 6.3 0 0 0-.7-3 5.4 5.4 0 0 0-2-2.2 5.5 5.5 0 0 0-2.9-.8 5.5 5.5 0 0 0-2.9.8 5.3 5.3 0 0 0-2 2.1 6.8 6.8 0 0 0 0 6.1 5.3 5.3 0 0 0 2 2.1 5.9 5.9 0 0 0 5.8 0zM733 71a7 7 0 0 1 3.6-1v2.8a5.4 5.4 0 0 0-5.9 5.2v8.8h-3V70h3v3.6A6 6 0 0 1 733 71zm16.3 15.8v-2.3q-1.9 2.4-5.9 2.4a6.7 6.7 0 0 1-3-.6 4.9 4.9 0 0 1-2-1.9 5 5 0 0 1-.7-2.6 4.3 4.3 0 0 1 1.7-3.5 7.4 7.4 0 0 1 4.6-1.4h5.3v-.8a3.5 3.5 0 0 0-1-2.7 4.7 4.7 0 0 0-3.3-1 9 9 0 0 0-5.1 1.8l-1.2-2a15.3 15.3 0 0 1 3.3-1.7 11.3 11.3 0 0 1 3.6-.5 7 7 0 0 1 4.9 1.5 5.5 5.5 0 0 1 1.7 4.3v11zm-1.8-3.3a4 4 0 0 0 1.7-2.6v-1.7h-4.9a5.7 5.7 0 0 0-2.9.6 2 2 0 0 0-1 1.9 2.5 2.5 0 0 0 1 2 4.2 4.2 0 0 0 2.6.7 6 6 0 0 0 3.5-.9zm18.9 2.2a7.2 7.2 0 0 1-4 1.2 4.5 4.5 0 0 1-3.2-1.2 4.8 4.8 0 0 1-1.2-3.5v-9.3h-2.4v-2.2h2.4v-4.5h3v4.5h5.1v2.2H761v8.7a3 3 0 0 0 .5 2 1.9 1.9 0 0 0 1.5.6 5.3 5.3 0 0 0 2.6-.8zm6.3-21.7a2 2 0 0 1 0 2.7 1.9 1.9 0 0 1-2.7 0 2 2 0 0 1 0-2.7 1.9 1.9 0 0 1 2.7 0zm-2.8 6.1h3v16.7h-3zm22.5 1.6a6.5 6.5 0 0 1 1.7 4.8v10.3h-3v-9.5A4.5 4.5 0 0 0 790 74a4.4 4.4 0 0 0-3.3-1.2 5 5 0 0 0-3.6 1.4 5.6 5.6 0 0 0-1.6 3.7v9h-3V70h3v3.6q1.7-3.6 6.3-3.7a6.1 6.1 0 0 1 4.6 1.7zm21.6-1.6v15a8.1 8.1 0 0 1-1 4.2 7 7 0 0 1-3 2.7 9.9 9.9 0 0 1-4.5 1 11.4 11.4 0 0 1-6.9-2.3l1.4-2.2a8.9 8.9 0 0 0 2.5 1.5 8.3 8.3 0 0 0 3 .5 5.8 5.8 0 0 0 4-1.4 5 5 0 0 0 1.6-4v-2.3a6.2 6.2 0 0 1-2.4 2.4 7 7 0 0 1-3.5.8 7.6 7.6 0 0 1-4-1 7 7 0 0 1-2.6-2.8 9 9 0 0 1-1-4.2 8.7 8.7 0 0 1 1-4.1 7 7 0 0 1 2.7-2.9 7.7 7.7 0 0 1 4-1 7.1 7.1 0 0 1 3.5.8 6.1 6.1 0 0 1 2.4 2.3v-3zM808.7 83a5 5 0 0 0 1.8-2 6 6 0 0 0 .7-3 6.1 6.1 0 0 0-.7-2.8 5 5 0 0 0-1.8-2 5.2 5.2 0 0 0-2.8-.8 5.3 5.3 0 0 0-2.7.8 5.1 5.1 0 0 0-2 2 6 6 0 0 0-.6 2.9 5.8 5.8 0 0 0 1.5 4 5 5 0 0 0 3.8 1.6 5.2 5.2 0 0 0 2.8-.8z"/></svg>