<svg id="Layer_1" data-name="Layer 1" xmlns="http://www.w3.org/2000/svg" viewBox="0 0 141 180"><defs><style>.cls-1{fill:none;stroke-width:3px}.cls-1,.cls-3{stroke:#fff;stroke-miterlimit:10}.cls-2,.cls-3,.cls-4{fill:#fff}.cls-4{font-size:30.18px;font-family:Montserrat-Medium,Montserrat}</style></defs><title>new icons</title><path class="cls-1" d="M131.2 56.3c-8.6 0-17.3.2-26 0-6.4-.2-11.7-6.5-11.8-13.4V18c.5 0 .7.4.9.7l36.2 36.8.7.9z"/><path class="cls-2" d="M35.2 49.8l6.2 3 3.4 1.8c1.7.8 2 1.3 1.7 3.2-.1.6-.5.6-.8.4-3.9-2.4-8-4.2-12-6.3-1.5-.8-1.9-1.5-1.6-3.2.1-.4.4-.5.6-.6l12.9-6.7c.6-.3.8-.2.8.5a2.6 2.6 0 0 1-1.7 3.1 121 121 0 0 0-9.5 4.8zm35.2-.1l-9.8-4.9a2.5 2.5 0 0 1-1.5-3.3c.2-.7.6-.1.9 0l8.3 4.2 4.3 2.3c.6.3.7.7.8 1.3.2 1.4-.4 2-1.6 2.6l-11.6 6c-1 .5-1 .5-1.1-.6a2.4 2.4 0 0 1 1.7-2.9c3.2-1.4 6.3-3 9.6-4.7zM49.8 64.6c-1.5 0-1.5 0-1.1-1.3l6.8-26a2 2 0 0 1 2.5-1c.4.3.1.6 0 1l-3.2 12.3c-1.2 4.6-2.5 9.2-3.6 13.9-.3.8-.5 1.4-1.4 1.1z"/><path class="cls-1" d="M132 125.2H25a84.5 84.5 0 0 0-10.2.1v33.4a13.2 13.2 0 0 0 13.4 13.5H119a13.2 13.2 0 0 0 13.4-13.5V127c0-.6.2-1.3-.4-1.7z"/><path class="cls-1" d="M131.9 56.3c-8.9 0-17.7.2-26.5 0-6.6-.2-12-6.5-12-13.4V18a12.7 12.7 0 0 0-1.3 0H28.5a16.2 16.2 0 0 0-3.5.2 13.3 13.3 0 0 0-10.4 13.7v92a2.7 2.7 0 0 0 .2 1.5 84.5 84.5 0 0 1 10.3-.1H132V57.5c0-.4.2-.8-.1-1.1z"/><path class="cls-3" d="M35.6 92.6v-8a13.2 13.2 0 0 1 2.8-2.4 24 24 0 0 1 12-2l5.8.8a4.7 4.7 0 0 1 2.9-4.3 18.6 18.6 0 0 1 3.3-1.4 39.3 39.3 0 0 1 16.1-1.1 25.2 25.2 0 0 1 8.5 2.2c2 1 3.7 2.4 3.5 5l.2.2a30.3 30.3 0 0 1 12.4-1.3c2.6.4 5.2.7 7.4 2a3 3 0 0 1 1.7 2.8c0 6.3 0 12.7.3 19a4 4 0 0 1-2.6 4.2 22.7 22.7 0 0 1-8.8 2 28.6 28.6 0 0 1-10.7-1.6c-.9 2.4-2.8 3.4-4.9 4a46.7 46.7 0 0 1-7.5 1.7 36.6 36.6 0 0 1-16.7-1.6 8 8 0 0 1-4.6-3.2 1.3 1.3 0 0 0-1.1-.3 26.8 26.8 0 0 1-11 .6 43 43 0 0 1-6.6-1.7 3.3 3.3 0 0 1-2-3.5l-.1-10.9a7.2 7.2 0 0 0-.3-1.2zm52.5.5a36.3 36.3 0 0 1-29.5 0V99a1.9 1.9 0 0 0 .8 1.3 19.2 19.2 0 0 0 3.8 1.6 38.5 38.5 0 0 0 17.4.7 31 31 0 0 0 6-2A2.6 2.6 0 0 0 88 99a57.2 57.2 0 0 0 0-6zm0 9.5a38.4 38.4 0 0 1-29.6 0v3.2c0 3.5.3 3.9 3.6 5l.7.3a36.3 36.3 0 0 0 12 1.4c4-.2 8-.7 11.8-2.6.8-.4 1.5-1 1.5-1.9v-5.4zM58.6 84v5.6a2.1 2.1 0 0 0 1 1.4 19.2 19.2 0 0 0 4.4 1.7 44.3 44.3 0 0 0 7.3 1.1c5.4.3 10.6-.2 15.5-2.7a2.7 2.7 0 0 0 1.4-1.7 53.3 53.3 0 0 0 0-5.5 39 39 0 0 1-29.7 0zm13.6-8l-6.3.6a13.4 13.4 0 0 0-6.6 2.5c-1.1 1-1.2 1.6 0 2.4a15.5 15.5 0 0 0 4 1.9 40.8 40.8 0 0 0 15.9.8 18.3 18.3 0 0 0 8-2.6c1.3-1 1.3-1.7 0-2.6a14.2 14.2 0 0 0-3-1.5 36.8 36.8 0 0 0-12-1.5zm38.6 18.1c-10.8 3.2-11.1 3-20.4 1v3.5c0 1.8 0 1.9 1.8 2.3a28.2 28.2 0 0 0 13 .4 24.4 24.4 0 0 0 4.6-1.6 2 2 0 0 0 1-1.4v-4.2zm0 6.8c-6.7 3-13.4 3-20.4 1v3.4c-.1 1.8-.1 1.8 1.7 2.3a27.7 27.7 0 0 0 10 1 18 18 0 0 0 7.4-2c.6-.3 1.3-.8 1.3-1.3a34.7 34.7 0 0 0 0-4.4zM90.5 88.5v3.8c0 1 .4 1.5 1.3 1.7a28.6 28.6 0 0 0 10.8.9 17.8 17.8 0 0 0 7.1-1.9c.4-.2 1-.6 1-1v-4.5a30.2 30.2 0 0 1-20.2 1zm10.1-7l-7.6 1c-2.3.5-2.5.7-2.5 3.2 0 .8.3 1.3 1 1.5 2 .3 3.8.7 5.8.9a22.6 22.6 0 0 0 11.1-1.4 11.3 11.3 0 0 0 2.3-1.9c-.8-.6-1.5-1.6-2.5-1.8-2.5-.7-5.3-1.1-7.6-1.5zm-51.6 0a55 55 0 0 0-6.1.8 20.4 20.4 0 0 0-4.9 1.9c-1 .5-1 1.2 0 1.9a9.4 9.4 0 0 0 2.6 1.2 30.4 30.4 0 0 0 13.9.2c1.9-.3 1.8-.4 1.8-2.4a10.2 10.2 0 0 1 0-1.3 1 1 0 0 0-1-1.4zm7.4 13.8a26.7 26.7 0 0 1-18.9-1 21.8 21.8 0 0 1 0 3 2.7 2.7 0 0 0 2.2 3.3c.3 0 .6.3 1 .4a30 30 0 0 0 14.9 0c.3-.1.7-.5.8-.7v-5zm-19-7.6a31.6 31.6 0 0 0 0 4 2.1 2.1 0 0 0 1.2 1.5 35.8 35.8 0 0 0 6.2 1.7 25.9 25.9 0 0 0 10.6-.8c.4 0 1-.5 1-.8v-4.6a30.5 30.5 0 0 1-19-1zm19 14.7a30 30 0 0 1-18.8-1v3a2.4 2.4 0 0 0 1.9 2.9 27.2 27.2 0 0 0 16.2.5 1.1 1.1 0 0 0 .7-.8v-4.6z"/><text class="cls-4" transform="translate(39.7 159.6)">YML</text></svg>